<svg id="moment-logo" class="logo" viewBox="0 0 2554 532" fill="none" xmlns="http://www.w3.org/2000/svg">
<rect x="0.577393" y="0.949219" width="2553.16" height="530.894" fill="white"/>
<path d="M1033.89 468.876L1033.89 476.159L996.603 476.159L996.603 423.913L1005.07 423.913L1005.07 468.876L1033.89 468.876ZM1090.85 468.876L1090.85 476.159L1051.91 476.159L1051.91 423.913L1089.75 423.913L1089.75 431.196L1060.38 431.196L1060.38 446.236L1083.33 446.236L1083.33 453.361L1060.38 453.361L1060.38 468.876L1090.85 468.876ZM1139.68 462.464L1117.67 462.464L1112.68 476.159L1103.97 476.159L1123.69 423.913L1133.82 423.913L1153.53 476.159L1144.58 476.159L1139.68 462.464ZM1137.14 455.577L1131.13 438.795L1128.75 431.275L1128.51 431.275L1126.3 438.637L1120.12 455.577L1137.14 455.577ZM1213.54 476.159L1203.48 476.159L1183.3 443.228L1178.23 433.571L1178.15 433.571L1178.47 442.437L1178.47 476.159L1170.71 476.159L1170.71 423.913L1180.68 423.913L1200.79 456.765L1205.94 466.502L1206.02 466.502L1205.7 457.636L1205.7 423.913L1213.54 423.913L1213.54 476.159ZM1307.86 468.876L1307.86 476.159L1270.57 476.159L1270.57 423.913L1279.04 423.913L1279.04 468.876L1307.86 468.876ZM1334.35 476.159L1325.88 476.159L1325.88 423.913L1334.35 423.913L1334.35 476.159ZM1381.03 476.159L1371.14 476.159L1351.74 423.913L1360.77 423.913L1372.96 458.665L1376.12 469.035L1379.29 458.744L1391.48 423.913L1400.43 423.913L1381.03 476.159ZM1426.33 476.159L1417.86 476.159L1417.86 423.913L1426.33 423.913L1426.33 476.159ZM1492.56 476.159L1482.51 476.159L1462.32 443.228L1457.26 433.571L1457.18 433.571L1457.49 442.437L1457.49 476.159L1449.74 476.159L1449.74 423.913L1459.71 423.913L1479.82 456.765L1484.96 466.502L1485.04 466.502L1484.73 457.636L1484.73 423.913L1492.56 423.913L1492.56 476.159ZM1559.72 449.165L1559.72 476.159L1553.46 476.159L1553.23 469.51C1551.69 471.885 1549.58 473.732 1546.89 475.051C1544.2 476.318 1540.98 476.951 1537.23 476.951C1532.38 476.951 1528.13 475.869 1524.49 473.705C1520.85 471.541 1518.03 468.454 1516.02 464.443C1514.01 460.38 1513.01 455.577 1513.01 450.036C1513.01 444.548 1514.04 439.798 1516.1 435.787C1518.16 431.724 1521.06 428.61 1524.81 426.446C1528.55 424.23 1532.91 423.122 1537.87 423.122C1543.25 423.122 1547.68 424.124 1551.17 426.13C1554.65 428.135 1557.39 431.249 1559.4 435.471L1551.64 439.191C1550.64 436.341 1548.95 434.178 1546.58 432.7C1544.2 431.222 1541.35 430.483 1538.03 430.483C1533.07 430.483 1529.13 432.199 1526.23 435.629C1523.33 439.059 1521.88 443.862 1521.88 450.036C1521.88 456.316 1523.25 461.171 1525.99 464.602C1528.79 467.979 1532.85 469.668 1538.18 469.668C1542.35 469.668 1545.73 468.639 1548.32 466.581C1550.9 464.523 1552.2 461.541 1552.2 457.636L1552.2 456.132L1536.21 456.132L1536.21 449.165L1559.72 449.165Z" fill="#222222"/>
<path d="M245.381 262.606L240.178 100.021L197.516 100.021L159.016 213.18L157.195 213.18L119.995 100.021L77.3325 100.021L71.8696 262.606L88.5184 262.606L92.9407 123.173L95.5421 123.173L140.026 256.623L160.576 256.623L206.881 123.173L209.222 123.173L213.644 262.606L245.381 262.606ZM484.378 180.143C484.378 130.197 449.52 96.1186 398.793 96.1186C351.188 96.1186 312.427 133.578 312.427 182.744C312.427 232.431 347.286 266.509 397.752 266.509C445.358 266.509 484.378 229.569 484.378 180.143ZM399.053 252.201C370.178 252.201 346.245 226.187 346.245 179.623C346.245 134.359 369.137 110.686 397.492 110.686C426.628 110.686 450.56 136.7 450.56 183.265C450.56 228.528 427.408 252.201 399.053 252.201ZM725.06 262.606L719.857 100.021L677.195 100.021L638.694 213.18L636.873 213.18L599.674 100.021L557.011 100.021L551.548 262.606L568.197 262.606L572.62 123.173L575.221 123.173L619.704 256.623L640.255 256.623L686.56 123.173L688.901 123.173L693.323 262.606L725.06 262.606ZM907.087 262.606L907.087 241.015C895.121 245.177 883.675 247.518 857.401 247.518L832.948 247.518L832.948 187.687L885.496 187.687L885.496 173.119L832.948 173.119L832.948 115.109L857.401 115.109C883.675 115.109 895.121 117.45 907.087 121.612L907.087 100.021L801.471 100.021L801.471 262.606L907.087 262.606ZM1109.02 261.306L1109.02 100.021L1092.64 100.021L1092.64 224.626L1091.08 224.626L1010.17 98.9801L978.436 101.582L978.436 262.606L994.824 262.606L994.824 135.659L996.385 135.659L1079.11 264.167L1109.02 261.306ZM1254.12 262.606L1254.12 115.109C1279.35 115.889 1292.88 117.19 1306.15 121.872L1306.15 100.021L1170.1 100.021L1170.1 121.872C1183.36 117.19 1197.15 115.889 1222.38 115.109L1222.38 262.606L1254.12 262.606ZM1588.18 262.606L1588.18 100.021L1572.83 100.021L1572.83 173.9L1481.26 173.9L1481.26 100.021L1465.91 100.021L1465.91 262.606L1481.26 262.606L1481.26 183.004L1572.83 183.004L1572.83 262.606L1588.18 262.606ZM1742.15 266.509C1789.49 266.509 1824.35 227.228 1824.35 180.143C1824.35 130.457 1788.71 96.1186 1741.89 96.1186C1694.54 96.1186 1659.68 135.399 1659.68 182.484C1659.68 231.91 1695.06 266.509 1742.15 266.509ZM1742.67 257.664C1706.77 257.664 1676.59 227.488 1676.59 179.363C1676.59 132.278 1704.95 104.963 1741.11 104.963C1777.27 104.963 1807.44 135.139 1807.44 183.004C1807.44 230.089 1778.83 257.664 1742.67 257.664ZM1941.18 262.606L1941.18 109.125L1958.86 109.125C1977.07 109.125 1988.78 110.166 1999.97 112.507L1999.97 100.021L1867.3 100.021L1867.3 112.507C1878.48 110.166 1890.19 109.125 1908.4 109.125L1925.83 109.125L1925.83 262.606L1941.18 262.606ZM2165.49 262.606L2165.49 250.38C2154.31 252.461 2142.6 253.502 2124.39 253.502L2083.03 253.502L2083.03 184.305L2144.42 184.305L2144.42 175.2L2083.03 175.2L2083.03 109.125L2124.39 109.125C2142.6 109.125 2154.31 110.166 2165.49 112.507L2165.49 100.021L2067.68 100.021L2067.68 262.606L2165.49 262.606ZM2334.55 262.606L2334.55 250.38C2323.36 252.461 2311.66 253.502 2293.45 253.502L2253.64 253.502L2253.64 100.021L2238.3 100.021L2238.3 262.606L2334.55 262.606ZM2383.82 255.583C2396.57 262.346 2412.18 266.509 2430.13 266.509C2465.51 266.509 2487.1 248.039 2487.1 220.464C2487.1 195.491 2470.19 184.305 2439.49 173.379C2410.36 162.974 2396.31 153.609 2396.31 135.139C2396.31 119.271 2409.84 104.963 2434.81 104.963C2451.46 104.963 2468.11 111.467 2477.21 118.49L2481.38 105.223C2470.45 100.021 2451.46 96.1186 2436.63 96.1186C2403.86 96.1186 2384.08 112.507 2384.08 138.781C2384.08 162.454 2401.77 175.721 2431.43 186.386C2464.99 198.613 2474.87 207.457 2474.87 225.407C2474.87 243.356 2458.48 257.664 2431.17 257.664C2414.78 257.664 2401.77 251.681 2388.25 242.056L2383.82 255.583Z" fill="#222222"/>
</svg>