<svg id="belvedere-logo" class="logo" xmlns="http://www.w3.org/2000/svg" viewBox="0 0 249.33 243"><title>Artboard 1</title><path d="M242.21,125.24c0,5.63.64,11.36-.12,16.89-2,14.44-5.86,28.05-14.19,40.67-10,15.17-23.23,26.67-37.72,36.75-21.2,14.76-45.32,20.28-71,18.6a74.5,74.5,0,0,1-32.55-9.52c-10.53-6-21.51-11.28-31.89-17.53-11.61-7-19.28-18.15-27.39-28.61C14.27,165.56,8.7,146,7,124.8c-2.25-27.44,6.52-51.29,22-73.11C36.26,41.32,46.26,33.53,57.1,26.88a144.85,144.85,0,0,1,39.48-17c14.61-3.8,29.16-3.26,43.75.22,11.55,2.75,22.06,7.87,32.47,13.38,3.7,2,8.13,2.55,11.78,4.58a87.82,87.82,0,0,1,29.49,26.23c5.84,8.28,11.84,16.45,17.83,24.61,6.23,8.49,7.92,18.47,9.28,28.5.8,5.9.93,11.89,1.36,17.84Zm-3.63-.1c-.83-9.24-1.2-18.55-2.69-27.68a37.68,37.68,0,0,0-5.5-14.14,305.87,305.87,0,0,0-19.63-27.21c-6.82-8.33-14.58-15.93-24.39-20.87S167,25.23,157,21.12c-12.36-5.06-25.23-8.6-38.86-7.85-11,.61-22,1.39-32.23,6.05C77.87,23,70.05,27.18,62.06,31A71.1,71.1,0,0,0,34.32,54.88c-6.66,9.67-11.53,20.78-15.83,31.79-2.88,7.39-4.15,15.66-4.73,23.64-.53,7.34,1.06,14.81,1.3,22.24.49,15.55,5.75,29.71,13.78,42.55,11.63,18.6,27.42,33.25,47.38,42.78a243.85,243.85,0,0,0,30.26,12.28A75.15,75.15,0,0,0,144,231.85c11.7-2.32,23.66-5.69,34.11-11.23,11-5.83,21-14,30.15-22.57,7.78-7.27,15.31-15.7,20.09-25.07A93,93,0,0,0,238.58,125.14Z"/><path d="M29.09,119.71c13.58-8.77,27.75-18.27,42.27-27.19,22.3-13.71,47.08-17.29,72.7-16.22,18.82.79,36.23,7.36,52.86,15.53a70.3,70.3,0,0,1,24.61,19.66c1.8,2.29,3.88,4.52,5,7.14a6.15,6.15,0,0,1-.82,5.44c-4.37,4.66-8.73,9.58-13.94,13.17-10.4,7.16-21.13,13.92-32.18,20-6.35,3.52-13.46,5.89-20.46,8-8.42,2.52-17,4.38-25.66,6.12-3.63.73-7.46.57-11.2.56-4.7,0-9.4-.35-14.1-.43-8.28-.15-16.16-1.61-23.17-6.4-.88-.6-2.22-.49-3.3-.83-5.12-1.61-10.35-2.93-15.3-4.94C52.57,153.7,45,140.64,34.11,131.53,30.75,128.73,27.52,125.78,29.09,119.71Zm59.43,3.21c.54,4.26.41,8.75,1.74,12.74,3.61,10.82,10.17,18.77,21.65,22.67,13.67,4.66,26.84,3.95,39.46-2.26,13.14-6.46,18.32-26,16.37-40.5-1.41-10.4-9.16-16.66-16.14-23.14-3.25-3-7.46-5.88-11.67-6.77a48.51,48.51,0,0,0-17.29-.17A57.29,57.29,0,0,0,105,91a29.39,29.39,0,0,0-10.59,10.2C90.43,107.67,87.66,114.88,88.52,122.92ZM157,159.21l1.68,1.62c11.58-5.89,23.5-11.2,34.62-17.85,9-5.39,17.17-12.25,25.42-18.82,1.26-1,2.11-4.75,1.3-5.79-9.14-11.76-21.11-19.71-35.05-24.75-5.86-2.12-11.77-4.11-17.71-6-4.94-1.58-9.95-2.94-14.93-4.4l-1.46,2c10.77,10,21.67,20.26,22,35.75C173.07,135.53,170.22,149.57,157,159.21Zm-51.5,5.67.63-1.37c-12.78-8.21-20.58-19.38-22.31-34.72-1.7-15.08.64-28.61,12.55-39.6C90.49,90.75,84.77,92.07,80,94.94c-14,8.39-28.92,15.52-41,27-1.79,1.7-2.44,3-.4,4.88s4,3.88,6.11,5.77c9,8.26,17.66,17,29.41,21.56,5.53,2.15,11,4.54,16.58,6.48C95.54,162.28,100.54,163.47,105.47,164.88Z"/><path d="M152.83,208.91q-.78-14.31-1.57-28.63c-.25-4.38,5.81-7.48,11-5.57,6.23,2.3,9.67,7.86,9.1,14.62-.43,5.16-.68,10.33-1.25,15.48s-5.91,13.68-11.75,14.94c-3.87.84-5.2.11-5.62-3.41-.29-2.45-.52-4.91-.77-7.37Zm3.78,5.91,2.39,1.76c1.24-2,2.86-3.77,3.63-5.9a38.29,38.29,0,0,0,2.56-10.27,90.34,90.34,0,0,0-.4-16.53c-.2-1.63-2.93-3-4.5-4.42-.95,1.66-2.6,3.27-2.73,5-.64,8.35-.91,16.73-1.24,25.09A51.89,51.89,0,0,0,156.61,214.82Z"/><path d="M110.21,198.87c-.91-.08-1.07-.11-1.24-.11-3.56,0-9.29-1.32-10.25.25-2.67,4.4-3.53,10-4.75,15.15-.73,3.08-.44,3.15-5,2.57,1.54-6.4,3.1-12.74,4.58-19.1,1.24-5.33,2.3-10.69,3.63-16,.3-1.22,1.4-2.24,2.13-3.35,1.3,1.1,3.06,2,3.74,3.37.52,1.08-.17,2.87-.6,4.25-2.22,7.23-2.22,7.29,5.57,8.81,1,.18,1.92.24,3.35.42.78-4.44,1.34-8.66,2.34-12.78.3-1.23,1.8-2.17,2.75-3.24,1.08,1.26,3.12,2.58,3,3.76-.2,3.07-1.28,6.09-2.1,9.11q-3.58,13.08-7.25,26.14a4.4,4.4,0,0,1-.81,1.78c-.91,1-2,1.82-3,2.71-.26-1.26-1-2.64-.69-3.78,1.14-5,2.62-9.89,3.87-14.85A45,45,0,0,0,110.21,198.87Z"/><path d="M127.44,180.21c5.39.6,6.2,2.1,5.45,6.8a172.58,172.58,0,0,0-2.58,22.37c-.08,2.8,2.57,5.67,4,8.52,1.73-2.34,4.62-4.51,5-7.05,1.15-8.1,1.4-16.33,1.9-24.52.16-2.58,0-5.18,0-8,4.65,0,5.11,2.46,5,5.63-.29,6.57-.06,13.19-.73,19.71-.53,5.19-1.33,10.61-3.43,15.3-1.32,3-5.55,4.56-9.21,3a11.89,11.89,0,0,1-7.56-11.36c0-7.61.79-15.21,1.32-22.81C126.72,185.4,127.11,183,127.44,180.21Z"/><path d="M44.32,75.59c3.67.7,6.87.87,9.73,1.94,5.09,1.92,6.71,7.48,3.24,11.69a108.39,108.39,0,0,1-13.58,14.17c-1,.84-5.78-1.15-7.42-3-4.19-4.83-7.65-10.3-11.23-15.63a3.89,3.89,0,0,1-.13-3.44,47.3,47.3,0,0,1,6-8.41C36.76,66.87,41.69,68.08,44.32,75.59ZM35.9,91.11l5.53,10.51c4.42-4.6,8.71-8.5,12.19-13,1.13-1.47.7-4.85-.18-6.84-.47-1-4-2-5.18-1.26-3.52,2.06-8.57,2.2-10,7.25C37.91,88.86,36.86,89.77,35.9,91.11Zm-1.47-4.68c6.5-6.72,7-8.47,4-12.79C30.16,78,29.27,80.59,34.43,86.43Z"/><path d="M154.6,26.38c8.35.34,15.84,8,14.42,16.33a129.74,129.74,0,0,1-5.14,20.06,11.73,11.73,0,0,1-14,7.43c-1.62-.46-3.7-4-3.37-5.79C148.86,51.82,151.77,39.33,154.6,26.38ZM158.19,32c-2.44,11.82-4.72,22.88-7,34.13,5.58.15,8.61-2.72,9.84-6.93,1.7-5.85,3.49-11.91,3.53-17.89C164.55,38.22,163.29,33.3,158.19,32Z"/><path d="M64.1,177.26c-7,1.83-8.36,9.62-14.29,11.2l-1.41-1.39,15.45-22.34c8.39,6.46,4.79,15.41,6.69,23.85,2.61-4.36,5.16-8.75,7.86-13.05a9,9,0,0,1,3.13-3.3c.47-.25,2.61,1.24,2.76,2.13a6.51,6.51,0,0,1-1.11,4.31q-6.21,8.9-12.84,17.51c-.78,1-2.63,2.13-3.6,1.85a4.49,4.49,0,0,1-2.52-3.32C64,189,64.1,183.24,64.1,177.26Z"/><path d="M89.24,27.08c4.12-1.93,6.89-.42,8.58,2.79,4.14,7.86,8,15.88,12,23.83.4.81.85,1.6,2,3.76.45-11.74.84-21.93,1.21-32.12,0-1.16-.37-2.45,0-3.46a18.21,18.21,0,0,1,2.44-3.59c1,1.27,2.79,2.55,2.79,3.83,0,5.12-.47,10.25-.92,15.36-.81,9.17-1.73,18.33-2.72,28.8-2-1.34-4.68-2.08-5.2-3.56A110.14,110.14,0,0,0,89.83,29,6.76,6.76,0,0,1,89.24,27.08Z"/><path d="M133.32,25v4.89c1.78,3.64,8.28-.29,8,6.22h-8.81c-1.5,8.79-3,17.43-4.51,26.39l11.21,1.1,0,2.29c-4.21.47-8.42,1.39-12.6,1.24-2.21-.08-3.37-1.89-2.78-5.09,1.8-9.9,3-19.92,4.11-29.93.33-2.88-.6-5.9-.45-8.82.15-2.76,1.11-4.69,4.83-3.39,3.38,1.18,7.12,1.31,10.62,2.22,1.16.3,2.07,1.57,3.09,2.4-1.36.61-2.72,1.73-4.07,1.71A67.81,67.81,0,0,1,133.32,25Z"/><path d="M221.92,138.73c5.47,6.14,4.49,15,8.4,21.85-6.58,5.34-9.58-3.12-15-3.47,1.71,7,3.34,13.69,5,20.38L219,178.6c-1.25-1.18-3.16-2.14-3.64-3.58-2.54-7.65-4.82-15.39-6.91-23.18-.35-1.31.66-3,1.05-4.48,1.52.44,3.31.51,4.51,1.39,2.85,2.12,5.43,4.61,8.12,7l1.21-.74q-1.8-7.68-3.62-15.37Z"/><path d="M44,174.3c-8-.12-13-5.16-12.85-13.12.1-6,4.48-11.15,9.41-10.81,5.39.37,15.49,8.19,14.91,13.18C54.76,169.42,50,174.39,44,174.3Zm-7-10.11c-.37,2.32,1.49,4.08,5.13,4.28,4.07.23,8-2.53,8-5.65s-4.67-7.85-8-7.5C37.78,155.77,37.51,159.34,37,164.19Z"/><path d="M194.91,66.34c-4.34,3.4-4,10.79-9.56,13.16L184,78.56l9.57-20.48c.07-.15.21-.26.29-.41,5-9.17,5-9.19,12-.92,1.39,1.63,3.25,3.34,3.61,5.26.43,2.28.37,5.72-1,7.1-6.62,6.59-6.84,6.46-8.68,15.56-.87-1.11-2.33-2.15-2.47-3.35-.21-1.71.47-3.56.9-5.31C199.6,70.47,199.63,70.48,194.91,66.34Zm6.84-10.89c-2.1,2.86-4.64,5.11-4.23,6,1,2.23,3.4,3.85,5.23,5.71,1-1.17,3.08-2.6,2.87-3.47C205,61.2,203.49,59,201.75,55.45Z"/><path d="M67.83,78c3.25.12,5-5.6,8.55-1-2,1.88-3.74,3.78-5.74,5.38-3,2.37-5,1-6.94-1.75C59.67,75,55.45,69.55,51.29,64a9.83,9.83,0,0,0-1.42-1.39c-6.5-5.58-6.46-5.7.3-11.71,1.58-1.41,2.67-3.4,4.34-4.68.85-.65,2.47-.3,3.74-.4-.14,1.23.13,2.74-.5,3.63-1.5,2.13-3.59,3.85-5.1,6-.67,1-1,3.36-.62,3.63a8.88,8.88,0,0,0,4.54,1.13c.82,0,1.57-1.26,2.48-1.51a23.1,23.1,0,0,1,4-.41c-.41,1.28-.44,3.17-1.32,3.72-3.26,2.06-2.63,3.94-.61,6.48C63.56,71.56,65.65,74.89,67.83,78Z"/><path d="M192.3,43.67c-1.62,2.86-1.62,2.86-10.36-.57-1.18,2.68-4,5.16,1,7.39,1.41.63,2.24,2.58,3.34,3.92-1.71-.12-3.42-.19-5.12-.38a10.89,10.89,0,0,1-2.06-.7c-1.62,2.82-3.25,5.47-4.69,8.21-3.14,6-3.07,5.95,2.66,9.44.88.54,1.24,1.93,1.85,2.93-1.17.06-2.48.5-3.49.13-8.54-3.22-8.5-3.26-5.44-12.26,2.34-6.88,4.82-13.72,6.84-20.68,1-3.45,2.65-4.36,5.67-2.83C185.8,40,189,41.86,192.3,43.67Z"/><path d="M177.18,207.19c7.38-2,9.58-8.16,5.41-14.74-2.47-3.91-5-7.75-7.49-11.67-2.71-4.34-3.13-8.85.16-13,1.11-1.39,3.41-2.7,5-2.55s3.35,2.06,6.06,3.92c-8.31.78-9.72,4.71-5.86,11.32a166.66,166.66,0,0,1,8.18,14.63c2.07,4.49-1.79,12.75-6.34,14.59C179.83,210.75,177.45,211,177.18,207.19Z"/><path d="M89.35,69.17l9.08-3.24,1.2,1.13c-.9,1.33-1.53,3.12-2.77,3.89A16.62,16.62,0,0,1,90,73.6a6,6,0,0,1-4.74-2.42C81.93,65.52,79,59.63,76.15,53.75Q72.58,46.46,69.38,39a3.3,3.3,0,0,1,.77-2.39c1.22.11,2.95.22,3.51,1a61.84,61.84,0,0,1,5.28,8.95C82.48,54,85.8,61.43,89.35,69.17Z"/><path d="M225.92,88.22c-2.52-3.67-4.53-6.63-6.92-10.11-4.95,5.58,2.39,9.13,1.8,14.72l-7.51-8c-2,2.1-3.66,3.95-1.19,6.93a76.81,76.81,0,0,1,4.43,6.51l-1.42,1.41c-1.59-1.44-3.24-2.82-4.77-4.32-5.81-5.73-5.78-6-1-13,1.87-2.72,3.51-5.6,5.37-8.33,1.41-2.08,3.45-3.24,5.16-.68,2.63,3.93,4.81,8.16,7.08,12.31C227.13,86.08,226.52,86.84,225.92,88.22Z"/><path d="M191.05,170.76c0-5.56,3.27-10.48,6.86-10.44,5.05.06,8.59,3.69,8.39,9-.19,4.94-3.2,10.57-7.94,10S191,176.2,191.05,170.76Zm12.79-1.3-3.89-5a55.85,55.85,0,0,0-4.53,7.12c-.32.7,1.23,2.26,1.92,3.43Z"/><path d="M82.55,207.12l-8-.41,5.78-5,3.4,4.34Z"/><path d="M29.89,108.91l-4.71-5c.73-.55,2-1.68,2.12-1.55,1.64,1.37,3.1,3,4.61,4.47Z"/><path d="M109.43,98.69c6.92,0,13.61-.6,20.14.14,9,1,16.66,5.34,15.61,13.67a43.65,43.65,0,0,1-1.25,5c7.32,3.09,9.95,9.21,10.53,16.8.57,7.28-6.52,15.08-13.87,14.84-8.26-.26-16.51-.67-24.77-.73-3,0-4.75-.55-4.92-3.93-.4-8.09-1.13-16.17-1.42-24.27C109.23,113.43,109.43,106.64,109.43,98.69Zm6.22,46.44c7.33,0,14.48.21,21.62-.06,6.83-.26,13.38-6.15,12.7-11.59-.77-6.3-3.88-13-13.32-12.1-5.37.51-10.8.46-16.2.63-1.86,0-3.73,0-6,0C114.9,130.13,115.26,137.34,115.65,145.13Zm-.23-27c5.39,0,10.47.2,15.51-.09a11.41,11.41,0,0,0,6-2.14c1.71-1.32,3.8-3.58,3.74-5.36s-2.45-3.63-4.22-4.91c-6.74-4.89-13.86-2.26-21-.94Z"/></svg>