<svg class="logo" id="indigo-logo" xmlns="http://www.w3.org/2000/svg" xmlns:xlink="http://www.w3.org/1999/xlink" viewBox="0 0 659 488"><defs><style>.cls-1{fill:none;}.cls-2{fill:#fff;}.cls-3{clip-path:url(#clip-path);}</style><clipPath id="clip-path"><rect class="cls-1" y="0.2" width="658.55" height="487.8"/></clipPath></defs><title>Artboard 1</title><polyline class="cls-2" points="190.53 65.98 190.53 35.34 160.79 35.34 160.79 65.98 147.19 65.98 147.19 1.61 160.79 1.61 160.79 30.42 190.53 30.42 190.59 1.64 204.07 1.61 204.07 65.98 190.53 65.98"/><polyline class="cls-2" points="339.7 7.3 339.7 65.98 325.96 65.98 325.96 7.3 307.8 7.3 307.8 1.61 357.87 1.61 357.87 7.3 339.7 7.3"/><polyline class="cls-2" points="381.42 65.98 381.42 1.61 422.8 1.61 422.8 7.3 396.22 7.3 396.22 30.43 418.45 30.43 418.45 35.34 396.22 35.34 396.22 59.55 423.27 59.55 423.27 65.98 381.42 65.98"/><g class="cls-3"><polyline class="cls-2" points="451.76 65.98 451.76 1.61 466.65 1.61 466.65 59.55 495.4 59.55 495.4 65.98 451.76 65.98"/><path class="cls-2" d="M259.92,67.31c-21,0-34.15-13.06-34.15-33.56S238.91.2,259.92.2C281.5.2,294.17,13,294.17,33.75c0,20.21-13.14,33.56-34.25,33.56m0-63.19C247.27,4.12,240,14.26,240,33.76c0,19,7.29,29.57,19.94,29.57s20-10.47,20-29.57C280,14.84,272.57,4.12,259.92,4.12Z"/></g><path class="cls-2" d="M145.78,205.92V127.17h9.93V239.65H143.84L73.61,159.12c-1-1.2-2.34-2.65-3.82-4.52h-1v85.05H58.9V127.17H76.33l64.52,73.76a50.28,50.28,0,0,1,4,5h1"/><g class="cls-3"><path class="cls-2" d="M235.65,239.65H191V127.17h44.61c39.79,0,61.58,15,61.58,53.94,0,42.17-32.31,58.54-61.58,58.54m-2.8-106H214.1V233h15.79c21.09,0,42.26-10.93,42.26-51.87C272.15,145.09,254.23,133.67,232.85,133.67Z"/><rect class="cls-2" y="127.17" width="23.02" height="112.48"/></g><rect class="cls-2" x="329.24" y="127.17" width="23.02" height="112.48"/><path class="cls-2" d="M584,242.11c-36.72,0-59.66-22.82-59.66-58.62s22.94-58.63,59.66-58.63c37.69,0,59.82,22.34,59.82,58.63,0,35.31-23,58.62-59.82,58.62m0-110.39c-22.09,0-34.83,17.72-34.83,51.77,0,33.21,12.74,51.66,34.83,51.66s35-18.27,35-51.66C619,150.45,606.1,131.72,584,131.72Z"/><path class="cls-2" d="M472.37,191.41v38.85c-2,1.26-8.88,5-21,5-27.8.11-41.81-20.65-41.71-51.94.11-31.85,20.6-51.15,41.33-51.33,14.42-.13,28.08,4.3,37.41,16.86h.53A73.75,73.75,0,0,1,493,134.64s-14.22-9.77-42.08-9.77c-39.14,0-66.45,26.25-66.45,58.62,0,41.09,29.46,58.62,67,58.62,21.14,0,44-7.18,44-7.18V191.41h-23"/><path class="cls-2" d="M643.83,132.23a7.33,7.33,0,0,1,7.36-7.37,7.33,7.33,0,1,1-7.36,7.37m13.39,0a6,6,0,1,0-6,6.14A5.89,5.89,0,0,0,657.22,132.19Zm-8.55-3.71h2.55c1.69,0,2.79.7,2.79,2.19v0a1.92,1.92,0,0,1-1.49,2l1.92,3.08h-1.66L651,132.92h-.77v2.82h-1.59Zm2.52,3.35c.83,0,1.26-.37,1.26-1.06v0c0-.76-.46-1-1.26-1h-.93v2.12Z"/><path class="cls-2" d="M67.06,486.6V436.41H87.3q7.8,0,11.7,3.07t3.9,9.16a11.89,11.89,0,0,1-1.8,6.67,11.39,11.39,0,0,1-5.39,4.2,11.3,11.3,0,0,1,7.06,4,12.6,12.6,0,0,1,2.52,8.06q0,6.88-4.57,10.94t-12.4,4.05H67.06m6.81-29.1h12q5.28,0,7.77-1.9t2.49-6A6.68,6.68,0,0,0,93.7,444q-2.39-1.85-7.32-1.84H73.87Zm0,23H87.71c3.47,0,6.11-.77,7.9-2.3a8.32,8.32,0,0,0,2.69-6.7q0-4.37-2.74-6.4t-8.64-2.05h-13Z"/><g class="cls-3"><path class="cls-2" d="M113.26,436.41h19.46a42.89,42.89,0,0,1,7,.41,13.57,13.57,0,0,1,4,1.36,11.77,11.77,0,0,1,4.82,4.84,15.32,15.32,0,0,1,1.65,7.29,13.17,13.17,0,0,1-1.73,6.94,11.74,11.74,0,0,1-5.18,4.51,6.94,6.94,0,0,1,4.17,2.76q1.25,2,1.55,6.58l.58,8.28a13.6,13.6,0,0,0,.7,4,3.47,3.47,0,0,0,1.58,1.86v1.39H144c-.63-1-1.08-3.28-1.33-6.71v-.2l-.4-6.55q-.34-5-2.15-6.54t-9-1.5H120v21.5h-6.75V436.41m6.68,5.9v17h11.65q6.32,0,8.92-2.05t2.6-6.81q0-4.47-2.45-6.3t-9.07-1.84Z"/><path class="cls-2" d="M159.33,467.56V436.41h6.82v31.21q0,7.06,3.11,10.43t9.66,3.37q6.48,0,9.66-3.42t3.19-10.38V436.41h6.85v31.15q0,10.08-5.2,15.26T178.14,488q-9.4,0-14.11-5.11t-4.7-15.33"/></g><path class="cls-2" d="M206.76,470.08h6.58a11.56,11.56,0,0,0,3.63,8.69q3.53,3.23,9.42,3.23t9.18-2.45a7.84,7.84,0,0,0,3.36-6.68q0-5.76-12.61-8.76l-1.16-.27q-10.22-2.41-13.51-5.4T208.36,450a13.31,13.31,0,0,1,4.91-10.78q4.9-4.08,13-4.07c5.54,0,9.91,1.42,13.08,4.27s4.8,6.77,4.84,11.74l-6.5,0a10.74,10.74,0,0,0-3.43-7.74c-2.05-1.79-4.87-2.69-8.43-2.69a13.23,13.23,0,0,0-8,2.2,6.88,6.88,0,0,0-3,5.84q0,5.84,12.4,8.69l2.83.68.72.17c5.41,1.3,9,2.69,10.77,4.19a11.19,11.19,0,0,1,3.06,4.14,13.47,13.47,0,0,1,1.06,5.44,14.19,14.19,0,0,1-5.2,11.55q-5.19,4.29-14,4.29-9.14,0-14.23-4.61t-5.47-13.24"/><path class="cls-2" d="M253.14,470.08h6.57a11.56,11.56,0,0,0,3.63,8.69q3.53,3.23,9.42,3.23t9.19-2.45a7.85,7.85,0,0,0,3.35-6.68q0-5.76-12.6-8.76l-1.16-.27q-10.23-2.41-13.51-5.4c-2.2-2-3.29-4.81-3.29-8.47a13.31,13.31,0,0,1,4.9-10.78q4.92-4.08,13.06-4.07,8.31,0,13.08,4.27t4.84,11.74l-6.51,0a10.78,10.78,0,0,0-3.42-7.74q-3.09-2.69-8.44-2.69a13.23,13.23,0,0,0-8,2.2,6.9,6.9,0,0,0-3,5.84q0,5.84,12.4,8.69l2.83.68.71.17q8.12,1.95,10.77,4.19a11.33,11.33,0,0,1,3.07,4.14,13.64,13.64,0,0,1,1.05,5.44,14.21,14.21,0,0,1-5.19,11.55q-5.2,4.29-14.06,4.29-9.13,0-14.22-4.61t-5.47-13.24"/><polyline class="cls-2" points="300.53 486.6 300.53 436.41 336.31 436.41 336.31 442.65 307.28 442.65 307.28 457.64 334.1 457.64 334.1 463.5 307.28 463.5 307.28 480.33 336.89 480.33 336.89 486.6 300.53 486.6"/><polyline class="cls-2" points="345.14 486.6 345.14 436.41 352.02 436.41 352.02 480.26 377.03 480.26 377.03 486.6 345.14 486.6"/><g class="cls-3"><path class="cls-2" d="M380.17,470.08h6.57a11.56,11.56,0,0,0,3.63,8.69q3.53,3.23,9.42,3.23t9.19-2.45a7.85,7.85,0,0,0,3.35-6.68q0-5.76-12.61-8.76l-1.15-.27q-10.23-2.41-13.52-5.4T381.77,450a13.31,13.31,0,0,1,4.9-10.78q4.92-4.08,13.05-4.07,8.32,0,13.09,4.27t4.84,11.74l-6.51,0a10.74,10.74,0,0,0-3.43-7.74q-3.07-2.69-8.43-2.69a13.23,13.23,0,0,0-8,2.2,6.87,6.87,0,0,0-3,5.84q0,5.84,12.4,8.69l2.83.68.71.17q8.11,1.95,10.77,4.19a11.33,11.33,0,0,1,3.07,4.14,13.64,13.64,0,0,1,1.05,5.44,14.21,14.21,0,0,1-5.19,11.55q-5.21,4.29-14.06,4.29-9.14,0-14.22-4.61t-5.47-13.24"/><path class="cls-2" d="M481.77,468h6.62q-.45,9.18-6.26,14.61t-15,5.43q-10.59,0-16.61-7.22t-6-20q0-11.77,6.3-18.72t17-6.93q8.52,0,14,4.39a17.24,17.24,0,0,1,6.29,12h-6.68a11.93,11.93,0,0,0-4.54-7.65,15.07,15.07,0,0,0-9.3-2.68q-7.63,0-11.84,5.35t-4.21,15.1q0,9.19,4.38,14.75a14,14,0,0,0,11.6,5.55,13.87,13.87,0,0,0,10.11-3.83,14.42,14.42,0,0,0,4.2-10.14"/></g><rect class="cls-2" x="496.56" y="436.41" width="6.81" height="50.19"/><polyline class="cls-2" points="525.42 486.6 525.42 442.51 509.58 442.51 509.58 436.41 548.12 436.41 548.12 442.51 532.27 442.51 532.27 486.6 525.42 486.6"/><polyline class="cls-2" points="573.64 486.6 566.79 486.6 566.79 466.5 548.19 436.41 556.74 436.41 570.16 460.16 583.49 436.41 591.49 436.41 573.64 466.02 573.64 486.6"/><path class="cls-2" d="M364.18,308h6.43V332h27.77V308h6.43v52.82h-6.43v-23.5H370.61v23.5h-6.43V308m56.28,26.74v-.59c0-15,10.49-26.82,26-26.82s25.78,11.82,25.78,26.67v.59c0,14.92-10.27,26.89-25.64,26.89C431,361.52,420.46,349.55,420.46,334.78Zm45.14-.22V334c0-11.81-7-21.42-19.13-21.42s-19.36,9-19.36,21.57v.59c0,12.79,8.5,21.5,19.5,21.5C458.36,356.2,465.6,347.34,465.6,334.56Zm31-21.28H481.28V308h37.16v5.24H503.07v47.58h-6.43ZM533.75,308h30.81v5.24H540.18v18h19.65v5.25H540.18v19.13h25.71v5.25H533.75Zm49.72,0h6.43v47.57h24.16v5.25H583.47Zm-520.8,0h8.42L89,360.86H82.61l-5.17-15.22H55.65l-5.1,15.22H44.49Zm-5.25,32.5H75.74l-9.16-27.19ZM103.71,308h8.35l25.71,43.66V308h6.13v52.82h-7.39l-26.67-45.29v45.29h-6.13Zm75.8,0h11.54v52.83H179.51Zm26.73,0h11.55v21.05h22.79V308h11.54v52.83H240.58V339.79H217.79v21.06H206.24Zm98.06,15.24,8-7.47a23.84,23.84,0,0,0-8.9-6.56,30.08,30.08,0,0,0-25.47,1,24.88,24.88,0,0,0-9.85,9.59,28.47,28.47,0,0,0-3.62,14.6,29,29,0,0,0,3.36,14.11,24.67,24.67,0,0,0,9.65,9.81,28.13,28.13,0,0,0,14.3,3.63,27.7,27.7,0,0,0,13.55-3.33,24.89,24.89,0,0,0,9.66-9.39,27.33,27.33,0,0,0,3.59-14.15,33.5,33.5,0,0,0-.61-6H290.57v10.72H306a11,11,0,0,1-4.37,8.07A16.55,16.55,0,0,1,284,349a14.09,14.09,0,0,1-5.43-5.77,18.64,18.64,0,0,1-2-8.83,19.07,19.07,0,0,1,1.85-8.56A14.17,14.17,0,0,1,283.7,320a14.93,14.93,0,0,1,8.07-2.15Q298.64,317.83,304.3,323.26ZM341,318.4a9.33,9.33,0,1,1-9.33-9.29A9.19,9.19,0,0,1,341,318.4Zm-1.68,0a7.65,7.65,0,1,0-7.65,7.77A7.4,7.4,0,0,0,339.29,318.4Zm-3.53,4.49h-2.1l-2.23-3.57h-1v3.57h-2v-9.2h3.24c2.14,0,3.52.88,3.52,2.77v.05a2.43,2.43,0,0,1-1.89,2.48Zm-2.52-6.34c0-1-.59-1.3-1.6-1.3h-1.17v2.68h1.17c1.06,0,1.6-.46,1.6-1.34Z"/></svg>