<svg id="logo-sage-inn-v2" class="logo" xmlns="http://www.w3.org/2000/svg" xmlns:xlink="http://www.w3.org/1999/xlink" viewBox="0 0 570.39 492"><defs><style>.sage-inn-cls-1{fill:url(#linear-gradient);}.sage-inn-cls-2{fill:url(#linear-gradient-2);}.sage-inn-cls-3{fill:url(#linear-gradient-3);}.sage-inn-cls-4{fill:url(#linear-gradient-4);}.sage-inn-cls-5{fill:url(#linear-gradient-5);}.sage-inn-cls-6{fill:url(#linear-gradient-6);}.sage-inn-cls-7{fill:url(#linear-gradient-7);}.sage-inn-cls-8{fill:url(#linear-gradient-8);}.sage-inn-cls-9{fill:url(#linear-gradient-9);}.sage-inn-sage-inn-cls-10{fill:#088b9e;}.sage-inn-sage-inn-cls-11{fill:#fff;}.sage-inn-sage-inn-cls-12{fill:#e7e6e6;}.sage-inn-cls-13{fill:#bbbcbe;}.sage-inn-cls-14{fill:#aac49c;}.sage-inn-cls-15{fill:#a0b9a0;}</style><linearGradient id="linear-gradient" x1="247.56" y1="163.07" x2="315.71" y2="163.07" gradientUnits="userSpaceOnUse"><stop offset="0" stop-color="#004c6f"/><stop offset="0" stop-color="#004f72"/><stop offset="0.05" stop-color="#046985"/><stop offset="0.09" stop-color="#067c93"/><stop offset="0.13" stop-color="#08879b"/><stop offset="0.18" stop-color="#088b9e"/><stop offset="0.59" stop-color="#08899d"/><stop offset="0.73" stop-color="#078298"/><stop offset="0.83" stop-color="#05778f"/><stop offset="0.92" stop-color="#036682"/><stop offset="0.99" stop-color="#015072"/><stop offset="1" stop-color="#004c6f"/></linearGradient><linearGradient id="linear-gradient-2" x1="231.6" y1="278.73" x2="332.19" y2="278.73" gradientUnits="userSpaceOnUse"><stop offset="0.14" stop-color="#d0d1d2"/><stop offset="0.41" stop-color="#d2d3d4"/><stop offset="0.51" stop-color="#d9d9da"/><stop offset="0.58" stop-color="#e4e4e4"/><stop offset="0.59" stop-color="#e7e6e6"/></linearGradient><linearGradient id="linear-gradient-3" x1="231.61" y1="278.62" x2="332.17" y2="278.62" gradientUnits="userSpaceOnUse"><stop offset="0.41" stop-color="#e7e6e6"/><stop offset="0.42" stop-color="#e4e3e3"/><stop offset="0.47" stop-color="#d3d3d3"/><stop offset="0.53" stop-color="#c8c7c7"/><stop offset="0.62" stop-color="#c1c1c1"/><stop offset="0.86" stop-color="#bfbfbf"/></linearGradient><linearGradient id="linear-gradient-4" x1="231.61" y1="47.04" x2="332.17" y2="47.04" xlink:href="#linear-gradient-3"/><linearGradient id="linear-gradient-5" x1="231.6" y1="47.15" x2="332.19" y2="47.15" xlink:href="#linear-gradient-2"/><linearGradient id="linear-gradient-6" x1="231.6" y1="251.89" x2="332.19" y2="251.89" gradientUnits="userSpaceOnUse"><stop offset="0.14" stop-color="#808184"/><stop offset="0.43" stop-color="#828386"/><stop offset="0.53" stop-color="#888a8d"/><stop offset="0.59" stop-color="#919396"/></linearGradient><linearGradient id="linear-gradient-7" x1="231.61" y1="251.79" x2="332.17" y2="251.79" gradientUnits="userSpaceOnUse"><stop offset="0.41" stop-color="#919396"/><stop offset="0.41" stop-color="#8f9194"/><stop offset="0.45" stop-color="#7b7c7e"/><stop offset="0.5" stop-color="#6c6c6d"/><stop offset="0.56" stop-color="#616162"/><stop offset="0.64" stop-color="#5b5b5b"/><stop offset="0.86" stop-color="#595959"/></linearGradient><linearGradient id="linear-gradient-8" x1="231.61" y1="72.66" x2="332.17" y2="72.66" xlink:href="#linear-gradient-7"/><linearGradient id="linear-gradient-9" x1="231.6" y1="72.76" x2="332.19" y2="72.76" xlink:href="#linear-gradient-6"/></defs><polygon class="sage-inn-cls-1" points="315.71 201.71 247.56 147.84 247.56 124.43 315.71 178.72 315.71 201.71"/><polygon class="sage-inn-cls-2" points="265.07 284.11 231.6 237.35 231.6 252.23 281.72 320.1 281.89 319.88 281.89 305.03 281.72 305.23 265.07 284.11"/><polygon class="sage-inn-cls-3" points="332.17 252.23 332.17 237.35 298.71 284.11 281.89 305.03 281.89 319.88 332.17 252.23"/><polygon class="sage-inn-cls-4" points="298.71 40.44 332.17 87.2 332.17 74.75 282.05 6.87 281.89 7.09 281.89 19.53 282.05 19.32 298.71 40.44"/><polygon class="sage-inn-cls-5" points="231.6 74.75 231.6 87.2 265.07 40.44 281.89 19.53 281.89 7.09 231.6 74.75"/><polygon class="sage-inn-cls-6" points="265.07 253.48 254.02 238.04 231.6 206.72 231.6 229.19 265.07 275.94 281.72 297.06 281.89 296.87 281.89 274.4 281.72 274.6 265.07 253.48"/><polygon class="sage-inn-cls-7" points="298.71 275.94 332.17 229.19 332.17 206.72 309.92 237.82 309.64 238.19 302.65 247.97 298.71 253.48 281.89 274.4 281.89 296.87 298.71 275.94"/><polygon class="sage-inn-cls-8" points="282.05 49.96 298.71 71.08 301.67 75.21 309.64 86.36 309.75 86.51 332.17 117.83 332.17 95.37 298.71 48.6 282.05 27.49 281.89 27.69 281.89 50.16 282.05 49.96"/><polygon class="sage-inn-cls-9" points="231.6 95.37 231.6 117.83 253.86 86.74 265.07 71.08 281.89 50.16 281.89 27.69 265.07 48.6 231.6 95.37"/><polygon class="sage-inn-sage-inn-cls-10" points="282.05 84.44 282.16 84.61 315.76 132.67 315.76 154.57 332.17 154.57 332.17 126 309.75 94.68 309.64 94.53 301.67 83.38 298.71 79.24 282.05 58.12 281.89 58.32 281.89 84.67 282.05 84.44"/><polygon class="sage-inn-sage-inn-cls-10" points="253.86 94.9 231.6 126 231.6 158.8 248.02 158.8 248.02 132.67 281.89 84.67 281.89 58.32 265.07 79.24 253.86 94.9"/><polygon class="sage-inn-sage-inn-cls-10" points="298.71 242.6 302.65 237.08 309.64 227.31 309.92 226.94 332.17 195.84 332.17 188.16 332.17 180.35 332.17 175.86 332.17 167.77 332.17 167.77 315.76 167.77 315.76 167.77 315.76 190.87 315.76 191.88 315.49 192.27 282.16 236.75 281.89 237.16 281.89 263.51 298.71 242.6"/><polygon class="sage-inn-sage-inn-cls-10" points="248.02 189.16 248.02 180.35 248.02 175.86 248.02 172.32 231.6 172.32 231.6 174.68 231.6 188.16 231.6 195.84 254.02 227.16 265.07 242.6 281.72 263.71 281.89 263.51 281.89 237.16 281.72 237.4 248.02 189.16"/><rect class="sage-inn-sage-inn-cls-11" y="461.32" width="124.71" height="0.25"/><path class="sage-inn-sage-inn-cls-12" d="M41.16,365.23H18.81v-6.46H70.17v6.46H47.91v59.5H41.16Z"/><path class="sage-inn-sage-inn-cls-12" d="M100,364.7h6.14v24.72H141V364.7h5.89v60H141V395.3H106.12v29.43H100Z"/><path class="sage-inn-sage-inn-cls-12" d="M180.53,364.7h34.8v5.89H186.67V387.4h27v5.89h-27v25.55h28.66v5.89h-34.8Z"/><path class="sage-inn-sage-inn-cls-12" d="M308,372.26a11.56,11.56,0,0,0-10.82-7.77c-7.21,0-11.92,5.18-11.92,10.91s4,8.31,11.92,10.81c12.29,3.87,21.44,8.68,21.44,20.23s-9.52,19.12-21.44,19.12c-11,0-20-7.39-21.25-17.64h7c1.3,6.37,7.12,10.89,14.23,10.89,8,0,14.41-4.7,14.41-12.37,0-6.1-4-9.42-14.41-12.66-12.29-3.79-18.94-8.41-18.94-18.38s7.58-17.65,18.94-17.65c9.24,0,16.73,6,18.2,14.51Z"/><path class="sage-inn-sage-inn-cls-12" d="M370.51,364.7h6.64l27,60h-6.65l-10.76-23.88h-25.8l-10.76,23.88h-6.65Zm3.36,7.4L363.53,395h20.6Z"/><path class="sage-inn-sage-inn-cls-12" d="M424.33,394.38c0-16.47,14.12-30.44,31.35-30.44a31,31,0,0,1,26.83,15.73h-6.9a25.37,25.37,0,0,0-19.93-9.59c-13.87,0-25,11.11-25,24.3a25,25,0,0,0,46,13.54V394.38h6.14v30.35H476.7v-7.31a31.37,31.37,0,0,1-52.37-23Z"/><path class="sage-inn-sage-inn-cls-12" d="M515.64,364.7h34.81v5.89H521.79V387.4h27v5.89h-27v25.55h28.66v5.89H515.64Z"/><path class="sage-inn-cls-13" d="M195.29,478.25h-4v-11H180v11h-4V453.82h4v10h11.27v-10h4Z"/><path class="sage-inn-cls-13" d="M250,466q0,6-3,9.28c-2,2.21-4.81,3.31-8.45,3.31s-6.52-1.1-8.5-3.29-3-5.3-3-9.33,1-7.13,3-9.29,4.82-3.25,8.51-3.25,6.44,1.1,8.42,3.3S250,462,250,466Zm-18.65,0q0,4.51,1.82,6.85a7.43,7.43,0,0,0,10.77,0q1.81-2.31,1.81-6.87c0-3-.59-5.27-1.8-6.82a6.33,6.33,0,0,0-5.35-2.32,6.47,6.47,0,0,0-5.42,2.32C232,460.73,231.36,463,231.36,466Z"/><path class="sage-inn-cls-13" d="M290.29,478.25h-4v-21h-7.19v-3.42h18.37v3.42h-7.19Z"/><path class="sage-inn-cls-13" d="M341.64,478.25H327.82V453.82h13.82v3.38h-9.83v6.65H341v3.34h-9.21v7.67h9.83Z"/><path class="sage-inn-cls-13" d="M373.52,478.25V453.82h4v21h10.34v3.42Z"/><rect class="sage-inn-sage-inn-cls-11" x="429.02" y="461.32" width="156.69" height="0.25"/><polygon class="sage-inn-cls-1" points="315.71 201.71 247.56 147.84 247.56 124.43 315.71 178.72 315.71 201.71"/><polygon class="sage-inn-cls-2" points="265.07 284.11 231.6 237.35 231.6 252.23 281.72 320.1 281.89 319.88 281.89 305.03 281.72 305.23 265.07 284.11"/><polygon class="sage-inn-cls-3" points="332.17 252.23 332.17 237.35 298.71 284.11 281.89 305.03 281.89 319.88 332.17 252.23"/><polygon class="sage-inn-cls-4" points="298.71 40.44 332.17 87.2 332.17 74.75 282.05 6.87 281.89 7.09 281.89 19.53 282.05 19.32 298.71 40.44"/><polygon class="sage-inn-cls-5" points="231.6 74.75 231.6 87.2 265.07 40.44 281.89 19.53 281.89 7.09 231.6 74.75"/><polygon class="sage-inn-cls-14" points="265.07 253.48 254.02 238.04 231.6 206.72 231.6 229.19 265.07 275.94 281.72 297.06 281.89 296.87 281.89 274.4 281.72 274.6 265.07 253.48"/><polygon class="sage-inn-cls-15" points="298.71 275.94 332.17 229.19 332.17 206.72 309.92 237.82 309.64 238.19 302.65 247.97 298.71 253.48 281.89 274.4 281.89 296.87 298.71 275.94"/><polygon class="sage-inn-cls-15" points="282.05 49.96 298.71 71.08 301.67 75.21 309.64 86.36 309.75 86.51 332.17 117.83 332.17 95.37 298.71 48.6 282.05 27.49 281.89 27.69 281.89 50.16 282.05 49.96"/><polygon class="sage-inn-cls-14" points="231.6 95.37 231.6 117.83 253.86 86.74 265.07 71.08 281.89 50.16 281.89 27.69 265.07 48.6 231.6 95.37"/><polygon class="sage-inn-sage-inn-cls-10" points="282.05 84.44 282.16 84.61 315.76 132.67 315.76 154.57 332.17 154.57 332.17 126 309.75 94.68 309.64 94.53 301.67 83.38 298.71 79.24 282.05 58.12 281.89 58.32 281.89 84.67 282.05 84.44"/><polygon class="sage-inn-sage-inn-cls-10" points="253.86 94.9 231.6 126 231.6 158.8 248.02 158.8 248.02 132.67 281.89 84.67 281.89 58.32 265.07 79.24 253.86 94.9"/><polygon class="sage-inn-sage-inn-cls-10" points="298.71 242.6 302.65 237.08 309.64 227.31 309.92 226.94 332.17 195.84 332.17 188.16 332.17 180.35 332.17 175.86 332.17 167.77 332.17 167.77 315.76 167.77 315.76 167.77 315.76 190.87 315.76 191.88 315.49 192.27 282.16 236.75 281.89 237.16 281.89 263.51 298.71 242.6"/><polygon class="sage-inn-sage-inn-cls-10" points="248.02 189.16 248.02 180.35 248.02 175.86 248.02 172.32 231.6 172.32 231.6 174.68 231.6 188.16 231.6 195.84 254.02 227.16 265.07 242.6 281.72 263.71 281.89 263.51 281.89 237.16 281.72 237.4 248.02 189.16"/><rect class="sage-inn-sage-inn-cls-11" y="461.07" width="124.71" height="0.75"/><path class="sage-inn-sage-inn-cls-12" d="M41.16,365.23H18.81v-6.46H70.17v6.46H47.91v59.5H41.16Z"/><path class="sage-inn-sage-inn-cls-12" d="M100,364.7h6.14v24.72H141V364.7h5.89v60H141V395.3H106.12v29.43H100Z"/><path class="sage-inn-sage-inn-cls-12" d="M180.53,364.7h34.8v5.89H186.67V387.4h27v5.89h-27v25.55h28.66v5.89h-34.8Z"/><path class="sage-inn-sage-inn-cls-12" d="M308,372.26a11.56,11.56,0,0,0-10.82-7.77c-7.21,0-11.92,5.18-11.92,10.91s4,8.31,11.92,10.81c12.29,3.87,21.44,8.68,21.44,20.23s-9.52,19.12-21.44,19.12c-11,0-20-7.39-21.25-17.64h7c1.3,6.37,7.12,10.89,14.23,10.89,8,0,14.41-4.7,14.41-12.37,0-6.1-4-9.42-14.41-12.66-12.29-3.79-18.94-8.41-18.94-18.38s7.58-17.65,18.94-17.65c9.24,0,16.73,6,18.2,14.51Z"/><path class="sage-inn-sage-inn-cls-12" d="M370.51,364.7h6.64l27,60h-6.65l-10.76-23.88h-25.8l-10.76,23.88h-6.65Zm3.36,7.4L363.53,395h20.6Z"/><path class="sage-inn-sage-inn-cls-12" d="M424.33,394.38c0-16.47,14.12-30.44,31.35-30.44a31,31,0,0,1,26.83,15.73h-6.9a25.37,25.37,0,0,0-19.93-9.59c-13.87,0-25,11.11-25,24.3a25,25,0,0,0,46,13.54V394.38h6.14v30.35H476.7v-7.31a31.37,31.37,0,0,1-52.37-23Z"/><path class="sage-inn-sage-inn-cls-12" d="M515.64,364.7h34.81v5.89H521.79V387.4h27v5.89h-27v25.55h28.66v5.89H515.64Z"/><path class="sage-inn-cls-13" d="M195.29,478.25h-4v-11H180v11h-4V453.82h4v10h11.27v-10h4Z"/><path class="sage-inn-cls-13" d="M250,466q0,6-3,9.28c-2,2.21-4.81,3.31-8.45,3.31s-6.52-1.1-8.5-3.29-3-5.3-3-9.33,1-7.13,3-9.29,4.82-3.25,8.51-3.25,6.44,1.1,8.42,3.3S250,462,250,466Zm-18.65,0q0,4.51,1.82,6.85a7.43,7.43,0,0,0,10.77,0q1.81-2.31,1.81-6.87c0-3-.59-5.27-1.8-6.82a6.33,6.33,0,0,0-5.35-2.32,6.47,6.47,0,0,0-5.42,2.32C232,460.73,231.36,463,231.36,466Z"/><path class="sage-inn-cls-13" d="M290.29,478.25h-4v-21h-7.19v-3.42h18.37v3.42h-7.19Z"/><path class="sage-inn-cls-13" d="M341.64,478.25H327.82V453.82h13.82v3.38h-9.83v6.65H341v3.34h-9.21v7.67h9.83Z"/><path class="sage-inn-cls-13" d="M373.52,478.25V453.82h4v21h10.34v3.42Z"/><rect class="sage-inn-sage-inn-cls-11" x="429.02" y="461.07" width="156.69" height="0.75"/></svg>