<svg xmlns="http://www.w3.org/2000/svg" id="lacopa-logo" class="logo" viewBox="0 0 684.17 447.18"><path d="M684.1,257.25l-3.21,1.08c-21.86,7.34-44.23,9.93-66.79,4.75-10.35-2.38-20.05-7.5-30.19-10.95q-45-15.28-90.12-30.19c-21.77-7.22-44-11.17-67.07-9.6a4.77,4.77,0,0,1-1.25-.11c-1.07-13-2-25.67-3.23-38.31-.25-2.58.54-3.81,2.56-5.07,11.71-7.3,24.73-9.85,38.22-10.45,26.37-1.17,52.29,3.58,78.36,6.31,25.5,2.68,51,4.81,76.66,1.92,17.53-2,34.39-6.22,49.56-15.67,3.07-1.91,5.95-4.13,8.92-6.22a1.87,1.87,0,0,0-1.79-.32c-21,7.07-42.34,8-64,4.37-18.94-3.14-36.91-9.62-54.77-16.39-23-8.72-45.75-18-68.94-26.12-30.32-10.63-61.17-12.85-92.31-3a4.58,4.58,0,0,1-3.83-1.15,182.55,182.55,0,0,1-12.5-13.44c-3.57-4.39-6.53-9.26-9.76-13.91l.69-1.41c7.87-.91,15.72-2.33,23.61-2.65,28-1.11,55.59,3.28,83.05,7.87A238.6,238.6,0,0,0,571.87,75a77.56,77.56,0,0,0,37.51-20.79,9.89,9.89,0,0,0-1.8.11c-26.78,9.32-53.88,9.22-81.24,2.91-22.73-5.25-44.22-14-65.56-23.15C432.45,21.86,403.6,11.56,372.49,9.47c-18.87-1.27-37.66-.58-55,8-11.85,5.82-23,5.89-34.16-.82C265.3,5.71,244.48,5,224.67,1.35c-14.48-2.65-29.87-1.27-44.22,3-21.86,6.51-43.44,14-65.07,21.25C104,29.43,94.29,36.17,85.27,44.11,59.94,66.38,40.69,93,25.91,123.31c-18.84,38.63-29,78.78-25.09,122,2.59,28.78,10.41,55.83,24.81,81,12.31,21.47,28,40.38,43.78,59.31,5.23,6.29,10.79,11.89,17.83,16.28,16.43,10.24,32.49,21.09,50.42,28.65,27.56,11.63,56.53,16,86.24,16.61,18.07.34,35.58-2.27,52.36-9.21,10-4.15,20.11-8.21,30.18-12.26a99,99,0,0,0,29.29-17.86c27.15-24.27,49.91-51.95,66.36-84.73,5.79-11.54,13.39-22.18,20.27-33.16a8,8,0,0,1,3.39-2.67c5.55-2.53,11.11-5,16.78-7.26,5.07-2,10.15-4.42,15.45-5.31,15.68-2.63,31.39-.77,47.06.91,26.56,2.86,53.09,6.33,79.73,8.17,14.86,1,30,.12,44.86-1.43,20.6-2.15,37.58-13.43,54.51-24.36C684.22,257.93,684.13,257.63,684.1,257.25Zm-309,78.47c-16.63,29.6-38.26,54.9-67.38,73.06A145.14,145.14,0,0,1,240,430.56c-7.18.5-14.43.08-22,.08,0-.83-.19-2-.18-3.24q.51-65.59,1-131.2c.06-7.25-.23-14.5-.05-21.74.07-2.74-1-3.75-3.41-4.29q-21.34-4.85-42.67-9.8c-4.23-1-8.43-2.11-13.27-3.33,17.55-81.28,35-162.29,52.6-243.64,49.58,6.91,94.7,21.8,132.16,54.83,30.3,26.71,48.72,60.41,56.59,99.82,11.76,58.95,3.9,115.09-25.65,167.67Z" fill="#fff"/></svg>