<svg xmlns="http://www.w3.org/2000/svg" id="cedar-court-logo" class="logo" viewBox="0 0 216.692 96.268"><path d="M91.731,21.117c-.13-.784.659-.681.885-1.121-1.322-.284-2.756,1.023-4.713.784-.177-1-1.21-.587-1.918-.37.225-1,2.047-.462,1.879-1.841,1.671-.068,2.584-.867,3.9-1.275.56-.545,1.47-.755,1.783-1.539,1.06-.359,2.366-.483,2.791-1.456a3.6,3.6,0,0,1-2.012-.064c-1.45-.224-2.779-.472-3.614.362-1.157-.262-1.5.592-2.706.55a6.532,6.532,0,0,1,.172-1.714,2.933,2.933,0,0,0-2.015-.167c-.307-2.074,2.694-.957,2.361-3.057a10.025,10.025,0,0,1,4.2-1.177c.613-.957,2.121-1.048,3.09-1.663a7.563,7.563,0,0,0-2.936-1.057c-.494-1.672,1.895-2.125,3.291-1.663.243-.131.53-.214.492-.614,1.454-.006,2.974-1.1,4.32-.275.95-.4,1.024-1.646,1.773-2.242,1.274.4,1.666-1.107,3.005-.655.735-1.009,2.723-.293,3.5-.863A2.226,2.226,0,0,1,110.5,1.486l1.61-.027c.673,1.379,2.586.41,4.034.737.633.139.9.671,1.52.677.863.641,1.875,1.13,2.154,2.376,1.147,1.506,3.278,1.994,4.78,3.138.879-.058,1.126.537,2.019.467.214,1,2.118.262,1.939,1.677-1.892.433-3.252-.167-5.033-.317-.027-.588-.422-.792-1.02-.787.813.3.116,1.6.441,2.306-.317.09-.307.492-.8.416.728.1,1.393.263,2.12.366.082.563.563.713.723,1.194-.176.508-.662.331-1.2.323-1.012,1.351-2.727.748-3.429-.545-.532.225-.894-.088-1.81.03-.417.425-.075,1.131.226,1.406,1.444.45,2.656,1.139,4.149,1.537.331,1.145,1.949.319,3.231.648a7.136,7.136,0,0,1,2.029,1.072,3.286,3.286,0,0,1-2.211.037c-.953-.258-2.492.574-3.111.457-.73-.14-1.5-1.536-2.526-.66a2.2,2.2,0,0,1,.321,1c.371.571,2.06.149,2.922.451.515.182.595.683,1.021.888-1,.865-2.694.762-4.008.874.658.617,2.091.43,2.735,1.059a2.087,2.087,0,0,1,1.414.378,5.5,5.5,0,0,1,1.912.07c.393.092.726.474,1.115.583.622.171.984-.052,1.411.177a5.462,5.462,0,0,0,1.418.579c-.09.323.159,1.434-.068,1.913-.841.052-1.125-.473-2.116-.267.075.435.5.5.817.691-.547.188-1.83.258-1.916-.37-1.267.075-2.291-1.252-3.122-.148.151.356.771.225.718.792-.45.882-1.91.792-2.591,1.454-.082.323.265.2.309.395,1.7-.225,3.48-.24,4.34.831a10.58,10.58,0,0,1,3.734.842c-.053.936-1.665.368-1.993,1.04-1.48-.593-3.039.57-4.823.284.166.373.761.3.917.688-.269.881-1.933-.191-2,.839a2.979,2.979,0,0,0-1.6.429c.049.5.841.221,1.312.28-.033.341.448.149.311.6a8.269,8.269,0,0,1,1.915.169c.3,1.28-.562,1.434-1.484,1.535.4.782,1.4.939,2.531.961a1.645,1.645,0,0,0,1.724.775,13.8,13.8,0,0,1,2.233,1.17c-1.007.741-3.528.018-4.614.682-.943-.652-3.466.4-4.236-.631a12.879,12.879,0,0,1-3.624-.241c-.169.345.114.559.413.7-1.908,1.554-5.588.469-7.936.539.4.714.05,2.2.453,2.909.6-.007,1.289-.106,1.512.275a18.826,18.826,0,0,1,2.517.057c.634.018,1.5-.29,1.915.269-.979.082-2.3-.537-3.117.054-1.651-.372-4.915.775-6.74-.086-1.78-.076-3.9-.091-5.334-.21,1.094-.341,3.5-.148,4.818-.586a6.986,6.986,0,0,0,.209-5.434,3.323,3.323,0,0,1-3.229-.549,5.894,5.894,0,0,1-1.59,1.034c-.239-.13-.5-.234-.514-.6a2.525,2.525,0,0,1-2.116-.265c-.252,1.078,1.162,1.319,1.347,2.289.557.7,1.683.833,2.333,1.168-.778.849-2.588.012-3.413.46a42.142,42.142,0,0,1-4.222.072c-.271-.333-.656-.549-.723-1.094-.745-.506-2.329-.093-3.329-.547-.674.566-1.178-.326-2.009.035.109-1.311,1.273-1.6,1.868-2.447,1.245.018,1.912-.525,3.314-.358.143-.025.028-.3.194-.3.583-.058,1.072-.018,1.314.278,2.67.3,3.045-2.018,5.8-1.909.106-1.443-1.528-1.027-2.335-1.268a32.927,32.927,0,0,0,3.985-2.28c-.56-1.541-3.065-2.3-4.852-1.326.319.9,1.713.685,1.94,1.676-1.378.416-2.358,1.214-4.306,1.08-.093.175-.369.17-.293.508a7.914,7.914,0,0,0-3.316.157c.072-.557.645-.628.786-1.119-.373-.469-.86-.816-.933-1.593a28.279,28.279,0,0,1-3.316.157c-.31-.7-1.273-.73-2.128-.869,2.329-1.54,6.159-1.63,9.415-2.273a4.845,4.845,0,0,1,3.2-1.261c-.271-1.23-1.081-1.272-1.25-2.592-1.6.1-1.626,1.724-3.187,1.864.076-.387-.487-.111-.412-.5A3.823,3.823,0,0,0,95.9,23.661c-.808-1.373-2.7-.251-3.923-.034-.354.162-.067-.342-.307-.3a1.927,1.927,0,0,1-2.216-.164,10.049,10.049,0,0,0,.284-1.009,12.155,12.155,0,0,1,6.429-.512c-.383-1.606-2.788-.124-4.434-.529m5.131.113c-.079-.293-.322-.419-.71-.389C96.013,21.429,96.544,21.389,96.862,21.23Zm7.349-17.121c.425-.119,1.315.213,1.406-.226-.355-.077-.538-.331-.912-.388C104.463,3.624,104.175,3.71,104.211,4.109Zm5.551,1.011c.3-.006.6-.01.9-.017C110.748,4.348,109.583,4.158,109.762,5.12ZM98.927,6.713a30.722,30.722,0,0,0,3.124.449c-.151-.377.273-.2.194-.506-.194-.55-.869-.6-1.026-1.189C101.029,6.437,99.361,5.978,98.927,6.713Zm17.5.2c.553-.354,1.744-.094,2.407-.341C118.239,5.845,116.327,5.847,116.431,6.916Zm-7.538.33c0,.352,1.07.487,1-.016A1.746,1.746,0,0,0,108.893,7.246ZM95.277,10.9a3.345,3.345,0,0,0,2.509-.244c-.494-.258-1.212-.6-.725-1.294C95.941,9.365,95.721,10.239,95.277,10.9Zm13.272-.226c.254-.168.7.146,1-.118-.429-.8.652-.58.888-1.022C109.708,8.621,107.591,9.4,108.549,10.672Zm2.9-.955c-.005-.2-.008-.4-.011-.6-.1,0-.2,0-.3,0C110.99,9.435,111.143,9.617,111.45,9.717Zm-5.226.29c.218.251.7.231,1.111.283.2-.2.056-.575-.013-.8C106.7,9.409,106.349,9.6,106.224,10.007Zm-14.476.349a.47.47,0,0,0,.395-.409l-.4.006C91.743,10.087,91.745,10.222,91.748,10.356Zm13.79.668a3.563,3.563,0,0,0,1-.116c.048-.493-.636-.23-1.01-.285C105.533,10.756,105.534,10.892,105.538,11.024Zm6.738-.014c.556.205,1.736.162,1.8-.432C113.382,10.63,112.419,10.425,112.276,11.01Zm5.547.911a.506.506,0,0,1,.51.4c-.034.232-.439.1-.4.408.317.743,1.115-.2,1.811-.033.213-.354.49-.645.686-1.016C119.777,11,118.208,10.879,117.823,11.921Zm2.725.556.4-.007c-.014-.255-.028-.516-.308-.5C120.684,12.215,120.46,12.2,120.548,12.477Zm-4.624.081c0-.313-.311-.3-.61-.291C115.27,12.728,115.66,12.666,115.924,12.558Zm-4.713.884a2.091,2.091,0,0,1,1.621.677,1.99,1.99,0,0,0,.88-1.423,4.622,4.622,0,0,1-2.317-.261C111.472,12.9,111.051,12.891,111.211,13.442Zm-14.269.748c.6-.141.652.281,1.112.282.354-.316.96-.389,1.193-.825.557-.037.747.148,1.207-.021C99.524,12.932,97.658,13.709,96.942,14.19Zm4.524-.179c.12.372,1.433.729,1.3-.123C102.542,13.636,101.543,13.562,101.466,14.011Zm12.682.588c.514-.592,2.3.041,2.6-.749C115.557,13.99,114.036,12.713,114.148,14.6Zm-16.286.38c.222.28.8.189.618.894,1.225-.47,2.46.651,3.928.334-.07.312.348.116.209.5.2,0,.4-.007.6-.01.022-1.7-1.9-1.444-3.243-1.453-.456.706-1.264-.046-1.517-.477C98.2,14.772,97.867,14.722,97.862,14.979ZM118.4,16.034c.337-.036.873.12.8-.314a1.656,1.656,0,0,0-1.215-.482C117.935,15.692,118.386,15.635,118.4,16.034Zm-13.876.239.5-.01A.271.271,0,1,0,104.52,16.273Zm4.727-.082c.131.137.438.092.7.089,0-.169-.006-.335-.008-.5l-.7.011Zm-13.465.733c.124.009.239.027.2.2.19-.186.847-.382,1.005-.017.014-.348.526-.218.493-.611C96.867,16.269,96.3,16.742,95.782,16.924Zm16.4.424c-.078.024-.115.087-.1.2a3.444,3.444,0,0,0,1.324.882c.154-.378.752-.328,1.3-.323C113.841,17.942,112.863,17.373,112.183,17.348Zm-18.091.711c-.167,0-.335.006-.5.008A.253.253,0,1,0,94.092,18.059Zm22.151,1.432c-.85-.193-1.519.026-1.6.832a12.748,12.748,0,0,0,2.309-.241c.225-1.39,1.947-.741,3.3-1.061.114-.493-.237-.508-.315-.8A6.824,6.824,0,0,0,116.243,19.491ZM97.754,20.51c-.151-.376.273-.2.194-.505-.109-.229-.466-.2-.414-.6-.716.2-.609-.462-1.312-.279A2.024,2.024,0,0,0,97.754,20.51Zm1.291-1.027c.4,1.366,1.86,1.563,3.544,1.348a5.2,5.2,0,0,0-.125-1.408,2.791,2.791,0,0,0-1.707.232c-.148-.494-.977-.283-1.316-.579C99.483,19.378,99.077,19.251,99.045,19.483Zm14.474-.449c-.137,1.09-1.768.732-1.777,1.941a2.956,2.956,0,0,0,2.78-2.158C113.994,18.7,113.883,18.992,113.519,19.034Zm-5.93.2c-.277.461-.26,1.92.535,1.9C107.965,20.315,108.589,19.247,107.589,19.236Zm-4.618.483q.009.6.02,1.206c.436.025.53.407,1.111.28a5.806,5.806,0,0,0-.131-1.8C103.461,19.335,103.486,19.789,102.971,19.719Zm2.33,1.066a2.269,2.269,0,0,0,.179-1.411c-.2,0-.4.008-.6.01A1.551,1.551,0,0,0,105.3,20.785Zm.214.7c.525.446.617,1.342,1.631,1.28a19.1,19.1,0,0,0-.761-3.406l-.3.006C105.946,20.12,105.676,20.75,105.515,21.484Zm4.141,1.036c1.4-.2,1.265-1.876,1.862-2.848-.045-.193-.39-.073-.308-.4C109.842,19.535,109.765,21.044,109.656,22.52ZM95.834,19.941c.26-.064.363.033.307.3l.4-.007C96.54,19.824,95.971,19.633,95.834,19.941ZM99.9,22.386c.116-.633-.581-.423-.815-.69A.669.669,0,0,0,99.9,22.386Zm3.517-.162c.347-.017.264.41.61.394.3-.071.455-.285.39-.712C103.847,21.938,103.558,21.713,103.416,22.224Zm7.461,1.181c1.058.165,1.313-.446,1.491-1.132-.045-.193-.391-.073-.309-.4C111.2,21.935,111,22.631,110.877,23.405Zm4.814-.887c-.978.079-2.415-.738-2.807.551.933,1.4,3.676,1.093,5.237.413a2.19,2.19,0,0,0,.085-.908C117.452,21.719,116.4,22.458,115.691,22.518Zm-14.573.653c-1.416.276-2.45-.719-3.423-.246a6.317,6.317,0,0,0,1.556,2.79c1.532-.22,2.17.484,3.43.546a2.75,2.75,0,0,1,.283-1.011A7.456,7.456,0,0,0,101.118,23.171Zm19.312.07c.363,1.091,1.825,1.044,2.248,2.074-.237.336-1.361.33-1.4.526,1.044,0,3,.433,3-.856-.641-.377-2.227-.029-2.029-.97a1.636,1.636,0,0,1,.7-.213c-.2-.575-.787-.757-1.029-1.291A1.314,1.314,0,0,0,120.43,23.241ZM117.755,25.6c0,.237.009.47.012.7a4,4,0,0,0,1.9-.636A3.613,3.613,0,0,0,117.755,25.6ZM103.494,26.75c.221.519,1.079.383,1.815.37C105.9,26.139,103.441,25.355,103.494,26.75Zm7.458.878c.915.463,2.208,1.132,2.61-.247-.981-.111-1.352-.852-2.329-.965C111.177,26.857,110.821,27.006,110.952,27.628Zm-12.785-.587c-.067.309.11.365.111.6.712-.1,1.535.468,1.707-.23C99.734,26.968,98.718,26.841,98.167,27.041Zm3.126.35c.438-.036,1.007.052,1.1-.32C102.143,26.617,101.265,26.95,101.293,27.391Zm.015,1c.568.131.566.848,1.322.784a2.222,2.222,0,0,0-.025-1.409,3.824,3.824,0,0,0-1.308-.078C101.3,27.926,101.305,28.161,101.308,28.4Zm2.218.264a1.684,1.684,0,0,0,1.09-.923c-.323.028-.428-.171-.8-.086C103.654,27.928,103.407,28.116,103.526,28.659Zm10.169.631c.118.218.767-.111.61.392a3.161,3.161,0,0,1,1.722.776,3.008,3.008,0,0,1,1.4-.527c.116-.351.051-.873.283-1.112-.361.1-.147-.393-.211-.6a1.421,1.421,0,0,1-.919-.789C115.206,27.6,113.439,27.872,113.7,29.29Zm-17.013-.916c.281.085.355.382.514.6.877-.141,1.818-.219,2.2-.843C98.487,27.869,97.3,27.665,96.682,28.374ZM119.029,29.5a2.6,2.6,0,0,1,2.235,1.268c.775-.188.723.48,1.513.276-.152-.442.335-.267.291-.608a1.741,1.741,0,0,0-1.11-.181c-.028-1.882-1.694-2.069-3.357-2.256C118.26,28.625,118.935,28.992,119.029,29.5Zm-25.739.44c.335-.007.669-.012,1.006-.018.158-.327.038-.545-.017-.9C93.567,28.955,93.342,29.366,93.29,29.941Zm12.168-.007c0-.134,0-.268-.007-.4-.167,0-.335,0-.5.009C104.859,29.941,105.246,29.848,105.458,29.934Zm1.023.988c.223-.015.035-.428.092-.606-.262.09-.559-.292-.706.012C106.314,30.278,105.928,31.084,106.481,30.922Zm5.639.406c.839.119,1.185-.239,1.907-.233-.035-.3-.392-.277-.413-.6A1.77,1.77,0,0,0,112.12,31.328Zm-10.435,1.486c0-.166,0-.335-.007-.5l-.3.006C101.312,32.655,101.589,32.643,101.685,32.814Zm13.685.37c.373-.01.405.331.908.185-.026-.189.111-.224.095-.4-.448.157-.314-.289-.708-.189C115.819,33.156,115.216,32.8,115.37,33.184Zm-4.61.883c.495.473.827-.291,1.5-.227-.014-.167.316-.646-.11-.6C111.822,33.643,110.921,33.5,110.76,34.067Zm8.337-.545c.5.168,1.17.7,1.717.474C120.414,33.716,119.7,32.948,119.1,33.522Zm.429,1.5c0,.168.006.335.008.5.526.338.7-.062,1.407-.025-.121-.419-.712-.355-1.016-.584C119.79,34.949,119.735,35.063,119.526,35.023Zm-14.464,1.152c.283-.087.263.138.5.092.065-.545-.359-.583-.716-.691C104.729,35.977,105.185,35.776,105.062,36.175Zm6.045.6c.419.215.526.753,1.119.786-.063-.481.2-.658.179-1.311C111.713,36.118,111.264,36.185,111.107,36.777Zm3.519-.161c.566.675,1.712.75,2.731.959.162-.749-.539-.6-.524-1.2C116.2,36.556,115.213,36.393,114.626,36.616ZM91.109,37.723c.079.02.119.082.105.2.593-.126.706-.442,1.206-.02.091-.469-.14-.605-.217-.9C91.449,36.865,91.475,37.482,91.109,37.723Zm22.421-.384c.191.314.757.239.718.791l1.208-.019C115.524,37.12,114.181,37.271,113.53,37.339Zm10.77.52c.452-.072,1.014.33,1.1-.221a1.8,1.8,0,0,0-1.01-.283A.657.657,0,0,0,124.3,37.859Z" fill="#00aec3" fill-rule="evenodd"/><line x1="0.38" y1="80.906" x2="216.312" y2="80.906" fill="#1d1d1b" stroke="#1d1d1b" stroke-width="0.557"/><path d="M16.828,64.712c-.344,6.233-3.212,9.713-8.108,9.713C3.137,74.425,0,70.1,0,60.313S3.137,46.2,8.72,46.2c5.546,0,7.84,3.94,7.84,8.414H14.113c0-3.709-1.875-6.348-5.393-6.348-3.9,0-6.272,3.212-6.272,12.047S4.819,72.36,8.72,72.36c3.442,0,5.393-2.945,5.66-7.648" fill="#1d1d1b"/><path d="M31.135,67.236c-.345,4.321-2.715,7.188-6.54,7.188-4.284,0-6.807-2.982-6.807-10.631,0-7.037,2.523-10.593,7-10.593,4.512,0,6.539,3.1,6.539,9.866v.841H20.235v.957c0,5.851,2.066,7.648,4.322,7.648,2.41,0,3.9-1.721,4.283-5.276M28.878,62c-.076-5.048-1.491-6.884-4.321-6.884S20.311,56.948,20.235,62Z" fill="#1d1d1b"/><path d="M44.1,70.6h-.076a5.006,5.006,0,0,1-4.972,3.825c-4.475,0-6.5-3.595-6.5-10.632,0-7,2.026-10.594,6.5-10.594A4.513,4.513,0,0,1,43.8,56.717h.077V46.659h2.3V73.966H44.1m-4.665-1.454c2.333,0,4.436-1.185,4.436-8.719,0-7.5-2.1-8.681-4.436-8.681C37.142,55.112,35,56.3,35,63.793,35,71.327,37.142,72.512,39.437,72.512Z" fill="#1d1d1b"/><path d="M48.426,59.7c0-4.168,1.989-6.5,6.272-6.5,4.207,0,5.737,2.181,5.737,5.392V70.6c0,1.146.382,1.682,1.185,1.682h.651v1.682a3.181,3.181,0,0,1-1.071.23c-1.8,0-2.945-.421-2.945-2.525v-.688h-.076c-.918,2.679-2.984,3.443-5.239,3.443-3.558,0-5.164-2.218-5.164-5.737a5.352,5.352,0,0,1,4.093-5.622l4.321-1.222c1.606-.461,1.95-.843,1.95-3.214,0-2.6-1.453-3.518-3.518-3.518-2.716,0-3.9,1.644-3.9,4.589m7.419,2.792h-.076c-.23.689-1.53,1.11-2.448,1.338l-1.912.5c-2.3.613-3.48,1.8-3.48,4.206,0,2.372,1.223,3.979,3.213,3.979,2.791,0,4.7-2.1,4.7-5.737Z" fill="#1d1d1b"/><path d="M63.612,53.658h2.295v3.174h.075A5.376,5.376,0,0,1,71.108,53.2a2.935,2.935,0,0,1,.8.115v2.3a5.718,5.718,0,0,0-1.109-.115c-2.524,0-4.9,1.835-4.9,5.775v12.7H63.612" fill="#1d1d1b"/><path d="M97.652,64.712c-.344,6.233-3.213,9.713-8.108,9.713-5.583,0-8.72-4.322-8.72-14.112S83.961,46.2,89.544,46.2c5.545,0,7.84,3.94,7.84,8.414H94.936c0-3.709-1.874-6.348-5.392-6.348-3.9,0-6.272,3.212-6.272,12.047S85.643,72.36,89.544,72.36c3.442,0,5.392-2.945,5.66-7.648" fill="#1d1d1b"/><path d="M105.763,53.2c4.475,0,7,3.558,7,10.594,0,7.076-2.524,10.632-7,10.632s-7-3.556-7-10.632c0-7.036,2.524-10.594,7-10.594m0,19.313c2.563,0,4.551-2.217,4.551-8.719,0-6.464-1.988-8.681-4.551-8.681s-4.55,2.217-4.55,8.681C101.213,70.3,103.2,72.512,105.763,72.512Z" fill="#1d1d1b"/><path d="M114.6,53.658h2.3v14.3c0,3.289,1.109,4.551,3.519,4.551,2.6,0,4.436-2.064,4.436-5.2V53.658h2.294V73.966h-2.065v-2.83H125a5.7,5.7,0,0,1-5.2,3.289c-3.1,0-5.2-1.607-5.2-5.431" fill="#1d1d1b"/><path d="M130.053,53.658h2.3v3.174h.076a5.376,5.376,0,0,1,5.125-3.633,2.942,2.942,0,0,1,.8.115v2.3a5.722,5.722,0,0,0-1.111-.115c-2.523,0-4.894,1.835-4.894,5.775v12.7h-2.3" fill="#1d1d1b"/><path d="M142.677,55.571h-2.793V53.658h2.793V48.037h2.294v5.621h3.595v1.913h-3.595v14.57c0,1.606.688,2.142,2.18,2.142a4.782,4.782,0,0,0,1.415-.228v1.911a3.837,3.837,0,0,1-1.606.228c-3.1,0-4.283-.841-4.283-3.555" fill="#1d1d1b"/><polyline points="171.744 60.35 161.074 60.35 161.074 73.966 158.626 73.966 158.626 46.659 161.074 46.659 161.074 58.286 171.744 58.286 171.744 46.659 174.192 46.659 174.192 73.966 171.744 73.966" fill="#1d1d1b"/><path d="M182.953,53.2c4.474,0,7,3.558,7,10.594,0,7.076-2.524,10.632-7,10.632s-7-3.556-7-10.632c0-7.036,2.525-10.594,7-10.594m0,19.313c2.563,0,4.551-2.217,4.551-8.719,0-6.464-1.988-8.681-4.551-8.681s-4.552,2.217-4.552,8.681C178.4,70.3,180.391,72.512,182.953,72.512Z" fill="#1d1d1b"/><path d="M192.633,55.571H189.84V53.658h2.793V48.037h2.293v5.621h3.595v1.913h-3.595v14.57c0,1.606.689,2.142,2.181,2.142a4.78,4.78,0,0,0,1.414-.228v1.911a3.832,3.832,0,0,1-1.6.228c-3.1,0-4.283-.841-4.283-3.555" fill="#1d1d1b"/><path d="M211.984,67.236c-.344,4.321-2.716,7.188-6.539,7.188-4.284,0-6.808-2.982-6.808-10.631,0-7.037,2.524-10.593,7-10.593,4.513,0,6.539,3.1,6.539,9.866v.841H201.084v.957c0,5.851,2.067,7.648,4.322,7.648,2.41,0,3.9-1.721,4.283-5.276m.04-5.24c-.076-5.048-1.492-6.884-4.323-6.884s-4.245,1.836-4.322,6.884Z" fill="#1d1d1b"/><rect x="214.397" y="46.659" width="2.295" height="27.307" fill="#1d1d1b"/><text transform="translate(61.274 92.42)" font-size="8" fill="#1d1d1b" font-family="HelveticaNeue, Helvetica Neue" letter-spacing="0.22em">LEEDS/BRADFORD</text></svg>