<?xml version="1.0" encoding="UTF-8"?>
<svg width="207px" height="78px" viewBox="0 0 207 78" version="1.1" xmlns="http://www.w3.org/2000/svg" xmlns:xlink="http://www.w3.org/1999/xlink">
    <!-- Generator: Sketch 52.5 (67469) - http://www.bohemiancoding.com/sketch -->
    <title>cedarcourt</title>
    <desc>Created with Sketch.</desc>
    <defs>
        <polygon id="path-1" points="0 0.0152195122 205.759244 0.0152195122 205.759244 33.2926829 0 33.2926829"></polygon>
    </defs>
    <g id="Page-1" stroke="none" stroke-width="1" fill="none" fill-rule="evenodd">
        <g id="CC-Standard-Logo-(1)" transform="translate(-5.000000, -2.000000)">
            <g id="cedarcourt" transform="translate(5.000000, 2.000000)">
                <path d="M118.251805,36.0122195 C118.681756,35.9437317 119.21539,36.326122 119.299098,35.802 C119.047976,35.646 118.750244,35.529 118.338366,35.5328049 C118.261317,35.6440976 118.21661,35.7896341 118.251805,36.0122195 Z M108.00622,35.5175854 C108.187902,35.8162683 108.726293,35.7449268 108.689195,36.27 C109.072537,36.2633415 109.453976,36.2585854 109.838268,36.2519268 C109.902951,35.3092683 108.625463,35.4529024 108.00622,35.5175854 Z M86.6789268,35.8828537 C86.7540732,35.901878 86.792122,35.9608537 86.7788049,36.0711951 C87.342878,35.9513415 87.4503659,35.6507561 87.9259756,36.0521707 C88.0125366,35.6060488 87.7928049,35.4766829 87.719561,35.195122 C87.0023415,35.0667073 87.0270732,35.6536098 86.6789268,35.8828537 Z M109.048756,34.8289024 C109.587146,35.4719268 110.678195,35.5423171 111.646537,35.741122 C111.800634,35.0296098 111.133829,35.169439 111.148098,34.6025122 C110.546927,34.7727805 109.608073,34.6177317 109.048756,34.8289024 Z M105.701415,34.983 C106.099976,35.1875122 106.202707,35.6983171 106.765829,35.7306585 C106.705902,35.273122 106.955122,35.1038049 106.936098,34.4836098 C106.278805,34.3561463 105.850756,34.419878 105.701415,34.983 Z M99.9512927,34.4103659 C100.221439,34.3276098 100.201463,34.5416341 100.431659,34.497878 C100.494439,33.9794634 100.090171,33.9433171 99.7505854,33.8405854 C99.6345366,34.2220244 100.068293,34.0308293 99.9512927,34.4103659 Z M113.709732,33.314561 C113.712585,33.4743659 113.715439,33.6332195 113.717341,33.7939756 C114.217683,34.1145366 114.380341,33.735 115.055707,33.7701951 C114.94061,33.3716341 114.378439,33.4325122 114.09022,33.2146829 C113.960854,33.2432195 113.908537,33.3526098 113.709732,33.314561 Z M113.301659,31.8867805 C113.776317,32.0465854 114.414585,32.5497805 114.934902,32.3376585 C114.554415,32.0713171 113.87239,31.3398293 113.301659,31.8867805 Z M105.372293,32.4051951 C105.843146,32.855122 106.158951,32.1283902 106.801024,32.1892683 C106.787707,32.0304146 107.10161,31.5747805 106.69639,31.6166341 C106.381537,32.001878 105.525439,31.8639512 105.372293,32.4051951 Z M109.756463,31.5652683 C110.111268,31.5557561 110.141707,31.880122 110.620171,31.7412439 C110.59639,31.5614634 110.725756,31.5281707 110.710537,31.3569512 C110.285341,31.5062927 110.411854,31.0820488 110.037073,31.1771707 C110.183561,31.5376829 109.610927,31.2028537 109.756463,31.5652683 Z M96.7390244,31.2133171 C96.737122,31.0554146 96.7342683,30.8946585 96.7323659,30.7348537 C96.6362927,30.7367561 96.5392683,30.7386585 96.4441463,30.740561 C96.3842195,31.061122 96.6477073,31.0506585 96.7390244,31.2133171 Z M106.665,29.7998049 C107.463073,29.913 107.792195,29.5724634 108.478976,29.5772195 C108.445683,29.289 108.107049,29.3146829 108.086122,29.0102927 C107.371756,29.0397805 106.962732,29.3660488 106.665,29.7998049 Z M101.301073,29.4136098 C101.513195,29.3983902 101.334366,29.0064878 101.388585,28.8371707 C101.139366,28.9218293 100.856854,28.5594146 100.717024,28.8485854 C101.14222,28.8010244 100.776,29.5677073 101.301073,29.4136098 Z M100.327976,28.4738049 C100.326073,28.3463415 100.324171,28.218878 100.321317,28.0904634 C100.162463,28.0933171 100.002659,28.0961707 99.8438049,28.0999756 C99.7581951,28.4804634 100.126317,28.392 100.327976,28.4738049 Z M88.7535366,28.4804634 C89.0721951,28.4738049 89.3899024,28.4680976 89.7104634,28.4633415 C89.8607561,28.1522927 89.7466098,27.9449268 89.6942927,27.603439 C89.0170244,27.542561 88.803,27.932561 88.7535366,28.4804634 Z M113.236976,28.0619268 C114.213878,28.1865366 115.00339,28.5061463 115.362951,29.2680732 C116.100146,29.0892439 116.050683,29.7246585 116.802146,29.5306098 C116.657561,29.1101707 117.120805,29.2766341 117.078951,28.9522683 C116.796439,28.8219512 116.504415,28.7049512 116.023098,28.7800976 C115.996463,26.9899024 114.411732,26.8120244 112.829854,26.6341463 C112.506439,27.2286585 113.147561,27.5777561 113.236976,28.0619268 Z M91.9800732,26.9899024 C92.2473659,27.0707561 92.3177561,27.3532683 92.469,27.5549268 C93.3032195,27.4217561 94.1992683,27.347561 94.5607317,26.754 C93.6970244,26.5095366 92.5660244,26.3154878 91.9800732,26.9899024 Z M108.163171,27.8612195 C108.275415,28.0676341 108.893707,27.7546829 108.743415,28.2340976 C109.506293,28.2540732 109.887732,28.6726098 110.381415,28.9722439 C110.691512,28.6764146 111.21278,28.5831951 111.713122,28.4709512 C111.822512,28.1370732 111.760683,27.6405366 111.981366,27.4131951 C111.637976,27.5092683 111.841537,27.0384146 111.780659,26.8424634 C111.363073,26.723561 111.084366,26.459122 110.906488,26.0929024 C109.600463,26.2546098 107.919659,26.5123902 108.163171,27.8612195 Z M98.4902195,27.261 C98.9915122,27.1164146 99.3177805,26.8082195 99.5270488,26.3830244 C99.2198049,26.4096585 99.1199268,26.2203659 98.7613171,26.3012195 C98.6119756,26.5647073 98.3770244,26.7435366 98.4902195,27.261 Z M96.3804146,27.009878 C96.9207073,27.1344878 96.9188049,27.8165122 97.638878,27.7546829 C97.812,27.4540976 97.7311463,26.723561 97.6141463,26.4153659 C97.3040488,26.2831463 96.8113171,26.3383171 96.3699512,26.3411707 C96.3728049,26.5637561 96.377561,26.7872927 96.3804146,27.009878 Z M96.3661463,26.0548537 C96.7827805,26.0206098 97.3240244,26.1043171 97.4124878,25.7495122 C97.1746829,25.3186098 96.3395122,25.6344146 96.3661463,26.0548537 Z M93.3926341,25.7219268 C93.3289024,26.0158537 93.4972683,26.0681707 93.4982195,26.294561 C94.1754878,26.1984878 94.9583415,26.7397317 95.1219512,26.0757805 C94.8831951,25.6524878 93.9167561,25.5316829 93.3926341,25.7219268 Z M105.553976,26.2802927 C106.424341,26.7207073 107.654268,27.3570732 108.036659,26.0453415 C107.103512,25.9397561 106.75061,25.2339512 105.821268,25.1274146 C105.768951,25.5469024 105.429366,25.6886341 105.553976,26.2802927 Z M98.4597805,25.445122 C98.6709512,25.9388049 99.4861463,25.8084878 100.186244,25.7970732 C100.743659,24.8639268 98.4093659,24.1181707 98.4597805,25.445122 Z M112.026073,24.3502683 C112.029878,24.5757073 112.033683,24.7973415 112.036537,25.0199268 C112.714756,24.890561 113.428171,24.7982927 113.843854,24.4159024 C113.313073,24.1923659 112.652927,24.2503902 112.026073,24.3502683 Z M114.569634,22.1063415 C114.914927,23.1450732 116.306561,23.1003659 116.708927,24.080122 C116.482537,24.3997317 115.413366,24.3940244 115.37722,24.5804634 C116.370293,24.5814146 118.231829,24.9923415 118.233732,23.7662195 C117.624,23.4076098 116.115366,23.7386341 116.304659,22.8435366 C116.514878,22.7655366 116.673732,22.6352195 116.970512,22.6409268 C116.776463,22.0939756 116.221902,21.9208537 115.992659,21.4119512 C115.197439,21.3310976 114.799829,21.6383415 114.569634,22.1063415 Z M96.1996829,22.0407073 C94.8527561,22.3022927 93.8691951,21.3567805 92.9436585,21.8057561 C93.348878,22.9976341 93.6722927,23.7148537 94.4237561,24.4606098 C95.8810244,24.2513415 96.4879024,24.9200488 97.686439,24.9790244 C97.7682439,24.6518049 97.7691951,24.2446829 97.9565854,24.0182927 C97.664561,23.300122 96.8512683,22.6666098 96.1996829,22.0407073 Z M110.061805,21.419561 C109.132463,21.4947073 107.76461,20.7166098 107.392683,21.9436829 C108.27922,23.2753902 110.888415,22.9833659 112.373268,22.3365366 C112.449366,22.095878 112.489317,21.8219268 112.454122,21.471878 C111.736902,20.6595366 110.73622,21.3624878 110.061805,21.419561 Z M105.483585,22.2623415 C106.489024,22.4202439 106.731585,21.8390488 106.900902,21.1865122 C106.858098,21.0029268 106.528976,21.116122 106.606976,20.808878 C105.788927,20.865 105.599634,21.5270488 105.483585,22.2623415 Z M98.3855854,21.1399024 C98.7156585,21.1237317 98.6367073,21.5289512 98.9658293,21.5146829 C99.2540488,21.4471463 99.3986341,21.2435854 99.3368049,20.8364634 C98.795561,20.8678537 98.5206585,20.6538293 98.3855854,21.1399024 Z M95.0401463,21.2930488 C95.1504878,20.691878 94.4874878,20.8916341 94.2649024,20.6367073 C94.3077073,21.0790244 94.5264878,21.3377561 95.0401463,21.2930488 Z M91.173439,18.9682683 C91.4207561,18.9073902 91.5187317,18.9996585 91.4654634,19.248878 C91.5929268,19.2479268 91.7213415,19.2450732 91.8478537,19.2431707 C91.845,18.8560244 91.3037561,18.6743415 91.173439,18.9682683 Z M104.321195,21.4214634 C105.651,21.2312195 105.525439,19.6369756 106.092366,18.7123902 C106.049561,18.5288049 105.722341,18.6429512 105.79939,18.3357073 C104.499073,18.5820732 104.424878,20.0174634 104.321195,21.4214634 Z M100.382195,20.436 C100.881585,20.8602439 100.970049,21.7125366 101.933634,21.653561 C101.868,20.3912927 101.444707,19.5009512 101.210707,18.4137073 C101.112732,18.4156098 101.01761,18.416561 100.922488,18.4184634 C100.792171,19.1385366 100.536293,19.7378049 100.382195,20.436 Z M100.179585,19.7710976 C100.303244,19.3734878 100.516317,18.8274878 100.348902,18.4289268 C100.156756,18.4317805 99.965561,18.4365366 99.7743659,18.4374878 C99.6782927,19.1223659 99.9113415,19.4648049 100.179585,19.7710976 Z M97.9622927,18.7561463 C97.968,19.1375854 97.9746585,19.5199756 97.9813171,19.9033171 C98.397,19.9270976 98.4854634,20.2914146 99.038122,20.1706098 C99.0723659,19.6797805 99.0647561,19.0034634 98.9135122,18.4536585 C98.4293415,18.3918293 98.4521707,18.8236829 97.9622927,18.7561463 Z M102.355976,18.2976585 C102.091537,18.7352195 102.107707,20.1230488 102.863927,20.1078293 C102.713634,19.3240244 103.307195,18.308122 102.355976,18.2976585 Z M107.995756,18.1055122 C107.86639,19.1423415 106.314,18.8018049 106.305439,19.9518293 C107.595293,20.0098537 108.553171,19.0120244 108.949829,17.8990976 C108.447585,17.7897073 108.342951,18.065561 107.995756,18.1055122 Z M94.2278049,18.5326098 C94.605439,19.8319756 95.9970732,20.0193659 97.599878,19.8148537 C97.6103415,19.3126098 97.5808537,18.8607805 97.4809756,18.4755366 C96.962561,18.4203659 96.2729268,18.4156098 95.8562927,18.6952683 C95.7155122,18.2263171 94.9269512,18.4270244 94.6044878,18.1454634 C94.644439,18.4327317 94.2582439,18.3119268 94.2278049,18.5326098 Z M92.9997805,19.508561 C92.8561463,19.1509024 93.2594634,19.3230732 93.1843171,19.0291463 C93.0806341,18.8113171 92.7410488,18.8398537 92.7914634,18.4622195 C92.109439,18.6496098 92.2112195,18.0218049 91.5434634,18.1968293 C91.745122,18.9273659 92.2996829,19.2945366 92.9997805,19.508561 Z M110.586878,18.5392683 C109.778341,18.3566341 109.141976,18.5649512 109.068732,19.3306829 C109.896293,19.3478049 110.564049,19.2079756 111.265098,19.1023902 C111.479122,17.7801951 113.117122,18.3975366 114.406024,18.0931463 C114.513512,17.6241951 114.179634,17.6099268 114.105439,17.3340732 C112.559707,17.3740244 111.550463,17.9371463 110.586878,18.5392683 Z M89.5164146,17.1780732 C89.357561,17.181878 89.1977561,17.1837805 89.037,17.1856829 C89.0265366,17.5319268 89.5392439,17.5233659 89.5164146,17.1780732 Z M106.724927,16.5017561 C106.650732,16.5245854 106.615537,16.5845122 106.631707,16.6939024 C106.995073,17.0325366 107.361293,17.3664146 107.891122,17.5338293 C108.03761,17.1742683 108.606439,17.2218293 109.128659,17.2265854 C108.303,17.0667805 107.371756,16.5255366 106.724927,16.5017561 Z M91.1239756,16.098439 C91.2419268,16.107 91.3513171,16.124122 91.3189756,16.2858293 C91.4997073,16.1089024 92.1246585,15.9215122 92.2759024,16.2696585 C92.2882683,15.9386341 92.7752927,16.0613415 92.7439024,15.6884634 C92.157,15.4753902 91.6148049,15.9253171 91.1239756,16.098439 Z M103.932146,15.4011951 C104.057707,15.5315122 104.34878,15.4877561 104.602756,15.4849024 C104.599902,15.3250976 104.597049,15.1671951 104.595146,15.0083415 C104.37161,15.0111951 104.148073,15.015 103.926439,15.0188049 C103.928341,15.1462683 103.930244,15.2727805 103.932146,15.4011951 Z M99.4357317,15.4791951 C99.5964878,15.4763415 99.7562927,15.4725366 99.9151463,15.4696829 C100.002659,14.9969268 99.3310976,15.0083415 99.4357317,15.4791951 Z M112.634854,15.2518537 C112.955415,15.2176098 113.465268,15.3650488 113.394878,14.9522195 C113.158976,14.6449756 112.729024,14.5393902 112.239146,14.4937317 C112.196341,14.9265366 112.626293,14.8723171 112.634854,15.2518537 Z M93.1025122,14.2483171 C93.3136829,14.5137073 93.8672927,14.4280976 93.6903659,15.0987073 C94.8556098,14.6516341 96.0303659,15.7179512 97.4267561,15.4164146 C97.3601707,15.7131951 97.7587317,15.5258049 97.625561,15.8920244 C97.8167561,15.890122 98.0089024,15.8844146 98.2000976,15.881561 C98.2210244,14.2673415 96.3946829,14.5089512 95.1152927,14.5003902 C94.6815366,15.171 93.9129512,14.4556829 93.6722927,14.0466585 C93.4192683,14.0514146 93.1082195,14.0038537 93.1025122,14.2483171 Z M108.594073,13.8868537 C109.083,13.3237317 110.777122,13.9258537 111.068195,13.1743902 C109.934341,13.3066098 108.487537,12.0928537 108.594073,13.8868537 Z M96.5307073,13.3265854 C96.6448537,13.6813902 97.8938049,14.0200244 97.7710976,13.2105366 C97.5542195,12.969878 96.6039512,12.900439 96.5307073,13.3265854 Z M92.2273902,13.4978049 C92.7943171,13.3636829 92.8475854,13.7641463 93.2851463,13.7660488 C93.621878,13.4645122 94.1992683,13.3960244 94.4199512,12.9812927 C94.9497805,12.9460976 95.1305122,13.1220732 95.5680732,12.9613171 C94.683439,12.3011707 92.9084634,13.0402683 92.2273902,13.4978049 Z M105.801293,12.7862927 C106.503293,12.8043659 107.001732,13.0355122 107.342268,13.4302683 C107.801707,13.1525122 108.064244,12.6864146 108.180293,12.0757317 C107.289951,12.1527805 106.533732,12.0928537 105.975366,11.8284146 C106.04861,12.2735854 105.649098,12.2621707 105.801293,12.7862927 Z M110.28439,11.9454146 C110.286293,11.6476829 109.98761,11.6629024 109.703195,11.6686098 C109.661341,12.107122 110.032317,12.0481463 110.28439,11.9454146 Z M114.682829,11.8683659 C114.809341,11.8664634 114.937756,11.8636098 115.063317,11.8607561 C115.05,11.6191463 115.037634,11.370878 114.770341,11.3889512 C114.811244,11.6191463 114.598171,11.600122 114.682829,11.8683659 Z M112.089805,11.3394878 C112.37422,11.3356829 112.493122,11.5040488 112.574927,11.7152195 C112.543537,11.9359024 112.157341,11.8122439 112.197293,12.1033171 C112.49978,12.8100732 113.258854,11.9140244 113.919951,12.0719268 C114.122561,11.7351951 114.386049,11.4583902 114.572488,11.1045366 C113.948488,10.4662683 112.456024,10.3483171 112.089805,11.3394878 Z M106.81339,10.4729268 C107.342268,10.6679268 108.465659,10.6270244 108.526537,10.062 C107.86639,10.1114634 106.950366,9.9155122 106.81339,10.4729268 Z M100.404073,10.4862439 C100.812146,10.5366585 101.034732,10.4072927 101.358146,10.3749512 C101.404756,9.90695122 100.753171,10.1561707 100.397415,10.1048049 C100.399317,10.2313171 100.400268,10.3606829 100.404073,10.4862439 Z M87.2867561,9.85082927 C87.498878,9.80517073 87.6253902,9.67580488 87.6624878,9.46178049 C87.5340732,9.46273171 87.4066098,9.46558537 87.2800976,9.4674878 C87.282,9.59495122 87.2839024,9.72336585 87.2867561,9.85082927 Z M101.05661,9.51885366 C101.263976,9.75760976 101.724366,9.73763415 102.113415,9.78804878 C102.299854,9.59780488 102.166683,9.24109756 102.101049,9.02231707 C101.506537,8.95002439 101.175512,9.13265854 101.05661,9.51885366 Z M106.027683,9.243 C106.022927,9.05180488 106.020073,8.86156098 106.01722,8.66846341 C105.921146,8.66941463 105.825073,8.67036585 105.730902,8.67417073 C105.590122,8.9747561 105.735659,9.14787805 106.027683,9.243 Z M103.269146,10.1514146 C103.510756,9.99160976 103.930244,10.2902927 104.22322,10.0382195 C103.814195,9.27534146 104.842463,9.48746341 105.066951,9.06607317 C104.370659,8.20046341 102.357878,8.93670732 103.269146,10.1514146 Z M90.6436098,10.3663902 C91.398878,10.716439 92.3586585,10.404439 93.0302195,10.1333415 C92.5603171,9.88887805 91.8773415,9.5645122 92.3405854,8.90341463 C91.2752195,8.90721951 91.0659512,9.73858537 90.6436098,10.3663902 Z M103.595415,6.89253659 C103.594463,7.22736585 104.614171,7.35578049 104.55139,6.87731707 C104.167098,6.78790244 103.975902,6.79360976 103.595415,6.89253659 Z M110.765707,6.57863415 C111.291732,6.24190244 112.425585,6.48921951 113.056244,6.25331707 C112.485512,5.55892683 110.66678,5.56178049 110.765707,6.57863415 Z M94.115561,6.38553659 C94.965,6.6737561 96.1502195,6.61573171 97.0871707,6.81263415 C96.9435366,6.45402439 97.3468537,6.62334146 97.2717073,6.33036585 C97.0871707,5.80814634 96.4450976,5.75963415 96.2957561,5.20031707 C96.1150244,6.123 94.5283902,5.68639024 94.115561,6.38553659 Z M104.422976,4.8702439 C104.709293,4.86358537 104.99561,4.86073171 105.281927,4.85407317 C105.359927,4.13590244 104.251756,3.95421951 104.422976,4.8702439 Z M99.1427561,3.90856098 C99.5470244,3.79441463 100.392659,4.11117073 100.47922,3.69358537 C100.142488,3.62034146 99.9674634,3.37778049 99.6117073,3.3245122 C99.3824634,3.44721951 99.1085122,3.52902439 99.1427561,3.90856098 Z M92.1512927,20.1943902 C92.0761463,19.9156829 91.845,19.7958293 91.4759268,19.8243659 C91.3437073,20.3827317 91.8488049,20.3456341 92.1512927,20.1943902 Z M87.2705854,20.0869024 C87.1469268,19.3411463 87.897439,19.439122 88.1124146,19.0205854 C86.8549024,18.750439 85.4908537,19.9936829 83.6293171,19.7653902 C83.4609512,18.819878 82.4783415,19.2079756 81.804878,19.4143902 C82.0189024,18.4622195 83.7520244,18.9739756 83.5922195,17.6631951 C85.1817073,17.5985122 86.0501707,16.8384878 87.303878,16.4503902 C87.836561,15.9319756 88.7021707,15.7322195 88.9999024,14.9864634 C90.0081951,14.6449756 91.2504878,14.5270244 91.6547561,13.6014878 C90.9850976,13.8516585 90.4990244,13.6566585 89.7409024,13.5406098 C88.3616341,13.3265854 87.0974634,13.0916341 86.3031951,13.8849512 C85.2026341,13.6357317 84.8763659,14.4480732 83.7291951,14.408122 C83.7187317,13.8021951 83.7710488,13.2561951 83.8928049,12.7777317 C83.4095854,12.4600244 82.6562195,12.497122 81.9760976,12.618878 C81.6840732,10.6460488 84.5386829,11.708561 84.2219268,9.711 C85.275878,9.06607317 86.6627561,8.7455122 88.2218049,8.59046341 C88.8049024,7.68014634 90.2393415,7.59453659 91.1610732,7.00953659 C90.4067561,6.49017073 89.4346098,6.19719512 88.3682927,6.00409756 C87.8983902,4.41365854 90.1708537,3.9827561 91.4987561,4.42221951 C91.7299024,4.29760976 92.0029024,4.21865854 91.9667561,3.83817073 C93.3498293,3.83246341 94.7956829,2.79087805 96.0760244,3.57658537 C96.9796829,3.19514634 97.0500732,2.00992683 97.7634878,1.44395122 C98.9743902,1.82253659 99.3482195,0.39095122 100.620951,0.820902439 C101.320098,-0.138878049 103.211122,0.542195122 103.954976,0 C104.545683,0.263487805 104.927122,0.745756098 105.12878,1.4135122 C105.638634,1.40495122 106.147537,1.39639024 106.659293,1.38782927 C107.299463,2.69956098 109.119146,1.77782927 110.496512,2.08887805 C111.098634,2.22109756 111.354512,2.72714634 111.942366,2.73285366 C112.763268,3.34258537 113.725902,3.80773171 113.991293,4.99295122 C115.083293,6.4254878 117.10939,6.88968293 118.538122,7.97692683 C119.374244,7.92270732 119.609195,8.48868293 120.458634,8.42209756 C120.662195,9.37712195 122.473317,8.67036585 122.303049,10.0163415 C120.503341,10.4291707 119.209683,9.8574878 117.515561,9.7157561 C117.489878,9.15643902 117.114146,8.96239024 116.546268,8.96619512 C117.318659,9.25536585 116.655659,10.491 116.964805,11.1606585 C116.66422,11.2453171 116.67278,11.6286585 116.205732,11.5563659 C116.899171,11.652439 117.53078,11.8065366 118.222317,11.9045122 C118.300317,12.4400488 118.757854,12.5827317 118.910049,13.0402683 C118.742634,13.5234878 118.280341,13.355122 117.767634,13.3475122 C116.805,14.6326098 115.173659,14.0580732 114.505902,12.8281463 C113.999854,13.043122 113.656463,12.7453902 112.785146,12.8576341 C112.388488,13.2619024 112.712854,13.9334634 112.999171,14.1950488 C114.372732,14.6230976 115.52561,15.2784878 116.946732,15.6570732 C117.261585,16.7462195 118.800659,15.959561 120.019171,16.2734634 C120.91522,16.5036585 121.499268,17.0363415 121.949195,17.2931707 C121.658122,17.5519024 120.598463,17.5357317 119.846049,17.3283659 C118.939537,17.0829512 117.47561,17.8743659 116.886805,17.7630732 C116.193366,17.6299024 115.456171,16.302 114.484976,17.1352683 C114.64478,17.3901951 114.755122,17.697439 114.789366,18.0864878 C115.142268,18.6296341 116.748878,18.2282195 117.568829,18.5154878 C118.058707,18.6886098 118.135756,19.1651707 118.540024,19.3601707 C117.586902,20.1820244 115.977439,20.0840488 114.727537,20.1915366 C115.35439,20.7774878 116.716537,20.5996098 117.329122,21.198878 C117.936,21.1541707 118.33361,21.3282439 118.674146,21.558439 C119.100293,21.5384634 119.643439,21.4233659 120.492878,21.6250244 C120.867659,21.7125366 121.184415,22.0759024 121.553488,22.1795854 C122.145146,22.3412927 122.490439,22.130122 122.895659,22.3479512 C123.219073,22.5182195 123.659488,22.767439 124.244488,22.8977561 C124.159829,23.2059512 124.396683,24.2627561 124.179805,24.7183902 C123.379829,24.7678537 123.109683,24.2684634 122.167024,24.4634634 C122.238366,24.8772439 122.646439,24.9438293 122.944171,25.1217073 C122.423854,25.3005366 121.203439,25.367122 121.121634,24.7697561 C119.91739,24.8401463 118.94239,23.5788293 118.151927,24.6289756 C118.295561,24.9676098 118.886268,24.843 118.834902,25.3823415 C118.407805,26.2213171 117.019024,26.1357073 116.370293,26.7654146 C116.292293,27.0726585 116.623317,26.9585122 116.665171,27.1401951 C118.284146,26.927122 119.974463,26.9128537 120.792512,27.9306585 C122.167976,28.0010488 123.330366,28.292122 124.344366,28.7325366 C124.293951,29.622878 122.760585,29.0816341 122.449537,29.7218049 C121.04078,29.1577317 119.55878,30.264 117.860854,29.991 C118.018756,30.3467561 118.584732,30.281122 118.733122,30.645439 C118.477244,31.4844146 116.894415,30.4647073 116.834488,31.4444634 C116.166732,31.4273415 115.727268,31.6299512 115.310634,31.8525366 C115.358195,32.3243415 116.111561,32.0627561 116.558634,32.118878 C116.527244,32.4432439 116.985732,32.2606098 116.854463,32.6858049 C117.630659,32.565 118.026366,32.838 118.676049,32.846561 C118.964268,34.0650732 118.141463,34.211561 117.264439,34.3076341 C117.643024,35.0514878 118.596146,35.2008293 119.672927,35.2217561 C120.025829,35.667878 120.405366,36.0854634 121.311878,35.958 C121.969171,36.3812927 122.884244,36.5391951 123.435951,37.071878 C122.478073,37.7767317 120.080049,37.0880488 119.047976,37.7206098 C118.150024,37.1004146 115.751049,38.103 115.017659,37.1203902 C113.710683,37.2069512 112.582537,37.1099268 111.570439,36.8901951 C111.409683,37.2193171 111.678878,37.4219268 111.963293,37.5541463 C110.148366,39.0323415 106.647878,37.9993171 104.415366,38.0668537 C104.793,38.7460244 104.461976,40.1585854 104.845317,40.833 C105.415098,40.8272927 106.071439,40.733122 106.284512,41.0955366 C107.103512,41.0080244 107.953902,41.1307317 108.67778,41.1497561 C109.280854,41.166878 110.109366,40.8729512 110.499366,41.4046829 C109.569073,41.4836341 108.309659,40.8948293 107.534415,41.457 C105.964902,41.1031463 102.859171,42.1941951 101.124146,41.3751951 C99.4300244,41.3029024 97.4172439,41.2886341 96.0493902,41.175439 C97.0900244,40.850122 99.3777073,41.0346585 100.632366,40.6180244 C101.426634,39.2473171 101.430439,36.9377561 100.831171,35.4490976 C99.5023171,35.9437317 98.5939024,35.4519512 97.7606341,34.926878 C97.3107073,35.3083171 96.8398537,35.667878 96.2472439,35.910439 C96.0199024,35.7867805 95.7706829,35.6878537 95.7583171,35.3435122 C94.77,35.5613415 94.5008049,35.4471951 93.7455366,35.0923902 C93.5058293,36.1168537 94.8518049,36.3470488 95.0268293,37.2697317 C95.5566585,37.9355854 96.6277317,38.0620976 97.2460244,38.3807561 C96.5059756,39.1873902 94.7842683,38.3921707 93.9995122,38.8183171 C92.5793415,38.9686098 91.4664146,38.8677805 89.9834634,38.8868049 C89.7256829,38.5700488 89.3594634,38.3645854 89.2957317,37.8461707 C88.5870732,37.3648537 87.0803415,37.7577073 86.129122,37.3258537 C85.488,37.8642439 85.0085854,37.0157561 84.218122,37.3591463 C84.3218049,36.1120976 85.4290244,35.8333902 85.995,35.0315122 C87.1792683,35.0486341 87.8137317,34.5311707 89.1473415,34.6900244 C89.2843171,34.6671951 89.1739756,34.406561 89.331878,34.4027561 C89.886439,34.3475854 90.3515854,34.3856341 90.5817805,34.6671951 C93.1215366,34.9573171 93.4782439,32.7466829 96.0988537,32.8513171 C96.1996829,31.4777561 94.6453902,31.8734634 93.8777561,31.6451707 C95.2912683,31.0668293 96.408,30.2012195 97.6683659,29.475439 C97.1356829,28.0096098 94.7538293,27.2895366 93.0530488,28.2150732 C93.3564878,29.0711707 94.6824878,28.8666585 94.8984146,29.8093171 C93.5876341,30.2050244 92.655439,30.9631463 90.8024634,30.8366341 C90.714,31.0030976 90.4524146,30.9983415 90.5237561,31.3189024 C89.2377073,31.152439 88.5414146,31.1952439 87.3695122,31.4691951 C87.438,30.9393659 87.9830488,30.8718293 88.1171707,30.4047805 C87.7623659,29.9586585 87.299122,29.6285854 87.2296829,28.8894878 C86.2518293,29.0102927 85.1750488,29.0359756 84.075439,29.0388293 C83.780561,28.3691707 82.8645366,28.344439 82.0512439,28.2122195 C84.2666341,26.7473415 87.9098049,26.6607805 91.0079268,26.0491463 C91.8288293,25.4650976 92.5993171,24.8296829 94.0480244,24.8506098 C93.7902439,23.6806098 93.0197561,23.6406585 92.859,22.3840976 C91.3408537,22.4820732 91.3123171,24.0249512 89.8274634,24.158122 C89.8997561,23.79 89.3642195,24.0525366 89.435561,23.6844146 C90.1442195,23.3961951 90.8452683,23.1032195 91.2343171,22.5068049 C90.4657317,21.2007805 88.6650732,22.2680488 87.5026829,22.4744634 C87.1659512,22.628561 87.4389512,22.1491463 87.2106585,22.1929024 C86.4582439,22.5477073 85.6649268,22.5619756 85.1027561,22.0369024 C85.2054878,21.7287073 85.2987073,21.4119512 85.3729024,21.0761707 C87.2496585,20.2933171 89.3195122,20.2895122 91.4882927,20.5900976 C91.1239756,19.062439 88.8362927,20.4721463 87.2705854,20.0869024 Z" id="Fill-1" fill="#00AEB5"></path>
                <path d="M0.951219512,77.5243902 L206.349,77.5243902" id="Fill-3" fill="#1A1919"></path>
                <g id="Group-7" transform="translate(0.000000, 43.756098)">
                    <mask id="mask-2" fill="white">
                        <use xlink:href="#path-1"></use>
                    </mask>
                    <g id="Clip-5"></g>
                    <path d="M0.361463415,33.0272927 L205.759244,33.0272927" id="Stroke-4" stroke="#1A1919" stroke-width="0.557" mask="url(#mask-2)"></path>
                    <path d="M16.007122,17.6232439 C15.6799024,23.5531463 12.9518049,26.862439 8.29463415,26.862439 C2.98397561,26.862439 0,22.7522195 0,13.4397805 C0,4.12639024 2.98397561,0.0152195122 8.29463415,0.0152195122 C13.5691463,0.0152195122 15.7521951,3.76302439 15.7521951,8.01878049 L13.424561,8.01878049 C13.424561,4.49070732 11.6410244,1.98043902 8.29463415,1.98043902 C4.58392683,1.98043902 2.32858537,5.0357561 2.32858537,13.4397805 C2.32858537,21.8419024 4.58392683,24.899122 8.29463415,24.899122 C11.5687317,24.899122 13.424561,22.0977805 13.6785366,17.6232439" id="Fill-6" fill="#1A1919" mask="url(#mask-2)"></path>
                </g>
                <path d="M27.6709756,58.781561 C27.5986829,53.9807561 26.2536585,52.2343171 23.5607561,52.2343171 C20.8688049,52.2343171 19.521878,53.9807561 19.4495854,58.781561 L27.6709756,58.781561 Z M29.817878,63.7669024 C29.4897073,67.8761707 27.2353171,70.6042683 23.5978537,70.6042683 C19.521878,70.6042683 17.1219512,67.7677317 17.1219512,60.4909024 C17.1219512,53.798122 19.521878,50.4146341 23.7785854,50.4146341 C28.071439,50.4146341 30.0005122,53.3615122 30.0005122,59.8003171 L30.0005122,60.6002927 L19.4495854,60.6002927 L19.4495854,61.5106098 C19.4495854,67.0761951 21.4148049,68.7845854 23.5607561,68.7845854 C25.8531951,68.7845854 27.2714634,67.1484878 27.6348293,63.7669024 L29.817878,63.7669024 Z" id="Fill-8" fill="#1A1919"></path>
                <path d="M37.938439,69.2982439 C40.1576341,69.2982439 42.1580488,68.172 42.1580488,61.0055122 C42.1580488,53.8751707 40.1576341,52.7470244 37.938439,52.7470244 C35.7553902,52.7470244 33.717878,53.8751707 33.717878,61.0055122 C33.717878,68.172 35.7553902,69.2982439 37.938439,69.2982439 Z M42.375878,67.4804634 L42.3035854,67.4804634 C41.721439,69.6987073 39.8656098,71.1179268 37.574122,71.1179268 C33.3174146,71.1179268 31.3902439,67.6992439 31.3902439,61.0055122 C31.3902439,54.348878 33.3174146,50.9273415 37.574122,50.9273415 C39.975,50.9273415 41.6120488,52.238122 42.0848049,54.2746829 L42.1580488,54.2746829 L42.1580488,44.7073171 L44.3410976,44.7073171 L44.3410976,70.6822683 L42.375878,70.6822683 L42.375878,67.4804634 Z" id="Fill-9" fill="#1A1919"></path>
                <path d="M55.5169756,59.2543171 L55.4446829,59.2543171 C55.2259024,59.9106585 53.9902683,60.3101707 53.1160976,60.5270488 L51.2973659,60.9998049 C49.1143171,61.5829024 47.987122,62.7100976 47.987122,65.0015854 C47.987122,67.2569268 49.1514146,68.7855366 51.042439,68.7855366 C53.6982439,68.7855366 55.5169756,66.785122 55.5169756,63.3293415 L55.5169756,59.2543171 Z M46.2768293,56.5985122 C46.2768293,52.6338293 48.1688049,50.4146341 52.242878,50.4146341 C56.2446585,50.4146341 57.7000244,52.4882927 57.7000244,55.5436098 L57.7000244,66.9668049 C57.7000244,68.0578537 58.0633902,68.5677073 58.8272195,68.5677073 L59.4464634,68.5677073 L59.4464634,70.1676585 C59.046,70.3131951 58.7178293,70.3854878 58.4277073,70.3854878 C56.7183659,70.3854878 55.6263659,69.9859756 55.6263659,67.9846098 L55.6263659,67.3301707 L55.5550244,67.3301707 C54.6808537,69.8775366 52.7156341,70.6042683 50.5706341,70.6042683 C47.1861951,70.6042683 45.6585366,68.4954146 45.6585366,65.1480732 C45.6585366,62.6016585 46.8237805,60.5650976 49.551878,59.8003171 L53.6620976,58.6379268 C55.1897561,58.1984634 55.5169756,57.8350976 55.5169756,55.5807073 C55.5169756,53.1065854 54.1348537,52.2333659 52.1705854,52.2333659 C49.5870732,52.2333659 48.459878,53.798122 48.459878,56.5985122 L46.2768293,56.5985122 Z" id="Fill-10" fill="#1A1919"></path>
                <path d="M60.8780488,50.8512439 L63.0610976,50.8512439 L63.0610976,53.8704146 L63.132439,53.8704146 C63.9704634,51.7244634 65.7520976,50.4146341 68.0083902,50.4146341 C68.2623659,50.4146341 68.5163415,50.4507805 68.7722195,50.5240244 L68.7722195,52.7070732 C68.4079024,52.6338293 68.0445366,52.5976829 67.7173171,52.5976829 C65.316439,52.5976829 63.0610976,54.3431707 63.0610976,58.0909756 L63.0610976,70.1686098 L60.8780488,70.1686098" id="Fill-11" fill="#1A1919"></path>
                <path d="M93.0559024,61.364122 C92.7286829,67.2940244 89.9996341,70.6033171 85.3434146,70.6033171 C80.0327561,70.6033171 77.0487805,66.4930976 77.0487805,57.1806585 C77.0487805,47.8672683 80.0327561,43.7560976 85.3434146,43.7560976 C90.6179268,43.7560976 92.8009756,47.5039024 92.8009756,51.7596585 L90.4723902,51.7596585 C90.4723902,48.2315854 88.6898049,45.7213171 85.3434146,45.7213171 C81.6327073,45.7213171 79.3773659,48.7766341 79.3773659,57.1806585 C79.3773659,65.5827805 81.6327073,68.64 85.3434146,68.64 C88.6175122,68.64 90.4723902,65.8386585 90.7273171,61.364122" id="Fill-12" fill="#1A1919"></path>
                <path d="M100.827366,68.7855366 C103.265341,68.7855366 105.156366,66.6776341 105.156366,60.4928049 C105.156366,54.344122 103.265341,52.2343171 100.827366,52.2343171 C98.3903415,52.2343171 96.4993171,54.344122 96.4993171,60.4928049 C96.4993171,66.6776341 98.3903415,68.7855366 100.827366,68.7855366 Z M100.827366,50.4146341 C105.084073,50.4146341 107.484951,53.7990732 107.484951,60.4928049 C107.484951,67.2236341 105.084073,70.6052195 100.827366,70.6052195 C96.5716098,70.6052195 94.1707317,67.2236341 94.1707317,60.4928049 C94.1707317,53.7990732 96.5716098,50.4146341 100.827366,50.4146341 Z" id="Fill-13" fill="#1A1919"></path>
                <path d="M109.390244,51.3658537 L111.573293,51.3658537 L111.573293,64.9711463 C111.573293,68.0997073 112.628195,69.3001463 114.920634,69.3001463 C117.393805,69.3001463 119.139293,67.3368293 119.139293,64.3538049 L119.139293,51.3658537 L121.322341,51.3658537 L121.322341,70.6832195 L119.358073,70.6832195 L119.358073,67.9912683 L119.28578,67.9912683 C118.19378,70.1372195 116.301805,71.118878 114.338488,71.118878 C111.390659,71.118878 109.390244,69.5912195 109.390244,65.9537561" id="Fill-14" fill="#1A1919"></path>
                <path d="M123.658537,50.8512439 L125.840634,50.8512439 L125.840634,53.8704146 L125.914829,53.8704146 C126.751902,51.7244634 128.533537,50.4146341 130.789829,50.4146341 C131.042854,50.4146341 131.298732,50.4507805 131.553659,50.5240244 L131.553659,52.7070732 C131.189341,52.6338293 130.825976,52.5976829 130.496854,52.5976829 C128.097878,52.5976829 125.840634,54.3431707 125.840634,58.0909756 L125.840634,70.1686098 L123.658537,70.1686098" id="Fill-15" fill="#1A1919"></path>
                <path d="M135.828439,52.8240732 L133.170732,52.8240732 L133.170732,51.0043902 L135.828439,51.0043902 L135.828439,45.6585366 L138.009585,45.6585366 L138.009585,51.0043902 L141.428268,51.0043902 L141.428268,52.8240732 L138.009585,52.8240732 L138.009585,66.6833415 C138.009585,68.2119512 138.664024,68.7218049 140.083244,68.7218049 C140.518902,68.7218049 140.956463,68.6495122 141.428268,68.5039756 L141.428268,70.3227073 C141.174293,70.4672927 140.628293,70.5395854 139.901561,70.5395854 C136.955634,70.5395854 135.828439,69.7396098 135.828439,67.1570488" id="Fill-16" fill="#1A1919"></path>
                <polyline id="Fill-17" fill="#1A1919" points="163.721049 57.7304634 153.571537 57.7304634 153.571537 70.6822683 151.243902 70.6822683 151.243902 44.7073171 153.571537 44.7073171 153.571537 55.7661951 163.721049 55.7661951 163.721049 44.7073171 166.049634 44.7073171 166.049634 70.6822683 163.721049 70.6822683"></polyline>
                <path d="M174.07222,68.7855366 C176.510195,68.7855366 178.402171,66.6776341 178.402171,60.4928049 C178.402171,54.344122 176.510195,52.2343171 174.07222,52.2343171 C171.635195,52.2343171 169.742268,54.344122 169.742268,60.4928049 C169.742268,66.6776341 171.635195,68.7855366 174.07222,68.7855366 Z M174.07222,50.4146341 C178.327976,50.4146341 180.728854,53.7990732 180.728854,60.4928049 C180.728854,67.2236341 178.327976,70.6052195 174.07222,70.6052195 C169.815512,70.6052195 167.414634,67.2236341 167.414634,60.4928049 C167.414634,53.7990732 169.815512,50.4146341 174.07222,50.4146341 Z" id="Fill-18" fill="#1A1919"></path>
                <path d="M183.388463,52.8240732 L180.731707,52.8240732 L180.731707,51.0043902 L183.388463,51.0043902 L183.388463,45.6585366 L185.570561,45.6585366 L185.570561,51.0043902 L188.989244,51.0043902 L188.989244,52.8240732 L185.570561,52.8240732 L185.570561,66.6833415 C185.570561,68.2119512 186.225,68.7218049 187.643268,68.7218049 C188.078927,68.7218049 188.516488,68.6495122 188.989244,68.5039756 L188.989244,70.3227073 C188.735268,70.4672927 188.189268,70.5395854 187.462537,70.5395854 C184.51661,70.5395854 183.388463,69.7396098 183.388463,67.1570488" id="Fill-19" fill="#1A1919"></path>
                <path d="M199.841707,58.781561 C199.770366,53.9807561 198.422488,52.2343171 195.730537,52.2343171 C193.038585,52.2343171 191.69261,53.9807561 191.619366,58.781561 L199.841707,58.781561 Z M201.987659,63.7669024 C201.660439,67.8761707 199.403195,70.6042683 195.766683,70.6042683 C191.69261,70.6042683 189.292683,67.7677317 189.292683,60.4909024 C189.292683,53.798122 191.69261,50.4146341 195.949317,50.4146341 C200.242171,50.4146341 202.170293,53.3615122 202.170293,59.8003171 L202.170293,60.6002927 L191.619366,60.6002927 L191.619366,61.5106098 C191.619366,67.0761951 193.585537,68.7845854 195.730537,68.7845854 C198.022976,68.7845854 199.441244,67.1484878 199.80461,63.7669024 L201.987659,63.7669024 Z" id="Fill-20" fill="#1A1919"></path>
                <polygon id="Fill-21" fill="#1A1919" points="204.512195 70.6822683 206.695244 70.6822683 206.695244 44.7073171 204.512195 44.7073171"></polygon>
            </g>
        </g>
    </g>
</svg>