<svg xmlns="http://www.w3.org/2000/svg" id="cedar-court-logo" class="logo" viewBox="0 0 216.69 81.18"><path d="M91.73,21.12c-.13-.79.66-.68.89-1.12-1.33-.29-2.76,1-4.72.78-.17-1-1.21-.59-1.91-.37.22-1,2-.46,1.87-1.84,1.68-.07,2.59-.87,3.91-1.28.56-.54,1.47-.75,1.78-1.53,1.06-.36,2.37-.49,2.79-1.46a3.56,3.56,0,0,1-2-.07c-1.45-.22-2.78-.47-3.62.37-1.15-.27-1.5.59-2.7.55a6.56,6.56,0,0,1,.17-1.72,2.94,2.94,0,0,0-2-.16c-.31-2.08,2.69-1,2.36-3.06A9.89,9.89,0,0,1,92.73,9c.61-1,2.12-1,3.09-1.66a7.4,7.4,0,0,0-2.93-1.06c-.5-1.67,1.89-2.12,3.29-1.66.24-.13.53-.22.49-.62,1.45,0,3-1.1,4.32-.27,1-.4,1-1.65,1.77-2.24,1.28.4,1.67-1.11,3-.66.73-1,2.72-.29,3.5-.86a2.22,2.22,0,0,1,1.23,1.49l1.61,0c.68,1.38,2.59.41,4,.74.63.13.9.67,1.52.67.86.64,1.87,1.13,2.15,2.38,1.15,1.51,3.28,2,4.78,3.14.88-.06,1.13.53,2,.46.22,1,2.12.27,1.94,1.68-1.89.43-3.25-.17-5-.32,0-.58-.42-.79-1-.78.81.3.11,1.6.44,2.3-.32.09-.31.49-.8.42.73.1,1.39.26,2.12.36.08.57.56.72.72,1.2-.17.51-.66.33-1.2.32-1,1.35-2.72.75-3.43-.54-.53.22-.89-.09-1.81,0-.41.42-.07,1.13.23,1.4,1.44.45,2.66,1.14,4.15,1.54.33,1.14,1.95.32,3.23.65a7.21,7.21,0,0,1,2,1.07,3.34,3.34,0,0,1-2.21,0c-1-.26-2.49.57-3.11.45s-1.51-1.53-2.53-.66a2.11,2.11,0,0,1,.32,1c.37.57,2.06.15,2.92.45.52.19.6.69,1,.89-1,.87-2.69.76-4,.88.65.61,2.09.43,2.73,1.06a2.09,2.09,0,0,1,1.42.37,5.57,5.57,0,0,1,1.91.07c.39.1.72.48,1.11.59.62.17,1-.06,1.41.17a5.59,5.59,0,0,0,1.42.58c-.09.33.16,1.44-.07,1.92-.84.05-1.12-.48-2.11-.27.07.43.5.5.81.69-.54.19-1.83.26-1.91-.37-1.27.07-2.29-1.25-3.12-.15.15.36.77.23.71.79-.45.89-1.91.8-2.59,1.46-.08.32.27.2.31.39,1.71-.22,3.48-.24,4.34.83a10.61,10.61,0,0,1,3.74.85c-.06.93-1.67.36-2,1-1.48-.6-3,.57-4.82.28.17.37.76.3.92.69-.27.88-1.94-.19-2,.84a2.91,2.91,0,0,0-1.6.43c.05.49.84.22,1.31.28,0,.34.45.14.31.59a8.22,8.22,0,0,1,1.92.17c.3,1.28-.56,1.44-1.49,1.54.4.78,1.4.94,2.53,1a1.65,1.65,0,0,0,1.73.77c.69.45,1.65.61,2.23,1.17-1,.74-3.53,0-4.61.68-1-.65-3.47.41-4.24-.63a12.56,12.56,0,0,1-3.62-.24c-.17.35.11.56.41.7-1.91,1.55-5.59.47-7.94.54.4.71,0,2.2.46,2.91.6,0,1.29-.11,1.51.27a18.86,18.86,0,0,1,2.52.06c.63,0,1.5-.29,1.91.27-1,.08-2.3-.54-3.12,0-1.65-.37-4.91.78-6.74-.08-1.78-.08-3.89-.09-5.33-.21,1.09-.34,3.5-.15,4.82-.59a7,7,0,0,0,.21-5.43,3.33,3.33,0,0,1-3.23-.55,5.8,5.8,0,0,1-1.59,1c-.24-.13-.5-.23-.52-.59a2.52,2.52,0,0,1-2.11-.27c-.25,1.08,1.16,1.32,1.35,2.29.55.7,1.68.83,2.33,1.17-.78.85-2.59,0-3.41.46-1.5.16-2.67,0-4.23.07-.27-.33-.65-.55-.72-1.09-.74-.51-2.33-.1-3.33-.55-.67.57-1.18-.33-2,0,.11-1.31,1.28-1.6,1.87-2.44,1.25,0,1.91-.53,3.31-.36.15,0,0-.3.2-.3.58-.06,1.07,0,1.31.28,2.67.3,3.05-2,5.8-1.91.11-1.45-1.53-1-2.33-1.27a33.48,33.48,0,0,0,4-2.28c-.56-1.54-3.06-2.3-4.85-1.33.32.9,1.71.69,1.94,1.68-1.38.41-2.36,1.21-4.31,1.08-.09.17-.36.17-.29.51a7.79,7.79,0,0,0-3.31.15c.07-.55.64-.63.78-1.12-.37-.47-.86-.81-.93-1.59a29.2,29.2,0,0,1-3.32.16c-.31-.71-1.27-.73-2.13-.87,2.33-1.54,6.16-1.63,9.42-2.27a4.82,4.82,0,0,1,3.2-1.27c-.27-1.23-1.08-1.27-1.25-2.59-1.6.11-1.63,1.73-3.19,1.87.08-.39-.49-.11-.41-.5a3.81,3.81,0,0,0,1.89-1.24c-.81-1.37-2.7-.25-3.92,0-.36.16-.07-.35-.31-.3a1.94,1.94,0,0,1-2.22-.16c.11-.33.21-.66.29-1a12.06,12.06,0,0,1,6.43-.51c-.39-1.61-2.79-.13-4.44-.53m5.13.11c-.08-.29-.32-.42-.71-.39C96,21.43,96.54,21.39,96.86,21.23Zm7.35-17.12c.43-.12,1.32.21,1.41-.23-.36-.07-.54-.33-.91-.39C104.46,3.62,104.18,3.71,104.21,4.11Zm5.55,1,.91,0C110.75,4.35,109.58,4.16,109.76,5.12ZM98.93,6.71a29.63,29.63,0,0,0,3.12.45c-.15-.38.27-.2.2-.5-.2-.55-.87-.61-1-1.19C101,6.44,99.36,6,98.93,6.71Zm17.5.21c.55-.36,1.75-.1,2.41-.35C118.24,5.84,116.33,5.85,116.43,6.92Zm-7.54.33c0,.35,1.07.48,1,0A1.74,1.74,0,0,0,108.89,7.25ZM95.28,10.9a3.32,3.32,0,0,0,2.51-.25c-.5-.25-1.22-.6-.73-1.29C95.94,9.36,95.72,10.24,95.28,10.9Zm13.27-.23c.25-.17.7.15,1-.12-.43-.8.65-.58.89-1C109.71,8.62,107.59,9.39,108.55,10.67Zm2.9-.95c0-.2,0-.4,0-.61h-.3C111,9.43,111.14,9.62,111.45,9.72Zm-5.23.29c.22.25.71.23,1.12.28.19-.2,0-.58,0-.81C106.7,9.41,106.35,9.6,106.22,10Zm-14.47.35a.48.48,0,0,0,.39-.41h-.4C91.74,10.09,91.75,10.22,91.75,10.36Zm13.79.66a3.4,3.4,0,0,0,1-.11c0-.5-.63-.23-1-.29C105.53,10.76,105.53,10.89,105.54,11Zm6.74,0c.55.2,1.73.16,1.8-.43C113.38,10.63,112.42,10.42,112.28,11Zm5.54.91a.5.5,0,0,1,.51.4c0,.23-.44.1-.39.4.31.75,1.11-.2,1.81,0,.21-.35.49-.64.68-1C119.78,11,118.21,10.88,117.82,11.92Zm2.73.56h.4c0-.26,0-.52-.31-.5C120.68,12.21,120.46,12.2,120.55,12.48Zm-4.63.08c0-.32-.31-.3-.61-.29C115.27,12.73,115.66,12.67,115.92,12.56Zm-4.71.88a2.08,2.08,0,0,1,1.62.68,2,2,0,0,0,.88-1.42,4.56,4.56,0,0,1-2.31-.27C111.47,12.9,111.05,12.89,111.21,13.44Zm-14.27.75c.6-.14.65.28,1.11.28.36-.31,1-.39,1.2-.82.55,0,.74.14,1.2,0C99.52,12.93,97.66,13.71,96.94,14.19Zm4.53-.18c.12.37,1.43.73,1.3-.12C102.54,13.64,101.54,13.56,101.47,14Zm12.68.59c.51-.59,2.29,0,2.6-.75C115.56,14,114,12.71,114.15,14.6ZM97.86,15c.22.28.81.19.62.89,1.23-.47,2.46.65,3.93.34-.07.31.35.11.21.5h.6c0-1.7-1.9-1.45-3.24-1.46-.46.71-1.27,0-1.52-.47C98.2,14.77,97.87,14.72,97.86,15ZM118.4,16c.33,0,.87.12.8-.31a1.65,1.65,0,0,0-1.22-.48C117.94,15.69,118.39,15.63,118.4,16Zm-13.88.24h.5A.27.27,0,1,0,104.52,16.27Zm4.73-.08c.13.14.44.09.7.09,0-.17,0-.33,0-.5h-.7Zm-13.47.73c.13,0,.24,0,.21.2.19-.19.84-.38,1,0,0-.34.53-.21.5-.61C96.87,16.27,96.3,16.74,95.78,16.92Zm16.4.43c-.07,0-.11.08-.09.2a3.3,3.3,0,0,0,1.32.88c.15-.38.75-.33,1.3-.32A26,26,0,0,0,112.18,17.35Zm-18.09.71h-.5A.25.25,0,1,0,94.09,18.06Zm22.15,1.43c-.85-.19-1.52,0-1.59.83a12.6,12.6,0,0,0,2.31-.24c.22-1.39,1.94-.74,3.3-1.06.11-.49-.24-.51-.32-.8A6.88,6.88,0,0,0,116.24,19.49Zm-18.49,1c-.15-.38.28-.2.2-.5s-.47-.2-.42-.6c-.71.2-.6-.46-1.31-.28A2,2,0,0,0,97.75,20.51Zm1.3-1c.39,1.37,1.86,1.57,3.54,1.35a5.13,5.13,0,0,0-.13-1.41,2.86,2.86,0,0,0-1.7.23c-.15-.49-1-.28-1.32-.57C99.48,19.38,99.08,19.25,99.05,19.48ZM113.52,19c-.14,1.09-1.77.74-1.78,1.94a2.93,2.93,0,0,0,2.78-2.15C114,18.7,113.88,19,113.52,19Zm-5.93.21c-.28.46-.26,1.92.53,1.9C108,20.32,108.59,19.25,107.59,19.24Zm-4.62.48c0,.4,0,.8,0,1.2.44,0,.53.41,1.11.28a5.61,5.61,0,0,0-.13-1.8C103.46,19.33,103.49,19.79,103,19.72Zm2.33,1.06a2.24,2.24,0,0,0,.18-1.41h-.6A1.55,1.55,0,0,0,105.3,20.78Zm.22.7c.52.45.61,1.35,1.63,1.28a19.74,19.74,0,0,0-.76-3.4h-.31C106,20.12,105.68,20.75,105.52,21.48Zm4.14,1c1.39-.2,1.26-1.88,1.86-2.85,0-.19-.39-.07-.31-.39C109.84,19.53,109.77,21,109.66,22.52ZM95.83,19.94c.26-.06.37,0,.31.3h.4C96.54,19.82,96,19.63,95.83,19.94Zm4.07,2.45c.12-.64-.58-.43-.82-.69A.68.68,0,0,0,99.9,22.39Zm3.52-.17c.34,0,.26.41.61.4s.45-.29.39-.71C103.85,21.94,103.56,21.71,103.42,22.22Zm7.46,1.18c1.06.17,1.31-.44,1.49-1.13-.05-.19-.39-.07-.31-.39C111.2,21.93,111,22.63,110.88,23.4Zm4.81-.88c-1,.08-2.41-.74-2.81.55.94,1.4,3.68,1.09,5.24.41a2.3,2.3,0,0,0,.09-.91C117.45,21.72,116.4,22.46,115.69,22.52Zm-14.57.65c-1.42.28-2.45-.72-3.42-.25a6.19,6.19,0,0,0,1.55,2.79c1.53-.22,2.17.49,3.43.55a3,3,0,0,1,.28-1A7.38,7.38,0,0,0,101.12,23.17Zm19.31.07c.36,1.09,1.83,1,2.25,2.08-.24.33-1.36.32-1.4.52,1,0,3,.43,3-.86-.64-.37-2.22,0-2-1a1.8,1.8,0,0,1,.7-.21c-.2-.57-.78-.76-1-1.29A1.33,1.33,0,0,0,120.43,23.24Zm-2.67,2.36c0,.24,0,.47,0,.7a4,4,0,0,0,1.9-.63A3.51,3.51,0,0,0,117.76,25.6Zm-14.27,1.15c.23.52,1.08.38,1.82.37C105.9,26.14,103.44,25.35,103.49,26.75Zm7.46.88c.92.46,2.21,1.13,2.61-.25-1-.11-1.35-.85-2.33-1C111.18,26.86,110.82,27,111,27.63ZM98.17,27c-.07.31.11.37.11.6.71-.1,1.53.47,1.71-.23C99.73,27,98.72,26.84,98.17,27Zm3.12.35c.44,0,1,.05,1.1-.32C102.14,26.62,101.27,27,101.29,27.39Zm0,1c.57.14.56.85,1.32.79a2.27,2.27,0,0,0,0-1.41,3.9,3.9,0,0,0-1.31-.08C101.3,27.93,101.31,28.16,101.31,28.39Zm2.22.27a1.71,1.71,0,0,0,1.09-.92c-.33,0-.43-.17-.81-.09A1.13,1.13,0,0,0,103.53,28.66Zm10.17.63c.11.22.76-.11.61.39a3.12,3.12,0,0,1,1.72.78,3,3,0,0,1,1.4-.53c.11-.35,0-.87.28-1.11-.36.1-.15-.39-.21-.6a1.43,1.43,0,0,1-.92-.79C115.21,27.6,113.44,27.87,113.7,29.29Zm-17-.92c.28.09.36.39.52.6.87-.14,1.81-.22,2.2-.84C98.49,27.87,97.3,27.66,96.68,28.37ZM119,29.5a2.58,2.58,0,0,1,2.23,1.27c.78-.19.73.48,1.52.27-.15-.44.33-.26.29-.6a1.72,1.72,0,0,0-1.11-.18c0-1.89-1.7-2.07-3.36-2.26C118.26,28.62,118.94,29,119,29.5Zm-25.74.44,1,0c.15-.32,0-.54,0-.9C93.57,29,93.34,29.37,93.29,29.94Zm12.17,0c0-.13,0-.26,0-.4H105C104.86,29.94,105.25,29.85,105.46,29.93Zm1,1c.22,0,0-.43.09-.6-.26.09-.56-.3-.7,0C106.31,30.28,105.93,31.08,106.48,30.92Zm5.64.41c.84.12,1.19-.24,1.91-.24,0-.3-.39-.27-.42-.59A1.75,1.75,0,0,0,112.12,31.33Zm-10.43,1.48c0-.16,0-.33,0-.5h-.3C101.31,32.65,101.59,32.64,101.69,32.81Zm13.68.37c.37,0,.41.33.91.19,0-.19.11-.23.09-.41-.44.16-.31-.28-.7-.18C115.82,33.16,115.22,32.8,115.37,33.18Zm-4.61.89c.5.47.83-.29,1.5-.23,0-.17.32-.65-.11-.6C111.82,33.64,110.92,33.5,110.76,34.07Zm8.34-.55c.5.17,1.17.7,1.71.48C120.41,33.72,119.7,33,119.1,33.52Zm.43,1.5v.51c.53.33.7-.07,1.41,0-.12-.42-.71-.35-1-.58C119.79,35,119.74,35.06,119.53,35Zm-14.47,1.15c.29-.08.27.14.51.1.06-.55-.36-.59-.72-.69C104.73,36,105.19,35.78,105.06,36.17Zm6,.61c.42.21.52.75,1.12.78-.07-.48.19-.66.18-1.31C111.71,36.12,111.26,36.18,111.11,36.78Zm3.52-.16c.56.67,1.71.75,2.73,1,.16-.74-.54-.6-.53-1.19C116.2,36.56,115.21,36.39,114.63,36.62Zm-23.52,1.1c.08,0,.12.08.1.2.6-.13.71-.44,1.21,0,.09-.47-.14-.6-.22-.9C91.45,36.86,91.48,37.48,91.11,37.72Zm22.42-.38c.19.31.76.24.72.79l1.21,0C115.52,37.12,114.18,37.27,113.53,37.34Zm10.77.52c.45-.07,1,.33,1.1-.22a1.75,1.75,0,0,0-1-.29A.66.66,0,0,0,124.3,37.86Z" style="fill:#00aec3;fill-rule:evenodd"/><line x1="0.38" y1="80.91" x2="216.31" y2="80.91" style="fill:#1d1d1b;stroke:#1d1d1b;stroke-width:0.556999981403351px"/><path d="M16.83,64.71c-.35,6.24-3.21,9.71-8.11,9.71C3.14,74.42,0,70.1,0,60.31S3.14,46.2,8.72,46.2s7.84,3.94,7.84,8.41H14.11c0-3.71-1.87-6.34-5.39-6.34-3.9,0-6.27,3.21-6.27,12s2.37,12,6.27,12c3.44,0,5.39-2.94,5.66-7.65" style="fill:#1d1d1b"/><path d="M31.14,67.24c-.35,4.32-2.72,7.18-6.54,7.18-4.29,0-6.81-3-6.81-10.63,0-7,2.52-10.59,7-10.59s6.54,3.1,6.54,9.87v.84H20.23v1c0,5.85,2.07,7.65,4.33,7.65,2.41,0,3.9-1.72,4.28-5.27m0-5.24c-.08-5-1.49-6.89-4.32-6.89S20.31,57,20.23,62Z" style="fill:#1d1d1b"/><path d="M44.1,70.6H44a5,5,0,0,1-5,3.82c-4.47,0-6.5-3.59-6.5-10.63s2-10.59,6.5-10.59a4.52,4.52,0,0,1,4.75,3.52h.07V46.66h2.3V74H44.1m-4.66-1.46c2.33,0,4.43-1.18,4.43-8.72s-2.1-8.68-4.43-8.68S35,56.3,35,63.79,37.14,72.51,39.44,72.51Z" style="fill:#1d1d1b"/><path d="M48.43,59.7c0-4.17,2-6.5,6.27-6.5s5.73,2.18,5.73,5.39v12c0,1.15.39,1.68,1.19,1.68h.65V74a3.18,3.18,0,0,1-1.07.22c-1.8,0-3-.42-3-2.52V71h-.07c-.92,2.68-3,3.45-5.24,3.45-3.56,0-5.16-2.22-5.16-5.74a5.34,5.34,0,0,1,4.09-5.62l4.32-1.23c1.61-.46,2-.84,2-3.21,0-2.6-1.45-3.52-3.52-3.52-2.71,0-3.9,1.65-3.9,4.59m7.42,2.79h-.08c-.23.69-1.53,1.11-2.44,1.34l-1.92.5c-2.29.61-3.48,1.8-3.48,4.2s1.23,4,3.22,4c2.79,0,4.7-2.1,4.7-5.73Z" style="fill:#1d1d1b"/><path d="M63.61,53.66h2.3v3.17H66a5.39,5.39,0,0,1,5.13-3.63,3.21,3.21,0,0,1,.8.11v2.3a5.46,5.46,0,0,0-1.11-.12c-2.52,0-4.89,1.84-4.89,5.78V74h-2.3" style="fill:#1d1d1b"/><path d="M97.65,64.71c-.34,6.24-3.21,9.71-8.11,9.71-5.58,0-8.72-4.32-8.72-14.11S84,46.2,89.54,46.2s7.84,3.94,7.84,8.41H94.94c0-3.71-1.88-6.34-5.4-6.34-3.9,0-6.27,3.21-6.27,12s2.37,12,6.27,12c3.45,0,5.4-2.94,5.66-7.65" style="fill:#1d1d1b"/><path d="M105.76,53.2c4.48,0,7,3.56,7,10.59s-2.52,10.63-7,10.63-7-3.55-7-10.63,2.53-10.59,7-10.59m0,19.31c2.57,0,4.55-2.22,4.55-8.72s-2-8.68-4.55-8.68-4.55,2.22-4.55,8.68S103.2,72.51,105.76,72.51Z" style="fill:#1d1d1b"/><path d="M114.6,53.66h2.3V68c0,3.29,1.1,4.55,3.51,4.55,2.6,0,4.44-2.06,4.44-5.2V53.66h2.29V74h-2.06V71.14H125a5.7,5.7,0,0,1-5.2,3.29c-3.1,0-5.2-1.61-5.2-5.44" style="fill:#1d1d1b"/><path d="M130.05,53.66h2.3v3.17h.07a5.39,5.39,0,0,1,5.13-3.63,3.15,3.15,0,0,1,.8.11v2.3a5.46,5.46,0,0,0-1.11-.12c-2.52,0-4.89,1.84-4.89,5.78V74h-2.3" style="fill:#1d1d1b"/><path d="M142.68,55.57h-2.8V53.66h2.8V48H145v5.62h3.6v1.91H145V70.14c0,1.61.69,2.14,2.18,2.14a4.57,4.57,0,0,0,1.42-.23V74a4,4,0,0,1-1.61.22c-3.1,0-4.28-.84-4.28-3.55" style="fill:#1d1d1b"/><polyline points="171.74 60.35 161.07 60.35 161.07 73.97 158.63 73.97 158.63 46.66 161.07 46.66 161.07 58.29 171.74 58.29 171.74 46.66 174.19 46.66 174.19 73.97 171.74 73.97" style="fill:#1d1d1b"/><path d="M183,53.2c4.48,0,7,3.56,7,10.59s-2.52,10.63-7,10.63-7-3.55-7-10.63,2.53-10.59,7-10.59m0,19.31c2.57,0,4.55-2.22,4.55-8.72s-2-8.68-4.55-8.68-4.55,2.22-4.55,8.68S180.39,72.51,183,72.51Z" style="fill:#1d1d1b"/><path d="M192.63,55.57h-2.79V53.66h2.79V48h2.3v5.62h3.59v1.91h-3.59V70.14c0,1.61.68,2.14,2.18,2.14a4.56,4.56,0,0,0,1.41-.23V74a3.89,3.89,0,0,1-1.6.22c-3.1,0-4.29-.84-4.29-3.55" style="fill:#1d1d1b"/><path d="M212,67.24c-.34,4.32-2.71,7.18-6.54,7.18-4.28,0-6.8-3-6.8-10.63,0-7,2.52-10.59,7-10.59s6.54,3.1,6.54,9.87v.84h-11.1v1c0,5.85,2.07,7.65,4.33,7.65,2.41,0,3.9-1.72,4.28-5.27m0-5.24c-.08-5-1.49-6.89-4.32-6.89S201.16,57,201.08,62Z" style="fill:#1d1d1b"/><rect x="214.4" y="46.66" width="2.29" height="27.31" style="fill:#1d1d1b"/></svg>
