<svg id="logo-bayou" class="logo" xmlns="http://www.w3.org/2000/svg" viewBox="0 0 473 217"><defs><style>.cls-1,.cls-2{fill:#939498;}.cls-1{stroke:#939498;stroke-miterlimit:10;}</style></defs><title>Artboard 1</title><path class="cls-1" d="M211,87.45h22l.21,6.62h-.93c-.46-2.08-1-3.43-1.74-4.06s-2.18-.94-4.44-.94H224V109c0,1.51.24,2.43.71,2.79a6.39,6.39,0,0,0,3.08.71v.73H216.41v-.73c1.65-.12,2.68-.39,3.08-.81s.61-1.46.61-3.14V89.07h-2.18q-3.24,0-4.41.93c-.78.62-1.36,2-1.75,4.07h-1Z"/><path class="cls-1" d="M237.8,112.49a5.09,5.09,0,0,0,2.85-.84c.39-.4.57-1.43.57-3.11V91.67a4.05,4.05,0,0,0-.63-2.72,4.87,4.87,0,0,0-2.79-.78v-.72h10.8v.72a4.85,4.85,0,0,0-2.78.78,4,4,0,0,0-.64,2.72v7.59H257V91.67a4.05,4.05,0,0,0-.63-2.72,4.82,4.82,0,0,0-2.8-.78v-.72h10.8v.72a4.8,4.8,0,0,0-2.78.78,4,4,0,0,0-.64,2.72V109c0,1.42.21,2.32.64,2.72a5,5,0,0,0,2.78.78v.73h-10.8v-.73a5,5,0,0,0,2.87-.83c.37-.4.56-1.44.56-3.12V101H245.18v8c0,1.42.21,2.32.64,2.73a5,5,0,0,0,2.78.77v.73H237.8Z"/><path class="cls-1" d="M268.85,112.49a5.67,5.67,0,0,0,2.78-.76c.43-.36.64-1.27.64-2.74V91.67a4.06,4.06,0,0,0-.63-2.71,4.7,4.7,0,0,0-2.79-.79v-.72h20.69l.13,5.57h-1c-.33-1.71-.82-2.82-1.48-3.33s-2.13-.76-4.41-.76h-5.3c-.58,0-.93.1-1.06.28a1.83,1.83,0,0,0-.2,1v8.69h6c1.66,0,2.72-.25,3.17-.74a6.25,6.25,0,0,0,1.1-3h.92v9h-.92a6.39,6.39,0,0,0-1.12-3c-.45-.49-1.51-.73-3.15-.73h-6v9.64c0,.77.24,1.23.73,1.37a26.26,26.26,0,0,0,4.39.2,14.8,14.8,0,0,0,5.85-.86c1.25-.58,2.38-2,3.38-4.19h1.09l-1.77,6.58h-21Z"/><path class="cls-1" d="M211,158.49a5.49,5.49,0,0,0,3-.73c.46-.39.69-1.32.69-2.77V137.67q0-2.14-.69-2.76a5.3,5.3,0,0,0-3-.74v-.72h10.9a15.4,15.4,0,0,1,7.42,1.51q2.75,1.5,2.74,5.17a4.89,4.89,0,0,1-1.92,4.19,9.18,9.18,0,0,1-3.25,1.35,11.62,11.62,0,0,1,4.59,2.16,5.09,5.09,0,0,1,1.9,4.22,6.25,6.25,0,0,1-4.22,6.27,14.63,14.63,0,0,1-5.47.9H211Zm14.64-14.13a4.11,4.11,0,0,0,2.47-4.09,4.64,4.64,0,0,0-2.85-4.71,13.11,13.11,0,0,0-4.79-.66,3.18,3.18,0,0,0-1.51.21c-.19.14-.28.52-.28,1.14v8.8l3.71-.06A8,8,0,0,0,225.6,144.36Zm1.25,12.29c1.35-.77,2-2.26,2-4.45s-.79-3.67-2.36-4.47a13.2,13.2,0,0,0-6-1.2h-1.13c-.16,0-.4,0-.73,0v9.7c0,.67.19,1.11.57,1.3a7.05,7.05,0,0,0,2.64.3A9.92,9.92,0,0,0,226.85,156.65Z"/><path class="cls-1" d="M237.75,159.22v-.73a3.15,3.15,0,0,0,2.26-1.13,30.79,30.79,0,0,0,2.57-5.25L250.7,133h.77l9.7,22.07a9.46,9.46,0,0,0,1.55,2.71,3.64,3.64,0,0,0,1.95.71v.73h-9.9v-.73a8.44,8.44,0,0,0,2.2-.37c.33-.14.49-.5.49-1.07a4.56,4.56,0,0,0-.19-1,9.79,9.79,0,0,0-.53-1.51l-1.56-3.75H244.92c-1,2.55-1.62,4.11-1.81,4.67a4.22,4.22,0,0,0-.3,1.33,1.37,1.37,0,0,0,.8,1.36,6.23,6.23,0,0,0,1.86.34v.73Zm16.78-10-4.47-10.72-4.48,10.72Z"/><path class="cls-1" d="M274.41,133.45v.72a6.18,6.18,0,0,0-2.05.21,1,1,0,0,0-.69,1.07,2.14,2.14,0,0,0,.12.62,4.62,4.62,0,0,0,.51,1l5.73,8.41,5.59-8.54a3.94,3.94,0,0,0,.45-.91,2.24,2.24,0,0,0,.11-.53,1.1,1.1,0,0,0-.9-1.11,7.54,7.54,0,0,0-1.82-.19v-.72H290v.72a4,4,0,0,0-2.11.71,14.23,14.23,0,0,0-3.25,3.74l-5.75,8.79V155c0,1.51.25,2.45.73,2.82a6.87,6.87,0,0,0,3.29.69v.73H271v-.73c1.76-.1,2.86-.36,3.28-.78s.64-1.49.64-3.18v-6.76l-5.1-7.47a44.78,44.78,0,0,0-3.71-5,3.74,3.74,0,0,0-2.58-1.17v-.72Z"/><path class="cls-1" d="M296.8,136.34a13.08,13.08,0,0,1,17.7,0,14.67,14.67,0,0,1-.13,20.06,12.4,12.4,0,0,1-8.73,3.35,12.17,12.17,0,0,1-9.09-3.71,13.36,13.36,0,0,1-3.67-9.72A13.21,13.21,0,0,1,296.8,136.34Zm2.91,19.08a7.41,7.41,0,0,0,5.94,2.94,7.49,7.49,0,0,0,5.89-2.86q2.44-2.87,2.44-9.16t-2.47-9.2a7.54,7.54,0,0,0-5.86-2.83,7.42,7.42,0,0,0-5.93,2.93c-1.62,2-2.43,5-2.43,9.1S298.1,153.46,299.71,155.42Z"/><path class="cls-1" d="M332.36,133.45v.72a5.41,5.41,0,0,0-2.91.75c-.45.4-.67,1.32-.67,2.75v12.46a11,11,0,0,0,.84,4.77q1.56,3.12,5.91,3.12,4.77,0,6.41-3.2a12.64,12.64,0,0,0,.91-5.51V139.17c0-2.11-.25-3.44-.76-4a4.59,4.59,0,0,0-2.89-1v-.72h9v.72a4.45,4.45,0,0,0-2.95,1.1c-.47.56-.7,1.86-.7,3.9v10.14a13.29,13.29,0,0,1-1.23,6.29q-2.28,4.17-8.67,4.17t-8.6-4.11a11.92,11.92,0,0,1-1.23-5.82V137.67q0-2.13-.66-2.73a5.25,5.25,0,0,0-2.86-.77v-.72Z"/><path class="cls-1" d="M210.71,204.49q2.25-.21,2.79-.87a5.44,5.44,0,0,0,.56-3.08V183.67a4.08,4.08,0,0,0-.62-2.69,4.59,4.59,0,0,0-2.73-.81v-.72h10.78a15.91,15.91,0,0,1,5.61.86,5.92,5.92,0,0,1,4.26,5.94,5.45,5.45,0,0,1-1.89,4.46,10.41,10.41,0,0,1-5.15,2l8,9.88a5.18,5.18,0,0,0,1.48,1.32,4.74,4.74,0,0,0,1.9.53v.73h-6.27l-9.74-12-1.71.09V201c0,1.44.22,2.35.66,2.74a5.42,5.42,0,0,0,2.86.76v.73H210.71ZM224,191a4.72,4.72,0,0,0,3.1-4.78,4.59,4.59,0,0,0-2.78-4.61,9.78,9.78,0,0,0-3.93-.67,4.92,4.92,0,0,0-2,.24c-.25.16-.37.53-.37,1.11v9.59A19.64,19.64,0,0,0,224,191Z"/><path class="cls-1" d="M239.37,204.49a5.75,5.75,0,0,0,2.79-.76c.42-.36.63-1.27.63-2.74V183.67a4.13,4.13,0,0,0-.62-2.71,4.73,4.73,0,0,0-2.8-.79v-.72h20.69l.13,5.57h-1c-.33-1.71-.82-2.82-1.48-3.33s-2.13-.76-4.41-.76H248c-.58,0-.93.1-1.06.28a1.83,1.83,0,0,0-.2,1v8.69h6c1.66,0,2.72-.25,3.17-.74a6.25,6.25,0,0,0,1.1-3H258v9H257a6.39,6.39,0,0,0-1.12-3c-.45-.49-1.51-.73-3.15-.73h-6v9.64c0,.77.24,1.23.73,1.37a26.26,26.26,0,0,0,4.39.2,14.8,14.8,0,0,0,5.85-.86c1.25-.58,2.38-2,3.38-4.19h1.09l-1.77,6.58H239.37Z"/><path class="cls-1" d="M267.92,197.38a14.26,14.26,0,0,0,2.31,4.19,7.28,7.28,0,0,0,5.76,2.71,4.74,4.74,0,0,0,3.21-1.17,4.13,4.13,0,0,0,1.36-3.29,4.59,4.59,0,0,0-1.36-3.31,24.12,24.12,0,0,0-3.76-2.68l-3.32-2.08a11.85,11.85,0,0,1-2.4-1.92,6,6,0,0,1-1.65-4.07,6.62,6.62,0,0,1,2-4.9,7,7,0,0,1,5.19-2,9.9,9.9,0,0,1,3.2.66,14.16,14.16,0,0,0,2.14.65,1.22,1.22,0,0,0,1-.34,2.5,2.5,0,0,0,.43-1h.8l.85,8.29h-.93q-.94-3.75-3-5.23a7.19,7.19,0,0,0-4.16-1.48,4.33,4.33,0,0,0-2.78.94,3.16,3.16,0,0,0-1.19,2.61,3.79,3.79,0,0,0,.91,2.57,11.69,11.69,0,0,0,2.83,2.26l3.42,2.11a17.75,17.75,0,0,1,4.53,3.64,6.27,6.27,0,0,1,1.3,3.95,6.58,6.58,0,0,1-2.31,5.12,8.6,8.6,0,0,1-5.91,2,11.38,11.38,0,0,1-3.77-.69,15.11,15.11,0,0,0-2.25-.68,1,1,0,0,0-.93.42,2.62,2.62,0,0,0-.31.89h-.86L267,197.38Z"/><path class="cls-1" d="M290.38,204.49a6.46,6.46,0,0,0,3.08-.71c.47-.36.7-1.28.7-2.79V183.67c0-1.43-.23-2.35-.7-2.76a5.48,5.48,0,0,0-3.08-.74v-.72H301.9v.72a5.48,5.48,0,0,0-3.08.74c-.47.41-.7,1.33-.7,2.76V201c0,1.51.23,2.43.7,2.79a6.46,6.46,0,0,0,3.08.71v.73H290.38Z"/><path class="cls-1" d="M306,204.49a5.74,5.74,0,0,0,2.78-.76c.43-.36.65-1.27.65-2.74V183.67a4,4,0,0,0-.63-2.74,4.93,4.93,0,0,0-2.8-.76v-.72h10.5a20.64,20.64,0,0,1,9,1.75q6.63,3.13,6.62,11.22a13.13,13.13,0,0,1-1.19,5.53,11.26,11.26,0,0,1-3.58,4.43,12.14,12.14,0,0,1-3.16,1.73,21.16,21.16,0,0,1-7.34,1.11H306Zm7.85-1a4,4,0,0,0,1.93.3,14.13,14.13,0,0,0,7.51-1.81q4.51-2.78,4.52-9.49,0-6-3.72-9a13,13,0,0,0-8.46-2.59,3.78,3.78,0,0,0-1.78.28c-.31.19-.47.61-.47,1.26v19.81A1.43,1.43,0,0,0,313.88,203.47Z"/><path class="cls-1" d="M336.65,204.49a5.75,5.75,0,0,0,2.79-.76c.42-.36.64-1.27.64-2.74V183.67a4.06,4.06,0,0,0-.63-2.71,4.73,4.73,0,0,0-2.8-.79v-.72h20.69l.13,5.57h-1c-.33-1.71-.82-2.82-1.48-3.33s-2.13-.76-4.41-.76h-5.3c-.57,0-.93.1-1.06.28a1.92,1.92,0,0,0-.2,1v8.69h6c1.66,0,2.72-.25,3.17-.74a6.34,6.34,0,0,0,1.11-3h.91v9h-.91a6.5,6.5,0,0,0-1.12-3c-.46-.49-1.51-.73-3.16-.73h-6v9.64c0,.77.24,1.23.73,1.37a26.26,26.26,0,0,0,4.39.2,14.8,14.8,0,0,0,5.85-.86c1.25-.58,2.38-2,3.39-4.19h1.08l-1.77,6.58H336.65Z"/><path class="cls-1" d="M363.13,204.49c1.61-.16,2.64-.53,3.1-1.09s.68-1.87.68-3.92V182.32l-.53-.63a4.3,4.3,0,0,0-1.46-1.24,5.65,5.65,0,0,0-1.79-.28v-.72h6.64l15,18.63V185.14c0-2.13-.31-3.51-.95-4.15a4.78,4.78,0,0,0-2.77-.82v-.72h9.14v.72a4.55,4.55,0,0,0-3,1.09c-.5.57-.75,1.87-.75,3.91v20.5h-.66l-17.23-21.35v15.16c0,2.13.31,3.51.93,4.16a4.76,4.76,0,0,0,2.72.85v.73h-9.14Z"/><path class="cls-1" d="M412.25,179.62a21,21,0,0,0,2.49.63,2,2,0,0,0,1-.3,1.63,1.63,0,0,0,.69-.95h.82l.36,8.74h-.9a12.65,12.65,0,0,0-2-4.2,7.83,7.83,0,0,0-6.45-3,8.17,8.17,0,0,0-6.68,3.23Q399,187,399,192.67a12.18,12.18,0,0,0,2.73,8.32,8.79,8.79,0,0,0,6.91,3.1,11.15,11.15,0,0,0,5.58-1.44,17.33,17.33,0,0,0,3.21-2.47l.72.72a13.73,13.73,0,0,1-20.27.95,13.17,13.17,0,0,1-3.4-9.26,13.52,13.52,0,0,1,3.59-9.55,12.86,12.86,0,0,1,9.85-4A15.91,15.91,0,0,1,412.25,179.62Z"/><path class="cls-1" d="M422.6,204.49a5.67,5.67,0,0,0,2.78-.76c.43-.36.64-1.27.64-2.74V183.67a4.06,4.06,0,0,0-.63-2.71,4.72,4.72,0,0,0-2.79-.79v-.72h20.68l.14,5.57h-1a5.61,5.61,0,0,0-1.48-3.33c-.66-.5-2.13-.76-4.42-.76h-5.3c-.57,0-.92.1-1.06.28a1.92,1.92,0,0,0-.2,1v8.69h6c1.66,0,2.72-.25,3.18-.74a6.47,6.47,0,0,0,1.1-3h.91v9h-.91a6.39,6.39,0,0,0-1.12-3c-.46-.49-1.51-.73-3.16-.73h-6v9.64c0,.77.25,1.23.74,1.37a26.26,26.26,0,0,0,4.39.2,14.71,14.71,0,0,0,5.84-.86c1.26-.58,2.39-2,3.39-4.19h1.08l-1.76,6.58h-21Z"/><path class="cls-1" d="M451.14,197.38a14,14,0,0,0,2.32,4.19,7.25,7.25,0,0,0,5.75,2.71,4.77,4.77,0,0,0,3.22-1.17,4.16,4.16,0,0,0,1.36-3.29,4.6,4.6,0,0,0-1.37-3.31,23.62,23.62,0,0,0-3.76-2.68l-3.32-2.08a11.49,11.49,0,0,1-2.39-1.92,6,6,0,0,1-1.66-4.07,6.66,6.66,0,0,1,2-4.9,7,7,0,0,1,5.19-2,10,10,0,0,1,3.21.66,14.16,14.16,0,0,0,2.14.65,1.23,1.23,0,0,0,1-.34,2.5,2.5,0,0,0,.42-1h.8l.86,8.29h-.93c-.64-2.5-1.65-4.24-3.06-5.23a7.16,7.16,0,0,0-4.15-1.48,4.38,4.38,0,0,0-2.79.94,3.15,3.15,0,0,0-1.18,2.61,3.79,3.79,0,0,0,.91,2.57,11.5,11.5,0,0,0,2.83,2.26l3.42,2.11a17.49,17.49,0,0,1,4.52,3.64,6.21,6.21,0,0,1,1.3,3.95,6.58,6.58,0,0,1-2.31,5.12,8.6,8.6,0,0,1-5.9,2,11.44,11.44,0,0,1-3.78-.69,14.74,14.74,0,0,0-2.25-.68,1,1,0,0,0-.92.42,2.88,2.88,0,0,0-.32.89h-.85l-1.16-8.29Z"/><polygon class="cls-2" points="106.19 206.06 93.63 206.06 93.63 11.95 99.91 5.95 106.19 11.95 106.19 206.06"/><polygon class="cls-2" points="74.06 206.06 61.5 206.06 61.5 34.97 74.06 21.96 74.06 206.06"/><polygon class="cls-2" points="70.63 206.06 8.02 206.06 8.02 86.01 49.06 50.55 49.24 68.53 20.59 93.02 20.59 192.84 64.62 193.3 70.63 206.06"/><polygon class="cls-2" points="47.33 177.56 34.76 177.56 34.76 97.54 47.33 85.53 47.33 177.56"/><polygon class="cls-2" points="125.95 206.06 138.52 206.06 138.52 34.97 125.95 21.96 125.95 206.06"/><polygon class="cls-2" points="129.39 206.06 192 206.06 192 86.01 150.96 50.55 150.78 68.53 179.43 93.02 179.43 192.84 135.4 193.3 129.39 206.06"/><polygon class="cls-2" points="152.69 177.56 165.26 177.56 165.26 97.54 152.69 85.53 152.69 177.56"/></svg>