<svg id="crowne-logo" class="logo" xmlns="http://www.w3.org/2000/svg" xmlns:xlink="http://www.w3.org/1999/xlink" viewBox="0 0 425 241"><defs><style>.cls-1{fill:none;}.cls-2{fill:#9f0067;}.cls-3{fill:#fff;}.cls-4{clip-path:url(#clip-path-2);}.cls-5{fill:#9f0067;}</style><clipPath id="clip-path"><rect class="cls-1" y="-0.2" width="425.28" height="241.2"/></clipPath><clipPath id="clip-path-2"><path class="cls-1" d="M321.24,206.78v1.77h-9.35v-16h8.45v1.78h-6.4v5.27h5.32v1.78h-5.32v5.35h7.3m-11.8-11.53a8.11,8.11,0,0,0-4.08-1.07,6.43,6.43,0,1,0,0,12.85,8.06,8.06,0,0,0,4.18-1l-.2,1.83a8.46,8.46,0,0,1-4.18.82,8.13,8.13,0,1,1,0-16.25,9.67,9.67,0,0,1,4.67,1.05Zm-19.3,2.95c-.25-.62-.53-1.45-.75-2.2h-.05a20,20,0,0,1-.78,2.2l-1.75,4.4h5.08Zm4.22,10.35-1.77-4.3h-6.48l-1.75,4.3h-2L289,192.38h.75l6.68,16.17Zm-21.67,0v-16h2.05v14.18H282v1.77Zm-7.93-10.35c-.25-.62-.52-1.45-.75-2.2H264a20.08,20.08,0,0,1-.77,2.2l-1.75,4.4h5.07ZM269,208.55l-1.78-4.3h-6.47l-1.75,4.3h-2l6.68-16.17h.75l6.67,16.17Zm-16.3-14.17h-2.48v5.32h2.5a2.69,2.69,0,0,0,3-2.65A2.73,2.73,0,0,0,252.69,194.38Zm.37,7h-2.85v7.15h-2v-16H253a4.41,4.41,0,1,1,0,8.8Zm-11.3,5.38v1.77h-9.35v-16h8.45v1.78h-6.4v5.27h5.33v1.78h-5.33v5.35Zm-19.82,1.77v-16H224v14.18h7.22v1.77Zm-13.58-7.75h6.25v1.65h-6.25Zm-11.1-6.72c-1.82,0-2.85,1.12-2.85,2.32s.88,2.1,2.73,2.75c2.77,1,4.55,2.25,4.55,5s-1.95,4.55-5.23,4.55a7.43,7.43,0,0,1-4.12-1.15l-.25-2.08a7.24,7.24,0,0,0,4.45,1.53c1.87,0,3.2-1.08,3.2-2.68s-.93-2.47-3-3.2c-2.8-.95-4.2-2.32-4.2-4.55,0-2.07,1.55-4.1,4.77-4.1a6.44,6.44,0,0,1,3.38.9l-.4,1.65A5.75,5.75,0,0,0,197.26,194.08Zm-15.12,14.47v-16h2.05v14.18h7.22v1.77Zm-1.2-1.77v1.77h-9.35v-16H180v1.78h-6.4v5.27H179v1.78h-5.32v5.35Zm-15.85-12.7c-1.83,0-2.85,1.12-2.85,2.32s.88,2.1,2.72,2.75c2.78,1,4.55,2.25,4.55,5s-1.94,4.55-5.22,4.55a7.44,7.44,0,0,1-4.13-1.15l-.25-2.08a7.25,7.25,0,0,0,4.46,1.53c1.87,0,3.2-1.08,3.2-2.68s-.93-2.47-3-3.2c-2.81-.95-4.2-2.32-4.2-4.55,0-2.07,1.54-4.1,4.77-4.1a6.37,6.37,0,0,1,3.37.9l-.39,1.65A5.78,5.78,0,0,0,165.09,194.08Zm-11,0c-1.83,0-2.86,1.12-2.86,2.32s.88,2.1,2.73,2.75c2.77,1,4.55,2.25,4.55,5s-1.95,4.55-5.22,4.55a7.44,7.44,0,0,1-4.13-1.15l-.25-2.08a7.24,7.24,0,0,0,4.45,1.53c1.87,0,3.2-1.08,3.2-2.68s-.93-2.47-3-3.2c-2.8-.95-4.2-2.32-4.2-4.55,0-2.07,1.55-4.1,4.77-4.1a6.44,6.44,0,0,1,3.38.9l-.4,1.65A5.74,5.74,0,0,0,154.12,194.08Zm-13.73,14.75c-3.7,0-6.38-2.18-6.38-5.85V192.6h2.06v10.18c0,2.57,1.5,4.22,4.32,4.22s4.35-1.65,4.35-4.22V192.6h2V203C146.74,206.65,144.09,208.83,140.39,208.83ZM126,194.38h-2.22v5.32h2.25a2.69,2.69,0,0,0,3-2.65A2.73,2.73,0,0,0,126,194.38Zm2.12,6.7,5.53,7.47h-2.55L126,201.4h-2.17v7.15h-2v-16h4.6a4.47,4.47,0,0,1,4.75,4.4A4.2,4.2,0,0,1,128.16,201.08Zm-14-.43h-2.57v6.2h2.65c1.83,0,3.48-1,3.48-3.1S116,200.65,114.11,200.65Zm-.65-6.35h-1.92V199h1.95a2.34,2.34,0,0,0,2.63-2.32A2.38,2.38,0,0,0,113.46,194.3Zm6.26,9.45a4.84,4.84,0,0,1-5.13,4.8h-5v-16h4.18a4.16,4.16,0,0,1,4.4,4.08,3.1,3.1,0,0,1-1.63,2.87A4.41,4.41,0,0,1,119.72,203.75Z"/></clipPath></defs><title>Artboard 1</title><g class="cls-2"><path d="M215.91,84.79c-16,0-28.54-1.51-40.62-5.62A49.18,49.18,0,0,1,160,71.29,25.9,25.9,0,0,1,157,68.43c-5.37-6-5.19-13,.45-18.72,4.16-4.27,9.32-7,14.78-9.11a98.32,98.32,0,0,1,23.91-5.77A132.62,132.62,0,0,1,218.74,34c11.75.52,23.27,2.33,34.29,6.66a42.23,42.23,0,0,1,13.73,8.15A15.62,15.62,0,0,1,271.82,57c.82,3.93-.43,7.34-2.84,10.39a31.39,31.39,0,0,1-10.77,8.24A80.49,80.49,0,0,1,236,82.74,117.45,117.45,0,0,1,215.91,84.79Zm-3.31-1.88c4.54-.33,9.09-.55,13.62-1a81.17,81.17,0,0,0,22.17-5.3c4.89-2,9.51-4.39,13.21-8.25,2.67-2.79,4.45-6,4.07-10-.35-3.66-2.35-6.49-5-8.91A38.61,38.61,0,0,0,248.11,42C238.26,38.09,228,36.51,217.44,36a112.83,112.83,0,0,0-20.21.9,81.5,81.5,0,0,0-22.6,6,33.57,33.57,0,0,0-11.2,7.46c-2.79,3-4.57,6.37-3.88,10.62a14.19,14.19,0,0,0,4.76,8.12c4.29,4,9.47,6.48,14.93,8.39C190,81.32,201.2,82.71,212.6,82.91Z" style="fill: #850053;"/><path d="M127.55,101.89c1.93,0,3.57,0,5.2,0,.3,0,.71.66.81,1.07,1.25,5.36,2.45,10.74,3.67,16.11a61.44,61.44,0,0,0,1.71,6.44c.33-1.31.68-2.61,1-3.92,1.47-6.13,3-12.25,4.4-18.39.24-1,.65-1.44,1.75-1.39,2.65.12,2-.31,2.65,2.17,1.63,6.83,3.21,13.67,4.82,20.5a1.69,1.69,0,0,0,.51.91c.49-2.11,1-4.22,1.47-6.33,1.23-5.33,2.46-10.65,3.64-16,.21-1,.59-1.37,1.6-1.25a25.44,25.44,0,0,0,2.64,0c-.13.69-.2,1.23-.33,1.76-2.54,10.26-5.11,20.52-7.6,30.79-.27,1.1-.67,1.48-1.82,1.42-2.21-.1-2.2,0-2.68-2.1q-2.51-10.72-5-21.45c-.06-.25-.18-.49-.4-1.09-2,8.42-4,16.48-6,24.56h-3.65Z"/><path d="M94.35,119a25.15,25.15,0,0,1,2-9.6c2.71-5.87,7.64-8.21,12.57-7.91,6.17.38,10.11,3.79,11.73,9.89a26.34,26.34,0,0,1-.51,15.81c-3.25,9.19-12,10.79-17.84,7.94-3.92-1.91-6-5.33-7-9.4C94.83,123.5,94.67,121.22,94.35,119Zm6.28-.12c.12,1.6.16,3.2.37,4.78a13.34,13.34,0,0,0,2.78,7.27,5.41,5.41,0,0,0,8.62-.09,12.73,12.73,0,0,0,2.07-4.13,31.94,31.94,0,0,0,.64-13.06,14.21,14.21,0,0,0-2-6.2,5.7,5.7,0,0,0-9.52-.34,11.51,11.51,0,0,0-1.61,3A26.36,26.36,0,0,0,100.63,118.85Z"/><path d="M195.77,135.83a30.23,30.23,0,0,1-3.18,0c-.37,0-.77-.5-1-.86q-7-10.71-13.89-21.43a3.94,3.94,0,0,0-1.13-1.25v23.53h-4.05c0-.42-.09-.84-.09-1.25,0-10.45,0-20.89,0-31.33,0-1.08.32-1.46,1.37-1.32a4.31,4.31,0,0,0,1.19,0,1.8,1.8,0,0,1,1.92,1.07q7,10.85,14,21.65c.21.33.44.64.88,1.28V102h4Z"/><path d="M71.71,135.76H66.3c0-.4-.09-.82-.09-1.23,0-10.44,0-20.88,0-31.32,0-1.06.29-1.38,1.35-1.34,3.55.1,7.12,0,10.67.2,4.66.24,7.52,2.76,8.27,7a9.08,9.08,0,0,1-5.39,9.75c-.76.35-1.54.61-2.46,1l11,16c-2.2,0-4.18,0-6.15,0-.32,0-.71-.45-.92-.78-2.8-4.38-5.57-8.77-8.35-13.16-.17-.27-.28-.66-.53-.78a4.4,4.4,0,0,0-1.58-.45c-.12,0-.39.7-.39,1.07,0,4.24,0,8.48,0,12.72Zm0-30.39c0,3.92,0,7.7,0,11.48a.87.87,0,0,0,.64.6,28.18,28.18,0,0,0,4.51-.32,4.28,4.28,0,0,0,3.49-3.4,13.07,13.07,0,0,0,.3-3.89c-.24-2.88-1.55-4.19-4.36-4.45C74.87,105.26,73.39,105.37,71.72,105.37Z"/><path d="M250.42,102.07c.09,0,.16-.12.23-.12,4.63.06,9.3-.26,13.87.29,6.22.73,9.12,7,6.39,12.84a9.64,9.64,0,0,1-8,5.59,53,53,0,0,1-5.5.25c-.47,0-.94,0-1.55,0v14.8h-5.48Zm5.52,15.45c1.85-.09,3.6-.1,5.34-.28a4.56,4.56,0,0,0,4.3-4.14,15.73,15.73,0,0,0,.05-4.17,3.35,3.35,0,0,0-2.68-3.18c-2.29-.37-4.63-.4-7-.58Z"/><path d="M358.81,135.77H335.13a6.65,6.65,0,0,1,.74-4.27c5-8.22,9.9-16.51,14.83-24.78.2-.34.38-.69.7-1.25H336.14V102c.35,0,.74-.08,1.12-.08,6.48,0,13,0,19.43,0,1,0,1.32.27,1.31,1.28a5.63,5.63,0,0,1-.86,3q-7.39,12.33-14.73,24.7c-.2.33-.36.68-.66,1.25h1.45c4.8,0,9.6,0,14.39,0,.94,0,1.32.25,1.24,1.21C358.76,134.1,358.81,134.9,358.81,135.77Z"/><path d="M391.13,135.83c-1.85,0-3.6,0-5.35,0-.3,0-.72-.53-.85-.9-1-3-2-6-3-9.1a1.29,1.29,0,0,0-1.52-1.09c-2.4.06-4.8,0-7.2,0a1.15,1.15,0,0,0-1.35,1c-.9,3-1.92,6-2.83,9-.26.86-.66,1.24-1.59,1.15s-1.83,0-2.85,0a6.11,6.11,0,0,1,.19-.87c3.59-10.62,7.21-21.24,10.76-31.87a1.54,1.54,0,0,1,1.81-1.22c2.19.06,2.21,0,2.89,2q5.33,15.51,10.62,31C391,135.18,391,135.45,391.13,135.83Zm-14.05-25.52-.31,0c-1.16,3.65-2.33,7.31-3.53,11.07h7.31Z"/><path d="M302.62,135.83l5.6-16.53c1.82-5.37,3.67-10.73,5.44-16.11.33-1,.79-1.48,1.85-1.31a4.82,4.82,0,0,0,1.2,0,1.1,1.1,0,0,1,1.3.89q5.52,16.28,11.12,32.52a3.37,3.37,0,0,1,.07.44h-5.89c-1.05-3.23-2.15-6.48-3.15-9.76a1.52,1.52,0,0,0-1.77-1.28c-2.23.09-4.48.1-6.71,0-1.11,0-1.52.36-1.81,1.36-.86,3-1.85,5.87-2.75,8.8-.22.71-.54,1.06-1.34,1C304.79,135.78,303.79,135.83,302.62,135.83Zm16.08-14.34-3.52-11.19-.28,0c-1.17,3.65-2.33,7.3-3.52,11a4.49,4.49,0,0,0,.71.14C314.2,121.5,316.31,121.49,318.7,121.49Z"/><path d="M212.63,105.47v11.06h1.9c2.8,0,5.6,0,8.4,0,.7,0,1,.19,1,.94s0,1.58,0,2.49H212.68v12.18h2.48c2.88,0,5.76,0,8.63,0,.83,0,1.17.24,1.11,1.09s0,1.65,0,2.55H207V102c.36,0,.78-.09,1.19-.09,5.08,0,10.16,0,15.24,0,1.09,0,1.36.35,1.32,1.38-.09,2.48.3,2.14-2.18,2.16-2.84,0-5.68,0-8.52,0C213.61,105.4,213.15,105.45,212.63,105.47Z"/><path d="M56.47,103.31l-1.3,3c-1.64-.42-3.19-.92-4.77-1.2a7,7,0,0,0-6.58,2.37,13,13,0,0,0-3.19,7.11,23,23,0,0,0,1.15,12.83,8.18,8.18,0,0,0,5.53,5.23,8.06,8.06,0,0,0,5.48-.66c.69-.3,1.35-.67,2.15-1.08l1.64,3a15.16,15.16,0,0,1-7.29,2.39c-7,.36-11.88-2.94-14-9.68A22.64,22.64,0,0,1,36.33,109C40.69,100.3,50.64,100.12,56.47,103.31Z" style="/*! fill: #6c6e70; */"/><path d="M279.46,101.9c1.64,0,3.27,0,4.89,0,.18,0,.44.39.51.64a4.22,4.22,0,0,1,0,1.07c0,9,0,18.07,0,27.1,0,1.24.37,1.57,1.57,1.53,3-.07,6,0,9,0,.43,0,.86,0,1.35.07v3.4H279.46Z" style="/*! fill: #6c6e70; */"/><path d="M207.08,157.52l-2.42,2.23c-2.73-1.95-5.16-2.16-7-.64a5.91,5.91,0,0,0-1.4,6.7,4.72,4.72,0,0,0,5,2.9,4.08,4.08,0,0,0,3.89-3.54h-4.73v-3.32h8.47a8.15,8.15,0,0,1-5.16,9.77,8.73,8.73,0,0,1-10.79-4c-2-4.07-.73-9.26,2.82-11.53S204.5,154.4,207.08,157.52Z" style="fill: #6c6e70;"/><path d="M184.32,165.17h-7.21v6.49h-3.48V155.19h3.45c0,1.8,0,3.58,0,5.37,0,.94.26,1.26,1.22,1.23,2-.06,4,0,6.06,0v-6.59H188c0,.38.07.77.07,1.16,0,4.72,0,9.44,0,14.16,0,1-.31,1.36-1.3,1.27-.75-.07-1.5,0-2.44,0Z" style="fill: #6c6e70;"/><path d="M142.77,157.94v13.72H141V155.29c2-.54,2.43-.38,3.45,1.34q3.18,5.42,6.38,10.83c.21.36.45.71.88,1.37V155.18h1.79v16.39c-1.83.47-2.09.37-2.94-1.08l-6.87-11.66c-.19-.33-.42-.65-.63-1Z" style="fill: #6c6e70;"/><path d="M258,163.44c0,4.95-3.41,8.55-8.09,8.56a8.26,8.26,0,0,1-8.33-8.63c.09-5,3.48-8.52,8.28-8.51S258,158.4,258,163.44Zm-2,0h-.07c0-.36,0-.72,0-1.07a6.14,6.14,0,0,0-5.15-5.9c-3.45-.34-6,1.24-6.75,4.49a11.26,11.26,0,0,0-.05,4.59,6.06,6.06,0,0,0,6,4.86,5.87,5.87,0,0,0,5.77-4.95A19.36,19.36,0,0,0,256,163.45Z" style="fill: #6c6e70;"/><path d="M234.5,171.6v-7.28h-6c-2.87,0-2.87,0-2.87,2.9,0,1,0,2,0,3,0,1.69-.08,1.75-1.84,1.37V155.17h1.85c0,2,.06,4,0,6-.05,1.16.33,1.51,1.48,1.47,2.43-.09,4.86,0,7.42,0v-7.44h2v15C236.52,171.92,236.47,172,234.5,171.6Z" style="fill: #6c6e70;"/><path d="M130.5,155.15q2.77,8.22,5.55,16.41c-1.71.41-1.81.37-2.3-1-.3-.87-.62-1.73-.87-2.61a1.1,1.1,0,0,0-1.25-1c-1.72.06-3.44.06-5.16,0-.76,0-1,.31-1.25,1-.26.88-.67,1.72-.86,2.61-.27,1.27-1,1.45-2.21,1.09.88-2.55,1.74-5.06,2.6-7.58s1.75-4.88,2.48-7.37c.37-1.25,1-1.8,2.26-1.57A7.73,7.73,0,0,0,130.5,155.15Zm-1.28,1.95-.32,0-2.77,8.26h5.79c-.14-.49-.23-.87-.36-1.24C130.79,161.75,130,159.42,129.22,157.1Z" style="fill: #6c6e70;"/><path d="M287.68,170.22v1.54h-9.12c-.56,0-1,0-1-.8q0-7.74,0-15.47a1.49,1.49,0,0,1,.12-.31h9.52v1.4h-7.64c0,1.88,0,3.58,0,5.28,0,.18.56.48.87.49,1.71,0,3.43,0,5.25,0,0,.53,0,1,.07,1.59-1.64,0-3.23.07-4.8,0-1.16-.06-1.56.31-1.47,1.48a30.62,30.62,0,0,1,0,3.71c0,.83.24,1.13,1.08,1.11C282.94,170.19,285.26,170.22,287.68,170.22Z" style="fill: #6c6e70;"/><path d="M165,155.14h3.52c0,.38.09.72.09,1.07,0,4.78,0,9.57,0,14.36,0,1-.31,1.24-1.24,1.21-2.85-.09-2.38.35-2.4-2.41,0-4.27,0-8.54,0-12.81Z" style="fill: #6c6e70;"/><path d="M267.83,171.56c-1.92.44-2.05.35-2.05-1.35V156.66H261v-1.49h11.54v1.42h-4.7Z" style="fill: #6c6e70;"/><path d="M293.56,155.17h1.82v15H303v1.55c-3,0-6,0-9,0-.2,0-.57-.45-.57-.7,0-5.19,0-10.38,0-15.58A1.52,1.52,0,0,1,293.56,155.17Z" style="fill: #6c6e70;"/><path d="M387.39,105.75a3.85,3.85,0,0,1,3.9-3.86,3.89,3.89,0,1,1-.06,7.77A3.82,3.82,0,0,1,387.39,105.75Zm3.82-3.35a3.42,3.42,0,0,0-3.39,3.34,3.58,3.58,0,0,0,3.42,3.5,3.47,3.47,0,0,0,3.41-3.48A3.32,3.32,0,0,0,391.21,102.4Z" style="/*! fill: black; */"/><path d="M216.2,158.33a2.86,2.86,0,0,1-3,2.92,2.94,2.94,0,0,1,0-5.88A2.88,2.88,0,0,1,216.2,158.33Zm-.42,0a2.49,2.49,0,0,0-2.45-2.57,2.53,2.53,0,0,0-.1,5.06A2.52,2.52,0,0,0,215.78,158.35Z" style="fill: #6c6e70;"/><path class="cls-3" d="M212.6,82.91c-11.4-.2-22.57-1.59-33.36-5.36-5.46-1.91-10.64-4.38-14.93-8.39A14.19,14.19,0,0,1,159.55,61c-.69-4.25,1.09-7.64,3.88-10.62A33.57,33.57,0,0,1,174.63,43a81.5,81.5,0,0,1,22.6-6,112.83,112.83,0,0,1,20.21-.9c10.51.47,20.82,2.05,30.67,5.93a38.61,38.61,0,0,1,12.6,7.47c2.61,2.42,4.61,5.25,5,8.91.38,4-1.4,7.21-4.07,10-3.7,3.86-8.32,6.29-13.21,8.25a81.17,81.17,0,0,1-22.17,5.3C221.69,82.36,217.14,82.58,212.6,82.91ZM189.18,47.42l-.05.21a9.65,9.65,0,0,0,1,.59c4,2,8,4.06,12.08,5.81a42,42,0,0,0,8,2.4c2.65.55,4.76-.34,5.57-2.89a4,4,0,0,1,3.41-2.87,19.57,19.57,0,0,1,5.92.11c5.14,1,9.75,3.48,14.26,6.06.37.21.74.39,1.2.63.44-1.45.79-2.76,1.23-4a1.07,1.07,0,0,0-.64-1.53c-3.59-1.71-7.11-3.63-10.8-5.11a26.63,26.63,0,0,0-7-1.53,5.58,5.58,0,0,0-6.1,3.29c-1,2.29-2.14,3.21-4.64,2.85a32.81,32.81,0,0,1-7.83-2c-4.81-2-9.47-4.35-14.15-6.54l3.5,4.59Zm48.66,19.15c.34-1.13.68-2.4,1.12-3.63.31-.85.2-1.38-.69-1.79s-1.94-1.1-2.93-1.62c-4.19-2.18-8.45-4.18-13.19-4.86-3.53-.5-6.92.33-8.11,4a3.22,3.22,0,0,1-2.2,1.77,9.93,9.93,0,0,1-4.7-.12c-4-1.36-8-3-11.9-4.65-2.51-1.07-4.89-2.44-7.66-3.84l3.8,4.88h-5a1.84,1.84,0,0,0,.82.76c4.09,2,8.15,4,12.29,5.93a24.84,24.84,0,0,0,8.59,2.43c2.42.17,3.76-.59,4.71-2.8a5.38,5.38,0,0,1,4.73-3.34,18,18,0,0,1,8.87,1.59C230.24,62.91,234,64.76,237.84,66.57ZM183.58,66A83.53,83.53,0,0,0,201,74.29a22.63,22.63,0,0,0,5.64.77,3,3,0,0,0,3.1-2c1.1-3.38,4.18-4.37,7.41-4a34.75,34.75,0,0,1,11.65,3.84c2.07,1,4.08,2.14,6.21,3.27.45-1.51.91-3,1.28-4.41a1.07,1.07,0,0,0-.41-.93c-5-3-10.18-5.69-16-6.68-3.55-.6-7.28-.13-8.66,4a3.47,3.47,0,0,1-2.35,1.75,11.26,11.26,0,0,1-4.25-.09c-4.62-1-8.78-3.12-13-5.14-2.21-1.06-4.37-2.23-6.81-3.48L188.58,66Z"/><path class="cls-3" d="M100.63,118.85a26.36,26.36,0,0,1,1.32-8.73,11.51,11.51,0,0,1,1.61-3,5.7,5.7,0,0,1,9.52.34,14.21,14.21,0,0,1,2,6.2,31.94,31.94,0,0,1-.64,13.06,12.73,12.73,0,0,1-2.07,4.13,5.41,5.41,0,0,1-8.62.09,13.34,13.34,0,0,1-2.78-7.27C100.79,122.05,100.75,120.45,100.63,118.85Z"/><path class="cls-3" d="M71.72,105.37c1.67,0,3.15-.11,4.61,0,2.81.26,4.12,1.57,4.36,4.45a13.07,13.07,0,0,1-.3,3.89,4.28,4.28,0,0,1-3.49,3.4,28.18,28.18,0,0,1-4.51.32.87.87,0,0,1-.64-.6C71.71,113.07,71.72,109.29,71.72,105.37Z"/><path class="cls-3" d="M255.94,117.52V105.17c2.38.18,4.72.21,7,.58a3.35,3.35,0,0,1,2.68,3.18,15.73,15.73,0,0,1-.05,4.17,4.56,4.56,0,0,1-4.3,4.14C259.54,117.42,257.79,117.43,255.94,117.52Z"/><path class="cls-3" d="M377.08,110.31l3.47,11.12h-7.31c1.2-3.76,2.37-7.42,3.53-11.07Z"/><path class="cls-3" d="M318.7,121.49c-2.39,0-4.5,0-6.61,0a4.49,4.49,0,0,1-.71-.14c1.19-3.73,2.35-7.38,3.52-11l.28,0Z"/><path class="cls-3" d="M256,163.45a19.36,19.36,0,0,1-.25,2,5.87,5.87,0,0,1-5.77,4.95,6.06,6.06,0,0,1-6-4.86A11.26,11.26,0,0,1,244,161c.74-3.25,3.3-4.83,6.75-4.49a6.14,6.14,0,0,1,5.15,5.9c0,.35,0,.71,0,1.07Z"/><path class="cls-3" d="M129.22,157.1c.78,2.32,1.57,4.65,2.34,7,.13.37.22.75.36,1.24h-5.79l2.77-8.26Z"/><path class="cls-3" d="M391.21,102.4a3.32,3.32,0,0,1,3.44,3.36,3.47,3.47,0,0,1-3.41,3.48,3.58,3.58,0,0,1-3.42-3.5A3.42,3.42,0,0,1,391.21,102.4Zm1.36,5.47.38-.14-.35-1.57c.11-.73.42-1.4.21-1.77a2.1,2.1,0,0,0-1.47-.67c-1.59-.13-1.6-.08-1.6,1.49,0,.68,0,1.36,0,2a2.11,2.11,0,0,0,.26.63l.26,0c.09-.54.18-1.09.26-1.6C392,105.82,392.24,106.92,392.57,107.87Z"/><path class="cls-3" d="M215.78,158.35a2.52,2.52,0,0,1-2.55,2.49,2.53,2.53,0,0,1,.1-5.06A2.49,2.49,0,0,1,215.78,158.35Zm-1.64,1.33.16-.16a6.16,6.16,0,0,1-.23-1.1c0-.43.22-1.16.08-1.23a6,6,0,0,0-1.66-.37v3.07l.68-1.26Z" style="/*! fill: #6c6e70; */"/><path d="M189.18,47.42h4.94l-3.5-4.59c4.68,2.19,9.34,4.55,14.15,6.54a32.81,32.81,0,0,0,7.83,2c2.5.36,3.63-.56,4.64-2.85a5.58,5.58,0,0,1,6.1-3.29,26.63,26.63,0,0,1,7,1.53c3.69,1.48,7.21,3.4,10.8,5.11a1.07,1.07,0,0,1,.64,1.53c-.44,1.28-.79,2.59-1.23,4-.46-.24-.83-.42-1.2-.63-4.51-2.58-9.12-5-14.26-6.06a19.57,19.57,0,0,0-5.92-.11,4,4,0,0,0-3.41,2.87c-.81,2.55-2.92,3.44-5.57,2.89a42,42,0,0,1-8-2.4c-4.1-1.75-8.06-3.85-12.08-5.81a9.65,9.65,0,0,1-1-.59Z" style="/*! fill: #6c6e70; */"/><path d="M237.84,66.57c-3.89-1.81-7.6-3.66-11.42-5.27a18,18,0,0,0-8.87-1.59,5.38,5.38,0,0,0-4.73,3.34c-.95,2.21-2.29,3-4.71,2.8a24.84,24.84,0,0,1-8.59-2.43c-4.14-1.9-8.2-3.94-12.29-5.93a1.84,1.84,0,0,1-.82-.76h5l-3.8-4.88c2.77,1.4,5.15,2.77,7.66,3.84,3.91,1.68,7.87,3.29,11.9,4.65a9.93,9.93,0,0,0,4.7.12,3.22,3.22,0,0,0,2.2-1.77c1.19-3.69,4.58-4.52,8.11-4,4.74.68,9,2.68,13.19,4.86,1,.52,1.92,1.15,2.93,1.62s1,.94.69,1.79C238.52,64.17,238.18,65.44,237.84,66.57Z" style="/*! fill: #6c6e70; */"/><path d="M183.58,66h5l-3.78-4.89c2.44,1.25,4.6,2.42,6.81,3.48,4.21,2,8.37,4.19,13,5.14a11.26,11.26,0,0,0,4.25.09,3.47,3.47,0,0,0,2.35-1.75c1.38-4.15,5.11-4.62,8.66-4,5.86,1,11,3.73,16,6.68a1.07,1.07,0,0,1,.41.93c-.37,1.46-.83,2.9-1.28,4.41-2.13-1.13-4.14-2.26-6.21-3.27A34.75,34.75,0,0,0,217.17,69c-3.23-.34-6.31.65-7.41,4a3,3,0,0,1-3.1,2,22.63,22.63,0,0,1-5.64-.77A83.53,83.53,0,0,1,183.58,66Z" style="/*! fill: #6c6e70; */"/><path d="M392.57,107.87c-.33-1-.55-2.05-2-1.63-.08.51-.17,1.06-.26,1.6l-.26,0a2.11,2.11,0,0,1-.26-.63c0-.68,0-1.36,0-2,0-1.57,0-1.62,1.6-1.49a2.1,2.1,0,0,1,1.47.67c.21.37-.1,1-.21,1.77l.35,1.57Zm-2.05-3.74v1.57c.75-.07,1.74.26,1.68-.84S391.2,104.19,390.52,104.13Z" style="/*! fill: black; */"/><path d="M214.14,159.68l-1-1.05-.68,1.26v-3.07a6,6,0,0,1,1.66.37c.14.07-.1.8-.08,1.23a6.16,6.16,0,0,0,.23,1.1Z" style="fill: #6c6e70;"/><path class="cls-3" d="M390.52,104.13c.68.06,1.63-.34,1.68.73s-.93.77-1.68.84Z"/></g><g class="cls-4"><g class="cls-5"><path d="M322.08,209.56H108.72v-18H322.08Z"/></g></g></svg>