<svg xmlns="http://www.w3.org/2000/svg" id="ruby-logo" class="logo" viewBox="0 0 786.13 387.49"><path d="M507.22 271.43H514v12.93h8v-12.93h6.82v33.83H522v-15h-8v15h-6.82zM547.93 270.76c10.24 0 11.52 7.3 11.52 17.58s-1.28 17.59-11.52 17.59-11.52-7.3-11.52-17.59 1.28-17.58 11.52-17.58zm0 30.14c4 0 4.69-3.46 4.69-12.56s-.66-12.55-4.69-12.55-4.69 3.5-4.69 12.55.66 12.56 4.69 12.56zM572.53 294.7v1c0 3.18.9 5.21 4.5 5.21a3.9 3.9 0 0 0 4.08-4.17c0-3.08-1.57-4.21-6.07-5.78-6.07-2.08-8.86-4.6-8.86-10.24 0-6.58 4-9.95 10.47-9.95 6.07 0 10.48 2.61 10.48 9.1v.95h-6.55c0-3.18-1.09-5-3.69-5-3.08 0-3.89 1.94-3.89 3.93s.62 3.36 3.51 4.6l5.26 2.27c5.12 2.23 6.45 4.84 6.45 9 0 7.16-4.37 10.38-11.76 10.38-7.72 0-10.76-3.6-10.76-9.86v-1.44zM595.18 271.43h12c6.92 0 9.29 5.07 9.29 10.14 0 7-4.32 10.19-10.76 10.19H602v13.5h-6.83zm6.83 15.3h3c2.7 0 4.55-1.61 4.55-5.07s-1.33-5.21-4.74-5.21H602zM623.67 305.26v-33.83h6.82v33.83zM658.93 271.43V277h-7.4v28.24h-6.82V277h-7.4v-5.59zM669.4 271.43h8.44l8.95 33.83h-7.1l-1.57-7.15h-9l-1.57 7.15h-7.11zm.9 21.09h6.64l-3.27-15.22h-.1zM692.72 305.26v-33.83h6.82v28.24h12.09v5.59zM718.55 305.26v-33.83h6.82v33.83zM753.81 271.43V277h-7.39v28.24h-6.83V277h-7.39v-5.59zM765.75 271.43l4.46 13.08h.09l4.7-13.08h7.4L773.67 292v13.31h-6.83V292l-8.76-20.52z" fill="#ffffff"/><path d="M274.9 23.38q16.68 10.94 24.33 27.28a59 59 0 0 1 4.86 34.58A93.69 93.69 0 0 1 287.93 125a174 174 0 0 1-28.67 31.1 325.74 325.74 0 0 1-27.8 21.37q-14.43 9.9-29.54 18.77-19.8 11.64-40.14 22.76-8.85 4.88-17.72 9.73a5.52 5.52 0 0 1-.87.7 11 11 0 0 1-2.43 1q-5 1.74-6.95 4.95a15 15 0 0 0-2 7.47 65.9 65.9 0 0 0 .43 8.78 3.45 3.45 0 0 0 2.44 3.12 34.68 34.68 0 0 0 5 1.4q11.46 2.43 22.93 4.69 19.11 4 38.4 8 21.21 4.35 42.4 8.86 12.86 2.79 25.89 5.56c2.43.58 4.81 1.05 7.13 1.39l8 1.74a28.31 28.31 0 0 1 5.91 1.74 5.23 5.23 0 0 1 1.47 1.3 2.55 2.55 0 0 1 .44 2 1.57 1.57 0 0 1-.78 1.3 3.4 3.4 0 0 1-1.31.26 18.55 18.55 0 0 1-5-.35q-10.95-1.9-21.89-3.64-18.24-2.79-36.49-6.61-29.38-6.2-58.78-12.28-6.25-1.2-12.69-2.6-9.37-2.08-19.11-3.65-4.17-.87-4.17 3.65c-.12 2.08-.17 4.11-.17 6.08v3.13q-.53 50.73-1.05 101.65v1.21c0 1.28 0 2.55-.17 3.83-.23 3.12-2 4.46-5.21 4s-5.21-2.2-5.56-5.21a19.55 19.55 0 0 1-.18-4.52v-.52q-.17-26.76-.52-52.65-.34-26.24-.34-53.34v-2.61a28.42 28.42 0 0 1 0-4.52 5.63 5.63 0 0 0-3.65-5.73 9.16 9.16 0 0 0-.87-.35 38.46 38.46 0 0 1-5.74-2.95q-8.16-5.38-3.82-13a24.53 24.53 0 0 1 8.69-8.52 9 9 0 0 0 4.43-4.52 18 18 0 0 0 1.13-6.77q-.18-44.13 0-88.27v-22.8c0-2.67.06-5.27.17-7.82q.53-4.87 6.43-4 5.73.69 5.91 5.91v8.16q.16 24.17.17 48.14 0 23.8.18 47.61v.34c0 2.67 0 5.28.17 7.82s1.56 3.36 4 2.44a25.08 25.08 0 0 0 2.43-1.22h.17q21.6-11.51 42.7-23.81t41.1-26.41a290.07 290.07 0 0 0 26.23-20.59 166.89 166.89 0 0 0 22.77-24.59 94.4 94.4 0 0 0 16.16-32.31 63.5 63.5 0 0 0 1.73-24.8q-2.77-19.81-18.59-33.54a64.77 64.77 0 0 0-16.16-10.25q-31.8-14.99-63.68-15.34a172.77 172.77 0 0 0-61.34 10.34 206.48 206.48 0 0 0-54 29.1 214.52 214.52 0 0 0-41.83 41.18 97.71 97.71 0 0 0-11.81 17 102.94 102.94 0 0 0-6.17 11.82 46.13 46.13 0 0 0-3.56 13.2 3 3 0 0 1-1.31 2.49 4.18 4.18 0 0 1-2.69.52 11.5 11.5 0 0 1-4-.7A5.7 5.7 0 0 1 0 126.24a25.61 25.61 0 0 1 1.91-10.6 104.92 104.92 0 0 1 19.65-33.53 242.28 242.28 0 0 1 46.74-42 238.31 238.31 0 0 1 58.47-29.53A194.18 194.18 0 0 1 192 0q33.71.26 67.07 14.68a111 111 0 0 1 15.83 8.7z" fill="#ffffff"/><path d="M326.51 216.42q1.73.18-.61 4.78a53.24 53.24 0 0 1-7.64 10.6 59.41 59.41 0 0 1-11.91 10.34 21.68 21.68 0 0 1-13.2 4c-3.25-.35-5.65-1.33-7.21-3a12.92 12.92 0 0 1-3.22-5.38 25.37 25.37 0 0 1-1-5.22 11.92 11.92 0 0 0-.44-2.34c-.17-.52-.49-.55-.95-.09q-5 11.64-17.55 11.64-7 0-11.3-6.17a33.43 33.43 0 0 1-5.48-15.42 44.76 44.76 0 0 1 1.83-18.85 6 6 0 0 1 8.42-4.17 3.68 3.68 0 0 1 2.52 3.13 24.42 24.42 0 0 1-.35 4.16c-.23 1-.4 2-.52 3a91.5 91.5 0 0 0 .18 12.51 24.51 24.51 0 0 0 3.65 11.64c2 2.55 4.17 2.87 6.6 1s4.57-4.9 6.43-8.95a65.18 65.18 0 0 0 3.3-9.65 68.76 68.76 0 0 0 1.56-7.38 5.78 5.78 0 0 0 .35-1.39c.35-1.39.7-2.72 1-4q.87-3 1.74-5.73 1.56-5.39 7.65-4.52 3.64.35 4 3.65a80.18 80.18 0 0 1 .18 9q-.18 4.68-.52 9.2-.36 6.61-.53 13-.17 9.38 3.74 10.94t9.56-2a49 49 0 0 0 10.86-9.65 16.7 16.7 0 0 0 1.21-1.39c.7-.93 1.54-1.94 2.52-3a35.26 35.26 0 0 1 2.87-2.87 5.8 5.8 0 0 1 2.26-1.42z" fill="#ffffff"/><path d="M375.51 227a72.7 72.7 0 0 1-5.21 8.69q-6.62 7.81-15.3 9.64a26.61 26.61 0 0 1-15.63-.95.55.55 0 0 0-.35-.17 13.78 13.78 0 0 0-3.48-1.22 5.37 5.37 0 0 0-3.65.69 4.11 4.11 0 0 1-2.43.35h-.52q-6.26 0-6.43-6.25t-.17-12.34q-.18-7.47-.52-14.77-1.05-28.32-.52-56.82t1.56-57c.11-1.85.17-3.71.17-5.56a153.41 153.41 0 0 1 1.48-16A137.6 137.6 0 0 1 328.25 57q2.43-8.78 5.9-13a13.55 13.55 0 0 1 7.91-5.73 15.91 15.91 0 0 1 9.3.35 13.64 13.64 0 0 1 6.95 5q5.2 8.16 5.56 23.19a185.76 185.76 0 0 1-2.61 33.45q-3 18.42-7.65 36.93t-9.73 33.62a213.39 213.39 0 0 1-9 23.46 46.14 46.14 0 0 1 11.21-5 25.1 25.1 0 0 1 9.81-.18q18.94 2.45 22.07 21.2v1.57a5.47 5.47 0 0 1 .18 1.39 32.2 32.2 0 0 0 .78 4.17q.42 1.56 8.86-1t12.34-5.91q3.9-3.39 4.95-2.86 4 4.33-6.43 11.29a61.32 61.32 0 0 1-23.14 8.06zm-42.05-48.13q.69-.52 4.17-13.73T345 132.5q3.92-19.45 6.26-39t.78-32.93A50.08 50.08 0 0 0 349.79 49q-1.56-4.44-3.65-3t-4.34 11.26q-3.48 14.74-4.95 40.23t-2.17 50.13q-.52 18.93-1.22 31.27zm31.28 36.84a20.17 20.17 0 0 0-3-11.64 15.72 15.72 0 0 0-8.34-7.3q-5-1.74-9.73 3.48-3.48 4.51-4.6 12.07a87.89 87.89 0 0 0-1 15.2 88.75 88.75 0 0 1 11.55-5.29 50.07 50.07 0 0 1 12.08-2.87 3.06 3.06 0 0 0 2.17-1.22 3.87 3.87 0 0 0 .87-2.41zm-17.55 19.81c-.47 1.51-.09 2.29 1.13 2.34a10.7 10.7 0 0 0 4.69-1.21 18 18 0 0 0 5-3.39 5.44 5.44 0 0 0 2-4.35c0-.11-.08-.23-.26-.34a.82.82 0 0 0-.43-.18 10.73 10.73 0 0 0-5.74 1.22 23.87 23.87 0 0 0-4.86 3.47 6.62 6.62 0 0 0-1.53 2.46z" fill="#ffffff"/><path d="M487.58 216.25c1.85.12 2.17 1 1 2.78a45.06 45.06 0 0 1-6.17 6.6q-4.35 4-9.38 8.34-6.78 5.75-10.95 9.91a28 28 0 0 0-7.56 11 34.63 34.63 0 0 0-2.87 13v7.47q.18 8.87 0 21.29t-1.39 25.71a141.56 141.56 0 0 1-4.43 24.93q-3.21 11.64-9.12 19a20.64 20.64 0 0 1-15.12 8.08q-17.55.53-24.15-14.59a52.24 52.24 0 0 1-3.44-26.06 88.27 88.27 0 0 1 7.48-26.06 158.7 158.7 0 0 1 13.11-23.37 177.47 177.47 0 0 1 13.73-17.9 126.09 126.09 0 0 1 9.21-9.64 36.11 36.11 0 0 0 1.39-9.21q.17-5.22 0-10.08a24.38 24.38 0 0 1-.17-2.78 22.9 22.9 0 0 1-7.21 7.56 16.26 16.26 0 0 1-7.48 2.34 46.21 46.21 0 0 1-7-.17h-.7a17.14 17.14 0 0 1-12.08-7.21 33 33 0 0 1-5.73-14.08 30.1 30.1 0 0 1 .7-14.16q2-6.25 7.21-7.3a19.74 19.74 0 0 1 4.69-.52 11.81 11.81 0 0 1 4.34.7 1.93 1.93 0 0 1 1.22 2.6 70 70 0 0 0-1.83 14 43.39 43.39 0 0 0 1.31 13.12q1.56 5.57 5.56 6t10.6-7.22a24.18 24.18 0 0 0 4.34-8.25 68.2 68.2 0 0 0 1.91-9.12c.12-1.16.29-2.32.52-3.48a35.09 35.09 0 0 1 .53-3.47c.11-1.51.28-3 .52-4.52a6.86 6.86 0 0 1 4.08-5 8 8 0 0 1 6.86.35 4.18 4.18 0 0 1 2.26 3.13c.23 2.66.35 5.33.35 8q-.18 14.07-.17 34.58.17-.17 3.47-3 4.17-3.81 10.6-9.21t12.16-9.64q5.73-4.28 7.8-4.45zm-51.43 80.28c0-1.28.06-2.61.17-4q.18-7.47.52-15.12a1.91 1.91 0 0 0-.26-.86 1.47 1.47 0 0 0-.6-.7c-.58-.46-1.08-.55-1.48-.26a8.68 8.68 0 0 0-1.13 1 152.41 152.41 0 0 0-13.73 21.28 122.81 122.81 0 0 0-10.08 24.76 76.3 76.3 0 0 0-2.95 25.2 28.16 28.16 0 0 0 4.87 14.07q5.2 7.13 9.12 5.13c2.61-1.34 4.8-4.64 6.6-9.91a115.5 115.5 0 0 0 4.43-18.59q1.74-10.68 2.7-20.94t1.47-17c.12-1.59.2-2.91.35-4.06z" fill="#ffffff"/></svg>