<svg xmlns="http://www.w3.org/2000/svg" class="icons icon-checkin" id="icon-checkin" viewBox="0 0 385 361"><path d="M375,146,210,6c-10-9-26-9-36,0L10,146a28,28,0,0,0-3,39,28,28,0,0,0,29,9V340a20,20,0,0,0,20,20h93a8,8,0,0,0,8-8V222h71V353a8,8,0,0,0,8,8h93a20,20,0,0,0,20-20V194a28,28,0,0,0,29-9,28,28,0,0,0-3-39Zm-9,29a13,13,0,0,1-17,1l-3-2a8,8,0,0,0-13,6V340a5,5,0,0,1-5,5H243V215a8,8,0,0,0-8-8H149a8,8,0,0,0-8,8V345H56a5,5,0,0,1-5-5V180a8,8,0,0,0-13-6l-3,2a13,13,0,0,1-17-1,12,12,0,0,1,1-17L184,18a13,13,0,0,1,16,0L365,157a12,12,0,0,1,1,17Z" fill="#fff"/></svg>