<svg xmlns="http://www.w3.org/2000/svg" id="hotele-logo" class="logo" viewBox="0 0 443.25 257.96"><path d="M35.74 188.34v42.77h-4.46v-19.73H4.52v19.73H0v-42.77h4.52v19.07h26.76v-19.07zM55.06 209.73c0-12.47 9.53-21.75 22.48-21.75S100 197.2 100 209.73s-9.59 21.75-22.43 21.75-22.51-9.29-22.51-21.75zm40.39 0c0-10.21-7.64-17.72-17.91-17.72s-18 7.51-18 17.72 7.7 17.71 18 17.71 17.91-7.51 17.91-17.71zM122.71 192.25h-15v-3.91h34.58v3.91h-15v38.86h-4.52zM184.61 227.2v3.91h-30.24v-42.77h29.32v3.91h-24.8v15.22H181v3.85h-22.11v15.88zM204.42 188.34h4.52v38.86h23.95v3.91h-28.47z" fill="#53575a"/><path d="M287.85 54.23C302.91 93.1 283 137 239.37 144.51c-29.87 5.14-57.81-14.39-69.92-40.59-17.66-38.23 7.49-83.25 48.49-90.29 29.87-5.14 57.8 14.4 69.91 40.6.14.32 2.3-.91 2.06-1.43-15.58-33.71-56.83-52.89-91.23-34-31.47 17.22-44.3 53-31.28 86.59 13.47 34.78 58.32 52.06 91.23 34 31.47-17.22 44.29-53 31.28-86.59-.11-.28-2.28.87-2.06 1.43z" fill="#b4a269"/><path d="M293.43 54.18c15.26 39.35-5.36 83.45-49.39 91-29.91 5.14-57.9-14.36-70-40.62-17.88-38.69 8.08-83.91 49.4-91 29.91-5.15 57.89 14.36 70 40.62.08.15 1.15-.46 1-.72C279 20.05 238 .52 203.69 19.28c-31.21 17.08-43.57 52.82-30.71 86 13.36 34.47 58 52.12 90.77 34.18 31.22-17.08 43.58-52.82 30.71-86-.05-.14-1.13.44-1.03.72z" fill="#b4a269"/><path d="M294.88 101.05c-18.67 42.29-68.7 61.13-108.82 32.78-27.45-19.4-34-56.62-23-86.66 16.14-43.84 71.16-59.42 108.83-32.79 27.45 19.41 34 56.63 23 86.67-.13.36 2.52 1.09 2.74.5 14.21-38.65-3.1-86-44.85-98.26-38.18-11.18-76.31 6.85-92.43 43.38-16.7 37.84 4.91 86.56 44.84 98.24 38.18 11.18 76.31-6.84 92.44-43.36.12-.31-2.48-1.11-2.75-.5z" fill="#b4a269"/><path d="M299.3 105.38c-18.9 42.83-69.65 61.24-110.11 32.64-27.48-19.42-34.13-56.67-23.06-86.76 16.32-44.38 72.14-59.49 110.11-32.64 27.48 19.43 34.13 56.67 23.06 86.76-.07.19 1.26.55 1.37.26 14.09-38.31-2.81-85.84-44.38-98C218.43-3.45 180.7 14.89 164.76 51c-16.55 37.5 4.62 86.35 44.38 98 37.87 11.08 75.59-7.26 91.53-43.36.06-.16-1.23-.56-1.37-.26z" fill="#b4a269"/><path d="M418.73 122.23c20.87 53.85-6.68 114.68-67.16 125.07-41.38 7.11-80.08-20-96.86-56.24C230.25 138.11 265.09 75.74 321.88 66c41.38-7.12 80.08 20 96.85 56.25.2.44 3.18-1.26 2.86-2C400 73.55 342.86 47 295.2 73.08c-43.59 23.86-61.36 73.46-43.34 120 18.67 48.17 80.79 72.12 126.39 47.17 43.6-23.86 61.36-73.46 43.34-120-.15-.38-3.16 1.2-2.86 1.98z" fill="#b4a269"/><path d="M426.47 122.15C447.6 176.68 419 237.76 358 248.24c-41.44 7.12-80.21-19.9-97-56.27-24.77-53.61 11.19-116.25 68.43-126.09 41.44-7.13 80.2 19.91 97 56.27.1.22 1.59-.63 1.43-1-21.39-46.29-78.3-73.35-125.75-47.36C258.91 97.47 241.78 147 259.6 193c18.5 47.75 80.35 72.21 125.75 47.36 43.24-23.66 60.36-73.18 42.55-119.15-.08-.21-1.58.56-1.43.94z" fill="#b4a269"/><path d="M428.46 187.09c-25.85 58.59-95.16 84.68-150.74 45.41-38-26.88-47.15-78.44-31.84-120.06C268.22 51.72 344.44 30.13 396.63 67c38 26.89 47.15 78.45 31.83 120.07-.17.5 3.49 1.5 3.8.69C452 134.24 428 68.59 370.13 51.66c-52.88-15.49-105.71 9.49-128 60.1-23.14 52.42 6.8 119.91 62.12 136.1 52.89 15.48 105.71-9.49 128.05-60.08.14-.43-3.46-1.53-3.84-.69z" fill="#b4a269"/><path d="M434.59 193.09c-26.17 59.33-96.48 84.83-152.53 45.22-38.08-26.91-47.28-78.5-31.95-120.2 22.61-61.48 99.94-82.41 152.54-45.22 38.07 26.92 47.29 78.51 31.94 120.2-.09.26 1.75.76 1.9.35C456 140.38 432.59 74.53 375 57.68c-52.44-15.36-104.7 10.05-126.79 60.08-22.93 52 6.4 119.63 61.48 135.75 52.46 15.36 104.72-10 126.8-60.07.09-.21-1.71-.77-1.9-.35z" fill="#b4a269"/><path d="M367.66 190.19h-74.58c1.36 18.65 15.59 31 35.09 31 10.85 0 20.51-3.9 27.29-11.7l6.78 7.8c-8 9.49-20.34 14.57-34.41 14.57-27.8 0-46.78-19-46.78-45.42s18.47-45.26 43.56-45.26 43.22 18.47 43.22 45.26c0 1.04-.17 2.4-.17 3.75zm-74.58-9h63.23c-1.53-17.46-14.24-29.66-31.7-29.66-17.29.02-30 12.22-31.53 29.68z" fill="#53575a"/></svg>