<svg id="silver-collection-logo" class="logo" xmlns="http://www.w3.org/2000/svg" viewBox="0 0 288 97.2"><path fill="#006580"  d="M62.91,91.38c-.24,0-.48,0-.72,0h-56c-.75,0-.75,0-.75-.86,0-23.16,0-60.76,0-83.93,0-.8-.08-.71.61-.71H62.91Z"/><path fill="#ffd040"  d="M23.09,48.05a18.11,18.11,0,0,1-5.53-13.63,26.13,26.13,0,0,1,1.15-7.92A17.67,17.67,0,0,1,22,20.38a15.43,15.43,0,0,1,5.15-4A15.14,15.14,0,0,1,33.77,15a15.25,15.25,0,0,1,7.87,1.75A16.59,16.59,0,0,1,46,20.33q4,5.07,4,14.09v4.33H46.66V34.42q0-8.1-3.23-12c-2.14-2.76-5.37-4.14-9.66-4.14A11.4,11.4,0,0,0,24,23.1q-3.23,4.32-3.22,11.32a15.34,15.34,0,0,0,1.33,6.72,15.57,15.57,0,0,0,3.22,4.56,16.2,16.2,0,0,0,3.92,2.81c1.35.67,2.45,1.19,3.31,1.56l1.57.74q1.19.46,2.94,1.29a13.55,13.55,0,0,1,6.26,6.21,12.58,12.58,0,0,1,1.2,5.76q0,6.34-2.86,9.85a9.65,9.65,0,0,1-7.91,3.5q-5.45,0-8-3.23Q23,70.79,23,63.61V59.28h3.23v4.33q0,6,2.11,8.56A5.28,5.28,0,0,0,30,73.5a7.88,7.88,0,0,0,3.78.69,6.73,6.73,0,0,0,4-1A7.28,7.28,0,0,0,40,70.56a9.88,9.88,0,0,0,1-3.32,24,24,0,0,0,.23-3.17,9.94,9.94,0,0,0-.73-4,8.75,8.75,0,0,0-1.94-2.81,11.71,11.71,0,0,0-2.67-1.94c-1-.52-2-1-2.94-1.42l-1.66-.74c-1-.43-2.22-1-3.73-1.79A19.15,19.15,0,0,1,23.09,48.05Zm21.17,2.48A17.54,17.54,0,0,1,50,64.07q0,7.82-3.87,13a14.76,14.76,0,0,1-12.33,5.8q-8.1,0-12.25-5.25-4-4.87-4-14V59.28h3.23v4.33q0,7.92,3.22,12t9.76,4a13.11,13.11,0,0,0,5.52-1.15A10.39,10.39,0,0,0,43.43,75a14.39,14.39,0,0,0,2.4-4.83,21.61,21.61,0,0,0,.83-6.12,14.64,14.64,0,0,0-1.38-6.68A15.76,15.76,0,0,0,42,52.93a16.28,16.28,0,0,0-3.87-2.72c-1.32-.64-2.38-1.12-3.18-1.43l-1.47-.64c-.86-.37-1.89-.86-3.08-1.47A14.54,14.54,0,0,1,27,44.13a14,14,0,0,1-2.8-4A13,13,0,0,1,23,34.42a22.43,22.43,0,0,1,.56-4.88A14,14,0,0,1,25.39,25a10.52,10.52,0,0,1,3.36-3.31,9.3,9.3,0,0,1,5-1.29q5.34,0,8,3.31,2.76,3.5,2.76,10.68v4.33H41.22V34.42a19.29,19.29,0,0,0-.78-6.17,6.92,6.92,0,0,0-2-3.17A5,5,0,0,0,36,23.93a15.07,15.07,0,0,0-2.21-.19A6.12,6.12,0,0,0,29.62,25a8.67,8.67,0,0,0-2.25,3.08,12.08,12.08,0,0,0-1,3.59c-.12,1.2-.18,2.11-.18,2.72a10.33,10.33,0,0,0,.73,4.1,9.71,9.71,0,0,0,1.94,2.94,11.93,11.93,0,0,0,2.71,2.12,22.64,22.64,0,0,0,3.18,1.52l1.47.65c.86.36,2,.9,3.55,1.61A16.81,16.81,0,0,1,44.26,50.53Z"/><path fill="#006580"  d="M125.22,91.38c-.24,0-.48,0-.72,0h-56c-.74,0-.74,0-.74-.86V6.56c0-.8-.08-.71.61-.71h56.89Z"/><path fill="#ffd040"  d="M110.36,38.66V34.33q0-7.92-3.13-12-3.32-4-9.67-4.05T87.9,22.36q-3.23,4.23-3.22,12V63.51a23.36,23.36,0,0,0,1.19,8.15,13,13,0,0,0,3,4.93A9.88,9.88,0,0,0,93.05,79a16.72,16.72,0,0,0,4.51.65A16.17,16.17,0,0,0,102,79a9.93,9.93,0,0,0,4.1-2.39,13.15,13.15,0,0,0,3-4.93,23.59,23.59,0,0,0,1.19-8.15V59.1h3.32v4.41q0,8.94-4,13.91a17.1,17.1,0,0,1-4.33,3.63,14.59,14.59,0,0,1-7.83,1.8,17.29,17.29,0,0,1-4.41-.51,16.16,16.16,0,0,1-3.46-1.29,11.46,11.46,0,0,1-2.57-1.75,16.33,16.33,0,0,1-1.8-1.88q-3.87-4.78-3.87-13.91V34.33q0-9,3.87-13.9a15.6,15.6,0,0,1,1.8-1.89,11.46,11.46,0,0,1,2.57-1.75A16.86,16.86,0,0,1,97.56,15a14.59,14.59,0,0,1,7.83,1.8,17.32,17.32,0,0,1,4.33,3.64q4,5,4,13.9v4.33ZM97.56,20.43q10.68,0,10.69,13.9v4.33h-3.32V34.33a18.78,18.78,0,0,0-.78-6.12,7.16,7.16,0,0,0-1.94-3.13,4.74,4.74,0,0,0-2.44-1.15,15,15,0,0,0-2.21-.19,14.62,14.62,0,0,0-2.25.19,5,5,0,0,0-2.44,1.15,6.93,6.93,0,0,0-2,3.13,18.78,18.78,0,0,0-.78,6.12V63.51c0,4,.7,6.85,2.11,8.57a4.66,4.66,0,0,0,1.66,1.42,7.62,7.62,0,0,0,3.68.69,7.34,7.34,0,0,0,3.64-.69,5.72,5.72,0,0,0,1.7-1.42c1.35-1.72,2-4.57,2-8.57V59.1h3.32v4.41q0,13.91-10.69,13.91T86.89,63.51V34.33Q86.89,20.42,97.56,20.43Z"/><path fill="#006580"  d="M187.58,91.38c-.24,0-.48,0-.72,0H130.81c-.74,0-.74,0-.74-.86V6.56c0-.8-.08-.71.62-.71h56.89Z"/><path fill="#ffd040"  d="M147,50V82.76h-3.22V14.9H147V50Zm2.21-35.08h3.22V44.55h13.08V14.9h3.31V47.77H149.24Zm19.61,67.86h-3.31V53.2H152.46V82.76h-3.22V50h19.61ZM171,14.9h3.31V82.76H171V14.9Z"/><path fill="#006580"  d="M192.39,31.82h89.79c.39,0,.39,0,.39.39V77.48c0,.36,0,.32-.32.32H192.39Z"/><path fill="#ffd040"  d="M192.35,19.42h89.86c.39,0,.39,0,.39.38V51c0,.35,0,.31-.32.31H192.35Z"/><rect fill="#006580"  x="194.79" y="21.87" width="85.37" height="26.98"/><path fill="#ffd040"  d="M267,34.43l-.16.52s3.13,4,5.56,7.89l1.17,1.57a4.68,4.68,0,0,0,2.66,1.53,8.05,8.05,0,0,0,1.49,0s.45-.11.33-.39c0,0,.08-.05-.69-.61a8.59,8.59,0,0,1-1.12-1.09l-6-8.68s4.35-.53,5.32-4.57c0,0,.93-3.43-2-5.13,0,0-.75-.58-3.11-.63h-9.42v.9s2.14-.16,2.11,1V43.9s0,1-2.07.92v1H268v-1s-1.95.22-2.05-.92V26.69s.22-.82,3-.78c0,0,4.1.13,4,3.71C273,29.62,273.65,35.07,267,34.43Z"/><path fill="#ffd040"  d="M227,24.85v1s1.36-.17,1.67.54L237.06,46h1.59l8.4-19.62a.9.9,0,0,1,1.19-.25s.33,0,.28,1V44.43l-1.16.69v.69h13s.21-3.56.31-4.21h-.75s-.19,0-.75,2.33a4.43,4.43,0,0,1-2.17.43h-5.92V35.71H256s.62.06.6-.7a.63.63,0,0,0-.65-.69h-4.77V26.26s5.85-.43,7.32.57c0,0,.21,0,.26,1.78h.74a24.31,24.31,0,0,1,.53-3.76H242.88v1s2-.07,1.93.72l-6.16,15.61-6.5-15.39s-.59-.93,1.71-.84h.31v-1.1Z"/><path fill="#ffd040"  d="M211.5,24.75h6.81v1s-1.91-.16-2,.79V43.73s-.15,1.12,2,1.1v.87h-6.8v-.87s2,0,2-1.12V26.48s.09-.71-2-.82Z"/><path fill="#ffd040"  d="M219.48,24.75h6.16v1s-1.77-.21-1.84.84V44.33h5.83s1.67-.17,1.84-.69c0,0,.3-2.07.66-2.26h.66a27.24,27.24,0,0,0-.25,4.33H220.29v-.65l.94-.68V26.61s.13-1-1.75-.95Z"/><path fill="#ffd040"  d="M209.42,29.75h-.94l-.07-2.45s0-.57-1.54-1.2a4.79,4.79,0,0,0-4.83.34s-2.53,1.48-1.09,5.25a3.57,3.57,0,0,0,3,1.65s4,.42,5.34,1.56c0,0,2.21,1.6,1.54,5.24a7,7,0,0,1-2.4,4.14,7.82,7.82,0,0,1-4.23,1.88,11.38,11.38,0,0,1-6-1l.13-4.7h.9s.12,2.19.17,2.38c0,0,.47,1.88,4.68,1.95,0,0,4.3.12,4.55-4.74,0,0,.19-2.68-2.19-3.42,0,0-1.08-.24-1.56-.31a23.42,23.42,0,0,1-2.41-.5,5.74,5.74,0,0,1-3.52-2.4,6.73,6.73,0,0,1-.25-5.19,5.72,5.72,0,0,1,3.72-3.55,9.89,9.89,0,0,1,7.28,1A34.54,34.54,0,0,0,209.42,29.75Z"/><path fill="#fff"  d="M213.21,68.38V63.29h1.7V75.91h-1.7V69.85H206.7v6.06H205V63.29h1.7v5.09Z"/><path fill="#fff"  d="M234.25,69.6c0,3.75-3.2,6.58-7.15,6.58s-7.16-2.83-7.16-6.58S223.18,63,227.1,63,234.25,66,234.25,69.6Zm-1.7,0a5.47,5.47,0,0,0-10.91,0,5.47,5.47,0,0,0,10.91,0Z"/><path fill="#fff"  d="M243.1,75.91h-1.7V64.73h-3.25V63.29h8.19v1.44H243.1Z"/><path fill="#fff"  d="M251.2,63.29h7.34v1.44h-5.63v3.53h5.47V69.7h-5.47v4.77h5.63v1.44H251.2Z"/><path fill="#fff"  d="M265.87,74.47H270v1.44h-5.86V63.29h1.71Z"/><path fill="#fff"  d="M203.47,54.56a2.93,2.93,0,0,0-1.85-.64,2.65,2.65,0,1,0,0,5.3,2.93,2.93,0,0,0,1.87-.67v1a4.07,4.07,0,0,1-1.85.45A3.52,3.52,0,0,1,198,56.6a3.57,3.57,0,0,1,3.75-3.42,3.5,3.5,0,0,1,1.77.44Z"/><path fill="#fff"  d="M214.33,56.57a3.71,3.71,0,0,1-7.39,0,3.71,3.71,0,0,1,7.39,0Zm-.88,0a2.82,2.82,0,0,0-5.63,0,2.82,2.82,0,0,0,5.63,0Z"/><path fill="#fff"  d="M219,59.08h2.14v.75h-3V53.31H219Z"/><path fill="#fff"  d="M225.49,59.08h2.14v.75h-3V53.31h.88Z"/><path fill="#fff"  d="M231.12,53.31h3.79v.75H232v1.82h2.82v.74H232v2.46h2.91v.75h-3.79Z"/><path fill="#fff"  d="M244,54.56a3,3,0,0,0-1.86-.64,2.65,2.65,0,1,0,0,5.3,3,3,0,0,0,1.88-.67v1a4.07,4.07,0,0,1-1.85.45,3.51,3.51,0,0,1-3.67-3.36,3.77,3.77,0,0,1,5.52-3Z"/><path fill="#fff"  d="M249.9,59.83H249V54.06h-1.67v-.75h4.22v.75H249.9Z"/><path fill="#fff"  d="M256,59.83h-.88V53.31H256Z"/><path fill="#fff"  d="M267.15,56.57a3.7,3.7,0,0,1-7.38,0,3.7,3.7,0,0,1,7.38,0Zm-.87,0a2.82,2.82,0,0,0-5.63,0,2.82,2.82,0,0,0,5.63,0Z"/><path fill="#fff"  d="M270.84,53l5.29,5.12V53.31H277v6.78L271.72,55v4.86h-.88Z"/></svg>