 <svg id="hi-ho-logo" class="logo"  xmlns="http://www.w3.org/2000/svg" viewBox="0 0 1800 829"><path fill="#ef2f2f" d="M1472.22,261.79V104.31c0-44.5,28.46-83.46,71-96.36a107.09,107.09,0,0,1,29.43-4.49c41.49-.49,83-.26,124.48-.19a101,101,0,0,1,99.42,85.57,103.69,103.69,0,0,1,1.11,15.43q.09,157.73,0,315.45a101,101,0,0,1-86.82,99.85,114.46,114.46,0,0,1-15.45,1q-60.49.11-121,0c-28.32,0-52.88-9.68-72.86-29.81-19.27-19.41-29.28-43-29.35-70.49Q1472.09,341,1472.22,261.79Zm224.08.18V110.52c0-10.05-3.33-13.42-13.54-13.44q-48-.06-96,0c-9.88,0-13.2,3.4-13.2,13.29v302.9c0,10.11,3,13.14,13.06,13.14h96c10.86,0,13.68-2.77,13.68-13.5q0-75.47,0-150.91ZM1616.88,23.82l-.73,1.36,4,3.7,4.32-7.08c-1.71-.87-3.42-2.48-5.15-2.51-14.33-.19-28.67-.39-43,0C1526.58,20.62,1488,60.21,1488,110q-.1,151.48,0,303a95.77,95.77,0,0,0,1.67,18.36c8.38,42.41,44.39,72.4,87.62,72.7,38.49.27,77,.07,115.48,0a69.29,69.29,0,0,0,10-.58c47.33-7,79.14-43.86,79.15-91.82V112.2a130.5,130.5,0,0,0-1-15.94c-5-39.4-39.68-73.32-79.28-76.16-19.24-1.38-38.63-.68-57.94-.91-.5,0-1.12-.13-1.47.11-1,.69-1.9,1.55-2.84,2.34.93.77,1.75,1.86,2.81,2.21a13.28,13.28,0,0,0,4,.13h46.49a77.34,77.34,0,0,1,34.35,7.69c33,16.33,50,43,50.06,79.89q.23,125.48,0,251c0,18.83.31,37.67-.2,56.49-1.12,41.12-36.79,78.55-77.92,79.79-41.95,1.27-84,1.44-125.94.12-44.94-1.41-80.11-38.81-80.22-83.67q-.39-153.73,0-307.46c.09-38.07,26.5-71.28,63.35-81C1576.26,21.61,1596.67,25.06,1616.88,23.82Zm47.57,25.54c13.3,0,26.31-1.5,38.85.29,31.92,4.58,52.87,30.56,52.89,63.93q.1,149,0,298a75.29,75.29,0,0,1-.62,12c-5.1,31.5-30.77,53.39-62.73,53.47q-57.24.13-114.48,0c-37.56,0-64.57-27-64.62-64.64q-.07-47.24,0-94.49,0-103.23,0-206.47c.06-31,21-56.52,51.56-61.47,12.53-2,25.58-.87,38.39-1.14a5,5,0,0,1,2,.35c4.48,1.85,8.78,4.47,13.43,5.44,4.95,1,10.23.82,15.34.61,5.46-.23,4.17-6,6.48-8.84-2.23-.79-4.46-2.26-6.7-2.28-19.16-.18-38.33-.24-57.49-.06-38.53.35-67.71,29.5-67.75,68q-.16,150.73,0,301.45c0,38.27,28.83,67.83,67,68.26q59,.67,118,0c38.12-.44,67-30.26,67-68.33v-302c0-33.44-24-61.89-57-66.33-12.95-1.74-26.26-.81-39.41-1.08-1.5,0-3.33-.46-4.4.24s-2.38,3.09-2,3.83c1.38,2.48,3.49,4.56,5.32,6.8.45-.63,1.21-1.23,1.28-1.91A16.61,16.61,0,0,0,1664.45,49.36Zm-61,25.34,3.87,4.65,4.6-7.35c-1.59-.77-3.17-2.17-4.78-2.2-10-.21-20-.16-30-.1-25.38.17-44.13,19-44.14,44.42q-.06,149,0,298c0,25.89,18.94,44.81,44.84,44.85q57.5.09,115,0c25.42,0,44.46-18.77,44.48-44.12q.14-149.5,0-299c0-25.55-18.76-44-44.31-44.14-20.33-.07-40.67,0-61,0a12.13,12.13,0,0,0-4,.26c-.89.32-2.11,1.53-2.06,2.25a10.22,10.22,0,0,0,1.67,4.4c.16.26,1.93-.48,3-.78,1.94-.56,3.88-1.61,5.83-1.63q27.75-.19,55.5,0c24.1.12,40.9,16.87,40.92,41q.08,148,0,296c0,24.56-16.6,41-41.23,41-37.5,0-75-.52-112.49.21-23.15.45-42-17.83-41.6-41.87.74-45.65.21-91.33.22-137v-160c0-20.08,13.51-36.22,33.41-38.58,10.82-1.27,22-.22,32.28-.22Z"/><path  fill="#ef2f2f" d="M246.42,205.1V30.41a51,51,0,0,1,.14-5.49c1.15-10.55,6.59-16.26,17.15-16.42q33.49-.5,67,0c11.07.19,17.05,7,17.06,18V497c0,11.5-5.87,18-17.3,18.1q-33.24.43-66.49,0c-11.47-.14-17.16-6.31-17.52-18-.17-5.66,0-11.33,0-17,0-56-.06-112,.11-168,0-4.92-1.47-6.1-6.2-6.09q-65.25.25-130.49,0c-4.75,0-6.18,1.2-6.16,6.09q.25,90.25.11,180.49v5c-.24,10.8-6.11,17.29-17,17.44q-33.49.46-67,0c-10.92-.13-16.37-5.74-17.35-16.61-.16-1.82-.1-3.66-.1-5.5V30.9c0-1.67,0-3.34,0-5C3.06,14.74,8.92,8.5,20.06,8.36q33-.43,66,0c11.72.15,17.68,6.86,17.69,19q0,85.75-.08,171.49c0,4.58.88,6.33,5.92,6.31,43.66-.19,87.33-.11,131-.11ZM312,264.42v-204c0-9.86-3.35-13.16-13.24-13.21h-4c-11.6,0-14.55,2.93-14.55,14.42v168c0,7.36-1.08,8.44-8.36,8.44h-197C67.05,238.07,66,237,66,229V58.53c0-7.3-3.79-11-11.08-11.29-2.83-.09-5.67-.06-8.5,0C38,47.36,34.37,51,34.31,59.55c-.07,10.5,0,21,0,31.5V467.52c0,10.82,2.89,13.71,13.57,13.73h4.5c10.85,0,13.69-2.81,13.69-13.53V275.23c0-7.23,1.18-8.43,8.42-8.44H130c2.22,0,4.77-.62,5.5,2.77.09.41,2.91.84,3.07.52a14.12,14.12,0,0,0,2-5.94c0-.68-2.75-2-4.25-2-21.5-.13-43-.29-64.49.14-3.09.06-6.84,2.54-8.93,5-1.64,1.95-1.59,5.65-1.6,8.57q-.12,95-.06,190v5c0,3.64-2,5.53-5.49,5.86-2,.19-4,.11-6,.11-9.8,0-10.64-.82-10.64-10.41v-402C39,52,39,52,51.53,52c8.86,0,9.64.79,9.64,9.75v168c0,9.83,3.39,13.18,13.28,13.19h65c3.45,0,7.38-1.16,8.79,4,.26,1,2.75,1.74,4.27,1.87a41.41,41.41,0,0,0,10,0c8.69-1.4,17.26-3.81,26.19-1.65,1,.23,3-.68,3.24-1.41.85-3.25,3.22-2.81,5.52-2.81H271c11,0,14-3,14-13.87v-166c0-1.83-.11-3.68.07-5.5.48-5,2.13-5.59,13.31-5.59,4.18,0,8.34-.09,8.71,5.64.13,2,.06,4,.06,6v400c0,13.35,0,13.35-13.28,13.23-7.58-.07-8.87-1.38-8.88-9.15V274.21c0-8-3.48-12.1-10.66-12.12q-53.75-.12-107.49.06c-1.43,0-2.86,1.44-4.3,2.21,1.43.81,2.79,2,4.32,2.34,2.88.56,6.47-.37,8.71,1,6.59,4.1,13.6,4.92,21,4.37,1.31-.1,3.42-1,3.67-2,1-3.62,3.55-3.32,6.22-3.31H271.9c7.2,0,8.26,1.12,8.27,8.55v62.5c0,43.5-.06,87,.12,130.49a17.59,17.59,0,0,0,2.79,9.71c3.56,4.93,22.39,5,25.93,0,1.94-2.71,2.83-6.74,2.84-10.18Q312.09,366.16,312,264.42Zm-96.17,30.41H255c3.41,0,5.18,2,5.52,5.27a56.54,56.54,0,0,1,.17,6V487.58c0,2-.07,4,.06,6,.37,5.7,3.86,9.38,9.59,9.42q26.75.2,53.49,0c5.45,0,9-3.48,9.75-8.86a44.62,44.62,0,0,0,.18-6v-451c0-1.67.07-3.34-.07-5-.5-5.68-3.83-9.62-9.53-9.71q-28-.42-56,0c-5.79.07-9,3.73-9.64,9.56a65,65,0,0,0-.2,7V206c0,9.85-.36,10.21-10.07,10.21q-53,0-106,.11c-2.24,0-4.48,1.59-6.72,2.43,2.28.75,4.51,1.91,6.84,2.17,8.74,1,17.5,1.69,26.26,2.41s17.83,1.39,26.75,1.94c.93.06,2.59-.74,2.78-1.44.86-3.17,3.2-2.83,5.53-2.83h45.5c11.17,0,13.86-2.69,13.86-13.84V35.67c0-7.08,1.51-8.61,8.41-8.62H321c6.41,0,8,1.57,8,8V490.5c0,6.5-1.35,7.82-8,7.83H275.48c-9.64,0-10.33-.67-10.33-10.12v-187c0-7.07-3.47-11.09-10-11.16q-21.49-.24-43,.08c-1.37,0-4,2.23-3.83,2.89.57,2.37,2.09,4.51,3.25,6.74Zm-200.89-32v227c0,10.43,2.85,13.23,13.41,13.24h48c9.43,0,12.65-3.2,12.66-12.58V303c0-6.93,1.26-8.18,8.14-8.23,5.67,0,11.33-.1,17,0,23,.43,45.92.88,68.87,1.49a12.3,12.3,0,0,1,6.46,2.07c3.49,2.48,5.21.56,5.78-2.27.44-2.17.14-6-1.1-6.68-2.69-1.37-6.22-1.64-9.36-1.47-4.43.24-8.81,1.85-13.22,1.89-25.33.23-50.66.13-76,.22-7.31,0-11,3.73-11.36,11-.08,1.83,0,3.67,0,5.5V489c0,8.65-.67,9.3-9.48,9.3h-47c-6.81,0-8.15-1.39-8.29-8.18V36.63c0-8.4,1.24-9.61,9.48-9.62h44.5c7.54,0,8.74,1.2,8.74,8.66q0,34,0,68,0,52,0,104c0,10,3.21,13.27,13,13.29,5.83,0,11.68-.21,17.49.13,1.9.11,3.67,1.82,5.61,2.44,1.12.35,3.17.44,3.58-.18A8.9,8.9,0,0,0,123.6,218c-.08-.75-3-1.68-4.57-1.72-7.66-.18-15.33-.07-23-.09-8.3,0-9.07-.8-9.08-9.22V35.47c0-9.85-3.32-13.18-13.26-13.21-14.83-.05-29.67,0-44.5,0-11.42,0-14.3,2.85-14.3,14.09q0,113.26,0,226.51Z"/><path  fill="#ef2f2f" d="M990.06,262q0-115,0-230V26C990.36,15.17,996,8.7,1007,8.52q33.48-.57,67,0c11.68.2,17,6.76,17,19.36V197.35c0,7.75,0,7.75,7.91,7.75h128c7.15,0,7.15,0,7.15-7,0-56.32.25-112.65-.15-169-.12-16.76,9.36-21,20.94-20.88,20.33.23,40.66,0,61,.09,10.22,0,16.56,4.08,18.53,11.94a35,35,0,0,1,.71,8.43V495.1c0,14.47-5.51,20-19.91,20q-30.74.13-61.49,0c-14.12-.08-19.62-5.72-19.62-19.79V312.89c0-6.79,0-6.81-6.86-6.81H1098.77c-7.7,0-7.7,0-7.7,7.51v183c-.17,12.56-5.66,18.32-18.32,18.54-14.16.24-28.33.09-42.49.08-7.66,0-15.34.16-23-.13-11.37-.44-17-6.29-17.14-17.64-.13-13.66-.06-27.33-.06-41Q990,359.26,990.06,262Zm212.63,4.76H1259c9.76,0,10.23.46,10.24,10.1v189a57.64,57.64,0,0,0,.12,6c.61,5.77,4.06,9.1,9.8,9.33,4,.16,8,.17,12,0,6-.25,9.45-3.83,9.77-9.83.09-1.66,0-3.33,0-5V57.9c-.23-6.44-3.82-10.2-10.21-10.62-2.16-.14-4.33-.06-6.5-.06-12.22,0-15,2.78-15,15V226.7c0,1.67.48,3.55-.15,4.95-.91,2-2.26,4.32-4.07,5.36s-4.5,1-6.8,1l-197,.14c-4.78,0-6.2-2.1-6.21-6.23v-11.5q0-80-.1-160c0-3.16-.63-6.85-2.34-9.36-3.92-5.75-22.23-5.78-26.64-.3a14.46,14.46,0,0,0-2.4,5.88,28.24,28.24,0,0,0-.22,6q0,201.73,0,403.46a45.57,45.57,0,0,0,.23,6.49c.75,5.21,4.17,8.34,9.45,8.56,4.16.18,8.34.19,12.49,0,5.7-.27,9.12-3.82,9.47-9.58.12-2,.06-4,.06-6V276.09c0-8.3,1-9.31,9.1-9.32h62c3.64,0,7.79-1.19,9.46,3.94.23.72,2,1.26,3,1.34,7.39.55,14.45-.22,21-4.32,2.36-1.47,5.86-2.83,7.63,1.73.29.75,2.26.85,3.45,1.25.7-2.17,1.79-4.33,1.86-6.53,0-.68-2.71-2.09-4.19-2.09q-53.74-.18-107.49-.06c-6.42,0-10.12,3.78-10.58,10.24-.13,1.82-.06,3.66-.06,5.5v193c0,3.91-2.25,5.72-5.94,6-1.66.11-3.33.07-5,.07-10.59,0-11.24-.65-11.24-11.38v-401c0-12.5,0-12.5,12.52-12.49,8.92,0,9.7.78,9.7,9.69q0,83,0,166c0,3.14.63,6.27.84,9.42.33,4.89,3,6,7.62,5.94,24.16-.22,48.33-.14,72.49,0,1.78,0,4.6.5,5.12,1.62,1.5,3.23,3.86,2.4,6.3,2.49,6.42.22,12.83.62,19.24,1,4.81.26,9.62.79,14.41.7,1.72,0,4.58-1.24,4.91-2.45,1.1-4,3.94-3.38,6.67-3.38,22.83,0,45.66.06,68.49-.09a43.91,43.91,0,0,0,11.28-1.65c4.06-1.12,6.32-4.15,6.29-8.58v-172c0-3.41-.14-6.85,3.9-8.31,4.25-1.53,15.83-.31,17.21,1.93a9,9,0,0,1,1,3.75c.18,1.82.07,3.66.07,5.5v401c0,12.36,0,12.41-12.66,12.35-8.26,0-9.55-1.3-9.55-9.56v-194c0-7-3.55-11.15-10-11.19q-32.75-.2-65.49.06c-1.3,0-3.81,2-3.68,2.57.52,2.26,1.89,4.33,2.94,6.47Zm-200.93-4.45V486.78c0,2.17-.06,4.34.06,6.5.35,6,3.82,9.68,9.83,9.72q26.49.19,53,0c6.13,0,9.79-3.85,10.19-10,.12-1.83,0-3.67,0-5.5V303c0-7,1.13-8.22,8.07-8.23h62c2.24,0,4.82-.58,5.53,2.78,0,.17,3.41.18,3.59-.32a9.67,9.67,0,0,0,.56-5.69c-.26-.86-2.75-1.47-4.23-1.48-22.16-.09-44.33-.07-66.49-.07-10.87,0-13.87,3-13.87,14V492.48c0,3.59-1.77,5.77-5.42,5.79q-26.25.11-52.49,0c-3.65,0-5.48-2.11-5.74-5.6-.16-2.16-.1-4.33-.1-6.5v-449c0-9.22,1-10.2,10.39-10.2h45.49c9.21,0,10,.75,10,10V208.45c0,9,3.45,12.47,12.34,12.49,13.83,0,27.67-.14,41.49.1,4.21.07,9.55-2.35,12,3.8.12.3.88.49,1.34.48,7.13-.19,14.45.5,21.36-.85a185.58,185.58,0,0,1,41.65-3.4c1.48,0,2.83,1.91,4.4,2.4,1.27.4,3.72.48,4-.11.83-1.66,1.65-4.22.9-5.51s-3.43-1.61-5.26-1.61q-60-.13-120-.07c-8.73,0-9.44-.7-9.44-9.35q0-85.49,0-171c0-10.28-3.2-13.56-13.37-13.59h-47c-12.12,0-14.79,2.63-14.79,14.58q0,112.78,0,225.52ZM1231.64,221h7.54c11.19,0,13.87-2.68,13.87-13.82v-170c0-9.26.92-10.16,10.37-10.16h44c6.94,0,8.49,1.54,8.49,8.55V490c0,7.06-1.31,8.31-8.59,8.32h-45.49c-10.39,0-10.81-.41-10.81-10.6v-184c0-11-2.84-13.77-14-13.77-13,0-26,.26-39-.11-6.74-.19-13.45-1.57-20.19-2.27-2.12-.22-4.56-.53-6.37.28s-3.6,2.86-3.79,4.55c-.23,2,.92,4.51,2.24,6.18.45.57,3.24-.66,5-1.13,1.43-.39,2.82-1.17,4.26-1.25,10-.58,19.91-1.18,29.87-1.45,8.83-.24,17.66,0,26.49,0,10.47,0,10.78.3,10.78,10.56V487.75a54.68,54.68,0,0,0,.13,6c.62,5.62,4.26,9.18,9.93,9.22q27.24.18,54.49,0c5.26,0,8.72-3.32,9.5-8.51a47.19,47.19,0,0,0,.32-7q0-58,0-116,0-167.22,0-334.43c0-11.9-2.94-14.82-14.73-14.83h-43c-11.55,0-14.56,3-14.57,14.46V207.13c0,8.14-.86,9-8.79,9a112.6,112.6,0,0,0-11.48.15c-1.54.17-4.26,2-4.15,2.7.36,2.29,1.79,4.4,2.81,6.58Z"/><path  fill="#ef2f2f" d="M593.86,261.44V492.87c0,2.17,0,4.34-.05,6.5-.42,8.89-6.12,15.4-15,15.52q-35.47.5-71,0c-8.82-.13-14.16-6.19-14.81-15.12-.16-2.16-.14-4.33-.14-6.49q0-231.18,0-462.36c0-2.5,0-5,.2-7.49.65-7.77,5.23-14,12.92-14.16,24.78-.58,49.58-.65,74.36,0,8.33.14,13.17,6.84,13.45,15.24.21,5.16.07,10.33.07,15.49Zm-14.77,0V35c0-9.3-3.35-12.7-12.63-12.74-14.66-.06-29.32,0-44,0C511,22.3,508,25.27,508,36.85V485.68c0,11.55,2.85,14.32,14.54,14.32H565c11.43,0,14.06-2.64,14.06-14.15q0-112.2,0-224.4Z"/><path  fill="#ef2f2f" d="M791.67,295.86H716.24c-13.68,0-19.39-5.67-19.46-19.45q-.15-26.48,0-53c.08-13.25,6.13-19.22,19.28-19.22H867.93c13,0,19,5.83,19.17,18.79q.26,27,0,54c-.13,13.35-6,18.87-19.49,18.89Q829.63,295.9,791.67,295.86Zm-1.11-76.51h-58c-5.16,0-10.34-.16-15.49.14-6.56.38-10,4.05-10.09,10.64-.12,8.49-.15,17,0,25.49.13,5.66,4.06,9.58,9.3,9.84s9.49-3.32,10.19-8.94a79.63,79.63,0,0,0,.24-9.48c0-8.82.9-9.72,9.75-9.72H848.91c1.33,0,2.67,0,4,.11,3.79.3,5.62,2.48,5.81,6.2.25,5.06-2,7.33-7.7,7.35-18,.05-36,0-54,0H739c-6.13,0-10.27,2.93-10.91,8.11-1.17,9.55.53,16.46,13.24,16.36,37.82-.28,75.64-.1,113.45-.1,10.67,0,10.67,0,14.07,10,.21.63.44,1.76.7,1.77,1.3.06,3.32.28,3.77-.41.71-1.09.47-2.87.47-4.35v-49c0-10.91-3.07-14.06-13.89-14.07l-69.36.06Z"/><path fill="#fff" d="M186.57,737c15.06,7.27,20.82,17.91,17.63,33.24C201.74,782,193.51,790.1,181,790.8c-13.75.77-27.57.18-41.68.18v-98.1h10.16c8.33,0,16.67-.25,25,.23,18.14,1,28.22,19.25,19.55,35.3C192.29,731.59,189.16,734,186.57,737Zm-41.32,49h25.41c2.5,0,5,.06,7.49-.16,12.85-1.13,20.3-8.75,20.8-21.18.55-13.43-5.79-22.49-18.78-23.82-11.46-1.18-23.13-.25-34.92-.25Zm0-51.27c10.1,0,19.61.35,29.07-.09,10.66-.51,15.85-6.24,16.39-17,.53-10.44-4.31-17.74-14.44-18.77s-20.5-.23-31-.23Z"/><path fill="#fff" d="M1151.8,756v29.93h53V791h-58.91V693h56.84v4.87h-50.66a34.65,34.65,0,0,0-.54,4.14c0,14.67.09,29.33-.1,44,0,3.72,1.06,4.88,4.81,4.81,11.83-.22,23.66-.08,35.5-.08h5.7V756Z"/><path fill="#fff" d="M42.58,691.67l39.68,98.9c-4,1.35-6.22.82-7.54-3.26-1.63-5-2.7-11.82-6.38-14.22-3.9-2.54-10.57-.93-16-1-11-.07-22,.11-33-.1-3.48-.07-5.51.74-6.52,4.34s-2.91,7.09-4.06,10.73-3.3,5.11-7.49,3.49l39.52-98.89Zm24,75L41.72,703.33l-25,63.34Z"/><path fill="#fff" d="M1296.67,778.57v43.18h-5.45V732.42l5.2-.35v13.48c7.07-10.32,15.58-15.15,26.81-14.55a27.6,27.6,0,0,1,19.48,8.85c11.6,12.36,10.86,34-1.47,45.19C1328.42,796.69,1311.17,794.54,1296.67,778.57Zm24,8.65c14.23.07,24.14-10.3,24.25-25.35s-9.76-25.76-23.8-25.85c-14.43-.09-24.86,10.51-25,25.4s10.25,25.73,24.59,25.8Z"/><path fill="#fff" d="M499.61,732.34h5.21v89.39l-5.39.31V779.66c-6.94,8-14.82,12.81-25.23,12.75a27.67,27.67,0,0,1-20.23-8.3c-11.77-11.88-11.78-33-.08-44.85,12.46-12.63,29-10.77,45.72,5.42Zm-24.33,54.88c14.39,0,24.69-10.78,24.63-25.7S489.42,735.94,475,736c-14,.07-24,10.79-23.93,25.76s10,25.5,24.21,25.46Z"/><path fill="#fff" d="M1576.6,762.9h-52.13c.41,9.79,4,17.13,12.42,21.58,10.17,5.4,22.45,3.15,33.34-6l3.08,2.53c-.28,5.6-15.65,12-26.25,11.28-17.9-1.2-29.84-15.1-28.39-33s15.84-30,33.29-28.19C1567.1,732.66,1578.43,747,1576.6,762.9Zm-5.74-5c-.19-13.56-9.93-22.39-23.84-22-12.14.36-22.31,10.53-21.74,22Z"/><path fill="#fff" d="M1417.59,778.26l3.33,3c-7.89,11.1-25.57,14.58-38.94,7.82s-19.34-22.77-14.31-37.67c4.84-14.32,18.8-22.74,33.31-20.11s23.79,14.94,23.38,31.51h-52c-.57,9.56,4.33,18.55,12.64,21.94C1397,789.65,1408.12,788.07,1417.59,778.26Zm.72-20.34c-.49-13.61-9.67-22.17-23.3-22-12.46.18-22.29,9.71-22.49,22Z"/><path fill="#fff" d="M604.53,762.84c.6,10.56,4.46,18.43,13.8,22.15,11.68,4.64,22.51,2.83,31.82-6.58.68.48,1.31,1,2,1.38l1.18.72c.58,4.35-12.07,11.07-20.52,11.74-19.28,1.53-33.47-10.7-34.07-29.37-.6-18.5,13.08-32.47,31.23-31.91,16.21.51,28.24,14.55,26.86,31.87Zm46.23-4.93c.5-13-9.71-22.37-23.66-22-12.2.36-22.64,10.88-21.64,22Z"/><path fill="#fff" d="M1790.7,763h-52.17c.45,9.62,4,17,12.38,21.46,10.2,5.44,22.52,3.21,33.35-6l3.07,2.44c.38,4.42-13.32,11.12-22.62,11.45-18.55.65-32.06-12.21-32.08-30.54s13.81-31.68,31.81-30.86C1780.32,731.71,1792.31,746,1790.7,763Zm-51.64-5.41h46c-1.11-13.62-9.94-21.73-23-21.66-12.58.07-22.24,9.07-23,21.66Z"/><path fill="#fff" d="M219.78,761.38A30.34,30.34,0,0,1,250,730.93h.68c17.17.06,30.43,13.59,30.34,31a30.37,30.37,0,0,1-30.23,30.51h-.63a30.49,30.49,0,0,1-30.4-30.58Q219.78,761.62,219.78,761.38Zm30.71,25.84c14.52,0,24.67-10.55,24.65-25.64S264.84,736,250.37,736s-24.86,10.91-24.78,25.7,10.41,25.52,24.9,25.53Z"/><path fill="#fff" d="M767.6,785.87V791H714.79V693.18h5.64v92.69Z"/><path fill="#fff" d="M919.16,732.29h5.61v7c0,9.82-.09,19.65,0,29.47.15,10.6,4.27,16.6,12.15,18.16,10.63,2.1,20.81-2.65,24.3-12a36.31,36.31,0,0,0,1.86-11.69c.25-10.12.08-20.26.08-30.77l5.45-.44v59l-5.2.26v-11.7c-5.41,7.74-11.32,12-19.41,13-13.19,1.55-23.91-6.12-24.71-19.35C918.53,759.71,919.16,746.22,919.16,732.29Z"/><path fill="#fff" d="M349.83,791h-5.32V780.88c-6.38,8.39-14.34,12.44-24.43,11.62-11.17-.91-18.59-7.21-19.4-18.54-1-13.71-.23-27.54-.23-41.57h5.43v36.49c.18,9.47,3.33,14.88,10,17.28,7.73,2.8,17.58.44,23-5.51,4.06-4.44,5.42-9.82,5.44-15.65V732.34h5.45Z"/><path fill="#fff" d="M573.16,732.3h5.46V791l-5.21.27V779.89c-1.69,2-2.6,3-3.48,4.11a24.81,24.81,0,0,1-27.21,7.24c-8.64-3-13.6-10.46-13.71-21.07-.13-12.46,0-24.93,0-37.78l5.79-.31v35.65c.06,12.87,5.07,19.11,15.6,19.49,12.61.46,22-7.08,22.54-19,.51-10.3.19-20.64.23-31C573.17,735.81,573.16,734.34,573.16,732.3Z"/><path fill="#fff" d="M1602,791h-5.43V732.33l5.27-.24v12.35c6.29-9.88,14.06-14,24.22-13.49,10.6.51,19.17,7.55,19.75,18.17.75,13.74.18,27.56.18,41.81l-5.14.3V764.51c0-3.49.1-7-.09-10.48-.57-10.51-4.93-16.09-13.58-17.64-9.7-1.74-19.66,3.11-23,11.78a33.55,33.55,0,0,0-2,11.16C1601.86,769.78,1602,780.24,1602,791Z"/><path fill="#fff" d="M826.16,780.87c-7.15,9.09-15.72,13-26.71,11.33-9.6-1.46-16.81-8.22-17.26-17.93-.64-13.77-.16-27.6-.16-41.77h5.28v14.43c0,7.33-.14,14.66,0,22,.26,10.42,4.63,16.56,12.46,18,10.79,2,20.71-2.79,24.21-12.16a33.28,33.28,0,0,0,1.87-10.71c.24-10.46.08-20.92.08-31.66h5.43v58.41l-5.24.51Z"/><path fill="#fff" d="M1035.28,732.59c4.32-1.53,6.25.24,7.91,3.87,6.74,14.74,13.77,29.35,20.91,44.46,6.48-15.22,12.83-30,19-44.79,1.36-3.29,3.06-5,7.22-3.41-.56,1.48-1.06,3-1.68,4.44-11.57,26.84-23.21,53.72-34.64,80.66-1.51,3.55-3.27,5.17-7.51,3.65,4.26-10.08,8.37-20.2,12.84-30.16a9.25,9.25,0,0,0-.26-8.82c-7.36-14.91-14.45-30-21.62-45C1036.68,735.91,1036,734.24,1035.28,732.59Z"/><path  fill="#fff" d="M1222.76,732.73c4.41-1.46,7-.26,9.26,3.1,4.48,6.58,9.35,12.89,14.06,19.32,4.94-6.58,9.94-12.93,14.57-19.55,2.1-3,4.38-4.29,8.61-2.92-5.46,7.32-10.59,14.62-16.26,21.52-3,3.68-3.25,6.24-.11,10.11,6.81,8.36,13,17.21,19.64,26.09-4.11,1.73-6.61.71-9-2.67-5.58-8.06-11.51-15.88-17.6-24.22-6.18,8.31-12.27,16.52-18.39,24.7-2.54,3.4-2.57,3.38-8,2.24,6.7-8.93,13.09-17.81,19.9-26.34,2.66-3.33,2.64-5.55,0-8.87C1233.76,748,1228.45,740.42,1222.76,732.73Z"/><path fill="#fff" d="M902.73,790.66c-4.17,1.38-6.84.35-9-3.16-2.66-4.22-5.85-8.09-8.8-12.13s-5.65-7.81-8.63-11.92c-6.06,8.15-12.24,16.17-18.07,24.44-2.15,3-4.46,4-8.48,2.81l23.21-31-20-27c4.23-1.27,6.87-.45,9.19,3,4.48,6.61,9.37,12.94,14.09,19.39,7.61-7.38,10.83-19.1,21.14-23.85l1.81,1.56c-.85,1.26-1.64,2.56-2.55,3.78-5,6.68-9.89,13.41-15,20-1.63,2.09-1.57,3.52,0,5.6,6.2,8,12.21,16.24,18.28,24.4C900.85,787.8,901.71,789.17,902.73,790.66Z"/><path fill="#fff" d="M1717.43,741l-3.51,3.23c-5.79-6.64-13.14-9-21.52-8a22.27,22.27,0,0,0-15,8c-8.64,10.3-7.63,27.77,1.81,37,7.38,7.23,24.8,9.68,35.84-2.38l3.62,2.85c-6.45,9.36-19.79,13.19-32,9.45-12.52-3.82-21-15.35-21.2-29a30.78,30.78,0,0,1,20.38-29.65C1697.46,728.45,1710.76,732,1717.43,741Z"/><path fill="#fff" d="M376.85,737.06h-9.12l-.2-4.69,9.17-.51V701.6l5.46-.42V732h16.95l.31,4.9H382.79a38.61,38.61,0,0,0-.46,4.07v33a22.18,22.18,0,0,0,.1,2.49c.45,4,.3,8.51,4.78,10.22s8.85.43,12.41-3.44l3.25,2.85c-.1.58,0,1-.21,1.18-4.77,5.38-10.91,6.44-17.29,4.34s-8.4-7.72-8.45-13.93C376.77,764.32,376.85,751,376.85,737.06Z"/><path fill="#fff" d="M1026.66,734l-2.42,4c-16-4.3-25,2.72-25.23,19.44-.12,11,0,21.92,0,33.28h-5.56v-58.3l5.28-.45v8.42c4.26-3,8.14-6.55,12.71-8.58C1016.24,729.73,1021.49,730.73,1026.66,734Z"/><path fill="#fff" d="M1444.23,732.29h4.88v10.66c7.34-11.69,16.23-14.72,27.93-9.29a23.77,23.77,0,0,1-1,2.41,22.57,22.57,0,0,1-1.33,2c-13.65-5.2-24.53,1.59-25.1,18.35-.33,9.63-.12,19.28-.16,28.92V791l-5.27.24Z"/><path fill="#fff" d="M1498.7,732v58.84l-5.23.38V732.43Z"/><path fill="#fff" d="M420.23,732.32h5v58.53l-5,.44Z"/><path fill="#fff" d="M1496.15,699.89c2.15,3.29,4.49,5.3,4.25,7s-3,4.28-4.61,4.22-4.21-2.8-4.34-4.51S1493.79,703,1496.15,699.89Z"/><path fill="#fff" d="M428,707.74c-1.77,1.22-3.68,3.56-5.29,3.37s-4.43-2.76-4.44-4.31,2.56-4.24,4.28-4.49,3.59,2.07,5.4,3.26Z"/><path fill="#000" class="cls-1" d="M1696.3,262V413c0,10.73-2.82,13.5-13.68,13.5h-96c-10,0-13-3-13.06-13.14V110.46c0-9.88,3.31-13.27,13.2-13.29q48-.08,96,0c10.21,0,13.54,3.38,13.54,13.44Z"/><path fill="#ebc93d" class="cls-2" d="M1616.88,23.82c-20.21,1.24-40.62-2.21-60.66,3-36.85,9.68-63.26,42.89-63.35,81q-.34,153.73,0,307.46c.11,44.87,35.28,82.26,80.22,83.67,41.94,1.32,84,1.15,125.94-.12,41.14-1.24,76.81-38.67,77.92-79.79.51-18.82.2-37.66.2-56.49v-251C1777,74.71,1760,48,1727.06,31.7a77.34,77.34,0,0,0-34.35-7.7c-15.5-.07-31,0-46.49,0a13.28,13.28,0,0,1-4-.13c-1.06-.35-1.88-1.44-2.81-2.21.94-.79,1.83-1.65,2.84-2.34.35-.24,1-.11,1.47-.11,19.32.23,38.71-.47,57.94.91,39.6,2.83,74.34,36.76,79.23,76.17a130.5,130.5,0,0,1,1,15.94q.09,149.73,0,299.46c0,48-31.82,84.87-79.15,91.82a69.29,69.29,0,0,1-10,.58c-38.49,0-77,.25-115.48,0-43.23-.31-79.24-30.3-87.62-72.7a95.77,95.77,0,0,1-1.57-18.39q-.15-151.48,0-303c0-49.82,38.56-89.41,88.33-90.75,14.32-.38,28.66-.18,43,0,1.73,0,3.43,1.63,5.15,2.51l-4.32,7.08-4-3.7Z"/><path fill="#ebc93d" class="cls-3" d="M1664.45,49.36a16.61,16.61,0,0,1,.37,3.55c-.07.67-.83,1.27-1.28,1.91-1.83-2.23-3.94-4.31-5.32-6.8-.42-.75.87-3.12,2-3.83s2.91-.27,4.4-.24c13.15.27,26.46-.66,39.41,1.08,33,4.44,57,32.89,57,66.33q.07,151,0,302c0,38.07-28.88,67.89-67,68.33q-59,.69-118,0c-38.18-.43-67-30-67-68.26q-.14-150.73,0-301.45c0-38.46,29.23-67.61,67.75-68q28.74-.26,57.49.06c2.24,0,4.46,1.48,6.7,2.28-2.31,2.86-1,8.61-6.48,8.84-5.11.22-10.4.43-15.34-.61-4.65-1-9-3.59-13.43-5.44a5,5,0,0,0-2-.35c-12.81.27-25.86-.89-38.39,1.14-30.6,5-51.49,30.45-51.56,61.47q-.2,103.23,0,206.47v94.49c.06,37.6,27.06,64.61,64.62,64.64h114.48c32-.07,57.63-22,62.73-53.47a75.29,75.29,0,0,0,.62-12v-298c0-33.38-21-59.35-52.89-63.93C1690.76,47.86,1677.75,49.36,1664.45,49.36Z"/><path fill="#ebc93d" class="cls-4" d="M1603.46,74.7c-10.31,0-21.41-1-32.24.23-19.89,2.35-33.38,18.49-33.41,38.58q-.13,80,0,160c0,45.67.53,91.34-.22,137-.39,24,18.45,42.32,41.6,41.87,37.49-.73,75-.17,112.49-.21,24.62,0,41.21-16.45,41.23-41q.08-148,0-296c0-24.12-16.82-40.88-40.92-41q-27.75-.13-55.5,0c-1.95,0-3.88,1.07-5.83,1.63-1,.3-2.79,1-3,.78a10.22,10.22,0,0,1-1.67-4.4c-.06-.72,1.17-1.93,2.06-2.25a12.13,12.13,0,0,1,4-.26c20.33,0,40.67-.07,61,0,25.55.09,44.29,18.59,44.31,44.14q.14,149.5,0,299c0,25.35-19.06,44.08-44.48,44.12q-57.5.1-115,0c-25.91,0-44.83-19-44.84-44.85q0-149,0-298c0-25.45,18.75-44.25,44.14-44.42,10-.07,20-.11,30,.1,1.61,0,3.19,1.43,4.78,2.2l-4.6,7.35Z"/><path fill="#ebc93d" class="cls-5" d="M312,264.42q0,101.74-.12,203.48A18.42,18.42,0,0,1,309,478.08c-3.55,5-22.37,4.88-25.93,0a17.59,17.59,0,0,1-2.79-9.71c-.18-43.5-.12-87-.12-130.49v-62.5c0-7.43-1.06-8.54-8.27-8.55H206.44c-2.67,0-5.25-.3-6.22,3.31-.25.94-2.35,1.88-3.67,2-7.37.55-14.38-.27-21-4.37-2.23-1.39-5.82-.46-8.71-1-1.53-.3-2.89-1.53-4.32-2.34,1.43-.77,2.86-2.21,4.3-2.21q53.75-.19,107.49-.06c7.18,0,10.65,4.12,10.66,12.12V467.72c0,7.78,1.3,9.09,8.88,9.15,13.28.12,13.28.12,13.28-13.23v-400c0-2,.07-4-.06-6-.37-5.73-4.53-5.64-8.71-5.64-11.18,0-12.83.63-13.31,5.59-.18,1.82-.07,3.66-.07,5.5v166c0,10.86-3,13.87-14,13.87H197.49c-2.3,0-4.67-.44-5.52,2.81-.19.74-2.28,1.65-3.24,1.41-8.94-2.16-17.5.26-26.19,1.65a41.41,41.41,0,0,1-10,0c-1.52-.13-4-.9-4.27-1.87-1.41-5.15-5.33-4-8.79-4h-65c-9.88,0-13.28-3.36-13.28-13.19v-168c0-9-.78-9.73-9.64-9.75C39,52,39,52,39,64.43v402c0,9.59.85,10.41,10.64,10.41,2,0,4,.08,6-.11,3.48-.33,5.46-2.22,5.49-5.86v-5q0-95,.06-190c0-2.92,0-6.63,1.6-8.57,2.1-2.49,5.85-5,8.93-5,21.49-.43,43-.27,64.49-.14,1.5,0,4.27,1.36,4.25,2a14.12,14.12,0,0,1-2,5.94c-.17.31-3-.12-3.07-.52-.72-3.38-3.28-2.76-5.5-2.77H74.39c-7.23,0-8.41,1.21-8.42,8.44V467.74c0,10.72-2.83,13.51-13.69,13.53h-4.5c-10.67,0-13.57-2.92-13.57-13.73v-408c.06-8.6,3.65-12.19,12.14-12.31,2.83,0,5.67-.08,8.5,0,7.28.24,11,4,11.08,11.29.07,15.67,0,31.33,0,47V229c0,8,1,9.05,8.82,9.05h197c7.28,0,8.36-1.08,8.36-8.44v-168c0-11.49,3-14.41,14.55-14.42h4c9.89,0,13.24,3.35,13.24,13.21Q312,162.43,312,264.42Z"/><path fill="#ebc93d" class="cls-6" d="M215.8,294.83l-4.22,5c-1.16-2.23-2.68-4.37-3.25-6.74-.16-.66,2.46-2.87,3.83-2.89q21.49-.32,43-.08c6.49.07,10,4.09,10,11.16q.06,46,0,92v95c0,9.45.69,10.12,10.33,10.12H321c6.66,0,8-1.33,8-7.83V35.12c0-6.41-1.56-8-8-8q-24.75-.06-49.49,0c-6.9,0-8.41,1.54-8.41,8.62V207.22c0,11.15-2.69,13.84-13.86,13.84h-45.5c-2.33,0-4.67-.34-5.53,2.83-.19.71-1.85,1.5-2.78,1.44-8.92-.54-17.84-1.21-26.75-1.94s-17.53-1.44-26.26-2.41c-2.33-.26-4.56-1.42-6.84-2.17,2.24-.85,4.48-2.42,6.72-2.43,35.33-.16,70.66-.11,106-.11,9.71,0,10.07-.36,10.07-10.21v-167a65,65,0,0,1,.2-7c.63-5.84,3.85-9.49,9.64-9.56q28-.36,56,0c5.7.08,9,4,9.53,9.71.15,1.65.07,3.33.07,5v451a44.62,44.62,0,0,1-.18,6c-.73,5.38-4.3,8.82-9.75,8.86q-26.75.19-53.49,0c-5.73,0-9.22-3.72-9.59-9.42-.13-2-.06-4-.06-6V306.17a56.54,56.54,0,0,0-.17-6c-.35-3.24-2.11-5.26-5.52-5.27C241.68,294.81,228.36,294.83,215.8,294.83Z"/><path fill="#ebc93d" class="cls-7" d="M14.91,262.86V36.37c0-11.24,2.88-14.08,14.3-14.09h44.5C83.64,22.28,87,25.65,87,35.49V207c0,8.42.78,9.2,9.08,9.22,7.67,0,15.33-.09,23,.09,1.62,0,4.49,1,4.57,1.72a8.9,8.9,0,0,1-1.75,5.36c-.41.61-2.46.53-3.58.18-1.94-.61-3.71-2.33-5.61-2.44-5.81-.33-11.66-.11-17.49-.13-9.84,0-13-3.26-13-13.29q0-52,0-104,0-34,0-68C82.19,28.22,81,27,73.45,27H29c-8.25,0-9.48,1.21-9.48,9.62v453.5c.14,6.8,1.48,8.17,8.29,8.18q23.5,0,47,0c8.81,0,9.48-.66,9.48-9.3V301c.31-7.28,4-11,11.36-11,25.33-.08,50.66,0,76-.22,4.41,0,8.79-1.65,13.22-1.89,3.14-.17,6.67.1,9.36,1.47,1.24.63,1.54,4.51,1.1,6.68-.57,2.84-2.29,4.75-5.78,2.27a12.3,12.3,0,0,0-6.46-2.07c-23-.61-45.91-1-68.87-1.49-5.66-.11-11.33,0-17,0-6.87,0-8.13,1.3-8.14,8.23V490.51c0,9.37-3.23,12.56-12.66,12.58h-48c-10.56,0-13.41-2.81-13.41-13.24Q14.91,376.35,14.91,262.86Z"/><path fill="#ebc93d" class="cls-8" d="M1202.69,266.78l-4.92,4.41c-1-2.14-2.41-4.21-2.94-6.47-.13-.58,2.38-2.56,3.68-2.57q32.74-.24,65.49-.06c6.43,0,10,4.19,10,11.19q.07,32.75,0,65.49V467.26c0,8.26,1.29,9.53,9.55,9.56,12.61.06,12.66,0,12.66-12.35v-401c0-1.83.11-3.68-.07-5.5a9,9,0,0,0-1-3.75c-1.38-2.24-13-3.46-17.21-1.93-4,1.45-3.9,4.9-3.9,8.31v172c0,4.42-2.23,7.45-6.29,8.58a43.91,43.91,0,0,1-11.28,1.65c-22.83.15-45.66.07-68.49.09-2.73,0-5.57-.64-6.67,3.38-.33,1.22-3.19,2.42-4.91,2.45-4.8.1-9.61-.44-14.41-.7-6.41-.35-12.82-.75-19.24-1-2.44-.08-4.8.74-6.3-2.49-.52-1.11-3.34-1.61-5.12-1.62-24.16-.1-48.33-.19-72.49,0-4.63,0-7.29-1-7.62-5.94-.21-3.14-.84-6.28-.84-9.42q-.08-83,0-166c0-8.92-.78-9.68-9.7-9.69-12.52,0-12.52,0-12.52,12.49v401c0,10.73.65,11.39,11.24,11.38,1.67,0,3.34,0,5-.07,3.69-.24,5.9-2,5.94-6v-5.5q0-93.74,0-187.48c0-1.83-.07-3.67.06-5.5.46-6.46,4.16-10.23,10.58-10.24q53.74-.11,107.49.06c1.48,0,4.21,1.41,4.19,2.09-.07,2.19-1.17,4.35-1.86,6.53-1.19-.4-3.16-.5-3.45-1.25-1.77-4.56-5.27-3.2-7.63-1.73-6.57,4.1-13.63,4.86-21,4.32-1.07-.08-2.79-.62-3-1.34-1.67-5.13-5.82-3.93-9.46-3.94h-62c-8.11,0-9.1,1-9.1,9.32V465.49c0,2,.06,4-.06,6-.35,5.76-3.77,9.31-9.47,9.58-4.16.19-8.34.19-12.49,0-5.27-.23-8.69-3.36-9.45-8.56a45.57,45.57,0,0,1-.23-6.49V62.56a28.24,28.24,0,0,1,.22-6A14.46,14.46,0,0,1,1026,50.8c4.41-5.48,22.72-5.45,26.64.3,1.71,2.51,2.33,6.2,2.34,9.36q.2,80,.1,160,0,5.75,0,11.5c0,4.13,1.43,6.24,6.21,6.23q98.49-.2,197-.14c2.3,0,4.94,0,6.8-1s3.16-3.33,4.07-5.36c.62-1.39.15-3.28.15-4.95V62.26c0-12.22,2.79-15,15-15,2.17,0,4.34-.09,6.5.06,6.39.42,10,4.18,10.21,10.62V466.4c0,1.67,0,3.34,0,5-.32,6-3.81,9.58-9.77,9.83q-6,.24-12,0c-5.74-.23-9.19-3.56-9.8-9.33a57.64,57.64,0,0,1-.12-6v-189c0-9.64-.47-10.1-10.24-10.1Z"/><path fill="#ebc93d" class="cls-9" d="M1001.76,262.33V36.86c0-11.94,2.67-14.57,14.79-14.58h47c10.17,0,13.37,3.31,13.37,13.59v171c0,8.65.71,9.35,9.44,9.35q60,0,120,.07c1.84,0,4.58.43,5.26,1.61s-.07,3.86-.9,5.51c-.3.59-2.75.51-4,.11-1.57-.5-2.92-2.36-4.4-2.4a185.58,185.58,0,0,0-41.65,3.4c-6.91,1.35-14.23.66-21.36.85-.46,0-1.22-.18-1.34-.48-2.46-6.15-7.8-3.72-12-3.8-13.83-.24-27.66-.07-41.49-.1-8.9,0-12.34-3.46-12.34-12.49V37c0-9.23-.75-10-10-10h-45.51c-9.38,0-10.39,1-10.39,10.2v449c0,2.17-.06,4.34.1,6.5.26,3.49,2.1,5.59,5.74,5.6h52.49c3.65,0,5.39-2.19,5.42-5.79V304c0-11,3-14,13.88-14q33.24,0,66.49.07c1.48,0,4,.62,4.23,1.48a9.67,9.67,0,0,1-.56,5.69c-.18.51-3.55.5-3.59.32-.71-3.36-3.3-2.78-5.53-2.78h-62c-6.94,0-8.07,1.18-8.07,8.23q0,92.24,0,184.47c0,1.83.07,3.67,0,5.5-.4,6.18-4.06,10-10.19,10q-26.5.17-53,0c-6,0-9.48-3.69-9.83-9.72-.13-2.16-.06-4.33-.06-6.5Q1001.75,374.56,1001.76,262.33Z"/><path fill="#ebc93d" class="cls-10" d="M1231.64,221l-4.91,4.65c-1-2.18-2.45-4.3-2.81-6.58-.11-.71,2.6-2.54,4.15-2.7a112.6,112.6,0,0,1,11.48-.15c7.93,0,8.78-.88,8.79-9V36.75c0-11.47,3-14.45,14.57-14.46h43c11.79,0,14.73,2.94,14.73,14.83q0,167.22,0,334.43,0,58,0,116a47.19,47.19,0,0,1-.32,7c-.78,5.19-4.24,8.47-9.5,8.51q-27.24.2-54.49,0c-5.67,0-9.31-3.6-9.93-9.22a54.68,54.68,0,0,1-.13-6V305.38c0-10.26-.31-10.56-10.78-10.56-8.83,0-17.67-.19-26.49,0-10,.27-19.92.87-29.87,1.45-1.44.08-2.83.86-4.26,1.25-1.71.47-4.5,1.7-5,1.13-1.32-1.68-2.47-4.17-2.24-6.18.19-1.69,2.11-3.8,3.79-4.55s4.25-.5,6.37-.28c6.74.69,13.44,2.07,20.19,2.27,13,.37,26,.11,39,.11,11.15,0,14,2.79,14,13.77v184c0,10.19.42,10.59,10.81,10.6h45.49c7.28,0,8.59-1.26,8.59-8.32V35.66c0-7-1.55-8.54-8.49-8.55h-44c-9.44,0-10.37.9-10.37,10.16v170c0,11.15-2.69,13.81-13.87,13.82Z"/><path fill="#ebc93d" class="cls-11" d="M579.09,261.45V485.86c0,11.5-2.63,14.14-14.06,14.15H522.54c-11.69,0-14.54-2.78-14.54-14.34V36.84c0-11.57,3-14.54,14.47-14.56h44c9.28,0,12.63,3.44,12.63,12.74Q579.1,148.24,579.09,261.45ZM512.88,261V485.46c0,9.15.59,9.76,9.53,9.77H564.9c8.76,0,9.44-.67,9.44-9.34V36.48c0-8.53-.89-9.4-9.5-9.4h-42c-9.2,0-10,.77-10,10Q512.87,149,512.88,261Z"/><path fill="#ebc93d" class="cls-12" d="M790.56,219.35H860c10.82,0,13.88,3.16,13.89,14.07v49c0,1.49.24,3.26-.47,4.35-.45.69-2.47.47-3.77.41-.26,0-.48-1.14-.7-1.77-3.4-10-3.4-10-14.07-10-37.82,0-75.64-.18-113.45.1-12.71.1-14.41-6.81-13.24-16.36.63-5.18,4.78-8.09,10.91-8.11h112c5.69,0,8-2.29,7.7-7.35-.18-3.72-2-5.9-5.81-6.2-1.33-.11-2.66-.11-4-.11H736.57c-8.85,0-9.71.9-9.75,9.72a79.63,79.63,0,0,1-.24,9.48c-.7,5.63-5,9.2-10.19,8.94a9.65,9.65,0,0,1-9.3-9.84c-.19-8.49-.16-17,0-25.49.1-6.59,3.53-10.26,10.09-10.64,5.15-.3,10.32-.14,15.49-.14Zm78.57,52.31V233.81c0-8.76-1-9.71-9.76-9.71H717.87c-3.67,0-6.05,1.85-6.08,5.76-.07,8.5-.3,17,.21,25.48.11,1.89,2.76,4.74,4.66,5.14,3.21.68,5.1-2,5.24-5.24.17-3.83,0-7.66.1-11.5.13-7.22,3.58-10.91,10.71-10.93q60-.1,120,0c6.89,0,10.35,3.73,10.52,10.59.19,7.68-3.06,11.67-10,12.19-1.82.14-3.66.07-5.5.07h-107c-6.73,0-8,1.36-7.92,7.85.08,5.8,1.64,7.26,8.15,7.26H857.45c3.55.13,7.21.59,11.67.89Z"/><path fill="#000" class="cls-1" d="M145.25,786V740.62c11.79,0,23.47-.93,34.92.25,13,1.34,19.33,10.4,18.78,23.82-.51,12.42-8,20-20.8,21.18-2.48.22-5,.15-7.49.16C162.35,786,154,786,145.25,786Z"/><path fill="#000" class="cls-1" d="M145.29,734.76v-36c10.52,0,20.87-.81,31,.23s15,8.33,14.44,18.77c-.55,10.72-5.74,16.45-16.39,17C164.9,735.11,155.4,734.76,145.29,734.76Z"/><path fill="#000" class="cls-1" d="M66.53,766.72H16.71l25-63.34Z"/><path fill="#000" class="cls-1" d="M1320.71,787.22c-14.34-.07-24.66-10.92-24.53-25.8s10.56-25.5,25-25.4c14,.09,23.9,10.81,23.8,25.85S1334.94,787.29,1320.71,787.22Z"/><path fill="#000" class="cls-1" d="M475.28,787.22c-14.21,0-24.11-10.38-24.18-25.45S461,736.09,475,736c14.38-.07,24.82,10.63,24.87,25.51S489.67,787.18,475.28,787.22Z"/><path fill="#000" class="cls-1" d="M1570.86,757.94h-45.58c-.57-11.46,9.6-21.63,21.74-22C1560.93,735.55,1570.67,744.38,1570.86,757.94Z"/><path fill="#000" class="cls-1" d="M1418.31,757.91h-45.79c.2-12.26,10-21.79,22.49-22C1408.64,735.74,1417.82,744.3,1418.31,757.91Z"/><path fill="#000" class="cls-1" d="M650.76,757.91h-45.3c-1-11.07,9.44-21.6,21.64-22C641,735.54,651.26,744.9,650.76,757.91Z"/><path fill="#000" class="cls-1" d="M250.49,787.23c-14.49,0-24.83-10.59-24.91-25.52S236,736.07,250.37,736s24.76,10.56,24.78,25.57S265,787.23,250.49,787.23Z"/><path  fill="#ef2f2f" d="M512.88,261V37c0-9.21.77-10,10-10h42c8.61,0,9.5.88,9.5,9.4V485.81c0,8.68-.68,9.34-9.44,9.34H522.41c-8.93,0-9.53-.62-9.53-9.77Q512.87,373.22,512.88,261Zm46.85,3.35v-201c0-2,.08-4-.08-6-.5-6.2-4.07-9.74-10.27-10.08-3.16-.17-6.33-.09-9.5,0-8.7.11-12.08,3.47-12.09,12.19q-.06,37.25,0,74.49a11.37,11.37,0,0,0,.17,3.47,9.41,9.41,0,0,0,1.9,2.48c.77-.88,1.93-1.65,2.22-2.67a16.45,16.45,0,0,0,.18-4.47V66.27c0-14.35,0-14.35,14.29-14.24,7,0,8.45,1.44,8.45,8.54q0,203.68,0,407.43a12.2,12.2,0,0,1-.18,4c-2.89,8-9.84,4-15.08,4.75-3.87.55-7-1.06-7.36-5.54-.18-2-.11-4-.11-6q0-152-.09-304c0-2.5-1.26-5-1.94-7.51-4.38,1.36-2.36,5-2.36,7.56q-.18,153-.1,306c0,1.67-.05,3.34.09,5,.46,5.24,3.77,8.66,9,8.92,4.49.22,9,.21,13.49,0,5-.24,8.32-3.33,9.1-8.34a42.1,42.1,0,0,0,.26-6.48q0-101,0-202Z"/><path  fill="#ef2f2f" d="M869.12,271.66c-4.46-.3-8.08-.76-11.7-.76q-58.24-.08-116.49,0c-6.51,0-8.06-1.46-8.15-7.26-.09-6.49,1.19-7.84,7.92-7.85h107c1.83,0,3.67.07,5.5-.07,7-.52,10.22-4.51,10-12.19-.17-6.86-3.63-10.58-10.52-10.59q-60-.11-120,0c-7.13,0-10.58,3.71-10.71,10.93-.07,3.83.07,7.67-.1,11.5-.15,3.25-2,5.92-5.24,5.24-1.9-.4-4.55-3.26-4.66-5.14-.51-8.47-.28-17-.21-25.48,0-3.91,2.36-5.69,6.08-5.76s7.33,0,11,0H859.36c8.8,0,9.76,1,9.76,9.71Q869.14,252.76,869.12,271.66Z"/><path fill="#ebc93d" class="cls-13" d="M559.72,264.34v202a42.1,42.1,0,0,1-.26,6.48c-.79,5-4.09,8.1-9.1,8.34-4.49.21-9,.22-13.49,0-5.23-.26-8.55-3.68-9-8.92-.14-1.66-.09-3.33-.09-5q0-153,.1-306c0-2.52-2-6.2,2.36-7.56.67,2.5,1.94,5,1.94,7.51q.15,152,.09,304c0,2-.07,4,.11,6,.41,4.48,3.49,6.09,7.36,5.54C545,476,551.91,480,554.8,472a12.2,12.2,0,0,0,.18-4V60.55c0-7.1-1.42-8.49-8.45-8.54-14.29-.11-14.29-.11-14.29,14.24q0,33.25,0,66.49a16.45,16.45,0,0,1-.18,4.47c-.3,1-1.45,1.79-2.22,2.67a9.41,9.41,0,0,1-1.9-2.48,11.37,11.37,0,0,1-.17-3.47V59.44c0-8.72,3.4-12.07,12.09-12.19,3.17,0,6.34-.13,9.5,0,6.2.34,9.77,3.88,10.27,10.08.16,2,.08,4,.08,6Q559.72,163.85,559.72,264.34Z"/></svg>