<svg id="logo-zedwell" class="logo" xmlns="http://www.w3.org/2000/svg" viewBox="0 0 242.38 58.64"><path fill="#000000" d="M156.3,39.53a3.29,3.29,0,0,0-.25.77L155.9,42l-.18-1.74a4.33,4.33,0,0,0-.28-.81l-7.91-18.23h-4.65L135,39.53a2.45,2.45,0,0,0-.26.77l-.17,1.76-.17-1.76a3.73,3.73,0,0,0-.24-.77l-7.19-18.27h-6.87v.68l11.19,29.81h5s6.59-14.14,8.67-18.94a2.8,2.8,0,0,0,.1-.37l.15-1.72.15,1.73a3.45,3.45,0,0,0,.1.36c2.07,4.72,8.67,18.94,8.67,18.94h5l11.19-29.81v-.68h-6.87Z"/><path fill="#000000" d="M190.83,20.6c-9.83,0-16.41,6.3-16.41,15.79S181,52.23,190.94,52.23c4.6,0,9.65-1.48,12.66-3.75V42.63h-.49a16.67,16.67,0,0,1-10.35,3.64c-6,0-10.28-3.07-11.19-7.9h23.34V35.7C204.91,26.62,199.29,20.6,190.83,20.6Zm-9,12.49a8.64,8.64,0,0,1,8.69-6.53c4.31,0,7.27,2.56,7.61,6.53Z"/><path fill="#000000" d="M106.31,26.56c-1.82-3.52-6-6-10.73-6-8.58,0-14.26,6.3-14.26,15.79S87,52.23,95.58,52.23c5,0,9.48-2.78,11.07-6.7v6.13h6.59V8.5h-6.93Zm0,14.13a9.75,9.75,0,0,1-8.41,5.58c-5.62,0-9.42-4-9.42-9.88s3.8-9.83,9.42-9.83c3.47,0,7.35,2.64,8.41,5.52Z"/><path fill="#000000" d="M60.33,20.6c-9.82,0-16.41,6.3-16.41,15.79s6.59,15.84,16.53,15.84c4.6,0,9.65-1.48,12.66-3.75V42.63h-.49a16.7,16.7,0,0,1-10.36,3.64c-6,0-10.27-3.07-11.18-7.9H74.42V35.7C74.42,26.62,68.8,20.6,60.33,20.6Zm-9,12.49A8.64,8.64,0,0,1,60,26.56c4.32,0,7.27,2.56,7.61,6.53Z"/><rect fill="#000000" x="211.85" y="8.5" width="6.93" height="43.16"/><rect fill="#000000" x="227.28" y="8.5" width="6.93" height="43.16"/><path fill="#000000" d="M26.71,21.17H8.44v5.68H24.66a1.67,1.67,0,0,0,.89-.17c.17-.09,1.09-.77,1.09-.77L7.43,51h0v.68H37.49V46H20.28a1.7,1.7,0,0,0-.9.17c-.16.09-1.09.77-1.09.77l19.2-25.07v-.68H26.71Z"/><rect fill="none" x="-105.92" y="-26.31" width="113.35" height="113.35"/><rect fill="none" x="7.47" y="-26.31" width="113.35" height="113.35"/><rect fill="none" x="120.87" y="-26.31" width="113.35" height="113.35"/><rect fill="none" x="234.26" y="-26.31" width="113.35" height="113.35"/></svg>