<svg xmlns="http://www.w3.org/2000/svg" xmlns:xlink="http://www.w3.org/1999/xlink" version="1.1" class="icons icon-date" id="icon-date" x="0" y="0" width="448" height="409.7" viewBox="0 0 448 409.7" enable-background="new 0 0 448 409.7" xml:space="preserve"><path d="M398.8 409.7H49.2C21.6 409.7 0 389.4 0 363.1V64.4c0-25.2 20.3-41.7 49.2-41.7h349.6c28.9 0 49.2 16.5 49.2 41.7v298.7C448 389.4 426.4 409.7 398.8 409.7M49.2 38.7C33 38.7 16 44.3 16 64.4v298.7c0 18.1 13.8 32.6 33.2 32.6h349.6c19.4 0 33.2-14.5 33.2-32.6V64.4c0-20.1-17-25.7-33.2-25.7H49.2z"/><path d="M291 59.5c-4.1 0-8-3.3-8-7.4V7.4c0-4.1 3.9-7.4 8-7.4s8 3.3 8 7.4v44.6C299 56.2 295.1 59.5 291 59.5"/><path d="M359 164.3c0 4.1-3.3 7.4-7.4 7.4h-45.1c-4.1 0-7.4-3.3-7.4-7.4v-45.1c0-4.1 3.3-7.4 7.4-7.4h45.1c4.1 0 7.4 3.3 7.4 7.4V164.3zM313 157.7h30v-31h-30V157.7z"/><path d="M359 343.3c0 4.1-3.3 7.4-7.4 7.4h-45.1c-4.1 0-7.4-3.3-7.4-7.4v-45.1c0-4.1 3.3-7.4 7.4-7.4h45.1c4.1 0 7.4 3.3 7.4 7.4V343.3zM313 334.7h30v-30h-30V334.7z"/><path d="M359 254.3c0 4.1-3.3 7.4-7.4 7.4h-45.1c-4.1 0-7.4-3.3-7.4-7.4v-45.1c0-4.1 3.3-7.4 7.4-7.4h45.1c4.1 0 7.4 3.3 7.4 7.4V254.3zM313 246.7h30v-31h-30V246.7z"/><path d="M151 164.3c0 4.1-3.3 7.4-7.4 7.4H98.4c-4.1 0-7.4-3.3-7.4-7.4v-45.1c0-4.1 3.3-7.4 7.4-7.4h45.1c4.1 0 7.4 3.3 7.4 7.4V164.3zM105 157.7h30v-31h-30V157.7z"/><path d="M254 164.3c0 4.1-3.3 7.4-7.4 7.4h-45.1c-4.1 0-7.4-3.3-7.4-7.4v-45.1c0-4.1 3.3-7.4 7.4-7.4h45.1c4.1 0 7.4 3.3 7.4 7.4V164.3zM210 157.7h28v-31h-28V157.7z"/><path d="M156.5 59.5c-4.1 0-7.5-3.3-7.5-7.4V7.4c0-4.1 3.4-7.4 7.5-7.4s7.5 3.3 7.5 7.4v44.6C164 56.2 160.6 59.5 156.5 59.5"/><path d="M151 254.3c0 4.1-3.3 7.4-7.4 7.4H98.4c-4.1 0-7.4-3.3-7.4-7.4v-45.1c0-4.1 3.3-7.4 7.4-7.4h45.1c4.1 0 7.4 3.3 7.4 7.4V254.3zM105 246.7h30v-31h-30V246.7z"/><path d="M254 343.3c0 4.1-3.3 7.4-7.4 7.4h-45.1c-4.1 0-7.4-3.3-7.4-7.4v-45.1c0-4.1 3.3-7.4 7.4-7.4h45.1c4.1 0 7.4 3.3 7.4 7.4V343.3zM210 334.7h28v-30h-28V334.7z"/><path d="M254 254.3c0 4.1-3.3 7.4-7.4 7.4h-45.1c-4.1 0-7.4-3.3-7.4-7.4v-45.1c0-4.1 3.3-7.4 7.4-7.4h45.1c4.1 0 7.4 3.3 7.4 7.4V254.3zM210 246.7h28v-31h-28V246.7z"/><path d="M151 343.3c0 4.1-3.3 7.4-7.4 7.4H98.4c-4.1 0-7.4-3.3-7.4-7.4v-45.1c0-4.1 3.3-7.4 7.4-7.4h45.1c4.1 0 7.4 3.3 7.4 7.4V343.3zM105 334.7h30v-30h-30V334.7z"/></svg>