<svg id="lakehouse-logo" class="logo" xmlns="http://www.w3.org/2000/svg" viewBox="0 0 512 215"><path d="M9.88,75.43V75c2.33,0,4.48.45,7.17.45,3.05,0,5.47-.45,8.07-.45v.45c-2.69,0-5.82.09-5.82,4.48v54.25c0,2.87,2.51,2.87,4.39,2.87H34c4.93,0,6.64-3.05,8.7-7.08l.45.17L39,138.64c-1.88-.18-5.47-.45-11.65-.45h-3c-9.87,0-12.74.45-14.53.45v-.45c2.24,0,4.93-.44,4.93-4.48V79.91C14.81,75.52,12.12,75.43,9.88,75.43Z"/><path d="M83.32,110.94H62.25l-9.06,22.95c-1.61,4.13,2.69,4.3,5.56,4.3v.45c-2.06,0-5.11-.45-7.62-.45s-4.84.45-6.63.45v-.45a7,7,0,0,0,7-4.48L72.2,82.6c-2-6-5-7.08-8.6-7.17V75c1.79,0,6.18.45,10.4.45l22.86,58.28c1.62,4,4.4,4.48,6.19,4.48v.45c-1.79,0-3.59-.45-7.44-.45-3.59,0-6.28.45-8.16.45v-.45c2.24,0,6.27-.35,4.66-4.48Zm-.45-1.17-10-25.65L62.7,109.77Z"/><path d="M113.81,79.91c0-4.39-2.69-4.48-4.93-4.48V75c2.33,0,4.49.45,7.18.45s4.84-.45,7.17-.45v.45c-2.24,0-4.93.09-4.93,4.48V104c0,.54,0,.9.45.9a1.93,1.93,0,0,0,1.07-.63L144.3,79.73c2.42-2.42,2.42-4.12-3.85-4.3V75c2.86,0,4.21.45,7.89.45,3.13,0,6-.45,7.53-.45v.45a14.34,14.34,0,0,0-8.34,3.14c-1.88,1.52-16.77,16.67-23.67,23.58-.72.72-.9,1-.9,1.25s0,.45.72,1.26c5.11,5.74,24.66,28.24,27.08,30.58a10.66,10.66,0,0,0,7.8,2.95v.45c-2.6,0-5.2-.45-9.06-.45-3.41,0-6.1.45-8.79.45v-.45c3.5-.09,5.83-.44,3.77-3.13-2.24-2.87-20.8-24-24.84-28.34-.45-.45-.63-.72-1-.72s-.36.36-.36.63v27.08c0,4,2.69,4.48,4.93,4.48v.45c-2.33,0-4.48-.45-7.17-.45s-4.85.45-7.18.45v-.45c2.24,0,4.93-.44,4.93-4.48Z"/><path d="M169.32,79.91c0-4.39-2.69-4.48-4.93-4.48V75c1.7,0,4,.45,7.17.45h10.32A106.12,106.12,0,0,0,193.35,75l1.08,8.43h-.54c-.81-5.29-2-6.82-6.46-6.82H176c-1.53,0-2.15.45-2.15,2.15v26.91H188.6c3.5,0,4.21-3,4.21-5.65h.54c0,1.79-.45,4-.45,6,0,2.51.45,4.58.45,6.37h-.54c0-2.69-.62-5.56-4.21-5.56H173.81v27.35c0,2.87,2.51,2.87,4.39,2.87h10.31c4.84,0,6.64-2.87,8.61-6.73l.45.18-4,8.16c-1.88-.18-5.47-.45-11.65-.45h-3c-9.87,0-12.74.45-14.53.45v-.45c2.24,0,4.93-.44,4.93-4.48Z"/><path d="M234.34,105.65H276V79.91c0-4.39-2.69-4.48-4.93-4.48V75c2.33,0,4.48.45,7.17.45s4.84-.45,7.18-.45v.45c-2.25,0-4.94.09-4.94,4.48v53.8c0,4,2.69,4.48,4.94,4.48v.45c-2.34,0-4.49-.45-7.18-.45s-4.84.45-7.17.45v-.45c2.24,0,4.93-.44,4.93-4.48v-26.9H234.34v26.9c0,4,2.68,4.48,4.93,4.48v.45c-2.34,0-4.49-.45-7.18-.45s-4.84.45-7.17.45v-.45c2.24,0,4.93-.44,4.93-4.48V79.91c0-4.39-2.69-4.48-4.93-4.48V75c2.33,0,4.48.45,7.17.45s4.84-.45,7.18-.45v.45c-2.25,0-4.93.09-4.93,4.48Z"/><path d="M294.42,106.81a32.28,32.28,0,1,1,32.28,32.28A32.26,32.26,0,0,1,294.42,106.81Zm33.8,31.29c14.71,0,26.1-12.64,26.1-29.14,0-17.48-12.65-33.44-29.14-33.44-14.71,0-26.1,12.64-26.1,29.14C299.08,122.14,311.72,138.1,328.22,138.1Z"/><path d="M424,138.19v.45c-1.34,0-3.76-.45-5.65-.45a17.64,17.64,0,0,0-3.76.27V128.6c-4.48,5-10.94,10.49-20.89,10.49-12.47,0-20.81-8.43-20.81-23.31V79.91c0-4.39-2.69-4.48-4.93-4.48V75c2.33,0,4.49.45,7.18.45S380,75,382.3,75v.45c-2.24,0-4.93.09-4.93,4.48v36.85c0,12.65,7.08,20,18.56,20,9.05,0,14.17-4.3,18.65-9.51V79.91c0-4.39-2.69-4.48-4.93-4.48V75c2.33,0,4.48.45,7.17.45S421.66,75,424,75v.45c-2.24,0-4.93.09-4.93,4.48v54C419.06,137.93,422.2,138.19,424,138.19Z"/><path d="M449.65,74.53c5.82,0,9.68,2.15,11.29,3.59v8.07h-.53a12.22,12.22,0,0,0-12.2-10.76,11.45,11.45,0,0,0-11.93,11.65c0,5.29,3,8.88,13.72,17.13,9.87,7.53,13.27,13.09,13.27,19.91,0,10.31-9.23,15-17.21,15-6.46,0-11.75-2.78-13.09-3.94v-8.7h.54c.62,6.36,6.63,11.74,13.18,11.74,8.43,0,14.16-5.11,14.16-12.19,0-5.83-3.31-10.13-15-19.28-9.24-7.17-11.75-12.28-11.75-18.2C434.13,80.9,440,74.53,449.65,74.53Z"/><path d="M477.18,79.91c0-4.39-2.69-4.48-4.94-4.48V75c1.71,0,3.95.45,7.18.45h10.31A106.2,106.2,0,0,0,501.21,75l1.07,8.43h-.54c-.8-5.29-2-6.82-6.45-6.82H483.81c-1.52,0-2.15.45-2.15,2.15v26.91h14.79c3.5,0,4.22-3,4.22-5.65h.54c0,1.79-.45,4-.45,6,0,2.51.45,4.58.45,6.37h-.54c0-2.69-.63-5.56-4.22-5.56H481.66v27.35c0,2.87,2.51,2.87,4.39,2.87h10.32c4.84,0,6.63-2.87,8.6-6.73l.45.18-4,8.16c-1.89-.18-5.47-.45-11.66-.45h-3c-9.86,0-12.73.45-14.53.45v-.45c2.25,0,4.94-.44,4.94-4.48Z"/><path d="M234.72,23.54c2.08,0,2.41-.42,2.41-2.93V10h-3.26c-2.3,0-2.55.57-2.9,1.9l-.12.5h-.53l.22-3.38h15.17l.23,3.38h-.53l-.13-.5c-.35-1.33-.6-1.9-2.9-1.9h-3.25V20.61c0,2.51.32,2.93,2.4,2.93v.53h-6.81Z"/><path d="M250.24,23.54c2.08,0,2.38-.42,2.38-2.93V12.48c0-2.5-.3-2.9-2.38-2.9V9.05H257v.53c-2.08,0-2.38.4-2.38,2.9v3.15h8.49V12.48c0-2.5-.33-2.9-2.41-2.9V9.05h6.81v.53c-2.1,0-2.4.4-2.4,2.9v8.13c0,2.51.3,2.93,2.4,2.93v.53H260.7v-.53c2.08,0,2.41-.42,2.41-2.93V16.56h-8.49v4.05c0,2.51.3,2.93,2.38,2.93v.53h-6.76Z"/><path d="M272.52,23.54c2.08,0,2.38-.42,2.38-2.93V12.48c0-2.5-.3-2.9-2.38-2.9V9.05h11.41l.23,3.3h-.53l-.12-.5c-.35-1.3-.6-1.87-2.9-1.87H276.9v5.68h1.25c2.51,0,2.91-.3,2.91-2.4h.52V19h-.52c0-2.11-.4-2.41-2.91-2.41H276.9v3.66c0,2.5.3,2.9,2.38,2.9h2.15c2.3,0,2.58-.57,2.9-1.9l.13-.5H285l-.2,3.33H272.52Z"/><path d="M128.55,197.06a8.36,8.36,0,1,1,8.36,7.94A8.18,8.18,0,0,1,128.55,197.06Zm14.32,0c0-3.1-1.65-6.95-6-6.95s-6,3.85-6,6.95,1.65,6.94,6,6.94S142.87,200.17,142.87,197.06Z"/><path d="M153.74,192.41v8.71c0,2.5.32,2.93,2.4,2.93v.52h-5.71v-.52c2.08,0,2.38-.43,2.38-2.93V193c0-2.5-.3-2.9-2.38-2.9v-.53H154l9.61,11.92V193c0-2.5-.3-2.9-2.38-2.9v-.53h5.71v.53c-2.08,0-2.4.4-2.4,2.9v12h-.58Z"/><path d="M181.5,197.06a7.83,7.83,0,0,1,7.68-7.93,6.38,6.38,0,0,1,4.65,2.13,2.51,2.51,0,0,0,.85-1.43h.5v5.51h-.5c-.7-3.26-2.62-5.23-5.4-5.23-4,0-5.46,3.85-5.46,6.95s1.45,6.94,5.46,6.94c2.78,0,4.7-2,5.4-5.21h.5v5.51h-.5a2.48,2.48,0,0,0-.85-1.43,6.45,6.45,0,0,1-4.65,2.13A7.84,7.84,0,0,1,181.5,197.06Z"/><path d="M199.22,204.05c2.1,0,2.23-.43,3-2.18l5.51-12.74h.32l5.53,12.74c.78,1.75.9,2.18,3,2.18v.52h-6.93v-.52c2.08,0,2.55-.53,2-1.91l-1.2-2.78h-6.06l-1.2,2.78c-.6,1.35-.12,1.91,1.95,1.91v.52h-5.85ZM210,198.44l-2.62-6-2.61,6Z"/><path d="M223,192.41v8.71c0,2.5.32,2.93,2.4,2.93v.52h-5.71v-.52c2.08,0,2.38-.43,2.38-2.93V193c0-2.5-.3-2.9-2.38-2.9v-.53h3.53l9.61,11.92V193c0-2.5-.3-2.9-2.38-2.9v-.53h5.71v.53c-2.08,0-2.4.4-2.4,2.9v12h-.58Z"/><path d="M238.64,204.05c2.1,0,2.23-.43,3-2.18l5.5-12.74h.33L253,201.87c.77,1.75.9,2.18,3,2.18v.52h-6.94v-.52c2.08,0,2.56-.53,1.95-1.91l-1.2-2.78h-6.05l-1.2,2.78c-.61,1.35-.13,1.91,1.95,1.91v.52h-5.86Zm10.74-5.61-2.63-6-2.6,6Z"/><path d="M262.42,192.41v8.71c0,2.5.33,2.93,2.4,2.93v.52h-5.7v-.52c2.07,0,2.37-.43,2.37-2.93V193c0-2.5-.3-2.9-2.37-2.9v-.53h3.53l9.61,11.92V193c0-2.5-.31-2.9-2.38-2.9v-.53h5.7v.53c-2.07,0-2.4.4-2.4,2.9v12h-.57Z"/><path d="M280.39,204.05c2.08,0,2.38-.43,2.38-2.93V193c0-2.5-.3-2.9-2.38-2.9v-.53h6.79c5.83,0,8.35,3.38,8.35,7.51s-2.52,7.51-8.35,7.51h-6.79Zm6.81-.41c4.88,0,5.93-3.65,5.93-6.58s-1.05-6.58-5.93-6.58h-2.43v10.26c0,2.5.28,2.9,2.33,2.9Z"/><path d="M298.42,204.05c2.1,0,2.22-.43,3-2.18l5.51-12.74h.32l5.53,12.74c.78,1.75.9,2.18,3,2.18v.52h-6.93v-.52c2.07,0,2.55-.53,1.95-1.91l-1.2-2.78h-6.06l-1.2,2.78c-.6,1.35-.12,1.91,1.95,1.91v.52h-5.85Zm10.73-5.61-2.63-6-2.6,6Z"/><path d="M318.89,204.05c2.08,0,2.38-.43,2.38-2.93V193c0-2.5-.3-2.9-2.38-2.9v-.53h6.76v.53c-2.08,0-2.38.4-2.38,2.9v8.14c0,2.5.3,2.93,2.38,2.93v.52h-6.76Z"/><path d="M331,197.06a7.83,7.83,0,0,1,7.68-7.93,6.38,6.38,0,0,1,4.65,2.13,2.51,2.51,0,0,0,.85-1.43h.51v5.51h-.51c-.67-3.26-2.62-5.23-5.42-5.23-4,0-5.46,3.85-5.46,6.95s1.3,6.86,5.93,6.86c2.18,0,4.13-1.18,4.13-3.43,0-1.07-.63-1.63-2.35-1.63v-.5h6.55v.5c-2.07,0-2.37.43-2.37,2.93v1.9c-2.78,0-3.91,1.31-6.51,1.31A7.84,7.84,0,0,1,331,197.06Z"/><path d="M353.71,199v-6c0-2.5-.3-2.9-2.38-2.9v-.53h6.76v.53c-2.08,0-2.38.4-2.38,2.9v6.13c0,3.26,1.88,4.76,4.38,4.76s4.61-1.5,4.61-4.76V193c0-2.5-.33-2.9-2.41-2.9v-.53h5.86v.53c-2.08,0-2.4.4-2.4,2.9v6a6,6,0,0,1-12,0Z"/><path d="M369.4,204.05c2.11,0,2.23-.43,3-2.18l5.5-12.74h.33l5.53,12.74c.78,1.75.9,2.18,3,2.18v.52h-6.93v-.52c2.07,0,2.55-.53,1.95-1.91l-1.2-2.78h-6.06l-1.2,2.78c-.6,1.35-.13,1.91,1.95,1.91v.52H369.4Zm10.74-5.61-2.63-6-2.6,6Z"/></svg>