<svg id="annapolis-logo" class="logo" xmlns="http://www.w3.org/2000/svg" viewBox="0 0 651.904 147.819"><path d="M224.832,49.412h-3.785V26.5h-33.19V49.412h-3.852V1.42h3.852V23.185h33.19V1.42h3.785Z" fill="#001b71"/><path d="M249.423,25.415C249.423,9.4,259.765,0,274.231,0s24.738,9.4,24.738,25.415c0,15.953-10.274,25.416-24.738,25.416S249.423,41.3,249.423,25.415Zm45.559,0c0-13.923-8.517-22.1-20.751-22.1s-20.752,8.179-20.752,22.1c0,13.79,8.517,22.1,20.752,22.1S294.982,39.273,294.982,25.415Z" fill="#001b71"/><path d="M357.156,4.665H338.634V49.412h-3.785V4.665H316.327V1.42h40.829Z" fill="#001b71"/><path d="M415.544,46.167v3.245h-36.23V1.42H415.07V4.665h-31.9v18.52h30.757V26.43H383.165V46.167Z" fill="#001b71"/><path d="M442.165,1.42h3.851V46.167H476.1v3.245H442.165Z" fill="#001b71"/><path d="M45.577,131.363h-30.9L8.308,146.206H0L26.136,88.932h7.986l26.136,57.274H51.95Zm-2.823-6.615L34.2,104.742a54.973,54.973,0,0,1-4.034-8.873h-.161a47.957,47.957,0,0,1-3.953,8.873L17.5,124.748Z" fill="#001b71"/><path d="M86.63,88.932h9.6l31.7,42.35a26.4,26.4,0,0,1,3.63,6.453h.16c-.079-2.178-.079-4.275-.079-7.26V88.932h7.1v57.274h-9.115L97.439,103.371A28.918,28.918,0,0,1,93.809,97h-.161c.08,2.1.08,4.195.08,7.1v42.109h-7.1Z" fill="#001b71"/><path d="M172.13,88.932h9.6l31.7,42.35a26.366,26.366,0,0,1,3.63,6.453h.161c-.08-2.178-.08-4.275-.08-7.26V88.932h7.1v57.274h-9.115l-32.187-42.835A28.912,28.912,0,0,1,179.309,97h-.161c.08,2.1.08,4.195.08,7.1v42.109h-7.1Z" fill="#001b71"/><path d="M296.189,131.363h-30.9l-6.373,14.843h-8.309l26.137-57.274h7.985l26.136,57.274h-8.309Zm-2.823-6.615-8.551-20.006a54.961,54.961,0,0,1-4.033-8.873h-.162a47.947,47.947,0,0,1-3.952,8.873l-8.551,20.006Z" fill="#001b71"/><path d="M384.675,106.275c0,10.729-8.229,17.586-20.975,17.586H345.148v22.345h-7.906V88.932h27.265C376.851,88.932,384.675,95.708,384.675,106.275Zm-8.31,0c0-6.615-4.92-10.729-12.905-10.729H345.148v21.7h18.231C371.364,117.247,376.365,113.051,376.365,106.275Z" fill="#001b71"/><path d="M405.8,117.569c0-18.473,12.423-30.25,30.977-30.25,18.632,0,31.057,11.777,31.057,30.25,0,18.392-12.425,30.25-31.057,30.25C418.227,147.819,405.8,135.8,405.8,117.569Zm53.724,0c0-14.44-8.792-23.635-22.747-23.635-13.875,0-22.669,9.2-22.669,23.635,0,14.2,8.794,23.636,22.669,23.636C450.736,141.205,459.528,131.927,459.528,117.569Z" fill="#001b71"/><path d="M495.661,88.932h7.907v50.5h33.718v6.777H495.661Z" fill="#001b71"/><path d="M564.141,146.206V88.932h7.907v57.274Z" fill="#001b71"/><path d="M599.471,128.863l8.066-1.373c1.938,8.147,8.148,13.8,20.249,13.8,9.518,0,15.971-2.823,15.971-10,0-6.453-4.275-8.873-12.584-10.083L618.589,119.5c-10.245-1.531-16.374-6.13-16.374-15.729,0-10.084,8.711-16.456,23.474-16.456,14.117,0,23.393,5.4,25.894,16.778l-7.907,1.936c-2.016-8.066-7.5-12.342-18.23-12.342-9.357,0-15.084,3.469-15.084,9.438,0,5.648,3.226,8.309,11.373,9.519L634,114.423c11.292,1.694,17.906,5.969,17.906,16.133,0,10-7.9,17.263-24.28,17.263C610.765,147.819,601.729,140.56,599.471,128.863Z" fill="#001b71"/></svg>