<svg xmlns="http://www.w3.org/2000/svg" id="kinsley-logo" class="logo" viewBox="0 0 228.86 54.75"><path d="M99.07.73a2.18 2.18 0 0 0-2.2 2.36 2.46 2.46 0 0 0 2.37 2.67 2.18 2.18 0 0 0 2.18-2.35A2.5 2.5 0 0 0 99.07.73z" fill="none"/><path d="M79.17 3.63a.53.53 0 0 0 0-.22.53.53 0 0 0 .22 0h2.91a.49.49 0 0 0 .21 0 .78.78 0 0 0 0 .22v2.76h.82V.11h-.82v2.46a.71.71 0 0 0 0 .21.71.71 0 0 0-.21 0h-2.94a.78.78 0 0 0-.22 0 .49.49 0 0 0 0-.21V.11h-.83v6.28h.83zM102.32 3.31a3.19 3.19 0 1 0-6.38-.09 3.14 3.14 0 0 0 3.16 3.3 3.07 3.07 0 0 0 3.22-3.21zm-3.08 2.45a2.46 2.46 0 0 1-2.37-2.67 2.18 2.18 0 0 1 2.2-2.36 2.5 2.5 0 0 1 2.35 2.68 2.18 2.18 0 0 1-2.18 2.35zM115.93.8a.51.51 0 0 0 0 .22v5.37h.83V1a.51.51 0 0 0 0-.22.53.53 0 0 0 .22 0h2V.14h-5.13v.69h1.95a.51.51 0 0 0 .13-.03zM132 5.72a.53.53 0 0 0 0-.22V3.63a.53.53 0 0 0 0-.22.56.56 0 0 0 .22 0h2.11v-.65h-2.11a.82.82 0 0 0-.22 0 .49.49 0 0 0 0-.21V1a.51.51 0 0 0 0-.22.56.56 0 0 0 .22 0h2.33V.14h-3.34v6.23h3.67l.14-.68h-2.8a.56.56 0 0 0-.22.03zM151 5.69h-2.58a.56.56 0 0 0-.22 0 .53.53 0 0 0 0-.22V.11h-.83v6.26h3.48zM18.32 18.77h-.54L1.39 37.97v-19.2H0v34.87h1.39V39.1l3.66-4.24 16.86 18.78h1.84L6.04 33.87l12.28-15.1zM35.26 19.17h5.23v34.07h-5.23v.4H47.1v-.4h-5.22V19.17h5.22v-.4H35.26v.4zM84.05 52.39L62.78 18.77h-1.39v34.87h.39V19.71l22.27 34.92h.4V18.77h-.4v33.62zM157.27 53.24h-17.29V18.77h-1.39v34.87h19.08v-8.11h-.4v7.71zM192.07 53.24h-18.62V35.38h11.39v-.4h-11.39V19.17h16.83v7.71h.4v-8.11h-18.63v34.87h20.42v-9.25h-.4v8.85zM228.36 18.77l-11.49 19.85-11.29-19.85h-1.64l11.89 20.79-.05 14.08h1.44V38.87l11.64-20.1h-.5zM121.85 38.32c-2.56-2.59-6.06-3.59-9.48-4.73a22.8 22.8 0 0 1-6.57-3.05 5.71 5.71 0 0 1-2.5-4.9 5.49 5.49 0 0 1 .76-2.81 7.9 7.9 0 0 1 2.09-2.32 10 10 0 0 1 9.26-1.61 13.37 13.37 0 0 1 2.93 1.32 8.4 8.4 0 0 1 1.83 1.46c.42.48.72.82.88 1l1.14-.69a12 12 0 0 0-1.07-.99 10.31 10.31 0 0 0-2.12-1.41 17.76 17.76 0 0 0-3.26-1.16 12 12 0 0 0-11.28 2.8c-4.55 4.45-1.21 10.14 3.51 12.44 4.06 2 9.19 2.57 12.64 5.67a7.06 7.06 0 0 1 1.91 2.66 8.09 8.09 0 0 1 .57 3.06 8.84 8.84 0 0 1-.76 3.65 8.63 8.63 0 0 1-2.21 3 10.66 10.66 0 0 1-3.54 2 12.57 12.57 0 0 1-3.38.65 11.36 11.36 0 0 1-1.65 0 16.38 16.38 0 0 1-6.32-1.94 20.25 20.25 0 0 1-2.69-1.69 8.36 8.36 0 0 1-1.11-.94c-.05 0-.63-.67-.65-.65l-1.13.83a21.2 21.2 0 0 0 2.35 1.75 18.43 18.43 0 0 0 5.66 2.47 16.69 16.69 0 0 0 9.19-.17 12.75 12.75 0 0 0 4-2.12 9.91 9.91 0 0 0 2.59-3.13 8.32 8.32 0 0 0 .92-3.83 10.93 10.93 0 0 0-.57-3.56 8 8 0 0 0-1.94-3.06z" fill="#cc202e"/></svg>