<svg id="caro-logo" class="logo" data-name="Layer 1" xmlns="http://www.w3.org/2000/svg" viewBox="0 0 431 163"><path d="M379,7c6.32,2.39,13.06,4,18.87,7.29,19.54,11.07,28.72,35.49,22.62,58.48-5.93,22.33-24.73,37.05-47.77,37.4-23.91.36-42.67-11.58-50.31-32C314.48,56.92,320.26,33,336.7,18.92A51.11,51.11,0,0,1,359.39,8,17.46,17.46,0,0,0,362,7ZM341.83,58.58c0,18,10.88,30.83,26.65,31.41,19.33.72,32.82-13.55,31.17-33-1.34-15.77-9.09-26.18-21.58-29C357.69,23.48,341.88,36.8,341.83,58.58Z"/><path d="M153,7c4.92,2,7.42,5.9,9.39,10.77C174,46.44,185.91,75,197.7,103.59c.62,1.5,1.1,3,1.88,5.23-7.22,0-13.83.14-20.43-.14-1.1-.05-2.56-1.75-3.11-3-2-4.57-3.75-9.25-5.39-14-.88-2.53-2.12-3.67-5-3.61q-14.49.3-29,0c-2.93-.06-4,1.15-4.91,3.66-1.55,4.57-3.52,9-5.11,13.54-.87,2.52-2.08,3.74-5,3.62-6-.25-12-.08-18.83-.08.75-2.06,1.26-3.68,1.91-5.24,11.82-28.77,23.74-57.5,35.43-86.32,2-4.93,4.68-8.69,9.89-10.27Zm-1.75,32.86L139.9,70.64h22.7Z"/><path d="M74,7c5,1.24,9.87,2.56,14.85,3.69,2.6.59,3.71,1.7,2.86,4.53C90.22,20.13,89,25.1,87.55,30.27c-5.38-.95-10.53-2.43-15.73-2.62-6.08-.22-12.4-.13-18.28,1.25C38.66,32.41,29.84,44.28,30.19,59,30.55,74.48,40,85.78,55.26,89c8.82,1.86,17.54,1.18,26.21-.94,1.76-.43,3.53-.81,6-1.36,1.52,6,3,11.91,4.74,18.84-6,1.38-11.68,3.23-17.5,3.93-20.75,2.5-39.89-.74-54.95-16.91C13.54,85.91,10,78,8.07,69.16A30.12,30.12,0,0,0,7,66V51a17.46,17.46,0,0,0,1-2.62c3.36-16.65,12.67-28.74,28.15-35.67C41.82,10.17,48,8.87,54,7Z"/><path d="M145,158c-8.95-4.2-12.13-9.25-10.53-16.69,1.4-6.48,6.38-10.41,13.26-10.46s12.08,3.88,13.39,10.22c1.43,7-1.4,12.8-7.58,15.62-.86.4-1.69.87-2.54,1.31Zm10-13.52c.08-5-2.68-8.36-7-8.46-4.18-.09-7,3-7.12,7.76-.15,5.34,2.26,8.44,6.7,8.63S154.91,149.54,155,144.48Z"/><path d="M174,158V131c3,0,5.92-.13,8.82,0,3.88.21,7.79.74,9.46,5s-.24,7.69-3.52,10.12L195,158h-6l-7.58-10.55-1.42.74V158Zm6.25-14.08c2.36-1.07,4.32-1.62,5.78-2.8.57-.46.46-3-.14-3.43-1.54-1-3.53-1.38-5.64-2.11Z"/><path d="M99,158V131.33h6.09v10.39h10.65V131.34H122V158h-6V146.86H105V158Z"/><path d="M308,158c3.08-8.4,6.07-16.84,9.31-25.18,1-2.48,6.5-2.86,7.42-.49,3.29,8.48,6.21,17.1,9.27,25.67h-5a10.38,10.38,0,0,1-.82-1.18c-1.48-2.84-2.22-5.68-6.89-5.57-4.35.1-5.75,2.07-7,5.33-.21.56-.88.95-1.33,1.42Zm13.7-19.08h-1.09c-.86,2.56-1.72,5.11-2.63,7.84h6.39Z"/><path d="M258,158l-6.64-3.31c1-3.45,2.38-5.14,5.78-3a5.12,5.12,0,0,0,3.29.94,4.33,4.33,0,0,0,3-2.09c.26-.78-.76-2.41-1.66-3-1.17-.82-2.78-1-4.19-1.5-3.79-1.31-5.75-4-5.32-8s3-6.58,6.77-6.85c3.28-.24,6.64.68,10.1,1.11-.56,4.6-1.92,5.67-5.47,4.25-1.4-.56-3.49.59-5.26,1,1.08,1.19,1.94,2.9,3.29,3.46,3.73,1.56,7.81,2.58,8.11,7.61s-3,7.38-6.77,9.43Z"/><path d="M75,158l-6.32-3.14c.65-3.32,1.66-5.21,5.29-3.33a8.31,8.31,0,0,0,4.23,1,2.53,2.53,0,0,0,.92-4.83A22.09,22.09,0,0,0,74.49,146c-3.61-1.24-5.47-3.83-5.21-7.56.27-3.92,2.62-6.79,6.45-7.14,3.41-.32,6.94.62,10.55,1-.72,4.55-2,5.78-5.62,4.24-1.34-.58-3.46.64-5.22,1,1.12,1.19,2,2.87,3.39,3.46,3.7,1.59,7.74,2.56,8,7.65S83.82,156,80,158Z"/><path d="M350,158c.57-10.19-5.09-18.09-10.48-26.76,3.75-.12,6.85-1.46,8.55,2.67,1.11,2.73,2.6,5.31,4,8,4.32-3.63,3-13.32,12.76-10.43-4.78,8.37-11,16.13-9.79,26.48Z"/><path d="M212,158c-.28-4.94-.59-9.87-.82-14.81-.09-2.12,0-4.26,0-6.64l-6.9-.69v-4.61h20.32V136l-6.25.35c-.45,7.29-.9,14.47-1.34,21.66Z"/><path d="M288,158V136.55l-7.44-.63c-.14-1.37-.29-2.77-.49-4.56h20.67V136l-6.39.37c-.46,7.28-.9,14.47-1.35,21.66Z"/><path d="M285.62,69.71l22.51,39.06c-8.88,0-16.93.14-25-.15-1.1,0-2.38-2.06-3.16-3.41-5.59-9.64-11.17-19.28-16.52-29.06a5.65,5.65,0,0,0-5.86-3.38c-6.62.19-13.25.06-20.35.06v35.64H214.75c-.09-1.73-.24-3.36-.25-5q0-40.74,0-81.46c0-9.4,4-13.5,13.27-13.52,14.49,0,29-.17,43.47,0,14.66.2,26.45,8.53,30.73,21.27,4.44,13.19.51,27.18-10.06,35.58C290.1,66.83,288.09,68,285.62,69.71ZM237.34,54.93c10.47,0,20.46.37,30.41-.12,7.62-.38,12.92-7.17,12.54-14.76s-5.91-12.89-13.69-13c-7.33-.13-14.66,0-22,0h-7.26Z"/></svg>