<svg xmlns="http://www.w3.org/2000/svg" viewBox="0 0 216.843 51.986" id="hubert-logo" class="logo"><path d="M37.7,18.6c-3.64,0-5.486,1.621-5.486,4.83.333,3.919.853,4.673,1.3,4.765,1.661,3.77,4.025,5.68,7.026,5.68,2.249,0,4.932-1.584,7.976-4.71l.043-.043v-.063C48.554,23.838,44.914,20.321,37.7,18.6Zm6.984,8.811c0,1.057-1.489,2.192-4.423,3.373-1.491-.592-2.852-2.411-4.051-5.41l.088-1.712c0-.887.539-1.3,1.7-1.3.135,0,.275.006.405.015C42.213,23.193,44.327,24.892,44.682,27.411Z" fill="#010101"/><path d="M70.141,22.807c0-1.395-2.6-2.072-7.965-2.072H62.17l-3.543.324-.411-1.142C56.741,10.155,55.893,8.9,55.32,8.9H54.084l-.531.743v1.634a45.507,45.507,0,0,0,1.83,9.961v.515c-4.165,1.655-6.189,3.265-6.187,4.946a6.759,6.759,0,0,0,1.421,2.652c3.348,3,6.234,4.52,8.578,4.52h.017l.016,0a3.836,3.836,0,0,0,2.416-1.991l.021-.036V31.8c0-1.385-.659-3.868-2.015-7.583l6.222-.621h3.739l.53-.743ZM53.613,27.879v-.194a2.948,2.948,0,0,0,.914-1.881l1.284-.587h.424c.127,0,.619.33,1.636,4.511h-.263C56.8,29.728,55.455,29.107,53.613,27.879Z" fill="#010101"/><path d="M76.873,33.875a22.065,22.065,0,0,0,11.635-4.792l.054-.047v-.084c.876,3.261,2.355,4.923,4.422,4.923h1.13l.48-.475-.03-.088c-2.139-6.639-3.224-12.266-3.224-16.724a53,53,0,0,1,2.16-13.1l.009-.038L93.5,3.411C92.989,1.115,92.35,0,91.552,0H89.387c-.427,0-1.426,0-2.652,16.588a40.408,40.408,0,0,0,1.434,10.605c.067.381.149.725.229,1.073h-.6l-.039.005c-6.729,1.756-10.819,2.647-12.157,2.647H74.38a1.616,1.616,0,0,1-1.123-1.707v-.245c0-2.145,1.655-4.434,4.92-6.809-1.835,2.946-2.726,4.736-2.726,5.467v.345l1.956,1.667h1c.722,0,1.093-.661,1.1-1.965,1.888-2.795,2.8-4.625,2.8-5.6V20.49l-.018-.074a3.246,3.246,0,0,0-2.939-1.938H78.077l-1.555.275-.059.024c-4.818,3.247-7.26,6.409-7.26,9.4v1.037c0,2.723,1.829,4.292,5.456,4.664h2.214Z" fill="#010101"/><path d="M145.923,21.007l-.01-.057a2.58,2.58,0,0,0-2.4-1.955h-.327l-1.174.979-.053.046v.072c0,6.88-1.467,10.369-4.36,10.369h-.749l-.776-2.041a38.916,38.916,0,0,1,1.673-7.676l0-.71L136.5,18.648l-.108.061c-.141.081-3.467,2.039-4.011,8.185v.61c0,4.613,2.041,6.952,6.066,6.952a5.619,5.619,0,0,0,3.7-1.509l2.178.589.081.021,1.794-1.629-.28-5.339Z" fill="#010101"/><path d="M159.1,18.02c-2.014,0-4.76,1.467-8.169,4.359h-.04l1.07-6.941c1.2-4.44,2.724-7.451,4.522-8.948l.054-.047V6.01l-1.7-1.956H153.1l-.863.64-.046.054c-3.409,6.86-5.137,13.265-5.137,19.041.115,2.207.8,3.4,2.044,3.548l-.7,1.065v.962c0,2.579,1.871,4.1,5.565,4.511l.02,0,1.942-.317c5.984-2.341,9.644-4.776,10.876-7.24l.015-1.928-.011-.059C165.075,20.144,162.483,18.02,159.1,18.02Zm3.626,5.8v1.119c-3.674,3.463-6.8,5.22-9.3,5.22-.417,0-1.237-.46-2.785-2.631,3.806-3.558,6.654-5.5,8.469-5.785A3.67,3.67,0,0,1,162.723,23.817Z" fill="#010101"/><path d="M197.381,21.041l.013-.064c0-1.661-1.1-2.716-3.3-3.139-1.91,0-3.9,3.211-6.087,9.818h-.079c-.28-4.6-1.045-6.831-2.34-6.831h-.945c-.749,0-1.1,1.083-1.1,3.414v1.19a14.734,14.734,0,0,0,.4,3.326c-5.6,1.432-9.07,2.163-10.277,2.163h-1.224a1.616,1.616,0,0,1-1.123-1.707v-.245c0-2.145,1.655-4.434,4.92-6.809-1.834,2.946-2.725,4.736-2.725,5.467v.345l1.955,1.667h1c.722,0,1.093-.661,1.1-1.965,1.888-2.795,2.8-4.625,2.8-5.6V20.49l-.018-.074a3.247,3.247,0,0,0-2.939-1.938h-1.28l-1.555.275-.058.024c-4.818,3.247-7.261,6.409-7.261,9.4v1.037c0,2.723,1.83,4.292,5.457,4.664h2.214a23.248,23.248,0,0,0,9.556-3.3,8.953,8.953,0,0,0,2.245,3.267l.045.038h.707L189.7,33.6l.085-.012L194.8,22.343l1.157.249.031.006.03,0C196.5,22.5,196.944,21.994,197.381,21.041Z" fill="#010101"/><path d="M208.878,20.735h-.006l-3.543.324-.411-1.142C203.443,10.155,202.6,8.9,202.022,8.9h-1.236l-.531.743v1.634a45.507,45.507,0,0,0,1.83,9.961v.515c-4.165,1.655-6.189,3.265-6.187,4.946a6.759,6.759,0,0,0,1.421,2.652c3.348,3,6.234,4.52,8.578,4.52h.017l.016,0a3.836,3.836,0,0,0,2.416-1.991l.021-.036V31.8c0-1.385-.659-3.868-2.015-7.583l6.222-.621h3.739l.53-.743v-.049C216.843,21.412,214.244,20.735,208.878,20.735Zm-8.563,7.144v-.194a2.948,2.948,0,0,0,.914-1.881l1.284-.587h.424c.127,0,.619.33,1.636,4.511h-.263C203.5,29.728,202.157,29.107,200.315,27.879Z" fill="#010101"/><path d="M103,20.729c.619,0,.71-.274.708-.422.124-.3,2.454-1.173,4.535-1.8l1.692-.471.922,6.322c.9,6.265,3.02,9.858,5.822,9.858l1.158-.328.325-.611-3.23-7.633-1.212-5.751-.347-2.455,9.191-2.311h1.4v1.411c.6,12.674,2.8,18.835,6.74,18.835h.012l.013,0c1.374-.225,1.987-.506,1.987-.911v-.041l-2.815-4.954c-1.553-4.152-1.546-11.036-1.546-11.106,0-3.05.2-5.026.58-5.875A5.612,5.612,0,0,0,131.158,9.8l.006-1.326-.006-.043c-.334-1.118-.718-1.743-1.165-1.9l.851-1.646.016-.07c0-2.672-1.005-4.025-2.988-4.025h-.305c-1.468,0-2.536,3.276-3.264,10.031,0,.814-1.913,2.072-11,3.46l-.251-.652V12.91a47.358,47.358,0,0,1,1.133-6.646,8.9,8.9,0,0,0,.392-2.509c-.109-.291-1.084-2.864-1.954-3.227l-.734-.011-.046.048c-1.3,1.386-1.932,4.911-1.932,10.777V14.9l-.219.175-.639.144c-8.382,1.873-9.962,2.24-10.037,2.726v1.11l.056.046A7.351,7.351,0,0,0,103,20.729Z" fill="#010101"/><path d="M29.343,18.355c0-3.05.2-5.026.58-5.875A5.609,5.609,0,0,0,32.141,9.8l.006-1.326-.006-.043c-.333-1.118-.717-1.743-1.164-1.9l.85-1.646.017-.07c0-2.672-1.005-4.025-2.989-4.025h-.3c-1.468,0-2.535,3.276-3.263,10.031,0,.814-1.914,2.072-11,3.46l-.251-.652V12.91a47.21,47.21,0,0,1,1.133-6.646,8.9,8.9,0,0,0,.392-2.509C15.452,3.464,14.477.891,13.607.528L12.873.517l-.046.048C11.526,1.951,10.9,5.476,10.9,11.342V14.9l-.22.175-.638.144C1.655,17.089.075,17.456,0,17.942v1.11l.055.046a7.357,7.357,0,0,0,3.931,1.631c.618,0,.71-.274.708-.422.124-.3,2.453-1.173,4.534-1.8l1.693-.471.922,6.322c.9,6.265,3.02,9.858,5.821,9.858l1.159-.328.324-.611L15.918,25.64l-1.212-5.751-.347-2.455,9.191-2.311h1.4v1.411c.6,12.674,2.8,18.835,6.739,18.835H31.7l.014,0c1.374-.225,1.987-.506,1.987-.911v-.041l-2.815-4.954C29.335,25.309,29.343,18.425,29.343,18.355Z" fill="#010101"/><path d="M84.4,51.841l-.155-.834a1.887,1.887,0,0,1-.648.625,2.368,2.368,0,0,1-1.232.354,2.567,2.567,0,0,1-1.89-.709,4.153,4.153,0,0,1-.971-3.132,4.233,4.233,0,0,1,1-3.081A2.567,2.567,0,0,1,82.4,44.3a2.525,2.525,0,0,1,1.984.847,2.222,2.222,0,0,1,.594,1.43h-.969a1.423,1.423,0,0,0-.428-.951,1.566,1.566,0,0,0-1.181-.449,1.6,1.6,0,0,0-1.242.513,3.584,3.584,0,0,0-.689,2.453,3.576,3.576,0,0,0,.648,2.464,1.522,1.522,0,0,0,1.252.5,1.616,1.616,0,0,0,1.232-.49,2.6,2.6,0,0,0,.594-1.9h-1.91v-.867h2.767v3.989Z" fill="#010101"/><path d="M90.66,48.344a1.143,1.143,0,0,0-.281-.773,1.076,1.076,0,0,0-.836-.344,1.4,1.4,0,0,0-1.212.9,3.835,3.835,0,0,0-.229,1.367v2.349h-.9V46.559h.783l.074.793a1.842,1.842,0,0,1,1.671-.931,1.791,1.791,0,0,1,1.5.773,2.011,2.011,0,0,1,.334,1.15Z" fill="#010101"/><path d="M97.355,51.915a.77.77,0,0,1-.783-.806h-.021a2.012,2.012,0,0,1-1.744.867,1.619,1.619,0,0,1-1.826-1.556,1.764,1.764,0,0,1,1.89-1.721l1.65-.095v-.387a.95.95,0,0,0-.273-.76,1.235,1.235,0,0,0-.888-.3,1.3,1.3,0,0,0-.959.324.893.893,0,0,0-.283.615h-.877a1.542,1.542,0,0,1,.492-1.084,2.337,2.337,0,0,1,1.627-.587,1.9,1.9,0,0,1,1.88,1.046,1.859,1.859,0,0,1,.156.783v2.558c0,.28.137.354.313.354a1.327,1.327,0,0,0,.23-.03v.658A1.245,1.245,0,0,1,97.355,51.915Zm-.834-2.622-1.464.084c-.564.031-1.168.3-1.168.972,0,.469.3.875,1.053.875a1.542,1.542,0,0,0,1.107-.426,1.7,1.7,0,0,0,.472-1.191Z" fill="#010101"/><path d="M103.182,51.841V48.49c0-.773-.344-1.263-1.157-1.263a1.383,1.383,0,0,0-1.191.844,3.613,3.613,0,0,0-.23,1.357v2.413h-.9V46.559h.783l.074.793a1.893,1.893,0,0,1,1.65-.931,1.743,1.743,0,0,1,1.877,1.944v3.476Z" fill="#010101"/><path d="M109.694,51.841l-.064-.689a1.925,1.925,0,0,1-1.62.824,2.132,2.132,0,0,1-1.532-.615,3.018,3.018,0,0,1-.763-2.152,2.963,2.963,0,0,1,.814-2.191,2.18,2.18,0,0,1,1.5-.6,1.9,1.9,0,0,1,1.556.753V44.3h.888v7.539Zm-.648-4.313a1.354,1.354,0,0,0-1.859.074,2.214,2.214,0,0,0-.564,1.6,2.291,2.291,0,0,0,.553,1.629,1.321,1.321,0,0,0,.982.375,1.294,1.294,0,0,0,.888-.334,2.646,2.646,0,0,0,0-3.341Z" fill="#010101"/><path d="M122.3,48.321a2.722,2.722,0,0,1-1.91.648h-1.744v2.872h-.929v-7.4h2.663a2.687,2.687,0,0,1,1.974.7,2.409,2.409,0,0,1-.054,3.183Zm-1.941-3.037h-1.713v2.841h1.724c.992,0,1.6-.459,1.6-1.451C121.966,45.733,121.278,45.284,120.359,45.284Z" fill="#010101"/><path d="M124.29,51.841v-.753h1.856V45.044h-1.7V44.3h2.6v6.786h1.846v.753Z" fill="#010101"/><path d="M134.92,51.915a.769.769,0,0,1-.783-.806h-.021a2.012,2.012,0,0,1-1.744.867,1.619,1.619,0,0,1-1.826-1.556,1.764,1.764,0,0,1,1.89-1.721l1.65-.095v-.387a.95.95,0,0,0-.273-.76,1.235,1.235,0,0,0-.888-.3,1.3,1.3,0,0,0-.959.324.893.893,0,0,0-.283.615h-.877a1.542,1.542,0,0,1,.492-1.084,2.335,2.335,0,0,1,1.627-.587,1.9,1.9,0,0,1,1.88,1.046,1.874,1.874,0,0,1,.155.783v2.558c0,.28.138.354.314.354a1.327,1.327,0,0,0,.23-.03v.658A1.245,1.245,0,0,1,134.92,51.915Zm-.834-2.622-1.464.084c-.564.031-1.168.3-1.168.972,0,.469.3.875,1.053.875a1.542,1.542,0,0,0,1.107-.426,1.7,1.7,0,0,0,.472-1.191Z" fill="#010101"/><path d="M139.487,46.421a2.226,2.226,0,0,1,1.556.577,2.027,2.027,0,0,1,.658,1.346h-.9a1.336,1.336,0,0,0-.418-.816,1.349,1.349,0,0,0-.9-.334,1.443,1.443,0,0,0-.981.377,2.583,2.583,0,0,0,0,3.247,1.447,1.447,0,0,0,.981.385,1.316,1.316,0,0,0,1.327-1.147h.887a2.068,2.068,0,0,1-.668,1.356,2.207,2.207,0,0,1-1.546.564,2.386,2.386,0,0,1-1.65-.648,3.2,3.2,0,0,1,0-4.259A2.4,2.4,0,0,1,139.487,46.421Z" fill="#010101"/><path d="M144.354,49.482a1.832,1.832,0,0,0,.533,1.326,1.44,1.44,0,0,0,1.012.4,1.354,1.354,0,0,0,.972-.313,1.323,1.323,0,0,0,.439-.636h.856a2.2,2.2,0,0,1-2.267,1.722,2.371,2.371,0,0,1-1.67-.689,2.838,2.838,0,0,1-.783-2.068,3.023,3.023,0,0,1,.783-2.119,2.323,2.323,0,0,1,1.68-.679,2.274,2.274,0,0,1,1.63.638,3,3,0,0,1,.763,2.109v.314Zm2.558-1.87a1.357,1.357,0,0,0-1.013-.428,1.585,1.585,0,0,0-1.512,1.566h2.974A1.693,1.693,0,0,0,146.912,47.612Z" fill="#010101"/></svg>