<svg version="1.1" id="logo-jonas" class="logo" xmlns="http://www.w3.org/2000/svg" xmlns:xlink="http://www.w3.org/1999/xlink" x="0px" y="0px"
	 viewBox="0 0 1035.4 421.4" style="enable-background:new 0 0 1035.4 421.4;" xml:space="preserve">
<path fill="#ffffff" d="M327.1,121.6v178.1c0.1,21.2-11.1,40.9-29.4,51.7l-104.8,61.9c-18.1,10.7-40.5,10.7-58.5,0L29.2,351.5
	C11,340.6-0.1,320.9,0,299.8V121.6C0,100.5,11.1,80.9,29.2,70L134.4,8c18.1-10.7,40.5-10.7,58.5,0l104.8,62
	C316,80.9,327.1,100.5,327.1,121.6 M15.8,121.7v178.1c-0.1,15.5,8,29.8,21.3,37.8l105.2,62c13.2,7.8,29.5,7.8,42.7,0l104.9-62
	c13.3-7.9,21.5-22.3,21.5-37.8V121.6c0.1-15.5-8.1-29.8-21.4-37.7l-105-62c-13.2-7.8-29.6-7.8-42.7,0L37.1,84
	C23.8,91.9,15.7,106.2,15.8,121.7"/>
<path fill="#ffffff" d="M206.2,102.5L206.2,102.5L195.8,92v-0.1L206.2,102.5z M206.2,118l-10.4-10.6v-6.9l10.4,10.6V118z M206.2,133.4
	l-10.4-10.6V116l10.4,10.6V133.4z M206.2,148.9l-10.4-10.6v-6.9l10.4,10.6V148.9z M206.2,164.3l-10.4-10.6v-6.9l10.4,10.6V164.3z
	 M206.2,179.8l-10.4-10.6v-6.9l10.4,10.6V179.8z M206.2,195.2l-6.2-6.3l-0.4-0.4l-0.2-0.2l-3.6-3.7v-6.9l7,7.2l0.3,0.3l0.3,0.3
	l2.9,2.9L206.2,195.2z M206.2,210.6L195.8,200v-6.9l10.4,10.6V210.6z M206.2,226.1l-10.4-10.6v-6.9l10.4,10.6V226.1z M206.2,241.5
	l-10.4-10.6V224l10.4,10.6V241.5z M206.2,256.9l-10.4-10.6v-6.9l10.4,10.6V256.9z M206.2,272.4l-10.4-10.6c0-0.5,0-1,0-1.5v-5.4
	l10.4,10.6V272.4z M205.8,287.4l-10.7-11c0.2-1.9,0.3-4,0.5-6.4l10.5,10.8C206.1,283.3,206,285.5,205.8,287.4 M204.4,297.8
	c-0.3,0.9-0.6,1.8-0.9,2.7l-11.3-11.6c0.6-1.5,1.2-3,1.6-4.6c0-0.1,0.1-0.3,0.1-0.5L205,295C204.8,296.1,204.6,297,204.4,297.8
	 M198.3,310.6l-11.4-11.7c0.9-1.5,1.7-2.9,2.5-4.3l11.4,11.7C200.1,307.8,199.2,309.1,198.3,310.6 M191.7,319.3l-11.4-11.7
	c1.1-1.2,2.1-2.4,3.1-3.7l11.4,11.7C193.8,316.9,192.8,318.1,191.7,319.3 M183.6,326.4l-11.2-11.5c1.3-1,2.5-2,3.7-3.1l11.3,11.6
	C186.1,324.4,184.9,325.4,183.6,326.4 M173.9,332l-10.8-11.1c0.9-0.5,1.8-0.9,2.6-1.4c0.6-0.3,1.1-0.7,1.7-1l11,11.3
	C176.9,330.6,175.4,331.3,173.9,332 M162.2,335.5l-10.1-10.3c1.7-0.5,3.4-1,5.1-1.7l10.5,10.7C165.9,334.8,164.1,335.2,162.2,335.5
	 M147.1,335.5l-8.3-8.5c2.1,0,4.2-0.1,6.3-0.4l9.3,9.5C151.9,336.1,149.5,335.8,147.1,335.5 M131.9,330.6c-3.4-1.7-6.6-3.7-9.6-6
	c2.4,0.7,4.8,1.3,7.3,1.7l5.8,5.9C134.3,331.8,133.1,331.2,131.9,330.6 M195.8,83h-38.7v180.5c0,2.4-0.1,4.7-0.3,7.1
	c-0.1,1-0.7,3.6-3.7,10c-1.8,3.9-6.6,5.9-14.4,6c-5.8-0.1-19.2-9.5-19.2-9.5l-30.1,24.5l2.1,2.4c3.7,4.2,7.8,8,12.3,11.2
	c0.5,0.5,1,1,1.5,1.5s1,1.1,1.5,1.5s1,1.1,1.5,1.5s1,1.1,1.5,1.5c5.6,6,12.2,11,19.5,14.7c8,4,16.8,6.1,25.7,6.1
	c9.5,0,18.8-2.6,27-7.5c13.3-7.9,23.3-20.4,28.1-35.2c1.4-4.7,2-12.5,2-24V100l-16.3-16.7L195.8,83L195.8,83z"/>
<path fill="#ffffff" d="M486.1,126.8v114.1c0,12.6-0.7,31.2-14.2,44.7c-10.8,11.1-24.1,12.6-34.6,12.6c-8.8,0-17.5-0.8-26-6
	c-5.9-3.9-11.1-8.6-15.5-14.1l23.6-27.1c1.5,3,3.9,7.3,5.9,9.3c2.4,2.6,5.8,3.9,9.3,3.8c3.3,0.2,6.5-1.1,8.8-3.5
	c4.7-4.8,4.9-12.8,4.9-19.9V126.8H486.1z"/>
<path fill="#ffffff" d="M557,217.4c-5.1,5.3-8.1,12-8.1,21.1c0,10.3,3.9,16.8,8.1,21.1c4.4,4.5,10.8,8,20.2,8c7.4,0.2,14.5-2.7,19.7-8
	s8.1-12.1,8.1-21.1s-2.9-15.8-8.1-21.1s-11.8-8-19.9-8S562.2,212.1,557,217.4 M624.8,280.1c-9.8,10-26.5,18.1-47.9,18.1
	s-38.1-8-47.9-18.1c-11-11.3-16.4-27.4-16.4-41.7S518,208,529,196.7c9.8-10.1,26.5-18.1,47.9-18.1s38.1,8,47.9,18.1
	c11.1,11.3,16.5,27.4,16.5,41.7S635.8,268.9,624.8,280.1"/>
<path fill="#ffffff"d="M663.4,182.4h35.4v13.3c10.8-14.1,23.6-16.3,33.9-16.3c9.6,0,22.1,1.8,31.4,11.3c10.3,10.6,11.1,23.9,11.1,32.9
	v70.9h-35.4V237c0-7.3-0.2-16.6-5.9-22.4c-2.7-2.8-7.1-5-13.5-5c-7.4,0-12,3-14.7,6c-5.9,6-6.9,14.1-6.9,21.4v57.5h-35.4
	L663.4,182.4L663.4,182.4z"/>
<path fill="#ffffff" d="M841.9,217.9c-5.3,5.4-8.2,12.7-8.1,20.3c-0.2,7.4,2.5,14.6,7.4,20.1c5.5,5.7,13,8.8,20.9,8.8
	c6.9,0,13.6-2.8,18.4-7.8c5.6-5.6,8.8-13.2,8.6-21.1c0-8-3-15.6-8.1-20.6c-5.3-5-12.4-7.7-19.6-7.8
	C854,209.8,847.1,212.6,841.9,217.9 M886.9,182.3h35.4v112h-35.4V281c-9.6,15.1-23.4,17.3-32.4,17.3c-15.7,0-29-4-41-17.1
	c-11.5-12.6-16-27.1-16-42c0-18.8,6.9-34.9,17-45.2c9.6-9.8,22.8-15.3,38.1-15.3c9.3,0,24.3,2.3,34.4,16.4L886.9,182.3z"/>
<path fill="#ffffff" d="M1017,211c-5.4-3.3-12.5-6.3-19.4-6.3c-3.7,0-7.9,1-10.1,3.2c-1.3,1.3-2.1,3.1-2.2,5c0,2.5,1.7,4,3.4,5
	c2.5,1.5,6.2,2.3,10.6,3.8l9.3,3c6.2,2,12.5,4.5,18.2,9.8c6.4,6,8.6,12.8,8.6,21.4c0,14.8-6.4,24.4-11.3,29.4
	c-10.8,11-24.1,12.8-35.6,12.8c-14.7,0-30.7-3.2-45-16.1l15-24.4c3.7,3.2,7.7,6,12,8.3c4.6,2.3,9.6,3.5,14.7,3.5
	c2.2,0,7.9,0,11.1-2.5c2.2-1.8,3.6-4.4,3.7-7.3c0-2-0.7-4.5-3.9-6.5c-2.5-1.5-5.7-2.5-10.8-4l-8.8-2.8c-6.4-2-13-5.5-17.7-10.3
	c-5.2-5.5-7.9-11.8-7.9-20.4c0-10.8,4.2-19.9,10.6-25.9c9.8-9.3,23.1-11.3,33.2-11.3c16.2,0,27.5,4.3,36.4,9.6L1017,211z"/>
</svg>
