<svg id="logo-halifax" class="logo" xmlns="http://www.w3.org/2000/svg" viewBox="0 0 727 119"><path d="M63,7a22.41,22.41,0,0,0,3.44,3.12C76.91,16.26,87.4,22.4,98,28.34c5.05,2.83,7.3,6.81,7.22,12.6q-.28,19.25,0,38.5c.08,5.58-1.94,9.58-6.79,12.35-11.57,6.58-23.13,13.19-34.58,20-4.53,2.68-8.61,2.57-13.1-.09-11.45-6.78-23.23-13-34.46-20.17C13.12,89.5,11.39,85.24,9,82V38c2.62-3.24,4.65-7.42,8-9.55,10.2-6.53,20.93-12.23,31.4-18.34A25.15,25.15,0,0,0,52,7ZM13,59.93c0,6.5.13,13-.05,19.49a9.56,9.56,0,0,0,5.29,9.37c11.28,6.4,22.54,12.84,33.71,19.44,3.71,2.19,7,2.27,10.72,0,11.16-6.6,22.42-13,33.72-19.42,3.39-1.91,5.16-4.54,5.16-8.4,0-13.5,0-27,0-40.48a8.65,8.65,0,0,0-4.73-8.14c-11.58-6.55-23.07-13.25-34.54-20a9,9,0,0,0-9.87,0Q35.18,22,17.87,31.89A8.91,8.91,0,0,0,13,40.44C13.06,46.94,13,53.43,13,59.93Z" style="/*! fill: ; *//*! fill: rebeccapurple; */"/><path d="M721,84H688V38.17h10.33V73H721Z"/><path d="M141.5,38h9.4V55.18h18V38.29h9.8v45H169V65.64H151.22V83.43H141.5Z"/><path d="M538.94,65.64V83.37h-9.51V38.18h9.26v17h18V38.3h9.73v45h-9.53V65.64Z"/><path d="M448.4,70.68C445,75.33,442.69,80,439,83c-2,1.6-6.3.29-10.46.29,4.09-6.4,7.73-12.41,11.72-18.17,1.79-2.58,1.72-4.48.06-7.07-4.09-6.39-7.83-13-11.71-19.49,13.16-4.83,14.36,7.1,19.85,13.84,1.65-2.63,3.54-4.77,4.49-7.28,2.81-7.43,8.29-8.48,15.74-6.75-4,6.58-7.78,13.14-12,19.38-1.91,2.83-1.73,4.79,0,7.51,3.66,5.66,6.94,11.58,10.42,17.45C455.19,87.51,452.88,77.6,448.4,70.68Z"/><path d="M623,83.62c-3.6,0-6.42.1-9.22-.05a5.62,5.62,0,0,1-3-1.12c-1.2-1-2-3.19-3.14-3.32a84.82,84.82,0,0,0-10.93,0,1.45,1.45,0,0,0-.82.49c-4.94,4.49-4.94,4.5-12.35,3.44l13.41-44.58c6.09-2.08,8.79.29,10.72,5.61C612.39,57.13,617.67,70,623,83.62ZM606.51,68c-1.72-5.19-3.2-9.68-5.13-15.51-1.68,6-3,10.58-4.34,15.51Z"/><path d="M209.2,38.52c5.93-1.93,8.75,0,10.64,5.26,4.76,13.06,10,25.92,15.55,40-5-1.45-10.16,3-13.72-3.64-1.52-2.83-12-.48-14.58,1.3-2.8,1.94-6.87,2-11.79,3.3C200.32,68.06,204.78,53.23,209.2,38.52ZM218.85,68c-1.77-5.25-3.3-9.75-5.24-15.51L209.39,68Z"/><path d="M413.39,83.64c-3.6,0-6.42.07-9.22,0-.92,0-2.39-.33-2.65-.92-3-7-9-2.41-13.52-3.63a1.92,1.92,0,0,0-1.63.87c-2.36,6.92-7.76,2.27-12.62,4.43,3.5-11.71,6.56-22,9.65-32.25,1-3.34,2.14-6.63,3.09-10,.64-2.27.88-4.44,4.27-4.3,3,.13,5.1.34,6.4,3.86,4.79,12.9,10,25.63,15.09,38.43C412.6,81,412.83,81.89,413.39,83.64ZM392.46,53.93l-1.1.07q-1.74,6.9-3.47,13.81h9.16Z"/><path d="M330.15,38.12h30.49V47.7H339.57v8.93h18.65v9.93h-19V83.3h-9.12Z"/><path d="M284.5,72.91V83.25H251.78V38.11h10.1c0,9.81.21,19.41-.09,29-.14,4.42.84,6.32,5.71,5.91C272.93,72.56,278.44,72.91,284.5,72.91Z"/><path d="M672.09,72.91v10.4H639.33V38.15h10.28V59.5c0,3,.2,6-.05,9-.3,3.59,1.16,4.63,4.6,4.49C660,72.74,665.75,72.91,672.09,72.91Z"/><path d="M300.35,38.14H310V83.26h-9.61Z"/><path d="M13,59.93c0-6.5.06-13,0-19.49a8.91,8.91,0,0,1,4.89-8.55Q35.2,22,52.4,11.87a9,9,0,0,1,9.87,0c11.47,6.74,23,13.44,34.54,20A8.65,8.65,0,0,1,101.54,40c0,13.49,0,27,0,40.48,0,3.86-1.77,6.49-5.16,8.4-11.3,6.38-22.56,12.82-33.72,19.42-3.75,2.22-7,2.14-10.72,0-11.17-6.6-22.43-13-33.71-19.44A9.56,9.56,0,0,1,13,79.42C13.13,72.93,13,66.43,13,59.93ZM55.28,73.71c.37-3.77.85-6.63.87-9.49A6.23,6.23,0,0,0,54.78,60a4,4,0,0,0-3.9-.06,6.16,6.16,0,0,0-1.55,4.18q-.26,14.06-.12,28.1c0,1.33.49,3.12,1.42,3.84a4.33,4.33,0,0,0,4,.29c1-.62,1.53-2.38,1.8-3.74.17-.85-.89-1.94-.75-2.81.64-4-2.51-8.84,2.4-11.79,7.21-4.31,14.55-8.42,22.66-13.09-.2,3.36-.47,5.93-.48,8.51,0,1.72-.07,3.68.71,5.09.38.68,3.46.92,3.86.35a9.49,9.49,0,0,0,1.41-5.07q.18-13.2,0-26.39a10.06,10.06,0,0,0-1.33-5.13c-.36-.56-3.44-.37-3.85.32a7.27,7.27,0,0,0-.72,5c1.21,4.66.41,11.32-2.11,12.81C70.91,64.71,63.6,68.89,55.28,73.71Zm-21.7-18c.65-4.41,1.28-7.29,1.41-10.19a4.93,4.93,0,0,0-1.49-3.78,4.2,4.2,0,0,0-3.94.07c-.93.69-1.42,2.49-1.43,3.81q-.16,14.24,0,28.47a5.89,5.89,0,0,0,1.45,3.83c.7.67,2.85.94,3.45.39a8.8,8.8,0,0,0,2-4.1c.18-.66-.72-1.56-.67-2.33.2-3.7-.85-9.28,1.12-10.75,7.3-5.46,15.61-9.56,24.72-14.87-.58,4-1.11,6.53-1.26,9.08-.1,1.63-.09,3.58.74,4.82.5.76,3.52,1,3.85.52A10.08,10.08,0,0,0,65,55.52c.12-8.74.09-17.49,0-26.24A10.28,10.28,0,0,0,63.6,24.1c-.36-.55-3.56-.31-3.87.33a11.32,11.32,0,0,0-.59,5.28c.26,4.11,2.74,9.08-1.38,11.9C50.57,46.55,42.7,50.49,33.58,55.73Z" style="fill: transparent;"/><path d="M55.28,73.71c8.32-4.82,15.63-9,22.9-13.28,2.52-1.49,3.32-8.15,2.11-12.81a7.27,7.27,0,0,1,.72-5c.41-.69,3.49-.88,3.85-.32a10.06,10.06,0,0,1,1.33,5.13q.19,13.2,0,26.39a9.49,9.49,0,0,1-1.41,5.07c-.4.57-3.48.33-3.86-.35-.78-1.41-.72-3.37-.71-5.09,0-2.58.28-5.15.48-8.51C72.61,69.58,65.27,73.69,58.06,78c-4.91,3-1.76,7.82-2.4,11.79-.14.87.92,2,.75,2.81-.27,1.36-.79,3.12-1.8,3.74a4.33,4.33,0,0,1-4-.29c-.93-.72-1.41-2.51-1.42-3.84q-.12-14.05.12-28.1a6.16,6.16,0,0,1,1.55-4.18,4,4,0,0,1,3.9.06,6.23,6.23,0,0,1,1.37,4.23C56.13,67.08,55.65,69.94,55.28,73.71Z"/><path d="M33.58,55.73c9.12-5.24,17-9.18,24.18-14.12,4.12-2.82,1.64-7.79,1.38-11.9a11.32,11.32,0,0,1,.59-5.28c.31-.64,3.51-.88,3.87-.33a10.28,10.28,0,0,1,1.34,5.18c.13,8.75.16,17.5,0,26.24a10.08,10.08,0,0,1-1.46,5.18c-.33.51-3.35.24-3.85-.52-.83-1.24-.84-3.19-.74-4.82.15-2.55.68-5.09,1.26-9.08-9.11,5.31-17.42,9.41-24.72,14.87-2,1.47-.92,7.05-1.12,10.75-.05.77.85,1.67.67,2.33a8.8,8.8,0,0,1-2,4.1c-.6.55-2.75.28-3.45-.39a5.89,5.89,0,0,1-1.45-3.83q-.18-14.23,0-28.47c0-1.32.5-3.12,1.43-3.81a4.2,4.2,0,0,1,3.94-.07A4.93,4.93,0,0,1,35,45.54C34.86,48.44,34.23,51.32,33.58,55.73Z"/></svg>