<svg id="logo-why-houston" class="logo" xmlns="http://www.w3.org/2000/svg" xmlns:xlink="http://www.w3.org/1999/xlink" viewBox="0 0 498 78"><g class="cls-2"><polyline class="cls-3" points="51.48 62.4 46.99 62.4 33.54 23.72 19.99 62.4 15.51 62.4 0 16.34 4.67 16.34 17.94 55.49 31.67 16.43 35.31 16.43 49.05 55.58 62.31 16.34 66.98 16.34 51.48 62.4"/><path class="cls-3" d="M107.39,20.73q5.08,5.41,5.09,14.2V62.12H107.9V35.59q0-7.2-4-11.59a13.38,13.38,0,0,0-10.42-4.39q-8.31,0-13.26,5.28t-5,14.34V62.12H70.72V0H75.3V26.15q5.6-10.84,18.77-10.84a17.45,17.45,0,0,1,13.32,5.42"/><polyline class="cls-3" points="131.56 78 126.52 78 134.08 61.74 112.78 16.34 118.01 16.34 136.61 56.51 155.38 16.34 160.43 16.34 131.56 78"/><path class="cls-3" d="M200.73,20.73q5.09,5.41,5.09,14.2V62.12h-4.58V35.59q0-7.2-4-11.59a13.38,13.38,0,0,0-10.42-4.39q-8.31,0-13.26,5.28t-5,14.34V62.12h-4.58V0h4.58V26.15q5.6-10.84,18.77-10.84a17.46,17.46,0,0,1,13.32,5.42"/><path class="cls-3" d="M252.32,22.18a22.86,22.86,0,0,1,6.91,17,23,23,0,0,1-6.91,17.1,24.84,24.84,0,0,1-34.19,0,23,23,0,0,1-6.92-17.1,22.87,22.87,0,0,1,6.92-17,24.94,24.94,0,0,1,34.19,0m-3.22,31.2a19.22,19.22,0,0,0,5.65-14.15A19.22,19.22,0,0,0,249.14,25a20.07,20.07,0,0,0-27.84,0,19.25,19.25,0,0,0-5.6,14.2,19.18,19.18,0,0,0,5.65,14.15,19.86,19.86,0,0,0,27.75,0Z"/><path class="cls-3" d="M289.43,59.5a16.21,16.21,0,0,1-10,3.65,13.51,13.51,0,0,1-9.91-3.69q-3.73-3.69-3.73-10.23V20.36h-10V16.43h10V0h4.58V16.43h17.09v3.93H270.38V49a10,10,0,0,0,2.56,7.24,9,9,0,0,0,6.78,2.66,12,12,0,0,0,7.94-3.09l1.77,3.74"/><path class="cls-3" d="M333,39.7H291.58q.09,8.77,5.7,14.1a18.2,18.2,0,0,0,12.89,5.33q13.08,0,17.75-11.68l4,.93a21.67,21.67,0,0,1-8.22,11,23.67,23.67,0,0,1-13.55,3.79A22.78,22.78,0,0,1,294,56.61q-6.92-6.54-6.91-17.19t7-17.43a23.32,23.32,0,0,1,16.63-6.68,21,21,0,0,1,15.65,6.31Q332.59,27.92,333,38V39.7M298.26,24a18,18,0,0,0-6.49,12.15h36.62q-.84-7.86-5.7-12.29a17.07,17.07,0,0,0-12-4.44A19.15,19.15,0,0,0,298.26,24Z"/><rect class="cls-3" x="338.92" y="0.02" width="4.58" height="62.1"/></g><polyline class="cls-3" points="374.06 0.71 374.06 11.21 372.11 11.21 372.11 6.71 366.68 6.71 366.68 11.21 364.73 11.21 364.73 0.71 366.68 0.71 366.68 5.04 372.11 5.04 372.11 0.71 374.06 0.71"/><path class="cls-3" d="M382.06,10.66a5.16,5.16,0,0,1-2-1.94A5.28,5.28,0,0,1,379.3,6,5.32,5.32,0,0,1,380,3.19a5.16,5.16,0,0,1,2-1.94,6.42,6.42,0,0,1,5.79,0,5.24,5.24,0,0,1,2,1.93A5.32,5.32,0,0,1,390.61,6a5.19,5.19,0,0,1-2.76,4.7,6.34,6.34,0,0,1-5.79,0m4.79-1.48a3.49,3.49,0,0,0,1.32-1.32,3.8,3.8,0,0,0,.48-1.9,3.8,3.8,0,0,0-.48-1.9,3.49,3.49,0,0,0-1.32-1.32,4,4,0,0,0-3.78,0,3.49,3.49,0,0,0-1.32,1.32,3.8,3.8,0,0,0-.48,1.9,3.8,3.8,0,0,0,.48,1.9,3.49,3.49,0,0,0,1.32,1.32,4,4,0,0,0,3.78,0Z"/><path class="cls-3" d="M396.93,10.14a4.78,4.78,0,0,1-1.21-3.51V.71h1.95V6.56q0,3.09,2.67,3.09c1.77,0,2.65-1,2.65-3.09V.71h1.93V6.63a4.82,4.82,0,0,1-1.21,3.51,5.32,5.32,0,0,1-6.78,0"/><path class="cls-3" d="M411.68,11a4.84,4.84,0,0,1-1.79-.91l.67-1.52a5.49,5.49,0,0,0,1.58.84,6,6,0,0,0,1.89.32,3.21,3.21,0,0,0,1.74-.38,1.13,1.13,0,0,0,.58-1,1,1,0,0,0-.32-.74,2.25,2.25,0,0,0-.82-.46c-.33-.11-.78-.23-1.35-.37a15.42,15.42,0,0,1-1.94-.57,3.26,3.26,0,0,1-1.28-.89,2.46,2.46,0,0,1-.53-1.65,2.84,2.84,0,0,1,.47-1.58A3.24,3.24,0,0,1,412,1a5.74,5.74,0,0,1,2.33-.42,7.53,7.53,0,0,1,1.89.24,5.25,5.25,0,0,1,1.61.69L417.22,3a6.05,6.05,0,0,0-1.44-.61,5.35,5.35,0,0,0-1.45-.21,3,3,0,0,0-1.72.39,1.18,1.18,0,0,0-.56,1,.93.93,0,0,0,.32.74,2.3,2.3,0,0,0,.82.45c.33.11.78.23,1.35.37a15,15,0,0,1,1.92.56,3.39,3.39,0,0,1,1.28.9,2.38,2.38,0,0,1,.53,1.62,2.79,2.79,0,0,1-.47,1.57,3.24,3.24,0,0,1-1.43,1.13,5.83,5.83,0,0,1-2.34.42,8,8,0,0,1-2.35-.35"/><polyline class="cls-3" points="425.7 2.36 422.22 2.36 422.22 0.71 431.13 0.71 431.13 2.36 427.65 2.36 427.65 11.21 425.7 11.21 425.7 2.36"/><path class="cls-3" d="M437.52,10.66a5.16,5.16,0,0,1-2-1.94A5.27,5.27,0,0,1,434.77,6a5.31,5.31,0,0,1,.73-2.77,5.16,5.16,0,0,1,2-1.94,6.09,6.09,0,0,1,2.9-.69,6,6,0,0,1,2.89.69,5.24,5.24,0,0,1,2,1.93A5.32,5.32,0,0,1,446.07,6a5.19,5.19,0,0,1-2.76,4.7,5.91,5.91,0,0,1-2.89.7,6,6,0,0,1-2.9-.7m4.79-1.48a3.49,3.49,0,0,0,1.32-1.32,3.8,3.8,0,0,0,.48-1.9,3.8,3.8,0,0,0-.48-1.9,3.49,3.49,0,0,0-1.32-1.32,4,4,0,0,0-3.78,0,3.49,3.49,0,0,0-1.32,1.32,3.8,3.8,0,0,0-.48,1.9,3.8,3.8,0,0,0,.48,1.9,3.49,3.49,0,0,0,1.32,1.32,4,4,0,0,0,3.78,0Z"/><polyline class="cls-3" points="460.62 0.71 460.62 11.21 459.02 11.21 453.23 4.1 453.23 11.21 451.29 11.21 451.29 0.71 452.9 0.71 458.69 7.82 458.69 0.71 460.62 0.71"/><path class="cls-3" d="M364.73,17.91h4.59a6.67,6.67,0,0,1,3,.65,4.87,4.87,0,0,1,2,1.84,5.26,5.26,0,0,1,.72,2.76,5.2,5.2,0,0,1-.72,2.75,4.83,4.83,0,0,1-2,1.85,6.67,6.67,0,0,1-3,.65h-4.59V17.91m4.5,8.85a4.44,4.44,0,0,0,2-.45,3.2,3.2,0,0,0,1.35-1.25,4.08,4.08,0,0,0,0-3.8A3.29,3.29,0,0,0,371.27,20a4.57,4.57,0,0,0-2-.44h-2.55v7.2Z"/><path class="cls-3" d="M382.36,27.86a5.06,5.06,0,0,1-2-1.94,5.27,5.27,0,0,1-.73-2.76,5.33,5.33,0,0,1,.73-2.77,5,5,0,0,1,2-1.93,6.32,6.32,0,0,1,5.78,0,5.08,5.08,0,0,1,2,1.92,5.64,5.64,0,0,1,0,5.55,5.1,5.1,0,0,1-2,1.93,6.32,6.32,0,0,1-5.78,0m4.78-1.48a3.49,3.49,0,0,0,1.32-1.32,4,4,0,0,0,0-3.8,3.49,3.49,0,0,0-1.32-1.32,4,4,0,0,0-3.78,0A3.49,3.49,0,0,0,382,21.26a4,4,0,0,0,0,3.8,3.49,3.49,0,0,0,1.32,1.32,4,4,0,0,0,3.78,0Z"/><polyline class="cls-3" points="411.1 17.91 407.62 28.41 405.55 28.41 402.95 20.64 400.31 28.41 398.23 28.41 394.75 17.91 396.77 17.91 399.38 25.89 402.1 17.91 403.9 17.91 406.55 25.93 409.24 17.91 411.1 17.91"/><polyline class="cls-3" points="425.22 17.91 425.22 28.41 423.61 28.41 417.82 21.3 417.82 28.41 415.89 28.41 415.89 17.91 417.49 17.91 423.28 25.02 423.28 17.91 425.22 17.91"/><polyline class="cls-3" points="433.31 19.56 429.83 19.56 429.83 17.91 438.74 17.91 438.74 19.56 435.26 19.56 435.26 28.41 433.31 28.41 433.31 19.56"/><path class="cls-3" d="M445.13,27.86a5.19,5.19,0,0,1-2-1.94,5.27,5.27,0,0,1-.73-2.76,5.33,5.33,0,0,1,.73-2.77,5.16,5.16,0,0,1,2-1.93,6.34,6.34,0,0,1,5.79,0,5.21,5.21,0,0,1,2,1.92,5.64,5.64,0,0,1,0,5.55,5.23,5.23,0,0,1-2,1.93,6.34,6.34,0,0,1-5.79,0m4.79-1.48a3.39,3.39,0,0,0,1.31-1.32,4,4,0,0,0,0-3.8,3.39,3.39,0,0,0-1.31-1.32,3.88,3.88,0,0,0-1.9-.47,3.83,3.83,0,0,0-1.88.47,3.49,3.49,0,0,0-1.32,1.32,3.93,3.93,0,0,0,0,3.8,3.49,3.49,0,0,0,1.32,1.32,3.83,3.83,0,0,0,1.88.47A3.88,3.88,0,0,0,449.92,26.38Z"/><polyline class="cls-3" points="473.87 17.91 470.39 28.41 468.32 28.41 465.73 20.64 463.09 28.41 461 28.41 457.52 17.91 459.55 17.91 462.16 25.89 464.87 17.91 466.67 17.91 469.33 25.93 472.01 17.91 473.87 17.91"/><polyline class="cls-3" points="487.99 17.91 487.99 28.41 486.39 28.41 480.6 21.3 480.6 28.41 478.66 28.41 478.66 17.91 480.27 17.91 486.06 25.02 486.06 17.91 487.99 17.91"/><path class="cls-3" d="M366.72,45.06a5.18,5.18,0,0,1-2-1.93,5.61,5.61,0,0,1,0-5.55,5.16,5.16,0,0,1,2-1.92,5.9,5.9,0,0,1,2.88-.7,6,6,0,0,1,2.35.45,4.79,4.79,0,0,1,1.8,1.3L372.5,37.9a3.66,3.66,0,0,0-2.8-1.23,4,4,0,0,0-1.94.47,3.42,3.42,0,0,0-1.33,1.31,4,4,0,0,0,0,3.81,3.44,3.44,0,0,0,1.33,1.32,4,4,0,0,0,1.94.47,3.65,3.65,0,0,0,2.8-1.25l1.26,1.2a4.82,4.82,0,0,1-1.8,1.31,6.1,6.1,0,0,1-2.37.45,5.86,5.86,0,0,1-2.87-.7"/><path class="cls-3" d="M380.51,45.06a5.14,5.14,0,0,1-2-1.93,5.55,5.55,0,0,1,0-5.54,5.07,5.07,0,0,1,2-1.93,6.34,6.34,0,0,1,5.79,0,5.14,5.14,0,0,1,2,1.92,5.64,5.64,0,0,1,0,5.55,5.17,5.17,0,0,1-2,1.93,6.34,6.34,0,0,1-5.79,0m4.79-1.48a3.49,3.49,0,0,0,1.32-1.32,4,4,0,0,0,0-3.8,3.49,3.49,0,0,0-1.32-1.32,4,4,0,0,0-3.78,0,3.49,3.49,0,0,0-1.32,1.32,4,4,0,0,0,0,3.8,3.49,3.49,0,0,0,1.32,1.32,4,4,0,0,0,3.78,0Z"/><polyline class="cls-3" points="403.61 35.11 403.61 45.61 402 45.61 396.21 38.5 396.21 45.61 394.28 45.61 394.28 35.11 395.88 35.11 401.68 42.22 401.68 35.11 403.61 35.11"/><polyline class="cls-3" points="419.24 35.11 414.66 45.61 412.74 45.61 408.15 35.11 410.27 35.11 413.76 43.21 417.29 35.11 419.24 35.11"/><polyline class="cls-3" points="431.65 43.97 431.65 45.61 423.78 45.61 423.78 35.11 431.44 35.11 431.44 36.74 425.73 36.74 425.73 39.47 430.8 39.47 430.8 41.08 425.73 41.08 425.73 43.97 431.65 43.97"/><polyline class="cls-3" points="446.21 35.11 446.21 45.61 444.61 45.61 438.82 38.5 438.82 45.61 436.88 45.61 436.88 35.11 438.49 35.11 444.28 42.22 444.28 35.11 446.21 35.11"/><polyline class="cls-3" points="454.3 36.76 450.82 36.76 450.82 35.11 459.73 35.11 459.73 36.76 456.25 36.76 456.25 45.61 454.3 45.61 454.3 36.76"/><rect class="cls-3" x="464.35" y="35.11" width="1.95" height="10.5"/><path class="cls-3" d="M474.3,45.06a5.23,5.23,0,0,1-2-1.93,5.62,5.62,0,0,1,0-5.54,5.16,5.16,0,0,1,2-1.93,6.34,6.34,0,0,1,5.79,0,5.12,5.12,0,0,1,2,1.92,5.57,5.57,0,0,1,0,5.55,5.14,5.14,0,0,1-2,1.93,6.34,6.34,0,0,1-5.79,0m4.78-1.48a3.49,3.49,0,0,0,1.32-1.32,3.93,3.93,0,0,0,0-3.8,3.49,3.49,0,0,0-1.32-1.32,4,4,0,0,0-3.78,0A3.49,3.49,0,0,0,474,38.46a4.08,4.08,0,0,0,0,3.8,3.49,3.49,0,0,0,1.32,1.32,4,4,0,0,0,3.78,0Z"/><polyline class="cls-3" points="497.4 35.11 497.4 45.61 495.79 45.61 490 38.5 490 45.61 488.07 45.61 488.07 35.11 489.67 35.11 495.46 42.22 495.46 35.11 497.4 35.11"/><path class="cls-3" d="M366.72,62.26a5.18,5.18,0,0,1-2-1.93,5.61,5.61,0,0,1,0-5.55,5.25,5.25,0,0,1,2-1.93,6.36,6.36,0,0,1,5.23-.24,4.79,4.79,0,0,1,1.8,1.3L372.5,55.1a3.66,3.66,0,0,0-2.8-1.23,3.9,3.9,0,0,0-1.94.47,3.42,3.42,0,0,0-1.33,1.31,4,4,0,0,0,0,3.81,3.35,3.35,0,0,0,1.33,1.31,3.9,3.9,0,0,0,1.94.48A3.65,3.65,0,0,0,372.5,60l1.26,1.2a4.82,4.82,0,0,1-1.8,1.31,6.1,6.1,0,0,1-2.37.45,5.86,5.86,0,0,1-2.87-.7"/><polyline class="cls-3" points="386.54 61.17 386.54 62.81 378.67 62.81 378.67 52.31 386.33 52.31 386.33 53.94 380.62 53.94 380.62 56.67 385.68 56.67 385.68 58.28 380.62 58.28 380.62 61.17 386.54 61.17"/><polyline class="cls-3" points="401.1 52.31 401.1 62.81 399.49 62.81 393.7 55.7 393.7 62.81 391.77 62.81 391.77 52.31 393.37 52.31 399.16 59.42 399.16 52.31 401.1 52.31"/><polyline class="cls-3" points="409.19 53.96 405.71 53.96 405.71 52.31 414.62 52.31 414.62 53.96 411.14 53.96 411.14 62.81 409.19 62.81 409.19 53.96"/><polyline class="cls-3" points="427.11 61.17 427.11 62.81 419.24 62.81 419.24 52.31 426.9 52.31 426.9 53.94 421.19 53.94 421.19 56.67 426.25 56.67 426.25 58.28 421.19 58.28 421.19 61.17 427.11 61.17"/><path class="cls-3" d="M439.21,62.81l-2.15-3.08-.4,0h-2.37v3.06h-2V52.31h4.32a5.84,5.84,0,0,1,2.38.45,3.48,3.48,0,0,1,1.55,1.29,3.59,3.59,0,0,1,.54,2,3.52,3.52,0,0,1-.58,2,3.43,3.43,0,0,1-1.66,1.28l2.42,3.45h-2.1m-.7-8.31a3,3,0,0,0-1.94-.54h-2.28v4.18h2.28a3,3,0,0,0,1.94-.55,1.92,1.92,0,0,0,.66-1.55A1.9,1.9,0,0,0,438.51,54.5Z"/></svg>