<svg id="garden-place" class="logo" xmlns="http://www.w3.org/2000/svg" xmlns:xlink="http://www.w3.org/1999/xlink" viewBox="0 0 246 69"><defs><style>.cls-1{fill:none;}.cls-2{fill:#fff;}.cls-3{clip-path:url(#clip-path);}.cls-4,.cls-5{fill:#fff;}.cls-5{fill-rule:evenodd;}</style><clipPath id="clip-path"><rect class="cls-1" y="0.82" width="245.83" height="68.18"/></clipPath></defs><polyline class="cls-2" points="91.84 68.77 90.09 68.77 90.09 63.46 84.06 63.46 84.06 68.77 82.25 68.77 82.25 58.4 84.06 58.4 84.06 61.64 90.09 61.64 90.09 58.4 91.84 58.4 91.84 68.77"/><path class="cls-2" d="M111.56,63.34a5.24,5.24,0,0,1-1.9,4.23,6.6,6.6,0,0,1-8.22,0,5.28,5.28,0,0,1-1.83-4.22,4.69,4.69,0,0,1,1.86-3.76,6.31,6.31,0,0,1,4.1-1.44,6.39,6.39,0,0,1,4.06,1.41,4.66,4.66,0,0,1,1.93,3.79m-1.87,0A2.9,2.9,0,0,0,108.44,61a4.78,4.78,0,0,0-5.77,0,2.9,2.9,0,0,0-1.25,2.31,3.66,3.66,0,0,0,1.11,2.85,4.26,4.26,0,0,0,3,1,4.11,4.11,0,0,0,3-1.09A3.71,3.71,0,0,0,109.69,63.34Z"/><polyline class="cls-2" points="127.91 60.1 123.5 60.1 123.5 68.77 121.72 68.77 121.72 60.1 117.31 60.1 117.31 58.4 127.91 58.4 127.91 60.1"/><polyline class="cls-2" points="144.32 68.77 135.32 68.77 135.32 58.4 144.04 58.4 144.04 60.15 137.13 60.15 137.13 62.43 141.2 62.43 141.2 64.19 137.13 64.19 137.13 66.97 144.32 66.97 144.32 68.77"/><g class="cls-3"><polyline class="cls-2" points="161.2 68.77 152.34 68.77 152.34 58.4 154.15 58.4 154.15 67.02 161.2 67.02 161.2 68.77"/><path class="cls-4" d="M37,18.42c-2.11.11-3.83-1-5.51,0,.15,2.9,4.35-.11,4.83,2.06-2.53,2.84-6.85,8.64-11.71,7.58-6-1.31-1.93-11.75,1-14.47,6.94,5,22.6,1.83,20.32-8.6C44,3.1,40.66,2.55,38,2.58c-6.79.09-12.71,5.07-16.18,7.24-2.58-3.54,1.94-7,4.13-9-4.41-.4-8,2.22-7.57,6.54.16,1.55,3.1,3.31,3.1,4.48,0,.86-4.34,5-4.82,9.29-.52,4.65,1.26,7.25,4,8.34a11.81,11.81,0,0,0,6.64.27c-.26.29-.5.59-.75.91C20.84,37.87,17.92,49.33,4.94,48,.62,40.36,7.84,31.24,16.65,31.16c2.09,2,.38,6.31-2.07,6.88-.73-.64-.76-2-2.41-1.72-2.07.8-4.1,1.64-3.78,4.82,5.35,2.54,12-3.29,10.67-9.63a12.66,12.66,0,0,0-2.38-.82,13.93,13.93,0,0,0-6.7,0C4,32.17-.83,37.63.12,45.62c2,3.06,4.56,4.47,9.3,4.13,11.8-.84,16.91-10.52,22.95-19.06.28-.4.57-.79.85-1.18,4.13-5.66,8.86-10.58,16.49-11.78-3.26-3.68-8.32.46-12.75.69M42.81,7.06c1.71,6.21-12.44,9.25-16.52,5.5C26.5,9.17,41.1.84,42.81,7.06Z"/></g><path class="cls-4" d="M69,25.6c-1.33-2-4.65-.52-5.79-.29,0-.54,2.16-1.14.58-1.45-1.68.63-4.13.5-5.78,1.16-.22.88.49.85.28,1.73-.48.66-1,1.37-1.41,2.09-.22.33-.43.65-.64,1A37.53,37.53,0,0,1,51.6,36c-1.86,1.83-4.4,4-7.24,4,1.25-3.94,3.92-7.32,6.41-10.24.29-.34.57-.67.86-1l.54-.64c.88-1,2.55-2.08,2.32-3.18-1.94.57-4.56.46-5.78,1.73-3.42-2.81-8.2-1.13-11.72,2.09-.35.31-.68.65-1,1-2.61,2.82-4.25,6.46-3.49,9.36,1.22,4.66,6.89,1,9.26-.86a3.8,3.8,0,0,0,.58,3.18c4,1.57,6-2.59,8.1-2.9-.63,1.22-1.76,1.91-2.6,2.9,2.74.14,4.76-.45,7.23-.58.74-.49-1.13-.78-.87-1.74,1.44-2.14,3-5.28,4.92-7.8.32-.45.73-1,1.19-1.56.27-.34.57-.67.88-1,1.49-1.54,3.34-2.71,5.16-1.22a5.26,5.26,0,0,0-2.17,1.22,5.46,5.46,0,0,0-.86,1,4.72,4.72,0,0,0-.72,3.58,5.18,5.18,0,0,0,5.72-3.58,9.56,9.56,0,0,0,.32-1A11.18,11.18,0,0,0,69,25.6M36,39.49c-.8-4,1.47-7.21,4.26-9.66q.6-.52,1.2-1c1-.78,2-1.46,2.93-2.09a4.16,4.16,0,0,1,2,.87,4.62,4.62,0,0,1,0,1.22,3.41,3.41,0,0,1-.26,1A5.17,5.17,0,0,1,43.49,32c-.05.62.24.91.87.86C42,35.44,40.09,38.59,36,39.49Z"/><g class="cls-3"><path class="cls-4" d="M126.22,34.66c-6.3-.41-11.42,5.54-17,4.53,1-4.43,4.54-6.38,7-9.36.26-.31.5-.65.74-1a10.29,10.29,0,0,0,1.8-5.26c-3.49-2.46-7,1.36-9.26,2.88.68-1.43,2-2.23,2.32-4-2.87.41-5,1.58-7.53,2.31,0,.89.91.83.58,2a22.17,22.17,0,0,1-1.35,2.09c-.24.32-.48.65-.75,1-3.55,4.52-9.79,10.35-13.52,9.94-3.12-.33-3.27-4-1.16-5.5,4.91,1.24,10-.61,12-4.44a5.81,5.81,0,0,0,.43-1,8.52,8.52,0,0,0,.35-4.4,12.7,12.7,0,0,0-14.06,4.4l-.41.52-.31.47c-2.3,3.64-2.57,9.81-7.79,9.36a62.38,62.38,0,0,1,5.39-9.36c.23-.34.47-.66.7-1,3.67-5.22,7.76-10,11.27-15.4-3.42.25-7.83,2-11.28,3.19.39.57,2-.09,2,.86C86,21.34,83.78,23.26,82,25.6c-3.94-2.45-8.51-.46-11.7,3.24-.27.31-.54.65-.8,1a15,15,0,0,0-3.12,10.81c3.2,1.67,6.34-.74,8.39-2,1.09,5.45,6.86,1.48,8.68-.58,2.64,6.65,11.11.95,14.46-1.15-.31,1.47-3.52,3-2.59,3.76a40,40,0,0,0,6.65-1.15c.21-.89-.8-.57-.58-1.46,1.83-2,3.4-5,5.49-7.23.29-.3.59-.64.9-1s.63-.67,1-1c1.55-1.53,3.37-2.83,5.37-2.38a9.6,9.6,0,0,1-1.61,2.38c-.3.33-.62.67-1,1-2.79,2.75-6.25,5.07-5.25,10.52,5.35,4.81,18-9.71,19.65-3.42.23.86,1.32-2.2.29-2.27M90.88,29.83a10.88,10.88,0,0,1,.77-1,10,10,0,0,1,5.67-3.24,6,6,0,0,1-.76,4.23,6.36,6.36,0,0,1-7.06,2.71A13.78,13.78,0,0,1,90.88,29.83Zm-13,1.84c-1.82,3.58-4.07,6.73-8.68,7.52a20.26,20.26,0,0,1,4.22-9.36,12.85,12.85,0,0,1,1-1,13.73,13.73,0,0,1,4.08-2.67,3.83,3.83,0,0,1,0,2.67,5.89,5.89,0,0,1-.45,1,4.91,4.91,0,0,1-1,1.27C76.92,31.71,77.47,31.64,77.92,31.67Z"/><path class="cls-4" d="M238.21,36.71c-6.62,1.52-12.79,6.06-14.7,5.68-2.63-.52-3.57-5.38-.88-7.81,4.83.4,8.81-.73,10.55-3.59a8,8,0,0,0,.74-5.68c-6.15-3.11-11.16.78-14.17,5.68a22.8,22.8,0,0,0-2.32,5c-2.08,2.74-7.44,7.41-11.86,4.06A18.33,18.33,0,0,1,209.18,31a22.25,22.25,0,0,1,6.22-5.38c1.29.44,2.55,1.79,1.73,3.47-2.38-1.09-4.23-.23-4.76,1.91a5.48,5.48,0,0,0-.15,1.56c2.5,1.56,4.69.53,6-1.56a9.15,9.15,0,0,0,1.23-5.38c-1.41-3.12-6.42-1.46-8.68-.3a20.33,20.33,0,0,0-5.2,4.06,10.46,10.46,0,0,0-1,1.62c-2.52,4.73-2.62,11.34-8.79,10.24,1.71-3.31,3.87-7,6-10.24.62-1,1.23-1.91,1.84-2.78.91-1.34,2.75-2.64,2.31-3.47-1.95.36-3.71.91-5.79,1.16-.13.52-.1,2.71-1.44,2.89-2.8-5.65-8.77-2.37-12.48,2.2A13.35,13.35,0,0,0,183,37.47c-3.64,1.28-5.1,4.74-9.56,5.21-2.17-6.48,3.6-7.6,7.24-10.42L182.33,31c3.77-2.85,6.71-5,9.64-9.44.88-1.32,4.38-8.53.57-7.52-5.95,1.59-9.64,5.39-14.17,11-1.29,1.58-3,3.66-4.59,6C171,35,168.66,39.76,170,43.54c5,3.21,8.91-2.2,12.72-3.76.48,5.56,7.67,2.35,9.56.3,1.3,6.4,7.71,1.67,10.41-.3,2.26,7.71,12,.19,14.46-1.45a25.2,25.2,0,0,0,1.45,4.06c6.73,5.24,15.24-6.37,23-5.13,6.84,1.09.88,8.38-2,8.93,1,.35,3.73-2.15,5.13-2.19,3.62-6-3.11-8.1-6.58-7.29M177.45,31c3.63-5.79,8.6-10.25,13.93-14.35A30.42,30.42,0,0,1,180.4,31a26,26,0,0,1-4.35,2.43C176.49,32.58,177,31.78,177.45,31Zm17.7,3.3c-2.3,2.87-5.18,6.5-9.26,6.65a13.14,13.14,0,0,1,2.31-7.81A21,21,0,0,1,189.89,31c1.66-1.82,3.87-3.35,6.12-2.2a3.82,3.82,0,0,1-.21,2.2C195.29,32.3,194.36,33.18,195.15,34.29ZM229.63,31c-1.61,1.86-4.17,3.1-6.12,1.27.15-.37.35-.81.58-1.27,1.15-2.37,3.11-5.53,5.48-5.09S231.34,29,229.63,31Z"/><path class="cls-5" d="M180.72,14.37c2.36-21.94-41.2-12.42-35.47,3.78,4.92,4,11.33-6.36,4.48-5.85.42,1.18,1.17,5.34-2.06,5.51C144,13,151.6,9,154.21,7.48c7.24-4.19,21-5.66,22,4.13.68,6.83-5.56,13.53-10,15.49-3.94,1.75-7.17,1.5-7.91-2.75,2.44-4.23,4.09-3,6.19-4.48-2.61-.85-5.35.12-7.23,1-3.9,6.18,1.24,10.41,7.92,9.64,8-.93,14.71-8.9,15.49-16.18"/></g><path class="cls-4" d="M145.75,32.14c-2,4.57-4.19,8.67-7,11.15s-8,3.58-10,.34A10.24,10.24,0,0,1,138,28.48a5.29,5.29,0,0,1,1.29,3.66A3,3,0,0,1,137.69,35c-1,.34-2.41-2.4-3.79-1a4.54,4.54,0,0,0-2.07,5.16c5.08,1,8.18-2.6,9.08-7a13.71,13.71,0,0,0,.22-4c-4.93-3.12-11.85-.13-14.65,4a7.1,7.1,0,0,0-.5.81c-2,3.76-2.84,12.36.68,14.47,3.75,2.25,11.28.13,14.12-1.73,4.46-2.9,7.39-8,9.95-13.55,4.56-9.91,8-21.33,16.91-24.66-12.44-.8-16.82,13.35-21.89,24.66"/></svg>