<svg id="martins-logo" class="logo" width="130" height="105" xmlns="http://www.w3.org/2000/svg" viewBox="0 0 230.96 183.98">
<style>
    svg#martins-logo { -webkit-filter: drop-shadow( 0px 0px 10px #00e5ff ); 
            filter: drop-shadow( 0px 0px 10px #00e5ff ); }
</style>
<path d="M78.14 125.44s38.22-26.63 43-30.22c0 0-7.52 10.65-51.3 37.67-2.47 1.53-2.53 1.59-2.53 1.59S35.09 154.12 0 168.44c0 0 61.43-30.45 78.14-43" fill="#fff"/><path d="M17.48 106.86c0-4.9-.74-5.09-6.13-6.19v-1h13.42l12.13 35.2h.1l12.16-35.24h7.42l-.09 40.91-5.25.33v-38h-.12l-12.81 38h-4.78l-12.74-38h-.13v38h-3.18zM228.26 105.28a25.3 25.3 0 0 0-10.11-2.52c-4.41 0-7.41 2.39-7.41 6.13 0 9.68 20.22 8.46 20.22 21.88 0 8.46-7 11.83-14.89 11.83a47.26 47.26 0 0 1-9.81-1.23v-4.23a26.18 26.18 0 0 0 10.67 2.7c5.39 0 8.58-2.57 8.58-7.78 0-10.36-19.68-8.83-19.68-21.7 0-6.68 5.22-10.36 13.36-10.36a44.26 44.26 0 0 1 9.07 1zM75 112.16l-10.8 29.42h-3.29l10.51-28.19a8.46 8.46 0 0 0 .76-2.74c0-1.32-1.37-1.78-3.91-2.39v-.86H77l13.1 34.18H86l-4.3-11.43M106.44 124.87a28.89 28.89 0 0 1 10.42 9.37c2.45 4.81 8.84 9.19 8.84 9.19a9.75 9.75 0 0 0 6.39 1.31l1.75 1.4c-1.31.7-7 .18-7 .18-13.4-2.1-20.31-18.39-20.31-18.39a5.73 5.73 0 0 0-4.59-3.16H99.4v16.81H95v-28.8c0-3.55-.81-3.65-5.13-4.52v-.86h14.37c6.2 0 11.68 1.48 11.33 8.78s-9.11 8.69-9.11 8.69m-5.63-14.58c-.79.46-1.41 2.49-1.41 2.49v10h1.37c3.61 0 9.8 0 9.8-7.11 0-4.83-3.61-6.51-7.57-6.3a10.42 10.42 0 0 0-2.19.91" fill="#fff"/><path d="M129.76 109.38h-4.57c-4.26 0-4.37 1.83-4.67 4.93H119l.25-6.91h25.54l.25 6.91h-1.57c-.3-3.1-.3-4.93-4.67-4.93h-4.57v32.2h-4.42zM151.33 113.19c0-3.51-1.57-3.35-5.08-3.76v-.86l9.5-1.17v34.18h-4.42zM164.58 113.39c0-4.06-.71-4.42-5.08-5.13v-.86h10.16l15.94 27.73h.1V107.4h2.64v34.18h-3.86l-17.16-29.81h-.1v29.81h-2.64zM195.51 117.76c.76-1 2.38-2.79 2.38-4.67 0-1.17-1-.61-2-1.17a2.35 2.35 0 0 1-1.27-2.34 2.79 2.79 0 0 1 3-2.74 3.1 3.1 0 0 1 3.15 3.45c0 3.61-2.74 6.5-3.61 7.47zM45.35 155c0-3.5-1.63-3.35-5.08-3.76v-.86l9.5-1.17v15.49h14.87v-15.45h4.42v34.17h-4.42v-16.7H49.77v16.7h-4.42zM76.12 166.36c0-10.86 3.2-17.67 13.3-17.67s13.2 7.57 13.2 17.67c0 10.77-3.14 17.62-13.2 17.62-10.46 0-13.3-7.51-13.3-17.62m21.53 0c0-6.4-.36-15.69-8.23-15.69s-8.33 8.68-8.33 15.69c0 6.35.36 15.64 8.33 15.64 7.67 0 8.23-8.68 8.23-15.64M115.83 151.23h-4.57c-4.26 0-4.37 1.83-4.67 4.93H105l.25-6.91h25.54l.26 6.91h-1.58c-.3-3.1-.3-4.93-4.67-4.93h-4.57v32.19h-4.42zM136.7 154.58c0-2.89-.72-3.86-5.13-4.47v-.86h24l.26 6.19h-1.58c-.5-2.64-.45-4.21-4.67-4.21h-5.33c-2.9 0-3.1.61-3.1 3.35v10h6.45c4.22 0 4.57-1.82 5-4.21h1.17v10.51h-1.17c-.51-2.94-.66-4.31-5-4.31h-6.45v11.93c0 2.94.46 2.94 4.17 2.94h5.48c3.45 0 3.71-1.06 4.42-4.92h1.57l-.35 6.9H136.7zM163.27 155c0-3.5-1.57-3.35-5.08-3.76v-.86l9.5-1.17V177c0 4.16 0 4.46 4.17 4.46h4.51c3.81 0 4-2.13 4.37-5.53h1.57l-.25 7.51h-18.79zM205.13 153.06a21 21 0 0 0-8.38-2.08c-3.65 0-6.14 2-6.14 5.07 0 8 16.75 7 16.75 18.13 0 7-5.79 9.8-12.33 9.8a39.73 39.73 0 0 1-8.13-1v-3.51a21.65 21.65 0 0 0 8.84 2.24c4.46 0 7.1-2.13 7.1-6.45 0-8.58-16.29-7.31-16.29-18 0-5.53 4.31-8.58 11.06-8.58a37.47 37.47 0 0 1 7.52.81zM125.6.08c3.87 8.91 8 17.65 11 26.9-.09.42-.68.42-1 .25-3.28-5.55-6.81-11-10.09-16.64A17.56 17.56 0 0 1 124.93 0z" fill="#fff"/><path d="M133.17 6.64c2.69 6.64 4 13.87 5.88 20.84 2 4.63 4.12 10.59 2.1 15.72-.42 3.36-4.45 5.38-3.53 9.16l.09 1.85a17.41 17.41 0 0 1 16.39-8.91 27.76 27.76 0 0 1 5.9 1.6c7-3.78 14.63-6.22 22-9-2.6 3-6.55 6.05-10 8.82-4 3-8.57 5-12.61 8.07-4 6.05-6 13.2-11.6 18.41a73.57 73.57 0 0 1-21.85 14.37c-3.45 1.34-4.37 6.3-8.82 5.46a1.3 1.3 0 0 1-.59-1.68l.5-.25c.34.59.84 1.26 1.6 1 4.54-.93 5.71-6.39 10-7.9 8.07-4 17.4-7.57 22-16.56 3.36-5.55 5.46-12 11.35-16.14a122.36 122.36 0 0 0 16.49-10.9A170.75 170.75 0 0 0 157 52.78a3.86 3.86 0 0 1-3 1.77c-1.26.33-2.19-.76-2.69-1.68a5.44 5.44 0 0 1 1.51-3.11 3.21 3.21 0 0 1 2.94-.76c1 .25 1 1.18 1.52 1.93a12.32 12.32 0 0 0 2.69-3.19c-1.52-1.77-4.46-1.26-7-1.6-4.62-.17-8.74 2.27-11.6 6.14-1.76 2.77-5 5.13-7.23 7.56 1.77 1.6 3.95 2.27 5.89 3.28-2 .67-3.87-.59-5.47-1.6-2.85-.75-3.61-5.29-7.06-4.2-8.82.34-17.23-1.43-25.3-3.53l-.75.51c-10.59-2.44-21.6-3.95-29.5-12.53-.17-.5-.68-.84-.34-1.43.76-.5 1.51.09 2.1.42 8.32 6 17.65 9.33 27.23 11.94.68-1.43 2.69-1.35 4-2 4.62-1.26 9.58-2.52 14.45-2.44.51.51-.16.93-.25 1.43-1.76 1.43-4.37.93-6.39 1.6a39.59 39.59 0 0 0-8.4 2.1c1 1.18 1.93-.5 3-.5A56.57 56.57 0 0 1 118 51.35c.75.17.58 1.1.33 1.52-1.43 1.59-4.12.67-5.88 1.59l-.09.09c1.6.84 3.37-.17 5.05-.25a1 1 0 0 1 .25 1c4.12.76 8.32 1.35 12.52 1.77l3.28 2.27a51.46 51.46 0 0 0 3.87-4.54c-2.44-6.22 3-10.42 3.86-15.89-.75-4-1.68-8-2.69-11.85l-1.17-.25c-2.1-5.55-4.12-11.18-6.22-16.81-.09-2.18-.76-4.79.17-6.64 1.34.51 1.26 2.27 1.93 3.28" fill="#fff"/><path d="M119.55 4.29A220.92 220.92 0 0 1 134.68 27c-.67.34-1.76 1-2.52.17-4.62-7.74-15-12.95-13.11-23z" fill="#fff"/><path d="M132.08 27.74c-.42.67-1.27 1.85-2.36 1.26-4-3.87-8.23-7.65-12.6-11.43a12.74 12.74 0 0 1-3.28-9.08c.17-.17.59-.34.75 0 6.22 6.22 12.19 12.77 17.49 19.25M111.74 13.53c5.88 5.38 12.52 10.76 18.15 16.56a1.62 1.62 0 0 1-2.44.42c-4.87-3.53-10.08-6.72-14.71-10.25-1-2.19-2.18-4.46-2.18-6.9zM108.54 19c6.73 4.2 13.62 8.4 20.09 13 0 .34-.25.93-.76.84-5.8-2.69-11.68-5.12-17.48-7.64-1.18-1.94-3.19-3.79-3-6.22a1.41 1.41 0 0 1 1.17 0M128 33.79c0 .33-.33.59-.59.75-6.47-2.18-12.94-4.45-19.66-5.46a7.41 7.41 0 0 1-2.53-3.36l.42-.67A98.49 98.49 0 0 1 128 33.79" fill="#fff"/><path d="M127.12 35.13c.08.67-.68.59-1 1a98.25 98.25 0 0 0-19.92-3.45c-.76-.67-1.77-1.34-1.93-2.35l.42-.5a63.61 63.61 0 0 1 22.44 5.29" fill="#fff"/><path d="M126.11 36.73c.17.42-.25.84-.42 1.18-6.47-.84-13.2-1.43-19.84-1.85a2.73 2.73 0 0 1-1.59-1.85l.08-.51c7.73-.16 14.71 1.26 21.77 3M125.44 38.58a1 1 0 0 1-.76 1.26c-6.14-.84-12.52-.5-19-.25-.75-.59-1.68-1.35-1.42-2.44 6.64-.76 14.2.34 21.18 1.43M124.43 40.68a1.88 1.88 0 0 1-1.43 1.51 117.75 117.75 0 0 0-17.06.67 2.37 2.37 0 0 1-2.1-1.42c-.17-1.18 1.42-.51 2-1a71.74 71.74 0 0 1 18.58.25M177.46 40.6c-6.72 3.53-13.7 6.38-19.83 11.17.84-1.26 2.18-2.52 2.6-4.28 5.72-2.27 11.52-4.63 17.23-6.89M122.49 43.12a1.42 1.42 0 0 1-.92 1.34c-5.46 0-11.18 1.09-16.73 1.85-.75 0-1.51-.84-1.93-1.51.08-.59.76-.84 1.35-.93a66.15 66.15 0 0 1 18.23-.75M91.31 52.53c3.78 1.18 7.9 1.77 11.6 3 .17.16.08.42.08.67A84.84 84.84 0 0 1 75.43 50a20.33 20.33 0 0 1-6.31-4.71l.26-.42c7.56 1.52 14.37 6 21.93 7.65M121.15 45.22c-.17.76-.25 1.6-1.09 2.1-5.38.84-10.76 1-15.72 2.94-.92-.25-2.27-1-2.35-2 1.43-1 3.86-1.26 5.71-1.76 4.46-.42 9-1.6 13.45-1.26" fill="#fff"/><path d="M80.22 52.7a139.93 139.93 0 0 0 24.62 4.62c.26 0 .42.34.59.5l-.5.51c-10.93-.17-21.18-2.44-31-5.46a24.41 24.41 0 0 1-4.7-3.2c.84-1.09 2.27-.08 3.36-.17zM156.62 51.27c-.34 1-1 2.27-2.19 2.52-1 .34-1.76-.42-2.18-1.26l.08-.84c.25.34.25 1.18.84 1.6s1.09-.25 1.68-.25a1.78 1.78 0 0 0 .59-2.78l-.08-.34c.75-.08.92.85 1.26 1.35" fill="#fff"/><path d="M95.26 58.08c3.95.59 7.9.59 11.94.84.08.17.33.33.25.59C96.1 60.6 85 58 74.42 55.89L70.72 54c-.25-.34 0-1 .5-.92 8 1.76 15.81 4.28 24 5" fill="#fff"/><path d="M108.54 60.1l.34.33-.59.42a126.37 126.37 0 0 1-32-1.6c-1.1-.84-2.69-.75-3.36-2l.75-.51c11.43 2.19 23.2 4.12 34.88 3.37" fill="#fff"/><path d="M109.72 61.1c0 .17.25.26.25.34-.76 1-2.6.5-3.78.92a252.75 252.75 0 0 1-26.56.17c-1.43-.42-3.36-.59-4.12-1.93l.76-.5c11.26 1 22 2.52 33.45 1" fill="#fff"/><path d="M110.9 62.53l-.42.42c-9 1.6-17.91 1.94-27.15 2.44a5.94 5.94 0 0 1-3.53-1.34c0-.68.75-.68 1.26-.76 9.58-.17 20.25.5 29.67-1zM111.9 63.54v.25a180.48 180.48 0 0 1-25.55 3.79c-1-.26-2.69.16-2.85-1.26 9.16-1.18 18.91-1.27 28.07-3zM112.49 64.63V65c-6.89 2.44-14.29 3-21.6 4.54-1.34-.09-2.6.17-3.78-.59-.34-.67.42-.84.76-.92a213.76 213.76 0 0 0 24.37-3.53c.08-.09.17.16.25.16M113.33 65.81c-.17.84-1.17.84-1.85 1.09l-18.74 4.63-2.69-.34c-.25-.17-.08-.42-.17-.67 7.65-1.94 15.47-2.61 23-5a.71.71 0 0 1 .5.25M126.7 66.82c-4.71 4.45-9.92 7.39-14.63 11.85-.67.08-2 .5-2.27-.42l.51-.76c5.63-3.61 10.84-8.07 16.64-11.43zM128.88 66.4l-.88 1.51c-6.22 4.88-11.6 10.93-14.46 17.74-1.51 2.94-2.52 6-5 8.57 3.36-1.26 6.47-3.53 9.58-5.63-1.18 1.93-3.53 3.19-5.55 4.54l-6 3c3.28-5.71 5.72-11.76 9.83-17.14a3.93 3.93 0 0 1-3.36.67.46.46 0 0 1-.17-.76l15.47-12.77a.7.7 0 0 1 .67.25M124.34 66.82c-4.79 4.2-10.5 6.89-15.46 10.92a12.09 12.09 0 0 1-2.52.26 1 1 0 0 1 0-1.35c5.54-3.53 11.34-6.55 16.81-10.25.42 0 1.09-.09 1.17.42M118 66.82c-5 3.53-11.43 5.46-17.07 8.32-1 .08-2.52.42-2.77-.93 6-3.19 13.11-4.79 19.5-7.64zM121.07 66.82c-4.71 3.7-10.07 6.18-15.13 9.58-1 .34-2.44 1-3.53.17a2.7 2.7 0 0 0-.42-.51l.42-.67c6-3 12-5.88 18-8.82.26.08.51.08.68.25M114.34 67.32c-5.8 1.85-11.43 4.21-17.23 6.14-1.51 0-3.11.17-4-.93.25-1.26 1.93-.67 2.77-1.17 6.31-1.26 12.28-3.2 18.5-4.54z" fill="#fff"/></svg>