<svg id="duke-logo" class="logo" xmlns="http://www.w3.org/2000/svg" viewBox="0 0 673.75 682.53"><path d="M337,672.27c180,0,326.37-148.38,326.37-330.77S517,10.73,337,10.73,10.62,159.11,10.62,341.5,157,672.27,337,672.27Z" transform="translate(-0.12 -0.23)" fill="none" stroke="#000" stroke-linecap="round" stroke-width="21"/><path d="M89,292.13c1.95,0,3.45.15,5.85.15a3,3,0,0,0,2.85-3c.15-14.55.3-41.55.3-63.75v-21.6a2.56,2.56,0,0,0-2.85-2.7c-2.55,0-4,.15-6,.15-.9,0-4.65-.15-4.8-4.35a4.27,4.27,0,0,1,4.5-4.2h.3c3.45.15,7.65.3,11.85.3,5.1,0,10.35-.15,15.15-.3a4.29,4.29,0,1,1,.3,8.55h-.3c-2.25-.15-3.6-.15-6-.15a2.56,2.56,0,0,0-2.7,2.85c-.15,10.8-.3,27.45-.3,43.8,0,16.2.15,32.1.15,41.4,0,3.45,1.65,3.45,9.3,3.45s19.65,0,25.5-.15c6.15-.15,9.15-2.4,11.1-6a68.74,68.74,0,0,0,4-9.9,4.59,4.59,0,0,1,9,1.2,4.77,4.77,0,0,1-.3,2c-3.9,11.7-7.2,21-23.25,21h-.6c-10.95-.15-22.8-.3-33-.3-7.65,0-14.85,0-19.8.3-1.2,0-4.8,0-4.8-4.35a4.17,4.17,0,0,1,4.35-4.35Z" transform="translate(-0.12 -0.23)"/><path d="M178.29,292c1.8,0,4.2.15,6.6.15,2.1,0,3-.9,3-2.85.3-16.65.45-34.5.45-51.9,0-11.4,0-22.65-.3-33.15a2.83,2.83,0,0,0-3-3c-2.4,0-4.95.15-6.75.15-.9,0-4.65-.15-4.8-4.35a4.27,4.27,0,0,1,4.5-4.2h.3c3.45.15,7.95.3,12.6.3,5.7,0,11.55-.15,16.35-.3a4.29,4.29,0,1,1,.3,8.55h-.3c-2.25-.15-4.2-.15-6.75-.15a2.72,2.72,0,0,0-2.85,3c-.15,12.75-.15,26.85-.15,41.25s0,29.25.15,43.8a2.56,2.56,0,0,0,2.7,2.85c2.55,0,4.5,0,6.75-.15a4.5,4.5,0,0,1,4.8,4.5,4.29,4.29,0,0,1-4.5,4.35h-.3c-4-.15-8.7-.3-13.35-.3-5.7,0-11.1.15-15.45.3a4.08,4.08,0,0,1-4.65-4.35,4.32,4.32,0,0,1,4.5-4.5Z" transform="translate(-0.12 -0.23)"/><path d="M253.74,292c1.95,0,3.6.3,6,.3a2.91,2.91,0,0,0,3-3c.15-12.6.3-32.55.3-51.15,0-13.5,0-26.25-.3-34.8,0-2.25,0-2.7-8.1-2.7-4,0-9.3.15-14.25.3-4.35.15-7.5,1.2-11.7,16.5a4.39,4.39,0,0,1-4.35,3.45,4.64,4.64,0,0,1-4.65-4.5c0-.75,1.8-6.9,4.65-13.8s8.25-9.9,16.2-9.9h1.05c6.9.15,16,.3,25.35.3s18.75-.15,26.1-.3h1.2c13.35,0,16.5,6.6,20.85,21.45a10.33,10.33,0,0,1,.3,2,4.7,4.7,0,0,1-4.8,4.65,4.06,4.06,0,0,1-4-3.15c-4.65-16.65-4.65-16.95-23.25-16.95-9.9,0-10.5.45-10.5,2.7-.3,8.85-.45,22.95-.45,37.95,0,17.25.15,35.7.45,48a2.72,2.72,0,0,0,2.85,3c2.4,0,3.75-.3,6-.3s4.8,1.2,4.8,4.5a4.21,4.21,0,0,1-4.5,4.35h-.3c-4-.15-8.55-.3-12.9-.3-5.55,0-10.8.15-15,.3a4.18,4.18,0,0,1-4.65-4.35,4.32,4.32,0,0,1,4.5-4.5Z" transform="translate(-0.12 -0.23)"/><path d="M362.49,292c2,0,3.6.3,6,.3a2.91,2.91,0,0,0,3-3c.15-12.6.3-32.55.3-51.15,0-13.5,0-26.25-.3-34.8,0-2.25,0-2.7-8.1-2.7-4,0-9.3.15-14.25.3-4.35.15-7.5,1.2-11.7,16.5a4.39,4.39,0,0,1-4.35,3.45,4.64,4.64,0,0,1-4.65-4.5c0-.75,1.8-6.9,4.65-13.8s8.25-9.9,16.2-9.9h1c6.9.15,16,.3,25.35.3s18.75-.15,26.1-.3H403c13.35,0,16.5,6.6,20.85,21.45a10.29,10.29,0,0,1,.3,2,4.7,4.7,0,0,1-4.8,4.65,4.06,4.06,0,0,1-4-3.15c-4.65-16.65-4.65-16.95-23.25-16.95-9.9,0-10.5.45-10.5,2.7-.3,8.85-.45,22.95-.45,37.95,0,17.25.15,35.7.45,48a2.72,2.72,0,0,0,2.85,3c2.4,0,3.75-.3,6-.3s4.8,1.2,4.8,4.5a4.21,4.21,0,0,1-4.5,4.35h-.3c-4-.15-8.55-.3-12.9-.3-5.55,0-10.8.15-15,.3a4.18,4.18,0,0,1-4.65-4.35,4.32,4.32,0,0,1,4.5-4.5Z" transform="translate(-0.12 -0.23)"/><path d="M436.44,292.13c2,0,3.45.15,5.85.15a3,3,0,0,0,2.85-3c.15-14.55.3-41.55.3-63.75v-21.6a2.55,2.55,0,0,0-2.85-2.7c-2.55,0-4,.15-6,.15-.9,0-4.65-.15-4.8-4.35a4.27,4.27,0,0,1,4.5-4.2h.3c3.45.15,7.65.3,11.85.3,5.1,0,10.35-.15,15.15-.3a4.29,4.29,0,1,1,.3,8.55h-.3c-2.25-.15-3.6-.15-6-.15a2.57,2.57,0,0,0-2.7,2.85c-.15,10.8-.3,27.45-.3,43.8,0,16.2.15,32.1.15,41.4,0,3.45,1.65,3.45,9.3,3.45,7.5,0,19.65,0,25.5-.15,6.15-.15,9.15-2.4,11.1-6a68.8,68.8,0,0,0,4-9.9,4.59,4.59,0,0,1,9,1.2,4.77,4.77,0,0,1-.3,2c-3.9,11.7-7.2,21-23.25,21h-.6c-11-.15-22.8-.3-33-.3-7.65,0-14.85,0-19.8.3-1.2,0-4.8,0-4.8-4.35a4.17,4.17,0,0,1,4.35-4.35Z" transform="translate(-0.12 -0.23)"/><path d="M525.53,201.24A4.18,4.18,0,0,1,521,197c-.15-2.1,1.5-4.2,4.5-4.2h.15c6.15.3,12.3.3,18.6.3,10.2,0,20.4-.15,30.45-.3,9.45,0,15.6,2.55,18.6,10.65,1.35,3.45,2.85,8.25,2.85,9.45a4.57,4.57,0,0,1-4.8,4.5,4.27,4.27,0,0,1-4.2-3.6,47.65,47.65,0,0,0-2.25-7c-2.1-5.85-4.8-5.85-31.95-5.85h-6.15a3,3,0,0,0-3.3,3.3c-.15,4.5-.15,25.2-.3,34.5,0,1.35.75,2.1,2.25,2.1,2.55.15,8.25.15,13.65.15,10.5,0,12.45,0,12.45-3.3,0-2.4-.15-3.6-.15-5.55a4,4,0,0,1,4.2-4.5,3.89,3.89,0,0,1,4,4.2v.3c-.15,3.6-.3,7.5-.3,11.55,0,4.8.15,9.75.3,14.4.15,4-3,4.5-4.2,4.5a4,4,0,0,1-4-4.2v-.3c.15-2.25.15-3.6.15-6.15a3,3,0,0,0-3-3.15c-3.45-.15-8.4-.15-13.35-.15-3.6,0-7,0-9.9.15-1.35,0-2.1.45-2.1,1.95,0,10.2,0,29.1.15,38.55a3.23,3.23,0,0,0,3.3,3.3c1.8.15,8.85.15,16,.15,5.4,0,10.8,0,14.25-.15,6.15-.15,11.1-1.35,13.95-13.65a4.25,4.25,0,0,1,4.2-3.3,4.54,4.54,0,0,1,4.65,4.5,7.51,7.51,0,0,1-.3,1.8c-4,12.9-7.65,19-21.75,19h-.6c-11.7-.15-24.45-.3-35.1-.3-6.6,0-12.45,0-16.8.3a4.58,4.58,0,0,1-4.8-4.5,4.38,4.38,0,0,1,4.5-4.35h.3c2,0,3.75.15,6.15.15a2.76,2.76,0,0,0,2.85-2.85c.15-7.95.15-15.6.15-85.35,0-2-1-3-2.85-3-2.4,0-3.9.15-5.85.15Z" transform="translate(-0.12 -0.23)"/><path d="M94,370c0-2.28-1.33-4-3.23-4-3,0-4.94.19-7.41.19-1.14,0-5.89-.19-6.08-5.51a5.4,5.4,0,0,1,5.7-5.32h.38c4.94.19,9.88.38,14.44.38,10.07,0,19.19-.38,28.31-.57,4.94,0,9.88,0,14.63.19,41,2.28,66.5,28.31,66.5,68.21,0,65.17-51.3,69.16-76.38,69.16-7.6,0-14.63-.38-25.27-.57-6.08,0-13.49,0-22.61.38-2.85.19-5.89-1.33-5.89-5.51a5.48,5.48,0,0,1,5.7-5.7H83c2.47,0,4.37.19,7.41.19a3.65,3.65,0,0,0,3.61-3.8Zm31.92-4.18c-19,0-19.76.38-19.76,4.56-.19,12.35-.38,26.79-.38,41.61,0,23,.19,46.93.38,65.55,0,4.37,5.13,4.37,16.91,4.37,28.69,0,71.82-1.14,71.82-58.33,0-33.06-21.09-56.62-55.29-57.57C137.73,365.81,132,365.81,125.95,365.81Z" transform="translate(-0.12 -0.23)"/><path d="M228.16,355.55h.38c4.37.19,9.5.38,14.82.38,6.46,0,13.11-.19,19.19-.38a5.44,5.44,0,0,1,6.08,5.51,5.29,5.29,0,0,1-5.7,5.32h-.38c-2.66-.19-4.75-.19-7.6-.19-2.66,0-3.61,1.33-3.61,3.61v10.07c0,16.34.19,32.49.19,48.83v10.64c0,29.83,19.76,44.27,39.71,44.27,20.52,0,41.23-15.2,41.23-45.22,0-18.05.19-36.67.19-54.91V369.8c0-2.28-.95-3.61-3.42-3.61-3,0-5.51.19-7.79.19a5.49,5.49,0,0,1-5.89-5.51,5.13,5.13,0,0,1,5.51-5.32h.38c4.37.19,9.5.38,14.82.38,6.46,0,13.11-.19,19.19-.38a5.44,5.44,0,0,1,6.08,5.51,5.29,5.29,0,0,1-5.7,5.32h-.38c-2.85-.19-4.37-.19-7.41-.19q-3.42,0-3.42,3.42c-.19,12.73-.19,23.75-.19,34.58s0,21.28.19,33.44c.57,37.43-25.46,57.38-53,57.38-26,0-52.06-18.43-52.06-55.86v-.76c.19-12.92.19-26.22.19-39.52,0-9.69,0-19.57-.19-29.07a3.45,3.45,0,0,0-3.42-3.61c-3,0-5.32.19-7.6.19-1.14,0-5.89-.19-6.08-5.51A5.4,5.4,0,0,1,228.16,355.55Z" transform="translate(-0.12 -0.23)"/><path d="M377.5,481.52c2.47,0,4.37.19,7.41.19a3.54,3.54,0,0,0,3.61-3.8c.38-17.29.38-37,.38-56s0-37.43-.38-52.06c0-2.85-1.71-3.8-3.61-3.8-3,0-4.94.19-7.41.19-4.56.19-6.08-3-6.08-5.13a5.43,5.43,0,0,1,5.7-5.51h.38c4.37.19,9.31.38,14.44.38,6.27,0,12.92-.19,18.81-.38,3.42-.19,6.08,2.09,6.08,5.32a5.29,5.29,0,0,1-5.7,5.32h-.38c-2.85-.19-4-.19-7-.19a3.55,3.55,0,0,0-3.61,3.8c0,8.74-.19,17.67-.19,25.08,0,7.6.19,13.87.19,17.29,0,3.61,2.28,3.8,5.89,3.8,6.84,0,9.69-2.47,12.35-5.32,26.6-27.93,39.71-42.37,39.71-43.7,0-.76-1-1-2.09-1h-5.7a5,5,0,0,1-5.13-5.32,5.2,5.2,0,0,1,5.51-5.13H451c4.37.19,9.31.38,14.25.38,6.08,0,12.54-.19,18.43-.38h.38a5.13,5.13,0,0,1,5.51,5.32,5.24,5.24,0,0,1-5.51,5.32c-2.85,0-3.8-.19-6.84-.19a7.37,7.37,0,0,0-4.94,2.09c-13.68,15.39-31.73,33.82-46.36,49-1.14,1.33-1.9,2.28-1.9,3.23,0,2.09,1.33,3.23,58.71,59.47a5.82,5.82,0,0,0,3.61,1.71c3,0,3.61-.19,6.27-.19,3.23,0,6.08,2.28,6.08,5.51a5.33,5.33,0,0,1-5.7,5.51h-.38c-5.13-.19-10.26-.38-15.2-.38-6.08,0-12,.19-17.29.38h-.38a5,5,0,0,1-5.13-5.32c0-2.47,1.52-5.13,4.56-5.13,4.56-.19,7.79,0,7.79-.95,0-.19-.19-.38-.38-.57-15.77-17.1-34.39-34.77-48.45-50-2.28-2.47-5.51-3.8-10.26-3.8-1.52,0-3.23.19-4.56.19s-3.23.38-3.23,3.42c0,3.61-.19,10.26-.19,18.81,0,8.36.19,18.62.19,29.07,0,2.47,1.71,3.61,3.8,3.61,3,0,4,0,6.84-.19,2.66,0,5.51,1.71,5.51,5.13,0,2.85-1.9,5.7-5.13,5.7h-.38c-5.13-.19-10.26-.38-15.58-.38-6.27,0-12.35.19-17.67.38a5.1,5.1,0,0,1-5.7-5.32,5.38,5.38,0,0,1,5.51-5.51Z" transform="translate(-0.12 -0.23)"/><path d="M513.35,366.19a5.29,5.29,0,0,1-5.7-5.32c-.19-2.66,1.9-5.32,5.7-5.32h.19c7.79.38,15.58.38,23.56.38,12.92,0,25.84-.19,38.57-.38,12,0,19.76,3.23,23.56,13.49,1.71,4.37,3.61,10.45,3.61,12,0,3.61-3,5.7-6.08,5.7a5.41,5.41,0,0,1-5.32-4.56,60.35,60.35,0,0,0-2.85-8.93c-2.66-7.41-6.08-7.41-40.47-7.41h-7.79c-2.47,0-4.18,1.33-4.18,4.18-.19,5.7-.19,31.92-.38,43.7,0,1.71,1,2.66,2.85,2.66,3.23.19,10.45.19,17.29.19,13.3,0,15.77,0,15.77-4.18,0-3-.19-4.56-.19-7a5.07,5.07,0,0,1,5.32-5.7,4.93,4.93,0,0,1,5.13,5.32v.38c-.19,4.56-.38,9.5-.38,14.63,0,6.08.19,12.35.38,18.24.19,5.13-3.8,5.7-5.32,5.7a5,5,0,0,1-5.13-5.32v-.38c.19-2.85.19-4.56.19-7.79a3.85,3.85,0,0,0-3.8-4c-4.37-.19-10.64-.19-16.91-.19-4.56,0-8.93,0-12.54.19-1.71,0-2.66.57-2.66,2.47,0,12.92,0,36.86.19,48.83,0,2.47,1.71,4,4.18,4.18,2.28.19,11.21.19,20.33.19,6.84,0,13.68,0,18.05-.19,7.79-.19,14.06-1.71,17.67-17.29a5.38,5.38,0,0,1,5.32-4.18,5.75,5.75,0,0,1,5.89,5.7,9.56,9.56,0,0,1-.38,2.28c-5.13,16.34-9.69,24.13-27.55,24.13h-.76c-14.82-.19-31-.38-44.46-.38-8.36,0-15.77,0-21.28.38-4.94.19-6.08-4.37-6.08-5.7.19-2.66,1.9-5.51,5.7-5.51H513c2.47,0,4.75.19,7.79.19a3.49,3.49,0,0,0,3.61-3.61c.19-10.07.19-19.76.19-108.11,0-2.47-1.33-3.8-3.61-3.8-3,0-4.94.19-7.41.19Z" transform="translate(-0.12 -0.23)"/><path d="M287.77,564.73h.1A2.63,2.63,0,1,1,288,570h-.2c-1.3,0-2.7-.1-4.05-.1-1.65,0-3.2,0-4.4.1a2.73,2.73,0,0,1-3-2.65,2.59,2.59,0,0,1,2.75-2.6h.25c.25,0,.5,0,.75,0a.76.76,0,0,0,.85-.85c.05-2.25.05-4.3.05-6s0-3.1-.05-4-.25-1-1-1c-1.75,0-4.45-.1-7.3-.1-3.4,0-7,0-8.9.1-.4,0-1,.1-1,1-.05,1.2-.05,3.4-.05,6.2v3.7c0,.5.2,1,.85,1h.65a2.64,2.64,0,1,1,.1,5.25H264c-1.3,0-2.65-.1-4-.1-1.65,0-3.2,0-4.4.1h-.2a2.63,2.63,0,1,1,0-5.25h1.2a.74.74,0,0,0,.55-.8c.05-5.05.1-10.75.1-16.1,0-3.3,0-6.4,0-9.15,0-.6-.05-1.2-.75-1.2h-.1l-.75.05a2.65,2.65,0,0,1-3-2.65,2.59,2.59,0,0,1,2.75-2.6h.25c1.05,0,2.35.1,3.7.1,1.65,0,3.35-.05,4.7-.1h.1a2.64,2.64,0,1,1,.1,5.25h-.55c-.6,0-1,.15-1,1,0,1.8-.05,3.45-.05,4.9s.05,2.55.05,3.35.45,1,.9,1c1.25,0,4.45,0,7.8,0s6.9,0,8.7,0c.7,0,.9-.35.9-1,.05-.8.05-2,.05-3.4s0-3.2-.05-5.1c0-.75-.45-.85-1-.85-.15,0-.4.05-.55.05a2.65,2.65,0,0,1-3-2.65,2.59,2.59,0,0,1,2.75-2.6h.25c1.05,0,2.35.1,3.75.1,1.65,0,3.35-.05,4.7-.1h.1a2.63,2.63,0,1,1,.1,5.25h-.5c-.55,0-1,.15-1,.85-.05,3.35-.1,7.4-.1,11.5,0,5,0,10,.1,13.9,0,.6.15.8.85,1Z" transform="translate(-0.12 -0.23)"/><path d="M294.57,551.18c0-11.25,8.25-19.4,19.25-19.4s19.3,8.15,19.3,19.4c0,11.65-8.3,19.4-19.3,19.4S294.57,562.83,294.57,551.18Zm32.75,0c0-8.75-6.05-14.35-13.5-14.35s-13.5,5.6-13.5,14.35,6.05,14.25,13.5,14.25S327.32,559.83,327.32,551.18Z" transform="translate(-0.12 -0.23)"/><path d="M347.57,537.23c-4.3,0-4.5.05-5.15,2.25-.15.45-.25,1-.45,1.6a2.72,2.72,0,0,1-2.65,2,2.6,2.6,0,0,1-2.7-2.6,4.28,4.28,0,0,1,.25-1.3c1.6-4.8,2.45-7,7.75-7h1c1.55,0,4.1.1,6.85.1,3.35,0,7,0,9.25-.1h.5c4,0,6.05,1.15,7.1,4.05.3.8.85,1.95,1.2,3a3.29,3.29,0,0,1,.2,1.15,2.75,2.75,0,0,1-5.4.65q-.23-.82-.45-1.5c-.75-2.3-1.25-2.35-3.9-2.35-4.1,0-4.15,0-4.15,1.1-.1,3.7-.15,9.05-.15,14.35,0,3.85,0,7.65.1,10.8,0,1.1.5,1.15,1.4,1.15a2.68,2.68,0,0,1,2.9,2.7,2.62,2.62,0,0,1-2.75,2.65h-.2c-1.25,0-2.65-.1-4-.1-1.65,0-3.25,0-4.4.1a2.68,2.68,0,1,1-.2-5.35h.2c.9-.05,1.4,0,1.4-1.1,0-4,.1-10.15.1-16.3,0-3,0-6.1-.1-8.9C351,537.23,351,537.23,347.57,537.23Z" transform="translate(-0.12 -0.23)"/><path d="M386.31,564.93c8,0,8.3-.2,9.2-3.25a2.55,2.55,0,0,1,2.5-2,2.68,2.68,0,0,1,2.75,2.65,13.75,13.75,0,0,1-1,3.25c-1,2.6-2.85,4.3-8.15,4.3-2.7,0-6.45,0-10,0-2.4,0-4.65,0-6.5.1a2.69,2.69,0,0,1-3-2.6,2.59,2.59,0,0,1,2.75-2.6h.5c.85,0,1.1-.25,1.15-1,.25-3.3.3-12.7.3-20v-5.3c0-.75-.2-1.15-1.3-1.15s-3.2-.25-3.2-2.55a2.59,2.59,0,0,1,2.8-2.55h.2c1.35,0,3,.1,4.9.1,3.7,0,8-.1,10.6-.1,6.15,0,6.9,2.25,8,6a4.68,4.68,0,0,1,.2,1.1,2.61,2.61,0,0,1-2.75,2.6,2.57,2.57,0,0,1-2.65-2.2c-.35-1.8-1-2.5-3.45-2.5-2.1,0-6-.05-6.6-.05-1,0-1.3.2-1.35,1.3,0,2.25-.1,5.75-.15,9.1,0,.5.25.65.7.65,1.6,0,4.15,0,5,0s1-.75,1-1.6a2.57,2.57,0,0,1,2.6-2.75,2.39,2.39,0,0,1,2.45,2.55v.2c-.05,1.15-.1,2.5-.1,3.8,0,1.55,0,3.1.1,4.2v.2a2.53,2.53,0,0,1-5.05,0v-.2c0-.2,0-.45,0-.65,0-.55-.15-1-1-1s-3.45,0-5,0c-.6,0-.75.25-.75.8,0,4.55,0,8.7.1,9.85C382.16,564.83,382.46,564.93,386.31,564.93Z" transform="translate(-0.12 -0.23)"/><path d="M414.76,569.88c-1.65,0-3.5,0-5.2,0-1.25,0-2.4,0-3.35,0H406a2.56,2.56,0,0,1-2.75-2.6,2.59,2.59,0,0,1,2.75-2.6h.3c1,0,1.1,0,1.1-18.9v-7.4c0-.7-.25-.9-.75-.9h-.2c-.2,0-.4.05-.65.05a2.73,2.73,0,0,1-3-2.65,2.59,2.59,0,0,1,2.75-2.6h.25c1,0,2.35.1,3.75.1,1.65,0,3.35-.05,4.7-.1h.1a2.64,2.64,0,1,1,.1,5.25h-.2c-.2,0-.4-.05-.6-.05-.45,0-.8.15-.85.85-.1,4.1-.2,11.75-.2,17.65,0,3.6,0,6.55.1,7.5s.15,1.3,1.3,1.4h7.25c3,0,4-1.4,5.25-4.85a2.66,2.66,0,0,1,2.6-1.75,2.89,2.89,0,0,1,3,2.75c0,.65-.2,1.1-1,3-1.5,3.85-3.3,6-9.55,6-2.1,0-5.8,0-6.6,0Z" transform="translate(-0.12 -0.23)"/></svg>