<svg id="first-logo" class="logo" xmlns="http://www.w3.org/2000/svg" viewBox="0 0 138.379 187.119"><path d="M63.5,143.62a12.237,12.237,0,0,0-2.332.3v11.39h2.144c3.158,0,6.014-1.69,6.014-5.937C69.329,144.974,66.435,143.62,63.5,143.62Z"/><path d="M101.307,39.066c-1.074.205-1.832.9-1.7,1.565s1.115,1.032,2.186.83,1.842-.9,1.705-1.565S102.379,38.865,101.307,39.066Z"/><path d="M0,0V187.119H138.379V0ZM36.433,147.868l-.9.151c-.825-4.022-.9-4.588-6.2-4.588h-3.5v10.94h3.721c2.934,0,3.61-.037,3.837-1.578l.187-1.278h.979v6.766h-.979L33.389,157c-.227-1.54-.9-1.579-3.837-1.579H25.831v5.9c0,4.586,0,4.775,2.068,4.925l1.353.113v.827H19.517v-.827l1.354-.113c1.465-.149,1.465-.339,1.465-4.925V148.244c0-4.586,0-4.774-1.465-4.923l-1.354-.114v-.828H36.093a21.328,21.328,0,0,1,.414,3.985C36.507,147.231,36.433,147.53,36.433,147.868Zm13.047-4.661-1.352.114c-1.468.148-1.468.337-1.468,4.923v13.081c0,4.586,0,4.775,1.468,4.925l1.352.113v.827H40.343v-.827l1.355-.113c1.465-.149,1.465-.339,1.465-4.925V148.244c0-4.586,0-4.774-1.465-4.923l-1.355-.114v-.828h9.137ZM76.961,167.19H74.067c-2.484,0-4.215-1.693-5.34-3.76l-1.5-2.894a16.89,16.89,0,0,0-2.332-3.684,3.744,3.744,0,0,0-2.328-.488H61.171v4.96c0,4.586,0,4.775,1.43,4.925l1.354.113v.827h-9.1v-.827l1.351-.113c1.467-.149,1.467-.339,1.467-4.925V148.244c0-4.586,0-4.774-1.467-4.923l-1.351-.114v-.828h9.809c3.572,0,8.609.528,8.609,6.241,0,3.494-3.121,5.563-5.189,6.542.564,1.051,1.807,3.456,2.82,5.262,1.581,2.82,3.233,5.037,4.174,5.565a3.926,3.926,0,0,0,1.88.375Zm9.219.563a10.82,10.82,0,0,1-5.906-1.5,18.269,18.269,0,0,1-1.2-6.616l1.2-.3c.416,2.706,1.807,7.181,6.957,7.181a4.291,4.291,0,0,0,4.51-4.624c0-2.745-2.293-4.624-5.225-5.938l-2.406-1.317a7.534,7.534,0,0,1-4.135-6.312c0-4.587,3.836-6.506,7.816-6.506a10.482,10.482,0,0,1,5.188,1.2,31.92,31.92,0,0,1,.377,5.189h-.937c-.377-1.88-.977-5.15-5.227-5.15a3.991,3.991,0,0,0-4.1,4.1c0,2.221,1.621,3.423,3.65,4.624l2.064,1.166c2.971,1.691,6.055,3.27,6.055,7.782C94.862,165.8,90.163,167.754,86.18,167.754Zm32.709-19.4h-.9c-.826-4.36-.9-4.926-6.205-4.926h-1.951v17.894c0,4.586,0,4.775,2.1,4.925l1.354.113v.827H102.873v-.827l1.393-.113c2.07-.149,2.07-.339,2.07-4.925V143.432h-1.959c-5.3,0-5.373.565-6.2,4.926h-.9c0-.15-.078-1.166-.078-1.654a25.863,25.863,0,0,1,.416-4.324h20.936a25.909,25.909,0,0,1,.414,4.324C118.963,147.191,118.889,148.207,118.889,148.357Zm2.592-130.569c-.15.084-.344.245-.529.361-1.615.931-2.2,4.852-1.072,8.894a21.16,21.16,0,0,1,.734,8.059c-.766,5.933-4.66,13.141-14.6,16.929a.521.521,0,0,0-.187.809c1.564,2.06,3.041,2.887,6.412,3.92a20.512,20.512,0,0,0,5.252.876c.854-.075,1.26,1.076-.047,1.262a20.535,20.535,0,0,1-9.77-1.112,21.963,21.963,0,0,1-4.119-1.814c-.435-.278-.934.026-1.221.29A17.279,17.279,0,0,1,95.67,59.6c-1.924.47-2.668,1.277-2.639,2.4v.018c.137,7.1,14.988,14.405,17.178,15.563a2.149,2.149,0,0,1,.844,3.363c-.75.918-3.977,4.329-5.676,6.593a2.345,2.345,0,0,1-3.558,0c-14.951-16.065-47.6-9.018-54.474,13.924-.39,1.033-1.675,1.373-2.966.857-.755-.3-5.43-2.411-8.12-3.48a2.038,2.038,0,0,1-.927-2.99c4.468-6.575,5.806-9.612,6.845-14.078a92.264,92.264,0,0,0,1.444-12.941A11.024,11.024,0,0,1,34.7,71.252a11.728,11.728,0,0,1-3.956-1.227c-1.008-.515-.448-1.406.324-1.144a11.722,11.722,0,0,0,3.683.6,11.332,11.332,0,0,0,10.361-6.034,16.885,16.885,0,0,1,4.483-6,11.761,11.761,0,0,1,8.536-2.791c1.156.032,1.055-1.187.022-1.273a14.357,14.357,0,0,0-6.066.762,34.741,34.741,0,0,1-11.078,2.471c-12.161.616-17.073-6.7-18.609-10.01-.225-.362.125-.733.524-.417,4.56,4.028,9.139,4.681,14.4,4.716,4.31.029,7.523-.931,10.783-1.634A28.179,28.179,0,0,1,54.7,48.5c1.077,0,1.315-.109,1.383-.557.055-.3-.066-.553-.84-.622a28.2,28.2,0,0,0-7.206.242,61.956,61.956,0,0,1-11.247.928c-16.182-.554-18.658-10.15-18.98-14.425-.092-.628.406-.7.68-.208,2.473,4.945,8.015,7.06,14.774,7.858,3.918.45,9.484-.158,14.865-.182,1.292,0,2.85.1,3.649.147.607.036,1.206.15,1.271-.379.048-.355-.6-.713-1.357-.855-1.428-.261-2.557-.405-4-.533-3.175-.275-5.879-.308-8.02-.387-5.263-.2-9.213-.458-14.315-2.517-7.211-3.376-8.327-9.24-8.433-11.959-.041-.544.5-.56.675-.2a11.766,11.766,0,0,0,4.824,4.063c7.415,3.96,16.142,3.582,27.627,3.616,6.706.019,12.652,1.884,16.762,6.793,1.9,2.265,3.405,6.363,4.194,11.316C72.729,61.42,80.03,66.4,86.047,67.351c1.463.267,1.719-.019,1.777-.284.1-.42-.115-.707-.92-.907A17.423,17.423,0,0,1,73.786,50.691c-.325-4.706.74-10.824,6.837-14.062,2.221-1.191,6.584-2.215,10.127-.279,3.947-4.189,13.221-1.613,15.795-1.521,2.879.092,5.742.237,7.461-1.918,2.824-3.509.068-8.595,1.6-13.48a8.5,8.5,0,0,1,2.963-4.225c.26-.177.4-.316.623-.464.535-.347,1.269.218.914.8a.776.776,0,0,0,.844,1.157C121.7,16.5,122.227,17.309,121.481,17.788Z"/></svg>
