<?xml version="1.0" standalone="no"?>
<!DOCTYPE svg PUBLIC "-//W3C//DTD SVG 20010904//EN"
 "http://www.w3.org/TR/2001/REC-SVG-20010904/DTD/svg10.dtd">
<svg version="1.0" xmlns="http://www.w3.org/2000/svg"
 width="1228.000000pt" height="428.000000pt" viewBox="0 0 1228.000000 428.000000"
 preserveAspectRatio="xMidYMid meet">
<metadata>
Created by potrace 1.14, written by Peter Selinger 2001-2017
</metadata>
<g transform="translate(0.000000,428.000000) scale(0.100000,-0.100000)"
fill="#000000" stroke="none">
<path d="M6848 3814 c-18 -9 -28 -23 -28 -37 1 -12 149 -312 330 -667 l329
-645 33 0 33 0 332 652 c202 397 330 658 327 668 -6 15 -62 50 -69 43 -1 -2
-141 -276 -311 -610 -170 -334 -312 -604 -316 -600 -4 4 -144 277 -312 607
-167 330 -308 601 -313 602 -4 1 -20 -5 -35 -13z"/>
<path d="M2255 3805 c-286 -77 -477 -291 -515 -577 -35 -261 97 -531 325 -666
107 -63 182 -84 312 -90 189 -8 349 46 476 159 l58 52 -22 23 c-32 34 -52 30
-113 -20 -102 -83 -226 -126 -361 -126 -260 1 -477 157 -560 404 -33 97 -37
240 -10 333 45 154 157 295 291 365 209 109 463 86 640 -58 61 -50 81 -54 113
-20 l22 23 -57 51 c-120 108 -273 162 -448 161 -56 0 -123 -6 -151 -14z"/>
<path d="M3217 3804 c-4 -4 -7 -177 -7 -385 l0 -378 -30 -16 c-32 -16 -38 -41
-19 -76 7 -14 16 -18 29 -14 18 6 20 -1 22 -137 l3 -143 35 0 35 0 5 165 5
165 50 27 c61 33 122 37 156 9 23 -19 24 -25 29 -193 l5 -173 35 0 35 0 3 181
c2 173 2 182 -20 215 -28 41 -99 79 -148 79 -19 -1 -53 -8 -75 -16 -83 -32
-74 -69 -77 332 l-3 359 -30 3 c-17 2 -34 0 -38 -4z"/>
<path d="M4685 3798 c-3 -7 -4 -267 -3 -578 l3 -565 35 0 35 0 0 575 0 575
-33 3 c-20 2 -34 -2 -37 -10z"/>
<path d="M5875 3438 c-3 -7 -6 -80 -7 -163 l-3 -150 -55 -5 c-48 -4 -55 -8
-58 -28 -5 -37 15 -52 69 -52 l49 0 0 -159 c0 -147 2 -160 22 -186 60 -76 175
-72 265 10 l48 44 -27 27 -27 28 -43 -31 c-70 -49 -83 -54 -116 -42 -37 13
-42 34 -42 190 l0 119 109 0 c117 0 136 7 129 52 -3 22 -7 23 -118 28 l-115 5
-5 160 -5 160 -33 3 c-20 2 -34 -2 -37 -10z"/>
<path d="M8436 3388 c-23 -32 -20 -74 6 -98 64 -59 153 25 102 98 -11 16 -25
22 -54 22 -29 0 -43 -6 -54 -22z"/>
<path d="M5207 3116 c-158 -59 -212 -241 -112 -377 98 -135 325 -123 401 23
12 24 12 27 -11 42 -33 22 -41 21 -72 -15 -57 -64 -142 -80 -208 -39 -33 20
-65 65 -65 89 0 7 69 12 193 13 l192 3 3 29 c9 77 -51 177 -131 217 -52 27
-140 34 -190 15z m158 -95 c16 -10 40 -33 53 -52 l23 -34 -147 -3 c-81 -1
-149 0 -152 3 -9 9 23 57 51 79 49 37 114 40 172 7z"/>
<path d="M8977 3116 c-158 -59 -212 -241 -112 -377 98 -135 325 -123 401 23
12 24 12 27 -11 42 -33 22 -41 21 -72 -15 -57 -64 -142 -80 -208 -39 -33 20
-65 65 -65 89 0 7 69 12 193 13 l192 3 3 29 c9 77 -51 177 -131 217 -52 27
-140 34 -190 15z m158 -95 c16 -10 40 -33 53 -52 l23 -34 -147 -3 c-81 -1
-149 0 -152 3 -9 9 23 57 51 79 49 37 114 40 172 7z"/>
<path d="M9502 3113 c-20 -18 -20 -20 95 -240 139 -267 140 -268 201 -147 l39
77 39 -77 c61 -119 63 -117 200 149 63 121 114 223 114 226 0 11 -52 30 -69
24 -9 -3 -54 -78 -100 -167 l-84 -162 -25 50 -24 50 52 103 c28 57 50 104 48
106 -17 14 -52 25 -66 21 -9 -3 -33 -35 -52 -70 l-35 -65 -35 67 c-38 72 -56
83 -95 58 l-24 -16 54 -102 53 -102 -25 -49 -25 -50 -19 32 c-11 18 -48 90
-84 160 -72 144 -90 161 -133 124z"/>
<path d="M4180 3104 c-130 -34 -243 -113 -285 -199 -13 -27 -20 -61 -20 -102
0 -69 17 -101 76 -141 29 -20 44 -23 101 -20 80 4 129 33 193 115 22 28 43 52
47 52 4 1 8 -33 10 -75 2 -60 7 -79 21 -88 12 -8 22 -8 35 0 15 10 17 33 17
240 l0 229 -70 2 c-38 1 -95 -5 -125 -13z m106 -96 c-14 -73 -114 -226 -171
-264 -14 -9 -44 -19 -68 -21 -36 -4 -46 -1 -67 21 -30 33 -31 92 0 141 40 65
189 141 304 154 5 1 6 -14 2 -31z"/>
<path d="M8455 3108 c-3 -7 -4 -112 -3 -233 l3 -220 35 0 35 0 0 230 0 230
-33 3 c-20 2 -34 -2 -37 -10z"/>
<path d="M340 2265 l0 -25 5760 0 5760 0 0 25 0 25 -5760 0 -5760 0 0 -25z"/>
<path d="M7930 1880 c0 -6 -72 -10 -195 -10 -107 0 -195 -3 -195 -6 0 -3 7
-12 15 -20 12 -13 15 -47 15 -179 0 -132 -3 -166 -15 -179 -8 -8 -15 -17 -15
-20 0 -3 90 -6 200 -6 127 0 200 -4 200 -10 0 -5 7 -10 15 -10 11 0 15 12 15
50 0 37 -4 50 -14 50 -8 0 -18 -4 -21 -10 -4 -6 -63 -10 -146 -10 l-139 0 0
60 0 60 94 0 c53 0 98 -4 101 -10 3 -5 13 -10 21 -10 10 0 14 13 14 50 0 37
-4 50 -14 50 -8 0 -18 -4 -21 -10 -3 -6 -48 -10 -101 -10 l-94 0 0 55 0 55
134 0 c79 0 137 -4 141 -10 3 -5 13 -10 21 -10 10 0 14 13 14 50 0 38 -4 50
-15 50 -8 0 -15 -4 -15 -10z"/>
<path d="M4580 1861 c0 -5 7 -11 15 -15 13 -4 15 -34 15 -181 0 -147 -2 -177
-15 -181 -44 -17 4 -24 174 -24 116 0 192 -4 196 -10 3 -5 13 -10 21 -10 10 0
14 13 14 50 0 37 -4 50 -14 50 -8 0 -18 -4 -21 -10 -4 -6 -62 -10 -141 -10
l-134 0 0 165 c0 103 4 165 10 165 6 0 10 5 10 10 0 6 -28 10 -65 10 -36 0
-65 -4 -65 -9z"/>
<path d="M5393 1856 c-61 -20 -99 -51 -122 -99 -35 -72 -23 -175 27 -230 52
-57 184 -82 284 -53 139 40 193 208 101 316 -14 17 -44 40 -66 51 -51 26 -166
34 -224 15z m168 -66 c49 -26 79 -72 79 -125 0 -53 -30 -99 -79 -125 -153 -77
-304 107 -183 223 53 50 118 60 183 27z"/>
<path d="M6040 1860 c0 -5 5 -10 10 -10 6 0 10 -68 10 -185 0 -117 -4 -185
-10 -185 -5 0 -10 -4 -10 -10 0 -14 264 -13 313 1 50 14 103 61 118 107 16 49
13 155 -5 191 -21 39 -69 78 -114 91 -48 13 -312 13 -312 0z m289 -68 c66 -35
91 -131 53 -201 -28 -52 -72 -71 -164 -71 l-78 0 0 145 0 145 78 0 c56 0 87
-5 111 -18z"/>
<path d="M6907 1857 c-154 -48 -199 -248 -78 -350 71 -60 267 -62 352 -4 30
21 32 26 33 85 l1 62 -71 0 c-39 0 -86 3 -103 6 l-31 7 0 -47 c0 -39 3 -46 20
-46 11 0 20 5 20 10 0 6 18 10 41 10 36 0 40 -2 37 -22 -7 -46 -131 -63 -206
-27 -82 40 -103 141 -44 211 50 59 132 74 210 38 23 -10 45 -26 48 -35 11 -28
44 -17 60 21 8 20 14 38 12 39 -2 2 -38 15 -80 29 -83 28 -158 32 -221 13z"/>
<path d="M5816 890 c-3 -17 -15 -62 -27 -100 l-21 -69 -99 -3 -99 -3 75 -59
c42 -33 78 -62 80 -66 2 -3 -9 -51 -25 -105 -16 -55 -28 -100 -27 -102 2 -1
36 25 77 57 41 33 78 60 81 60 4 0 40 -27 80 -59 41 -33 75 -58 77 -56 3 2
-29 116 -53 192 -2 6 33 40 77 75 l81 63 -100 3 -101 3 -28 99 c-15 55 -31
100 -34 100 -4 0 -10 -14 -14 -30z"/>
<path d="M6636 890 c-3 -17 -15 -62 -27 -100 l-21 -69 -99 -3 -99 -3 75 -59
c42 -33 78 -62 80 -66 2 -3 -9 -51 -25 -105 -16 -55 -28 -100 -27 -102 2 -1
36 25 77 57 41 33 78 60 81 60 4 0 40 -27 80 -59 41 -33 75 -58 77 -56 3 2
-29 116 -53 192 -2 6 33 40 77 75 l81 63 -100 3 -101 3 -28 99 c-15 55 -31
100 -34 100 -4 0 -10 -14 -14 -30z"/>
<path d="M7456 890 c-3 -17 -15 -62 -27 -100 l-21 -69 -99 -3 -99 -3 75 -59
c42 -33 78 -62 80 -66 2 -3 -9 -51 -25 -105 -16 -55 -28 -100 -27 -102 2 -1
36 25 77 57 41 33 78 60 81 60 4 0 40 -27 80 -59 41 -33 75 -58 77 -56 3 2
-29 116 -53 192 -2 6 33 40 77 75 l81 63 -100 3 -101 3 -28 99 c-15 55 -31
100 -34 100 -4 0 -10 -14 -14 -30z"/>
<path d="M5008 904 c-3 -5 -8 -22 -12 -39 -4 -16 -16 -60 -28 -97 l-20 -67
-99 -3 -99 -3 75 -59 c42 -33 78 -62 80 -66 2 -3 -9 -51 -25 -105 -16 -55 -28
-100 -27 -102 2 -1 36 25 77 57 41 33 78 60 81 60 4 0 40 -27 80 -59 41 -33
75 -58 77 -56 3 2 -29 116 -53 192 -2 6 33 40 77 75 l81 63 -101 3 -100 3 -29
106 c-17 58 -32 102 -35 97z"/>
</g>
</svg>
