<svg id="avenue-logo" class="logo" xmlns="http://www.w3.org/2000/svg" viewBox="0 0 3376 1616.88"><path d="M2676.68,452.36c-100.57,0-157.5,83.82-157.5,183.45s67.75,177.32,157.5,177.32c94.24,0,162.54-80.76,162.54-180.38S2775.06,452.36,2676.68,452.36Zm.71,308.77c-63.87,0-112.09-55.29-112.09-126.2s40.53-130.57,112.09-130.57c70,0,115.69,57.48,115.69,128.39S2744.46,761.13,2677.39,761.13Z" transform="translate(-309.48 -304.4)" fill="#c79c68"/><polygon points="2603.09 503.32 2603.09 494.67 2617.14 486.56 2617.14 213.54 2526.31 213.54 2516.04 222.19 2509.02 222.19 2509.02 143.26 2516.04 143.26 2521.99 151.91 2778.79 155.16 2789.6 146.51 2798.79 146.51 2798.79 226.52 2791.76 227.06 2780.95 214.09 2690.66 213 2688.5 487.1 2699.86 493.58 2699.86 503.32 2603.09 503.32" fill="#c79c68"/><polygon points="3111.45 503.32 3111.45 496.11 3130.2 492.5 3130.2 174.62 3111.45 163.81 3111.45 158.77 3223.9 158.77 3223.9 164.53 3203 173.9 3199.41 449.98 3355.81 450.7 3368.79 438.44 3376 438.44 3376 519.18 3367.35 519.18 3356.54 509.8 3111.45 503.32" fill="#c79c68"/><path d="M1085.34,1074.45,1072,1114.79h-17.13l43.58-128.26h20l43.77,128.26h-17.7l-13.7-40.34Zm42.05-12.94-12.56-36.92c-2.85-8.37-4.76-16-6.66-23.41h-.38c-1.9,7.61-4,15.41-6.47,23.22l-12.56,37.11Z" transform="translate(-309.48 -304.4)" fill="#fff"/><path d="M1416.32,1058.47c-1-17.89-2.09-39.39-1.9-55.37h-.57c-4.38,15-9.71,31-16.17,48.71L1375,1114h-12.56l-20.74-61.08c-6.09-18.08-11.23-34.63-14.84-49.86h-.38c-.38,16-1.33,37.49-2.47,56.71l-3.42,55h-15.79l8.94-128.26h21.12l21.88,62c5.33,15.79,9.71,29.88,12.94,43.2h.57c3.24-12.94,7.8-27,13.51-43.2l22.83-62h21.12l8,128.26h-16.17Z" transform="translate(-309.48 -304.4)" fill="#fff"/><path d="M1553.91,1094.62a58.66,58.66,0,0,0,29.69,8.37c16.94,0,26.83-8.94,26.83-21.88,0-12-6.85-18.84-24.17-25.5-20.93-7.42-33.87-18.27-33.87-36.35,0-20,16.56-34.82,41.48-34.82,13.13,0,22.64,3,28.35,6.28l-4.57,13.51a51.09,51.09,0,0,0-24.36-6.09c-17.51,0-24.17,10.47-24.17,19.22,0,12,7.8,17.89,25.5,24.74,21.69,8.37,32.73,18.84,32.73,37.68,0,19.79-14.65,36.92-44.91,36.92-12.37,0-25.88-3.62-32.73-8.18Z" transform="translate(-309.48 -304.4)" fill="#fff"/><path d="M1812.47,1000.62h-39V986.54h95v14.08h-39.2v114.18h-16.75Z" transform="translate(-309.48 -304.4)" fill="#fff"/><path d="M2095.47,1054.66h-49.86v46.24h55.57v13.89h-72.12V986.54h69.27v13.89h-52.71V1041h49.86Z" transform="translate(-309.48 -304.4)" fill="#fff"/><path d="M2248.19,988.25c8.37-1.71,20.36-2.66,31.78-2.66,17.7,0,29.11,3.23,37.11,10.47,6.47,5.71,10.09,14.46,10.09,24.36,0,16.94-10.66,28.16-24.17,32.73v.57c9.89,3.43,15.79,12.56,18.84,25.88,4.19,17.89,7.23,30.26,9.9,35.2h-17.13c-2.09-3.62-4.95-14.65-8.56-30.64-3.81-17.7-10.66-24.36-25.69-24.93h-15.6v55.57h-16.56Zm16.56,58.42h16.94c17.7,0,28.92-9.71,28.92-24.36,0-16.56-12-23.79-29.5-24-8,0-13.7.76-16.37,1.52Z" transform="translate(-309.48 -304.4)" fill="#fff"/><path d="M3002.14,1058.47c-1-17.89-2.09-39.39-1.9-55.37h-.57c-4.38,15-9.71,31-16.17,48.71L2960.84,1114h-12.56l-20.74-61.08c-6.09-18.08-11.23-34.63-14.84-49.86h-.38c-.38,16-1.33,37.49-2.47,56.71l-3.43,55h-15.79l8.94-128.26h21.12l21.88,62c5.33,15.79,9.71,29.88,12.94,43.2h.57c3.24-12.94,7.8-27,13.51-43.2l22.84-62h21.12l8,128.26h-16.17Z" transform="translate(-309.48 -304.4)" fill="#fff"/><path d="M2734.59,1074.45l-13.32,40.34h-17.13l43.58-128.26h20l43.77,128.26h-17.7l-13.7-40.34Zm42.05-12.94-12.56-36.92c-2.85-8.37-4.76-16-6.66-23.41H2757c-1.9,7.61-4,15.41-6.47,23.22L2738,1061.51Z" transform="translate(-309.48 -304.4)" fill="#fff"/><path d="M2480.3,988.25a237.13,237.13,0,0,1,35.2-2.66c23.79,0,40.72,5.52,52,16,11.42,10.47,18.08,25.31,18.08,46.05,0,20.93-6.47,38.06-18.46,49.86-12,12-31.78,18.46-56.71,18.46a267.32,267.32,0,0,1-30.07-1.52Zm16.56,113.41c4.19.76,10.28,1,16.75,1,35.39,0,54.61-19.79,54.61-54.42.19-30.26-16.94-49.48-51.95-49.48a94.06,94.06,0,0,0-19.41,1.71Z" transform="translate(-309.48 -304.4)" fill="#fff"/><polygon points="1981.91 499.77 1873.79 499.77 1873.79 487.46 1895.78 483.49 1898.3 158.05 1879.91 155.88 1879.91 147.86 1979.48 147.86 1979.48 157.59 1963.8 158.13 1963.8 289.96 2105.89 291.39 2105.89 158.13 2093.55 158.13 2093.28 147.86 2190.95 147.86 2190.95 159.85 2175.45 159.85 2176.54 479.53 2190.95 485.3 2190.95 499.77 2091.48 499.77 2091.93 487.37 2110.58 480.07 2105.89 333.93 1960.29 333.21 1963.16 480.98 1982.63 486.74 1981.91 499.77" fill="#c79c68"/><path d="M1475.6,681.76l-2-218.23L1455.23,461V450.91H1554v10.81l-15.14,2.16.54,216.25s4.5,38.2,14.6,46.13,31,21.63,48.29,22.35,25,0,25,0,26.49-3.07,38.38-16.31,22.8-28.11,23.88-37,2.34-230,2.34-230l-18.38-1.35-.27-9.46,91.91-.54v8.92L1748.25,465l-3.42,224.36s-3.79,36.22-7.57,43.25-23.79,41.09-31.35,46.49-34.06,24.33-56.22,24.87-55.69,0-55.69,0-45.95-3.78-60.55-13.52-37.57-33.25-41.9-41.36-13.25-30.55-14.33-37S1475.6,681.76,1475.6,681.76Z" transform="translate(-309.48 -304.4)" fill="#c79c68"/><rect x="2070.57" y="1054.75" width="1291.88" height="19.46" fill="#c79c68"/><path d="M2293.18,1625.58H2093.45l-72.14-142.41-83.21,142.41H1731l176.31,130.07-25.89,165.63,139.92-99.46,149.4,92.89-32.87-165.21Zm-275.4,160.13-86.74,61.66,16-102.68-109.28-80.62h128.4l51.57-88.29,44.73,88.29h123.81l-96.3,76.81,20.38,102.41Z" transform="translate(-309.48 -304.4)" fill="#c79c68"/><path d="M1789.7,803.4s10.09-17.29,17.3-18.73,5.4,0,5.4,0l.21-184.27V471.18l-22.91-7.3v-13H2040l7-7.57h7v71.9l-7.57.54-8.65-5.4-162.19-2.7-1.62,86.5,104.88,2.16,8.11-12.44,8.11-.54v76.77l-8.65.54-6-9.19-104.88-1.08-.54,93.53H2040l21.09-10.81v80l-15.68-9h-3.78Z" transform="translate(-309.48 -304.4)" fill="#c79c68"/><path d="M3130.44,811s10.1-17.29,17.3-18.74,5.41,0,5.41,0l.2-184.27V478.76l-22.91-7.3v-13h250.3l7-7.57h7v71.9l-7.57.54-8.65-5.41-162.18-2.7-1.62,86.5,104.88,2.16,8.11-12.44,8.11-.54V667.7l-8.64.54-5.95-9.19L3216.4,658l-.55,93.53h164.89l21.09-10.81v80l-15.68-9h-3.78Z" transform="translate(-309.48 -304.4)" fill="#c79c68"/><path d="M2388.71,1378.62l54.06-87.58-154.61,27-110.29-98.39-6.48,115.69-159.31,43.25,146,70.28-19.82,153.9,159.12-136.06,214.62.54,17.3-2.16Zm30.28,63.71-137.7-.35-102.1,87.29,12.72-98.74-93.65-45.09,102.2-27.75,4.16-74.23,70.77,63.13,99.2-17.34-34.69,56.19,90.18,55.5Z" transform="translate(-309.48 -304.4)" fill="#c79c68"/><rect x="42.73" y="1054.75" width="1291.88" height="19.46" fill="#c79c68"/><path d="M2012.07,1378.62l-159.3-43.25-6.49-115.69L1736,1318.07l-154.62-27,54.06,87.58-140.56,86.5,17.3,2.16,214.62-.54,159.12,136.06-19.82-153.9ZM1742.85,1442l-137.7.35-11.1-1.39,90.18-55.5-34.68-56.19,99.2,17.34,70.76-63.13,4.17,74.23,102.2,27.75-93.66,45.09,12.72,98.74Z" transform="translate(-309.48 -304.4)" fill="#c79c68"/><path d="M713.5,836.56s-19.46-69.92-33.16-106-44.69-118.94-55.51-134.07-67.75-103.8-80.73-113.89-51.18-53.34-73.52-63.43-98.75-44.34-106-45.06-14.33-2.43-16.22-2.16-38.93.27-38.93.27l44.33-67.85,57.3,19.46,55,24.87s49.35,26.49,82.87,58.39,69.74,70.28,80.56,85.42,42.71,57.85,50.28,71.9,32.79,67,33.7,68.66,63.43-99.29,79.29-119.48,57.67-78.57,103.08-106,69.93-46.85,106-59.1,101.64-35.33,101.64-35.33L1141,383.16s-29.55-2.89-82.9,11.53-100.91,47.57-112.45,55.51-106,88.67-136.23,151.74-59.11,124.34-65.6,143.8-21.62,68.47-21.62,68.47Z" transform="translate(-309.48 -304.4)" fill="#c79c68"/><path d="M805.05,789.7V778.89h11.53l13-56.23s20.19-49,26.68-62.71,40.36-63.44,49-77.13,71.37-71.37,89.39-83.62,90.09-48.29,90.09-48.29v64.87s-31,5.76-44.68,15.86-60.56,43.25-67.76,51.9S953.55,612,953.55,612l65.59,3.24,13-3.24h14.42l-2.88,63.08-13-1.45L1019.85,670l-108.12-2.88s-29.55,65.6-29.55,68.48,39.64,7.21,39.64,7.21l21.12.72,102.86-1.44,15.86-7.93,16.57-.72v66.31h-14.41l-18.75-7.21-216.25-.72Z" transform="translate(-309.48 -304.4)" fill="#c79c68"/><path d="M544.92,786.1h70s-2.43-20.54-3-24.6-10-33.79-13.79-46.76-14.6-44.87-21.08-62.17-36.76-60-47.58-76.77-60-64.33-96.23-93.53-93.53-44.33-93.53-44.33l-.56,1.78.56,15.52,6.49,95.69-.81,215.71a30.2,30.2,0,0,0-7.3,2.7c-4.32,2.16-4.87,16.76-4.87,16.76h73a47.49,47.49,0,0,0,1.08-7.84c0-3-11.89-19.46-13-23.79s-.54-9.73-1.08-15.14.54-17.3.54-23.25,3.78-23,4.33-37.84,4.6-17.57,4.6-17.57,94.61-1.08,107.31-.81,40.82,86.5,40.82,86.5-.81,7.57-2.16,13.52S544.92,786.1,544.92,786.1ZM474.1,605.17c-9.73,3.24-61.9-3.6-61.9-3.6s-6.49-40.37-5.59-62C407.51,518.19,483.83,601.92,474.1,605.17Z" transform="translate(-309.48 -304.4)" fill="#c79c68"/><polygon points="828.95 477.73 831.48 159.85 817.06 155.16 817.06 144.34 925.18 144.34 925.18 155.16 916.53 157.32 915.09 169.58 1036.91 374.29 1036.91 158.77 1023.93 157.32 1023.93 144.34 1111.15 144.34 1111.15 156.6 1101.78 163.81 1101.07 477.73 1111.15 484.39 1111.15 491.96 1016.37 491.96 1016.37 484.94 1026.64 480.07 1025.38 469.8 892.02 244.9 890.58 477.37 900.32 482.77 900.32 491.96 817.06 491.96 817.06 483.86 828.95 477.73" fill="#c79c68"/></svg>