<svg xmlns="http://www.w3.org/2000/svg" class="logo" viewBox="0 0 288 58.58"><title>logo</title><path d="M212.73,57.37h17.85V1.2H212.73Z" fill="#231f20"/><path d="M48.54,12.44a17.23,17.23,0,0,0-5.13-6.26,22.85,22.85,0,0,0-7.9-3.73A39.32,39.32,0,0,0,25.28,1.2H0V57.37H18.78V42.13h6.1A38.23,38.23,0,0,0,35.27,40.8a23,23,0,0,0,8.06-4,18,18,0,0,0,5.21-6.54,20.64,20.64,0,0,0,1.85-8.95v-.16A19.67,19.67,0,0,0,48.54,12.44ZM31.86,22.55a5.29,5.29,0,0,1-2.21,4.62,9.85,9.85,0,0,1-5.82,1.56H18.78V16.21h5.14a9.59,9.59,0,0,1,5.86,1.56,5.41,5.41,0,0,1,2.09,4.61Z" fill="#231f20"/><path d="M91.16,57.08a22.6,22.6,0,0,0,8.83-4.7,21.2,21.2,0,0,0,5.66-8.26,33.35,33.35,0,0,0,2-12.28V1.27H88.55V32.41q0,5.13-2.41,7.34A8.9,8.9,0,0,1,79.88,42a8.57,8.57,0,0,1-6.22-2.37Q71.22,37.22,71.22,32V1.27H52.12v31a32.52,32.52,0,0,0,2,12,21.09,21.09,0,0,0,5.58,8.18,22.25,22.25,0,0,0,8.71,4.7,40.57,40.57,0,0,0,11.35,1.48,41.45,41.45,0,0,0,11.43-1.48" fill="#231f20"/><path d="M159.29,32.74A18.89,18.89,0,0,0,151,28a17,17,0,0,0,7.3-4.69A11.86,11.86,0,0,0,161,15.17V15a12.32,12.32,0,0,0-1-5.05,12.11,12.11,0,0,0-2.49-3.69,16,16,0,0,0-6.3-3.77,30.85,30.85,0,0,0-9.67-1.28H109.35V57.37h32a31,31,0,0,0,8.93-1.16A20.29,20.29,0,0,0,157.06,53a13.56,13.56,0,0,0,4.1-4.94,14.18,14.18,0,0,0,1.37-6.22v-.16Q162.52,35.87,159.29,32.74ZM127.65,15.41h8.9q6,0,6,3.85v.16q0,3.85-5.94,3.85h-9Zm15.94,23.67A3.48,3.48,0,0,1,142,42a6.46,6.46,0,0,1-4.18,1.12H127.65V34.82h10.27a6.29,6.29,0,0,1,4.14,1.13,3.52,3.52,0,0,1,1.52,3Z" fill="#231f20"/><polygon points="163.77 57.37 211.08 57.37 211.08 41.32 182.75 41.32 182.75 1.2 163.77 1.2 163.77 57.37" fill="#231f20"/><path d="M270.79,57.37a29.08,29.08,0,0,0,7.38-3.25,25.41,25.41,0,0,0,5.66-4.81,35.82,35.82,0,0,0,4.17-5.9l-15.49-8.75a17.68,17.68,0,0,1-4.17,5.1,9.83,9.83,0,0,1-6.42,2,9.71,9.71,0,0,1-4.25-.92,10,10,0,0,1-3.33-2.57,11.61,11.61,0,0,1-2.17-3.93,15.72,15.72,0,0,1-.76-5v-.16a14.61,14.61,0,0,1,.76-4.73,12.62,12.62,0,0,1,2.12-3.93,9.86,9.86,0,0,1,3.29-2.65,9.54,9.54,0,0,1,4.33-1,9.69,9.69,0,0,1,6.22,1.88,15.34,15.34,0,0,1,4,4.94L287.6,14.6a30.92,30.92,0,0,0-4.21-5.9,25.33,25.33,0,0,0-5.62-4.61,27.93,27.93,0,0,0-7.06-3A31.7,31.7,0,0,0,262.16,0a31,31,0,0,0-11.72,2.21,29.22,29.22,0,0,0-9.51,6.14,28.19,28.19,0,0,0-6.34,9.31,29.41,29.41,0,0,0-2.29,11.64v.16a29.15,29.15,0,0,0,2.37,11.87,28.23,28.23,0,0,0,15.65,15.16,29.81,29.81,0,0,0,11.11,2.09,33.49,33.49,0,0,0,9.35-1.2" fill="#231f20"/></svg>