<svg id="huntley-logo" class="logo" xmlns="http://www.w3.org/2000/svg" viewBox="0 0 120.34 21.75"><path d="M15.7 20.83a2.38 2.38 0 0 0 1.44.54c.62 0 1-.29 1-.67s-.25-.53-.75-.57a4.16 4.16 0 0 1-1.33-.2.72.72 0 0 1-.46-.66c0-.5.48-.89 1.25-.89a2.61 2.61 0 0 1 1.54.53l-.23.33a2.05 2.05 0 0 0-1.3-.48c-.51 0-.84.23-.84.5a.35.35 0 0 0 .16.29c.28.21.74.16 1.33.23s1.06.47 1.06 1-.51 1-1.42 1a2.63 2.63 0 0 1-1.68-.57zM22.11 18.44h.34L24 21.66h-.44l-.44-.87h-1.73l-.42.87h-.43zm.88 2L22.28 19l-.71 1.43zM26.33 18.44h.21l2.09 2.41v-2.41H29v3.22h-.2l-2.1-2.41v2.41h-.4zM32.35 18.81H31v-.37h3.12v.37h-1.37v2.85h-.4zM36.83 18.44h.33l1.6 3.22h-.44l-.44-.87h-1.77l-.42.87h-.43zm.88 2L37 19l-.71 1.43zM44.81 18.44h.37l1.3 2 1.31-2h.37v3.22h-.39v-2.51l-1.28 1.91-1.28-1.91v2.52h-.39zM50.64 20.06a1.67 1.67 0 1 1 1.67 1.69 1.63 1.63 0 0 1-1.67-1.69zm2.92 0a1.26 1.26 0 1 0-1.25 1.31 1.24 1.24 0 0 0 1.26-1.31zM56.48 18.44h.21l2.09 2.41v-2.41h.4v3.22H59l-2.1-2.41v2.41h-.4zM61.95 18.42h.41v3.25h-.41zM68 20.87a1.69 1.69 0 1 1-.07-1.75l-.34.24a1.18 1.18 0 0 0-1.08-.62 1.31 1.31 0 0 0 0 2.62 1.27 1.27 0 0 0 1.16-.74zM71.62 18.44h.33l1.6 3.22h-.44l-.44-.87h-1.78l-.42.87H70zm.88 2L71.78 19l-.71 1.43zM79.61 18.44h1.91c.64 0 1 .28 1 .8a.67.67 0 0 1-.29.59.94.94 0 0 1 .52.86 1 1 0 0 1-1.09 1h-2zm1.94 1.27c.34 0 .52-.16.52-.45s-.17-.45-.52-.45H80v.9zm.14 1.58a.6.6 0 0 0 0-1.21H80v1.21zM85.31 18.44h2.54v.37h-2.14v.94H87v.37h-1.29v1.17H88v.37h-2.69zM91.46 18.44h.34l1.6 3.22H93l-.44-.87h-1.82l-.42.87h-.43zm.88 2L91.63 19l-.71 1.43zM98.57 20.87a1.69 1.69 0 1 1-.07-1.75l-.33.24a1.19 1.19 0 0 0-1.08-.62 1.31 1.31 0 0 0 0 2.62 1.26 1.26 0 0 0 1.16-.74zM101.08 18.44h.41v1.27h1.9v-1.27h.4v3.22h-.4v-1.58h-1.9v1.58h-.41z" fill="#808285"/><path d="M1.35.76L.83.23H0V0h3.88v.23h-.5L2.9.76v1.81h2.88V.76L5.31.23h-.58V0h3.94v.23h-.83l-.51.53v4.1l.6.53h.75v.23H4.75v-.24h.58l.44-.53V2.91H2.9v1.95l.53.53h.5v.23H0v-.24h.86l.48-.53zM20.5.78L20 .23h-.92V0h4.48v.23h-.92l-.53.51v3.74c0 1 1.23 1 1.64 1 1.7 0 2.53-.6 2.53-2.12V1.18l-.85-1h-1V0h3.66v.23h-.64l-.91 1v2.24c0 1.79-1.23 2.33-3 2.33-2 0-3-.48-3-2zM38.52 5.38h.8l.68-.87V.92c0-.19 0-.69-.48-.69h-1V0h2.82l4.08 3.61v-2.5l-.68-.88h-.92V0h3.41v.23h-.77l-.7.86v4.53h-.41l-5-4.39v3.23l.72.92h1v.23h-3.5zM60.58.23h-1.21l-1.2 2.44H58V0h6.61v2.68h-.14L63.29.23h-1.22V4.8l.5.58h1.23v.23h-4.95v-.23h1.23l.5-.58zM76.73.76l-.48-.53h-1V0H80v.23h-1.1l-.57.53v4.1l.57.53h2.34l1.67-2.6h.23v2.83h-7.9v-.24h1l.48-.53zM95.22.76l-.48-.53h-1V0h7.49v2H101L99.89.23h-2.47l-.52.55v1.94h1.19l.82-1.32h.23v2.89h-.23L98.07 3H96.9v1.9l.51.53h2.25l1.58-2.24h.23l-.12 2.47h-7.63v-.28h1l.48-.53zM116.1 0v.23h-.46l-.31.54L116.61 3c0 .06.06.09.1.09a.13.13 0 0 0 .1-.07l1.45-2-.73-.78H117V0h3.29v.23h-.7l-1.19 1-1.49 2v1.61l.54.54h.94v.23h-4.57v-.23h1l.48-.58V3.74L113.6.8l-.53-.57h-.66V0z" fill="#231f20"/></svg>