<svg id="logo-hermitage" class="logo" xmlns="http://www.w3.org/2000/svg" viewBox="0 0 164 61" style="/*! background: black; */"><path fill="#000000" d="M12.82,28.14A3.88,3.88,0,0,1,9.8,27l.86-.86a2.82,2.82,0,0,0,2.19.82c1.11,0,1.76-.48,1.76-1.31a1.12,1.12,0,0,0-.34-.88,1.42,1.42,0,0,0-.93-.36l-1-.15a2.85,2.85,0,0,1-1.62-.68A2.13,2.13,0,0,1,10.09,22c0-1.49,1.08-2.51,2.85-2.51a3.56,3.56,0,0,1,2.65,1l-.83.82a2.47,2.47,0,0,0-1.86-.66c-1,0-1.55.57-1.55,1.33a1,1,0,0,0,.32.79,1.93,1.93,0,0,0,1,.4l1,.14a2.81,2.81,0,0,1,1.6.64,2.25,2.25,0,0,1,.69,1.75C15.89,27.21,14.61,28.14,12.82,28.14Z"/><path fill="#000000" d="M18.83,28.07V19.53h5.46V20.7H20.13v2.49h3.55v1.15H20.13v2.57h4.16v1.16Z"/><path fill="#000000" d="M27.26,28.07V19.53h5.46V20.7H28.55v2.49H32.1v1.15H28.55v2.57h4.17v1.16Z"/><path fill="#000000" d="M40.46,28.07V24.34H37v3.73h-1.3V19.53H37v3.65h3.47V19.53h1.29v8.54Z"/><path fill="#000000" d="M50.19,27.23a3.09,3.09,0,0,1-2.26.91,3,3,0,0,1-2.24-.91c-.84-.84-.83-1.79-.83-3.43s0-2.59.83-3.43a3,3,0,0,1,2.24-.91,3.09,3.09,0,0,1,2.26.91c.84.84.81,1.79.81,3.43S51,26.39,50.19,27.23Zm-1-6.08a1.79,1.79,0,0,0-2.54,0c-.42.46-.5.94-.5,2.65s.08,2.2.5,2.65a1.79,1.79,0,0,0,2.54,0c.42-.45.51-.93.51-2.65S49.62,21.61,49.2,21.15Z"/><path fill="#000000" d="M56.76,20.7v7.37H55.47V20.7H53.12V19.53h6V20.7Z"/><path fill="#000000" d="M61.79,28.07V19.53h5.46V20.7H63.09v2.49h3.55v1.15H63.09v2.57h4.16v1.16Z"/><path fill="#000000" d="M70.23,28.07V19.53h1.3v7.38h4.11v1.16Z"/><path fill="#000000" d="M19.23,35.75h5.86a.21.21,0,0,1,.24.24V38.3a.21.21,0,0,1-.24.24h-1c-.1,0-.15,0-.15.14V49.14a.13.13,0,0,0,.15.15h1a.21.21,0,0,1,.24.24v2.3a.21.21,0,0,1-.24.24H19.23a.21.21,0,0,1-.24-.24v-2.3a.21.21,0,0,1,.24-.24h1a.13.13,0,0,0,.15-.15V45.52c0-.1-.05-.14-.15-.14H15.18c-.1,0-.15,0-.15.14v3.62a.13.13,0,0,0,.15.15h1a.21.21,0,0,1,.24.24v2.3a.21.21,0,0,1-.24.24H10.35a.21.21,0,0,1-.24-.24v-2.3a.21.21,0,0,1,.24-.24h1a.13.13,0,0,0,.15-.15V38.68c0-.1,0-.14-.15-.14h-1a.21.21,0,0,1-.24-.24V36a.21.21,0,0,1,.24-.24h5.86a.21.21,0,0,1,.24.24V38.3a.21.21,0,0,1-.24.24h-1c-.1,0-.15,0-.15.14v3.46c0,.09.05.14.15.14h5.08c.1,0,.15-.05.15-.14V38.68c0-.1-.05-.14-.15-.14h-1A.21.21,0,0,1,19,38.3V36A.21.21,0,0,1,19.23,35.75Z"/><path fill="#000000" d="M29.31,35.75H41a.21.21,0,0,1,.24.24v3.89a.21.21,0,0,1-.24.24H38.45c-.16,0-.23-.08-.23-.24v-1.1a.13.13,0,0,0-.15-.15H34.14a.13.13,0,0,0-.15.15v3.45a.13.13,0,0,0,.15.15h2.54c.09,0,.14-.05.14-.15v-.69a.21.21,0,0,1,.24-.24h2.45a.21.21,0,0,1,.24.24v4.58a.21.21,0,0,1-.24.24H37.06a.21.21,0,0,1-.24-.24V45.4a.12.12,0,0,0-.14-.14H34.14c-.1,0-.15,0-.15.14v3.65c0,.09,0,.14.15.14h3.93c.1,0,.15,0,.15-.14v-1.2c0-.16.07-.24.23-.24H41a.21.21,0,0,1,.24.24v4a.21.21,0,0,1-.24.24H29.31a.21.21,0,0,1-.24-.24v-2.3a.21.21,0,0,1,.24-.24h1a.13.13,0,0,0,.15-.15V38.68c0-.1,0-.14-.15-.14h-1a.21.21,0,0,1-.24-.24V36A.21.21,0,0,1,29.31,35.75Z"/><path fill="#000000" d="M45.53,35.75h7.73a5.91,5.91,0,0,1,4.11,1.31,4.61,4.61,0,0,1,1.44,3.59A4.7,4.7,0,0,1,58,43.34a5,5,0,0,1-2.2,1.75l1.85,4.08a.18.18,0,0,0,.19.12H59a.21.21,0,0,1,.24.24v2.3a.21.21,0,0,1-.24.24H55.42a.37.37,0,0,1-.36-.24L52.3,45.52H50.36c-.1,0-.15.06-.15.17v3.45a.13.13,0,0,0,.15.15h1a.21.21,0,0,1,.24.24v2.3a.21.21,0,0,1-.24.24H45.53a.21.21,0,0,1-.24-.24v-2.3a.21.21,0,0,1,.24-.24h1c.09,0,.14,0,.14-.15V38.68a.12.12,0,0,0-.14-.14h-1a.21.21,0,0,1-.24-.24V36A.21.21,0,0,1,45.53,35.75Zm7.54,2.91H50.36c-.1,0-.15,0-.15.14v3.77c0,.09,0,.14.15.14h2.71a2.3,2.3,0,0,0,1.63-.56,1.94,1.94,0,0,0,.6-1.48,1.88,1.88,0,0,0-.6-1.47A2.34,2.34,0,0,0,53.07,38.66Z"/><path fill="#000000" d="M76.54,35.75h4.18A.21.21,0,0,1,81,36V38.3a.21.21,0,0,1-.24.24h-1c-.1,0-.15,0-.15.14V49.14a.13.13,0,0,0,.15.15h1a.21.21,0,0,1,.24.24v2.3a.21.21,0,0,1-.24.24H75.27a.21.21,0,0,1-.24-.24v-2.3a.21.21,0,0,1,.24-.24h1c.1,0,.14,0,.14-.15V42.57h-.12l-3,7a.52.52,0,0,1-.46.31H71.12a.48.48,0,0,1-.46-.31l-3.07-7h-.1v6.57a.13.13,0,0,0,.15.15h.93a.21.21,0,0,1,.24.24v2.3a.21.21,0,0,1-.24.24H63.15a.21.21,0,0,1-.24-.24v-2.3a.21.21,0,0,1,.24-.24h1a.13.13,0,0,0,.15-.15V38.68c0-.1,0-.14-.15-.14h-1a.21.21,0,0,1-.24-.24V36a.21.21,0,0,1,.24-.24h4.2a.4.4,0,0,1,.41.24l4.17,9.41H72L76.13,36A.4.4,0,0,1,76.54,35.75Z"/><path fill="#000000" d="M84.92,35.75h5.85A.21.21,0,0,1,91,36V38.3a.21.21,0,0,1-.24.24h-1a.12.12,0,0,0-.14.14V49.14c0,.1.05.15.14.15h1a.21.21,0,0,1,.24.24v2.3a.21.21,0,0,1-.24.24H84.92a.21.21,0,0,1-.24-.24v-2.3a.21.21,0,0,1,.24-.24h1c.1,0,.14,0,.14-.15V38.68c0-.1,0-.14-.14-.14h-1a.21.21,0,0,1-.24-.24V36A.21.21,0,0,1,84.92,35.75Z"/><path fill="#000000" d="M94.64,35.75h13.49a.21.21,0,0,1,.24.24v4.13a.21.21,0,0,1-.24.24h-2.55a.21.21,0,0,1-.24-.24v-1.3a.13.13,0,0,0-.14-.14h-1.92c-.1,0-.15,0-.15.14V49.14a.13.13,0,0,0,.15.15h1.15a.21.21,0,0,1,.24.24v2.3a.21.21,0,0,1-.24.24h-6.1a.21.21,0,0,1-.24-.24v-2.3a.21.21,0,0,1,.24-.24h1.16c.09,0,.14,0,.14-.15V38.82a.13.13,0,0,0-.14-.14H97.57c-.1,0-.15,0-.15.14v1.3a.21.21,0,0,1-.24.24H94.64a.21.21,0,0,1-.24-.24V36A.21.21,0,0,1,94.64,35.75Z"/><path fill="#000000" d="M115.83,35.75h3.67a.29.29,0,0,1,.31.24l4.37,13.15a.21.21,0,0,0,.22.15h.69a.21.21,0,0,1,.24.24v2.3a.21.21,0,0,1-.24.24h-5.35a.21.21,0,0,1-.24-.24v-2.3a.21.21,0,0,1,.24-.24h.82c.11,0,.15-.06.12-.17l-.55-1.73h-5l-.53,1.71c0,.12,0,.19.12.19h.79a.21.21,0,0,1,.24.24v2.3a.21.21,0,0,1-.24.24h-5.35a.21.21,0,0,1-.24-.24v-2.3a.21.21,0,0,1,.24-.24h.74a.21.21,0,0,0,.22-.15L115.52,36A.3.3,0,0,1,115.83,35.75Zm1.78,3.7L116,44.51h3.24l-1.56-5.06Z"/><path fill="#000000" d="M135.58,35.49a9.94,9.94,0,0,1,3,.43,6.58,6.58,0,0,1,2.25,1.13.33.33,0,0,1,.17.33v3.15a.21.21,0,0,1-.24.24h-2.69a.21.21,0,0,1-.24-.24V39.28a.22.22,0,0,0-.12-.22,4.14,4.14,0,0,0-2.13-.5,2.7,2.7,0,0,0-2.91,1.87,12.75,12.75,0,0,0-.33,3.51,14.51,14.51,0,0,0,.26,3.5,2.66,2.66,0,0,0,2.88,1.82,4.75,4.75,0,0,0,2.28-.45.36.36,0,0,0,.22-.34V46c0-.09-.05-.14-.15-.14h-2.18a.21.21,0,0,1-.24-.24V43.26a.21.21,0,0,1,.24-.24H141a.21.21,0,0,1,.24.24v7a.62.62,0,0,1-.29.53,9.25,9.25,0,0,1-5.55,1.55c-3.31,0-5.39-1.28-6.24-3.86a16.87,16.87,0,0,1-.43-4.53,15.44,15.44,0,0,1,.48-4.47Q130.53,35.5,135.58,35.49Z"/><path fill="#000000" d="M145.88,35.75h11.71a.21.21,0,0,1,.24.24v3.89a.21.21,0,0,1-.24.24H155a.21.21,0,0,1-.24-.24v-1.1c0-.1-.05-.15-.14-.15H150.7c-.1,0-.14,0-.14.15v3.45c0,.1,0,.15.14.15h2.55c.09,0,.14-.05.14-.15v-.69a.21.21,0,0,1,.24-.24h2.45a.21.21,0,0,1,.24.24v4.58a.21.21,0,0,1-.24.24h-2.45a.21.21,0,0,1-.24-.24V45.4a.12.12,0,0,0-.14-.14H150.7c-.1,0-.14,0-.14.14v3.65a.12.12,0,0,0,.14.14h3.94a.13.13,0,0,0,.14-.14v-1.2a.21.21,0,0,1,.24-.24h2.57a.21.21,0,0,1,.24.24v4a.21.21,0,0,1-.24.24H145.88a.21.21,0,0,1-.24-.24v-2.3a.21.21,0,0,1,.24-.24h1c.1,0,.14,0,.14-.15V38.68c0-.1,0-.14-.14-.14h-1a.21.21,0,0,1-.24-.24V36A.21.21,0,0,1,145.88,35.75Z"/><polygon fill="#000000" points="117.63 19.58 116.61 21.86 113.91 22.04 115.97 23.63 115.33 26.03 117.63 24.73 119.93 26.03 119.28 23.63 121.35 22.04 118.65 21.86 117.63 19.58"/><polygon fill="#000000" points="101.41 13.91 100.38 16.19 97.68 16.37 99.75 17.96 99.11 20.36 101.41 19.06 103.71 20.36 103.06 17.96 105.13 16.37 102.43 16.19 101.41 13.91"/><polygon fill="#000000" points="87.87 22.41 86.85 24.7 84.15 24.88 86.21 26.47 85.57 28.86 87.87 27.56 90.17 28.86 89.53 26.47 91.59 24.88 88.89 24.7 87.87 22.41"/><polygon fill="#000000" points="94.64 3.99 93.27 7.03 89.67 7.27 92.43 9.39 91.57 12.59 94.64 10.86 97.71 12.59 96.85 9.39 99.6 7.27 96 7.03 94.64 3.99"/></svg>
