<svg xmlns="http://www.w3.org/2000/svg" id="upstairs-logo" class="logo" viewBox="0 0 595.28 539.07"><path d="M155 445.38h.12l.18-.4zm19.56-14.56a7.58 7.58 0 0 1 .22 1.19 1.86 1.86 0 0 0-.25-1.19zM39.2 35.46v410.8h82.48a50.83 50.83 0 0 1 4-7.35 62.41 62.41 0 0 1 9.55-11.16c1.55-1.49 3-2.86 4.48-4.06H61.76V58h365.69v362.49a13.33 13.33 0 0 1 10.81-2.91 19.76 19.76 0 0 1 6.3 1.95 17 17 0 0 1 5.44 4.18V35.46zm135.33 395.36a7.58 7.58 0 0 1 .22 1.19 1.86 1.86 0 0 0-.22-1.19zM155 445.38h.12l.18-.4z" fill="#364651"/><path d="M118.85 134.47V177c0 2.28.09 4.62.26 7a19 19 0 0 0 1.56 6.49 10.75 10.75 0 0 0 4.1 4.73q2.81 1.81 7.89 1.81t7.84-1.81a11.28 11.28 0 0 0 4.1-4.73 18.6 18.6 0 0 0 1.61-6.49c.17-2.38.26-4.72.26-7v-42.53h20.24v45.36q0 18.27-8.36 26.68t-25.69 8.41q-17.34 0-25.74-8.41t-8.41-26.68v-45.36zM211.33 212.74H191v-78.27h32.39q13.17 0 20.19 6.85t7 19.3q0 12.47-7 19.31t-20.19 6.85h-12zm0-42.36h6.75q11.22 0 11.21-9.76t-11.21-9.75h-6.75zM310.89 154.5a25.08 25.08 0 0 0-6.64-4 17.71 17.71 0 0 0-6.43-1.29 10.47 10.47 0 0 0-6.44 1.86 5.84 5.84 0 0 0-2.49 4.88 4.85 4.85 0 0 0 1.24 3.43 10.89 10.89 0 0 0 3.27 2.34 29.51 29.51 0 0 0 4.57 1.71q2.53.72 5 1.55 10 3.33 14.58 8.88t4.62 14.48a28.15 28.15 0 0 1-2 10.9 22.78 22.78 0 0 1-5.92 8.36 27.33 27.33 0 0 1-9.55 5.4 39.84 39.84 0 0 1-12.82 1.92 47.09 47.09 0 0 1-27.51-8.83l8.72-16.4a35.05 35.05 0 0 0 9 6 21.64 21.64 0 0 0 8.82 2c3.33 0 5.8-.76 7.43-2.28a7 7 0 0 0 1.81-8.25 6.64 6.64 0 0 0-2.07-2.39 16.59 16.59 0 0 0-3.79-2q-2.34-.94-5.66-2.08-3.94-1.24-7.73-2.75a24.2 24.2 0 0 1-6.75-4 18.55 18.55 0 0 1-4.78-6.28 22.19 22.19 0 0 1-1.81-9.6 27.75 27.75 0 0 1 1.92-10.54 23.36 23.36 0 0 1 5.4-8.09 24 24 0 0 1 8.51-5.25 32.27 32.27 0 0 1 11.26-1.87 49.49 49.49 0 0 1 12.15 1.61 53.82 53.82 0 0 1 12.2 4.7zM377.82 151.7v61h-20.34v-61h-16.72v-17.23h53.78v17.23zM150.11 321.72H121l-4.67 13.6H94.67l29.8-78.27h22.21l29.79 78.27h-21.69zm-5.4-15.47l-9.14-26.05-9.13 26.05zM218.39 257.05v78.27H198v-78.27zM317.18 335.32h-25.33l-19.42-30.11v30.11h-20.34v-78.27h31.66a31.08 31.08 0 0 1 11.42 1.95A21.53 21.53 0 0 1 308 271.89a26.84 26.84 0 0 1 1.61 9.34q0 8.94-4.31 14.49t-12.72 7.52zM272.43 292h3.85q6 0 9.23-2.49a9.58 9.58 0 0 0 0-14.33q-3.21-2.49-9.23-2.49h-3.85zM382 277.08a25.08 25.08 0 0 0-6.64-4 17.57 17.57 0 0 0-6.44-1.3 10.43 10.43 0 0 0-6.44 1.87 5.81 5.81 0 0 0-2.49 4.87 4.86 4.86 0 0 0 1.25 3.43 10.89 10.89 0 0 0 3.27 2.34 28.16 28.16 0 0 0 4.57 1.71q2.54.72 5 1.56 10 3.31 14.59 8.87t4.61 14.48a28.15 28.15 0 0 1-2 10.9 22.67 22.67 0 0 1-5.92 8.36 27.24 27.24 0 0 1-9.55 5.4A39.75 39.75 0 0 1 363 337.5a47.13 47.13 0 0 1-27.51-8.83l8.72-16.4a35.26 35.26 0 0 0 9 6 21.59 21.59 0 0 0 8.82 2q5 0 7.42-2.29a6.93 6.93 0 0 0 2.44-5.19 7.11 7.11 0 0 0-.62-3.06 6.76 6.76 0 0 0-2.08-2.39 16.76 16.76 0 0 0-3.79-2c-1.55-.63-3.44-1.32-5.65-2.08-2.64-.83-5.21-1.75-7.74-2.75a24.35 24.35 0 0 1-6.75-4 18.53 18.53 0 0 1-4.77-6.28 22.18 22.18 0 0 1-1.82-9.6 27.79 27.79 0 0 1 1.92-10.54A23.45 23.45 0 0 1 346 262a24.1 24.1 0 0 1 8.51-5.25 32.33 32.33 0 0 1 11.27-1.86 48.94 48.94 0 0 1 12.14 1.61 53.4 53.4 0 0 1 12.15 4.72z" fill="#364651"/><path d="M155.27 445l-.18.4H155zM174.75 432a7.58 7.58 0 0 0-.22-1.19 1.86 1.86 0 0 1 .22 1.19z" fill="#1e1e1c"/><path d="M174.53 430.82a7.58 7.58 0 0 1 .22 1.19 1.86 1.86 0 0 0-.22-1.19zM155 445.38h.12l.18-.4z" fill="#fff"/><path d="M343.54 389.25a19.58 19.58 0 0 0-2.49-2.61 10.93 10.93 0 0 0-4.36-2.41 12.47 12.47 0 0 0-7.2.26 20.77 20.77 0 0 0-4.54 2.15 29.2 29.2 0 0 0-2.65 1.87 69.25 69.25 0 0 0-6.78 6.21c-2.17 2.25-4.16 4.48-6 6.72s-3.42 4.12-4.76 5.62q-5.79 6.7-11.28 13.53t-10.89 13.91q-2.64 3.44-5.2 7t-5.21 7.13a17.19 17.19 0 0 0-1.53 2.24c-.56 1-1.24 2-2 3.11s-1.54 2.19-2.37 3.3a21.15 21.15 0 0 1-2.59 2.83c.18-1.14.42-2.33.74-3.56s.61-2.45.91-3.63.6-2.28.86-3.3.5-1.77.66-2.31c.71-3.16 1.47-6.33 2.32-9.49s1.73-6.29 2.69-9.37c.9-2.73 1.87-5.67 3-8.84s2.31-6.37 3.63-9.57 2.68-6.33 4.08-9.37a87.06 87.06 0 0 1 4.35-8.24 3.69 3.69 0 0 0 .4-2.57 3 3 0 0 0-1.31-2 3.35 3.35 0 0 1-1.32-1.15c-.09-.16-.19-.32-.27-.5a18.08 18.08 0 0 1-.86-2.17 16.61 16.61 0 0 0-.66-1.79c-.21-.48-.51-.69-.85-.65s-.82.47-1.39 1.31a35.28 35.28 0 0 0-2.13 3.8l-.18.36c-1 1.85-1.87 3.7-2.71 5.55s-1.59 3.68-2.31 5.53q-5.4 9-12.51 19.46t-14.79 21.12c-5.09 7.08-10.19 13.89-15.24 20.43s-9.65 12.34-13.79 17.36a7.75 7.75 0 0 0-1.51 2.3c-.12.48-.06.76.19.8a2.52 2.52 0 0 0 1.2-.26c.52-.22 1-.46 1.57-.74 2.73-1.75 5.23-2.54 7.52-2.36a7.29 7.29 0 0 0 3.44-.4 5.67 5.67 0 0 0 1.72-1.31q8.57-10.58 16.55-22.31t15.5-24c-.71 2.55-1.41 5.13-2.11 7.78s-1.33 5.27-1.85 7.92c-.25 1.31-.61 2.73-1.05 4.22s-.84 3-1.19 4.56a41.45 41.45 0 0 0-.8 4.53 14 14 0 0 0 .14 4.22 4.64 4.64 0 0 0 1.71 2.65 13.25 13.25 0 0 0 3.7 2.37 11.5 11.5 0 0 0 4.28 1 4.39 4.39 0 0 0 3.64-1.65c.16-.18 1.27-1.57 3.28-4.22s4.44-5.81 7.21-9.49 5.67-7.5 8.69-11.42 5.62-7.23 7.73-9.95q6.46-8.19 13.13-16.24c4.44-5.35 9.07-10.51 13.91-15.42q2-2.13 4.36-4.3a25.61 25.61 0 0 1 5-3.62q2.89-1.47 5-.66c1.35.52 2.24 1.89 2.7 4.08a27.12 27.12 0 0 1-.28 9.11 78.55 78.55 0 0 1-4.1 14.29 93.08 93.08 0 0 1-8.71 17.75 177.83 177.83 0 0 1-11.48 16.16 100.14 100.14 0 0 1-11.27 12.14 92.36 92.36 0 0 1-15.64 11.74 1.78 1.78 0 0 0-1 1.19c-.12.52-.26 1.12-.4 1.77a12 12 0 0 1-.58 2.05 7.85 7.85 0 0 1-1.45 2.25c-.72.7-.62 1.14.26 1.32s2.45-.26 4.75-1.32a73 73 0 0 0 13.12-7.86 109 109 0 0 0 11.88-10.29 123.81 123.81 0 0 0 10.44-11.9 146.35 146.35 0 0 0 8.63-12.45c1.93-3.17 4-7 6.21-11.43a79.45 79.45 0 0 0 5.27-13.77 45.36 45.36 0 0 0 1.71-14 20.1 20.1 0 0 0-4.49-12.1zM555.15 441.56c-.18-.22-1 .2-2.37 1.26a8.91 8.91 0 0 1-2.51 1.45 26.63 26.63 0 0 0-2.64 1.05 20.34 20.34 0 0 0-4.34 2.89c-1.59 1.33-3.25 2.72-5 4.24s-3.48 3-5.27 4.41a26.84 26.84 0 0 1-5.21 3.37 66.79 66.79 0 0 0-.34-14.79q-1-7.51-2.17-14.5a3.67 3.67 0 0 0-1.12-1.66 12.07 12.07 0 0 0-2.19-1.71 5.63 5.63 0 0 0-2.36-.85 1.56 1.56 0 0 0-1.71.79 88.17 88.17 0 0 1-8.66 12.8c-1.33 1.57-2.49 2.9-3.44 4l-3.51 2.82c-1.63 1.34-3.36 2.71-5.21 4.16s-3.74 2.89-5.67 4.3a43 43 0 0 1-5.13 3.28v-.77a1.67 1.67 0 0 1 .11-.66 31.72 31.72 0 0 1 2-6.21c1.06-2.54 2.21-5.13 3.49-7.72s2.48-4.89 3.64-6.92a29 29 0 0 1 2.37-3.82 1.75 1.75 0 0 0 .06-2.19 6.4 6.4 0 0 0-2.11-2.17 7.55 7.55 0 0 0-2.89-1.2 2.07 2.07 0 0 0-2.19.66l-2 3.05a14.92 14.92 0 0 0-4.61-3.51 7.54 7.54 0 0 0-4.82-.39 16.42 16.42 0 0 0-5.67 2.78 60 60 0 0 0-7.2 6.13 50.74 50.74 0 0 0-7.79 9c-.51.82-1 1.62-1.45 2.39l-1 .84q-3.5 2.93-7.13 5.75a94.46 94.46 0 0 1-7.32 5.21 74.37 74.37 0 0 1-6.85 4 3.62 3.62 0 0 1 0-2.45 30.42 30.42 0 0 1 1.32-4.21c.62-1.64 1.31-3.41 2.11-5.36s1.59-3.86 2.37-5.79 1.53-3.78 2.18-5.55a44.76 44.76 0 0 0 1.52-4.76 2.2 2.2 0 0 0-.6-1.77 6.06 6.06 0 0 0-1.85-1.45 8.87 8.87 0 0 0-2.23-.85 3 3 0 0 0-1.79 0 29.85 29.85 0 0 0-4 3c-1.49 1.33-3 2.83-4.68 4.5s-3.28 3.42-4.95 5.27-3.25 3.6-4.74 5.27c1-2 1.87-4.08 2.71-6.18a28.45 28.45 0 0 0 1.37-4 2.25 2.25 0 0 0-.71-2 5.71 5.71 0 0 0-2.05-1.18 7.36 7.36 0 0 0-2.45-.4 2.85 2.85 0 0 0-1.77.4c-1.85 1.49-3.58 2.93-5.22 4.28s-3.26 2.79-4.87 4.3-3.27 3.08-4.9 4.81-3.36 3.67-5.21 5.87a75.89 75.89 0 0 1 6.61-11.28q3.69-5.22 7.52-10.49a1.44 1.44 0 0 0-.14-1.91 6.09 6.09 0 0 0-2.11-1.65 8.56 8.56 0 0 0-2.77-.85 2.37 2.37 0 0 0-2 .31c-.43.44-1.27 1.42-2.5 2.91s-2.61 3.12-4.14 4.88-3.05 3.48-4.5 5.15l-.16.18c-.76.85-1.39 1.59-2 2.21-.86.67-2 1.61-3.4 2.74-1.63 1.34-3.37 2.71-5.22 4.16s-3.74 2.89-5.67 4.3a43.09 43.09 0 0 1-5.15 3.28v-.77a1.47 1.47 0 0 1 .14-.66 29.52 29.52 0 0 1 2-6.21c1.05-2.54 2.23-5.13 3.5-7.72s2.49-4.89 3.62-6.92a31.93 31.93 0 0 1 2.39-3.82 1.77 1.77 0 0 0 .06-2.19 6.5 6.5 0 0 0-2.11-2.17 7.5 7.5 0 0 0-2.91-1.2 2 2 0 0 0-2.16.66l-2 3.05a14.84 14.84 0 0 0-4.62-3.51 7.51 7.51 0 0 0-4.82-.39 16.76 16.76 0 0 0-5.67 2.78 60 60 0 0 0-7.09 6.26 50.64 50.64 0 0 0-7.78 9 36.6 36.6 0 0 0-4 8 18.55 18.55 0 0 0-1.14 6.67 12.24 12.24 0 0 0 1.06 4.82c3 6.14 7.48 7.42 13.45 3.82a19.87 19.87 0 0 0 5.15-4.62c1.76-2.11 3.53-4.44 5.28-7a7.38 7.38 0 0 0 .65 5.67q1.47 2.36 6.21 3.56a7.74 7.74 0 0 0 5.16-.2 18.59 18.59 0 0 0 4.79-2.85 31.9 31.9 0 0 0 4.3-4.08c1.31-1.49 2.51-2.82 3.56-4 .9-1 1.77-2 2.65-3-.48 1.17-.9 2.35-1.27 3.54q-.72 2.39-1.26 5.1c-.34 1.79-.65 3.8-.91 6a2.41 2.41 0 0 0 .65 1.85 7.54 7.54 0 0 0 2 1.59 5.23 5.23 0 0 0 2.37.71 1.51 1.51 0 0 0 .3 0 2.1 2.1 0 0 0 1.67-.83c1.41-1.85 3.09-3.88 5-6.13s3.86-4.4 5.75-6.47 3.62-3.84 5.21-5.35a23.6 23.6 0 0 1 3.28-2.77c-.33 1.16-.67 2.17-1 3.05s-.6 1.75-.86 2.63-.53 1.79-.79 2.7-.54 2-.8 3.11a3.73 3.73 0 0 0 .2 2.3 7.58 7.58 0 0 0 1.25 2.25 5.29 5.29 0 0 0 1.72 1.46 1.21 1.21 0 0 0 1.59-.34q1.84-2 4.34-5.14c1.67-2.13 3.38-4.18 5.09-6.21s3.32-3.82 4.82-5.41a10.38 10.38 0 0 1 3.42-2.76 18.29 18.29 0 0 0-1.65 3.42 46 46 0 0 0-1.52 4.69 25.06 25.06 0 0 0-.79 4.94 11.37 11.37 0 0 0 .54 4.36 4.68 4.68 0 0 0 1.77 2.05 20.06 20.06 0 0 0 3.1 1.77 17.63 17.63 0 0 0 3.3 1.19 4.25 4.25 0 0 0 2.23.14 20.67 20.67 0 0 0 5.69-3.36 75.6 75.6 0 0 0 6.33-5.61c.82-.82 1.57-1.61 2.29-2.41a13.91 13.91 0 0 0-.06 1.81 12.22 12.22 0 0 0 1.08 4.82q4.47 9.21 13.45 3.82a19.83 19.83 0 0 0 5.13-4.62c1.77-2.11 3.52-4.44 5.29-7a7.25 7.25 0 0 0 .66 5.67c1 1.57 3 2.76 6.19 3.56a7.71 7.71 0 0 0 5.15-.2 18.58 18.58 0 0 0 4.82-2.85 34.31 34.31 0 0 0 4.28-4.08q1.61-1.81 2.94-3.28c2.09-1.69 4.34-3.6 6.75-5.69a125.44 125.44 0 0 0 10.13-9.81c.26 2.47.46 4.91.58 7.32s.15 4.82.07 7.21v3.76a20.83 20.83 0 0 1-.39 4 19.27 19.27 0 0 1-3.25.26c-1.09 0-2.25 0-3.48-.14l-1.79-.32a17.18 17.18 0 0 0-2.37-.26 15.61 15.61 0 0 0-2.37 0 2.48 2.48 0 0 0-1.65.58 2.77 2.77 0 0 0-1.19 1.85 5.89 5.89 0 0 0 .2 2.25 8.6 8.6 0 0 0 1 2.24 9.88 9.88 0 0 0 1.32 1.72 16 16 0 0 0 5.41 3.56 14.39 14.39 0 0 0 5.87 1.05 10.49 10.49 0 0 0 5.27-1.71 10 10 0 0 0 3.76-4.76 27.66 27.66 0 0 0 6.93-4 71.8 71.8 0 0 0 6.92-6c2.29-2.24 4.58-4.65 6.87-7.2s4.48-5.09 6.58-7.64c1.15-1.23 1.63-1.99 1.45-2.21zm-192.27 4.28a148.86 148.86 0 0 1-9.83 11.74c-2.73 2.91-4.7 5-5.87 6.13s-2.05 1.39-2.59.6c-.34-.88-.18-2.19.54-4a43.27 43.27 0 0 1 2.83-5.67c1.19-2 2.46-4 3.84-5.88s2.56-3.44 3.62-4.67a29.8 29.8 0 0 1 2.7-2.65 79.73 79.73 0 0 1 4.48-3.76 36 36 0 0 1 5-3.28 6.8 6.8 0 0 1 4.21-1.14c-2.81 4.26-5.81 8.44-8.93 12.58zm115.3 0a151.06 151.06 0 0 1-9.83 11.74q-4.1 4.37-5.87 6.13c-1.2 1.19-2.05 1.39-2.57.6-.36-.88-.18-2.19.52-4a43.42 43.42 0 0 1 2.84-5.67c1.18-2 2.45-4 3.82-5.88s2.57-3.44 3.62-4.67a33.51 33.51 0 0 1 2.71-2.65 84.23 84.23 0 0 1 4.5-3.76 35.15 35.15 0 0 1 4.93-3.28 6.82 6.82 0 0 1 4.22-1.14q-4.2 6.37-8.89 12.58z" fill="#5c1e4b"/><path d="M343.54 389.25a19.58 19.58 0 0 0-2.49-2.61 10.93 10.93 0 0 0-4.36-2.41 12.47 12.47 0 0 0-7.2.26 20.77 20.77 0 0 0-4.54 2.15 29.2 29.2 0 0 0-2.65 1.87 69.25 69.25 0 0 0-6.78 6.21c-2.17 2.25-4.16 4.48-6 6.72s-3.42 4.12-4.76 5.62q-5.79 6.7-11.28 13.53t-10.89 13.91q-2.64 3.44-5.2 7t-5.21 7.13a17.19 17.19 0 0 0-1.53 2.24c-.56 1-1.24 2-2 3.11s-1.54 2.19-2.37 3.3a21.15 21.15 0 0 1-2.59 2.83c.18-1.14.42-2.33.74-3.56s.61-2.45.91-3.63.6-2.28.86-3.3.5-1.77.66-2.31c.71-3.16 1.47-6.33 2.32-9.49s1.73-6.29 2.69-9.37c.9-2.73 1.87-5.67 3-8.84s2.31-6.37 3.63-9.57 2.68-6.33 4.08-9.37a87.06 87.06 0 0 1 4.35-8.24 3.69 3.69 0 0 0 .4-2.57 3 3 0 0 0-1.31-2 3.35 3.35 0 0 1-1.32-1.15c-.09-.16-.19-.32-.27-.5a18.08 18.08 0 0 1-.86-2.17 16.61 16.61 0 0 0-.66-1.79c-.21-.48-.51-.69-.85-.65s-.82.47-1.39 1.31a35.28 35.28 0 0 0-2.13 3.8l-.18.36c-1 1.85-1.87 3.7-2.71 5.55s-1.59 3.68-2.31 5.53q-5.4 9-12.51 19.46t-14.79 21.12c-5.09 7.08-10.19 13.89-15.24 20.43s-9.65 12.34-13.79 17.36a7.75 7.75 0 0 0-1.51 2.3c-.12.48-.06.76.19.8a2.52 2.52 0 0 0 1.2-.26c.52-.22 1-.46 1.57-.74 2.73-1.75 5.23-2.54 7.52-2.36a7.29 7.29 0 0 0 3.44-.4 5.67 5.67 0 0 0 1.72-1.31q8.57-10.58 16.55-22.31t15.5-24c-.71 2.55-1.41 5.13-2.11 7.78s-1.33 5.27-1.85 7.92c-.25 1.31-.61 2.73-1.05 4.22s-.84 3-1.19 4.56a41.45 41.45 0 0 0-.8 4.53 14 14 0 0 0 .14 4.22 4.64 4.64 0 0 0 1.71 2.65 13.25 13.25 0 0 0 3.7 2.37 11.5 11.5 0 0 0 4.28 1 4.39 4.39 0 0 0 3.64-1.65c.16-.18 1.27-1.57 3.28-4.22s4.44-5.81 7.21-9.49 5.67-7.5 8.69-11.42 5.62-7.23 7.73-9.95q6.46-8.19 13.13-16.24c4.44-5.35 9.07-10.51 13.91-15.42q2-2.13 4.36-4.3a25.61 25.61 0 0 1 5-3.62q2.89-1.47 5-.66c1.35.52 2.24 1.89 2.7 4.08a27.12 27.12 0 0 1-.28 9.11 78.55 78.55 0 0 1-4.1 14.29 93.08 93.08 0 0 1-8.71 17.75 177.83 177.83 0 0 1-11.48 16.16 100.14 100.14 0 0 1-11.27 12.14 92.36 92.36 0 0 1-15.64 11.74 1.78 1.78 0 0 0-1 1.19c-.12.52-.26 1.12-.4 1.77a12 12 0 0 1-.58 2.05 7.85 7.85 0 0 1-1.45 2.25c-.72.7-.62 1.14.26 1.32s2.45-.26 4.75-1.32a73 73 0 0 0 13.12-7.86 109 109 0 0 0 11.88-10.29 123.81 123.81 0 0 0 10.44-11.9 146.35 146.35 0 0 0 8.63-12.45c1.93-3.17 4-7 6.21-11.43a79.45 79.45 0 0 0 5.27-13.77 45.36 45.36 0 0 0 1.71-14 20.1 20.1 0 0 0-4.49-12.1zM463.39 442.08c-.12 0-.42.16-.85.6-1.58 1.49-3.33 3.06-5.28 4.69l-1 .84q-3.5 2.93-7.13 5.75a94.46 94.46 0 0 1-7.32 5.21 74.37 74.37 0 0 1-6.85 4 3.62 3.62 0 0 1 0-2.45 30.42 30.42 0 0 1 1.32-4.21c.62-1.64 1.31-3.41 2.11-5.36s1.59-3.86 2.37-5.79 1.53-3.78 2.18-5.55a44.76 44.76 0 0 0 1.52-4.76 2.2 2.2 0 0 0-.6-1.77 6.06 6.06 0 0 0-1.85-1.45 8.87 8.87 0 0 0-2.23-.85 3 3 0 0 0-1.79 0 29.85 29.85 0 0 0-4 3c-1.49 1.33-3 2.83-4.68 4.5s-3.28 3.42-4.95 5.27-3.25 3.6-4.74 5.27c1-2 1.87-4.08 2.71-6.18a28.45 28.45 0 0 0 1.37-4 2.25 2.25 0 0 0-.71-2 5.71 5.71 0 0 0-2.05-1.18 7.36 7.36 0 0 0-2.45-.4 2.85 2.85 0 0 0-1.77.4c-1.85 1.49-3.58 2.93-5.22 4.28s-3.26 2.79-4.87 4.3-3.27 3.08-4.9 4.81-3.36 3.67-5.21 5.87a75.89 75.89 0 0 1 6.61-11.28q3.69-5.22 7.52-10.49a1.44 1.44 0 0 0-.14-1.91 6.09 6.09 0 0 0-2.11-1.65 8.56 8.56 0 0 0-2.77-.85 2.37 2.37 0 0 0-2 .31c-.43.44-1.27 1.42-2.5 2.91s-2.61 3.12-4.14 4.88-3.05 3.48-4.5 5.15l-.16.18c-.76.85-1.39 1.59-2 2.21s-.88.95-1.23 1.29a.85.85 0 0 0-.4.88c.1.29.36.35.79.2s1.06-.56 1.6-.88a13.43 13.43 0 0 1 1.21-.64l.16-.08c.4-.18.68-.2.86-.06s.09.5-.26 1.12-.52 1-.76 1.49c-.52 1-1 2-1.41 3-.16.35-.32.71-.46 1.07-.48 1.17-.9 2.35-1.27 3.54q-.72 2.39-1.26 5.1c-.34 1.79-.65 3.8-.91 6a2.41 2.41 0 0 0 .65 1.85 7.54 7.54 0 0 0 2 1.59 5.23 5.23 0 0 0 2.37.71 1.51 1.51 0 0 0 .3 0 2.1 2.1 0 0 0 1.67-.83c1.41-1.85 3.09-3.88 5-6.13s3.86-4.4 5.75-6.47 3.62-3.84 5.21-5.35a23.6 23.6 0 0 1 3.28-2.77c-.33 1.16-.67 2.17-1 3.05s-.6 1.75-.86 2.63-.53 1.79-.79 2.7-.54 2-.8 3.11a3.73 3.73 0 0 0 .2 2.3 7.58 7.58 0 0 0 1.25 2.25 5.29 5.29 0 0 0 1.72 1.46 1.21 1.21 0 0 0 1.59-.34q1.84-2 4.34-5.14c1.67-2.13 3.38-4.18 5.09-6.21s3.32-3.82 4.82-5.41a10.38 10.38 0 0 1 3.42-2.76 18.29 18.29 0 0 0-1.65 3.42 46 46 0 0 0-1.52 4.69 25.06 25.06 0 0 0-.79 4.94 11.37 11.37 0 0 0 .54 4.36 4.68 4.68 0 0 0 1.77 2.05 20.06 20.06 0 0 0 3.1 1.77 17.63 17.63 0 0 0 3.3 1.19 4.25 4.25 0 0 0 2.23.14 20.67 20.67 0 0 0 5.69-3.36 75.6 75.6 0 0 0 6.33-5.61c.82-.82 1.57-1.61 2.29-2.41 1.1-1.17 2.09-2.33 3-3.46a20.1 20.1 0 0 0 2.76-4.16 6.1 6.1 0 0 1 .08-1.2 2.06 2.06 0 0 1 .32-.79c.18-.26.44-.6.8-1.06l1.71-2.11a8.43 8.43 0 0 0 .73-1.17 6.8 6.8 0 0 0 .46-1.19c.2-.37.18-.57.04-.61zM555.15 441.56c-.18-.22-1 .2-2.37 1.26a8.91 8.91 0 0 1-2.51 1.45 26.63 26.63 0 0 0-2.64 1.05 20.34 20.34 0 0 0-4.34 2.89c-1.59 1.33-3.25 2.72-5 4.24s-3.48 3-5.27 4.41a26.84 26.84 0 0 1-5.21 3.37 66.79 66.79 0 0 0-.34-14.79q-1-7.51-2.17-14.5a3.67 3.67 0 0 0-1.12-1.66 12.07 12.07 0 0 0-2.19-1.71 5.63 5.63 0 0 0-2.36-.85 1.56 1.56 0 0 0-1.71.79 88.17 88.17 0 0 1-8.66 12.8c-1.33 1.57-2.49 2.9-3.44 4-.92 1.07-1.67 1.87-2.25 2.45a3.4 3.4 0 0 0-1.06 1.57c-.26.69-.53 1.49-.85 2.37a23.43 23.43 0 0 1-1.12 2.7A13.14 13.14 0 0 1 499 456a5.89 5.89 0 0 0-1.19 2.43c-.08.65.49.51 1.73-.46 1-.78 2-1.59 3.06-2.49 2.09-1.69 4.34-3.6 6.75-5.69a125.44 125.44 0 0 0 10.06-9.79c.26 2.47.46 4.91.58 7.32s.15 4.82.07 7.21v3.76a20.83 20.83 0 0 1-.39 4 19.27 19.27 0 0 1-3.25.26c-1.09 0-2.25 0-3.48-.14l-1.79-.32a17.18 17.18 0 0 0-2.37-.26 15.61 15.61 0 0 0-2.37 0 2.48 2.48 0 0 0-1.65.58 2.77 2.77 0 0 0-1.19 1.85 5.89 5.89 0 0 0 .2 2.25 8.6 8.6 0 0 0 1 2.24 9.88 9.88 0 0 0 1.32 1.72 16 16 0 0 0 5.41 3.56 14.39 14.39 0 0 0 5.87 1.05 10.49 10.49 0 0 0 5.27-1.71 10 10 0 0 0 3.76-4.76 27.66 27.66 0 0 0 6.93-4 71.8 71.8 0 0 0 6.92-6c2.29-2.24 4.58-4.65 6.87-7.2s4.48-5.09 6.58-7.64c1.15-1.23 1.63-1.99 1.45-2.21zM184 394.15c3.74 0 5.6 1 5.6 3q0 4.43-8.45 13.36a157.81 157.81 0 0 1-17 15.62l-8.4 6.78a2.2 2.2 0 0 0-.65 1.19c0 .28.18.43.54.43q8.52-5.51 15.3-5.71a4.07 4.07 0 0 1 2.37.75 8.9 8.9 0 0 1 3.66 7q0 4-8.19 13.47a38.15 38.15 0 0 0 9.43-4.47 112.91 112.91 0 0 0 10.18-6.84l4.2-3.23a2.26 2.26 0 0 1 1 1.83 2.58 2.58 0 0 1-1 1.94q-17.77 16.47-26.93 16.48a12.28 12.28 0 0 1-1.94-.22l.22-.32a83.43 83.43 0 0 1-12.71 10.39q-6.36 4.15-10.45 4.15-10.12 0-10.13-6.89a19.75 19.75 0 0 1 2.21-8.14 54.24 54.24 0 0 1 5.33-8.94q3.12-4.24 6.3-8t5.39-6a22.6 22.6 0 0 1 2.21-2.16q7.65-8.82 13.3-16.32a125.84 125.84 0 0 0 7.49-10.66 41 41 0 0 1 3.66-5.44 7.6 7.6 0 0 1 3.07-2.64 17.09 17.09 0 0 1 4.39-.41zm-43.3 69.59q4.41 0 11.47-6.25a84.73 84.73 0 0 0 12.06-13q5-6.79 5-8.84a.29.29 0 0 0-.32-.32q-5.61 0-12.71 6a66.89 66.89 0 0 0-11.69 12.61Q140 460.51 140 463a.67.67 0 0 0 .71.74z" fill="#5c1e4b"/><path d="M213.31 432.72q5.06.54 5.06 2.26a2.78 2.78 0 0 1-.86 1.72q-15.19 16.92-34.9 43.09-5.72 7.75-11.63 14.65a49.9 49.9 0 0 1-11.1 10.07 20.28 20.28 0 0 1-10.77 3.18 8.43 8.43 0 0 1-5-1.51 4.74 4.74 0 0 1-2.16-4.09q0-6 5.82-12.5a50.93 50.93 0 0 1 13-10.5q7.22-4.05 12.5-4.69l2.26.32q1.06-.11 7.91-8.29c4.56-5.45 6.86-8.35 6.9-8.67s0-.48-.16-.48l-2 1.61q-8.09 7.55-12.6 7.54-2.91 0-2.91-4.09 0-5.49 8.94-17.34t13.14-11.85a1.75 1.75 0 0 1 .75.21c2 .51 3 1.22 3 2.16a1.06 1.06 0 0 1-.27.8c-.18.19-.9.88-2.15 2.11s-2.5 2.49-3.72 3.82-2.51 2.78-3.88 4.36q-4.64 5.38-4.63 8.08c0 .43.23.65.7.65a6.81 6.81 0 0 0 2.64-1.19q15.3-10.44 23.91-19.93a2.34 2.34 0 0 1 2.21-1.5zM147.6 503q3.78-1.18 10.13-7.38a147.79 147.79 0 0 0 10.87-11.69l4.53-5.6a3.11 3.11 0 0 0 .65-1.08q0-.21-.33-.21-3.44 0-9.85 5.28a78.16 78.16 0 0 0-11.42 11.52q-5 6.24-5 8.83c-.01.17.14.33.42.33z" fill="#5c1e4b"/></svg>