<svg xmlns="http://www.w3.org/2000/svg" xmlns:xlink="http://www.w3.org/1999/xlink" version="1.1" class="logo" id="fontainebleu-print-logo" x="0" y="0" viewBox="-256.5 930.1 724.1 200.6" xml:space="preserve" enable-background="new -256.5 930.1 724.1 200.6"><path d="M-14.8 963.6c-0.6 0-19.5 0-20.1 0 0 0.5 0 4.2 0 4.7 0.6 0 7.3 0 7.3 0s0 26.9 0 27.5c0.5 0 5 0 5.5 0 0-0.6 0-27.5 0-27.5s6.8 0 7.3 0C-14.8 967.8-14.8 964.1-14.8 963.6L-14.8 963.6z"/><path d="M-178.1 977.4c-0.6 0-10.9 0-10.9 0v-9.1c0 0 10.9 0 11.4 0 0-0.5 0-4.2 0-4.7 -0.6 0-16.4 0-17 0 0 0.6 0 31.6 0 32.2 0.5 0 5 0 5.5 0 0-0.6 0-13.6 0-13.6s10.3 0 10.9 0C-178.1 981.6-178.1 977.9-178.1 977.4L-178.1 977.4z"/><path d="M-135.8 991.6c-6.8 0-12.4-5.4-12.4-12 0-6.7 5.6-12.1 12.4-12.1 6.8 0 12.4 5.4 12.4 12.1C-123.4 986.3-128.9 991.6-135.8 991.6L-135.8 991.6zM-135.8 962.8c-9.9 0-17.9 7.6-17.9 16.9 0 9.2 8 16.7 17.9 16.7s18-7.5 18-16.7C-117.8 970.4-125.9 962.8-135.8 962.8L-135.8 962.8z"/><path d="M65.2 963.5c0 0.6 0 31.6 0 32.2 0.5 0 5 0 5.5 0 0-0.6 0-31.6 0-32.2C70.2 963.5 65.7 963.5 65.2 963.5L65.2 963.5z"/><path d="M180.5 968.2c0-0.5 0-4.2 0-4.7 -0.6 0-17.4 0-18 0 0 0.6 0 31.6 0 32.2 0.6 0 17.4 0 18 0 0-0.5 0-4.2 0-4.7 -0.6 0-12.4 0-12.4 0v-8.8c0 0 11.3 0 11.9 0 0-0.5 0-4.2 0-4.7 -0.6 0-11.9 0-11.9 0v-9.1C168 968.2 179.9 968.2 180.5 968.2L180.5 968.2z"/><path d="M264.6 963.5c0 0.6 0 31.6 0 32.2 0.6 0 15.7 0 16.3 0 0-0.5 0-4.2 0-4.7 -0.6 0-10.8 0-10.8 0s0-26.9 0-27.5C269.6 963.5 265.1 963.5 264.6 963.5L264.6 963.5z"/><path d="M327.8 968.2c0-0.5 0-4.2 0-4.7 -0.6 0-17.4 0-18 0 0 0.6 0 31.6 0 32.2 0.6 0 17.4 0 18 0 0-0.5 0-4.2 0-4.7 -0.6 0-12.4 0-12.4 0v-8.8c0 0 11.3 0 11.9 0 0-0.5 0-4.2 0-4.7 -0.6 0-11.9 0-11.9 0v-9.1C315.4 968.2 327.3 968.2 327.8 968.2L327.8 968.2z"/><path d="M436 984.1c0 0 0-20 0-20.6 -0.5 0-5 0-5.5 0 0 0.6 0 20.6 0 20.6 0 5-2.2 7.6-6.6 7.6 -4.4 0-6.6-2.5-6.6-7.6 0 0 0-20 0-20.6 -0.5 0-5.1 0-5.6 0 0 0.6 0 20.6 0 20.6 0 4.2 1.1 6.6 2.1 7.7 1.7 2.2 5.3 4.5 10.1 4.5 4.1 0 7.9-1.8 10.1-4.7C435.3 989.9 436 987.4 436 984.1L436 984.1z"/><path d="M222.2 990.9h-4.8v-9.8h4.9c6.4 0 6.9 3.8 6.9 4.9C229.3 988.2 228.1 990.9 222.2 990.9L222.2 990.9zM217.5 968.2h4.2c5 0 5.5 2.8 5.5 4.1 0 2.7-2.1 4.1-6.1 4.1h-3.6L217.5 968.2 217.5 968.2zM234.8 986.3c0-3.9-1.9-6.4-5.7-7.7l-1.1-0.4 1.1-0.5c0.9-0.5 3.7-2 3.7-5.9 0-2.1-1.1-4.3-2.8-5.8 -2.9-2.4-6.8-2.4-10.5-2.4 0 0-6.8 0-7.4 0 0 0.6 0 31.4 0 32 0.6 0 9.9 0 9.9 0 2.7 0 6.4-0.3 8.8-1.9C232.5 992.4 234.8 990.1 234.8 986.3L234.8 986.3z"/><path d="M369.8 970l5.4 13.5h-10.8L369.8 970 369.8 970zM377.2 988.3l3 7.4h6.2c0 0-13.5-30.4-14.3-32.2 -0.4 0-4.1 0-4.5 0 -0.2 0.3-13.9 31.4-14.2 32.2 0.8 0 6.2 0 6.2 0l3-7.4H377.2L377.2 988.3z"/><path d="M22.3 970l5.4 13.5H16.9L22.3 970 22.3 970zM29.6 988.3l3 7.4h6.3c0 0-13.5-30.4-14.3-32.2 -0.4 0-4.1 0-4.5 0 -0.2 0.3-13.9 31.4-14.2 32.2 0.8 0 6.2 0 6.2 0l3-7.4H29.6L29.6 988.3z"/><polygon points="-90.2 963.6 -82.9 963.6 -67.3 988.4 -67.2 988.5 -67.3 988.5 -67.2 988.4 -67.2 963.6 -61.7 963.6 -61.7 995.7 -68.7 995.7 -84.6 970.6 -84.7 970.6 -84.7 995.7 -90.2 995.7 "/><polygon points="102.1 963.6 109.4 963.6 125.1 988.4 125.1 988.5 125.1 988.5 125.1 988.4 125.1 963.6 130.7 963.6 130.7 995.7 123.6 995.7 107.7 970.6 107.6 970.6 107.6 995.7 102.1 995.7 "/><path d="M460.5 978.1c-3.9 0-7.1-2.9-7.1-7s3.2-7.1 7.1-7.1c4 0 7.1 3 7.1 7.1S464.5 978.1 460.5 978.1zM460.5 964.9c-3.5 0-6.2 2.5-6.2 6.2s2.7 6.2 6.2 6.2c3.6 0 6.2-2.5 6.2-6.2S464.1 964.9 460.5 964.9zM463.2 975.2l-2.6-3.6h-1.4v3.7h-0.9v-8.4h2.3c1.5 0 2.5 1.1 2.5 2.3 0 1-0.7 1.8-1.5 2.2l2.4 3.4L463.2 975.2zM460.6 967.8h-1.4v2.9h1.4c1 0 1.7-0.7 1.7-1.5C462.2 968.4 461.5 967.8 460.6 967.8z"/><path d="M-38.1 1061.1l-1.3-16.2c-0.2-2.6-0.4-5.5-0.5-8.1H-40c-1.1 2.6-2.6 5.8-3.9 8.3l-7.9 16.2H-53l-7.9-16.2c-1.2-2.4-2.6-5.5-3.8-8.3h-0.1c-0.1 2.6-0.3 5.7-0.5 8.1l-1.3 16.2h-3l2.5-31.2h2.2l8.6 17.4c1.3 2.7 2.8 5.9 4.1 8.7h0.1c1.2-2.8 2.6-5.8 4-8.7l8.5-17.4h2.1l2.6 31.2H-38.1z"/><path d="M-18.9 1061.1v-31.2h3.3v31.2H-18.9z"/><path d="M22.8 1061.1l-3.6-8.7H6.1l-3.5 8.7h-3.3l12.8-31.6h1.2l12.8 31.6H22.8zM14.4 1040.1c-0.5-1.4-1.2-3.1-1.7-4.8h-0.1c-0.5 1.7-1.1 3.4-1.7 4.8l-3.8 9.6H18L14.4 1040.1z"/><path d="M70.9 1061.1l-1.3-16.2c-0.2-2.6-0.4-5.5-0.5-8.1H69c-1.1 2.6-2.6 5.8-3.9 8.3l-7.9 16.2H56l-7.9-16.2c-1.2-2.4-2.6-5.5-3.8-8.3h-0.1c-0.1 2.6-0.3 5.7-0.5 8.1l-1.3 16.2h-3l2.5-31.2h2.2l8.6 17.4c1.3 2.7 2.8 5.9 4.1 8.7h0.1c1.2-2.8 2.6-5.8 4-8.7l8.5-17.4h2.1l2.6 31.2H70.9z"/><path d="M90.1 1061.1v-31.2h3.3v31.2H90.1z"/><path d="M141.3 1061.1h-9.4v-31.2h7.7c4.3 0 8.4 2.9 8.4 7.7 0 2.5-1.3 4.9-3.4 5.8 3.5 0.7 6.6 4.2 6.6 8.4C151.1 1057.7 146.3 1061.1 141.3 1061.1zM139 1032.7h-4v9.9h4.2c2.9 0 5.4-1.8 5.4-4.9C144.6 1034.4 142.1 1032.7 139 1032.7zM140.4 1045.3H135v13.1h5.7c3.8 0 7.1-2.4 7.1-6.5C147.8 1047.7 144.4 1045.3 140.4 1045.3z"/><path d="M166.3 1061.1v-31.2h16.3v2.8h-13v11.3h10.7v2.8h-10.7v11.4h14.7v2.8L166.3 1061.1 166.3 1061.1z"/><path d="M219.7 1061.1l-3.6-8.7H203l-3.5 8.7h-3.3l12.8-31.6h1.2l12.8 31.6H219.7zM211.3 1040.1c-0.5-1.4-1.2-3.1-1.7-4.8h-0.1c-0.5 1.7-1.1 3.4-1.7 4.8l-3.8 9.6h11L211.3 1040.1z"/><path d="M259.9 1034.6c-1.7-1-4.8-2.1-8.1-2.1 -6.9 0-13.3 4.9-13.3 13s6.3 13 13.3 13c3.6 0 6.3-0.7 8.3-2l-0.3 3.1c-1.9 1.1-4.4 1.7-8.3 1.7 -8.3 0-16.3-6-16.3-15.9 0-9.9 8.1-15.9 16.3-15.9 3.9 0 7.1 0.9 9.1 2.1L259.9 1034.6z"/><path d="M296.9 1061.1v-14.3H279v14.3h-3.3v-31.2h3.3v14.1h17.9v-14.1h3.3v31.2H296.9L296.9 1061.1z"/><path d="M-240.4 972.6v150.8c0 4 3.3 7.3 7.4 7.3s7.4-3.3 7.4-7.4v-82.6c0-4-3.3-7.3-7.3-7.4l0 0 0 0h-2v2.7h1.9c2.6 0 4.6 2.1 4.6 4.7v82.6c0 2.6-2.1 4.7-4.6 4.7 -2.6 0-4.7-2.1-4.7-4.6V972.6H-240.4z"/><path d="M-243.8 930.1c-4.8 0-8.7 3.9-8.7 8.7 0 0 0 93.3 0 94.6 -0.9 0-4 0-4 0v2.7c0 0 3.1 0 4 0 0 1.3 0 51.9 0 51.9h2.7c0 0 0-50.6 0-51.9 1.1 0 6.7 0 6.7 0v-2.7c0 0-5.6 0-6.7 0 0-1.3 0-94.6 0-94.6 0-3.3 2.7-6 6-6h0.7v-2.7H-243.8L-243.8 930.1z"/><path d="M-213.2 1124c-1.5 0-2.8-1.1-2.8-2.8 0-1.6 1.3-2.8 2.8-2.8 1.6 0 2.8 1.2 2.8 2.8S-211.6 1124-213.2 1124zM-213.2 1118.8c-1.4 0-2.4 1-2.4 2.4 0 1.5 1 2.4 2.4 2.4s2.4-1 2.4-2.4C-210.7 1119.8-211.8 1118.8-213.2 1118.8zM-212.1 1122.9l-1-1.4h-0.6v1.5h-0.3v-3.3h0.9c0.6 0 1 0.4 1 0.9 0 0.4-0.3 0.7-0.6 0.8l0.9 1.3L-212.1 1122.9zM-213.1 1119.9h-0.5v1.2h0.5c0.4 0 0.7-0.3 0.7-0.6C-212.5 1120.2-212.7 1119.9-213.1 1119.9z"/></svg>