<svg xmlns="http://www.w3.org/2000/svg" id="merrion-logo" class="logo" viewBox="0 0 5657.73 2233.75"><path d="M2524.78 755.89c-3.78-1.22-7.78-2-11.29-3.72-38.68-19.12-72.64-44.35-100.53-77.56-15.59-18.57-27-39.53-37.08-61.37-3.14-6.84-1.87-11.64 4.31-15.4 19.46-11.83 39.13-14.55 58.61 3.06 11.34 10.24 23.68 19.39 35.78 28.76 3 2.28 6.71 3.51 9.33 4.83 5.12-2.25 5-5.86 5.15-9 5-79.8 10.33-159.61 7.85-239.62-1-33.26-3.56-66.51-6.59-99.65-3.81-41.76-8.49-83.46-13.45-125.1-4.32-36.35-9.56-72.59-14.35-108.89a63.46 63.46 0 0 1-.48-12c8.36 27.44 12.75 55.71 16.87 83.92 6 40.82 10.72 81.84 15.41 122.84 2.19 19.17 3.69 38.48 4.34 57.77q2.58 75.9 4 151.84c.36 20.63-1.07 41.28-1.49 61.93-.23 11.23 0 22.47 0 37.77 3.22-5.75 5.09-8 5.83-10.65a55.89 55.89 0 0 0 1.91-11.79c3.1-50.55 6-101.11 1.67-151.75-.68-7.95-.32-16-.81-24-2.4-39.21-4.25-78.48-7.61-117.61q-5.11-59.67-12.84-119.11c-2.87-22.4-7.59-44.61-12.4-66.7-2.51-11.52-5.2-23.32-15.6-31.46-4.24-3.31-1.66-9.59 3.92-10.15 17.87-1.8 35.76-4.19 53.69-4.65 81.93-2.1 163.87-3.69 245.81-5.33 54-1.08 107.92-1.83 161.88-2.91 55.37-1.11 110.53 2.14 165.64 7 8 .7 16 .61 24 1.34 13.42 1.23 16.48 4.74 15.66 17.65a101.21 101.21 0 0 1-2 13.83A1475.56 1475.56 0 0 0 3106.67 194a2294.54 2294.54 0 0 0-10.6 263.43c.79 45.94 4 91.83 6.09 137.74.4 8.66.6 17.32 1.16 26 .34 5.26.34 10.82 6.57 14.88 2.9-1.4 6.66-2.61 9.71-4.81 10.81-7.79 21.25-16.09 32.06-23.86 5.92-4.26 12-8.59 18.54-11.6 16-7.31 34-3.11 45.64 9.71 4.08 4.48 4.75 9.6 2.39 14.79-1.92 4.2-4.75 8-7.34 11.87-33.26 49.69-77.38 87.75-128.07 118.5-49 29.73-102.27 47.7-158.89 56.5-54.28 8.43-108.9 9.53-163.46 6.55-74.24-4.05-146.47-18.93-215.54-47.25-7.24-3-13.88-7.39-20.81-11.13 8.23 2.53 16.58 4.71 24.66 7.64 78.19 28.35 158.6 44.81 242 45.46 25.3.2 50.59.22 75.74-3.47 21-3.09 42.46-4.42 63.14-9.05s42.09-6.56 62.09-14.65c10.34-4.18 22.55-4.65 31.9-10.19 14.2-8.4 32.19-10.49 42.77-25 6.59 1.41 7-7.93 9.64-7.48 7.65 1.32 10.27-7.33 15-7.08 8.35.44 7.55-9 13.83-10 4-.6 5.53-3.52 3.77-7.3-1.89-4-5.68-5.31-10.06-3.23-5.4 2.56-10.61 5.54-15.88 8.37q-22.83 12.24-45.64 24.51l.46.44c1.73-6.78 8.34-8 13.06-11.34 25.63-17.92 51.79-35.11 76.86-53.76 11.63-8.65 21.31-19.95 31.64-30.28 1.46-1.46 1.57-4.26 3.57-10.16-6.44 4.27-9.85 6-12.66 8.5-10.52 9.2-20.9 18.58-31.24 28-28.35 25.79-59.88 46.48-95.82 60.17-11.18 4.27-22.21 9-33.51 12.93-55.7 19.47-112.84 30.87-172.1 30.19-18.64-.22-37.28 0-55.93-.21-30-.42-59.65-4.45-89.07-10.3-38.59-7.67-75.94-19.59-113.16-32.07-7.28-2.44-14.3-7-22.81-5.55.51 6.6 6.3 6.79 10 8.33 92.27 38.58 189.4 51.61 288.47 54.36-37.9 3-75.69.55-113.24-3.67-61.06-6.85-120.52-20.91-177.76-43.66a71.37 71.37 0 0 0-11.3-3.69c-5-1.07-8.38 2.08-8.79 8-.15 1.86.65 3.85 1.03 5.81zm96.64-25.55c-1.8-.67-3.58-1.42-5.41-2-.45-.13-1.08.4-1.63.62.68.77 1.4 2.23 2 2.19a29.83 29.83 0 0 0 5.46-1.35c.88 1.69 1.35 4.36 2.7 4.91a136.26 136.26 0 0 0 17 5.71c34.79 9.23 70.16 14.23 106.09 17.12 45.48 3.66 90.32-.63 135.2-6.47 6.3-.82 12.41-3.13 18.61-4.75-4.29-2.64-8.17-2.83-12-2.61-22.56 1.32-45.1 3.37-67.68 4-47.94 1.32-95.74-.5-143.16-8.55-19.02-3.16-38.08-5.95-57.18-8.82zM2486.33 66.06l1.5-10.56-1.53-.19V66c4.31 30.28 9.29 60.49 12.73 90.86 3.9 34.38 6.93 68.88 9.38 103.4 2.69 37.85 5.09 75.75 6.15 113.68 1.23 43.94.81 87.92 1.22 131.89.06 7.19.68 14.37 1.27 26 2-6.11 3-7.78 3.13-9.51 1.52-25.92 3.13-51.84 4.3-77.77 2.52-56-2.24-111.81-4-167.7 0-1.33-.16-2.67-.31-4-4.94-43.63-9.37-87.33-15.06-130.87-2.93-22.39-8.13-44.47-12.24-66.71-.78-4.15-2.11-7.71-6.54-9.21zm71.38 656.11a6.91 6.91 0 0 0-1.71-.17c-.36 0-.68.46-1 .71l3.18-1c.52 6.7 6.09 8.44 10.89 10.2 19.32 7.09 38.49 14.82 58.25 20.39 46.26 13 93.59 19.17 141.66 21.16s95.69-.5 143-9.18c22.25-4.08 44.1-9.83 64.91-18.9 3.81-1.66 7.12-4.44 10.66-6.71-7.31-1-13.61.37-19.81 2.11-36.58 10.22-73.78 17.77-111.57 20.84-74.08 6-147.55 1.33-219.73-17.34-26.35-6.8-52.44-14.8-78.73-22.11zm560.67-668.32c-2 2.41-5.2 4.53-5.85 7.26-3.34 14.13-6.59 28.33-8.82 42.66-4.56 29.36-8.35 58.83-12.75 88.22-.44 3-2.87 5.62-4.38 8.43v.05c.67-2.56 1.76-5.09 1.93-7.69 2.86-43.2 9-86 14.95-128.84.24-1.79-.43-3.71-1.24-9.91-10.32 37-14.12 70.93-20.53 104.39.06-8 .77-15.87 1.6-23.75 3.14-29.78 6.39-59.55 9.37-89.35.27-2.67 1.54-6.59-4.22-8.21-1.68 4.92-3.9 9.68-4.92 14.68a732.13 732.13 0 0 0-12.84 94.89c-3.6 51.8-8.48 103.54-10.48 155.4q-4.23 109.82-.54 219.75c.33 10 1.16 19.93 2.2 29.85.31 2.92.43 6.78 5.66 7.88.26-7.47.71-14.72.71-22 0-21.32-.2-42.63-.17-64 0-6.8.52-13.6.8-20.4 2.21 18 2.42 36 3.59 53.87.92 13.93 3 27.79 4.65 41.67a3.25 3.25 0 0 0 1 1.59c.09.1.72-.31 2.46-1.11v-60.25c2.39 8.61 2.5 17.23 3 25.82.49 8.15-.59 16.59 3.8 24.33a78.11 78.11 0 0 0 2.55-19.47c.27-89.93 1.76-179.81 7.44-269.58 1.43-22.59 2.64-45.22 5.15-67.7 4.78-43 10.42-85.85 15.57-128.94v-6.83l-1.29.2c.56 2.36 1.08 4.73 1.6 7.09zM2562.29 18.3c-.79 4.67-1.49 6.59-1.37 8.45 2.31 35.88 4.8 71.76 7.08 107.64q2.52 39.88 4.64 79.78c2.2 40.55 5.18 81.08 6.22 121.66 1.95 75.91 2.75 151.86 4 227.79.07 4 0 8 .4 12 .18 1.83 1.29 3.56 2 5.39.91-.49 1.84-.73 1.86-1.05 2.54-32.78 5-65.57 7.31-96.2.76 36.38 1.57 75 2.35 111.83 7 8.77 14.21 12.67 23.28 14 14.47 2.14 29 4.18 43.2 7.76 15.8 4 31.32 1.18 46.69 1.75 4.06-8.71 2.68-16.81 2.68-24.67q.12-278.85.05-557.69c0-6 .3-12-.35-18-.4-3.65-2.34-7.12-3.6-10.71l-17.83 1c-1.3 2.08-2.6 3.19-2.61 4.3q-.72 98.85-1.26 197.72h-1.49v-18.91c0-54 .08-107.94-.1-161.91 0-7 1.81-14.59-3.93-23-6.44 4.46-13.25 3.27-20.1.07a13.31 13.31 0 0 0-7.85-.5c-14.09 3-29.3-2.31-42.67 5.91a4.68 4.68 0 0 1-3.85.36c-7.18-3.63-10.18 3.92-14.94 5.69-3.15-1.05-3.56-6.83-10.66-2.22 1.23 23.45 1.61 48.53 1.83 73.63s0 50.47 0 75.71q-3.81-36.18-6.07-72.5c-2.33-38.15-6.85-63.44-14.91-75.08zm364.25 628.86c6.68 19.91-1.87 39.21 7.48 58.19 10.18-16.34 1.94-33.56 8.6-51.75.39 11.9.56 20.5 1 29.09a69.8 69.8 0 0 0 1.67 13.8c.47 1.8 3.32 3 6.48 5.6 4.69-18.58.27-36 3.88-52.62.81 5.34.71 10.64.83 15.94.21 8.65.36 17.31.95 25.94.23 3.29 1.68 7.16 5.5 7.28s5.56-3.31 5.8-6.86c.36-5.31.35-10.64.46-16 .22-10.78-.45-21.6 1.55-32.33 1.21 10.62 1.09 21.23 1.26 31.83a113.55 113.55 0 0 0 1.26 15.86c.23 1.45 2.52 3.36 4.07 3.56s4.23-1.36 4.5-2.58a128.48 128.48 0 0 0 2.69-17.55c.44-5.3 0-10.66.16-16 .11-4.59.45-9.17.69-13.76 1.53 8 1.19 16 1.63 23.94.42 7.46-2.24 15.64 4.53 23.75 2.22-2.75 4.72-4.44 4.95-6.4.77-6.58.76-13.26 1-19.9.33-9-.71-18 1.81-26.91 1.18 7.91 1.08 15.82 1.21 23.73.1 6 .23 12 .86 17.93.33 3.17 1.53 6.47 7.15 5.24 3.28-6.33 2.33-13.71 2.61-20.83.42-10.65.48-21.31 1-31.95.13-2.84 1.92-4.76 5.8-4 4.37 17.11-2.19 35.47 4.39 53.73 11.47-6.52 6.45-16.73 7.18-24.93.78-8.63.18-17.39.18-26.09 2.27 5.34 2.19 10.63 2.29 15.92.15 8 .23 16 .75 24 .22 3.46 2.36 7.15 6.07 6.16 2.48-.65 5.1-4.14 5.91-6.87 1.09-3.72.63-7.92.65-11.92.05-11.94 0-23.88 0-35.82 2.45 9.61 2.42 19.25 2.59 28.88a136.32 136.32 0 0 0 .95 15.92c.2 1.45 2.29 3.33 3.86 3.77 3.16.88 5.15-1.58 5.43-4.24.75-7.27 1-14.6 1.4-21.9.52-8.65-1-17.51 2.34-26 1.23 8 1.15 15.91 1.26 23.83a144.61 144.61 0 0 0 .85 17.93c.26 1.88 3.17 4.81 4.76 4.73 2-.09 5.18-2.5 5.56-4.37a146.18 146.18 0 0 0 2.21-19.72c.59-9.69-.8-19.52 1.62-29.11 1 13.35.93 26.66 1.16 40 0 1.92 1.71 3.81 4.09 8.77 1.22-5.91 2.15-8.38 2.17-10.84.14-18 .22-36 0-54 0-2.93-1.65-5.84-2.84-9.74l-22.36 5.36c-24.59 5.9-49.09 12.25-73.81 17.6a1103.64 1103.64 0 0 1-152.14 21.69 829.35 829.35 0 0 1-187.28-7.6c-42.89-6.53-84.8-17.18-126-30.81-5-1.65-9.86-4.47-15.39-1.9-3.73 15.12-3.83 56.71-.16 72.8 4.68 1.6 9 5.63 15.07 2.21.64-5.79 1.28-11.68 2.18-19.85 1.56 9.68 2.51 16.91 4.05 24 .31 1.43 2.82 3.26 4.35 3.3s4-1.9 4.23-3.24c.87-5.88 1-11.87 1.49-17.82.7-8.31-1.39-16.84 1.7-25 .68 10 .58 20 .72 29.95a98.88 98.88 0 0 0 1.11 15.88c.35 1.93 3.11 3.43 7.14 7.56 3.7-18.74 3.52-35.25 8.26-51.15v52.42c19.63 5.15 36.85 16.51 57.65 10.83 1.11-.3 2.51.61 3.8.83 8.51 1.45 17.05 4.13 25.52 3.92 8.8-.21 15.45 5.09 22.72 7.53 2.23-3.74 3.69-6.2 5.42-9.09 5.1 12.15 5.1 12.15 23.26 16.16 4.15-2.66 2.3-10 8.28-11.83 1.82 4.22 1.17 9.25 8.23 9.31 6.24-16.29.11-34.16 4.86-50.88 1.36 11.25 1.36 22.5 1.84 33.72a121 121 0 0 0 2.19 17.68c.26 1.32 2.83 3 4.36 3.05s4.2-1.66 4.41-2.92a119.17 119.17 0 0 0 1.36-15.81c.21-6 0-12 .1-18 .07-5.61.29-11.22.44-16.84 2.62 7.28 2.51 14.52 2.65 21.74.16 8 .36 16 .93 24a19.85 19.85 0 0 0 2.58 7.44c.44.85 2.31 1.32 3.51 1.31s3.09-.62 3.37-1.42c1.07-3.06 2.2-6.3 2.26-9.49.24-13.27.1-26.55.1-39.83 2.3 5.74 2.26 11.51 2.31 17.27.06 7.33 0 14.68.38 22 .24 4.54.16 9.7 5.64 11.69 3 1.08 5.71-3.58 6-10.91s.12-14.66.25-22c.12-6.55.36-13.11.55-19.67 2.52 11.24 2.43 22.46 2.55 33.69.06 5.31.05 10.71 1.05 15.88.33 1.7 3.59 3.47 5.79 3.95 1.27.27 4.24-1.8 4.45-3.13a156 156 0 0 0 1.55-17.82c.42-10.79-.72-21.67 1.94-32.37 1.31 13.28 1.16 26.53 1.39 39.77a52.33 52.33 0 0 0 2 11.52c.19.79 2.12 1.54 3.27 1.58s3.06-.68 3.23-1.4a63.12 63.12 0 0 0 1.9-11.55c.3-6.65 0-13.33.13-20 .07-5.8.3-11.6.45-17.4 2.13 9.44 2 18.74 2.17 28a154 154 0 0 0 1 15.93c.41 3.31 1.73 6.9 5.76 6.94s5.46-3.2 5.56-6.82c.18-6.66.05-13.33.31-20 .36-8.85-1.06-17.86 2.25-26.59 1.51 8.53 1.53 17 1.89 25.55.38 9-1 18.4 3.25 27 6.2.56 8.4-2.23 8.49-6.69.28-14.65.22-29.32.52-44 .05-2.07-1.61-5.48 4.05-6.27.2 7.31.41 14.43.58 21.55.25 10 .25 20 .93 29.93.11 1.63 3 3.53 5 4.33.72.3 3.55-2.09 3.77-3.5a118.75 118.75 0 0 0 1.17-15.88c.15-11.83 0-23.66 0-35.48 2 12.62 1.9 25.24 2.07 37.86a74.55 74.55 0 0 0 1.39 13.83c.25 1.24 3 2.81 4.46 2.71s3.39-2 3.77-3.48a41.7 41.7 0 0 0 1.06-9.87c.12-12 0-24 .17-36 0-2.12-1.43-5.72 3.19-5.76 3.49 18-2.29 36.81 4.24 56.72 3.14-3.14 6-4.64 6.27-6.53a145.7 145.7 0 0 0 1.15-17.87c.16-5.33 0-10.67.06-16 .11-5.18.4-10.36.62-15.54 2.38 12.68 2.27 25.3 2.44 37.9a47.37 47.37 0 0 0 1.54 11.76c.38 1.42 3 3.1 4.54 3.08s4.22-1.76 4.53-3.16a68.29 68.29 0 0 0 1.58-13.76c.23-13.23.15-26.47.19-39.7 2.65 9.2 2.44 18.47 3.31 27.64.89 9.33-3 20 6 27.78 7.78-4.5 6.32-11.7 6.66-18.11.31-6 .05-12 .13-18 .08-5.79.27-11.57.41-17.36 1.83 14.76 1.72 29.41 1.89 44 0 4.86 2.93 7.93 5.33 6.28 1.91-1.3 4-3.69 4.26-5.78.65-6.61.5-13.3.54-20 .06-9.19 0-18.38 0-27.58 2.75 9.24 2.67 18.5 2.77 27.75.07 6-.08 12 .83 17.92.36 2.34 3.31 4.29 6.28 7.83 6.52-20.32-.08-40.2 7.58-60.8zM2720.07 9.79c-1.2 2-3.24 3.93-3.46 6.05a172.79 172.79 0 0 0-.65 17.93v563.48c0 4.66 0 9.33.19 14 .07 2 .11 4.18 1 5.83s2.67 3.31 4.28 3.55 4.22-1 4.74-2.32a35 35 0 0 0 2.92-11.35c.44-9.31.26-18.64.27-28V441.38c1.12 51.26 1.11 102.53 1.14 153.79q0 10 .51 19.95c.16 3.16 2.1 4.55 5.88 3.68 3.9-6.39 2.73-13.86 2.74-21q0-282.73-.11-565.48a127.19 127.19 0 0 0-1.23-17.88c-.28-2-2.56-3.7-5.31-7.41-2 5-3.81 7.82-4.12 10.79a176 176 0 0 0-.51 18V287.34h-2.77V176.18v-53.95c0-18.65.26-37.3-.09-55.94-.4-18.46 1.51-37.04-5.42-56.5zm134.78 606.33c3.6-8.38 2.22-15.81 2.14-23-.87-81.28-2.13-162.55-2.87-243.83-.93-101.94-1.48-203.88-2.2-305.82-.05-6.66-.1-13.33-.37-20-.14-3.31-.21-6.83-1.41-9.81-.77-1.9-3.39-3.55-5.52-4.15-1-.27-3.76 2.14-3.94 3.57A144.16 144.16 0 0 0 2839.5 31c-.12 20.93-.05 41.87-.05 62.8h-2l-2.19-72.61c-1.95 6-1.94 12-1.95 17.92q-.49 280.84-1 561.68c0 4 .06 8 .39 12a11.56 11.56 0 0 0 1.65 5.6c1 1.43 3.07 3 4.64 2.94s4.4-1.71 4.6-3a105.78 105.78 0 0 0 1.45-17.76c-.87-61.95-2.18-123.89-2.83-185.85-.76-73.29-1-146.58-1.46-219.87-.11-19.28 0-38.55 0-57.83a5.45 5.45 0 0 1 1.72 3.82q2.11 129.9 4.14 259.79c.66 45.3.85 90.61 1.35 135.91.24 21.32.6 42.64 1.21 64 .18 4.89-1.17 10.62 5.68 15.58zm-96.94 5.7c1.65-.63 3.26-.74 3.89-1.59a10.9 10.9 0 0 0 2.41-5.32q.67-11 .68-22V37.31c0-4.67 0-9.33-.09-14-.08-2.65 0-5.49-.88-7.88s-2.65-5.32-4.55-5.76c-4.16-1-5.67 3.09-6 6.12a211.28 211.28 0 0 0-1.56 23.85q-.4 126.9-.55 253.82c0 104.56-.35 209.13 3.59 313.66a80 80 0 0 0 .7 9.93c.21 1.73 1.54 3.24 2.36 4.77zm52.35-.35c3.7-10.73 2.61-18.75 2.61-26.59q.11-279.7 0-559.42c0-6.64-.19-13.3-.68-19.93-.1-1.46-1.84-2.81-3.37-5-1.72 2.19-3.61 3.51-3.75 5-.57 5.94-.8 11.94-.8 17.91q-.06 281.72 0 563.41c0 6 .25 12 .83 17.91.18 1.51 2.1 2.83 5.16 6.71zm-15 1c5.52-11.38 4.23-19.42 4.23-27.14q.06-279.78-.07-559.56c0-6 0-12-.61-18-.21-2.09-2.14-4-4.14-7.52-1.35 3.88-2.51 5.65-2.51 7.43q-.12 297.77 0 595.53c-.03 1.85 1.13 3.64 3.07 9.27zm-288-552.11a36.46 36.46 0 0 0-.53 5.93c1.38 17.23 2.91 34.45 4.32 51.68 3.15 38.44 6.91 76.84 9.21 115.34 2.86 47.78 5.23 95.61 6.46 143.46 1 39.9 0 79.86.12 119.79 0 7.1-.84 14.43 2.46 23.32 1.58-3.63 2.82-5.23 2.91-6.89 6.61-117.14 4.9-234.13-7.38-350.84-3.47-33-9.37-65.76-14.28-98.6-.22-.99-1.84-1.76-3.36-3.18zm66.13 476.26h2.17c.31-5.92.86-11.83.88-17.75q.24-100 .31-200c0-3.33-.25-6.66-.46-10q-3.33-53.83-6.71-107.67-2.51-38.89-5.3-77.77c-1-13.28-2.11-26.56-3.65-39.79-1.48-12.71-3.58-25.35-5.41-38a205.24 205.24 0 0 0-1.31 32c.26 9.31 1.2 18.61 1.69 27.92 1.76 33.27 3.38 66.54 5.19 99.81 2 35.93 4.75 71.82 6 107.77 2.31 67.95 3.75 135.92 5.6 203.89.09 6.55.61 13.07.93 19.6zM2783 623.48c3.28-12.4 2.5-20.36 2.5-28.18q.08-279.82 0-559.66c0-6 .06-12-.33-18-.12-1.91-1.62-3.72-3.42-7.57-1.37 4.29-2.46 6.09-2.46 7.9q-.09 297.81.06 595.63c-.02 1.8 1.24 3.59 3.65 9.88zm-35.27-615.6c-2.58 6.13-4 7.88-4 9.62q.08 298.88.43 597.74c0 1 1.45 2 2.23 3 .51-.27 1.22-.41 1.5-.83.71-1.06 1.74-2.24 1.74-3.37q.3-296.88.4-593.76c.04-2.45-.86-4.94-2.3-12.4zM2770 622.43c5.34-10.29 3.75-18.37 3.75-26.1q.13-280.64 0-561.26c0-6 .05-12-.38-18-.14-2-.11-5.43-4.55-4.43-.53 1.75-1.56 3.56-1.56 5.37q-.11 297.62 0 595.22c.06 1.86 1.09 3.69 2.74 9.2zm52.54-612.6C2819 32.25 2817.41 530.31 2820 605a85.07 85.07 0 0 0 1.38 9.45 10.67 10.67 0 0 0 3.55-7.27c2.19-39.04.53-578.1-2.38-597.35zM2548 172.32c0 3.91-.17 7.83 0 11.74.91 17.92 2.19 35.83 2.83 53.77q2.54 70.78 4.64 141.59c1.36 43.21 2.58 86.43 4 129.64.11 3.2 1.33 6.35 2 9.52 6.28-116.11.53-231.42-13.47-346.26zM2863.85 738c-8.85-4.87-15.42-3.47-21.61-3.35-63.23 1.26-126.19-1.8-188.81-11-3.17-.47-7.1-1.6-11.21 3.47 73.45 17.07 145.51 22.07 221.63 10.88zm26.43-725.55c-1.47.87-3.43 1.44-3.47 2.13-3.34 55.84-1.74 111.71-.87 167.58 0 1.43 2 2.82 3.18 4.33 1.32-1.38 2.84-2.23 2.84-3.08q.35-82.93.37-165.87c0-1.63-1.33-3.31-2.05-5.05zM2863.4 12c-1.66 1.51-3.26 2.29-3.27 3.06q-.54 149.79-.79 299.58c0 3.14 1.06 6.27 1.83 10.56 1.78-2 3.22-2.86 3.22-3.73q.49-150.78.72-301.57c.01-2.45-1.03-4.9-1.71-7.9zm10.94.72c-3.43 11.52-4.46 61.92-2.79 148.61.1 5-1.53 10.59 3.85 15.37.84-2.92 2.17-5.36 2.17-7.8q-.15-76.9-.69-153.82c0-.81-1.73-1.63-2.54-2.35zm-57.63 710c-18.68-1.64-34.46-1.08-50.16-.79-15.18.28-30.6-1.48-49 3.3 5.39 1.22 7.25 1.92 9.15 2q35.74 2.09 71.49 4a40.72 40.72 0 0 0 11.79-.74c1.83-.41 3.02-3.26 6.73-7.73zm-280.37-534.14c2-2.18 2.82-2.7 2.78-3.15-2-24.34-4.11-48.67-6.36-73-.11-1.17-1.82-2.18-4.32-5-1.93 26.87 4 50.89 4.6 75.19.04 1.6 1.7 3.15 3.3 5.96zm10.9-52.74l-1.23.81v14.2l1.23-.08zM412.58 1200.1c-2.7 7.38-5.68 14.68-8.07 22.16Q339.89 1425 275.38 1627.68c-4 12.69-8.18 25.35-12.77 37.84-.66 1.78-4 3.18-6.3 3.52-1.33.2-3.76-1.72-4.44-3.25-2.7-6.06-5-12.29-7.27-18.55Q167 1430 89.34 1212.66c-2.62-7.33-3.62-15.59-9.55-21.28-4.13-.11-4.4 2.8-4.54 5.31-.29 5.32-.29 10.65-.29 16v410c0 7.25.37 14.51.59 22.78 5.33 1.1 9.67 2.66 14.06 2.79 12.65.39 25.33.14 38 .27a21.73 21.73 0 0 1 7.79 1.1c1.39.56 3 3 2.82 4.37a5.73 5.73 0 0 1-3.56 4 42.08 42.08 0 0 1-9.93.77q-56 .08-112 0a37.66 37.66 0 0 1-9.86-1c-1.35-.37-3-3-2.87-4.39s2.07-4 3.42-4.16c6-.64 12-.65 18-.75 12.58-.21 25.17-.34 38.59-.52 1.37-5.34 2.91-9.6 3.48-14 .6-4.6.32-9.32.32-14q0-217-.05-434c0-8.54 1.47-17.39-3.37-26-9.22-3.86-19.3-1.68-29.1-2.17-9.3-.46-18.61-.46-27.89-1.12-1.24-.09-3.16-2.81-3.18-4.33s1.83-3.6 3.32-4.15a23.19 23.19 0 0 1 7.87-1q67 0 134 .13a60.61 60.61 0 0 1 7.74 1c7.64 5.92 9.19 14.75 12.05 22.75q45.16 126 90.14 252.08c10.08 28.22 20.06 56.47 30.37 84.61 1.73 4.73 1.83 10.84 8.45 13.3 5-3.68 5.86-9.63 7.62-15.14q27.67-86.57 55.41-173.12Q383 1252 408.87 1171.13c2.41-7.5 5.59-14.75 8.36-22 5.12-.76 9-1.84 12.94-1.84q67 0 134 .39c1.82 0 3.63 1.28 6.84 2.48-1.43 2.4-2.16 5.36-3.84 6.07-2.93 1.23-6.43 1.39-9.7 1.44-11.33.16-22.66 0-34 .17-4.53.09-9 1-14.44 1.57-.78 4.45-1.65 8.21-2 12a97.81 97.81 0 0 0-.14 10v444c0 6.53.61 13 1 20.75 6.26.85 11.33 2 16.43 2.14 13.32.37 26.66.12 40 .51 4.63.14 7.55 2.53 4.61 8.66-4.09.38-8.65 1.18-13.21 1.19q-93 .12-186 0c-11 0-16-2.09-14.66-5.58 2.64-6.89 9-4.35 13.84-4.56 10-.42 20 0 30-.2 5.22-.11 10.43-.8 16.56-1.31 1-4.25 2.29-7.93 2.61-11.68.45-5.3.21-10.66.21-16q0-198-.05-396c-.06-7.69 1.13-15.67-5.65-23.23zM5286.66 1294.12c-8.42 6.59-9 13.57-11 19.61-12.19 37.34-24.14 74.75-36.16 112.14q-36.08 112.17-72.18 224.34a152 152 0 0 1-6.27 16.77c-2 4.39-9.5 4.8-11.67.62a166.22 166.22 0 0 1-7.87-18.29q-35.93-96.39-71.71-192.83-51.46-138.56-102.89-277.13c-8.77-23.68-7.65-21.37-31.3-21.56-11.33-.09-22.67.11-34-.15a32.64 32.64 0 0 1-9.5-2.16c-.81-.27-1.52-2.21-1.44-3.33s1.07-2.87 1.91-3a77.72 77.72 0 0 1 13.69-1.81c22-.18 44-.1 66-.1h124c6.53 0 13.05.59 21.63 1-2 4-2.49 7.14-4.1 7.87-2.87 1.31-6.38 1.52-9.64 1.57-10.66.18-21.33 0-32 .17-4.55.09-9.08.93-13.5 1.41-3.16 7.82.86 13.74 3 19.74 12.38 34.47 25 68.84 37.55 103.25q42.39 116.34 84.86 232.67c2.19 6 2.94 13 9 17.54 5.87-2.89 6.43-8.45 7.92-13.16q20.51-64.72 40.72-129.54c11-34.94 21.82-69.9 33-104.77 2.3-7.17 3.84-14 1.29-21.42-11-32.1-21.92-64.25-33-96.35-.84-2.45-2.58-4.59-4.62-8.14-5.32-.41-11.17-1.15-17-1.25-14-.24-28-.07-42-.3-4.48-.07-7.77-1.88-6.22-8.47 3.35-.56 7.1-1.6 10.88-1.75 64-2.4 201.31-1 217.54 2.2 2.72 5.48-.81 7.66-5.11 7.8-14 .46-28 .29-42 .49-5.31.08-10.63.41-15.92.88-1.16.11-2.23 1.3-3.57 2.14-2.45 9 2.42 16.79 5.1 24.76q48.45 143.85 97.34 287.55c6 17.64 11.91 35.31 18.17 52.86.95 2.69 3.56 4.79 6.55 8.63 2.63-6.15 4.79-10.21 6.15-14.53q55.08-175.26 109.91-350.61c.74-2.38.09-5.2.09-8.91-3.73-.93-7.36-2.51-11-2.61-12.65-.35-25.32 0-38-.32a25 25 0 0 1-9.46-2.24c-1-.45-.94-3.35-1.42-5.38 2.24-.9 4-2.21 5.79-2.22q63-.3 125.94-.25c2.47 0 4.94 1.22 7 1.76 1.73 5-.61 7.61-4.13 7.77-12.63.57-25.3.54-38 .68-20 .23-22.19 1.28-28.54 20.59-17.05 51.86-33.7 103.84-50.41 155.81q-50.71 157.82-101.33 315.66c-1.22 3.8-2.45 7.6-3.82 11.35-1.61 4.41-3.13 9.26-9.15 8.84-5.71-.41-7.14-5.17-8.64-9.63s-3-8.83-4.5-13.24q-56.26-164.37-112.62-328.74c-2.56-7.46-5.65-14.73-9.34-24.28zM4125.42 1394.15c10.55 2 19.66 3.66 28.7 5.59 51.3 10.92 94.6 48.53 102.25 111.16a291.57 291.57 0 0 1 2.26 29.82c.37 20.65.2 41.31.19 62 0 10.12 1.32 20 5.81 29.14 6 12.18 15.48 19.57 29.27 21.44 15.9 2.15 30.43-.63 42.77-10.53 6.46 1.75 6.51 5.08 2.88 8.72-10.25 10.27-23.11 16.11-37.09 18.14-19.92 2.9-39.88 2.22-59.16-4.82-29.24-10.67-49.43-30.88-61.55-59.17a149.55 149.55 0 0 1-12.52-56.23c-.36-19.32.05-38.66-.6-58a206.54 206.54 0 0 0-3.53-33.68c-4.64-23.1-18.1-40-39.89-49a129.61 129.61 0 0 0-34.5-9.36c-23.82-2.69-47.84-1.45-72.54-1.06-1.24 4.47-2.78 8.08-3.15 11.8-.53 5.28-.24 10.65-.24 16v197.93c0 7.18-1.05 14.59 2.7 22.42 4.4.65 8.84 1.77 13.31 1.87 12.66.28 25.33.1 38 .18 2.65 0 5.47-.13 7.9.71a5.89 5.89 0 0 1 3.35 4.22c.08 1.5-1.54 4.09-2.9 4.45a38.25 38.25 0 0 1-9.89.87h-189.93a53.83 53.83 0 0 1-11.83-1.15c-1.29-.3-3-2.91-2.86-4.29s2.15-3.91 3.52-4c6.61-.61 13.28-.66 19.93-.79 11.92-.23 23.84-.38 36.52-.58 1.3-4.5 2.83-8.09 3.27-11.81.55-4.61.23-9.32.24-14v-437.85c0-7.85 1-15.87-2.06-24-7.84-3.56-15.9-2.1-23.71-2.37-11.3-.38-22.62-.39-33.91-1-1.38-.07-3.47-2.5-3.69-4.06-.18-1.3 1.7-4 3-4.21a73.71 73.71 0 0 1 13.83-1.3q99-.07 197.93 0c26.2 0 51.77 3.68 76.33 13.16a149.17 149.17 0 0 1 48.92 30.33c43.81 41 45.61 112.66 4.07 156.72-18.35 19.47-40.6 32.06-66.36 38.74-4.92 1.21-10.82.35-15.04 7.85zM4016.93 1384c1.59.79 3.29 2.3 5.1 2.43 26.59 2 53.2 2.45 79.47-2.75 19-3.76 32.24-15.23 38.74-33.68a117.08 117.08 0 0 0 4.87-19.28c4.28-25 4.94-50.34 3.37-75.59-1.15-18.53-3.15-37-10.15-54.64-7.94-20-21.63-33.22-42.59-38.4-7.06-1.75-14.31-3.37-21.53-3.66-15.94-.62-31.91-.48-47.87-.37-3.11 0-6.21 1.31-10 2.17-.55 5.93-1.37 11.1-1.47 16.28-1.94 99.26-1.01 190.25 2.06 207.49zM1233.46 1160.15c-9-4.15-18.46-1.84-27.62-2.31-10-.52-20-.42-29.91-1-1.34-.08-3.4-2.6-3.54-4.15s1.65-4 3-4.34a55.42 55.42 0 0 1 11.88-1.06q101 0 201.93.06c28.28 0 55.66 4.74 81.71 16.19 15.4 6.77 29.41 15.55 41.52 27.29 44.46 43.13 46.31 111 4.19 156.52-18.66 20.16-41.59 32.93-68.25 39.21-4.33 1-9.57.52-11.62 7.47 3.15.77 6.11 1.59 9.11 2.23 9.11 1.93 18.42 3.15 27.31 5.77 68.8 20.25 92.87 75.2 94.28 122.37.72 24-.09 48 .46 72a118.54 118.54 0 0 0 3.68 27.58c5.1 19.18 17.63 28.89 37.57 29.92 11.42.59 22.64-.55 32.28-7.91 2-1.49 4.48-2.25 6.37-3.16 4.4 3.25 3.78 6.21 1.14 8.9-9.69 9.89-22 15.31-35.19 17.63a119 119 0 0 1-47.66-.86c-34.88-8.06-59.32-28.83-73.94-61.38-10-22.27-13.34-46-14.17-70-.55-16-.1-32-.22-48 0-6.66.13-13.38-.68-20-3.81-31.16-19.22-53.47-49.89-63.52-7.57-2.48-15.36-5.56-23.14-5.85-24.58-.93-49.21-.7-73.82-.79-1.12 0-2.25 1.2-4.7 2.58-.51 4.24-1.66 9.37-1.67 14.5q-.18 107 0 213.93c0 17 1.39 18.08 18.28 18.38 14 .25 28 .1 42 .4 4.87.11 7.14 2.76 5.42 7.77-15.81 3-151.25 4.39-207.72 2.12-3.11-.12-6.2-1.07-11-1.94 1.92-3.4 2.84-7 4.28-7.2 5.86-.92 11.88-.93 17.85-1.07 12-.27 24-.37 36-.66 1.24 0 2.47-.94 4.41-1.72.84-1.88 2.49-4.17 2.83-6.65a103.11 103.11 0 0 0 .65-14v-443.85c-.14-7.16 1.06-14.67-3.41-21.4zm91.74 223.15c2.74 1.44 4.43 3 6.22 3.16 27.28 1.82 54.64 2.66 81.51-3.28 18.06-4 31.35-14.9 36.72-33.13 3.35-11.42 6.59-23.26 7.12-35 1.09-24.58 1-49.27.14-73.87a116.71 116.71 0 0 0-11.23-46.26c-7.59-16-19.78-26.78-36.49-31.82a124 124 0 0 0-27.41-4.76c-12.6-.86-25.29-.58-37.94-.47-19.24.16-20 .78-20 20.54q-.18 94.89 0 189.8c0 5.14.91 10.32 1.36 15.09zM1855.94 1400c-5.44 7.27-3.61 15.55-3.64 23.35-.18 46.65-.09 93.3-.09 140 0 21.32-.08 42.65.07 64 0 6.55-1.07 13.48 4.27 19.16 7.46 3.27 15.56 1.7 23.46 1.95 11.32.35 22.66.1 34 .69 4 .21 5.18 3.47 3.44 7.64-1.59.53-3.43 1.68-5.27 1.68q-102 .14-203.9 0c-1.84 0-3.67-1.14-6.83-2.19 1.19-2.45 1.7-5.59 3.27-6.27 2.9-1.25 6.42-1.36 9.69-1.41 10.66-.17 21.33 0 32-.13 17.36-.28 18.34-1.29 18.78-17.79.09-3.33 0-6.66 0-10v-435.83c0-7.87 1-15.92-2.38-24.66-3.67-.72-7.4-2-11.16-2.11-12.66-.3-25.32 0-38-.3a35.33 35.33 0 0 1-9.59-1.9c-.91-.27-1.82-2.07-1.86-3.2s.84-3 1.65-3.22a52.26 52.26 0 0 1 11.63-2c14.66-.24 29.32-.14 44-.14h151.95c23.42 0 46.54 2 69 9.12 17.93 5.67 34.73 13.51 49.69 25 56.65 43.56 61.12 121.67 9.81 171.32-17.67 17.09-38.68 28-62.48 33.85-4.21 1-8.23 2.82-12.28 4.23 1.38 5.87 5.29 5 8.2 5.32a156 156 0 0 1 44.26 11.64c48 20.79 73.38 58.28 77.67 109.59 2.05 24.5.44 49.29 1 73.93a156.24 156.24 0 0 0 3.1 29.7c4.8 22 18.9 32.8 41.25 33.13 11.18.17 19.58-2.39 35.56-10.84 4 1.82 4.4 4.82 1.71 7.76-9.87 10.82-22.9 16.23-36.8 18.53a118 118 0 0 1-45.71-.9c-35.64-8.12-60.51-29.27-75.19-62.7-10.39-23.67-12.93-48.8-13.84-74.15-.63-17.3.22-34.66-.45-52a131 131 0 0 0-4.07-27.5c-5.75-22.28-20.41-37.3-41.6-45.16-11.13-4.12-23.07-7.37-34.82-8.14-21.24-1.38-42.61-.65-63.93-.66-1.89-.02-3.78 1.03-5.57 1.61zm.32-240.33c-5.64 7.92-4 16.16-4 24q-.21 88.88-.07 177.76c0 4.66-.08 9.34.3 14 .67 8.2 3.16 11.38 10.77 11.66 25.28.92 50.64 1.85 75.64-3.17 19.78-4 33.87-15.28 39.79-35 2.85-9.5 5.41-19.32 6.23-29.15 2.26-27.22 2.92-54.59.06-81.77a166.41 166.41 0 0 0-9-38.69c-7-19.32-21.26-31.91-41.41-37-7.05-1.8-14.31-3.44-21.54-3.74-15.95-.65-31.94-.51-47.92-.44-3.11-.13-6.27 1-8.85 1.5zM4843.29 1406.5c-1.34 62.3-17.81 123.08-57.36 176.39-24.71 33.33-55.48 59.67-94.44 74.63-63.68 24.47-124.35 17-180.7-21.3-42.08-28.57-70.87-68.13-89.6-115-19.35-48.42-26.56-98.55-21-150.74 5-46.5 18.32-89.87 42.7-129.76a241 241 0 0 1 56.61-64.07 194.19 194.19 0 0 1 239.22-1.59c43.2 33.18 71.25 76.83 88.35 128 10.93 32.44 15.74 65.94 16.22 103.44zm-94.6-7.47c-.76-16.84-2.11-41.44-2.93-66.06-.87-26-4.37-51.77-9.4-77.24-4.4-22.22-10.92-43.89-22.57-63.69-12.78-21.73-31-35.9-55.52-42.52-18.4-5-37-4.47-55.57-3.26-32.95 2.14-58.53 17.5-74.69 46.35-7.08 12.64-12.37 26.55-16.65 40.45-10.66 34.58-14.42 70.46-15.52 106.41-1.23 40.6-.61 81.26-.52 121.9.07 29.37 3.27 58.51 8.46 87.37 4.74 26.39 12.67 51.7 29.1 73.61 17.89 23.87 41.53 37 71.37 38.22 11.3.48 22.67.56 33.95-.09 30.48-1.75 55-14.88 72.22-40.29a172.5 172.5 0 0 0 14.41-26.17c9.06-20.21 13.37-41.8 16.29-63.61 5.5-40.99 6.66-82.27 7.57-131.41zM2565.53 1402.88c1.75-69.76 19.72-134.11 64.16-189.36 28.77-35.77 64.62-61.8 109.61-72.72 62-15.06 119-3 169.54 36.42 36.62 28.56 62.55 65.31 79.15 108.46 31.89 82.89 30.52 165.39-5.09 246.85a246.63 246.63 0 0 1-70.42 93.29c-73.75 60.34-174 60.91-248.29.06-43.2-35.38-70.49-81.21-86-134.23a308.21 308.21 0 0 1-12.66-88.77zm350.75 14.46c-1.35-38.07-1.68-66.74-3.59-95.3-1.79-26.56-5.22-53-11.79-78.9-5.1-20.07-11.72-39.55-23.4-57-12-17.9-28.35-29.55-48.86-35.9-17.56-5.44-35.53-5-53.49-4.38-38.79 1.39-67.33 19.47-84 54.56a247.84 247.84 0 0 0-15.36 43.13c-7.61 29.06-10.9 58.9-12.26 88.86-2.08 45.93-2.16 91.88-.54 137.84a542 542 0 0 0 8.73 81.33c4.86 25.71 13 50.22 29.1 71.47 14.27 18.83 32.54 31.61 55.88 35.71a176.61 176.61 0 0 0 63.61-.21c24-4.53 42.8-17.5 56.94-37.45A147.93 147.93 0 0 0 2897 1582c6.13-18.38 10.55-37.26 12.1-56.5 3.1-39.11 5.24-78.33 7.18-108.16zM935.57 1495.47c-2.41-10.52-4.18-16.83-5.27-23.25-6.56-38.53-37.79-72.59-88.1-70.46-4.59.19-9.17.74-14.54 1.2-1.16 4-2.62 7.64-3.16 11.39-.56 3.92-.28 8-.28 12v196c0 3.33-.07 6.67.09 10 .68 13.83 2.51 15.86 16.82 16 24.67.2 49.34.27 74-.21A164.66 164.66 0 0 0 967.9 1638c49.5-17.86 77.91-53.9 89.08-104.43 2-9.07 2.66-18.45 4.13-27.66.37-2.28 1.46-4.45 2.83-8.46 2.22 3.08 3.92 4.41 4.12 5.92a113.84 113.84 0 0 1 .79 13.94q.08 60 0 120c0 5.93-.63 11.87-1 18.85-5.08.92-9.45 2.32-13.85 2.4-16 .29-32 .15-48 .15H700c-6.66 0-13.35.1-20-.55-2-.2-5-2.4-5.51-4.26-.83-2.82 1.72-4.83 4.63-5 6-.34 12-.39 18-.47 10-.13 20-.08 30-.37 2.51-.08 5-1.2 8.44-2.09.67-4.08 1.54-7.86 1.85-11.68.33-4 .15-8 .15-12v-438c0-7.86 1-15.89-2.36-24.64-5.28-.63-10.37-1.66-15.48-1.78-12-.29-24 0-36-.27a21.42 21.42 0 0 1-7.55-1.93c-.91-.38-1.7-2.15-1.69-3.28a4.22 4.22 0 0 1 1.75-3.19 13.7 13.7 0 0 1 5.63-1.7c5.32-.3 10.66-.36 16-.36h312c7.23 0 14.47.52 22.2.82 1.08 5 2.6 8.78 2.61 12.58.18 40.66.12 81.33.11 122 0 1.33.24 2.87-.33 4a59.89 59.89 0 0 1-4.23 6.23c-1.68-1.71-4.44-3.19-4.83-5.15-1.7-8.49-2.49-17.15-4-25.67-3.54-19.9-10.34-38.61-21.88-55.32-20.21-29.27-48.45-45.78-83.67-48-27.23-1.69-54.63-.47-82-.42-1.9 0-3.79 1-5.4 1.5-5.6 6.55-4.08 14.17-4.11 21.35-.14 42-.07 84-.07 126 0 22-.17 44 .1 66 .2 15.88 2.85 18.12 19 18 45.94-.48 76.85-25.49 86.85-70.15 1.3-5.79 3-11.5 4.55-17.22.12-.45 1-.69 2.69-1.85 1.06 2.3 2.62 4.32 2.87 6.49a125.09 125.09 0 0 1 .48 14v150c-.15 6.26 1.2 12.98-5.23 23.14zM3527.2 1672.34c-6.26-3.75-9.57-4.74-11.3-7a192.39 192.39 0 0 1-11-16.65q-142-228.26-284-456.5c-4-6.43-6.72-14.25-14-18.16-1.62 1.79-3.16 2.69-3.16 3.61q-.49 227.89-.71 455.81c0 3.86 1 7.72 1.69 12.8 5.53.73 10.6 1.86 15.7 2 13.32.37 26.66.15 40 .47 4.92.12 7.35 2.66 4.77 8.68-4.14.4-8.69 1.22-13.25 1.23q-55 .16-110 0a54.49 54.49 0 0 1-11.84-1.09c-1.32-.29-3.1-2.91-2.94-4.27.17-1.54 2.12-3.87 3.58-4.09a96.4 96.4 0 0 1 13.93-.8c11.33-.13 22.66 0 34-.23 3.2-.07 6.38-1.11 9.12-1.61 5-8 3.77-16.18 3.8-24.06.13-40.65.07-81.31.07-122q0-157-.06-313.92c0-8.53-.88-17.06-1.39-26.47-5.6-.91-10-2.15-14.4-2.25-13.32-.31-26.65-.11-40-.28-4-.05-8.16-.43-8.67-7.32 1.82-.79 3.95-2.26 6.25-2.58a86.63 86.63 0 0 1 12-.49h130c3.33 0 6.66.21 10 .24a15.93 15.93 0 0 1 13.55 7.16c3.05 4.36 5.92 8.86 8.71 13.4q96.39 156.59 192.78 313.16c4 6.54 7.09 14 15.16 19.8 1.23-3.71 2.46-5.93 2.62-8.22.36-5.31.23-10.66.23-16v-291.92c0-7.88-.45-15.76-.73-24.87-6.26-.83-11.32-2-16.4-2.1-13.32-.35-26.65-.09-40-.43-4.29-.11-8.05-1.76-5.85-8.21 2.09-.53 4.58-1.7 7.07-1.71q62-.13 124 .09c1.81 0 3.63 1.3 5.24 1.91 1.36 4.27-.07 7.32-4 7.59-8.63.6-17.31.35-26 .68-9.91.38-20-1.34-30.72 2-1 3.35-2.66 7-3 10.71-.54 6.62-.27 13.32-.27 20v453.89c-.09 7.92-.36 15.82-.58 28zM2445.88 1148.12c.34 7.7-2.65 9.19-6.07 9.27-12 .32-24 .16-35.94.44-6.55.16-13.36-1.29-19.57 2.49-4.9 7.88-3.33 16.76-3.34 25.28q-.2 95.89-.08 191.8 0 121.88.09 243.74c0 8.47-1.77 17.42 5 26.54l30.59.74c8.65.2 17.3.23 25.93.79 1.34.08 3.36 2.5 3.53 4 .16 1.37-1.55 4-2.84 4.29a53.74 53.74 0 0 1-11.82 1.15q-92.9.09-185.8 0a73.65 73.65 0 0 1-13.65-1.83c-.77-.15-1.64-2.13-1.63-3.26s.81-2.92 1.7-3.26a22.93 22.93 0 0 1 7.62-1.72c10-.21 20-.06 30-.18 6.58-.08 13.16-.4 20.38-.64 1.31-4.64 2.82-8.26 3.26-12 .55-4.6.25-9.31.25-14v-437.54c0-7.85 1-15.88-2.39-24.59-5.29-.63-10.38-1.65-15.5-1.77-12-.29-24 0-36-.28a20.7 20.7 0 0 1-7.52-2c-.88-.38-1.59-2.19-1.55-3.32s1-3 1.79-3.11c5.18-.89 10.42-1.89 15.65-1.93 24.64-.2 49.28-.1 73.92-.1 34.63 0 69.26-.05 103.89 0 6.56.08 13.1.66 20.1 1zM3973.1 2081.61c2.91.93 5.28 2.17 7.74 2.39 15.37 1.42 96.1.22 109.09-1.63 1.67-4.1 4.11-8.75 5.47-13.7 6.52-23.74 12.8-47.55 19-71.37a76.59 76.59 0 0 0 2.56-13.69c.58-7.62-2-11.15-9-13.45-2.52-.83-5.23-1-7.78-1.8s-4.84-1.81-6.72-2.54c-1.56-5 .65-7.76 4.17-8 7.93-.65 15.94-.5 23.91-.53q26.94-.1 53.87 0a91.51 91.51 0 0 1 15.81 1c1.74.32 3 3.48 5.41 6.6-5.85 2-10 4.24-14.38 4.78-9.29 1.15-14 6.94-17.05 14.83-1.91 5-3.59 10-5 15.15Q4134 2091.74 4108 2184a126.87 126.87 0 0 0-3.64 15.54c-1.5 10.05 2.24 15.14 12.07 16.92 3.92.71 8 .54 11.81 1.64 2 .58 3.4 3 5.05 4.63-1.74 1.89-2.43 3.08-3.47 3.66a8.13 8.13 0 0 1-3.82 1q-47 .09-93.92 0c-2.52 0-5-1.07-7.16-1.55-2-4.74.22-6.94 3.61-8.23a16.93 16.93 0 0 1 5.85-1.08c13.33-.09 20.76-7.63 24.6-19.52 3.07-9.49 6.06-19 8.74-28.63 5.21-18.58 10.11-37.25 15.29-55.84 1.43-5.15 3.21-10.18.84-15.47-14.06-3.26-86.57-4.09-114.62-1.16-1.65 3.37-4.32 7.2-5.49 11.44-7.6 27.59-14.76 55.3-22.31 82.9-4.23 15.44-3.66 26.31 17.13 26.46 4.1 0 8.09 1.05 7.63 8.06-1.72.69-3.93 2.21-6.23 2.37-6 .42-12 .3-18 .3-21.32 0-42.63 0-63.95-.08a129.35 129.35 0 0 1-15.88-.83c-1.37-.18-3.44-2.63-3.4-4a6.07 6.07 0 0 1 3.27-4.53 39.56 39.56 0 0 1 9.74-1.82c8.94-.91 14.6-6 17.88-14a170.67 170.67 0 0 0 6.9-18.71q25.9-91.23 51.49-182.55a127.08 127.08 0 0 0 3.63-17.59c.9-6.82-2.49-11.22-9.49-12.93-3.21-.78-6.77-.44-9.79-1.61-2.12-.83-4.77-3.16-5.09-5.15-.66-4.07 3.09-5.37 6.34-6.19a26.14 26.14 0 0 1 6-.43 76 76 0 0 1 8 .1 399.4 399.4 0 0 0 63.87.12c5.19-.38 10.55.43 15.72 1.31 1.32.22 3 2.79 3.1 4.33s-1.47 4-2.85 4.49a52.11 52.11 0 0 1-11.57 2.49c-7.42.84-12.08 5.16-15.19 11.47a55.11 55.11 0 0 0-3.67 9.28q-11.74 41.3-23.24 82.65c-.7 2.45-.45 5.14-.68 8.35zM950 2096.88c-2.67-.94-4.51-2.14-6.35-2.15q-50-.27-100-.21c-3.23 0-6.47 1-10 1.52-1.72 4-3.77 7.45-4.78 11.21-7.59 28.29-15 56.62-22.41 84.95a69.7 69.7 0 0 0-2.18 9.73c-.74 6.64 2.73 11.78 9.34 13.32 5.15 1.21 10.56 1.31 15.7 2.55 1.37.33 3 3 3 4.6s-2 3.67-3.45 4.09a37.38 37.38 0 0 1-9.86 1.08q-42 .06-84-.13a40 40 0 0 1-9.73-1.57c-.91-.24-2-1.94-2-3s.71-2.93 1.62-3.34c2.93-1.31 6.07-2.89 9.17-3 11.74-.34 18.29-7.09 22.09-17.18 3-8.1 5.83-16.32 8.19-24.63q24-84.54 47.62-169.14a183.87 183.87 0 0 0 4.63-19.42c1.59-9.46-1.25-13.44-10.47-15.94-3.17-.86-6.57-1.14-9.53-2.45-1.37-.6-2.72-3.07-2.65-4.64a6.22 6.22 0 0 1 3-4.45 16.33 16.33 0 0 1 7.65-1.57 684.31 684.31 0 0 0 79.87 0c7.33-.41 11.2 2.41 10.49 6.14-.95 5-5.14 6-9 6-12.77.07-19.45 7.2-22.72 18.59-8.07 28.15-16.17 56.29-24 84.5-.82 2.95-.11 6.33-.11 9.35 16.45 3.52 99.24 3.58 116.32.15 1.23-2.71 3-5.59 3.89-8.73 7.09-25.66 14-51.37 21-77.07a45 45 0 0 0 1.05-5.9c1.67-12.79.62-19.44-13.67-21.3-2.55-.34-5-1.76-7.41-2.78-.58-.24-1-.86-1.5-1.3-1.14-4.23 1.49-6.71 4.82-7 7.26-.68 14.62-.52 21.93-.54q27.94-.1 55.88 0a91.85 91.85 0 0 1 15.84 1c1.74.32 3 3.54 5.58 7-6.71 2-11.58 3.84-16.62 4.72-7.37 1.29-12.08 5.47-14.6 12.12-2.83 7.46-5.48 15-7.66 22.68q-25 88.38-49.8 176.82a134.16 134.16 0 0 0-4 17.5c-1.64 11.63 1.6 15.77 13.07 17.69 3.28.54 6.75.36 9.83 1.39 2.08.7 3.64 2.93 5.15 4.23-1.9 5.16-5.55 5.07-8.7 5.08q-45 .17-89.94.06a29.67 29.67 0 0 1-4-.4c-2.84-.37-5.66-1.82-5-4.72.5-2 3.2-3.86 5.32-5.06 1.62-.91 3.87-.84 5.85-.94 11.6-.55 18-7.53 21.84-17.61.72-1.86 1.4-3.74 1.94-5.66 7.92-28.19 15.91-56.36 23.63-84.61 1.03-3.73.57-7.76.83-11.63zM2709.8 2092.45c-2.27 6-4 9.65-5 13.45q-10.53 38.46-20.79 77a148.35 148.35 0 0 0-3.66 17.56c-1.41 10.17 2.26 14.41 12.93 15.74 4.58.57 9.24.72 13.71 1.76 1.3.3 2.92 3.07 2.79 4.58a5.68 5.68 0 0 1-3.6 4 60.3 60.3 0 0 1-11.88.95q-40.92.11-81.84 0c-3.81 0-7.61-.91-13.1-1.62 1.79-3.43 2.37-6.54 4.1-7.44 2.8-1.45 6.34-1.86 9.59-2 10.82-.4 17-6.45 20.46-16.07 1.79-5 3.7-10 5.15-15.09q26.16-92.07 52.13-184.19a115.8 115.8 0 0 0 3.52-17.57c1.09-9.18-1.42-12.12-10.25-13.55-5.85-1-11.74-1.81-17.47-3.28-1.07-.27-1.86-3.17-2-4.93-.08-.93 1.33-2.61 2.36-2.9 3.13-.86 6.47-2 9.59-1.66 30.61 3.1 61.18-.57 91.75-.14 19.43.27 38.5 2.91 56.25 11.43 15 7.2 26.34 17.91 31.15 34.4 6.56 22.51.58 42-14.67 59-8.14 9.09-18.56 15.18-29.83 19.48-13.71 5.22-27.87 9-42.69 9.29-12.64.29-25.28.37-37.92.7-6.58.16-13.12.65-20.78 1.1zm4.79-13c2.67 1.11 4.48 2.53 6.27 2.5 16-.31 31.68-2.66 46.37-9.71 27.45-13.16 42.72-40.08 38-74.15a29.65 29.65 0 0 0-13.2-21.4c-12.1-8-25.78-10.34-40-9.19-2.76.23-5.88 2.91-7.74 5.31s-2.83 6-3.75 9.15c-8.21 28-16.41 56-24.37 84.09-1.17 4.24-1.06 8.89-1.58 13.36zM2408.14 2069c2-3 3.63-4.44 4-6.2q9.4-41.85 18.5-83.77a47.81 47.81 0 0 0 1.25-7.86c.23-5-2.61-8.8-7.74-10.2-2.54-.69-5.27-.65-7.87-1.16s-4.93-1.26-9.26-2.4c2.7-2.92 4-5.59 5.94-6.17a77 77 0 0 1 13.67-2.31q18.82-2.06 37.68-3.8c3.14-.29 6.33 0 9.47 0 3.68 7.75 1.23 14-.37 20.38-15 60-30.19 120-45 180-4 16.12-6.92 32.51-10 48.83-1.23 6.46-2.66 13.48 3.61 18.41 4.17 3.28 11.64.55 18.68-7.72 5.57-6.54 10.17-13.95 14.78-21.23 3.11-4.92 5.5-10.3 8.06-15.19 5.18.75 4.3 4 3.54 6.05a105.06 105.06 0 0 1-34.46 48 49.45 49.45 0 0 1-21.63 9.77c-14.88 2.85-24.86-2.95-29.19-17.21-1.29-4.29-2-8.75-2.82-12.55-5.2-1.67-7.11 1.32-9.31 3.74-3.57 3.94-6.94 8.09-10.76 11.79a52.51 52.51 0 0 1-22.13 13c-18.63 5.44-34.53-.92-44-17.86-7.88-14.05-9.19-29.34-6.38-44.63 7.75-42.05 30.07-74.83 65.44-98.71a73.33 73.33 0 0 1 12.4-6.38c16.99-7.28 27.05-6.15 43.9 5.38zm-81.77 120.88c.36 6 .19 10.68 1 15.23 1.89 10.56 11.23 15.52 21 10.94a31.2 31.2 0 0 0 11-8.3c6.18-7.78 12.5-15.71 17-24.48 14.48-28.09 22.43-58.24 25.94-89.57a43.41 43.41 0 0 0 .1-9.93c-1.79-14.6-13.93-20.22-26-11.53a55.27 55.27 0 0 0-13.66 14.33c-20.75 31.74-31.55 67.09-36.38 103.27zM3182.78 2094.21l9.5-9c6.24-5.93 12-12.43 18.81-17.69 11.87-9.22 25.77-10.21 39.89-7 11.12 2.56 18.54 10.23 23.09 20.38a52.8 52.8 0 0 1 4.22 31.21c-8.51 47.92-33.88 84.66-75.05 110.15-8.26 5.11-18.24 8.3-27.86 10.16-23.42 4.53-43.86-9.32-50.07-32.28-4.51-16.71-1.81-33.13 2.35-49.23 10.29-39.89 21.23-79.6 31.88-119.39 5-18.62 10-37.21 14.73-55.9 3.21-12.8 1.38-15.23-11.33-17-3.16-.43-6.34-.69-10.07-1.1.34-3 .2-4.91.87-6.52a4.31 4.31 0 0 1 3.14-2.09c19.85-1.55 39.71-3 59.59-4.29 1.66-.1 3.43 1.43 6.22 2.69-1.86 7.1-3.47 14.11-5.53 21-10.5 35-21.15 70-31.66 105-1.83 6.08-4.96 12.09-2.72 20.9zm-28.76 102c.91 6.89.91 12.34 2.44 17.33 3.54 11.54 14.65 16.3 25.4 10.61a42.76 42.76 0 0 0 13.65-11.25 149.67 149.67 0 0 0 14.72-23.59c12.94-25.7 20.54-53.23 26.09-81.31a56.19 56.19 0 0 0 .44-17.84c-1.75-13.42-12.85-18.94-24.9-12.82-9.15 4.65-15.72 12.15-21.5 20.36-15.1 21.46-25.21 45.18-31.26 70.61-2.29 9.69-3.58 19.56-5.1 27.93zM4583.58 2066c-2.39 8.86-4.29 15.81-6.13 22.78-9.18 34.72-18.45 69.41-27.4 104.18a50.77 50.77 0 0 0-1.34 15.74 8.66 8.66 0 0 0 13.35 6.77 66.28 66.28 0 0 0 14.84-13c4.62-5.59 7.84-12.31 11.81-18.46a70.25 70.25 0 0 1 4.95-6c.8 2.6 1.79 4 1.46 5-5.93 16.78-16 30.62-30.55 40.88-10 7.09-21.23 11.1-33.85 8.65-12.3-2.39-18.9-8.85-20.37-21.26-.69-5.85.34-11.91.67-17.87.18-3.15.54-6.3 1.07-12.48-5.19 4-8.31 6-10.87 8.52-9.43 9.35-18.29 19.32-28.12 28.24-9 8.18-20.1 12.82-32.16 15.08a29.35 29.35 0 0 1-19.38-3c-7.52-3.91-12.78-10.1-12.47-18.94.26-7.2 1.05-14.67 3.3-21.45 4-12 9.54-23.41 13.87-35.28 5.92-16.23 11.82-32.51 16.69-49.07 2.21-7.5 2.49-15.72 2.56-23.62.07-6.77-6.62-10.6-12.83-7.4-4.59 2.35-9.26 5.59-12.32 9.62-4.77 6.31-8.35 13.55-12.13 20.55-2.12 3.94-3.64 8.21-5.36 12.18-5.17-1-3.6-3.92-3-6.18a82.08 82.08 0 0 1 20.33-36.18c12.61-13 28.09-17.25 45.66-14 12 2.23 20.58 11.14 21.26 23.14a63.25 63.25 0 0 1-2.15 21.65c-5.67 18.42-12.13 36.61-18.82 54.69-4.84 13.1-10.69 25.82-15.77 38.84a44.47 44.47 0 0 0-3.1 13.38c-.09 1.66 3.34 5.12 4.87 5 5.12-.52 11.07-1 14.94-3.87a172.28 172.28 0 0 0 25.19-22.45c12.15-13.46 20.42-29.53 26.65-46.52 6.87-18.73 13.33-37.62 20-56.43 1.78-5 3.58-10 5.65-14.92 2-4.64 5.59-7.46 10.75-7.63 8.57-.3 17.18-1.5 28.25 1.12zM3068.15 2177c1.12 2.21 2.36 3.53 2.09 4.31a88 88 0 0 1-31.35 42.71 48.89 48.89 0 0 1-24 9c-18.26 2-29.19-7.65-29.79-26.1-.22-7.08-.16-14.17-.23-20.87-5.48-1.59-7.25 1.66-9.46 3.9-8.38 8.54-16.34 17.54-25.15 25.61a66.64 66.64 0 0 1-35.42 17.23c-14.88 2.26-27.69-5.2-31.15-18.61a27 27 0 0 1 .06-13.62 309.88 309.88 0 0 1 11.13-32c9.42-22.76 19.16-45.39 24-69.68a75.56 75.56 0 0 0 1.61-17.72c-.3-6.68-7-10.31-13.22-7.3-4.07 2-8.37 4.58-11 8.07-4.82 6.27-8.53 13.4-12.65 20.2-2.64 4.37-2.74 10.15-7.28 13.57-.91-1-2.42-2-2.29-2.68 2.89-15.5 10.42-28.55 21.39-39.71s24.52-15.49 40-14.09c18.19 1.64 29.12 14.51 26.45 32.74a170.93 170.93 0 0 1-8.21 32.81c-7.66 21.27-16.35 42.17-24.64 63.21-2.19 5.57-4.48 11.1-6.71 16.66-1.51 3.78-3.24 8.35 1.09 10.63 3.1 1.64 8.12 2.22 11.19.83a76.93 76.93 0 0 0 18.42-11.52 133 133 0 0 0 37.32-53.54c8.14-21.08 15.66-42.41 23.13-63.74 8.09-23.11 7.92-23.2 32.4-23 3.2 0 6.39.55 9.45.83 2.42 7.85-.71 13.89-2.43 20.19-9.06 33.36-18.24 66.7-26.82 100.19-1.95 7.59-2.23 15.74-2.26 23.63 0 5.83 6.25 9.24 11.69 6.75 3.54-1.62 7.32-3.69 9.76-6.59a244.28 244.28 0 0 0 15.32-20.81c2.41-3.66 3.92-8.02 7.56-11.49zM2090.86 2225.7c-11.74 1.41-21.6 2.65-31.47 3.69-1.1.11-2.32-1-4.08-1.79-1.51-6.58 2.08-12.55 3.79-18.72 7.83-28.19 16.05-56.28 23.87-84.48a194.59 194.59 0 0 0 5.41-25.36c.8-5.82.36-11.91-.25-17.8-.42-4-5.66-6.12-9.43-4.45-10.32 4.55-16.52 13.28-21.95 22.48-4 6.8-7.09 14.18-10.53 21.19-5.8-.37-5-4.48-4.14-7.16 7.09-21 19.92-37.45 39.22-48.59a43.46 43.46 0 0 1 25-5.45c10.18.66 16.53 4.89 18.68 14.91 1.63 7.61.89 15.75.93 23.65 0 4.28-.54 8.56-1.14 17.06 5.77-6.43 9-9.48 11.6-13 8.69-11.89 18.2-23 30.2-31.67 10.57-7.69 22.2-12 35.46-11 16.54 1.26 27.1 12.94 25.15 29.44-.92 7.76-4.16 15.31-6.86 22.78-7.7 21.26-16.12 42.28-23.31 63.7a122.55 122.55 0 0 0-5.61 29.25c-.78 10.11 7.68 15.13 15.82 9.43 6.39-4.47 11.83-10.58 16.84-16.66 4.54-5.5 7.94-11.94 12.91-19.64 1.07 3.63 2.33 5.49 1.86 6.69a79.9 79.9 0 0 1-29 37.25c-9.56 6.75-20.17 10-32 8.85-15-1.51-24.85-10.82-25.19-25.83a113.27 113.27 0 0 1 3-27.61c5.23-22.78 14.36-44.25 23.56-65.67a245.77 245.77 0 0 0 9.9-26.07c2.36-7.85-4-13.65-11.46-10.07a90.85 90.85 0 0 0-21.4 14.2c-16 14.55-27.54 32.59-35.45 52.58-7.83 19.78-14.36 40.07-21.49 60.13-2.56 7.51-5.3 14.98-8.44 23.74zM1996.24 2174.5c1.22 5 2.09 6.42 1.73 7.39-5.59 15.38-15 28.06-27.45 38.62a54.15 54.15 0 0 1-26.93 12.28c-16.39 2.66-28.8-5.31-33.38-21.26-.54-1.89-.28-4-.83-5.91a33.44 33.44 0 0 0-2.6-5.33c-7.27 2.35-10.32 8.77-15 13.25-9.28 8.93-19.42 16-32.38 18.68-24.82 5.05-44-8.54-46.5-33.69a95 95 0 0 1 3.85-39.48c12-36.73 33.66-66.21 66-87.58 10.69-7.07 22.28-11.88 35.37-12.38 11.43-.44 21.14 2.08 26.33 13.7.75 1.67 2.57 2.86 4.38 4.79 7-2.73 6.38-11.35 13.76-16.36 8-2.08 18.23-3.45 28.33-.81 2.59 7.33-1 12.53-2.94 18.06-11.38 32.68-22.84 65.33-34 98.07-2.79 8.16-4.84 16.6-6.92 25a38.57 38.57 0 0 0-1 9.88c.12 5.73 6.18 10.29 11.22 7.77 5.84-2.92 11.91-6.39 16.18-11.15 6.15-6.87 10.79-15.09 16-22.77 1.78-2.63 3.38-5.36 6.78-10.77zm-54.94-82.5c-.15-3.05-.11-5.06-.38-7-2.14-15.76-14.58-21.56-27.1-12a85.87 85.87 0 0 0-16.6 17.08 248 248 0 0 0-40.68 86 92.16 92.16 0 0 0-3.19 27.55c.74 13.9 12.33 19.67 24.13 12.07a75.76 75.76 0 0 0 18.77-17.53c21.67-28.42 35.7-60.54 43.76-95.28.89-3.96.99-8 1.29-10.89zM2.89 2172c-2.34-5.58-2.74-11.22.67-17 6.87-3.49 14.33-2 21.51-2q228.8-.15 457.59-.07c4 0 8-.11 12 .09 10.06.51 12.21 3.12 11.38 14.14-.14 1.83-1.45 3.58-2 4.83a13.09 13.09 0 0 1-2 1.64 4.62 4.62 0 0 1-1.94.43q-240.76.26-481.54.45c-3.33 0-6.66-.09-10-.3a14.57 14.57 0 0 1-3.8-1 9.87 9.87 0 0 1-1.87-1.21zM3415.33 2159.68c2.07 3.32 2.82 4 2.71 4.41-5.9 21.73-17.37 40.09-33.8 55.38a51.28 51.28 0 0 1-26.45 13.11c-16.17 2.85-27.68-4.52-30.68-20.72a58 58 0 0 1 0-19.76c2.08-12.44 4.87-24.79 8-37 14.27-55.34 28.78-110.63 43.18-166a125.35 125.35 0 0 0 3.11-13.59c1.68-11.66-.18-14-11.55-16.1-3.66-.66-7.28-1.47-10.18-2.07-1.42-5 1.56-7.26 3.47-7.35 20.48-1 40.61-6.76 61.3-4.43.58.07 1.1.72 1.71 1.14 3 6.77-.33 12.92-2.1 19.2q-19.48 69.09-39 138.17-9.71 34.56-18.9 69.25c-2.05 7.7-3.66 15.53-5 23.39a40 40 0 0 0-.12 11.87c1 7.54 8.38 11.25 14.9 7.07a48.92 48.92 0 0 0 13.22-11.86c6.22-8.57 11.44-17.88 16.87-27 3.03-4.94 5.58-10.15 9.31-17.11zM5155.06 2172.54c-3.46-6-3.24-11.57-.06-17.76 2.41-.55 4.95-1.64 7.49-1.64q243 0 486 .2c1.85 0 3.7 1.23 5.38 1.82 3.7 5.9 3 11.49.51 17.22-2.25.71-4.12 1.81-6 1.81q-244 .12-488 0c-1.84-.01-3.7-1.13-5.32-1.65zM1673.3 2161.37c-1.93 25.72-20.17 53.2-39.21 64.62a43.41 43.41 0 0 1-5.26 2.89c-27.61 11.85-46.17-2.29-43.43-28.1a262.25 262.25 0 0 1 6.52-37.25c14.33-56.13 29.15-112.13 43.78-168.17 1.52-5.8 3.07-11.6 4.37-17.45 2.32-10.46 2.2-17.84-12.76-18.64-3-.16-5.91-1.47-11.1-2.85 3.19-3.33 4.7-6.37 6.48-6.54 19.84-2 39.72-3.49 59.6-5 1.12-.08 2.33 1.1 4.74 2.32-1 4.7-1.76 9.83-3.15 14.79-12.78 45.51-25.8 90.95-38.48 136.49-8 28.86-15.89 57.78-23.22 86.82-1.92 7.6-2.21 15.78-2.11 23.68.09 6.73 7.09 10.62 13.09 7.26 5.09-2.86 10.36-6.53 13.71-11.17 7-9.67 12.8-20.19 19-30.43 2.61-4.33 4.96-8.84 7.43-13.27zM1346.8 2063.06c7.55.64 12.74 1.12 17.94 1.5s10.47.66 15.2 1c2.37 4.81.67 7.64-3 8.33-4.53.85-9.27.58-13.92.77-6.59.26-13.18.49-20.35.75-2.37 4.52-5.15 8.33-6.47 12.6-10.43 33.69-20.81 67.39-30.63 101.26-2 6.86-2.16 14.46-2 21.69a8.84 8.84 0 0 0 13 7.7c5.72-3.13 11.51-7 15.65-11.92 6-7.06 10.56-15.3 15.57-23.14 2.78-4.34 5.22-8.89 9.88-16.91.69 6.24 1.74 8.7 1 10.48a112.36 112.36 0 0 1-26 39.84c-7.22 7.11-15.52 12.42-25.56 14.91-20.22 5-36.78-6-37.9-26.6-.57-10.51-.11-21.54 2.51-31.65 6.69-25.75 14.82-51.12 22.43-76.63 1.87-6.27 5.41-12.23 3-20.53l-17.72-3.56c-1-5 1.11-7.4 4.8-7.84 5.92-.7 11.9-.82 18.94-1.26 2-3.77 4.64-7.55 6.19-11.72 6.5-17.46 12.58-35.09 19-52.56 2.28-6.16 5.24-12.07 7.91-18.16 12-1.88 23-3.23 34.94 1.15-4.16 27.44-18.94 51.24-24.41 80.5zM4351.83 2110.11c-4.79 46.31-22.68 83.46-59.31 110.41a63.93 63.93 0 0 1-29.27 12c-19.44 2.7-35.5-3.39-46.75-19.86a60.45 60.45 0 0 1-10.29-43.7c6.07-41.72 26.58-74.67 61.74-98.17 13.12-8.77 27.63-12.85 43.51-11.54 18.67 1.54 30.73 10.88 36.15 29.08 2.24 7.55 3.05 15.53 4.22 21.78zm-29.73-12.81c-.69-5.94-.66-13.41-2.58-20.33-3.22-11.6-14.09-15.44-23.32-7.74a89.42 89.42 0 0 0-18 21c-11 17.54-18.35 36.78-23.6 56.84-4.23 16.12-7.94 32.28-7.35 49.08.18 5.27.37 10.74 1.85 15.73 4.5 15.16 17.54 19 29 8.49a65.23 65.23 0 0 0 12.29-15.55c18.82-32.82 28.04-68.64 31.71-107.52zM1216.2 2115.74c-3.51 40-21.25 76.55-56.81 103.34-7.22 5.45-16.2 9.34-25 11.79-29.21 8.15-55.08-8.28-61.2-37.95a88.28 88.28 0 0 1 1.59-41.49c8.72-31.84 26.48-57.83 53.21-77.33 13.15-9.6 27.81-15.24 44.5-15.13 26.47.18 38.58 16.62 42.44 36.8 1.01 5.23.73 10.59 1.27 19.97zm-29.41-18.43c-.39-4.54-.28-12-1.8-19-2.72-12.61-14.25-16.95-24.17-8.52a88 88 0 0 0-17.72 21.21c-18.26 30-27.3 63.2-31 97.94-.91 8.65-.31 17.27 3.12 25.47 5.31 12.76 17 16.32 26.94 6.79a88.87 88.87 0 0 0 17.62-23.81c15.51-30.54 24.51-63.03 27.01-100.08zM503 2105.85c-16.28 2-442.34 3.35-488 1.48-3.87-.16-7.72-1-12.58-1.61v-16.44c3.77-.81 6.91-1.89 10.1-2.08 6-.36 12-.26 18-.26h447.76c5.33 0 10.67-.12 16 .19 11.06.63 12.57 2.93 10.77 15.71-.05.56-.73 1.06-2.05 3.01zM5655.34 2088v16c-2.47 1.12-4.2 2.45-6 2.63-5.28.51-10.61.76-15.92.76q-228.57.06-457.15 0c-7.16 0-14.65 1.43-22.3-3.14v-14.44c8.62-3.87 16.69-2.8 24.54-2.81q101.8-.14 203.62-.05h247.54c7.82.05 15.68.64 25.67 1.05zM1525.92 2175.15c-7.38 32-37.61 56.22-67.7 58.22-31.59 2.09-55.26-22.19-51.9-53.74a103.94 103.94 0 0 1 5.21-23.3c13-37.12 36.62-66 70.11-86.58 13.38-8.24 28-12.25 43.82-10.22 15 1.92 23.51 13.08 21 28.09-1.59 9.35-5.31 18.16-12.44 24.51-8.89 7.91-18 15.92-28.14 22a241 241 0 0 1-37.71 18c-9.3 3.56-14.3 9.54-15.34 18.71-1.2 10.52-2.33 21.23-1.69 31.74.84 13.88 9.27 19.79 23 18.29a38.64 38.64 0 0 0 23-11.07c7.56-7.38 14.07-15.84 20.89-24 2.8-3.37 5.26-7.09 7.89-10.65zm-63.06-30.57c2.54-.43 6.1-.06 8.43-1.58 10.48-6.86 21.16-13.6 30.72-21.64a66 66 0 0 0 20.92-33.14 41.1 41.1 0 0 0 1.82-11.65c-.15-9.35-8.22-14.62-16.44-10.5a40 40 0 0 0-12.59 9.34c-16.43 19.42-28.37 41.31-34.36 66.21-.11.46.53 1.1 1.5 2.96zM4916.88 2174.69c1.19 2.62 2.45 4.1 2.11 4.83-13.22 28.13-33.68 47.91-65.28 52.92-36 5.71-57.76-19.66-56.74-47.9a100.38 100.38 0 0 1 7.4-34.92c13.82-33.73 36.14-60.34 67.12-79.54 13.35-8.28 27.87-12.51 43.78-10.63 14.64 1.72 20.91 9 21.13 23.85.17 11.36-3.88 21.22-11.89 28.7-8.7 8.12-18 16-28.14 22.06-12.53 7.44-26 13.37-39.55 19-7.66 3.17-12.08 7.83-13.15 15.84-1.24 9.22-3.54 18.47-3.37 27.68.41 22 15.39 30.58 35.5 21 12.39-5.91 21.26-15.81 29.28-26.59 3.85-5.23 7.58-10.49 11.8-16.3zm-64.29-30c25.11-4.14 53.25-32.95 59.27-51.42a74.83 74.83 0 0 0 2.82-11.62c1-6.14.73-12.22-5.53-15.74-5.4-3-10.7-.95-14.86 2.42a82.76 82.76 0 0 0-14 14.11c-12.54 16.63-21.37 35.27-28 54.93-.61 1.72.09 3.82.3 7.36zM4675.4 2233.75c-6-1.18-14.69-2.2-22.89-4.68-9.1-2.75-16.79-8-20.95-17.2-4-8.72-2-18 5-23.38 5.21-4 10.75-4.29 16.77-1.07 5.47 2.94 7 7.72 6.52 13.39-.23 2.61-1.17 5.15-1.75 7.74-2.4 10.74-.16 14.47 10 17.26 10.37 2.83 19.88.54 28.42-5.34 9.05-6.24 12.37-15.35 10.64-26.13-1.6-10-6.22-18.86-11.66-27.31-7.56-11.74-15.34-23.34-22.41-35.36-6.24-10.6-8.88-21.92-5.43-34.42 5.74-20.78 20.4-34.68 41.9-37.17a99.89 99.89 0 0 1 27.74.55c6.16 1 12.3 4.74 17.46 8.59 5.77 4.31 6.94 11.1 5 18.09a13.34 13.34 0 0 1-15.56 9.21c-6.4-1.41-9.65-6.08-9.18-13.23.05-.65.4-1.28.47-1.93 1.24-12.54-2.88-16.81-15.29-15.87-14.66 1.1-24.12 14.23-19.51 28.21 2 6.2 5.67 12 9.34 17.49 6.67 9.93 14.16 19.3 20.83 29.23 7.89 11.74 13.37 24.28 13.28 39-.12 19.08-8.59 33.06-24.33 43-12.71 8.07-27.08 10.41-44.41 11.33zM3719 2182.1c-12.92 23.89-29.85 43.28-58.22 49.54-29.17 6.44-53.54-9.45-59-38.79a84.7 84.7 0 0 1 1.07-37.65c9.15-34 27.91-61.59 57.15-81.53 17.09-11.66 36-16.9 56.77-13.87 8.3 1.2 15.3 4.38 19.88 11.72 5.45 8.73 3 19.11-5.57 24.24-8.92 5.32-19.66.58-21.37-9.64-.65-3.91-.24-8-.76-11.94-.81-6.08-5.45-9.69-11.27-8.06-4.31 1.21-9.23 3-12.06 6.19-6.14 6.88-12 14.32-16.39 22.4-13.76 25.43-21.29 53-25 81.53-1.37 10.49-1.92 21.24 2.26 31.52 4.62 11.34 11.6 15.22 23.61 12.7a40.69 40.69 0 0 0 21.9-13.06c6.21-6.88 11.61-14.49 17.45-21.72 2-2.42 4.18-4.62 6.28-6.92zM3460.09 2112.46c-.58-1.14-1.83-2.47-1.55-3.22a95.39 95.39 0 0 1 29.92-41.59 37.07 37.07 0 0 1 26-8.45c13 .68 22.72 8.88 24.8 21.78 1.6 10 1.09 19.93-2.63 29.53-5 13-10 26.11-15 39.15-5.27 13.67-11.07 27.16-15.64 41.05-2.22 6.77-2.84 14.27-2.93 21.46-.07 5.82 6.74 9.37 11.76 6.19 5.51-3.51 11-7.63 15.14-12.6 5.52-6.6 9.7-14.31 14.57-21.46a74.66 74.66 0 0 1 5.12-5.93c.81 2.47 1.85 3.9 1.51 4.84-6.31 17.39-16.77 31.85-32.45 41.75a59.73 59.73 0 0 1-20.33 7.75c-14.88 2.85-26.58-4.65-30.17-19.25-1.55-6.27-2.22-13.41-.83-19.61a314.32 314.32 0 0 1 11.82-40.12c7-18.71 15.32-36.89 22.46-55.54 2.32-6.05 3.11-12.8 3.81-19.31.41-3.84-5-7.51-8.51-6-4.2 1.8-8.92 3.66-11.85 6.91-6.19 6.87-11.48 14.58-16.92 22.11-2.62 3.59-2.8 9-8.1 10.56zM3567.62 1969.39c.1 14.33-9.39 24.88-22.7 25.24-12.45.33-19.8-7-19.7-19.75.1-14 10.24-25.66 22.52-26 11.09-.29 19.8 8.69 19.88 20.51z" fill="#545878"/><path d="M2562.29 18.3c8.06 11.64 12.58 36.93 15 75.11q2.28 36.3 6.07 72.5c0-25.24.18-50.48 0-75.71s-.6-50.18-1.83-73.63c7.1-4.61 7.51 1.17 10.66 2.22 4.76-1.77 7.76-9.32 14.94-5.69a4.68 4.68 0 0 0 3.85-.36c13.37-8.22 28.58-3 42.67-5.91a13.31 13.31 0 0 1 7.85.5c6.85 3.2 13.66 4.39 20.1-.07 5.74 8.38 3.91 15.92 3.93 23 .18 54 .1 107.94.1 161.91v18.91h1.49q.58-98.86 1.26-197.72c0-1.11 1.31-2.22 2.61-4.3l17.83-1c1.26 3.59 3.2 7.06 3.6 10.71.65 5.93.35 12 .35 18q0 278.85-.05 557.69c0 7.86 1.38 16-2.68 24.67-15.37-.57-30.89 2.25-46.69-1.75-14.15-3.58-28.73-5.62-43.2-7.76-9.07-1.34-16.26-5.24-23.28-14-.78-36.87-1.59-75.45-2.35-111.83-2.31 30.63-4.77 63.42-7.31 96.2 0 .32-1 .56-1.86 1.05-.71-1.83-1.82-3.56-2-5.39-.39-4-.33-8-.4-12-1.28-75.93-2.08-151.88-4-227.79-1-40.58-4-81.11-6.22-121.66q-2.17-39.9-4.64-79.78c-2.28-35.88-4.77-71.76-7.08-107.64-.21-1.89.49-3.78 1.28-8.48zm23.62 227.4h.44V190h-.44z" fill="#fff"/><path d="M2926.54 647.16c-7.66 20.6-1.06 40.48-7.46 60.92-3-3.54-5.92-5.49-6.28-7.83-.91-5.88-.76-11.93-.83-17.92-.1-9.25 0-18.51-2.77-27.75v27.58c0 6.67.11 13.36-.54 20-.21 2.09-2.35 4.48-4.26 5.78-2.4 1.65-5.28-1.42-5.33-6.28-.17-14.64-.06-29.29-1.89-44-.14 5.79-.33 11.57-.41 17.36-.08 6 .18 12-.13 18-.34 6.41 1.12 13.61-6.66 18.11-9-7.8-5.1-18.45-6-27.78-.87-9.17-.66-18.44-3.31-27.64 0 13.23 0 26.47-.19 39.7a68.29 68.29 0 0 1-1.58 13.76c-.31 1.4-2.94 3.14-4.53 3.16s-4.16-1.66-4.54-3.08a47.37 47.37 0 0 1-1.54-11.76c-.17-12.6-.06-25.22-2.44-37.9-.22 5.18-.51 10.36-.62 15.54-.1 5.33.1 10.67-.06 16a145.7 145.7 0 0 1-1.15 17.87c-.29 1.89-3.13 3.39-6.27 6.53-6.53-19.91-.75-38.71-4.24-56.72-4.62 0-3.15 3.64-3.19 5.76-.2 12 0 24-.17 36a41.7 41.7 0 0 1-1.06 9.87c-.38 1.47-2.39 3.39-3.77 3.48s-4.21-1.47-4.46-2.71a74.55 74.55 0 0 1-1.39-13.83c-.17-12.62-.06-25.24-2.07-37.86 0 11.82.1 23.65 0 35.48a118.75 118.75 0 0 1-1.17 15.88c-.22 1.41-3.05 3.8-3.77 3.5-2-.8-4.88-2.7-5-4.33-.68-10-.68-20-.93-29.93-.17-7.12-.38-14.24-.58-21.55-5.66.79-4 4.2-4.05 6.27-.3 14.65-.24 29.32-.52 44-.09 4.46-2.29 7.25-8.49 6.69-4.25-8.6-2.87-18-3.25-27-.36-8.5-.38-17-1.89-25.55-3.31 8.73-1.89 17.74-2.25 26.59-.26 6.66-.13 13.33-.31 20-.1 3.62-1.5 6.87-5.56 6.82s-5.35-3.63-5.76-6.94a154 154 0 0 1-1-15.93c-.16-9.29 0-18.59-2.17-28-.15 5.8-.38 11.6-.45 17.4-.09 6.66.17 13.34-.13 20a63.12 63.12 0 0 1-1.9 11.55c-.17.72-2.12 1.43-3.23 1.4s-3.08-.79-3.27-1.58a52.33 52.33 0 0 1-2-11.52c-.23-13.24-.08-26.49-1.39-39.77-2.66 10.7-1.52 21.58-1.94 32.37a156 156 0 0 1-1.55 17.82c-.21 1.33-3.18 3.4-4.45 3.13-2.2-.48-5.46-2.25-5.79-3.95-1-5.17-1-10.57-1.05-15.88-.12-11.23 0-22.45-2.55-33.69-.19 6.56-.43 13.12-.55 19.67-.13 7.33.06 14.67-.25 22s-3 12-6 10.91c-5.48-2-5.4-7.15-5.64-11.69-.39-7.31-.32-14.66-.38-22-.05-5.76 0-11.53-2.31-17.27 0 13.28.14 26.56-.1 39.83-.06 3.19-1.19 6.43-2.26 9.49-.28.8-2.19 1.4-3.37 1.42s-3.07-.46-3.51-1.31a19.85 19.85 0 0 1-2.58-7.44c-.57-8-.77-16-.93-24-.14-7.22 0-14.46-2.65-21.74-.15 5.62-.37 11.23-.44 16.84-.09 6 .11 12-.1 18a119.17 119.17 0 0 1-1.36 15.81c-.21 1.26-2.89 2.94-4.41 2.92s-4.1-1.73-4.36-3.05a121 121 0 0 1-2.19-17.68c-.48-11.22-.48-22.47-1.84-33.72-4.75 16.72 1.38 34.59-4.86 50.88-7.06-.06-6.41-5.09-8.23-9.31-6 1.79-4.13 9.17-8.28 11.83-18.16-4-18.16-4-23.26-16.16-1.73 2.89-3.19 5.35-5.42 9.09-7.27-2.44-13.92-7.74-22.72-7.53-8.47.21-17-2.47-25.52-3.92-1.29-.22-2.69-1.13-3.8-.83-20.8 5.68-38-5.68-57.65-10.83v-52.55c-4.74 15.9-4.56 32.41-8.26 51.15-4-4.13-6.79-5.63-7.14-7.56a98.88 98.88 0 0 1-1.11-15.88c-.14-10 0-19.95-.72-29.95-3.09 8.15-1 16.68-1.7 25-.51 5.95-.62 11.94-1.49 17.82-.19 1.34-2.78 3.27-4.23 3.24s-4-1.87-4.35-3.3c-1.54-7.1-2.49-14.33-4.05-24-.9 8.17-1.54 14.06-2.18 19.85-6.07 3.42-10.39-.61-15.07-2.21-3.67-16.09-3.57-57.68.16-72.8 5.53-2.57 10.41.25 15.39 1.9 41.16 13.63 83.07 24.28 126 30.81a829.35 829.35 0 0 0 187.28 7.6 1103.64 1103.64 0 0 0 152.14-21.69c24.72-5.35 49.22-11.7 73.81-17.6l22.36-5.36c1.19 3.9 2.8 6.81 2.84 9.74.22 18 .14 36 0 54 0 2.46-.95 4.93-2.17 10.84-2.38-5-4-6.85-4.09-8.77-.23-13.3-.12-26.61-1.16-40-2.42 9.59-1 19.42-1.62 29.11a146.18 146.18 0 0 1-2.21 19.72c-.38 1.87-3.57 4.28-5.56 4.37-1.59.08-4.5-2.85-4.76-4.73a144.61 144.61 0 0 1-.85-17.93c-.11-7.92 0-15.85-1.26-23.83-3.35 8.45-1.82 17.31-2.34 26-.44 7.3-.65 14.63-1.4 21.9-.28 2.66-2.27 5.12-5.43 4.24-1.57-.44-3.66-2.32-3.86-3.77a136.32 136.32 0 0 1-.95-15.92c-.17-9.63-.14-19.27-2.59-28.88v35.82c0 4 .44 8.2-.65 11.92-.81 2.73-3.43 6.22-5.91 6.87-3.71 1-5.85-2.7-6.07-6.16-.52-8-.6-16-.75-24-.1-5.29 0-10.58-2.29-15.92 0 8.7.6 17.46-.18 26.09-.73 8.2 4.29 18.41-7.18 24.93-6.58-18.26 0-36.62-4.39-53.73-3.88-.73-5.67 1.19-5.8 4-.48 10.64-.54 21.3-1 31.95-.28 7.12.67 14.5-2.61 20.83-5.62 1.23-6.82-2.07-7.15-5.24-.63-5.94-.76-12-.86-17.93-.13-7.91 0-15.82-1.21-23.73-2.52 8.9-1.48 17.94-1.81 26.91-.25 6.64-.24 13.32-1 19.9-.23 2-2.73 3.65-4.95 6.4-6.77-8.11-4.11-16.29-4.53-23.75-.44-7.94-.1-15.92-1.63-23.94-.24 4.59-.58 9.17-.69 13.76-.13 5.33.28 10.69-.16 16a128.48 128.48 0 0 1-2.69 17.55c-.27 1.22-3.08 2.78-4.5 2.58s-3.84-2.11-4.07-3.56a113.55 113.55 0 0 1-1.38-15.82c-.17-10.6-.05-21.21-1.26-31.83-2 10.73-1.33 21.55-1.55 32.33-.11 5.33-.1 10.66-.46 16-.24 3.55-2 7-5.8 6.86s-5.27-4-5.5-7.28c-.59-8.63-.74-17.29-.95-25.94-.12-5.3 0-10.6-.83-15.94-3.61 16.66.81 34-3.88 52.62-3.16-2.62-6-3.8-6.48-5.6a69.8 69.8 0 0 1-1.67-13.8c-.44-8.59-.61-17.19-1-29.09-6.66 18.19 1.58 35.41-8.6 51.75-9.35-19.01-.8-38.31-7.48-58.22z" fill="#fff"/><path d="M2524.78 755.89c-.38-2-1.18-3.95-1.05-5.87.41-5.91 3.79-9.06 8.79-8a71.37 71.37 0 0 1 11.3 3.69c57.24 22.75 116.7 36.81 177.76 43.66 37.55 4.22 75.34 6.71 113.24 3.67-99.07-2.75-196.2-15.78-288.47-54.36-3.67-1.54-9.46-1.73-10-8.33 8.51-1.41 15.53 3.11 22.81 5.55 37.22 12.48 74.57 24.4 113.16 32.07 29.42 5.85 59.05 9.88 89.07 10.3 18.65.26 37.29 0 55.93.21 59.26.68 116.4-10.72 172.1-30.19 11.3-3.95 22.33-8.66 33.51-12.93 35.94-13.69 67.47-34.38 95.82-60.17 10.34-9.4 20.72-18.78 31.24-28 2.81-2.46 6.22-4.23 12.66-8.5-2 5.9-2.11 8.7-3.57 10.16-10.33 10.33-20 21.63-31.64 30.28-25.07 18.65-51.23 35.84-76.86 53.76-4.72 3.3-11.33 4.56-13.09 11.32-7.31-.93-12.25 1.93-14.62 9a11.68 11.68 0 0 0-11.32 1.95c-4 .48-6.48 2.81-7.8 6.52l-17.23.26c-29.81 7.37-59.6 14.82-89.45 22-3.92.95-7.71 1.43-9.82 5.41-8.51-2.3-16.91-1.07-25.28 1.2l25.2-1.17c4.46-1 8.92-1.93 13.37-2.94 23.62-5.36 47.28-10.58 70.83-16.23 5.56-1.34 11.76-2.43 15-8.38 5.83 0 11.61-.11 17.38-.19 2.44-2.3 4.89-4.61 7.37-6.9q5.9-.75 11.74-1.54l14.23-9.41q22.82-12.26 45.64-24.51c5.27-2.83 10.48-5.81 15.88-8.37 4.38-2.08 8.17-.81 10.06 3.23 1.76 3.78.24 6.7-3.77 7.3-6.28.94-5.48 10.42-13.83 10-4.76-.25-7.38 8.4-15 7.08-2.61-.45-3.05 8.89-9.64 7.48-10.58 14.47-28.57 16.56-42.77 25-9.35 5.54-21.56 6-31.9 10.19-20 8.09-41.38 10-62.09 14.65s-42.1 6-63.14 9.05c-25.15 3.69-50.44 3.67-75.74 3.47-83.38-.65-163.79-17.11-242-45.46-8.08-2.93-16.43-5.11-24.66-7.64zM3086.58 200.42c1.51-2.81 3.94-5.47 4.38-8.43 4.4-29.39 8.19-58.86 12.75-88.22 2.23-14.33 5.48-28.53 8.82-42.66.65-2.73 3.84-4.85 5.85-7.26l-.13-.29c-5.28 42.92-10.92 85.79-15.7 128.77-2.51 22.48-3.72 45.11-5.15 67.7-5.68 89.77-7.17 179.65-7.44 269.58a78.11 78.11 0 0 1-2.55 19.47c-4.39-7.74-3.31-16.18-3.8-24.33-.52-8.59-.63-17.21-3-25.82v60.33c-1.74.8-2.37 1.21-2.46 1.11a3.25 3.25 0 0 1-1-1.59c-1.62-13.88-3.73-27.74-4.65-41.67-1.17-17.9-1.38-35.86-3.59-53.87-.28 6.8-.79 13.6-.8 20.4 0 21.32.2 42.63.17 64 0 7.25-.45 14.5-.71 22-5.23-1.1-5.35-5-5.66-7.88-1-9.92-1.87-19.88-2.2-29.85q-3.57-109.89.54-219.75c2-51.86 6.88-103.6 10.48-155.4a732.13 732.13 0 0 1 12.84-94.89c1-5 3.24-9.76 4.92-14.68 5.76 1.62 4.49 5.54 4.22 8.21-3 29.8-6.23 59.57-9.37 89.35-.83 7.88-1.54 15.78-1.6 23.75C3088.1 125 3091.9 91 3102.22 54c.81 6.2 1.48 8.12 1.24 9.91-6 42.83-12.09 85.64-14.95 128.84-.17 2.6-1.26 5.13-1.93 7.7v37.68zm-7.84 188.74h-.2v59.18h.2zm-8.54-76h.43v-32.3h-.43zm12.64-40l-.58.71v24.46h.58zm-8.62-34.45h.34v-11.09h-.34zm4.48-54.29l-.7-.36v11.14h.7zM2720.07 9.79c6.94 19.46 5 38 5.37 56.5.35 18.64.09 37.29.09 55.94v165.06h2.77v-19.73V35.77a176 176 0 0 1 .51-18c.31-3 2.14-5.78 4.12-10.79 2.75 3.71 5 5.42 5.31 7.41a127.19 127.19 0 0 1 1.23 17.88q.14 282.74.11 565.48c0 7.16 1.16 14.63-2.74 21-3.78.87-5.72-.52-5.88-3.68q-.49-10-.51-19.95c0-51.26 0-102.53-1.14-153.79v137.58c0 9.33.17 18.66-.27 28a35 35 0 0 1-2.92 11.35c-.52 1.28-3.25 2.54-4.74 2.32s-3.44-2-4.28-3.55-.93-3.86-1-5.83c-.17-4.66-.19-9.33-.19-14V33.72a172.79 172.79 0 0 1 .65-17.93c.27-2.07 2.31-3.99 3.51-6zM2854.85 616.12c-6.82-5-5.5-10.69-5.64-15.66-.61-21.31-1-42.63-1.21-64-.5-45.3-.69-90.61-1.35-135.91q-1.87-129.9-4.14-259.79a5.45 5.45 0 0 0-1.72-3.82c0 19.28-.1 38.55 0 57.83.43 73.29.7 146.58 1.46 219.87.65 62 2 123.9 2.83 185.85a105.78 105.78 0 0 1-1.45 17.76c-.2 1.28-3 3-4.6 3s-3.62-1.51-4.64-2.94a11.56 11.56 0 0 1-1.65-5.6c-.33-4-.4-8-.39-12q.46-280.84 1-561.68c0-6 0-11.92 1.95-17.92l2.19 72.61h2c0-20.93-.07-41.87.05-62.8a144.16 144.16 0 0 1 1.18-17.87c.18-1.43 3-3.84 3.94-3.57 2.13.6 4.75 2.25 5.52 4.15 1.2 3 1.27 6.5 1.41 9.81.27 6.65.32 13.32.37 20 .72 101.94 1.27 203.88 2.2 305.82.74 81.28 2 162.55 2.87 243.83.04 7.22 1.42 14.65-2.18 23.03zM2757.91 621.82c-.82-1.53-2.15-3-2.43-4.72a80 80 0 0 1-.7-9.93c-3.94-104.53-3.63-209.1-3.59-313.66q0-126.91.55-253.82a211.28 211.28 0 0 1 1.56-23.85c.36-3 1.87-7.08 6-6.12 1.9.44 3.7 3.51 4.55 5.76s.8 5.23.88 7.88c.13 4.66.09 9.32.09 14v555.6q0 11-.68 22a10.9 10.9 0 0 1-2.41 5.32c-.56.8-2.17.91-3.82 1.54zM2810.26 621.47c-3.06-3.88-5-5.2-5.13-6.7-.58-5.94-.83-11.93-.83-17.91q-.06-281.7 0-563.41c0-6 .23-12 .8-17.91.14-1.48 2-2.8 3.75-5 1.53 2.17 3.27 3.52 3.37 5 .49 6.63.68 13.29.68 19.93v559.42c-.03 7.83 1.1 15.85-2.64 26.58zM2795.23 622.48c-1.94-5.63-3.1-7.42-3.1-9.21q-.12-297.76 0-595.53c0-1.78 1.16-3.55 2.51-7.43 2 3.5 3.93 5.43 4.14 7.52.58 6 .61 12 .61 18q.09 279.78.07 559.56c0 7.67 1.29 15.71-4.23 27.09z" fill="#fff"/><path d="M2557.85 722c26.19 7.45 52.24 15.45 78.6 22.27 72.18 18.67 145.65 23.36 219.73 17.34 37.79-3.07 75-10.62 111.57-20.84 6.2-1.74 12.5-3.13 19.81-2.11-3.54 2.27-6.85 5-10.66 6.71-20.81 9.07-42.66 14.82-64.91 18.9-47.29 8.68-94.91 11.17-143 9.18s-95.4-8.13-141.66-21.16c-19.76-5.57-38.93-13.3-58.25-20.39-4.8-1.76-10.37-3.5-10.89-10.2zM2507.19 70.37c1.52 1.42 3.14 2.19 3.29 3.19 4.91 32.84 10.81 65.6 14.28 98.6 12.28 116.71 14 233.7 7.38 350.84-.09 1.66-1.33 3.26-2.91 6.89-3.3-8.89-2.44-16.22-2.46-23.32-.07-39.93.91-79.89-.12-119.79-1.23-47.85-3.6-95.68-6.46-143.46-2.3-38.5-6.06-76.9-9.21-115.34-1.41-17.23-2.94-34.45-4.32-51.68a36.46 36.46 0 0 1 .53-5.93z" fill="#fff"/><path d="M2486.28 66.18c4.48 1.38 5.81 4.94 6.58 9.08 4.11 22.24 9.31 44.32 12.24 66.71 5.69 43.54 10.12 87.24 15.06 130.87.15 1.32.27 2.66.31 4 1.77 55.89 6.53 111.71 4 167.7-1.17 25.93-2.78 51.85-4.3 77.77-.1 1.73-1.08 3.4-3.13 9.51-.59-11.64-1.21-18.82-1.27-26-.41-44 0-87.95-1.22-131.89-1.06-37.93-3.46-75.83-6.15-113.68-2.45-34.52-5.48-69-9.38-103.4-3.44-30.37-8.42-60.58-12.73-90.86zM2573.32 546.63c-.34-6.53-.84-13-1-19.57-1.85-68-3.29-135.94-5.6-203.89-1.23-35.95-4-71.84-6-107.77-1.81-33.27-3.43-66.54-5.19-99.81-.49-9.31-1.43-18.61-1.69-27.92a205.24 205.24 0 0 1 1.31-32c1.83 12.68 3.93 25.32 5.41 38 1.54 13.23 2.67 26.51 3.65 39.79q2.84 38.88 5.3 77.77 3.45 53.84 6.71 107.67c.21 3.33.47 6.66.46 10q-.1 100-.31 200c0 5.92-.57 11.83-.88 17.75zM2783 623.48c-2.36-6.29-3.62-8.08-3.62-9.86q-.15-297.81-.06-595.63c0-1.81 1.09-3.61 2.46-7.9 1.8 3.85 3.3 5.66 3.42 7.57.39 6 .33 12 .33 18v559.66c-.08 7.8.7 15.76-2.53 28.16zM2747.73 7.88c1.44 7.46 2.34 10 2.34 12.44q-.09 296.88-.4 593.76c0 1.13-1 2.31-1.74 3.37-.28.42-1 .56-1.5.83-.78-1-2.23-2-2.23-3q-.36-298.87-.43-597.74c0-1.78 1.38-3.54 3.96-9.66zM2770 622.43c-1.66-5.51-2.69-7.34-2.69-9.16q-.11-297.61 0-595.22c0-1.81 1-3.62 1.56-5.37 4.44-1 4.41 2.44 4.55 4.43.43 6 .38 12 .38 18v561.26c-.04 7.69 1.55 15.77-3.8 26.06zM2822.55 9.83c2.91 19.25 4.57 558.31 2.4 597.35a10.67 10.67 0 0 1-3.55 7.27 85.07 85.07 0 0 1-1.4-9.45c-2.59-74.69-1-572.75 2.55-595.17zM2621.5 730.24c19 3 38.08 5.73 57.06 9 47.42 8 95.22 9.87 143.16 8.55 22.58-.62 45.12-2.67 67.68-4 3.85-.22 7.73 0 12 2.61-6.2 1.62-12.31 3.93-18.61 4.75-44.88 5.84-89.72 10.13-135.2 6.47-35.93-2.89-71.3-7.89-106.09-17.12a136.26 136.26 0 0 1-17-5.71c-1.35-.55-1.82-3.22-2.7-4.91z" fill="#fff"/><path d="M2548 172.32c14 114.84 19.72 230.15 13.53 346.26-.7-3.17-1.92-6.32-2-9.52-1.42-43.21-2.64-86.43-4-129.64q-2.22-70.8-4.64-141.59c-.64-17.94-1.92-35.85-2.83-53.77-.2-3.91-.06-7.83-.06-11.74zM2863.85 738c-76.12 11.15-148.18 6.15-221.63-10.84 4.11-5.07 8-3.94 11.21-3.47 62.62 9.16 125.58 12.22 188.81 11 6.19-.12 12.76-1.52 21.61 3.31zM2890.28 12.49c.73 1.74 2 3.42 2 5.09q0 82.94-.37 165.87c0 .85-1.52 1.7-2.84 3.08-1.15-1.51-3.15-2.9-3.18-4.33-.87-55.87-2.47-111.74.87-167.58.09-.69 2.05-1.26 3.52-2.13zM2863.4 12c.68 3 1.72 5.44 1.71 7.9q-.22 150.78-.72 301.57c0 .87-1.44 1.72-3.22 3.73-.77-4.29-1.83-7.42-1.83-10.56q.26-149.79.79-299.58c.01-.76 1.61-1.54 3.27-3.06zM2874.34 12.73c.81.72 2.54 1.54 2.54 2.36q.52 76.91.69 153.82c0 2.44-1.33 4.88-2.17 7.8-5.38-4.78-3.75-10.37-3.85-15.37-1.67-86.69-.64-137.09 2.79-148.61z" fill="#fff"/><path d="M2816.71 722.76c-3.71 4.47-4.9 7.32-6.7 7.77a40.72 40.72 0 0 1-11.79.74q-35.76-1.83-71.49-4c-1.9-.11-3.76-.81-9.15-2 18.37-4.78 33.79-3 49-3.3 15.67-.29 31.42-.85 50.13.79zM2536.34 188.58c-1.6-2.81-3.26-4.36-3.3-6-.57-24.3-6.53-48.32-4.6-75.19 2.5 2.83 4.21 3.84 4.32 5 2.25 24.32 4.32 48.65 6.36 73 .04.49-.82 1.01-2.78 3.19zM2547.24 135.84v14.93l-1.23.08v-14.2zM2486.3 66V55.31l1.53.19c-.5 3.52-1 7-1.52 10.62-.03.06-.01-.12-.01-.12zM2621.86 729.84a29.83 29.83 0 0 1-5.46 1.35c-.62 0-1.34-1.42-2-2.19.55-.22 1.18-.75 1.63-.62 1.83.54 3.61 1.29 5.45 1.91zM3118.38 53.85c-.52-2.36-1-4.73-1.55-7.09l1.29-.2c0 2.28 0 4.56.07 6.92a3.32 3.32 0 0 1 .19.37zM2558.21 721.73l-3.18 1c.33-.25.65-.66 1-.71a15.92 15.92 0 0 1 1.74.12z" fill="#fff"/><path d="M2585.91 245.7V190h.44v55.67z"/><path d="M2986.31 761.82c-3.15 6-9.35 7.08-14.91 8.42-23.55 5.65-47.21 10.87-70.83 16.23-4.45 1-8.91 2-13.37 2.94h.12c2.07-4 5.86-4.47 9.78-5.42 29.85-7.2 59.64-14.65 89.53-22a3.3 3.3 0 0 1-.32-.17z" fill="#545878"/><path d="M2887.2 789.41l-25.2 1.17c8.37-2.27 16.77-3.5 25.28-1.2.04.01-.08.03-.08.03zM3037.09 743.82c-4.74 3.14-9.49 6.27-14.34 9.34-.12-.07.25.12.25.12 2.27-7.11 7.21-10 14.52-9zM3011.08 754.75l-7.33 6.92c1.31-3.71 3.78-6 7.79-6.52zM3003.75 761.67c-5.77.08-11.55.16-17.38.19-.06 0 .34.2.26.14 5.66-.14 11.4-.22 17.15-.31z" fill="#545878"/><path d="M3011.58 755.17a11.68 11.68 0 0 1 11.32-1.95c.1.06-.27-.13-.15-.06-3.79.59-7.7 1.11-11.63 1.61-.04-.02.46.4.46.4z" fill="#545878"/><path d="M3078.74 389.16v59.17h-.2v-59.17zM3070.2 313.19v-32.3h.43v32.3zM3082.84 273.15v25.15h-.58v-24.44zM3086.58 200.42V200.48zM3074.22 238.7v-11.06h.34v11.06zM3078.7 184.41v10.79h-.7v-11.15z"/></svg>