<svg xmlns="http://www.w3.org/2000/svg" id="sistercity-logo" class="logo" viewBox="0 0 419.9 317.48"><path d="M38.62,173.2a65.89,65.89,0,0,0,11.47-1.43c7.72-1.74,16.07-6.49,20-13.52,4.64-8.35,3.42-18.47.08-27a102,102,0,0,0-8.23-15.74c-1.34-2.19-2.73-4.34-4.07-6.52-2.57-4.18-5.52-8.11-8.32-12.14s-5.13-8.22-8-12.15c-6.88-9.55-11.82-20.91-12.12-32.81a41.82,41.82,0,0,1,1.14-10.57,47.08,47.08,0,0,1,3.34-9.67c4.44-9.3,11.93-16.85,22.1-19.56s21.72-2.72,31.51,1.4a36.31,36.31,0,0,1,7.6,4.31c2.88,2.17,6.28,6.59,7,10.22a6.77,6.77,0,0,0,5.81,4.89,12.37,12.37,0,0,0,3-.12,4.24,4.24,0,0,0,2.58-2.43c2-3.9-2-10.5-4.29-13.41C101.77,7.54,90.41,2.47,78.81.92,72.23,0,65.35-.48,58.77.64,45.44,2.9,35.89,9.35,27.79,20c-3,3.89-5.8,11.28-7.21,16-5.81,19.26,2,38.14,12.05,54.31,2.18,3.5,4.38,7,6.57,10.47,5.3,8.4,11.53,16.08,16.48,24.77,3.12,5.48,7.18,12.57,6.57,19.17a19,19,0,0,1-12.39,15.61,47.06,47.06,0,0,1-19,1.75c-6.83-.63-12.44-3.31-18.84-5.49-2.94-1-6.12-3.22-9.47-1.86-2.22.91-2.78,2.63-2.49,4.92.6,4.81,7.13,7.46,12.5,9.41a69.13,69.13,0,0,0,26.05,4.18Z" style="fill:#ffffff"/><path d="M331.35,76a5.92,5.92,0,0,0-1.13.34c-1.91.81-2.83,2.44-3.8,4.17-.16.26-.31.53-.46.79s-.43.74-.82,1.43c-1.54,2.69-4.56,8-6.29,10.7-7.41,8.84-17.51,18.8-29.15,25.17-4.54,2.48-15,7.15-19.69-.67-1.73-2.89-1.08-4.19-1.1-4.25.53-.8,1.33-1.81,2-2.64a56.32,56.32,0,0,0,4.39-5.71c1.36-2.18,2.53-4.19,4.21-7.51,1-2,1.5-3.39,2.41-5.47,1.4-3.22,2.82-9.7.18-12.66-6.38-7.16-13.68,1.07-17.35,6.52a40.49,40.49,0,0,0-6.49,18.92c-.05.75-.28,4-.33,4.9-.31,1.81-3.46,4.16-4.7,5.38a40.8,40.8,0,0,1-10.52,7.09c-2.53,1.27-5.88,3.26-8.83,2.76a4.66,4.66,0,0,1-3.33-2.71c-2.15-5.37-1.44-11.17-1-16.8a101.12,101.12,0,0,1,1.89-12.84c1-4.52,1.58-9.1,2.39-13.65.76-4.26,2.19-8.37,3-12.61.51-2.5.88-5,1.34-7.54,0-.2.07-.39.1-.54A2.8,2.8,0,0,1,239.36,57l.15-.12a69.09,69.09,0,0,1,8.74-1.8c7-1.22,8.5-.83,15.51-2,2.7-.47,7.46-1.07,9.56-1.49,1.11-.22,2.82-.06,3.6-1,1.36-1.73.44-5.89-.52-7.64-1.1-2-3-2.82-5.56-2.29-4.33.91-8.7,1.36-13.09,1.89-4,.47-7.94,1.39-11.95,1.59a16.8,16.8,0,0,0-3.08.35c.09-.33.16-.66.23-1,.78-3.73,1.89-7.37,2.82-11.06.69-2.75,1.68-5.8,1.68-8.66a5.73,5.73,0,0,0-1.9-4.69c-1.63-1.31-7.21,0-8,.73A7,7,0,0,0,236,22.4c-.12.29-.23.6-.37.9s-.72,2.12-.79,2.39c-1.41,5.22-2.22,10-3.73,15.62-.5,1.82-1,3.69-1.46,5.53a7.32,7.32,0,0,1-2,.37c-4.19.42-8.4,1.31-12.57,1.91a11.73,11.73,0,0,0-2.07.36l-.83.17c-.33,0-.76.09-2,1.21-1,.94-2.89,2.47-2.92,4C207.15,62.36,221,59.6,225,58.74c.76-.17,1.5-.32,2.24-.44-.09.29-.18.61-.28.92-1.15,3.89-1.9,7.89-2.87,11.83a92.34,92.34,0,0,1-3.88,11.41c-1.73,4.42-3.33,8.87-5.14,13.25-4.81,11.65-7.71,24.8-16.71,34.16a15.31,15.31,0,0,1-9.21,4.4,68.77,68.77,0,0,1-7,.75c-2.42.07-4.7,0-8-.08.12-.27,5.91-3.29,8.55-14,1-3.89,1.95-7.76,2.56-11.72.7-4.51,1.21-10.51-1.23-14.64a7.53,7.53,0,0,0-5.75-3.37c-8.58-.91-15.34,10.25-21.92,17.38-1.6,1.73-9.39,9.9-11.54,12.32-3.29,3.69-6.87,7.23-10.37,10.73-2.67,2.67-6.39,6.1-10.32,6.56A8.39,8.39,0,0,1,118.1,136c-5.9-5.51-5-14.41-4.35-21.69.17-1.93.37-3.87.53-5.8.13-1.53.5-3.32-.13-4.77a5.2,5.2,0,0,0-4.74-3.12c-2.6,0-3.34,1.52-4.85,3.32a20.49,20.49,0,0,0-3.58,7.21c-1.53,6.4-3.18,13.76-4.55,17.16-1.85,4.6-6.84,16.6-7.45,17.87-.73,1.52-2.13,4.69-2.93,6.19-1.81,3.38-3.13,5.15-3.08,9.07A4,4,0,0,0,84.82,164a4.93,4.93,0,0,0,3.27.45c2.42-.43,3.61-2.48,4.61-4.51.55-1.09,1-2.23,1.55-3.31a91,91,0,0,0,5.68-13.69c.91-2.73,2.22-5.76,2.94-8.55.12-.46.6-2.09,1.26-2,1.29.2,1.49,2.38,1.67,3.37a15,15,0,0,0,3.08,6.85,16.8,16.8,0,0,0,13.28,6.53A23.19,23.19,0,0,0,134.63,145c5.67-3.66,9.76-9,14.41-13.79,1.93-2,11.39-11.77,13.89-14.91,2.29-2.87,4.37-5.89,6.8-8.65a21.31,21.31,0,0,1,4.07-3.81c1.35,4.48.6,9.26-1,13.53-1.49,3.87-3.05,8.35-5.77,11.55-1.29,1.52-2.87,3.54-4.71,4.33l-.19.09c-3.31,1.53-10.43,3.79-11.43,5.76a10,10,0,0,0-.78,6.56,5,5,0,0,0,2.51,2.53l.59.36a5.22,5.22,0,0,0,2.9.83c1.91,0,4.17-1.1,5.87-1.94l.93-.49a23.6,23.6,0,0,1,3.72-1.83,8.62,8.62,0,0,1,1.92-.21,21.92,21.92,0,0,1,2.37.18c7.41.86,14.79,1.22,22.11-.4,10-2.22,17.09-9.47,21.13-18.53,1.24-2.76,2.16-5.9,3.7-8.51a12.2,12.2,0,0,0,1.12-2.26,1.72,1.72,0,0,1,.07-.21c0,1.85,0,3.74,0,5.6a21,21,0,0,0,2.62,9.84c3.89,6.47,14.28,7.22,20.68,4.6a30.14,30.14,0,0,0,7-4.09c2.71-2.14,5.89-4.32,8.28-6.81.36-.37,2.66-2.31,2.82-2.4,2.05,7.25,9.17,10.33,15.58,10.64a26.94,26.94,0,0,0,7-.63,55.28,55.28,0,0,0,18.18-8.12l.13-.1c1.38-.91,2.75-1.85,4.08-2.82,1.63-1.18,3.22-2.42,4.72-3.75.74-.67,1.46-1.35,2.15-2.07.51-.53,1.08-1.36,1.9-1.36a.86.86,0,0,1,.65.25c.61.68.58,2.42-.1,5.35s-1.84,5.89,2.47,6.79c4,.83,8.92-2.76,10.59-6.39,1.54-3.35,1.73-7,2.77-10.53,1.55-5.14,5.94-10,10.53-12.65,3.34-2,6.83-.89,10.33-.19,6.18,1.24,17.5,2.74,20.59-4.61a9.21,9.21,0,0,0,.7-5.56,3.74,3.74,0,0,0-3.86-2.2,6.49,6.49,0,0,0-3.17,1.35,11.48,11.48,0,0,1-1.72,1,9.61,9.61,0,0,1-4.08.8,29.53,29.53,0,0,1-7-1.16l-.16,0c-.6-.15-1.18-.31-1.76-.47a22,22,0,0,0-5.88-1,8.78,8.78,0,0,0-4.88,1.4c-1.34.89-2.28,2.38-3.84,3,.66-.25,1.24-8.09,1.13-8.89C337,78.16,336,76.1,334,76c-.44,0-.95-.07-1.42-.07a7.37,7.37,0,0,0-1.2.1" style="fill:#ffffff"/><path d="M418.76,232.31c-3.41-1.86-7.11-.81-11,1.43a56.32,56.32,0,0,1-14.23,6.18c-4.82,1.25-18.95,6.48-24.3,7.25a6.24,6.24,0,0,1-.21-1.24c-1-10-8.12-18.19-18.51-18.69-9.3-.45-17.43,4.52-25.56,9-3.35,1.87-6.57,4.11-9.86,6.15-2.74,1.7-6.95,4.88-10.32,4.88a2.27,2.27,0,0,1-.88-.18c-3.86-1.62-2.17-7.91-.56-12.49.3-.87.55-1.75.79-2.61s.52-1.84.84-2.73a9.89,9.89,0,0,0,.59-5.9,4.49,4.49,0,0,0-3.9-3.61,8,8,0,0,0-1.47-.14,4.59,4.59,0,0,0-3.84,1.63c-.25.34-.55.7-.87,1.08a12.9,12.9,0,0,0-1.78,2.48,36.58,36.58,0,0,1-10.39,12.64c-3.33,2.55-7.69,5.55-12,6-6.13.65-8.22-5.54-8.77-10.55A61.81,61.81,0,0,1,264,211l1.23-5.29a13.47,13.47,0,0,1,.56-2.61c.52-1.16,1.55-1.09,2.68-1.28,1.35-.21,2.75-.44,4.12-.72A168.82,168.82,0,0,0,294,195.31c3.32-1.16,7.37-2.16,10.21-4.3a9.92,9.92,0,0,1,1.47-.87,4.34,4.34,0,0,0,2.88-3.43c.26-1.4.64-3.54-.4-4.92a3,3,0,0,0-2.19-1.14,5.93,5.93,0,0,0-.61,0,16.5,16.5,0,0,0-5.71,1.38,101.19,101.19,0,0,1-13.8,4.42c-4.31,1.14-8.61,2.59-13.05,3.08-.6.06-1.21.13-1.82.22a9.81,9.81,0,0,0,.54-1.61,33.65,33.65,0,0,1,2.75-7c1-2.1,1.73-3.7,2.8-5.77l.09-.18a5.12,5.12,0,0,0,.67-1.88,12.58,12.58,0,0,0-.14-4.24c-.38-1.48-1.27-1.92-2.05-3.08a7.25,7.25,0,0,0-3.13-2.69,2.92,2.92,0,0,0-1-.12c-3.05,0-4.89,3.18-6,5.6-1.68,3.77-3.43,7.53-4.78,11.45s-2,7.77-3.47,11.49c-.62,1.51-2.13,1.88-3.58,2.14-1.87.33-3.7.77-5.52,1.28-2,.58-4.08,1.23-6.12,1.81-1.23.34-2.46.66-3.7.92-.67.14-1.32.31-2,.49-1.78.47-3.53,1.07-5.29,1.63-.37.12-.75.21-1.14.32-1.14.27-2.29.51-3.4.86s-2.8.61-2.86,2a6.76,6.76,0,0,0-1.27,5c.49,3.83,2.91,4.63,4.85,4.63,3.63,0,7.1-1.6,10.47-3,.29-.1.57-.19.86-.31a35.41,35.41,0,0,1,3.75-1.31c.41-.11.82-.21,1.23-.29s1.31-.3,2.18-.54c1.85-.5,4.25-1.24,5.67-1.63.35-.1.63-.16.78-.2a1.74,1.74,0,0,1,.3-.07c-.15.31-.32.63-.49,1-5.83,10.84-11,21.89-17.67,32.25-1.78,2.76-3.47,6-5.66,8.47a20.38,20.38,0,0,0-1.4,1.8c-.4.55-.77,1.06-1.2,1.55-.63.72-1.25,1.45-1.88,2.18a64.93,64.93,0,0,1-5.63,6.07c-4.23,3.8-8,8.21-13.16,10.88-4,2.07-10.58,4.77-14.14.44a21.59,21.59,0,0,1-5.16-11.33,18.42,18.42,0,0,1,1.13-7.74c.8-2.29,2.24-4.4,2.86-6.74a9.45,9.45,0,0,0-1.52-8.59c-1-1.17-2.9-1.66-4.21-2a3.93,3.93,0,0,0-1-.12,5.19,5.19,0,0,0-3.78,2.15c-1.73,2-2.51,4.42-3.28,6.79-.19.59-.37,1.18-.57,1.75-2.9,7.93-8.29,14.14-14.34,19.84A166.06,166.06,0,0,1,141,280.46a154.91,154.91,0,0,1-14.9,9.2c-10,5.55-21.06,7.32-32.3,8.28-19.44,1.65-41.53-8.43-49.95-26.67A57.81,57.81,0,0,1,38.72,252c-.58-9,2.92-23.57,9.55-32.84a57.85,57.85,0,0,1,5.82-6.88q1.57-1.59,3.26-3.07C69.81,198.29,86.6,189.92,102.88,187a63.16,63.16,0,0,1,16.23-1.09,33.24,33.24,0,0,1,8.21,1.65c2.55.88,4.86,2.44,7.49,3.1a4.91,4.91,0,0,0,4.51-.91c4.83-5.52-6.15-10.38-9.91-11.63-7.91-2.65-16.68-2.63-24.83-1.68a105.41,105.41,0,0,0-43.44,15.63,86.33,86.33,0,0,0-10,7.6c-1.17,1-2.32,2.07-3.43,3.16-7.79,7.59-13.93,16.71-16.68,27.21C27.51,243.7,27,258,32.24,271.25a62.3,62.3,0,0,0,3.47,7.83c8.93,16.74,27.91,27.45,46.38,29.65,14.21,1.7,28-.91,41.15-6.26,3.59-1.45,7.11-3.08,10.55-4.85a92.23,92.23,0,0,0,11.3-6.87c5.64-4,11.13-8.29,16.61-12.53,2.6-2,5.16-4.07,7.58-6.3,1.21-1.12,2.38-2.27,3.5-3.47.62-.68,3.12-2.81,3.12-3.73,1.29,6.9,5.6,12,10.09,15.73,10.66,8.74,26.9-.69,35.36-8a75.8,75.8,0,0,0,8.21-8.31,187.3,187.3,0,0,0,17.08-24c.89-1.48,1.75-3,2.56-4.52.4-.76,2.49-4.52,2.71-5.85-.28,7.11-.08,10.38,1.72,14.46,4.47,10.11,15.16,13.21,24.86,9,3-1.3,7.12-3.16,9.48-5.48.23-.23.48-.45.73-.67a14.38,14.38,0,0,0,1.42-1.4l.2-.25.23-.27c.16.85.32,2.19.41,2.95a15.8,15.8,0,0,0,.27,1.85,13,13,0,0,0,9.82,8.68c5.5,1.16,10.86-1.65,15.53-4.26,3.58-2,7.21-4.09,10.6-6.38,5.17-3.49,10.6-6.94,16.75-8.54,9.53-2.47,13.34,2,15,9.7,0,.17.07.32.1.46.23,1,.28,1.1-.31,1.45-3.59,2.15-7.79,3.67-11.51,5.64a98.18,98.18,0,0,0-11.68,7.44c-2,1.49-4.06,3-6,4.61a62.71,62.71,0,0,0-7.72,7.12c-2.22,2.46-3.69,5.26-5.61,7.9-5,6.83-7.12,20-1.73,27.18,6.76,9,20.66,7.65,29,1.95s14.08-14.32,18.4-23.39a53.73,53.73,0,0,0,3.1-8.05c1.95-6.61,4.2-13.65,4.47-20.58a6.29,6.29,0,0,1,.48-2.73,5.93,5.93,0,0,1,2.16-.71,10.24,10.24,0,0,0,1.36-.35c7.57-2.77,15.6-3.87,23.11-6.82,5.59-2.2,11.68-4,17-6.81a11.11,11.11,0,0,0,5.72-6,6.36,6.36,0,0,0,.65-2.41c.21-.58-.66-2.31-1.11-2.76Zm-58.69,31.9a74.25,74.25,0,0,1-2.93,11.66c-3.14,8.95-7.44,19.65-15.51,25.28-.36.25-.69.54-1,.81-3.85,3.24-16.14,7-18.53,0-2.22-6.46,2.12-13.06,6.24-17.8a62,62,0,0,1,10.51-9.79l1.05-.74c2.56-1.79,5.17-3.51,7.69-5.37,2.31-1.7,9.65-5.62,10.3-6a14,14,0,0,1,2.27-1.08c0,.16,0,.32,0,.48a14.93,14.93,0,0,1-.08,2.52Z" style="fill:#ffffff"/><path d="M183.38,195a6.67,6.67,0,0,0-4.24-2h0a5.54,5.54,0,0,0-2.86.7,7.18,7.18,0,0,0-2.59,3.08c-.87,1.67-1.2,4,0,5.48a4.17,4.17,0,0,0,3.47,1.39,16.44,16.44,0,0,0,1.94-.15l.22,0a8.84,8.84,0,0,0,5.94-3c1.87-2.41-.32-4.23-1.63-5.32l-.19-.16Z" style="fill:#ffffff"/></svg>