<svg id="surfandsand-logo" width="320px" height="80px" class="logo" xmlns="http://www.w3.org/2000/svg" viewBox="0 0 320 80"><g opacity="0.3"><path d="M15.3,14.5c4.77-9.68,44.92-8.75,55.63-4.77,5,1.87,6.21,7.32,6.21,7.32,1.31.14,7.77-4.9-.92-9.72-15-8.34-68.77-9-72.63,6.48C.64,25.61,43.39,33.7,39.41,45c-2.47,7-21.8,3.19-28.84-3.57A20.34,20.34,0,0,1,6,34.62c-3.34,3.43-1.25,7.57,1.28,9.84,12.93,11.59,36.41,11,39,1.88C50.83,30.58,10.48,24.28,15.3,14.5Z"/><path d="M131.37,35.8a33.91,33.91,0,0,1-6.55,4.5,37.15,37.15,0,0,1-11.39,2.84s18-25.43,11.5-28.57c0,0-10.9,18.81-14.49,23.93a20.58,20.58,0,0,1-7.21,5.37c-1.63.44-3.1.57-3.61-.17-1.36-2,3-4.43,3.26-7,.21-1.9-2.55-5.21-4.87-9.13-1.15-1.95-1.37-4.29-2-5.76s-3.93.78-4.48,1.87c-.63,1.25.45,3.87.07,5.22-1.18,4.17-7.49,10.14-11.72,13.77-1.43,1-4.33,2.63-5.52,1-1.81-2.47,8-17.33,8-17.33H76.68s-8.94,16.56-17.77,16.4c-5.73-.1,6.32-16.4,6.32-16.4H59.52s-16.7,19.88-1.81,21.54c6.2.69,11.26-6.5,11.26-6.5S67.86,46.65,71,47.62C76.68,49.34,81.31,46,84.1,43.14c5.18-4.47,9.62-11.8,9.62-11.8s4.29,3.59,4.22,4.93c-.13,2.22-4.17,7-2.7,9.36,1.94,3.08,4.87,2.64,7.54,1.18a47.81,47.81,0,0,0,5-3.13S92.8,63.89,102.88,65.81c13.36,2.55,15-17.9,12.29-20.85,0,0,6.91-.45,8.93-.88C133.71,42,131.37,35.8,131.37,35.8Zm-18.69,21c-2.44,6.27-5.85,6.65-7.75,6.16-3.75-1,6.71-16.9,6.71-16.9C114,46.49,115.18,50.39,112.68,56.84Z"/><path d="M184.5,14.42c4.77-9.68,44.92-8.74,55.62-4.76,5,1.87,6.22,7.31,6.22,7.31,1.31.15,7.76-4.89-.92-9.72-15-8.33-68.78-9-72.64,6.48-2.95,11.8,39.8,19.89,35.82,31.17-2.46,7-21.79,3.2-28.84-3.57a20.3,20.3,0,0,1-4.54-6.79c-3.35,3.44-1.26,7.57,1.28,9.84,12.92,11.59,36.41,11,39,1.88C220,30.5,179.67,24.21,184.5,14.42Z"/><path d="M306.27,43.56c-2.85-6.3,19-28.34,11.54-32.73L305.54,30.2s-1.57-3.79-8.4-3.83c-6.52,0-12.91,4.55-14.66,9.12a16.56,16.56,0,0,0-1.24,5.7c-2.71,2.15-6.44,4.45-8.07,2.51-3-3.56,10.2-14.53,3.5-17.09-3.61-1.38-11.37,4-11.37,4l2.51-4.23h-5.46l-7.24,12c-4.39,3.19-11.56,8-11.93,5.37-.41-2.79,9.89-17.33,9.89-17.33H246.9l-2.49,4.09a8.28,8.28,0,0,0-6.81-4.09c-4.85-.19-12.43,3.45-15.39,10.36-1.88,4.4-1.66,11.18,4.74,11.18a12.94,12.94,0,0,0,11.14-6.52c-.79,1.53-2.8,6.2,1.85,6.52,4.88.33,9.17-2.18,12.39-5l-3,5h5.52l7.52-12.43s9.69-8.3,11.71-5.27c.74,1.11-12.92,16.66-3.49,17.7a12.15,12.15,0,0,0,10.87-4.69,5.79,5.79,0,0,0,5.62,4.69c8.11,0,13.5-8.95,13.5-8.95s-2,6.86,1.55,8.42c4.81,2.1,15.59-3,14.88-6.11C317,41.27,307.52,46.32,306.27,43.56Zm-70.11-4c-6.93,5.23-10,2.75-9.84.17.32-5.57,6.27-9.93,9.84-10.64,4-.8,6.57,1.05,6.6,2.88C242.79,33.6,238.43,37.88,236.16,39.59Zm60,0c-6.93,5.23-10,2.75-9.84.17.32-5.57,6.27-9.93,9.84-10.64,4-.8,6.57,1.05,6.6,2.88C302.78,33.6,298.42,37.88,296.15,39.59Z"/><path d="M144.82,48.28c-7.46,0-8.23-8-1.95-14.23a27.48,27.48,0,0,1,8.42-5.44,23.5,23.5,0,0,1,.59-6.42,9.8,9.8,0,0,1,11-7.56c3.12.32,4.26,2.51,3.46,6.09s-10.47,8.14-10.8,8.4a60,60,0,0,0,3,9,26.84,26.84,0,0,0,3.88-4c.27.71,1,1.06-.39,3.06a28.21,28.21,0,0,1-2.68,3.15s1.64,3.49,3.57,4.28c4.25,1.73,5.59-.23,5.59-.23.12.32-2.69,3.64-7.88,3.86-3,.13-5.08-4.11-5.36-4.53C153.29,45.18,150.53,48.26,144.82,48.28Zm6.47-17.21c-1.24.86-8.53,3.42-6.88,9.23,1.3,4.59,6.52,4.05,9.79,1.05A40,40,0,0,1,151.29,31.07Zm3.93-4.52c2.42-1.36,5.32-3.08,6.65-4.59s1.89-3.67-.14-4.45-4.86.9-5.94,3.16A10.16,10.16,0,0,0,155.22,26.55Z"/><path d="M132.41,66.76V79H130V74.13H125.1V79h-2.42V66.76h2.42v4.92H130V66.76Z"/><path d="M146.85,79.17a6.35,6.35,0,0,1-2.3-.44,6.11,6.11,0,0,1-4-5.81,6,6,0,0,1,.47-2.37,6.47,6.47,0,0,1,1.31-2,6.23,6.23,0,0,1,2-1.38,6,6,0,0,1,2.5-.52,6.07,6.07,0,0,1,2.34.47,6.48,6.48,0,0,1,2,1.29,6.35,6.35,0,0,1,1.39,2,5.87,5.87,0,0,1,.53,2.52,6.06,6.06,0,0,1-.46,2.34,6.39,6.39,0,0,1-1.3,2,6.49,6.49,0,0,1-2,1.39A6.17,6.17,0,0,1,146.85,79.17Zm0-10.09a3.66,3.66,0,0,0-1.48.3,3.8,3.8,0,0,0-1.22.82,3.87,3.87,0,0,0-.83,1.23,3.77,3.77,0,0,0-.29,1.49,3.66,3.66,0,0,0,.3,1.48,3.83,3.83,0,0,0,.83,1.21,3.79,3.79,0,0,0,4.17.82,3.75,3.75,0,0,0,1.21-.82,3.78,3.78,0,0,0,1.12-2.69,3.79,3.79,0,0,0-.31-1.49,4,4,0,0,0-.83-1.23,3.78,3.78,0,0,0-2.67-1.12Z"/><path d="M168.86,69.2h-3.37V79h-2.43V69.2h-3.41V66.76h9.21Z"/><path d="M179.28,69.2v2.48h4v2.45h-4V76.6h5.46V79h-7.9V66.76h7.9V69.2Z"/><path d="M200.33,79H193V66.76h2.43V76.6h5Z"/></g><path d="M13.86,13.06c4.77-9.68,44.92-8.75,55.63-4.77,5,1.87,6.21,7.32,6.21,7.32,1.31.14,7.77-4.9-.92-9.72-15-8.34-68.77-9-72.63,6.48C-.8,24.17,42,32.26,38,43.54c-2.47,7-21.8,3.19-28.84-3.57a20.34,20.34,0,0,1-4.55-6.79C1.24,36.61,3.33,40.75,5.86,43c12.93,11.59,36.41,11,39,1.88C49.39,29.14,9,22.84,13.86,13.06Z" fill="#fff"/><path d="M129.93,34.36a33.91,33.91,0,0,1-6.55,4.5A37.15,37.15,0,0,1,112,41.7s18-25.43,11.5-28.57c0,0-10.9,18.81-14.49,23.93a20.58,20.58,0,0,1-7.21,5.37c-1.63.44-3.1.57-3.61-.17-1.36-1.95,3-4.43,3.26-7,.21-1.9-2.55-5.21-4.87-9.13-1.15-1.95-1.37-4.29-2-5.76s-3.93.78-4.48,1.87c-.63,1.25.45,3.87.07,5.22C89,31.65,82.64,37.62,78.41,41.25c-1.43,1-4.33,2.63-5.52,1-1.81-2.47,8-17.33,8-17.33H75.24S66.3,41.49,57.47,41.33c-5.73-.1,6.32-16.4,6.32-16.4H58.08s-16.7,19.88-1.81,21.54c6.2.69,11.26-6.5,11.26-6.5s-1.11,5.24,2.06,6.21c5.65,1.72,10.28-1.58,13.07-4.48,5.18-4.47,9.62-11.8,9.62-11.8s4.29,3.59,4.22,4.93c-.13,2.22-4.17,7-2.7,9.36,1.94,3.08,4.87,2.64,7.54,1.18a47.81,47.81,0,0,0,5-3.13s-14.93,20.21-4.85,22.13c13.36,2.55,15-17.9,12.29-20.85,0,0,6.91-.45,8.93-.88C132.27,40.59,129.93,34.36,129.93,34.36Zm-18.69,21c-2.44,6.27-5.85,6.65-7.75,6.16-3.75-1,6.71-16.9,6.71-16.9C112.58,45.05,113.74,49,111.24,55.4Z" fill="#fff"/><path d="M183.06,13C187.83,3.3,228,4.24,238.68,8.22c5,1.87,6.22,7.31,6.22,7.31,1.31.15,7.76-4.89-.92-9.72-15-8.33-68.78-9-72.64,6.48-3,11.8,39.8,19.89,35.82,31.17-2.46,7-21.79,3.2-28.84-3.57a20.3,20.3,0,0,1-4.54-6.79c-3.35,3.44-1.26,7.57,1.28,9.84,12.92,11.59,36.41,11,39,1.88C218.58,29.06,178.23,22.77,183.06,13Z" fill="#fff"/><path d="M304.83,42.12c-2.85-6.3,19-28.34,11.54-32.73L304.1,28.76s-1.57-3.79-8.4-3.83c-6.52,0-12.91,4.55-14.66,9.12a16.56,16.56,0,0,0-1.24,5.7c-2.71,2.15-6.44,4.45-8.07,2.51-3-3.56,10.2-14.53,3.5-17.09-3.61-1.38-11.37,4-11.37,4l2.51-4.23h-5.46l-7.24,12c-4.39,3.19-11.56,8-11.93,5.37-.41-2.79,9.89-17.33,9.89-17.33h-6.17L243,29a8.28,8.28,0,0,0-6.81-4.09c-4.85-.19-12.43,3.45-15.39,10.36-1.88,4.4-1.66,11.18,4.74,11.18A12.94,12.94,0,0,0,236.65,40c-.79,1.53-2.8,6.2,1.85,6.52,4.88.33,9.17-2.18,12.39-5l-3,5h5.52L260.91,34s9.69-8.3,11.71-5.27c.74,1.11-12.92,16.66-3.49,17.7A12.15,12.15,0,0,0,280,41.78a5.79,5.79,0,0,0,5.62,4.69c8.11,0,13.5-8.95,13.5-8.95s-2,6.86,1.55,8.42c4.81,2.1,15.59-3,14.88-6.11C315.55,39.83,306.08,44.88,304.83,42.12Zm-70.11-4c-6.93,5.23-10,2.75-9.84.17.32-5.57,6.27-9.93,9.84-10.64,4-.8,6.57,1.05,6.6,2.88C241.35,32.16,237,36.44,234.72,38.15Zm60,0c-6.93,5.23-10,2.75-9.84.17.32-5.57,6.27-9.93,9.84-10.64,4-.8,6.57,1.05,6.6,2.88C301.34,32.16,297,36.44,294.71,38.15Z" fill="#fff"/><path d="M143.38,46.84c-7.46,0-8.23-8-1.95-14.23a27.48,27.48,0,0,1,8.42-5.44,23.5,23.5,0,0,1,.59-6.42,9.8,9.8,0,0,1,11-7.56c3.12.32,4.26,2.51,3.46,6.09s-10.47,8.14-10.8,8.4a60,60,0,0,0,3,9,26.84,26.84,0,0,0,3.88-4c.27.71,1,1.06-.39,3.06a28.21,28.21,0,0,1-2.68,3.15s1.64,3.49,3.57,4.28c4.25,1.73,5.59-.23,5.59-.23.12.32-2.69,3.64-7.88,3.86-3,.13-5.08-4.11-5.36-4.53C151.85,43.74,149.09,46.82,143.38,46.84Zm6.47-17.21c-1.24.86-8.53,3.42-6.88,9.23,1.3,4.59,6.52,4,9.79,1A40,40,0,0,1,149.85,29.63Zm3.93-4.52c2.42-1.36,5.32-3.08,6.65-4.59s1.89-3.67-.14-4.45-4.86.9-5.94,3.16A10.16,10.16,0,0,0,153.78,25.11Z" fill="#fff"/><path d="M131,65.32V77.6h-2.43V72.69h-4.88V77.6h-2.42V65.32h2.42v4.92h4.88V65.32Z" fill="#fff"/><path d="M145.41,77.73a6.35,6.35,0,0,1-2.3-.44,6.11,6.11,0,0,1-4-5.81,6,6,0,0,1,.47-2.37,6.47,6.47,0,0,1,1.31-2,6.23,6.23,0,0,1,2-1.38,6,6,0,0,1,2.5-.52,6.07,6.07,0,0,1,2.34.47,6.48,6.48,0,0,1,2,1.29,6.35,6.35,0,0,1,1.39,2,5.87,5.87,0,0,1,.53,2.52,6.06,6.06,0,0,1-.46,2.34,6.39,6.39,0,0,1-1.3,2,6.49,6.49,0,0,1-2,1.39A6.17,6.17,0,0,1,145.41,77.73Zm0-10.09a3.66,3.66,0,0,0-1.48.3,3.8,3.8,0,0,0-1.22.82,3.87,3.87,0,0,0-.83,1.23,3.77,3.77,0,0,0-.29,1.49,3.66,3.66,0,0,0,.3,1.48,3.83,3.83,0,0,0,.83,1.21,3.79,3.79,0,0,0,4.17.82,3.75,3.75,0,0,0,1.21-.82,3.78,3.78,0,0,0,1.12-2.69,3.79,3.79,0,0,0-.31-1.49,4,4,0,0,0-.83-1.23,3.78,3.78,0,0,0-2.67-1.12Z" fill="#fff"/><path d="M167.42,67.76h-3.37V77.6h-2.43V67.76h-3.41V65.32h9.21Z" fill="#fff"/><path d="M177.84,67.76v2.48h4v2.45h-4v2.47h5.46V77.6h-7.9V65.32h7.9v2.44Z" fill="#fff"/><path d="M198.89,77.6h-7.38V65.32h2.43v9.84h4.95Z" fill="#fff"/></svg>