<svg id="logo-bellevue" class="logo" xmlns="http://www.w3.org/2000/svg" viewBox="0 0 168 78"><path fill-rule="evenodd" fill="#005cab" d="M60.94,42.89V10.75H57.48v35.6h10V42.89Z"/><path   fill-rule="evenodd" fill="#005cab" d="M77.28,42.89V10.75H73.82v35.6h10V42.89Z"/><path   fill-rule="evenodd" fill="#005cab" d="M118.79,10.75h-.36l-.08.36-4.87,22.7-4.91-22.7-.07-.36h-3.64l.13.56,8.06,35.47h.88l8-35.47.12-.56h-3.22Z"/><path   fill-rule="evenodd" fill="#005cab" d="M137.46,10.75H137V39.5c0,2-.27,2.54-1.08,3.18a3,3,0,0,1-2,.68,2.59,2.59,0,0,1-1.94-.68,4.52,4.52,0,0,1-.93-3.23V10.75h-3.46v28.8a7.63,7.63,0,0,0,2,5.54,6.24,6.24,0,0,0,4.53,1.73,5.86,5.86,0,0,0,4.94-2.48c1-1.32,1.34-2.33,1.34-4.68V10.75h-3Z"/><path   fill-rule="evenodd" fill="#005cab" d="M24.3,23a6.63,6.63,0,0,0,1.13-1,6.91,6.91,0,0,0,1.65-4.42c0-3.24-2.42-6.61-7.82-6.83H16.5V22H8.73L10,25.18H16.5V46.35h3c8.83,0,13.69-4.32,13.7-12.17C33.2,26.67,27.32,23.81,24.3,23ZM20,14c2.43.17,3.91,1.68,3.91,3.87a4.05,4.05,0,0,1-3.44,4H20Zm6.17,27.75A10.84,10.84,0,0,1,20,43.25v-18h1.33a12.18,12.18,0,0,1,4.88,1.81,8.32,8.32,0,0,1,3.63,6.72C29.77,37.65,28.57,40.24,26.12,41.73Z"/><path   fill="#005cab" d="M98.35,67.76v-16h1.18V66.58h3v1.18Z"/><path   fill="#005cab" d="M113.37,64.88a2.73,2.73,0,0,1-.58,2,2.49,2.49,0,0,1-2.11,1c-1.73,0-2.79-1.2-2.79-3.14V51.73h1.18V64.78c0,1.34.5,2,1.54,2a1.6,1.6,0,0,0,1-.36c.46-.36.57-.7.57-1.64V51.73h1.16Z"/><path   fill="#005cab" d="M119.22,67.76,123,52.91H119.5V51.73h5.07l-3.82,14.85h4v1.18Z"/><path   fill="#005cab" d="M130.75,67.76V56.88h-.6l-.43-1.18h1v-4h4.11v1.18h-2.93V55.7h2.78l.44,1.18h-3.22v9.7h2.95v1.18Z"/><path   fill="#005cab" d="M146.28,67.76l-4.13-3.46v3.46H141v-16h.86a6.36,6.36,0,0,1,6.47,6.37,6.45,6.45,0,0,1-2,4.64,5.79,5.79,0,0,1-2.42,1.46l4.25,3.56Zm-1.15-5.5a5.29,5.29,0,0,0,2-4.11,5.64,5.64,0,0,0-2.05-4.23,4.6,4.6,0,0,0-2.95-1.08V63.36A4.65,4.65,0,0,0,145.13,62.26Z"/><path   fill="#005cab" d="M158.38,67.76V55.55l-3.36-2V67.76h-1.18V51.47l4.54,2.74V51.73h1.16v16Z"/><path   fill-rule="evenodd" fill="#005cab" d="M43.4,21.85V14.16h6.34V10.7h-9.8V21.85ZM39.94,25.3v21h9.85V42.84H43.4V25.3Z"/><path   fill="#ffd400" stroke="#ffd400" stroke-width="0.14px" fill-rule="evenodd" d="M49.46,21.85H37.54l1.27,3.45H50.73Z"/><path   fill-rule="evenodd" fill="#005cab" d="M93.39,21.85V14.16h6.35V10.7h-9.8V21.85ZM89.94,25.3v21h9.85V42.84h-6.4V25.3Z"/><path   fill="#ffd400" stroke="#ffd400" stroke-width="0.14px" fill-rule="evenodd" d="M99.45,21.85H87.53L88.8,25.3h11.92Z"/><path   fill-rule="evenodd" fill="#005cab" d="M153.15,21.85V14.16h6.34V10.7h-9.8V21.85Zm-3.46,3.45v21h9.85V42.84h-6.39V25.3Z"/><path   fill="#ffd400" stroke="#ffd400" stroke-width="0.14px" fill-rule="evenodd" d="M159.21,21.85H147.29l1.26,3.45h11.92Z"/><polygon   fill-rule="evenodd" fill="#005cab" points="66.34 58.64 74.02 64.36 81.7 58.64 66.34 58.64"/><polygon   fill-rule="evenodd" fill="#005cab" points="68.84 68.01 76.91 62.29 73.72 53.15 68.84 68.01"/><polygon   fill-rule="evenodd" fill="#005cab" points="73.72 53.15 70.83 61.97 78.76 67.67 73.72 53.15"/><polygon   fill-rule="evenodd" fill="#005cab" points="41.38 58.64 49.06 64.36 56.74 58.64 41.38 58.64"/><polygon   fill-rule="evenodd" fill="#005cab" points="43.88 68.01 51.95 62.29 48.76 53.15 43.88 68.01"/><polygon   fill-rule="evenodd" fill="#005cab" points="48.76 53.15 45.87 61.97 53.8 67.67 48.76 53.15"/><polygon   fill-rule="evenodd" fill="#005cab" points="16.8 58.64 24.48 64.36 32.16 58.64 16.8 58.64"/><polygon   fill-rule="evenodd" fill="#005cab" points="19.3 68.01 27.36 62.29 24.17 53.15 19.3 68.01"/><polygon   fill-rule="evenodd" fill="#005cab" points="24.17 53.15 21.28 61.97 29.22 67.67 24.17 53.15"/></svg>