<svg xmlns="http://www.w3.org/2000/svg" id="zurzacheroff-logo" class="logo" viewBox="0 0 266.04 152.04"><path d="M51.35 151.94l3.3-4.64h-2.71v-.53h3.78l-3.3 4.63h3.2v.54zM59.65 146.77h.59v3.3a1.39 1.39 0 1 0 2.77 0v-3.3h.59v3.36a1.81 1.81 0 0 1-.54 1.4 2.33 2.33 0 0 1-2.86 0 1.78 1.78 0 0 1-.55-1.4zM68.12 151.94v-5.17h1.8a1.54 1.54 0 0 1 1.12.44 1.44 1.44 0 0 1 .46 1.1 1.55 1.55 0 0 1-1 1.47l1.27 2.16h-.67l-1.19-2.05h-1.2v2.05zm.59-2.59h1.15a1 1 0 0 0 1-1 1 1 0 0 0-1-1h-1.15zM75.58 151.94l3.3-4.64h-2.71v-.53H80l-3.31 4.63h3.2v.54zM83.69 151.94l2.39-5.36 2.39 5.36h-.65l-.56-1.28h-2.38l-.57 1.28zm1.42-1.81H87l-1-2.2zM96.67 147.22v.67a2.23 2.23 0 0 0-1.67-.69 2.12 2.12 0 0 0-2.16 2.15 2.11 2.11 0 0 0 .62 1.55 2.08 2.08 0 0 0 1.54.61 2.2 2.2 0 0 0 1.66-.69v.67A2.53 2.53 0 0 1 95 152a2.73 2.73 0 0 1-2-.76 2.6 2.6 0 0 1-.8-1.93 2.55 2.55 0 0 1 .8-1.91 2.74 2.74 0 0 1 2-.77 2.53 2.53 0 0 1 1.67.59zM101.31 151.94v-5.17h.59v2.15h2.93v-2.15h.59v5.17h-.59v-2.48h-2.93v2.48zM110.22 151.94v-5.17h3v.53h-2.39v1.64h2.25v.53h-2.25v1.93h2.44v.54zM117.78 151.94v-5.17h1.8a1.54 1.54 0 0 1 1.12.44 1.44 1.44 0 0 1 .46 1.1 1.54 1.54 0 0 1-1 1.47l1.27 2.16h-.67l-1.19-2.05h-1.19v2.05zm.59-2.59h1.15a1 1 0 0 0 1-1 1 1 0 0 0-1-1h-1.18zM125.76 151.94v-5.17h.6v2.15h2.92v-2.15h.59v5.17h-.59v-2.48h-2.92v2.48zM134.33 149.35a2.54 2.54 0 0 1 .79-1.91 2.75 2.75 0 0 1 2-.77 2.7 2.7 0 0 1 1.94.77 2.52 2.52 0 0 1 .8 1.91 2.56 2.56 0 0 1-.8 1.93 2.69 2.69 0 0 1-1.94.76 2.74 2.74 0 0 1-2-.76 2.59 2.59 0 0 1-.79-1.93zm.58 0a2.1 2.1 0 0 0 2.17 2.16 2.08 2.08 0 0 0 1.54-.61 2.1 2.1 0 0 0 .61-1.55 2.1 2.1 0 0 0-2.15-2.15 2.11 2.11 0 0 0-1.55.62 2.08 2.08 0 0 0-.62 1.53zM144.28 151.94v-5.17H147v.53h-2.16v1.7h2v.53h-2v2.44z" fill="#1a171b"/><path d="M7.17 92.08c.57.17 1 .28 1.48.44 1.95.74 3.47 1.92 3.91 4.09a4.82 4.82 0 0 1-1.83 5 7.61 7.61 0 0 1-4.54 1.61c-2 .1-4.09 0-6.19 0V83.88c2.38.1 4.76-.26 7.08.41 2 .59 3.05 1.75 3.19 3.59a4 4 0 0 1-2.58 3.94zm-4.61 10.4h2.69c1.89 0 3.48-.69 4.24-2.53a5.36 5.36 0 0 0-.64-5.67 4.48 4.48 0 0 0-1.65-1.19c-1.48-.64-3.06-.43-4.64-.42zm0-10.67c.89 0 1.7.07 2.49 0a2.72 2.72 0 0 0 2.57-2.06A8 8 0 0 0 7.7 87a2.31 2.31 0 0 0-1.89-2 29.93 29.93 0 0 0-3.24-.38zM17.1 93.62a10.06 10.06 0 0 1 10.15-10.1c6 0 10.47 4.25 10.52 10a10 10 0 0 1-10.27 10.16 10 10 0 0 1-10.4-10.06zm2.79.22a10.73 10.73 0 0 0 1.12 5 6.85 6.85 0 0 0 6 4.07 6.59 6.59 0 0 0 6.59-3.68 11.37 11.37 0 0 0-.17-11.47 7 7 0 0 0-11.86-.34 11 11 0 0 0-1.68 6.42zM90.56 93.62a10.07 10.07 0 0 1 10.16-10.1c5.94 0 10.47 4.25 10.52 10a10.34 10.34 0 0 1-20.68.11zm2.8.22a10.6 10.6 0 0 0 1.12 5 6.83 6.83 0 0 0 6 4.07 6.61 6.61 0 0 0 6.6-3.68 11.37 11.37 0 0 0-.18-11.47 7 7 0 0 0-11.85-.34 10.9 10.9 0 0 0-1.69 6.42zM136.91 103.24v-19.3h11v.7h-8.42V93h7l.06.75h-7v8.73h8.36l.06.78zM124.5 54.37l8 19.92h-2.41c-.16 0-.38-.27-.46-.47-.66-1.59-1.31-3.18-1.92-4.79a.77.77 0 0 0-.86-.58h-6.63a.71.71 0 0 0-.8.55c-.61 1.56-1.25 3.11-1.85 4.67-.19.51-.42.81-1 .55zM120 67.62h7.16l-3.58-8.9zM43.08 83.92h2.53v12.91a13.52 13.52 0 0 0 .19 2.2c.45 2.58 2.14 3.9 4.83 3.82 3.43-.11 5.52-2.06 5.62-5.53.13-4.14.1-8.29.14-12.43v-1h.71a2.92 2.92 0 0 1 .08.51c0 4.26 0 8.52-.09 12.78a7.16 7.16 0 0 1-1 3.55 5.9 5.9 0 0 1-5.46 2.88 7.35 7.35 0 0 1-5.59-1.9 6.72 6.72 0 0 1-1.89-4.62c-.12-3.06-.12-6.13-.16-9.19.08-1.31.09-2.61.09-3.98zM130.15 83.89h.73a3.34 3.34 0 0 1 .06.51c0 4.26 0 8.52-.09 12.78a7.11 7.11 0 0 1-1.15 3.82 5.37 5.37 0 0 1-3.82 2.47 8.81 8.81 0 0 1-5.65-.71 6.06 6.06 0 0 1-3.23-5.42c-.17-4.42-.13-8.84-.17-13.26 0 0 0-.08.08-.16h2.46v12.84a13.17 13.17 0 0 0 .18 2.26c.48 2.59 2.17 3.89 4.86 3.79 3.41-.11 5.48-2 5.59-5.47.14-4.19.1-8.38.14-12.58zM72.39 54.9h2.38c.2 0 .44.33.53.57q2.85 7 5.66 14l.35.81c.13-.31.24-.54.34-.77l5.68-14c.2-.5.45-.72 1-.48l-8 19.65zM108.83 74.27h-2.56v-18.6h-5.89v-.73h14.41v.7h-5.94zM76 83.93v.71h-5.92v18.61h-2.54V84.68h-5.91v-.75zM137.92 54.93h2.5v18.54h7.46l.06.78h-10zM95.46 74.26H93V55h2.5zM84.19 103.26h-2.5V83.94h2.5zM75 112.92h2.54v19.31H75v-9.42H64.29v9.43h-2.53v-19.32h2.49v9H75zM82.75 120.22c.12-4.6 3.82-7.86 8.61-7.69a7.93 7.93 0 0 1 7.81 8.34c-.26 4-3.73 7.25-8.36 7.2a7.84 7.84 0 0 1-8.06-7.85zm13.81.1a9 9 0 0 0-.73-3.54c-.94-2.31-2.5-3.63-4.84-3.64-2.51 0-4 1.23-4.94 3.48a9.34 9.34 0 0 0-.65 3.75 9 9 0 0 0 .85 4c1.77 3.63 6 4.22 8.59 1.17a7.86 7.86 0 0 0 1.72-5.22zM123.7 122h7v.74h-7v8.74h8.38v.77h-11v-19.32h11v.72h-8.38zM110.54 132.26H108v-18.58h-5.9v-.75h14.33l.06.69h-5.94zM137.93 112.92h2.49v18.54h7.47l.06.78h-10zM86.02 131.56h9.59v.68h-9.59z"/><path d="M103.388 97.584l6.781 6.781-.48.481-6.782-6.781z"/><path d="M265 .35c-1.15-.86-2.08 0-2.59.89C261 3.47 260 5.1 258.66 7.33l-8 13.34q-8 13.35-16.09 26.69l-16.12 26.69-16.08 26.7-16.08 26.69-4.42 7.34c.49-24.57 1.53-47.27 1.59-71.83 0-10.44-.09-20.85-.61-31.27-.2-4-.57-8.35-3.34-11.51-2.34-2.66-5.88-2.2-9.15-1.74-11.42 1.59-35.07 7.21-37.45 8a5.73 5.73 0 0 0-3.78 3.47c-.81 2.5 2.75 1.25 3.54 1 5-1.62 21.31-6.76 24.54-7.56 2.82-.7 6.22-1.91 9.13-1.2 5.73 1.42 5.86 9.06 6.15 13.75 1.23 19.77.62 39.51.3 59.3q-.43 27.3-.88 54.6a2.86 2.86 0 0 0 .24 1.48 2 2 0 0 0 2.65.45 5.82 5.82 0 0 0 1.88-2.28q41.06-72.81 87.75-142.25A8 8 0 0 0 266 3.76c.13-.91-.26-2.84-1-3.41z" fill="#b07378"/></svg>