<svg class="logo" id="metropolisresort-logo" xmlns="http://www.w3.org/2000/svg" viewBox="0 0 1280 563"><path d="M172.07 67.54Q158.21 74 149.91 84.46a72.74 72.74 0 0 0-11.85 22.81 100.75 100.75 0 0 0-4.61 25.09q-.7 12.6-.7 31.44h-23.43a388.51 388.51 0 0 0-1.92-41.66 78.59 78.59 0 0 0-10.24-30.8Q88.72 76.66 70.39 68l.06 141.08h-23.9l-.07-174.29q11.18 0 27.23 7.48a117.45 117.45 0 0 1 28.49 19.28q13.27 12 18.63 24.62 9.15-19.76 33-35.59t41.86-15.85l.07 174.33h-23.63zM223.94 156.06q3 17.56 17.7 29.55a52.14 52.14 0 0 0 33.93 12v16.13a76.06 76.06 0 0 1-12.11-.95 63.47 63.47 0 0 1-11.28-2.9 67.74 67.74 0 0 1-10.82-5 72 72 0 0 1-14-10.24 65.72 65.72 0 0 1-11.08-13.82A61.55 61.55 0 0 1 207 148a63 63 0 0 1 9.23-32.9 64.82 64.82 0 0 1 10.82-13.5 72.9 72.9 0 0 1 14.23-10.58 68.44 68.44 0 0 1 34.21-8.75v16.49a53.56 53.56 0 0 0-23.81 5.4 59.19 59.19 0 0 0-10.07 6.46 54.49 54.49 0 0 0-8.4 8.29 47.42 47.42 0 0 0-9.32 21.18h51.61v16zM291.42 112.73l-6-16.12q19.8-14.31 42.62-14.32A74.94 74.94 0 0 1 351.19 86a59.11 59.11 0 0 1 19.49 10.56l-6.32 16.12q-14.33-11.26-28-14l.07 110.32h-16.74V98.65a59 59 0 0 0-14.45 4.93 66 66 0 0 0-13.82 9.15zM399 157.26a34 34 0 0 0 20.31-8.66 23.78 23.78 0 0 0 4.24-31.39 32.63 32.63 0 0 0-11.25-9.61 33.21 33.21 0 0 0-15.48-3.6v105h-16.69l-.05-122q9.82 0 16.73.63a57.87 57.87 0 0 1 23.65 6.5 45.37 45.37 0 0 1 17.23 15.33 38.3 38.3 0 0 1-.14 42.42A45.75 45.75 0 0 1 420 167.34 84.67 84.67 0 0 0 434.48 186q8.49 8.34 16.91 11.91v15.73a72.86 72.86 0 0 1-24.56-13.1 74.74 74.74 0 0 1-16.91-19.22A120.26 120.26 0 0 1 399 157.26zM520.23 82.22a69.44 69.44 0 0 1 34.3 8.72A71.13 71.13 0 0 1 579.59 115a63.13 63.13 0 0 1 0 65.78 70.08 70.08 0 0 1-25 24 68 68 0 0 1-34.29 8.87 74.92 74.92 0 0 1-12.11-.94 63.88 63.88 0 0 1-11.28-2.9 69.13 69.13 0 0 1-10.83-5 72 72 0 0 1-14-10.24A66 66 0 0 1 461 180.68a61.58 61.58 0 0 1-9.26-32.68 63 63 0 0 1 9.23-32.9 64.56 64.56 0 0 1 10.82-13.51A72.56 72.56 0 0 1 486 91a68.34 68.34 0 0 1 34.23-8.78zm0 15.81a53.69 53.69 0 0 0-26.05 6.67 52.14 52.14 0 0 0-19.06 18.41 46.62 46.62 0 0 0 0 49.65A50.19 50.19 0 0 0 494.21 191a52.09 52.09 0 0 0 26.06 6.81 52.84 52.84 0 0 0 26.31-6.81 49.66 49.66 0 0 0 18.89-18.25 47.25 47.25 0 0 0 6.81-24.83 47.36 47.36 0 0 0-15.16-35.21 53.76 53.76 0 0 0-16.74-10.94A56.92 56.92 0 0 0 520.23 98zM616 172.91v36h-16.72v-122c6.54 0 12.13.2 16.73.62A58 58 0 0 1 639.6 94a45.24 45.24 0 0 1 17.24 15.33 37.87 37.87 0 0 1 6.34 21.13 37.13 37.13 0 0 1-6.32 21.13 44.44 44.44 0 0 1-17.39 15.5 49.19 49.19 0 0 1-23.47 5.82zm0-15.73a34.33 34.33 0 0 0 15.65-3.74 30.27 30.27 0 0 0 11.07-9.78 23.63 23.63 0 0 0 0-26.53 32.52 32.52 0 0 0-11.25-9.61A33.24 33.24 0 0 0 616 104zM740.16 82.14a69.41 69.41 0 0 1 34.3 8.72 71.13 71.13 0 0 1 25.07 24.06 63.2 63.2 0 0 1 0 65.79 70.08 70.08 0 0 1-25 24 68.09 68.09 0 0 1-34.29 8.87 76.28 76.28 0 0 1-12.12-.95 63.45 63.45 0 0 1-11.28-2.89 68.21 68.21 0 0 1-10.82-5 71.13 71.13 0 0 1-14-10.24 65.52 65.52 0 0 1-11.08-13.82 61.54 61.54 0 0 1-9.25-32.73 62.82 62.82 0 0 1 9.22-32.95 64.25 64.25 0 0 1 10.81-13.51A73.15 73.15 0 0 1 706 90.89a68.34 68.34 0 0 1 34.16-8.75zm0 15.8a53.74 53.74 0 0 0-26.06 6.68A52.18 52.18 0 0 0 695.06 123a46.62 46.62 0 0 0 0 49.65 50.19 50.19 0 0 0 19.07 18.24 52.19 52.19 0 0 0 26.06 6.81 52.93 52.93 0 0 0 26.3-6.83 49.74 49.74 0 0 0 18.89-18.25 47.26 47.26 0 0 0 6.82-24.83 47.28 47.28 0 0 0-15.17-35.21 53.6 53.6 0 0 0-16.73-10.94 56.71 56.71 0 0 0-20.13-3.7zM819.17 86.79h16.73v106.06h37.8v16h-54.52zM882.27 86.77H899v122h-16.68zM964.7 86.74v20.42q-10.47-9.3-21.61-9.29-8.07 0-13.47 4a13.86 13.86 0 0 0-5.4 11.58 12.32 12.32 0 0 0 2 6.5 22.07 22.07 0 0 0 6 6.35 95 95 0 0 0 9.72 7c1.77 1.17 4.16 2.75 7.15 4.76l5.89 4q21.74 14.39 21.73 32.41 0 17.24-11.39 28.12t-30.13 10.9q-16.73 0-27.31-4.68v-19.49a49.5 49.5 0 0 0 27.26 8.33 27.12 27.12 0 0 0 17.7-6q7.3-5.79 7.31-17.21 0-7.07-5.65-12.69a89.4 89.4 0 0 0-16-11.5 123.59 123.59 0 0 1-14.29-9.11 79.82 79.82 0 0 1-12-12.08q-4.41-5.64-4.42-15.57a27.57 27.57 0 0 1 4.74-15.82A32.45 32.45 0 0 1 925 86.43a40.14 40.14 0 0 1 18-4.37 70.27 70.27 0 0 1 12 1.26 31 31 0 0 1 9.7 3.42zM73.6 340.7a48.45 48.45 0 0 0 29-12.38q11.9-10.56 11.89-25.77a33.33 33.33 0 0 0-5.84-19.06 46.44 46.44 0 0 0-16.05-13.73 47.52 47.52 0 0 0-22.12-5.1l.06 149.93H46.63l-.07-174.33q14 0 23.91.9a82.51 82.51 0 0 1 33.77 9.29 64.64 64.64 0 0 1 24.63 21.9 54.09 54.09 0 0 1 9 30.18 53.45 53.45 0 0 1-9.21 30.47 65.3 65.3 0 0 1-25.09 22.14 120.85 120.85 0 0 0 20.71 26.67q12.14 11.91 24.15 17v22.47q-20.46-6.57-35.09-18.71a106.74 106.74 0 0 1-24.16-27.46A172.37 172.37 0 0 1 73.6 340.7zM174.08 361.56q3 17.56 17.7 29.55a52.1 52.1 0 0 0 33.93 12v16.13a76.06 76.06 0 0 1-12.11-1 63.25 63.25 0 0 1-11.28-2.9 67.36 67.36 0 0 1-10.83-5 71.84 71.84 0 0 1-14-10.24 66 66 0 0 1-11.07-13.82 61.55 61.55 0 0 1-9.26-32.73 62.89 62.89 0 0 1 9.23-32.89 64.62 64.62 0 0 1 10.82-13.52 73.26 73.26 0 0 1 14.23-10.57 68.34 68.34 0 0 1 34.21-8.75v16.45a53.55 53.55 0 0 0-23.8 5.4 59.19 59.19 0 0 0-10.07 6.46 54.12 54.12 0 0 0-8.41 8.29 47.41 47.41 0 0 0-9.31 21.18h51.61v16zM292.45 292.47v20.42q-10.47-9.28-21.61-9.29-8.05 0-13.46 4a13.86 13.86 0 0 0-5.4 11.59 12.33 12.33 0 0 0 2 6.5 21.93 21.93 0 0 0 6 6.34 95.21 95.21 0 0 0 9.72 7q2.67 1.74 7.15 4.76l5.9 4q21.72 14.37 21.73 32.4 0 17.25-11.4 28.13t-30.16 10.88q-16.73 0-27.3-4.68v-19.46a49.5 49.5 0 0 0 27.26 8.33 27.17 27.17 0 0 0 17.71-6q7.31-5.79 7.3-17.22 0-7-5.65-12.69a90.17 90.17 0 0 0-16-11.49 121.1 121.1 0 0 1-14.24-9.15 78.89 78.89 0 0 1-12-12.07q-4.42-5.64-4.42-15.58a27.44 27.44 0 0 1 4.73-15.81 32.32 32.32 0 0 1 12.47-11.21 40.24 40.24 0 0 1 18-4.38 70.4 70.4 0 0 1 12 1.27 31.33 31.33 0 0 1 9.67 3.41zM380.83 287.75a69.55 69.55 0 0 1 34.3 8.73 71 71 0 0 1 25.07 24.06 63.19 63.19 0 0 1 0 65.78 70.19 70.19 0 0 1-25.05 24 68.31 68.31 0 0 1-34.3 8.87 76.06 76.06 0 0 1-12.11-1 63.47 63.47 0 0 1-11.28-2.9 66.88 66.88 0 0 1-10.82-5 71.24 71.24 0 0 1-14-10.24 65.46 65.46 0 0 1-11.08-13.82 61.55 61.55 0 0 1-9.26-32.73 62.91 62.91 0 0 1 9.23-32.89 64.62 64.62 0 0 1 10.82-13.51 72.85 72.85 0 0 1 14.23-10.57 68.34 68.34 0 0 1 34.25-8.78zm0 15.81a53.81 53.81 0 0 0-26.06 6.67 52.19 52.19 0 0 0-19 18.41 46.63 46.63 0 0 0 0 49.66 50.19 50.19 0 0 0 19.07 18.24 52.13 52.13 0 0 0 26.06 6.81 52.93 52.93 0 0 0 26.3-6.83 49.81 49.81 0 0 0 18.89-18.25 47.3 47.3 0 0 0 6.82-24.84 47.32 47.32 0 0 0-15.17-35.21A54.11 54.11 0 0 0 401 307.28a56.87 56.87 0 0 0-20.16-3.72zM478.76 362.71a34 34 0 0 0 20.3-8.66 23.78 23.78 0 0 0 4.24-31.39 32.68 32.68 0 0 0-11.24-9.61 33.25 33.25 0 0 0-15.49-3.57v105h-16.69l-.05-122q9.82 0 16.73.63a57.73 57.73 0 0 1 23.65 6.51 45.29 45.29 0 0 1 17.24 15.32 37.89 37.89 0 0 1 6.33 21.06 37.49 37.49 0 0 1-6.48 21.3 45.8 45.8 0 0 1-17.56 15.49 84.67 84.67 0 0 0 14.49 18.67q8.5 8.34 16.91 11.91v15.73a73 73 0 0 1-24.56-13.1 74.74 74.74 0 0 1-16.91-19.22 119.66 119.66 0 0 1-10.91-24.07zM530.68 318.12l-6-16.12q19.8-14.31 42.61-14.32a75 75 0 0 1 23.15 3.73A59 59 0 0 1 609.93 302l-6.32 16.13q-14.33-11.28-28-14.05v110.35H559l-.05-110.35a58.55 58.55 0 0 0-14.49 4.92 65.74 65.74 0 0 0-13.78 9.12z" fill="#1358ff"/><path d="M40 455.22h6.71L52 473.67l6.37-18.45h6.71l6.38 18.45 5.32-18.45h6.71l-8.67 27.48h-6.21l-6.8-18.89-6.81 18.9h-6.27zM107.64 469.53v13.16h-5.91v-11.92a4 4 0 0 0-4.11-4.32c-2.56 0-4.53 1.76-4.53 4v12.25H87v-28h6.13v9.81a8 8 0 0 1 6.5-3 7.71 7.71 0 0 1 8.01 8.02zM128 476.16l3.91 3.8c-1.93 1.92-5.66 3.21-8.85 3.21-6.46 0-11.49-4.52-11.49-10.88s4.81-10.77 11.15-10.77c6.79 0 10.77 4.91 10.78 12.72h-15.62A5.22 5.22 0 0 0 123 478a8 8 0 0 0 5-1.84zM118 470h9.69a4.51 4.51 0 0 0-4.66-3.36A5.22 5.22 0 0 0 118 470zM151.21 461.51v4.92c-4.53 0-7.42 2.48-7.42 6.36v9.89h-6.13V462h6.13v3.84a8.13 8.13 0 0 1 7.42-4.33zM170 476.15l3.9 3.8c-1.93 1.92-5.66 3.2-8.85 3.2-6.46 0-11.49-4.52-11.49-10.88s4.82-10.77 11.15-10.77c6.79 0 10.78 4.92 10.78 12.72h-15.68A5.23 5.23 0 0 0 165 478a8.06 8.06 0 0 0 5-1.85zM159.89 470h9.69a4.5 4.5 0 0 0-4.66-3.36 5.23 5.23 0 0 0-5.03 3.36zM204.18 481.34a8.13 8.13 0 0 1-5 1.8 6.15 6.15 0 0 1-6.51-6.32v-10.13h-3V462h3v-5.68h5.87V462h4.7v4.73h-4.7v9.2a2.14 2.14 0 0 0 2.05 2.32 3.25 3.25 0 0 0 2.1-.68zM228.58 469.48v13.17h-5.91v-11.93a4 4 0 0 0-4.11-4.32 4.24 4.24 0 0 0-4.52 4v12.25h-6.12v-28H214v9.8a8.06 8.06 0 0 1 6.5-3 7.73 7.73 0 0 1 8.08 8.03zM249 476.12l3.9 3.8c-1.93 1.92-5.66 3.2-8.84 3.2-6.46 0-11.5-4.52-11.5-10.88s4.82-10.77 11.15-10.77c6.79 0 10.78 4.92 10.78 12.72h-15.68A5.23 5.23 0 0 0 244 478a8.06 8.06 0 0 0 5-1.88zM238.89 470h9.69a4.5 4.5 0 0 0-4.66-3.36 5.23 5.23 0 0 0-5.03 3.36zM276.67 460.46v6h14.47v5.33h-14.47v10.89h-6.21v-27.54h22.19v5.32zM317.39 461.92v20.69h-6.13V480a7.85 7.85 0 0 1-6.54 3.09 7.72 7.72 0 0 1-8.05-8v-13.16h5.92v11.93a4 4 0 0 0 4.11 4.31c2.56 0 4.53-1.76 4.53-4v.12-12.37zM343.22 469.44v13.16h-5.92v-11.92a4 4 0 0 0-4.11-4.32c-2.56 0-4.53 1.76-4.53 4v-.12 12.37h-6.13v-20.69h6.13v2.6a7.85 7.85 0 0 1 6.54-3.08 7.72 7.72 0 0 1 8.02 8zM360.49 455.1h6.16l13.89 17.76v-17.77h6.2v27.5h-6.2l-13.89-17.77v17.77h-6.15zM407.76 476.06l3.9 3.8c-1.93 1.92-5.66 3.2-8.85 3.2-6.46 0-11.49-4.52-11.49-10.88s4.82-10.77 11.15-10.77c6.79 0 10.78 4.92 10.78 12.72h-15.64a5.23 5.23 0 0 0 5.16 3.76 8.06 8.06 0 0 0 4.99-1.83zm-10.07-6.12h9.69a4.5 4.5 0 0 0-4.66-3.36 5.23 5.23 0 0 0-5.03 3.36zM415.26 461.88h6.41l5.84 14 5.7-14h6.37l-9.26 20.69h-5.66zM456.69 476l3.91 3.8c-1.93 1.92-5.67 3.2-8.85 3.2-6.46 0-11.49-4.52-11.5-10.88s4.82-10.77 11.15-10.77c6.8 0 10.78 4.92 10.79 12.72h-15.64a5.22 5.22 0 0 0 5.15 3.76 8.06 8.06 0 0 0 4.99-1.83zm-10.06-6.12h9.68a4.49 4.49 0 0 0-4.65-3.36 5.23 5.23 0 0 0-5.03 3.4zM479.88 461.38v4.92c-4.53 0-7.42 2.49-7.42 6.37v9.88h-6.12v-20.68h6.12v3.84a8.12 8.12 0 0 1 7.42-4.33zM493.38 478.46l3.57-4a14.59 14.59 0 0 0 9.47 3.6c3.11 0 4.7-1.36 4.7-3.08 0-2-1.68-2.56-6.08-3.52-6.08-1.32-10.4-3-10.4-8.28 0-5.09 4.35-8.57 10.64-8.57a17.21 17.21 0 0 1 11.29 3.79l-3.23 4.25a13.73 13.73 0 0 0-8.22-3c-2.64 0-4.24 1.32-4.24 3 0 2 1.72 2.64 6.17 3.6 6.21 1.32 10.32 3.08 10.32 8.16 0 5.25-4.15 8.73-11.19 8.73a19.06 19.06 0 0 1-12.8-4.68zM534.52 481.21a8.09 8.09 0 0 1-5 1.8 6.14 6.14 0 0 1-6.5-6.32v-10.12h-3v-4.73h3v-5.68h5.87v5.68h4.69v4.72h-4.68v9.21a2.16 2.16 0 0 0 2.06 2.32 3.2 3.2 0 0 0 2.09-.68zM537.12 472.16c0-5.88 5.4-10.8 11.86-10.8s11.79 4.91 11.79 10.8S555.41 483 549 483s-11.88-4.95-11.88-10.84zm17.82 0a6 6 0 1 0-6 5.92 6 6 0 0 0 6-5.92zM588.28 472.14c0 6.37-4.19 10.85-10 10.85a8.92 8.92 0 0 1-7.25-3.4v9.81h-6.12v-27.57H571v2.88a9.11 9.11 0 0 1 7.25-3.37c5.83 0 10.02 4.48 10.03 10.8zm-6 0a5.59 5.59 0 0 0-5.79-5.88 5.42 5.42 0 0 0-5.49 5.08V473a5.43 5.43 0 0 0 5.5 5.12 5.6 5.6 0 0 0 5.82-5.97zM591 479.87l2.64-4a12.83 12.83 0 0 0 7.26 2.31c1.64 0 2.81-.64 2.81-1.56 0-1.28-1.6-1.68-3.82-2.24-4.44-1-7.88-2.2-7.93-6.28 0-3.92 3.35-6.72 8.47-6.72a16.24 16.24 0 0 1 8.56 2.55l-2.48 4.17a12.67 12.67 0 0 0-6.08-1.84c-1.51 0-2.55.52-2.55 1.24 0 1.12.88 1.44 3.81 2.2 3.73.92 7.89 2.12 7.89 6.64 0 4.08-3.48 6.68-8.8 6.69a16.57 16.57 0 0 1-9.78-3.16zM914.33 343.26A144.75 144.75 0 0 0 888 329.88c-11.7-4.52-29.08-8.27-35.62-9.43s-21.3-3.19-31.39-4q-7.31-.62-14.52-.74c-78.78-1.41-149.36 40-185.23 103.09v-.05c37.45-42.53 111.52-66 173.9-60.75a193.83 193.83 0 0 1 38.47 7.2s9.34 3.19 14.05 5a113.44 113.44 0 0 1 23.12 12.11c-20.42 7-37.76 21.89-46.54 42.58-16.33 38.48 3.12 82.31 43.45 97.9a81.86 81.86 0 0 0 31.34 5.49c30.47-.67 59.07-18.28 71.23-47v-.08s.27-.6.7-1.72a72.42 72.42 0 0 0 3.74-12.85c5.63-25.51 7.3-79.76-60.37-123.37zM958.65 454c2.27 28.25-19.4 53-48.7 56.06a24.37 24.37 0 0 1-3.57.54 22.94 22.94 0 0 1-5.94-.33c-9.57-1.77-17.12-9.46-17.9-19.19-.84-10.44 6.4-19.69 16.69-22.16a24.17 24.17 0 0 1 3.76-.59c.65 0 1.31-.06 2-.06 22.14-3.61 39.37-19.71 44.21-40a50.68 50.68 0 0 1 9.45 25.73z" fill="#46f5f0"/><path d="M1240 157v-.14c0-47.75-30.26-88.74-73.45-106.53a126 126 0 0 0-48.18-9.45c-67.15 0-121.56 52-121.53 116.07 0 34.46 15.77 65.4 40.77 86.64a181.59 181.59 0 0 1-40.43 4.56 165.88 165.88 0 0 1-39.09-4.63C951 241.9 945 240 935.57 237.4c-21-5.76-46.67-8.89-71.34-8.88-6.52 0-13 .23-19.38.65-116.73 7.79-213.39 85-244.94 188.69h.15c39.67-78.89 137.21-131.21 235-131.24a255.54 255.54 0 0 1 94.26 17.8q9.15 4.59 18.81 8.35a226.15 226.15 0 0 0 82.25 15.3 228.9 228.9 0 0 0 45.77-4.62c123.22-25.05 153.85-103.56 161.37-143.13a112.09 112.09 0 0 0 2.44-20.45c.04-1.87.04-2.87.04-2.87zm-37.45 22.15a72.47 72.47 0 0 1-30 22.3c9.86-26.05 2.67-56-19.45-75.23-.73-.44-1.44-.9-2.15-1.41a29.52 29.52 0 0 1-3.77-3.23 27.3 27.3 0 0 1-2-36.35c8.22-10.38 22.49-13.82 34.57-9.23a30 30 0 0 1 6.91 3.71 30.56 30.56 0 0 1 3.6 3.06c30.5 23.6 36.16 66.23 12.29 96.4z" fill="#46f5f0"/></svg>