<svg xmlns="http://www.w3.org/2000/svg" id="kelley-logo" class="logo" viewBox="0 0 329.53 90"><path d="M114 0v2.77c-1 .12-2 .2-3 .35a3.26 3.26 0 0 0-3 3 28.8 28.8 0 0 0-.3 3.88v16.44a1.87 1.87 0 0 0 1.09 1.87c5.23 3 9.53 7 11.88 12.61 3.83 9.17 4.73 18.66 1 28.05-4.44 11.16-13 17.65-24.66 20-2.14.44-4.33.67-6.49 1H84c-.46-.08-.92-.19-1.39-.23-5-.51-10-1.15-14.74-3.07-9.73-3.94-17.82-10.27-25.15-17.64A135.85 135.85 0 0 1 21.61 40.8c-.21-.37-.44-.72-.66-1.08h-.4a5.88 5.88 0 0 0-.34 1.39v34a32.5 32.5 0 0 0 .29 4.18c.56 4 2 5.32 6 5.77 1.09.13 2.2.15 3.26.22v3.24H1.43c-.48 0-.95.05-1.43.07V85.2c1.71-.15 3.43-.19 5.12-.47A4.46 4.46 0 0 0 9 80.88a30.69 30.69 0 0 0 .59-5.23V12.92A31.71 31.71 0 0 0 9 7.69a4.46 4.46 0 0 0-3.88-3.84C3.43 3.56 1.71 3.51 0 3.36V0h29.76v3.25c-1.6.17-3.07.27-4.53.49a5 5 0 0 0-4.55 4.53 40.54 40.54 0 0 0-.47 5.49c-.05 7.64 0 15.28 0 22.92v1.12a2.41 2.41 0 0 0 .44-.28c7.54-7.72 15.11-15.43 22.61-23.19a90.76 90.76 0 0 0 6.09-6.92c1.43-1.8.71-3.33-1.56-3.8-.93-.19-1.88-.22-2.89-.33V0h37.9v2.83l-1.55.09c-3.24.23-4.49 1.23-4.61 4.47-.19 5.26-.09 10.54-.11 15.81 0 .07.07.14.12.24a51.1 51.1 0 0 1 23.94 1.17v-.69-14.5a22 22 0 0 0-.32-3.34 3.3 3.3 0 0 0-3-2.95c-1-.15-2-.24-3-.36V0zM30.33 33.84a327.15 327.15 0 0 0 23.8 30.69c4.12 4.59 8.34 9.08 13.58 12.44 9.4 6 19.51 8.9 30.71 6.55a30.52 30.52 0 0 0 12-5c5.95-4.31 8.74-10.3 9.29-17.51.63-8.33-1.18-15.91-6.9-22.23a52.07 52.07 0 0 0-5-4.27c-.06.6-.1.78-.1 1v12.84a18 18 0 0 0 .3 3.1 3.27 3.27 0 0 0 3.15 3.08c.93.16 1.88.2 2.8.29v2.61H94.34V54.7h.69c4.27-.16 5.36-1.22 5.56-5.47v-.12c0-5.68 0-11.36.06-17a1.07 1.07 0 0 0-.88-1.18 52.12 52.12 0 0 0-22.09-2.73c-.87.09-1.22.31-1.22 1.29.06 6.2 0 12.4.05 18.59a20.3 20.3 0 0 0 .37 3.57 3.11 3.11 0 0 0 2.69 2.7c1.05.19 2.12.28 3.21.43v2.58H63.05v-2.6a4.19 4.19 0 0 1 .5-.1c4.81-.24 5.73-1.06 5.83-5.89.12-6 .05-12.08.05-18.12a2.57 2.57 0 0 0-.07-.46c-3.6.59-8.52 3.87-14.12 9.41l-1.67-1.17c.26-.43.45-.77.67-1.09a30.54 30.54 0 0 1 14.17-11.6 1.41 1.41 0 0 0 1-1.56V9.9a21.52 21.52 0 0 0-.35-3.9 3.46 3.46 0 0 0-3.92-3.1 7.2 7.2 0 0 0-3.14.83 34.67 34.67 0 0 0-5.88 4.17c-4.77 4.55-9.39 9.27-14 14-3.95 3.89-7.81 7.88-11.79 11.94zM204.24 90a36.52 36.52 0 0 1-5.12-1.42 18.35 18.35 0 0 1-11-13.33c-1.45-6.21-1.28-12.4 1.79-18.18s7.89-9.26 14.59-9.84c5.4-.46 10.35.59 14.42 4.37a20.84 20.84 0 0 1 6.25 11.88c1.19 6.43.57 12.64-3.11 18.26a17.28 17.28 0 0 1-12.6 8 7.37 7.37 0 0 0-.9.22zm-10.58-21.51v1.92c.26 5 1.49 9.78 4.82 13.75a9.87 9.87 0 0 0 8.96 3.84c5-.52 7.7-3.86 9.66-8a27.4 27.4 0 0 0 2.19-14.27 23.25 23.25 0 0 0-3.82-11.57c-4.63-6.77-12.89-6.93-17.71-.29-3.15 4.37-4.14 9.36-4.1 14.62zM175.92 0v1.65c-3.25.53-5.35 2.87-7.54 5.07l-9.78 9.9c5.15 5.5 10.22 10.93 15.3 16.33a10.66 10.66 0 0 0 2.1 1.81c1 .65 2.22 1.12 3.51 1.75V38h-7.55c-.28 0-.58-.36-.82-.62-5.52-6-11-11.94-16.73-18.11v2.41c0 3.64 0 7.28.16 10.9.15 3 .91 3.51 3.92 3.55a2.06 2.06 0 0 1 .38.07v1.7h-14v-1.71c3.9-.36 4.43-1 4.43-4.93V6.42a7.58 7.58 0 0 0 0-.83c-.29-3-.67-3.4-3.66-3.82l-.74-.09-.18-1.68h14.16v1.67c-.32.05-.55.1-.78.12-3 .3-3.54 1-3.61 3.93-.1 3.66-.09 7.33-.11 11a6 6 0 0 0 .1.82c3.08-3.15 6.07-6.18 9-9.25 1.47-1.52 2.91-3.06 4.27-4.66.73-.85.46-1.43-.62-1.71-.45-.12-.9-.2-1.41-.3l.12-1.62zM245.76 90a39.37 39.37 0 0 1-4.83-1.26c-4.88-1.93-6.87-5.84-6.93-10.86-.09-7.28-.08-14.55-.13-21.83a25.2 25.2 0 0 0-.14-2.75c-.24-2.09-1-2.86-3.15-3.07l-1.46-.15v-1.66H244v1.63c-.67.08-1.37.15-2.07.26a2.52 2.52 0 0 0-2.4 2.28 19.41 19.41 0 0 0-.27 2.74c0 6.12-.11 12.24 0 18.36a31 31 0 0 0 1 7.56c2.12 7.65 11.26 8.41 15.17 4.88a9.43 9.43 0 0 0 3-5.47 39 39 0 0 0 .66-6.18c.08-6.32 0-12.64 0-19v-1c-.31-3.66-.61-4-4.26-4.42-.15 0-.3-.08-.47-.12V48.4h12.92v1.69l-1.49.13c-2 .19-2.77.81-3.09 2.82a18.62 18.62 0 0 0-.2 3c-.05 7.07-.06 14.15-.13 21.22 0 4.52-1.53 8.38-5.72 10.61a33.73 33.73 0 0 1-5.52 1.84c-.36.12-.73.2-1.1.3zM279.36 90c-1.47-.26-2.95-.49-4.41-.8-1-.2-2.2-.23-2.81-.84s-.52-1.79-.6-2.74c-.17-1.9-.25-3.81-.36-5.72a5.15 5.15 0 0 1 .06-.62h2c.4 1.19.72 2.39 1.2 3.52a9 9 0 0 0 8.41 5.32 8.38 8.38 0 0 0 7.65-5.58 6.21 6.21 0 0 0-1.63-6.73 73.54 73.54 0 0 0-6.08-5c-3-2.37-6.2-4.52-9-7.09-3.62-3.27-3.21-9.83.48-13.08 2.9-2.55 6.38-3.36 10.07-3.52a28.72 28.72 0 0 1 9.9 1.49c.3.09.74.36.77.59.32 2.43.57 4.87.85 7.37h-2.34a11.39 11.39 0 0 0-3.21-5.48c-3.6-3.17-10-2.64-12.51 1.07a5.87 5.87 0 0 0 .45 7.7 60.69 60.69 0 0 0 6.75 5.51q3.79 2.92 7.72 5.68c5.76 4.08 5 14.51-2.94 17.51A53.7 53.7 0 0 1 284.4 90zM294 0c.24 2.36.49 4.73.74 7.18h-2.07c-.19-.75-.37-1.56-.59-2.35a2.86 2.86 0 0 0-2.73-2.31c-3.46-.19-6.92-.29-10.47-.42v15.11c3.09-.16 6.19-.27 9.27-.49 1.06-.07 1.5-1 1.71-1.92a17.09 17.09 0 0 0 .2-1.71h2V23h-1.89c-.05-.08-.13-.14-.14-.21-.28-3.21-.6-3.61-3.82-3.79-2.42-.14-4.85 0-7.41 0v12.51a3.18 3.18 0 0 0 2.2 3.33 19.39 19.39 0 0 0 9.2.69 3.25 3.25 0 0 0 2.61-2.38c.32-.94.54-1.91.82-2.94h2.08c-.25 2.56-.49 5.08-.75 7.7h-25.83v-1.72a1.46 1.46 0 0 1 .35-.12c3.11-.11 4.06-1 4.07-4.16V5.99a5.52 5.52 0 0 0-.05-.71c-.37-2.77-.7-3.1-3.47-3.46-.27 0-.55-.05-1-.08V0zM206.16 0c.23 2.36.46 4.73.69 7.18h-2c-.18-.75-.33-1.52-.54-2.27a3 3 0 0 0-2.91-2.43c-3.46-.07-6.93 0-10.48 0V17a3.84 3.84 0 0 0 .73.12c2.47 0 5 0 7.42-.11s3-.91 3.11-3.36c0-.15 0-.3.05-.51h2V23h-1.93s-.11-.08-.12-.14c-.26-3.22-.57-3.63-3.78-3.81-2.47-.14-5 0-7.6 0V30.7c0 2.81.93 4.13 3.69 4.57a43.39 43.39 0 0 0 7 .44c2 0 3.17-1.33 3.68-3.21.2-.73.34-1.47.52-2.28h2.08c-.22 2.43-.42 4.83-.71 7.23 0 .21-.63.51-1 .51H181.27V36.2a2.51 2.51 0 0 1 .49-.1c3.82-.09 3.89-1.74 3.92-4.17.12-8.63 0-17.27 0-25.91v-.36c-.28-3.21-.45-3.36-4.51-4V0zM329.28 0c.07.53.15 1.06.25 1.8-3.45-.42-4.5 2.14-5.74 4.34-2.52 4.48-5 9-7.4 13.54a2.89 2.89 0 0 0-.31 1.36v10.55c0 3.55.89 4.4 4.37 4.48.27 0 .53.06.85.09v1.76h-15.53v-1.73c.77-.08 1.55-.12 2.32-.25 1.78-.29 2.4-.92 2.67-2.71a15.5 15.5 0 0 0 .21-2.15V20.89a3.13 3.13 0 0 0-.53-1.43c-2.58-4.42-5.14-8.83-7.79-13.2A14.92 14.92 0 0 0 300 3a12.77 12.77 0 0 0-2.81-1.56c0-.35.08-.9.13-1.44h12l.17 1.67-.54.11c-1.9.33-2.09.65-1.37 2.47a8.47 8.47 0 0 0 .44 1l3.49 6.14 3.56 6.21c2.3-4.27 4.51-8.32 6.67-12.41 1.29-2.44 1.16-2.7-1.43-3.38a1.44 1.44 0 0 1-.29-.19c0-.49.07-1 .1-1.59zM254.4 0l-.13 1.69c-.41.07-.79.15-1.18.2-2.44.32-3 .85-3.22 3.3a15.7 15.7 0 0 0 0 1.68v24c0 2.51.83 3.75 3.29 4a68.77 68.77 0 0 0 7.87.33 3.22 3.22 0 0 0 3.04-2.2 18.08 18.08 0 0 0 .72-2.15c.46-1.77.45-1.77 2.45-1.56l-.88 8.68h-26.2v-1.83a7.3 7.3 0 0 1 .74-.07c2.8-.06 3.69-1 3.69-3.82V6.46c0-3.82-.55-4.43-4.41-4.75L240 0zM225.36 0v1.67l-1.3.18c-2.27.28-2.83.82-3.09 3a17.29 17.29 0 0 0-.13 2v23.88c0 2.6 1 3.9 3.59 4.21a61.85 61.85 0 0 0 6.81.32c2.39 0 3.38-.72 4.21-3 .35-1 .56-2 .87-3.1h2l-.88 8.63h-26.09v-1.61c3.78-.25 4.41-.89 4.42-4.7V6.4a7.55 7.55 0 0 0-.05-.83c-.26-3-.77-3.49-3.68-3.82l-.82-.09c.08-.59.14-1.13.21-1.66zM155.14 66.37H173a7.09 7.09 0 0 0 .11-.85c0-3.83 0-7.67-.11-11.51-.06-2.77-.92-3.63-3.65-3.82l-1-.11v-1.67h14.88v1.65c-.71.1-1.41.22-2.11.29a2.53 2.53 0 0 0-2.37 2.32 15.29 15.29 0 0 0-.24 2.62v26.63c0 4 .67 4.73 4.73 5.07v1.65h-14.85V87c.82-.13 1.64-.25 2.45-.4a2.27 2.27 0 0 0 2-2 16.93 16.93 0 0 0 .33-2.84v-12.6a2.93 2.93 0 0 0-.07-.48h-17.94c0 .29-.08.52-.08.75 0 4.43 0 8.87.08 13.31.05 3.15 1 4 4.13 4.13h.62v1.67h-15.07V87c.73-.08 1.43-.15 2.14-.25a2.7 2.7 0 0 0 2.47-2.52 17.53 17.53 0 0 0 .15-2.51V54.61a7.87 7.87 0 0 0 0-.84c-.27-2.68-1-3.36-3.69-3.59l-1-.1v-1.69h15v1.67c-.33 0-.71.12-1.09.14-2.48.14-3.53.93-3.62 3.38-.2 4.22-.06 8.42-.06 12.79zM327.41 80.56h1.92s.06.05.14.12c-.27 2.64-.53 5.33-.8 8h-27.43V87c.71-.08 1.38-.12 2-.23a2.75 2.75 0 0 0 2.49-2.53 13.25 13.25 0 0 0 .18-1.78V54.28a7.87 7.87 0 0 0-.09-1.08c-.29-2.24-1.08-2.95-3.36-3.07l-1.24-.06v-1.6h26.41c.26 2.42.52 4.86.8 7.4h-2c-.24-.94-.46-1.91-.76-2.85a2.55 2.55 0 0 0-2.15-2c-4-.29-8-.47-12.12-.7v16.5c3.37-.17 6.67-.3 10-.52a2.3 2.3 0 0 0 2.08-2.15c.11-.59.13-1.19.2-1.85h1.95v10.45h-1.91s-.07-.06-.07-.1c-.46-3.77-.78-4.08-4.62-4.21-2.4-.08-4.79 0-7.19-.07a1.38 1.38 0 0 0-.39.12 3.47 3.47 0 0 0-.08.55V81.4c0 2.78 1 4.14 3.72 4.58a47.84 47.84 0 0 0 7.75.52c2.19 0 3.42-1.25 4-3.46.22-.8.37-1.62.57-2.48z" fill="#040040"/><path d="M92.5 71.86h-5.27c.26-.49.44-.87.66-1.22 1.43-2.21 2.91-4.39 4.3-6.63a1.6 1.6 0 0 1 2.19-.8v5.68c0 .41.22 1.18.37 1.19a7.41 7.41 0 0 0 2.14-.24 5.86 5.86 0 0 0 1.32-.73c-.47 2.85-.5 2.87-3.82 3V77c-1.83.41-1.91.35-1.91-1.35zm0-6.76l-3 4.68h3zM78.07 65.06c.94-1.11.18-2.93 2.14-3.51l.07 1.45h5.42c1.46 0 1.52.07.94 1.37-1.77 3.93-3.58 7.84-5.3 11.79-.44 1-1 1.33-2.24.93 1.81-4 3.59-8 5.41-12zM99.76 71.63a11.89 11.89 0 0 0 .78-1c.84-1.34 1.73-2.65 2.46-4a1.57 1.57 0 0 0-.45-2.15 1.52 1.52 0 0 0-2 .31c-.1.09-.27.08-.43.13a2.39 2.39 0 0 1 2.46-2.16 2.34 2.34 0 0 1 2.58 2.24 7.18 7.18 0 0 1-.91 2.77 15 15 0 0 1-1.71 2.12 3.69 3.69 0 0 0 4.2-.73l.17.41c-.25.69-.45 1.4-.76 2.06a1 1 0 0 1-.77.36 15.18 15.18 0 0 1-1.91 0zM71.24 63h4.28c.2 0 .4.26.6.39-.18.2-.34.57-.53.58-.93 0-1.09.58-1.07 1.37v4.3a1 1 0 0 0 .93 1.14c.28 0 .52.35.79.54l-.19.34h-4.92l-.2-.26c.24-.21.46-.59.73-.61.86-.09 1-.59 1-1.32v-4.19c0-.73-.17-1.22-1-1.3-.26 0-.49-.42-.73-.64z" fill="#040040"/></svg>