<svg id="logo-autocamp" class="logo" xmlns="http://www.w3.org/2000/svg" viewBox="0 0 531 150"><path fill="#fff" d="M515,91.75v49.92H0V9H515V89.76c-.55-1-1.09-2-1.64-3-2.47-4.5-6.4-6-10.78-4.06s-6.29,6-4.77,10.53c1.47,4.4,5.81,7.21,10.12,5.34C510.75,97.35,512.67,94.1,515,91.75Zm-.32-37.35c-16.34-14.57-32.38-29-48.59-43.17-1.26-1.11-3.67-1.27-5.55-1.27q-226-.09-451.95,0c-1.39,0-2.78.15-4.7.27L50.63,54.57.49,98.74H9q221.48,0,443,.2c9.43,0,16.83-1.7,23.26-8.9,4.72-5.29,10.68-9.47,16-14.25C498.91,68.82,506.59,61.76,514.68,54.4ZM304,124l-1.19,0q-1.53,8.06-3.07,16.1l1.45.33,2.8-11.11c1.64,4.52,2.88,7.94,4.63,12.74l4.95-12.54,2.75,11.22,1.51-.39-3.42-16.42-1.13.1-4.4,12.67Zm-134.5.06v16.15h10.09l0-1-7.7-.43v-5l6.86-1-.09-1.49-6.64-.6v-4.73l7.61-.77-.12-1Zm29.16.09-1.64-.07v12.56c-4.17-5.12-7.37-9.07-11-13.52v17.17l1.15-.06V127.71l11.49,13.82Zm202.51,16.16c5.08.76,10.08,1.09,12.4-3.92a11,11,0,0,0-.33-8.69c-2.46-4.51-7.26-4.29-12.07-3.59Zm-155-5.87,1.32-.3c.33-2.45,1.63-5.3.81-7.28-1.89-4.62-6.37-2.68-10-3v16.41h.87c.14-1.73.28-3.46.41-5,6-3.35,5,4.85,9.46,5.36Zm18.52,5.86.07-1-7.63-.57v-5.09l6.77-.69v-1.67l-6.72-.66v-4.73l7.61-.62-.13-1h-9.34v16.11Zm129-7.44-.15-1.66-7.27-.73c1-1.95,1.44-4.1,2.64-4.73,1.59-.82,3.8-.46,5.74-.6l-.13-1.08h-9.15v16.11h9.1l0-.87-7.08-.71v-4.89ZM132.81,140.3c4.94.6,9.5,1.1,12.41-3.48a8,8,0,0,0-.45-9.76c-3.09-3.84-7.33-3.8-12-2.77Zm-4,.89-8.38-18.38c-2.95,6.56-5.35,11.93-7.76,17.29C119.14,134.73,120,134.72,128.84,141.19ZM325.19,135c6.92-.83,9.34-2.63,8.85-6.41-.54-4.11-4.49-5.63-10.59-4.15v15.8l1.07.1C324.73,138.72,324.94,137.05,325.19,135Zm-104.9-10.92-1.52,0c0,4.14-.59,8.39.16,12.39.86,4.56,7.12,5.79,10.24,2.43,2.5-2.69,2.71-11.66-.15-15.59,0,3.79-.06,6.9,0,10s-1.18,5.75-4.26,5.37c-1.67-.21-3.85-2.93-4.29-4.86C219.77,130.79,220.29,127.4,220.29,124.12ZM277.35,137l-.74,1.55c1.95.75,3.94,2.14,5.85,2a5.94,5.94,0,0,0,4.28-3.13c1.13-2.81-1.18-4.24-3.41-5.69-1.7-1.11-2.9-3-4.32-4.55,2.06-.34,4.13-.67,6.18-1.06.19,0,.31-.48,1.35-2.17-3.23.29-5.75,0-7.73.9-1.08.49-2.13,3.45-1.6,4.5.84,1.67,3.17,2.53,4.57,4a27,27,0,0,1,2.74,4.34c-1.77.11-3.54.31-5.31.26C278.59,138,278,137.33,277.35,137ZM151.12,123.75l-1.5.65,7.79,17.51,7.74-17.48-1.53-.72c-1.92,4.16-3.83,8.32-6.05,13.14Zm212.17,10.19,6.25-.61-.09-1-6.17-.68v-5.75l7.43-.78-.15-1.07h-9v16.3h1.06Zm-159.36-9.88c4.48.74,4,3.9,3.9,6.87-.07,3.14,0,6.28,0,9.41,4.38-4.84-1.74-12.34,6.28-16.28Zm135.45,16.22h8.26l.1-.89-7.09-1V124l-1.27,0Zm14.58-16-1-.09v16h1Zm79.3,5.34c-.37-1.6-.82-3.52-1.36-5.87l-2.93,4-2.52-4.47c-.42,3.1-.7,5.11-.92,6.76Z"/><path d="M515,91.75c-2.33,2.35-4.25,5.6-7.07,6.83-4.31,1.87-8.65-.94-10.12-5.34-1.52-4.58.28-8.57,4.77-10.53s8.31-.44,10.78,4.06c.55,1,1.09,2,1.64,3Zm-9.33,5.84a7.45,7.45,0,0,0,7.06-7,7.35,7.35,0,0,0-7.08-6.95,7,7,0,0,0,0,13.94Z"/><path d="M514.68,54.4c-8.09,7.36-15.77,14.42-23.53,21.39-5.31,4.78-11.27,9-16,14.25-6.43,7.2-13.83,8.91-23.26,8.9Q230.43,98.51,9,98.74H.49L50.63,54.57,3.89,10.19c1.92-.12,3.31-.27,4.7-.27q226,0,452,0c1.88,0,4.29.16,5.55,1.27C482.3,25.44,498.34,39.83,514.68,54.4ZM396.5,52.25l.67-.12c0,6.13,0,12.26,0,18.39,0,3,1,4.73,4.4,4.33,2.06-.24,4.15-.21,6.49-.32V44.44c0-11.91,0-11.79-11.84-11.77-3.33,0-4.69,1.13-5.29,4.34-.91,4.9-2.3,9.7-3.49,14.54-2-5-3-9.95-4.42-14.77-.43-1.48-1.8-3.78-2.79-3.81a109.16,109.16,0,0,0-13.61.91c-.27,0-.54,1.49-.54,2.28,0,11.81-.1,23.62.13,35.43,0,1.1,2,2.85,3.22,3.08,2.32.41,4.8-.1,7.5-.23V50.61c2.24,7,3.82,14,5.94,20.9.44,1.42,2.8,2.93,4.4,3.09,1.24.13,3.48-1.55,3.9-2.85C393.19,65.33,394.76,58.76,396.5,52.25ZM348.35,74.61c0-10.62.32-21-.12-31.44-.28-6.73-3.38-9.66-9.88-11.31-9.12-2.31-18.59,2.24-19.09,10.08-.67,10.71-.17,21.49-.17,32.15,9.44,2,9.8,1.72,11.28-7.44h7.5c.15,2.78.3,5.33.44,8ZM114,74.31c0-9.37,0-18.47,0-27.57,0-12.11-8.43-18-20.26-14.51C88.34,33.83,85,37,84.78,42.65c-.38,9.43-.5,18.88-.67,28.32,0,2.85,1.33,4.2,4.35,3.9a62.31,62.31,0,0,1,6.27,0l.49-8.21h7.6C104,75.66,104,75.66,114,74.31ZM256.13,54.16h0c0-3,.08-6,0-9-.26-8.44-6-13.65-15-13.7s-15,5.15-15.32,13.46c-.22,6-.22,12,0,18,.26,7,5,12.14,11.55,12.87,12.49,1.4,19.7-4.15,18.8-16.61C256,57.5,256.13,55.83,256.13,54.16ZM131.45,32.94c0,10.1-.37,20,.11,30C132,72.17,137.34,76,148,75.82c8.43-.15,13.56-4.94,13.87-13.59.31-8.47,0-17,.19-25.43.12-5-3.27-3.88-6.13-4.07-3.12-.22-5,.36-4.93,4.23.23,7.81,0,15.63.09,23.44,0,3-1,4.6-4.26,4.75s-4.66-1.5-4.74-4.32c-.19-7.31-.15-14.63-.2-21.94,0-1.93,0-3.85,0-6ZM436.64,61.67c2.79,0,4.94.08,7.07,0,8.07-.33,12.28-5.22,12.34-14.22.06-9.54-3.87-14.33-12.27-14.65-4.64-.18-9.31.1-13.95-.09-3.15-.13-4,1.2-3.95,4.12.11,11.45.17,22.9,0,34.35-.07,3.91,2.18,3.87,4.8,3.64s6.13,1.3,6-3.55C436.57,68.17,436.64,65.06,436.64,61.67ZM272.91,53.46h0c0,3.15-.14,6.32,0,9.46.37,7.24,5.21,12.32,12,12.87,10.28.82,15.76-2.39,17.95-10.17.81-2.85.16-4.93-2.68-5.1-2.54-.16-5.84-3.88-7.92,1.33-.6,1.51-3.42,3.05-5.11,2.94-1.44-.1-3.7-2.45-3.88-4a62.63,62.63,0,0,1,0-13.89c.17-1.6,2.13-3.68,3.74-4.28,2.47-.93,4.72,0,5.7,3.1,1.84,5.77,5.58.06,8.23,1.19.63-1.59,2-3.32,1.75-4.73-1.44-7.39-8-11.46-16.62-10.66-7.87.73-13,5.9-13.23,13.48C272.83,47.81,272.91,50.64,272.91,53.46ZM189.26,43.4v31h9.85V43.71c3.56-.16,8,.9,10.14-.83,2-1.61,1.68-6.19,2.53-10.12-11.5,0-21.77-.08-32,0-4.22,0-2.54,3.5-2.73,5.62s-.62,5,3.06,5Z"/><path d="M304,124l4.88,12.67,4.4-12.67,1.13-.1,3.42,16.42-1.51.39-2.75-11.22L308.57,142c-1.75-4.8-3-8.22-4.63-12.74l-2.8,11.11-1.45-.33q1.53-8,3.07-16.1Z"/><path d="M169.45,124h10l.12,1-7.61.77v4.73l6.64.6.09,1.49-6.86,1v5l7.7.43,0,1H169.45Z"/><path d="M198.61,124.12v17.41l-11.49-13.82V140.2l-1.15.06V123.09c3.63,4.45,6.83,8.4,11,13.52V124.05Z"/><path d="M401.12,140.28v-16.2c4.81-.7,9.61-.92,12.07,3.59a11,11,0,0,1,.33,8.69C411.2,141.37,406.2,141,401.12,140.28Zm1.67-14v13.53c3.57-1.66,6.85-2.36,8.74-4.37,1.16-1.23,1-4.86,0-6.69C409.82,125.48,406.39,125.3,402.79,126.33Z"/><path d="M246.17,134.41l2.83,6.14c-4.51-.51-3.45-8.71-9.46-5.36-.13,1.56-.27,3.29-.41,5h-.87V123.8c3.67.35,8.15-1.59,10,3,.82,2-.48,4.83-.81,7.28Zm-6.63-1.56a61.5,61.5,0,0,0,7.06-2.46c.32-.15.17-2.7-.31-2.92a50.45,50.45,0,0,0-6.75-2Z"/><path d="M264.69,140.27h-9.38V124.16h9.34l.13,1-7.61.62v4.73l6.72.66v1.67l-6.77.69v5.09l7.63.57Z"/><path d="M393.66,132.83l-6.32.84v4.89l7.08.71,0,.87h-9.1V124h9.15l.13,1.08c-1.94.14-4.15-.22-5.74.6-1.2.63-1.62,2.78-2.64,4.73l7.27.73Z"/><path d="M132.81,140.3v-16c4.63-1,8.87-1.07,12,2.77a8,8,0,0,1,.45,9.76C142.31,141.4,137.75,140.9,132.81,140.3Zm1.64-2c3.57.64,7.16,1,8.75-2.64a9.48,9.48,0,0,0-.26-7.19c-1.8-3.56-5.29-3-8.49-2Z"/><path d="M128.84,141.19c-8.81-6.47-9.7-6.46-16.14-1.09,2.41-5.36,4.81-10.73,7.76-17.29Zm-5-6.77c-1.08-2.19-2-4.16-3.29-6.71l-3.31,6.71Z"/><path d="M325.19,135c-.25,2-.46,3.68-.67,5.34l-1.07-.1v-15.8c6.1-1.48,10.05,0,10.59,4.15C334.53,132.41,332.11,134.21,325.19,135Zm0-1.52c2.67-1.12,4.66-1.66,6.21-2.79.51-.37.33-3-.27-3.34-1.6-1-3.6-1.27-5.94-2Z"/><path d="M220.29,124.12c0,3.28-.52,6.67.2,9.78.44,1.93,2.62,4.65,4.29,4.86,3.08.38,4.34-2.29,4.26-5.37s0-6.22,0-10c2.86,3.93,2.65,12.9.15,15.59-3.12,3.36-9.38,2.13-10.24-2.43-.75-4-.16-8.25-.16-12.39Z"/><path d="M277.35,137c.62.36,1.24,1,1.86,1,1.77.05,3.54-.15,5.31-.26a27,27,0,0,0-2.74-4.34c-1.4-1.48-3.73-2.34-4.57-4-.53-1.05.52-4,1.6-4.5,2-.9,4.5-.61,7.73-.9-1,1.69-1.16,2.14-1.35,2.17-2.05.39-4.12.72-6.18,1.06,1.42,1.55,2.62,3.44,4.32,4.55,2.23,1.45,4.54,2.88,3.41,5.69a5.94,5.94,0,0,1-4.28,3.13c-1.91.1-3.9-1.29-5.85-2Z"/><path d="M151.12,123.75l6.45,13.1c2.22-4.82,4.13-9,6.05-13.14l1.53.72-7.74,17.48-7.79-17.51Z"/><path d="M363.29,133.94l-.64,6.39h-1.06V124h9l.15,1.07-7.43.78v5.75l6.17.68.09,1Z"/><path d="M203.93,124.06h10.16c-8,3.94-1.9,11.44-6.28,16.28,0-3.13-.05-6.27,0-9.41C207.9,128,208.41,124.8,203.93,124.06Z"/><path d="M339.38,140.28V124.05l1.27,0v14.37l7.09,1-.1.89Z"/><path d="M354,124.27v15.86h-1v-16Z"/><path d="M433.26,129.61l-7.73.41c.22-1.65.5-3.66.92-6.76l2.52,4.47,2.93-4C432.44,126.09,432.89,128,433.26,129.61Z"/><path fill="#fff" d="M505.67,97.59a7,7,0,0,1,0-13.94,7.35,7.35,0,0,1,7.08,6.95A7.45,7.45,0,0,1,505.67,97.59Zm2.63-2.39c.24-9,.24-9-5.2-8.28v8.77c1.14-1.91,1.71-2.85,2.34-3.88Z"/><path fill="#fff" d="M396.5,52.25c-1.74,6.51-3.31,13.08-5.34,19.5-.42,1.3-2.66,3-3.9,2.85-1.6-.16-4-1.67-4.4-3.09-2.12-6.89-3.7-13.94-5.94-20.9V74.44c-2.7.13-5.18.64-7.5.23-1.26-.23-3.2-2-3.22-3.08C366,59.78,366,48,366.07,36.16c0-.79.27-2.26.54-2.28A109.16,109.16,0,0,1,380.22,33c1,0,2.36,2.33,2.79,3.81,1.4,4.82,2.44,9.75,4.42,14.77,1.19-4.84,2.58-9.64,3.49-14.54.6-3.21,2-4.34,5.29-4.34,11.84,0,11.84-.14,11.84,11.77V74.53c-2.34.11-4.43.08-6.49.32-3.37.4-4.43-1.29-4.4-4.33,0-6.13,0-12.26,0-18.39Z"/><path fill="#fff" d="M348.35,74.61h-10c-.14-2.63-.29-5.18-.44-8h-7.5c-1.48,9.16-1.84,9.41-11.28,7.44,0-10.66-.5-21.44.17-32.15.5-7.84,10-12.39,19.09-10.08,6.5,1.65,9.6,4.58,9.88,11.31C348.67,53.56,348.35,64,348.35,74.61ZM329.26,56.3c3.83-1,8-1.23,8.37-2.5.83-2.88.17-6.42-.76-9.43-.23-.73-5.53-.87-5.62-.53A113.33,113.33,0,0,0,329.26,56.3Z"/><path fill="#fff" d="M114,74.31c-10,1.35-10,1.35-11.17-7.69h-7.6l-.49,8.21a62.31,62.31,0,0,0-6.27,0c-3,.3-4.4-1.05-4.35-3.9.17-9.44.29-18.89.67-28.32C85,37,88.34,33.83,93.72,32.23,105.55,28.71,114,34.63,114,46.74,114,55.84,114,64.94,114,74.31ZM103.85,55.15a99.29,99.29,0,0,0-2.24-11.38c-.12-.41-5.09-.25-5.28.39-1,3.41-1.21,7.05-1.75,11Z"/><path fill="#fff" d="M256.13,54.16c0,1.67-.1,3.34,0,5,.9,12.46-6.31,18-18.8,16.61-6.54-.73-11.29-5.86-11.55-12.87-.23-6-.23-12,0-18,.3-8.31,6.37-13.51,15.32-13.46s14.77,5.26,15,13.7c.09,3,0,6,0,9Zm-19.59-.55h0c0,2.33-.52,4.82.16,6.93a7.63,7.63,0,0,0,4,4.37c2.91,1.06,4.89-1,5-3.83a145.59,145.59,0,0,0-.07-14.92c-.18-3.07-2.52-4.53-5.27-3.57a6.8,6.8,0,0,0-3.61,4.08C236.07,48.82,236.54,51.28,236.54,53.61Z"/><path fill="#fff" d="M131.45,32.94h10.39c0,2.1,0,4,0,6,0,7.31,0,14.63.2,21.94.08,2.82,1.47,4.47,4.74,4.32s4.29-1.74,4.26-4.75c-.08-7.81.14-15.63-.09-23.44-.12-3.87,1.81-4.45,4.93-4.23,2.86.19,6.25-.91,6.13,4.07-.2,8.47.12,17-.19,25.43-.31,8.65-5.44,13.44-13.87,13.59C137.34,76,132,72.17,131.56,62.89,131.08,53,131.45,43,131.45,32.94Z"/><path fill="#fff" d="M436.64,61.67c0,3.39-.07,6.5,0,9.59.13,4.85-3.48,3.33-6,3.55s-4.87.27-4.8-3.64c.19-11.45.13-22.9,0-34.35,0-2.92.8-4.25,3.95-4.12,4.64.19,9.31-.09,13.95.09,8.4.32,12.33,5.11,12.27,14.65-.06,9-4.27,13.89-12.34,14.22C441.58,61.75,439.43,61.67,436.64,61.67Zm.3-10.13c3.19-.82,5.82-1.17,8.07-2.29.6-.31.51-4.06-.11-4.34-2.31-1-5-1.29-8-1.93Z"/><path fill="#fff" d="M272.91,53.46c0-2.82-.08-5.65,0-8.46.25-7.58,5.36-12.75,13.23-13.48,8.58-.8,15.18,3.27,16.62,10.66.28,1.41-1.12,3.14-1.75,4.73-2.65-1.13-6.39,4.58-8.23-1.19-1-3.08-3.23-4-5.7-3.1-1.61.6-3.57,2.68-3.74,4.28a62.63,62.63,0,0,0,0,13.89c.18,1.55,2.44,3.9,3.88,4,1.69.11,4.51-1.43,5.11-2.94,2.08-5.21,5.38-1.49,7.92-1.33,2.84.17,3.49,2.25,2.68,5.1-2.19,7.78-7.67,11-17.95,10.17-6.82-.55-11.66-5.63-12-12.87-.17-3.14,0-6.31,0-9.46Z"/><path fill="#fff" d="M189.26,43.4h-9.19c-3.68,0-3.26-2.74-3.06-5s-1.49-5.58,2.73-5.62c10.27-.12,20.54,0,32,0-.85,3.93-.51,8.51-2.53,10.12-2.18,1.73-6.58.67-10.14.83V74.43h-9.85Z"/><path fill="#fff" d="M402.79,126.33c3.6-1,7-.85,8.76,2.47,1,1.83,1.14,5.46,0,6.69-1.89,2-5.17,2.71-8.74,4.37Z"/><path fill="#fff" d="M239.54,132.85v-7.43a50.45,50.45,0,0,1,6.75,2c.48.22.63,2.77.31,2.92A61.5,61.5,0,0,1,239.54,132.85Z"/><path fill="#fff" d="M134.45,138.27V126.41c3.2-1,6.69-1.53,8.49,2a9.48,9.48,0,0,1,.26,7.19C141.61,139.3,138,138.91,134.45,138.27Z"/><path fill="#fff" d="M123.89,134.42h-6.6l3.31-6.71C121.85,130.26,122.81,132.23,123.89,134.42Z"/><path fill="#fff" d="M325.17,133.52V125.4c2.34.72,4.34,1,5.94,2,.6.36.78,3,.27,3.34C329.83,131.86,327.84,132.4,325.17,133.52Z"/><path d="M508.3,95.2l-2.86-3.39c-.63,1-1.2,2-2.34,3.88V86.92C508.54,86.2,508.54,86.2,508.3,95.2Z"/><path d="M329.26,56.3a113.33,113.33,0,0,1,2-12.46c.09-.34,5.39-.2,5.62.53.93,3,1.59,6.55.76,9.43C337.26,55.07,333.09,55.25,329.26,56.3Z"/><path d="M103.85,55.15H94.58c.54-3.94.74-7.58,1.75-11,.19-.64,5.16-.8,5.28-.39A99.29,99.29,0,0,1,103.85,55.15Z"/><path d="M236.54,53.61c0-2.33-.47-4.79.15-6.94a6.8,6.8,0,0,1,3.61-4.08c2.75-1,5.09.5,5.27,3.57a145.59,145.59,0,0,1,.07,14.92c-.14,2.86-2.12,4.89-5,3.83a7.63,7.63,0,0,1-4-4.37c-.68-2.11-.16-4.6-.16-6.93Z"/><path d="M436.94,51.54V43c3,.64,5.65.89,8,1.93.62.28.71,4,.11,4.34C442.76,50.37,440.13,50.72,436.94,51.54Z"/><path d="M294,125.11V141h-1V125Z"/><path d="M377,124.11V140h-1V124Z"/><text style="font-size:10px;font-family:Helvetica-Bold, Helvetica;font-weight:700;"  transform="translate(418 131)">T</text></svg>