<svg xmlns="http://www.w3.org/2000/svg" id="oceanfront-logo" class="logo" viewBox="0 0 130.82 44.3"><path d="M61.73 30.26A9.78 9.78 0 0 1 55 27.43a10.94 10.94 0 0 1-1.76-3.12L53 23.9l-1.33 1.5a12.85 12.85 0 0 1-1.35 1.3 8.4 8.4 0 0 1-1.6 1 3.64 3.64 0 0 1-1.63.41 2.19 2.19 0 0 1-1.58-.6 5 5 0 0 1-1.16-1.86l-.16-.4-.29.33a8.74 8.74 0 0 1-.92.87 8.52 8.52 0 0 1-1.19.8 8.12 8.12 0 0 1-1.35.59 4.6 4.6 0 0 1-1.36.22 3.57 3.57 0 0 1-1.39-.29 3.79 3.79 0 0 1-1.15-.77 4.18 4.18 0 0 1-.78-1.23l-.13-.31-.27.19c-.44.3-.85.57-1.27.83a13.13 13.13 0 0 1-1.63.83 10.34 10.34 0 0 1-1.76.57 7.51 7.51 0 0 1-1.83.22 5.6 5.6 0 0 1-2.49-.53 5.22 5.22 0 0 1-1.77-1.41 6.26 6.26 0 0 1-1.07-2.07l-.07-.27h-.24c-.6.09-1.25.16-2 .21h-.17l-.06.17a7.17 7.17 0 0 1-1.24 2.12A8.59 8.59 0 0 1 17.93 28a11.5 11.5 0 0 1-2.32 1.18 15 15 0 0 1-2.63.72 16.31 16.31 0 0 1-2.78.24 15.13 15.13 0 0 1-3.81-.48 10.65 10.65 0 0 1-3.27-1.43 7.43 7.43 0 0 1-2.27-2.41A6.38 6.38 0 0 1 0 22.5a4.4 4.4 0 0 1 .3-1.69 4.26 4.26 0 0 1 .77-1.21 3.22 3.22 0 0 1 1-.72 2.33 2.33 0 0 1 1-.24 1 1 0 0 1 .69.22.81.81 0 0 1 .24.66 2.44 2.44 0 0 1-.06.52l-.13.66c0 .25-.09.51-.13.81a7.26 7.26 0 0 0-.06 1 3.79 3.79 0 0 0 .55 2.07A4.44 4.44 0 0 0 5.54 26a6.54 6.54 0 0 0 2 .82 10.55 10.55 0 0 0 2.34.26 11.9 11.9 0 0 0 2.83-.34 9.33 9.33 0 0 0 2.57-1A6.2 6.2 0 0 0 17.17 24a3.93 3.93 0 0 0 .73-2.33 3.76 3.76 0 0 0-.66-2.18 7.38 7.38 0 0 0-1.69-1.71 16.73 16.73 0 0 0-2.34-1.45L10.58 15c-.89-.45-1.77-.93-2.62-1.43a13.38 13.38 0 0 1-2.26-1.65 7.45 7.45 0 0 1-1.56-2 4.93 4.93 0 0 1-.58-2.43A5.73 5.73 0 0 1 4.17 5 6.68 6.68 0 0 1 6 2.76a10.31 10.31 0 0 1 3.2-1.62 14.33 14.33 0 0 1 4.48-.63 10.57 10.57 0 0 1 3.16.49 9.26 9.26 0 0 1 2.76 1.36 7.24 7.24 0 0 1 1.93 2.09 5 5 0 0 1 .72 2.65A5.74 5.74 0 0 1 22 8.89a7.93 7.93 0 0 1-1 1.93 4.63 4.63 0 0 1-1.37 1.41 2.61 2.61 0 0 1-1.29.44.84.84 0 0 1-.6-.2.83.83 0 0 1-.22-.64 2.75 2.75 0 0 1 .18-.89 5.89 5.89 0 0 1 .64-1.24A7.21 7.21 0 0 0 19 8.32a3.71 3.71 0 0 0 .22-1.22 2.6 2.6 0 0 0-.49-1.58 3.69 3.69 0 0 0-1.31-1.11 6.7 6.7 0 0 0-1.94-.65A13.09 13.09 0 0 0 13 3.55a8.67 8.67 0 0 0-2.58.34 6.24 6.24 0 0 0-1.85.88A3.89 3.89 0 0 0 7.48 6a2.89 2.89 0 0 0-.37 1.4 3.39 3.39 0 0 0 .66 2A7.2 7.2 0 0 0 9.46 11a18.84 18.84 0 0 0 2.33 1.37l2.64 1.32c.89.44 1.76.93 2.61 1.44a12.57 12.57 0 0 1 2.25 1.71A7.58 7.58 0 0 1 20.86 19a5.75 5.75 0 0 1 .57 2.27v.28h.27c.42 0 .84-.09 1.25-.16h.21v-.21c0-.47.15-1.45.26-2.06a8 8 0 0 1 2.81-4.91 6 6 0 0 1 3.44-1.36 3.55 3.55 0 0 1 1.56.27 3.82 3.82 0 0 1 1.25.75 3.31 3.31 0 0 1 .86 1.13 3.81 3.81 0 0 1 .3 1.54 4.41 4.41 0 0 1-.62 2 8.26 8.26 0 0 1-1.46 2 9.35 9.35 0 0 1-2 1.48 10.4 10.4 0 0 1-2.52 1l-.33.09.17.3a3.8 3.8 0 0 0 .5.74 2.45 2.45 0 0 0 .53.5 1.91 1.91 0 0 0 .59.25 2.48 2.48 0 0 0 .63.07 6.31 6.31 0 0 0 2.11-.39 14.1 14.1 0 0 0 2.11-.95 18.08 18.08 0 0 0 1.92-1.25l.28-.21.06-.3c0-.17.06-.33.1-.5a15.71 15.71 0 0 1 1-2.67 14.39 14.39 0 0 1 1.49-2.48 10.71 10.71 0 0 1 1.8-1.77 8.5 8.5 0 0 1 2-1.22 5.08 5.08 0 0 1 2-.45.74.74 0 0 1 .43.1 1.44 1.44 0 0 1 .28.27l.26.36a1.07 1.07 0 0 0 .44.35 1.83 1.83 0 0 0 .46.12 3.25 3.25 0 0 0 .44 0H47a2.34 2.34 0 0 1 .39 0 .51.51 0 0 1 .23.14.68.68 0 0 1 .18.34 2.27 2.27 0 0 1 .08.71 10.29 10.29 0 0 1-.15 1.65c-.11.61-.23 1.25-.37 1.89L46.92 21a10.72 10.72 0 0 0-.27 2.16 4.07 4.07 0 0 0 .15 1.23.83.83 0 0 0 .84.59 1.91 1.91 0 0 0 .81-.19 4 4 0 0 0 .79-.46 6.26 6.26 0 0 0 .77-.63 9.93 9.93 0 0 0 .73-.72l.1-.11c.38-.41 1-1.1 1.54-1.72l.07-.08V21v-.85a15.85 15.85 0 0 1 .32-3 23.06 23.06 0 0 1 .9-3.31 27.92 27.92 0 0 1 1.45-3.36A27.43 27.43 0 0 1 57 7.19a24.12 24.12 0 0 1 2.38-2.85 17.9 17.9 0 0 1 2.75-2.28A13.64 13.64 0 0 1 65.2.54 10.33 10.33 0 0 1 68.53 0a7.23 7.23 0 0 1 2.25.38 6 6 0 0 1 2 1.16 6.21 6.21 0 0 1 1.47 2 6.57 6.57 0 0 1 .57 2.84 7.21 7.21 0 0 1-.36 2.22 10 10 0 0 1-1 2.18 11.79 11.79 0 0 1-1.51 2 10.6 10.6 0 0 1-1.86 1.58 9 9 0 0 1-2.06 1.06 6 6 0 0 1-2.11.39 4.63 4.63 0 0 1-2.05-.35.9.9 0 0 1-.57-.85v-.31-.34a5.36 5.36 0 0 1 0-.55 2.4 2.4 0 0 1 .11-.48.79.79 0 0 1 .2-.29.54.54 0 0 1 .33-.09.78.78 0 0 1 .24 0l.33.12a3.1 3.1 0 0 0 .45.13 3.34 3.34 0 0 0 .69.06 5.7 5.7 0 0 0 2.17-.45 6.44 6.44 0 0 0 2-1.28 6.69 6.69 0 0 0 1.43-1.95 5.59 5.59 0 0 0 .57-2.52 4.61 4.61 0 0 0-.21-1.4 3.17 3.17 0 0 0-.68-1.2 3.37 3.37 0 0 0-1.2-.82A4.65 4.65 0 0 0 68 2.92a5.89 5.89 0 0 0-2.35.51 9.17 9.17 0 0 0-2.16 1.38 13.5 13.5 0 0 0-2 2 23.2 23.2 0 0 0-1.68 2.5 24.77 24.77 0 0 0-1.4 2.77 26.26 26.26 0 0 0-1 2.87 24.38 24.38 0 0 0-.68 2.78 15.38 15.38 0 0 0-.23 2.5 9.44 9.44 0 0 0 .42 3 5.82 5.82 0 0 0 1.21 2.13A5 5 0 0 0 60 26.64a6.53 6.53 0 0 0 2.21.37 12.54 12.54 0 0 0 7.19-2.72 17.43 17.43 0 0 0 4.66-5.62l.2-.37.1-.23c.08-.19.15-.39.24-.6.33-.82.62-1.51.85-2.06a11.9 11.9 0 0 1 .65-1.33 3.07 3.07 0 0 1 .34-.53 1.09 1.09 0 0 1 .31-.27 1.05 1.05 0 0 1 .39-.13 4.91 4.91 0 0 1 .59 0 5.53 5.53 0 0 1 .73 0 .33.33 0 0 1 .18.08.5.5 0 0 1 0 .29c0 .19 0 .44-.09.77s-.42 2.39-.43 2.54V17l.1.15a.33.33 0 0 0 .24.1.46.46 0 0 0 .35-.19c.06-.1 1.67-2 2.13-2.43a4.47 4.47 0 0 1 3.19-1.41 2 2 0 0 1 .58.09 1.14 1.14 0 0 1 .43.25.85.85 0 0 1 .24.37 1.07 1.07 0 0 1 0 .51 4.16 4.16 0 0 1-.19.73c-.1.33-.26.75-.47 1.27s-.37 1-.48 1.32a5.5 5.5 0 0 0-.22.9 3.47 3.47 0 0 0 0 1.06v.09c.17 1.31.65 2 1.43 2h.09a8.79 8.79 0 0 0 1.3-.1h.23v-.23a8.51 8.51 0 0 1 .32-1.87c.22-.8.45-1.52.68-2.14a10 10 0 0 1 .88-1.76 7.07 7.07 0 0 1 1.21-1.45 5.48 5.48 0 0 1 1.54-1 4.83 4.83 0 0 1 1.89-.37 4.46 4.46 0 0 1 1.57.27 4 4 0 0 1 1.25.75 3.59 3.59 0 0 1 .92 1.09 4 4 0 0 1 .29 1.54 4.41 4.41 0 0 1-.61 2 8.7 8.7 0 0 1-1.47 2 9 9 0 0 1-2 1.48 10.56 10.56 0 0 1-2.52 1l-.27.08.08.26a2.91 2.91 0 0 0 1.07 1.34 1.85 1.85 0 0 0 .58.25 2.59 2.59 0 0 0 .63.07 6.31 6.31 0 0 0 2.11-.39 13.25 13.25 0 0 0 2.11-.95 19.31 19.31 0 0 0 1.93-1.25 20.27 20.27 0 0 0 1.61-1.31 11.53 11.53 0 0 0 1-1.14c.38-.46.68-.84.9-1.13l.77-1 1.08-1.46c.43-.57 1-1.29 1.66-2.15a5.7 5.7 0 0 1 .45-.55 3.23 3.23 0 0 1 .52-.45 2.8 2.8 0 0 1 .62-.32 2.23 2.23 0 0 1 .75-.12 3 3 0 0 1 1.08.15 1.23 1.23 0 0 1 .5.32.8.8 0 0 1 .17.38 3.44 3.44 0 0 1 0 .42 1.35 1.35 0 0 1-.26.71 9.52 9.52 0 0 1-.65.88c-.25.29-.47.55-.69.79a2 2 0 0 0-.44.65 1.67 1.67 0 0 0 .2.9c.62 1.27.64 7.84.23 7.75 4.47-3 6.73-8.26 8.15-11.73l.12-.33h-.35c-.54 0-1-.06-1.48-.06a14.26 14.26 0 0 0-1.49.08h-.14a.89.89 0 0 1-.91-.94 1.24 1.24 0 0 1 1.11-1.36c.41 0 .83-.07 1.29-.07a21.32 21.32 0 0 1 2.43.17h.22l.07-.22c.21-.73.43-1.49.65-2.28.36-1.25.74-2.58 1.19-4.05a1.09 1.09 0 0 1 1.12-.62 1.59 1.59 0 0 1 1.13.42.6.6 0 0 1 .15.51l-.02.33c-.55 2.18-1.65 6.21-1.65 6.21h.33a19.55 19.55 0 0 0 2.46.17 11.21 11.21 0 0 0 3.42-.5 1.24 1.24 0 0 1 .37-.06 1.05 1.05 0 0 1 1 1 1.12 1.12 0 0 1-.78 1.31 11.62 11.62 0 0 1-3.63.53 28.06 28.06 0 0 1-3.5-.27h-.22a6 6 0 0 0-.41 1.19v.19l-.1.41c-.94 4.21-.65 7.4.86 9.49a2.71 2.71 0 0 0 2.23 1.27c2.21 0 4.62-2.69 6.49-5a.93.93 0 0 1 .74-.37 1.31 1.31 0 0 1 1.12.67.79.79 0 0 1-.06.88c-1.75 2.57-5.61 6.39-9.08 6.39-1.76 0-3.19-1-4.23-3.06a12.14 12.14 0 0 1-1.25-3.82l-.1-.72-1.77 2.72a10.64 10.64 0 0 1-9.09 4.64 5.82 5.82 0 0 1-4.78-2.16c-.19-.22-.81-1.2-.81-1.2-.48.35-1 .67-1.48 1a13 13 0 0 1-1.62.83 11 11 0 0 1-1.76.57 7.57 7.57 0 0 1-1.83.22 5.54 5.54 0 0 1-2.49-.53 5.12 5.12 0 0 1-1.77-1.41 6.08 6.08 0 0 1-1.07-2.07 3.37 3.37 0 0 1-.09-.34l-.08-.29h-.29a8.64 8.64 0 0 1-1.19.39 5.12 5.12 0 0 1-1.39.19 3.53 3.53 0 0 1-2-.47 2.78 2.78 0 0 1-1-1.19 5.43 5.43 0 0 1-.43-1.72v-2a.37.37 0 0 0-.38-.38.46.46 0 0 0-.42.27c-.07.15-3 5.88-4.56 8.89a11.11 11.11 0 0 1-.61 1 4.59 4.59 0 0 1-.52.63 1.21 1.21 0 0 1-.46.3 1.33 1.33 0 0 1-.49.09 1.44 1.44 0 0 1-.58-.09l-.2-.07a1.65 1.65 0 0 1-1.09-.75 3.17 3.17 0 0 1 0-2.38l.26-.93-.7.66a14.76 14.76 0 0 1-9.13 4.33h-.44m39.37-5.83l.08.17a8.18 8.18 0 0 0 .9 1.08 4.31 4.31 0 0 0 .77.61 2 2 0 0 0 1.09.3 2.42 2.42 0 0 0 1.2-.26 2.06 2.06 0 0 0 .77-.69 2.27 2.27 0 0 0 .39-1 18.37 18.37 0 0 0 0-4.4c0-.29-.34-1.17-.34-1.17zm-56.73-9.12a3.13 3.13 0 0 0-1.41.35 5 5 0 0 0-1.23.93 7.63 7.63 0 0 0-1 1.31 11.06 11.06 0 0 0-.93 1.8 11.38 11.38 0 0 0-.65 1.87 7.36 7.36 0 0 0-.19 1.55A5.73 5.73 0 0 0 39 24a3 3 0 0 0 .22.77 1.81 1.81 0 0 0 .46.59 1.25 1.25 0 0 0 .78.24 1.68 1.68 0 0 0 1.26-.6 5 5 0 0 0 .88-1.3 8.4 8.4 0 0 0 .58-1.54 8.5 8.5 0 0 0 .29-1.32l1.26-5.49zm49.41 0a2.28 2.28 0 0 0-1.06.3 2.86 2.86 0 0 0-.9.71 5.11 5.11 0 0 0-.62 1 11.25 11.25 0 0 0-.7 2.4 3.28 3.28 0 0 0-.06 1l.05.22h.22a3.41 3.41 0 0 0 1.36-.31 6 6 0 0 0 1.32-.77 6.41 6.41 0 0 0 1.2-1.27 3 3 0 0 0 .61-1.38A1.88 1.88 0 0 0 95 16a1.24 1.24 0 0 0-.89-.61h-.29m-63.68 0a2.84 2.84 0 0 0-2.27.81c-1.28 1.06-1.38 4.38-1.38 4.62V21h.27c1 0 3.47-1.62 3.89-2.35a3.48 3.48 0 0 0 .61-1.42 2.51 2.51 0 0 0-.3-1.29 1.09 1.09 0 0 0-.82-.63" fill="#00538b"/><path d="M6.06 41.34a2.94 2.94 0 0 1 3-3 2.91 2.91 0 0 1 3 3 2.94 2.94 0 0 1-3 3 2.92 2.92 0 0 1-3-3zm5 0a1.95 1.95 0 1 0-3.89 0 2 2 0 0 0 2 2 1.93 1.93 0 0 0 1.83-2zM14.7 41.34a2.9 2.9 0 0 1 3-3 3 3 0 0 1 2.25.89l-.65.75a2.28 2.28 0 0 0-1.61-.72 1.93 1.93 0 0 0-1.89 2 1.93 1.93 0 0 0 1.89 2 2.27 2.27 0 0 0 1.66-.74l.64.66a2.94 2.94 0 0 1-2.33 1 2.89 2.89 0 0 1-2.96-2.84zM22.67 38.45h4.26v.91h-3.25v1.49h2.88v.9h-2.88v1.55H27v.9h-4.3zM31.87 38.41h.93l2.53 5.79h-1.06l-.59-1.39H31l-.6 1.39h-1zm1.44 3.51l-1-2.3-1 2.3zM38 38.45h.93l3.08 4v-4h1v5.75h-.84L39 40.11v4.09h-1zM46.12 38.45h4.28v.92h-3.27v1.57H50v.92h-2.9v2.34h-1zM53.17 38.45h2.56a2.33 2.33 0 0 1 1.66.58 1.75 1.75 0 0 1 .47 1.24A1.73 1.73 0 0 1 56.5 42l1.55 2.17h-1.2l-1.41-2h-1.26v2h-1zm2.48 2.85c.73 0 1.19-.37 1.19-1 0-.62-.45-1-1.19-1h-1.47v2zM60.51 41.34a3 3 0 0 1 6 0 3 3 0 0 1-6 0zm4.95 0a2 2 0 0 0-2-2 1.94 1.94 0 0 0-1.93 2 2 2 0 0 0 2 2 1.94 1.94 0 0 0 1.93-2zM69.4 38.45h.93l3.08 4v-4h1v5.75h-.85l-3.17-4.09v4.09h-1zM79 39.39h-1.87v-.94h4.67v.94H80v4.81h-1zM88.65 38.45h1v2.39h2.75v-2.39h1v5.75h-1v-2.42h-2.74v2.42h-1zM96.29 41.34a2.94 2.94 0 0 1 3-3 2.91 2.91 0 0 1 3 3 3 3 0 0 1-6 0zm4.95 0a1.95 1.95 0 1 0-3.89 0 2 2 0 0 0 2 2 1.93 1.93 0 0 0 1.89-2zM106.6 39.39h-1.83v-.94h4.67v.94h-1.83v4.81h-1zM112.16 38.45h4.26v.91h-3.25v1.49h2.88v.9h-2.88v1.55h3.29v.9h-4.3zM119.32 38.45h1v4.83h3v.92h-4z" fill="#6fb1c8"/></svg>