
<svg xmlns="http://www.w3.org/2000/svg" xmlns:xlink="http://www.w3.org/1999/xlink" version="1.1" class="icons icon-calendar" id="icon-key" x="0" y="0" viewBox="0 0 45 50" xml:space="preserve" enable-background="new 0 0 45 50">


	<g>


<path d="M22.5 48.42c-0.29 0-0.48-0.07-0.52-0.09L2.56 37.12c-0.21-0.12-0.52-0.66-0.52-0.91V13.79c0-0.25 0.31-0.78 0.52-0.91L21.98 1.67c0.04-0.02 0.23-0.09 0.52-0.09 0.29 0 0.48 0.07 0.52 0.09l19.42 11.21c0.21 0.12 0.52 0.66 0.52 0.9v22.42c0 0.25-0.31 0.78-0.52 0.91L23.02 48.33C22.98 48.35 22.79 48.42 22.5 48.42" fill="#FFF"></path>




<path d="M42.71 11.59L24 0.79c-0.41-0.24-0.96-0.36-1.5-0.36S21.41 0.55 21 0.79L2.29 11.59c-0.83 0.48-1.5 1.65-1.5 2.61v21.6c0 0.96 0.68 2.13 1.5 2.61L21 49.21c0.41 0.24 0.96 0.36 1.5 0.36s1.09-0.12 1.5-0.36l18.71-10.8c0.83-0.48 1.5-1.65 1.5-2.61V14.2C44.22 13.24 43.54 12.07 42.71 11.59M41.71 36.67L23 47.48c-0.04 0.02-0.22 0.09-0.5 0.09 -0.28 0-0.46-0.07-0.5-0.09L3.28 36.67c-0.21-0.12-0.5-0.63-0.5-0.87v-3.74h0v-2.02h0V14.2c0-0.24 0.3-0.75 0.5-0.87L22 2.52c0.04-0.02 0.22-0.09 0.5-0.09 0.28 0 0.46 0.07 0.5 0.09l18.71 10.8c0.21 0.12 0.5 0.63 0.5 0.87V30h0v2.02h0v3.78C42.22 36.04 41.92 36.55 41.71 36.67" fill="#CBCBCB"></path>




	<path class="st1" d="M25.8,7.1c-0.6,0.4-1.3,0.6-2,0.6c-0.8,0-1.5-0.2-2-0.6l-5.4,4.4h14.8L25.8,7.1z"/>
	<path class="st0" d="M9.1,31.9c0,0.6-0.4,1-1,1H7.6c-0.6,0-1-0.4-1-1v-0.5c0-0.6,0.4-1,1-1h0.5c0.6,0,1,0.4,1,1V31.9z M14.4,31.9
		c0,0.6-0.4,1-1,1h-0.5c-0.6,0-1-0.4-1-1v-0.5c0-0.6,0.4-1,1-1h0.5c0.6,0,1,0.4,1,1V31.9z M38.1,25.5c0-0.6,0.4-1,1-1h0.5
		c0.6,0,1,0.4,1,1V26c0,0.6-0.4,1-1,1h-0.5c-0.6,0-1-0.4-1-1V25.5z M38.1,31.4c0-0.6,0.4-1,1-1h0.5c0.6,0,1,0.4,1,1v0.5
		c0,0.6-0.4,1-1,1h-0.5c-0.6,0-1-0.4-1-1V31.4z M38.1,37.2c0-0.6,0.4-1,1-1h0.5c0.6,0,1,0.4,1,1v0.5c0,0.6-0.4,1-1,1h-0.5
		c-0.6,0-1-0.4-1-1V37.2z M32.8,25.5c0-0.6,0.4-1,1-1h0.5c0.6,0,1,0.4,1,1V26c0,0.6-0.4,1-1,1h-0.5c-0.6,0-1-0.4-1-1V25.5z
		 M32.8,31.4c0-0.6,0.4-1,1-1h0.5c0.6,0,1,0.4,1,1v0.5c0,0.6-0.4,1-1,1h-0.5c-0.6,0-1-0.4-1-1V31.4z M32.8,37.2c0-0.6,0.4-1,1-1h0.5
		c0.6,0,1,0.4,1,1v0.5c0,0.6-0.4,1-1,1h-0.5c-0.6,0-1-0.4-1-1V37.2z M27.6,25.5c0-0.6,0.4-1,1-1h0.5c0.6,0,1,0.4,1,1V26
		c0,0.6-0.4,1-1,1h-0.5c-0.6,0-1-0.4-1-1V25.5z M27.6,31.4c0-0.6,0.4-1,1-1h0.5c0.6,0,1,0.4,1,1v0.5c0,0.6-0.4,1-1,1h-0.5
		c-0.6,0-1-0.4-1-1V31.4z M27.6,37.2c0-0.6,0.4-1,1-1h0.5c0.6,0,1,0.4,1,1v0.5c0,0.6-0.4,1-1,1h-0.5c-0.6,0-1-0.4-1-1V37.2z
		 M27.6,43.1c0-0.6,0.4-1,1-1h0.5c0.6,0,1,0.4,1,1v0.5c0,0.6-0.4,1-1,1h-0.5c-0.6,0-1-0.4-1-1V43.1z M22.3,31.4c0-0.6,0.4-1,1-1h0.5
		c0.6,0,1,0.4,1,1v0.5c0,0.6-0.4,1-1,1h-0.5c-0.6,0-1-0.4-1-1V31.4z M22.3,37.2c0-0.6,0.4-1,1-1h0.5c0.6,0,1,0.4,1,1v0.5
		c0,0.6-0.4,1-1,1h-0.5c-0.6,0-1-0.4-1-1V37.2z M22.3,43.1c0-0.6,0.4-1,1-1h0.5c0.6,0,1,0.4,1,1v0.5c0,0.6-0.4,1-1,1h-0.5
		c-0.6,0-1-0.4-1-1V43.1z M17.1,31.4c0-0.6,0.4-1,1-1h0.5c0.6,0,1,0.4,1,1v0.5c0,0.6-0.4,1-1,1h-0.5c-0.6,0-1-0.4-1-1V31.4z
		 M17.1,37.2c0-0.6,0.4-1,1-1h0.5c0.6,0,1,0.4,1,1v0.5c0,0.6-0.4,1-1,1h-0.5c-0.6,0-1-0.4-1-1V37.2z M17.1,43.1c0-0.6,0.4-1,1-1h0.5
		c0.6,0,1,0.4,1,1v0.5c0,0.6-0.4,1-1,1h-0.5c-0.6,0-1-0.4-1-1V43.1z"/>
	<circle class="st1" cx="23.8" cy="4.1" r="1.6"/>
	<rect x="3" y="13.6" class="st1" width="41.4" height="5.3"/>
	<path class="st0" d="M45.5,11.6H34.3l-7.2-6c0.2-0.4,0.3-0.9,0.3-1.5c0-2-1.6-3.6-3.6-3.6s-3.6,1.6-3.6,3.6c0,0.5,0.1,1,0.3,1.4
		l-7.2,6H2c-0.6,0-1,0.4-1,1v22.1h2V20.8h41.4v27.3h-29v2h30c0.6,0,1-0.4,1-1V12.6C46.5,12,46,11.6,45.5,11.6z M23.8,2.5
		c0.9,0,1.6,0.7,1.6,1.6c0,0.9-0.7,1.6-1.6,1.6c-0.9,0-1.6-0.7-1.6-1.6C22.1,3.2,22.9,2.5,23.8,2.5z M21.7,7.1
		c0.6,0.4,1.3,0.6,2,0.6c0.8,0,1.5-0.2,2-0.6l5.4,4.4H16.4L21.7,7.1z M44.5,18.8H3v-5.3h41.4V18.8z"/>
	<path class="st0" d="M28.6,27h0.5c0.6,0,1-0.4,1-1v-0.5c0-0.6-0.4-1-1-1h-0.5c-0.6,0-1,0.4-1,1V26C27.6,26.6,28,27,28.6,27z"/>
	<path class="st0" d="M33.8,27h0.5c0.6,0,1-0.4,1-1v-0.5c0-0.6-0.4-1-1-1h-0.5c-0.6,0-1,0.4-1,1V26C32.8,26.6,33.3,27,33.8,27z"/>
	<path class="st0" d="M39.1,27h0.5c0.6,0,1-0.4,1-1v-0.5c0-0.6-0.4-1-1-1h-0.5c-0.6,0-1,0.4-1,1V26C38.1,26.6,38.5,27,39.1,27z"/>
	<path class="st0" d="M8.1,30.4H7.6c-0.6,0-1,0.4-1,1v0.5c0,0.6,0.4,1,1,1h0.5c0.6,0,1-0.4,1-1v-0.5C9.1,30.8,8.7,30.4,8.1,30.4z"/>
	<path class="st0" d="M13.4,30.4h-0.5c-0.6,0-1,0.4-1,1v0.5c0,0.6,0.4,1,1,1h0.5c0.6,0,1-0.4,1-1v-0.5
		C14.4,30.8,13.9,30.4,13.4,30.4z"/>
	<path class="st0" d="M18.1,32.9h0.5c0.6,0,1-0.4,1-1v-0.5c0-0.6-0.4-1-1-1h-0.5c-0.6,0-1,0.4-1,1v0.5
		C17.1,32.5,17.5,32.9,18.1,32.9z"/>
	<path class="st0" d="M23.3,32.9h0.5c0.6,0,1-0.4,1-1v-0.5c0-0.6-0.4-1-1-1h-0.5c-0.6,0-1,0.4-1,1v0.5
		C22.3,32.5,22.8,32.9,23.3,32.9z"/>
	<path class="st0" d="M28.6,32.9h0.5c0.6,0,1-0.4,1-1v-0.5c0-0.6-0.4-1-1-1h-0.5c-0.6,0-1,0.4-1,1v0.5C27.6,32.5,28,32.9,28.6,32.9z
		"/>
	<path class="st0" d="M33.8,32.9h0.5c0.6,0,1-0.4,1-1v-0.5c0-0.6-0.4-1-1-1h-0.5c-0.6,0-1,0.4-1,1v0.5
		C32.8,32.5,33.3,32.9,33.8,32.9z"/>
	<path class="st0" d="M39.1,32.9h0.5c0.6,0,1-0.4,1-1v-0.5c0-0.6-0.4-1-1-1h-0.5c-0.6,0-1,0.4-1,1v0.5
		C38.1,32.5,38.5,32.9,39.1,32.9z"/>
	<path class="st0" d="M18.1,38.8h0.5c0.6,0,1-0.4,1-1v-0.5c0-0.6-0.4-1-1-1h-0.5c-0.6,0-1,0.4-1,1v0.5
		C17.1,38.3,17.5,38.8,18.1,38.8z"/>
	<path class="st0" d="M12.8,38.9h0.5c0.6,0,1-0.4,1-1v-0.5c0-0.6-0.4-1-1-1h-0.5c-0.6,0-1,0.4-1,1v0.5
		C11.8,38.4,12.3,38.9,12.8,38.9z"/>
	<path class="st0" d="M23.3,38.8h0.5c0.6,0,1-0.4,1-1v-0.5c0-0.6-0.4-1-1-1h-0.5c-0.6,0-1,0.4-1,1v0.5
		C22.3,38.3,22.8,38.8,23.3,38.8z"/>
	<path class="st0" d="M28.6,38.8h0.5c0.6,0,1-0.4,1-1v-0.5c0-0.6-0.4-1-1-1h-0.5c-0.6,0-1,0.4-1,1v0.5C27.6,38.3,28,38.8,28.6,38.8z
		"/>
	<path class="st0" d="M33.8,38.8h0.5c0.6,0,1-0.4,1-1v-0.5c0-0.6-0.4-1-1-1h-0.5c-0.6,0-1,0.4-1,1v0.5
		C32.8,38.3,33.3,38.8,33.8,38.8z"/>
	<path class="st0" d="M39.1,38.8h0.5c0.6,0,1-0.4,1-1v-0.5c0-0.6-0.4-1-1-1h-0.5c-0.6,0-1,0.4-1,1v0.5
		C38.1,38.3,38.5,38.8,39.1,38.8z"/>
	<path class="st0" d="M18.1,44.6h0.5c0.6,0,1-0.4,1-1v-0.5c0-0.6-0.4-1-1-1h-0.5c-0.6,0-1,0.4-1,1v0.5
		C17.1,44.2,17.5,44.6,18.1,44.6z"/>
	<path class="st0" d="M23.3,44.6h0.5c0.6,0,1-0.4,1-1v-0.5c0-0.6-0.4-1-1-1h-0.5c-0.6,0-1,0.4-1,1v0.5
		C22.3,44.2,22.8,44.6,23.3,44.6z"/>
	<path class="st0" d="M28.6,44.6h0.5c0.6,0,1-0.4,1-1v-0.5c0-0.6-0.4-1-1-1h-0.5c-0.6,0-1,0.4-1,1v0.5C27.6,44.2,28,44.6,28.6,44.6z
		"/>






</g></svg>










