<svg xmlns="http://www.w3.org/2000/svg" xmlns:xlink="http://www.w3.org/1999/xlink" version="1.1" class="icons icon-cc" id="icon-cc" x="0px" y="0px" viewBox="0 0 45 50" xml:space="preserve" enable-background="new 0 0 45 50">
    <path d="M22.5 48.42c-0.29 0-0.48-0.07-0.52-0.09L2.56 37.12c-0.21-0.12-0.52-0.66-0.52-0.91V13.79c0-0.25 0.31-0.78 0.52-0.91L21.98 1.67c0.04-0.02 0.23-0.09 0.52-0.09 0.29 0 0.48 0.07 0.52 0.09l19.42 11.21c0.21 0.12 0.52 0.66 0.52 0.9v22.42c0 0.25-0.31 0.78-0.52 0.91L23.02 48.33C22.98 48.35 22.79 48.42 22.5 48.42" fill="#FFF"></path>
    <path d="M42.71 11.59L24 0.79c-0.41-0.24-0.96-0.36-1.5-0.36S21.41 0.55 21 0.79L2.29 11.59c-0.83 0.48-1.5 1.65-1.5 2.61v21.6c0 0.96 0.68 2.13 1.5 2.61L21 49.21c0.41 0.24 0.96 0.36 1.5 0.36s1.09-0.12 1.5-0.36l18.71-10.8c0.83-0.48 1.5-1.65 1.5-2.61V14.2C44.22 13.24 43.54 12.07 42.71 11.59M41.71 36.67L23 47.48c-0.04 0.02-0.22 0.09-0.5 0.09 -0.28 0-0.46-0.07-0.5-0.09L3.28 36.67c-0.21-0.12-0.5-0.63-0.5-0.87v-3.74h0v-2.02h0V14.2c0-0.24 0.3-0.75 0.5-0.87L22 2.52c0.04-0.02 0.22-0.09 0.5-0.09 0.28 0 0.46 0.07 0.5 0.09l18.71 10.8c0.21 0.12 0.5 0.63 0.5 0.87V30h0v2.02h0v3.78C42.22 36.04 41.92 36.55 41.71 36.67" fill="#CBCBCB"></path>
    <svg xmlns="http://www.w3.org/2000/svg" width="100%" height="100%" viewBox="-8 0 40 25" class='checkmark-fill'>
        <path d="M12 2c5.514 0 10 4.486 10 10s-4.486 10-10 10-10-4.486-10-10 4.486-10 10-10zm0-2c-6.627 0-12 5.373-12 12s5.373 12 12 12 12-5.373 12-12-5.373-12-12-12zm4.393 7.5l-5.643 5.784-2.644-2.506-1.856 1.858 4.5 4.364 7.5-7.643-1.857-1.857z" />
    </svg>
</svg>
