<svg xmlns="http://www.w3.org/2000/svg" xmlns:xlink="http://www.w3.org/1999/xlink" version="1.1" class="icons icon-checkout" id="icon-checkout" x="0" y="0" viewBox="0 0 45 50" xml:space="preserve" enable-background="new 0 0 45 50"><g><path d="M22.5 48.42c-0.29 0-0.48-0.07-0.52-0.09L2.56 37.12c-0.21-0.12-0.52-0.66-0.52-0.91V13.79c0-0.25 0.31-0.78 0.52-0.91L21.98 1.67c0.04-0.02 0.23-0.09 0.52-0.09 0.29 0 0.48 0.07 0.52 0.09l19.42 11.21c0.21 0.12 0.52 0.66 0.52 0.9v22.42c0 0.25-0.31 0.78-0.52 0.91L23.02 48.33C22.98 48.35 22.79 48.42 22.5 48.42" fill="#FFF"></path><path d="M42.71 11.59L24 0.79c-0.41-0.24-0.96-0.36-1.5-0.36S21.41 0.55 21 0.79L2.29 11.59c-0.83 0.48-1.5 1.65-1.5 2.61v21.6c0 0.96 0.68 2.13 1.5 2.61L21 49.21c0.41 0.24 0.96 0.36 1.5 0.36s1.09-0.12 1.5-0.36l18.71-10.8c0.83-0.48 1.5-1.65 1.5-2.61V14.2C44.22 13.24 43.54 12.07 42.71 11.59M41.71 36.67L23 47.48c-0.04 0.02-0.22 0.09-0.5 0.09 -0.28 0-0.46-0.07-0.5-0.09L3.28 36.67c-0.21-0.12-0.5-0.63-0.5-0.87v-3.74H15.3v-2.02H2.78V14.2c0-0.24 0.3-0.75 0.5-0.87L22 2.52c0.04-0.02 0.22-0.09 0.5-0.09 0.28 0 0.46 0.07 0.5 0.09l18.71 10.8c0.21 0.12 0.5 0.63 0.5 0.87V30H29.74v2.02h12.48v3.78C42.22 36.04 41.92 36.55 41.71 36.67" fill="#CBCBCB"></path><path d="M23.44 13.29c0 0.31-0.42 0.57-0.94 0.57 -0.52 0-0.94-0.25-0.94-0.57 0-0.31 0.42-0.57 0.94-0.57C23.02 12.73 23.44 12.98 23.44 13.29" fill="#6B205E"></path><path d="M22.51 37.7c0 0-0.01 0-0.02 0 -0.55 0-1-0.45-1-1V14.82l-11.92 7.2C9.1 22.3 8.49 22.15 8.2 21.68c-0.29-0.47-0.13-1.09 0.34-1.37l12.87-7.77c0.35-0.21 0.73-0.28 1.09-0.19 0.35-0.08 0.74-0.02 1.09 0.19l12.87 7.77c0.47 0.29 0.63 0.9 0.34 1.37 -0.29 0.47-0.9 0.62-1.37 0.34l-11.91-7.2V36.7C23.51 37.25 23.06 37.7 22.51 37.7" fill="#6B205F"></path></g></svg>