<svg xmlns="http://www.w3.org/2000/svg" xmlns:xlink="http://www.w3.org/1999/xlink" version="1.1" class="icons icon-checkin" id="icon-checkin" x="0" y="0" viewBox="0 0 45 50" xml:space="preserve" enable-background="new 0 0 45 50"><g><path d="M22.5 1.58c0.29 0 0.48 0.07 0.52 0.09l19.42 11.21c0.21 0.12 0.52 0.66 0.52 0.91v22.42c0 0.25-0.31 0.78-0.52 0.91L23.02 48.33c-0.04 0.02-0.23 0.09-0.52 0.09 -0.29 0-0.48-0.07-0.52-0.09L2.56 37.12c-0.21-0.12-0.52-0.66-0.52-0.9V13.79c0-0.25 0.31-0.78 0.52-0.91L21.98 1.67C22.02 1.65 22.21 1.58 22.5 1.58" fill="#FFF"></path><path d="M2.29 38.41L21 49.21c0.41 0.24 0.96 0.36 1.5 0.36s1.09-0.12 1.5-0.36l18.71-10.8c0.83-0.48 1.5-1.65 1.5-2.61V14.2c0-0.96-0.68-2.13-1.5-2.61L24 0.79c-0.41-0.24-0.96-0.36-1.5-0.36S21.41 0.55 21 0.79L2.29 11.59c-0.83 0.48-1.51 1.65-1.51 2.61v21.6C0.78 36.76 1.46 37.93 2.29 38.41M3.29 13.33L22 2.52c0.04-0.02 0.22-0.09 0.5-0.09 0.28 0 0.46 0.07 0.5 0.09l18.71 10.8c0.21 0.12 0.5 0.63 0.5 0.87v3.74H29.7v2.02h12.51V35.8c0 0.24-0.3 0.75-0.5 0.87L23 47.48c-0.04 0.02-0.22 0.09-0.5 0.09 -0.28 0-0.46-0.07-0.5-0.09L3.28 36.67c-0.21-0.12-0.5-0.63-0.5-0.87V20h12.48v-2.02H2.78V14.2C2.78 13.96 3.08 13.45 3.29 13.33" fill="#CBCBCB"></path><path d="M21.59 37.28c0-0.31 0.42-0.57 0.94-0.57 0.52 0 0.94 0.25 0.94 0.57 0 0.31-0.42 0.57-0.94 0.57C22.01 37.85 21.59 37.6 21.59 37.28" fill="#6B205E"></path><path d="M22.49 12.31c0 0 0.01 0 0.02 0 0.55 0 1 0.45 1 1v21.87l11.92-7.2c0.47-0.28 1.09-0.13 1.37 0.34 0.29 0.47 0.13 1.09-0.34 1.37l-12.87 7.77c-0.35 0.21-0.73 0.28-1.09 0.19 -0.35 0.08-0.74 0.02-1.09-0.19L8.54 29.7c-0.47-0.29-0.63-0.9-0.34-1.37 0.29-0.47 0.9-0.62 1.37-0.34l11.91 7.2V13.31C21.49 12.75 21.94 12.31 22.49 12.31" fill="#6B205F"></path></g></svg>