<svg xmlns="http://www.w3.org/2000/svg" viewBox="0 0 45 50"><g id="company"><g id="shape"><path fill="#fff" d="M22.5,48.42a1.33,1.33,0,0,1-.52-.09L2.56,37.12A1.52,1.52,0,0,1,2,36.21V13.79a1.52,1.52,0,0,1,.53-.91L22,1.67a1.55,1.55,0,0,1,1,0L42.44,12.88a1.52,1.52,0,0,1,.53.91V36.21a1.52,1.52,0,0,1-.53.91L23,48.33a1.33,1.33,0,0,1-.52.09"/><path fill="#cbcbcb" d="M42.71,11.59,24,.79a3.31,3.31,0,0,0-3,0L2.29,11.59A3.34,3.34,0,0,0,.78,14.2V35.8a3.34,3.34,0,0,0,1.51,2.61L21,49.21a3.31,3.31,0,0,0,3,0l18.71-10.8a3.34,3.34,0,0,0,1.51-2.61V14.2a3.34,3.34,0,0,0-1.51-2.61m-1,25.08L23,47.48a1.43,1.43,0,0,1-1,0L3.28,36.67a1.48,1.48,0,0,1-.5-.87V32.06h0V30h0V14.2a1.47,1.47,0,0,1,.51-.88L22,2.52a1.43,1.43,0,0,1,1,0L41.72,13.33a1.45,1.45,0,0,1,.5.87V30h0v2h0V35.8a1.45,1.45,0,0,1-.51.87"/></g><path fill="#636" stroke="#636" stroke-miterlimit="10" stroke-width="0.5px"  d="M17.43,29h3a.5.5,0,0,0,.5-.5v-3a.5.5,0,0,0-.5-.5h-3a.5.5,0,0,0-.5.5v3A.51.51,0,0,0,17.43,29Zm.5-3h2v2h-2Z"/><path fill="#636" stroke="#636" stroke-miterlimit="10" stroke-width="0.5px"  d="M17.43,23h3a.5.5,0,0,0,.5-.5v-3a.5.5,0,0,0-.5-.5h-3a.5.5,0,0,0-.5.5v3A.51.51,0,0,0,17.43,23Zm.5-3h2v2h-2Z"/><path fill="#636" stroke="#636" stroke-miterlimit="10" stroke-width="0.5px"  d="M33.58,23.12,26,21.54V14.05a.49.49,0,0,0-.57-.49l-13,1.94A.51.51,0,0,0,12,16V36.55a.51.51,0,0,0,.5.5h21a.5.5,0,0,0,.5-.5V23.61A.5.5,0,0,0,33.58,23.12ZM13,16.43l12-1.8V36.05H20.92V31.59a.5.5,0,0,0-.5-.5h-3a.5.5,0,0,0-.5.5v4.46H13Zm5,19.6V32.09h2V36Zm15,0h-3V33.56a.51.51,0,0,0-.5-.5.5.5,0,0,0-.5.5v2.49H26V22.56L33,24Z"/><path fill="#636" stroke="#636" stroke-miterlimit="10" stroke-width="0.5px"  d="M29.44,31a.5.5,0,0,0,.5-.5V29.43a.51.51,0,0,0-.5-.5.5.5,0,0,0-.5.5v1.08A.5.5,0,0,0,29.44,31Z"/><path fill="#636" stroke="#636" stroke-miterlimit="10" stroke-width="0.5px"  d="M29.44,28a.5.5,0,0,0,.5-.5V26.43a.51.51,0,0,0-.5-.5.5.5,0,0,0-.5.5v1.08A.5.5,0,0,0,29.44,28Z"/></g></svg>