<svg xmlns="http://www.w3.org/2000/svg" xmlns:xlink="http://www.w3.org/1999/xlink" version="1.1" class="icons icon-confirmation" id="icon-confirmation" x="0" y="0" viewBox="0 0 45 50" xml:space="preserve" enable-background="new 0 0 45 50"><g><g><path d="M22.5 48.42c-0.29 0-0.48-0.07-0.52-0.09L2.56 37.12c-0.21-0.12-0.52-0.66-0.52-0.91V13.79c0-0.25 0.31-0.78 0.52-0.91L21.98 1.67c0.04-0.02 0.23-0.09 0.52-0.09 0.29 0 0.48 0.07 0.52 0.09l19.42 11.21c0.21 0.12 0.52 0.66 0.52 0.9v22.42c0 0.25-0.31 0.78-0.52 0.91L23.02 48.33C22.98 48.35 22.79 48.42 22.5 48.42" fill="#FFF"></path><path d="M42.71 11.59L24 0.79c-0.41-0.24-0.96-0.36-1.5-0.36S21.41 0.55 21 0.79L2.29 11.59c-0.83 0.48-1.5 1.65-1.5 2.61v21.6c0 0.96 0.68 2.13 1.5 2.61L21 49.21c0.41 0.24 0.96 0.36 1.5 0.36s1.09-0.12 1.5-0.36l18.71-10.8c0.83-0.48 1.5-1.65 1.5-2.61V14.2C44.22 13.24 43.54 12.07 42.71 11.59M41.71 36.67L23 47.48c-0.04 0.02-0.22 0.09-0.5 0.09 -0.28 0-0.46-0.07-0.5-0.09L3.28 36.67c-0.21-0.12-0.5-0.63-0.5-0.87v-3.74h0v-2.02h0V14.2c0-0.24 0.3-0.75 0.5-0.87L22 2.52c0.04-0.02 0.22-0.09 0.5-0.09 0.28 0 0.46 0.07 0.5 0.09l18.71 10.8c0.21 0.12 0.5 0.63 0.5 0.87V30h0v2.02h0v3.78C42.22 36.04 41.92 36.55 41.71 36.67" fill="#CBCBCB"></path></g><g><path d="M34.66 15.11c-0.1-0.1-0.21-0.2-0.41-0.2L18.96 14.5c-0.31 0-0.51 0.2-0.61 0.51 0 0.1-0.61 8.46-2.65 13.05 -0.1 0.2 0 0.51 0.2 0.71 0.2 0.1 0.51 0 0.71-0.2 1.94-4.28 2.55-11.11 2.75-13.05l14.37 0.41c-0.82 8.67-2.75 18.04-5.3 18.55 -1.02 0.2-2.34-1.32-3.67-4.18 -0.1-0.2-0.2-0.31-0.41-0.31L10.7 29.69c-0.1 0-0.31 0.1-0.41 0.2 -0.1 0.1-0.1 0.31-0.1 0.41 0 0.2 1.12 4.89 4.89 4.99 4.49 0.1 13.05 0.21 13.15 0.21l0 0c0.1 0 0.1 0 0.2 0 0.1 0 0.1 0 0.2 0 4.18-0.71 5.81-15.5 6.12-19.98C34.86 15.31 34.76 15.21 34.66 15.11zM15.19 34.28c-2.34-0.1-3.36-2.45-3.77-3.57l12.64 0.31c0.82 1.63 1.53 2.75 2.24 3.47C23.45 34.48 18.25 34.38 15.19 34.28z" style="fill:#6B1F5D;stroke-miterlimit:10;stroke-width:0.5;stroke:#6B1E5B"></path><path d="M29.87 20.41L29.87 20.41c0.31 0 0.51-0.2 0.51-0.51s-0.2-0.51-0.51-0.51l-7.85-0.31c-0.31 0-0.51 0.2-0.51 0.51 0 0.31 0.2 0.51 0.51 0.51L29.87 20.41z" style="fill:#6B1F5D;stroke-miterlimit:10;stroke-width:0.5;stroke:#6B1E5B"></path><path d="M21 23.16c0 0.31 0.2 0.51 0.51 0.51l7.34 0.31 0 0c0.31 0 0.51-0.2 0.51-0.51s-0.2-0.51-0.51-0.51l-7.34-0.31C21.2 22.66 21 22.86 21 23.16z" style="fill:#6B1F5D;stroke-miterlimit:10;stroke-width:0.5;stroke:#6B1E5B"></path><path d="M20.08 26.73c0 0.31 0.2 0.51 0.51 0.51l4.18 0.1 0 0c0.31 0 0.51-0.2 0.51-0.51 0-0.3-0.2-0.51-0.51-0.51l-4.18-0.1C20.29 26.22 20.08 26.43 20.08 26.73z" style="fill:#6B1F5D;stroke-miterlimit:10;stroke-width:0.5;stroke:#6B1E5B"></path></g></g></svg>