<svg xmlns="http://www.w3.org/2000/svg" xmlns:xlink="http://www.w3.org/1999/xlink" version="1.1" class="icons icon-create-key" style="background-image: url('') !important; margin-top: -15px !important;" id="icon-create-key" x="0" y="0" viewBox="0 0 632.9 232.6" enable-background="new 0 0 632.9 232.6" xml:space="preserve"><path d="M365.7 135c-11.6-3.4-14.1-11.8-4.8-21 9.3-9.2 27.5-16.2 44-17.7l6-5.9c-22 1.2-47.2 10.6-59.7 23s-8.4 23.7 8.4 27.6L365.7 135z"/><path d="M429.5 91.6l-6 5.9c11.6 3.4 14.1 11.8 4.8 21 -9.3 9.2-27.5 16.2-44 17.7l-6 5.9c22-1.2 47.2-10.6 59.7-23C450.5 106.8 446.4 95.5 429.5 91.6z"/><path fill="none" stroke-width="8" stroke-miterlimit="10" d="M119.7 128.5l-108-7.3c-7.4-0.5-9.8-4.5-5.3-9l102.5-101c4.5-4.4 14.3-7.7 21.7-7.2l108 7.3c7.4 0.5 9.8 4.5 5.3 9l-102.5 101C136.9 125.7 127.1 129 119.7 128.5z"/><path d="M280.6 57.2c3 0 10.5 0.2 19.3 2.3 15.1 3.5 26.9 10.8 34.1 21l4.8 6.9c1.3 1.8 0.8 4.3-1 5.6 -0.7 0.5-1.5 0.7-2.3 0.7 -1.3 0-2.5-0.6-3.3-1.7l-4.8-6.9c-13.4-19-41.5-19.9-47-19.9 -0.6 0-0.9 0-0.9 0 -0.1 0-0.1 0-0.2 0h-54c-2.2 0-4-1.8-4-4 0-2.2 1.8-4 4-4h53.9C279.5 57.2 279.9 57.2 280.6 57.2"/><path d="M321.7 85.6l12.5 2.2 2.2-12.5c0.4-2.4 3.5-3.1 4.9-1.1l2.2 3.1c0.4 0.6 0.6 1.3 0.5 2l-2.6 15.1c-0.3 1.5-1.7 2.5-3.1 2.2L323 94.1c-0.7-0.1-1.3-0.5-1.8-1.1l-2.2-3.1C317.6 87.9 319.3 85.2 321.7 85.6z"/><polyline fill="none" stroke-width="8" stroke-linecap="round" stroke-linejoin="round" stroke-miterlimit="10" points=" 297.5 76 160.3 211.2 418.6 228.6 628.9 21.4 370.6 4 317.6 56.2 "/></svg>