<svg xmlns="http://www.w3.org/2000/svg" xmlns:xlink="http://www.w3.org/1999/xlink" version="1.1" class="icons icon-cc" id="icon-cc" x="0px" y="0px" viewBox="0 0 45 50" xml:space="preserve" enable-background="new 0 0 45 50"><path d="M22.5 48.42c-0.29 0-0.48-0.07-0.52-0.09L2.56 37.12c-0.21-0.12-0.52-0.66-0.52-0.91V13.79c0-0.25 0.31-0.78 0.52-0.91L21.98 1.67c0.04-0.02 0.23-0.09 0.52-0.09 0.29 0 0.48 0.07 0.52 0.09l19.42 11.21c0.21 0.12 0.52 0.66 0.52 0.9v22.42c0 0.25-0.31 0.78-0.52 0.91L23.02 48.33C22.98 48.35 22.79 48.42 22.5 48.42" fill="#FFF"></path><path d="M42.71 11.59L24 0.79c-0.41-0.24-0.96-0.36-1.5-0.36S21.41 0.55 21 0.79L2.29 11.59c-0.83 0.48-1.5 1.65-1.5 2.61v21.6c0 0.96 0.68 2.13 1.5 2.61L21 49.21c0.41 0.24 0.96 0.36 1.5 0.36s1.09-0.12 1.5-0.36l18.71-10.8c0.83-0.48 1.5-1.65 1.5-2.61V14.2C44.22 13.24 43.54 12.07 42.71 11.59M41.71 36.67L23 47.48c-0.04 0.02-0.22 0.09-0.5 0.09 -0.28 0-0.46-0.07-0.5-0.09L3.28 36.67c-0.21-0.12-0.5-0.63-0.5-0.87v-3.74h0v-2.02h0V14.2c0-0.24 0.3-0.75 0.5-0.87L22 2.52c0.04-0.02 0.22-0.09 0.5-0.09 0.28 0 0.46 0.07 0.5 0.09l18.71 10.8c0.21 0.12 0.5 0.63 0.5 0.87V30h0v2.02h0v3.78C42.22 36.04 41.92 36.55 41.71 36.67" fill="#CBCBCB"></path><path d="M26.3 28.92l6.29-3.58c0.25-0.12 0.37-0.49 0.25-0.74 -0.12-0.25-0.49-0.37-0.74-0.25l-6.29 3.58c-0.25 0.12-0.37 0.49-0.25 0.74C25.68 29.04 26.05 29.17 26.3 28.92z" style="fill:#6B1F5C;stroke-miterlimit:10;stroke-width:0.5;stroke:#6B1E5B"></path><path d="M27.9 11.28L7.92 22.51C6.93 23 6.68 24.23 7.18 25.22l0.62 0.99 2.59 4.56 4.07 7.15c0.49 0.99 1.73 1.36 2.71 0.74l19.86-11.22c0.99-0.49 1.36-1.73 0.74-2.71l-4.07-7.15 -2.59-4.56 -0.62-0.99C30 11.03 28.76 10.79 27.9 11.28zM9.27 26.7l21.46-12.09 1.48 2.71L10.75 29.41 9.27 26.7zM36.9 25.34c0.25 0.49 0.12 0.99-0.37 1.23L16.67 37.92c-0.49 0.25-0.99 0.12-1.23-0.37l-4.07-7.15 21.46-12.21L36.9 25.34zM8.66 25.71l-0.49-0.99c-0.25-0.49-0.12-0.99 0.37-1.23l19.86-11.22c0.49-0.25 0.99-0.12 1.23 0.37l0.62 0.99L8.66 25.71z" style="fill:#6B1F5C;stroke-miterlimit:10;stroke-width:0.5;stroke:#6B1E5B"></path></svg>