<svg xmlns="http://www.w3.org/2000/svg" xmlns:xlink="http://www.w3.org/1999/xlink" version="1.1" class="icons icon-date" id="icon-date" x="0" y="0" viewBox="0 0 45 50" xml:space="preserve" enable-background="new 0 0 45 50"><g><g><path d="M22.5 48.42c-0.29 0-0.48-0.07-0.52-0.09L2.56 37.12c-0.21-0.12-0.52-0.66-0.52-0.91V13.79c0-0.25 0.31-0.78 0.52-0.91L21.98 1.67c0.04-0.02 0.23-0.09 0.52-0.09 0.29 0 0.48 0.07 0.52 0.09l19.42 11.21c0.21 0.12 0.52 0.66 0.52 0.9v22.42c0 0.25-0.31 0.78-0.52 0.91L23.02 48.33C22.98 48.35 22.79 48.42 22.5 48.42" fill="#FFF"></path><path d="M42.71 11.59L24 0.79c-0.41-0.24-0.96-0.36-1.5-0.36S21.41 0.55 21 0.79L2.29 11.59c-0.83 0.48-1.5 1.65-1.5 2.61v21.6c0 0.96 0.68 2.13 1.5 2.61L21 49.21c0.41 0.24 0.96 0.36 1.5 0.36s1.09-0.12 1.5-0.36l18.71-10.8c0.83-0.48 1.5-1.65 1.5-2.61V14.2C44.22 13.24 43.54 12.07 42.71 11.59M41.71 36.67L23 47.48c-0.04 0.02-0.22 0.09-0.5 0.09 -0.28 0-0.46-0.07-0.5-0.09L3.28 36.67c-0.21-0.12-0.5-0.63-0.5-0.87v-3.74h0v-2.02h0V14.2c0-0.24 0.3-0.75 0.5-0.87L22 2.52c0.04-0.02 0.22-0.09 0.5-0.09 0.28 0 0.46 0.07 0.5 0.09l18.71 10.8c0.21 0.12 0.5 0.63 0.5 0.87V30h0v2.02h0v3.78C42.22 36.04 41.92 36.55 41.71 36.67" fill="#CBCBCB"></path></g><g><path d="M31.94 36.06H13.06c-1.49 0-2.66-1.1-2.66-2.52V17.42c0-1.36 1.1-2.25 2.66-2.25h18.88c1.56 0 2.66 0.89 2.66 2.25v16.13C34.6 34.97 33.43 36.06 31.94 36.06M13.06 16.03c-0.88 0-1.79 0.3-1.79 1.39v16.13c0 0.98 0.75 1.76 1.79 1.76h18.88c1.05 0 1.79-0.78 1.79-1.76V17.42c0-1.09-0.92-1.39-1.79-1.39H13.06z" style="fill:#6B1F5D;stroke-miterlimit:10;stroke-width:0.5;stroke:#6B1E5B"></path><path d="M26.12 17.15c-0.22 0-0.43-0.18-0.43-0.4v-2.41c0-0.22 0.21-0.4 0.43-0.4s0.43 0.18 0.43 0.4v2.41C26.55 16.97 26.34 17.15 26.12 17.15" style="fill:#6B1F5D;stroke-miterlimit:10;stroke-width:0.5;stroke:#6B1E5B"></path><path d="M29.79 22.81c0 0.22-0.18 0.4-0.4 0.4h-2.43c-0.22 0-0.4-0.18-0.4-0.4v-2.44c0-0.22 0.18-0.4 0.4-0.4h2.43c0.22 0 0.4 0.18 0.4 0.4V22.81zM27.3 22.45h1.62v-1.67H27.3V22.45z" style="fill:#6B1F5D;stroke-miterlimit:10;stroke-width:0.5;stroke:#6B1E5B"></path><path d="M29.79 32.48c0 0.22-0.18 0.4-0.4 0.4h-2.43c-0.22 0-0.4-0.18-0.4-0.4v-2.44c0-0.22 0.18-0.4 0.4-0.4h2.43c0.22 0 0.4 0.18 0.4 0.4V32.48zM27.3 32.01h1.62v-1.62H27.3V32.01z" style="fill:#6B1F5D;stroke-miterlimit:10;stroke-width:0.5;stroke:#6B1E5B"></path><path d="M29.79 27.67c0 0.22-0.18 0.4-0.4 0.4h-2.43c-0.22 0-0.4-0.18-0.4-0.4v-2.44c0-0.22 0.18-0.4 0.4-0.4h2.43c0.22 0 0.4 0.18 0.4 0.4V27.67zM27.3 27.26h1.62v-1.67H27.3V27.26z" style="fill:#6B1F5D;stroke-miterlimit:10;stroke-width:0.5;stroke:#6B1E5B"></path><path d="M18.56 22.81c0 0.22-0.18 0.4-0.4 0.4h-2.44c-0.22 0-0.4-0.18-0.4-0.4v-2.44c0-0.22 0.18-0.4 0.4-0.4h2.44c0.22 0 0.4 0.18 0.4 0.4L18.56 22.81 18.56 22.81zM16.07 22.45h1.62v-1.67h-1.62V22.45z" style="fill:#6B1F5D;stroke-miterlimit:10;stroke-width:0.5;stroke:#6B1E5B"></path><path d="M24.12 22.81c0 0.22-0.18 0.4-0.4 0.4h-2.44c-0.22 0-0.4-0.18-0.4-0.4v-2.44c0-0.22 0.18-0.4 0.4-0.4h2.44c0.22 0 0.4 0.18 0.4 0.4V22.81zM21.74 22.45h1.51v-1.67h-1.51V22.45z" style="fill:#6B1F5D;stroke-miterlimit:10;stroke-width:0.5;stroke:#6B1E5B"></path><path d="M18.85 17.15c-0.22 0-0.41-0.18-0.41-0.4v-2.41c0-0.22 0.18-0.4 0.41-0.4s0.41 0.18 0.41 0.4v2.41C19.26 16.97 19.08 17.15 18.85 17.15" style="fill:#6B1F5D;stroke-miterlimit:10;stroke-width:0.5;stroke:#6B1E5B"></path><path d="M18.56 27.67c0 0.22-0.18 0.4-0.4 0.4h-2.44c-0.22 0-0.4-0.18-0.4-0.4v-2.44c0-0.22 0.18-0.4 0.4-0.4h2.44c0.22 0 0.4 0.18 0.4 0.4L18.56 27.67 18.56 27.67zM16.07 27.26h1.62v-1.67h-1.62V27.26z" style="fill:#6B1F5D;stroke-miterlimit:10;stroke-width:0.5;stroke:#6B1E5B"></path><path d="M24.12 32.48c0 0.22-0.18 0.4-0.4 0.4h-2.44c-0.22 0-0.4-0.18-0.4-0.4v-2.44c0-0.22 0.18-0.4 0.4-0.4h2.44c0.22 0 0.4 0.18 0.4 0.4V32.48zM21.74 32.01h1.51v-1.62h-1.51V32.01z" style="fill:#6B1F5D;stroke-miterlimit:10;stroke-width:0.5;stroke:#6B1E5B"></path><path d="M24.12 27.67c0 0.22-0.18 0.4-0.4 0.4h-2.44c-0.22 0-0.4-0.18-0.4-0.4v-2.44c0-0.22 0.18-0.4 0.4-0.4h2.44c0.22 0 0.4 0.18 0.4 0.4V27.67zM21.74 27.26h1.51v-1.67h-1.51V27.26z" style="fill:#6B1F5D;stroke-miterlimit:10;stroke-width:0.5;stroke:#6B1E5B"></path><path d="M18.56 32.48c0 0.22-0.18 0.4-0.4 0.4h-2.44c-0.22 0-0.4-0.18-0.4-0.4v-2.44c0-0.22 0.18-0.4 0.4-0.4h2.44c0.22 0 0.4 0.18 0.4 0.4L18.56 32.48 18.56 32.48zM16.07 32.01h1.62v-1.62h-1.62V32.01z" style="fill:#6B1F5D;stroke-miterlimit:10;stroke-width:0.5;stroke:#6B1E5B"></path></g></g></svg>