<svg xmlns="http://www.w3.org/2000/svg" xmlns:xlink="http://www.w3.org/1999/xlink" version="1.1" class="icons icon-email" id="icon-email" x="0" y="0" viewBox="0 0 45 50" xml:space="preserve" enable-background="new 0 0 45 50"><g><g><path d="M22.5 48.42c-0.29 0-0.48-0.07-0.52-0.09L2.56 37.12c-0.21-0.12-0.52-0.66-0.52-0.91V13.79c0-0.25 0.31-0.78 0.52-0.91L21.98 1.67c0.04-0.02 0.23-0.09 0.52-0.09 0.29 0 0.48 0.07 0.52 0.09l19.42 11.21c0.21 0.12 0.52 0.66 0.52 0.9v22.42c0 0.25-0.31 0.78-0.52 0.91L23.02 48.33C22.98 48.35 22.79 48.42 22.5 48.42" fill="#FFF"></path><path d="M42.71 11.59L24 0.79c-0.41-0.24-0.96-0.36-1.5-0.36S21.41 0.55 21 0.79L2.29 11.59c-0.83 0.48-1.5 1.65-1.5 2.61v21.6c0 0.96 0.68 2.13 1.5 2.61L21 49.21c0.41 0.24 0.96 0.36 1.5 0.36s1.09-0.12 1.5-0.36l18.71-10.8c0.83-0.48 1.5-1.65 1.5-2.61V14.2C44.22 13.24 43.54 12.07 42.71 11.59M41.71 36.67L23 47.48c-0.04 0.02-0.22 0.09-0.5 0.09 -0.28 0-0.46-0.07-0.5-0.09L3.28 36.67c-0.21-0.12-0.5-0.63-0.5-0.87v-3.74h0v-2.02h0V14.2c0-0.24 0.3-0.75 0.5-0.87L22 2.52c0.04-0.02 0.22-0.09 0.5-0.09 0.28 0 0.46 0.07 0.5 0.09l18.71 10.8c0.21 0.12 0.5 0.63 0.5 0.87V30h0v2.02h0v3.78C42.22 36.04 41.92 36.55 41.71 36.67" fill="#CBCBCB"></path></g><path d="M22.84 39.07c3.25 0 5.95-0.81 8.25-2.3 0.13-0.13 0.27-0.27 0.27-0.41 0-0.27-0.27-0.54-0.54-0.54 -0.13 0-0.27 0-0.27 0 -2.3 1.35-4.6 2.03-7.71 2.03 -7.71 0-13.12-5.68-13.12-12.85s5.55-12.99 12.85-12.99c7.3 0 12.85 5.68 12.85 11.63 0 4.6-2.16 6.63-4.46 6.63 -1.76 0-2.71-0.95-2.71-2.57 0-0.41 0-1.08 0.27-1.89l1.22-6.49c0.13-0.68-0.41-1.35-1.08-1.35 -0.54 0-0.95 0.41-1.08 1.08L27.3 20.4c-0.81-1.35-2.16-2.71-4.73-2.71 -3.65 0-7.44 3.38-7.44 7.98 0 3.52 2.57 5.82 5.68 5.82 2.44 0 4.06-1.22 5.28-2.71 0.68 1.62 2.16 2.71 4.46 2.71 2.97 0 5.95-2.43 5.95-7.84 0-6.76-6.09-12.71-13.93-12.71C14.72 10.93 8.5 17.29 8.5 25S14.59 39.07 22.84 39.07zM21.21 29.6c-2.3 0-3.92-1.49-3.92-4.06 0-3.25 2.57-5.82 5.27-5.82 2.3 0 3.92 1.76 3.92 4.06C26.49 26.89 23.92 29.6 21.21 29.6z" style="fill:#6B1E5B;stroke-miterlimit:10;stroke-width:0.5;stroke:#6B1E5B"></path></g></svg>