<svg xmlns="http://www.w3.org/2000/svg" xmlns:xlink="http://www.w3.org/1999/xlink" version="1.1" class="icons icon-key" id="icon-key" x="0" y="0" viewBox="0 0 45 50" xml:space="preserve" enable-background="new 0 0 45 50">
    <g>
        <path d="M22.5 48.42c-0.29 0-0.48-0.07-0.52-0.09L2.56 37.12c-0.21-0.12-0.52-0.66-0.52-0.91V13.79c0-0.25 0.31-0.78 0.52-0.91L21.98 1.67c0.04-0.02 0.23-0.09 0.52-0.09 0.29 0 0.48 0.07 0.52 0.09l19.42 11.21c0.21 0.12 0.52 0.66 0.52 0.9v22.42c0 0.25-0.31 0.78-0.52 0.91L23.02 48.33C22.98 48.35 22.79 48.42 22.5 48.42" fill="#FFF"></path>
        <path d="M42.71 11.59L24 0.79c-0.41-0.24-0.96-0.36-1.5-0.36S21.41 0.55 21 0.79L2.29 11.59c-0.83 0.48-1.5 1.65-1.5 2.61v21.6c0 0.96 0.68 2.13 1.5 2.61L21 49.21c0.41 0.24 0.96 0.36 1.5 0.36s1.09-0.12 1.5-0.36l18.71-10.8c0.83-0.48 1.5-1.65 1.5-2.61V14.2C44.22 13.24 43.54 12.07 42.71 11.59M41.71 36.67L23 47.48c-0.04 0.02-0.22 0.09-0.5 0.09 -0.28 0-0.46-0.07-0.5-0.09L3.28 36.67c-0.21-0.12-0.5-0.63-0.5-0.87v-3.74h0v-2.02h0V14.2c0-0.24 0.3-0.75 0.5-0.87L22 2.52c0.04-0.02 0.22-0.09 0.5-0.09 0.28 0 0.46 0.07 0.5 0.09l18.71 10.8c0.21 0.12 0.5 0.63 0.5 0.87V30h0v2.02h0v3.78C42.22 36.04 41.92 36.55 41.71 36.67" fill="#CBCBCB"></path>
    </g>
    <g transform="scale(.65) translate(7.75, 10)" fill="#6B205E">
        <path d="M21.6,54c-1.4,0-2.8-0.6-3.8-1.6L1.6,36.2c-1-1-1.6-2.3-1.6-3.8s0.6-2.8,1.6-3.8L28.7,1.6c2.1-2.1,5.5-2.1,7.5,0l16.2,16.2
		c1,1,1.6,2.3,1.6,3.8s-0.6,2.8-1.6,3.8L25.3,52.4C24.3,53.5,23,54,21.6,54z M32.5,3c-0.6,0-1.2,0.2-1.6,0.7L3.7,30.8
		c-0.9,0.9-0.9,2.4,0,3.3l16.2,16.2c0.9,0.9,2.4,0.9,3.3,0l27.1-27.1c0.9-0.9,0.9-2.4,0-3.3L34.1,3.7C33.6,3.2,33.1,3,32.5,3z" />
        <ellipse transform="matrix(0.7071 -0.7071 0.7071 0.7071 -18.6784 23.946)" cx="19.6" cy="34.5" rx="1.9" ry="1.9" />
        <path d="M19.5,41.9c-1.9,0-3.8-0.7-5.3-2.2c-1.4-1.4-2.2-3.3-2.2-5.3s0.8-3.9,2.2-5.3c1.9-1.9,4.6-2.6,7.2-2l14-14
		c0.3-0.3,0.7-0.4,1.1-0.4h0c0.4,0,0.8,0.2,1.1,0.4l2.7,2.7c0.6,0.6,0.6,1.5,0,2.1L39,19.1l2.2,2.2c0.6,0.6,0.6,1.5,0,2.1l-2.9,2.9
		c0,0,0,0.1-0.1,0.1l-3.1,3.2C35,29.9,34.6,30,34.2,30c-0.4,0-0.8-0.2-1.1-0.4l-2.2-2.2l-4.4,4.3c1.1,2.7,0.4,5.9-1.7,8
		C23.3,41.2,21.4,41.9,19.5,41.9z M19.5,29.9c-1.2,0-2.3,0.5-3.2,1.3c-0.8,0.8-1.3,2-1.3,3.2c0,1.2,0.5,2.3,1.3,3.2
		c1.8,1.8,4.6,1.8,6.3,0c1.4-1.4,1.7-3.7,0.7-5.4c-0.4-0.6-0.3-1.4,0.2-1.8l6.3-6.1c0.6-0.6,1.5-0.6,2.1,0l2.2,2.2l1-1l-0.9-0.9
		c-0.3-0.3-0.5-0.8-0.5-1.2c0.1-0.6,0.4-1.1,1-1.3c0.6-0.2,1.2-0.1,1.6,0.3l0.9,0.9l0.9-0.9l-2.2-2.2c-0.6-0.6-0.6-1.5,0-2.1
		l1.1-1.2l-0.6-0.6L22.8,29.9c-0.4,0.4-1.1,0.6-1.6,0.3C20.6,30.1,20.1,29.9,19.5,29.9z" />
    </g>
</svg>
