<svg xmlns="http://www.w3.org/2000/svg" xmlns:xlink="http://www.w3.org/1999/xlink" version="1.1" class="icons icon-key" id="icon-key" x="0" y="0" viewBox="0 0 45 50" xml:space="preserve" enable-background="new 0 0 45 50"><g><path d="M22.5 48.42c-0.29 0-0.48-0.07-0.52-0.09L2.56 37.12c-0.21-0.12-0.52-0.66-0.52-0.91V13.79c0-0.25 0.31-0.78 0.52-0.91L21.98 1.67c0.04-0.02 0.23-0.09 0.52-0.09 0.29 0 0.48 0.07 0.52 0.09l19.42 11.21c0.21 0.12 0.52 0.66 0.52 0.9v22.42c0 0.25-0.31 0.78-0.52 0.91L23.02 48.33C22.98 48.35 22.79 48.42 22.5 48.42" fill="#FFF"></path><path d="M42.71 11.59L24 0.79c-0.41-0.24-0.96-0.36-1.5-0.36S21.41 0.55 21 0.79L2.29 11.59c-0.83 0.48-1.5 1.65-1.5 2.61v21.6c0 0.96 0.68 2.13 1.5 2.61L21 49.21c0.41 0.24 0.96 0.36 1.5 0.36s1.09-0.12 1.5-0.36l18.71-10.8c0.83-0.48 1.5-1.65 1.5-2.61V14.2C44.22 13.24 43.54 12.07 42.71 11.59M41.71 36.67L23 47.48c-0.04 0.02-0.22 0.09-0.5 0.09 -0.28 0-0.46-0.07-0.5-0.09L3.28 36.67c-0.21-0.12-0.5-0.63-0.5-0.87v-3.74h0v-2.02h0V14.2c0-0.24 0.3-0.75 0.5-0.87L22 2.52c0.04-0.02 0.22-0.09 0.5-0.09 0.28 0 0.46 0.07 0.5 0.09l18.71 10.8c0.21 0.12 0.5 0.63 0.5 0.87V30h0v2.02h0v3.78C42.22 36.04 41.92 36.55 41.71 36.67" fill="#CBCBCB"></path><path d="M34.68 31.15h-2.79c-0.53 0-0.96-0.43-0.96-0.96v-0.77H30.5v0.77c0 0.53-0.43 0.96-0.96 0.96h-2.46c-0.53 0-0.96-0.43-0.96-0.96v-2.95h-6.21c-0.92 2.45-3.78 4.04-5.88 3.87 -3.51-0.29-6.05-2.87-6.05-6.12 0-3.38 2.75-6.13 6.13-6.13 2.3 0 4.41 1.31 5.45 3.33h16.5c0.53 0 0.96 0.43 0.96 0.96v3.13c0 0.53-0.43 0.96-0.96 0.96h-0.42v2.95C35.64 30.71 35.21 31.15 34.68 31.15M32.86 29.22h0.86v-2.95c0-0.53 0.43-0.96 0.96-0.96h0.42v-1.2H18.93c-0.4 0-0.76-0.25-0.9-0.62 -0.62-1.62-2.2-2.71-3.93-2.71 -2.32 0-4.2 1.89-4.2 4.21 0 2.23 1.8 4 4.28 4.21 1.31 0.11 3.68-1.15 4.05-3.1 0.09-0.46 0.48-0.79 0.95-0.79h7.9c0.53 0 0.96 0.43 0.96 0.96v2.95h0.54v-0.77c0-0.53 0.43-0.96 0.96-0.96h2.36c0.53 0 0.96 0.43 0.96 0.96V29.22zM14.13 27.29c-1.32 0-2.39-1.07-2.39-2.39 0-1.32 1.07-2.39 2.39-2.39 1.32 0 2.39 1.07 2.39 2.39C16.52 26.21 15.45 27.29 14.13 27.29M14.13 24.42c-0.26 0-0.47 0.21-0.47 0.47 0 0.26 0.21 0.47 0.47 0.47 0.26 0 0.47-0.21 0.47-0.47C14.6 24.64 14.39 24.42 14.13 24.42" fill="#6B205E"></path></g></svg>