<svg xmlns="http://www.w3.org/2000/svg" xmlns:xlink="http://www.w3.org/1999/xlink" version="1.1" class="icons icon-keyboard" id="icon-keyboard" x="0" y="0" viewBox="0 0 45 50" xml:space="preserve" enable-background="new 0 0 45 50"><g><g><path d="M22.5 48.42c-0.29 0-0.48-0.07-0.52-0.09L2.56 37.12c-0.21-0.12-0.52-0.66-0.52-0.91V13.79c0-0.25 0.31-0.78 0.52-0.91L21.98 1.67c0.04-0.02 0.23-0.09 0.52-0.09 0.29 0 0.48 0.07 0.52 0.09l19.42 11.21c0.21 0.12 0.52 0.66 0.52 0.9v22.42c0 0.25-0.31 0.78-0.52 0.91L23.02 48.33C22.98 48.35 22.79 48.42 22.5 48.42" fill="#FFF"></path><path d="M42.71 11.59L24 0.79c-0.41-0.24-0.96-0.36-1.5-0.36S21.41 0.55 21 0.79L2.29 11.59c-0.83 0.48-1.5 1.65-1.5 2.61v21.6c0 0.96 0.68 2.13 1.5 2.61L21 49.21c0.41 0.24 0.96 0.36 1.5 0.36s1.09-0.12 1.5-0.36l18.71-10.8c0.83-0.48 1.5-1.65 1.5-2.61V14.2C44.22 13.24 43.54 12.07 42.71 11.59M41.71 36.67L23 47.48c-0.04 0.02-0.22 0.09-0.5 0.09 -0.28 0-0.46-0.07-0.5-0.09L3.28 36.67c-0.21-0.12-0.5-0.63-0.5-0.87v-3.74h0v-2.02h0V14.2c0-0.24 0.3-0.75 0.5-0.87L22 2.52c0.04-0.02 0.22-0.09 0.5-0.09 0.28 0 0.46 0.07 0.5 0.09l18.71 10.8c0.21 0.12 0.5 0.63 0.5 0.87V30h0v2.02h0v3.78C42.22 36.04 41.92 36.55 41.71 36.67" fill="#CBCBCB"></path></g><g><path d="M36.27 16.83H8.73c-0.31 0-0.63 0.31-0.63 0.63v15.08c0 0.31 0.31 0.63 0.63 0.63h27.54c0.31 0 0.63-0.31 0.63-0.63V17.46C36.9 17.15 36.58 16.83 36.27 16.83zM35.64 31.91H9.25V17.98h26.39V31.91L35.64 31.91z" style="fill:#6E1D55;stroke-miterlimit:10;stroke-width:0.5;stroke:#6F1E55"></path><path d="M15.95 26.05h0.31c0.31 0 0.63-0.31 0.63-0.63V25.1c0-0.31-0.31-0.63-0.63-0.63h-0.31c-0.31 0-0.63 0.31-0.63 0.63v0.31C15.33 25.73 15.64 26.05 15.95 26.05z" style="fill:#6E1D55;stroke-miterlimit:10;stroke-width:0.5;stroke:#6F1E55"></path><path d="M17.63 29.61h9.63c0.31 0 0.63-0.31 0.63-0.63v-0.21c0-0.31-0.31-0.63-0.63-0.63h-9.63c-0.31 0-0.63 0.31-0.63 0.63v0.21C17.11 29.29 17.32 29.61 17.63 29.61z" style="fill:#6E1D55;stroke-miterlimit:10;stroke-width:0.5;stroke:#6F1E55"></path><path d="M19.2 26.05h0.31c0.31 0 0.63-0.31 0.63-0.63V25.1c0-0.31-0.31-0.63-0.63-0.63H19.2c-0.31 0-0.63 0.31-0.63 0.63v0.31C18.57 25.73 18.78 26.05 19.2 26.05z" style="fill:#6E1D55;stroke-miterlimit:10;stroke-width:0.5;stroke:#6F1E55"></path><path d="M22.34 26.05h0.31c0.31 0 0.63-0.31 0.63-0.63V25.1c0-0.31-0.31-0.63-0.63-0.63h-0.31c-0.31 0-0.63 0.31-0.63 0.63v0.31C21.82 25.73 22.03 26.05 22.34 26.05z" style="fill:#6E1D55;stroke-miterlimit:10;stroke-width:0.5;stroke:#6F1E55"></path><path d="M25.59 26.05h0.31c0.31 0 0.63-0.31 0.63-0.63V25.1c0-0.31-0.31-0.63-0.63-0.63h-0.31c-0.31 0-0.63 0.31-0.63 0.63v0.31C24.96 25.73 25.27 26.05 25.59 26.05z" style="fill:#6E1D55;stroke-miterlimit:10;stroke-width:0.5;stroke:#6F1E55"></path><path d="M28.73 26.05h0.31c0.31 0 0.63-0.31 0.63-0.63V25.1c0-0.31-0.31-0.63-0.63-0.63h-0.31c-0.31 0-0.63 0.31-0.63 0.63v0.31C28.21 25.73 28.42 26.05 28.73 26.05z" style="fill:#6E1D55;stroke-miterlimit:10;stroke-width:0.5;stroke:#6F1E55"></path><path d="M12.71 22.49h0.31c0.31 0 0.63-0.31 0.63-0.63v-0.31c0-0.31-0.31-0.63-0.63-0.63h-0.31c-0.31 0-0.63 0.31-0.63 0.63v0.31C12.18 22.17 12.39 22.49 12.71 22.49z" style="fill:#6E1D55;stroke-miterlimit:10;stroke-width:0.5;stroke:#6F1E55"></path><path d="M15.95 22.49h0.31c0.31 0 0.63-0.31 0.63-0.63v-0.31c0-0.31-0.31-0.63-0.63-0.63h-0.31c-0.31 0-0.63 0.31-0.63 0.63v0.31C15.33 22.17 15.64 22.49 15.95 22.49z" style="fill:#6E1D55;stroke-miterlimit:10;stroke-width:0.5;stroke:#6F1E55"></path><path d="M19.2 22.49h0.31c0.31 0 0.63-0.31 0.63-0.63v-0.31c0-0.31-0.31-0.63-0.63-0.63H19.2c-0.31 0-0.63 0.31-0.63 0.63v0.31C18.57 22.17 18.78 22.49 19.2 22.49z" style="fill:#6E1D55;stroke-miterlimit:10;stroke-width:0.5;stroke:#6F1E55"></path><path d="M22.34 22.49h0.31c0.31 0 0.63-0.31 0.63-0.63v-0.31c0-0.31-0.31-0.63-0.63-0.63h-0.31c-0.31 0-0.63 0.31-0.63 0.63v0.31C21.82 22.17 22.03 22.49 22.34 22.49z" style="fill:#6E1D55;stroke-miterlimit:10;stroke-width:0.5;stroke:#6F1E55"></path><path d="M25.59 22.49h0.31c0.31 0 0.63-0.31 0.63-0.63v-0.31c0-0.31-0.31-0.63-0.63-0.63h-0.31c-0.31 0-0.63 0.31-0.63 0.63v0.31C24.96 22.17 25.27 22.49 25.59 22.49z" style="fill:#6E1D55;stroke-miterlimit:10;stroke-width:0.5;stroke:#6F1E55"></path><path d="M28.73 22.49h0.31c0.31 0 0.63-0.31 0.63-0.63v-0.31c0-0.31-0.31-0.63-0.63-0.63h-0.31c-0.31 0-0.63 0.31-0.63 0.63v0.31C28.21 22.17 28.42 22.49 28.73 22.49z" style="fill:#6E1D55;stroke-miterlimit:10;stroke-width:0.5;stroke:#6F1E55"></path><path d="M31.98 22.49h0.31c0.31 0 0.63-0.31 0.63-0.63v-0.31c0-0.31-0.31-0.63-0.63-0.63h-0.31c-0.31 0-0.63 0.31-0.63 0.63v0.31C31.35 22.17 31.66 22.49 31.98 22.49z" style="fill:#6E1D55;stroke-miterlimit:10;stroke-width:0.5;stroke:#6F1E55"></path></g></g></svg>