<svg xmlns="http://www.w3.org/2000/svg" version="1.1" class="icons icon-checkout-upsell" id="icon-checkout-upsell" x="0" y="0" width="45" height="50" viewBox="0 0 45 50" xml:space="preserve"><path d="M22.5 48.4c-0.3 0-0.5-0.1-0.5-0.1L2.6 37.1c-0.2-0.1-0.5-0.7-0.5-0.9V13.8c0-0.2 0.3-0.8 0.5-0.9L22 1.7c0 0 0.2-0.1 0.5-0.1 0.3 0 0.5 0.1 0.5 0.1l19.4 11.2c0.2 0.1 0.5 0.7 0.5 0.9v22.4c0 0.3-0.3 0.8-0.5 0.9L23 48.3C23 48.4 22.8 48.4 22.5 48.4" fill="#FFF"></path><path d="M42.7 11.6L24 0.8c-0.4-0.2-1-0.4-1.5-0.4S21.4 0.6 21 0.8L2.3 11.6c-0.8 0.5-1.5 1.7-1.5 2.6v21.6c0 1 0.7 2.1 1.5 2.6L21 49.2c0.4 0.2 1 0.4 1.5 0.4s1.1-0.1 1.5-0.4l18.7-10.8c0.8-0.5 1.5-1.6 1.5-2.6V14.2C44.2 13.2 43.5 12.1 42.7 11.6M41.7 36.7L23 47.5c0 0-0.2 0.1-0.5 0.1 -0.3 0-0.5-0.1-0.5-0.1L3.3 36.7c-0.2-0.1-0.5-0.6-0.5-0.9v-3.7H15.3v-2H2.8V14.2c0-0.2 0.3-0.7 0.5-0.9L22 2.5c0 0 0.2-0.1 0.5-0.1 0.3 0 0.5 0.1 0.5 0.1l18.7 10.8c0.2 0.1 0.5 0.6 0.5 0.9V30H29.7v2h12.5v3.8C42.2 36 41.9 36.6 41.7 36.7" fill="#CBCBCB"></path><path d="M22.5 43.8C22.5 43.8 22.5 43.8 22.5 43.8c-0.2 0-0.4-0.2-0.4-0.4v-8.2l-4.5 2.7c-0.2 0.1-0.4 0.1-0.5-0.1 -0.1-0.2 0-0.4 0.1-0.5l4.8-2.9c0.1-0.1 0.3-0.1 0.4-0.1 0.1 0 0.3 0 0.4 0.1l4.8 2.9c0.2 0.1 0.2 0.3 0.1 0.5 -0.1 0.2-0.3 0.2-0.5 0.1l-4.5-2.7v8.2C22.9 43.6 22.7 43.8 22.5 43.8" fill="#6B205F"></path></svg>