<svg xmlns="http://www.w3.org/2000/svg" xmlns:xlink="http://www.w3.org/1999/xlink" version="1.1" class="icons icon-location" id="icon-location" x="0" y="0" viewBox="0 0 45 50"><path d="M22.5,48.422a1.21,1.21,0,0,1-.522-.094L2.556,37.115a1.505,1.505,0,0,1-.521-.905V13.789a1.509,1.509,0,0,1,.523-.906L21.978,1.672a1.244,1.244,0,0,1,.522-.094,1.266,1.266,0,0,1,.524.094l19.42,11.213a1.506,1.506,0,0,1,.521.9V36.21a1.509,1.509,0,0,1-.523.907L23.022,48.328a1.21,1.21,0,0,1-.522.094" style="fill:#fff"/><path d="M42.713,11.593,24,.791A3.328,3.328,0,0,0,21,.791l-18.71,10.8A3.333,3.333,0,0,0,.782,14.2V35.8a3.333,3.333,0,0,0,1.5,2.6L21,49.209a3.328,3.328,0,0,0,3.007,0l18.71-10.8a3.326,3.326,0,0,0,1.505-2.6V14.2a3.326,3.326,0,0,0-1.505-2.605m-1,25.082L23,47.478a1.16,1.16,0,0,1-.5.09,1.181,1.181,0,0,1-.5-.09L3.285,36.674a1.456,1.456,0,0,1-.5-.873V32.064h0V30.041h0V14.2a1.461,1.461,0,0,1,.5-.874L22,2.521a1.212,1.212,0,0,1,.5-.089,1.164,1.164,0,0,1,.5.091l18.713,10.8a1.463,1.463,0,0,1,.5.873V30h0v2.022h0V35.8a1.454,1.454,0,0,1-.505.874" style="fill:#cbcbcb"/><path d="M22.5,33.977a.5.5,0,0,0,.417-.226c.266-.4,6.5-9.92,6.5-13.575a6.919,6.919,0,0,0-13.838,0c0,3.653,6.236,13.17,6.5,13.575A.507.507,0,0,0,22.5,33.977Zm0-19.719a5.925,5.925,0,0,1,5.919,5.919c0,2.844-4.506,10.155-5.919,12.375-1.413-2.221-5.919-9.529-5.919-12.375A5.926,5.926,0,0,1,22.5,14.258Z" style="fill:#6b205f;stroke:#6b205f;stroke-miterlimit:10;stroke-width:0.5px"/><path d="M24.983,19.476A2.482,2.482,0,1,0,22.5,21.958,2.484,2.484,0,0,0,24.983,19.476Zm-3.963,0A1.481,1.481,0,1,1,22.5,20.958,1.483,1.483,0,0,1,21.02,19.476Z" style="fill:#6b205f;stroke:#6b205f;stroke-miterlimit:10;stroke-width:0.5px"/><path d="M25.57,31.807a.5.5,0,1,0-.191.981c1.956.384,2.685,1.029,2.685,1.347,0,.64-2.219,1.609-5.562,1.609s-5.562-.97-5.562-1.611c0-.318.736-.968,2.71-1.351a.5.5,0,0,0-.19-.982c-2.237.435-3.52,1.285-3.52,2.333,0,1.713,3.3,2.61,6.561,2.61s6.562-.9,6.562-2.61C29.063,33.09,27.789,32.242,25.57,31.807Z" style="fill:#6b205f;stroke:#6b205f;stroke-miterlimit:10;stroke-width:0.5px"/></svg>