<svg xmlns="http://www.w3.org/2000/svg" class="icons icon-loyalty" id="icon-print" x="0" y="0" viewBox="0 0 45 50"><path d="M22.5,48.422a1.21,1.21,0,0,1-.522-.094L2.556,37.115a1.505,1.505,0,0,1-.521-.905V13.789a1.509,1.509,0,0,1,.523-.906L21.978,1.672a1.226,1.226,0,0,1,.522-.094,1.248,1.248,0,0,1,.524.094l19.42,11.213a1.506,1.506,0,0,1,.521.9V36.21a1.509,1.509,0,0,1-.523.907L23.022,48.328a1.21,1.21,0,0,1-.522.094" fill="#fff"/><path d="M42.713,11.593,24,.791A3.328,3.328,0,0,0,21,.791l-18.71,10.8A3.333,3.333,0,0,0,.782,14.2V35.8a3.333,3.333,0,0,0,1.5,2.6L21,49.209a3.328,3.328,0,0,0,3.007,0l18.71-10.8a3.329,3.329,0,0,0,1.505-2.6V14.2a3.329,3.329,0,0,0-1.505-2.605m-1,25.082L23,47.478a1.16,1.16,0,0,1-.5.09,1.181,1.181,0,0,1-.5-.09L3.285,36.674a1.456,1.456,0,0,1-.5-.873V32.063h0V30.041h0V14.2a1.461,1.461,0,0,1,.5-.874L22,2.521a1.212,1.212,0,0,1,.5-.089,1.187,1.187,0,0,1,.5.09l18.713,10.8a1.463,1.463,0,0,1,.5.873V30h0v2.022h0V35.8a1.454,1.454,0,0,1-.505.874" fill="#cbcbcb"/><path d="M34.271,21.449c0-.007,0-.012,0-.019a.492.492,0,0,0-.069-.239c0-.008,0-.017-.006-.024l-4.337-7c-.007-.012-.021-.017-.029-.027a.488.488,0,0,0-.118-.113.545.545,0,0,0-.058-.04c-.01-.005-.017-.014-.027-.018a.5.5,0,0,0-.2-.039H15.562l-.012,0a.5.5,0,0,0-.18.035c-.011.005-.018.014-.028.019a.46.46,0,0,0-.058.04.475.475,0,0,0-.119.113c-.008.011-.021.016-.028.027l-4.337,7c-.005.007,0,.017-.006.024a.489.489,0,0,0-.069.239c0,.007,0,.012,0,.019a.257.257,0,0,0,.008.038.493.493,0,0,0,.085.223c.007.01.005.022.012.031L22.109,35.88c.01.013.026.017.036.028a.538.538,0,0,0,.052.055c.008.006.016.007.024.013a.226.226,0,0,0,.022.011.494.494,0,0,0,.079.041.4.4,0,0,0,.041.021.455.455,0,0,0,.136.018h0a.53.53,0,0,0,.136-.018.4.4,0,0,0,.041-.021.494.494,0,0,0,.079-.041l.022-.011c.008-.005.017-.007.025-.013a.676.676,0,0,0,.052-.055c.011-.011.027-.017.036-.028L34.165,21.743c.007-.009.005-.021.011-.03a.491.491,0,0,0,.087-.226A.361.361,0,0,0,34.271,21.449Zm-18.8-5.926,2.255,5.407H12.123ZM25.858,21.93,22.5,33.741,19.141,21.93Zm-6.515-1L22.5,15.437l3.156,5.494Zm4.021-6h5.324L26.449,20.3ZM18.55,20.3l-2.239-5.369h5.324ZM18.1,21.93l3.236,11.378L12.263,21.93Zm8.8,0h5.839L23.662,33.31Zm.373-1,2.255-5.408,3.351,5.408Z" fill="#6b205f" stroke="#6b205f" stroke-miterlimit="10" stroke-width="0.5"/></svg>