<svg xmlns="http://www.w3.org/2000/svg" xmlns:xlink="http://www.w3.org/1999/xlink" version="1.1" class="icons icon-moon" id="icon-moon" x="0" y="0" viewBox="0 0 45 50" xml:space="preserve" enable-background="new 0 0 45 50"><g><g><path d="M22.5 48.42c-0.29 0-0.48-0.07-0.52-0.09L2.56 37.12c-0.21-0.12-0.52-0.66-0.52-0.91V13.79c0-0.25 0.31-0.78 0.52-0.91L21.98 1.67c0.04-0.02 0.23-0.09 0.52-0.09 0.29 0 0.48 0.07 0.52 0.09l19.42 11.21c0.21 0.12 0.52 0.66 0.52 0.9v22.42c0 0.25-0.31 0.78-0.52 0.91L23.02 48.33C22.98 48.35 22.79 48.42 22.5 48.42" fill="#FFF"></path><path d="M42.71 11.59L24 0.79c-0.41-0.24-0.96-0.36-1.5-0.36S21.41 0.55 21 0.79L2.29 11.59c-0.83 0.48-1.5 1.65-1.5 2.61v21.6c0 0.96 0.68 2.13 1.5 2.61L21 49.21c0.41 0.24 0.96 0.36 1.5 0.36s1.09-0.12 1.5-0.36l18.71-10.8c0.83-0.48 1.5-1.65 1.5-2.61V14.2C44.22 13.24 43.54 12.07 42.71 11.59M41.71 36.67L23 47.48c-0.04 0.02-0.22 0.09-0.5 0.09 -0.28 0-0.46-0.07-0.5-0.09L3.28 36.67c-0.21-0.12-0.5-0.63-0.5-0.87v-3.74h0v-2.02h0V14.2c0-0.24 0.3-0.75 0.5-0.87L22 2.52c0.04-0.02 0.22-0.09 0.5-0.09 0.28 0 0.46 0.07 0.5 0.09l18.71 10.8c0.21 0.12 0.5 0.63 0.5 0.87V30h0v2.02h0v3.78C42.22 36.04 41.92 36.55 41.71 36.67" fill="#CBCBCB"></path></g><path d="M26.59 13.93c-0.11 0-0.11-0.11-0.22 0h-0.22c-0.22 0-0.32 0.11-0.43 0.22 -0.11 0.11-0.11 0.32 0 0.43 1.62 3.35 1.51 7.14-0.54 10.39 -1.95 3.14-5.3 4.98-8.98 4.98 -1.41 0-2.71-0.22-4.11-0.76 -0.22-0.11-0.43 0-0.54 0.11 -0.11 0.11-0.11 0.43 0 0.54 2.38 4 5.19 6.06 9.2 6.28 0.32 0 0.54 0 0.87 0 6.38 0 11.58-4.76 11.9-10.93C33.73 20.43 31.14 16.21 26.59 13.93zM32.44 25.4c-0.33 5.52-5.09 9.95-10.93 9.95 -0.22 0-0.54 0-0.76 0 -3.14-0.22-5.63-1.73-7.68-4.65 1.08 0.32 2.06 0.43 3.14 0.43 4 0 7.68-2.05 9.74-5.52 1.95-3.03 2.27-6.82 1.08-10.17C30.7 17.5 32.65 21.18 32.44 25.4z" style="fill:#6E1D55;stroke-miterlimit:10;stroke-width:0.5;stroke:#6F1E55"></path></g></svg>