<svg xmlns="http://www.w3.org/2000/svg" xmlns:xlink="http://www.w3.org/1999/xlink" version="1.1" class="icons icon-no-print" id="icon-no-print" x="0" y="0" viewBox="0 0 45 50" xml:space="preserve" enable-background="new 0 0 45 50"><g><g><path d="M22.5 48.42c-0.29 0-0.48-0.07-0.52-0.09L2.56 37.12c-0.21-0.12-0.52-0.66-0.52-0.91V13.79c0-0.25 0.31-0.78 0.52-0.91L21.98 1.67c0.04-0.02 0.23-0.09 0.52-0.09 0.29 0 0.48 0.07 0.52 0.09l19.42 11.21c0.21 0.12 0.52 0.66 0.52 0.9v22.42c0 0.25-0.31 0.78-0.52 0.91L23.02 48.33C22.98 48.35 22.79 48.42 22.5 48.42" fill="#FFF"></path><path d="M42.71 11.59L24 0.79c-0.41-0.24-0.96-0.36-1.5-0.36S21.41 0.55 21 0.79L2.29 11.59c-0.83 0.48-1.5 1.65-1.5 2.61v21.6c0 0.96 0.68 2.13 1.5 2.61L21 49.21c0.41 0.24 0.96 0.36 1.5 0.36s1.09-0.12 1.5-0.36l18.71-10.8c0.83-0.48 1.5-1.65 1.5-2.61V14.2C44.22 13.24 43.54 12.07 42.71 11.59M41.71 36.67L23 47.48c-0.04 0.02-0.22 0.09-0.5 0.09 -0.28 0-0.46-0.07-0.5-0.09L3.28 36.67c-0.21-0.12-0.5-0.63-0.5-0.87v-3.74h0v-2.02h0V14.2c0-0.24 0.3-0.75 0.5-0.87L22 2.52c0.04-0.02 0.22-0.09 0.5-0.09 0.28 0 0.46 0.07 0.5 0.09l18.71 10.8c0.21 0.12 0.5 0.63 0.5 0.87V30h0v2.02h0v3.78C42.22 36.04 41.92 36.55 41.71 36.67" fill="#CBCBCB"></path></g><g><path d="M18.66 34.21h7.43c0.3 0 0.5-0.2 0.5-0.5s-0.2-0.5-0.5-0.5h-7.43c-0.3 0-0.5 0.2-0.5 0.5S18.37 34.21 18.66 34.21z" style="fill:#6E1D55;stroke-miterlimit:10;stroke-width:0.5;stroke:#6F1E55"></path><path d="M18.66 31.88h7.43c0.3 0 0.5-0.2 0.5-0.5 0-0.3-0.2-0.49-0.5-0.49h-7.43c-0.3 0-0.5 0.2-0.5 0.49C18.17 31.63 18.37 31.88 18.66 31.88z" style="fill:#6E1D55;stroke-miterlimit:10;stroke-width:0.5;stroke:#6F1E55"></path><path d="M32.03 16.34h-3.47l-0.05-0.05 -2.18-2.13c-0.2-0.2-0.45-0.3-0.69-0.3h-8.66c-0.54 0-1.04 0.45-1.04 1.04v1.48h-3.32c-1.39-0.05-2.53 1.09-2.53 2.53v7.18c0 1.39 1.14 2.57 2.53 2.57h19.41c1.39 0 2.53-1.14 2.53-2.57v-7.18C34.56 17.47 33.42 16.34 32.03 16.34zM25.64 14.85l2.18 2.18v3.42H16.98v-5.59H25.64zM33.57 26.09c0 0.84-0.69 1.58-1.54 1.58H12.62c-0.84 0-1.54-0.69-1.54-1.58v-7.18c0-0.84 0.69-1.58 1.54-1.58h3.32v3.61c0 0.3 0.2 0.5 0.5 0.5h11.88c0.3 0 0.5-0.2 0.5-0.5v-3.61h3.17c0.84 0 1.54 0.69 1.54 1.58v7.18H33.57z" style="fill:#6E1D55;stroke-miterlimit:10;stroke-width:0.5;stroke:#6F1E55"></path><path d="M28.32 29.65c-0.3 0-0.5 0.2-0.5 0.5l-0.05 6.19 -10.84-0.05v-6.14c0-0.3-0.2-0.5-0.5-0.5s-0.5 0.2-0.5 0.5v6.19c0 0.54 0.45 1.04 1.04 1.04h10.79c0.54 0 1.04-0.45 1.04-1.04v-6.19C28.81 29.85 28.61 29.65 28.32 29.65z" style="fill:#6E1D55;stroke-miterlimit:10;stroke-width:0.5;stroke:#6F1E55"></path><line x1="10.54" y1="36.68" x2="34.9" y2="12.62" style="fill:#6E1D55;stroke-miterlimit:10;stroke:#6F1E55"></line><line x1="10.1" y1="12.62" x2="34.46" y2="36.68" style="fill:#6E1D55;stroke-miterlimit:10;stroke:#6F1E55"></line></g></g></svg>