<?xml version="1.0" encoding="utf-8"?>
<!-- Generator: Adobe Illustrator 24.0.0, SVG Export Plug-In . SVG Version: 6.00 Build 0)  -->
<svg version="1.1" xmlns="http://www.w3.org/2000/svg" xmlns:xlink="http://www.w3.org/1999/xlink" x="0px" y="0px"
	 viewBox="0 0 45 50" style="enable-background:new 0 0 45 50;" xml:space="preserve">
<style type="text/css">
	.st0{fill:#FFFFFF;}
	.st1{fill:#CBCBCB;}
	.st2{fill:#6B205E;}
	.st3{fill:#6B205F;}
	.st4{fill:#6B1F5D;stroke:#6B1E5B;stroke-width:0.5;stroke-miterlimit:10;}
	.st5{fill:#6B1F5C;stroke:#6B1E5B;stroke-width:0.5;stroke-miterlimit:10;}
	.st6{fill:#6B1E5B;stroke:#6B1E5B;stroke-width:0.5;stroke-miterlimit:10;}
	.st7{fill:#6E1D55;stroke:#6F1E55;stroke-width:0.5;stroke-miterlimit:10;}
	.st8{fill:#6E1D55;stroke:#6F1E55;stroke-miterlimit:10;}
	.st9{fill:none;stroke:#CBCBCB;stroke-miterlimit:10;}
	.st10{fill:none;stroke:#6B205F;stroke-width:1.5;stroke-linecap:round;stroke-linejoin:round;stroke-miterlimit:10;}
	.st11{stroke:#6B205F;stroke-miterlimit:10;}
	.st12{fill:#010101;}
	.st13{fill:#6B205F;stroke:#6B205F;stroke-width:0.5;stroke-miterlimit:10;}
	.st14{display:none;}
	.st15{display:inline;fill:#6B205F;stroke:#6B205F;stroke-width:0.5;stroke-miterlimit:10;}
	.st16{fill:#6B205F;stroke:#6B205F;stroke-miterlimit:10;}
</style>
<g id="checkin_1_">
</g>
<g id="checkout_1_">
</g>
<g id="key">
</g>
<g id="confirmation_1_">
</g>
<g id="date_1_">
</g>
<g id="card_1_">
</g>
<g id="email_1_">
</g>
<g id="keyboard_1_">
</g>
<g id="moon_1_">
</g>
<g id="no-print_2_">
</g>
<g id="oos_1_">
</g>
<g id="pen_1_">
</g>
<g id="pencil_1_">
</g>
<g id="print_1_">
</g>
<g id="staff_1_">
</g>
<g id="watch_1_">
</g>
<g id="room">
</g>
<g id="qr">
</g>
<g id="success">
</g>
<g id="location">
</g>
<g id="loyalty">
</g>
<g id="user">
</g>
<g id="user-id">
</g>
<g id="no-user-id">
	<g id="shape_21_">
		<path class="st0" d="M22.5,48.4c-0.3,0-0.5-0.1-0.5-0.1L2.6,37.1C2.3,37,2,36.5,2,36.2V13.8c0-0.2,0.3-0.8,0.5-0.9L22,1.7
			c0,0,0.2-0.1,0.5-0.1c0.3,0,0.5,0.1,0.5,0.1l19.4,11.2c0.2,0.1,0.5,0.7,0.5,0.9v22.4c0,0.2-0.3,0.8-0.5,0.9L23,48.3
			C23,48.4,22.8,48.4,22.5,48.4"/>
		<path class="st1" d="M42.7,11.6L24,0.8c-0.4-0.2-1-0.4-1.5-0.4c-0.5,0-1.1,0.1-1.5,0.4L2.3,11.6c-0.8,0.5-1.5,1.7-1.5,2.6v21.6
			c0,1,0.7,2.1,1.5,2.6L21,49.2c0.4,0.2,1,0.4,1.5,0.4c0.5,0,1.1-0.1,1.5-0.4l18.7-10.8c0.8-0.5,1.5-1.6,1.5-2.6V14.2
			C44.2,13.2,43.5,12.1,42.7,11.6 M41.7,36.7L23,47.5c0,0-0.2,0.1-0.5,0.1c-0.3,0-0.5-0.1-0.5-0.1L3.3,36.7
			c-0.2-0.1-0.5-0.6-0.5-0.9v-3.7h0v-2h0V14.2c0-0.2,0.3-0.8,0.5-0.9L22,2.5c0,0,0.2-0.1,0.5-0.1c0.3,0,0.5,0.1,0.5,0.1l18.7,10.8
			c0.2,0.1,0.5,0.6,0.5,0.9V30h0v2h0v3.8C42.2,36,41.9,36.6,41.7,36.7"/>
	</g>
	<g>
		<path class="st13" d="M34,18.5h-9l0.3-2.5c0-0.4-0.1-0.8-0.3-1.1h0c-0.3-0.3-0.6-0.5-1-0.5h-2.5c-0.4,0-0.8,0.2-1,0.5
			C20.1,15.2,20,15.6,20,16l0.3,2.5H11c-0.3,0-0.5,0.2-0.5,0.5v16c0,0.3,0.2,0.5,0.5,0.5h23c0.3,0,0.5-0.2,0.5-0.5V19
			C34.5,18.7,34.3,18.5,34,18.5z M21.1,15.6c0.1-0.1,0.2-0.1,0.3-0.1h2.5c0.1,0,0.2,0,0.3,0.1c0.1,0.1,0.1,0.2,0.1,0.3l-0.5,4.3
			c0,0.2-0.2,0.3-0.4,0.3h-1.5c-0.2,0-0.3-0.1-0.4-0.3L21,15.9C21,15.8,21.1,15.7,21.1,15.6z M33.5,34.5h-22v-15h8.9l0.1,0.8
			c0.1,0.7,0.7,1.2,1.3,1.2h1.5c0.7,0,1.3-0.5,1.3-1.2l0.1-0.8h8.6V34.5z"/>
		<path class="st13" d="M22.9,29.8c-2.2-0.8-2.7-1.2-2.8-1.3v-0.1c0.3-0.3,0.5-0.7,0.6-1.1c0.2-0.2,0.3-0.4,0.4-0.7
			c0-0.3,0-0.5-0.2-0.8v-0.9c0-1.4-0.9-2.2-2.4-2.2c-1.5,0-2.4,0.9-2.4,2.2v0.9c-0.1,0.2-0.2,0.5-0.2,0.8c0,0.3,0.2,0.5,0.4,0.7
			c0.1,0.4,0.3,0.8,0.6,1.1v0.1c-0.1,0.1-0.7,0.5-2.8,1.4c-0.3,0.1-0.5,0.4-0.5,0.8v1.1c0,0.5,0.4,0.8,0.8,0.8h8.3
			c0.4,0,0.8-0.4,0.8-0.8v-1.1C23.4,30.2,23.2,29.9,22.9,29.8z M22.4,31.5h-7.9v-0.8c2.9-1.1,3.2-1.6,3.3-1.9c0,0,0-0.1,0-0.1v-0.4
			c0-0.1-0.1-0.3-0.1-0.4c-0.2-0.2-0.4-0.6-0.5-1c0-0.1-0.1-0.2-0.2-0.3c0,0-0.1-0.1-0.1-0.2c0,0,0-0.1,0.1-0.2
			C17,26.1,17,26,17,25.8v-1c0-0.8,0.5-1.2,1.4-1.2c1,0,1.4,0.4,1.4,1.2v1c0,0.1,0,0.2,0.1,0.3c0.1,0.1,0.1,0.1,0.1,0.2
			c0,0.1,0,0.1-0.1,0.2c-0.1,0.1-0.2,0.2-0.2,0.3c-0.1,0.4-0.3,0.8-0.5,1C19.1,27.9,19,28,19,28.1v0.4c0,0.1,0,0.1,0,0.1
			c0.1,0.4,0.5,0.8,3.3,1.9V31.5z"/>
		<path class="st13" d="M30.9,28.5h-6c-0.3,0-0.5,0.2-0.5,0.5c0,0.3,0.2,0.5,0.5,0.5h6c0.3,0,0.5-0.2,0.5-0.5
			C31.4,28.7,31.2,28.5,30.9,28.5z"/>
		<path class="st13" d="M24.5,26c0,0.3,0.2,0.5,0.5,0.5h6c0.3,0,0.5-0.2,0.5-0.5c0-0.3-0.2-0.5-0.5-0.5h-6
			C24.7,25.5,24.5,25.7,24.5,26z"/>
	</g>
	<line class="st16" x1="10.5" y1="38" x2="34.9" y2="14"/>
	<line class="st16" x1="10.1" y1="14" x2="34.5" y2="38"/>
</g>
</svg>
