<svg xmlns="http://www.w3.org/2000/svg" xmlns:xlink="http://www.w3.org/1999/xlink" version="1.1" class="icons icon-oos" id="icon-oos" x="0" y="0" viewBox="0 0 45 50" xml:space="preserve" enable-background="new 0 0 45 50"><g><g><path d="M22.5 48.42c-0.29 0-0.48-0.07-0.52-0.09L2.56 37.12c-0.21-0.12-0.52-0.66-0.52-0.91V13.79c0-0.25 0.31-0.78 0.52-0.91L21.98 1.67c0.04-0.02 0.23-0.09 0.52-0.09 0.29 0 0.48 0.07 0.52 0.09l19.42 11.21c0.21 0.12 0.52 0.66 0.52 0.9v22.42c0 0.25-0.31 0.78-0.52 0.91L23.02 48.33C22.98 48.35 22.79 48.42 22.5 48.42" fill="#FFF"></path><path d="M42.71 11.59L24 0.79c-0.41-0.24-0.96-0.36-1.5-0.36S21.41 0.55 21 0.79L2.29 11.59c-0.83 0.48-1.5 1.65-1.5 2.61v21.6c0 0.96 0.68 2.13 1.5 2.61L21 49.21c0.41 0.24 0.96 0.36 1.5 0.36s1.09-0.12 1.5-0.36l18.71-10.8c0.83-0.48 1.5-1.65 1.5-2.61V14.2C44.22 13.24 43.54 12.07 42.71 11.59M41.71 36.67L23 47.48c-0.04 0.02-0.22 0.09-0.5 0.09 -0.28 0-0.46-0.07-0.5-0.09L3.28 36.67c-0.21-0.12-0.5-0.63-0.5-0.87v-3.74h0v-2.02h0V14.2c0-0.24 0.3-0.75 0.5-0.87L22 2.52c0.04-0.02 0.22-0.09 0.5-0.09 0.28 0 0.46 0.07 0.5 0.09l18.71 10.8c0.21 0.12 0.5 0.63 0.5 0.87V30h0v2.02h0v3.78C42.22 36.04 41.92 36.55 41.71 36.67" fill="#CBCBCB"></path></g><path d="M34.75 30.94l-5.99-6.04 5.99-5.99c0.21-0.21 0.36-0.52 0.36-0.83s-0.1-0.63-0.36-0.83l-4.58-4.58c-0.42-0.42-1.2-0.42-1.67 0l-5.99 5.99 -5.99-5.99c-0.42-0.42-1.2-0.42-1.67 0l-4.69 4.69c-0.47 0.47-0.47 1.2 0 1.67L16.17 25l-5.94 5.94c-0.21 0.21-0.36 0.52-0.36 0.83s0.1 0.63 0.36 0.83l4.58 4.58c0.42 0.42 1.2 0.42 1.67 0l5.94-5.94 6.04 6.04c0.21 0.21 0.52 0.36 0.83 0.36s0.63-0.1 0.83-0.36l4.69-4.69c0.21-0.21 0.36-0.52 0.36-0.83C35.12 31.46 35.01 31.14 34.75 30.94zM34.03 31.87l-4.69 4.69c-0.05 0.05-0.1 0.1-0.21 0l-6.35-6.46c-0.1-0.1-0.21-0.16-0.36-0.16S22.15 30 22.05 30.1l-6.3 6.35c-0.05 0.05-0.16 0.05-0.21 0l-4.58-4.58c-0.05-0.05-0.05-0.1-0.05-0.1 0-0.05 0-0.05 0.05-0.1l6.3-6.3c0.21-0.21 0.21-0.52 0-0.73l-6.35-6.4c-0.05-0.05-0.05-0.16 0-0.21l4.69-4.69c0.05-0.05 0.16-0.05 0.21 0l6.35 6.35c0.21 0.21 0.52 0.21 0.73 0l6.35-6.3c0.05-0.05 0.16-0.05 0.21 0l4.58 4.58c0 0 0.05 0.05 0.05 0.1s0 0.05-0.05 0.1l-6.35 6.35c-0.1 0.1-0.16 0.21-0.16 0.36s0.05 0.26 0.16 0.37l6.4 6.4c0.05 0.05 0.05 0.05 0.05 0.1C34.08 31.77 34.08 31.82 34.03 31.87z" style="fill:#6E1D55;stroke-miterlimit:10;stroke-width:0.5;stroke:#6F1E55"></path></g></svg>