<svg xmlns="http://www.w3.org/2000/svg" xmlns:xlink="http://www.w3.org/1999/xlink" version="1.1" class="icons icon-pen" id="icon-pen" x="0" y="0" viewBox="0 0 45 50" xml:space="preserve" enable-background="new 0 0 45 50"><g><g><path d="M22.5 48.42c-0.29 0-0.48-0.07-0.52-0.09L2.56 37.12c-0.21-0.12-0.52-0.66-0.52-0.91V13.79c0-0.25 0.31-0.78 0.52-0.91L21.98 1.67c0.04-0.02 0.23-0.09 0.52-0.09 0.29 0 0.48 0.07 0.52 0.09l19.42 11.21c0.21 0.12 0.52 0.66 0.52 0.9v22.42c0 0.25-0.31 0.78-0.52 0.91L23.02 48.33C22.98 48.35 22.79 48.42 22.5 48.42" fill="#FFF"></path><path d="M42.71 11.59L24 0.79c-0.41-0.24-0.96-0.36-1.5-0.36S21.41 0.55 21 0.79L2.29 11.59c-0.83 0.48-1.5 1.65-1.5 2.61v21.6c0 0.96 0.68 2.13 1.5 2.61L21 49.21c0.41 0.24 0.96 0.36 1.5 0.36s1.09-0.12 1.5-0.36l18.71-10.8c0.83-0.48 1.5-1.65 1.5-2.61V14.2C44.22 13.24 43.54 12.07 42.71 11.59M41.71 36.67L23 47.48c-0.04 0.02-0.22 0.09-0.5 0.09 -0.28 0-0.46-0.07-0.5-0.09L3.28 36.67c-0.21-0.12-0.5-0.63-0.5-0.87v-3.74h0v-2.02h0V14.2c0-0.24 0.3-0.75 0.5-0.87L22 2.52c0.04-0.02 0.22-0.09 0.5-0.09 0.28 0 0.46 0.07 0.5 0.09l18.71 10.8c0.21 0.12 0.5 0.63 0.5 0.87V30h0v2.02h0v3.78C42.22 36.04 41.92 36.55 41.71 36.67" fill="#CBCBCB"></path></g><g><path d="M27.04 15.01c-0.1-0.1-0.3-0.2-0.5-0.1l-9.46 3.59c-0.2 0.1-0.3 0.3-0.3 0.5 0 0.1 0.7 6.38-6.47 14.74 -0.2 0.2-0.2 0.5 0 0.7l1.39 1.39 0 0 0 0 1.39 1.49c0.1 0.1 0.2 0.1 0.3 0.1 0.1 0 0.2 0 0.3-0.1 7.07-6.08 12.65-6.47 14.24-6.47 0.4 0 0.6 0 0.6 0 0.2 0 0.4-0.1 0.5-0.3l3.68-9.36c0.1-0.2 0-0.4-0.1-0.5L27.04 15.01zM28.33 29.86c-0.1 0-0.2 0-0.3 0 -2.09 0-7.47 0.6-14.44 6.47l-0.7-0.7 9.86-9.86c0.2 0.1 0.5 0.2 0.8 0.2 0.5 0 0.9-0.2 1.2-0.5 0.7-0.7 0.7-1.79 0-2.39 -0.6-0.6-1.79-0.6-2.39 0 -0.5 0.5-0.6 1.39-0.3 1.99l-9.86 9.86 -0.7-0.7c6.08-7.67 6.37-13.45 6.27-14.94l8.77-3.39 5.18 5.18L28.33 29.86zM23.25 24.38c-0.1-0.1-0.1-0.3 0-0.5 0.1-0.1 0.1-0.1 0.2-0.1s0.2 0 0.2 0.1c0.1 0.1 0.1 0.3 0 0.5C23.55 24.48 23.35 24.48 23.25 24.38z" style="fill:#6E1D55;stroke-miterlimit:10;stroke-width:0.5;stroke:#6F1E55"></path><path d="M34.71 18.7l-5.98-5.98c-0.2-0.2-0.5-0.2-0.7 0s-0.2 0.5 0 0.7l5.98 5.98c0.1 0.1 0.2 0.1 0.3 0.1s0.3 0 0.3-0.1C34.91 19.2 34.91 18.9 34.71 18.7z" style="fill:#6E1D55;stroke-miterlimit:10;stroke-width:0.5;stroke:#6F1E55"></path></g></g></svg>