<svg xmlns="http://www.w3.org/2000/svg" xmlns:xlink="http://www.w3.org/1999/xlink" version="1.1" class="icons icon-pencil" id="icon-pencil" x="0" y="0" viewBox="0 0 45 50" xml:space="preserve" enable-background="new 0 0 45 50"><g><g><path d="M22.5 48.42c-0.29 0-0.48-0.07-0.52-0.09L2.56 37.12c-0.21-0.12-0.52-0.66-0.52-0.91V13.79c0-0.25 0.31-0.78 0.52-0.91L21.98 1.67c0.04-0.02 0.23-0.09 0.52-0.09 0.29 0 0.48 0.07 0.52 0.09l19.42 11.21c0.21 0.12 0.52 0.66 0.52 0.9v22.42c0 0.25-0.31 0.78-0.52 0.91L23.02 48.33C22.98 48.35 22.79 48.42 22.5 48.42" style="fill:none;stroke-miterlimit:10;stroke:#CBCBCB"></path><path d="M42.71 11.59L24 0.79c-0.41-0.24-0.96-0.36-1.5-0.36S21.41 0.55 21 0.79L2.29 11.59c-0.83 0.48-1.5 1.65-1.5 2.61v21.6c0 0.96 0.68 2.13 1.5 2.61L21 49.21c0.41 0.24 0.96 0.36 1.5 0.36s1.09-0.12 1.5-0.36l18.71-10.8c0.83-0.48 1.5-1.65 1.5-2.61V14.2C44.22 13.24 43.54 12.07 42.71 11.59M41.71 36.67L23 47.48c-0.04 0.02-0.22 0.09-0.5 0.09 -0.28 0-0.46-0.07-0.5-0.09L3.28 36.67c-0.21-0.12-0.5-0.63-0.5-0.87v-3.74h0v-2.02h0V14.2c0-0.24 0.3-0.75 0.5-0.87L22 2.52c0.04-0.02 0.22-0.09 0.5-0.09 0.28 0 0.46 0.07 0.5 0.09l18.71 10.8c0.21 0.12 0.5 0.63 0.5 0.87V30h0v2.02h0v3.78C42.22 36.04 41.92 36.55 41.71 36.67" fill="#CBCBCB"></path></g><g><path d="M32.43 18.45l-3.4-3.4c-0.21-0.21-0.46-0.34-0.76-0.34 -0.29 0-0.59 0.13-0.76 0.34L14.79 27.73c-0.08 0.08-0.17 0.21-0.25 0.38l-2.27 5.67c-0.17 0.42-0.08 0.88 0.25 1.18 0.21 0.21 0.5 0.34 0.76 0.34l0 0c0.13 0 0.29-0.04 0.42-0.08l5.71-2.31c0.13-0.04 0.25-0.13 0.38-0.25L32.43 20l0.04-0.04c0.21-0.21 0.34-0.5 0.34-0.76C32.77 18.91 32.64 18.66 32.43 18.45zM15.21 28.74l3.53 3.53 -4.12 1.68 -1.05-1.09L15.21 28.74zM31.84 19.37L19.46 31.76l-1.01-1.01c0.04 0 0.08-0.04 0.08-0.04l10.96-10.96c0.17-0.17 0.17-0.42 0-0.59s-0.42-0.17-0.59 0L17.98 30.12c-0.04 0.04-0.04 0.04-0.04 0.08l-2.23-2.23 12.39-12.39c0.08-0.08 0.13-0.08 0.17-0.08 0.08 0 0.13 0.04 0.17 0.08l3.4 3.4c0.04 0.04 0.08 0.13 0.08 0.17S31.89 19.33 31.84 19.37z" style="fill:#6E1D55;stroke-miterlimit:10;stroke-width:0.5;stroke:#6F1E55"></path></g></g></svg>