<svg version="1.1" class="logo yotel-logo" id="yotel-logo" xmlns="http://www.w3.org/2000/svg" xmlns:xlink="http://www.w3.org/1999/xlink" x="0px" y="0px"
	 width="239.3px" height="64.8px" viewBox="0 0 239.3 64.8" enable-background="new 0 0 239.3 64.8" xml:space="preserve">
<path fill="none" d="M86.8,14.1h-8.1c-2.7,0-5.2,2.1-5.9,5c0,0,0,0-5.4,19.8l-0.8,2.9h3c2.1,0,4.1-0.2,5.8-0.6
	c2.1-0.5,4-1.2,5.7-2.2c1.8-1.1,3.4-2.5,4.6-4.1c1.3-1.7,2.3-3.8,2.9-6.2l2.3-8.6l0,0c0.4-1.6,0.1-3.1-0.8-4.2
	C89.4,14.6,88.2,14.1,86.8,14.1 M51.5,40.6C51.5,40.6,51.5,40.5,51.5,40.6c-0.1,0.3-0.2,0.6-0.3,1.1c-0.8,2.4-1.6,4.2-2.7,5.8
	c-1.7,2.5-3.8,4.7-6.3,6.7c-2.4,1.9-5.1,3.5-7.9,4.5c-2.8,1.1-5.7,1.6-8.5,1.6h-20c1.1-4,4.3-16.2,5-18.7h13.5
	c2.2,0,4.4-0.2,6.3-0.7c2.1-0.5,4-1.2,5.7-2.2c1.8-1.1,3.4-2.4,4.6-4l0.3-0.5l2.1-3.6H26.4c-1.7,0-3.3-0.3-4.7-1
	c-1.3-0.6-2.4-1.5-3.2-2.6s-1.4-2.4-1.6-3.9c0-0.2-0.1-1.5-0.1-1.8c0-1.1,0.2-2.2,0.5-3.3c0,0,2.6-9.6,3.6-13.5h11.5
	c-0.7,2.5-1.7,6-1.7,6c-0.5,1.7-1.3,4.5,0.2,6.4c0.5,0.7,1.5,1.5,3.3,1.5h11.7c0,0,3.1-11.4,3.8-14c2.2,0,8.1,0,11.5,0
	c-3,11-5,18.5-6.4,23.7L52,38.6L51.5,40.6 M99.3,27.7L97,36.4l-0.8,3c-0.7,2.5-1.5,5.4-3.4,8.1c-2,2.9-3.9,5-6,6.7
	c-2.5,1.9-5.1,3.4-7.9,4.5c-2.8,1.1-5.7,1.6-8.5,1.6c-0.1,0-7,0-10.6-0.2c-2.8-0.3-4.4-1-5.3-2.4c-0.7-1-1-2.4-1-4.2
	c0-2,0.4-4.5,1.2-7.4l0.9-3.3c0.2-0.7,6.9-25.1,6.9-25.1c0.4-1.6,0.9-3.3,2-4.9c1.1-1.6,2.5-3.1,4.2-4.3c1.6-1.2,3.4-2.2,5.2-2.9
	c1.9-0.7,3.7-1,5.5-1h14.5c2.9,0,5.3,1,6.9,2.8c1.7,2,2.4,5,1.9,8.4c-0.5,2.9-1.3,5.7-2.1,8.5C100.3,24.3,99.3,27.7,99.3,27.7
	 M134.9,60.2h-18.7c-2.8,0-5.4-0.6-7.6-1.6c-2.2-1.1-4.1-2.6-5.5-4.5s-2.3-4.2-2.7-6.7c-0.1-0.9-0.2-1.8-0.2-2.7
	c0-1.8,0.3-3.6,0.8-5.4l3.6-13c0,0,4.5-16.4,5.9-21.7h11.3c-0.8,3.1-3,11-3,11H138l-3,10.9h-19.4c0,0-1,4.6-1,4.7
	c-0.1,0.7-0.1,1.3-0.1,1.8c0,0.7,0.1,1.3,0.2,2.1c0.9,4.3,5.2,6.5,12.8,6.5h12.4C138.9,45.6,135.5,57.8,134.9,60.2 M189.5,27.4
	C189.5,27.4,189.5,27.3,189.5,27.4c-2.5,9.3-5.5,10-9.1,10H158c0,0-2,4.5,3.2,4.5h9.5l0,0c5.8,0,12.8,0,15.3,0
	c-1.1,4-4.2,15.9-4.9,18.4h-19.9c-2.8,0-5.4-0.5-7.6-1.6c-2.2-1.1-4.1-2.6-5.5-4.5c-1.4-1.9-2.4-4.2-2.8-6.7
	c-0.2-0.9-0.2-1.9-0.2-2.9c0-1.7,0.2-3.5,0.7-5.3l5.8-22.4c0.3-1.1,0.7-2.2,1.3-3.3c0.1-0.1,1-1.6,1-1.7l0,0c1-1.4,2.2-2.7,3.6-3.8
	c1.4-1.1,2.9-1.9,4.5-2.5c1.7-0.6,3.5-1,5.2-1h14.5c1.8,0,3.4,0.4,4.9,1.1c1.5,0.7,2.7,1.7,3.7,2.9c1,1.3,1.6,2.7,1.9,4.3
	c0.1,0.3,0.1,0.7,0.1,1.1c0,2-0.6,5.1-1,6.9C189.8,26.3,189.6,27.2,189.5,27.4 M228.3,60.2h-21.8c-2.8,0-5.4-0.6-7.6-1.6
	c-2.2-1.1-4.1-2.6-5.5-4.5s-2.3-4.2-2.7-6.7c-0.1-0.9-0.2-1.8-0.2-2.7c0-1.3,0.1-2.6,0.4-3.9l0.9-3.4l0,0c1-3.6,6-21.9,6-21.9
	s2.1-7.6,3-11c2.2,0,7.9,0,11.3,0C210.9,9,205.4,29,205.4,29c-0.4,1.3-0.5,2.6-0.5,3.7c0,0.8,0.1,1.5,0.2,2.1
	c0.4,1.6,1.2,2.9,2.4,3.9c1.2,1,2.7,1.7,4.5,2.2c1.7,0.4,3.7,0.7,5.9,0.7h15.5C232.3,45.5,229,57.7,228.3,60.2 M176.5,13.8H170
	c-2.6,0-5,0.6-6.5,2.7c-1.6,2.2-3.7,12.3-3.7,12.3s10.6,0.1,14.2-0.1c2.4-0.1,4.9-1.8,5.5-4.2c2-7.5,1.7-8,1.2-8.8
	C179.6,13.9,177,13.8,176.5,13.8"/>
<path fill="#53246d" d="M88.6,28.5L88.6,28.5L88.6,28.5L88.6,28.5z M86.8,14.1h-8.1c-2.7,0-5.2,2.1-5.9,5c0,0,0,0-5.4,19.8l-0.8,2.9h3
	c2.1,0,4.1-0.2,5.8-0.6c2.1-0.5,4-1.2,5.7-2.2c1.8-1.1,3.4-2.5,4.6-4.1c1.3-1.7,2.3-3.8,2.9-6.2l2.3-8.6l0,0
	c0.4-1.6,0.1-3.1-0.8-4.2C89.4,14.6,88.2,14.1,86.8,14.1 M86.6,18.8c0,0.2-2.3,8.5-2.3,8.5c-0.5,1.8-1.2,3.4-2.2,4.7
	c-0.9,1.2-2,2.2-3.3,3c-1.3,0.8-2.8,1.3-4.4,1.7c-0.6,0.1-1.2,0.2-1.9,0.3c1.2-4.3,4.5-16.7,4.5-16.7c0.3-1,1.1-1.7,1.6-1.7h7.9
	C86.6,18.6,86.6,18.7,86.6,18.8 M217.9,37.1c-1.8,0-3.5-0.2-4.8-0.5c-1.2-0.3-2.1-0.7-2.8-1.3c-0.5-0.4-0.8-0.9-1-1.5
	c-0.2-0.9-0.1-2.1,0.3-3.6L217.9,0h-20.5l-2.1,7.8c-0.4-0.7-0.8-1.4-1.3-2c-1.4-1.8-3.2-3.3-5.3-4.3c-2.1-1-4.4-1.5-6.8-1.5h-14.5
	c-2.3,0-4.5,0.4-6.8,1.3c-2,0.8-4,1.8-5.7,3.2c-1.8,1.4-3.3,3-4.5,4.8v0.1l-1.2,2v0.1c-0.7,1.4-1.3,2.8-1.7,4.3l-5.6,21.4h-14.2
	c-1.5,0-3.1-0.1-4.6-0.4c-1.1-0.2-3-0.8-3.6-1.8c-0.4-0.6-0.4-1.4-0.4-2.1c0-0.2,0.1-1.9,0.3-1.9c3,0,19.2,0,19.2,0l5.4-19.9h-19.3
	c0.9-3.1,3-11,3-11H107l-1.7,6.3c-0.4-0.7-0.8-1.3-1.3-1.9c-2.4-2.9-6-4.4-10.2-4.4H79.2c-2.3,0-4.7,0.4-7,1.3
	c-2.2,0.8-4.4,2-6.3,3.5l0,0L67.2,0H46.4l-3.8,14h-8l3.7-14H17.6L13,16.9c-0.4,1.5-0.6,3.1-0.6,4.5v0.1l0.2,2.2v0.1
	c0.3,2.2,1.2,4.2,2.4,5.9c1.3,1.7,2.9,3.1,4.9,4c2,0.9,4.2,1.4,6.6,1.4c0,0,5.9,0,7.1,0c-1.2,0.6-2.5,1.1-3.9,1.4
	c-1.6,0.4-3.4,0.6-5.3,0.6h-17L0,64.7h25.8c3.3,0,6.7-0.6,10.1-1.9c3.2-1.2,6.3-3,9.1-5.2c1.4-1.1,2.8-2.4,4-3.7
	c0.1,2.6,0.7,4.6,1.8,6.3c2.2,3.3,6,4,8.6,4.3h0.1h0.1c3.8,0.2,10.7,0.2,10.9,0.2c3.3,0,6.7-0.6,10.1-1.9c3.2-1.2,6.2-3,9.1-5.2
	c2.5-2,4.7-4.3,6.9-7.6c0.6,2.4,1.6,4.7,3.1,6.7c1.9,2.5,4.3,4.5,7.2,5.9s6.1,2.1,9.6,2.1h22.1l3.6-13.1c0.6,1.8,1.5,3.6,2.7,5.1
	c1.9,2.5,4.3,4.5,7.2,5.9s6.1,2.1,9.6,2.1H185l3.1-11.8c0.6,1.3,1.3,2.6,2.1,3.8c1.9,2.5,4.3,4.5,7.2,5.9s6.1,2.1,9.5,2.1h25.2
	l7.5-27.6H217.9L217.9,37.1z M51.5,40.6C51.5,40.6,51.5,40.5,51.5,40.6c-0.1,0.3-0.2,0.6-0.3,1.1c-0.8,2.4-1.6,4.2-2.7,5.8
	c-1.7,2.5-3.8,4.7-6.3,6.7c-2.4,1.9-5.1,3.5-7.9,4.5c-2.8,1.1-5.7,1.6-8.5,1.6h-20c1.1-4,4.3-16.2,5-18.7h13.5
	c2.2,0,4.4-0.2,6.3-0.7c2.1-0.5,4-1.2,5.7-2.2c1.8-1.1,3.4-2.4,4.6-3.9l0.3-0.5l2.1-3.6H26.4c-1.7,0-3.3-0.3-4.7-1
	c-1.3-0.6-2.4-1.5-3.2-2.6s-1.4-2.4-1.6-3.9c0-0.2-0.1-1.5-0.1-1.8c0-1.1,0.2-2.2,0.5-3.3c0,0,2.6-9.6,3.6-13.5h11.5
	c-0.7,2.5-1.7,6-1.7,6c-0.5,1.7-1.3,4.5,0.2,6.4c0.5,0.7,1.5,1.5,3.3,1.5h11.7c0,0,3.1-11.4,3.8-14c2.2,0,8.1,0,11.5,0
	c-3,11-5,18.5-6.4,23.7L52,38.6L51.5,40.6 M99.3,27.7L97,36.4l-0.8,3c-0.7,2.5-1.5,5.4-3.4,8.1c-2,2.9-3.9,5-6,6.7
	c-2.5,1.9-5.1,3.4-7.9,4.5c-2.8,1.1-5.7,1.6-8.5,1.6c-0.1,0-7,0-10.6-0.2c-2.8-0.3-4.4-1-5.3-2.4c-0.7-1-1-2.4-1-4.2
	c0-2,0.4-4.5,1.2-7.4l0.9-3.3c0.2-0.7,6.9-25,6.9-25c0.4-1.7,0.9-3.3,2-4.9s2.5-3.1,4.2-4.3c1.6-1.2,3.4-2.2,5.2-2.9
	c1.9-0.7,3.7-1,5.5-1h14.5c2.9,0,5.3,1,6.9,2.8c1.7,2,2.4,5,1.9,8.4c-0.5,2.9-1.3,5.7-2.1,8.5C100.3,24.3,99.3,27.7,99.3,27.7
	 M134.9,60.2h-18.7c-2.8,0-5.4-0.6-7.6-1.6c-2.2-1.1-4.1-2.6-5.5-4.5c-1.4-2-2.3-4.2-2.7-6.7c-0.1-0.9-0.2-1.8-0.2-2.7
	c0-1.8,0.3-3.6,0.8-5.4l3.5-13c0,0,4.5-16.4,5.9-21.7h11.3c-0.9,3.1-3,11-3,11H138l-3,10.9h-19.4c0,0-1,4.6-1,4.7
	c-0.1,0.7-0.1,1.3-0.1,1.8c0,0.7,0.1,1.3,0.2,2.1c0.9,4.3,5.2,6.5,12.8,6.5h12.4C138.9,45.6,135.5,57.8,134.9,60.2 M189.5,27.4
	C189.5,27.4,189.5,27.3,189.5,27.4c-2.5,9.3-5.5,10-9.1,10H158c0,0-2,4.5,3.2,4.5h9.5l0,0c5.8,0,12.8,0,15.3,0
	c-1.1,4-4.2,15.9-4.9,18.4h-19.9c-2.8,0-5.4-0.5-7.6-1.6c-2.2-1.1-4.1-2.6-5.5-4.5c-1.4-1.9-2.4-4.2-2.8-6.7
	c-0.2-0.9-0.2-1.9-0.2-2.9c0-1.7,0.2-3.5,0.7-5.3l5.8-22.4c0.3-1.1,0.7-2.2,1.3-3.3c0.1-0.1,1-1.6,1-1.7l0,0c1-1.4,2.2-2.7,3.6-3.8
	c1.4-1.1,2.9-1.9,4.5-2.5c1.7-0.6,3.5-1,5.2-1h14.5c1.8,0,3.4,0.4,4.9,1.1c1.5,0.7,2.7,1.7,3.7,2.9c1,1.3,1.6,2.7,1.9,4.3
	c0.1,0.3,0.1,0.7,0.1,1.1c0,2-0.6,5.1-1,6.9C189.8,26.3,189.6,27.2,189.5,27.4 M228.3,60.2h-21.8c-2.8,0-5.4-0.6-7.6-1.6
	c-2.2-1.1-4.1-2.6-5.5-4.5s-2.3-4.2-2.7-6.7c-0.1-0.9-0.2-1.8-0.2-2.7c0-1.3,0.1-2.6,0.4-3.9l0.9-3.4l0,0c1-3.6,6-21.9,6-21.9
	s2.1-7.6,3-11c2.2,0,7.9,0,11.3,0C210.9,9,205.4,29,205.4,29c-0.4,1.3-0.5,2.6-0.5,3.7c0,0.8,0.1,1.5,0.2,2.1
	c0.4,1.6,1.2,2.9,2.4,3.9c1.2,1,2.7,1.7,4.5,2.2c1.7,0.4,3.7,0.7,5.9,0.7h15.5C232.3,45.5,229,57.7,228.3,60.2 M176.5,13.8H170
	c-2.6,0-5,0.6-6.5,2.7c-1.6,2.2-3.7,12.3-3.7,12.3s10.6,0.1,14.2-0.1c2.4-0.1,4.9-1.8,5.5-4.2c2-7.5,1.7-8,1.2-8.8
	C179.6,13.9,177,13.8,176.5,13.8 M175.3,23.2c-0.2,0.5-0.6,0.9-1.1,1.1c-0.1,0-0.3,0.1-0.4,0.1h-8.1c0.6-2.3,1.2-4.8,1.3-4.9
	c0.2-0.6,0.9-1.1,1.5-1.1h8C176.4,18.3,175.6,22.5,175.3,23.2"/>
</svg>