<svg xmlns="http://www.w3.org/2000/svg" viewBox="0 0 45 50" class="icons icon-qr-code" id="icon-qr-code"><path d="M22.5,48.42A1.22,1.22,0,0,1,22,48.33L2.56,37.12A1.51,1.51,0,0,1,2,36.21V13.79a1.51,1.51,0,0,1,.52-0.91L22,1.67a1.23,1.23,0,0,1,.52-0.09,1.26,1.26,0,0,1,.52.09L42.44,12.88a1.51,1.51,0,0,1,.52.9V36.21a1.51,1.51,0,0,1-.52.91L23,48.33a1.22,1.22,0,0,1-.52.09" fill="#fff"/><path d="M42.71,11.59L24,0.79a3.33,3.33,0,0,0-3,0L2.29,11.59A3.33,3.33,0,0,0,.78,14.2V35.8a3.33,3.33,0,0,0,1.5,2.61L21,49.21a3.33,3.33,0,0,0,3,0l18.71-10.8a3.33,3.33,0,0,0,1.5-2.61V14.2a3.33,3.33,0,0,0-1.5-2.61m-1,25.08L23,47.48a1.45,1.45,0,0,1-1,0L3.28,36.67a1.46,1.46,0,0,1-.5-0.87V32.06h0V30h0V14.2a1.46,1.46,0,0,1,.5-0.87L22,2.52a1.2,1.2,0,0,1,.5-0.09,1.18,1.18,0,0,1,.5.09l18.71,10.8a1.46,1.46,0,0,1,.5.87V30h0v2h0V35.8a1.45,1.45,0,0,1-.5.87" fill="#cbcbcb"/><path d="M34.82,25.93l-4.36-7.55a2.46,2.46,0,0,0-3.35-.9l-0.64.37L12.85,25.71l-1.77,1a2.46,2.46,0,0,0-.9,3.35l4.36,7.55a2.46,2.46,0,0,0,3.35.9l1.77-1,13.62-7.86,0.64-.37A2.46,2.46,0,0,0,34.82,25.93ZM17.42,37.71a1.51,1.51,0,0,1-2.06-.55L11,29.61a1.51,1.51,0,0,1,.55-2.06L14.27,26l5.87,10.16ZM21,35.64L15.09,25.48l11-6.34L32,29.3Zm11.85-6.81L26.94,18.67l0.64-.37a1.51,1.51,0,0,1,2.06.55L34,26.4a1.51,1.51,0,0,1-.55,2.06Z" fill="#231f20" stroke="#6b205f" stroke-miterlimit="10"/><path d="M14.19,32.77a1.19,1.19,0,1,0,.43-1.62A1.19,1.19,0,0,0,14.19,32.77Zm1.24-.72A0.24,0.24,0,1,1,15.1,32,0.24,0.24,0,0,1,15.43,32.06Z" fill="#231f20" stroke="#6b205f" stroke-miterlimit="10"/><path d="M19.63,13.11a0.47,0.47,0,0,0-.92-0.21,4.95,4.95,0,0,1-6.27,3.62,0.47,0.47,0,1,0-.27.91A5.89,5.89,0,0,0,19.63,13.11Z" fill="#231f20" stroke="#6b205f" stroke-miterlimit="10"/><path d="M22.49,14.23A0.47,0.47,0,0,0,21.57,14,7.66,7.66,0,0,1,12,19.55a0.47,0.47,0,0,0-.27.91A8.61,8.61,0,0,0,22.49,14.23Z" fill="#231f20" stroke="#6b205f" stroke-miterlimit="10"/><rect x="18.5" y="23.31" width="8" height="8" transform="translate(-10.64 14.91) rotate(-30)" fill="#fff"/><rect x="17.74" y="25.94" width="0.28" height="0.28" transform="matrix(0.87, -0.5, 0.5, 0.87, -10.64, 12.43)" fill="#010101"/><rect x="17.99" y="25.8" width="0.28" height="0.28" transform="translate(-10.54 12.54) rotate(-30)" fill="#010101"/><rect x="18.23" y="25.66" width="0.28" height="0.28" transform="translate(-10.44 12.64) rotate(-30)" fill="#010101"/><rect x="18.47" y="25.52" width="0.28" height="0.28" transform="matrix(0.87, -0.5, 0.5, 0.87, -10.34, 12.74)" fill="#010101"/><rect x="18.71" y="25.38" width="0.28" height="0.28" transform="translate(-10.23 12.84) rotate(-30)" fill="#010101"/><rect x="18.96" y="25.24" width="0.28" height="0.28" transform="translate(-10.13 12.95) rotate(-30)" fill="#010101"/><rect x="19.2" y="25.1" width="0.28" height="0.28" transform="matrix(0.87, -0.5, 0.5, 0.87, -10.03, 13.05)" fill="#010101"/><rect x="19.68" y="24.82" width="0.28" height="0.28" transform="matrix(0.87, -0.5, 0.5, 0.87, -9.82, 13.25)" fill="#010101"/><rect x="19.93" y="24.68" width="0.28" height="0.28" transform="matrix(0.87, -0.5, 0.5, 0.87, -9.72, 13.36)" fill="#010101"/><rect x="20.9" y="24.12" width="0.28" height="0.28" transform="matrix(0.87, -0.5, 0.5, 0.87, -9.31, 13.77)" fill="#010101"/><rect x="21.38" y="23.84" width="0.28" height="0.28" transform="matrix(0.87, -0.5, 0.5, 0.87, -9.11, 13.97)" fill="#010101"/><rect x="21.62" y="23.7" width="0.28" height="0.28" transform="matrix(0.87, -0.5, 0.5, 0.87, -9, 14.07)" fill="#010101"/><rect x="22.11" y="23.42" width="0.28" height="0.28" transform="translate(-8.8 14.28) rotate(-30)" fill="#010101"/><rect x="22.35" y="23.28" width="0.28" height="0.28" transform="matrix(0.87, -0.5, 0.5, 0.87, -8.7, 14.38)" fill="#010101"/><rect x="22.59" y="23.14" width="0.28" height="0.28" transform="matrix(0.87, -0.5, 0.5, 0.87, -8.59, 14.48)" fill="#010101"/><rect x="22.84" y="23" width="0.28" height="0.28" transform="translate(-8.49 14.59) rotate(-30)" fill="#010101"/><rect x="23.08" y="22.86" width="0.28" height="0.28" transform="matrix(0.87, -0.5, 0.5, 0.87, -8.39, 14.69)" fill="#010101"/><rect x="23.32" y="22.72" width="0.28" height="0.28" transform="matrix(0.87, -0.5, 0.5, 0.87, -8.29, 14.79)" fill="#010101"/><rect x="23.56" y="22.58" width="0.28" height="0.28" transform="translate(-8.18 14.89) rotate(-30)" fill="#010101"/><rect x="17.88" y="26.18" width="0.28" height="0.28" transform="matrix(0.87, -0.5, 0.5, 0.87, -10.75, 12.54)" fill="#010101"/><rect x="19.34" y="25.34" width="0.28" height="0.28" transform="translate(-10.13 13.15) rotate(-30)" fill="#010101"/><rect x="21.04" y="24.36" width="0.28" height="0.28" transform="matrix(0.87, -0.5, 0.5, 0.87, -9.41, 13.87)" fill="#010101"/><rect x="21.28" y="24.22" width="0.28" height="0.28" transform="translate(-9.31 13.97) rotate(-30)" fill="#010101"/><rect x="22.25" y="23.66" width="0.28" height="0.28" transform="matrix(0.87, -0.5, 0.5, 0.87, -8.9, 14.38)" fill="#010101"/><rect x="23.7" y="22.82" width="0.28" height="0.28" transform="matrix(0.87, -0.5, 0.5, 0.87, -8.29, 15)" fill="#010101"/><rect x="18.02" y="26.42" width="0.28" height="0.28" transform="matrix(0.87, -0.5, 0.5, 0.87, -10.85, 12.64)" fill="#010101"/><rect x="18.51" y="26.14" width="0.28" height="0.28" transform="matrix(0.87, -0.5, 0.5, 0.87, -10.64, 12.84)" fill="#010101"/><rect x="18.75" y="26" width="0.28" height="0.28" transform="matrix(0.87, -0.5, 0.5, 0.87, -10.54, 12.95)" fill="#010101"/><rect x="18.99" y="25.86" width="0.28" height="0.28" transform="translate(-10.44 13.05) rotate(-30)" fill="#010101"/><rect x="19.48" y="25.58" width="0.28" height="0.28" transform="matrix(0.87, -0.5, 0.5, 0.87, -10.23, 13.25)" fill="#010101"/><rect x="19.96" y="25.3" width="0.28" height="0.28" transform="translate(-10.03 13.46) rotate(-30)" fill="#010101"/><rect x="20.69" y="24.88" width="0.28" height="0.28" transform="matrix(0.87, -0.5, 0.5, 0.87, -9.72, 13.77)" fill="#010101"/><rect x="20.93" y="24.74" width="0.28" height="0.28" transform="translate(-9.62 13.87) rotate(-30)" fill="#010101"/><rect x="21.18" y="24.6" width="0.28" height="0.28" transform="translate(-9.52 13.97) rotate(-30)" fill="#010101"/><rect x="21.66" y="24.32" width="0.28" height="0.28" transform="matrix(0.87, -0.5, 0.5, 0.87, -9.31, 14.18)" fill="#010101"/><rect x="22.39" y="23.9" width="0.28" height="0.28" transform="matrix(0.87, -0.5, 0.5, 0.87, -9, 14.48)" fill="#010101"/><rect x="22.87" y="23.62" width="0.28" height="0.28" transform="translate(-8.8 14.69) rotate(-30)" fill="#010101"/><rect x="23.12" y="23.48" width="0.28" height="0.28" transform="matrix(0.87, -0.5, 0.5, 0.87, -8.7, 14.79)" fill="#010101"/><rect x="23.36" y="23.34" width="0.28" height="0.28" transform="matrix(0.87, -0.5, 0.5, 0.87, -8.59, 14.89)" fill="#010101"/><rect x="23.84" y="23.06" width="0.28" height="0.28" transform="matrix(0.87, -0.5, 0.5, 0.87, -8.39, 15.1)" fill="#010101"/><rect x="18.16" y="26.67" width="0.28" height="0.28" transform="translate(-10.95 12.74) rotate(-30)" fill="#010101"/><rect x="18.65" y="26.39" width="0.28" height="0.28" transform="matrix(0.87, -0.5, 0.5, 0.87, -10.75, 12.95)" fill="#010101"/><rect x="18.89" y="26.25" width="0.28" height="0.28" transform="translate(-10.64 13.05) rotate(-30)" fill="#010101"/><rect x="19.13" y="26.11" width="0.28" height="0.28" transform="matrix(0.87, -0.5, 0.5, 0.87, -10.54, 13.15)" fill="#010101"/><rect x="19.62" y="25.83" width="0.28" height="0.28" transform="translate(-10.34 13.36) rotate(-30)" fill="#010101"/><rect x="20.1" y="25.55" width="0.28" height="0.28" transform="matrix(0.87, -0.5, 0.5, 0.87, -10.13, 13.56)" fill="#010101"/><rect x="20.35" y="25.41" width="0.28" height="0.28" transform="matrix(0.87, -0.5, 0.5, 0.87, -10.03, 13.66)" fill="#010101"/><rect x="20.83" y="25.13" width="0.28" height="0.28" transform="matrix(0.87, -0.5, 0.5, 0.87, -9.82, 13.87)" fill="#010101"/><rect x="21.56" y="24.71" width="0.28" height="0.28" transform="translate(-9.52 14.18) rotate(-30)" fill="#010101"/><rect x="21.8" y="24.57" width="0.28" height="0.28" transform="translate(-9.41 14.28) rotate(-30)" fill="#010101"/><rect x="22.53" y="24.15" width="0.28" height="0.28" transform="translate(-9.11 14.59) rotate(-30)" fill="#010101"/><rect x="23.01" y="23.87" width="0.28" height="0.28" transform="matrix(0.87, -0.5, 0.5, 0.87, -8.9, 14.79)" fill="#010101"/><rect x="23.26" y="23.73" width="0.28" height="0.28" transform="matrix(0.87, -0.5, 0.5, 0.87, -8.8, 14.89)" fill="#010101"/><rect x="23.5" y="23.59" width="0.28" height="0.28" transform="matrix(0.87, -0.5, 0.5, 0.87, -8.7, 15)" fill="#010101"/><rect x="23.98" y="23.31" width="0.28" height="0.28" transform="matrix(0.87, -0.5, 0.5, 0.87, -8.49, 15.2)" fill="#010101"/><rect x="18.3" y="26.91" width="0.28" height="0.28" transform="matrix(0.87, -0.5, 0.5, 0.87, -11.05, 12.84)" fill="#010101"/><rect x="18.79" y="26.63" width="0.28" height="0.28" transform="matrix(0.87, -0.5, 0.5, 0.87, -10.85, 13.05)" fill="#010101"/><rect x="19.03" y="26.49" width="0.28" height="0.28" transform="matrix(0.87, -0.5, 0.5, 0.87, -10.75, 13.15)" fill="#010101"/><rect x="19.27" y="26.35" width="0.28" height="0.28" transform="matrix(0.87, -0.5, 0.5, 0.87, -10.64, 13.25)" fill="#010101"/><rect x="19.76" y="26.07" width="0.28" height="0.28" transform="matrix(0.87, -0.5, 0.5, 0.87, -10.44, 13.46)" fill="#010101"/><rect x="20.24" y="25.79" width="0.28" height="0.28" transform="matrix(0.87, -0.5, 0.5, 0.87, -10.23, 13.66)" fill="#010101"/><rect x="20.49" y="25.65" width="0.28" height="0.28" transform="matrix(0.87, -0.5, 0.5, 0.87, -10.13, 13.77)" fill="#010101"/><rect x="20.73" y="25.51" width="0.28" height="0.28" transform="matrix(0.87, -0.5, 0.5, 0.87, -10.03, 13.87)" fill="#010101"/><rect x="20.97" y="25.37" width="0.28" height="0.28" transform="matrix(0.87, -0.5, 0.5, 0.87, -9.93, 13.97)" fill="#010101"/><rect x="21.7" y="24.95" width="0.28" height="0.28" transform="matrix(0.87, -0.5, 0.5, 0.87, -9.62, 14.28)" fill="#010101"/><rect x="21.94" y="24.81" width="0.28" height="0.28" transform="matrix(0.87, -0.5, 0.5, 0.87, -9.52, 14.38)" fill="#010101"/><rect x="22.18" y="24.67" width="0.28" height="0.28" transform="translate(-9.41 14.48) rotate(-30)" fill="#010101"/><rect x="22.67" y="24.39" width="0.28" height="0.28" transform="matrix(0.87, -0.5, 0.5, 0.87, -9.21, 14.69)" fill="#010101"/><rect x="23.15" y="24.11" width="0.28" height="0.28" transform="translate(-9 14.89) rotate(-30)" fill="#010101"/><rect x="23.4" y="23.97" width="0.28" height="0.28" transform="translate(-8.9 15) rotate(-30)" fill="#010101"/><rect x="23.64" y="23.83" width="0.28" height="0.28" transform="translate(-8.8 15.1) rotate(-30)" fill="#010101"/><rect x="24.12" y="23.55" width="0.28" height="0.28" transform="matrix(0.87, -0.5, 0.5, 0.87, -8.59, 15.3)" fill="#010101"/><rect x="18.44" y="27.15" width="0.28" height="0.28" transform="translate(-11.16 12.95) rotate(-30.01)" fill="#010101"/><rect x="19.9" y="26.31" width="0.28" height="0.28" transform="translate(-10.54 13.57) rotate(-30.01)" fill="#010101"/><rect x="20.63" y="25.89" width="0.28" height="0.28" transform="translate(-10.23 13.87) rotate(-30.01)" fill="#010101"/><rect x="21.35" y="25.47" width="0.28" height="0.28" transform="translate(-9.93 14.18) rotate(-30.01)" fill="#010101"/><rect x="21.84" y="25.19" width="0.28" height="0.28" transform="translate(-9.72 14.39) rotate(-30.01)" fill="#010101"/><rect x="22.81" y="24.63" width="0.28" height="0.28" transform="translate(-9.31 14.8) rotate(-30.01)" fill="#010101"/><rect x="24.26" y="23.79" width="0.28" height="0.28" transform="translate(-8.7 15.41) rotate(-30.01)" fill="#010101"/><rect x="18.58" y="27.39" width="0.28" height="0.28" transform="translate(-11.26 13.05) rotate(-30)" fill="#010101"/><rect x="18.83" y="27.25" width="0.28" height="0.28" transform="translate(-11.16 13.15) rotate(-30)" fill="#010101"/><rect x="19.07" y="27.11" width="0.28" height="0.28" transform="matrix(0.87, -0.5, 0.5, 0.87, -11.05, 13.25)" fill="#010101"/><rect x="19.31" y="26.97" width="0.28" height="0.28" transform="matrix(0.87, -0.5, 0.5, 0.87, -10.95, 13.36)" fill="#010101"/><rect x="19.55" y="26.83" width="0.28" height="0.28" transform="translate(-10.85 13.46) rotate(-30)" fill="#010101"/><rect x="19.8" y="26.69" width="0.28" height="0.28" transform="translate(-10.75 13.56) rotate(-30)" fill="#010101"/><rect x="20.04" y="26.55" width="0.28" height="0.28" transform="matrix(0.87, -0.5, 0.5, 0.87, -10.64, 13.66)" fill="#010101"/><rect x="20.52" y="26.27" width="0.28" height="0.28" transform="matrix(0.87, -0.5, 0.5, 0.87, -10.44, 13.87)" fill="#010101"/><rect x="21.01" y="25.99" width="0.28" height="0.28" transform="matrix(0.87, -0.5, 0.5, 0.87, -10.23, 14.07)" fill="#010101"/><rect x="21.49" y="25.71" width="0.28" height="0.28" transform="matrix(0.87, -0.5, 0.5, 0.87, -10.03, 14.28)" fill="#010101"/><rect x="21.98" y="25.43" width="0.28" height="0.28" transform="matrix(0.87, -0.5, 0.5, 0.87, -9.82, 14.48)" fill="#010101"/><rect x="22.46" y="25.15" width="0.28" height="0.28" transform="matrix(0.87, -0.5, 0.5, 0.87, -9.62, 14.69)" fill="#010101"/><rect x="22.95" y="24.87" width="0.28" height="0.28" transform="matrix(0.87, -0.5, 0.5, 0.87, -9.41, 14.89)" fill="#010101"/><rect x="23.19" y="24.73" width="0.28" height="0.28" transform="matrix(0.87, -0.5, 0.5, 0.87, -9.31, 15)" fill="#010101"/><rect x="23.43" y="24.59" width="0.28" height="0.28" transform="translate(-9.21 15.1) rotate(-30)" fill="#010101"/><rect x="23.68" y="24.45" width="0.28" height="0.28" transform="matrix(0.87, -0.5, 0.5, 0.87, -9.11, 15.2)" fill="#010101"/><rect x="23.92" y="24.31" width="0.28" height="0.28" transform="matrix(0.87, -0.5, 0.5, 0.87, -9, 15.3)" fill="#010101"/><rect x="24.16" y="24.17" width="0.28" height="0.28" transform="translate(-8.9 15.41) rotate(-30)" fill="#010101"/><rect x="24.4" y="24.03" width="0.28" height="0.28" transform="translate(-8.8 15.51) rotate(-30)" fill="#010101"/><rect x="20.91" y="26.38" width="0.28" height="0.28" transform="translate(-10.44 14.07) rotate(-30)" fill="#010101"/><rect x="21.39" y="26.1" width="0.28" height="0.28" transform="translate(-10.23 14.28) rotate(-30)" fill="#010101"/><rect x="18.86" y="27.88" width="0.28" height="0.28" transform="matrix(0.87, -0.5, 0.5, 0.87, -11.46, 13.25)" fill="#010101"/><rect x="19.11" y="27.74" width="0.28" height="0.28" transform="matrix(0.87, -0.5, 0.5, 0.87, -11.36, 13.36)" fill="#010101"/><rect x="19.35" y="27.6" width="0.28" height="0.28" transform="matrix(0.87, -0.5, 0.5, 0.87, -11.26, 13.46)" fill="#010101"/><rect x="19.59" y="27.46" width="0.28" height="0.28" transform="matrix(0.87, -0.5, 0.5, 0.87, -11.16, 13.56)" fill="#010101"/><rect x="20.32" y="27.04" width="0.28" height="0.28" transform="matrix(0.87, -0.5, 0.5, 0.87, -10.85, 13.87)" fill="#010101"/><rect x="20.8" y="26.76" width="0.28" height="0.28" transform="translate(-10.64 14.07) rotate(-30)" fill="#010101"/><rect x="22.26" y="25.92" width="0.28" height="0.28" transform="matrix(0.87, -0.5, 0.5, 0.87, -10.03, 14.69)" fill="#010101"/><rect x="22.99" y="25.5" width="0.28" height="0.28" transform="matrix(0.87, -0.5, 0.5, 0.87, -9.72, 15)" fill="#010101"/><rect x="23.71" y="25.08" width="0.28" height="0.28" transform="matrix(0.87, -0.5, 0.5, 0.87, -9.41, 15.3)" fill="#010101"/><rect x="23.96" y="24.94" width="0.28" height="0.28" transform="matrix(0.87, -0.5, 0.5, 0.87, -9.31, 15.41)" fill="#010101"/><rect x="24.2" y="24.8" width="0.28" height="0.28" transform="translate(-9.21 15.51) rotate(-30)" fill="#010101"/><rect x="24.68" y="24.52" width="0.28" height="0.28" transform="matrix(0.87, -0.5, 0.5, 0.87, -9, 15.71)" fill="#010101"/><rect x="19" y="28.12" width="0.28" height="0.28" transform="matrix(0.87, -0.5, 0.5, 0.87, -11.57, 13.36)" fill="#010101"/><rect x="19.49" y="27.84" width="0.28" height="0.28" transform="translate(-11.36 13.56) rotate(-30)" fill="#010101"/><rect x="19.73" y="27.7" width="0.28" height="0.28" transform="matrix(0.87, -0.5, 0.5, 0.87, -11.26, 13.66)" fill="#010101"/><rect x="19.97" y="27.56" width="0.28" height="0.28" transform="matrix(0.87, -0.5, 0.5, 0.87, -11.16, 13.77)" fill="#010101"/><rect x="20.22" y="27.42" width="0.28" height="0.28" transform="translate(-11.05 13.87) rotate(-30)" fill="#010101"/><rect x="21.19" y="26.86" width="0.28" height="0.28" transform="matrix(0.87, -0.5, 0.5, 0.87, -10.64, 14.28)" fill="#010101"/><rect x="22.16" y="26.3" width="0.28" height="0.28" transform="matrix(0.87, -0.5, 0.5, 0.87, -10.23, 14.69)" fill="#010101"/><rect x="22.4" y="26.16" width="0.28" height="0.28" transform="translate(-10.13 14.79) rotate(-30)" fill="#010101"/><rect x="22.64" y="26.02" width="0.28" height="0.28" transform="translate(-10.03 14.89) rotate(-30)" fill="#010101"/><rect x="22.88" y="25.88" width="0.28" height="0.28" transform="matrix(0.87, -0.5, 0.5, 0.87, -9.93, 15)" fill="#010101"/><rect x="23.61" y="25.46" width="0.28" height="0.28" transform="translate(-9.62 15.3) rotate(-30)" fill="#010101"/><rect x="24.58" y="24.9" width="0.28" height="0.28" transform="matrix(0.87, -0.5, 0.5, 0.87, -9.21, 15.71)" fill="#010101"/><rect x="19.14" y="28.36" width="0.28" height="0.28" transform="matrix(0.87, -0.5, 0.5, 0.87, -11.67, 13.46)" fill="#010101"/><rect x="20.36" y="27.66" width="0.28" height="0.28" transform="matrix(0.87, -0.5, 0.5, 0.87, -11.16, 13.97)" fill="#010101"/><rect x="20.6" y="27.52" width="0.28" height="0.28" transform="matrix(0.87, -0.5, 0.5, 0.87, -11.05, 14.07)" fill="#010101"/><rect x="20.84" y="27.38" width="0.28" height="0.28" transform="matrix(0.87, -0.5, 0.5, 0.87, -10.95, 14.18)" fill="#010101"/><rect x="22.3" y="26.54" width="0.28" height="0.28" transform="matrix(0.87, -0.5, 0.5, 0.87, -10.34, 14.79)" fill="#010101"/><rect x="22.54" y="26.4" width="0.28" height="0.28" transform="translate(-10.23 14.89) rotate(-30)" fill="#010101"/><rect x="23.51" y="25.84" width="0.28" height="0.28" transform="translate(-9.82 15.3) rotate(-30)" fill="#010101"/><rect x="23.75" y="25.7" width="0.28" height="0.28" transform="matrix(0.87, -0.5, 0.5, 0.87, -9.72, 15.41)" fill="#010101"/><rect x="19.53" y="28.47" width="0.28" height="0.28" transform="translate(-11.67 13.66) rotate(-30)" fill="#010101"/><rect x="20.01" y="28.19" width="0.28" height="0.28" transform="matrix(0.87, -0.5, 0.5, 0.87, -11.46, 13.87)" fill="#010101"/><rect x="20.25" y="28.05" width="0.28" height="0.28" transform="translate(-11.36 13.97) rotate(-30)" fill="#010101"/><rect x="20.5" y="27.91" width="0.28" height="0.28" transform="matrix(0.87, -0.5, 0.5, 0.87, -11.26, 14.07)" fill="#010101"/><rect x="20.98" y="27.63" width="0.28" height="0.28" transform="translate(-11.05 14.28) rotate(-30)" fill="#010101"/><rect x="21.22" y="27.49" width="0.28" height="0.28" transform="matrix(0.87, -0.5, 0.5, 0.87, -10.95, 14.38)" fill="#010101"/><rect x="21.95" y="27.07" width="0.28" height="0.28" transform="matrix(0.87, -0.5, 0.5, 0.87, -10.64, 14.69)" fill="#010101"/><rect x="22.19" y="26.93" width="0.28" height="0.28" transform="matrix(0.87, -0.5, 0.5, 0.87, -10.54, 14.79)" fill="#010101"/><rect x="22.44" y="26.79" width="0.28" height="0.28" transform="matrix(0.87, -0.5, 0.5, 0.87, -10.44, 14.89)" fill="#010101"/><rect x="23.16" y="26.37" width="0.28" height="0.28" transform="matrix(0.87, -0.5, 0.5, 0.87, -10.13, 15.2)" fill="#010101"/><rect x="23.41" y="26.23" width="0.28" height="0.28" transform="matrix(0.87, -0.5, 0.5, 0.87, -10.03, 15.3)" fill="#010101"/><rect x="23.65" y="26.09" width="0.28" height="0.28" transform="matrix(0.87, -0.5, 0.5, 0.87, -9.93, 15.41)" fill="#010101"/><rect x="24.13" y="25.81" width="0.28" height="0.28" transform="translate(-9.72 15.61) rotate(-30)" fill="#010101"/><rect x="24.38" y="25.67" width="0.28" height="0.28" transform="matrix(0.87, -0.5, 0.5, 0.87, -9.62, 15.71)" fill="#010101"/><rect x="24.62" y="25.53" width="0.28" height="0.28" transform="translate(-9.52 15.82) rotate(-30)" fill="#010101"/><rect x="19.67" y="28.71" width="0.28" height="0.28" transform="translate(-11.77 13.77) rotate(-30)" fill="#010101"/><rect x="19.91" y="28.57" width="0.28" height="0.28" transform="matrix(0.87, -0.5, 0.5, 0.87, -11.67, 13.87)" fill="#010101"/><rect x="20.39" y="28.29" width="0.28" height="0.28" transform="translate(-11.46 14.07) rotate(-30)" fill="#010101"/><rect x="20.64" y="28.15" width="0.28" height="0.28" transform="matrix(0.87, -0.5, 0.5, 0.87, -11.36, 14.18)" fill="#010101"/><rect x="20.88" y="28.01" width="0.28" height="0.28" transform="matrix(0.87, -0.5, 0.5, 0.87, -11.26, 14.28)" fill="#010101"/><rect x="21.36" y="27.73" width="0.28" height="0.28" transform="matrix(0.87, -0.5, 0.5, 0.87, -11.05, 14.48)" fill="#010101"/><rect x="21.61" y="27.59" width="0.28" height="0.28" transform="matrix(0.87, -0.5, 0.5, 0.87, -10.95, 14.59)" fill="#010101"/><rect x="22.09" y="27.31" width="0.28" height="0.28" transform="matrix(0.87, -0.5, 0.5, 0.87, -10.75, 14.79)" fill="#010101"/><rect x="23.3" y="26.61" width="0.28" height="0.28" transform="translate(-10.23 15.3) rotate(-30)" fill="#010101"/><rect x="23.79" y="26.33" width="0.28" height="0.28" transform="matrix(0.87, -0.5, 0.5, 0.87, -10.03, 15.51)" fill="#010101"/><rect x="24.27" y="26.05" width="0.28" height="0.28" transform="matrix(0.87, -0.5, 0.5, 0.87, -9.82, 15.71)" fill="#010101"/><rect x="24.76" y="25.77" width="0.28" height="0.28" transform="matrix(0.87, -0.5, 0.5, 0.87, -9.62, 15.92)" fill="#010101"/><rect x="25" y="25.63" width="0.28" height="0.28" transform="translate(-9.52 16.02) rotate(-30)" fill="#010101"/><rect x="25.24" y="25.49" width="0.28" height="0.28" transform="translate(-9.41 16.12) rotate(-30)" fill="#010101"/><rect x="21.26" y="28.11" width="0.28" height="0.28" transform="translate(-11.26 14.49) rotate(-30.01)" fill="#010101"/><rect x="21.99" y="27.69" width="0.28" height="0.28" transform="matrix(0.87, -0.5, 0.5, 0.87, -10.95, 14.8)" fill="#010101"/><rect x="22.23" y="27.55" width="0.28" height="0.28" transform="translate(-10.85 14.9) rotate(-30.01)" fill="#010101"/><rect x="22.72" y="27.27" width="0.28" height="0.28" transform="translate(-10.64 15.11) rotate(-30.01)" fill="#010101"/><rect x="22.96" y="27.13" width="0.28" height="0.28" transform="translate(-10.54 15.21) rotate(-30.01)" fill="#010101"/><rect x="23.2" y="26.99" width="0.28" height="0.28" transform="translate(-10.44 15.31) rotate(-30.01)" fill="#010101"/><rect x="23.44" y="26.85" width="0.28" height="0.28" transform="translate(-10.34 15.41) rotate(-30.01)" fill="#010101"/><rect x="23.69" y="26.71" width="0.28" height="0.28" transform="translate(-10.23 15.52) rotate(-30.01)" fill="#010101"/><rect x="23.93" y="26.57" width="0.28" height="0.28" transform="translate(-10.13 15.62) rotate(-30.01)" fill="#010101"/><rect x="24.17" y="26.43" width="0.28" height="0.28" transform="translate(-10.03 15.72) rotate(-30.01)" fill="#010101"/><rect x="24.41" y="26.29" width="0.28" height="0.28" transform="translate(-9.93 15.82) rotate(-30.01)" fill="#010101"/><rect x="25.38" y="25.73" width="0.28" height="0.28" transform="translate(-9.52 16.23) rotate(-30.01)" fill="#010101"/><rect x="19.95" y="29.19" width="0.28" height="0.28" transform="matrix(0.87, -0.5, 0.5, 0.87, -11.97, 13.97)" fill="#010101"/><rect x="20.43" y="28.91" width="0.28" height="0.28" transform="matrix(0.87, -0.5, 0.5, 0.87, -11.77, 14.18)" fill="#010101"/><rect x="21.16" y="28.49" width="0.28" height="0.28" transform="matrix(0.87, -0.5, 0.5, 0.87, -11.46, 14.48)" fill="#010101"/><rect x="21.4" y="28.35" width="0.28" height="0.28" transform="translate(-11.36 14.59) rotate(-30)" fill="#010101"/><rect x="21.89" y="28.07" width="0.28" height="0.28" transform="matrix(0.87, -0.5, 0.5, 0.87, -11.16, 14.79)" fill="#010101"/><rect x="22.61" y="27.65" width="0.28" height="0.28" transform="translate(-10.85 15.1) rotate(-30)" fill="#010101"/><rect x="23.1" y="27.37" width="0.28" height="0.28" transform="translate(-10.64 15.3) rotate(-30)" fill="#010101"/><rect x="23.83" y="26.95" width="0.28" height="0.28" transform="translate(-10.34 15.61) rotate(-30)" fill="#010101"/><rect x="24.07" y="26.81" width="0.28" height="0.28" transform="matrix(0.87, -0.5, 0.5, 0.87, -10.23, 15.71)" fill="#010101"/><rect x="24.55" y="26.53" width="0.28" height="0.28" transform="translate(-10.03 15.92) rotate(-30)" fill="#010101"/><rect x="25.04" y="26.25" width="0.28" height="0.28" transform="matrix(0.87, -0.5, 0.5, 0.87, -9.82, 16.12)" fill="#010101"/><rect x="25.28" y="26.11" width="0.28" height="0.28" transform="translate(-9.72 16.23) rotate(-30)" fill="#010101"/><rect x="19.84" y="29.58" width="0.28" height="0.28" transform="matrix(0.87, -0.5, 0.5, 0.87, -12.18, 13.97)" fill="#010101"/><rect x="20.33" y="29.3" width="0.28" height="0.28" transform="matrix(0.87, -0.5, 0.5, 0.87, -11.98, 14.18)" fill="#010101"/><rect x="20.81" y="29.02" width="0.28" height="0.28" transform="translate(-11.77 14.38) rotate(-30)" fill="#010101"/><rect x="21.06" y="28.88" width="0.28" height="0.28" transform="matrix(0.87, -0.5, 0.5, 0.87, -11.67, 14.48)" fill="#010101"/><rect x="22.03" y="28.32" width="0.28" height="0.28" transform="translate(-11.26 14.89) rotate(-30)" fill="#010101"/><rect x="22.27" y="28.18" width="0.28" height="0.28" transform="translate(-11.16 15) rotate(-30)" fill="#010101"/><rect x="22.75" y="27.9" width="0.28" height="0.28" transform="matrix(0.87, -0.5, 0.5, 0.87, -10.95, 15.2)" fill="#010101"/><rect x="23" y="27.76" width="0.28" height="0.28" transform="translate(-10.85 15.3) rotate(-30)" fill="#010101"/><rect x="23.72" y="27.34" width="0.28" height="0.28" transform="matrix(0.87, -0.5, 0.5, 0.87, -10.54, 15.61)" fill="#010101"/><rect x="24.45" y="26.92" width="0.28" height="0.28" transform="matrix(0.87, -0.5, 0.5, 0.87, -10.23, 15.92)" fill="#010101"/><rect x="24.94" y="26.64" width="0.28" height="0.28" transform="matrix(0.87, -0.5, 0.5, 0.87, -10.03, 16.12)" fill="#010101"/><rect x="25.66" y="26.22" width="0.28" height="0.28" transform="matrix(0.87, -0.5, 0.5, 0.87, -9.72, 16.43)" fill="#010101"/><rect x="20.47" y="29.54" width="0.28" height="0.28" transform="matrix(0.87, -0.5, 0.5, 0.87, -12.08, 14.28)" fill="#010101"/><rect x="20.71" y="29.4" width="0.28" height="0.28" transform="matrix(0.87, -0.5, 0.5, 0.87, -11.98, 14.38)" fill="#010101"/><rect x="21.44" y="28.98" width="0.28" height="0.28" transform="matrix(0.87, -0.5, 0.5, 0.87, -11.67, 14.69)" fill="#010101"/><rect x="22.65" y="28.28" width="0.28" height="0.28" transform="matrix(0.87, -0.5, 0.5, 0.87, -11.16, 15.2)" fill="#010101"/><rect x="23.62" y="27.72" width="0.28" height="0.28" transform="translate(-10.75 15.61) rotate(-30)" fill="#010101"/><rect x="23.86" y="27.58" width="0.28" height="0.28" transform="translate(-10.64 15.71) rotate(-30)" fill="#010101"/><rect x="24.11" y="27.44" width="0.28" height="0.28" transform="matrix(0.87, -0.5, 0.5, 0.87, -10.54, 15.82)" fill="#010101"/><rect x="24.35" y="27.3" width="0.28" height="0.28" transform="matrix(0.87, -0.5, 0.5, 0.87, -10.44, 15.92)" fill="#010101"/><rect x="24.59" y="27.16" width="0.28" height="0.28" transform="translate(-10.34 16.02) rotate(-30)" fill="#010101"/><rect x="24.83" y="27.02" width="0.28" height="0.28" transform="translate(-10.23 16.12) rotate(-30)" fill="#010101"/><rect x="25.08" y="26.88" width="0.28" height="0.28" transform="matrix(0.87, -0.5, 0.5, 0.87, -10.13, 16.23)" fill="#010101"/><rect x="25.32" y="26.74" width="0.28" height="0.28" transform="translate(-10.03 16.33) rotate(-30)" fill="#010101"/><rect x="25.56" y="26.6" width="0.28" height="0.28" transform="matrix(0.87, -0.5, 0.5, 0.87, -9.93, 16.43)" fill="#010101"/><rect x="25.8" y="26.46" width="0.28" height="0.28" transform="matrix(0.87, -0.5, 0.5, 0.87, -9.82, 16.53)" fill="#010101"/><rect x="22.06" y="28.94" width="0.28" height="0.28" transform="matrix(0.87, -0.5, 0.5, 0.87, -11.57, 15)" fill="#010101"/><rect x="23.03" y="28.38" width="0.28" height="0.28" transform="matrix(0.87, -0.5, 0.5, 0.87, -11.16, 15.41)" fill="#010101"/><rect x="23.28" y="28.24" width="0.28" height="0.28" transform="matrix(0.87, -0.5, 0.5, 0.87, -11.05, 15.51)" fill="#010101"/><rect x="24" y="27.82" width="0.28" height="0.28" transform="matrix(0.87, -0.5, 0.5, 0.87, -10.75, 15.82)" fill="#010101"/><rect x="24.97" y="27.26" width="0.28" height="0.28" transform="matrix(0.87, -0.5, 0.5, 0.87, -10.34, 16.23)" fill="#010101"/><rect x="25.94" y="26.7" width="0.28" height="0.28" transform="matrix(0.87, -0.5, 0.5, 0.87, -9.93, 16.64)" fill="#010101"/><rect x="20.26" y="30.3" width="0.28" height="0.28" transform="translate(-12.49 14.28) rotate(-30)" fill="#010101"/><rect x="20.51" y="30.16" width="0.28" height="0.28" transform="matrix(0.87, -0.5, 0.5, 0.87, -12.38, 14.38)" fill="#010101"/><rect x="20.75" y="30.02" width="0.28" height="0.28" transform="matrix(0.87, -0.5, 0.5, 0.87, -12.28, 14.48)" fill="#010101"/><rect x="20.99" y="29.88" width="0.28" height="0.28" transform="translate(-12.18 14.59) rotate(-30)" fill="#010101"/><rect x="21.23" y="29.74" width="0.28" height="0.28" transform="translate(-12.08 14.69) rotate(-30)" fill="#010101"/><rect x="21.48" y="29.6" width="0.28" height="0.28" transform="matrix(0.87, -0.5, 0.5, 0.87, -11.98, 14.79)" fill="#010101"/><rect x="21.72" y="29.46" width="0.28" height="0.28" transform="matrix(0.87, -0.5, 0.5, 0.87, -11.87, 14.89)" fill="#010101"/><rect x="22.45" y="29.04" width="0.28" height="0.28" transform="matrix(0.87, -0.5, 0.5, 0.87, -11.57, 15.2)" fill="#010101"/><rect x="22.93" y="28.76" width="0.28" height="0.28" transform="matrix(0.87, -0.5, 0.5, 0.87, -11.36, 15.41)" fill="#010101"/><rect x="23.17" y="28.62" width="0.28" height="0.28" transform="translate(-11.26 15.51) rotate(-30)" fill="#010101"/><rect x="24.14" y="28.06" width="0.28" height="0.28" transform="matrix(0.87, -0.5, 0.5, 0.87, -10.85, 15.92)" fill="#010101"/><rect x="24.63" y="27.78" width="0.28" height="0.28" transform="translate(-10.64 16.12) rotate(-30)" fill="#010101"/><rect x="25.11" y="27.5" width="0.28" height="0.28" transform="matrix(0.87, -0.5, 0.5, 0.87, -10.44, 16.33)" fill="#010101"/><rect x="25.36" y="27.36" width="0.28" height="0.28" transform="translate(-10.34 16.43) rotate(-30)" fill="#010101"/><rect x="25.6" y="27.22" width="0.28" height="0.28" transform="matrix(0.87, -0.5, 0.5, 0.87, -10.23, 16.53)" fill="#010101"/><rect x="25.84" y="27.08" width="0.28" height="0.28" transform="translate(-10.13 16.64) rotate(-30)" fill="#010101"/><rect x="26.08" y="26.94" width="0.28" height="0.28" transform="translate(-10.03 16.74) rotate(-30)" fill="#010101"/><rect x="20.4" y="30.55" width="0.28" height="0.28" transform="matrix(0.87, -0.5, 0.5, 0.87, -12.59, 14.38)" fill="#010101"/><rect x="21.86" y="29.71" width="0.28" height="0.28" transform="translate(-11.98 15) rotate(-30)" fill="#010101"/><rect x="22.59" y="29.29" width="0.28" height="0.28" transform="matrix(0.87, -0.5, 0.5, 0.87, -11.67, 15.3)" fill="#010101"/><rect x="22.83" y="29.15" width="0.28" height="0.28" transform="translate(-11.57 15.41) rotate(-30)" fill="#010101"/><rect x="23.31" y="28.87" width="0.28" height="0.28" transform="matrix(0.87, -0.5, 0.5, 0.87, -11.36, 15.61)" fill="#010101"/><rect x="24.28" y="28.31" width="0.28" height="0.28" transform="matrix(0.87, -0.5, 0.5, 0.87, -10.95, 16.02)" fill="#010101"/><rect x="25.25" y="27.75" width="0.28" height="0.28" transform="matrix(0.87, -0.5, 0.5, 0.87, -10.54, 16.43)" fill="#010101"/><rect x="25.98" y="27.33" width="0.28" height="0.28" transform="matrix(0.87, -0.5, 0.5, 0.87, -10.23, 16.74)" fill="#010101"/><rect x="20.54" y="30.79" width="0.28" height="0.28" transform="translate(-12.7 14.49) rotate(-30.01)" fill="#010101"/><rect x="21.03" y="30.51" width="0.28" height="0.28" transform="translate(-12.49 14.7) rotate(-30.01)" fill="#010101"/><rect x="21.27" y="30.37" width="0.28" height="0.28" transform="translate(-12.39 14.8) rotate(-30.01)" fill="#010101"/><rect x="21.51" y="30.23" width="0.28" height="0.28" transform="translate(-12.29 14.9) rotate(-30.01)" fill="#010101"/><rect x="22" y="29.95" width="0.28" height="0.28" transform="translate(-12.08 15.11) rotate(-30.01)" fill="#010101"/><rect x="22.73" y="29.53" width="0.28" height="0.28" transform="translate(-11.77 15.41) rotate(-30.01)" fill="#010101"/><rect x="23.21" y="29.25" width="0.28" height="0.28" transform="matrix(0.87, -0.5, 0.5, 0.87, -11.57, 15.62)" fill="#010101"/><rect x="23.45" y="29.11" width="0.28" height="0.28" transform="matrix(0.87, -0.5, 0.5, 0.87, -11.47, 15.72)" fill="#010101"/><rect x="23.7" y="28.97" width="0.28" height="0.28" transform="translate(-11.36 15.82) rotate(-30.01)" fill="#010101"/><rect x="24.42" y="28.55" width="0.28" height="0.28" transform="translate(-11.05 16.13) rotate(-30.01)" fill="#010101"/><rect x="24.67" y="28.41" width="0.28" height="0.28" transform="translate(-10.95 16.23) rotate(-30.01)" fill="#010101"/><rect x="24.91" y="28.27" width="0.28" height="0.28" transform="translate(-10.85 16.34) rotate(-30.01)" fill="#010101"/><rect x="25.15" y="28.13" width="0.28" height="0.28" transform="translate(-10.75 16.44) rotate(-30.01)" fill="#010101"/><rect x="25.39" y="27.99" width="0.28" height="0.28" transform="translate(-10.64 16.54) rotate(-30.01)" fill="#010101"/><rect x="26.12" y="27.57" width="0.28" height="0.28" transform="translate(-10.34 16.85) rotate(-30.01)" fill="#010101"/><rect x="20.68" y="31.03" width="0.28" height="0.28" transform="translate(-12.79 14.59) rotate(-30)" fill="#010101"/><rect x="21.17" y="30.75" width="0.28" height="0.28" transform="matrix(0.87, -0.5, 0.5, 0.87, -12.59, 14.79)" fill="#010101"/><rect x="21.41" y="30.61" width="0.28" height="0.28" transform="translate(-12.49 14.89) rotate(-30)" fill="#010101"/><rect x="21.65" y="30.47" width="0.28" height="0.28" transform="matrix(0.87, -0.5, 0.5, 0.87, -12.38, 15)" fill="#010101"/><rect x="22.14" y="30.19" width="0.28" height="0.28" transform="translate(-12.18 15.2) rotate(-30)" fill="#010101"/><rect x="22.62" y="29.91" width="0.28" height="0.28" transform="matrix(0.87, -0.5, 0.5, 0.87, -11.98, 15.41)" fill="#010101"/><rect x="22.87" y="29.77" width="0.28" height="0.28" transform="translate(-11.87 15.51) rotate(-30)" fill="#010101"/><rect x="23.11" y="29.63" width="0.28" height="0.28" transform="matrix(0.87, -0.5, 0.5, 0.87, -11.77, 15.61)" fill="#010101"/><rect x="23.59" y="29.35" width="0.28" height="0.28" transform="matrix(0.87, -0.5, 0.5, 0.87, -11.57, 15.82)" fill="#010101"/><rect x="23.84" y="29.21" width="0.28" height="0.28" transform="translate(-11.46 15.92) rotate(-30)" fill="#010101"/><rect x="24.08" y="29.07" width="0.28" height="0.28" transform="translate(-11.36 16.02) rotate(-30)" fill="#010101"/><rect x="24.32" y="28.93" width="0.28" height="0.28" transform="matrix(0.87, -0.5, 0.5, 0.87, -11.26, 16.12)" fill="#010101"/><rect x="24.81" y="28.65" width="0.28" height="0.28" transform="matrix(0.87, -0.5, 0.5, 0.87, -11.05, 16.33)" fill="#010101"/><rect x="25.05" y="28.51" width="0.28" height="0.28" transform="translate(-10.95 16.43) rotate(-30)" fill="#010101"/><rect x="25.53" y="28.23" width="0.28" height="0.28" transform="matrix(0.87, -0.5, 0.5, 0.87, -10.75, 16.64)" fill="#010101"/><rect x="26.02" y="27.95" width="0.28" height="0.28" transform="matrix(0.87, -0.5, 0.5, 0.87, -10.54, 16.84)" fill="#010101"/><rect x="26.26" y="27.81" width="0.28" height="0.28" transform="matrix(0.87, -0.5, 0.5, 0.87, -10.44, 16.94)" fill="#010101"/><rect x="26.5" y="27.67" width="0.28" height="0.28" transform="matrix(0.87, -0.5, 0.5, 0.87, -10.34, 17.05)" fill="#010101"/><rect x="20.82" y="31.27" width="0.28" height="0.28" transform="matrix(0.87, -0.5, 0.5, 0.87, -12.9, 14.69)" fill="#010101"/><rect x="21.31" y="30.99" width="0.28" height="0.28" transform="matrix(0.87, -0.5, 0.5, 0.87, -12.69, 14.89)" fill="#010101"/><rect x="21.55" y="30.85" width="0.28" height="0.28" transform="matrix(0.87, -0.5, 0.5, 0.87, -12.59, 15)" fill="#010101"/><rect x="21.79" y="30.71" width="0.28" height="0.28" transform="matrix(0.87, -0.5, 0.5, 0.87, -12.49, 15.1)" fill="#010101"/><rect x="22.28" y="30.43" width="0.28" height="0.28" transform="matrix(0.87, -0.5, 0.5, 0.87, -12.28, 15.3)" fill="#010101"/><rect x="22.76" y="30.15" width="0.28" height="0.28" transform="matrix(0.87, -0.5, 0.5, 0.87, -12.08, 15.51)" fill="#010101"/><rect x="23.01" y="30.01" width="0.28" height="0.28" transform="matrix(0.87, -0.5, 0.5, 0.87, -11.98, 15.61)" fill="#010101"/><rect x="23.25" y="29.87" width="0.28" height="0.28" transform="matrix(0.87, -0.5, 0.5, 0.87, -11.87, 15.71)" fill="#010101"/><rect x="23.49" y="29.73" width="0.28" height="0.28" transform="matrix(0.87, -0.5, 0.5, 0.87, -11.77, 15.82)" fill="#010101"/><rect x="23.73" y="29.59" width="0.28" height="0.28" transform="translate(-11.67 15.92) rotate(-30)" fill="#010101"/><rect x="23.98" y="29.45" width="0.28" height="0.28" transform="matrix(0.87, -0.5, 0.5, 0.87, -11.57, 16.02)" fill="#010101"/><rect x="24.46" y="29.17" width="0.28" height="0.28" transform="translate(-11.36 16.23) rotate(-30)" fill="#010101"/><rect x="24.7" y="29.03" width="0.28" height="0.28" transform="translate(-11.26 16.33) rotate(-30)" fill="#010101"/><rect x="24.95" y="28.89" width="0.28" height="0.28" transform="matrix(0.87, -0.5, 0.5, 0.87, -11.16, 16.43)" fill="#010101"/><rect x="25.19" y="28.75" width="0.28" height="0.28" transform="translate(-11.05 16.53) rotate(-30)" fill="#010101"/><rect x="25.43" y="28.61" width="0.28" height="0.28" transform="translate(-10.95 16.64) rotate(-30)" fill="#010101"/><rect x="25.67" y="28.47" width="0.28" height="0.28" transform="translate(-10.85 16.74) rotate(-30)" fill="#010101"/><rect x="25.92" y="28.33" width="0.28" height="0.28" transform="translate(-10.75 16.84) rotate(-30)" fill="#010101"/><rect x="26.16" y="28.19" width="0.28" height="0.28" transform="matrix(0.87, -0.5, 0.5, 0.87, -10.64, 16.94)" fill="#010101"/><rect x="26.4" y="28.05" width="0.28" height="0.28" transform="matrix(0.87, -0.5, 0.5, 0.87, -10.54, 17.05)" fill="#010101"/><rect x="20.96" y="31.51" width="0.28" height="0.28" transform="matrix(0.87, -0.5, 0.5, 0.87, -13, 14.79)" fill="#010101"/><rect x="22.42" y="30.67" width="0.28" height="0.28" transform="matrix(0.87, -0.5, 0.5, 0.87, -12.38, 15.41)" fill="#010101"/><rect x="22.9" y="30.39" width="0.28" height="0.28" transform="translate(-12.18 15.61) rotate(-30)" fill="#010101"/><rect x="25.09" y="29.13" width="0.28" height="0.28" transform="translate(-11.26 16.53) rotate(-30)" fill="#010101"/><rect x="25.81" y="28.71" width="0.28" height="0.28" transform="matrix(0.87, -0.5, 0.5, 0.87, -10.95, 16.84)" fill="#010101"/><rect x="26.3" y="28.43" width="0.28" height="0.28" transform="translate(-10.75 17.05) rotate(-30)" fill="#010101"/><rect x="21.1" y="31.76" width="0.28" height="0.28" transform="translate(-13.1 14.89) rotate(-30)" fill="#010101"/><rect x="21.35" y="31.62" width="0.28" height="0.28" transform="matrix(0.87, -0.5, 0.5, 0.87, -13, 15)" fill="#010101"/><rect x="21.59" y="31.48" width="0.28" height="0.28" transform="matrix(0.87, -0.5, 0.5, 0.87, -12.9, 15.1)" fill="#010101"/><rect x="21.83" y="31.34" width="0.28" height="0.28" transform="translate(-12.79 15.2) rotate(-30)" fill="#010101"/><rect x="22.07" y="31.2" width="0.28" height="0.28" transform="matrix(0.87, -0.5, 0.5, 0.87, -12.69, 15.3)" fill="#010101"/><rect x="22.32" y="31.06" width="0.28" height="0.28" transform="matrix(0.87, -0.5, 0.5, 0.87, -12.59, 15.41)" fill="#010101"/><rect x="22.56" y="30.92" width="0.28" height="0.28" transform="matrix(0.87, -0.5, 0.5, 0.87, -12.49, 15.51)" fill="#010101"/><rect x="23.04" y="30.64" width="0.28" height="0.28" transform="matrix(0.87, -0.5, 0.5, 0.87, -12.28, 15.71)" fill="#010101"/><rect x="24.01" y="30.08" width="0.28" height="0.28" transform="matrix(0.87, -0.5, 0.5, 0.87, -11.87, 16.12)" fill="#010101"/><rect x="24.5" y="29.8" width="0.28" height="0.28" transform="translate(-11.67 16.33) rotate(-30)" fill="#010101"/><rect x="25.23" y="29.38" width="0.28" height="0.28" transform="translate(-11.36 16.64) rotate(-30)" fill="#010101"/><rect x="25.71" y="29.1" width="0.28" height="0.28" transform="matrix(0.87, -0.5, 0.5, 0.87, -11.16, 16.84)" fill="#010101"/><rect x="25.95" y="28.96" width="0.28" height="0.28" transform="translate(-11.05 16.94) rotate(-30)" fill="#010101"/><rect x="26.2" y="28.82" width="0.28" height="0.28" transform="matrix(0.87, -0.5, 0.5, 0.87, -10.95, 17.05)" fill="#010101"/><rect x="26.44" y="28.68" width="0.28" height="0.28" transform="matrix(0.87, -0.5, 0.5, 0.87, -10.85, 17.15)" fill="#010101"/><rect x="26.68" y="28.54" width="0.28" height="0.28" transform="translate(-10.75 17.25) rotate(-30)" fill="#010101"/><rect x="26.92" y="28.4" width="0.28" height="0.28" transform="translate(-10.64 17.35) rotate(-30)" fill="#010101"/></svg>