<svg xmlns="http://www.w3.org/2000/svg" style="height: 100%; width: 180%;" class="icons icon-qr-code" id="icon-qr-code" x="0" y="0" viewBox="-3 0 90 50"><path d="M21.72,48.42a1.22,1.22,0,0,1-.52-0.09L1.77,37.12a1.51,1.51,0,0,1-.52-0.91V13.79a1.51,1.51,0,0,1,.52-0.91L21.2,1.67a1.23,1.23,0,0,1,.52-0.09,1.26,1.26,0,0,1,.52.09L41.66,12.88a1.51,1.51,0,0,1,.52.9V36.21a1.51,1.51,0,0,1-.52.91L22.24,48.33a1.22,1.22,0,0,1-.52.09" fill="#fff"/><path d="M41.93,11.59L23.22,0.79a3.33,3.33,0,0,0-3,0L1.5,11.59A3.33,3.33,0,0,0,0,14.2V35.8a3.33,3.33,0,0,0,1.5,2.61l18.71,10.8a3.33,3.33,0,0,0,3,0l18.71-10.8a3.33,3.33,0,0,0,1.5-2.61V14.2a3.33,3.33,0,0,0-1.5-2.61m-1,25.08L22.22,47.48a1.45,1.45,0,0,1-1,0L2.5,36.67A1.46,1.46,0,0,1,2,35.8V32.06H2V30H2V14.2a1.46,1.46,0,0,1,.5-0.87L21.21,2.52a1.2,1.2,0,0,1,.5-0.09,1.18,1.18,0,0,1,.5.09l18.71,10.8a1.46,1.46,0,0,1,.5.87V30h0v2h0V35.8a1.45,1.45,0,0,1-.5.87" fill="#cbcbcb"/><path d="M34,25.93l-4.36-7.55a2.46,2.46,0,0,0-3.35-.9l-0.64.37L12.07,25.71l-1.77,1a2.46,2.46,0,0,0-.9,3.35l4.36,7.55a2.46,2.46,0,0,0,3.35.9l1.77-1L32.5,29.65l0.64-.37A2.46,2.46,0,0,0,34,25.93ZM16.64,37.71a1.51,1.51,0,0,1-2.06-.55l-4.36-7.55a1.51,1.51,0,0,1,.55-2.06L13.49,26l5.87,10.16Zm3.54-2.07L14.31,25.48l11-6.34L31.21,29.3ZM32,28.83L26.16,18.67l0.64-.37a1.51,1.51,0,0,1,2.06.55l4.36,7.55a1.51,1.51,0,0,1-.55,2.06Z" fill="#231f20" stroke="#6b205f" stroke-miterlimit="10"/><path d="M13.41,32.77a1.19,1.19,0,1,0,.43-1.62A1.19,1.19,0,0,0,13.41,32.77Zm1.24-.72A0.24,0.24,0,1,1,14.32,32,0.24,0.24,0,0,1,14.65,32.06Z" fill="#231f20" stroke="#6b205f" stroke-miterlimit="10"/><path d="M18.85,13.11a0.47,0.47,0,0,0-.92-0.21,4.95,4.95,0,0,1-6.27,3.62,0.47,0.47,0,1,0-.27.9A5.89,5.89,0,0,0,18.85,13.11Z" fill="#231f20" stroke="#6b205f" stroke-miterlimit="10"/><path d="M21.7,14.23A0.47,0.47,0,0,0,20.79,14a7.66,7.66,0,0,1-9.61,5.55,0.47,0.47,0,0,0-.27.91A8.61,8.61,0,0,0,21.7,14.23Z" fill="#231f20" stroke="#6b205f" stroke-miterlimit="10"/><rect x="17.72" y="23.31" width="8" height="8" transform="translate(-10.75 14.52) rotate(-30)" fill="#fff"/><rect x="16.96" y="25.94" width="0.28" height="0.28" transform="translate(-10.75 12.04) rotate(-30)" fill="#010101"/><rect x="17.2" y="25.8" width="0.28" height="0.28" transform="matrix(0.87, -0.5, 0.5, 0.87, -10.64, 12.15)" fill="#010101"/><rect x="17.45" y="25.66" width="0.28" height="0.28" transform="matrix(0.87, -0.5, 0.5, 0.87, -10.54, 12.25)" fill="#010101"/><rect x="17.69" y="25.52" width="0.28" height="0.28" transform="translate(-10.44 12.35) rotate(-30)" fill="#010101"/><rect x="17.93" y="25.38" width="0.28" height="0.28" transform="translate(-10.34 12.45) rotate(-30)" fill="#010101"/><rect x="18.17" y="25.24" width="0.28" height="0.28" transform="matrix(0.87, -0.5, 0.5, 0.87, -10.24, 12.56)" fill="#010101"/><rect x="18.42" y="25.1" width="0.28" height="0.28" transform="matrix(0.87, -0.5, 0.5, 0.87, -10.13, 12.66)" fill="#010101"/><rect x="18.9" y="24.82" width="0.28" height="0.28" transform="matrix(0.87, -0.5, 0.5, 0.87, -9.93, 12.86)" fill="#010101"/><rect x="19.14" y="24.68" width="0.28" height="0.28" transform="matrix(0.87, -0.5, 0.5, 0.87, -9.83, 12.97)" fill="#010101"/><rect x="20.11" y="24.12" width="0.28" height="0.28" transform="matrix(0.87, -0.5, 0.5, 0.87, -9.42, 13.38)" fill="#010101"/><rect x="20.6" y="23.84" width="0.28" height="0.28" transform="matrix(0.87, -0.5, 0.5, 0.87, -9.21, 13.58)" fill="#010101"/><rect x="20.84" y="23.7" width="0.28" height="0.28" transform="matrix(0.87, -0.5, 0.5, 0.87, -9.11, 13.68)" fill="#010101"/><rect x="21.33" y="23.42" width="0.28" height="0.28" transform="matrix(0.87, -0.5, 0.5, 0.87, -8.9, 13.89)" fill="#010101"/><rect x="21.57" y="23.28" width="0.28" height="0.28" transform="matrix(0.87, -0.5, 0.5, 0.87, -8.8, 13.99)" fill="#010101"/><rect x="21.81" y="23.14" width="0.28" height="0.28" transform="matrix(0.87, -0.5, 0.5, 0.87, -8.7, 14.09)" fill="#010101"/><rect x="22.05" y="23" width="0.28" height="0.28" transform="matrix(0.87, -0.5, 0.5, 0.87, -8.6, 14.2)" fill="#010101"/><rect x="22.3" y="22.86" width="0.28" height="0.28" transform="matrix(0.87, -0.5, 0.5, 0.87, -8.49, 14.3)" fill="#010101"/><rect x="22.54" y="22.72" width="0.28" height="0.28" transform="translate(-8.39 14.4) rotate(-30)" fill="#010101"/><rect x="22.78" y="22.58" width="0.28" height="0.28" transform="translate(-8.29 14.5) rotate(-30)" fill="#010101"/><rect x="17.1" y="26.18" width="0.28" height="0.28" transform="matrix(0.87, -0.5, 0.5, 0.87, -10.85, 12.15)" fill="#010101"/><rect x="18.56" y="25.34" width="0.28" height="0.28" transform="translate(-10.24 12.76) rotate(-30)" fill="#010101"/><rect x="20.25" y="24.36" width="0.28" height="0.28" transform="translate(-9.52 13.48) rotate(-30)" fill="#010101"/><rect x="20.5" y="24.22" width="0.28" height="0.28" transform="matrix(0.87, -0.5, 0.5, 0.87, -9.42, 13.58)" fill="#010101"/><rect x="21.47" y="23.66" width="0.28" height="0.28" transform="matrix(0.87, -0.5, 0.5, 0.87, -9.01, 13.99)" fill="#010101"/><rect x="22.92" y="22.82" width="0.28" height="0.28" transform="matrix(0.87, -0.5, 0.5, 0.87, -8.39, 14.61)" fill="#010101"/><rect x="17.24" y="26.42" width="0.28" height="0.28" transform="matrix(0.87, -0.5, 0.5, 0.87, -10.95, 12.25)" fill="#010101"/><rect x="17.73" y="26.14" width="0.28" height="0.28" transform="matrix(0.87, -0.5, 0.5, 0.87, -10.75, 12.45)" fill="#010101"/><rect x="17.97" y="26" width="0.28" height="0.28" transform="matrix(0.87, -0.5, 0.5, 0.87, -10.64, 12.56)" fill="#010101"/><rect x="18.21" y="25.86" width="0.28" height="0.28" transform="matrix(0.87, -0.5, 0.5, 0.87, -10.54, 12.66)" fill="#010101"/><rect x="18.7" y="25.58" width="0.28" height="0.28" transform="matrix(0.87, -0.5, 0.5, 0.87, -10.34, 12.86)" fill="#010101"/><rect x="19.18" y="25.3" width="0.28" height="0.28" transform="translate(-10.13 13.07) rotate(-30)" fill="#010101"/><rect x="19.91" y="24.88" width="0.28" height="0.28" transform="translate(-9.83 13.38) rotate(-30)" fill="#010101"/><rect x="20.15" y="24.74" width="0.28" height="0.28" transform="translate(-9.72 13.48) rotate(-30)" fill="#010101"/><rect x="20.39" y="24.6" width="0.28" height="0.28" transform="matrix(0.87, -0.5, 0.5, 0.87, -9.62, 13.58)" fill="#010101"/><rect x="20.88" y="24.32" width="0.28" height="0.28" transform="matrix(0.87, -0.5, 0.5, 0.87, -9.42, 13.79)" fill="#010101"/><rect x="21.61" y="23.9" width="0.28" height="0.28" transform="matrix(0.87, -0.5, 0.5, 0.87, -9.11, 14.09)" fill="#010101"/><rect x="22.09" y="23.62" width="0.28" height="0.28" transform="matrix(0.87, -0.5, 0.5, 0.87, -8.9, 14.3)" fill="#010101"/><rect x="22.33" y="23.48" width="0.28" height="0.28" transform="matrix(0.87, -0.5, 0.5, 0.87, -8.8, 14.4)" fill="#010101"/><rect x="22.58" y="23.34" width="0.28" height="0.28" transform="matrix(0.87, -0.5, 0.5, 0.87, -8.7, 14.5)" fill="#010101"/><rect x="23.06" y="23.06" width="0.28" height="0.28" transform="matrix(0.87, -0.5, 0.5, 0.87, -8.49, 14.71)" fill="#010101"/><rect x="17.38" y="26.67" width="0.28" height="0.28" transform="translate(-11.05 12.35) rotate(-30)" fill="#010101"/><rect x="17.87" y="26.39" width="0.28" height="0.28" transform="matrix(0.87, -0.5, 0.5, 0.87, -10.85, 12.56)" fill="#010101"/><rect x="18.11" y="26.25" width="0.28" height="0.28" transform="translate(-10.75 12.66) rotate(-30)" fill="#010101"/><rect x="18.35" y="26.11" width="0.28" height="0.28" transform="matrix(0.87, -0.5, 0.5, 0.87, -10.64, 12.76)" fill="#010101"/><rect x="18.84" y="25.83" width="0.28" height="0.28" transform="matrix(0.87, -0.5, 0.5, 0.87, -10.44, 12.97)" fill="#010101"/><rect x="19.32" y="25.55" width="0.28" height="0.28" transform="matrix(0.87, -0.5, 0.5, 0.87, -10.24, 13.17)" fill="#010101"/><rect x="19.56" y="25.41" width="0.28" height="0.28" transform="translate(-10.13 13.27) rotate(-30)" fill="#010101"/><rect x="20.05" y="25.13" width="0.28" height="0.28" transform="matrix(0.87, -0.5, 0.5, 0.87, -9.93, 13.48)" fill="#010101"/><rect x="20.78" y="24.71" width="0.28" height="0.28" transform="translate(-9.62 13.79) rotate(-30)" fill="#010101"/><rect x="21.02" y="24.57" width="0.28" height="0.28" transform="translate(-9.52 13.89) rotate(-30)" fill="#010101"/><rect x="21.75" y="24.15" width="0.28" height="0.28" transform="translate(-9.21 14.2) rotate(-30)" fill="#010101"/><rect x="22.23" y="23.87" width="0.28" height="0.28" transform="matrix(0.87, -0.5, 0.5, 0.87, -9.01, 14.4)" fill="#010101"/><rect x="22.47" y="23.73" width="0.28" height="0.28" transform="translate(-8.9 14.5) rotate(-30)" fill="#010101"/><rect x="22.72" y="23.59" width="0.28" height="0.28" transform="matrix(0.87, -0.5, 0.5, 0.87, -8.8, 14.61)" fill="#010101"/><rect x="23.2" y="23.31" width="0.28" height="0.28" transform="matrix(0.87, -0.5, 0.5, 0.87, -8.6, 14.81)" fill="#010101"/><rect x="17.52" y="26.91" width="0.28" height="0.28" transform="matrix(0.87, -0.5, 0.5, 0.87, -11.16, 12.45)" fill="#010101"/><rect x="18.01" y="26.63" width="0.28" height="0.28" transform="matrix(0.87, -0.5, 0.5, 0.87, -10.95, 12.66)" fill="#010101"/><rect x="18.25" y="26.49" width="0.28" height="0.28" transform="matrix(0.87, -0.5, 0.5, 0.87, -10.85, 12.76)" fill="#010101"/><rect x="18.49" y="26.35" width="0.28" height="0.28" transform="matrix(0.87, -0.5, 0.5, 0.87, -10.75, 12.86)" fill="#010101"/><rect x="18.98" y="26.07" width="0.28" height="0.28" transform="translate(-10.54 13.07) rotate(-30)" fill="#010101"/><rect x="19.46" y="25.79" width="0.28" height="0.28" transform="matrix(0.87, -0.5, 0.5, 0.87, -10.34, 13.27)" fill="#010101"/><rect x="19.7" y="25.65" width="0.28" height="0.28" transform="translate(-10.24 13.38) rotate(-30)" fill="#010101"/><rect x="19.95" y="25.51" width="0.28" height="0.28" transform="matrix(0.87, -0.5, 0.5, 0.87, -10.13, 13.48)" fill="#010101"/><rect x="20.19" y="25.37" width="0.28" height="0.28" transform="matrix(0.87, -0.5, 0.5, 0.87, -10.03, 13.58)" fill="#010101"/><rect x="20.92" y="24.95" width="0.28" height="0.28" transform="matrix(0.87, -0.5, 0.5, 0.87, -9.72, 13.89)" fill="#010101"/><rect x="21.16" y="24.81" width="0.28" height="0.28" transform="translate(-9.62 13.99) rotate(-30)" fill="#010101"/><rect x="21.4" y="24.67" width="0.28" height="0.28" transform="translate(-9.52 14.09) rotate(-30)" fill="#010101"/><rect x="21.89" y="24.39" width="0.28" height="0.28" transform="matrix(0.87, -0.5, 0.5, 0.87, -9.31, 14.3)" fill="#010101"/><rect x="22.37" y="24.11" width="0.28" height="0.28" transform="translate(-9.11 14.5) rotate(-30)" fill="#010101"/><rect x="22.61" y="23.97" width="0.28" height="0.28" transform="matrix(0.87, -0.5, 0.5, 0.87, -9.01, 14.61)" fill="#010101"/><rect x="22.86" y="23.83" width="0.28" height="0.28" transform="matrix(0.87, -0.5, 0.5, 0.87, -8.9, 14.71)" fill="#010101"/><rect x="23.34" y="23.55" width="0.28" height="0.28" transform="translate(-8.7 14.91) rotate(-30)" fill="#010101"/><rect x="17.66" y="27.15" width="0.28" height="0.28" transform="translate(-11.26 12.56) rotate(-30.01)" fill="#010101"/><rect x="19.12" y="26.31" width="0.28" height="0.28" transform="translate(-10.65 13.18) rotate(-30.01)" fill="#010101"/><rect x="19.84" y="25.89" width="0.28" height="0.28" transform="translate(-10.34 13.48) rotate(-30.01)" fill="#010101"/><rect x="20.57" y="25.47" width="0.28" height="0.28" transform="translate(-10.03 13.79) rotate(-30.01)" fill="#010101"/><rect x="21.06" y="25.19" width="0.28" height="0.28" transform="translate(-9.83 14) rotate(-30.01)" fill="#010101"/><rect x="22.03" y="24.63" width="0.28" height="0.28" transform="translate(-9.42 14.41) rotate(-30.01)" fill="#010101"/><rect x="23.48" y="23.79" width="0.28" height="0.28" transform="translate(-8.8 15.02) rotate(-30.01)" fill="#010101"/><rect x="17.8" y="27.39" width="0.28" height="0.28" transform="translate(-11.36 12.66) rotate(-30)" fill="#010101"/><rect x="18.04" y="27.25" width="0.28" height="0.28" transform="matrix(0.87, -0.5, 0.5, 0.87, -11.26, 12.76)" fill="#010101"/><rect x="18.29" y="27.11" width="0.28" height="0.28" transform="matrix(0.87, -0.5, 0.5, 0.87, -11.16, 12.86)" fill="#010101"/><rect x="18.53" y="26.97" width="0.28" height="0.28" transform="translate(-11.05 12.97) rotate(-30)" fill="#010101"/><rect x="18.77" y="26.83" width="0.28" height="0.28" transform="translate(-10.95 13.07) rotate(-30)" fill="#010101"/><rect x="19.01" y="26.69" width="0.28" height="0.28" transform="matrix(0.87, -0.5, 0.5, 0.87, -10.85, 13.17)" fill="#010101"/><rect x="19.26" y="26.55" width="0.28" height="0.28" transform="matrix(0.87, -0.5, 0.5, 0.87, -10.75, 13.27)" fill="#010101"/><rect x="19.74" y="26.27" width="0.28" height="0.28" transform="matrix(0.87, -0.5, 0.5, 0.87, -10.54, 13.48)" fill="#010101"/><rect x="20.23" y="25.99" width="0.28" height="0.28" transform="translate(-10.34 13.68) rotate(-30)" fill="#010101"/><rect x="20.71" y="25.71" width="0.28" height="0.28" transform="matrix(0.87, -0.5, 0.5, 0.87, -10.13, 13.89)" fill="#010101"/><rect x="21.2" y="25.43" width="0.28" height="0.28" transform="matrix(0.87, -0.5, 0.5, 0.87, -9.93, 14.09)" fill="#010101"/><rect x="21.68" y="25.15" width="0.28" height="0.28" transform="matrix(0.87, -0.5, 0.5, 0.87, -9.72, 14.3)" fill="#010101"/><rect x="22.17" y="24.87" width="0.28" height="0.28" transform="matrix(0.87, -0.5, 0.5, 0.87, -9.52, 14.5)" fill="#010101"/><rect x="22.41" y="24.73" width="0.28" height="0.28" transform="matrix(0.87, -0.5, 0.5, 0.87, -9.42, 14.61)" fill="#010101"/><rect x="22.65" y="24.59" width="0.28" height="0.28" transform="matrix(0.87, -0.5, 0.5, 0.87, -9.31, 14.71)" fill="#010101"/><rect x="22.89" y="24.45" width="0.28" height="0.28" transform="matrix(0.87, -0.5, 0.5, 0.87, -9.21, 14.81)" fill="#010101"/><rect x="23.14" y="24.31" width="0.28" height="0.28" transform="matrix(0.87, -0.5, 0.5, 0.87, -9.11, 14.91)" fill="#010101"/><rect x="23.38" y="24.17" width="0.28" height="0.28" transform="translate(-9.01 15.02) rotate(-30)" fill="#010101"/><rect x="23.62" y="24.03" width="0.28" height="0.28" transform="translate(-8.9 15.12) rotate(-30)" fill="#010101"/><rect x="20.12" y="26.38" width="0.28" height="0.28" transform="matrix(0.87, -0.5, 0.5, 0.87, -10.54, 13.68)" fill="#010101"/><rect x="20.61" y="26.1" width="0.28" height="0.28" transform="matrix(0.87, -0.5, 0.5, 0.87, -10.34, 13.89)" fill="#010101"/><rect x="18.08" y="27.88" width="0.28" height="0.28" transform="matrix(0.87, -0.5, 0.5, 0.87, -11.57, 12.86)" fill="#010101"/><rect x="18.32" y="27.74" width="0.28" height="0.28" transform="matrix(0.87, -0.5, 0.5, 0.87, -11.46, 12.97)" fill="#010101"/><rect x="18.57" y="27.6" width="0.28" height="0.28" transform="matrix(0.87, -0.5, 0.5, 0.87, -11.36, 13.07)" fill="#010101"/><rect x="18.81" y="27.46" width="0.28" height="0.28" transform="matrix(0.87, -0.5, 0.5, 0.87, -11.26, 13.17)" fill="#010101"/><rect x="19.54" y="27.04" width="0.28" height="0.28" transform="translate(-10.95 13.48) rotate(-30)" fill="#010101"/><rect x="20.02" y="26.76" width="0.28" height="0.28" transform="translate(-10.75 13.68) rotate(-30)" fill="#010101"/><rect x="21.48" y="25.92" width="0.28" height="0.28" transform="matrix(0.87, -0.5, 0.5, 0.87, -10.13, 14.3)" fill="#010101"/><rect x="22.2" y="25.5" width="0.28" height="0.28" transform="matrix(0.87, -0.5, 0.5, 0.87, -9.83, 14.61)" fill="#010101"/><rect x="22.93" y="25.08" width="0.28" height="0.28" transform="matrix(0.87, -0.5, 0.5, 0.87, -9.52, 14.91)" fill="#010101"/><rect x="23.17" y="24.94" width="0.28" height="0.28" transform="matrix(0.87, -0.5, 0.5, 0.87, -9.42, 15.02)" fill="#010101"/><rect x="23.42" y="24.8" width="0.28" height="0.28" transform="matrix(0.87, -0.5, 0.5, 0.87, -9.31, 15.12)" fill="#010101"/><rect x="23.9" y="24.52" width="0.28" height="0.28" transform="matrix(0.87, -0.5, 0.5, 0.87, -9.11, 15.32)" fill="#010101"/><rect x="18.22" y="28.12" width="0.28" height="0.28" transform="matrix(0.87, -0.5, 0.5, 0.87, -11.67, 12.97)" fill="#010101"/><rect x="18.71" y="27.84" width="0.28" height="0.28" transform="translate(-11.46 13.17) rotate(-30)" fill="#010101"/><rect x="18.95" y="27.7" width="0.28" height="0.28" transform="matrix(0.87, -0.5, 0.5, 0.87, -11.36, 13.27)" fill="#010101"/><rect x="19.19" y="27.56" width="0.28" height="0.28" transform="matrix(0.87, -0.5, 0.5, 0.87, -11.26, 13.38)" fill="#010101"/><rect x="19.43" y="27.42" width="0.28" height="0.28" transform="matrix(0.87, -0.5, 0.5, 0.87, -11.16, 13.48)" fill="#010101"/><rect x="20.4" y="26.86" width="0.28" height="0.28" transform="translate(-10.75 13.89) rotate(-30)" fill="#010101"/><rect x="21.37" y="26.3" width="0.28" height="0.28" transform="translate(-10.34 14.3) rotate(-30)" fill="#010101"/><rect x="21.62" y="26.16" width="0.28" height="0.28" transform="matrix(0.87, -0.5, 0.5, 0.87, -10.24, 14.4)" fill="#010101"/><rect x="21.86" y="26.02" width="0.28" height="0.28" transform="matrix(0.87, -0.5, 0.5, 0.87, -10.13, 14.5)" fill="#010101"/><rect x="22.1" y="25.88" width="0.28" height="0.28" transform="matrix(0.87, -0.5, 0.5, 0.87, -10.03, 14.61)" fill="#010101"/><rect x="22.83" y="25.46" width="0.28" height="0.28" transform="matrix(0.87, -0.5, 0.5, 0.87, -9.72, 14.91)" fill="#010101"/><rect x="23.8" y="24.9" width="0.28" height="0.28" transform="translate(-9.31 15.32) rotate(-30)" fill="#010101"/><rect x="18.36" y="28.36" width="0.28" height="0.28" transform="matrix(0.87, -0.5, 0.5, 0.87, -11.77, 13.07)" fill="#010101"/><rect x="19.57" y="27.66" width="0.28" height="0.28" transform="translate(-11.26 13.58) rotate(-30)" fill="#010101"/><rect x="19.82" y="27.52" width="0.28" height="0.28" transform="matrix(0.87, -0.5, 0.5, 0.87, -11.16, 13.68)" fill="#010101"/><rect x="20.06" y="27.38" width="0.28" height="0.28" transform="matrix(0.87, -0.5, 0.5, 0.87, -11.05, 13.79)" fill="#010101"/><rect x="21.51" y="26.54" width="0.28" height="0.28" transform="matrix(0.87, -0.5, 0.5, 0.87, -10.44, 14.4)" fill="#010101"/><rect x="21.76" y="26.4" width="0.28" height="0.28" transform="translate(-10.34 14.5) rotate(-30)" fill="#010101"/><rect x="22.73" y="25.84" width="0.28" height="0.28" transform="translate(-9.93 14.91) rotate(-30)" fill="#010101"/><rect x="22.97" y="25.7" width="0.28" height="0.28" transform="translate(-9.83 15.02) rotate(-30)" fill="#010101"/><rect x="18.74" y="28.47" width="0.28" height="0.28" transform="translate(-11.77 13.27) rotate(-30)" fill="#010101"/><rect x="19.23" y="28.19" width="0.28" height="0.28" transform="matrix(0.87, -0.5, 0.5, 0.87, -11.57, 13.48)" fill="#010101"/><rect x="19.47" y="28.05" width="0.28" height="0.28" transform="matrix(0.87, -0.5, 0.5, 0.87, -11.46, 13.58)" fill="#010101"/><rect x="19.71" y="27.91" width="0.28" height="0.28" transform="matrix(0.87, -0.5, 0.5, 0.87, -11.36, 13.68)" fill="#010101"/><rect x="20.2" y="27.63" width="0.28" height="0.28" transform="matrix(0.87, -0.5, 0.5, 0.87, -11.16, 13.89)" fill="#010101"/><rect x="20.44" y="27.49" width="0.28" height="0.28" transform="matrix(0.87, -0.5, 0.5, 0.87, -11.05, 13.99)" fill="#010101"/><rect x="21.17" y="27.07" width="0.28" height="0.28" transform="matrix(0.87, -0.5, 0.5, 0.87, -10.75, 14.3)" fill="#010101"/><rect x="21.41" y="26.93" width="0.28" height="0.28" transform="matrix(0.87, -0.5, 0.5, 0.87, -10.64, 14.4)" fill="#010101"/><rect x="21.65" y="26.79" width="0.28" height="0.28" transform="matrix(0.87, -0.5, 0.5, 0.87, -10.54, 14.5)" fill="#010101"/><rect x="22.38" y="26.37" width="0.28" height="0.28" transform="translate(-10.24 14.81) rotate(-30)" fill="#010101"/><rect x="22.62" y="26.23" width="0.28" height="0.28" transform="translate(-10.13 14.91) rotate(-30)" fill="#010101"/><rect x="22.87" y="26.09" width="0.28" height="0.28" transform="matrix(0.87, -0.5, 0.5, 0.87, -10.03, 15.02)" fill="#010101"/><rect x="23.35" y="25.81" width="0.28" height="0.28" transform="translate(-9.83 15.22) rotate(-30)" fill="#010101"/><rect x="23.59" y="25.67" width="0.28" height="0.28" transform="translate(-9.72 15.32) rotate(-30)" fill="#010101"/><rect x="23.84" y="25.53" width="0.28" height="0.28" transform="matrix(0.87, -0.5, 0.5, 0.87, -9.62, 15.43)" fill="#010101"/><rect x="18.88" y="28.71" width="0.28" height="0.28" transform="matrix(0.87, -0.5, 0.5, 0.87, -11.87, 13.38)" fill="#010101"/><rect x="19.13" y="28.57" width="0.28" height="0.28" transform="matrix(0.87, -0.5, 0.5, 0.87, -11.77, 13.48)" fill="#010101"/><rect x="19.61" y="28.29" width="0.28" height="0.28" transform="translate(-11.57 13.68) rotate(-30)" fill="#010101"/><rect x="19.85" y="28.15" width="0.28" height="0.28" transform="matrix(0.87, -0.5, 0.5, 0.87, -11.46, 13.79)" fill="#010101"/><rect x="20.1" y="28.01" width="0.28" height="0.28" transform="matrix(0.87, -0.5, 0.5, 0.87, -11.36, 13.89)" fill="#010101"/><rect x="20.58" y="27.73" width="0.28" height="0.28" transform="matrix(0.87, -0.5, 0.5, 0.87, -11.16, 14.09)" fill="#010101"/><rect x="20.82" y="27.59" width="0.28" height="0.28" transform="matrix(0.87, -0.5, 0.5, 0.87, -11.05, 14.2)" fill="#010101"/><rect x="21.31" y="27.31" width="0.28" height="0.28" transform="matrix(0.87, -0.5, 0.5, 0.87, -10.85, 14.4)" fill="#010101"/><rect x="22.52" y="26.61" width="0.28" height="0.28" transform="matrix(0.87, -0.5, 0.5, 0.87, -10.34, 14.91)" fill="#010101"/><rect x="23.01" y="26.33" width="0.28" height="0.28" transform="matrix(0.87, -0.5, 0.5, 0.87, -10.13, 15.12)" fill="#010101"/><rect x="23.49" y="26.05" width="0.28" height="0.28" transform="matrix(0.87, -0.5, 0.5, 0.87, -9.93, 15.32)" fill="#010101"/><rect x="23.98" y="25.77" width="0.28" height="0.28" transform="translate(-9.72 15.53) rotate(-30)" fill="#010101"/><rect x="24.22" y="25.63" width="0.28" height="0.28" transform="translate(-9.62 15.63) rotate(-30)" fill="#010101"/><rect x="24.46" y="25.49" width="0.28" height="0.28" transform="matrix(0.87, -0.5, 0.5, 0.87, -9.52, 15.73)" fill="#010101"/><rect x="20.48" y="28.11" width="0.28" height="0.28" transform="translate(-11.36 14.1) rotate(-30.01)" fill="#010101"/><rect x="21.21" y="27.69" width="0.28" height="0.28" transform="translate(-11.06 14.41) rotate(-30.01)" fill="#010101"/><rect x="21.45" y="27.55" width="0.28" height="0.28" transform="translate(-10.95 14.51) rotate(-30.01)" fill="#010101"/><rect x="21.93" y="27.27" width="0.28" height="0.28" transform="translate(-10.75 14.71) rotate(-30.01)" fill="#010101"/><rect x="22.18" y="27.13" width="0.28" height="0.28" transform="translate(-10.65 14.82) rotate(-30.01)" fill="#010101"/><rect x="22.42" y="26.99" width="0.28" height="0.28" transform="translate(-10.54 14.92) rotate(-30.01)" fill="#010101"/><rect x="22.66" y="26.85" width="0.28" height="0.28" transform="translate(-10.44 15.02) rotate(-30.01)" fill="#010101"/><rect x="22.9" y="26.71" width="0.28" height="0.28" transform="translate(-10.34 15.12) rotate(-30.01)" fill="#010101"/><rect x="23.15" y="26.57" width="0.28" height="0.28" transform="translate(-10.24 15.23) rotate(-30.01)" fill="#010101"/><rect x="23.39" y="26.43" width="0.28" height="0.28" transform="translate(-10.13 15.33) rotate(-30.01)" fill="#010101"/><rect x="23.63" y="26.29" width="0.28" height="0.28" transform="translate(-10.03 15.43) rotate(-30.01)" fill="#010101"/><rect x="24.6" y="25.73" width="0.28" height="0.28" transform="matrix(0.87, -0.5, 0.5, 0.87, -9.62, 15.84)" fill="#010101"/><rect x="19.16" y="29.19" width="0.28" height="0.28" transform="matrix(0.87, -0.5, 0.5, 0.87, -12.08, 13.58)" fill="#010101"/><rect x="19.65" y="28.91" width="0.28" height="0.28" transform="matrix(0.87, -0.5, 0.5, 0.87, -11.87, 13.79)" fill="#010101"/><rect x="20.38" y="28.49" width="0.28" height="0.28" transform="translate(-11.57 14.09) rotate(-30)" fill="#010101"/><rect x="20.62" y="28.35" width="0.28" height="0.28" transform="translate(-11.46 14.2) rotate(-30)" fill="#010101"/><rect x="21.1" y="28.07" width="0.28" height="0.28" transform="matrix(0.87, -0.5, 0.5, 0.87, -11.26, 14.4)" fill="#010101"/><rect x="21.83" y="27.65" width="0.28" height="0.28" transform="matrix(0.87, -0.5, 0.5, 0.87, -10.95, 14.71)" fill="#010101"/><rect x="22.32" y="27.37" width="0.28" height="0.28" transform="translate(-10.75 14.91) rotate(-30)" fill="#010101"/><rect x="23.04" y="26.95" width="0.28" height="0.28" transform="translate(-10.44 15.22) rotate(-30)" fill="#010101"/><rect x="23.29" y="26.81" width="0.28" height="0.28" transform="matrix(0.87, -0.5, 0.5, 0.87, -10.34, 15.32)" fill="#010101"/><rect x="23.77" y="26.53" width="0.28" height="0.28" transform="matrix(0.87, -0.5, 0.5, 0.87, -10.13, 15.53)" fill="#010101"/><rect x="24.26" y="26.25" width="0.28" height="0.28" transform="matrix(0.87, -0.5, 0.5, 0.87, -9.93, 15.73)" fill="#010101"/><rect x="24.5" y="26.11" width="0.28" height="0.28" transform="matrix(0.87, -0.5, 0.5, 0.87, -9.83, 15.84)" fill="#010101"/><rect x="19.06" y="29.58" width="0.28" height="0.28" transform="matrix(0.87, -0.5, 0.5, 0.87, -12.28, 13.58)" fill="#010101"/><rect x="19.55" y="29.3" width="0.28" height="0.28" transform="matrix(0.87, -0.5, 0.5, 0.87, -12.08, 13.79)" fill="#010101"/><rect x="20.03" y="29.02" width="0.28" height="0.28" transform="translate(-11.87 13.99) rotate(-30)" fill="#010101"/><rect x="20.27" y="28.88" width="0.28" height="0.28" transform="matrix(0.87, -0.5, 0.5, 0.87, -11.77, 14.09)" fill="#010101"/><rect x="21.24" y="28.32" width="0.28" height="0.28" transform="translate(-11.36 14.5) rotate(-30)" fill="#010101"/><rect x="21.49" y="28.18" width="0.28" height="0.28" transform="matrix(0.87, -0.5, 0.5, 0.87, -11.26, 14.61)" fill="#010101"/><rect x="21.97" y="27.9" width="0.28" height="0.28" transform="translate(-11.05 14.81) rotate(-30)" fill="#010101"/><rect x="22.21" y="27.76" width="0.28" height="0.28" transform="translate(-10.95 14.91) rotate(-30)" fill="#010101"/><rect x="22.94" y="27.34" width="0.28" height="0.28" transform="matrix(0.87, -0.5, 0.5, 0.87, -10.64, 15.22)" fill="#010101"/><rect x="23.67" y="26.92" width="0.28" height="0.28" transform="matrix(0.87, -0.5, 0.5, 0.87, -10.34, 15.53)" fill="#010101"/><rect x="24.15" y="26.64" width="0.28" height="0.28" transform="matrix(0.87, -0.5, 0.5, 0.87, -10.13, 15.73)" fill="#010101"/><rect x="24.88" y="26.22" width="0.28" height="0.28" transform="matrix(0.87, -0.5, 0.5, 0.87, -9.83, 16.04)" fill="#010101"/><rect x="19.69" y="29.54" width="0.28" height="0.28" transform="matrix(0.87, -0.5, 0.5, 0.87, -12.18, 13.89)" fill="#010101"/><rect x="19.93" y="29.4" width="0.28" height="0.28" transform="matrix(0.87, -0.5, 0.5, 0.87, -12.08, 13.99)" fill="#010101"/><rect x="20.66" y="28.98" width="0.28" height="0.28" transform="matrix(0.87, -0.5, 0.5, 0.87, -11.77, 14.3)" fill="#010101"/><rect x="21.87" y="28.28" width="0.28" height="0.28" transform="matrix(0.87, -0.5, 0.5, 0.87, -11.26, 14.81)" fill="#010101"/><rect x="22.84" y="27.72" width="0.28" height="0.28" transform="translate(-10.85 15.22) rotate(-30)" fill="#010101"/><rect x="23.08" y="27.58" width="0.28" height="0.28" transform="translate(-10.75 15.32) rotate(-30)" fill="#010101"/><rect x="23.32" y="27.44" width="0.28" height="0.28" transform="matrix(0.87, -0.5, 0.5, 0.87, -10.64, 15.43)" fill="#010101"/><rect x="23.57" y="27.3" width="0.28" height="0.28" transform="translate(-10.54 15.53) rotate(-30)" fill="#010101"/><rect x="23.81" y="27.16" width="0.28" height="0.28" transform="translate(-10.44 15.63) rotate(-30)" fill="#010101"/><rect x="24.05" y="27.02" width="0.28" height="0.28" transform="matrix(0.87, -0.5, 0.5, 0.87, -10.34, 15.73)" fill="#010101"/><rect x="24.29" y="26.88" width="0.28" height="0.28" transform="matrix(0.87, -0.5, 0.5, 0.87, -10.24, 15.84)" fill="#010101"/><rect x="24.54" y="26.74" width="0.28" height="0.28" transform="matrix(0.87, -0.5, 0.5, 0.87, -10.13, 15.94)" fill="#010101"/><rect x="24.78" y="26.6" width="0.28" height="0.28" transform="matrix(0.87, -0.5, 0.5, 0.87, -10.03, 16.04)" fill="#010101"/><rect x="25.02" y="26.46" width="0.28" height="0.28" transform="matrix(0.87, -0.5, 0.5, 0.87, -9.93, 16.14)" fill="#010101"/><rect x="21.28" y="28.94" width="0.28" height="0.28" transform="matrix(0.87, -0.5, 0.5, 0.87, -11.67, 14.61)" fill="#010101"/><rect x="22.25" y="28.38" width="0.28" height="0.28" transform="matrix(0.87, -0.5, 0.5, 0.87, -11.26, 15.02)" fill="#010101"/><rect x="22.49" y="28.24" width="0.28" height="0.28" transform="matrix(0.87, -0.5, 0.5, 0.87, -11.16, 15.12)" fill="#010101"/><rect x="23.22" y="27.82" width="0.28" height="0.28" transform="translate(-10.85 15.43) rotate(-30)" fill="#010101"/><rect x="24.19" y="27.26" width="0.28" height="0.28" transform="translate(-10.44 15.84) rotate(-30)" fill="#010101"/><rect x="25.16" y="26.7" width="0.28" height="0.28" transform="matrix(0.87, -0.5, 0.5, 0.87, -10.03, 16.25)" fill="#010101"/><rect x="19.48" y="30.3" width="0.28" height="0.28" transform="matrix(0.87, -0.5, 0.5, 0.87, -12.59, 13.89)" fill="#010101"/><rect x="19.72" y="30.16" width="0.28" height="0.28" transform="matrix(0.87, -0.5, 0.5, 0.87, -12.49, 13.99)" fill="#010101"/><rect x="19.97" y="30.02" width="0.28" height="0.28" transform="matrix(0.87, -0.5, 0.5, 0.87, -12.39, 14.09)" fill="#010101"/><rect x="20.21" y="29.88" width="0.28" height="0.28" transform="translate(-12.28 14.2) rotate(-30)" fill="#010101"/><rect x="20.45" y="29.74" width="0.28" height="0.28" transform="matrix(0.87, -0.5, 0.5, 0.87, -12.18, 14.3)" fill="#010101"/><rect x="20.69" y="29.6" width="0.28" height="0.28" transform="matrix(0.87, -0.5, 0.5, 0.87, -12.08, 14.4)" fill="#010101"/><rect x="20.94" y="29.46" width="0.28" height="0.28" transform="translate(-11.98 14.5) rotate(-30)" fill="#010101"/><rect x="21.66" y="29.04" width="0.28" height="0.28" transform="translate(-11.67 14.81) rotate(-30)" fill="#010101"/><rect x="22.15" y="28.76" width="0.28" height="0.28" transform="matrix(0.87, -0.5, 0.5, 0.87, -11.46, 15.02)" fill="#010101"/><rect x="22.39" y="28.62" width="0.28" height="0.28" transform="translate(-11.36 15.12) rotate(-30)" fill="#010101"/><rect x="23.36" y="28.06" width="0.28" height="0.28" transform="matrix(0.87, -0.5, 0.5, 0.87, -10.95, 15.53)" fill="#010101"/><rect x="23.85" y="27.78" width="0.28" height="0.28" transform="matrix(0.87, -0.5, 0.5, 0.87, -10.75, 15.73)" fill="#010101"/><rect x="24.33" y="27.5" width="0.28" height="0.28" transform="matrix(0.87, -0.5, 0.5, 0.87, -10.54, 15.94)" fill="#010101"/><rect x="24.57" y="27.36" width="0.28" height="0.28" transform="matrix(0.87, -0.5, 0.5, 0.87, -10.44, 16.04)" fill="#010101"/><rect x="24.82" y="27.22" width="0.28" height="0.28" transform="translate(-10.34 16.14) rotate(-30)" fill="#010101"/><rect x="25.06" y="27.08" width="0.28" height="0.28" transform="translate(-10.24 16.25) rotate(-30)" fill="#010101"/><rect x="25.3" y="26.94" width="0.28" height="0.28" transform="matrix(0.87, -0.5, 0.5, 0.87, -10.13, 16.35)" fill="#010101"/><rect x="19.62" y="30.55" width="0.28" height="0.28" transform="translate(-12.69 13.99) rotate(-30)" fill="#010101"/><rect x="21.08" y="29.71" width="0.28" height="0.28" transform="matrix(0.87, -0.5, 0.5, 0.87, -12.08, 14.61)" fill="#010101"/><rect x="21.8" y="29.29" width="0.28" height="0.28" transform="matrix(0.87, -0.5, 0.5, 0.87, -11.77, 14.91)" fill="#010101"/><rect x="22.05" y="29.15" width="0.28" height="0.28" transform="matrix(0.87, -0.5, 0.5, 0.87, -11.67, 15.02)" fill="#010101"/><rect x="22.53" y="28.87" width="0.28" height="0.28" transform="matrix(0.87, -0.5, 0.5, 0.87, -11.46, 15.22)" fill="#010101"/><rect x="23.5" y="28.31" width="0.28" height="0.28" transform="matrix(0.87, -0.5, 0.5, 0.87, -11.05, 15.63)" fill="#010101"/><rect x="24.47" y="27.75" width="0.28" height="0.28" transform="matrix(0.87, -0.5, 0.5, 0.87, -10.65, 16.04)" fill="#010101"/><rect x="25.2" y="27.33" width="0.28" height="0.28" transform="matrix(0.87, -0.5, 0.5, 0.87, -10.34, 16.35)" fill="#010101"/><rect x="19.76" y="30.79" width="0.28" height="0.28" transform="translate(-12.8 14.1) rotate(-30.01)" fill="#010101"/><rect x="20.25" y="30.51" width="0.28" height="0.28" transform="matrix(0.87, -0.5, 0.5, 0.87, -12.6, 14.3)" fill="#010101"/><rect x="20.49" y="30.37" width="0.28" height="0.28" transform="translate(-12.49 14.41) rotate(-30.01)" fill="#010101"/><rect x="20.73" y="30.23" width="0.28" height="0.28" transform="translate(-12.39 14.51) rotate(-30.01)" fill="#010101"/><rect x="21.22" y="29.95" width="0.28" height="0.28" transform="matrix(0.87, -0.5, 0.5, 0.87, -12.18, 14.71)" fill="#010101"/><rect x="21.94" y="29.53" width="0.28" height="0.28" transform="translate(-11.88 15.02) rotate(-30.01)" fill="#010101"/><rect x="22.43" y="29.25" width="0.28" height="0.28" transform="matrix(0.87, -0.5, 0.5, 0.87, -11.67, 15.23)" fill="#010101"/><rect x="22.67" y="29.11" width="0.28" height="0.28" transform="translate(-11.57 15.33) rotate(-30.01)" fill="#010101"/><rect x="22.91" y="28.97" width="0.28" height="0.28" transform="translate(-11.47 15.43) rotate(-30.01)" fill="#010101"/><rect x="23.64" y="28.55" width="0.28" height="0.28" transform="translate(-11.16 15.74) rotate(-30.01)" fill="#010101"/><rect x="23.88" y="28.41" width="0.28" height="0.28" transform="translate(-11.06 15.84) rotate(-30.01)" fill="#010101"/><rect x="24.13" y="28.27" width="0.28" height="0.28" transform="translate(-10.95 15.94) rotate(-30.01)" fill="#010101"/><rect x="24.37" y="28.13" width="0.28" height="0.28" transform="translate(-10.85 16.05) rotate(-30.01)" fill="#010101"/><rect x="24.61" y="27.99" width="0.28" height="0.28" transform="translate(-10.75 16.15) rotate(-30.01)" fill="#010101"/><rect x="25.34" y="27.57" width="0.28" height="0.28" transform="translate(-10.44 16.46) rotate(-30.01)" fill="#010101"/><rect x="19.9" y="31.03" width="0.28" height="0.28" transform="translate(-12.9 14.2) rotate(-30)" fill="#010101"/><rect x="20.39" y="30.75" width="0.28" height="0.28" transform="matrix(0.87, -0.5, 0.5, 0.87, -12.69, 14.4)" fill="#010101"/><rect x="20.63" y="30.61" width="0.28" height="0.28" transform="translate(-12.59 14.5) rotate(-30)" fill="#010101"/><rect x="20.87" y="30.47" width="0.28" height="0.28" transform="matrix(0.87, -0.5, 0.5, 0.87, -12.49, 14.61)" fill="#010101"/><rect x="21.36" y="30.19" width="0.28" height="0.28" transform="translate(-12.28 14.81) rotate(-30)" fill="#010101"/><rect x="21.84" y="29.91" width="0.28" height="0.28" transform="translate(-12.08 15.02) rotate(-30)" fill="#010101"/><rect x="22.08" y="29.77" width="0.28" height="0.28" transform="translate(-11.98 15.12) rotate(-30)" fill="#010101"/><rect x="22.33" y="29.63" width="0.28" height="0.28" transform="matrix(0.87, -0.5, 0.5, 0.87, -11.87, 15.22)" fill="#010101"/><rect x="22.81" y="29.35" width="0.28" height="0.28" transform="translate(-11.67 15.43) rotate(-30)" fill="#010101"/><rect x="23.05" y="29.21" width="0.28" height="0.28" transform="translate(-11.57 15.53) rotate(-30)" fill="#010101"/><rect x="23.3" y="29.07" width="0.28" height="0.28" transform="matrix(0.87, -0.5, 0.5, 0.87, -11.46, 15.63)" fill="#010101"/><rect x="23.54" y="28.93" width="0.28" height="0.28" transform="matrix(0.87, -0.5, 0.5, 0.87, -11.36, 15.73)" fill="#010101"/><rect x="24.02" y="28.65" width="0.28" height="0.28" transform="matrix(0.87, -0.5, 0.5, 0.87, -11.16, 15.94)" fill="#010101"/><rect x="24.27" y="28.51" width="0.28" height="0.28" transform="matrix(0.87, -0.5, 0.5, 0.87, -11.05, 16.04)" fill="#010101"/><rect x="24.75" y="28.23" width="0.28" height="0.28" transform="matrix(0.87, -0.5, 0.5, 0.87, -10.85, 16.25)" fill="#010101"/><rect x="25.24" y="27.95" width="0.28" height="0.28" transform="translate(-10.64 16.45) rotate(-30)" fill="#010101"/><rect x="25.48" y="27.81" width="0.28" height="0.28" transform="matrix(0.87, -0.5, 0.5, 0.87, -10.54, 16.55)" fill="#010101"/><rect x="25.72" y="27.67" width="0.28" height="0.28" transform="matrix(0.87, -0.5, 0.5, 0.87, -10.44, 16.66)" fill="#010101"/><rect x="20.04" y="31.27" width="0.28" height="0.28" transform="matrix(0.87, -0.5, 0.5, 0.87, -13, 14.3)" fill="#010101"/><rect x="20.53" y="30.99" width="0.28" height="0.28" transform="matrix(0.87, -0.5, 0.5, 0.87, -12.8, 14.5)" fill="#010101"/><rect x="20.77" y="30.85" width="0.28" height="0.28" transform="matrix(0.87, -0.5, 0.5, 0.87, -12.69, 14.61)" fill="#010101"/><rect x="21.01" y="30.71" width="0.28" height="0.28" transform="matrix(0.87, -0.5, 0.5, 0.87, -12.59, 14.71)" fill="#010101"/><rect x="21.5" y="30.43" width="0.28" height="0.28" transform="matrix(0.87, -0.5, 0.5, 0.87, -12.39, 14.91)" fill="#010101"/><rect x="21.98" y="30.15" width="0.28" height="0.28" transform="matrix(0.87, -0.5, 0.5, 0.87, -12.18, 15.12)" fill="#010101"/><rect x="22.22" y="30.01" width="0.28" height="0.28" transform="translate(-12.08 15.22) rotate(-30)" fill="#010101"/><rect x="22.47" y="29.87" width="0.28" height="0.28" transform="matrix(0.87, -0.5, 0.5, 0.87, -11.98, 15.32)" fill="#010101"/><rect x="22.71" y="29.73" width="0.28" height="0.28" transform="matrix(0.87, -0.5, 0.5, 0.87, -11.87, 15.43)" fill="#010101"/><rect x="22.95" y="29.59" width="0.28" height="0.28" transform="translate(-11.77 15.53) rotate(-30)" fill="#010101"/><rect x="23.19" y="29.45" width="0.28" height="0.28" transform="matrix(0.87, -0.5, 0.5, 0.87, -11.67, 15.63)" fill="#010101"/><rect x="23.68" y="29.17" width="0.28" height="0.28" transform="translate(-11.46 15.84) rotate(-30)" fill="#010101"/><rect x="23.92" y="29.03" width="0.28" height="0.28" transform="matrix(0.87, -0.5, 0.5, 0.87, -11.36, 15.94)" fill="#010101"/><rect x="24.16" y="28.89" width="0.28" height="0.28" transform="matrix(0.87, -0.5, 0.5, 0.87, -11.26, 16.04)" fill="#010101"/><rect x="24.41" y="28.75" width="0.28" height="0.28" transform="translate(-11.16 16.14) rotate(-30)" fill="#010101"/><rect x="24.65" y="28.61" width="0.28" height="0.28" transform="matrix(0.87, -0.5, 0.5, 0.87, -11.05, 16.25)" fill="#010101"/><rect x="24.89" y="28.47" width="0.28" height="0.28" transform="matrix(0.87, -0.5, 0.5, 0.87, -10.95, 16.35)" fill="#010101"/><rect x="25.13" y="28.33" width="0.28" height="0.28" transform="matrix(0.87, -0.5, 0.5, 0.87, -10.85, 16.45)" fill="#010101"/><rect x="25.38" y="28.19" width="0.28" height="0.28" transform="matrix(0.87, -0.5, 0.5, 0.87, -10.75, 16.55)" fill="#010101"/><rect x="25.62" y="28.05" width="0.28" height="0.28" transform="matrix(0.87, -0.5, 0.5, 0.87, -10.64, 16.66)" fill="#010101"/><rect x="20.18" y="31.51" width="0.28" height="0.28" transform="matrix(0.87, -0.5, 0.5, 0.87, -13.1, 14.4)" fill="#010101"/><rect x="21.64" y="30.67" width="0.28" height="0.28" transform="matrix(0.87, -0.5, 0.5, 0.87, -12.49, 15.02)" fill="#010101"/><rect x="22.12" y="30.39" width="0.28" height="0.28" transform="matrix(0.87, -0.5, 0.5, 0.87, -12.28, 15.22)" fill="#010101"/><rect x="24.3" y="29.13" width="0.28" height="0.28" transform="translate(-11.36 16.14) rotate(-30)" fill="#010101"/><rect x="25.03" y="28.71" width="0.28" height="0.28" transform="translate(-11.05 16.45) rotate(-30)" fill="#010101"/><rect x="25.52" y="28.43" width="0.28" height="0.28" transform="matrix(0.87, -0.5, 0.5, 0.87, -10.85, 16.66)" fill="#010101"/><rect x="20.32" y="31.76" width="0.28" height="0.28" transform="matrix(0.87, -0.5, 0.5, 0.87, -13.21, 14.5)" fill="#010101"/><rect x="20.56" y="31.62" width="0.28" height="0.28" transform="matrix(0.87, -0.5, 0.5, 0.87, -13.1, 14.61)" fill="#010101"/><rect x="20.81" y="31.48" width="0.28" height="0.28" transform="matrix(0.87, -0.5, 0.5, 0.87, -13, 14.71)" fill="#010101"/><rect x="21.05" y="31.34" width="0.28" height="0.28" transform="matrix(0.87, -0.5, 0.5, 0.87, -12.9, 14.81)" fill="#010101"/><rect x="21.29" y="31.2" width="0.28" height="0.28" transform="matrix(0.87, -0.5, 0.5, 0.87, -12.8, 14.91)" fill="#010101"/><rect x="21.53" y="31.06" width="0.28" height="0.28" transform="matrix(0.87, -0.5, 0.5, 0.87, -12.69, 15.02)" fill="#010101"/><rect x="21.78" y="30.92" width="0.28" height="0.28" transform="matrix(0.87, -0.5, 0.5, 0.87, -12.59, 15.12)" fill="#010101"/><rect x="22.26" y="30.64" width="0.28" height="0.28" transform="translate(-12.39 15.32) rotate(-30)" fill="#010101"/><rect x="23.23" y="30.08" width="0.28" height="0.28" transform="matrix(0.87, -0.5, 0.5, 0.87, -11.98, 15.73)" fill="#010101"/><rect x="23.72" y="29.8" width="0.28" height="0.28" transform="translate(-11.77 15.94) rotate(-30)" fill="#010101"/><rect x="24.44" y="29.38" width="0.28" height="0.28" transform="translate(-11.46 16.25) rotate(-30)" fill="#010101"/><rect x="24.93" y="29.1" width="0.28" height="0.28" transform="matrix(0.87, -0.5, 0.5, 0.87, -11.26, 16.45)" fill="#010101"/><rect x="25.17" y="28.96" width="0.28" height="0.28" transform="matrix(0.87, -0.5, 0.5, 0.87, -11.16, 16.55)" fill="#010101"/><rect x="25.41" y="28.82" width="0.28" height="0.28" transform="translate(-11.05 16.66) rotate(-30)" fill="#010101"/><rect x="25.66" y="28.68" width="0.28" height="0.28" transform="translate(-10.95 16.76) rotate(-30)" fill="#010101"/><rect x="25.9" y="28.54" width="0.28" height="0.28" transform="matrix(0.87, -0.5, 0.5, 0.87, -10.85, 16.86)" fill="#010101"/><rect x="26.14" y="28.4" width="0.28" height="0.28" transform="matrix(0.87, -0.5, 0.5, 0.87, -10.75, 16.96)" fill="#010101"/></svg>