<svg xmlns="http://www.w3.org/2000/svg" xmlns:xlink="http://www.w3.org/1999/xlink" version="1.1" class="icons icon-checkin" id="icon-screen-checkin" x="0" y="0" viewBox="0 0 50 50" xml:space="preserve" enable-background="new 0 0 50 50"><g><g><path d="M23.41 44.9c0-0.53 0.71-0.97 1.59-0.97 0.88 0 1.59 0.43 1.59 0.97 0 0.53-0.71 0.97-1.59 0.97C24.12 45.87 23.41 45.43 23.41 44.9" fill="#6B205F"></path><path d="M24.99 3.42c0.01 0 0.02 0 0.03 0 0.94 0 1.7 0.76 1.7 1.7v37.19l20.25-12.23c0.8-0.48 1.85-0.23 2.33 0.58 0.49 0.8 0.22 1.85-0.58 2.33L26.85 46.19c-0.59 0.36-1.25 0.47-1.85 0.33 -0.6 0.14-1.26 0.03-1.85-0.33L1.27 32.98c-0.8-0.49-1.06-1.53-0.58-2.33 0.49-0.8 1.53-1.06 2.33-0.58l20.25 12.23V5.12C23.29 4.18 24.04 3.42 24.99 3.42" fill="#6B205F"></path></g></g></svg>