<svg xmlns="http://www.w3.org/2000/svg" xmlns:xlink="http://www.w3.org/1999/xlink" version="1.1" class="icons icon-bed" id="icon-screen-bed" x="0" y="0" viewBox="0 0 50 50" xml:space="preserve" enable-background="new 0 0 50 50"><g><g><path d="M1.19 31.2l18.97 11.08 28.57-16.59v-6.55l-1.04-0.67L30.13 7.84c0 0-2.65-0.37-3.41 0.22 -0.76 0.6-5.89 5.21-5.89 5.13S1.19 24.27 1.19 24.27V31.2z" style="fill:none;stroke-linecap:round;stroke-linejoin:round;stroke-miterlimit:10;stroke-width:1.5;stroke:#6B205F"></path><polyline points=" 1.19 24.27 20.16 36.03 20.16 42.28 " style="fill:none;stroke-linecap:round;stroke-linejoin:round;stroke-miterlimit:10;stroke-width:1.5;stroke:#6B205F"></polyline><path d="M48.81 19.23c0 0-2.37-0.34-3.12 0.26 -0.76 0.59-5.89 5.21-5.89 5.13S20.16 36.03 20.16 36.03v6.14" style="fill:none;stroke-linecap:round;stroke-linejoin:round;stroke-miterlimit:10;stroke-width:1.5;stroke:#6B205F"></path><path d="M39.43 13.46c0 0-2.65-0.37-3.41 0.22 -0.76 0.59-5.89 5.21-5.89 5.13" style="fill:none;stroke-linecap:round;stroke-linejoin:round;stroke-miterlimit:10;stroke-width:1.5;stroke:#6B205F"></path><line x1="20.83" y1="13.19" x2="39.65" y2="24.69" style="fill:none;stroke-linecap:round;stroke-linejoin:round;stroke-miterlimit:10;stroke-width:1.5;stroke:#6B205F"></line></g></g></svg>