<svg xmlns="http://www.w3.org/2000/svg" xmlns:xlink="http://www.w3.org/1999/xlink" version="1.1" class="icons icon-checkout" id="icon-screen-checkout" x="0" y="0" viewBox="0 0 50 50" xml:space="preserve" enable-background="new 0 0 50 50"><g><g><path d="M26.59 5.1c0 0.53-0.71 0.97-1.59 0.97 -0.88 0-1.59-0.43-1.59-0.97 0-0.53 0.71-0.97 1.59-0.97C25.88 4.13 26.59 4.57 26.59 5.1" fill="#6B205F"></path><path d="M25.01 46.58c-0.01 0-0.02 0-0.03 0 -0.94 0-1.7-0.76-1.7-1.7V7.69L3.03 19.93c-0.8 0.48-1.85 0.23-2.33-0.58 -0.49-0.8-0.22-1.85 0.58-2.33L23.15 3.81c0.59-0.36 1.25-0.47 1.85-0.33 0.6-0.14 1.26-0.03 1.85 0.33l21.87 13.21c0.8 0.49 1.06 1.53 0.58 2.33 -0.49 0.8-1.53 1.06-2.33 0.58L26.71 7.69v37.19C26.71 45.82 25.96 46.58 25.01 46.58" fill="#6B205F"></path></g></g></svg>