<svg xmlns="http://www.w3.org/2000/svg" class="icons icon-key" id="icon-screen-key" viewBox="0 0 50 50">
    	<ellipse transform="matrix(0.7071 -0.7071 0.7071 0.7071 -18.6784 23.946)" cx="19.6" cy="34.5" rx="1.9" ry="1.9" />
        <path fill="#6B205F" d="M19.5,41.9c-1.9,0-3.8-0.7-5.3-2.2c-1.4-1.4-2.2-3.3-2.2-5.3s0.8-3.9,2.2-5.3c1.9-1.9,4.6-2.6,7.2-2l14-14
		c0.3-0.3,0.7-0.4,1.1-0.4h0c0.4,0,0.8,0.2,1.1,0.4l2.7,2.7c0.6,0.6,0.6,1.5,0,2.1L39,19.1l2.2,2.2c0.6,0.6,0.6,1.5,0,2.1l-2.9,2.9
		c0,0,0,0.1-0.1,0.1l-3.1,3.2C35,29.9,34.6,30,34.2,30c-0.4,0-0.8-0.2-1.1-0.4l-2.2-2.2l-4.4,4.3c1.1,2.7,0.4,5.9-1.7,8
		C23.3,41.2,21.4,41.9,19.5,41.9z M19.5,29.9c-1.2,0-2.3,0.5-3.2,1.3c-0.8,0.8-1.3,2-1.3,3.2c0,1.2,0.5,2.3,1.3,3.2
		c1.8,1.8,4.6,1.8,6.3,0c1.4-1.4,1.7-3.7,0.7-5.4c-0.4-0.6-0.3-1.4,0.2-1.8l6.3-6.1c0.6-0.6,1.5-0.6,2.1,0l2.2,2.2l1-1l-0.9-0.9
		c-0.3-0.3-0.5-0.8-0.5-1.2c0.1-0.6,0.4-1.1,1-1.3c0.6-0.2,1.2-0.1,1.6,0.3l0.9,0.9l0.9-0.9l-2.2-2.2c-0.6-0.6-0.6-1.5,0-2.1
		l1.1-1.2l-0.6-0.6L22.8,29.9c-0.4,0.4-1.1,0.6-1.6,0.3C20.6,30.1,20.1,29.9,19.5,29.9z" />
</svg>
