<svg xmlns="http://www.w3.org/2000/svg" xmlns:xlink="http://www.w3.org/1999/xlink" version="1.1" class="icons icon-card" id="icon-screen-card" x="0" y="0" viewBox="0 0 50 50" xml:space="preserve" enable-background="new 0 0 50 50"><g><g><path d="M30.79 31.03l9.67-5.44c0.4-0.23 0.54-0.74 0.32-1.14 -0.23-0.4-0.74-0.54-1.14-0.32l-9.67 5.44c-0.4 0.23-0.55 0.73-0.32 1.14C29.88 31.11 30.39 31.25 30.79 31.03" fill="#6B205F"></path><path d="M30.79 31.03l9.67-5.44c0.4-0.23 0.54-0.74 0.32-1.14 -0.23-0.4-0.74-0.54-1.14-0.32l-9.67 5.44c-0.4 0.23-0.55 0.73-0.32 1.14C29.88 31.11 30.39 31.25 30.79 31.03z" style="fill:none;stroke-miterlimit:10;stroke:#6B205F"></path><path d="M33.25 3.8L2.6 21.05c-1.49 0.84-2.02 2.74-1.18 4.23l0.89 1.58 4 7.11 6.21 11.04c0.84 1.49 2.73 2.02 4.23 1.18L47.4 28.95c1.49-0.84 2.02-2.74 1.18-4.23l-6.21-11.03 -4-7.11 -0.89-1.59C36.63 3.49 34.74 2.96 33.25 3.8M4.59 27.5L37.73 8.85l2.37 4.2L6.95 31.7 4.59 27.5zM47.13 25.54c0.39 0.69 0.14 1.57-0.55 1.96L15.94 44.74c-0.69 0.39-1.57 0.14-1.95-0.55L7.77 33.16 40.91 14.5 47.13 25.54zM3.77 26.05l-0.89-1.59c-0.39-0.69-0.14-1.57 0.55-1.95L34.06 5.26c0.69-0.39 1.57-0.14 1.95 0.55l0.89 1.58L3.77 26.05z" fill="#6B205F"></path><path d="M33.25 3.8L2.6 21.05c-1.49 0.84-2.02 2.74-1.18 4.23l0.89 1.58 4 7.11 6.21 11.04c0.84 1.49 2.73 2.02 4.23 1.18L47.4 28.95c1.49-0.84 2.02-2.74 1.18-4.23l-6.21-11.03 -4-7.11 -0.89-1.59C36.63 3.49 34.74 2.96 33.25 3.8zM4.59 27.5L37.73 8.85l2.37 4.2L6.95 31.7 4.59 27.5zM47.13 25.54c0.39 0.69 0.14 1.57-0.55 1.96L15.94 44.74c-0.69 0.39-1.57 0.14-1.95-0.55L7.77 33.16 40.91 14.5 47.13 25.54zM3.77 26.05l-0.89-1.59c-0.39-0.69-0.14-1.57 0.55-1.95L34.06 5.26c0.69-0.39 1.57-0.14 1.95 0.55l0.89 1.58L3.77 26.05z" style="fill:none;stroke-miterlimit:10;stroke:#6B205F"></path></g></g></svg>