<svg xmlns="http://www.w3.org/2000/svg" class="icons icon-key" id="icon-screen-key" viewBox="0 0 50 50"><path d="M45.2,35.15H40.77a1.53,1.53,0,0,1-1.53-1.53V32.4H38.55v1.22A1.53,1.53,0,0,1,37,35.15H33.1a1.53,1.53,0,0,1-1.53-1.53V28.93H21.7a10.09,10.09,0,0,1-9.35,6.16c-5.58-.46-9.62-4.56-9.62-9.74a9.74,9.74,0,0,1,18.41-4.46H47.39a1.53,1.53,0,0,1,1.53,1.53v5a1.53,1.53,0,0,1-1.53,1.53H46.73v4.69A1.53,1.53,0,0,1,45.2,35.15Zm-2.9-3.06h1.37V27.4a1.53,1.53,0,0,1,1.53-1.53h0.66V24H20.15a1.53,1.53,0,0,1-1.43-1A6.68,6.68,0,0,0,5.78,25.35c0,3.55,2.87,6.36,6.81,6.69,2.09,0.18,5.85-1.83,6.44-4.93a1.53,1.53,0,0,1,1.5-1.25H33.1a1.53,1.53,0,0,1,1.53,1.53v4.69h0.86V30.87A1.53,1.53,0,0,1,37,29.34h3.75a1.53,1.53,0,0,1,1.53,1.53v1.22Zm-31-4.33a3.81,3.81,0,1,1,3.81-3.81A3.81,3.81,0,0,1,11.31,27.76Zm0-4.55a0.75,0.75,0,1,0,.75.75A0.75,0.75,0,0,0,11.31,23.2Z" fill="#6B205F"></path></svg>