<svg xmlns="http://www.w3.org/2000/svg" xmlns:xlink="http://www.w3.org/1999/xlink" version="1.1" class="icons icon-staff" id="icon-staff" x="0" y="0" viewBox="0 0 45 50" xml:space="preserve" enable-background="new 0 0 45 50"><g><g><path d="M22.5 48.42c-0.29 0-0.48-0.07-0.52-0.09L2.56 37.12c-0.21-0.12-0.52-0.66-0.52-0.91V13.79c0-0.25 0.31-0.78 0.52-0.91L21.98 1.67c0.04-0.02 0.23-0.09 0.52-0.09 0.29 0 0.48 0.07 0.52 0.09l19.42 11.21c0.21 0.12 0.52 0.66 0.52 0.9v22.42c0 0.25-0.31 0.78-0.52 0.91L23.02 48.33C22.98 48.35 22.79 48.42 22.5 48.42" fill="#FFF"></path><path d="M42.71 11.59L24 0.79c-0.41-0.24-0.96-0.36-1.5-0.36S21.41 0.55 21 0.79L2.29 11.59c-0.83 0.48-1.5 1.65-1.5 2.61v21.6c0 0.96 0.68 2.13 1.5 2.61L21 49.21c0.41 0.24 0.96 0.36 1.5 0.36s1.09-0.12 1.5-0.36l18.71-10.8c0.83-0.48 1.5-1.65 1.5-2.61V14.2C44.22 13.24 43.54 12.07 42.71 11.59M41.71 36.67L23 47.48c-0.04 0.02-0.22 0.09-0.5 0.09 -0.28 0-0.46-0.07-0.5-0.09L3.28 36.67c-0.21-0.12-0.5-0.63-0.5-0.87v-3.74h0v-2.02h0V14.2c0-0.24 0.3-0.75 0.5-0.87L22 2.52c0.04-0.02 0.22-0.09 0.5-0.09 0.28 0 0.46 0.07 0.5 0.09l18.71 10.8c0.21 0.12 0.5 0.63 0.5 0.87V30h0v2.02h0v3.78C42.22 36.04 41.92 36.55 41.71 36.67" fill="#CBCBCB"></path></g><g><path d="M27.29 29.9c-4.9-1.93-5.86-2.71-6.04-2.98v-0.61c0.52-0.61 0.96-1.4 1.31-2.36 0.44-0.35 0.7-0.96 0.7-1.49 0-0.44-0.09-0.79-0.35-1.14v-1.84c0-2.54-1.57-4.02-4.37-4.02 -2.71 0-4.38 1.49-4.38 4.02v1.84c-0.17 0.35-0.26 0.7-0.26 1.14 0 0.61 0.26 1.14 0.7 1.49 0.26 0.96 0.7 1.75 1.31 2.36v0.61c-0.17 0.26-1.05 1.05-6.04 2.98 -0.53 0.17-0.79 0.61-0.79 1.05v2.27c0 0.61 0.53 1.14 1.14 1.14h16.62c0.61 0 1.14-0.53 1.14-1.14v-2.27C27.99 30.51 27.73 30.07 27.29 29.9zM26.94 33.22c0 0.09-0.09 0.09-0.09 0.09H10.23c-0.09 0-0.09-0.09-0.09-0.09v-2.27c0-0.09 0-0.09 0.09-0.09 5.51-2.1 6.48-3.06 6.65-3.67 0-0.09 0-0.09 0-0.17v-0.88c0-0.17-0.09-0.26-0.17-0.35 -0.53-0.52-0.96-1.31-1.23-2.27 0-0.09-0.09-0.26-0.17-0.26 -0.26-0.17-0.35-0.52-0.35-0.79s0.09-0.44 0.18-0.61c0.09-0.09 0.17-0.18 0.17-0.35v-2.01c0-1.92 1.14-2.97 3.33-2.97s3.32 0.96 3.32 2.97v2.01c0 0.09 0 0.26 0.09 0.35 0 0.09 0.17 0.35 0.17 0.61 0 0.35-0.17 0.61-0.35 0.79 -0.09 0.09-0.17 0.17-0.17 0.26 -0.26 0.88-0.7 1.66-1.23 2.27 -0.09 0.09-0.17 0.26-0.17 0.35v0.88c0 0.09 0 0.09 0 0.17 0.17 0.7 1.14 1.57 6.65 3.67l0.09 0.09v2.27H26.94z" style="fill:#6E1D55;stroke-miterlimit:10;stroke-width:0.5;stroke:#6F1E55"></path><path d="M35.25 30.16c-1.22-0.52-2.54-0.7-3.67-0.96 -0.7-0.17-1.75-0.35-1.93-0.44v-0.52c2.45-0.09 3.5-0.96 3.5-0.96 0.17-0.09 0.17-0.26 0.17-0.44 0-0.18-0.09-0.35-0.26-0.44 -0.53-0.26-1.05-2.63-1.23-4.64 0-1.4-0.61-2.8-1.57-3.76 -0.44-0.44-0.96-0.79-1.58-0.96 -1.05-0.44-2.27-0.35-3.32 0 -0.44 0.17-0.79 0.35-1.14 0.61 -0.26 0.17-0.26 0.52-0.09 0.7 0.17 0.26 0.53 0.26 0.7 0.09 0.26-0.17 0.53-0.35 0.88-0.44 0.88-0.35 1.66-0.35 2.63 0 0.53 0.17 0.88 0.35 1.14 0.7l0 0c0.96 0.79 1.49 1.84 1.49 3.06 0.09 0.88 0.35 3.59 1.14 4.9 -0.52 0.18-1.49 0.53-2.89 0.53 -0.26 0-0.53 0.26-0.53 0.53v1.22c0 0.09 0 0.09 0 0.18 0.26 0.7 1.23 0.96 2.71 1.22 1.05 0.17 2.28 0.44 3.41 0.88 0 0 0 0 0 0.09v2.1c0 0 0 0.09-0.09 0.09h-4.46c-0.26 0-0.53 0.26-0.53 0.52 0 0.26 0.26 0.53 0.53 0.53h4.46c0.61 0 1.14-0.53 1.14-1.14v-2.19C36.04 30.69 35.69 30.25 35.25 30.16z" style="fill:#6E1D55;stroke-miterlimit:10;stroke-width:0.5;stroke:#6F1E55"></path></g></g></svg>