<svg xmlns="http://www.w3.org/2000/svg" class="icons icon-oos" id="icon-success" x="0" y="0" viewBox="0 0 45 50" enable-background="new 0 0 45 50"><path d="M22.491,48.671a1.227,1.227,0,0,1-.521-.093L2.548,37.365a1.509,1.509,0,0,1-.522-.906V14.039a1.513,1.513,0,0,1,.524-.907L21.97,1.921a1.244,1.244,0,0,1,.521-.093,1.275,1.275,0,0,1,.525.093l19.42,11.213a1.513,1.513,0,0,1,.521.9v22.42a1.516,1.516,0,0,1-.523.908L23.014,48.578a1.235,1.235,0,0,1-.523.093" fill="#fff"/><path d="M42.705,11.842,24,1.041a3.322,3.322,0,0,0-3.008,0l-18.71,10.8a3.337,3.337,0,0,0-1.5,2.606v21.6a3.337,3.337,0,0,0,1.5,2.606l18.71,10.8a3.33,3.33,0,0,0,3.008,0l18.71-10.8A3.332,3.332,0,0,0,44.21,36.05v-21.6a3.332,3.332,0,0,0-1.505-2.606m-1,25.082-18.711,10.8a1.446,1.446,0,0,1-1.007,0L3.276,36.923a1.453,1.453,0,0,1-.5-.873V32.313h0V30.291h0V14.448a1.458,1.458,0,0,1,.5-.874l18.711-10.8a1.209,1.209,0,0,1,.5-.09,1.187,1.187,0,0,1,.5.091l18.713,10.8a1.46,1.46,0,0,1,.5.873v15.8h0v2.023h0V36.05a1.452,1.452,0,0,1-.505.874" fill="#cbcbcb"/><path d="M33.173,15.691l-13.51,16.89-5.856-7.322a1,1,0,0,0-1.562,1.25l6.636,8.3a1,1,0,0,0,1.564,0L34.737,16.939a1,1,0,1,0-1.564-1.248Z" fill="#6b205f"/></svg>