<svg xmlns="http://www.w3.org/2000/svg" viewBox="0 0 45 50" class="icons"><path d="M22.5,48.422a1.226,1.226,0,0,1-.522-.094L2.556,37.115a1.505,1.505,0,0,1-.521-.905V13.789a1.509,1.509,0,0,1,.523-.906L21.978,1.672a1.226,1.226,0,0,1,.522-.094,1.248,1.248,0,0,1,.524.094l19.42,11.213a1.506,1.506,0,0,1,.521.9V36.21a1.509,1.509,0,0,1-.523.907L23.022,48.328a1.226,1.226,0,0,1-.522.094" fill="#fff"/><path d="M42.713,11.593,24,.791A3.328,3.328,0,0,0,21,.791l-18.71,10.8A3.333,3.333,0,0,0,.782,14.2V35.8a3.333,3.333,0,0,0,1.5,2.6L21,49.209a3.328,3.328,0,0,0,3.007,0l18.71-10.8a3.329,3.329,0,0,0,1.505-2.6V14.2a3.329,3.329,0,0,0-1.505-2.605m-1,25.082L23,47.478a1.443,1.443,0,0,1-1.006,0L3.285,36.674a1.456,1.456,0,0,1-.5-.873V32.063h0V30.041h0V14.2a1.461,1.461,0,0,1,.5-.874L22,2.521a1.212,1.212,0,0,1,.5-.089,1.187,1.187,0,0,1,.5.09l18.713,10.8a1.463,1.463,0,0,1,.5.873V30h0v2.022h0V35.8a1.454,1.454,0,0,1-.505.874" fill="#cbcbcb"/><path d="M33.656,31.528h0c-6.569-2.538-7.667-3.613-7.84-3.944v-.867a7.859,7.859,0,0,0,1.667-3.067,2.382,2.382,0,0,0,.428-3.192V18.024C27.911,14.833,25.938,13,22.5,13c-3.39,0-5.414,1.877-5.414,5.021v2.435a2.383,2.383,0,0,0,.428,3.19,7.881,7.881,0,0,0,1.668,3.067v.867c-.172.33-1.269,1.4-7.84,3.944a1.32,1.32,0,0,0-.843,1.239v2.9A1.323,1.323,0,0,0,11.814,37H33.186A1.322,1.322,0,0,0,34.5,35.67v-2.9A1.336,1.336,0,0,0,33.656,31.528ZM33.5,35.671a.322.322,0,0,1-.315.327H11.814a.321.321,0,0,1-.315-.327v-2.9a.329.329,0,0,1,.205-.307c7.026-2.716,8.217-3.866,8.456-4.632a.5.5,0,0,0,.022-.148V26.519a.5.5,0,0,0-.143-.35,6.839,6.839,0,0,1-1.609-2.951.5.5,0,0,0-.193-.274,1.383,1.383,0,0,1-.262-2,.5.5,0,0,0,.112-.315v-2.6C18.087,15.431,19.654,14,22.5,14c2.886,0,4.411,1.391,4.411,4.021v2.6a.5.5,0,0,0,.112.315,1.381,1.381,0,0,1-.261,2,.5.5,0,0,0-.194.274,6.845,6.845,0,0,1-1.608,2.95.5.5,0,0,0-.143.35v1.161a.532.532,0,0,0,.022.149c.24.767,1.432,1.918,8.456,4.632a.331.331,0,0,1,.2.308Z" fill="#6b205f" stroke="#6b205f" stroke-miterlimit="10"/></svg>