<svg xmlns="http://www.w3.org/2000/svg" viewBox="0 0 45 50" class="icons"><path d="M22.5,48.422a1.226,1.226,0,0,1-.522-.094L2.556,37.115a1.505,1.505,0,0,1-.521-.905V13.789a1.509,1.509,0,0,1,.523-.906L21.978,1.672a1.226,1.226,0,0,1,.522-.094,1.248,1.248,0,0,1,.524.094l19.42,11.213a1.506,1.506,0,0,1,.521.9V36.21a1.509,1.509,0,0,1-.523.907L23.022,48.328a1.226,1.226,0,0,1-.522.094" fill="#fff"/><path d="M42.713,11.593,24,.791A3.328,3.328,0,0,0,21,.791l-18.71,10.8A3.333,3.333,0,0,0,.782,14.2V35.8a3.333,3.333,0,0,0,1.5,2.6L21,49.209a3.328,3.328,0,0,0,3.007,0l18.71-10.8a3.329,3.329,0,0,0,1.505-2.6V14.2a3.329,3.329,0,0,0-1.505-2.605m-1,25.082L23,47.478a1.443,1.443,0,0,1-1.006,0L3.285,36.674a1.456,1.456,0,0,1-.5-.873V32.063h0V30.041h0V14.2a1.461,1.461,0,0,1,.5-.874L22,2.521a1.212,1.212,0,0,1,.5-.089,1.187,1.187,0,0,1,.5.09l18.713,10.8a1.463,1.463,0,0,1,.5.873V30h0v2.022h0V35.8a1.454,1.454,0,0,1-.505.874" fill="#cbcbcb"/><path d="M33.519,18H24.534l.3-2.509a1.36,1.36,0,0,0-.331-1.064h0a1.358,1.358,0,0,0-1.015-.458H20.934a1.359,1.359,0,0,0-1.348,1.521l.3,2.51H10.563a.5.5,0,0,0-.5.5V34.481a.5.5,0,0,0,.5.5H33.519a.5.5,0,0,0,.5-.5V18.5A.5.5,0,0,0,33.519,18ZM20.667,15.088a.356.356,0,0,1,.266-.121h2.549a.356.356,0,0,1,.266.121.368.368,0,0,1,.089.284l-.51,4.318a.358.358,0,0,1-.354.318H21.441a.358.358,0,0,1-.354-.318l-.507-4.318A.365.365,0,0,1,20.667,15.088ZM33.019,33.981H11.063V19H20l.095.808a1.359,1.359,0,0,0,1.347,1.2h1.532a1.358,1.358,0,0,0,1.347-1.2L24.416,19h8.6Z" fill="#6b205f" stroke="#6b205f" stroke-miterlimit="10" stroke-width="0.5"/><path d="M22.4,29.243a11.722,11.722,0,0,1-2.83-1.33v-.127a3.37,3.37,0,0,0,.605-1.128,1.235,1.235,0,0,0,.358-.709,1.215,1.215,0,0,0-.154-.784v-.85a2.136,2.136,0,0,0-2.4-2.246,2.157,2.157,0,0,0-2.4,2.246v.851a1.217,1.217,0,0,0-.153.783,1.234,1.234,0,0,0,.357.709,3.383,3.383,0,0,0,.6,1.129v.107a10.655,10.655,0,0,1-2.83,1.35.823.823,0,0,0-.523.765v1.122a.817.817,0,0,0,.814.819H22.1a.817.817,0,0,0,.814-.819V30.009A.823.823,0,0,0,22.4,29.243Zm-.477,1.706H14.035v-.818c2.861-1.114,3.216-1.569,3.331-1.939a.5.5,0,0,0,.022-.148V27.6a.5.5,0,0,0-.143-.35,2.33,2.33,0,0,1-.545-1.008.5.5,0,0,0-.193-.274.222.222,0,0,1-.091-.152.228.228,0,0,1,.051-.177.5.5,0,0,0,.112-.315v-1c0-.827.47-1.246,1.4-1.246.953,0,1.4.4,1.4,1.246v1a.5.5,0,0,0,.112.315.222.222,0,0,1,.051.178.224.224,0,0,1-.09.151.5.5,0,0,0-.194.274,2.341,2.341,0,0,1-.545,1.008.5.5,0,0,0-.143.35v.448a.5.5,0,0,0,.023.149c.116.37.47.824,3.331,1.938Z" fill="#6b205f" stroke="#6b205f" stroke-miterlimit="10" stroke-width="0.5"/><path d="M30.477,27.989H24.515a.5.5,0,0,0,0,1h5.962a.5.5,0,0,0,0-1Z" fill="#6b205f" stroke="#6b205f" stroke-miterlimit="10" stroke-width="0.5"/><path d="M24.015,25.489a.5.5,0,0,0,.5.5h5.962a.5.5,0,0,0,0-1H24.515A.5.5,0,0,0,24.015,25.489Z" fill="#6b205f" stroke="#6b205f" stroke-miterlimit="10" stroke-width="0.5"/></svg>