<svg xmlns="http://www.w3.org/2000/svg" xmlns:xlink="http://www.w3.org/1999/xlink" version="1.1" class="icons icon-watch" id="icon-watch" x="0" y="0" viewBox="0 0 45 50" xml:space="preserve" enable-background="new 0 0 45 50"><g><g><path d="M22.5 48.42c-0.29 0-0.48-0.07-0.52-0.09L2.56 37.12c-0.21-0.12-0.52-0.66-0.52-0.91V13.79c0-0.25 0.31-0.78 0.52-0.91L21.98 1.67c0.04-0.02 0.23-0.09 0.52-0.09 0.29 0 0.48 0.07 0.52 0.09l19.42 11.21c0.21 0.12 0.52 0.66 0.52 0.9v22.42c0 0.25-0.31 0.78-0.52 0.91L23.02 48.33C22.98 48.35 22.79 48.42 22.5 48.42" fill="#FFF"></path><path d="M42.71 11.59L24 0.79c-0.41-0.24-0.96-0.36-1.5-0.36S21.41 0.55 21 0.79L2.29 11.59c-0.83 0.48-1.5 1.65-1.5 2.61v21.6c0 0.96 0.68 2.13 1.5 2.61L21 49.21c0.41 0.24 0.96 0.36 1.5 0.36s1.09-0.12 1.5-0.36l18.71-10.8c0.83-0.48 1.5-1.65 1.5-2.61V14.2C44.22 13.24 43.54 12.07 42.71 11.59M41.71 36.67L23 47.48c-0.04 0.02-0.22 0.09-0.5 0.09 -0.28 0-0.46-0.07-0.5-0.09L3.28 36.67c-0.21-0.12-0.5-0.63-0.5-0.87v-3.74h0v-2.02h0V14.2c0-0.24 0.3-0.75 0.5-0.87L22 2.52c0.04-0.02 0.22-0.09 0.5-0.09 0.28 0 0.46 0.07 0.5 0.09l18.71 10.8c0.21 0.12 0.5 0.63 0.5 0.87V30h0v2.02h0v3.78C42.22 36.04 41.92 36.55 41.71 36.67" fill="#CBCBCB"></path></g><g><path d="M24.89 24.73h-2.93V19.3c0-0.33-0.22-0.54-0.54-0.54s-0.54 0.22-0.54 0.54v5.97c0 0.33 0.22 0.54 0.54 0.54h3.48c0.33 0 0.54-0.22 0.54-0.54C25.43 24.95 25.22 24.73 24.89 24.73z" style="fill:#6E1D55;stroke-miterlimit:10;stroke-width:0.5;stroke:#6F1E55"></path><path d="M26.74 32.88c-0.33 0-0.54 0.11-0.54 0.43l-0.54 3.26h-8.47l-0.54-3.26c0-0.33-0.33-0.43-0.54-0.43 -0.33 0-0.43 0.33-0.43 0.54l0.54 3.8c0 0.22 0.22 0.43 0.54 0.43h9.34c0.22 0 0.44-0.22 0.54-0.43l0.65-3.69C27.28 33.2 27.06 32.88 26.74 32.88z" style="fill:#6E1D55;stroke-miterlimit:10;stroke-width:0.5;stroke:#6F1E55"></path><path d="M15.98 16.91c0.33 0 0.54-0.11 0.54-0.43l0.54-3.15h8.47l0.54 3.15c0 0.22 0.22 0.43 0.54 0.43h0.11c0.33 0 0.44-0.33 0.44-0.54l-0.65-3.58c0-0.22-0.22-0.43-0.54-0.43h-9.23c-0.22 0-0.44 0.22-0.54 0.43l-0.65 3.58C15.55 16.58 15.76 16.91 15.98 16.91z" style="fill:#6E1D55;stroke-miterlimit:10;stroke-width:0.5;stroke:#6F1E55"></path><path d="M31.95 23.53L31.95 23.53h-1.3c0 0 0 0-0.11 0v0.11 0.43h-0.65c-0.44-4.35-4.02-7.71-8.47-7.71 -4.67 0-8.47 3.8-8.47 8.58 0 4.67 3.8 8.58 8.58 8.58 4.45 0 8.15-3.37 8.47-7.71h0.65v0.43 0.11c0 0 0 0 0.11 0h1.2c0 0 0 0 0.11 0v-0.11L31.95 23.53C31.95 23.64 31.95 23.64 31.95 23.53zM21.52 32.44c-4.13 0-7.5-3.37-7.5-7.49s3.37-7.49 7.5-7.49c4.13 0 7.49 3.37 7.49 7.49S25.65 32.44 21.52 32.44z" style="fill:#6E1D55;stroke-miterlimit:10;stroke-width:0.5;stroke:#6F1E55"></path></g></g></svg>