<svg xmlns="http://www.w3.org/2000/svg" id="manchebo-logo" class="logo" viewBox="0 0 352.64 26.1"><g opacity=".5" fill="#636569"><path d="M19.22 20.13a12.38 12.38 0 0 0 .43 3.79 2 2 0 0 0 1.57 1.49v.69c-2 0-3.42-.47-4.28-1.41a6.68 6.68 0 0 1-1.29-4.56V4.34l-6 14.56h-.92L1.37 3.78V18.9H0V.56h3.35L10 14.2 15.62.56h3.6zM64.5 15.4a6 6 0 0 0 1.2 1.94 2.8 2.8 0 0 0 1.65.84v.69a4.21 4.21 0 0 1-.62.1 6.16 6.16 0 0 1-.7 0 9 9 0 0 1-1.41-.12 5 5 0 0 1-2.86-1.59 6.55 6.55 0 0 1-1.14-1.9L60 13.84h-7.35l-2.27 5.06H49L57.11.56h1.24zm-11.27-2.81h6.24l-3-7.25zM112.82 13.34V.56h1.37V19h-1.26L101.29 5.14V18.9h-1.38v-15a4 4 0 0 0-.11-1 1.89 1.89 0 0 0-.39-.79 2.07 2.07 0 0 0-.77-.53 3.43 3.43 0 0 0-1.2-.19h-.14V.56h1.93a6.71 6.71 0 0 1 2.54.41 3.94 3.94 0 0 1 1.6 1.25zM160.29 6.48a7.29 7.29 0 0 0-1.91-3.88 5 5 0 0 0-3.66-1.35 6.6 6.6 0 0 0-2.37.42 4.54 4.54 0 0 0-1.92 1.43 7.33 7.33 0 0 0-1.29 2.69 16.22 16.22 0 0 0-.46 4.22 14.16 14.16 0 0 0 .33 3.07 8 8 0 0 0 1.05 2.62 5.61 5.61 0 0 0 1.87 1.82 5.29 5.29 0 0 0 2.79.68 6.45 6.45 0 0 0 3.51-1 7.29 7.29 0 0 0 2.61-3l1 .75a8.61 8.61 0 0 1-3.16 3.39 9.35 9.35 0 0 1-4.75 1.09 9.72 9.72 0 0 1-3.85-.73 8 8 0 0 1-2.85-2 8.63 8.63 0 0 1-1.75-3 11 11 0 0 1-.61-3.72 11.06 11.06 0 0 1 .69-3.94 10.15 10.15 0 0 1 1.89-3.17 9 9 0 0 1 2.83-2.09 8.39 8.39 0 0 1 3.61-.78 10.71 10.71 0 0 1 4.16.68 6.54 6.54 0 0 1 2.35 1.57 3.33 3.33 0 0 1 .6 1.86c.06.76.08 1.55.08 2.37zM204.59.56h3.57v14.73a5.12 5.12 0 0 0 .34 2 1.55 1.55 0 0 0 1.58.77h.28v.83h-3.3a3.7 3.7 0 0 1-1.19-.17 1.49 1.49 0 0 1-.77-.58 2.68 2.68 0 0 1-.4-1.11 12.06 12.06 0 0 1-.11-1.75V10h-7.41v8.9h-3.57V4.17a5.18 5.18 0 0 0-.34-2 1.56 1.56 0 0 0-1.58-.76h-.28V.56h3.3a3.43 3.43 0 0 1 1.19.18 1.62 1.62 0 0 1 .77.59 2.82 2.82 0 0 1 .4 1.12 11.62 11.62 0 0 1 .11 1.72v4.58h7.41zM252.79.56a3 3 0 0 1 1.21.19 1.92 1.92 0 0 1 .71.5A1.71 1.71 0 0 1 255 2a3.75 3.75 0 0 1 .1.82v2.32h-.83a3.27 3.27 0 0 0-.89-2.56 3.8 3.8 0 0 0-2.54-.77h-4.42v6.94h7.14V10h-7.14v7.64h4.69a4.66 4.66 0 0 0 2.57-.68 5.1 5.1 0 0 0 1.77-2.49l.74.28-.76 2.25a3.91 3.91 0 0 1-.79 1.42 2.08 2.08 0 0 1-1.6.53h-10.16V4.17a5.18 5.18 0 0 0-.34-2 1.56 1.56 0 0 0-1.54-.78h-.28V.56zM290.05 4.17a5.18 5.18 0 0 0-.34-2 1.56 1.56 0 0 0-1.58-.76h-.28V.56h7.41A25.83 25.83 0 0 1 298 .7a9.05 9.05 0 0 1 2.63.63 5 5 0 0 1 2 1.48 4.06 4.06 0 0 1 .79 2.61 3.2 3.2 0 0 1-.24 1.19 3.63 3.63 0 0 1-.71 1.16 5.14 5.14 0 0 1-1.2 1 6.2 6.2 0 0 1-1.67.68 7.59 7.59 0 0 1 2.24.54 4.27 4.27 0 0 1 1.42 1 3.38 3.38 0 0 1 .76 1.32 5.26 5.26 0 0 1 .22 1.54 4.34 4.34 0 0 1-.72 2.59 4.79 4.79 0 0 1-1.91 1.56 8.64 8.64 0 0 1-2.61.75 21.89 21.89 0 0 1-2.91.2h-6zm5.21-2.5h-.63a2.47 2.47 0 0 0-.52.08c-.18 0-.35.06-.49.08v7h2.06a4.52 4.52 0 0 0 2.76-.81 3.25 3.25 0 0 0 1.08-2.78 3.59 3.59 0 0 0-.37-1.72 3.16 3.16 0 0 0-1-1.11 3.82 3.82 0 0 0-1.36-.6 6.81 6.81 0 0 0-1.53-.14zm.42 16.12a5.32 5.32 0 0 0 3.47-1 3.5 3.5 0 0 0 1.19-2.79c0-2.56-1.55-3.83-4.66-3.83h-2.06v7.39a4.86 4.86 0 0 0 .55.14 5.77 5.77 0 0 0 1.37.14zM334.54 9.73a11.22 11.22 0 0 1 .65-3.84A9.09 9.09 0 0 1 337 2.81a8.55 8.55 0 0 1 2.88-2.06 9.6 9.6 0 0 1 7.44 0 8.41 8.41 0 0 1 2.84 2.06A9.23 9.23 0 0 1 352 5.89a11.22 11.22 0 0 1 .65 3.84 11.12 11.12 0 0 1-.65 3.83 9.18 9.18 0 0 1-1.83 3.09 8.38 8.38 0 0 1-2.84 2.05 9.48 9.48 0 0 1-7.44 0 8.52 8.52 0 0 1-2.89-2.05 9 9 0 0 1-1.84-3.09 11.12 11.12 0 0 1-.62-3.83zm14.31 0a11.85 11.85 0 0 0-1.38-6.27 4.48 4.48 0 0 0-7.73 0 12.06 12.06 0 0 0-1.36 6.27 12 12 0 0 0 1.36 6.27 4.48 4.48 0 0 0 7.73 0 11.84 11.84 0 0 0 1.38-6.27z"/></g></svg>