<svg id="schani-salon-logo" class="logo" xmlns="http://www.w3.org/2000/svg" xmlns:xlink="http://www.w3.org/1999/xlink" viewBox="0 0 454 228"><defs><style>.cls-1{fill:none;}.cls-2{clip-path:url(#clip-path);}.cls-3{fill:#68356d;}.cls-4{fill:#92824c;}</style></defs><g class="cls-2"><path class="cls-3" d="M121.69,118.72c.54-1.54-1.8-1.23-1.78-2.83l-.59,0c-.69,1.7,1.32,3.09,2.37,2.79M75.1,116.65c0-1.43,1.67-.36,2.49-1.16-.29,1.12-1.58,1.12-2.49,1.16m.32,10.25c0,.77-.28,1.36-1.29,1.28-.15-.75.88-.47.49-1.42.41-.11.53.1.8.14m-1.88-18.44c-.11.71-1,.76-.87,1.64-1-.43.5-1.1.25-2-.09-.85-.92.3-.82-.53,1.47-.25.14-3,2.39-2.54-.56.81-1.88,1.93-.95,3.43m-.17-5.33c-1.09.33-.8-.93-.91-1.71.81,0,.81.9.91,1.71m-1,22.21c-.23.58.51,2-.21,2.58-.85-.41.18-2.22-1.15-2.29.15-.76.85-.64,1.36-.29m.62-2.42c.5,0,.52.7.27,1-.5,0-.52-.7-.27-1m.37-3.18c.3.28,1,.08,1,.71-.64.1-1-.16-1-.71M69.9,101.6c0,.68-.64.79-.69,1.43-1.1-.17.66-.84-.08-1.18,0-.27.48-.2.77-.25m-.58,3c.63.45-.57.85-.28,1.6-.45-.4-.56.14-1.18.09.13-.45,1.56-.72.69-1.44,0-.69.89.3.77-.25m-.89-9.82c-.19.82-1.27.86-1.88,1.32-.17-1.14.93-1.16,1.88-1.32M67.2,91.31c-.11.28-.39.4-.76.45,0-.26,0-.52,0-.79.3.08.52.26.81.34m-2,33.73c-.35-2.23.68-2.88,1.05-4.81.43.93-.41,3.62-1.05,4.81m.49-24.14c-.59,0-.61-1.13.13-1a1.28,1.28,0,0,1-.13,1M65,127a4.38,4.38,0,0,0,.31-1.21c.68.09.84,1.59.55,2.14-.45-.13,0-1.22-.86-.93m.72,7.46a7.49,7.49,0,0,1-.35-2.15c.42.51,2.11-.45,2,.65a1.3,1.3,0,0,0-1,.26l.06.79c.26.62,1.19.61,1.8.27,0,.39.05.79.08,1.18-.28-.26-1.09-.63-1.18.08-.35-.24-.37-.85-.68-1.14-.72.11-.64.92-1.72.72-.14-.61.37-.66.94-.66m-1.76-19.44c-.59-.47.59-1,.9-1.25.52.4-.63.92-.9,1.25m.08-7.32c.1.51-.37.54-.74.65,0-.2,0-.4,0-.6l.78-.05m-.53,9.33c.67.07.56,1.05,1.26,1.09-.58-.22-1.94.17-1.28,1.48-.59.11-.45-.62-.66-1,.63-.19.75-.82.68-1.62M63.1,92c0,.59-.46.71-.51,1.22-.42.07-.13-.69-.26-1,.35,0,.4-.26.77-.25m-.5,18.22c0,.79-.31,1.21-.26,2-.16,0-.19-.06-.21-.18l-.39,0c1.14-.24-.24-1.84.86-1.84m.27,6.7c-1.16-.6-1.2.89-1.94.53.15-.66,1.6-1.65,1.94-.53m-.34,9.31c-1.53-.49-.1-.65.1-1.39.57,2.47-.55,4.73-1.53,6.43-.27-.18-.73-.14-1-.32.07-.3.18,0,.4,0a2.54,2.54,0,0,0,1.41-2.47c-.24-.54-.84.11-1.18.08.77-.62,2.2-.67,1.81-2.3m-2.47-12.67c-.65.82-.18,1.55-.41,2.6-.37-.22.08-1.69-.91-1.72.52-.23.72-.73,1.32-.88m-.56-5.3c-.36,0-.4.27-.78.25-.22-.74.43-.73.51-1.22.42-.06.14.69.27,1m-.17-5.12a8.78,8.78,0,0,1-.62,2.41c-.38-.05-.2-.75-.83-.53.06-.45,1.09-.05.95-.66s-.4-1.1-1.07-1.11c.46-.41,1.19-.58,1.57-.11m-1.73-5c0-.56.28-.86.93-.85.17.7-.35.79-.93.85m-.11,1.19.59,0c.09.7-.21,1-.92,1,.06-.38.39-.52.33-1m-.58-2.53c.23-.42.93-.42.71-1.23-.08-.5-.32.29-.79.06-.14-.62.89-.22.94-.67.55.61.22,2-.86,1.84m-.12,1c-.1.41-.91.19-.95.66-.54-.14.24-.63-.08-1.18.57-.09.71.32,1,.52m-1-6c-.27,0-.2-.48-.25-.78l.59,0c.27.61-.28.5-.34.82m.77,8.24a11.4,11.4,0,0,0,.16,2.16c-.76-.05-.06-.73-.49-1.34a4.25,4.25,0,0,0-1.06,1.85,2.47,2.47,0,0,0-2.54.37c.08-1.14-.76-1-.13-1.77.84.1,1.26.69,2,.85,1.15-.3,1.09-1.64,2-2.12M53.25,98c-.29-.8.36-.8.29-1.4.41.18.45,1.6-.29,1.4m-.38-8.28c-.52.3-.85.75-1.52.9.24.89-.43,1-.27,1.8-.3-.3-.46-.75-.86-.93.11-.4.49-.56,1-.66A2.66,2.66,0,0,1,52.54,88c.17.52-.14,1.58.33,1.75M50,94.29c1.07.79-.79,2.88-.67,4.59-.66-.92.34-3,.67-4.59m-1.1,6.8c-.14-.61.57-.49.31-1.21.33.43.82,1.45.53,1.94-.36-.15-.38-.7-.84-.73M47.47,88.94c.11-.65.94-.67,1.31-1.08.34.31-.52,1.14-1.31,1.08m0,2.17c.53,0,.41.81.85.93,0,.23-.19.12-.19,0-.64-.13-.59.35-1,.46-.19.54.46,1.13.08,1.18-.76.19.13-.84-.84-.73a2.1,2.1,0,0,0,1.06-1.86m-.6-.15c-1-.35-1.07.32-1.94.53,0-.81,1.68-1.59,1.94-.53m-.55-4.9-.78,0c.23-.24,1.06-.9.51-1.22.48-.5.36.68.27,1.17m-2.12,12a1.57,1.57,0,0,1,1.15-.47c-.13.42-.75.82-1.15.47M44,87.6c-.81.71-.16,1.87-.61,2.61-.25-.36.2-1.83-.91-1.72.69-.14.78-.79,1.52-.89M42.63,96a3,3,0,0,1-.69,1.44c-.29-.21.09-1.4.69-1.44m-1-3.28c-.72-.09-1.1-.58-1.82-.67s.54-.53.39,0c.45-.35.59-1,1.1-1.27.24.33-.46,1.52.33,2M38.9,82.23c0,.84-.8,1-.86,1.83-.38,0-.85,0-.82-.53,1.38.28.73-1.21,1.68-1.3m-2.42,13.4c-.35.56-.39,1.39-1.28,1.48a2.53,2.53,0,0,0,.49-1.42l.79-.06m-1.56,3.08c.46-.12.45.33,1,.13.07.73-.8.65-.48,1.61a1.66,1.66,0,0,0-1.19-.11c-.1-.16,1.62-.67.68-1.63m-.1-9.88c.15,1.12-1.43.73-1.67,1.5-.81-1,1-1.24,1.67-1.5m-2.41-6.15c-.81-.54.47-.81.72-1,.79.52-.79.53-.72,1m-.16-2.36A1,1,0,0,1,31.76,79l.59,0c.28.84,0,.64-.1,1.39m0,13.64a1.24,1.24,0,0,1-.13,1c-.58,0-.6-1.13.13-1m-.31,4c-.16.36-.32.71-.94.66.22-.35.5-1,.94-.66M29,87.27c-.31-.15,0-.3-.25-.78.39,0,.21-.55.76-.45.22.75-.43.74-.51,1.23m-.34-4.92c-.06-.72-.11-1.44-.16-2.16.64.4,1.09,1.92.16,2.16m-.87-6.66c-.65.6-.35,2-1,2.64-.36-.49.52-1.28-.13-2-.18-.07.64-.29,1.13-.67m-1.63,4.86A5.29,5.29,0,0,1,27,82.07c-.51,0-.26-.83-1-.53-.2-.54.24-.52.13-1M24.94,86c-.09.3-.26.51-.34.81-.68,0-.46-1,.34-.81m0-11.46c-.18.27-.14.73-.32,1-.42-.33-.66-1.13.32-1m-2.8,5.13a1.1,1.1,0,0,0,.14-.8c.7.11.74-.34,1.37-.29a4.33,4.33,0,0,1-1.51,1.09m1.5-6.82a1.25,1.25,0,0,0-1.77.12c0-.66-.94-.33-1.24-.7-.69.14-.44,1.09-1.09,1.26-.24-1,.67-.7.45-2,.72.17,1,.84,1.84.86a1.35,1.35,0,0,0,1.12-.87c.42.24.5.85.69,1.34M22.22,50c.33-.14.28-.61.54-.82C21.21,47,20.43,51,19.33,51c-.61.13-.79-.23-1.21-.31-1.64.23-1.4,2.1-3.21,2.2.23-.61.83-.88,1.3-1.28.1-.61-.25-.7-.28-1.17,1.57.41,2.12-1.58,4.26-1.28.34-.93,1.35-1.29,1.83-2.11-.05-.46-1.1-.83-1.41-.29-.57-.76.72-.88,1.53-.7.43.92.6,2.14,1.74,2.25-.25.27-.26,1.2.28,1.16-.49.66-1,.6-1.94.53m1.14-9.17c-.78.25-.84,1.12-1.9,1.13,0-.76,1.07-.56,1.1-1.27-.24-.91-1.95.1-1.63-.67s2.38.34,3,.77c1.74-.46,2.59-1.69,3.77-2.63,0-.32-.21-.33-.24-.58-1.39.87-2.72.67-4.51.52,1.17-.88,5.42.12,4.77-2.51.59,0,.53.65.67,1.14.78.29,2,.1,1.88,1.45-.69-.21-.89-1-1.66-1.07A6.06,6.06,0,0,0,28,39.31c-1.71.43-2.87,2.79-4.64,1.51m6.09,2.34c-.42.19-.48.69-1.14.68.5-.78-.28-1.56-.17-2.56-1.2-.11-1.13.87-1.48,1.49-.59.18-.73-.15-1.2-.12,1.14-.49,1.38-1.75,2.41-2.34.57.19.71.88,1.26,1.1.09.53-.94,1.91.32,1.75m-4.76,2.51c.38-.76,1-.24,1.32-.88,1.5.47,2.83,0,3.83,1.11.67-.28,1.51-.41,1.91-.92.44.63-1.53.75-1.46,1.68-1.29-1.5-4.24-.36-5.6-1m3.74,2.7c-.06-.42.69-.13,1-.26,0,.23.07.35.23.38-.24.59-.71-.3-1.2-.12m2.49-3.92c.15-.56.71-.75,1.33-.89-.09.6-.63.81-1.33.89m1-2.64,1.77-.13c.73.19-1.44.32-.55.63-.31.07-1.22.31-1.22-.5m1.79,3c.78,1.18-.71,2-.57,3.2-1-1.36.59-2.07.57-3.2m.18-.21c-.71-.09-.34-.9-.08-1.18.44,0,.23,1,.08,1.18m.3-4.17c-.78-.92.25-2.28-.82-3.3-.76-.17-1.87.29-1.6-.28.13-.81,1.22.63,2.37,0-.14,1.64,1.79.92,1.75,2.44-.39.43-.89-.21-1.4-.29s-.3.84-.3,1.4m.66.94c.24-.59,1.06-.68,1.93-.72a4.3,4.3,0,0,1-1.93.72m.5,4.32c.61.1.56-.38,1.17-.28-.09.54-.79.54-.71,1.23-.3-.14-.33-.61-.46-1m-.55-7.87c.11-.64.66-.91.89-1.45-.08-.26-.51-.13-.8-.14,1.29-.53,2.29-1.9,3.84-1.65a8.63,8.63,0,0,0-1.06,1.85c-.41,0-.12-.86-.46-1-1.44.23-.8,2.26-2.41,2.34m3.8,6.25A2.64,2.64,0,0,0,39.53,46c1.26-1.19,2.45-1.59,3.57-2.62.19,1.58-3.39,1.48-2.67,4.14-1.13-.8-1,.79-1.93.72,1.4-1.52-.59-2.75.11-4.16m2.2,3.21c.43-1.07.91.55,1.8.27.58-.92.37-1.73,1.19-2.65.32.4-1.43,3.84.43,3.33.63.59-.06,1.39,1.08,1.31.07.73-.8.65-.48,1.61-1.13-.33-.18-1.76-1.69-1.66.44-1.55-1.42-1.59-2.33-2.21m4.93-8.64c.52-.59,1.42.19,1.26,1.09l.39,0c-.09.59-.43-.16-.78,0,.13-.87-.5-.84-.87-1.12M46,45.76a1.32,1.32,0,0,0,1,.13c.37.75-.84.13-.74.64-.27,0-.2-.48-.26-.77m1.26-1.87c.2-.44.81-.53.49-1.41a2.29,2.29,0,0,0,3.18.17c.29.3.23,1,.67,1.14-.28.05-1.33-.68-2,.14-.57-1.2-2,.13-2.37,0m.06,3.75c.65.64,1-.19,1.59.09a2.15,2.15,0,0,0-1.27,1.67c-.81-.16,0-.94-.32-1.76m2.45,6.75,1-.07c.07.49.11,1-.32,1-.59.12-.45-.61-.66-.94m.34-3.58c-.56-.68.82-1.25,1.48-1.49-.12.82-1.26.75-1.48,1.49m1.58-11.38c-.1.72-.79.92-1.72.91.63-.25,1-.7,1.72-.91M52,45.94c-.1-.45.55-.26.55-.63.54.14-.24.63.08,1.18-.68.35-.17-.66-.63-.55M52,57.6c0-.64,1-.51.9-1.25.27.14-.41,1.73-.9,1.25m.68-10.13c.79-1.42,1.7-1,3.27-1.22.07.49-.41.51-.53.83-1.1-1.12-1.58,1.07-2.74.39m3,5.52c.07-.86-1-.46-1.61-.48,1.81-2.42,1.82,2.13,3.86,1.51-1.26.54.12,1.63.54,2.14-.41.25-1.46-.58-2.4-.43.08-.3.26-.51.34-.81-.09-.26-.37-.29-.44-.56-1.32,0-1.68.75-1.85,1.71-.9-1.53,1-2.21,1.56-3.08m-1.54,6.24c.85-.35,1.15-.08,2.16-.15,0-.94-1-1-.53-1.94.66,1.3,2.39,3.14.91,4.48-.59,0,0-1.22-1.07-1.11-.74,0-.86.48-1.12.87-.47-.31-.18-1.5-.35-2.15m4.71-.53c.9-.63,1.64-2.71.16-3.37,0-.27.48-.2.77-.25-.13,1.08,1.2,1.33.92,1.91.36,0,.4-.27.78-.25-.09.44-1.36.66-.33,1-.88.21-1.28.85-2.3,1m.73,1.93c.16-.28,1.68-1,1.76-.13-1,0-.95.26-1.76.13m3.21-2c-.5-.13-.47-.87-1.23-.7.14-.31.61-.33,1-.46a2.09,2.09,0,0,0,1.24.9A12.87,12.87,0,0,1,63.3,61c-.53-.23,0-1.67-.53-1.94-.34.08-.42.37-.34.82a.87.87,0,0,1-.44-.76c.45,0,.73-.1.75-.45m2.19-2.72c-.35-.6-1.76,0-1.66-1.07.76.11,1.5.26,1.66,1.07m-1.67-1.27c-.66,0-.72-.59-1.42-.49.36-.54,1.51-.19,1.42.49m2.3-3.72c-.46.65-1.53.77-1.66,1.7-1.45-1.62-3.54-.57-5.6-1,.9-1.39,3.56-1,5.14,0,1,0,1.26-.63,2.12-.75m1.79.08c.62.29-.81,1.84-.58,3-.87-.59.13-2.37.58-3m.24,9.07a1.28,1.28,0,0,1,1-.26c-.49.54.29.37.81.33,0,.28,0,.56.24.58-.61.09-1.85.41-2-.65m2.56-2.94c-.37,0-1.9.37-1.52.89-.16.51-.88-.09-.83-.53.71,0,.48-.82,1.13-.87s.53.66,1.22.51M56.52,43.05a1.69,1.69,0,0,1-1.2-.11c.33-.67,1.42-.13,1.49-1.29.61.36-.19,1-.29,1.4m-2.12.74c-.51-.08-1.09-.64-.68-1.14.57-.09.64.41,1.21.31,0,.39-.75.21-.53.83m.84-4.8c-1,1-2.51-.46-3.93.27.6-.71-.58-.57-1-.71.29-.59,1.08,0,1.39.1.61-.09.27-1,.29-1.6-.4-.89-2-.41-2.46-1.21,1,.06,1.35-.44,2.35-.37.31.43.23,1.29.88,1.32s.19-.81.94-.65c-.83,1.09-.57,3.44,1.58,2.85m-7.67-2.43c0,.28,0,.56.23.58-.25.48-1.18,0-1.58-.09-.14-.43.35-.3.35-.62a.88.88,0,0,1-.24-.57c.45,0,.94,1,1.41.29.34.11.15.45-.17.41m-3.24,1.81c-.35.05-.43-.21-.8-.14-.25-.77.55-.64.3-1.41.34.33.34,1,.5,1.55m-2.11.94a1.62,1.62,0,0,1,.48,1.15l-.79,0c.4-.56.19-.5.31-1.2m1.07-1.66c-.08.2-.83.72-.33.82-.43.24-1.05.88-1.55.5.79-.3,1.12-1,1.88-1.32M39.4,41.28c.84-.37,1.4-.09,2.12-.74-1,.75-1.41,2-2.38,2.74-.31-.57.92-1.5.26-2m2-5.08c-.17.23-.37.09-1,.27-.1.76.48.73.86.93,0,.22-.19.12-.2,0-1,0-1.29.72-2.52.57.14-.62,1.2-.43,1.51-.89a.75.75,0,0,0-.84-.74c.22-.61,1.21-.55.87-1.64l.79-.05c0,.67,0,1.37.51,1.54m-7.15-.49c-.54.13-.24-.72-.65-.74,0-.27.48-.2.77-.25.21.54-.24.52-.12,1m-2.52,3.54c.21,0,.16.38.42.37-.09.54-.79.54-.71,1.23a1.13,1.13,0,0,1-.67-1.14c.42.38.84-.05,1-.46m-12,3.41c0,.94-.42.29-1.15.47.16-.35.59-.47,1.15-.47m-3.09,1c0,.74,1.31,1,1.81.47a13,13,0,0,1-2.21,2.33c-.28-.62.63-.2.34-.81C15.72,45.15,16,43.39,15,43c.85-.68,1.23-1.77,2.42-2.15-1,.36-.07,1.58-1.28,1.48-.14,1.36,1.41.69,1.84.86-.09.47-1.21,0-1.35.48m-1,4.82a1.26,1.26,0,0,0-.13,1c-.78.11-1.09-.3-1.07-1.11.59-.19.6.3,1.2.11m4.81,3.81c-.37.48-1.63.19-2.35.37A9.93,9.93,0,0,1,20,51.54c.78,0-.1.61.45.75m-5.76,2.38c.06-.72-.78-1.5.28-1.6a1.71,1.71,0,0,0,.28,1.17c.43-.12.6-.47.94-.66,1.24.49,2.78.63,4,1.1.11.47-.33.45-.13,1a1.39,1.39,0,0,0-1.59-.09c0-.37.64-.18.55-.63-1.25-1.22-3.56,1.1-4-.9,0,1.45-.87,2.07-.74,3.6-1.09-.73.11-2.25.39-3m1.23,3.48c.09,1.06,1,2,1.3,1.68.55.15-1.06.79.07,1a7.2,7.2,0,0,0-1.91.92c.22-.89,1-2.2-.05-3.55.28,0,.56,0,.57-.24.23,0,.12.19,0,.2m-.62,5.37a15.7,15.7,0,0,1,2.15-.34c-.09.69-1.15.54-1.54.5a2.8,2.8,0,0,0,0,3c.52,0-.27-1.09.53-.83-.25.65,0,.87.11,1.58-.31.07-.35-.16-.6-.16,0,.39.05.79.08,1.18-1.15.41-.65,1.37-2.26,1.54.25-.45,1-.46,1.11-1.06l0-.4c-.19-.28-.65-.24-1-.32.33-.64.88.25,1.39.1,1.2-2.31-1.37-2.07-2.38-3a1.7,1.7,0,0,0,2.44-1.75M11.62,48.17a8.06,8.06,0,0,1,1.83,3.62c-.82,0-.66-1.07-1.09-1.5l-.59,0c-.71.19.13.58-.32,1-.7-.3-.19-1.12.08-1.59a.55.55,0,0,0-.61-.35c.4-.49.13-.54.32-1-1.44-1.08-.46,1.72-1.66,1.7-.13-1.71,1.08-2.27,2-3.1.62-.22.31.63.82.53-.14.3-.25.64-.74.65m.1-1.39c-.57-.51.31-1.33.47-1.82.45.41-.4,1.25-.47,1.82M10.09,54.6c.31.43.52,1,1.44.69.06.48-.27.63-.33,1A3.78,3.78,0,0,0,7,55.6c.09-.42.45-.59.31-1.2a6.15,6.15,0,0,0,2.78.2M7.22,58.75c-.22,1.13,1,1.4.73,1.93.48,0,.4-.39,1-.27a1,1,0,0,1-1,.46c0,.4.09.61.44.56-1.11.16-1.2,1.29-2.31,1,1.09-1,1.72-2.3.16-3.38-.06-.42.7-.13,1-.26m.13,7.5c.36.37.3,1.21.52,1.74-1.36.22-.55-1.1-.52-1.74m-.53-1.94c.17-.28,1.68-1,1.77-.12a4.15,4.15,0,0,1-1.77.12m1,16.53c-.12-.79-.19-1.62-.91-1.71-.36-2-.58-3.62.46-4.78.56,1-1.2,2.36-.14,3.77.46,0,.74-.1.76-.45.16.2-.12,1.73.72,1.73a3.36,3.36,0,0,0-.45,2c.07.4.86,0,1,.32-.06.39-.76.21-.54.83-.59-.93-1.45-.3-1.87-1.25.3-.39.64.09,1-.47m1,2.31c.7.45,0,1.22.7,1.53-.54.74-1.4,1.42-1.22,2.26-.76-1.34,1-2.11.52-3.79m.9-7c-.43.06-.14-.69-.27-1,.31.38.67.78,1,.13.62.71-.57.27-.73.84m.21,5.91c-.21-.62.63-.31.54-.82a.91.91,0,0,0,.6.15,3.65,3.65,0,0,1-1.14.67M11.21,79c-.86-.19-.05-1-.32-1.75.27.25,1.2.26,1.17-.28.59.7-1,1.07-.85,2m1.84,9.36A1.11,1.11,0,0,1,13.16,90c-.64,0-.6-1.45-.11-1.57m1,2.7c.4.24-.41,1-.92,1-.41-1,1-.34.92-1M13.6,85c-.11-.37-.46-.46-.46-1,.57-.28.67-.1,1.19.11a.73.73,0,0,1-.73.84m-.33-4.72a1.1,1.1,0,0,0,.14-.8c.63,0,1.19-.07,1.35-.49.42.5-.89,1.07-1.49,1.29m1-8.17a2.34,2.34,0,0,1,.7,1.53c-.32-.26-.44-.76-1.22-.51-.5.06-.34.69-.31,1.21-.34-.33-.55-1.48-1.68-1.46a1.63,1.63,0,0,0-.69,1.43c-.9-.86.7-1.11.24-2.19.7.72,2.45,1.3,3,0M9.33,57.81c-.06-.42.69-.14,1-.26a.54.54,0,0,0,.43.56c-.39.64-.93-.32-1.4-.3m.72,4.69a1.2,1.2,0,0,0-1.44-.88c.17-.34.82-.27,1.15-.48.23.87,1.58.45,1.68,1.46-.84.38-.43,1.08-.84,2-.62-.5.07-1.53-.33-2-.65-.14-.24.66-.54.82a.88.88,0,0,1-.45-.75c.42.05.51-.18.77-.26m.49,6.89c-.58-.71-.88-.67-1.28-1.3a1.22,1.22,0,0,1,1.28,1.3m.63-2.22a2.53,2.53,0,0,0-1.42-.49c0-.47.3-.61.12-1.2.45,0,.94,1,1.4.3.4.12-.49.66-.1,1.39m.46-13.27a2.25,2.25,0,0,1,1.53-.7.91.91,0,0,0-.16.6c-.71-.11-.92.51-1.37.1m.6,5.88c-.35-.65-1.65-.22-1.66-1.26a1.46,1.46,0,0,1,1.66,1.26m3.85,15.35c.2.54-.25.52-.13,1-.59,0-.61-1.13.13-1m.59,2.92c.32-.68,0,1.13.83.53.07.74-.8.66-.48,1.62-.36.4-.22-1.57-.35-2.15m.2,2.75c.27.18.74.14,1,.33a.55.55,0,0,1-.56.43c0,.16.21.18.22.38s-.79-.49-.67-1.14m.74,2.12c.8,0-.23,1.07.67,1.14a9,9,0,0,0-.91,1c-.35-.77.08-1.34.24-2.19m.64,6.28c.78.32.94,2,.15,2.17.09-.87-.37-1.81-.15-2.17m.23-13.65c-.43.06-.14-.69-.27-1,.42.34.36.69,1,.33.14.75-.6-.07-.74.64M19.6,69c.18.33-1.34-.81-1.49-1.48,1-.06,1.14.81,1.49,1.48M18,57.21c.36-.54,1.51-.2,1.42.49-.5-.13-.81-.48-1.42-.49M19.45,64c-.57-.69-.19-3-1.79-3,0-.07.79-.65.5-1.22.48.93,2.18,2.3,1.29,4.26M20,66.16c-.55.41-1-.17-1.58-.09.21-.53.39-.62.11-1.19.73-.13.57.76,1.42.49-.05.12-.44.79,0,.79m-.46,10.3a1.27,1.27,0,0,0,1.58.09c-.54.57-.91,1.3-1.44,1.88-.29-.31.08-1.16-.14-2m2,11.33c.61-.07.71.46.85.93-.39,0-.21.55-.76.44-.41-.34-.16-.92-.09-1.37m1.14-3.44c-.4-.11-.56-.49-.66-.94.54-.29,1.11-.24,1,.71-.23,0-.35.07-.38.23m0,6.32c.78.45-.8.39-.52,1-.21,0-.16-.38-.42-.36-.14-.61.9-.21.94-.66M22.54,94a1,1,0,0,0,.6.16c.1.51-.23.66-.75.64-.11-.41.1-.53.15-.8m11,4.76a1.67,1.67,0,0,0,.11-1.19c.84-.25.42.94,1.06.91,0,.44-.83.15-1.17.28M45,95.44c.41-.92,1.92.59,2.29,1.61A1.45,1.45,0,0,0,45.66,97c.47-.56.46-1.76-.7-1.53m3.15,8.27a8.35,8.35,0,0,1-.83,2.23,2,2,0,0,1,.83-2.23m6.17.56c.49,0,.59-.34.74-.65a.89.89,0,0,1,.45.76c-.78-.43-1,.65-1.19-.11m.51,10.24c.14-.74,1.69-.26,1.08-1.65.31-.08.35.16.6.15a1.21,1.21,0,0,1-1.68,1.5m.47,18c-.07.65.2.91.29,1.36-.51-.39-1.35-.43-1.47-1.28.6-.26.44,0,1.18-.08m-1.2,5.42c-.07.65.2.91.29,1.36-.19-.41-.77-.38-.85-.92-.76-.11-.93.3-1.56.3a1.69,1.69,0,0,1-.12,1.2,2.36,2.36,0,0,1-1.63-.68c.64-.86,2.32-.82,2-2.51l1-.07c-.55.74.23,1.31.89,1.32m-2.28-1.42a11.4,11.4,0,0,1-2.09-1.63c.83-.09,1.13.28,1.77-.13.48.51.45,1,.32,1.76m-2-3.81c-.07.74-.45,1.21-.24,2.19-1.61.09-.43-1.69-.36-2.35.31-.07.35.17.6.16m-1,2.64c-.16.75.53.53.48,1.15-.8-.57-2.66.07-3-1,1,.28,1.44-.15,2.56-.18m-2.46,10.05c.18-.46,1.23-.16,1.76-.32a4.38,4.38,0,0,1-.32,1.21c-.61-.15-.83-.74-1.44-.89m3.09-1c.88,0,.32,1.37-.31,1.21-.46-.4.3-.68.31-1.21m-2.32-5c.24-.26,1.14-.06,1.58.08-.39.34-1.48.79-1.58-.08m3,3.15c-.89-1.37-2,.37-3.13.42,0-.72,1.52-.16,1.1-1.27,2.06.17,3.7-.8,5.73,0-.79.09-1.39.23-1.7,1.1-.57-.27-1.44-1.21-2-.25m1.52,1.87c.61-.21.63.27,1,.32A2.46,2.46,0,0,1,51.07,146c-.31-.21,1-.6.48-1.61m3.27-9.71a2.86,2.86,0,0,1,1.81.46c-.19.94-1.77.15-1.81-.46m.33,4.72.59,0a3.12,3.12,0,0,1-.25,2c-.93-.15-.55-1.31-.34-2m2.2-8.06c.47,0,.75,1.39.51,1.54-.77.18-.31-1.06-.51-1.54m.63-2.42c-.11.83-1.74,1.11-2.52.77.26-.76,1.87-.34,2.52-.77m0,14.82c.29-.35.77,0,1.2.11,0,.59-1.36.67-1.2-.11m1-5c-.08-.93.76-1.07,1.07-1.66.27,0,.19.48.25.77-1.15-.31-.44,1-1.32.89m1-5.8a7.59,7.59,0,0,0,.38,2.54,7.09,7.09,0,0,1,2,.06c-1,.56-3.13,0-3.31.63.07-.74.86-.85.87-1.65,0-.6-.25-1-.67-1.13-.78.26.08.79-.09,1.58-.79-.09-.92-.92-.93-1.91.62-.38,1.14-.61,1.77-.12m-1.31-10.38c-1.12-.21-.43-2.49-1.76-2.45-.73,0-.45.83-1.33.69,0-.84.72-1.1,1.07-1.66.13-.93-1.19-.19-1.07-1.11a8.42,8.42,0,0,1,2.42.62c-1,1.05.85,2.73.67,3.91m1.51,18.86c-.06-.61.58-.6.3-1.4,1,.14.59,2,1.91,1.84-.32.19-1.94.95-1.35.49-.23-.38-.4-.82-.86-.93m2.58-5.51a1.05,1.05,0,0,0,.47-1.82c.56.06.61.71.87,1.13-1.11,0,.21,1.39-.67,1.82a.91.91,0,0,0-.6-.15c0-.33-.05-.66-.07-1m1.54-6.24a21,21,0,0,0-.83,2.23c-.61-.22.06-2,.83-2.23M61.18,121l.78,0c-.05,1,1.71,1.1,1.35,2.27-.2-.41-.76-.4-1.41-.29.6-1.08-.07-1.31-.72-1.93m2.6,17.41c.9.47,1-.33,1.74-.52-1.16.85.88,2.2-.37,3.19-.05.62.46.6,1,.52-.22.87-.92-.34-1.56.31l.09,1.18c-1.23-1.22.22-2.41-.08-3.95-.65.11-.81.65-1.11,1.06-.71-.57.11-1.37.27-1.79m4.55.07c.35.26.09,1.55-.69,1.43-.23-.87.5-.91.69-1.43m.34-.81a.64.64,0,0,1-1-.52c.56-.08,1.07-.1,1,.52m-1.4-34.09c.83-.25.41.94,1,.91-.47.67-1.3,0-1-.91m1.11,10.2c.47.37.12,1.7.54,2.13A1.85,1.85,0,0,0,67.29,118c-.38-.19-1-.16-.86-.92.57.12.5-.32,1-.27-.36-1.12.45-2.14,1-3M69,128.93c-.26-.62-.83-1-.51-1.75.57-.09.63.41,1.2.32.07.73-.67.77-.69,1.43M45.21,147c-.24.71-1.75.32-1.9,1.12-.28-.44.8-1.27,1.9-1.12m-.34-10.45c-.61-.26.11-.88-.09-1.38.75.1.19.94.09,1.38m-1.32.88c.1.51-.22.66-.74.64-.1-.51.22-.66.74-.64M40,149.33a2.27,2.27,0,0,1-1.75.52c-.13-.79,1.22-.3,1.75-.52m-2.91-2c-.46.9-1.89.84-1,2.45-.75-.28-.48-1.72-.77-2.52.8-.21,1,.23,1.78.07M37,142.24c-.33.51-1.13.61-1.08,1.46-1.22-.68-.8,1-1.7,1.1a1.7,1.7,0,0,1,.06-2c.35.09.82.05,1,.33.56-.33.14-.45.31-1.21a1.47,1.47,0,0,1,1.4.3m-3.06-1.37c-.67.14-.19-1.06-.67-1.14.14-.55.4.5,1,.13.19.59-.52.42-.33,1m-.58,3c.19.84-.87.59-1.53.69,0-.64.93-.54,1.53-.69m-1.21-.32c-.68-.7-2.06-.59-2.11-2,.9.1,1.21-.3,1.32-.89.17.74,1.53,1.93.79,2.91m-2.26,1.55c1,.1.76-.71.51-1.23.61-.21.63.27,1,.33-.73.39-.4.55-.49,1.42-.36-.16-1.06.08-1-.52m1.47,1.28c1.53.42,2.33,0,3.94-.28-.1.53-1.32.65-1.55.5-.56.56-.93,1.29-1.45,1.88-.51,0-.33-.74-.84-.73-1.07,0-1.6,1.82-.27,1.8.55.31-1.14.22-1.56.31,0-.46-.1-.74-.45-.76-.57,0-.7.5-.92.85-.55-.49.09-1.51,1.09-1.26.24-1-.62-.7-.68-1.34.77,1,3,.88,2.69-1m-2.25-15.26-.59,0c-.3-.43.46-.77,0-.79.14-.48.63.39.64.75m-.84,10.53c.66.29.34,1.09.32,1.76-.64,0-.81.4-1.56.3.28-.8,1.46-.82,1.24-2.06m-3.63-.93c-.32.39-.58,0-1-.13,0-.43.46-.46.95-.46,0,.2,0,.39,0,.59m-.15-2.16a1.11,1.11,0,0,0-1.57.11,1.71,1.71,0,0,0-.28-1.17c-.44,0-1,.67-.53.83-.14.47-.53-.51-1.2-.12-.19-.72.66-.54.93-.85a7.53,7.53,0,0,1-.52-1.74c.24,0,2.23-.52,2.21.44a1.26,1.26,0,0,0-1,.26c0,1.47,1,1.64,1.85,1.06,0,.39.06.78.08,1.18m-.17-13.82c-.61.13-.56-.5-1-.53.23-.51,1.28-.21,1,.53m-1-3.1c-.3-.35-.38-1-.87-1.12.08-.49.71-.49,1.14-.67.05-.48-.39-.4-.27-1,.55-.2,1.51-.76,1.78-.13a3,3,0,0,0-1.78,2.89m-1.07,1.66c.9.69-.38,3.53-.85,4.8-.26-2.11.59-2.83.85-4.8m-1.1,6.8c-.1-.58.4-.64.31-1.21.64.14.83,1.6.54,2.14-.45-.13-.05-1.23-.85-.93m.3,4.32c0,.26,0,.53.05.79-.51.1-.53-.38-.64-.75l.59,0m-.52-13a2.1,2.1,0,0,0-2-.06c-.06-.34.3-.54,0-.59,0-.41.87-.11.75-.65a6.8,6.8,0,0,1,1.27,1.3m-1.72,6.44c-.2-.54.24-.53.13-1a.88.88,0,0,1,.81.34c.12.59-.61.46-.94.66m.88,1.32c.11,1.23-.6,1.14.2,2.75-.66.05-.28-1.09-.69-1.33-.64.31-.64,1.16-1.07,1.65-.87-.06-1.78-.65-2.15.35-.26-.62-.84-1-.52-1.74,1,0,1.32.62,2,.85a5.45,5.45,0,0,0,2.19-2.53m-3.46-1.54c-.19-1,.59-1.08.24-2.19.45.41.86,2-.24,2.19m-.19-8.28a2.58,2.58,0,0,0-1.77,2.89c-.75.09-.08-.16-.24-.58l-.63-.55c.11-.39.49-.56.94-.65.12-.57-.31-.49-.26-1,.8-.11.26-1.37,1.5-1.1,0,.49,0,1,.46,1m-2.86,4.35c.28.11.4.39.45.76-1.15,1.24-.46,3.08-1.48,4.25-.27-2.19.59-3.1,1-5m-.43,7.93c-.4-.7-.82-1.17-.54-2.13.64.14.83,1.6.54,2.13m2.33-6.29c-.62.22-.45-.48-.83-.53.26-.61,1.34.19.83.53m-2.6,10.86c.81-.09,1.63-.18,2,.25-.05.45-1,.08-1.15.48s0,.52.05.79c.27.62,1.2.6,1.8.27,0,.39.06.78.08,1.17-.48-.54-1.11-.28-1.57.11a1.7,1.7,0,0,0-.28-1.16c-.63.11-.95,1.11-1.74.52a1,1,0,0,1,1-.47,16.12,16.12,0,0,0-.82-3.1c.76-.24.22,1,.68,1.14M12,122a.85.85,0,0,0-1.37.1c.14.34-.16,1.17.28,1.17-.27.49-.84-.44-.86-.93.63-.2.75-.83.68-1.63.62.2.86.85,1.27,1.29m-1.88-1.44c-.74-.36-1.26.57-1.93.53.07-.86,1.34-1,1.7-1.11.16,0,.19.06.21.18l0,.4m-1.67,4.26c1.1-.9.91,1.49,2.24,1a1.26,1.26,0,0,1-.13,1c-.06-.37-1.19-.58-1.39-.1-.18-.35.51-1.91-.72-1.93m1.34,5c-1.27-.79-.46.06-.3-1.37,1.3,1.08,0,3.54-.24,5-.73-1.48.47-2,.54-3.59M10,140.37a1.25,1.25,0,0,1,.9-1.25,1.33,1.33,0,0,0-.9-1.52c-.19-.49,1.22.48,1.45.89a1.91,1.91,0,0,0-.08,1.78c-.66.29-.71.53-1.37.1m.85-4.8c-.86-.44.26-1.86.83-2.23a12.13,12.13,0,0,1-.83,2.23m-.56,6.16c.84.43,1.9.93,2.34-.36.21.57-.31,1.51.37,2.35-.36-.3-1.17-.08-1.06-.92-.45.1-.71.37-1.36.3.55-.76.18-.8-.29-1.37m4.68-.92,1-.07c0,.2,0,.4,0,.59-.27.32-1,.09-1-.52m.85.93c.55.55-.49,1.29-.24,2.19-1.41-.52.07-1.43.24-2.19m3.68,1.72a3.23,3.23,0,0,1,.27-1.8,7.56,7.56,0,0,1,.17,2.36c-.52.17-1.23.17-1.55.51-.87-.71.74-.83,1.11-1.07m1.66-1.7a2.16,2.16,0,0,1,.35,2.15c-.48-.3-.18-1.49-.35-2.15m.42,3.14c0-.29,1.58-.57,1.39.1-.63.16-.93-.07-1.39-.1m2.65-1.57c-.5,0-.43-.63-.47-1.15.25-.22.72-.24.74-.65.37-.35-.09,1.42-.27,1.8m0,5.53c.65.9-1.05.18-1.33.88-.53-.49,1.16-.91,1.33-.88m1.53-23.23c.45.22.32,1.5-.29,1.41-.17-.7.16-1,.29-1.41M77,121.26c.29,0,.56,0,.58-.24.71.12.06.48.28,1.17-.29-.3-1-.18-.86-.93m-.39-2.74c.84-.25,1.68-.21,2.15-.35-.13-2.5,0-5.23-.55-7.87-.53-.07-.94.88-.52,1-.76.48.14-1.53-.71-1.73-1.45-.23-1.52,1-2.5,1,.52-1.55,2.17-1.15,3.43-1.83-.19-1.41-.16-3.07-1.23-3.47.8-.39-.41-4.06-1.22-3.27.45-1.27-.37-1.85-.6-2.92-.45-.13-1.46.07-2-.46.32-.32.72,0,1.37-.29-.54-1.08-1.39-1.8-2-2.82-.28,1-.31,2.19-1.2,2.65a4.28,4.28,0,0,1,.79-2.82,14.85,14.85,0,0,0-3.6-3.51c-1.27-.94-2.72-2.32-4.31-2.26-.45-1.39-2.13-1.39-3.11-2.16-.91-.08.33.52-.57.44C58,85.56,55,85,52.27,84.06s-5.68-1.89-8.7-3c-5.4-1.9-12.11-3.59-16.12-7.18C21.74,68.82,21.64,56.29,27.3,52a16.35,16.35,0,0,1,11.29-2.57c6.93.93,10,7.31,10.41,16.07,7.11,0,15-1,22.43-1.37C71,39.58,54.72,29.48,29.51,32.69,10.61,35.09-.31,47.54,0,65.78c.26,15,6.49,25.52,18.34,30.53.22-.48.25-1.14.48-1.61.92.28.08,1.31-.29,1.6,1.84.78,3.38,2.33,6,1.55.22.62-.62.32-.75.64,3.11,1.58,7.47,2.09,9.92,3.26q.64,0,.54-.63c.53-.18-.07.94.45.76,3-.3,10.42,6.11,11.13.8-.06-.43-.84,0-1.2-.11,1.11-.14,2.91-2.46.81-2.62.21-.37,1.13-.13.71-1,1.24,2.28-.16,4.71-1.32,6.41,1.49,1,3.14,1.76,4.54,2.85.37-.24-.55-.77-.31-1.56a5.79,5.79,0,0,1,2.18,0c-1.24.36-1.1,1.66-1,2.45.1-.6,1.37-.66,1.75-.32.2,1-.38.32-1,.46,3.3,4.28,5.16,12.33,2.42,17.61.21.47.82.47,1.41.5-.23.81-.88.29-1.33.68.12,1.57.61,3.05-.09,4.36-.41-.54-.19-2.7-.28-3.93-1.33.41-1.59,2-2.76,2.95-3.82,3.25-10.62,3.89-16.41,2.73-.45-.82-1.59-.85-2.27-1.42,0,1,.38,1.7-.2,2.78a7.86,7.86,0,0,0,2.19.24c-.69,1.07-1.92-.28-2.74.39-.06,1.68,1.65,1.8,2.87,1.38-.51.67-1.42,1-1.65,1.9-.79-1-1-1.81-2.53-2.2,1.08-.66,1.06-2.28,1.33-3.65-.42-1.1-1,1-1.35.49-.18-1.14.44-1.59,1.67-1.5a18.08,18.08,0,0,1-2.76-2.77,2.42,2.42,0,0,0-1.25,1.87,2.36,2.36,0,0,0-2.54.37c.18-1.07-.67-.81-.31-1.56.8-.6,1.4.58,2.22.64a3.8,3.8,0,0,0,1.46-1.69c-2.07-4.18-2.78-8.69-3-14.8L2,116.23q.32,4.42.62,8.85c.4-.21.15,1.33.44.56.73.31-.31.57-.13,1,2.54,20.65,20.33,27.45,42.45,24.89a37.92,37.92,0,0,0,11.07-2.75c12.23-3.5,18.52-10.82,21.4-21.85-.4-.48-1.09,1-1.55.5.52-1.39,2.34-1.66,2.11-3.7-1.35,0-1.4,1.25-2.88,1.19.07-1.11,1.06-1.42,2.48-1.36.69-.37,1.07-3.09,0-2.77a4,4,0,0,0,.85-2c-.42-.69-2.32.55-2.2-.24m8-44.23c.56.46,1-.19,1.77-.13-.23-1.16-1.5-.57-1.77.13m5.64-15.42c.45.87-.14.76-.94.66a1.31,1.31,0,0,0-.13,1c.84-.23.61-.18,1,.32.58-.54.45-1.7,1.24-2.06-.44-.4-.55.14-1.18.08m1.7-1.1c-.57,0-1,.12-1.15.47.44.08,1.1.22,1.15-.47m25.79-1.41c.26,0,.46,1,.62.35.27.25-.25,1.38-.26,2-.59.18-.6-.3-1.19-.12a.76.76,0,0,0-.29-1.36c-.63,0-.79.3-.95.66-.37.52-.05-.69.36-.62,0-.52-.45-.48-.83-.54-.12-.71.67-.64,1.12-.86-.65.66,1.3,1.36,1.42.49m-2.61,2.16c.4,0,.42.49.64.74,0,.61-.36.92-.49,1.42-1.13-.24-.65.92-1.73.72a6.68,6.68,0,0,0,1.58-2.88m-.5-4.31c.13.6-.38.65-1,.65.11-.39.49-.56,1-.65m-1.44,4.84c-.79-.72.14-3.22-2-2.83.12-.75,1.48-.44,1.49-1.29a7.54,7.54,0,0,1,.49,4.12M113,53.53c-.08.3-.26.51-.34.81-.5,0-.52-.7-.27-1,.32-.08.35.17.61.16m-2,2.71c-.6.92.45,2.16-.81,2.42a6.86,6.86,0,0,0,0-2.37l.78,0m-.76,3.21c1,0,.63,1.54,1.68,1.46-.89,1.14-2.38-.15-1.68-1.46m1.8.27c-.56.54-.77-.69-1.07-1.11a1.26,1.26,0,0,1,1-.26c-.37.64-.36.78.1,1.37m.14,2a1.28,1.28,0,0,1,.26,1c-.66.23-2.35.54-1.69,1.3-.71.88-1-.55-1.43-.69a8.68,8.68,0,0,1,2.86-1.58m-2.29-1.62c-.41.11-.53-.1-.8-.14.15-.3.25-.65.74-.65l.06.79m-.56-2.33c-.51.09-.85,0-.83-.54.25-.31.93-.17.83.54m-2-1.05c.09-.84,1.16-.83,1.48-1.48.44.58-.45,1.58-1.48,1.48m-.14.8c.73,0,.6.66.48,1.16-.74.22-.76-.83-.48-1.16m.14,2c.69-.16,1.44-1,1.92-.73.17.61-1.27,1.62.11,1.58,0,.63-.84.49-1.12.87-.42-.17-.48-.73-.49-1.35.52,0,.84-.13.74-.65a4.07,4.07,0,0,1-1.53.7c.68.26.46.23.48,1.15-.45-.4-.57.3-1.17.28-.18-.59.15-.73.11-1.19-1.11.94-1.06,2.89-2.09,3.9,0,.78.76.68.7,1.53-.89-.26-1.43-.91-2.45-1,.11-.19.22-.37,0-.39.25-.67.5.37,1,.12.66-.7-.83-.73-.51-1.74.45.18.16,1.23,1,.92.1-.78.54-1.26.44-2.21.69.11.81-.28,1.15-.48-.21-.55-.31-.2-.8-.14-.1-.51.75-.21.53-.83.35,0,.44.22.8.15s1-1.13.13-1c.14-.79,1.16-.26,1,.52m-1.42-3.26a1.31,1.31,0,0,1,.13-1c.88-.21.83,1.27-.13,1M101.52,62c-1.62-.56-2,1.3-3.25,1.61.46-.85.19-.92-.31-1.56.19,0,.14-.25.17-.41,1.82.7,3.07-.8,4.21-2.07-1.59-.73-3.52-1.06-4.16-2.87,1.73.06,1.71,2.15,3.51,2.12.57-.2-.16-.62-.07-1,.49.08.49.71.67,1.14.61-.28.35-1.3,1.3-1.28.09.57-.4.64-.31,1.21,0,.16.21.18.22.38,1.55.05,1.59-1.2,1.82-2.3,2.3,2.76-4.37,2.82-3.8,5m2.76-5.73c0,.46-.06.93-.73.84.21-.31.11-.89.73-.84m-2.21-.44c-.22.87-.45-.17-1.18.08.35-.4,0-.49-.06-1,.23,0,.34-.07.38-.22.43.2.51.82.86,1.12m-1.86,4.48c-1.59.62-2.88-.93-4.24-1.28-.64.39.08,1,0,2a7.86,7.86,0,0,1-.72-1.72c-1,.16-.66,2.31-.2,2.78-.11.39-.49.56-.94.66.06-.81-.54-1.61.21-2.59-.42-.44-1.23-.68-.49-1.35.24,1.11,1.06.63,1.38-.09s-.89-.79-1-.33c-.77-.39.65-.39.74-.64.11-.69-.81-.2-.65-.94,1.12-.17,1,1.09,1.5,1.67,2.34-.36,2.66,1.61,4.47,1.86M96,56.3c0,.43.7,0,1,.13-.29,1.12-4.23-1.78-3.45,1.62-.21-.11-.23-.44-.61-.35-.48.29.55.61.47,1.15a13.79,13.79,0,0,0-1.8-.27c.4.54.64,1.25,1.29,1.49.32.58-.7-.28-1.19-.11a1,1,0,0,1-.58.24c.57,1-.38.9-.88,1.44.21.25.23.72.64.75a4,4,0,0,0-.72,1c0,1.27,1.46,1.51,2.26,1.23.24.7-.83.26-.94.66.07.55.42.79.49,1.35-1.5.24,0,2.23-1.42,2.27.17-.18.33-1.28-.1-1.38.3-.6,1.1-.77.86-1.84-.8.6-2.36-.08-2.26,1.55-1.57.84-3.59-.23-4.23,1.68-.71-.57.38-1.14.06-2,.56.12.49-.32,1-.27.69-.08.69.62,1.23.71.58-.12,1.19-.2,1.34-.69-.52-.33-1.71.12-1.65-.87a1,1,0,0,1-1.82-.67,6.93,6.93,0,0,0,1.52-.9c.4,2.15,2.61,2.07,3.8.73-.48-.76-.93-1-.92-1.91a4.37,4.37,0,0,0-1.91.92c-.68-.58,1.36-.57.49-1.42.86-.11,2,.81,1.94-.53-1.22-.44-3,.18-3.27,1.22a3.13,3.13,0,0,1-.83-.54c.31-1,1.87-.83,2.88-1.19,0-1.06-1.39-.31-2-.25a3,3,0,0,1,1.67-1.7c0-.33,0-.65-.07-1,1.61-.64,1.29-1.92,3.61-2,.43-.06.39-.53.32-1a1.11,1.11,0,0,0,2-.34,5.28,5.28,0,0,0,2.38.23c.1.51-.75.21-.53.83M84.53,70.54c.56-.05,2.41.82,3.14-.22-.43-.43-1.64,0-2.37,0,1-.44-.94-.85.1-1.39a3.16,3.16,0,0,0,3.34-.24,3.43,3.43,0,0,0,.15,2.16,4.28,4.28,0,0,0-2.7,1c-.61.14-.55-.49-1-.52a2.22,2.22,0,0,0-1.13.87c-1-.36,0-1.35.49-1.61M83.9,73c1,.22.94-.54,1.53-.7.34.83,1.38.83,2.25,1a.91.91,0,0,1,.58-.24c.1-.61-.57-.34-.47-1,.71.3,1.57.13,1.33-.89.81.09.63-.68,1.54-.5-.23.36-.76.45-.93.86q.39,1.14,2,.84c.12-.56-.31-.49-.27-1,1.3-.24.53,1.06.9,1.52-1.32.54-2.15-.23-3.16,0-.43.06,0,.84-.11,1.2-1.23-.75-5,.37-5.6,2-.31.08-.35-.16-.6-.16,0-.17-.09-.18-.21-.18.52-.07,1.43-1.45.48-1.61.16-.64,1.36-.37.7-1.24M83,87.84c.22.19,1.43.31,1.57-.11.42.22-.45.49-.39,1.11-.37-.62-1.72-.18-1.41,1.39-1.36-.64.15-1.44.23-2.39m-.54,6.36c.1-.57,1.36-.29,1.79.27-.66.81-1-.55-1.79-.27M84.72,96c.06.73-.63.81-.9,1.25-.75-.36-.23-1.46.9-1.25m-.93,6.39A2.61,2.61,0,0,0,85,100.34c.59.29-.28,2.5,1,2.9-.13.68-.61.16-1.14.67.41-.88,0-1.76-1.09-1.51m1.75,2.45c.76,0,.86.71.9,1.52-.7.24-.33-.76-.48-1.15-.33.09-.38-.13-.42-.37m1.17-8.78c.75-.18,0,.76.29,1.37-1.13,0-.1-.63-.29-1.37m.4,11.44c.81,0,0,.52.46.95l-.78.06c-.19-.6.51-.42.32-1m.5-7C87,99.9,88,99,89.1,99.27a14.37,14.37,0,0,1-1.49,1.29m.83,11.8c.38-.69-.31-1.33.28-1.61.59.13-.07.65.07,1s.34.6.83.53A8.11,8.11,0,0,0,91.56,109c-.24-.89-1.23.18-1.6-.29.54-.68,1.82-.25,2.75-.19-.13.93.42,1.07,1.25.9-.66.41-.85,1.23-1.46,1.68-.14-.61.3-.72.1-1.39-1.74.59-1.72,2.7-2.9,3.76-.49-.28-.67-.93-1.26-1.09m2.89,1.77c.52.23.13,1.2.11,1.57-.49.07-.63-.26-1-.32-.22-.87,1-.46.9-1.25m2.32,5c.16-.85,1.52-.65,1-2,.47-.12.46.33,1,.12-.15.67-1,.7-.87,1.64-.61-.09-.71.26-1.17.29M96,107.87c-.79.13-.23-1.29-1.25-.9-.16-.82.27-1.12.27-1.8.77.48.49,2.37,1,2.7m.38,8.27c.89.24.08,1.16.33,2-.27-.21-1.19-1.25-.33-2m.22,3.15c.47,0,.41.66,1,.52-.09.48-.83.39-.5,1.22a1,1,0,0,1-.52-1.74M99,117c.74-.07,1.58-.26,1.44.69-.5-.86-.81-.32-1.38.1L99,117m1.28,1.29c.92,0,.19,1.26.32,1.76-.49,0-1,0-.95.46-.72-.81.85-1.22.63-2.22m-.63,5.19c.41-.83.28-.94.06-2,.23,0,.35-.07.38-.23.59-.11.46.61.66.94-.19.58-.32,1.2-1.1,1.27m.59-8.54c0,.49.48.44.65.74-.42.33-1.35-.57-1.66-1.07-.7.13-1.3.35-1.94.53l-.07-1a3.35,3.35,0,0,1-.73,0c-.11.06-.2.12-.23.23,0-.17.09-.21.23-.23.89-.46,3.94.41,5.22-1-.36.68-1.4.76-1.47,1.69m2.07-1.53c.55-.47.66.81.29,1.36-.94,0,.33-1.12-.29-1.36m.45,9.26c.46-.5,1.16-.09,1.77-.13,0,.72-1.48.76-1.77.13m1.28-1.48c-1-.64.92-1.55.8-2.62.07-.7-1-.59-.47-1.16,1.12-.28,2,.41,2.54-.37-.12-.89-1.24.17-1.4-.3-.56-.47.36-.3.34-.81a8.28,8.28,0,0,0,4.35.09,1.13,1.13,0,0,1-.51,1.22c-1-1.43-2.36.28-3.08,1.2-.46.12-.45-.32-1-.12a19.85,19.85,0,0,0-1.58,2.87m2.14-.54c0-.35.21-.43.14-.8a1.31,1.31,0,0,1,1.06,1.11c-.7-.07-.58,1-1.15.48.44-.38.75-.64-.05-.79m2.36-.17c1.22,0,.17-1,.1-1.39.63.34,1.64.24,1.48,1.48-.46.33-1.14.48-1.3,1.08-.44,0-.15-.83-.28-1.17m.17-5.94c-.71,0-1.16-.24-1.77.13-.09-.51,1.82-.84,1.77-.13m-5.38,2.16c-.22-.68.62-.38.77-.26,1.11-.3,0-1.84.64-2.21,1.63.74-.06,3.22-1.41,2.47M97.21,65.5c.13.1,1,.4,1-.07.58.11.45,1,1.25.9-.47.71-1.6.06-2.11.94.68-.81.26-.8-.13-1.77M97.92,70a4.68,4.68,0,0,0-1.2-.31c0-.62,1.24-.35,1.2.31m-2.77-5.73c.26-.76,1.15-1,1.67-1.5.78.12-.18.78-.1,1.39-.81.1-1-.25-1.57.11M95.61,68c-.21-.61.27-.63.32-1,.45.11.18,1.12-.32,1m.83.54c0,.23.07.35.22.38,0,.65-.89-.46-1,.26-.65-.29.46-.56.75-.64m1.15,2.29c-.78.94-1.92-.69-3.35.23,0-.39.52-.28.34-.81,1.3-.15,1.66.78,3,.58M92,70c.25-.58,2.21-.65,1.47-1.48.31-.55.76.53,1.23.51A8.8,8.8,0,0,1,92,70m.16,13.63c.31-.08.35.16.6.15.13,1.34-1.63,1-1.4,2.47a.84.84,0,0,0,.81.34c0,.39,0,.79.08,1.18-.33.07-.53-.3-.59,0a1.65,1.65,0,0,0-1.89-1.64c.73-.91,2-1.39,2.39-2.54m-5-3.41c-.58-.27.37-.76.31-1.21.68.37-.28.86-.31,1.21m2.55,5.36-1,.07a4.53,4.53,0,0,0,.52-1c.31.15.33.61.47,1M90.85,79c-.39-.62-1.13-.19-1.79-.08.66-.66,1.91-.8,2.67-1.37a9.91,9.91,0,0,1-1,2.84c-1-.1.35-.79.1-1.39m-.57,3.2a19.85,19.85,0,0,1-1.93.73c.14-.57,1-.49,1.33-.89,0-.35-.27-.39-.26-.77l-1.18.08c0-.16.07-.19.19-.21l0-.39c.59.69,1.41,0,2.37,0-.14.38-.87,1.2-.49,1.42m-1.14,9.17c1.09-.37,1.58,0,1.7-1.11.71.12-.24.81.49,1.35-.48,0-.4.39-1,.27,0,1,1.7.17,2.22.63a3,3,0,0,0-1.7,1.11c.05.15.21.18.23.38.61-.4.55-.25,1.34-.49,0,.33,0,.65.07,1a6.81,6.81,0,0,1-1.4-.3,4.89,4.89,0,0,0-1.07,1.66c-.34-.18-.27-.82-.48-1.15,1.07.12,1.82-2.15.08-1.79-.11-.64.38-.77.5-1.22-.08-.4-.86,0-1-.32m-.5,9.72c1.17.51,1.24-1,1-2.25.37-.29.82-.52.91-1,.36.32,0,.52.28,1.17,2.94,0,.86-2,.18-3a1.69,1.69,0,0,1,1.2.11c.61-.18.22-.54.13-1,.4,0,.61-.09.56-.44.75.81.71-.23,1.56-.31.19.5-.58,1.53-1.25,1.87a1.13,1.13,0,0,0,.67,1.14c.26-.08.13-.5.14-.8.4,0,.61-.09.56-.44.58.11-.06,1.64.52,1.75-.06.52-1.34-.4-1.56.3.21.57.62-.16,1-.07,0,.78,0,1.15.65.75-.08,1.08.76,1.11,1.11,1.7-.75.43-1.06-1.47-2.08-1.44-.1.22-.08,1-1.13.87,0-.26,0-.52,0-.78.35,0,.43.21.8.14a1,1,0,0,0-.67-1.14c-.15.55-.7.75-.9,1.25a4.74,4.74,0,0,0-1.8-.27c-.16,0-.18.21-.38.22-.11.7.34.74.29,1.37-1,0-.56,1.1-.87,1.64a7.4,7.4,0,0,0-.88-1.32m2.18,5.77c-.44.22-.63.06-1.36.3-.18-.71.92-.31.92-.86a.54.54,0,0,1,.44.56m2.79-5.33a1.4,1.4,0,0,0-.71,1.23c-1-1,1.13-2.4,2.42-2.14.28.57.1.67-.11,1.19-.69-.37-1-.1-1.6-.28M98.11,98c0,.33,0,.66.07,1-.39,0-.29-.52-.82-.34s0,1.62-.87,1.64c.45-.54-.26-1-.13-1.77.92.49.89-.46,1.75-.52m-1.25-3.66c1.06.66-.1,1.47-.24,2.19-.72-.7.16-1.58.24-2.19m1-2.25c0,.83-1.28.61-1.28,1.47-.73-.76.44-1.46,1.28-1.47M96.82,74c.08-.14.59,1,.89,1.33-1.14-.66-2.95.78-3.77-.14.5-.47,3.09.38,2.88-1.19M93.88,80c.28.31,1.12,0,1.4.3-.19.56-1.54.68-1.4-.3M95,87.2c.14-.31.46-.46,1-.47,0,.23.07.35.23.38-.15.55-.64-.23-1.18.09M95.81,85c-.56-.26-.1-1.17.1-1.39.77.45-.36.78-.1,1.39m.49-1.41a2.14,2.14,0,0,0,.89-1.45c.45.4-.1,1.51-.89,1.45m.84,6.26c-1.24.22,0,1.93-1.85,1.91a21.34,21.34,0,0,0,1.41-2.47c-.06-.5-.68-.35-1.21-.31.77-.32.45-1.59,1.68-1.5.19,1.17-.58,1.34,0,2.37m-3.74.26c.38-.41.92-.68.89-1.44.35,0,.43.21.8.14-.61.39-.56,1.36-1.69,1.3m-.89,1.45c.43-.28,1.29.78,1.49,1.48-.59.18-.73-.16-1.19-.12.35-.52.38-1.11-.3-1.36M94,73a7.77,7.77,0,0,1,1.47,1.28c-.37.41-.75-1-1.81-.47,0-.39.52-.29.34-.81m2.26,29.48c-.58,0-.38.78-1.14.67a4.85,4.85,0,0,1,2.39-2.54,1.91,1.91,0,0,1,.86.93c-.52,0-.85.13-.75.65-.43.06-.14-.69-.27-1-.42.06-.38.52-.32,1s.7,0,1,.13c-.08,1.71.79,2,.69,4.3-.19,0-.17-.23-.22-.38-.63-.06-.67.4-1.37.29a8.81,8.81,0,0,1,.36-3.39c-.19-.48-.84-.44-1.23-.7m.17,5.32c.92,0,.35.69.7,1.54-.28,0-.56,0-.58.23-.61-.36.19-1-.12-1.77M94.07,111a2.83,2.83,0,0,0,1.42.5c-.27.44-.41,1-.9,1.25.69-.9-.61-.87-.52-1.75m-.61-5.88c-.26-.55-.89-.67-1.63-.68-.33.2-.31.71-.52,1-.41-.71-1,.06-1.6-.29.51-.48,1.43-.61,1.9-1.12-.08-.69-1.22-.15-1.25-.9,2.38.15,4.28,1.27,3.41,3.52-.34-.43-.44-.35-1-.13a3.67,3.67,0,0,0,.69-1.43M87.79,91.85c0-.35.31-.47.76-.45.34.72-.51.42-.32,1-.29,0-.11-.58-.44-.56M88,94.4c-.22-.61.48-.44.54-.82.77.15.3,1.51.13,2s0-1.1-.67-1.14m.22,3.15c-.56-.26-.1-1.18.1-1.39.24,0,0,1.12-.1,1.39M86.1,90.19c.54.14-.16.7-.13,1a1.26,1.26,0,0,0-1-.13c0-.27,0-.53,0-.79.34-.08,1,.49,1.18-.08M84.74,85c-.41-.09-1.27.33-1.39-.1-.24-.64,1.43-.39,1.39.1m7.09-8.8a6.73,6.73,0,0,0-4.57,2.5c-.61-.56.29-.84.3-1.41-1-.33-2.25-.73-2.74.39.25.5,1.39,1.5,1.63.68-.11.64-1.7,4,1.4,3.06-.39.53-1.44.47-1.28,1.47.06.37.68.08.82.34,0,.47-.93.18-.74.84.87.69,1.22-.65,2.14-.54-.3,1.15-2.15,1-2.42,2.14,0,.16.21.19.22.38.87,0,.84-.64,1.56-.3.07.49-.4.51-.53.82,0,.23.37.14.6.16a1,1,0,0,1-.55.63c.53.49,1.12.11,2.19.24,0,.46.1.74.45.76,0,.32-1-.25-.74.65-.49-.08,0-1.28-.68-1.14-.73.3.09.8-.29,1.4.21.57.47-.29,1-.07a3.66,3.66,0,0,0,.31,1.56c-.58-.57-1.09,0-2-.25.85-.61-.25-1.16.44-2.21-1,.22-1.67.64-1.66,1.7-.59-.74.4-1.69-.18-2.56.57.47.94-.27.93-.85-.89-.76-1.72.86-2.34.36.64-1.3,1.32-3.73-.33-4.72a1.81,1.81,0,0,0-1.13.87c-.42,0,0-.86.13-1,.12-.33-1-.25-.79.06-.71-.55.73-.79,1.15-.48.44-.17.38-.78.93-.85-.34-.83-1.15.21-1.79-.27.37-.6,1.44-.6,1-1.86-.61,0-.91.53-1.37.1.76-.26.8-1.15,1.26-1.67.1-.54-.92.21-.81-.34s1.23-.28,1.11-1.06c1.37.44,3.25,1.95,4.8.85a1.15,1.15,0,0,1-.25-.78c1.08-.64.9-.13,1.92-.72-.68.83.07,1,.87,1.12m0-13.44C92.35,63,93,63,93,63.82c-.64,0-1.16-.22-1.07-1.11m1.75,5.21c.06.43-.69.14-1,.27,0-.12.44-.79,0-.79.35-.66.54.63,1,.52m0-3.16c.49-.25,1,.54,1.18-.08.93.35-1.45.88-1.18.08M95.15,67c-.38,1-.91-.55-1.43-.69l-.4,0c-.06-.42.69-.13,1-.26,0,.59.41.8.86.93M99.87,112c-.5.06-.66.41-.94.66a8.46,8.46,0,0,1-.86-.93c-.38.16-.4.63-.73.84.3-.54-.23-1-.71-1.73,1.37,0,3.05-.25,3.24,1.16m-.14-47.22c.57-.09.63.4,1.21.31,0-.81-.43-1.21-.35-2.15.87.35.53,2.08,1.17,2.69-.52-.47-1.84,0-2-.85m6.91-2.85c.61.1.71-.26,1.17-.28a1.4,1.4,0,0,0,.08,1.18c-.34-.05-.36.18-.36.42a1.68,1.68,0,0,1-.89-1.32m1,2.89c.44-.67,1.18.88.68,1.34-.44-.2-.1-1.3-.68-1.34m2.43.82c-.09-.87.54-1.13,1.5-1.09-.52.35-.85.85-1.5,1.09M109.38,67a4.36,4.36,0,0,0,1.05.91c.56-.14.75-1.54.25-2,2-.93-.15,3.13,1.76,2.45-.68.76-1.51,1.39-1.59,2.68-.48-.19.22-.78-.47-1,.05-.27.48-.2.77-.25.16-1.81-1.64-1.36-1.77-2.84m7.64-.93a4.79,4.79,0,0,0-1.53.7c-.09-.44.11-1.93,0-2.57A2.43,2.43,0,0,1,117,66.09m-.39-2.74c-.07-.44.88-.93.31-1.21,0-.27.48-.19.77-.25-.32,1,.64,2-.42,2.4-.44-.18.44-1.21-.66-.94m-.51-1.54c.52.46-.12,1-.29,1.4-.6-.63-1.73-.65-2,.33-.71-1.51,1.24-1.28,2.24-1.73M113.71,64c.67.42-.11,1.13-.09,1.59-.74-.2-.83-.53-.69-1.34.31,0,.76,0,.78-.25m-.89-1.32c.58.28-.37.76-.31,1.21-.91-.25.25-.73.31-1.21m-.37-2.54c-.18-.53.36-.43.34-.82a.8.8,0,0,1,.28,1.17c-.27,0-.34-.33-.62-.35m5.17.43c-.08.63.41.58.06,1a5.53,5.53,0,0,1-1.81-.47l0,.4c-.71-.69,1.2-.68,1.72-.91M116.52,59c.38-.73,1.43,1.09.27,1-.13-.28.16-1-.27-1m-3.75,11.33c.22.88,1.08,1,1.87,1.25.73-.34.72-1.33,1.25-1.86,0-.43-.71,0-1-.13.35-.31.91-.44.71-1.24-.12-.43-1,0-1.39-.1,0-1.23,1.67-.35,2.52-.57-2.36,2.25,2.38,2.25,3.53,2.32.32.52,0,1.32.34,2.15-.89-.22-.46.71-1.13.68.74-.83,0-1.77-.38-2.55-1.06-.33-1.52,1.19-1.78-.07-1,0-1.54.39-1.7,1.11s.52.52.47,1.15c-.74-1-.77,0-1.56.31.06-1.35-1.34-1-2.08-1.44-.18-.59.52-.42.33-1m.12,4.54c.41-.47,1.69.7,1.53-.7,1,.27,2,1.41,3.22.76-.1,1.16.92,1.48-.06,2-.79-2.23-3.31-1.36-4.69-2m.92,1.91c-.09-.76,1.73-.57,1.59.09-.78-.13-.76-.38-1.59-.09m4.28-3.86c.13.61-.38.66-.94.66-.13-.27.73-.53.15-.6.09-.6.44.16.79-.06m-.65-.74c.47-.16,1-.47,1,.32-.27.32-1,.26-1-.32m2.86-4.35c-1-.54-1.78.07-2.43-.82.17-.62,1.95.56,1.94-.53.74-.21.32.91.49,1.35m-1-3.09c-.34.39-.49,0-1,.07a1.3,1.3,0,0,1,.13-1c.35.23.8.35.85.93m.68-1.63-1,.07a6.18,6.18,0,0,1,0-3.56c.13.44.62,2.19,1,3.49m-.52-7.47a3.67,3.67,0,0,1-1.25-.91c-.2-.72.72-.48.72-1,.13.22-.06,1.64.53,1.94m-3.59,64.47c-.08-.77,1.09-1.13,1.72-.71-.42.53-.63.54-.29,1.4-.58-.11-.58-.89-1.43-.69m-2.6-11.67c.15.92-.6,1.08-.45,2-.52,0-1.17,0-1.15.48-.21-.7.16-3.18,1.6-2.48m-1.26-1.1c.41-1.49,2.45-1.57,3.79-2.24-.34-1.17-2.68,0-3-1.17,1.54-1,4.64.81,7,.89.7-.23.08-.59.11-1.19.85.08,1.67.2,1.67,1.26,1.86,0,1.7,2.3,2.61,3.38-.85-.19-2.33.39-3.53.44-.66-.12,1.4-.34.34-.81.12-.45,1.1-.16,1.56-.31.17-1.61-1.79-.77-1.92-2a7.25,7.25,0,0,0-1.95.34,1.57,1.57,0,0,0-.31,1.21,4.76,4.76,0,0,0-2.86,1.58c-.21-.32-.58-.47-1.21-.31,1.44-.72,3.08-1.26,3.77-2.64-1-1.44-3.16.44-3.45,1.43-.6-.09.15-.43-.06-.79-1.59-.33-1.32,1-2.5,1m2.16,2.61c.06-.49.43-.73.72-1,.4.18-.09,1.14-.72,1m-1.38-8.4c0-.39-.06-.78-.08-1.18.8.08,1.11,1.08.08,1.18m.57-3.2c.11-.5,1.8-.12,2.3-1-.78-.61-1.94-.5-3.16,0l-.06-.78c.85-.44,2.46-.21,2.69-1.18.28,1.46,2.62,2.08,3,.19a1.83,1.83,0,0,0-1.42-.5,1.4,1.4,0,0,1,1.32-.88,4.39,4.39,0,0,0,.67,1.14c.54.1.36-.43.55-.63.35,0,.47.31.45.76.89.22.47-.7,1.14-.67-.33,1,.29,1.27.73,1.92.61-.57.72-1.59,1.85-1.71.76,1-1.74,1.32-.82,2.43-1.08.6-1.41,1.85-2.6,2.35-.52.18.08-.93-.44-.75.61-.39,1.51-.53,1.89-1.13,0-.53-1-.4-1.19-.11-.62-.15.55-.23.35-.62-2.61-1.21-4.64,1.42-7,2.27,0-.45.91-1.34-.27-1.17m1.54-6.23c-.67-.15-2.11.58-2.2-.25.17,0,.2.07.22.19.41-.35,3.31-.16,2,.06m1.56-39.83c0,.8,1.49,1.36.53,1.94,0-.6-.47-.74-.67-1.14a2,2,0,0,1-2.39-.23c1-.1,1.62.34,1.94-.53-2.9-.18-4.43.82-5.16,2.53-.22-.16-.11-.72-.63-.55s.27.72-.14.8c-.88,0-.75-1.12-1.48-1.27q.1.63-.54.63c-.25-.22-.27-.68-.28-1.17-3-1.62-7.41-1.41-10.52-.65-7.63,1.86-14.23,9-15.73,15.33-.09.41.2,1,.1,1.38s-1.34,1.25-.45,2c-1.59,2.43-1.85,7.47-2,11-1.11,25.13,8.86,50,35.36,42.19,0-.59.18-1.43.68-1.63.21.58-.53,1.24-.11,1.39.83-.58,2.19-.68,2.45-1.75.59.34,1.43-.4,1.51-1.09-.39-.26-1.31.08-1.6-.29,1.65-.21,2.4.67,2.9-.79-.46,0-.86-.14-1-.52.52,0,1.13,0,1.36-.3-.09-.67-.64-.81-1.25-.9s-.46.84-1.33.69c-.12-.68,1-.82.3-1.4-.83,0-1.65,0-2,.53,0-.2,0-.4,0-.59-1.63.61-2.46,1.91-4.17,2.46.49-.93-.43-1.67-.33-1.95a3.74,3.74,0,0,0,1.22.51c.52-.33-.4-.78.12-1,.55.75,1.59,0,2.15-.35,0-.89-1.06-.48-1.44-.88,1.78-1.52,2.55,1.31,4.6.86.08-.49-.17-1.24.48-1.61-.25-.42-1.16-.74-.68-1.34a14.12,14.12,0,0,0,1.65,1.07c.45-.33.14-.84.33-1,.26.56,1,.4,1.22.5-.21.44-.7.63-.7,1.24.53.38.63,1.25,1.47,1.28.37-2,2.12-3.82,1.55-6-.27.88-1.89.57-1.86,1.72-.44-.66-1,.64-1.37.09.12-.45,0-1.07.51-1.22,1.14,0,2.08-.15,2.09-1.14-.54-.33-1.9-.14-2.15.35,0-.19,0-.39,0-.59a8.53,8.53,0,0,1-2.67,1.38c-.14.43-.46.7-.3,1.4-1.68-.42-1.77,1.64-3,1.79.11-.41.56-.82.11-1.19-1.53-.1-1.68,1-2.67,1.37.06-.38.54-.39.32-1-1.38-.39-1.4,1.36-2.1.94-.19-.72.65-.54.92-.86-.4-.76-1-1.56-.15-2.16.09.75.77.81,1.08,1.31.58-.59.76-.43,1.53-.7.16-.62-1.1-.69-.47-1.15a1.73,1.73,0,0,1,1.53,2.06c1.68.67,2-2.07,1.59-2.68.55.21.54.73,1.2.31.17-.38-.63-.61,0-.78.55.75,1.58,0,2.15-.35-.41-.73-1.32-.9-1.7-1.66-.85-.3-1.61,1.06-2.47,1.36.29-1.35,1.78-1.66,3-2.19,1.3,1,2.2,2.57,4.52,2.45.23-.58-.61-1-.09-1.18,1-.33.6.87,1.07,1.11.77-3.47-.06-5.57.38-8.72-.73.34-.42-.51-1-.32s-.26,1.25-.89,1.44c0-.39-.06-.78-.08-1.18a5.59,5.59,0,0,0-3.09,1c-.08-.37.19-.45.14-.8-.64-.11-1-.51-1.81-.47-.41.39-.41,1.13-.68,1.63-.41-.78-1-.57-1.63-.68.39-.7,1.42-.85,1.87-1.51-.35-.31-.57-.76-1.23-.7-1,.52-1.63,1.41-2.63,2-.53-1.49,2.93-1.47,1.22-2.26,1.36-.22,1.94,0,2.73-.59.62,1.8,3.65,2.39,5.22,1.22.13-.65-.54-.37-.64-.75.22-.35,1.17-.08,1.14-.67-.27,0-.86-1.06-.07-1,.5.55,0,2.28,1.31,1.88.26-.82.23-2.49-.58-2.72,1.22-1.34-.17-5,.3-6.94-1.2-.37-.66.78-1.32.88-.33-1.24-2.12-.62-2.77,0-.26-1.25-2.62-.1-3.77-.33,0,.68.63.55.85.93-.62-.06-.67.4-1.36.29-.39-.32.12-.51-.08-1.18-2.09.28-4.91-.08-6.06,1-.3,4.69,2.18,16.13-2,19.7-1.64.09-3.7,0-4.27-1.68-.64-.08-.22.73-.77.25a2.64,2.64,0,0,0-.18-2.56,1,1,0,0,1-1-.32c.2-.69.24-1.52.44-2.2a1.56,1.56,0,0,1-.74-2.13c.14.4-.22,1.39.47,1.16.42-2-1.16-2.77-.68-4.11.06.3,0,.74.25.78-.33-5.35-.7-7.94-1.13-13.36-.26-3.33-.53-8.75-.5-12.81,0-3.26-.09-8.34,2.73-9.08,4.25-1.13,5.31,4.95,5.94,8.67.31,1.87.31,6.25,1.29,7.22-.67-.15-.62.32-.53.83,5.62.3,9.75-2.05,13.53-1.54-.67.53-2.44.1-2.91.8l3.73-.26q-1-14.66-2-29.31l-4.91.35m65.16,75.9c-.06-.15.09-.54-.19-.45s0,.4.19.45m-4.6-5.66c-.1-1.11,1.37-.85,2-1.31-.2-.9.22-1.27.42-1.82.66.27.59,1.64.56,2.45-1.24,0-1.63.76-3,.68m.15-15.72c.07-1,1.28-1,1.83-1.53.2.59-.74,1.8-1.83,1.53m.21-4.69c-1.23.48-2.33,1.08-2.22,2.73-.79,0-1.46-.22-1.55-1.06.83,0,1-.58,1.75-.59,0-.49-.11-.83-.53-.82,1.25-.47.9-2.32,2.23-2.72.39.5.17,1.69.32,2.46m-.68-9.83c-.69-.12-.49-1.06-.43-1.68.68.13.28,1,.43,1.68m-2.08-15.17c-.27-1.26,1.9-1.85,3-1.46-.2.84-1.54.75-2.33,1.1-.31.13-.39.39-.68.36m.91-5.9c0,.47-.56.53-1.12.55,0-.24,0-.47-.05-.7.54-.12.75.14,1.17.15m0-13.92a1.48,1.48,0,0,1-.22,1.18c-1,.15-1.46-.28-1.56-1.13a2.21,2.21,0,0,1,1.78,0M173.78,63a1.68,1.68,0,0,1-.19,1.8c-1.11,0-1.33-2,.19-1.8m-.53,19.17c.3.56-.34.79-.54,1.13-.81-.1-.54-1.42.54-1.13M172,49.07c-.72.64-1.06,1.6-2,2-.27-.65.35-1.15.1-2a3.45,3.45,0,0,0,1.94,0m-3.57-13.28c0-.59.45-.77.28-1.5,1.06,0,1.53.91,2.59.37-.2.23-.53.36-.65.66s.16.38.2.61a15.61,15.61,0,0,0-2.42-.14m3.18-5.67c-1,.44-1.33,1.47-1.45,2.67-.72-1.34-1.27-2.88-2.08-4.13a25.35,25.35,0,0,1,3.53,1.46m-1.43-4.87c1.24,0,1.72.8,2.64,1.13-.93,0-2.52.06-2.64-1.13m0-.24c-.76-.07-1.16-.55-2.05-.47.45-.66,2-.39,2.05.47M167.8,37.47a1.6,1.6,0,0,1,1.89,1.5,7.28,7.28,0,0,1-1.89-1.5m-.27,27.32c.85.2.86,1.94.49,2.61-.8-.34-.65-1.77-.49-2.61m-.14-6.45c-1.84.73-1.64,3.23-3.37,4,.52-2.11,2-3.4,2.65-5.4l.47,0c.11.52-.57,1.34.25,1.38m-.64-25.77-2.71.19c.32-.68,2.46-1.37,2.71-.19M166.2,29c-.78.59-2.35.47-2.62,1.5-.36,0-.31-.54-.81-.41,1.79-.49,2-3.59.25-4.29.22-.2.79-.09,1.15-.16.24,1.62,1.86,1.66,2,3.36m-3.35,7.7c.44.24-.24.56,0,1.09-1-.27-1.26.58-2.3.47.25-1,2.18-.48,2.31-1.56m-1-21.09c-.72.07-1.38-.43-2.13-.39-1.14,0-1.84,1.74-3.11,1.15.56-.53,1.79-.48,2-1.31-.31-1-2.27-.06-2.78-.82.63-.7,1.57-.18,2.26,0,1.11.3,1.86.82,3.23.63,2.54-.35,4.31-2.14,6.06-3.38-2.23-.8-5.29,1.27-7.45.13,2.5-.75,6.34-.34,7.62-2.16-.76-1.51,1-.69,1,.4,1.18.34,2.83.15,2.85,1.82-1.07-.16-1.22-1.39-2.36-1.47-1,.82-1,2.49-1.86,3.4-2.31.07-3.4,1.82-5.3,2m1.68,1.83c1.4-.2,2.69-3.36,4.31-2.95.68.18.72,1.14,1.64,1.21-.32.58-.2,1.53-.73,1.92.13.39.59.38,1.11.31a1.58,1.58,0,0,1-1.58.66c.49-1.27-.92-1.91-.62-3.23-1.66-.18-1.72,2-2.72,2.29-.47.14-.74-.3-1.41-.21m3.32-9.33c-.73,1.07-2.19.09-3.41.24a5.41,5.41,0,0,1,3.41-.24m-5.4,30.79c.69-.17.95.47.77,1a1.46,1.46,0,0,1-.86-.09c0-.36.19-.52.09-.94m-.1,6.3c.24-.74,1.5-.58,1.69-1.36.07,0,.15.06.17.14-.21.77-1.07,1-1.86,1.22m2.47-8.1c-.09-.83.82-.79.74-1.61.55.2.34,1.28.67,1.74-.66.17-.8-.25-1.41-.13m-.37,20.32a4.54,4.54,0,0,0-1-.16c0-.2,0-.41,0-.62.77-.54,1.61,0,1.07.78m-.7,8.92c0-.47.41-.66.55-1.05A6.53,6.53,0,0,1,164.88,67c-.86,0-1.27-.89-2.14-.63m2.32,10.88a.7.7,0,0,1,.63.11,2.52,2.52,0,0,1-.31,1.19c-.55-.11-.18-.75-.32-1.3m.46,45.62c.4.19,1.06.07,1,.79-.17.16-.62.09-.92.14,0-.31,0-.62-.07-.93m.34,4.8c.57.12.71.75.73,1.51-.76.09-.68-.79-.73-1.51m1.15-.31c1,0,1.81-.48,1.45-1.43,1.28.76.14,2.76-1,3a2.19,2.19,0,0,1-.41-1.53m4-39.56c0-.58.73-.47.78-1,.19.12.46.15.64.27,0,.1,0,.21,0,.31-.55.07-.81.41-1.44.41m-1.81,13.12c.32-.77,1.15-1.08,2.17-1.24a2.09,2.09,0,0,1-2.17,1.24m2.37,13.83c.63.47.79,1.48,1.09,2.33-1.29.14-1.73-1.41-1.09-2.33m1.68,10.69c-.81.07-.95.73-1.4,1.11-.67,0-1.49.1-1.6-.59.74-.06,1.12-.48,1.84-.36-.19-.85-1.08-1.31-.79-2.43.82-.25,1.5.24,2.49.06.13.38-1.46,1.35-.54,2.21m-5.19-51.9c-.29-.1-.23-.63-.59-.66.19-.29,1-.81,1.22-.39-.08.46-.6.54-.63,1.05m.34,34.9c-.09-.6-.17-1,.14-1.41.89,0,.64,1.41-.14,1.41m1.41,11.18a14.22,14.22,0,0,1-1.68,2.76,2.23,2.23,0,0,1,1.68-2.76m-1-15.72c1-.09.78,1.17,1.78,1-.4.4-2.14-.24-2,.77-.64-.47.52-1,.27-1.81m6.4-37.39c0,.78-1.24.57-1.55,1.12-.52-.74.78-1,1.55-1.12m-1.35,41.78c-1.06,1.44-1.33,3.55-2,5.35-.43-.81-.14-2.47-.54-3.31,1.41-.15,1.62-1.35,1.84-2.54.41,0,.46.32.66.5m-4.06,23.15a12.5,12.5,0,0,0-1.84,1.45c-1-.71.09-1.73.62-2.22.83.18,2,.09,2.37-.55a19.11,19.11,0,0,1,.52,2.92c0,.29-.64,1-.63,1.05.11.78,2.69.33,3.61.45-.44,1.58-5.05-1-4.66,1.26,0,.3.59.78.76.88a5.87,5.87,0,0,0,4.14.18c-.15,1-1.82.65-2.4,1.25a1.19,1.19,0,0,0,.06.85c-.59-.19-1.2-.35-1.83-.49,0-.36-.05-.72-.07-1.08-.81-.58-2.78.19-2.81-1.28.29-.33,1.22-.11,1.52-.42-.74-1.88,2-2.54.64-4.25M168,142.14c.75-.29,2.29.11,2.11-1,.77.71,2.44,2,1.48,3.4-.86-1.2-3.31-.55-3.59-2.4m.59,2.84a1.89,1.89,0,0,1,1.83.57c-.3.29-1.16-.24-1.23.32a.81.81,0,0,1-.6-.89m5-5.25c.45-.39.86.15,1.49.05-.3.44-.26,1.18-1,1.24a2,2,0,0,0-.48-1.29m2.82-7.59c-.56,0-.63.33-1,.46-1.8-.46.57-2.32,1-.46m-1-4.83c.12-.82,1.41-1.18,1.55-.11-.16.47-1.33.51-1.55.11M172.46,14c.35-.16,1.29-.28,1.42-.87.25,0,.35.21.49.35-.14.83-1,1.06-1.53,1.51-.21-.18-.54-.66-.38-1M174,10.36l-.06-.85a4.16,4.16,0,0,1,1.19.38c0,.48-.62.43-1.13.47M160,31.17c-.37,0-.55-.32-.89-.4-.26-.43.56-.47.56-.9.12,0,.21.11.32.14.09.46-.07.71,0,1.16m-.56.9c1.1,1.3-1,2.08-.92,3.48-1.29-1.29.68-2.36.92-3.48m2.09,25.52c0,.5-.2,5.89-.09,6.5-.09,0-.14.17-.19.4a23.05,23.05,0,0,1-.13,3.31c0,.1,0,.14,0,.09a.3.3,0,0,0,0-.09,29.15,29.15,0,0,1,.13-3.31c0-3,0-6.9.28-6.9m-4.75,31c.2-1.19,2-.94,2.84-1.6.42,1.16-1.47,1.52-2.84,1.6m1.16-5.69c0,.57-1,.47-1.31.25-.33-.86,1.28-.71,1.31-.25m-.38-4.25c-.92-.17-1.29,1.07-1.77.2.19-.58,1.22-.44,1.65-.81.13.1.1.39.12.61M151.29,84c0,.58-.65.64-.86,1.07-.93-.3.4-1.75.86-1.07m-.66-5c-.18,0-.24-.12-.47,0-.48-.46-.07-1.2-.22-2l.78-.06c-.34.62.44,1.55-.09,2.11m-3.41,51.34c-1,.1-1.45.63-2.27.86.54-.86-.93-1.45-.24-2.24.94.35,2.37.12,2.51,1.38m-.61-5.4a1,1,0,0,1-.63-.19c.05-.56.51-.76.52-1.36.52.1.47,1.35.11,1.55m-.89-10.52c-1.57.68-2.94,1.51-2.94,3.55-.46-.5-1.21-.67-1.35-1.54.53-.09.78-.44,1.45-.41-.33-1.84,1.23-2.66,1.82-3.94,1.21,0-.16,2.18,1,2.34m-1.15-14.23c.25.19.49,0,.57.35-.47.24-1,0-1.55.11a2.06,2.06,0,0,1-.32-1.3c.78-.22.88.51,1.3.84m1-11.5c-.71.33-1.61.41-2.28.78-.34.19-.52.58-.89.53-.23-.29,0-.72-.08-1.08,1.06-.17,2.14-.72,3-.84.26,0,.24.34.27.61m-1.12-24.89c-.34.81-1.31,1.08-2.31,1.33-.07-1.13,1.8-1,2.31-1.33m-1,19.83c.06.63-.55.68-1.2.7,0-.28,0-.56-.05-.85.31.17.89,0,1.25.15M143,79.26c-.24.54-1.09.55-1.49,1,0-.18-.28-.13-.26-.37.24-.43,1.37-1,1.75-.59m-2.59-2.62c-.2-.58.31-1.07,1.25-.94,1.1,1-.92,1.94-1.25.94m-.06,15.87a1.3,1.3,0,0,1-.16,1c-.25.07-.37,0-.55,0-.21-.43.05-1.31.71-1m-.23-31c-.63.73-1.78,1-1.78,2.3-.94-.16-.49-1.46-.47-2.22a2.55,2.55,0,0,0,2.25-.08m-3.79-13.11c-.15-.64.54-.93.21-1.49a2.1,2.1,0,0,1,2.22,1.79c-.92,0-1.33-.54-2.43-.3m1.4-3.37a28.82,28.82,0,0,0-1.83-3.83c1.33.2,1.95,1.22,3.22,1.48-.2,1-1.09,1.43-1.39,2.35m.33-6.32-.06-.85c1.13,0,1.69.57,2.48.92-.72.49-1.53-.22-2.42-.07m2-6.52c.1-.92,1.42-.8,2.25-1.09-.11.92-1.38.83-2.25,1.09m2-2.7c-.12-1-.85-2.21-1.63-2.15s-.42.95-1,1.4c-.62-1.2.28-2.49-.19-3.8-2.32-.66-1,2.44-2.86,2.45,0-1.95,2.77-4.81,4.6-3.12,0,.46-.66.35-.89.61.5,1.36,3.66,3.07,2,4.61m-5.74,1.33a6.27,6.27,0,0,1,1.55,0c.08.67-1,.35-1.52.49l0-.46M138,37.53c-.87.06-1.29-.41-2-.48.48-.69,2.2-.29,2,.48m1.92-3.71c.1.62-.86.31-.63,1-2.19-.92-6.27-1.75-8.8-.24a1.64,1.64,0,0,1-.55-1.12c3.28-1.5,6.8.13,10,.31m-8.68,10.41c0,.19,0,.37.18.37a20.72,20.72,0,0,1-2.14.62,2.28,2.28,0,0,1,2-1m-2.66,6.48c.7-.48,1.73-.68,2.07-1.47.13,0,.14.07.24.07,0,.39-.34.53-.24,1a15.56,15.56,0,0,0-2.07.38m.59,1.75c0-.56.33-.83.45-1.28.13,0,.14.07.24.06a2,2,0,0,1,.08,1.17c-.26.14-.54.24-.77.05m1.43-9.59c.62-.79,1.81-1.53,1.59-2.83-.12-.72-.8-1.09-1-1.65a6.28,6.28,0,0,1,1.07-.23c-.14,1.87,1.89,1.67,1.49,3.55-.57.28-1.36.37-1.89.68a1.23,1.23,0,0,0-.18.87c-.39-.1-.49-.54-1.11-.39m1.08,6.54a2.13,2.13,0,0,0,.76-1.38c.53.2.24,1.34.66,1.67-.45.4-1-.14-1.42-.29m1.76-12.65a.76.76,0,0,1-.69-.88c.69-.21.7.36,1.2.38-.05.28-.58.13-.51.5m-1.51,8.51c.42-.51,2.21-.94,2.71-.27a20,20,0,0,1-2.71.27m1.57,26.88c-.15,1.23-.5,2.66-1.42,3-.36-.8,1.12-1.91.13-2.57,1.58-.4,2.19-1.63,2-3.56,1.08.78,1.17,3.2-.71,3.16m-1.76-2.91a1.1,1.1,0,0,1-1.19.78c-.86-.88.49-1.15,1.19-.78m-.8,9.7c-.16-.49.48-.65.25-1,.6.06,1,1,1.5,1.52-1,.31-.74-.86-1.75-.57m1.93,10.91c.26-.3.54.1.71.18a1.12,1.12,0,0,1-.68,1.37c-.11-.27.3-1.1,0-1.55m1.5,20.35c.18-.87,0-2,.69-2.46.27.68.31,2.4-.69,2.46m.85-9c.27-.66,1.37-.6,2-.92.13.44-1.36.71-2,.92m1.38,15.31c.81.06,1.09.75,1.64,1.12-.71-.17-1.95.18-2.12.93.23.86,1.54,1.51.88,2.58-.93-.48-.77-2.23-1.74-2.67a1.83,1.83,0,0,0,1.34-2m.94,15.64a12.3,12.3,0,0,1-1.43,3c-.66-1.2.44-2.51,1.43-3m-2.15,9.25c-.61-.1-.61-.7-.48-1.29a2,2,0,0,0,1.49-.88c0-1.29-1.22-1.22-1.91-1.73,2.55-.64,3.31,3.39.9,3.9m1,7.24c.4-1.43,2-2.52,1.25-4.44-1.16,0-1,1.18-2,1.31-.91-2.22,2.49-1.82,3.29-3,.17,1.38.57,3.45.17,4.81-1-.13-1.06.53-1.49.88.56,1.57,3,1.9,4.83,1.22.12.93-1.79.72-2.23,1.4-.14.33.11.6,0,.86-.81,0-1-.82-1.75-.5a3.3,3.3,0,0,1,0-1.09,5.82,5.82,0,0,0-4.44-.16c-.12-.4.21-.69.16-1.1-.17-1.16-2.23-1.51-2.18.07-.7-.72-1.89-2.85-.57-3.69a7.3,7.3,0,0,0,5,3.46m-1.94,5.66c-.54-1.19-2-1.34-3.37-1.55a1.45,1.45,0,0,0,.13-1.41c1.38.22,1.43,2,3.38,1.55.06.5.64.8.4,1.37.83.58,3,.35,3.31-.62.72,1.3,2.7,2.94,1.57,4.79a3.85,3.85,0,0,1-2.69-.74c.44,0,1.1-.46,1.69-.28a4.39,4.39,0,0,0-3.56-2,5.28,5.28,0,0,0-1.63,0c-1.31.43-.76,2.53-1.79,3.32-.5-.5.15-1,.29-1.42-.29-.65-1-.75-1.78-.89.67-1.31,3.39-.83,4.05-2.15m6.92-2.27c.69,0,.87.62,1.67.51-.13.46-.64.6-1,.92-.47-.22-.41-1-.72-1.43m.58,4.94c.25-.78,1.39-1,2.27-.86-.21.76-1.24.8-2.27.86m1.82-11.8a1.56,1.56,0,0,1-1-.4c.19-.88,1.06-1.15,1.5-1.81.34.91-.59,1.32-.54,2.21m.6-3.69c.15.15.09.56.13.84-.51.05-1.55,0-1.6-.74l1.47-.1m-1.63-20c.36-.64,1.88-.31,1.52.6-.79.12-.85-.59-1.52-.6m-1,25.66c-.29.83-1.5.37-2.3.4.22-1,1.37-.1,2.3-.4m.33-44.28c.09.34-1,.91-1.72,1,.06-.77,1.23-.58,1.72-1M139.93,95c.33-.11.82-.42,1.22-.24.25.79-.65.6-.53,1.28-.48-.06-.66-.46-.69-1m-1,5.29c.12-.5.58-.71,1.27-.72-.17.46-.81,1.41-1.27.72m.81,26.15c-1.69-2.36,1-4.07,1.37-6,.6,2.35-1.48,3.6-1.37,6m-.06,3.5-.05-.77c0-.22-.34-.12-.56-.12a3.79,3.79,0,0,1,.42-1.74c.4.59,1.86,2.41.19,2.63m-.53-17.61a2.29,2.29,0,0,1-2.08,1.39c0-1,1.48-1.13,2.08-1.39m-1.31-7.61a1.81,1.81,0,0,1-1.35.79c0-.42.29-.57.32-.95.44-.06.64.16,1,.16m-2.1-54.53c1.19-.49,1.45.82,2,1.33-.94.2-1.29-1-2-1.33m-.2,9.5c0-.24.09-.31.13-.48a2.17,2.17,0,0,1,.88.41c.3,0,.35-.34.61-.12-.17.57-1.27.51-1.62.19m-.36,18.15c1-.7.75,1.31,1,2-1.43.43-.17-1.66-1-2m.22,7.53c.5,0,.77-.72,1.13-.39a1.7,1.7,0,0,1-.91,1.38c-.13-.2.11-.84-.22-1m8.43,52.76c.19.2.08.75.15,1.08-.79,0-1.95-.19-2,.61-.62-.24-.31-1.54-1-1.72-.74.41-1.58,1.52-2.74.89.2-.6,1.14-.56,1.73-.82-.21-.86-.84-1.26-.79-2.43,1.13-.13,1.86.2,3,0-2.35.94-.53,3.67,1.65,2.37m2.13,17.2c.15.87.4,2-.72,1.91-.67-.58-.4-2,.72-1.91m2.17-.23c.14-1.05-1-.65-1.54-.91.9-1.13,2.14.39,3.43.15-1.56,1.28,1.07,2,.72,3.61-.83-1-1.82-2.14-3.76-1.53-.2-.94.89-.77,1.15-1.32m2.9-9.69c-1,.12-1.82.4-2.76.58-.1-.59,1.13-.94,1.76-1.45a1.47,1.47,0,0,0,.57-1.83c.81.26.59,2,.43,2.7M126.72,18.49c.32-1.3,2.08-1.34,3.79-1.44-.82.86-2.42,1.05-3.79,1.44m1-7.15c-.38.64-1.71.45-1.69,1.44a9.61,9.61,0,0,1-1.79,0,3.2,3.2,0,0,1,3.48-1.41m0,11.44c.78.11,1.09-.54,1.68-.35a1.6,1.6,0,0,1-1.54,1.27c-.16-.18-.09-.62-.14-.92m3.85-9.45c-.07-1,1-1,1.95-1.07a2.9,2.9,0,0,1-1.95,1.07m10.39-.49c.24.47-.5,1.3-1,1.62-.3-.81.39-1.35,1-1.62m-21-.32c-.77.13-1.2-.12-1.22-.85.66,0,1.11.23,1.22.85m32.43,130c.65.36,1.16,1.88.49,2.53-.78-.32-.29-1.63-.49-2.53m33.88-2.6-4.72.33-.75-10.84c-1.31-1.08-2.22.64-3.24.46-.34-1.5,1.92-1.29,1.71-2.29s-1.7.13-1.71-1c1.37-.21,2,.46,3.07.56-.24-3.44-.49-7-.73-10.53A106.7,106.7,0,0,0,179.75,105c.17.16.3,0,.22-.25s-.51.18-.55,0c0-.44.4-.43.49-.81a16.94,16.94,0,0,0-.27-3.79c-.26-3.82-.55-8-.8-11.46-.37,0-.59.75-.61,1.29-.57-.36-1.51.24-2.18,0,.87-.22,1.72-.46,1.63-1.2s-1.35-.85-2.39-.85c.23-.28.1-.88.22-1.26,1.09.45,1.55,1.62,3.21,1.41a12.46,12.46,0,0,0-.08-2.25c-.25-.09-.45.22-.54,0,.8-1,.32-3.17.19-5.07-.67-9.64-1.38-19.78-2-29.1-.81.1-1.4.76-2,.83a2.07,2.07,0,0,1-.13-.76,3.18,3.18,0,0,0,2.06-.61l-.54-7.74a1.5,1.5,0,0,0-1.46,1.42,2.51,2.51,0,0,0-3-1.27c-.65.31-.24,1.53-1.21,1.56,0-1.24,1.06-1.5,1.06-2.72.79,1,3.51,1.51,4.52.23l-.21-3.09c-.24,0-.66.14-.78,0a2.66,2.66,0,0,0,.75-.28l-.33-4.8c-.34-.2-.87-.17-1.12-.47l1.08-.08c-.32-4.19-.6-8.86-.94-13.46-.59.7-2.64.75-2.89,2-1.85-1.58-5.64-.91-8.77-.79.87-1.83,4-1.44,5.76-1,.87.2,1.62.78,2.32.85,1.67.16,2.12-1.09,3.57-1.19,0-.33-.05-.67-.07-1-.66,0-1.06.29-1.69.35.23-.63.93-.85,1.64-1l-.15-2.09c1.55-.38,3-.15,4.72-.33-.07-1.06-.14-2.12-.22-3.17-.71,0-.61.81-.44,1.43-1-.52-.11-2.4-.63-3.38-.27-.52-.72-.28-1.13-.7.36-.28,1,.07,1.31-.17.1.27.62.87.73.57,0-.77-.1-1.55-.16-2.32-.54-.66-1.41-.94-2-1.57,1.28.09,1-1.17,1.34-1.89.28.24.29.79.47,1.14-.13-1.91-.27-3.82-.4-5.73L152,2.1c.12,1.83.25,3.66.38,5.5,1.95,1.75,6.84.87,9.47.13l0,0h.07l-.1,0c-1.65,1.55-5.84,2.54-8.11,1.48-.39-.18-.61-.64-1.05-.55.15,3.09.17,6.07.41,9.23a35.73,35.73,0,0,1,3.64-.18c.1,1.37.19,2.74.29,4.11l.85-.06c.65,1.15.78,2.89,2.53,2.78-.87,1.34,1.1,1.76,1.44,2.77-.85-.64-2.62-.22-3.56-.76a1,1,0,0,0-1-1.64c.08,1.19.16,2.38.25,3.56a2.19,2.19,0,0,1,.94,1.26c-.26.3-.87-.15-.85.14q.44,6.07.85,12.15c.37.13.26.82.62,1-.54.33-.12,1.5-.16,2.26,1.58.13.62-2.32,2-2.16-.6,1.84.37,3.86.49,5.88,2.18-.12,1.19-3,3.28-3.18-.71,1.06-1.82,2.72-.87,4.33a7.09,7.09,0,0,0,1.39-.17c.38.62.23,1.85,1.36,1.62a2,2,0,0,0,.16,3.41c-1.86.07-3.79-.21-4.59-1.08.93-.45,1.33.35,2.19.08,1.48-.47.13-3.3-1.53-2.85,1.1-1.18-1.12-2-2.29-1.63-.33.24-.24.86-.54,1.13s-.54-.12-.61.19q.6,8.49,1.19,17c.21.79.73,3.4,1,3.83a.12.12,0,0,1,.09,0s0,0-.09,0-.35.53-.68.25c-.09-1.36-.19-2.72-.28-4.08-.06-.21-.1-.33-.09-.21-4.33-.84-10,.71-14.75.49-.38-5.53-.39-5.67-.78-11.19-.38-.9-2.5-1.09-2.71.11-.72-1.16-3.87-1.22-3.93.59-.32-.79.27-1.45.64-2s.68-1.38,1.3-1.42c0,.64-.65.41-.55,1s2.2,1.1,3.31.55c.48-.24.44-.59.8-.76.45.13.61.58.84,1,.25-1.34.81-4.47-1.44-4a6.59,6.59,0,0,1,1.44-.5c.59-.92-.37-1.57-1.28-1.54,1-.28,2-2,.83-2.7-.78-.47-2.16.38-2.39-.77a6.05,6.05,0,0,0,2.48-.17A2,2,0,0,0,143,43.87c.37-.35,1-.49,1.25-.94-.2-2.14-.21-4.5-.53-6.5,0,.37-.24-.25-.25-.29-.12-.5.17-.82.21-1.34a28.73,28.73,0,0,0-.28-4c-.27-3.93-.6-8.56-.85-12.15l3.18-.23c-.63-.68-1.77-2-3.26-1,0-.62-.35-.83-.63-1.13l-2.24.16c-2.49,2,3.73,4.26.67,6.33-1.15-.75,0-2.88-.81-3.83a2.33,2.33,0,0,0-2.2-.31c-1.92.55-2.09,4.33-4.35,4.42.6-1.53,2.29-2.12,2.68-3.84-3-.19-4,2-6.09,2.92.54-.82,1.67-1.12,1.7-2.38a23.79,23.79,0,0,0,4.19-1.22c1.3-.5,3-1.07,3.11-2.24a1.93,1.93,0,0,0-1.61-1.91c-1.12,0-1.32,1.74-2.7,1.51.68-1.11,1-2.54,1.61-3.69,1-.11.79,1.16,1.21,1.7.66.12,1.15-.23,1.76-.36a2.29,2.29,0,0,0,.33,1.3c1.61-.2,2.58,1,4.55.62.09-.62-.07-2.16.92-1.39,0,.51-.47.67-.46,1.2a2,2,0,0,0,1.84.73c.25-4.07-.4-8.92-.63-13.41L118.9,4.41c.37,4.57.55,9.35,1,13.77a1.49,1.49,0,0,0,.37-1.34,6,6,0,0,0,2-.84c.3-.25.44-.81.8-.91.91-.27,1.33.81,2.53.6-.75.73-2.72.4-3.59,1-.1,1.09.59,1.27.77,2-.42.09-.48-.22-.87-.17.09.54-.07.86,0,1.4a30.37,30.37,0,0,0,3.49-.17l.39,5.58a6.56,6.56,0,0,1,2.08-.31c.32.33.14,1,.18,1.47-.13.45.45.35.27.6-.79.06-1.19,1.18-1.72,1,.18-.66,1.3-1.53.23-2.35a1.76,1.76,0,0,1-1,.3c0,.7.09,1.4.14,2.09,1,.45,1.27,1.67,2.68,1.6-.65.36-.34,1.55-.79,2.08-.48-.16-.57-.79-.71-1.35-.33.06-.8,0-1,.15.53,2.42-.68,6.85,2.31,6.45-1.06,1.17,1,2,1.13,2.8a7,7,0,0,0-2.83-.51,31.82,31.82,0,0,0,1.31,7.69c-.26,0-.63,0-.77.13l.39,5.57c0,.18.32-.31.4.06-.62,1-.11,3.44,0,4.89a16.6,16.6,0,0,1,2.95-1.14,6.48,6.48,0,0,1-2.23,1.45c-.05,0-.08-.08-.17-.09a.88.88,0,0,1,0,.17c-.2.1-.41.2-.6.32l.19,2.7c2.44,1.89,2.25-2.85,4.14-3-.33,1.39-1.8,2.68-.85,4.49a3.08,3.08,0,0,0,1.39-.17c.22.45.19,1.18.49,1.52.12.26.68,0,.87.17a3.66,3.66,0,0,0-.89,2.87c.38.2,1.18-.07,1.5.2-1.32,1.13-4.13.14-4.73-.83.71,0,1.12.32,2,.17,1.07-.88.09-3-1.36-2.71a1.51,1.51,0,0,0,.1-.86c-.52-.83-1.61-1-2.58-1.29q1.91,27.43,3.83,54.87a5.22,5.22,0,0,1,3.43-1.09c.19.25-.13.58-.26.79a2.59,2.59,0,0,0-1.56-.12,3,3,0,0,0-.87,1c-.2,0-.72-.51-.71-.26l.33,4.72a2.56,2.56,0,0,1,1.69-.19c0,1.66,2.06,1,2.27,2.4-.6.27-1.32-.31-2-.25-.41,0-.52.35-.91.3a1.09,1.09,0,0,1,.69-1.14c-.45-.48-.7-1.19-1.77-1,.18.93-.09,2.38.43,2.92-.36,1.43.08,3.94.24,5.59,1.18.31,2.56-3,.27-2.75.45-.31,1.18-.38,1.25-1a5.16,5.16,0,0,1-.16,4.29c-.32.71-1.15,1.51-1.25,2.11a12.77,12.77,0,0,0,.18,2.71c.21,2.93.45,5.36.49,8.06l-5.34.37q.56,7.89,1.1,15.79L156.24,158a58.67,58.67,0,0,0-.93-11c-.2-.38-.73-.39-1.13-.54.38-.46,1-.44,1.1-1,0-.27-.23-.62-.3-1a7.78,7.78,0,0,1,0-2.26l-3.8.26c-.43-6.14-1-9.55-1.43-15.69a19.86,19.86,0,0,1-.26-3c-.71-10.89-1.64-22-2.22-32.74,3.1-.34,7.92-.4,11.46-.81a12.84,12.84,0,0,1,2.62-.41c1.06.14.69,2.18.84,3.13,0,.26.33.11.33.36,0,9.46,1.35,19.89,1.76,29.59a20.13,20.13,0,0,0,.26,3c.43,6.09.38,9.54.81,15.62l-3.64.26c.22,3.09.43,6.18.65,9.27a33.15,33.15,0,0,1,6.15-3.88,2.26,2.26,0,0,0-.68-.22c.2-.55,1-.6,1.66-.74a.78.78,0,0,0-.19.56c.76-.35,1.54-.67,2.34-1l-.86,0c.33-.83,1.75-.71,2.9-.82,0,.05-.08.07-.11.13l1-.35a4,4,0,0,1,.22-1.26,5.29,5.29,0,0,1,2.12.32c.49-.21.32-1,.52-1.44a4.12,4.12,0,0,1,2.13.32c-.35.5-1.07.69-1.48,1.14a47.64,47.64,0,0,1,9.26-1.05c-.07-.94-.13-1.9-.2-2.8M157.61,23.09a.69.69,0,0,0-.57-.42l.06.93c.28-.08.48-.22.51-.51M133.32,130.57h-.16a7.13,7.13,0,0,0,.19,1.62c.25-.39.69-1.42,0-1.63m86.53-18.46,0,0a.19.19,0,0,1,0-.08l0,0m56.46,4.3c0,.61-.65.66-1.12.87,0-.65.51-.79,1.12-.87m3,.19c.11,1.07-1.12,1-1.46,1.68.22.25.24.71.46,1-.55.07-.49.68-.93.85,0-1.58-1.58-.15-2.05-1a3.14,3.14,0,0,0,2.62-2.16c-.34-.7-1-.6-1.44-.69.34-.68-1.1-1.13-1.13-2.09.53-.41,1.14-.74,1.28-1.48a1.22,1.22,0,0,1,1.28,1.3c-.72,0-.93-.5-1.43-.69-.26.27-.14.86-.1,1.39,1.5.13,1.34,2.5,2.9,2m-5.78-.78c-.61.13-.9-.11-.85-.74a1,1,0,0,0,.58-.23,1.33,1.33,0,0,1,.27,1m6-4.57c.7,0,.52.5,1.19.11l0,.39c0,.13,0,.24-.18.21,0-.83-.71.19-1.18.09-.07-.37.19-.45.14-.8m.09-1.59c.46-.76.63-1.79,1.63-2.09a1.91,1.91,0,0,1,.13,2c-.41-1.1-1.66.42-1.76.12m2.37-8.47c.8.57.7,2.17,1.38,2.87-.66-.48-2.3-2-1.38-2.87m1.42,3.46c.73-.13.43.92,1.06.92a3.7,3.7,0,0,0-.3,1.4c0-.15-.18-.22-.41-.17a7.16,7.16,0,0,0-.35-2.15m1.3,10c.78-.37,1.82-.51,1.66-1.7-.2-1-1.19-.08-1.62-.48a5.29,5.29,0,0,1,2.1-1.13c0,.79.42,1.06.33,2,.6,0,1.29-.2,1.22.51-.79.55-1.18-.06-2-.06.06.56,0,1.29.31,1.56a1,1,0,0,0-1.56.31c.12-.64-.35-.59-.46-1m1,2.7c.13-.17,1.07-.52,1.19-.09-.29.25-.37.67-1,.66a.88.88,0,0,0-.24-.57m.68,1.13c.56.25,2.23.87,1.11,1.71-.21-.62-1.36-1.27-1.11-1.71m3.38.36c.27-.07-.31-1,.31-1.21-.08.67.75,1.39.32,1.76,0-.37-.66-.09-.63-.55m-15.13-35.5c-.51.25-1.11.23-1.22-.51.66-.12.86.29,1.22.51M273,88.58c-9.49.74-20.33,1.38-30.87,2.16,4.15-15.17,8.08-30.53,12.64-45.35.85,1,.55,3.16,2,3.81.85-.06.83-.88,1.51-1.09.48.75-1.14,1-1.05,2,0-.43-.2-.62-.63-.55,1.12,2.54,1.67,5.73,3.86,7-.49.25-.75-.8-1-.13.51,1.32,1.1,2.56,1.65,3.84.46,0,.55-.38,1.17-.28.23.94-.51,1-.68,1.63,1.5,3.16,2.8,6.55,4.24,9.78.34-.2.53-.66,1-.26.37.75-.85.12-.75.64.44,1.2.92,2.35,1.43,3.46.6,0,1.29-.21,1.22.51s-.76-.45-.77.25c1.21,3.07,2.17,6.43,4.16,8.6-1.17.66,1,2.37.86,3.89m-1-8.43c-.61.14-.59-.45-.84-.73.61-.13.89.11.84.73m-.72-1.73c-.21-.38-.45-.75-.67-1.13.72-.32,1.1.83.67,1.13M266,67.73c.16.73-1.42.38-1.39-.1.58.27.82-.29,1.39.1m-.92-1.91c-.72,0-.91-.52-.89-1.33a.91.91,0,0,0,.58-.23,1.67,1.67,0,0,1,.31,1.56M253.92,42.09c-.8.53-1.83.87-2,1.92.61.24.52,1.4.13,1.77a25.85,25.85,0,0,0-1.54-5c.84.17.72,1.44,1.68,1.46.43-.05,1.68-1,1.77-.12m-1.34-2.28c-.46.17-1.33.93-1.53.7.27-.32,1-1.19,1.53-.7m-.94-2.1c-.28.12-.48.32-.76.44,0-.37-.25-.41-.25-.77.36.09.82,0,1,.33M249.31,44c1.24.28,1.38,1.82,2.71,2a27.54,27.54,0,0,0-1.11,3.83c-.37.07-.45-.19-.8-.14.76-.74.13-1.87,0-2.37.1.59.85.3,1-.07.28-1.95-1.82-2.29-1.81-3.24m1.48-1.48c0,.87-1.5.14-1.6-.28.66,0,1,.87,1.6.28m-.6-11.42-1.18.08c-.16-.78,1.12-.37,1.18-.08M249.52,30c-.51-.32-1.31.54-1.42-.49.5.13,1.36-.15,1.42.49m-2.6-.41c.55.05-.23-1.06.32-1,.56.32.42,1.59-.32,1m.12,1.77c-.64,0-.79-.51-.87-1.13.63,0,.9.39.87,1.13m-.58,5.77c-.15.3-.25.64-.75.65.23-.78-.61-1.4-.12-1.77.07.62.77.53.87,1.12m.15,10.66c-.4.14-.71.4-1-.13.46-.09,0-.94.74-.84-.13.57.31.49.26,1m2.53-9.07c-.38,0-.42.25-.77.25-.4-.28.22-.78-.28-1.16.75-.16.52.81,1,.91m-2.07-7c.58.83,2.55,1.17,2,2.63-.42-.9-2.37-2.18-2-2.63m0,4.95c.47.3,1.4.09,1.81.46-.28.13-.47.33-.76.45.08-1-.7.31-.81-.34.56,0-.93-1-.24-.57m.47,12.41a.77.77,0,0,1-.49,1.42,11.84,11.84,0,0,1,.49-1.42m-.78-2.71c.75.16.61-.46.94-.66a1.11,1.11,0,0,0,.25.77c-.35-.08-1.13.32-1.19-.11m-.88,7.18c.14.76.47,1.3,1.46,1.08,1,1.73,2.3,2.42.5,4.31,1.45-3-2.19-3.7-2-5.39m-2.42,10.64c.24.22.59.32.46,1-.83.36-1.12-.82-.46-1m.7,4.3c.52-.6,1.4.38.64.74-.21-.25-.55-.35-.64-.74m.4,2.93c-.42,0-1.38-.36-.84-.73.09.46.94,0,.84.73m.84-13.49a1.67,1.67,0,0,0,1.19.11c-.56,1.07-2.65.44-1.84,1.91l-1.18.08c-.12.7-.75,1-.46,2,.71.28,1.46-.44,1.63.68-1.46-.21-2.71.61-3.38-.36.23-.4,1.07.32,1.15-.48-.09-1,.25-1.37-.33-2,1,0,1-1,1.26-1.67,0,.43.21.62.63.55,1.67-.64,0-2.94.73-3.8a5.31,5.31,0,0,1,.6,2.92M245,33.62c-.48.23-1.64,1.11-1.95.34.62,0,1.43-.84,1.95-.34m-.35-2.15c-.83.51-1.3-.36-2.36.17a7.14,7.14,0,0,1,0-2.77l.59,0c-.73,1.69,1.16,1.81,1.76,2.64m-2.43,13.22c.32,1.05.85.12,1.58.08a1.78,1.78,0,0,0,.1,1.38c-.55-.14-1.38,0-1.8-.27,1-.12-.64-1.46.12-1.19m1.8,3.23c-.91-.09-.93.75-1.12.87-2,1.23-.08-2,1.12-.87m-1.59-11.55c.45.12.48.51.86,1.13-.26,0-.68.71-.77.25.58-.34-.22-.85-.09-1.38m1.26,3.87c-.3-.89.2-2,.88-1.45-.7.13-.19,1.31-.88,1.45m.69,1.53c-1.2-.06-.33,1.68-1,2-.52-.8.28-2.5-.58-2.73a4.13,4.13,0,0,1,1.15-.47,4.77,4.77,0,0,0,.47,1.15M242.2,55.36a.88.88,0,0,1-.33.82c.14-.73-.9-.11-.85-.74.61-.14.8.38,1.18-.08m-.65-23.47c-1.22.93.72,2.7-.54,3.6-.36-1.84.16-3.26-.71-4.5.85-.2.62.85,1.25.9m-1.65-1.07c.08.61.69.62.68,1.34-2.05-.16-3.67-1.34-5.53,0,.25-1.29-1.5-1.39-1.14-2.1a3.19,3.19,0,0,0,1.87,1.26c1.25-1,2.46.07,4.12-.49m-6.42,4.4c1.13-.16,2.3-1.94,3.29-1-1.47-.11-1.74,1.8-3.29,1m-.16,3.37a13.62,13.62,0,0,0,2.7-1c-.66,1.59-1.35,2-2.12,3.51.16-.87.25-2.24-.58-2.53m1.25,3.67c0,.47-.26.76-.1,1.39-.86,0-1.22.14-1.59-.09.87-.42-.33-.88.11-1.19.42.91.88-.18,1.58-.11m-1.89,4.08c.67-.23,1.37-1.93,2.11-.93a2.41,2.41,0,0,0-1.51,1.09c-.07-.7-.62.46-.6-.16M231.74,33c.43-.52-.81-2.15,0-2.77.4.5,1,2.52,0,2.77m-.37,8.72c-1.15.5-3.33-.33-3.21,2.2.81.44.32,2.12,1.74,2.25-.84.19-1.13-.26-1.61-.48-.27-.6.12-1.1-.69-1.33-.41.32-1.47.08-1.53.7s.42.59-.14.8c-.81-.31-1.6,1.26-1.45,1.88.53.7,1.48-.4,1.62.67-1.53.34-1.71-.2-2.93.41.1-.55-.42-.37-.45-.76.73.06,1.07.16,1.35-.49-.15-.66.19-1.07-.33-1.95.85,0,1-.62,1.09-1.27.6-.19.42.52,1,.33.86-1.06.58-2.31.14-3.77,1.56.3.06,2.89,1.59,3,.27-1.74,1.42-2.7,1.25-4.83l.58,0c0,.65-.26,1-.07,1.79.63.33,1.44.47,2,.84m-.88-6.85-1.18.08c0-.55-.35-.65-.61-.35-.06-.54.29-.42-.06-.79.74.21,1,.93,1.85,1.06m-1.36.29c0,.39.05.79.08,1.18l-.39,0c-.22,0-.32-.2-.42-.37.67.2.44-1.31.73-.84m-.8,5.59c-.72-.09-1.58-1-.89-1.52,0,.87.52,1.1.89,1.52m-.11-7.31a1.26,1.26,0,0,1-1,.27c0-.63.37-.91.49-1.42.24.42,0,.66.48,1.15m-2.77,0c-.52.48-1.38,1.62-2.08,1.33.85-.31.82-1.38,2.08-1.33M225.36,32a3.54,3.54,0,0,0-1.59-.09c0-.76.71-.86,1.52-.9,0,.33,0,.66.07,1m-1.53,9.19a.91.91,0,0,1-.34.82c-.06-.51-.79-.23-.84-.74.73,0,.57.19,1.18-.08m-1.49-1.47a1.58,1.58,0,0,0-.72-1.73c-.22.48-1.53,0-1.53.7.14-1.53-1.58-.56-1.82-.67.37-.41.58-1,1.1-1.26.52,1.91,2.6.44,3.21.76-1,.5.9,1.61-.24,2.2m-1.55-5.23c-.61-.15-1.36-.14-1.63-.68.12,0,.23-.05.18-.21s0-.23.18-.21c.06.79.86.71,1.27,1.1m-2,10.42c-.49.06,0,.67.05.78-.79-.29-1.17-1.06-1.69-1.66a6.44,6.44,0,0,1,1.64.88m-1.86,4.47a1.31,1.31,0,0,1,1,.13c.45.45-.38.9-.71,1.24a1.09,1.09,0,0,1-.29-1.37m.36,5.12c.69.08.41,1.6-.5,1.42,0-.65-.18-1.39.5-1.42m.35,41.87c.65,1,0,2.17,1,2.89-.52,0-.48.45-.54.83a1.82,1.82,0,0,1,1,.72c-.23.41-1,.34-1.12.86h0c.2,0,.26.32,0,.39,0-.12,0-.26,0-.39h0c-.07-1.21-.29-2.88-1.6-3,1.1-.16.46-1.82,1.22-2.26m-1.08-38.07a1.08,1.08,0,0,1-1.05-.91c.55.07,1.12.13,1.05.91m-1.34,3.46a.75.75,0,0,1-.84-.74l.79-.05c0,.26,0,.52.05.79M214.57,53c.17-.52-.67-.9-.09-1.18.38.3.62.84.09,1.18m-.64,13.48c-.47-.73-1.61-.7-1.71-1.86.77.26,2.28.77,1.71,1.86m-1.81,19.29A2.2,2.2,0,0,1,213.2,87c-.94.41-1.43-1.63-1.08-1.31m-.42-11.63c.08.59-.68.72-.12,1.2-.63.16-.92-.07-1.39-.1,0,.39-.52.29-.34.81,0,.68.64.55.86.93-.68-.27-1.43.16-1.78-.07.77-.27.11-1.39.06-2,1.2.54,2-.33,2.71-.79m-.15-2.16c-.3-.09-1,.3-1-.13.64.13.37-.54.74-.64,0,.37.26.42.26.77m-1.3,1.28c-.86.2-1.25-1.24-.91-1.72.09.4.75.14.83.54-.55.35-.19.75.08,1.18m-.55,14.66c-1.56.63-2.45-.93-1.57-2.66,1,.27.82,2.46,1.57,2.66m-1.93,17.72c-.09.84-.68,1.26-.84,2a1.07,1.07,0,0,1,1,.91c-.45-.32-1.27.11-1.39-.1-.31-1,.21-2.23-.61-3.12.56.13,1.23.15,1.79.27M207.15,91l-.39,0c0,.12,0,.23-.19.21-.07-.36-.78-1-.29-1.36.17.51.62.71.87,1.12m-1.54-5c.31-.1.13-.63.76-.45.41.63-.65.88-.76.45m-.24,2.19a3.29,3.29,0,0,1,.7,1.53c-1-.6-.39.89-1.32.89-.18-.9.59-1,.89-1.45-.08-.23-.85-.69-.27-1m-.87,18.64c-.41.78,0,1.26-.26,2a1.11,1.11,0,0,1-.8-.14,6.13,6.13,0,0,0,.47-1.81l.59,0m-.16-2.36a5,5,0,0,1-1.86-1.06c.45-.35-.19-1.64.89-1.44,0,.46-.26.76-.1,1.39.54.16,1.14.25,1.07,1.11m-1.74,3.48c-.38.46-1.16-.18-1.33.69.19.7.92.78.72,1.92-1,.26-.59-1-1.44-.89-1.52,0-.79,2-2,2.32a6.57,6.57,0,0,1,1.93-3.5c-.18-.29-.65-.25-.65-.74,1.06.38,2.18-.65,2.78.2M199,121.22a1.56,1.56,0,0,1,1.37-.09c.27.5-.29,1.18.09,1.18.63-.16.92.07,1.39.1.3.65.13,1.77-.65,2-.36-.65-.23-1.86-1.49-1.48.24-1.12-.57-1-.71-1.73m3.23-1.8c.13-.17,1.07-.52,1.18-.09-.6,0-.12,1-.72,1-.22-.24-.24-.71-.46-1m.11,4.34a2.34,2.34,0,0,1,1.83.86c-.42.21-1.73-.05-1.83-.86m1.57-.11c0-.47-.38-.56-.28-1.17,1-.22.94-1.4,1.65-1.89-.1,1,.64.91,1.29,1.49-.36,1-1.88,1-2.66,1.57m-.53-10.44c0-.48-.39-.4-.27-1,.26-.08.36-.31.77-.25.25.51.23,1.11-.5,1.22m2.48,4.37c0,.83-1.29,1.47-1.69,1.31.43-.06,0-.84.11-1.2-.48-.07-1-.09-1-.72.29.26,2.82.6,3.33-.43.06-.7-.23-1-.67-1.13-1,.5-1.65,0-2.4-.43a13.83,13.83,0,0,1,2.58.22c.17-.84-.08-1-.32-1.76,1.07-.42.51-1.72,1-2.25.09,1.4,1.87.83,1.94,2.24a3.39,3.39,0,0,1-.54.83,4.12,4.12,0,0,0-.68-1.34c-.62,0-.64.55-.72,1,.63.71.38,1.63.18,2.56.31.21.89.11.84.73-.38.62-1.22.42-2,.33m1.63,6.41c.52-.49-.08-1.28.87-1.64.21.67-.24.77-.1,1.39a4.3,4.3,0,0,0,1.22.51c.06.53-.3.42.06.78-.86-.14-1.28-.79-2.05-1m2.15-.35c.51-.09.85,0,.83.54-.51.09-.85,0-.83-.54m.12-12.46c0-.51.47-1.54.91-1.05-.64.06-.06,1.18-.91,1.05m1.16,2.49a.91.91,0,0,1,.15-.6l.4,0c-.16.75.45.61.66.94-.27,0-.16.36-.37.42.05-.62-.23-.86-.84-.73m1.42,9c.15.75.72,1,.91,1.72-.39,0-.22.55-.76.45a4.9,4.9,0,0,1-.15-2.17m1.14-.67c-.29.12-.48.33-.76.45-.29-.23-.37-.94.13-1,0,.46.58.18.63.55m1.7-32.13c-.57-.65-1.09-.06-1.63-.68.26,0,.16-.36.37-.42.45.33,1.32.18,1.26,1.1m-.09-21.14c0,.52.19,1.15-.31,1.21.09-.42-.42-1.35.31-1.21M215,79.39c0,.3.12.73-.14.8-.11-.37-.77-.1-.64-.74l.78-.06m-.64-3.51c0-.23-.32-.19-.6-.15a1.15,1.15,0,0,0-.25-.78c.68-.27,1.09.85.85.93m-.55-5.1.59,0c.06.49.1,1-.33,1a1.28,1.28,0,0,1-.26-1m-.13,20.76c-.69-.05-.65.54-.93.86-.07-.7-.62.46-.6-.16a.94.94,0,0,0,.5-1.22c.51,0,.72.31,1,.52m-2.46-1.21c1.08.14.79-.91,1.72-.91-.22.37,0,1.15-.3,1.4,0-.74-1.23,0-1.42-.49m-.46,16c-.12-.38.86-.7,1-.27-.29.08.27.82-.32,1,0-.52-.78-.1-.65-.74m1-5a3.4,3.4,0,0,1,.74-3.42c-.54,1,.58,1.1,1.1,1.51-.8-.26,0,.85-.54.83-.15-.46-.33-.9-.85-.93-.74.57.28,1.55-.45,2m.37-8.73.07,1c-.78.25-.87-1.12-.07-1m1.69,1.47c-.19.92-.59.94-.47,1.81-.73-.42-1.4.36-1.8-.27.37,0,.09-.66.55-.63.69.52,1-.82,1.72-.91m.72,13.19c-1.28-.16-.38-2.15,0-2.57a4.94,4.94,0,0,0,0,2.57m-2.08,4.1c.55-.26,1.38-.28,1.94-.54-.13.57.31.5.26,1-.92-.24-.3.85-.93.86-.46-1.09-1.49-.6-2.42-.82,0-1.51-.8-2.06-1.21-3.08,1.31.27.85,2.57,2.36,2.61m-2.59-6c-.11-1.11-.85-2.21-.2-2.75.13.62.92,2.14.2,2.75m-1.38-16.9c.25,0,.25-.27.57-.24a3.83,3.83,0,0,0,.86.93,4,4,0,0,0-1.14.67c.06.25.33.39-.17.41-.09-1,.13-1-.12-1.77m-.36,11.88c-.36-.74.61-1.27.85-2,0,.46.06.92.1,1.37-.75-.15-.26.76-1,.66m.45-7.74c.55.11.37-.41.76-.44-.06,2.1,1,3.48-.22,5.35-.23-2,.32-3.25-.54-4.91m.56,16.57c.7.2.6,1.67-.28,1.6a1.46,1.46,0,0,0-.43-.57c.09-.47.2-.93.71-1m-.85-.93c.93.19.84-.5,1.13-.87,0,.12,0,.23.21.18s.23,0,.2.18c-.64.19-.85.74-1.09,1.27,0-.4-.56-.22-.45-.76m7.19-24.42c-.08.4,1.11.38.44.76-.05-.36-.67-.07-.81-.34-.08-.86-.11-1.69.45-2,.91.63-.43.47-.08,1.58m-2.45,35.74c.46-.09.14-.87.53-1,.48,1.1,2.51.38,1.89-1.12a.86.86,0,0,1-.81-.34c.45-.36,1.5,0,2.18,0-.13,1.48-1,1.78,0,3-.47.11-.46-.33-1-.13,0-.49,0-1-.46-1-.7.13-.35,1.17-1.1,1.26.33-1.09-1.09-.17-1.24-.71m3.14-14.44c-.18-.89.39-.84.95-.66.06.55-.45.6-.95.66m.77,11a.42.42,0,1,1,.06.79l-.06-.79m.52-4c-.55-.8.47-1.62.83-2.23a2.44,2.44,0,0,1-.83,2.23m.26-7.53c.52,0,.1-.77.75-.64.34,2,.84,3.87-.22,5.35-.21-1.49.59-3.61-.53-4.71m2.06,7.42a1.76,1.76,0,0,1-.24-1.22c.77,1,.88,2.67,2.18,3a12.85,12.85,0,0,1,2.14-.55c.14,1-.55,1.25-.86,1.84-.54-1-1.09-.86-2.23-.83a6.61,6.61,0,0,0-1-2.22c-.17.56-.19,1.25-.66,1.54-.44-.51.36-1.08.64-1.57m.1,3.7c.37,0,.42-.26.77-.25.12.64,1.1,1.26.07,1,.61-.44-.91-.21-.84-.73m1.81,9c-.08-.44,0-.74.34-.81.08.4.75.13.83.53-.47,0-.56.38-1.17.28m.61-2.61c.44-.11-.1-1.08.52-1,.42.91,2.27.41,2.12-.74,0-.67-1-.23-1-.91a11.47,11.47,0,0,1,2.19.24c.12,1-.49,1.42-.84,2a1.07,1.07,0,0,1,1.05.91c-1,.2-1.17-.64-1.66-1.07-.58.17-.48.93-.9,1.25-.21-1-.93-.38-1.43-.69m4.23-7.41a1.06,1.06,0,0,0-.26-.77c.85,0,.75-1.68,1.3-1.28-.19.41-.07.66.09,1.38-.89-.22-.46.7-1.13.67m1.73,2.25c-.09.82.38,1,.32,1.75-1,.22-1-1.42-.32-1.75m-.81-25.83a1.71,1.71,0,0,0-.14-2c.52,0,1.15-.19,1.2.31-1,.61.41,1.14.52,1.75-.74.18-1-.74-1.58-.09m1.23-2.06c.72-.06.85-.63,1.32-.89.11.61-.38,1,.1,1.38-.44-.2-1.27.05-1.42-.49m1.1,15.73a4.8,4.8,0,0,1,1.5-1.29,12.88,12.88,0,0,1-.11,1.39c-.38.08-.4-.24-.61-.35a1.11,1.11,0,0,0-.78.25m.18,2.55c.23-.07.42-1.07.76-.44-.58.17.22.4.06.78-.45.09-.75,0-.82-.34m.09,9.68c.44-1.71-.67-3.83.85-4.8,0,.49-.33.63.06,1,.21,0,.51.06.21.19-1.17-.43-1.1,2.51.19,2.55-1.14-.39-.47,1.29-.85,2,.23-.77-.57-.34-.46-1m.11-6.92c.49-1,2.14-2.49,3.06-1.4-1.48-.37-1.35.66-1.46,1.68a1.1,1.1,0,0,0-1.6-.28m1.87-7.05c1-.19,1.62.47,2.08,1.44-1-.57-1.66-.46-2.08-1.44m1.74-45.77c-.41.26-.3,1.94-.67,1.63.35-.75-.13-1.09-.32-1.76.29.09,1-.3,1,.13M232,52.92c.36.08.83,0,1,.32-.25,0-.15.36-.36.42,0-.52-.78-.1-.65-.74m-.19,11.27c-.55-.37,0-1-.66-.94a4.14,4.14,0,0,0,.47-1.61,2.45,2.45,0,0,1,.19,2.55m-1.88,4.29c-.28.68-.06,1.79-.85,2,.23-.73,0-1.84.85-2m0-14.23c-.06.71.63.55,1.23.5-.2.51.19,1.53-.48,1.62.12-.93-1.58-1.77-.75-2.12m.35,4.91c.69-.08.88.41,1.23.71-.8.21-.78-.52-1.23-.71m.1,32.6c.32.35,1,.23,1.05.92-.59.13-1.35-1.39-1.05-.92m.37,8.08a5.73,5.73,0,0,1,1.09,1.5c-.73.06-1.56-.88-1.09-1.5m1.41,6c-1-.42-.66,1.25-1.35.49.57-.12.32-1,.7-1.24.09.4.56.35.65.75m-.19-16.79c.77-.3,1.15.93,1.06.92a1.4,1.4,0,0,1-1.06-.92m1.56,5.23a.74.74,0,0,1-.85-.73l.79-.06.06.79m.26-18.79c-.15,0-.22.18-.17.41L233,76a.94.94,0,0,0-.23-.58c.29.09,1-.3,1,.13m-.22-8.88a.91.91,0,0,0-.58.24c-.07-.41-.45-1.36-.08-1.18,0,.62.56.48.66.94M232,59.83c.35-.4.37.09,1-.07.06.44-.59,1.19-.74.84.59-.24-.26-.51-.25-.77m.77,25c.06.48.1.95-.33,1a1.3,1.3,0,0,1-.27-1l.6,0M231,78.67c.52.46,2.37,1.19,1.33,2.08-.12-.91-2.33-1.22-1.33-2.08m3.17,19.94c-1,0-.61-1.56-.15-2.16.5.7-.49,1.2.15,2.16m-6-24.08a1.17,1.17,0,0,1-.1,1.39c.12-.5-.81-1.32.1-1.39m.12,13a12.89,12.89,0,0,1-.73-1.93,2,2,0,0,1,1.22.51c-.93.22.41,1.25-.49,1.42m-.33-30.21c-.77-.32-1.17-1.07-1.7-1.66.92.39,1.64.78,1.7,1.66m-1.82-6.2c.06.22.24.29.42.37-.06.38,0,.85-.53.83,0-.7-.06-1,.11-1.2m.29,9.86c.09.4.88,0,.83.54-.27.07-.19.44-.35.61-1.06.21-1.2-.82-.48-1.15m.17,5.13c.35.32.38,1.42-.3,1.4s-.29-1.34.3-1.4m.56,36.32c-.47-.31-.53-1.09-1.26-1.1.47-.69.41-1.85,1-2.44.67,1,.15,2.15,1,2.9-.52,0-.47.44-.53.82.58,0,.76.4,1,.72a1.6,1.6,0,0,0-1.1,1.26,4.75,4.75,0,0,1-.15-2.16M227,107c.36,0,.6-1.05,1-.46-.41,1.62.91,3.66-.42,5.36-.2-1.9.55-3.75-.54-4.9m-.38.23c-.58,0-.57.48-1.15.47-.07-.37.19-.45.14-.8.36.08.83,0,1,.33M225.3,51c-.7,0-.86-.36-.66-.94.37-.07.45.19.8.14a1.11,1.11,0,0,1-.14.8m.35,19.14c-.39-.27-1.41-.91-.9-1.52,0,.88,1.12.42.9,1.52m-.11,18.19a3.64,3.64,0,0,1-1.25-.9c.6.09,1.16.23,1.25.9m-1.09-15.53a.85.85,0,0,1-.34.81c-.21-.25-.55-.35-.64-.74l1-.07m-.39-8.47c-.48.17-.89-.79-.46-1,.11.45.9.47.46,1M222.46,50c.79.77-.13,2.68,1.39,2.87-1.16.29-.11,1.45-.64,2.22-.65-.76-.29-1.57-.38-2.74-1.17-.34-.65-1.49-.37-2.35m-.32-1.75a1.09,1.09,0,0,1-1-.92c.69-.08.67.65,1,.92m-1.59-5.82c0,.8.94.61,1.45.89-.68.08.12,1.45-.69,1.43.29-1.37-1.11-1.28-.76-2.32m.21,14.21c-.24.79-.07,1.92-.84,2.24a2.12,2.12,0,0,1,.84-2.24m-1,30.31c0-.71.77-.69.9-1.25.48.4-.11.68.1,1.38-.55.2-.53-.24-1-.13m3.14-.42c.51-.09.66.23.64.75-.51.1-.66-.23-.64-.75m.63,23.28c-.37-.16-.44-1.61.09-1.59.19.18.67,1.67-.09,1.59m.73-6.57c-.23.77-.55,1.18-.47,1.81,0-.48-.38-.4-.26-1,.29-.24.44-.6.73-.84M224,92c-.09-.4-.56-.35-.65-.75.4-.7,1.24.37.65.75m-.41-8.67c-.61.13-.66-.38-.66-.94,1-.12.67.23.66.94m-1.09,15.49c-1,.13-1.07-.9-1.49-1.48.88.05,1.08.89,1.49,1.48m-.45-40.28c.38,0,.79-.69,1.31-1.08,0,.32.05.65.07,1-.79-.34-1.16,1.1-1.38.1m1.31,18.68a1,1,0,0,1-.33,1c-.24-.78-1-1-1.67-1.27a.9.9,0,0,1,.34-.81,4.18,4.18,0,0,0,1.66,1.07m-1,25.36a1.36,1.36,0,0,0-1.8-.27c.18-.64,1.2-.55,1.29-1.27.2.48.74.57,1.05.91-.72-.25-.07.68-.54.63M220.93,110c-.1-.45-.19-.91-.84-.73-.41-.86,1-1.06,1.12-.87-.83.06.39,1.17-.28,1.6M220,88.73c-.8.28-.79-.36-1.4-.3-.22,0-.29.31-.39,0,.77-.28.08-1.35-.13-1.77.61.34.95-.33,1.21.31-1,.65.32,1.39.71,1.73M218.92,64.3c.11-.75-1-1.2-.11-1.57a1.06,1.06,0,0,1,.11,1.57M219.38,85c-.86-.08-.8-1.21-1.12-1.9.48-.06.63.27,1,.33-.26.64,0,.87.11,1.57m12.28-33.47c-.23-.36.07-1.5-.71-1.73-.93.26-1.1,0-1.75.52,0-1.16-1-.91-1.61-.48a1.47,1.47,0,0,1,1.1-1.26c.43,1.4,2.1,1,3,.38-.51,1.08.77,1.64,0,2.57M233.56,90c.81.06,2,.82,1.86,1.25A6.2,6.2,0,0,1,233.56,90m.38-34c.53,0,.1-.78.75-.65a.89.89,0,0,0,.24.58c-.51-.22-.78.63-1,.07m1.15,16.32c-.16.06-.22.18-.18.41-.38-.27-1.41-.91-.89-1.52,0,.79.95.47,1.07,1.11m.43-2.2c-.8-.18-.45-1.64.5-1.42,0,.65.18,1.38-.5,1.42m.22-5.35c-.28,0-.35-.31-.62-.36,0-.94.83-.88,1.35-.49a.74.74,0,0,1-.73.85M237.4,77a.79.79,0,0,1-.12,1.19c0-.33-.72-1.2.12-1.19m2.89-37.75c.26,0,.16-.36.36-.42.09.4.56.35.65.75-.48.06-1,.1-1-.33m.37,2.54c-.41-.3-1.45.12-1.79-.27.53-.25,1.46-.27,1.79.27m-3.42-3.71c.42.24.19-.56.33-1,1.11,0,.92-1.17,1.67-1.5.17,1.24-1.75,2.44-.13,3.76-.87,0-2-.85-1.87-1.25m.64,3.51c-.79.07-1.16-.36-1.81-.46.94-.71,3.37.18,2.3,1.81.53.67,1.6.71,2.26,1.23-1.15.24-3.63-.11-3.19,2.39.54.27,1.54-.46,2,.26-2.18-.74-1.59,1.63-.27,1.8-1.93.24-1.27-1.52-2.49-1.81-.12-.52.88-1.57-.29-1.36.05-.69.46-1.08.67-1.63.06.3,0,.74.25.78a3,3,0,0,0,.58-3m-.7,18.23c-.51-.48-1.82-1.15-1.51-1.87.49.88,1.63.8,1.51,1.87m-1.81-6.2c0,.22.24.3.42.37.06.49-.26.64-.54.83,0-.7-.06-1,.12-1.2m1.47-1.48a4.92,4.92,0,0,1,.9-1.25A2.15,2.15,0,0,0,238.81,52,3.46,3.46,0,0,0,241,51.5c-.62,1,1,1.84-.23,2.38a1.19,1.19,0,0,0-.51-1.54c-.81.24-1.38-.13-1.72.71.11-.77-.39-.83-.68-1.14-.67,0-.7.43-1,.27m1.66,29.33c0,.46-.14.86-.52,1-.08-.56-.1-1.07.52-1m.05,9.28c0-.51-.06-1.67.71-1.23-.51.17-.11,1.13-.71,1.23m.58-20A3.68,3.68,0,0,1,238.5,73c-.41-.63.1-1.81.63-2.22m.57-11.7c.17-1.33-.58-1.6-.95-2.3.62,0,.91,1,1.6.28-.14.75.06,1.78-.65,2m.66,6.68c0-.62.74-.59.5-1.42-.11,0-.24-.15,0-.2.86.35-.28,2.87,1.59,2.86-1.41.2-.33,1.4-.84,2.23a2.1,2.1,0,0,1-.15-2.17c-.63-.11-.38-1.26-1.08-1.3m.12,7.3c.26-.63.87-1,1.28-1.47-.09.35.32,1.14-.12,1.19-.48-.7-.49.54-1.16.28m28.68,17.36c-.8-.4-.71.29-1.56.31-.21-1.23,1.35-1.19,1.56-.31m22.62,26.68a1.28,1.28,0,0,0,2,.84.91.91,0,0,0,.24.58c-.44.56-1.71,0-1.95.33,0,.11-.15.24-.2,0,.4-.49-1.07-1.06-.12-1.77M278,91.79c.2-.56.51-.73.1-1.39-9.41-21.19-18.42-42.83-28.16-63.64L217.24,29q-12.92,47.24-25.59,94.67l-5.5.39c.2,1-.08,2.64.42,3.33,5.07-.44,10-.54,14.35-1.2a1.1,1.1,0,0,1-.8-.14c-.3-.93,2.53.93,4.55.07.46-.81-.63-1.85.45-2,.71.46-.33,1.52.92,1.92l8.85-.62c.51,0,.62-1.89.93-.86-.17.07-.46.91-.14.8,3-.41,7.36-.38,11.41-.79.06-1.14-.38-2.73,1.76-3.09-1.75.77-1.26,2-.58,3,.52-.16,1.57.14,1.75-.32-.42-.29-1.3-.06-1.61-.48a7,7,0,0,1,2.58.22c.46-1.09.36-2.65,1.78-2.89,0,1.2-2,1.38-1,2.83,3.09.54,8.7-.37,13.4-.54-.2-1,.07-2.64-.43-3.33l-10.62.74c.69-1.21-1.21-1.16-.56-2.33.92-.42.67.5,1,.72,1.14-4.49,2.2-8.95,3.44-12.89-.1-.37-.9.05-.64-.74.33-.6.75.61,1-.27.84-4.16,2-7.11,2.78-11.06l25.17-1.76c.56,0,.54-.53.53-1,1.63,1.7,4.82.3,7.73.45.32,1.42,1.27,4.09,3,3.74,0,.94-1.61.44-1.69,1.3,2.64,12.72-3,21.39-15.65,22,.2,1-.07,2.64.43,3.33,5-.56,13.34-.47,16.3-1.53-.62.26.23.55.61.35,5.75-.48,12.11-.82,19.05-1.33l-.26-3.67c-4.22-1.88-7.11-5.51-9.71-9.27a63.14,63.14,0,0,1-7-12.94,5.56,5.56,0,0,0-1.27-1.1c1.16.15.14-1.75-.46-1M331,64.66a2.5,2.5,0,0,1-.05-.29c0,.17,0,.25.05.29M335.18,40c.15-.37.52-.54.31-1.21.76.11.4,1.28-.31,1.21m-.37-2.55c-.23.65-.14-.79-.63-.54,0-.51,0-1,.52-1-.36.41-.05,1.13.11,1.57m-.27,1.8c0,.35-.21.43-.14.8l-1,.07a1.11,1.11,0,0,0,.15-.8c.23,0,.19.35.23.58.53,0,.1-.78.75-.65m-.86-.93a.56.56,0,0,1-.46-.95,1,1,0,0,1,.46.95m-.49,1.42c-.47.46-1.27-.52-1.64-.87.55-.55,1,.79,1.64.87m-.56-2.33c-.54.54-1.21-.59-1.27-1.3.74.07.5,1.27,1.27,1.3m0,3.16c-.82.66-1.66-.48-2.41-.62-.37.37-.07.81-.58.23-.63.64.37,1.78-.66,1.83-.07-.72.48-1.45-.14-2,.12-.18.63.42,1-.26-.58-.37,0-.74-.66-.94.25-.54.78.36.85.73,1.38-.25,1.4,1.07,2.63,1M329.1,60.35c.58.39-.39,1-.7,1.24.29.79.76.06,1.18-.09.36.66-.64,1.57.3,1.56a7.94,7.94,0,0,1-1.35.49c.17-.47.34-.94.92-1-.91-.18-1.7,1-2.91.8-.09-.88.66-.56,1-.27.55.11.37-.42.76-.45-.42-.23-.34-1-.87-1.12a10.67,10.67,0,0,0,1.7-1.11m-.8-.14c-.42.19-1.47,0-1.52.9-.86-.38,1.37-1.58-.3-1.56.21-.55.27-1.24.88-1.45-.19.47.08.52-.32,1,0,.43.7,0,1,.13.64.12-.33.28-.57.24.05.22,0,.35-.17.4.38.5.78-.34,1,.33m-.92-4.68c.2.34.82.2.66.94-.66-.09-.53-1.09-1.45-.88a7.21,7.21,0,0,0,1.48-1.49c.73.58-.61.93-.69,1.43m.26-4.76c-.17,1-.64,1.66-.8,2.63-.71.12.09-.81-1-.53a1.77,1.77,0,0,0,1.49-1.29c-.07-.34-.37-.42-.81-.33-.45-.17.79-.41,1.15-.48m-2,5.67c.3.09,1-.3,1,.13.09.83-.3,0-.59,0-.8.8.85.57.5,1.55-1.19.06-1-.47-.88-1.32-.37.1-.84.12-.74.64-.54-.69.48-1.62.24-2.19.75.07.11.53.47,1.15m-.25,27.49c.07.73-1.39.14-1.32.88-.47-.57.6-1.19,1.32-.88m-.74-13.39c-.61.14-.21-.89-.65-.94,0-.23.34-.19.57-.24.07.74.26.55.08,1.18m.07,12.25a1.94,1.94,0,0,1-1.14.67c-.16-.7.54-.64,1.14-.67m.64,3.51c.89.22,1.29,0,1.53-.7-.23-.7-.59-.08-1.19-.11.15-1,2.41-.13,1.86-1.71-.58,0-.58.48-1.16.47.15-.84,1.25-.58,1.52-.89.48.54-.18,1.68-.86,1.83.56.84-.62,1-.45,2-.31-.42-1.08-.31-1.25-.9M328.11,83c-.17-.3-.64-.25-.64-.75.73.56.87-.54,1.57-.11,0,.55-.7.5-.93.86m.67,1.14c0-.89.85-.87,1.35-.49-.21.36-1.13.12-.72,1l-.63-.55m.18,2.55c-.11-.46.33-.45.13-1,.53.4.85-.49,1.55-.51.19-.25-.77,1.49-1.68,1.5m1.8-11c-.48-.26-.33-.46-.26-1,.62.2.66.53.26,1m1.3,7.22c-.28.25-.18.83-.73.84-.14-.61.11-.89.73-.84m.11-1.19c0-.36-.27-.4-.25-.78.54-.13,1.38.59,1.15-.47.65-.25.35.59.47.95-.63,0-.67.41-1.37.3m1.24-2.07c-.62.22-.31-.63-.83-.53,0-.27.49-.2.78-.25,0,.26,0,.52.05.78m-.4-2.93c-.17.1-.34.2-.37.42-.4-.39-.1-.83-.08-1.18.27.11.39.39.45.76m-.89-1.32a5.27,5.27,0,0,0,.53-1c.77.13.12,1-.53,1m.73-3.81c0,.35-.21.43-.15.8-.83-.5-1.53.06-2-.65-.37-.32,1.56.54,2.17-.15m-2.34-2.4c0-.33-.05-.66-.07-1,.58-.34.69,1.24.07,1m.68,1.33a1.46,1.46,0,0,0-.62-.35c.26-.62,1.77-.4,1.82.47-.58.56-.81-.48-1.19.08-.22,0-.12-.19,0-.2m1.07-7.38c-.59,0-1.2.1-1.23-.51.51-.24,1.27-.4,1.23.51m-.73-10.43c0,.26,0,.53.05.79-.28,0-.56,0-.57.24-.43-.15,0-1.11.52-1m-1.87-9.75c.21-.14.7-1,1-.46,0,.13,0,.26,0,.39l-1,.07m1,14.36a.86.86,0,0,0-.6-.16c0-.4.51-.42.54-.83.46,0,.17.86.06,1M330,64.05c.2,1.12-1.62-.2-1.5,1.09-.58-.58.53-1.25,1.5-1.09m-3.92.47c.29-.31.65-.54.72-1,.81.54-.72.59-.3,1.4-.21,0-.16-.38-.42-.36m-.16,6.13c.75.27,1-.77,1.7-1.1a1.9,1.9,0,0,1-1.27,1.67c-.18-.15-.15-.53-.43-.57m-.57,3.21c.11-.35.44-.16.41.17.45,0,.74-.1.76-.45.1.44.87.13.84.73-.65-.26-.87,0-1.57.11a.54.54,0,0,0-.44-.56m-.13,6.53c.43-.49,1.53.06,1.44.88-.66-.08-.64-1-1.44-.88m1.51,1.87c-.24.34-1.17-.09-1.55.5-.6-.39,1.1-1,1.55-.5m2.47-1.36c-.67.06-2.37-.52-2.49-1.8.1-.28.75-.09.76-.45.81.42-.84.24-.33,1,.67.44,1.44.76,2.06,1.24m.5-1.42c-.49,0-.78-.75-1,.07-.49,0-.1-.66-.05-.79.7,0,.52.51,1.19.12.08.31-.16.35-.15.6m.3-12.67a1.61,1.61,0,0,0,.28,1.17c0,.51-1.31-1.13-.28-1.17m-.3,9.9c-.14.38-1,.77-.13,1-.48.59-1,.22-1.54.5l-.06-.78c1,.84,1-1.27,1.73-.72m-.73-7.65c-.18.28-.51.42-.54.83-.38-.06-.08-.9-.82-.54-.07-.33.3-.53,0-.59,0-.27.47-.2.77-.25-.09.52.13.7.63.55m-1.43-3.46c.74-.14.95.33,1.42.5a1.67,1.67,0,0,1-.11,1.19c-.6-.09.15-.44-.06-.79.09-.46-1.41-.62-1.18.09-.33.06-.53-.3-.59,0-.71-.4,1-.21.52-1m5.16,3.2c-.35,0-.39.27-.77.25.7-.65-.15-.61-.29-1.36.33-.07.53.3.59,0-.33-.66-1.07,0-1.41-.3-.24-.95.59-1,.26-2-.18-.35-1-.53-1,.07-.69-.37.55-.61.31-1.21.73-.2,1,.18,1.59.09-.11.12-.73.49-.94.36.23,1.16,1.45,2.53,1.64,4.14M320.3,39c-.63-.05-.52.53-.73.84-.05.25.61.64.6.16.12.12.14.19.1.25l-.24.09a4.39,4.39,0,0,1-1-.06c.19-.9,1.27-1.53.61-2.61.33.33.75.55.69,1.33M319,37.93c0,.45-.52-.22-1,.07a.54.54,0,0,0-.05-.78c-1.24-.1-1.17,1.6-1-.13l1.57-.11c0,.49,0,1,.47,1m-.44,5.15a1.11,1.11,0,0,1,.2-.43.93.93,0,0,1,.56-.23c0,.12,0,.25,0,.39-.32,0-.58.22-.77.27m.75-.77a1.63,1.63,0,0,0-.3-.07,1.19,1.19,0,0,0,.08-.16c.14,0,.19.1.22.23m-3.75,0a2,2,0,0,0-.11.26l-.13-.07a.27.27,0,0,1,.24-.19m7.33,31.48c-.66.37-.38,1.15-.9,1.24.15-.54,0-1.36.9-1.24m-.83,10.72c-.67.58-.47-.52-.66-.94.8-.08.32,1,.66.94m-.6-14.18c-.55-.89.48-1.78-.21-3,.91.77.57,2,.21,3m-1.36,8.79c-.36,0-.4.27-.77.25-.1-.57.4-.64.31-1.21.64-.25.35.59.46,1m-3.88-18.7.4,0c-.23.52-.9-.23-1.39-.1,0-.27.47-.2.77-.25-.38-1.1-.32-1.42-1.31-1.69,0-.29.59-.11.57-.43.67,1,1.5,1,1,2.5m-2-2.63c-.1.28-.75.08-.76.45-.42-.25.15-.69-.28-1.17.36.15.66.62.79,0,.27,0,.19.48.25.77m-.79,14.08c.4.65-.79.45-1.34.69,0-.54-.35-.37-.05-.78.58.11,1,.86,1.39.09m-2.1-4.59c-.83-.28.6-1.15.45-2,.77.74-.39,1.38-.45,2m-2.77-19.77c-.12.4-1.26.2-1.21-.31,1.13.61.33-1.81-.5-1.54,0-.22.38-.16.37-.42,1.32.35.91,1.78,1.34,2.27m-2.52-2.19c-.19-.11-.37-.21-.4,0-.25-.07-.61-1.54-.26-1,.06.24.6.21.59,0,.46,0,.17.85.07,1M304,41.16c-.21.63-1-.37-1,.46-.34,0,.32-1.23-.48-1.15.47-.6.9.65,1.43.69m-.85,7.57c.43-.38-.29,1.41.5,1.54.17.7-.56.62-.5,1.22-.74-.42.53-.62.1-1.39-1.65-.66-.56-.11-.1-1.37m-1.86-4c-.65.18-1.59-.51-2.77,0,.33-1.1,2.17-.44,2.77,0M300.61,43c-.57.24-.38-.42-.44-.76-.81-.08-.43.86-1.13.87a3.46,3.46,0,0,1,.9-1.25c.44.14.73.43.67,1.14m-.2-2.95a7.2,7.2,0,0,0-.3,1.4c-.94,0-1,.83-1.91.92.37-.72,1.49-.79,1.66-1.69-.58-.21-.9.35-2,.14.88-.16,2.09-.81,2.52-.77M298,39.21c-.83,1.5-2.74.1-3.58-.34,1-.34,2.24,1.51,3.58.34m-3.37,2.61c.29.41-.95,2,.54,2.13,0,.39-.75.21-.54.83-.63-1.11-1.13-2.38-2.73-2.38-.43.58-.08,1-1.31,1.08.15-.61,1.15-.48.89-1.44-.1-.17-.2-.34-.42-.37-.66-.2-.11.65-.76.45,0-.66.51-.91.27-1.8-.65,0-.53.65-.93.86-.24-.82.67-1.11.83-2.24a1.73,1.73,0,0,0,1.45.89c0,.45-1,.08-1.16.48-.17,1.21,2.14,2.43,2.27,1.22.34.24.21,1,.85.93s.59-.34.75-.64m-1.25-.91c-.21-.67.24-.77.1-1.39.34.38.39,1.5-.1,1.39M292,49.31c-.53.39-1.59-.43-2.77,0,.37-1.15,1.87-.1,2.77,0M289.07,39c-.57.67-.7,1.73-1.84,1.91.78-.5.64-1.79,1.84-1.91m-1.55,3.27a1.27,1.27,0,0,0-1,.27c.58.86-.69,1.65.16,2.36-.47.2-.38.9-1.12.86.34-.37.83-.63.69-1.43-.8-.14-.56.63-1.35.49.71-.59,1.31-3.81,2.58-2.55m2.21,8.94c-.41-.43.74.4.48,1.15-.36,0-.4.27-.78.25.26-.53.68-.78.3-1.4m-.39,8.52c.38.5,1.37,1.13,1.11,1.7-.92,0-.6-1.44-1.67-1.26,0-.29.58-.11.56-.44m.73,1.93c.37,0,.18.64.63.55-.23.51-.9-.23-1.39-.1-.18-.53.93.07.76-.45m.73-9.34c.25-.67.51.37,1,.13,0,.35-.21.43-.14.8-.44-.13-.32-.91-.85-.93M292,57.61c.68.89,1.43-.68,1.62.48a2.59,2.59,0,0,0-1.77.13c-.58-.07.28-.33.15-.61m1.09,24c.68-.52.43-1,.86-1.84.44,0,.14.82.28,1.16-.65.06-.71.62-.7,1.24-.29,0-.11-.58-.44-.56m.94,4.87c.74-.19,1,.73,1.58.09.61-.23-.74.59-1.14.67a.87.87,0,0,1-.44-.76m1.14-34.46c.25-.68.51.37,1,.12.05.36-.21.44-.14.8-.45-.12-.32-.9-.86-.92M294.06,51c-.42-.44.74.4.47,1.15-.23,0-.34.06-.38.22-.53-.37.46-.84-.09-1.37M292,47.13a11.38,11.38,0,0,0-.52-1.74c.24,0,.35-.07.38-.22a11,11,0,0,1,1,2.3c-.27,0-.73-1.4-.82-.34m1.28,7c.51-.06.27-.76.53-1,.67.13-.59,1.63.5,1.55a2.82,2.82,0,0,1-.68,1.63c-.05-.36.81-2.14-.92-1.91,0-.24.35-.19.57-.24m.43-5.17a.53.53,0,0,0-.43-.56,9.3,9.3,0,0,1,3,.58c-.28.78-1.26-.64-2.57,0m.33-1c-.47-1.46,2.56-1.46,3-2.78,0-.47-.89.18-.63-.54,1.31,0,1.18,1.61,2.11,2,0,.51-.36-.25-.79.06-.21-.25-.24-.72-.46-1-1,1.23-2.37,1-3.2,2.2m4.75.06c.29-.45.84-1.22.08-1.58.32-.49.8.62.87,1.12-.61-.1-.34.57-.95.46m1.53-.7c.39,0,.28.52.81.34.14.62-.31.72-.1,1.39a5.23,5.23,0,0,1-.71-1.73m-3,34c.67-.51.43-.94.86-1.83.43,0,.14.82.28,1.16-.65,0-.71.61-.71,1.24-.28,0-.11-.59-.43-.57m.93,4.88c.93.22,1.41.47,2-.34.43-.2-.82,1.07-1.51,1.1a.9.9,0,0,1-.45-.76m2.5,1.8c-.11-.75.86-1.12,1.15-.48,0,.61.13,1.34-.49,1.42-.19-.59.3-.6.11-1.19s-.26.47-.77.25m.82-2.43c0-.23.34-.19.57-.24.05-.48-.39-.4-.26-1l.78,0c-.46.33-.09,1.4-1.09,1.26M304.09,87c0-.53,1-.79.13-1,0-.23.34-.19.57-.24,0,.33,0,.66.07,1-.35,0-.4.27-.77.25m33.82-44.85c1,.12,1-.6,1.73-.72-.47-3-.25-3.72-.54-7.67l-24.39,1.71c0,1.4.38,2,.22,3.15,1.09-.11.36-.83.52-1,0,.46.59.18.63.55-.46.15-.26.88-1.13.67.14.4-.22,1.39.47,1.15.55.11-.2-.91.34-.81,0,.62.55.64,1,.72.05-.35-.33-.49,0-.59.19.41.75.4,1.4.3.16-.38-.63-.62-.05-.79.38.91.63,2.2.25,2.76a1.51,1.51,0,0,0-.68.25.39.39,0,0,1-.15,0c1-.23.2-.8.69-1.43-1.35-.19-.85.93-1.94.53-.13.28-.27.56-.41.83a2.13,2.13,0,0,1,.18-.61c-1.39.06-1,.94-.85,2l.13,0a3.46,3.46,0,0,0,0,1.53l1-.07c0-.59-.63-1.16.1-1.39a1.43,1.43,0,0,0,.08,1.18,5,5,0,0,0,.85.09,1.2,1.2,0,0,0-.47.28c1-.24,1,.59,2,.26a1.26,1.26,0,0,0-.72-.52,8.39,8.39,0,0,0,2.68-.41c0-.39-.29-.37-.43-.56.54.1.37-.42.76-.45-.3.72.16.47.27,1.17a8.81,8.81,0,0,1,1.79.07,1.1,1.1,0,0,1,.14-.8c-1.45,0-1.4-1.65-2.33-2.21.32-.52.24-.23,1-.27.26-.48-.12-.84.13-1,.64-.37,1.6-.46,2.11-.94,0,.56.59.45.84.73-.35-.58,1.18-.42.34-.81a4,4,0,0,0-4.06,1.27c.48-.65-.68-1.18-.31-1.56.43.15.62.56,1.22.51.12-1.18-.43-.28-.66-.94.62-.14.72.3,1.39.1-.06-.86-.42-1.07.3-1.41-.36.4,0,.94.1,1.38,1.7-.6,2.95,1,4.52-.32-.13-.56-1.47.28-1.6-.28.69.11.73-.35,1.36-.3s.55.79,1.24.71c.12-.95.65-2.5,1.84-1.91-.36.55-.93.92-1.28,1.47,1.17-.13.38.69,1.25.91-.56-.07-.87-.42-1.42-.5-.38.52-1.21.84-.68,1.63-.12-.1-1-.4-1,.07a.54.54,0,0,1,.44.56c-1-.54-.22.84-1.14.67.36.88-.1.85-.08,1.79.33.26.94.2,1.22.51-.72.23-.27,1.72-1,2.24-.35-1,.45-1.08.46-1.81-1.64-.08-1.72,1.57-3.29,1-.22.48-.8.65-.9,1.25.07.53,1.92.91,2,.06-.71.46-1.67-.06-1.42-.5.7.24,1.49-.08,2,.06,0,.33,0,.66.07,1a18.62,18.62,0,0,0-3.31.82c.13.28-.16,1,.27,1a2.2,2.2,0,0,1,1.12-.87,1.91,1.91,0,0,0,1.62.48c.24-.47-.56-.7-.06-.79.63.72.53-.76,1.14-.67-.49.62.2,1.19.87,1.13.46-.3-.27-.72.14-.8s.32.82.27,1c-.65.4-.93-.17-1.79-.08-.41.32.28.47-.15.61-.69.1-1.69-.34-2.37,0,0,.39.29.37.43.56-.54-.2-1.13.45-1.18.08-.06-.15,0-.39-.22-.38.34.6-.16,1.19.47,1.15.81-.79,1.31.46,2.6.41.47-.46.83-1.39,1.32-.88-.24.79-1.79,1.39-2.07,1.53,0-.25.24-.29.16-.6-.74-.09-1.38-.28-1.55.5.51,0,.72.31,1,.52-.59,0-.19,1-.51,1.22.25.28.77.26,1,.52-1,.59.59,2.76-1.39,2.67.51-.33.49-1,.44-2.21-.55.2-.53-.24-1-.12.17,2.4-.12,10,1.25,12.16-1.35-.07.1,2.31-.6,2.81-.31-.7-.83-1.16-1.12-1.9-.49.06-.59.42-.8-.14.19-1.33-2.1-4.23-3.29-4.71,0-.31.49-.19.35-.62-4.21-5.31-7.42-11.32-11.6-16.18.3-.41,0-.25-.06-.79-.33-.53-.79.56-1,.07.25,0,.25-.27.57-.24a2.41,2.41,0,0,0-.88-1.32c-.05.18-.47.9-.56.44.78-1.3-.74-2.38-1.42-3.27-.1.19-.33,1.16-.54.64.25-.74.53-.61.29-1.41-.74-.15-.6.46-.94.66.18-.63-.34-.45-.45-.76.73-.36.21-.33,1-.07-.34-1-1.1-1.56-1.56-2.46L279.12,38c.4,1.91.1,6.5.84,9.23,2.5-.42,6.25.26,7.21-1.49a3.53,3.53,0,0,0-.06,2c.75.15.26-.76.94-.66.28.57.94.68.3,1.36.06-1.18-1.53-.15-1.15.67A8.67,8.67,0,0,1,289,51.5c-.92.13-.64-1.11-1.64-.87.25.69-.29,2.31.55,2.33.76-.23-.7-.68-.05-.79,1.92,1.94-.94,3,.36,5.11-.57,0-.44,1.58-.08,1.79,0-.11.15-.24.2,0-.58,5,.76,10.68.67,15.17,0,.37.65.1.63.55-.38.52-.79,2.33-.05,2.18-.92,2.06.65,3.65-.22,5.35l-6.88.48c-.27,2,.34,6.28.45,9.26l23.8-1.67q-.33-4.62-.65-9.24c-2.57.41-4.53,0-5.66,1,.16-1-1.38-.11-1.45-.89.78-1.21-.32-4,0-5.73-.35,0-.49.33-.59,0,1-1.43-.05-3.25.23-5.15-.62-.21-1,.74-1.17.28a1,1,0,0,1,1-.46c.14-3.7-.54-6.11-.45-9.26-.24,0-.56.07-.6-.16,1.1-.62-.09-1.56.38-3-.37-.21-1.09.19-1.6-.28.38-.53.92.52,1.38-.1.18-2.54-.53-3.59-.22-5.91,2.06,2.29,2.66,4.86,5.45,7.33,0,.25-.23.29-.15.6,5,7,8.92,12.88,13.65,20,.26.47.71-.45,1,.13-.3,0-.68,0-.56.44.35.35.5,1,.81.33-.2,1,.79,2.34,1.32,1.89-.32,1.28.91,2.26,1.78,2.84,0,1.62,1.94,2.87,2.5,4.57l12.19-.86c0-1.65-.47-2.51-.28-3.93-.75,0-.79,1.64-1.5,1.09.91-.58.35-1.64,1.49-1.29-.82-13.64-2.21-27.77-2.68-41.11.72-.18,2,.12,2.35-.36-.24,0-.56.07-.61-.16.61-.07.31-.34,1.16-.47-.24.28-.21.75.25.77,1,.12,4.06-.63,4.13-.29-.2-.54.24-.53.13-1-.84-.11-.75.59-1.13.87a3.05,3.05,0,0,1-.64-.74m23.2,65.7c.29.09,1-.3,1,.14.2.75-1.26.52-1-.14m.85-2.06c-.11.61-1.6-1-1.37.49a4.53,4.53,0,0,1-.71-1.55c-.63,0-.65.56-.73,1a1.72,1.72,0,0,0-1.21-.11c0-.66.51-.81,1.14-.89-.17-.66-.64-1-.54-2A3.66,3.66,0,0,1,361,103c-.28.38-1.19.22-1.36.7a1.49,1.49,0,0,0,2.28,1.05c.3.47-.52.87.07,1M360.68,87.4c-.22-.61-.68-1-.91-1.55.15-.18.54-.15.57-.44.48.25.17,1.39.34,2m-2.05,8c.29.56.84,1.62.55,2.17-.42-.09-.13-1-.86-.74,0-.57.31-.86.31-1.43m1-6.29c.42,0,.24.73.66.76-1.33,1.24-.89,3.08-1.48,4.72-.86-2.13.57-3.39.82-5.48m-.89-21.43c0-.33-.05-.66-.07-1l.6,0c.08.57.1,1.09-.53,1m0,3.21a.76.76,0,0,1-.74.86c-.05-.36.21-.44.14-.81l.6,0m-.62,11.29c0,.73-.57,1-1.33,1.1a1.86,1.86,0,0,1,1.33-1.1m-1.17-42.69c-.83-.16,0-1-.33-1.79l.6,0a3.33,3.33,0,0,1-.27,1.83m-.35-10.63c-.06.31-.26-.06-.6.05,0-.92-.92-.81-1.11-1.53,1.15-.17,1,1.14,1.71,1.48M356.39,26c-.65-.19-.53.09-1-.13.14-.76.39-.56.1-1.42.65.12.95.63.91,1.55m-.31-4.4a4.86,4.86,0,0,1-1.14-1.93c.92,0,1.18.81,1.14,1.93m-1.36,20.78c-.05.39-.76.21-.54.84-.51-.93-2.28-.39-2.71-1.41.29-.36.92-.15,1.21.11.26-.09.29-.37.57-.44-.1-1-.22-2-1.34-1.92.86-1.82-1.35-1.08-1.56-2.3,2.13.42,1-2,2.41-2.78.34.83-1.53,2.83-.12,4a.55.55,0,0,0,.58-.44c.42.52.13,1.86,1.12,1.73-.92.8-1.15,2.78.38,2.58m-2-16.93c.36.37.3,1.23.52,1.77-.65.1-1-.17-1.06-.73.62,0,.37-.68.54-1m-.57-2.37c.19-.32,2.13-1.1,2,.06-.91-.33-1.44.27-2-.06M353.76,20c-.79.21-1.34,1.13-2.35,1,1.14-.87,1.75-2.78.15-3.62-.18-.54,1,.07.77-.46.49.88.58,2.22,2,2.07.55.13-1.7.37-.53,1m-2.93-1.6a12,12,0,0,0-2.45-.63c.23-.55.25-1.28,1.33-1.1.24.73,1,.85,1.12,1.73m-2.2,3c-.08-.77-.74-.88-.73-1.76,1.77,1.19,2.13,4.19,1.22,5.94-.1.55.44.36.65.56-.79,0-1.51,1.07-2.78.59.26-.46,1.17-.36,1.56-.71.15-.89-.72-.61-.7-1.36.69,0,.56-.64.95-.86-1.52-2-2.34,1.06-3.93,1.27-.2-.34-.59-.46-.48-1.17.81,0,1.46-.1,1.55-.71-.08-.27-.51-.13-.81-.14.4-.47,1.47-.35,1.1-1.49,1-.3,1.84.32,2.4-.16m-2.12-4.48c-.35,1.52-1.36,2.45-1.52,4.13-.74-1.15.27-2.39.58-3.26-.42-.58-.94.3-1.6.12l-.06-.8,2.6-.19m-1.9,10.18a2.51,2.51,0,0,0,1.34-.9c.69-.36.17.67.65.56-.2.83-1.42.77-1.71,1.52-.44,0-.14-.84-.28-1.18m.35,5c.58,0,1,.18.87.94l-.8.06c0-.34,0-.67-.07-1m3.09-1.82c.55-.21.53.24,1,.13a3.07,3.07,0,0,1-1.65,2.32c-.24-.55.78-1.39.64-2.45m2.88-1.81a1.61,1.61,0,0,1,.49,1.17c-.36,0-.44-.22-.82-.15.19-.27.15-.75.33-1m-.82-.35c.28-.75,1.6-.61,1.7-1.52.23.46-.61,1.59-1.7,1.52m-4.93,7.18c.7-.69,2,.16,2.84.4.78-.77,1.5-.8,2.08-1.95a1.22,1.22,0,0,0,1.75-.73c0,1.49-3.45,1.63-2.92,4.22-.69,0-1.48-.35-1.35.7-.52-.28-.18-1.39-.13-1.8-.65-.46-.79.27-1.57.51.4-.52.05-1.49-.7-1.35m1.31,4.32c.62-.13.9.11.86.75-.47,0-1-.07-.86-.75m1.44,9.14c-.5-.44-1,.1-1.6.11-.47,0,1.64-1,1.6-.11m1.8-.12c0-.2,0-.4,0-.61.61-.18.37-.16,1-.06-.09.42-.26.77-1,.67m.31,13c-.36,0-.4.27-.78.25.06-.56.93-.43,1.35-.69-.32.69.42,1.89-1.07,1.88a1.36,1.36,0,0,0,.5-1.44m-.42,5.45c.08-.42.45-.6.31-1.23l.6,0c.14.81-.11,1.28-.91,1.27m.43-2.44c-.14-.62.5-.57.53-1,.17.16.56.08.63.36.06.61-.56.64-1.16.68m1.16,5.14c1.6.3.28,2,.21,3-.67.2-.31-.79-1-.53.26-.34,1-.28,1.16-.68-.27-.56-.5-1.16-1.28-1.12-.59-.28,1.07-.17.95-.67m-.82,31.39a3.28,3.28,0,0,1,.31-1.43c.35,0,.44.22.81.15.17.9-.2,1.32-1.12,1.28m.73-18.33c.74-.23,1-.89,1.73-1.12-.77.85-.07,2-.6,2.85-.3-.33.34-2.19-1.13-1.73m.81,20.23c.62-.14.57.5,1.05.53a5.54,5.54,0,0,0,.16,2.4,5.78,5.78,0,0,1,2.22,0c-1.18.73-1.77.07-3.2.22.77-1.2.28-2-.23-3.2m.39,5.6a.76.76,0,0,1,.75-.86c.35.62.13.88-.75.86m4.12-21.58a3,3,0,0,0,.1,1.4c-.74.21-.21-1-1.06-.73.29-.25.45-.61,1-.67m-1.39-51.52c.35,0,.44.22.81.14.19,0,.14-.25.17-.41.24,0,.2.35.24.59-.62-.11-.71.25-1.18.28,0-.2,0-.4,0-.6m2.46,63.9a7.58,7.58,0,0,1-1,2.48,2.56,2.56,0,0,1,1-2.48m-3.28-6.6c0,.75-.67.61-1.17.48.16-.36.6-.48,1.17-.48m2.37-.57c-.6-.1-.91-.53-1.82-.27.06-.39.39-.53.33-1s-1.12-.85-1.43-.3c-.47-.24.46-.84,1.16-.69.23,1.17,1.62,1,1.76,2.29m-.67-6.78c-1.24-.65-1.45.86-2.17.55-.13-.75,2-1.83,2.17-.55m-.13-27.71c.6.24,0,1-.12,1.21-.6-.23,0-1,.12-1.21m-.4,20.12c.33.48.29,2.24-.65,2.25.6-.77.26-1.62.65-2.25m-.25-26.5c.62.23.45,1.36.55,2.17-1.07-.35-.4-1.46-.55-2.17m1.42,37.46c.44,0,.46.47.47,1-.88,0-.39-.32-.47-1m-.77,17.73c.11-.41.49-.57,1-.67.31-1-.3-.74-.52-1.57.57.21.81.8,1.1,1.33-1.08.1-.14.79-.29,1.62-.48,0-.41.4-1,.27s.11-1-.27-1m-.5-7.2a3.37,3.37,0,0,0-1.28,1.9c-.49.07-.64-.27-1-.33a2.36,2.36,0,0,0,1.83-2.54c-.05-.44-.85,0-1.21-.11,1.09,0,3.12-2.48,1-2.89.21-.38,1.06-.21.73-1,1.35,1.6-.42,3.09,0,5m-3.62-54.58c0-.2,0-.4,0-.6a.76.76,0,0,1,1-.07c.13.62-.39.67-1,.67m1.8,8.51c-.5-.07-.48-.74-1.24-.51-.21-.55.24-.54.13-1,.39.49,1,.75,1.11,1.53M352.05,76c-.42.11-.54-.1-.82-.14a1,1,0,0,1,.95-.87,1.24,1.24,0,0,0-.13,1M355.17,46c-1.65.25-1.27,2.27-2,3.35-.73-.35.72-2.13-.35-2.19-.2-.65.37-.33.39,0,1.33-.58.19-2.21,1.64-2.52-.5.57.13,1,.29,1.39m1.37,39.67c.94-.14.48,1.32,1.49,1.1-.39.52-1-.51-1.6.11,0-.47.3-.61.11-1.21m-4,26.59c.35-.32.92-.45.71-1.26,1.39.86,1.78,2.85,3.82,2.95.05-1.09,1.07-2.44.54-3.85a1.09,1.09,0,0,0-.93,1.07c-1.75-2,2.89-2.74,2.23.24-.17.36-.72.38-.54,1,.85.25,1.93.23,2.85.4-.26.84-3.36-.74-3.56.86a2.26,2.26,0,0,0,3.28,1c-.1,1-1.62.84-2.74,1l-.06-.8c-1.47.13-1.89-.53-3,.21.49-.76.34-1.7-.72-1.76-.55-.1-.36.44-.56.64,0-.49-.38-1.66-1.32-1.71M362,109c.53.53-.37,1.42-.25,2.22-1.48-.57.17-1.37.25-2.22m4.09,12.57L358.46,12.63l-17.58,1.23c2,36,5,72.7,7.41,109l17.79-1.24"/><path class="cls-4" d="M110.91,21.1l-.53-7.57-3.08.21.34,4.9L103,19l-.74-10.49,2.31-.16-.18-2.68-8.71.61.19,2.67,2.27-.15.73,10.49-2.27.16.19,2.68,14.16-1M95.28,22.2l-.35-5.05-3,.21.16,2.37-4.91.35-.29-4.16,4-.28L90.64,13l-4,.28-.25-3.66,4.91-.34.16,2.35,3-.22-.35-5-14,1L80.39,10l1.9-.13L83,20.37l-1.91.13.19,2.68ZM77.07,23.47l-.18-2.68L74.5,21l-.73-10.49,2.45-.18.26,3.7,2.69-.19-.45-6.37-14.37,1,.45,6.37,2.72-.19-.26-3.69,2.38-.16.74,10.49L68,21.42l.18,2.67ZM57.69,13a5.61,5.61,0,0,1,1.48,3.66,5.6,5.6,0,0,1-1,4.05,4.18,4.18,0,0,1-6.21.41,5.45,5.45,0,0,1-1.52-3.65,5.74,5.74,0,0,1,1-4.1,4.08,4.08,0,0,1,3-1.58A3.93,3.93,0,0,1,57.69,13m-9.76-1.28A7.92,7.92,0,0,0,46,17.65a8.12,8.12,0,0,0,2.68,5.56,8.53,8.53,0,0,0,6.7,2,8.72,8.72,0,0,0,6.28-2.81,7.87,7.87,0,0,0,2-5.95,7.91,7.91,0,0,0-2.76-5.61,8.72,8.72,0,0,0-6.62-1.92,8.65,8.65,0,0,0-6.3,2.83M36,26.34l-.19-2.68-1.66.12-.3-4.33,4.32-.3.3,4.33-1.61.11.19,2.68,7.6-.53-.19-2.68-2,.14-.73-10.5,2-.13-.19-2.68-7.6.53.19,2.68L37.78,13,38,16.46l-4.32.3-.24-3.47,1.66-.12-.19-2.68L27.28,11l.18,2.68,2-.14.73,10.49-2,.14.19,2.68Z"/><path class="cls-4" d="M405.18,193.65a3,3,0,0,0,2.49-1.71,195.36,195.36,0,0,1,8.91-17.43c7.91-14,11.8-16.27,12.84-16.63a11.51,11.51,0,0,1-.1,2.61c-.16,1.94-.58,4.29-1.05,7.12l-.78,4c-1.21,7.61-2.39,14.16.85,17.7,1.46,1.64,3.64,2.35,6.33,2.16a13,13,0,0,0,7.56-3.71,34.9,34.9,0,0,0,5.54-6.37,62.89,62.89,0,0,0,5.17-8.86,2.89,2.89,0,1,0-5.2-2.53,53.36,53.36,0,0,1-4.74,8c-3.25,4.67-6.53,7.51-8.74,7.66a3,3,0,0,1-1.66-.27c-.21-.27-.65-1.11-.56-3.92a73.39,73.39,0,0,1,1.21-9c.19-1.37.39-2.64.69-3.91,1.3-7.72,2.13-12.32-.28-15A5.06,5.06,0,0,0,429.3,152c-2.88.2-5.91,2.44-9.46,6.93a88.77,88.77,0,0,0-5.6,8.22c.83-3.34,1.84-6.79,2.84-10.44a2.9,2.9,0,0,0-2-3.53,3,3,0,0,0-3.62,2c-5.09,18.31-9.26,34.72-9.25,34.82a2.87,2.87,0,0,0,1.79,3.45,2.56,2.56,0,0,0,1.17.2m-30-22.13.06.77a18.6,18.6,0,0,0,3.92,10.54,13,13,0,0,0,5.88,4,9.62,9.62,0,0,1-6.18,2.75c-2.3.16-4-.3-5.12-1.38a8.23,8.23,0,0,1-1.68-4.71,22.47,22.47,0,0,1,2.44-10.7Zm6.31-5.07a6.41,6.41,0,0,0,.4-1.19c.88-2.67,2.39-4.42,4.22-4.54,2.11-.15,3.93,3.68,4.28,8.77a27.52,27.52,0,0,1-1.85,12.2,7,7,0,0,1-4.91-2.55,12.75,12.75,0,0,1-2.63-7.25,18.18,18.18,0,0,1,.49-5.44m-2.23,28.92a15.88,15.88,0,0,0,8.38-3.09,20.25,20.25,0,0,0,4.47-5.05c11.48-1.57,18.65-10.86,19-11.27a2.81,2.81,0,0,0-.57-4,2.88,2.88,0,0,0-4,.48,22.63,22.63,0,0,1-4.61,4.47,26.7,26.7,0,0,1-7,3.77,32.88,32.88,0,0,0,1.22-11.57,22.86,22.86,0,0,0-2.6-9.57c-2-3.15-4.68-4.79-7.85-4.57-3.56.25-6.49,2.48-8.45,6.29a6,6,0,0,0-.57,1.39,9.27,9.27,0,0,0-3.51,2.27,18.2,18.2,0,0,0-3.79,5.29,27.9,27.9,0,0,0-3.09,13.73,12.94,12.94,0,0,0,3.38,8.36c1.56,1.62,4.59,3.44,9.58,3.09m-24.88,1.74q3.75-.26,7.56-3.71a35,35,0,0,0,5.54-6.38,63.1,63.1,0,0,0,5.18-8.85,2.85,2.85,0,0,0-1.34-3.87,2.94,2.94,0,0,0-3.86,1.33,53.2,53.2,0,0,1-4.75,8.06c-3.24,4.67-6.42,7.5-8.73,7.66a2.39,2.39,0,0,1-2.38-.9c-.64-.82-1.55-2.88-1.34-8.11a78.86,78.86,0,0,1,2.34-14.94,333.51,333.51,0,0,1,10.53-34.33,2.92,2.92,0,0,0-1.71-3.74,3,3,0,0,0-3.73,1.8,361.42,361.42,0,0,0-10.78,35c-3.33,14.52-3.3,23.31.11,27.8a8,8,0,0,0,7.36,3.15m-23,1.61c2.5-.18,5-1.42,7.57-3.62a40.47,40.47,0,0,0,5.63-6.48,63.23,63.23,0,0,0,5.36-8.87,2.89,2.89,0,1,0-5.19-2.53,56.08,56.08,0,0,1-4.85,8.06c-3.34,4.68-6.62,7.51-8.92,7.67a2,2,0,0,1-1.79-.65c-1.46-1.63-2.31-6.88-.39-16.67a2.9,2.9,0,0,0-2.07-3.33,2.86,2.86,0,0,0-3.44,1.78c-3.5,9.42-7.39,14.42-10,17-3.27,3-5.83,3.69-7.3,3.31-2.26-.61-3-4.42-2-9.51a31,31,0,0,1,7.58-14.53c3.5-3.72,6.52-4.8,7.59-4.59.2,0,.2.09.31.27a6.59,6.59,0,0,1,.13,3.18,2.85,2.85,0,1,0,5.65.76c1.27-8.1-3.57-9.6-5-9.88-3.71-.61-8.47,1.75-12.79,6.3a35.17,35.17,0,0,0-9.12,17.34,20.15,20.15,0,0,0,.24,10.31,9,9,0,0,0,5.92,6,9.88,9.88,0,0,0,6.43-.54,19.53,19.53,0,0,0,6.37-4.22,32.36,32.36,0,0,0,4.89-5.94,12.39,12.39,0,0,0,2.8,6.85,7.56,7.56,0,0,0,6.45,2.55M297,143.58c-2.18,3.34-8.6,5.43-19.17,6.07-5.1.36-10.89.38-17,.22,5.24-9.25,15.91-14.05,24.93-14.87,5.85-.51,11,.68,12.28,3.1,1,1.57,0,3.86-1.06,5.48m6.06-8.53c-2.71-4.35-9.34-6.59-17.78-5.81a42.49,42.49,0,0,0-18,6,33.26,33.26,0,0,0-12.8,14.41l-13.47-.7c-17.25-.91-35.08-1.89-49.43-.11-8,.94-14.11,2.63-18.76,5.17-5.67,3.1-9.13,7.4-10.3,12.79a2.82,2.82,0,0,0,2.17,3.42,2.87,2.87,0,0,0,3.42-2.17c3.93-17,40.36-15.08,72.63-13.38,4.07.29,8.14.49,12,.61a16.35,16.35,0,0,0,.24,4.81,17.34,17.34,0,0,0,3.62,7.57c3.29,4.3,8.28,8,13.17,11.62,4.69,3.54,9.58,7.15,12.55,11,3.08,4,3.73,7.75,2.19,12-2.57,7.42-9.1,13.48-18.22,17-8.55,3.3-18.26,3.89-26,1.53-6.61-2-17.06-8-12.72-24.6a3,3,0,0,0-2.08-3.52,2.89,2.89,0,0,0-3.53,2.08,30.45,30.45,0,0,0-1,11.46,22.47,22.47,0,0,0,3,9.35c3,5,8.14,8.7,14.75,10.75A42.86,42.86,0,0,0,254,227.88a50.78,50.78,0,0,0,14.35-3.22,39.78,39.78,0,0,0,13.16-7.88,30.35,30.35,0,0,0,8.58-12.57,17.17,17.17,0,0,0,.69-9.51,19.56,19.56,0,0,0-3.84-7.94c-3.41-4.58-8.6-8.37-13.68-12.07-9.68-7.24-15.73-12.32-14.67-19.15a187.75,187.75,0,0,0,19.69-.12,60.73,60.73,0,0,0,14.23-2.25q6.64-2.21,9.39-6.45a14.19,14.19,0,0,0,2.38-6.06,8.78,8.78,0,0,0-1.17-5.61"/></g></svg>