<svg id="brooklyn-logo" class="logo" style="fill:#fff" xmlns="http://www.w3.org/2000/svg" viewBox="0 0 439.2 230.4"><path d="M26.74,119h-9v35.55h8.54c10.89,0,9.24-9.78,9.24-18.19,0-8.13,1.65-17.36-8.82-17.36M24.26,75.9H17.78v32.25h8c11.3,0,9.1-9.1,9.1-18.05s-.14-14.2-10.61-14.2m1.37,89.58H4V65H28c18.33,0,19.85,8,19.85,24.4,0,11.16,1,22.46-12.54,24.12v.27c13.78,2.48,13.23,10.89,13.23,23,0,19.29-1.1,28.66-22.88,28.66"/><path d="M84.48,76.73H77.86v33.35h3.59c13.09,0,12.4-5.51,12.4-17.09,0-9.23,1.79-16.26-9.37-16.26M95,165.48c-7-12.68,8.82-43.68-12.4-43.68H77.86v43.68H64.08V65H85.44c21.78,0,22.19,7.72,22.19,27.43,0,11.58-.69,19-13.09,22.74v.27c21.08,2.08,10.47,35,13.37,50Z"/><path d="M154.07,89.54c0-6.61-1.51-14.6-9.64-14.6s-9.51,8.13-9.51,14.6v52.65c0,6.06,2.34,13.23,9.51,13.23s9.64-7,9.64-13.23Zm-9.64,76.77c-16.81,0-23.29-8.82-23.29-24.95V90.65c0-15.85,6.06-26.46,23.29-26.46,16.95,0,23.43,8.68,23.43,24.94v50.72c0,15.85-6.21,26.46-23.43,26.46"/><path d="M211.27,89.54c0-6.61-1.52-14.6-9.65-14.6s-9.51,8.13-9.51,14.6v52.65c0,6.06,2.34,13.23,9.51,13.23s9.65-7,9.65-13.23Zm-9.65,76.77c-16.81,0-23.29-8.82-23.29-24.95V90.65c0-15.85,6.06-26.46,23.29-26.46,16.95,0,23.43,8.68,23.43,24.94v50.72c0,15.85-6.2,26.46-23.43,26.46"/><polygon points="270.81 165.48 249.03 115.18 248.75 115.18 248.75 165.48 234.97 165.48 234.97 65.02 248.75 65.02 248.75 110.77 249.03 110.77 270.81 65.02 284.59 65.02 261.43 112.14 286.24 165.48 270.81 165.48"/><polygon points="295.61 165.48 295.61 65.02 309.39 65.02 309.39 153.77 332.54 153.77 332.54 165.48 295.61 165.48"/><path d="M357.06,124.27c-2.06,11.31,0,29.36,0,41.21H343.28c0-11.85,2.21-29.9,0-41.21-3.58-18.88-13-40.79-19-59.26H338l12,42.32h.28L364.09,65h12.13c-5.93,18.47-15.44,40.38-19.16,59.26"/><polygon points="415.35 165.48 399.09 79.76 398.81 79.76 398.81 165.48 386.69 165.48 386.69 65.02 405.71 65.02 421.97 148.53 422.25 148.53 422.25 65.02 435.2 65.02 435.2 165.48 415.35 165.48"/><polygon points="180.24 11.32 169.55 11.32 169.55 3.69 165.7 3.69 165.7 26.98 169.58 26.98 169.58 15.03 180.28 15.03 180.28 26.98 184.1 26.98 184.1 3.69 180.24 3.69 180.24 11.32"/><path d="M207.65,15.39a10.06,10.06,0,0,1-1.78,6.4,6,6,0,0,1-5,2.15,5.68,5.68,0,0,1-4.76-2.12,9.69,9.69,0,0,1-1.73-6.16A11.2,11.2,0,0,1,196.07,9a5.48,5.48,0,0,1,4.72-2.24,6.8,6.8,0,0,1,2.88.58A5.68,5.68,0,0,1,205.8,9a8.18,8.18,0,0,1,1.37,2.72,12.71,12.71,0,0,1,.48,3.65m1.11-8.86A10,10,0,0,0,205.28,4a11.38,11.38,0,0,0-4.49-.88,10.66,10.66,0,0,0-4.37.88,9.35,9.35,0,0,0-3.34,2.53,11.46,11.46,0,0,0-2.1,4,17.18,17.18,0,0,0-.73,5.13,15,15,0,0,0,.75,4.89,10.92,10.92,0,0,0,2.16,3.77,9.46,9.46,0,0,0,3.39,2.41,11,11,0,0,0,4.38.85,11.58,11.58,0,0,0,4.51-.85,9.27,9.27,0,0,0,3.43-2.45A11.09,11.09,0,0,0,211,20.39a16,16,0,0,0,.75-5.05,15.22,15.22,0,0,0-.78-5,11.36,11.36,0,0,0-2.23-3.85"/><polygon points="215.78 7.3 222.77 7.3 222.77 26.98 226.62 26.98 226.62 7.3 233.54 7.3 233.54 3.69 215.78 3.69 215.78 7.3"/><polygon points="238.42 26.99 252.78 26.99 252.78 23.37 242.26 23.37 242.26 15.26 251.74 15.26 251.74 11.65 242.26 11.65 242.26 7.27 252.78 7.27 252.78 3.66 238.42 3.66 238.42 26.99"/><polygon points="262.25 23.37 262.25 3.69 258.47 3.69 258.47 26.99 273.5 26.99 273.5 23.37 262.25 23.37"/><polygon points="198.31 203.25 198.28 203.35 195.53 203.35 189.56 220.8 183.6 203.35 180.88 203.35 180.85 203.28 180.85 203.35 178.06 203.35 178.06 226.71 181.78 226.71 181.78 208.79 187.99 226.71 191.24 226.71 197.39 208.82 197.39 226.71 201.11 226.71 201.11 203.35 198.31 203.35 198.31 203.25"/><path d="M223.62,219.17c-.16.4-.29.74-.42,1a4.7,4.7,0,0,1-.36.71,4.87,4.87,0,0,1-.43.56,7.12,7.12,0,0,1-.55.55,6.1,6.1,0,0,1-1.93,1.16,6.66,6.66,0,0,1-5-.17,5.66,5.66,0,0,1-2-1.66,8.16,8.16,0,0,1-1.32-2.71,13.36,13.36,0,0,1-.47-3.68,12,12,0,0,1,.49-3.57,8,8,0,0,1,1.35-2.68A6,6,0,0,1,215,207a6.13,6.13,0,0,1,2.71-.59,6,6,0,0,1,4,1.44,4.52,4.52,0,0,1,.92,1,12,12,0,0,1,.8,1.69l.26.66,3-3-.19-.31c-.31-.55-.61-1-.87-1.42a5.77,5.77,0,0,0-.89-1.09,7.53,7.53,0,0,0-1-.83c-.36-.24-.79-.49-1.29-.76a10.06,10.06,0,0,0-4.64-1.05,11.14,11.14,0,0,0-4.47.86,9.71,9.71,0,0,0-3.39,2.46,10.69,10.69,0,0,0-2.15,3.85,17.59,17.59,0,0,0,0,10,11.55,11.55,0,0,0,2.09,3.86,9.23,9.23,0,0,0,3.31,2.48,10.66,10.66,0,0,0,4.33.86,11.35,11.35,0,0,0,4.81-1.05,12.85,12.85,0,0,0,1.35-.7,6.81,6.81,0,0,0,1.09-.83,8,8,0,0,0,.93-1.1c.29-.4.6-.87.94-1.42l.18-.29-2.88-3.37Z"/><path d="M243.41,211.74h-7.68v-4.87h7.47a3.28,3.28,0,0,1,2.23.66,2.38,2.38,0,0,1,.72,1.91c0,1-.28,2.3-2.74,2.3m1.17,3.43.75-.14a7.42,7.42,0,0,0,1.07-.29,5,5,0,0,0,.87-.39,6.86,6.86,0,0,0,.78-.51,4.39,4.39,0,0,0,1.37-1.87,6.68,6.68,0,0,0,.52-2.53,6.54,6.54,0,0,0-.72-3.08,5.25,5.25,0,0,0-2-2.14,5.79,5.79,0,0,0-1.83-.68,14.55,14.55,0,0,0-2.54-.19H231.94v23.36h3.79V215.46h4.79l6.16,11.25h4.37Z"/><path d="M261.15,224.27a2.38,2.38,0,1,1-2.38-2.38,2.39,2.39,0,0,1,2.38,2.38"/></svg>