<svg id="pod-logo" width="191px" height="80px" class="logo" x="0" y="0" xmlns="http://www.w3.org/2000/svg" viewBox="0 0 314.94 131.89"><path d="M71.52,86.38A29.14,29.14,0,1,0,42.39,57.23h0A29.14,29.14,0,0,0,71.52,86.38ZM156.4,28.1a29.14,29.14,0,1,0,29.14,29.14h0A29.14,29.14,0,0,0,156.4,28.1Zm84.88-.28A29.14,29.14,0,1,0,270.42,57a29.14,29.14,0,0,0-29.14-29.18Zm36.45-24.9v54a36.48,36.48,0,1,1-36.49-36.47h0c12,0,23.15,5.32,29.2,14.62v-34A66.9,66.9,0,0,0,258.06,0H56.93C-11,0-18,87.63,35.07,106.53V57.24A36.48,36.48,0,1,1,71.55,93.72h0c-11.95,0-23.14-5.33-29.2-14.62v29.48a68.32,68.32,0,0,0,14.61,1.52H257.67C327.79,110.1,332.37,20.36,277.73,2.92ZM156.4,93.72a36.48,36.48,0,1,1,36.48-36.48h0A36.48,36.48,0,0,1,156.4,93.72Zm-52.71,28.07h-7.8a3.35,3.35,0,0,0-2.07.48,2.48,2.48,0,0,0-.55,1.91v5.33a2.45,2.45,0,0,0,.55,1.89,3.14,3.14,0,0,0,2.07.49h7.8a3.19,3.19,0,0,0,2.06-.49,2.49,2.49,0,0,0,.56-1.89v-5.33a2.58,2.58,0,0,0-.54-1.91A3.37,3.37,0,0,0,103.69,121.79Zm.17,8.16H95.73v-6.29h8.13ZM45,125.64H37.32v-3.85h-2.5v10.1h2.5v-4.24H45v4.24h2.46v-10.1H45Zm222.71-3.85h-2.5v10.1h10.4V130h-7.9Zm-56.37,5.74h4.85v-1.75h-4.85v-2.19h8.33v-1.8H208.84v10.1h10.95V130h-8.45Zm-59.94-3.91h4.88v8.27h2.46v-8.27h4.87v-1.83H151.4Z" style="fill:#000"/><path d="M235.06,37.14h6.05c5.11,0,8.63,3.5,8.63,8.07h0c0,4.56-3.52,8.11-8.63,8.11h-6.05Zm2.85,2.6v11h3.2a5.3,5.3,0,0,0,5.63-5,4.64,4.64,0,0,0,0-.53h0a5.34,5.34,0,0,0-5.13-5.53h-3.71Z" style="fill:#000"/><path d="M250.63,45.3h0a8.21,8.21,0,0,1,8-8.4H259a8.43,8.43,0,0,1,6.35,2.53l-1.83,2.11a6.42,6.42,0,0,0-4.54-2,5.46,5.46,0,0,0-5.37,5.55,1.09,1.09,0,0,1,0,.18h0a5.47,5.47,0,0,0,5.2,5.72H259a6.32,6.32,0,0,0,4.66-2.09l1.83,1.86a8.37,8.37,0,0,1-6.59,2.87,8.16,8.16,0,0,1-8.27-8Z" style="fill:#000"/></svg>