<svg xmlns="http://www.w3.org/2000/svg" id="marmalade-logo" class="logo" viewBox="0 0 2343.14 1210.56"><path d="M933.17 151.74a290 290 0 0 0-38.66 84.44 299 299 0 0 0-10.35 63.34c-2.51 45.27 5.24 88.76 21.92 130.78.56 1.41 1.07 2.86 1.49 4.33.09.3-.23.86-.53 1.12a.84.84 0 0 1-1.22-.21 32.24 32.24 0 0 1-1.92-3.12 288.09 288.09 0 0 1-33-151.62 297 297 0 0 1 88.46-194.62q66.08-64.3 156.75-81.18a280.57 280.57 0 0 1 63.56-4.76c70.89 3.09 133.59 27.19 187.42 73.72a302.94 302.94 0 0 1 74.54 95.83A297.69 297.69 0 0 1 1471 270.71a293.78 293.78 0 0 1 1.39 47.71 297.72 297.72 0 0 1-25.89 107c-27.27 60.17-69.9 106.23-127.43 138.63-25.91 14.59-53 26.05-82.07 32.76a290.9 290.9 0 0 1-49.47 7.23c-77.2 4.32-146-17.79-206.7-65.5A279.8 279.8 0 0 1 944 503.37c-1.82-2.06-3.69-4.09-5.63-6.05-15-15.06-19.26-32.95-13.62-53.19 1.11-4 1-7.14-1-10.81a267.31 267.31 0 0 1-29.89-92.17q-11.75-88.41 28.85-168c3.56-7 7.58-13.66 11.45-20.45 2.57-6.83 7.8-11.93 11.63-17.82l-.07.08c-4.43 5.47-7.59 11.8-12.55 16.78z" fill="#74948d"/><path d="M71.46 740.15c-.93 1.13-.58 2.22-.58 3.23 0 51.16-.12 102.33.13 153.49.1 19.22 2.69 38.17 9.14 56.42a75.46 75.46 0 0 0 12.95 23.64c8.61 10.28 19.52 16 33 16.78 3.14.18 4.73 3.14 3.3 6a1.91 1.91 0 0 1-1.86 1H3.88c-3.72-.09-4-.51-3.85-4.36.07-1.93.77-2.76 2.73-2.73a46.84 46.84 0 0 0 14-2.22 50.3 50.3 0 0 0 25.56-17.87c8.66-11.1 13.42-24 16.64-37.48 3.75-15.73 5-31.73 4.94-47.86q0-78.59.05-157.17a15.1 15.1 0 0 0-2.51-8.6C53 709.46 41.6 700.58 25.92 698c-3-.5-6.08-.8-9.12-1.06-2.68-.22-2-2.18-2.1-3.75s-.06-3.19 2.23-3.19h3.21c29.88 0 59.75.07 89.62-.09 3.67 0 5.34 1.23 6.84 4.45q52.47 113.12 105.18 226.1c.75 1.62 1.21 3.44 2.81 5 1.26-1.43 1.57-3.07 2.12-4.56L310 696.06c2.58-6.95 1-6.09 8.58-6.11q37.68-.06 75.36 0h2.76c4.06.1 4.41.57 4.12 4.58-.11 1.53-.66 2.12-2.18 2.27a55.77 55.77 0 0 0-8.16 1.22c-13.29 3.38-20.06 12.64-22.65 25.54a59.92 59.92 0 0 0-1 11.88v213.24c0 8.19 1.09 16.19 4.38 23.76 5.56 12.79 15.29 19.91 29.21 21.27 1.13.11 2.68-.43 3.15 1.15a8.79 8.79 0 0 1 0 5 1.41 1.41 0 0 1-1.45.9c-1.22.06-2.45.08-3.67.08h-114c-3.52-.08-5.26-2.91-3.73-6a2 2 0 0 1 1.87-1c1.37-.12 2.76-.15 4.11-.4a26.51 26.51 0 0 0 19.09-13.73c3.6-6.39 5.19-13.4 5.92-20.59a128.2 128.2 0 0 0 .57-12.85q.06-114.43 0-228.86c0-1.47.37-3-.54-4.75-1.29 1.21-1.49 2.72-2 4Q256.52 857.5 203.31 998.4c-.33.86-.64 1.72-1 2.57-1.44 3.72-1.45 3.57-5.21 3.71-2.38.09-3.54-.89-4.47-3-3.37-7.55-6.91-15-10.37-22.53Q128 861.61 73.64 744.05c-.64-1.31-.97-2.82-2.18-3.9zM951.33 835.32c2.17-1.73 2.62-3.41 3.47-4.81 11.56-19.13 27.71-32.13 49.89-36.66a65.53 65.53 0 0 1 35.3 2.65c12.57 4.43 21.07 13.23 26.39 25.31 2.22 5 3.53 10.34 4.93 15.63 1.54-.31 1.49-1.61 1.92-2.52 10.57-22.25 28-36.08 52-41.06a67.54 67.54 0 0 1 37.52 3.08c10.91 4 18.48 11.72 23.29 22.22s6.67 22 7 33.49c.36 11.17.17 22.35.19 33.53 0 24.51 0 49 .11 73.52a80 80 0 0 0 1.78 17.33c1.73 7.67 5.79 13.39 13.56 16 2.59.87 3.69 4 2.61 6.62a1.51 1.51 0 0 1-1.36 1c-1.07.09-2.14.12-3.21.12h-73.52c-4.46 0-4.92-.65-4.52-5.08a2.71 2.71 0 0 1 2.12-2.58c9.85-3.45 13.53-11.23 14.66-20.84a129.65 129.65 0 0 0 .81-15.13v-95.11a62.78 62.78 0 0 0-2.6-18.58c-5.73-18.72-24.54-28.53-43-21.78-14.94 5.47-24.5 16.26-28.26 31.92a23 23 0 0 0-.41 5.49q.32 50.76.62 101.53a69.79 69.79 0 0 0 2 17.75c1.86 6.94 5.82 12 12.79 14.51 2.85 1 3.88 3.54 2.93 6.49a1.69 1.69 0 0 1-1.63 1.33c-1.07 0-2.14.08-3.21.08h-74.34c-1.31-.1-2.84.34-3.31-1.6-.63-2.57 0-5.22 1.89-5.87 11.18-3.87 14.41-12.93 15.22-23.42.47-6.1.58-12.24.59-18.36q.09-42.49 0-85c0-7.35-.27-14.68-2.21-21.87-5.91-21.89-29.06-31.64-48.77-20.34-10.35 5.93-17.44 14.76-21.71 25.87a24.5 24.5 0 0 0-1.52 9q.06 49.41 0 98.8a79.65 79.65 0 0 0 1.83 19.15c1.84 7.49 5.92 13 13.31 15.77 2.52 1 3.59 4.22 2.5 6.75a1.81 1.81 0 0 1-1.81 1.1h-74.9a5.64 5.64 0 0 1-.92 0c-1.6-.31-3.87.92-4.29-2-.5-3.43-.06-4.82 2.67-5.84 7.83-3 11.75-8.83 13.22-16.8 1.18-6.37 1.21-12.81 1.22-19.22q.15-55.14 0-110.28c0-2.76-.21-5.51-.41-8.26a22.73 22.73 0 0 0-10.45-18 65.2 65.2 0 0 0-8.44-4.64c-2.76-1.33-3.09-2.42-2.73-6 .23-2.33 1.83-2.44 3.51-2.81q30.71-6.71 61.4-13.44c3.89-.85 4.22-.58 4.24 3.4v33.08zM1568.31 820.81v136.45a94.15 94.15 0 0 0 1.69 19.17c1.67 8.07 5.81 14 14 16.74 2.27.76 3.47 4.84 2.19 6.79a1.87 1.87 0 0 1-1.56.8h-75.8a12.69 12.69 0 0 1-1.38 0c-1.4-.17-3.17.54-3.63-1.74-.57-2.81 0-5.14 2-5.84 10.24-3.67 13.77-11.81 14.84-21.73a173 173 0 0 0 .77-18.35V723.4a68.63 68.63 0 0 0-.71-11 18.46 18.46 0 0 0-10.38-14.23 37.16 37.16 0 0 0-8.53-3.32c-3.16-.74-2.26-3.1-2.43-5.11-.19-2.25 1.17-2.76 3-3.14 20.67-4.21 41.33-8.51 62-12.73 4-.81 4-.71 4 4q-.06 71.51-.07 142.94zM756.35 838.27c2.31-1.56 2.93-3.17 3.84-4.52 6.66-9.82 14.3-18.75 23.82-25.93s19.75-12.28 31.56-13.94a34.24 34.24 0 0 1 21.32 3.91c13.46 7.24 17.91 25.72 9.25 39.14-6.72 10.41-16.66 14.82-28.78 13.08-11-1.57-18.77-7.73-22.35-18.61a31.65 31.65 0 0 1-1.12-7.23c-.27-3.09-1.1-3.69-4.18-3a30.11 30.11 0 0 0-9.61 4.25c-9.62 6.18-16.8 14.6-22.6 24.34-1.28 2.15-1.15 4.39-1.15 6.67v97.85c0 6.74 0 13.48 1.21 20.15 1.56 8.68 5.39 15.54 14.28 18.64 2.37.83 3 3 2.33 6-.49 2.27-2.27 1.67-3.66 1.68h-33.08c-13.93 0-27.87 0-41.8-.05-1.59 0-3.88 1-4.35-1.92-.55-3.38-.07-4.94 2.54-6 9.1-3.55 12.83-10.84 14-19.89a112.23 112.23 0 0 0 .94-15.12V842.92v-1.37c.4-12-4.91-20.21-16-24.66a24.42 24.42 0 0 0-3-1.24c-2.58-.65-3.18-2.28-3.12-4.77s.73-3.49 3.23-4c9.59-1.93 19.13-4.14 28.69-6.21q16.36-3.56 32.74-7c.44-.1.88-.25 1.33-.32 3.32-.56 3.65-.36 3.66 3.21v33.07z" fill="#113533"/><path d="M886.36 1172.85v-33.06c0-5 .29-5.27 5.17-5.29q20-.06 40 0c5 0 5.2.34 5.29 5.19.13 7.26.13 7.26-7.26 7.27H904.3c-5 0-5.27.28-5.34 5.1 0 3.52-.09 7 0 10.56.11 3.26.5 3.67 3.84 3.73 6.12.1 12.24 0 18.37.05 5.1 0 5.22.17 5.31 5 .12 7 .12 7-7 7h-16.07c-4 .06-4.36.43-4.43 4.58-.07 3.67-.08 7.35 0 11s.49 4.16 4.35 4.2c8 .08 15.92 0 23.88 0 .77 0 1.54-.06 2.3 0 2.22.23 5.12-1 6.5 1.06 1.74 2.6.77 5.93.62 9a2.05 2.05 0 0 1-2.19 1.93c-1.22.08-2.44.12-3.67.12h-38.59c-1.08 0-2.15 0-3.22-.07a2.42 2.42 0 0 1-2.56-2.61v-3.68zM1177.81 1172.39v-32.59c0-5 .33-5.29 5.17-5.3q20-.06 39.94 0c4.92 0 5.15.34 5.24 5.24.12 7.21.12 7.21-7.31 7.22h-25.71c-4.43 0-4.75.37-4.83 4.67-.07 3.52-.08 7 0 10.56.1 3.78.43 4.11 4.35 4.16 6.12.08 12.24 0 18.36 0 4.5 0 4.7.28 4.83 4.62.22 7.47.22 7.47-7.06 7.48h-15.61c-4.58.06-4.83.34-4.89 5.06v10.1c.07 4.28.39 4.62 4.82 4.66 7.65.06 15.31 0 23 0 .92 0 1.84-.07 2.75 0 2.23.21 5.12-1 6.51 1 1.75 2.59.77 5.92.62 8.94a2.06 2.06 0 0 1-2.18 1.94c-1.06.08-2.14.12-3.2.12h-39.49c-.92 0-1.83 0-2.75-.07a2.44 2.44 0 0 1-2.56-2.63c0-1.22-.07-2.45-.07-3.67v-31.68zM1084.6 1172.23v-32.6c0-4.87.29-5.08 5.29-5.14 6.59-.09 6.76 0 6.76 6.48v54.18c0 2.07 1 3.13 3 3.16 1.53 0 3.06.06 4.59.06h21.58c4.33 0 4.61.39 4.73 4.77.19 7.27.19 7.27-7.23 7.27h-33.52c-5 0-5.24-.24-5.26-5.14.03-11 .06-22.02.06-33.04zM1574.63 1172.17v-32.61c0-4.77.25-5 4.86-5.06h41.34c.76 0 1.53 0 2.29.08 1.8.11 2.86 1 2.78 2.89-.07 1.76-1.16 2.36-2.72 2.4s-3.06.06-4.6.06h-33.53c-4.68 0-4.92.28-5 5 0 6.89-.06 13.78 0 20.67 0 3.81.43 4.24 4.23 4.28 8 .08 15.93 0 23.89.05a28.37 28.37 0 0 1 4.12.22c1.49.23 1.85 1.39 1.82 2.74s-.5 2.13-1.77 2.29a33.21 33.21 0 0 1-4.11.24h-23.43c-4.38 0-4.71.39-4.76 4.74q-.09 10.11 0 20.21c0 4.36.29 4.6 4.8 4.62h34.91c1.38 0 2.76 0 4.13.14 1.53.14 2 1.22 2 2.59s-.53 2.39-2 2.56a22.92 22.92 0 0 1-2.75.14h-41.34c-5 0-5.16-.2-5.17-5.19-.02-11.01.01-22.03.01-33.06zM1273.32 1172.86v-32.16a33.33 33.33 0 0 1 .19-4.12c.19-1.5 1.32-1.94 2.67-1.94s2.4.56 2.51 2.08c.09 1.22.12 2.44.12 3.67v24.34c0 4.71.36 5.1 4.88 5.12q16.77.09 33.54 0c4.52 0 4.8-.35 4.82-5.13.05-8 0-15.92 0-23.89 0-1.22 0-2.45.1-3.67a2.4 2.4 0 0 1 2.65-2.52 2.29 2.29 0 0 1 2.62 2.48c0 1.07.06 2.15.06 3.22v64.31c0 1.23 0 2.45-.15 3.67a2 2 0 0 1-2.12 2c-1.32.07-2.56-.19-2.85-1.68a22.44 22.44 0 0 1-.3-4.1v-23.89c0-4.92-.31-5.21-5.23-5.23q-16.54-.06-33.08 0c-4.6 0-4.9.34-4.93 5v26.65c0 1.91-.53 3.31-2.84 3.26s-2.61-1.69-2.62-3.48v-34zM1790.9 1210.45a40.4 40.4 0 0 1-14-2.28c-5.89-2.25-8.79-6.42-8.93-12.61 0-1.62 0-3.14 2.22-3.28 1.83-.13 2.67.62 3.07 2.51 1.48 7 3.31 8.75 10.19 9.74a42.92 42.92 0 0 0 18.65-1c5.55-1.66 8.89-5.25 9.58-11 .8-6.6-1.49-11.08-7.08-14.15a43.79 43.79 0 0 0-10.37-3.65c-4.59-1.19-9.24-2.14-13.72-3.73-9.32-3.31-13-9.41-11.42-19.22a33.86 33.86 0 0 1 1.49-6.23 14.45 14.45 0 0 1 9.55-9.25 37.16 37.16 0 0 1 25.19 1 12.38 12.38 0 0 1 8.05 12.24c0 1.64-.27 3.07-2.4 3.17-1.9.08-2.8-.77-3-2.64-.58-6.14-4.66-8.46-10.16-9.39a34.2 34.2 0 0 0-13.67.17c-6.25 1.45-9.36 5.59-9.91 13.17-.43 5.86 2 9.8 7.77 12.13a73.79 73.79 0 0 0 11.06 3 91.35 91.35 0 0 1 11.93 3.33c8.58 3.32 12.62 9.62 12.22 18.92-.37 8.77-5.15 15-13.66 17.49a41.3 41.3 0 0 1-12.65 1.56zM619.75 1191.06c0-4.43-.11-8.87 0-13.3a12.65 12.65 0 0 0-2.52-8.1c-6.64-9.36-13.13-18.81-19.68-28.23-.79-1.13-1.58-2.25-2.33-3.41-.48-.75-1.25-1.54-.84-2.48.52-1.2 1.77-1 2.82-1 2.37-.11 3.46 1.58 4.61 3.24q8.56 12.48 17.18 24.94c3.49 5.08 3.51 5.11 6.92.16q8.58-12.47 17.13-25c.85-1.24 1.54-2.74 3.18-3.14 1.48-.36 3.34-.88 4.37.28 1.17 1.32-.57 2.45-1.28 3.49-7.1 10.33-14.18 20.68-21.45 30.9a13.67 13.67 0 0 0-2.68 8.51c.13 8.86 0 17.74 0 26.61 0 1.07 0 2.14-.06 3.21a2.34 2.34 0 0 1-2.56 2.56c-1.92.05-2.8-.9-2.84-2.76v-4.13c.03-4.09.04-8.22.03-12.35zM1497.37 1175v-29.84c0-5-.23-5.16-5.19-5.2-5.35 0-10.71 0-16.06-.05-1.65 0-3.11-.32-3.2-2.41-.05-1.37.41-2.48 1.86-2.73a21.31 21.31 0 0 1 3.66-.24h43.16c.92 0 1.83 0 2.75.09 1.6.11 2.54.86 2.53 2.59a2.33 2.33 0 0 1-2.47 2.65c-1.83.07-3.67.09-5.51.1-4 0-8-.06-11.93 0-3.58.09-4 .47-4 4V1207.3c0 1.72-.54 3-2.58 3-2.3.06-2.86-1.32-2.86-3.24v-3.21zM1673.21 1172.38v-32.16a20.1 20.1 0 0 1 .35-4.1c.26-1.25 1.4-1.5 2.54-1.49s2.19.44 2.35 1.72a38.8 38.8 0 0 1 .19 4.58v57.89c0 6.14 0 6.16 6 6.17h30.32a34.65 34.65 0 0 1 3.67.15c1.53.17 2 1.26 1.94 2.63s-.56 2.38-2.06 2.54a25.19 25.19 0 0 1-2.75.13h-37.68c-4.66 0-4.91-.27-4.93-5 .04-11 .06-22.03.06-33.06z" fill="#74948d"/><path d="M933.17 151.74a110.53 110.53 0 0 1 14.48-19.53l.33.29-13.81 20.19z" fill="#dcdcdc"/><path d="M925.94 224.33c-3.12 11.38-6.1 22.78-7.92 34.45a243.18 243.18 0 0 0-2.64 54.91 278.07 278.07 0 0 0 4.88 36.84c.22 1.05.47 2.09.79 3.11a4.58 4.58 0 0 0 .7 1.09c1.45-.37 1-1.43.88-2.24a283.38 283.38 0 0 1-2.38-48.1 251.44 251.44 0 0 1 6.66-49.53c.8-3.42 1.76-6.8 2.65-10.2 1.69-.11 1.26.9 1 1.83-1.67 9-2.85 18.12-3.7 27.25a246.88 246.88 0 0 0-1 27.07A252 252 0 0 0 948.07 401c.6 1.33.84 4 3 3.14 1.53-.63.15-2.75-.29-4.12A272.68 272.68 0 0 1 938 336.65c-2.56-34.88.31-69.41 12.4-102.31a187.91 187.91 0 0 1 45.26-70.57c29.23-28.49 63.82-46.44 104.2-52.18 54.74-7.78 104.08 5.8 146.85 40.88 36.26 29.74 58.56 68.24 65.63 114.62 8.69 57.07-5.65 108.29-43.37 152.22-30.57 35.6-69.6 56.81-116.11 62.94-53.73 7.09-102-6.86-144.29-40.83a138.64 138.64 0 0 1-17.91-17.12 36.41 36.41 0 0 0-48.26-5.78 45.47 45.47 0 0 0-12.66 13.76c-.76 1.27-1.18 2.82-2.58 3.64-1.7-.75-2-2.38-2.68-3.7a276 276 0 0 1-26.45-88 265.21 265.21 0 0 1-1.42-53.2c4.32-58.69 25-111 62.46-156.58a157.38 157.38 0 0 1 13.55-15c.91-.19 1.3.14 1.08 1.09a287.16 287.16 0 0 0-35.87 49.85 263.47 263.47 0 0 0-31.39 93.48 242.42 242.42 0 0 0-2.58 40.73c.79 25.37 4.38 50.29 12.32 74.48a26.59 26.59 0 0 0 1 2.58c.09.21.48.3 1.42.85-2.11-10.9-4.64-21.2-6-31.7a256 256 0 0 1-2.51-32c-.07-10.87 0-21.74 1.16-32.56a290.36 290.36 0 0 1 5.12-31.71c2.35-10.47 5.41-20.73 8.75-30.92.75-.47.99-.14.82.72z" fill="#fff"/><path d="M973.68 120.55l-1.08-1.09c7.65-8.79 16.47-16.33 25.49-23.65a61.42 61.42 0 0 1 8.17-6.11c-.38.71 0-.13.24.44a.52.52 0 0 1-.06.44 6.38 6.38 0 0 1-1 1c-11.44 8.65-21.44 18.97-31.76 28.97z" fill="#e9e9e9"/><path d="M925.94 224.33l-.93-.71a40.09 40.09 0 0 1 6-13.27c-.76 2.26-1.49 4.53-2.3 6.77-.9 2.42-1.85 4.81-2.77 7.21z" fill="#cbcbcb"/><path d="M930.53 246.49l-1-1.83c.73-3.58 1.51-7.13 3.58-10.24a41.72 41.72 0 0 1-2.58 12.07z" fill="#dbdbdb"/><path d="M1016.42 82.61c-.69 1.83-2.35 2.39-3.88 3.12.58-1.99 2.35-2.4 3.88-3.12z" fill="#cdcdcd"/><path d="M952.79 126.67c-.34.19-.66.08-.59-.25a2.35 2.35 0 0 1 .61-1 .9.9 0 0 1 .69 0c.2.58-.3.9-.71 1.25zM947.65 132.21a4.05 4.05 0 0 1 2.2-2.62c0 1.62-1.06 2.18-1.88 2.91z" fill="#dcdcdc"/><path d="M933.14 234.42c.08-.67-.3-1.46.47-2 .52.86-.05 1.4-.5 2z" fill="#dbdbdb"/><path d="M652.79 974.08a10.66 10.66 0 0 0-5.41-2.23c-1.29-.17-1.36 1.44-1.9 2.28a13.5 13.5 0 0 1-14.64 6.13c-5.7-1.12-9.6-4.51-12.31-9.44-3.55-6.49-4.66-13.53-4.66-20.83v-65.23a238.86 238.86 0 0 0-1.61-30.25c-1.32-10.37-3.64-20.48-8.16-30-6.89-14.5-17.84-24.44-33.43-28.58-21-5.57-42-4.9-62 3.84-16 7-29.49 17.37-38 33.2a23.68 23.68 0 0 0-2.53 16.41 22.95 22.95 0 0 0 45.25-1.9c1.4-11-5.15-20.88-16.06-24.12a14.16 14.16 0 0 0-1.77-.5c-2.27-.32-2.23-1.76-1.57-3.36a15.25 15.25 0 0 1 4.2-5.4 48.21 48.21 0 0 1 23.12-11.58c14.33-2.8 25.5 2.33 33.75 14.17a53.8 53.8 0 0 1 6.7 14c5.84 17.75 3.7 36.09 4 54.24a2 2 0 0 1-1.88 2.18c-1 .2-2.06.55-3.1.82-19.09 4.93-38.32 9.38-57.07 15.57-11.36 3.75-22.49 8-32.24 15.2-6.54 4.8-11.82 10.71-14.85 18.32a56.59 56.59 0 0 0-2.68 34.25c3.32 14.37 12.81 23.39 26.14 28.57 20.16 7.84 39.92 5.72 59.2-3.26a55.2 55.2 0 0 0 21.64-17.32 54.2 54.2 0 0 0 5-8.73c1.42 1.24 1.25 2.72 1.58 4 3.24 13 11 22 23.5 26.83a47 47 0 0 0 27.06 2.2c11-2.26 20.42-7.25 27.95-15.64a32.45 32.45 0 0 0 6.81-11.34c.18-.74.82-1.8-.03-2.5zm-89.47-11.74C555 977.11 539.71 983.9 523.65 980A27 27 0 0 1 505 965c-6.64-13.59-5-26.74 2.95-39.25 4-6.3 9.58-11.09 15.82-15.1 12.14-7.79 25.59-12.25 39.51-15.49a13.47 13.47 0 0 1 1.94-.17 9.22 9.22 0 0 1 .55 4.49c0 17.91 0 35.82.06 53.72a17.81 17.81 0 0 1-2.51 9.14zM1459.85 973.14c-3.87-1.71-4.12-1.81-5.86.93a13.41 13.41 0 0 1-14.59 6.2c-6.08-1.18-10.08-4.89-12.79-10.2a43.52 43.52 0 0 1-4.35-20v-67.55a214.51 214.51 0 0 0-1.14-25.22c-1.4-11.92-3.81-23.58-9.3-34.39a51.35 51.35 0 0 0-32.14-26.91 86.08 86.08 0 0 0-19.9-3.19c-26-1.58-48.94 5.9-68.17 23.82a62.77 62.77 0 0 0-12.92 17.18 23 23 0 1 0 43.14 14.19c1.45-11.41-5-21.29-16.08-24.58-.73-.22-1.46-.45-2.21-.62-1.6-.36-1.89-1.32-1.36-2.73a13.86 13.86 0 0 1 3.69-5.21 49.07 49.07 0 0 1 25.13-12.54 31.45 31.45 0 0 1 14.53.7c8.41 2.43 14.38 7.91 18.9 15.15 5.29 8.48 7.79 17.9 9 27.71 1.6 12.36.63 24.78.86 37.17.06 3.61-.06 3.62-3.57 4.59-.58.16-1.19.25-1.79.4-19.1 4.92-38.33 9.39-57.08 15.59-10.91 3.6-21.59 7.78-31.1 14.46s-15.64 15.39-18.25 26.64a65 65 0 0 0-1.42 15.06c.09 19.29 9.32 33 27.25 40.08 15.4 6.13 31.09 6.18 46.82 1.57 16.91-5 31-13.82 39-30.29.06-.11.24-.15.66-.4a3.72 3.72 0 0 1 .33.59c.3 1.19.57 2.38.86 3.57 3.26 13.23 11.33 22.4 24.13 26.74 20 6.79 37.68 2.08 52.91-12.23a30.91 30.91 0 0 0 7.79-11.79c.69-1.71 1.69-3.31-.98-4.49zm-87.56-11.67c-8 15.22-23.75 22.56-40 18.52-13.21-3.27-20-12.59-22.18-25.26-2.61-15.11 3-27.63 14-37.84 7.29-6.73 16-11.25 25.13-14.85a134.59 134.59 0 0 1 25.11-7.36v4.78c0 17.9 0 35.8.05 53.7a17.17 17.17 0 0 1-2.11 8.31zM1836.32 973c-4-1.59-3.91-1.77-5.53.81-3.53 5.6-8.86 7.72-15.37 6.27-6.26-1.39-10.09-5.53-12.64-11a45.06 45.06 0 0 1-3.85-19.2v-68a202.72 202.72 0 0 0-1.87-29.76c-1.52-10.51-4.1-20.71-9.11-30.17a51.29 51.29 0 0 0-31.78-26 86.72 86.72 0 0 0-19.9-3.14c-25.16-1.51-47.46 5.46-66.43 22.36a66.91 66.91 0 0 0-14.38 18.34 23.21 23.21 0 0 0 22.93 34.06 23.09 23.09 0 0 0 20.23-20.63c1.07-10.79-5.61-20.42-16.34-23.58-4.32-1.27-4.67-2.16-2.07-5.81a19.19 19.19 0 0 1 2.73-3.1 49.24 49.24 0 0 1 24.79-12.14 31.32 31.32 0 0 1 14.53.75c9.08 2.67 15.23 8.8 19.79 16.77 4.79 8.38 7.05 17.55 8.18 27.06 1.46 12.21.59 24.47.89 36.71.07 2.53-1 3.52-3.29 3.93-1.95.35-3.87.93-5.79 1.43-18.8 4.84-37.72 9.26-56.11 15.57-11 3.78-21.78 8.18-31 15.5a41.87 41.87 0 0 0-13.64 18.13 57.72 57.72 0 0 0-2.64 31.19c2.8 15.45 12.63 25.07 26.81 30.66s28.61 5.91 43.27 2.29c12-2.95 22.73-8.11 31.75-16.64 4.5-4.25 7.88-9.29 11-15.9.7 2.84 1.09 4.61 1.58 6.36 3.24 11.66 10.47 19.9 21.54 24.71 19.21 8.33 43.84 2.43 57.26-13.66a34.84 34.84 0 0 0 5.87-9.8c.68-1.89 1.15-3.31-1.41-4.37zm-85.18-19.8a16.07 16.07 0 0 1-1.79 7.47c-7.29 14.52-20.77 21.86-36.91 20-12.84-1.46-22.81-11-25.52-24.73-2.75-14 1.49-26 11-36.29a61.8 61.8 0 0 1 16.47-12.32c10.42-5.66 21.61-9.24 33.06-12.08a5.71 5.71 0 0 1 3.18-.24c.84 1.23.5 2.65.5 4-.02 18.11-.06 36.17.01 54.22zM2106.7 988.22a55.85 55.85 0 0 1-6.79-1c-6.56-1.31-10.56-5.23-11.81-11.84a81.05 81.05 0 0 1-1.22-15.08V679.6c0-1.94.35-4-.47-6-3.95 0-7.6 1.23-11.31 2-18 3.64-36 7.36-53.94 11-2 .4-3.4.8-3.38 3.36 0 3.74 0 3.92 3.16 5a60.61 60.61 0 0 1 9.39 3.69 17 17 0 0 1 9.56 13.7 72.11 72.11 0 0 1 .62 8.7v80.39c0 1.51.28 3-.46 4.87a11 11 0 0 1-4-1.76 89.74 89.74 0 0 0-16-6.76c-27.39-8.23-54.51-6.71-81 3.43-27.4 10.48-45 30.39-53.38 58.46a124.35 124.35 0 0 0-4.84 34.9c-.12 19.52 2.94 38.4 11 56.32 20.46 45.5 65.71 60.82 104.08 50.87 17.53-4.54 32.59-13.09 43.17-28.34.29-.41.66-.63 1.49-.24v4.31c0 6-.08 12 0 17.92.11 5.6 3.27 8.75 8.85 9a21.71 21.71 0 0 0 4.1-.3q19.74-3 39.45-6.1c4.69-.73 9.34-1.66 14-2.24 3.06-.37 2.47-2.45 2.6-4.38.13-2.08-.72-3.02-2.87-3.18zm-66.24-91.94v40.57a66.71 66.71 0 0 1-2 16.83c-6 23.07-24.72 36.93-48.78 36.58-20-.29-34-9.48-42.63-27.32-5-10.46-7.69-21.61-9.27-33a280.15 280.15 0 0 1-1.7-60.5c1-13.16 3.08-26.15 8-38.52a62.55 62.55 0 0 1 7.39-13.71 40.48 40.48 0 0 1 31.93-17.43c22.18-1.2 38.31 8.52 48.55 28.09 4.82 9.22 7 19.21 7.92 29.52 1.18 13.75.28 27.54.59 38.89zM2343.14 891c-.1-15.72-2.08-31.16-7.39-46-9.3-26.09-27.28-42.67-54.36-49.07a114.18 114.18 0 0 0-45.13-1.77c-31.79 5.18-55.75 21.89-70.15 50.62-16.22 32.35-17.46 65.95-3.81 99.59a97.57 97.57 0 0 0 42.66 49c31.05 17.94 75 13.71 101.66-5.3a79.41 79.41 0 0 0 24.92-28.37 52.74 52.74 0 0 0 4-9.76c.67-2.31.06-2.73-3.45-4.38-1.93-.9-2.72-.18-3.6 1.37-4.83 8.58-12.2 14.45-20.76 18.9a75.58 75.58 0 0 1-41.7 8.68c-18.59-1.53-34.25-9-45.67-24.08-11.73-15.47-15.79-33.56-17.12-52.49-.13-1.89.49-2.92 2.53-2.82 1.22.06 2.45 0 3.67 0h129.59c4.08-.12 4.13-.19 4.11-4.12zm-49.91-3h-86.38c-3.69 0-3.79-.08-3.72-3.47.4-19.85 4.27-38.9 13.34-56.71a64 64 0 0 1 14.82-19.7c5.56-4.84 11.82-8.19 19.39-8.43 6.53-.22 12.31 2 17.61 5.64a48.77 48.77 0 0 1 13.76 15.22c6.21 10.21 9.74 21.42 12 33.06a171.42 171.42 0 0 1 3 30.58c.05 3.69-.05 3.81-3.82 3.81z" fill="#113533"/><path d="M1035.81 1205.61c-4.38-6.28-8.78-12.55-13.12-18.86-.84-1.22-2.07-2.29-2.1-4.3 3.35-1.16 6.9-2.13 9.56-4.84 7.94-8.07 9.41-17.59 6-28-3.09-9.4-10.83-14.72-21.94-15-9.18-.26-18.38-.12-27.56-.06-4.26 0-4.63.46-4.66 4.88-.05 8.73 0 17.45 0 26.18v40.43c0 4 .38 4.26 4.07 4.43 8.38.39 8.38.39 8.39-8.07v-15.62c0-1.34-.12-3 1.58-3.44a25.51 25.51 0 0 1 9.58-.11c2.2.33 2.9 2.58 4 4.19 4.45 6.61 8.82 13.27 13.23 19.89.84 1.26 1.58 2.87 3.29 3 3.51.17 7 .15 10.55.08 1.31 0 1.36-1.06.87-2a27.5 27.5 0 0 0-1.74-2.78zm-38.95-34.93c-1.69 0-2.32-1.29-2.34-2.83v-17.4c0-2.19.93-3.45 3.27-3.43h17.39a6.88 6.88 0 0 1 3.87 1.27c4.42 3 5.62 7.41 5.07 12.43-.53 4.79-3.45 8.4-8.08 9.41-6.35 1.43-12.79.66-19.18.55zM815.71 1134.5c-8.58-.08-17.16 0-25.73 0-4.67 0-4.92.29-4.93 5v63.87c0 7.18 0 7.18 7 7.07 4.86-.08 5-.21 5.05-5.32v-17.92c0-3.89.37-4.19 4.24-4.25 5.51-.08 11 .06 16.54-.06 9.28-.21 15.52-4.9 19.09-13.33a29.78 29.78 0 0 0 2.14-9.84c.89-14.78-8.65-25.08-23.4-25.22zm11.29 26.13c-1.23 7-4.79 10.11-11.84 10.2-4.74.06-9.48.08-14.22 0-3.3-.07-3.73-.49-3.79-3.76-.09-5.5-.1-11 0-16.51.07-3 .54-3.38 3.58-3.51s5.81 0 8.71 0h6.42c8.05.04 12.54 5.56 11.14 13.58zM537 1173.4l-1.51-1a1.66 1.66 0 0 1-.44-2.71c.58-.72 1.2-1.4 1.75-2.13a21.12 21.12 0 0 0-.36-25.64c-4.25-5.33-10-7.32-16.62-7.37-7.81-.07-15.63-.06-23.44 0-4.86 0-5.18.35-5.2 5.27V1205.53c0 4.57.41 4.93 5 5 9.65 0 19.3.09 29 0 9.27-.1 16.5-5.27 19.15-13.72 2.79-8.91.24-18.23-7.33-23.41zm-40.37-18.58v-11.46c0-2.26 1.07-3.4 3.34-3.39 7.34 0 14.69-.3 22 .17 8.38.52 13.38 6.6 13.24 15.15s-5.47 14.25-13.91 14.56c-6.86.25-13.75.12-20.62 0-3.47-.05-4-.59-4-4.06-.09-3.63-.02-7.3-.02-10.97zm29.59 50.08c-3.8.24-7.64.08-11.46.09-4.73 0-9.47.06-14.2 0-3.38-.07-3.85-.45-3.89-3.63q-.15-11 0-22c0-3.41.53-3.82 4.16-3.89 4.43-.09 8.86 0 13.29 0 3.82 0 7.64-.07 11.46 0 8.52.17 14 5.68 14.2 14.07.22 8.65-5.14 14.81-13.53 15.36zM1429.23 1154.29c-.3-10.43-7.62-18.18-18-19.46a72.47 72.47 0 0 0-18.32 0c-10.6 1.4-17.54 9.38-17.69 20.08-.08 5.82 0 11.63 0 17.45h-.06c0 5.82-.06 11.63 0 17.45.15 11.81 8.41 20.24 20.19 20.56 4.44.13 8.88.1 13.32 0 11.46-.22 20.23-8.44 20.54-19.87q.53-18.07.02-36.21zm-5.36 18.37c0 5.36.06 10.71 0 16.06-.13 10.19-6.15 16.13-16.41 16.26-3.83 0-7.65.07-11.47 0-9.24-.22-15.24-6.16-15.31-15.33q-.11-17.21.06-34.41c.1-8.49 5.64-14.5 14.14-15.13a98.41 98.41 0 0 1 14.67 0c8.35.62 14 6.76 14.28 15.14.17 5.8 0 11.62 0 17.43z" fill="#74948d"/></svg>