<svg xmlns="http://www.w3.org/2000/svg" id="juliani-logo" class="logo" viewBox="0 0 620.25 227.24"><path d="M246.27 84l.81-2.34a3.08 3.08 0 0 0-.92-3.32 4.73 4.73 0 0 0-3.9-1.07c-1.14.19-3.52.58-22.57 16.3-10.68 8.79-18.74 9.58-20.31 8.41-1.14-.83-1-5.53 6.92-14 1.78-1.9 7.21-7.69 3.64-12-3.41-4.07-11.19-2.58-16.74-1.1-4 1.07-11.52 3.47-20.73 6.67 3.64-6.48 7-13 10.1-19.35 9.32-19.5 13.86-33.88 13.79-44 0-4.49-1-8.14-2.81-11A15.64 15.64 0 0 0 182.76.33c-13.86-2.58-32.52 10.3-44.29 22.11-17.43 17.49-32.17 43.74-21.28 65a4.55 4.55 0 0 0 5.48 1.83c2.12-.76 3.11-2.8 2.2-4.58-9.43-18.36 4.9-42.6 20-57.78C157.78 14 172.94 5.64 181 7.13a7.29 7.29 0 0 1 5.23 3.29c1 1.63 1.79 4.07 1.82 7.73.05 7.53-3 20.2-13.19 41.48-4.18 8.74-8.87 17.46-13.94 26.06-17 6.21-36.79 14.07-51.59 21.31C46.92 137.44 2 177.46.06 204.29q-.06 1-.06 1.92c.06 7.39 3.63 13.52 10.42 17.84 5.22 3.31 12 4 20 2.2 36.34-8.39 98.06-70.92 136.58-135.19 12.83-4.64 23.68-8.19 28.77-9.54a30.11 30.11 0 0 1 6.59-1.18 17.88 17.88 0 0 1-2.61 3.34c-7.13 7.64-9.24 13.07-9.22 16.84a8 8 0 0 0 3.33 6.62c6.58 4.88 19.62 1.31 31.73-8.66 4-3.33 7.19-5.86 9.75-7.86a22.17 22.17 0 0 0-1.16 6.49c0 4.6 2.24 7 4.48 8.36 6.5 3.8 17.66.92 34.88-9a14.19 14.19 0 0 0 7.94 10.4c9.73 4.6 25.46-.23 40.31-12.26a11.58 11.58 0 0 0-.3 2.56c0 3.52 1.87 6.46 5.39 8.41 7.1 3.94 19.26 2.49 29.69-3a10 10 0 0 0 4 4.76c11.46 7.4 29.63-4.19 39.11-10.46a8 8 0 0 0-.53 2.74c0 3.08 1.85 6.07 5.21 8.25 5.95 3.87 17.95 5.71 32.21-1.86l14.23-7.76c6.39-3.52 13.8-7.61 18.68-9.83-3.51 5.66-4.58 7.45-4.92 8.11-1.62 2.46-2.21 4.38-2.19 5.84a4.47 4.47 0 0 0 2 3.8c4.48 3 10.62-1.42 13.25-3.32 3.9-2.82 6.8-4.76 8.92-6a15.65 15.65 0 0 0-.79 4.61 7.18 7.18 0 0 0 3 6.1c4.28 3.08 11.34 2.42 24.37-2.23l4.78-1.74c6.32-2.3 22.2-8.09 27.74-8.23a3.21 3.21 0 0 1-.12.31 9.18 9.18 0 0 0-1.1 4.21 6.81 6.81 0 0 0 2.25 5c6.86 6.39 30.6 4.71 70.59-5 2.22-.54 3.49-2.47 2.85-4.32a4.36 4.36 0 0 0-5.17-2.37c-43.69 10.59-59.69 9.23-62 7-.38-.36.21-1.61.34-1.86 2.17-4.34.71-6.81-.89-8.11-4.92-4-15.64-1.11-37.79 7l-4.72 1.71c-12.79 4.56-15.39 3.46-15.59 3.36a2 2 0 0 1-.15-.87 9.6 9.6 0 0 1 .54-2.89 14.19 14.19 0 0 0 .83-4.4 5.2 5.2 0 0 0-2.85-4.94c-4.49-2.32-12.23 3.23-20.44 9.09 1.46-2.39 5-7.7 5-7.7 1-1.55 2.55-3.64 2.54-6.08a4.29 4.29 0 0 0-1.89-3.5c-4.47-3.34-11.19.1-31.74 11.46L432 100.11c-9.9 5.26-18.47 4.91-22.58 2.24a5.78 5.78 0 0 1-2-4.67c.44-3.77 1.61-9.1-1.14-10.58-3.08-1.67-6.8 1-8.35 2l-2.58 1.68c-5.71 3.79-23.1 15.34-29.76 11-1.56-1-1.53-2.89-1.24-4.29 1.37-6.55 11-16.2 29-21 11.33-3 19.79-1.93 22.55 2.3 2.05 3.14.5 7.76-3.55 10.52a3.1 3.1 0 0 0-.58 4.89 4.77 4.77 0 0 0 5.88.49c7.15-4.89 9.56-13.16 5.58-19.23-2.32-3.55-10.12-11.17-32.38-5.19-19.26 5.17-30.42 15-33.82 23.33a4.09 4.09 0 0 0-.48.29c-9.93 7.25-21.11 8.09-25.07 5.91-.64-.37-2.61-1.45-1.06-5.31 2.47-6.12 4.09-10.16.22-12.13s-7 .75-13.9 6.66c-13.35 11.1-25.78 14.36-31.16 11.81-2.78-1.32-4.22-4.47-4.25-9.06v-.08c29.37-19.08 50.5-48.3 50.41-60a6.79 6.79 0 0 0-.12-1.31 6.22 6.22 0 0 0-4.56-5c-3.16-.92-7-.38-11.51 1.62-14.21 6.35-32.63 26.09-40.34 51.56a51.43 51.43 0 0 0-2 9.6c-.2.13-.39.26-.6.38-23.52 14.24-29 11.39-29.16 11.27-1.07-.62-1.47-3.45.15-8.16l2.69-7.66m37-3.73c7.91-26.08 26.47-43 36.29-47.34 1.86-.83 3.27-1.18 3.84-1a.52.52 0 0 1 .42.53C323.9 38.8 309 62.51 283 81.56c.14-.46.19-.86.32-1.33zM28.18 219.54c-5.46 1.27-9.62.93-12.7-1-4.75-3-7.1-7-7.13-12.28 0-.51 0-1 .05-1.52 1.74-23.87 46.91-63.3 105.09-91.72 11.94-5.83 27.16-12.06 41.44-17.48-39.27 62.62-96.88 117.14-126.75 124" fill="#00afdd"/><path d="M558.39 86.61c4 .44 8.3-.94 10.65-4.26.91-1.26.87-2.48-.38-3.35a3.33 3.33 0 0 0-4.66 1.08 3.66 3.66 0 0 1-3.24 1.31 3.55 3.55 0 0 1-2.89-1.7 2.76 2.76 0 0 1 .5-3.06c.7-.72 2.41-1.43 5-1.09 2.27.28 4.4-1 4.75-2.93s-1.23-3.66-3.5-4c-5-.64-9.57.73-12.45 3.76-2.59 2.72-3.31 6.29-1.86 9.29 1.33 2.78 4.18 4.48 8 4.9M338.55 76.09c4 .44 8.3-.94 10.64-4.25.91-1.26.87-2.5-.37-3.36a3.33 3.33 0 0 0-4.64 1.08 3.73 3.73 0 0 1-3.25 1.31 3.59 3.59 0 0 1-2.93-1.69 2.77 2.77 0 0 1 .51-3.07c.69-.72 2.41-1.42 5-1.1 2.27.29 4.4-1 4.75-2.92s-1.23-3.67-3.51-4c-5-.63-9.57.74-12.44 3.77-2.59 2.72-3.31 6.29-1.86 9.29 1.33 2.78 4.18 4.48 8.05 4.9M403.38 48.34h-5.22V29.17H378.6v19.17h-5.23V9.23h5.23v15.31h19.56V9.23h5.22zM438.42 33.69q0 7.19-3.68 11.33A13.77 13.77 0 0 1 415 45q-3.66-4.16-3.66-11.33c0-4.78 1.22-8.57 3.66-11.34a13.74 13.74 0 0 1 19.72 0c2.47 2.79 3.7 6.58 3.7 11.36zm-5.08 0q0-5.67-2.24-8.43a8.39 8.39 0 0 0-12.44 0q-2.22 2.76-2.22 8.43 0 5.49 2.23 8.33a8.24 8.24 0 0 0 12.42 0c1.5-1.85 2.25-4.63 2.25-8.33zM461.28 48.19a26 26 0 0 1-3 .6 20.41 20.41 0 0 1-2.92.24q-4.48 0-6.81-2.43t-2.33-7.77V23.18h-3.34V19h3.34v-8.4h4.93V19h10.15v4.17h-10.17v13.44c0 1.55 0 2.75.1 3.62a5.92 5.92 0 0 0 .73 2.44 3.55 3.55 0 0 0 1.59 1.55 7.49 7.49 0 0 0 3.07.48 9.82 9.82 0 0 0 2.51-.34 16.68 16.68 0 0 0 1.87-.56h.26zM491.79 34.17h-21.52a12.61 12.61 0 0 0 .81 4.72 8.77 8.77 0 0 0 2.22 3.29 9 9 0 0 0 3.22 1.9 12.86 12.86 0 0 0 4.12.62 15.92 15.92 0 0 0 6-1.2 14.71 14.71 0 0 0 4.3-2.36h.26v5.41a40.29 40.29 0 0 1-5.09 1.76 20.26 20.26 0 0 1-5.45.72c-4.85 0-8.65-1.32-11.37-4s-4.09-6.38-4.09-11.23 1.31-8.61 3.92-11.43a13.43 13.43 0 0 1 10.33-4.23q5.93 0 9.14 3.46t3.21 9.85zM487 30.38a8.88 8.88 0 0 0-1.95-6.05q-1.92-2.13-5.85-2.13a8.46 8.46 0 0 0-6.29 2.35 9.1 9.1 0 0 0-2.66 5.83zM504.2 48.34h-4.92V7.49h4.92z" fill="#00afdd"/></svg>