<svg id="concordia-logo" class="logo" xmlns="http://www.w3.org/2000/svg" viewBox="0 0 1163 481"><defs><style>.cls-1{fill:#fefefe;}.cls-2{fill:#ccc;}.cls-3{fill:#ccc;}.cls-4{fill:#747360;}.cls-5{fill:#73725f;}.cls-6{fill:#ccc;}.cls-7{fill:#74735f;}.cls-8{fill:#ccc;}.cls-9{fill:#747460;}.cls-10{fill:#757460;}.cls-11{fill:#767561;}.cls-12{fill:#ccc;}.cls-13{fill:#c7c8ca;}.cls-14{fill:#929497;}.cls-15{fill:#515149;}.cls-16{fill:#545c4f;}.cls-17{fill:#313130;}.cls-18{fill:#656558;}.cls-19{fill:#616155;}.cls-20{fill:#81a356;}.cls-21{fill:#565e50;}.cls-22{fill:#787861;}.cls-23{fill:#fcfdfb;}.cls-24{fill:#6f815b;}</style></defs><title>Artboard 1</title><path class="cls-1" d="M1164,482H1V1H1164ZM619.84,436q.12-31.33.18-62.69a7.56,7.56,0,0,0-1-2.49c0-1.48.23-3.07-.21-4.43-7.39-23.17-23.92-27.87-45.48-24.52-9.18,1.43-15.29,7.67-21.49,15.49V343.15H537.94a10.68,10.68,0,0,0-.9,2.94q-.07,44,0,87.93a10.08,10.08,0,0,0,.93,2.88h13.87V382.06c.41-1.91.84-3.81,1.22-5.72,2.8-14,12.87-21.67,25.43-22.2,15.89-.67,25,9,26.65,24.91v58.43Zm384.31,0,14.85,1.37c0-31.41,0-61.85,0-92.29,0-.65-.6-1.29-.92-1.94H1005a7.59,7.59,0,0,0-.94,2.44Q1004,390.81,1004.15,436ZM877.81,342a31.66,31.66,0,0,0-5.61,1.35c-9.52,4.11-16.49,11.09-22.36,21.11V343.16H836a17.69,17.69,0,0,0-.92,3.94Q835,390.55,835,434c0,.94.15,1.87.21,2.71h14.62V397.07c.53-12.33,3.79-23.79,13.75-31.65,5-3.94,11.6-5.8,17.48-8.6h6.56V340.56ZM95.87,344c-1.1-.67-2.19-1.9-3.31-1.92-8.82-.17-17.64-.11-26.46-.12V315H52.16a3.49,3.49,0,0,0-.63-.52c-.07,0-.39.16-.39.26-.06,3-.12,6-.13,8.94,0,6.07,0,12.15,0,18.6H38.28v14H51c0,18.17,0,35.95,0,53.72a30.88,30.88,0,0,0,.86,5.07c.22,9.39,3.57,17.1,12.67,20.88,8.54,3.56,17.45,3.34,26.24.65,5.77-1.76,7.46-9.59,3.3-14.4a44.09,44.09,0,0,1-6,2.16c-12.73,2.68-21.63-1.15-22-13.85-.52-18.14-.07-36.31,0-54.46,8.82,0,17.64.05,26.46-.12,1.12,0,2.21-1.25,3.31-1.92ZM179,436.87l13,0a7.6,7.6,0,0,0,.94-2.47q.11-31,0-62a8.17,8.17,0,0,0-1-2.56c-2-13.6-8.91-24-22.34-27.25-16.95-4.12-33.15-2.51-44.85,13.74V305.25H111.3V436.63H125c0-5.19-.08-10,0-14.83.3-14.76.1-29.56,1.15-44.27,1-14,12.5-22.59,25.46-23.46,12-.81,24,6.31,26.59,22.94q-.11,29-.17,58C178,435.65,178.68,436.26,179,436.87Zm937-66c-.47-9.85-5.31-17.38-13.06-22.9-12.25-8.71-26.36-6.46-39.89-5.29-7.13.61-14,3.82-21.12,5.88,1.8,4.94,3.18,8.7,4.6,12.57a17.86,17.86,0,0,0,2.53-.6c10.27-4.32,20.76-6.68,32.1-5.61,13.6,1.27,23.3,12.76,21.24,26.83-5.89-.92-11.75-2.21-17.67-2.65-6.13-.47-12.32-.23-18.48-.09-13.64.3-29.45,8.94-31.74,24.59-1.56,10.74,2.23,22.46,11.08,28.45,15.39,10.41,40.58,9.41,53.95-5,.88-.95,2.36-1.34,3.57-2V436.7H1117c0-21.48,0-42.63,0-63.78C1117,372.24,1116.37,371.56,1116,370.88ZM971,304.12a22.1,22.1,0,0,0-.92,4.4c-.1,16.44-.12,32.89-.16,49.34-2.19-2-4.51-3.9-6.54-6.06-10.15-10.78-23.47-13.05-36.64-10.41-22.93,4.59-34.79,21.72-36.58,43.53-1.37,16.75,3.46,31.35,16.31,43.29,12.67,11.75,36.15,14.56,50.3,4.54,4.61-3.26,8.58-7.43,13.62-11.88,0,5.55-1.74,11.6.52,14.35,2,2.45,8.47,1.27,13,1.65.25,0,.54-.3.84-.49V304.12ZM691.65,163c0-28,.06-56,0-84,0-16.46-11.6-28-28-28-14.5,0-29-.16-43.48,0-26.26.34-49.45,8.78-68,27.73-25.55,26.14-36.32,58-34.1,94.23,2.19,35.7,17.17,64.62,47.24,84.82,16.78,11.27,35,18.07,55.76,17.17,13.64-.59,27.32-.11,41-.11,18.56,0,29.61-11,29.61-29.42Q691.67,204.22,691.65,163ZM580.1,51c-28.82,0-57.64-.17-86.46.07-14.54.12-25.77,12.11-25.78,27q-.09,84.72,0,169.45c0,15.87,11.62,27.32,27.5,27.33q27.74,0,55.48,0h21.93c-59.62-14.2-87.56-62.12-86.8-114.09C486.63,114.64,515.53,61.28,580.1,51ZM417.91,417.71l-8.86-11.08c-25.76,23.73-54.74,24.87-75.33,3.27-18.49-19.42-19.62-51.66-.92-72.86,17.16-19.46,49.48-23.42,74,1l11.63-9.93c-23.1-25.6-68.66-27.25-92.9-5.39-28.32,25.56-28.92,72.4-2.73,98.4C347.6,445.79,392.23,446.3,417.91,417.71ZM293.51,395c-.9-6.9-1.18-13.31-2.64-19.44-3.94-16.45-12.87-28.91-30.16-33.12-15.94-3.88-30.95-1.58-42.91,10.42-16.67,16.74-19.25,42.46-8.55,62.34,14.6,27.13,49.16,30.19,70.88,15,10.86-7.6,10.57-8,.78-16.69a4.7,4.7,0,0,0-1.09-.47c-13.71,12.72-28.82,18.24-46.61,8-8.25-4.74-14.87-16.92-13.75-26Zm480.28,44c28.78-.07,50-21.26,50-49.56,0-25.09-18.17-50.52-53.82-48.59-23.1,1.25-44.81,20.94-44.79,49C725.16,417.36,746,439.19,773.79,439ZM472.25,341c-25.13-1.56-50.87,21.13-48.37,53.47,1.73,22.53,21.29,44.42,48.58,44.67a49.2,49.2,0,0,0,49.63-47.93C522.86,362.56,500.74,339.62,472.25,341Zm248.12,17.32c-17.08-22.95-53.58-22.25-71.5-4.81-19.58,19.06-21.51,54.26,2.75,74.68,18.14,15.27,50.51,16.19,69.47-8.17l-10-8.34c-19.4,20.09-40.16,17.13-52.94,2.56s-13.14-35.12,1.23-50.7c11.74-12.72,32.41-15.37,50.8,3.93Zm279.63-40A11.6,11.6,0,0,0,1011.34,330c5.78.13,11.65-5.66,11.66-11.48,0-5.63-4.48-10.43-9.81-10.51C1003.83,307.85,1000.1,310.77,1000,318.31ZM695.18,250.88l.5,0V76.1h-.5ZM463.73,76.63h-.4V250.18h.4Z"/><path class="cls-2" d="M691.65,163q0,41.24,0,82.47c0,18.46-11,29.42-29.61,29.42-13.66,0-27.34-.48-41,.11-20.75.9-39-5.9-55.76-17.17-30.07-20.2-45-49.12-47.24-84.82-2.22-36.22,8.55-68.09,34.1-94.23,18.51-19,41.7-27.39,68-27.73,14.49-.18,29-.07,43.48,0,16.43.05,28,11.55,28,28C691.71,107,691.65,135,691.65,163ZM607,228.71c-26.23-14.21-37.51-36.58-37.91-64.88-.41-28.5,10.86-50.9,37.25-65.84-26.71,4.93-46.78,32.9-46,65.87C561.14,201.49,584.26,225.52,607,228.71Zm3.41.55c26,7.41,54.25-7.93,65.63-23.24-9.93,0-19.5,0-29.06,0a3.45,3.45,0,0,0-2.2.91C634.93,216.59,623.94,224.42,610.36,229.26ZM610,97.5c12.68,4.32,22.79,11.42,32,20,.83.77,1.85,1.89,2.79,1.91,9.72.14,19.44.08,29.67.08C658.46,101,629.83,90.22,610,97.5Z"/><path class="cls-3" d="M580.1,51C515.53,61.28,486.63,114.64,486,160.78c-.76,52,27.18,99.89,86.8,114.09H550.83q-27.75,0-55.48,0c-15.88,0-27.49-11.46-27.5-27.33q-.06-84.72,0-169.45c0-14.89,11.24-26.88,25.78-27C522.46,50.84,551.28,51,580.1,51Z"/><path class="cls-4" d="M971,304.12h13.72V436.38c-.3.19-.59.51-.84.49-4.5-.38-11,.8-13-1.65-2.26-2.75-.52-8.8-.52-14.35-5,4.45-9,8.62-13.62,11.88-14.15,10-37.63,7.21-50.3-4.54-12.85-11.94-17.68-26.54-16.31-43.29,1.79-21.81,13.65-38.94,36.58-43.53,13.17-2.64,26.49-.37,36.64,10.41,2,2.16,4.35,4.05,6.54,6.06.23.34.45.69.68,1a4.28,4.28,0,0,0,.41-1.22Q971,330.89,971,304.12Zm0,85.34c0-10.58-3.74-19.4-12.75-27.46-14.79-13.23-36.61-9.92-46.76,5.71C901.11,383.65,902.37,405,918,418.3c6.1,5.17,13.57,8.79,21.43,7.46C958.9,422.47,970.23,410,971,389.46Z"/><path class="cls-5" d="M417.91,417.71c-25.68,28.59-70.31,28.08-95.11,3.45-26.19-26-25.59-72.84,2.73-98.4,24.24-21.86,69.8-20.21,92.9,5.39l-11.63,9.93c-24.52-24.46-56.84-20.5-74-1-18.7,21.2-17.57,53.44.92,72.86,20.59,21.6,49.57,20.46,75.33-3.27Z"/><path class="cls-6" d="M293.51,395h-74c-1.12,9.12,5.5,21.3,13.75,26,17.79,10.23,32.9,4.71,46.61-8a4.7,4.7,0,0,1,1.09.47c9.79,8.68,10.08,9.09-.78,16.69-21.72,15.2-56.28,12.14-70.88-15-10.7-19.88-8.12-45.6,8.55-62.34,12-12,27-14.3,42.91-10.42,17.29,4.21,26.22,16.67,30.16,33.12C292.33,381.69,292.61,388.1,293.51,395Zm-74.7-15c-2,3.74-.69,5,3.3,5,17.44-.09,34.89,0,52.33-.06a29.51,29.51,0,0,0,3.81-.58L277.18,380c-.75-2.32-1.43-4.66-2.26-7-7.74-21.46-32.19-26.69-46.63-10.37C224,367.47,221.91,374.19,218.81,380Z"/><path class="cls-5" d="M773.79,439c-27.83.15-48.63-21.68-48.65-49.17,0-28,21.69-47.73,44.79-49,35.65-1.93,53.77,23.5,53.82,48.59C823.81,417.78,802.57,439,773.79,439ZM740.67,390c.36,3.09.31,6.29,1.14,9.24,3.49,12.37,11.27,20.07,23.47,25.15,10.17,4.23,28.68-2.58,34-9.27,8.44-10.54,10.88-22.61,7.54-35.53-4.81-18.66-22.34-28.84-40.58-24.74C752,358,739.53,372.87,740.67,390Z"/><path class="cls-7" d="M1103.15,425.05c-1.21.64-2.69,1-3.57,2-13.37,14.44-38.56,15.44-53.95,5-8.85-6-12.64-17.71-11.08-28.45,2.29-15.65,18.1-24.29,31.74-24.59,6.16-.14,12.35-.38,18.48.09,5.92.44,11.78,1.73,17.67,2.65,2.06-14.07-7.64-25.56-21.24-26.83-11.34-1.07-21.83,1.29-32.1,5.61a17.86,17.86,0,0,1-2.53.6c-1.42-3.87-2.8-7.63-4.6-12.57,7.08-2.06,14-5.27,21.12-5.88,13.53-1.17,27.64-3.42,39.89,5.29,7.75,5.52,12.59,13,13.06,22.9q0,27.72,0,55.43c0,10.58,0,10.59-10.73,9.42-.29,0-.54-.34-.79-.51C1104,431.81,1103.59,428.43,1103.15,425.05Zm-.33-31.68a80,80,0,0,0-8.07-2c-11.06-1.54-22.11-2.92-33.14.53a16.91,16.91,0,0,0-12.37,14.79c-.8,6.48,1.82,12.17,8,16,8,4.9,16.16,5.38,24.77,2.74,5.71-1.75,11-4.06,15.2-8.85C1103.14,409.87,1103.28,402.08,1102.82,393.37Z"/><path class="cls-5" d="M472.25,341c28.49-1.39,50.61,21.55,49.84,50.21a49.2,49.2,0,0,1-49.63,47.93c-27.29-.25-46.85-22.14-48.58-44.67C421.38,362.14,447.12,339.45,472.25,341Zm.86,13c-19.89-.72-34.75,15.57-34,37.17.72,19.72,14.45,34.21,32.2,34.58,20.93.43,34.61-14.28,35.59-34.41C508,370,490.55,353.29,473.11,354Z"/><path class="cls-8" d="M192,436.83l-13,0c0-17.69,0-35.38-.05-53.08a60.1,60.1,0,0,0-.76-6.78c-2.55-16.63-14.56-23.75-26.59-22.94-13,.87-24.46,9.49-25.46,23.46-1,14.71-.85,29.51-1.15,44.27-.09,4.82,0,9.64,0,14.83H111.3V305.25h13.55V356.3c11.7-16.25,27.9-17.86,44.85-13.74,13.43,3.27,20.38,13.65,22.34,27.25Z"/><path class="cls-9" d="M537.94,343.15h13.93v14.22c6.2-7.82,12.31-14.06,21.49-15.49,21.56-3.35,38.09,1.35,45.48,24.52.44,1.36.16,3,.21,4.43L619,436a62,62,0,0,0-7.47.09c-4.33.53-5.69-1-5.61-5.46.28-15.44.13-30.88.07-46.32a35.07,35.07,0,0,0-.82-5.23c-1.68-15.87-10.76-25.58-26.65-24.91-12.56.53-22.63,8.21-25.43,22.2-.38,1.91-.81,3.81-1.22,5.72a34.88,34.88,0,0,0-.8,5.22c-.07,12.08,0,24.16,0,36.24,0,12.63,0,12.63-12.8,12.41-.07-2-.19-4-.2-6Q538,386.55,537.94,343.15Z"/><path class="cls-5" d="M720.37,358.33l-10.21,9.15c-18.39-19.3-39.06-16.65-50.8-3.93-14.37,15.58-14.05,36.09-1.23,50.7s33.54,17.53,52.94-2.56l10,8.34c-19,24.36-51.33,23.44-69.47,8.17-24.26-20.42-22.33-55.62-2.75-74.68C666.79,336.08,703.29,335.38,720.37,358.33Z"/><path class="cls-8" d="M52.16,315H66.1v27c3.18.34,6.36.8,9.56,1,6.73.42,13.47.7,20.21,1v10c-7.9.34-15.8.63-23.7,1.05a55.19,55.19,0,0,0-6.07,1c0,18.15-.48,36.32,0,54.46.37,12.7,9.27,16.53,22,13.85a44.09,44.09,0,0,0,6-2.16c4.16,4.81,2.47,12.64-3.3,14.4-8.79,2.69-17.7,2.91-26.24-.65-9.1-3.78-12.45-11.49-12.67-20.88,0-18.59,0-37.19.15-55.78,0-3.17-.83-4.59-4.19-4.31-2.75.23-5.54,0-8.44,0V343c2.88,0,5.38-.21,7.82,0,3.67.39,4.95-.89,4.84-4.69C51.85,330.56,52.11,322.75,52.16,315Z"/><path class="cls-10" d="M836,343.16h13.88v21.25c5.87-10,12.84-17,22.36-21.11a31.66,31.66,0,0,1,5.61-1.35,34.63,34.63,0,0,1,6.37.16c1.05.21,2.61,1.52,2.68,2.45.31,3.65.13,7.35.13,10.7l-5.92,1.56c-5.88,2.8-12.5,4.66-17.48,8.6-10,7.86-13.22,19.32-13.75,31.65a28.92,28.92,0,0,0-.8,4.75c-.08,9.47-.35,19,.09,28.42.23,5.13-1.74,6.15-6.29,5.86-4-.24-7.07.43-7-5.67C836.18,401.35,836,372.25,836,343.16Z"/><path class="cls-11" d="M1005,343.17H1018V436h-13Q1005,389.55,1005,343.17Z"/><path class="cls-12" d="M1000,318.31c.1-7.54,3.83-10.46,13.19-10.31,5.33.08,9.81,4.88,9.81,10.51,0,5.82-5.88,11.61-11.66,11.48A11.6,11.6,0,0,1,1000,318.31Z"/><path class="cls-13" d="M695.18,250.88V76.1h.5V250.9Z"/><ellipse class="cls-14" cx="463.53" cy="163.4" rx="0.28" ry="122.72"/><path class="cls-15" d="M836,343.16c0,29.09.22,58.19-.12,87.27-.07,6.1,3,5.43,7,5.67,4.55.29,6.52-.73,6.29-5.86-.44-9.46-.17-18.95-.09-28.42a28.92,28.92,0,0,1,.8-4.75v39.65H835.22c-.06-.84-.21-1.77-.21-2.71q0-43.45,0-86.91A17.69,17.69,0,0,1,836,343.16Z"/><path class="cls-16" d="M52.16,315c0,7.8-.31,15.61-.08,23.4.11,3.8-1.17,5.08-4.84,4.69-2.44-.25-4.94,0-7.82,0v12c2.9,0,5.69.19,8.44,0,3.36-.28,4.22,1.14,4.19,4.31-.14,18.59-.12,37.19-.15,55.78A30.88,30.88,0,0,1,51,410c-.06-17.77,0-35.55,0-53.72H38.28v-14H51c0-6.45,0-12.53,0-18.6,0-3,.07-6,.13-8.94,0-.1.32-.29.39-.26A3.49,3.49,0,0,1,52.16,315Z"/><path class="cls-15" d="M1005,436h13V343.16c.32.65.91,1.29.92,1.94,0,30.44,0,60.88,0,92.29L1004.15,436Z"/><path class="cls-17" d="M537.94,343.15q0,43.41.06,86.81c0,2,.13,4,.2,6-.06.33-.14.65-.23,1A10.08,10.08,0,0,1,537,434q-.07-44,0-87.93A10.68,10.68,0,0,1,537.94,343.15Z"/><path class="cls-18" d="M1005,436l-.88.07q-.07-45.21-.11-90.41a7.59,7.59,0,0,1,.94-2.44Q1005,389.55,1005,436Z"/><path class="cls-19" d="M1103.15,425.05c.44,3.38.89,6.76,1.34,10.17.25.17.5.48.79.51,10.72,1.17,10.72,1.16,10.73-9.42q0-27.72,0-55.43c.33.68,1,1.36,1,2,0,21.15,0,42.3,0,63.78h-13.88Z"/><path class="cls-15" d="M605.14,379.05a35.07,35.07,0,0,1,.82,5.23c.06,15.44.21,30.88-.07,46.32-.08,4.49,1.28,6,5.61,5.46A62,62,0,0,1,619,436l.87,0-14.7,1.47Z"/><path class="cls-19" d="M538,436.9c.09-.32.17-.64.23-1,12.8.22,12.8.22,12.8-12.41,0-12.08,0-24.16,0-36.24a34.88,34.88,0,0,1,.8-5.22V436.9Z"/><path class="cls-20" d="M192,436.83l0-67a8.17,8.17,0,0,1,1,2.56q.06,31,0,62A7.6,7.6,0,0,1,192,436.83Z"/><path class="cls-19" d="M619.84,436l-.87,0q0-32.58.08-65.14a7.56,7.56,0,0,1,1,2.49Q620,404.67,619.84,436Z"/><path class="cls-21" d="M178.21,377a60.1,60.1,0,0,1,.76,6.78c.06,17.7,0,35.39.05,53.08-.34-.61-1-1.22-1-1.83Q178.07,406,178.21,377Z"/><path class="cls-17" d="M971,304.12q0,26.78,0,53.56a4.28,4.28,0,0,1-.41,1.22c-.23-.35-.45-.7-.68-1,0-16.45.06-32.9.16-49.34A22.1,22.1,0,0,1,971,304.12Z"/><path class="cls-16" d="M95.87,344c-6.74-.34-13.48-.62-20.21-1-3.2-.2-6.38-.66-9.56-1,8.82,0,17.64-.05,26.46.12C93.68,342.11,94.77,343.34,95.87,344Z"/><path class="cls-21" d="M881.07,356.82l5.92-1.56c0-3.35.18-7.05-.13-10.7-.07-.93-1.63-2.24-2.68-2.45a34.63,34.63,0,0,0-6.37-.16l9.82-1.39v16.26Z"/><path class="cls-16" d="M66.1,356a55.19,55.19,0,0,1,6.07-1c7.9-.42,15.8-.71,23.7-1.05-1.1.67-2.19,1.9-3.31,1.92C83.74,356.08,74.92,356,66.1,356Z"/><path class="cls-22" d="M607,228.71c-22.69-3.19-45.81-27.22-46.68-64.85-.76-33,19.31-60.94,46-65.87-26.39,14.94-37.66,37.34-37.25,65.84C569.44,192.13,580.72,214.5,607,228.71Z"/><path class="cls-23" d="M610.36,229.26c13.58-4.84,24.57-12.67,34.37-22.29a3.45,3.45,0,0,1,2.2-.91c9.56-.06,19.13,0,29.06,0C664.61,221.33,636.33,236.67,610.36,229.26Z"/><path class="cls-23" d="M610,97.5c19.87-7.28,48.5,3.47,64.43,22-10.23,0-19.95.06-29.67-.08-.94,0-2-1.14-2.79-1.91C632.75,108.92,622.64,101.82,610,97.5Z"/><path class="cls-1" d="M971,389.46c-.73,20.57-12.06,33-31.53,36.3-7.86,1.33-15.33-2.29-21.43-7.46-15.63-13.27-16.89-34.65-6.55-50.59,10.15-15.63,32-18.94,46.76-5.71C967.22,370.06,971,378.88,971,389.46Z"/><path class="cls-1" d="M218.81,380c3.1-5.84,5.21-12.56,9.48-17.38,14.44-16.32,38.89-11.09,46.63,10.37.83,2.29,1.51,4.63,2.26,7-.19,1.26-.37,2.52-.56,3.77H219.28Z"/><path class="cls-24" d="M218.81,380l.47,3.71h57.34c.19-1.25.37-2.51.56-3.77l1.07,4.42a29.51,29.51,0,0,1-3.81.58c-17.44,0-34.89,0-52.33.06C218.12,385.05,216.78,383.77,218.81,380Z"/><path class="cls-1" d="M740.67,390c-1.14-17.11,11.31-31.94,25.6-35.15,18.24-4.1,35.77,6.08,40.58,24.74,3.34,12.92.9,25-7.54,35.53-5.35,6.69-23.86,13.5-34,9.27-12.2-5.08-20-12.78-23.47-25.15C741,396.27,741,393.07,740.67,390Z"/><path class="cls-1" d="M1102.82,393.37c.46,8.71.32,16.5-5.61,23.24-4.21,4.79-9.49,7.1-15.2,8.85-8.61,2.64-16.82,2.16-24.77-2.74-6.18-3.82-8.8-9.51-8-16a16.91,16.91,0,0,1,12.37-14.79c11-3.45,22.08-2.07,33.14-.53A80,80,0,0,1,1102.82,393.37Z"/><path class="cls-1" d="M473.11,354c17.44-.7,34.85,16,33.82,37.34-1,20.13-14.66,34.84-35.59,34.41-17.75-.37-31.48-14.86-32.2-34.58C438.36,369.56,453.22,353.27,473.11,354Z"/></svg>