<svg xmlns="http://www.w3.org/2000/svg" viewBox="0 0 5669.674 192.786" id="elh-logo" class="logo" x="0" y="0"><path d="M62.576,22.633H0V3.2H146.452V22.633H83.876V189.59h-21.3Z" fill="#fff"/><path d="M281.461,3.2H302.5V86.009H410.073V3.2h21.036V189.59H410.073V105.712H302.5V189.59H281.461Z" fill="#fff"/><path d="M579.7,3.2H714.433V22.368h-113.7V86.009H702.449v19.17H600.731v65.239H715.763V189.59H579.7Z" fill="#fff"/><path d="M1029.444,3.2h134.737V22.368h-113.7V86.009H1152.2v19.17H1050.48v65.239h115.031V189.59H1029.444Z" fill="#fff"/><path d="M1378.007,1.865h19.7l84.944,187.725h-22.633l-21.836-49.262H1336.734l-22.1,49.262h-21.568Zm51.926,119.558L1387.6,26.362l-42.606,95.061Z" fill="#fff"/><path d="M1604.352,162.431l13.046-15.447c19.44,17.575,38.079,26.362,63.908,26.362,25.029,0,41.538-13.313,41.538-31.685v-.533c0-17.309-9.32-27.162-48.462-35.416-42.871-9.32-62.576-23.166-62.576-53.786v-.533c0-29.292,25.829-50.86,61.246-50.86,27.159,0,46.6,7.722,65.5,22.9l-12.248,16.242c-17.31-14.111-34.617-20.238-53.789-20.238-24.231,0-39.677,13.316-39.677,30.09v.533c0,17.575,9.587,27.427,50.595,36.214,41.538,9.055,60.71,24.231,60.71,52.723v.533c0,31.953-26.627,52.723-63.641,52.723C1650.949,192.253,1626.717,182.4,1604.352,162.431Z" fill="#fff"/><path d="M1954.513,22.633h-62.576V3.2h146.452V22.633h-62.576V189.59h-21.3Z" fill="#fff"/><path d="M2354.733,3.2h21.036V170.153h104.914V189.59h-125.95Z" fill="#fff"/><path d="M2601.841,96.924v-.532C2601.841,45,2640.45,0,2697.167,0s94.8,44.469,94.8,95.862v.53c0,51.393-38.61,96.394-95.329,96.394S2601.841,148.317,2601.841,96.924Zm168.287,0v-.532c0-42.338-30.888-76.955-73.493-76.955s-72.959,34.084-72.959,76.425v.53c0,42.338,30.888,76.954,73.491,76.954S2770.128,139.263,2770.128,96.924Z" fill="#fff"/><path d="M2937.623,3.2h19.7l117.427,149.382V3.2h20.505V189.59h-16.777L2958.125,36.747V189.59h-20.5Z" fill="#fff"/><path d="M3249.171,3.2h64.707c58.579,0,99.055,40.207,99.055,92.666v.53c0,52.458-40.476,93.2-99.055,93.2h-64.707Zm64.707,166.957c47.129,0,77.219-31.953,77.219-73.229v-.532c0-41.273-30.09-73.759-77.219-73.759h-43.671v147.52Z" fill="#fff"/><path d="M3550.072,96.924v-.532C3550.072,45,3588.682,0,3645.4,0s94.8,44.469,94.8,95.862v.53c0,51.393-38.61,96.394-95.329,96.394S3550.072,148.317,3550.072,96.924Zm168.288,0v-.532c0-42.338-30.888-76.955-73.494-76.955s-72.958,34.084-72.958,76.425v.53c0,42.338,30.887,76.954,73.491,76.954S3718.36,139.263,3718.36,96.924Z" fill="#fff"/><path d="M3885.854,3.2h19.705l117.427,149.382V3.2h20.506V189.59h-16.777L3906.357,36.747V189.59h-20.5Z" fill="#fff"/><path d="M4372.882,3.2h21.035V86.009h107.577V3.2h21.036V189.59h-21.036V105.712H4393.917V189.59h-21.035Z" fill="#fff"/><path d="M4667.924,96.924v-.532C4667.924,45,4706.534,0,4763.25,0s94.8,44.469,94.8,95.862v.53c0,51.393-38.61,96.394-95.329,96.394S4667.924,148.317,4667.924,96.924Zm168.287,0v-.532c0-42.338-30.887-76.955-73.493-76.955s-72.959,34.084-72.959,76.425v.53c0,42.338,30.888,76.954,73.491,76.954S4836.211,139.263,4836.211,96.924Z" fill="#fff"/><path d="M5040.185,22.633h-62.576V3.2h146.452V22.633h-62.575V189.59h-21.3Z" fill="#fff"/><path d="M5264.394,3.2h134.737V22.368h-113.7V86.009h101.718v19.17H5285.43v65.239h115.031V189.59H5264.394Z" fill="#fff"/><path d="M5543.725,3.2h21.035V170.153h104.914V189.59H5543.725Z" fill="#fff"/></svg>