<svg version="1.1" id="de-jonker-logo-print" class="logo" xmlns="http://www.w3.org/2000/svg" x="0px" y="0px" viewBox="0 0 226.77 226.77"><rect width="226.77" height="226.77" fill="#11263c"/><path d="M53.44,131.59l-.2-.09-.41.47c-3.1,3.59-6.7,5.91-9.18,5.91a2.61,2.61,0,0,1-2.39-1c-.44-.76-.24-1.91.57-3.33l.26-.47a7,7,0,0,0,2.37.39c1.55,0,5.47-.51,8.2-5.24l.58-1c1.06-1.82,1.21-3.57.43-4.93a4.35,4.35,0,0,0-3.89-2A8.73,8.73,0,0,0,42,125.09l-3.86,6.64-.22.26c-3.38,3.92-5.82,5.91-7.25,5.91a.67.67,0,0,1-.6-.23c-.07-.13-.18-.53.39-1.51l13.83-23.92h-4.7l-5.75,9.92a4.64,4.64,0,0,0-3.64-1.82c-2.16,0-5.3,1.64-7.12,4.77l-5.63,9.71a4.49,4.49,0,0,0-.37,4.49A3.67,3.67,0,0,0,20.45,141a9.52,9.52,0,0,0,5.35-2.38A3.48,3.48,0,0,0,29.47,141c2.1,0,4.51-1.31,7.38-4,.46,2.46,2.6,4,5.61,4,5.35,0,10.19-4.7,12.6-7.5l.13-.15-.09-.18A3.74,3.74,0,0,0,53.44,131.59Zm-4.28-7.7a.89.89,0,0,1,.82.41c.31.54.11,1.5-.55,2.64l-.58,1c-1.36,2.31-3,2.79-4.15,2.79a4.51,4.51,0,0,1-1.16-.16l2.4-4.18C47,124.67,48.29,123.89,49.16,123.89Zm-19,.27a1.25,1.25,0,0,1,1.14.56A2.34,2.34,0,0,1,31,127l-3,5.23c-2.58,4.21-5,5.71-6.34,5.71a.67.67,0,0,1-.6-.23c-.07-.13-.18-.53.39-1.51L27,126.39A3.92,3.92,0,0,1,30.13,124.17Z" fill="#fff"/><path d="M212.37,130.76a5,5,0,0,0-2.16-2l-.2-.09-.51.58c-4.54,5.27-7.82,7.93-9.77,7.93a1,1,0,0,1-.88-.36c-.13-.23-.24-.81.53-2.12l5.36-9.38c1.87-3.27,1.08-5.34-.8-7.61l-3-3.6a1.8,1.8,0,0,1,.28-2.69l.21-.2-3.18-3.48-.22.2c-3,2.69-3.53,5.92-1.43,8.64l.33.44,0,.06c-2.31,3.26-5.47,7.73-8.88,11.74l-.11.19-.19.22c-4.15,4.82-9,7.93-12.34,7.93-1.59,0-2.76-.49-3.28-1.39-.61-1-.35-2.62.76-4.55l.39-.7a9.23,9.23,0,0,0,3.21.55c2.06,0,7.25-.68,10.87-7l.77-1.34c1.4-2.4,1.61-4.71.58-6.49a5.71,5.71,0,0,0-5.12-2.61c-4.35,0-7.91,2.19-10.3,6.33l-5.16,8.87-.31.35c-4.54,5.27-7.82,7.93-9.77,7.93-1,0-2-1-2-3.31V132c3.83.29,7.7-2.21,10.21-6.57l1.44-2.47c1.68-2.88,2-5.44,1-7.2a4.54,4.54,0,0,0-4.12-2.1,8.64,8.64,0,0,0-4.75,1.57l7.11-12.34h-6.05l-15,26-.29.33c-4.54,5.27-7.83,7.93-9.77,7.93a1,1,0,0,1-.88-.36c-.13-.23-.24-.81.53-2.12l7.73-13.55c1.17-2,1.33-4,.46-5.49a4.07,4.07,0,0,0-3.6-2,9.51,9.51,0,0,0-6.14,2.69l1.25-2.18h-6l-8.46,14.65-.33.38a11.47,11.47,0,0,1-7.33,3.84l4.77-8.23c1.65-2.86,1.84-6,.5-8.28a6.21,6.21,0,0,0-5.55-3.1c-4.58,0-7.77,2.14-10.67,7.16L97.24,129l-.26.29c-4.35,5-7.85,8-11.5,9.73l19.72-33.8.11-.18-3.38-3.9-.23.2c-5,4.47-11.37,7.44-17.53,10.3l-2.64,1.24L79,114c-7.94,3.68-15.45,7.16-15.45,15.46,0,4.58,3.11,9.21,9.06,9.21a9,9,0,0,0,7.83-4.27l.11-.2-2.89-2.83-.2.29a5.92,5.92,0,0,1-4.7,2.71c-2.6,0-4.49-2.17-4.49-5.16,0-5.79,5.57-8.16,12-10.92,1-.45,2.11-.9,3.16-1.38l1.45-.65a68.2,68.2,0,0,0,11.26-5.89L78.42,141.26c-7.89,2.37-11.9,5.54-11.9,9.42,0,2.66,2,4.53,5,4.53s5.62-1.77,7.36-4.74l4-7a32.74,32.74,0,0,0,12.37-7.6,5.68,5.68,0,0,0,1.6,3.58,6.73,6.73,0,0,0,4.84,1.83,12.31,12.31,0,0,0,9.25-4.93h1a14.32,14.32,0,0,0,5-1.07l-3,5.25H120l8.25-14.38c4.58-5.74,7.68-7.78,9.06-7.78.39,0,.5.18.53.24.18.32.13,1.08-.55,2.25l-7,12.11c-1.23,2.16-1.41,4.3-.49,5.9a4.8,4.8,0,0,0,4.4,2.18,10.79,10.79,0,0,0,5.89-2.17l-1,1.65h6.1l5.66-9.84v3.15c0,4.56.9,7.2,5.5,7.2,2.79,0,6-1.78,9.87-5.43.54,3.32,3.41,5.43,7.48,5.43,7.11,0,13.55-6.26,16.76-10l.13-.15,0,0c2.48-2.89,4.54-5.64,8.48-11l.47.57a2.34,2.34,0,0,1,.29,2.71L194.23,133c-1.23,2.16-1.41,4.31-.49,5.9a4.8,4.8,0,0,0,4.4,2.17c3.76,0,8.4-3.27,14.19-10l.13-.15Zm-29.62-12.48a1.29,1.29,0,0,1,1.18.6c.43.75.17,2.07-.73,3.63l-.77,1.34c-1.84,3.13-4.08,3.79-5.64,3.79a6.09,6.09,0,0,1-1.7-.25l3.27-5.71C179.74,119.33,181.56,118.28,182.75,118.28Zm-27.3,10a2.22,2.22,0,0,1-2.2-1.55l1.46-2.54c3.88-5.39,6.46-5.81,7.16-5.81a1.18,1.18,0,0,1,1.1.53,2,2,0,0,1-.27,2l-2.58,4.43A6.05,6.05,0,0,1,155.46,128.25Zm-42.34-5.7-3.83,6.55h-.09a3.47,3.47,0,0,0-3.44,3.49,3.79,3.79,0,0,0,.47,1.81,4.82,4.82,0,0,1-3.91,2.56,1.77,1.77,0,0,1-1.63-.8c-.46-.79-.24-2.06.63-3.57l4.07-7.05,2.58-4.38c1.57-2.67,3.33-3.62,4.45-3.62a1.55,1.55,0,0,1,1.41.78C114.37,119.27,114.11,120.86,113.12,122.56ZM75.87,145.71l-2,3.58a2.12,2.12,0,0,1-1.62,1.27.77.77,0,0,1-.76-.87C71.45,148.29,72.93,147,75.87,145.71Z" fill="#fff"/><path d="M77,75h1.73v7.37H88V75h1.73V92H88v-8H78.75v8H77Z" fill="#fff"/><path d="M110.91,83.46a9.29,9.29,0,0,1-.67,3.58,8.42,8.42,0,0,1-4.67,4.68,9.53,9.53,0,0,1-7,0A8.43,8.43,0,0,1,93.87,87a9.85,9.85,0,0,1,0-7.15,8.43,8.43,0,0,1,4.67-4.68,9.53,9.53,0,0,1,7,0,8.56,8.56,0,0,1,2.81,1.86,8.47,8.47,0,0,1,1.86,2.82A9.29,9.29,0,0,1,110.91,83.46Zm-1.87,0a8.17,8.17,0,0,0-.48-2.79,7,7,0,0,0-1.38-2.34,6.65,6.65,0,0,0-2.2-1.61,7.42,7.42,0,0,0-5.86,0,6.6,6.6,0,0,0-2.19,1.61,7,7,0,0,0-1.38,2.34,8.37,8.37,0,0,0,0,5.59,7,7,0,0,0,1.38,2.34,6.6,6.6,0,0,0,2.19,1.61,7.47,7.47,0,0,0,5.86,0,6.65,6.65,0,0,0,2.2-1.61,7,7,0,0,0,1.38-2.34A8.17,8.17,0,0,0,109,83.46Z" fill="#fff"/><path d="M119.81,92h-1.73V76.54h-5.69V75H125.5v1.59h-5.69Z" fill="#fff"/><path d="M129.87,90.37H139V92H128.14V75h10.53v1.59h-8.81v5.79h8.23v1.58h-8.23Z" fill="#fff"/><path d="M144.1,90.37H152V92h-9.64V75h1.73Z" fill="#fff"/></svg>