<svg id="logo-margaritaville" class="logo" xmlns="http://www.w3.org/2000/svg" viewBox="0 0 534.83 216.61"><path fill="#fff" d="M23.88,24.71l2.14.74c.54,4.8-1.07,7.47-.07,9.71.3,1.06.61,1.17,1.53,2.24a8.07,8.07,0,0,1,1,2.45,13.41,13.41,0,0,1,1.15,2.45,20.19,20.19,0,0,1,1,2.45c1.61,4.27.92,6.19,4.22,9.49a55,55,0,0,0,2.22,9l.62,2c.15,1,1.3,10,4.44,11.51a4.21,4.21,0,0,0,3.22-.32c1.69-1.6.77-2.88,1-4.69.15-.43.46-1.49,1.3-4.69l.77-3a9,9,0,0,0,.46-3.52l.53-2.77a25.24,25.24,0,0,1,.92-5.33,7.64,7.64,0,0,1,1.23-2.56c.31-.64.38-1.81.84-2.66l3.14-8.75c.54-1.92,1.23-6,1.69-8l.54-2.56A9.77,9.77,0,0,1,59,24.71H65.5l1.84.42a5.21,5.21,0,0,0,1.84.75c1.15.11,2.6-1,3.45,1.28A5.37,5.37,0,0,1,72.17,31a8.75,8.75,0,0,0-1.23,1c-.23.42-.38,1.17-1.07,1.49a8.44,8.44,0,0,0-1,3.52c-.54,3.73,0,3,0,7v2.24a5.53,5.53,0,0,1-.38,2.23c0,1.6-.08,3.1-.08,4.7a14.52,14.52,0,0,1-.23,2.45c0,3-.69,6.18-.15,9.06,0,0,.38,2,.38,2.14a11.4,11.4,0,0,1,.31,2.24v1.59c-3.07,8.54.61,10.56-.31,20.9a18.21,18.21,0,0,0,1.92,3c.46,1,.38.53.92,1.07a3.42,3.42,0,0,1,.61,1A3.71,3.71,0,0,1,71.94,98,1.91,1.91,0,0,1,70.33,99H67.41c-1.38.32-.84.53-2.22,1.39H60.9c-2.76,0-1,0-5.21.1-1-.74-.92-3.09-.77-3.94.69-2.56,1.15-1.18,2.38-3.2A9.3,9.3,0,0,0,58.45,87c-.54-3.84-.92-2.67-.39-6.61L58.75,75c.31-2.24.08-2.78.08-6.72V61.07c0-.22-.08-.86-.08-1.28.31-.54.08-.43.31-1.17.23-1.18-.08-1.5.31-2.78V54.35a10.32,10.32,0,0,1,0-3.09V49.55c.15-2.34.38-1.38.46-3.73.07-.43.3-3-.85-3.73-.92.42-.69.74-1.3,1.92a17.36,17.36,0,0,0-.46,2.56,3.14,3.14,0,0,0-.15,1.17,2.8,2.8,0,0,0-.46,1.17c-.08.32-.31,1-.39,1.39v1.17c-.53,2.77-.69,1.71-2,4.8-.31,1-.84,3.84-1.07,4.9l-.77,3.52-.69,1.5s-1,3-1.38,4.37L47.1,79.09c-.07.43-1.53,4.9-2,6.82l-.92,4c-.38,1-.61,1.6-1,2.56C43,93,42,95,42,95c-.38,1.06-.53,1.81-.76,2.56a3.47,3.47,0,0,1-1,2.56C38,95,36.45,92.31,35.61,86.55l.61-1.17c0-.64.08-.85-.84-1.92,0,0-1.38-1.71-1.54-1.92a2.5,2.5,0,0,1-1-2,5.23,5.23,0,0,0-.23-2.35c-.08,0-.69-1-1.38-1.6a8.93,8.93,0,0,1-1.38-2.35,18.5,18.5,0,0,1-1.54-4.47l-.92-4.16c-.61-2.78-1.38-3.74-3.22-7.79l-1.91-4.16c-.84-1.49-.77-2.34-1.15-4.16a13.17,13.17,0,0,0-1.92-4c-.76.86-.76,2.78-.61,3.52a13.39,13.39,0,0,1,.54,3.84c0,.85.15,2.77.07,3.63s-.15.64-.38,1.81a6.35,6.35,0,0,0-.08,2l1.08,20A52.52,52.52,0,0,1,20,84.53c-.23,2.56-1.23,3.09,0,5.86.61,1.39,1.15,1.39,1.76,2.77A10.22,10.22,0,0,0,23.19,96c.92,1.82,1.07,1.82,1.07,3.84l-.46.64H21.66c-.54,0-1.38-.1-2.15-.1h-10l-.38-.64V98.6c3.14-2.88,3.83-3,4.52-8.53a46.22,46.22,0,0,0,0-5.65,31,31,0,0,1,.46-5.76c.23-3.09.85-5,.85-5.86,0-4,.07-8.21-.16-12.27L14.68,58l.46-4.16c-.38-1.39-.69-1.71-1-3-.46-1.28-.53-1.39.31-3.09a34,34,0,0,0,.46-6.19,3.68,3.68,0,0,0-.61-2.13l-1.08-2.24a30.06,30.06,0,0,1-.15-4.58,5.32,5.32,0,0,0-.84-1.18c-1-.53-1.69-1.7-2.69-2-.15-.32-.61-.54-.92-1.07a4.34,4.34,0,0,0-.38-1.28,5.14,5.14,0,0,1-.61-2.34c2.83-1.07,2.37-.54,4.9,0h7c.46,0,1.15.42,1.76.42h2.15Z"/><path fill="#fff" d="M113.18,96.92A23.66,23.66,0,0,1,111,94.59c-.42-.75-.84-2.67-1.08-3.17a8.7,8.7,0,0,1-1.13-3.08l-1.2-5.24c-.12-.34-.48-1.33-.54-1.67L105.52,76c-.18-.67-.36-1.41-.54-2.16a11.1,11.1,0,0,1-.72-2.09c-.24-1.49-.48-2.83-.78-4.24l-1.13-5.83c-.12-.58-.66-2.5-.78-3l-1-4.08a12.94,12.94,0,0,0-.6-1.91l-.6-2.5A5.26,5.26,0,0,0,99.11,49L97.92,44.3l-.48-2.08a9,9,0,0,0-.3-2.17c-.72-.08-2.27-.83-3,.25-.36.5-.24,5.5-1.14,8.41L92.29,51c-.06.17-.3,1-.71,2.5L88.7,63.2a11.28,11.28,0,0,1-.48,1.58l0,.42-.78,2.41-.3,1.5L83.5,82.43c-.42,1.5-1.5,2.67-2.22,4.08a27,27,0,0,0-1.73,4l-.48,1.25a11,11,0,0,1-2.75,3.58,15.29,15.29,0,0,1-1.5,1.33c-.78.66-.72,1.16-.9,1.91,3.59,2.67,7,1.84,9.76,1.84h3.41c-.06-1.84.24-1.75-.54-3.5-.42-1.25-1.32-1.75-2-2.67-.95-1.91.18-4.82,1.14-8.66l.48-2.66A17.16,17.16,0,0,0,87,81c.18-.59.24-1.34.36-1.92.42-2,.72-2.91,1.49-3.5s7.36-.66,8.08-.25c1.56.92,1.92,2.34,2.15,3.83l.18,1.17a10.92,10.92,0,0,1,.9,3.33l1.62,5c.84,3.41,1.85,6.74.84,8.65-.72,1.09-1.5.84-2,1.17a2,2,0,0,0-1,2.33h1.56c.48,0,1.14.25,1.61.25h5.51a13.48,13.48,0,0,0,5.38-1C113.77,98.33,114.25,98.42,113.18,96.92ZM96.78,70.36l-.36.5a23.19,23.19,0,0,1-5.2-.17c-.36-4.66,1.31-7.41,2.21-12.07l.42-2.25c.36-1.16.24-1.5,1.32-2,.59.25.65.75.65,1.5a12.34,12.34,0,0,1-.3,1.83c0,.59.24,2.83.3,3.58.42,4,.3,2.92,1,7.08Z"/><path fill="#fff" d="M148.65,93.75c-2.27-.33-2.81-.66-3.47-3.49a39.16,39.16,0,0,1-.89-6.08l-.48-4.5c-.42-3.83-.66-5.07-3.17-7.82v-.42c.66-1.16,1.79-1,2.21-1.33A10.23,10.23,0,0,0,145,67.78a25.9,25.9,0,0,0,3.05-6.16c.83-4.17-.6-10.41-3.71-14.57-4.07-5.58-12.63-6.08-16.64-5.42h-1.49a6.3,6.3,0,0,1-1.8-.33,17,17,0,0,0-1.79-.08c-.54,0-1.14.08-1.68.08a1.81,1.81,0,0,1-.9.17c-.35.16-.41,0-.77.25-.06.91-.36,2.58.12,3.5l1.25,1.08a2.4,2.4,0,0,1,.9,1.66,4.9,4.9,0,0,0,.24,1.75c0,.58.06,1.25.06,1.83.12,3.92.12,5.25.12,7V80.77c0,.66-.24,1.33-.24,1.91v2.58l.12,3.08v1.25c0,.34-.42,4.83-.54,5.16a5.12,5.12,0,0,1-1.44,2.5c-.65.67-1.31.58-1.55,2v1.17c2.87,1,2.57.41,5.44,0h4.67c.3-.17.42.25.78.25a1,1,0,0,1,.72-.17c.95,0,1.07.08,1.43-.08h2.76a2.08,2.08,0,0,0-.66-2.09,16.75,16.75,0,0,0-1.32-1.24c-1.32-1.17-1.44-.92-2-3a47.43,47.43,0,0,1-.48-7.49l-1.2-.42v-.67c.24-.41.6-.5.78-1a16.31,16.31,0,0,0,.42-2.58,9.75,9.75,0,0,0,.18-1.16c0-.75-.9-4.67-.9-4.92.12-1.41.12-1.41,1.2-2.08a3.3,3.3,0,0,1,3.53.09,16.36,16.36,0,0,1,3,5.24c.48,1.5.42,1.83.42,5.16v1.25c.42,4.58,3.11,13.91,5.5,15.57a2.82,2.82,0,0,0,3.59-.41,7.81,7.81,0,0,0,2-3.42,16.34,16.34,0,0,0,.71-1.91C149.07,94.59,149.31,94.25,148.65,93.75Zm-9.57-28.89a5.3,5.3,0,0,1-2.81,2.67c-1.2.5-4.61.75-5.57-.33-1.25-1.42-.83-6.75-.83-8.16V57.45h-1.26c-.6-.91.24-1.58.42-2.58s.24-1.66.42-2.58c.42-2.75.42-4,1.25-5.24.9-1.5,1.44-1.09,2.52-.84,1.43.34,3,.75,3.65,1.5a26,26,0,0,1,2.87,4.83c.72,2.25.06,2.08.42,4.16.3,1.92,1,2.42.54,4.17-.12.41-.78,1.75-.9,2A5.62,5.62,0,0,1,139.08,64.86Z"/><path fill="#fff" d="M189,60a1.31,1.31,0,0,1-1.91.59c-.36-.25-.42-.83-.66-1.25-.54-.42-.42-.33-.84-1-.78-1.25-1.49-3.75-2.15-5.16-.12-.58-.48-1.17-.6-1.67-.9-1.83-1.26-1.08-2.39-1.75a7.82,7.82,0,0,1-1.26-1.16,3.49,3.49,0,0,1-1.26-.34l-2.69-.49c-1.14-.42-4.79-1.75-6-1.09-1.56.92-4.55,2.83-5.87,6l-.66,2.16A8,8,0,0,0,161.64,57a15,15,0,0,0-.18,2.25,7.73,7.73,0,0,1-.72,2.16c-1.62,5.91-.6,3-.6,8.83v4.49c0,4.16.18,13.82,4.49,17.57,2.63,2.33,11,4.83,13.58,3.16,1.62-1,2.1-3.41,2.28-5.49.18-1.83.06-4.16-1.14-5.5-.84-.91-.66-.25-1.5-.5-1.13-.33-.6-.33-1.61-.75V81.43a2,2,0,0,1,1.13-1,4.26,4.26,0,0,0,1.44-.08l10.05.42a1.28,1.28,0,0,1,.72.16c.3-.16.24-.25.66.17a39.66,39.66,0,0,1,0,4.66c-1.68,3-1.62,3.17-1.68,6.41a44.29,44.29,0,0,1-.18,6.33l-1.73.5c-1.2.33-2.28,1.42-3.47,1.42h-3.89c-.66,0-1.5.75-2.27.75h-2.7c-6.58,0-10.65.58-17.23-8.58-4.19-5.91-5.44-14.32-5.44-20.48v-3c0-.75,0-1.75.12-3.25a6.6,6.6,0,0,1,.17-1.58,19.58,19.58,0,0,1,.9-1.75c.24-9.66,7.18-17.48,11.55-19.48,5-2.25,5.51-2.66,9.69-2.25,6.53.75,3.83-.58,9.76,3l2.63,1.58,1.26.83c.59.42.77.25,1.31,1.17Z"/><path fill="#fff" d="M230.06,96.92a22.39,22.39,0,0,1-2.15-2.33c-.42-.75-.84-2.67-1.08-3.17a8.54,8.54,0,0,1-1.14-3.08l-1.2-5.24c-.12-.34-.47-1.33-.53-1.67L222.4,76c-.18-.67-.36-1.41-.54-2.16a11.1,11.1,0,0,1-.72-2.09c-.24-1.49-.47-2.83-.77-4.24l-1.14-5.83c-.12-.58-.66-2.5-.78-3l-1-4.08a13.1,13.1,0,0,0-.59-1.91l-.6-2.5A5.26,5.26,0,0,0,216,49l-1.2-4.66-.48-2.08a9,9,0,0,0-.3-2.17c-.71-.08-2.27-.83-3,.25-.36.5-.24,5.5-1.14,8.41L209.18,51c-.06.17-.3,1-.72,2.5l-2.87,9.66a11.28,11.28,0,0,1-.48,1.58l-.06.42-.78,2.41-.3,1.5-3.59,13.32c-.42,1.5-1.49,2.67-2.21,4.08a26.1,26.1,0,0,0-1.74,4L196,91.76a10.74,10.74,0,0,1-2.75,3.58,16.53,16.53,0,0,1-1.49,1.33c-.78.66-.72,1.16-.9,1.91,3.59,2.67,7,1.84,9.75,1.84H204c-.06-1.84.24-1.75-.54-3.5-.42-1.25-1.31-1.75-2-2.67-1-1.91.18-4.82,1.14-8.66l.47-2.66a17.16,17.16,0,0,0,.84-1.91c.18-.59.24-1.34.36-1.92.42-2,.72-2.91,1.5-3.5s7.36-.66,8.07-.25c1.56.92,1.92,2.34,2.16,3.83l.18,1.17a10.68,10.68,0,0,1,.89,3.33l1.62,5c.84,3.41,1.85,6.74.84,8.65-.72,1.09-1.5.84-2,1.17a2,2,0,0,0-1,2.33h1.55c.48,0,1.14.25,1.62.25h5.5a13.52,13.52,0,0,0,5.39-1C230.66,98.33,231.14,98.42,230.06,96.92Zm-16.4-26.56-.35.5a23.28,23.28,0,0,1-5.21-.17c-.36-4.66,1.32-7.41,2.21-12.07l.42-2.25c.36-1.16.24-1.5,1.32-2,.6.25.66.75.66,1.5a12.34,12.34,0,0,1-.3,1.83c0,.59.24,2.83.3,3.58.42,4,.3,2.92.95,7.08Z"/><path fill="#fff" d="M264,93.75c-2.27-.33-2.81-.66-3.47-3.49a39.16,39.16,0,0,1-.89-6.08l-.48-4.5c-.42-3.83-.66-5.07-3.17-7.82v-.42c.65-1.16,1.79-1,2.21-1.33a10,10,0,0,0,2.15-2.33,25.65,25.65,0,0,0,3.06-6.16c.83-4.17-.6-10.41-3.71-14.57C255.59,41.47,247,41,243,41.63h-1.49a6.3,6.3,0,0,1-1.8-.33,17,17,0,0,0-1.79-.08c-.54,0-1.14.08-1.68.08a1.81,1.81,0,0,1-.9.17c-.36.16-.42,0-.77.25-.06.91-.36,2.58.11,3.5L236,46.3a2.4,2.4,0,0,1,.9,1.66,4.9,4.9,0,0,0,.24,1.75c0,.58.06,1.25.06,1.83.12,3.92.12,5.25.12,7V80.77c0,.66-.24,1.33-.24,1.91v2.58l.12,3.08v1.25c0,.34-.42,4.83-.54,5.16a5.12,5.12,0,0,1-1.44,2.5c-.65.67-1.31.58-1.55,2v1.17c2.87,1,2.57.41,5.44,0h4.67c.3-.17.42.25.78.25a1,1,0,0,1,.72-.17c.95,0,1.07.08,1.43-.08h2.75a2.07,2.07,0,0,0-.65-2.09,16.75,16.75,0,0,0-1.32-1.24c-1.32-1.17-1.44-.92-2-3A48.43,48.43,0,0,1,245,86.6l-1.2-.42v-.67c.24-.41.6-.5.78-1a16.31,16.31,0,0,0,.42-2.58,9.75,9.75,0,0,0,.18-1.16c0-.75-.9-4.67-.9-4.92.12-1.41.12-1.41,1.19-2.08a3.29,3.29,0,0,1,3.53.09,16.18,16.18,0,0,1,3,5.24c.48,1.5.42,1.83.42,5.16v1.25c.41,4.58,3.11,13.91,5.5,15.57a2.82,2.82,0,0,0,3.59-.41,7.71,7.71,0,0,0,2-3.42,16.51,16.51,0,0,0,.72-1.91C264.38,94.59,264.62,94.25,264,93.75Zm-9.57-28.89a5.33,5.33,0,0,1-2.81,2.67c-1.2.5-4.61.75-5.57-.33-1.25-1.42-.83-6.75-.83-8.16V57.45h-1.26c-.6-.91.24-1.58.42-2.58s.24-1.66.42-2.58c.42-2.75.42-4,1.25-5.24.9-1.5,1.44-1.09,2.52-.84,1.43.34,3,.75,3.65,1.5a26.56,26.56,0,0,1,2.87,4.83c.72,2.25.06,2.08.42,4.16.3,1.92,1,2.42.54,4.17-.12.41-.78,1.75-.9,2A5.62,5.62,0,0,1,254.39,64.86Z"/><path fill="#fff" d="M522.88,91.59h0A4.42,4.42,0,1,0,527.2,96,4.38,4.38,0,0,0,522.86,91.59Zm0,8.14a3.73,3.73,0,0,1,0-7.45h0a3.73,3.73,0,0,1,0,7.45Z"/><path fill="#fff" d="M523.66,96.15v0a1.23,1.23,0,0,0,1-1.19,1.19,1.19,0,0,0-.45-1,2.66,2.66,0,0,0-1.53-.37,8.67,8.67,0,0,0-1.39.12v4.91H522V96.45h.55a.92.92,0,0,1,1.06.86,3.68,3.68,0,0,0,.33,1.25h.83a4,4,0,0,1-.32-1.22C524.38,96.62,524.09,96.23,523.66,96.15Zm-1.06-.31H522V94.17c.14,0,.32,0,.57,0,.88,0,1.2.43,1.2.86C523.8,95.6,523.25,95.84,522.6,95.84Z"/><path fill="#fff" d="M298.24,40.64c6.88,3.83,5.26.66,12.14.66l.72.33.48-.33c2.87.08,1.91.42,4.73,1.33.48-.75,1.43-.5,2.09-.75h3.77v3.34c-.18,1.91-.3,1.16-.9,3.07a9.24,9.24,0,0,0-.54,3.09c0,.5.06,1,.06,1.49a7.65,7.65,0,0,1-.36,1.75l-1.67.42-.6-1.83a29.9,29.9,0,0,1-.78-3.17c-.3-.58-.24-1.75-1-1.75-.6-.83-.36-1-1.2-1.66-.36-.17-1.32-.67-1.62-.5l-.36.42h-1A2,2,0,0,0,310,45.8l-.41-.34H309a5.73,5.73,0,0,0-.42,2.25,18,18,0,0,0-.12,2.25V65c.06.42-.12,2.17-.12,2.58v2.5c0,.25-.12,1.58-.18,2,0,.66-.12,1.5-.12,2.25.12.25.18,1.49.3,2l.18,2.25c0,1.75.12,3.5.12,5.25v6.24c0,4.91,1,5,4.73,8.83v2.49c-.36,0-.78-.16-1.26-.16s-1.32-.17-1.56-.17c-.6-.58-.48-.66-1.43-.66h-6.82a12.23,12.23,0,0,0-4.67.75l-1-2.17c5.33-7.16,4.31-3.58,4.31-12.07V75.19c0-.67-.12-1.67-.12-2.58v-5a6.13,6.13,0,0,1,.36-2c0-.5.06-1.33.06-2.08,0-1.91-.48-3.5-.48-5.41,0-3.91.66-3.16-.06-7.08-.36-1.91.12-1.58-1.14-3.58-.48-.75-.95-1.33-1.13-1.58a2.28,2.28,0,0,0-1.38-.75c-.84,1.17-2.57,1.75-3.53,2.25-1,.75-.78.33-1.38,1.66a3,3,0,0,1-.95,2.25c-.72.59-.48.42-.84,1.25a7.62,7.62,0,0,1-1.08,1.5c-1.37,0-1.32-.33-1.32-2.08,0-.92.18-1.83.18-2.66V46.63a19.91,19.91,0,0,0-.59-5.33c2.27-2,2.33-1.58,4.78-.25l1.08.58c1.38.17.84-.58,2.21-.83a20,20,0,0,1,2.22.09Z"/><path fill="#fff" d="M356.23,96.92a23.55,23.55,0,0,1-2.15-2.33c-.42-.75-.84-2.67-1.08-3.17a8.54,8.54,0,0,1-1.14-3.08l-1.19-5.24c-.12-.34-.48-1.33-.54-1.67L348.57,76c-.18-.67-.36-1.41-.54-2.16a11.1,11.1,0,0,1-.72-2.09c-.23-1.49-.47-2.83-.77-4.24L345.4,61.7c-.12-.58-.66-2.5-.78-3l-1-4.08a14.27,14.27,0,0,0-.6-1.91l-.6-2.5a5.26,5.26,0,0,0-.24-1.25L341,44.3l-.48-2.08a9,9,0,0,0-.3-2.17c-.71-.08-2.27-.83-3,.25-.36.5-.24,5.5-1.13,8.41L335.35,51c-.06.17-.3,1-.72,2.5l-2.87,9.66a11.28,11.28,0,0,1-.48,1.58l-.06.42-.78,2.41-.3,1.5-3.59,13.32c-.42,1.5-1.49,2.67-2.21,4.08a26.1,26.1,0,0,0-1.74,4l-.47,1.25a10.89,10.89,0,0,1-2.76,3.58,15.27,15.27,0,0,1-1.49,1.33c-.78.66-.72,1.16-.9,1.91,3.59,2.67,7,1.84,9.75,1.84h3.41c-.06-1.84.24-1.75-.54-3.5-.41-1.25-1.31-1.75-2-2.67-1-1.91.18-4.82,1.14-8.66l.47-2.66a17.16,17.16,0,0,0,.84-1.91c.18-.59.24-1.34.36-1.92.42-2,.72-2.91,1.5-3.5s7.36-.66,8.07-.25c1.56.92,1.92,2.34,2.16,3.83l.18,1.17a10.92,10.92,0,0,1,.9,3.33l1.61,5c.84,3.41,1.86,6.74.84,8.65-.72,1.09-1.5.84-2,1.17a2,2,0,0,0-1,2.33h1.55c.48,0,1.14.25,1.62.25h5.5a13.52,13.52,0,0,0,5.39-1C356.83,98.33,357.31,98.42,356.23,96.92ZM339.84,70.36l-.36.5a23.28,23.28,0,0,1-5.21-.17c-.36-4.66,1.32-7.41,2.21-12.07l.42-2.25c.36-1.16.24-1.5,1.32-2,.6.25.66.75.66,1.5a12.34,12.34,0,0,1-.3,1.83c0,.59.24,2.83.3,3.58.42,4,.3,2.92,1,7.08Z"/><path fill="#fff" d="M364.26,46a4.28,4.28,0,0,1-1.37,1.92A9.93,9.93,0,0,1,361.81,50c-.66,1.67-.36,1.58.12,3.33.48,1.92.72,2.92.9,3.41l1.67,4.67c.18.58,0,.83.24,1.75.12.41.42,1.24.66,1.91L367,72.19a5.38,5.38,0,0,0,.65,1.83c.3,1.25.66,2.42,1,3.67a5.18,5.18,0,0,0,.24,1.33l.54,1.58a4.34,4.34,0,0,0,1.67-2,23.09,23.09,0,0,0,.72-2.58A9.48,9.48,0,0,0,373,73.61a45.58,45.58,0,0,0,1.55-6.08c.18-1.08.24-1.42.36-1.92l2-5.49c.78-2.17,2.93-9.08,1.37-11.83a16.52,16.52,0,0,0-2.63-2.74c0-.84.06-2,.06-2.92a1.18,1.18,0,0,1,1.14-.66,8.58,8.58,0,0,1,1.25-.25,5.94,5.94,0,0,0,1.2,0c.42,0,.84-.09,1.2-.09l4.19.42h1.19l1.26-.17a8.41,8.41,0,0,1,2.51.34,1.77,1.77,0,0,1-.36,2.08l-.6,1.16a3.34,3.34,0,0,1-.77.5,5.55,5.55,0,0,0-1.56,1.17c-.6.83-1.14,1.5-1.67,2.25-.78,1.33-.66,2-1.2,3.33-.18.66-1.32,2.58-1.62,3.25-.12.49-.53,2.83-.71,3.33a13.34,13.34,0,0,0-1,1.66,8.2,8.2,0,0,0-.6,1.75l-.9,3.25c-.36,1.41-.66,2.33-1.07,3.91l-.6,2.25c-1.08,4.16-.36,3.24-1.86,7.41l-1.07,3a37.44,37.44,0,0,0-1.74,6.16l-.9,4.33c-.24,1.08-1.85,7.66-3.11,8.49a1.38,1.38,0,0,1-1.49,0c-1.2-.92-2.34-7.75-2.58-8.91l-.66-2.92a31.9,31.9,0,0,0-.47-4l-1-1.92c-.12-.5-.12-1.5-.3-2.08l-1.56-4.41c-.24-1-.3-4.33-.36-5.25a43.78,43.78,0,0,1-2.21-6.57c-.6-2.17-2.15-4.58-2.69-6.58l-.36-1.42c-.6-2.33-.78-4.33-2-7A13.3,13.3,0,0,0,351,47.13c-.66-.75-1.86-.58-2.39-1.67a4.73,4.73,0,0,1-.24-2.74c.89-2.08,5.2-1,6.28-1h1.68c.23.08,2-.09,4-.17a15.46,15.46,0,0,1,2,0,6.22,6.22,0,0,1,2.09.42C364.44,42.8,364.68,45.05,364.26,46Z"/><path fill="#fff" d="M402.32,54.46V82.1c0,.58.18,4.58.18,4.74v3.67c0,3.49.42,5.24,2.87,8.91v.91a20.5,20.5,0,0,1-5.5.09h-1.5a3.71,3.71,0,0,0-1.31.41c-.3,0-.84.08-1.38.08a8.78,8.78,0,0,1-2.57-.08A7.24,7.24,0,0,1,392,99.58a2.86,2.86,0,0,1-.18-1.83,12.79,12.79,0,0,0,2-3A5.23,5.23,0,0,0,395,91.51c0-.09.3-6.5.3-6.66V80.77c0-.59.06-1.34.06-2,0-.5.06-1.33,0-2l-.3-5.33V69.11c0-.75-.12-1.58-.06-2.41l.3-6.58c-.12-2.42.12-11.08-2-13.49-.72-.75-2.46-.92-2.52-2.83,0-1.08.12-1,.9-1.58,2.22-2.08,4.67.25,7,0l2-.67a6.19,6.19,0,0,1,2.15,0,8,8,0,0,0,2,.33c1.13.42,1.13,1,1.13,2.34C402.14,50.21,402.32,48.46,402.32,54.46Z"/><path fill="#fff" d="M427.17,43.13c-4,5-3.89,5.83-3.89,12.08v2.16c0,3.25-.41,4.08-1,7.49h.89v2c0,2.5-.17,5.08-.17,7.58,0,.66.05,1.66.05,2.5l.72,2.58c.06.66-.06,4.49-.12,5.24a32.2,32.2,0,0,0-.12,5.17c.18,1.16,1.38,3.66,2.52,4.24.66.33,8.91,1,10.41.17s1.49-2.08,2.09-3.58a16.21,16.21,0,0,0,.78-2.08c.06-.42.12-1.59.6-1.92a12.71,12.71,0,0,1,2.21-.16l.36.66-.18,2v1.41a34.75,34.75,0,0,1,.12,4.83,18.36,18.36,0,0,1-.18,4.08c-.84,1.09-1.37.09-2.27.59-.84,0-1.62.25-2.4.25-1.07,0-1.85-.09-2.81-.09,0,0-.54.09-.66.09h-3.77c-.71,0-1.37.08-2,.08a17.18,17.18,0,0,1-2.15-.08l-4-.5c-.6-.09-2.69.5-3.41.5h-4.61l-1.2.25c-.36,0-.83-.09-1.19-.92V98.33c.36-.75,2-2.49,2.39-3.24,1.2-1.58,1.2-1.5,1.38-3.5V88.43c.06-.67.12-1,.24-1.83a4.39,4.39,0,0,0,.24-1.75A5.16,5.16,0,0,0,415.8,83a25.08,25.08,0,0,1-.29-7.41V64.36c0-.58.29-.58.48-1.24v-2.5L416,58.2c0-.25-.11-2.16-.18-2.58V52.13a24.89,24.89,0,0,0-.17-3.92c-.72-2.5-1-1.5-2.4-3-1.07-1.25-.72-1.75-.66-3.34.78-.66,1.26-.25,1.8-.25.18,0,.54-.08.84-.08s.59.08,1,.08c2,.17,2.28.42,3.65.25,3.59-.58,3.41-1,7.3-.16Z"/><path fill="#fff" d="M459.67,43.13c-4,5-3.89,5.83-3.89,12.08v2.16c0,3.25-.42,4.08-1,7.49h.9v2c0,2.5-.18,5.08-.18,7.58,0,.66.06,1.66.06,2.5l.72,2.58c.06.66-.06,4.49-.12,5.24a32.2,32.2,0,0,0-.12,5.17c.18,1.16,1.37,3.66,2.51,4.24.66.33,8.92,1,10.41.17s1.5-2.08,2.1-3.58a18.62,18.62,0,0,0,.77-2.08c.06-.42.12-1.59.6-1.92a12.87,12.87,0,0,1,2.22-.16l.35.66-.18,2v1.41a34.75,34.75,0,0,1,.12,4.83,18.36,18.36,0,0,1-.18,4.08c-.83,1.09-1.37.09-2.27.59-.84,0-1.61.25-2.39.25-1.08,0-1.86-.09-2.81-.09,0,0-.54.09-.66.09h-3.77c-.72,0-1.38.08-2,.08a17.34,17.34,0,0,1-2.15-.08l-4-.5c-.6-.09-2.69.5-3.41.5h-4.61l-1.19.25c-.36,0-.84-.09-1.2-.92V98.33c.36-.75,2-2.49,2.39-3.24,1.2-1.58,1.2-1.5,1.38-3.5V88.43c.06-.67.12-1,.24-1.83a4.22,4.22,0,0,0,.24-1.75A5.14,5.14,0,0,0,448.3,83a24.73,24.73,0,0,1-.3-7.41V64.36c0-.58.3-.58.48-1.24v-2.5l.06-2.42c0-.25-.12-2.16-.18-2.58V52.13a23.52,23.52,0,0,0-.18-3.92c-.72-2.5-1-1.5-2.39-3-1.08-1.25-.72-1.75-.66-3.34.78-.66,1.25-.25,1.79-.25.18,0,.54-.08.84-.08s.6.08,1,.08c2,.17,2.27.42,3.65.25,3.59-.58,3.41-1,7.3-.16Z"/><path fill="#fff" d="M493.17,25.24l.92.32c1.61,0,2.68.43,4.22-.32a21.14,21.14,0,0,0,2.14-.32c2.91-.21,5.29.64,8.2,1.07l.62.42c3.44-.74,5.28-1.81,7.81,1.92.92,1.39,1.08,4.05,1.23,6.61a16,16,0,0,1,.08,3.2c0,1,0,2.45-1.46,3.2h-.38c-2.69-4.37-1.46-4.48-5.52-7.46-2.53-1.82-4-3.63-6.67-3.2a4.8,4.8,0,0,1-1.61,1,2.76,2.76,0,0,1-1.61-1.07,5.16,5.16,0,0,0-3.29-1.07c-1.15.11-2.53.22-3.07,2.14-.31,1.17.46,6.29.38,7.46a5.54,5.54,0,0,1-.07,1.92c-.31,1.17-.39.75-.39,1.92a15.54,15.54,0,0,0-.38,3.84l.54,1.7c.23,1.6-.46,8.11.92,9.82.3.32,2.53,1.17,2.91,1a7.64,7.64,0,0,1,3.06-1.49l1.15-1.17a4.12,4.12,0,0,1,1-1.49,6.47,6.47,0,0,1,1.61-3.31c.77,0,2-.53,2.45,1.71a10.32,10.32,0,0,1,.23,3.2,5.78,5.78,0,0,1-.69,3.41v1.81a3.47,3.47,0,0,1,.54,2.35c0,.85-.08,1.81-.08,2.56a37.94,37.94,0,0,1-.15,5.11,1.62,1.62,0,0,1-1.69.86.94.94,0,0,0-.84-.22,3,3,0,0,1-.84-1.06c-.16-.75-.54-1.28-.85-2.56-1.68-2.56-1.84-.85-3.6-1.81a7.15,7.15,0,0,1-1.76-1.82,3.83,3.83,0,0,1-1.84-1.06,3.31,3.31,0,0,0-2.68.74c.3,4.06.76,3.52.76,6.29v3.2a4.84,4.84,0,0,0-.61,3.1v3.51c.38,3.2-.61,10.13,1.69,13.33a6.87,6.87,0,0,0,6.05,2,4.56,4.56,0,0,0,1.23-.53c.61-.75.69-.86,1.38-.86h2.6a31.88,31.88,0,0,0,2.53-3c1.08-.86,1.23-1.71,1.69-3.73.46-1.07,1-2.67,1.53-3.84.84-1.39,1.69-1.39,2.76-1.82l.84.75v3.09c0,3.31-.07,3.84-.07,6.29V99c-.31,1.07-.08,1-1,1.92a10.73,10.73,0,0,1-3.29.43c-.31,0-2.76-1-3.3-1h-1.15c-1.3,0-2.07.64-4.06.64h-2.46A1.19,1.19,0,0,1,499,101a2,2,0,0,1-1.76.11l-6.51-.54c-.46,0-.85-.1-1.31-.1L489,101H487.8c-4.44,0-4.6.21-9.19-1.07V98c6.13-5.33,5.82-7.35,5.82-16.53V74.72a28.43,28.43,0,0,1,.15-3.52V67.36A5.19,5.19,0,0,1,485,65l-.46-7.14a33.63,33.63,0,0,1,.08-3.41l.38-3.31,1-4.9c.08-1.07-.46-5.76-.61-6.94-.31-3-.31-4.58-1.77-6.93-1-1.06-1.38-2.13-2.52-2.77a6.08,6.08,0,0,1-1.77-3.52c.62-.64,1.23-.74,1.54-1.06.92-.32.69,0,1.68-.11a3.49,3.49,0,0,1,3.22.21h1.53a3.83,3.83,0,0,1,1.69,1c1.61.64,1.61,0,3.14-.85Z"/><path fill="#fff" d="M283.79,44.1c-.41.69-1,.94-1.37,1.63-.27.34-.34.86-.68,1a1.06,1.06,0,0,1-.49.08c-.47.26-.54.86-.75,1.46A8.73,8.73,0,0,0,280,51c-.07.94.07,1.54.07,2.57v1.11c0,2.05.21,3.17.28,5.13,0,.69.2,1.12,0,1.63-.14.26-.35.34-.48.69-.28.68.06,1.28.13,2.14,0,1,.07,1.79.07,2.82.07,2.66,0,4.28.07,6.94,0,.77.07,1.28.07,2.05a17.39,17.39,0,0,1,.2,1.88,9.6,9.6,0,0,1-.34,2.49,3.23,3.23,0,0,0-.34,1.2,8.34,8.34,0,0,0,.34,1.45,21.62,21.62,0,0,1,.28,3.08,21.5,21.5,0,0,1,.06,3c-.06.43-.2.77-.27,1.2a8.6,8.6,0,0,0,.27,2.65,16.07,16.07,0,0,0,.82,2.57,9.26,9.26,0,0,0,1.24,2.23c.41.59,1.23.59,1.3,1.45a1.77,1.77,0,0,1-.48,1.11c-.55.86-1.44.35-2.4.35a25.29,25.29,0,0,1-2.53-.18,8.56,8.56,0,0,0-1.51-.34,5.72,5.72,0,0,0-1.64.34,3.8,3.8,0,0,1-.82.26,5.75,5.75,0,0,1-1.24-.08c-.47,0-.75.08-1.3.08a2.69,2.69,0,0,1-1.16-.08c-.55-.26-.76-.78-1.1-1.29-.27-.34-.61-.51-.61-.94s.34-.6.61-.94a7.88,7.88,0,0,1,1.1-1.2,10.54,10.54,0,0,0,1-1.54A10.86,10.86,0,0,0,273,92c.41-1.71,0-2.91.07-4.62s.54-2.82.34-4.45c-.07-.68-.28-1.11-.34-1.71-.14-1.2.27-1.89.27-3.09s-.14-1.79-.21-2.91a15,15,0,0,0-.06-3.08,7.92,7.92,0,0,1-.41-1.28,9.18,9.18,0,0,1,0-2.4,16.9,16.9,0,0,1-.21-2.65c.07-.86.27-1.37.41-2.23a12.17,12.17,0,0,0,.55-2.31,14,14,0,0,0-.28-2.4,12.93,12.93,0,0,0-.34-1.71c-.07-.43-.27-.68-.34-1.2-.21-1.11.27-1.88.27-3.08a17,17,0,0,0-.06-2.57,11.86,11.86,0,0,0-.48-1.62,6.52,6.52,0,0,0-.55-1.63,5.76,5.76,0,0,0-1.58-1.54c-.61-.43-1.3-.34-1.71-1A3,3,0,0,1,268,43c0-1.37,1.3-1.71,2.4-2,.89-.26,1.5.09,2.46.17s1.65.26,2.67.43c.55.09,1,.43,1.51.34s1-.68,1.64-.85a4,4,0,0,1,1-.09c.62,0,1,.34,1.57.43.83.08,1.38-.6,2.06-.17s1,.68,1,1.45C284.41,43.33,284,43.59,283.79,44.1Z"/><path fill="#fff" d="M149.21,151.43a35.44,35.44,0,0,1-5,4.22,22,22,0,0,1-5,2.53,17.07,17.07,0,0,1-5.38.91,13.09,13.09,0,0,1-2.86-.26l-3-.78c-.91-.3-1.52-.52-1.82-.65s-1-.45-2-1a51.42,51.42,0,0,0-5.19-2,18.25,18.25,0,0,1-4.15,3.63,7.18,7.18,0,0,1-3.57,1,3.73,3.73,0,0,1-1.36-.32,2,2,0,0,1-1-1,2.39,2.39,0,0,1-.39-1.36,5.3,5.3,0,0,1,2.4-4.29,14.52,14.52,0,0,1,6.62-2.46,14.32,14.32,0,0,0,1.1-1.75,12.77,12.77,0,0,0,.84-1.75l.07-.2a14.18,14.18,0,0,0,.71-3.24c.05-.26.09-.56.13-.91,0-.69.09-1.23.13-1.62.09-1.3.13-2.34.13-3.12a25.63,25.63,0,0,1,.59-5.64,29.22,29.22,0,0,1,1.55-5.19,26.29,26.29,0,0,1,4.54-7.4,17.81,17.81,0,0,1,5.65-4.28,13.89,13.89,0,0,1,5.45-1.3,12.07,12.07,0,0,1,4.09.72,10.15,10.15,0,0,1,3.17,2.07,9.81,9.81,0,0,1,2,3.05,12.1,12.1,0,0,1,.71,4,13.91,13.91,0,0,1-1.36,6.09,11,11,0,0,1-3.51,4.61,8,8,0,0,1-4.86,1.75,4.25,4.25,0,0,1-3.12-1.1,4,4,0,0,1-1.16-3,7.62,7.62,0,0,1,.39-2.27,2.82,2.82,0,0,0,2.14,1,3.85,3.85,0,0,0,2.79-1.24,7.83,7.83,0,0,0,1.94-3.24,13.33,13.33,0,0,0,.65-4.22,7,7,0,0,0-1.17-4.28,4.12,4.12,0,0,0-3.43-1.56,4.91,4.91,0,0,0-4.09,1.89,10.25,10.25,0,0,0-2,4.28,68.12,68.12,0,0,0-1,7q-.39,3.9-1.23,8.11a30.3,30.3,0,0,1-2.27,6.43,27,27,0,0,1-4.48,6.09h1.56a22.35,22.35,0,0,1,7.66,1.82,22,22,0,0,0,7.46,1.82,10.71,10.71,0,0,0,5.06-1.3,17.12,17.12,0,0,0,4.86-4Z"/><path fill="#fff" d="M183,151.43l-1.16,1c-1.3,1.21-2.25,2.08-2.86,2.59s-1.34,1.17-2.33,1.95l-.65.52a7.45,7.45,0,0,1-4.41,1.62q-4.74,0-4.74-8.82A31.73,31.73,0,0,1,161,157a8.82,8.82,0,0,1-5.45,2.14,4.91,4.91,0,0,1-3.31-1.23,7.7,7.7,0,0,1-2.47-3.31,11.46,11.46,0,0,1-.91-4.48,17.07,17.07,0,0,1,1.69-7.33,21.64,21.64,0,0,1,4.28-6,24.37,24.37,0,0,1,5.39-4,11.51,11.51,0,0,1,5.19-1.43,5.55,5.55,0,0,1,5.51,3.63l6.49-3.57h1.75l-2.79,9.28-1.43,5.39a25.14,25.14,0,0,0-.71,4.21,3.13,3.13,0,0,0,.58,2,1.61,1.61,0,0,0,1.37.72,3.18,3.18,0,0,0,2.2-1q.53-.45,1.56-1.29a1,1,0,0,1,.32-.33c.52-.47,1.45-1.38,2.79-2.72Zm-21.54-14.79a21.21,21.21,0,0,0-3.3,6.29,20.18,20.18,0,0,0-1.3,6.42,4.13,4.13,0,0,0,.91,2.73,2.61,2.61,0,0,0,2.07,1.1c1.43,0,2.83-.88,4.22-2.66a21.45,21.45,0,0,0,3.31-6.22,19.72,19.72,0,0,0,1.23-6.49,5,5,0,0,0-.71-2.73,2.61,2.61,0,0,0-2.21-1Q163.49,134,161.47,136.64Z"/><path fill="#fff" d="M183.08,159.09l-.07-.85a11.52,11.52,0,0,1-.19-1.75c-.09-1.38-.13-2.48-.13-3.31,0-1.55.06-3.18.19-4.86.09-1.3.26-2.88.52-4.74a78.89,78.89,0,0,1,1.95-8.76,55.45,55.45,0,0,1,3.31-8.63q1.09-2.2,2.27-4.41c1-1.77,1.94-3.28,2.72-4.54.39-.17.65-.28.78-.32,1.47-.56,2.64-1,3.5-1.3q1-.39,3.57-1.23a19.74,19.74,0,0,1,3.64-1c.56,0,1.05.52,1.49,1.56a7.93,7.93,0,0,1,.71,3.17,12.45,12.45,0,0,1-1.62,5.84,51,51,0,0,1-6,8.37,16.39,16.39,0,0,1,4.47-.78A7.44,7.44,0,0,1,209,133a4.65,4.65,0,0,1,1.89,3.82,5.69,5.69,0,0,1-.85,2.92,8.67,8.67,0,0,1-3,2.66,22.54,22.54,0,0,1-5.65,2.14q3.7.85,3.7,4.35v.39l-.06.78-.07,1-.06.72c0,1.29.6,1.94,1.81,1.94a4.62,4.62,0,0,0,2.66-1.1,24.69,24.69,0,0,0,2-1.82c.74-.73,1.3-1.34,1.69-1.81l1-1.24v3.64c-.56.64-1,1.16-1.43,1.55-.52.57-1.19,1.21-2,2-.22.22-.58.54-1.1,1l-.46.33a16.36,16.36,0,0,1-1.55,1.1,13.78,13.78,0,0,1-2.73,1.43,8,8,0,0,1-2.66.52,5.12,5.12,0,0,1-3.83-1.63,5.28,5.28,0,0,1-1.55-3.89,23.18,23.18,0,0,1,.39-3.37l.39-2.47a1.51,1.51,0,0,0-.46-1.1,1.86,1.86,0,0,0-1.36-.45,2.71,2.71,0,0,1-1.17-.39,1.14,1.14,0,0,1-.32-.85,1.85,1.85,0,0,1,.52-1.55,2.81,2.81,0,0,1,1.68-.39q4,0,5.45-1.56a4.6,4.6,0,0,0,1.43-3,3,3,0,0,0-.39-1.56,2.69,2.69,0,0,0-1.17-1,3.85,3.85,0,0,0-1.75-.39,6.23,6.23,0,0,0-3.76,1.23,26.23,26.23,0,0,0-4.48,4.8l-1,6.36-.39,4.93-.13,5Zm12.32-25.31q2.86-3.24,4.93-5.9a45.74,45.74,0,0,0,3.18-4.86,9,9,0,0,0,1.17-4,2.27,2.27,0,0,0-.39-1.49,1.72,1.72,0,0,0-1.3-.46c-.73,0-1.6.56-2.59,1.69a21.14,21.14,0,0,0-3.31,5.77,96,96,0,0,0-3.76,11.55Z"/><path fill="#fff" d="M237.77,151.43c-1.34,1.3-2.32,2.19-2.92,2.66a25.49,25.49,0,0,1-2.47,2,14.36,14.36,0,0,1-4.41,2.34c-.95.26-1.66.43-2.14.52a12.7,12.7,0,0,1-2.33.19,9,9,0,0,1-6.95-2.79,10,10,0,0,1-2.66-7.2,17.93,17.93,0,0,1,1.3-6.55,21,21,0,0,1,3.37-5.71,18.5,18.5,0,0,1,4.81-3.89,11.26,11.26,0,0,1,5.51-1.43,7.3,7.3,0,0,1,4.67,1.49,4.82,4.82,0,0,1,1.82,4A6.46,6.46,0,0,1,233.1,142a20.45,20.45,0,0,1-5,3.25,56.37,56.37,0,0,1-6.68,2.46,9.44,9.44,0,0,0,2.33,4.61A6.23,6.23,0,0,0,228,153.9a7.66,7.66,0,0,0,3.11-.72,13,13,0,0,0,2.73-1.75l3.89-3.63Zm-10.51-9.08a7,7,0,0,0,2-5.19,3.73,3.73,0,0,0-.59-2.27,1.9,1.9,0,0,0-1.62-.78,4.18,4.18,0,0,0-2.59,1.36,10.27,10.27,0,0,0-2.4,4,19.11,19.11,0,0,0-.91,6.1A14.11,14.11,0,0,0,227.26,142.35Z"/><path fill="#fff" d="M287.07,124a11.12,11.12,0,0,0-1.49,4.09c-.22.95-.45,2.22-.71,3.82-.31,1.82-.5,3.12-.59,3.9a69.09,69.09,0,0,1-2,9.6,18.14,18.14,0,0,1-4.67,7.65,19,19,0,0,1-6.36,4.48,17.83,17.83,0,0,1-7.59,1.62,10.06,10.06,0,0,1-5.58-1.36,6.29,6.29,0,0,1-2.79-3,8.13,8.13,0,0,1-.71-2.86,2.44,2.44,0,0,1,.45-1.42,13.18,13.18,0,0,1,2.92-2.08,8.56,8.56,0,0,1,3.31-1.43c.69,0,1,.42,1,1.24l-.32,2.2-.33,2.14a4.06,4.06,0,0,0,1.1,3,3.44,3.44,0,0,0,2.47,1.1,6.4,6.4,0,0,0,3.18-1.1q1.82-1.11,3.63-4.93a35.22,35.22,0,0,0,2.73-10.71,52.79,52.79,0,0,1,2.07-10.31,15.71,15.71,0,0,1,3.77-5.91,13.73,13.73,0,0,1,3.63-2.59,8.27,8.27,0,0,1,3.76-1,3,3,0,0,1,1.75,1.1A11,11,0,0,0,287.07,124ZM306,151.43a34.91,34.91,0,0,1-6.75,6,10.71,10.71,0,0,1-5.77,1.75,6.42,6.42,0,0,1-5-2.07,7.57,7.57,0,0,1-1.88-5.26,23,23,0,0,1,.91-5.32,23.58,23.58,0,0,0,.91-5.38c0-2-.65-3.05-1.95-3.05a1.56,1.56,0,0,1-1-.33,1.13,1.13,0,0,1-.2-.78c0-1.25.5-1.88,1.49-1.88l1.11.07.9.06a3.9,3.9,0,0,0,1.69-.26,2.73,2.73,0,0,0,.91-.45l.78-.59a1.78,1.78,0,0,1,.32-.25q2.79-3,2.79-8.37,0-9.6-10.9-9.61a21.47,21.47,0,0,0-8.56,1.76,17.21,17.21,0,0,0-6.62,4.54,8.65,8.65,0,0,0-2.53,5.84,4.27,4.27,0,0,0,2.6,4q1.23.66,1.23,1.56c0,.52-.78,1.15-2.34,1.88a9.82,9.82,0,0,1-3.37,1c-.95,0-1.79-.63-2.53-1.88a7.92,7.92,0,0,1-1.1-4.09,13.07,13.07,0,0,1,3.31-8.56,21.36,21.36,0,0,1,8.95-6.23,32.61,32.61,0,0,1,12.26-2.27,27.78,27.78,0,0,1,8.18,1,16.13,16.13,0,0,1,5.7,3,12.07,12.07,0,0,1,3.31,4,10.44,10.44,0,0,1,1,4.6,8.84,8.84,0,0,1-1,4.09,12.05,12.05,0,0,1-3,3.7,10.85,10.85,0,0,1-3.3,1.82,42.16,42.16,0,0,1-5.65,1.75,10.82,10.82,0,0,1,4.09,3.5,8.59,8.59,0,0,1,1.3,4.74,14.33,14.33,0,0,1-.07,1.75c-.13.78-.26,1.53-.39,2.27l-.19,2c0,1.82.71,2.73,2.14,2.73a6.06,6.06,0,0,0,3.76-1.69,48.74,48.74,0,0,0,4.48-4.8Z"/><path fill="#fff" d="M329.7,151.43c-1.35,1.3-2.32,2.19-2.92,2.66a25.49,25.49,0,0,1-2.47,2,14.36,14.36,0,0,1-4.41,2.34c-.95.26-1.67.43-2.14.52a12.74,12.74,0,0,1-2.34.19,9,9,0,0,1-6.94-2.79,10,10,0,0,1-2.66-7.2,17.73,17.73,0,0,1,1.3-6.55,20.7,20.7,0,0,1,3.37-5.71,18.62,18.62,0,0,1,4.8-3.89,11.3,11.3,0,0,1,5.52-1.43,7.32,7.32,0,0,1,4.67,1.49,4.82,4.82,0,0,1,1.82,4A6.44,6.44,0,0,1,325,142a20.4,20.4,0,0,1-5,3.25,57.05,57.05,0,0,1-6.68,2.46,9.44,9.44,0,0,0,2.33,4.61A6.22,6.22,0,0,0,320,153.9a7.67,7.67,0,0,0,3.12-.72,12.64,12.64,0,0,0,2.72-1.75l3.9-3.63Zm-10.51-9.08a7,7,0,0,0,2-5.19,3.73,3.73,0,0,0-.59-2.27,1.91,1.91,0,0,0-1.62-.78,4.18,4.18,0,0,0-2.59,1.36,10.27,10.27,0,0,0-2.4,4,19.11,19.11,0,0,0-.91,6.1A14.11,14.11,0,0,0,319.19,142.35Z"/><path fill="#fff" d="M329,148.58a63,63,0,0,0,6.1-7.53,34.39,34.39,0,0,0,4.35-8.17l2.33-.52,3.18-.59,1.56-.19.32.26a1.83,1.83,0,0,1-.26,1,10.19,10.19,0,0,0-.52,2.79,7.91,7.91,0,0,0,1.69,4.09,11.68,11.68,0,0,1,1.62,3,8.71,8.71,0,0,1,.52,2.73,11.37,11.37,0,0,1-2.2,6.42,18.08,18.08,0,0,1-5.58,5.39,12.7,12.7,0,0,1-6.49,2,7.57,7.57,0,0,1-2.66-.52,7.31,7.31,0,0,1-2.14-1.36,2.53,2.53,0,0,1-.91-1.69c0-.56.61-1.54,1.82-2.92s2-2.08,2.46-2.08c.69,0,1.23.63,1.62,1.88a6.42,6.42,0,0,0,1.24,2.6,2.26,2.26,0,0,0,1.68.71,4.43,4.43,0,0,0,2.53-.84,6.18,6.18,0,0,0,2-2.08,5.18,5.18,0,0,0,.78-2.72q0-1.95-2.07-5.19l-1.75-2.86L339,139.3c-.61.95-1.32,2-2.14,3.24-.57.78-1.32,1.8-2.27,3.05-.7.91-1.41,1.8-2.15,2.66-1,1.26-2,2.32-2.78,3.18H329Z"/><path fill="#fff" d="M384.45,151.43q-2.85,2.59-5.51,2.6a6.19,6.19,0,0,1-1-.13h-.07a5.79,5.79,0,0,1-1.1-.33,7,7,0,0,1-2.34-1.3,17.45,17.45,0,0,1-4.86,5.13,9.77,9.77,0,0,1-5.58,1.75,7.31,7.31,0,0,1-4.28-1.3,8.63,8.63,0,0,1-2.92-3.43,12.46,12.46,0,0,1-1-5.32,16.92,16.92,0,0,1,2.4-8.83,18.45,18.45,0,0,1,6.36-6.42,16.88,16.88,0,0,1,8.63-2.34,9.6,9.6,0,0,1,3.89.59,2.89,2.89,0,0,1,1.56,1.23,1.75,1.75,0,0,1,.13.58,1.34,1.34,0,0,0,.13.39,6.13,6.13,0,0,1,.06,1.17q0,5.72-3.24,14.53a5.1,5.1,0,0,0,3.37,1.5c1.43,0,3.24-1.24,5.45-3.7Zm-14.86-9a9.93,9.93,0,0,1,1.11-4.74,15.32,15.32,0,0,1,3.31-4l-1.37-.13a6.11,6.11,0,0,0-5,2.21,13.11,13.11,0,0,0-2.86,5.64,26.28,26.28,0,0,0-.91,6.49,9.13,9.13,0,0,0,1.11,5,3.18,3.18,0,0,0,2.72,1.75q2.28,0,4.87-4.15A12.21,12.21,0,0,1,369.59,142.48Z"/><path fill="#fff" d="M383.74,148.58a35.63,35.63,0,0,0,4.47-5.52q-2.71-1.29-2.72-3.57l.32-2.07a11.21,11.21,0,0,1,1-2.79,8.12,8.12,0,0,1,1.95-2.14,4.72,4.72,0,0,1,2.92-1,2.21,2.21,0,0,1,2.46,2.53,16.91,16.91,0,0,1-1.43,5.71,9.14,9.14,0,0,0,5-2.33,23.25,23.25,0,0,0,4.22-5.71l2.85-.13-2.92,8.11-1.75,5.06-1,3.24-.2,1.95a2.84,2.84,0,0,0,.65,2.07,1.85,1.85,0,0,0,1.62.85,3.53,3.53,0,0,0,1.36-.33,7.46,7.46,0,0,0,2-1.49l3.5-3.24v3.63a66.7,66.7,0,0,1-5,4.48,22.51,22.51,0,0,1-3.95,2.53,8.5,8.5,0,0,1-3.31.78,4,4,0,0,1-3.31-1.69,6.26,6.26,0,0,1-1.3-4,14.58,14.58,0,0,1,1.17-5.19,43.38,43.38,0,0,1,3.63-6.81,17.51,17.51,0,0,1-5.12,1.69,37.56,37.56,0,0,1-6.49,8.17h-.71Z"/><path fill="#fff" d="M415.33,122.5l8.5-1.76-3.25,11,4.42-.26-1,4.87-4.93.39-1.11,3.57c-.17.52-.43,1.36-.77,2.53l-.07.19c-.35,1.39-.56,2.29-.65,2.73a16.63,16.63,0,0,0-.58,4,3.54,3.54,0,0,0,.78,2.4,2.22,2.22,0,0,0,1.88,1,5.5,5.5,0,0,0,3.37-1.17,53.07,53.07,0,0,0,4.48-4.15v3.63a42.42,42.42,0,0,1-7,5.91,10.2,10.2,0,0,1-5.45,1.81,5.21,5.21,0,0,1-4.41-2.33,10.16,10.16,0,0,1-1.69-6,17.6,17.6,0,0,1,.46-4.22c.08-.48.26-1.19.52-2.14l.19-.71c.17-.7.37-1.41.58-2.15l1.24-4.28-2.47.13,1-5,3-.13Z"/><path fill="#fff" d="M75.63,177.44a.44.44,0,0,1,.44-.44h2.74a.45.45,0,0,1,.43.44v12.28h5.48a.44.44,0,0,1,.43.44v2.5a.44.44,0,0,1-.43.44H76.07a.44.44,0,0,1-.44-.44Z"/><path fill="#fff" d="M91.39,192.5,98.58,177a.49.49,0,0,1,.4-.26h.23a.47.47,0,0,1,.39.26l7.19,15.47a.4.4,0,0,1-.39.6h-2.55c-.41,0-.6-.14-.8-.58l-.83-1.81H96l-.82,1.84a.87.87,0,0,1-.83.55H91.78A.4.4,0,0,1,91.39,192.5Zm9.45-4.92-1.75-3.79h0l-1.73,3.79Z"/><path fill="#fff" d="M114,177.55a.55.55,0,0,1,.55-.55h2.69a.56.56,0,0,1,.55.55v6l5.11-6.37a.68.68,0,0,1,.43-.23h2.9a.53.53,0,0,1,.41.85l-5.38,6.74,5.87,7.64a.54.54,0,0,1-.44.85h-3.17a.71.71,0,0,1-.42-.16l-5.31-7.22v6.85a.55.55,0,0,1-.55.55h-2.69a.54.54,0,0,1-.55-.55Z"/><path fill="#fff" d="M134.79,177.44a.44.44,0,0,1,.43-.44h9.52a.44.44,0,0,1,.44.44V180a.43.43,0,0,1-.44.43h-6.37v2.85h5.25a.45.45,0,0,1,.43.44v2.51a.44.44,0,0,1-.43.44h-5.25v3.1h6.37a.44.44,0,0,1,.44.44v2.5a.44.44,0,0,1-.44.44h-9.52a.44.44,0,0,1-.43-.44Z"/><path fill="#fff" d="M171.1,176.77a7.77,7.77,0,0,1,5.57,2.14.44.44,0,0,1,0,.65l-1.79,1.86a.41.41,0,0,1-.58,0,4.69,4.69,0,0,0-3.1-1.17,4.7,4.7,0,0,0,0,9.4,4.88,4.88,0,0,0,3.08-1.1.46.46,0,0,1,.6,0l1.79,1.91a.46.46,0,0,1,0,.62,7.87,7.87,0,0,1-5.59,2.23,8.28,8.28,0,1,1,0-16.56Z"/><path fill="#fff" d="M191.78,176.77a8.28,8.28,0,1,1-8.25,8.3A8.27,8.27,0,0,1,191.78,176.77Zm0,12.88a4.6,4.6,0,1,0-4.58-4.58A4.61,4.61,0,0,0,191.78,189.65Z"/><path fill="#fff" d="M208.13,177.19a.44.44,0,0,1,.44-.42h.58l9.17,8.83h0v-8.16a.44.44,0,0,1,.44-.44h2.76a.46.46,0,0,1,.44.44v15.48a.43.43,0,0,1-.44.41h-.37a.66.66,0,0,1-.3-.12l-9.08-9.12h0v8.57a.44.44,0,0,1-.44.44h-2.74a.45.45,0,0,1-.43-.44Z"/><path fill="#fff" d="M231.25,177.44a.44.44,0,0,1,.44-.44h6.87a4.92,4.92,0,0,1,1.61,9.59l3.15,5.84a.44.44,0,0,1-.39.67h-3.06a.44.44,0,0,1-.37-.21l-3.05-6.09h-1.59v5.86a.46.46,0,0,1-.44.44h-2.73a.44.44,0,0,1-.44-.44Zm7,6.44A1.84,1.84,0,0,0,240,182a1.76,1.76,0,0,0-1.75-1.75h-3.4v3.59Z"/><path fill="#fff" d="M259.05,176.77a8.28,8.28,0,1,1-8.25,8.3A8.27,8.27,0,0,1,259.05,176.77Zm0,12.88a4.6,4.6,0,1,0-4.57-4.58A4.61,4.61,0,0,0,259.05,189.65Z"/><path fill="#fff" d="M275.43,177.44a.44.44,0,0,1,.44-.44h9.52a.44.44,0,0,1,.44.44V180a.44.44,0,0,1-.44.43H279v2.85h5.24a.46.46,0,0,1,.44.44v2.51a.44.44,0,0,1-.44.44H279v3.1h6.37a.44.44,0,0,1,.44.44v2.5a.44.44,0,0,1-.44.44h-9.52a.44.44,0,0,1-.44-.44Z"/><path fill="#fff" d="M299.42,185.88a3.32,3.32,0,0,1,3.24-3.33,3.29,3.29,0,1,1,0,6.57A3.29,3.29,0,0,1,299.42,185.88Z"/><path fill="#fff" d="M318.63,177.44a.45.45,0,0,1,.43-.44h2.74a.44.44,0,0,1,.44.44v5.79h6.57v-5.79a.44.44,0,0,1,.44-.44H332a.45.45,0,0,1,.43.44v15.22a.45.45,0,0,1-.43.44h-2.74a.44.44,0,0,1-.44-.44v-6h-6.57v6a.44.44,0,0,1-.44.44h-2.74a.45.45,0,0,1-.43-.44Z"/><path fill="#fff" d="M348.78,176.77a8.28,8.28,0,1,1-8.26,8.3A8.26,8.26,0,0,1,348.78,176.77Zm0,12.88a4.6,4.6,0,1,0-4.58-4.58A4.61,4.61,0,0,0,348.78,189.65Z"/><path fill="#fff" d="M364.92,177.44a.46.46,0,0,1,.44-.44h2.83a.44.44,0,0,1,.44.44v9.31a2.81,2.81,0,0,0,2.82,2.9,2.84,2.84,0,0,0,2.88-2.9v-9.31a.44.44,0,0,1,.44-.44h2.82a.46.46,0,0,1,.44.44v9.5a6.56,6.56,0,0,1-13.11,0Z"/><path fill="#fff" d="M386.13,190.92l1.08-1.91a.58.58,0,0,1,.78-.14,7,7,0,0,0,3.27,1.26,1.43,1.43,0,0,0,1.58-1.38c0-1-.8-1.7-2.36-2.32-2-.78-4.47-2.32-4.47-5.08,0-2.28,1.78-4.58,5.32-4.58a8.52,8.52,0,0,1,4.92,1.73.59.59,0,0,1,.14.73L395.21,181c-.16.26-.57.46-.78.3a7.24,7.24,0,0,0-3.29-1.38,1.35,1.35,0,0,0-1.45,1.18c0,.85.69,1.49,2.51,2.23s4.65,2.11,4.65,5.24c0,2.37-2.05,4.76-5.43,4.76a7.32,7.32,0,0,1-5.18-1.77C386,191.33,386,191.24,386.13,190.92Z"/><path fill="#fff" d="M407,180.38h-3.29a.43.43,0,0,1-.44-.43v-2.51a.44.44,0,0,1,.44-.44H414a.44.44,0,0,1,.43.44V180a.43.43,0,0,1-.43.43h-3.29v12.28a.46.46,0,0,1-.44.44h-2.76a.45.45,0,0,1-.43-.44Z"/><path fill="#fff" d="M429,176.77a8.28,8.28,0,1,1-8.26,8.3A8.27,8.27,0,0,1,429,176.77Zm0,12.88a4.6,4.6,0,1,0-4.58-4.58A4.61,4.61,0,0,0,429,189.65Z"/><path fill="#fff" d="M445.35,177.19a.44.44,0,0,1,.44-.42h.58l9.17,8.83h0v-8.16A.44.44,0,0,1,456,177h2.76a.46.46,0,0,1,.44.44v15.48a.43.43,0,0,1-.44.41h-.37a.66.66,0,0,1-.3-.12L449,184.09h0v8.57a.44.44,0,0,1-.44.44h-2.74a.45.45,0,0,1-.43-.44Z"/></svg>