<svg version="1.1" id="rownyc-logo" class="logo" xmlns="http://www.w3.org/2000/svg" x="0px" y="0px" viewBox="0 0 139.81 95.9"><path d="M0,1.43H11.28c5.58,0,9.92.37,13.7,3.1a12.09,12.09,0,0,1,5.15,9.8c0,5.52-2.85,9.8-8.18,12.15L35.34,45.32h-12L11.66,28.08H10.17V45.32H0Zm10.17,8V21.57H12.4c5.33,0,8.12-2.23,8.12-6.2,0-4.4-2.85-6-8.62-6Z" fill="#fff"/><path d="M43.4,6.63A21.84,21.84,0,0,1,59.15,0,22.15,22.15,0,0,1,75,6.7a23.27,23.27,0,0,1,6.51,16.68,23.45,23.45,0,0,1-4.59,14.38,22.23,22.23,0,0,1-17.79,9A21.87,21.87,0,0,1,43.4,40a23.32,23.32,0,0,1-6.63-16.68A23.46,23.46,0,0,1,43.4,6.63ZM59.15,36.83c6.45,0,11.59-5.64,11.59-13.45S65.59,9.86,59.15,9.86s-11.59,5.7-11.59,13.52S52.7,36.83,59.15,36.83Z" fill="#fff"/><path d="M83.2,1.43H93.8l8.56,23.68L111.54,0h.81l9.24,25.11L130,1.43h9.79L121.58,46.75h-.68l-9.36-25.11-9.18,25.11h-.81Z" fill="#fff"/><path d="M23.84,77a2.08,2.08,0,0,1,.17-.83,2.14,2.14,0,0,1,.46-.68,2.16,2.16,0,0,1,.68-.46,2.16,2.16,0,0,1,1.67,0,2.13,2.13,0,0,1,1.13,1.13,2.15,2.15,0,0,1,0,1.67A2.13,2.13,0,0,1,26.81,79a2.16,2.16,0,0,1-1.67,0,2.16,2.16,0,0,1-.68-.46,2.13,2.13,0,0,1-.46-.68A2.08,2.08,0,0,1,23.84,77Z" fill="#fff"/><path d="M37.13,84.8H40V70H37.13v-.52h6v4h.07q.22-.48.65-1.22A6.44,6.44,0,0,1,45,70.74,6.34,6.34,0,0,1,49.52,69a6.33,6.33,0,0,1,4,1.18A4.47,4.47,0,0,1,55,74V84.8h2.85v.52H49V84.8h2.85v-12a3.88,3.88,0,0,0-.68-2.37A2.47,2.47,0,0,0,49,69.56a5.13,5.13,0,0,0-2.26.52,5.93,5.93,0,0,0-1.89,1.44,6.82,6.82,0,0,0-1.28,2.18,7.85,7.85,0,0,0-.46,2.74V84.8H46v.52H37.13Z" fill="#fff"/><path d="M59.36,69.45h9.06V70H65.32l4.77,11.62,5-11.62H72v-.52h5.66V70h-2l-6.1,14.28q-.7,1.59-1.33,3.2L67,90.68a24.27,24.27,0,0,1-1,2.33,7.66,7.66,0,0,1-1.09,1.63,4,4,0,0,1-1.24.94,3.62,3.62,0,0,1-1.55.31,3.77,3.77,0,0,1-1.72-.33,3.19,3.19,0,0,1-1-.78,2.23,2.23,0,0,1-.48-.92,3.71,3.71,0,0,1-.11-.81,1.76,1.76,0,0,1,.52-1.39,1.82,1.82,0,0,1,1.26-.46,3,3,0,0,1,.55.06,1.78,1.78,0,0,1,.56.2,1.39,1.39,0,0,1,.44.41,1.06,1.06,0,0,1,.19.63,1.72,1.72,0,0,1-.31,1,1.77,1.77,0,0,0-.31,1,.66.66,0,0,0,.26.63,1.42,1.42,0,0,0,.7.15A2.22,2.22,0,0,0,63.67,95a3.32,3.32,0,0,0,1-.91,9.26,9.26,0,0,0,1-1.65q.48-1,1.07-2.5l1.63-4.14L61.92,70H59.36Z" fill="#fff"/><path d="M95,81.25a10.59,10.59,0,0,1-.43,1.17,5.36,5.36,0,0,1-1,1.52,6,6,0,0,1-1.85,1.33,6.85,6.85,0,0,1-3,.57,10.39,10.39,0,0,1-2.92-.44A8.23,8.23,0,0,1,83,84a7.36,7.36,0,0,1-2.05-2.57,8.7,8.7,0,0,1-.8-3.92,8.25,8.25,0,0,1,.68-3.37,8.63,8.63,0,0,1,1.85-2.7,8.44,8.44,0,0,1,2.74-1.79A8.71,8.71,0,0,1,88.74,69a9.23,9.23,0,0,1,2.05.24,6.93,6.93,0,0,1,1.92.74,4.55,4.55,0,0,1,1.44,1.29,3.23,3.23,0,0,1,.57,1.94,1.73,1.73,0,0,1-.5,1.28,1.93,1.93,0,0,1-1.42.5,2.72,2.72,0,0,1-1.2-.28,1,1,0,0,1-.57-.94,3.93,3.93,0,0,1,.26-1.26,3.86,3.86,0,0,0,.26-1.22,1.44,1.44,0,0,0-.85-1.31,4,4,0,0,0-2-.46,7.42,7.42,0,0,0-1.68.2,3.07,3.07,0,0,0-1.59,1,6.26,6.26,0,0,0-1.18,2.44,16.9,16.9,0,0,0-.46,4.44,20.9,20.9,0,0,0,.2,3A7.87,7.87,0,0,0,84.76,83a4.21,4.21,0,0,0,1.48,1.67,4.46,4.46,0,0,0,2.46.61,6.48,6.48,0,0,0,2.68-.48,4.92,4.92,0,0,0,1.66-1.17A5,5,0,0,0,94,82.28q.3-.7.44-1.15Z" fill="#fff"/><path d="M106.12,78a2.08,2.08,0,0,1,.17-.83,2.14,2.14,0,0,1,.46-.68,2.16,2.16,0,0,1,.68-.46,2.16,2.16,0,0,1,1.67,0,2.13,2.13,0,0,1,1.13,1.13,2.15,2.15,0,0,1,0,1.67A2.13,2.13,0,0,1,109.09,80a2.16,2.16,0,0,1-1.67,0,2.16,2.16,0,0,1-.68-.46,2.13,2.13,0,0,1-.46-.68A2.08,2.08,0,0,1,106.12,78Z" fill="#fff"/></svg>