<svg id="arc-logo" width="135px" height="105px" class="logo" xmlns="http://www.w3.org/2000/svg" viewBox="0 0 183.06 141.43"><path d="M70.41,49.08l17.37-25.4L105,49.32a27.63,27.63,0,1,0-34.57-.24Z"/><line y1="118.53" x2="183.06" y2="118.53" style="fill:none;stroke:#231f20;stroke-width:1.25px"/><line y1="140.81" x2="183.06" y2="140.81" style="fill:none;stroke:#231f20;stroke-width:1.25px"/><path d="M48.67,73.32H43.3L24,110.53h5.37l4.81-9.76H57.89l4.82,9.76h5.36ZM36.12,96.59,46,76.86l9.86,19.73Z" style="fill:#231f20"/><path d="M97.65,93.73s11.53.11,11.53-10.55c0-10.08-12.1-9.89-12.1-9.89H73.28v37.18h4.59V93.87H92.49l11.92,16.62H110ZM77.87,89.81V77.19h17s10.12-.59,10.08,6c0,0,1,6.63-9.62,6.63Z" style="fill:#231f20"/><path d="M156.82,100.53S152.12,111,137,111h0c-15.15,0-19.19-10.68-19.19-10.68-3.46-8.58,0-17.28,0-17.28s4-10.68,19.19-10.68h0c15.15,0,19.41,10.64,19.41,10.64l-3.65,1.73s-3.24-8.58-15.42-8.58h0c-12.19,0-15.43,8.58-15.43,8.58s-2.78,7,0,13.9c0,0,3.24,8.59,15.43,8.59h0c12.18,0,15.42-8.59,15.42-8.59Z" style="fill:#231f20"/><path d="M7.15,135.26H5.81v-10H.27v-.91h12v.91H7.15Z" style="fill:#231f20"/><path d="M134.6,135.26h-1.34v-10h-5.54v-.91h12v.91H134.6Z" style="fill:#231f20"/><path d="M34.2,135.26H32.87v-5.11H24.21v5.11H22.89V124.35h1.32v4.88h8.66v-4.88H34.2Z" style="fill:#231f20"/><path d="M56.57,135h-9.7V124.59h9.51v.92H48.15v3.71H55v.91H48.15v4h8.42Z" style="fill:#231f20"/><path d="M160.52,135h-9.7V124.59h9.51v.92H152.1v3.71h6.82v.91H152.1v4h8.42Z" style="fill:#231f20"/><path d="M69.78,133.47v1.79H68.2v-1.79Z" style="fill:#231f20"/><path d="M93.84,135.26H92.5v-5.11H83.84v5.11H82.53V124.35h1.31v4.88H92.5v-4.88h1.34Z" style="fill:#231f20"/><path d="M115.88,134.12a7,7,0,0,1-8.56-.06,5.61,5.61,0,0,1-1.77-4.27c0-3,1.91-5.72,6.1-5.72,4.67,0,6,3.19,6,5.66A6.12,6.12,0,0,1,115.88,134.12ZM111.65,125c-3.59,0-4.69,2.75-4.69,4.84s1,4.8,4.63,4.8c4.35,0,4.65-4,4.65-4.87C116.26,127.77,115.22,125,111.65,125Z" style="fill:#231f20"/><path d="M182,135.26h-10.1V124.34h1.36v10H182Z" style="fill:#231f20"/></svg>