<svg xmlns="http://www.w3.org/2000/svg" id="bosville-logo" class="logo" viewBox="0 0 668.82 438.16"><path d="M302.71 42.85a3.48 3.48 0 0 0-.27-1.94c-.57-2.74 1.11-4.57 3.89-4.25a5.18 5.18 0 0 1 4.26 4.49c0 1.11.44 1.34 1.38 1.42a122.3 122.3 0 0 1 13.03 1.7c2.83.55 5.62 1.26 8.44 1.83a5.36 5.36 0 0 1 4.37 4.23 14.9 14.9 0 0 1 .18 7.81 96.65 96.65 0 0 1-6.54 17.75c-.86 1.8-1.71 3.6-2.53 5.34.14.36.36.43.59.38 2.16-.45 2.46-.3 3.24 1.6s.8 1.94 2.93 1.42c.31-.07.62-.16.93-.22 1.77-.34 2.49 0 3.21 1.67a15.56 15.56 0 0 1 .83 2.75c1.27 6 3.79 7.93 9.83 7.69a.69.69 0 0 1 .71.4c-.27 1.25-1.55 1.58-2.49 2.18a5.82 5.82 0 0 1-7.5-.41 17.52 17.52 0 0 1-5.35-7.24c-.37-.9-.57-2.36-1.91-2-.92.26-.45 1.56-.45 2.38a18.76 18.76 0 0 1-1.24 7.5c-1 2.34-.23 3.44 2.39 4 .45.09 1.06 0 1 .69 0 .41-.46.58-.86.71a4.83 4.83 0 0 1-6-2.17 10.32 10.32 0 0 1-1.61-5.94c.05-1.43.22-2.87.35-4.3 0-.38.2-.82-.28-1s-.76.1-1.07.35a3.3 3.3 0 0 0-1.34 2.92c.14 3 .27 5.91.4 8.86a4.84 4.84 0 0 0 1.42 3 63.76 63.76 0 0 0 7.56 7.68 217.53 217.53 0 0 1 26 25.14c5.93 6.71 11.59 13.65 17.86 20.06a12.77 12.77 0 0 0 5.5 3.53q6.63 2.08 13.23 4.27c7.5 2.49 14.26 6.43 20.77 10.82 2.92 2 5.84 3.91 8.63 6.06a66.42 66.42 0 0 1 8.66 8.27 18.17 18.17 0 0 1 1.6 2.1c.3.43.83.93.27 1.47a1.5 1.5 0 0 1-1.57.3 6.66 6.66 0 0 1-.67-.26c-7-3.16-14.37-4.8-21.8-6.39a17.2 17.2 0 0 0-3.8-.38c-.06.88.64.89 1.05 1.15 3.73 2.33 7.37 4.8 11.2 7 2.09 1.17 3.88 2.62 3.54 5.43-.08.65.44.94.89 1.29 7.94 6.21 16.48 11.56 24.9 17.07 3.07 2 6.25 3.81 9.3 5.85 6 4 11.2 9 16.67 13.69a11.1 11.1 0 0 1 1.88 2.16 4.08 4.08 0 0 1-.67 5.81 5.18 5.18 0 0 1-.93.75c-5 3-10.49 4.79-16.25 3a56.23 56.23 0 0 0-16.28-2.29c-4.13-.07-8.29-.37-12.21-2.1a15.22 15.22 0 0 0-6.11-1 33.23 33.23 0 0 0-3.6 0c-6.23.63-11.1-2.13-14.46-6.91-4-5.75-9-10.6-13.76-15.62-2.31-2.43-4.51-5-6.77-7.46-.52-.57-1.08-1.09-1.57-1.58a.75.75 0 0 0-.42.93c.81 5.57.37 11.18.65 16.77.05 1.2.18 2.39.17 3.59 0 2.72-.8 4-3.45 4.34s-3.74 2-4.45 4.27a45.48 45.48 0 0 0-1.88 14.2 4.47 4.47 0 0 0 2.6 4 9.18 9.18 0 0 0 4.61 1.16c1.75 0 3.52 0 5.27-.16a22.18 22.18 0 0 1 11.6 2.37c1.37.66 2.71 1.44 3.05 3.15.22 1.11-.11 1.67-1.19 1.35-3.3-.94-6.29.23-9.38 1a23.87 23.87 0 0 1-11.87-.23 4 4 0 0 1-.45-.15c-2.91-1.28-5.27-.9-7.31 1.82-1.57 2.09-4 3.14-6.45 4a54.5 54.5 0 0 0-9.66 4.76 13.06 13.06 0 0 0-4.59 4.12c-.59.92-1.33 2.05-2.6 1.74s-1.33-1.7-1.55-2.77c-.86-4.09.31-6.92 3.82-9.27 1.26-.84 2.62-1.54 3.91-2.35a7.59 7.59 0 0 0 2.88-2.5c-.75-.15-1.33-.31-1.92-.38a40.12 40.12 0 0 0-12.18.25 11.49 11.49 0 0 0-4 1.47 3.71 3.71 0 0 0-1.74 4.92c.13.37.33.73.46 1.1.23.69.49 1.51-.32 1.9s-1.41-.29-1.75-.89c-1.58-2.85-2.94-5.76-1.08-9a3.42 3.42 0 0 0 .21-.43c.65-1.59.5-2-1.12-2.4a17.31 17.31 0 0 0-7.84-.28 23.29 23.29 0 0 0-12.91 7.24 25.89 25.89 0 0 1-8.39 6.25c-2.44 1.1-4.18 2.81-4.54 5.71-.22 1.79-2.87 2.92-4.55 2.16a4.73 4.73 0 0 1-2-1.72c-3.16-4.77-2.54-10.38 2.15-13.79.24-.18.55-.3.63-.69-.39-.55-1-.34-1.5-.34-2.56 0-5.12.07-7.68.13-4 .1-7.37 1.34-9.26 5.21a2.38 2.38 0 0 1-.61.73c-.49.41-1 .88-1.7.65s-.89-.88-.95-1.53a13.17 13.17 0 0 1 .27-4.76 13.67 13.67 0 0 1 6.52-8.26A27.78 27.78 0 0 1 296 260.8a11.09 11.09 0 0 1 1.91-.05c4.63.53 7.94-1.6 10.73-5.06a34.54 34.54 0 0 0 5.58-10.27c1.36-3.85 2.67-7.71 4.14-11.51a3.49 3.49 0 0 0-.79-4.31 22.86 22.86 0 0 1-4.6-7.25 67.51 67.51 0 0 1-6.38-24.2c-.22-3.66-1-7.29-.87-11a2 2 0 0 0-1.29-2c-3-1.36-5.23-3.63-7.58-5.8s-5-4.27-7.46-6.41a67.17 67.17 0 0 1-10.92-12.67c-6.05-8.64-8.68-18.43-10.54-28.54-.67-3.61-1.74-7.13-2.21-10.8-.59-4.56-.25-8.86 2.1-13 4.8-8.39 9.27-17 14.26-25.26a25.64 25.64 0 0 0 3.81-10.26 15.47 15.47 0 0 0-.73-6.85 1.46 1.46 0 0 0-1.8-1.12c-2.34.32-4.65.63-5.85 3.09a.6.6 0 0 1-.78.36.72.72 0 0 1-.46-.76 59.08 59.08 0 0 0-.62-7.4c-.24-3 .88-5.13 3.67-6.32 1.68-.72 3.29-1.68 5.22-1.62a23.94 23.94 0 0 1 3.1-4.38 12 12 0 0 1 3.65-2.25 25.1 25.1 0 0 1 11.42-2.31z" fill="#383739"/><path d="M77.66 400H65.22c-.44 0-1.07.05-1-.64s.59-.66 1.09-.67 1.28 0 1.91-.11c3.45-.37 5.4-2.11 6-5.48a16.94 16.94 0 0 0 .19-3.11v-24-1.2c-.23-4.55-2.52-6.87-7-7.13a17.35 17.35 0 0 1-1.91-.15.66.66 0 0 1-.37-.53.69.69 0 0 1 .39-.52 10.34 10.34 0 0 1 1.67-.11h23.5c.65.13 1.75-.35 1.79.62s-1.09.63-1.73.69c-4.7.39-6.91 2.62-7 7.37-.09 3.44 0 6.88 0 10.31 0 1.67.11 1.78 1.78 1.79h19.91c1.22 0 1.71-.43 1.69-1.69-.06-3.6.06-7.2-.05-10.79-.14-4.44-2.39-6.63-6.88-7-.63-.05-1.76.36-1.74-.67s1.13-.62 1.77-.62h23.27a8.52 8.52 0 0 1 1.43.09.75.75 0 0 1 .46.46.53.53 0 0 1-.48.67c-.64.08-1.28.08-1.92.13-3.79.32-5.79 2.13-6.43 5.9a15.31 15.31 0 0 0-.17 2.62v25.2c.24 4.56 2.45 6.84 7 7.25.72.07 2-.37 2 .69s-1.25.62-1.93.62h-24c-.36 0-1.07.05-1-.64s.58-.66 1.08-.68c.32 0 .64 0 1-.05 4.27-.4 6.51-2.66 6.64-7 .11-3.83 0-7.67.05-11.51 0-1.26-.47-1.67-1.69-1.66H84.39c-1.11 0-1.57.38-1.56 1.53 0 3.84-.09 7.68 0 11.51.16 4.54 2.4 6.69 7 7.15.65.07 1.76-.28 1.71.74s-1.14.57-1.76.58c-4.12.04-8.12.04-12.12.04z" fill="#393739"/><path d="M643.43 400h-21.11c-.64 0-1.28 0-1.92-.06a.47.47 0 0 1-.49-.42.58.58 0 0 1 .5-.68c.55-.1 1.11-.08 1.67-.14 4.41-.41 6.58-2.7 6.76-7.16v-24.92-2.16c-.25-4.22-2.43-6.4-6.61-6.76-.8-.07-2.27.37-2.24-.6 0-1.33 1.53-.68 2.34-.69q20.63-.06 41.27 0h.48c2.08 0 2.1 0 2.11 2.14v14.19c0 .24-.16.51-.43.48a.82.82 0 0 1-.58-.31 7 7 0 0 1-.41-1.11c-.48-1.36-.9-2.74-1.43-4.07-2.47-6.18-7-9.62-13.69-9.89-3.27-.13-6.56 0-9.83-.1-1.11 0-1.58.35-1.58 1.5v17.52c0 1.29.57 1.61 1.75 1.6a9.76 9.76 0 0 0 8.44-4.19 18.38 18.38 0 0 0 2.89-7.55c.09-.47.14-1 .22-1.42a.63.63 0 0 1 .65-.57c.38 0 .55.25.56.61s0 .95 0 1.43v24.24c0 .71.47 1.93-.56 2s-.76-1.18-.93-1.88a22.57 22.57 0 0 0-2.49-7c-2.09-3.27-5.14-4.62-8.92-4.66-1.07 0-1.63.26-1.63 1.45v16.56c0 .85.29 1.36 1.23 1.36 3.92 0 7.85.29 11.73-.45 6.42-1.23 10.76-5 13.19-11 .57-1.4 1-2.87 1.49-4.3.16-.46.37-.93 1-.77s.47.6.47 1v15.59c0 .95-.47 1.23-1.33 1.22h-8.4zM158 400h-21.59c-.64 0-1.74.39-1.8-.55s1.07-.63 1.7-.68c4.83-.45 7.11-2.72 7.16-7.56q.13-12.94 0-25.91c0-5.08-2.23-7.26-7.25-7.62-.32 0-.64 0-1-.05s-.8-.17-.74-.7.35-.5.68-.52h44.39c.92 0 1.26.43 1.26 1.31v14.4c0 .46.06 1-.61 1.08-.5 0-.62-.41-.73-.8s-.29-.92-.44-1.37c-.36-1.06-.7-2.13-1.1-3.17-2.45-6.3-7-9.79-13.81-10.06-3.27-.13-6.55 0-9.83-.12-1.29 0-1.62.53-1.61 1.72q.06 8.63 0 17.27c0 1.27.5 1.64 1.7 1.65a9.79 9.79 0 0 0 8.63-4.3 17 17 0 0 0 2.57-6.15c.15-.7.27-1.41.4-2.12.1-.53 0-1.28.85-1.16s.48.87.55 1.38a4.33 4.33 0 0 1 0 .72v24.23a3.84 3.84 0 0 1 0 .48c-.08.59.25 1.49-.65 1.55s-.73-.9-.87-1.46a36.26 36.26 0 0 0-1.45-5.31c-1.89-4.55-5.67-7-10.28-6.79-1 .05-1.45.33-1.44 1.38v16.56c0 1 .4 1.46 1.41 1.45 3.91-.05 7.84.28 11.72-.48a16.94 16.94 0 0 0 13-10.62c.63-1.46 1.08-3 1.59-4.52.16-.46.28-1 .89-.95s.63.62.63 1.08v15.59c0 .81-.34 1.18-1.15 1.16h-1.68zM27.18 356.31h23.26c2.23 0 2.25 0 2.26 2.23v18.23c0 .58.32 1.54-.56 1.58s-.66-.92-.75-1.51a27.64 27.64 0 0 0-4.46-12c-3.14-4.56-7.34-7.27-13.05-7.21-2.09 0-2.12 0-2.12 2.12v28.78a19.62 19.62 0 0 0 .28 4.77c.74 3.11 2.57 4.9 5.76 5.2 2.14.2 4.31.09 6.46.17.66 0 1.75-.29 1.76.67s-1.1.62-1.72.62H10a2.57 2.57 0 0 1-.48 0c-.49-.08-1.3.2-1.26-.65s.79-.65 1.33-.66h5.51c4.89-.16 7.38-2.61 7.41-7.49.06-10.56 0-21.11 0-31.66 0-1.82-.05-1.79-1.9-1.87a14.18 14.18 0 0 0-12.16 5.54A27.21 27.21 0 0 0 3 376.25c-.12.72.22 2-.75 2-1.25 0-.68-1.37-.69-2.11-.05-5.84 0-11.67 0-17.51 0-2.29 0-2.3 2.42-2.31z" fill="#393839"/><path d="M350.57 390.46v-7.67a13.41 13.41 0 0 1 .08-1.68.72.72 0 0 1 .45-.49.59.59 0 0 1 .72.46c.12.46.25.92.36 1.39a17.22 17.22 0 0 0 5.19 9c5.63 5.13 12.12 8.25 19.93 8a11.86 11.86 0 0 0 6.33-2c4.49-3 4.35-8.38-.27-11.13a24 24 0 0 0-5.77-2.31c-4.54-1.3-9.09-2.53-13.62-3.84a37.43 37.43 0 0 1-8.45-3.33c-5.39-3.13-7.11-9-4.14-14.19a12.83 12.83 0 0 1 5.6-5.09 21.75 21.75 0 0 1 10.94-2.13 32.14 32.14 0 0 1 12.41 3.33c1 .48 2 1 3 1.42 2.26.89 3.41.48 4.6-1.56.2-.34.31-.74.52-1.08a.72.72 0 0 1 .83-.29c.3.06.35.3.39.52a4.29 4.29 0 0 1 0 .72v12.23c0 .45.16 1.05-.43 1.23-.75.24-.92-.39-1.14-.91-.3-.74-.63-1.47-.94-2.2A19 19 0 0 0 374.92 358a25 25 0 0 0-9.93-1.24 9.26 9.26 0 0 0-7.32 4c-2 2.92-1.38 5.94 1.56 7.89a16.87 16.87 0 0 0 5.07 2.11c5.32 1.42 10.65 2.81 16 4.24a34.39 34.39 0 0 1 5.19 1.83 15.12 15.12 0 0 1 3.63 2.31 11.09 11.09 0 0 1 1.17 16 15.75 15.75 0 0 1-9.69 5.26 26.13 26.13 0 0 1-13.94-1.4l-4.47-1.73a16.42 16.42 0 0 0-3.45-1c-3-.46-5 .51-6.56 3.22-.26.45-.35 1.23-1.09 1s-.51-.91-.52-1.45c-.01-2.82 0-5.7 0-8.58z" fill="#393739"/><path d="M526.53 400H504.7c-.71 0-2 .49-2-.51-.09-1.16 1.19-.67 1.88-.72 4.89-.35 7.21-2.53 7.27-7.39q.17-13.2 0-26.39c-.06-4.84-2.41-7-7.31-7.34-.67 0-1.92.52-1.84-.75.06-.89 1.19-.51 1.84-.51h25.67c.66 0 1.9-.52 1.84.72 0 .9-1.18.47-1.83.53-1 .09-2.09 0-3.12.13a6.12 6.12 0 0 0-5.7 5.56 20.13 20.13 0 0 0-.17 3.11v30.47c.06 1.78.06 1.81 1.94 1.83h8.88a14.69 14.69 0 0 0 12-5.88 30.24 30.24 0 0 0 5.09-10c.24-.76.15-2.13 1.24-2s.61 1.45.62 2.2c.07 4.8 0 9.59 0 14.39 0 2.51 0 2.52-2.43 2.53zM585 400h-22.07c-.62 0-1.73.4-1.77-.56s1.08-.58 1.72-.67 1.28-.1 1.91-.21a6.15 6.15 0 0 0 5.42-5.56 21.15 21.15 0 0 0 .15-2.87v-24-1.19c-.19-4.71-2.45-7-7.13-7.29-.72-.05-2 .43-2-.59 0-1.24 1.38-.66 2.12-.67q12.6-.07 25.19 0c.71 0 2-.44 2 .55 0 1.28-1.36.58-2.11.7-.94.14-1.93 0-2.87.15a6.14 6.14 0 0 0-5.68 5.58 16.44 16.44 0 0 0-.15 2.63v31.22c-.11 1.12.36 1.6 1.5 1.58 3.6 0 7.2.11 10.79-.07 4.42-.22 7.85-2.46 10.59-5.84a30.53 30.53 0 0 0 5.07-10c.25-.75.14-2.14 1.27-2s.55 1.48.56 2.26c.06 4.95.05 9.91 0 14.87 0 1.95 0 2-2 2-7.44-.02-14.95-.02-22.51-.02zM432.7 389.76a3.63 3.63 0 0 0 .95-1.64l8.85-19.93a14.45 14.45 0 0 0 1.13-3.4c.6-3.43-.95-6-4.3-7-.46-.13-.95-.15-1.4-.32a.67.67 0 0 1-.31-.57.72.72 0 0 1 .38-.52 2.61 2.61 0 0 1 .93-.11h14.63a7.75 7.75 0 0 1 1 .07.54.54 0 0 1 .47.45.63.63 0 0 1-.39.77c-.3.1-.62.14-.93.22a11.6 11.6 0 0 0-7 5.13 40.37 40.37 0 0 0-3.25 6.13q-6.62 14.9-13.25 29.78c-.34.74-.36 1.95-1.5 1.91s-1.11-1.23-1.45-2q-7.78-16.87-15.5-33.77a20.38 20.38 0 0 0-2.33-4.18c-1.48-1.9-3.27-3.28-5.84-3.24a5.81 5.81 0 0 1-.72-.05.62.62 0 0 1-.62-.59.57.57 0 0 1 .58-.61 11.72 11.72 0 0 1 1.19-.05h21.59c.64 0 1.78-.38 1.82.54 0 1.22-1.19.62-1.87.72-.87.11-1.77 0-2.63.15a3.22 3.22 0 0 0-2.85 4.17 12.58 12.58 0 0 0 .9 2.72q5.44 12 10.93 24c.18.51.32.98.79 1.22zM477.59 356.31h11.52a11.61 11.61 0 0 1 1.67.08.72.72 0 0 1 .45.48.53.53 0 0 1-.5.66c-.64.08-1.28.08-1.92.13-4.05.33-6.28 2.54-6.46 6.61-.13 2.8-.05 5.6-.05 8.4v17.51a17.15 17.15 0 0 0 .15 2.87 6.1 6.1 0 0 0 5.54 5.43c.71.1 1.44.12 2.16.16.49 0 1.06.08 1.1.66s-.58.61-1 .65-.64 0-1 0h-23.51c-.63 0-1.77.41-1.8-.53 0-1.16 1.18-.72 1.88-.78 4.89-.4 7-2.61 7-7.56v-25.67c0-5.23-2.1-7.43-7.29-7.78a11.69 11.69 0 0 1-1.19-.09.54.54 0 0 1-.48-.46.56.56 0 0 1 .48-.69 13.41 13.41 0 0 1 1.68-.07z" fill="#393839"/><path d="M0 423.44a.66.66 0 0 1 .73-.44H569.9a17.69 17.69 0 0 1 2.63.1c.46.06.64.45.06.75a12.46 12.46 0 0 0-3.11-.13H3.07a6.8 6.8 0 0 1-3.07-.28z" fill="#343132"/><path d="M0 423.44h569.53a5.93 5.93 0 0 1 3.06.37c-1 0-1.92.1-2.88.1H2.88c-.95-.02-2.05.47-2.88-.47z" fill="#343132"/><path d="M314.82 16.83c1.29 1.61 1.28 1.65-.6 2.58-.72.35-1.45.67-2.16 1-.41.22-.89.43-1 1-.27 2.34-2.27 3.34-3.76 4.68a14.63 14.63 0 0 1-3.34 1.8 2.28 2.28 0 0 1-2.08-.12 66.33 66.33 0 0 1-8.24-4.77 5.73 5.73 0 0 1-1.35-1.34c-.93-1.27-.61-2 1-2.25.28-.06.62.2.89-.26a10.24 10.24 0 0 1-.78-1.39c-.25-.62-.87-1.34-.07-1.94a2 2 0 0 1 2.67-.32c.93.71 1.77 1.53 3.06 2.65-1.24-4.41-1.83-8.42-2.63-12.39a15.86 15.86 0 0 1-.34-4.29c0-.56.12-1.16.74-1.39a1.46 1.46 0 0 1 1.67.64 11.64 11.64 0 0 1 1.5 2.7 52 52 0 0 1 3.3 10.49c.19.93.42 1.85.7 3 1-2 .66-4 1.1-5.78a6.83 6.83 0 0 1 .65-2.29c.77-1.21 1.92-1.18 2.56.13a9.6 9.6 0 0 1 .78 4.68V15c1.16-.19 1.73-1.14 2.56-1.63 2-1.18 4-1.7 6.05-.3a.74.74 0 0 1-.3.9 9.49 9.49 0 0 0-7.13 3.5c2.46-2 2.46-2 4.28-1.61a.79.79 0 0 1 .27.97z" fill="#39383a"/><path d="M576.53 428.65c-1.9-5.59-.75-10.2 3.54-13.55a10.36 10.36 0 0 1 10.63-1.54c4 1.58 6.79 4.46 7.35 9a12.92 12.92 0 0 1-.49 5.69c0 4.39-2.95 6.31-6.54 7.31-4 1.13-8 1.21-11.58-1.73-1.69-1.41-3.01-2.83-2.91-5.18z" fill="#6e6c71"/><path d="M576.53 428.65l.81 1.19c4.26 6.27 10.9 6.48 16.43 3.2a10.28 10.28 0 0 0 3.79-4.81c.06.93.69 1.34 1.44 1.73 1.46.77 2.86 1.77 2.64 3.62s-1.8 2.56-3.4 3a42.36 42.36 0 0 1-18.26 1 13 13 0 0 1-5.91-2.51c-2.12-1.68-1.94-3.64.4-4.91.76-.41 1.7-.56 2.06-1.51z" fill="#c3bdc0"/><path d="M304.09 35.77c-1.55 0-3.26-2.14-3.26-4.11 0-1.52 2.06-3 4.29-3 1.54 0 3 2 3 4-.07 1.53-2.12 3.09-4.03 3.11z" fill="#3b3a3b"/><path d="M656.46 421.43c1.31-.34 2.64-.58 3.91-1a15.11 15.11 0 0 0 8.45-6.8c-.36 3.82-5.57 7.47-11.27 8.33-1.55-.21-.88-.02-1.09-.53z" fill="#343132"/><path d="M314.82 16.83l-.51-.49c-.4-1.23.48-1.65 1.34-2 .55-.21 1.22-.14 1.55-.79l.5-.46c1.25 1.33 1.27 1.72-.06 2.44-.9.47-1.87.87-2.82 1.3z" fill="#707174"/><path d="M292.75 168.43c-1.92-.5-2.58-2.43-4-3.32.09-1 .92-1 1.39-1.34a4.89 4.89 0 0 0 1-6.44 2.94 2.94 0 0 0-.49-.51.87.87 0 0 0-.9-.16c-.34.15-.36.49-.17.8a2.57 2.57 0 0 1-.19 2.72c-1.53 2.83-2.35 2.92-4.27.41a6.44 6.44 0 0 1-1.28-2 .56.56 0 0 1 .41-.55 6.54 6.54 0 0 0 3.94-8.16c0-.15-.1-.3-.15-.45a.75.75 0 0 0-.91-.56c-.38.08-.48.39-.49.72 0 2.52-1.49 4.32-3.11 6a7.64 7.64 0 0 1-1 .74 9.44 9.44 0 0 1-1.91-2.45c-.57-.76-1.09-1.57-1.69-2.44.7-.72 1.65-.59 2.41-.94 3.5-1.6 4.56-3.62 3.52-7.27-.22-.77-.17-2.07-1.28-2s-.85 1.32-1 2.11a7.21 7.21 0 0 1-3.26 5.09c-1.08.65-1.54.55-2.12-.53a11 11 0 0 1-.75-2c-.73-2.46-.72-2.47 1.68-3.17 3.66-1.06 5.14-3.38 4.29-7.29-.52 3.26-2.66 4.77-4.95 6.08-1.36.78-1.81.54-2.17-.94s-.7-3.25-1-4.88a33.9 33.9 0 0 0 3.46-1.26 5.6 5.6 0 0 0 3.23-6.29c-.12-.51 0-1.28-.82-1.25-.61 0-.53.68-.65 1.12a8.21 8.21 0 0 1-4.64 5.18c-.74.37-1.23.17-1.42-.65-.4-1.79-.78-3.58-1.17-5.37-.14-.64.26-.81.76-1a19.3 19.3 0 0 0 2.69-1c2.75-1.42 3.72-3.93 2.71-7.73a12.52 12.52 0 0 1-4.44 6.42 4 4 0 0 1-2.05 1c-.84-1.94-.77-4-1.11-6-.13-.78.3-1.11 1.07-1.25a10 10 0 0 0 3.79-1.41 4.17 4.17 0 0 0 2.13-3.78.88.88 0 0 0-.69-.94c-.67.84-.69 2.1-1.62 2.83a7.5 7.5 0 0 1-2.3 1.26c-.6.19-1.29.54-1.82.13s-.2-1.2-.06-1.78c.4-1.6 1-2.79 3-3.23a7.57 7.57 0 0 0 4.72-3.85 1.52 1.52 0 0 0 .11-1.73c-1.58 1.94-3.19 3.75-6.16 4.5 1.69-3.28 3.16-6.16 4.66-9a2.25 2.25 0 0 1 1.31-1c4.18-1.6 8.31-3.11 12.94-3.13A162.11 162.11 0 0 0 310.26 95c3.22-.39 6.38 0 9.57.08.78 0 1.14.31 1.18 1.13.11 2.23.38 4.46.39 6.69a12.71 12.71 0 0 0 1.8 6.38 25.68 25.68 0 0 0 5.71 6.74c5.61 4.75 11.28 9.42 16.89 14.17 3.79 3.21 7.29 6.73 10.75 10.27 3 3 5.93 6.06 8.77 9.2 3.07 3.39 6.67 6.2 10 9.28.1.48 0 .72-.56.55-2.22-.88-4.46-1.73-6.67-2.65a5.6 5.6 0 0 1-1.85-1.08c-2.24-2.22-5.06-3.27-8-4.21a17.38 17.38 0 0 1-4.64-1.85c.06-.12.08-.21.13-.24 3.31-2 3.61-3.27 1.3-6.47-2.89-4-6.64-7.12-10.46-10.15a26.87 26.87 0 0 0-4.77-3.2c-1.55-.19-2.13-1.73-3.22-2.33a16.82 16.82 0 0 1 2.76 2.77 133.74 133.74 0 0 1 11.2 9.68 18.17 18.17 0 0 1 4.16 5.24c.83 1.81.29 2.88-1.64 3.31a3.79 3.79 0 0 1-3-.5c-2.87-1.86-5.73-3.75-8.59-5.62a2.19 2.19 0 0 1-1.1-1.5c-.43-2.82-2.3-4.63-4.45-6.24-.36-.27-.89-.4-.93-1 .92-1.32.53-2.5-.32-3.7-1.88-2.66-4.48-4.54-7-6.51-.27-.24-.53-.49-.81-.72.31.24.57.53.88.78 2.5 1.91 5 3.79 6.87 6.41.67.95 1.52 2 .33 3.14a2.44 2.44 0 0 1-2-.24c-3.78-2.29-7.81-4.1-11.73-6 0-.82.79-1.08.88-1.73a.79.79 0 0 0 .16-.85c-.08-.29-.11-.59-.19-.89a1.27 1.27 0 0 1-.45.78c-1.39 2.07-2 2.15-3.83.52-.35-.31-.68-.65-1-1-2.06-.46-2.13-2.81-3.6-3.79 0 0-.18 0-.17.09-.23 1.66.84 3 1 4.56s.78 3.06-.51 4.15-2.84.21-4.24-.28c-3.25-1.14-3.89-4.14-4.89-6.87a14.26 14.26 0 0 1-.68-2.55 17.83 17.83 0 0 0 1.14 3.8c.42 1.21 1 2.36 1.29 3.6.73 2.8.11 3.68-2.68 3.74h-1.2c-2.63-.63-3.81-2.46-4.13-5l-.53-1.42c-1.11-1.55-1.07-3.47-1.63-5.13a4.83 4.83 0 0 0 .48 1.77 15 15 0 0 1 .5 5.17c0 1.3-.66 1.47-1.7 1.13a6.77 6.77 0 0 1-4-6.08c-.14-2-.26-4-.4-6a3.24 3.24 0 0 1 .77-2.44 55.66 55.66 0 0 1 5.94-6.25 4.55 4.55 0 0 1 5.7-.59 37.57 37.57 0 0 1 8.09 5.94 2.51 2.51 0 0 0 2.79.83c.91-.34 1.31-.84.82-1.81a6.89 6.89 0 0 0-1.42-1.91 51.71 51.71 0 0 0-8.52-6.59 6.73 6.73 0 0 0-6.44-.27 22.26 22.26 0 0 0-8.41 6.2c-1.17 1.31-2.25 2.7-3.38 4a14.09 14.09 0 0 0-3.21 8.84 41.41 41.41 0 0 0 3.29 17.06 74 74 0 0 0 10.92 18.77c3.61 4.54 7.36 8.85 12.1 12.2a74.43 74.43 0 0 0 18.31 9.8 36.45 36.45 0 0 1 8.9 4.59c5.3 3.69 10.35 7.77 16 10.91 1.64.92 3.55 1.38 4.92 2.79h.05a7.4 7.4 0 0 1-.89.34c-1.07.25-1.16.83-.77 1.77a44.88 44.88 0 0 0 4.16 7.8 71.73 71.73 0 0 0 9.52 12c3 2.9 6.32 5.15 10.78 4.79 1.06-.08 1.63.3 1.63 1.49v11.73c0 1.66-.09 1.66-2.83 1.9a2.65 2.65 0 0 0-3.06.76c-.74.85-1.6.88-2.21.1-2.18-2.78-5.25-4.45-7.92-6.6a55.19 55.19 0 0 1-6-5.59c-1.61-1.73-3.22-3.45-5.67-4-1.05-.23-1.31-1-1.61-2s-.66-2.32-2.22-2.27c-.89-.3-1.11-1.06-1.29-1.86a82.25 82.25 0 0 0-6.67-18.23c.54 1.75 1.55 4 1.27 6.53-.36.55-.72 1.11-1.53.92a46.13 46.13 0 0 1-1.51-5.53 16 16 0 0 0-3.9-7.3 7.58 7.58 0 0 0-4.49-2.55 3.28 3.28 0 0 1-2.34-1.51c-.35-.49-.64-1.13-1.59-1.11a10 10 0 0 1-1.43 4.63c-.5.7-.81 1.11-1.67.53s-1.77-1-2.88-1.68c2-1.46 3.28-3.21 2.91-5.69a5.59 5.59 0 0 0-.18-1.18c-.31-.79-.42-2.05-1.41-2-1.23.08-.76 1.39-.77 2.15a7.8 7.8 0 0 1-1.84 4.59 2 2 0 0 1-3.28-.41c-.27-.66.39-1 .66-1.42a7.12 7.12 0 0 0 0-7.91c-.27-.48-.6-1.07-1.28-.75-.5.24-.46.85-.32 1.28.73 2.27-.08 4.22-1.08 6.18-.48.92-1 1.15-1.87.53-.58-.42-1.23-.75-1.82-1.16-2-1.34-2-1.35-.69-3.37a6.33 6.33 0 0 0-.71-6.77c-.75.63-.43 1.49-.46 2.25a8.43 8.43 0 0 1-.8 3.71c-.49.91-1.19 1.25-2.15.57-.7-.5-1.57-.79-2-1.6.05-.51.44-.66.78-.84 1-.54 2.06-1 2.14-2.34a6.71 6.71 0 0 0-.78-4.39.77.77 0 0 0-.78-.43c-.42.07-.42.42-.42.73a9.55 9.55 0 0 0 .1 1.19 3.86 3.86 0 0 1-1.78 3.68 1.71 1.71 0 0 1-2.38 0 52.66 52.66 0 0 1-5.48-5.19c.89-1.41 3.26-.63 3.9-3-1.53 1.2-2.61 2.68-4.48 2.52-1.32-1.34-3.2-2.14-3.92-4.07a4.3 4.3 0 0 0 3.52-2.43 5.66 5.66 0 0 1-3.51 2.54zM367.79 251.1c-.11 1-.24 2.06-.33 3.1-.36 4.45-3.25 6.71-7.08 8.14a8 8 0 0 1-1.86.45c-4.29.46-8.61.59-12.87 1.29a1.48 1.48 0 0 1-1.9-1.28c-.73-2.69-2.67-3.81-5.31-4.08a18.9 18.9 0 0 0-8 1 17.39 17.39 0 0 1-5.61 1.16c-2 0-2.42-.62-1.93-2.51a21.19 21.19 0 0 1 2.06-4.58 52 52 0 0 0 4-9.24 19.91 19.91 0 0 0 .85-4.95 3.26 3.26 0 0 1 2.21-3.13 42.54 42.54 0 0 0 14-9.15c.82-.78 1.37-.63 1.88.24 3.29 5.64 8.3 9.91 12.2 15.08a11.16 11.16 0 0 0 4.85 3.78c2.78 1.1 2.9 1.45 2.84 4.68z" fill="#fff"/><path d="M325.41 133.56c-1-.77-2-1.53-3.19-2.42-.14 1.61.75 2.49 1.58 3.4 2.94 2 4 5.22 5.17 8.29a1.94 1.94 0 0 1-.62 2.11c-1.46 1.33-5.61 1.07-7.15-.33-3-2.71-4.81-6.3-7.34-9.35a16.51 16.51 0 0 0-1.33-1.67 10.15 10.15 0 0 1-.95-1 8.39 8.39 0 0 0 .91 1c2.92 3.61 6 7.11 6.42 12.08.16 1.91-.49 3-2.41 3.34a7.76 7.76 0 0 1-8.69-4.38c-.78-1.5-1.58-3-2.18-4.11 1.15 2 2.33 4.45 3.61 6.84.91 1.71.38 2.6-1.54 3-4.5.8-9.83-2.08-11.78-6.33-.78-1.7-1.23-3.53-2.06-5.21a3.92 3.92 0 0 0-.38-1.14c.26.61.45 1.34.76 2a30.08 30.08 0 0 1 1.32 3.49c1.64 5.43 7.62 7.39 11.57 7.31a3.17 3.17 0 0 1 2.07.62c3.81 2.55 6.48 6.15 9.17 9.73a3.43 3.43 0 0 1 .6 3.6c-.64 1.39-1.94 1.38-3.25 1.18a2.41 2.41 0 0 0-1.57.32 4.55 4.55 0 0 1-.73.27c-1.39-1.06-2.76-2.14-4.17-3.16a33.78 33.78 0 0 1-8.78-8.74 13 13 0 0 0-1-1.32 52.07 52.07 0 0 1-11.17-22 34.75 34.75 0 0 1-.74-10.95 6.28 6.28 0 0 1 1.2-3.56 8.4 8.4 0 0 1 .28 3 13.51 13.51 0 0 0 1.84 6.85c1.82 2.82 4 3.18 6.82 1.12.26-.61.28-2.11 1.27-.45a5 5 0 0 0 2.83 2.4c1.89.11 4.06 1 4.78-1.93.13-.53.85-.38 1.4 0a9.23 9.23 0 0 0 2.51 1.2c2.76.86 3.81 0 3.67-2.93-.07-1.45-1-2.72-.78-4.22a1.08 1.08 0 0 1 .83-.63c1.35.64 1.56 2 2 3.21.94 2.07 3 2.79 4.75 3.81 4.37 2.61 8.76 5.2 13 8.06a8.23 8.23 0 0 1 3.21 3c-3.8-1.51-6.91-3.55-10.27-5.06a1.77 1.77 0 0 1-1.49-.34z" fill="#feffff"/><path d="M382 200.49c1.67-.79 3.25-1.14 4.61-2a5.31 5.31 0 0 0 2.72-5.44c-.09-.48-.2-1-.84-1s-.68.37-.77.77c-.55 2.72-2.62 3.39-5 3.69a10.81 10.81 0 0 1-3.11 0 34.93 34.93 0 0 1-13.71-4.74 63.58 63.58 0 0 1-9.14-6.67 7.81 7.81 0 0 1 4.1-.16c8.22 1.44 16.55 1.55 24.83 2.25 5.42.45 10.83.93 16.25 1.41a4.29 4.29 0 0 1 1.62.31c6 3.2 11.69 6.88 17.43 10.49a2.84 2.84 0 0 1 1.57 2.74 6.36 6.36 0 0 0 2.89 6 5.37 5.37 0 0 1 2 4.41c.09 1.47-.4 2-1.93 2.11a103.42 103.42 0 0 1-11.42 0 12.56 12.56 0 0 0 3.07-2.72 3.63 3.63 0 0 0 .75-2.45c-.32-3-1.83-5.42-3.23-7.93-.49-.87-1.22-.59-1.88-.28s-.6.88-.36 1.44a16.59 16.59 0 0 1 1.45 4c.41 2.65-.53 3.7-3.16 3.2a39.62 39.62 0 0 0-8.74-1.17c-.09-1 .7-.9 1.11-1.14a6.56 6.56 0 0 0 3.57-5.59 12.75 12.75 0 0 0-.43-4.73c-.21-.66-.45-1.52-1.41-1.3a1.85 1.85 0 0 0-1.65 1.52 13.63 13.63 0 0 0 0 2.39c.17 3.41-1.28 4.91-4.69 4.72a12.72 12.72 0 0 1-3.8-.52c.06-.88.78-1.21 1.23-1.69a7.58 7.58 0 0 0 1.87-7.11c-.11-.6-.14-1.42-1-1.33a1.21 1.21 0 0 0-1.18 1.29c.15 2.79-1.8 4.09-3.74 5.41a2.94 2.94 0 0 1-1.8.59c-1.91-.08-3.83-.17-5.75-.29a4.66 4.66 0 0 1-2.33-.48z" fill="#fff"/><path d="M320.65 220.37c1.87 1.74 3.72 3.5 5.62 5.21a25.33 25.33 0 0 0 2.61 2.11c1.43 1 2.47 1 3.41 0s.2-2.13-.43-3a35.92 35.92 0 0 0-3.2-3.87 12.87 12.87 0 0 1-1.5-1.81.59.59 0 0 1 .8-.12c1.13.87 2.24 1.77 3.41 2.59a6.72 6.72 0 0 0 3.79 1.31c.63 0 1.34.08 1.71-.58s-.06-1.22-.47-1.71c-1.47-1.78-3-3.54-4.46-5.3-2.22-2.6-4.58-5.09-6-8.26-.37-.6-.33-1 .51-1 2.56 3.37 6 5.73 9.42 8.07a9.66 9.66 0 0 0 4.64 1.81 2.42 2.42 0 0 1 2.28 1.77c.62 1.64 1.31 3.26 2.08 4.84a2.6 2.6 0 0 1-.56 3.26 16.24 16.24 0 0 1-2.84 2.2c-4.29 2.81-8.71 5.37-13.75 6.61a3.88 3.88 0 0 0-2.94 2.86 137.57 137.57 0 0 1-5.94 14.9 10.23 10.23 0 0 0-.08 9 5.33 5.33 0 0 0 5.34 3.3 17.73 17.73 0 0 0 5.34-1.27c2.1-.76 4.11-1.75 6.28-2.32a8.55 8.55 0 0 1 4.73 0 3.44 3.44 0 0 1 1.8 1.12 2 2 0 0 1-.09 2.8c-1.09.79-2.31 1.43-3.47 2.11a1.29 1.29 0 0 1-1.36-.18c-4.29-2.48-8.74-2.05-13.22-.66a29.32 29.32 0 0 0-9.66 5.18 56.49 56.49 0 0 1-10.58 6.66c-.79.38-1.56.81-2.31 1.26-2 1.19-3.65 2.61-4 5.11-1.42-1.07-1.63-1.53-1.14-3.14a12.25 12.25 0 0 1 4.55-6.59 27 27 0 0 0 4.82-3.91 4.54 4.54 0 0 1 2-1.22c.71-.23 1.39-.49 1.37-1.41a2.33 2.33 0 0 0-1.26-2.16 2.89 2.89 0 0 0-2.33-.2c-4.14 1.45-8.45 1.59-12.76 1.9a30.91 30.91 0 0 0-11.87 3.36 3.74 3.74 0 0 1-.66.25c-.06 0-.14-.06-.34-.15a13.63 13.63 0 0 1 5.24-5.33 28.57 28.57 0 0 1 13.32-3.44 65.51 65.51 0 0 0 8.86-.22 11.07 11.07 0 0 0 5.17-1.58c-.79-.93-1.76-.24-2.53-.57.05-.16 0-.37.14-.45 4.64-3.86 7.31-9 9.52-14.46 1.5-3.69 2.51-7.59 4.68-11a4.28 4.28 0 0 0 .56-2.54c-.07-1.55.8-.6 1.35-.49s.88 0 .67-.67a113.29 113.29 0 0 1-6.85-9.43c-.07-.47.09-.65.58-.55zM313.42 166.14v-.57c.64-.5 1.33-.19 2 0a3.66 3.66 0 0 0 3.69-.93 3.23 3.23 0 0 1 3.49-.89 3.25 3.25 0 0 0 4.27-1.78 2.12 2.12 0 0 1 2.21-1.26 35.43 35.43 0 0 0 4.7-.25c3.25-.53 3.76-2.3 2.86-5s-2.91-4.56-5.18-6.15c-.89-.62-1.66-1.37-2.55-2-.67-.47-1.17-1.26-.56-2.06 1.26-1.64.39-3-.32-4.52-.51-1.08-1.8-1.89-1.27-3.37a.53.53 0 0 1 .68 0l2.18 1.82c.42.35 1 .65 1 1.28 0 1.57 1.14 2.4 2.14 3.28a58.76 58.76 0 0 0 7.26 5.82 15.26 15.26 0 0 1 2.2 1.83 3.71 3.71 0 0 1 1.14 2.05c.28 1.67-.39 2.39-2.07 2.3-.76 0-1.46-.57-2.47-.33 1.68 1.65 3.35 2.35 5.44 1.25 1.62-1.39 3.29-.2 4.94-.1 4.48 1.33 8.07 4.13 11.53 7.1.7.6 1.67 1.44 1.19 2.4s-1.59.18-2.42.14a5.79 5.79 0 0 1-1.39-.35c-4.42-1.39-8.85-2.72-13.36-3.78-2-.47-3.83-1.45-5.84-2 1.39 1.54 3.36 2.08 5.07 3.06a38.09 38.09 0 0 1 4.72 3.68c1.6 1.3 3.31 2.5 4.36 4.58-3.66-1.09-7.29-2.31-11-3.24a43.63 43.63 0 0 1-10.83-4.35c-.53 1.4 0 2 1.12 2.55 2.95 1.41 5.84 3 8.72 4.51a29.52 29.52 0 0 1 5.45 3.71 3.18 3.18 0 0 1-2.57.47 46.66 46.66 0 0 1-12.95-2.4c-3.87-1.25-7.87-2.14-11.52-4-2.43.11-4.21-1.28-6.06-2.5z" fill="#fefefe"/><path d="M351.37 218a2.27 2.27 0 0 1 2.6 1.94 2.64 2.64 0 0 0 2 2 13.34 13.34 0 0 1 5.22 4 55.81 55.81 0 0 0 6.19 6.3c.12.1.21.27.35.32 2.92 1 4.61 3.56 6.84 5.43.64.55 1 .72 1.8.09 1.45-1.2 1.57-1.12 3.25.1l-1.94.91a3.68 3.68 0 0 0-2 2.26c-1.63 4.89-2.78 9.85-2.35 15.06 0 .56.07 1.12.16 1.67.93 5.36 4.3 8.28 9.75 8.38 1.84 0 3.68-.1 5.52-.12 3.2 0 6.37.16 9.44 1.76-.56.81-1.29.71-1.94.76a40.47 40.47 0 0 1-14.5-1.26 8 8 0 0 0-8.36 2.06l-2.79 2.64a18.36 18.36 0 0 1-7.58 4.42 32.05 32.05 0 0 0-8.27 4.29c-.44.28-.77.82-1.56.69 0-.89.65-1.39 1.17-1.94a18.05 18.05 0 0 1 4.23-3.13 79.87 79.87 0 0 0 7.16-5.22c.89-.64 1.5-1.37 1-2.63-.71-1.67-.86-1.81-2.58-1.05a11 11 0 0 1-5.15.86 88.84 88.84 0 0 0-14.86.35c-.49.14-.62-.06-.48-.51a26.21 26.21 0 0 1 8.31-.87 27.17 27.17 0 0 0 11.72-2 25.15 25.15 0 0 0 4.82-2.65c2.41-1.66 3.91-3.72 3.47-6.83a8.42 8.42 0 0 1 .25-2.86 10.35 10.35 0 0 0-1.21-7.85 4.5 4.5 0 0 0 .82-1.67c.56-1.41.28-2.29-1.37-2.47-2.08-.23-2.69-2.21-3.94-3.42-.45-.44-.1-1.19.37-1.69 1.49-1 2.17.73 3.25.94h-.06a53.39 53.39 0 0 1-10.33-8.39c1.69 1.4 3.36 3.67 5.79 5.14.67.4 1.69.88 1.42 2.07-1.64 2.1-2.71 2-4.84-.34a4.55 4.55 0 0 0 2.76 2.11c2.79.76 4.17 3.16 6 5a1.75 1.75 0 0 1 .08 2.73c-.83-.62-1.62-1.29-2.49-1.86-8.48-5.5-14.64-13.2-20.32-21.36a7.21 7.21 0 0 1-1.28-2.55c-.22-.38 0-.65.24-.9 2.11-.09 2.68.38 4.58 3.69-.22-1.4-2.55-2.69-.36-4.4z" fill="#fdfdfd"/><path d="M326.75 137.38c.37 1.43 1.66 2.32 2.2 3.66s1.48 2.91.17 4.46c-.58.68.09 1 .48 1.31 1.56 1.25 3.16 2.45 4.71 3.7a10.89 10.89 0 0 1 3.78 6.24c.54 2.4-.24 3.6-2.62 4.26a20.36 20.36 0 0 1-5.72.33c-1.12 0-1.8.07-2.26 1.41-.66 1.93-2.62 2-4.27 1.79a3.5 3.5 0 0 0-3.35.94 4.19 4.19 0 0 1-5.11.69c-.42-.22-.86-.4-1.3-.6 0-.55.17-.89.81-.87a19.07 19.07 0 0 0 2.62 0c1.23-.14 1.61-.85 1.2-2a3.26 3.26 0 0 0-.46-.84c-2.54-3.36-4.91-6.86-8.15-9.65a4 4 0 0 0-3-1.1 15.08 15.08 0 0 1-7.13-1.67 6.54 6.54 0 0 1-3.68-3.87 42.48 42.48 0 0 1-2-6.12c-.14-.52-.4-1.12.56-1.07.7 1.52 1.41 3 2.08 4.56 1.75 4 5 5.82 9 6.73.49.11 1 .35 1.42-.37.54-.88 1.41.75 2.16-.2-2.37-3.53-3.42-7.7-5.48-11.93a3.18 3.18 0 0 1 1.84 1.69c1.32 2 2.59 4 3.88 6a7.71 7.71 0 0 0 7.78 3c1-.29 1.14-1 .95-1.88a24.62 24.62 0 0 0-3.22-8.44c-.86-1.35-1.81-2.63-2.72-3.94-.14-.48.06-.63.52-.52a103.66 103.66 0 0 1 8.61 9.87c1.82 2.25 3.12 2.64 5.79 1.84 1.39-.42 1.7-.89 1.25-2.27a14.45 14.45 0 0 0-1.19-2.59c-1-1.8-2.08-3.56-3.13-5.34a2.66 2.66 0 0 1 2.58 1.38c-.35.56.42.88.4 1.41z" fill="#3a393a"/><path d="M429.06 190.19c-5.24-2.34-10.51-4.59-16.2-5.57-2.75-.47-5.51-.86-8.26-1.28-1.05-.08-1.89-.41-2-1.62.44-1.58-.45-2.37-1.7-3.1-6-3.5-12.53-5.53-19.09-7.58-4.69-1.47-9.21-3.43-14-4.55a4.15 4.15 0 0 1-2-1.22c-1.31-.56-1.56-1.94-2.63-3.06 1.73-.36 3.44.08 4.6-1.25.55-.63.25-1.36.32-2.06a.91.91 0 0 1 1.23.26c.19 1.37 1.23 1.41 2.22 1.69a40.92 40.92 0 0 1 8.2 3.86c6.23 3.41 12.54 6.65 19.08 9.45 5.22 2.22 10.57 4.1 15.95 5.84a35.22 35.22 0 0 1 14.91 9.62c.03.48-.1.72-.63.57z" fill="#fdfdfd"/><path d="M372.46 180.51c-3.82-.31-7.63-.63-11.45-.93l-13.7-1c1.26-1 2.94-1.44 2.66-3.43a7.36 7.36 0 0 0 6.47.07c1.58-.73 1.82-1.18 1.23-2.78-.33-.89-.81-1.73-1.23-2.6.65-.42 1.2.12 1.78.22a10.12 10.12 0 0 0 4.28 0c2.51-.62 3-1.3 2.94-3.92 0-.11.18-.23.28-.35 2.8.27 5.3 1.5 7.88 2.45 6.73 2.48 13.59 4.57 20.3 7.11a45.62 45.62 0 0 1 6.67 3.24c.79.45 1.67.93 1.3 2-.43 1.21-1.5 1-2.52.83a76.25 76.25 0 0 1-13.35-3.6c-6.4-2.48-13.14-3.34-19.76-4.81a18.21 18.21 0 0 0-3.17-.72 96.89 96.89 0 0 1 9.6 2.31c1.29.43 2.83.84 2.45 2.65s-1.95 1.52-3.3 1.5a19.28 19.28 0 0 1-4.26-.72 31.7 31.7 0 0 0 3.75.71 1.38 1.38 0 0 1 1.35 1.13.84.84 0 0 1-.2.64z" fill="#fcfcfc"/><path d="M372.46 180.05c-3-.82-6.1-1.18-8.94-2.61 3.71-.49 7.47.62 11.31-.2-.39-1.17-1.34-1.25-2.09-1.47-2.38-.69-4.79-1.28-7.18-1.94q-2.9-.79-5.76-1.65a1.5 1.5 0 0 1-1.23-.93 5.39 5.39 0 0 1 3.2-.1c3.56.5 7.08 1.28 10.6 2 .89.19 1.78.58 2.75 0 .77-.49 1.52.21 2.24.5a113.12 113.12 0 0 0 17 5.76 29 29 0 0 0 6.91 1.1c-.43-.92-1.26-1.09-1.93-1.45a76.88 76.88 0 0 0-11.79-4.71c-7.41-2.53-14.54-5.77-21.84-8.59v-.47a15.65 15.65 0 0 1 3.7.85Q379 169 388.6 172a56.62 56.62 0 0 1 12 5.3 13.27 13.27 0 0 1 3.05 2.28 1.61 1.61 0 0 1 0 2.51c-2.36 1.4-4.86.71-7.2.17-3.72-.87-7.59-1.19-11.1-2.9a2.56 2.56 0 0 0-2.32 0c-3.43 1.64-6.98 1.44-10.57.69z" fill="#3a393b"/><path d="M289.2 68.35a13.06 13.06 0 0 1 4.46 6.59 16.29 16.29 0 0 1-1.09 12.55c-2.49 4.71-2.45 4.74-7.59 6.22a18.47 18.47 0 0 1-4.11 1c-.44-.67 0-1.12.22-1.61a56.12 56.12 0 0 1 4.26-7.75 24 24 0 0 0 3.83-11.22c.11-1.79.02-3.62.02-5.78z" fill="#fdfdfd"/><path d="M407.6 219.83c2.38.71 4.45 2.12 6.85 2.83 1.24.37 2.19 1.74 3.24 2.68a128.52 128.52 0 0 0 23.94 17.52 4 4 0 0 1 1.85 1.51 28.6 28.6 0 0 1-6.44-.64c-1.64-.31-3.25-.87-4.91-1.08a5.39 5.39 0 0 1-3.6-2.1c-4.53-5.32-9.89-9.78-15.1-14.38-2.16-1.9-4.4-3.7-6.43-5.75-.08-.49.05-.75.6-.59z" fill="#fbfbfb"/><path d="M392.91 210.64c3.28.72 6.12 1.23 6.88 4.88-.14.54-1-.11-1.37.54 2.58.39 4 2.18 5.42 4a49.75 49.75 0 0 0 5.63 5.89 155.76 155.76 0 0 0 12.14 10.51 28.32 28.32 0 0 1 5.49 5.32 30.2 30.2 0 0 1-7.44-.11 2.84 2.84 0 0 1-2-1.58 35.85 35.85 0 0 0-6.45-7.67 43.77 43.77 0 0 1-3.58-4.49c-2.75-3.44-6-6.41-8.93-9.7-.72-.82-1.95-1.43-1.43-3 .16-.5-.6-.94-1.14-1.06-1.73-.33-2.39-1.65-3.22-3.53zM326.46 215.05a44.58 44.58 0 0 1-7.59-7.94c-3.77-4.91-5.43-10.56-5.95-16.87 1.53.23 2.53 1.15 3.65 1.77s2.21 1.24 3.43 1.92a4.67 4.67 0 0 0-.44 4.34 29.39 29.39 0 0 0 1.57 4.26c1.47 3.27 2.94 6.55 4.45 9.8a23.44 23.44 0 0 0 1.33 2.26c.16.46-.07.54-.45.46z" fill="#fcfcfc"/><path d="M426.31 224.26l3.75.23a78.28 78.28 0 0 0 11.25-.33 4.71 4.71 0 0 0 2.51-.7 2.12 2.12 0 0 1 2.82.07c2.21 1.57 4.48 3.07 6.74 4.57.8.53 1.4 1.12.94 2.16A2.38 2.38 0 0 1 452 232a6.89 6.89 0 0 1-3.34-1.2 7.21 7.21 0 0 0-4.29-1.27 4.41 4.41 0 0 1-1.86-.33c-5-2.09-10.37-3.18-15.62-4.52-.14-.03-.24-.17-.58-.42z" fill="#fafafa"/><path d="M452.66 233.67c1.18-1 2.56-1.37 3-2.86.25-.76.93-.37 1.39-.05 1.83 1.28 3.63 2.6 5.47 3.87 4.17 2.86 7.29 6.92 11.37 9.88a.68.68 0 0 1 .33.81.78.78 0 0 1-.78.45 5.76 5.76 0 0 1-1.66-.08 6.11 6.11 0 0 1-2.21-.86c-4.89-3.9-10.63-6.46-15.7-10.07-.35-.27-.68-.62-1.21-1.09z" fill="#fbfbfb"/><path d="M455.48 245.27a44 44 0 0 0-5.84-.34 2.54 2.54 0 0 1-1.91-.85 95.36 95.36 0 0 0-9.83-7.6c-3-2.17-5.65-4.86-8.93-7.2a2 2 0 0 1 1.71 0c1.83.57 3.64 1.17 5.49 1.66a7.25 7.25 0 0 1 4.26 2.87 15.18 15.18 0 0 0 4.48 3.88c3.4 2.22 6.71 4.57 10 6.88.23.09.32.34.57.7z" fill="#fafafa"/><path d="M349.17 156.49c-1.64.46-3.29.11-4.94.1 1.13-1 .54-2.51 1.09-3.49s2.26-.31 3.2-1.2c.56-.51.58-1.29 1.07-1.87a4.56 4.56 0 0 1 2 .69c3.36 1.67 6.72 3.34 10 5.07 2.14 1.11 2.58 1.63 3.46 3.58a15.6 15.6 0 0 1-5.64-.7c-3.52-.81-6.76-2.38-10.09-3.73-.81-.33-1.64-.61-2.47-.89-.3-.1-.65-.1-.81.25s.09.61.39.76a10 10 0 0 1 2.74 1.43z" fill="#fafafb"/><path d="M424.2 219.06c1.13-.38 2.27-.72 3.37-1.15 2.48-1 2.89-1.76 2.38-4.38-.06-.3-.11-.6-.17-.95 2 .63 10.81 6.67 13.2 9.13-6.64.71-12.62-1.34-18.78-2.65z" fill="#fbfcfc"/><path d="M358 196.45a8.78 8.78 0 0 1 5.69 3.94 66.34 66.34 0 0 0 16.15 16.85c1.73 1.31 1.83 1.37 2.1 3.13-.32.23-.61 0-.85-.13-5.48-4.12-11.24-7.9-15.74-13.2a72.22 72.22 0 0 1-7.3-10.65z" fill="#f8f8f8"/><path d="M288.05 50.85c.53 2.41.47 4.64-1 6.62a.88.88 0 0 0-.12.21c-1.13 2.5-2.37 4.73-5.72 4.67-1.06 0-2.13.91-3.4 1.5a14.77 14.77 0 0 1 .26-4.78 4.66 4.66 0 0 1 3.19-3.61 13.34 13.34 0 0 0 6.79-4.61z" fill="#fbfbfb"/><path d="M470.19 247.46c-4 1.47-6.93.49-9.62-2-2.44-2.28-5.05-4.39-7.57-6.59a48.48 48.48 0 0 0-7.87-5.44 6.73 6.73 0 0 1 5.29 1.35A19.62 19.62 0 0 1 454 238a13.7 13.7 0 0 0 6.05 4.1 19.4 19.4 0 0 1 6.09 3.23 17 17 0 0 0 4.05 2.13z" fill="#f7f8f8"/><path d="M322.07 195c1.9.38 3.48 1.5 5.23 2.22a1.72 1.72 0 0 1 1.11 1.41 21 21 0 0 0 5.21 10.27 3.83 3.83 0 0 1 .36.63c-1.84-.23-3.75-1.6-7.61-5.44-1.8-.42-2.22-2.06-3-3.37-.48-.8-.86-1.66-1.3-2.49a4.6 4.6 0 0 1 0-3.23z" fill="#f9f9fa"/><path d="M372.46 180.05c2.54 0 5.11.41 7.6-.49 1.28-.46 2.4-1 2.2-2.69a4.35 4.35 0 0 1 2.53.79c4.14 2 8.56 3.07 12.94 4.31a11 11 0 0 0 5.92.07c-.24.84.52 1 1 1.3-2 0-4-.58-6.06-.42-1-.45-2.05 0-3-.35-6-.83-12.05-1-18.08-1.52a39.53 39.53 0 0 1-5-.54z" fill="#f9f9f9"/><path d="M316.25 213.72c-1.8-.66-1.8-.67-2.77-2.41a31.18 31.18 0 0 1-2.83-8.86c-.83-3.9-1.47-7.83-2.2-11.75a5.32 5.32 0 0 1 0-2.8c2.3.91 2.2.91 2.18 3.1a37.4 37.4 0 0 0 2.66 14c1.07 2.75 2.35 5.41 3.54 8.11.17.55-.09.7-.58.61z" fill="#f3f3f4"/><path d="M340.2 210.66c-4.33-3.22-8.21-6.34-9.93-11.84a18.34 18.34 0 0 1 8.45 5.33c1.42 1.59 1.55 3.92 1.48 6.51z" fill="#f8f8f9"/><path d="M336.2 144.28c.26-.38.75-.21 1.05-.42 2.13-1.44 3.76-.53 5.47.91s3.53 2.51 4.66 4.4a1.81 1.81 0 0 1-1.59 2.86c-.5 0-1 0-1.24-.52-1.35-3.11-4.43-4.23-6.88-6.07-.5-.37-1.16-.55-1.47-1.16z" fill="#f8f8f8"/><path d="M370.59 204.52a25.67 25.67 0 0 0 7.09 4.33c.29.12.57.28.85.43 3.18 1.71 3.6 2.68 2.76 6.94-3.57-4.13-7.53-7.52-11.25-11.16-.1-.47.06-.68.55-.54z" fill="#f5f6f6"/><path d="M402.73 228.06l-13.48-13.46c2.27-.06 4.33.27 5.66 2.17 2.61 3.71 5.57 7.16 8.31 10.77.17.46-.06.59-.49.52z" fill="#f4f5f5"/><path d="M361.41 191.73c-5.14-1.65-9-5.41-13.79-7.74l5.65.41a1 1 0 0 1 1 .61c1.09 2.38 3.44 3.47 5.26 5.11.57.57 1.24 1.07 1.88 1.61z" fill="#f2f2f3"/><path d="M388.35 166.06a84.49 84.49 0 0 1 18.12 7.38c.1.43 0 .7-.5.5l-18.08-7.37c-.15-.45-.03-.64.46-.51z" fill="#ebeced"/><path d="M296.62 172.45c1.91-1.13 3-3 4.26-4.71.3-.4.5-.86 1.06-.78s.83.64.88 1.23a5.16 5.16 0 0 1-2.2 4.75c-1.17.92-2.28-.08-3.42 0z" fill="#464648"/><path d="M327.87 122.92a54.52 54.52 0 0 1 5.11 3.84 10.45 10.45 0 0 1 2.92 4c.48 1.12.49 2.18-.9 2.74v-.6a3.18 3.18 0 0 0-.86-2.83 28.18 28.18 0 0 0-4.83-4.87c-.65-.57-1.29-1.16-1.93-1.75-.13-.45 0-.68.49-.53z" fill="#4b4b4d"/><path d="M402.73 228.06l.49-.52a22.79 22.79 0 0 1 2.86 3.19 70.1 70.1 0 0 0 7.55 7.67 6.75 6.75 0 0 1 1.81 1.91c-.51.53-.85 0-1.15-.22a25 25 0 0 1-4.17-3.58q-3.7-4.21-7.39-8.45z" fill="#d4d5d7"/><path d="M347.5 219l-.55.58a13.89 13.89 0 0 1-2-4.56 76.88 76.88 0 0 1-2.25-9l.48-1.5c1-.11 1.35.62 1.59 1.41 1.11 3.72 2.13 7.46 3.22 11.18a1.52 1.52 0 0 1-.49 1.89z" fill="#e3e4e5"/><path d="M340.71 182.67c4 .3 6.17 3.66 9.4 5.26-3.63-.85-6.43-3.18-9.4-5.26z" fill="#dcddde"/><path d="M322.07 195a6.93 6.93 0 0 0 .48 3.37c.78 2.26 2.61 4 3.25 6.31l.62 1.29-.51 1a24.29 24.29 0 0 1-4.11-8.44c-.26-1.17-.8-2.45.27-3.53z" fill="#d6d7d9"/><path d="M407.06 214.9c-3.62.92-5.34.44-6.65-1.81 2.41.16 4.47 1.2 6.65 1.81z" fill="#f3f3f4"/><path d="M296.52 117.26q.51 3.09 1 6.2a5.52 5.52 0 0 0-.42 2c-.2 1.17-.8 1.63-1.93.93 1.07.11 1.56-.3 1.55-1.45 0-1.86-.75-3.53-1.13-5.28.2-.84-.51-2.03.93-2.4z" fill="#606164"/><path d="M391.86 212.3a23.34 23.34 0 0 1-5.05-2.65c3.67-.32 4.19-.07 5.05 2.65z" fill="#e4e5e6"/><path d="M331.72 137.79c1.66 1 3.32 2.05 5.13 3.15-1.72.51-2 .36-5.64-2.67-.08-.43-.02-.71.51-.48z" fill="#d8d9db"/><path d="M339.38 130.1a28.61 28.61 0 0 1-5.85-5.23l.38-.42 5.93 5.21z" fill="#787a7c"/><path d="M325.8 204.68a15.29 15.29 0 0 1-3.25-6.31 56.35 56.35 0 0 1 3.82 5.72z" fill="#606163"/><path d="M370.59 204.52l-.55.54a17.29 17.29 0 0 1-4.27-4.51 19.84 19.84 0 0 1 4.82 3.97z" fill="#cecfd1"/><path d="M316.2 124a10.42 10.42 0 0 1-1.93-2.93c-1.52-.84-1.85-2-.84-3.43l3.3 5.78z" fill="#66676a"/><path d="M301.47 129.58c-1.45-.11-2.15-1.14-2.74-2.26-.43-.82-.72 0-1.06.06l.39-2.5c1.12 1.59 1.93 3.46 3.94 4.22 0 .38-.33.34-.53.48z" fill="#787a7c"/><path d="M333.49 193.47a9.62 9.62 0 0 1 2.06 3.92c-1.75-.18-1.87-.39-2.06-3.92z" fill="#d7d8d9"/><path d="M331.86 196.15c-2-.75-2.22-1.15-1.44-2.19.37-.48.83-.59 1.1 0a2.57 2.57 0 0 1 .34 2.19z" fill="#d7d8da"/><path d="M321.58 123.92c.05-1.29-.7-2.39-1.07-3.82 2.12 1.71 2.36 2.57 1.55 4.78z" fill="#686a6c"/><path d="M328 218.88l-.8.12a21 21 0 0 1-3.23-3.36.49.49 0 0 1 0-.69 35.26 35.26 0 0 1 4.03 3.93z" fill="#dcddde"/><path d="M320.65 220.37l-.58.58a10.15 10.15 0 0 1-1.94-2.71 5 5 0 0 1 2.52 2.13z" fill="#bfc1c3"/><path d="M326.92 230.38a9.13 9.13 0 0 1 2.32 2.49 5.91 5.91 0 0 1-3-1.82z" fill="#616264"/><path d="M406 173.94l.5-.5a7.05 7.05 0 0 1 3.06 1.91 8.58 8.58 0 0 1-3.56-1.41z" fill="#acaeb0"/><path d="M326.46 215.05l.45-.46a2.76 2.76 0 0 1 1.3 1.84 2 2 0 0 1-1.75-1.38z" fill="#abadb0"/><path d="M316.25 213.72l.6-.59a9.3 9.3 0 0 1 1.36 2.47c.15.12.2.24.16.37s-.08.2-.13.2a8.89 8.89 0 0 1-1.99-2.45z" fill="#b5b7ba"/><path d="M318.24 216.17v-.57a2.73 2.73 0 0 1 1.26 1.87 1.38 1.38 0 0 1-1.26-1.3z" fill="#5d5e60"/><path d="M331.72 137.79l-.51.48a3.87 3.87 0 0 1-1.82-1.79 4.52 4.52 0 0 1 2.33 1.31z" fill="#b2b4b7"/><path d="M388.35 166.06l-.46.51a3.28 3.28 0 0 1-2.08-1.36 4.69 4.69 0 0 1 2.54.85z" fill="#95979a"/><path d="M374.77 159.51l.56-.55a1.93 1.93 0 0 1 1.28 1.24 2.23 2.23 0 0 1-1.84-.69z" fill="#c6c7c9"/><path d="M343.7 268.44l.48.51a1.47 1.47 0 0 1-.39.24c-.41.12-1 .41-1.15-.12s.56-.62 1.06-.63z" fill="#9fa1a4"/><path d="M429.06 190.19l.56-.57a2.2 2.2 0 0 1 1.24 1.31 2.08 2.08 0 0 1-1.8-.74z" fill="#c6c8ca"/><path d="M407.6 219.83l-.6.59a2 2 0 0 1-1.24-1.28 2.22 2.22 0 0 1 1.84.69z" fill="#ccced0"/><path d="M395.51 182.57a7.43 7.43 0 0 1 3 .35 6 6 0 0 1-3-.35z" fill="#3a393b"/><path d="M323 171.48c-.18.06-.34.18-.41.14a3 3 0 0 1-.45-.43c.12 0 .28-.16.37-.12a2.48 2.48 0 0 1 .49.41z" fill="#7c7e81"/><path d="M325.41 133.56c.52 0 1.07-.24 1.46.32-.64.59-1.07.23-1.46-.32z" fill="#717275"/><path d="M326.75 137.38c-.31-.44-1.33-.69-.37-1.46l1.06 1.37z" fill="#d2d3d5"/><path d="M352.78 189.33c-.19.12-.34.28-.4.25-.26-.12-.59-.25-.71-.47s.17-.33.35-.26a5 5 0 0 1 .76.48z" fill="#97999c"/><path d="M328 86.94c-.08.23-.24.39-.48.35s-.34-.25-.23-.49.3-.37.54-.22.08.23.17.36z" fill="#9b9da0"/><path d="M324 215v.69a3.91 3.91 0 0 1-.54-.45c-.19-.22-.46-.58-.1-.76s.49.15.64.52z" fill="#9a9c9f"/><path d="M268.84 382.21a16.23 16.23 0 0 0-6-3.43c-1.74-.56-3.51-1-5.48-1.61a10.76 10.76 0 0 1 3.13-1.2 20.6 20.6 0 0 0 6.15-3.15c3.85-3 4.31-7.67 1.11-11.35a12.73 12.73 0 0 0-6-3.77 31.89 31.89 0 0 0-9.45-1.38h-29.75c-.56 0-1.12 0-1.68.05a.5.5 0 0 0-.49.43.55.55 0 0 0 .51.66c.39.07.79.06 1.19.1 5.14.45 7.26 2.7 7.27 7.87v25.43c0 5-2.19 7.37-7.11 7.78-.68.06-1.91-.44-1.82.81.07.92 1.19.5 1.82.5h32.14a29 29 0 0 0 7.58-1.08 16.42 16.42 0 0 0 6.81-3.38 8.56 8.56 0 0 0 .07-13.28zm-28.58-24.69c3.68.07 7.35.06 11 .11a10.2 10.2 0 0 1 4 .89 6.23 6.23 0 0 1 3.51 3.43 11.42 11.42 0 0 1-.51 10.17c-1.48 2.68-4.1 3.76-7 4.13-3.81.49-7.66.15-11.5.21-1 0-1.16-.6-1.15-1.41v-8.16-7.67c-.03-1.22.39-1.72 1.65-1.7zm12.64 40.8c-4.34.89-8.77.34-13.15.4-1 0-1.13-.65-1.12-1.45v-9.11-8.87c0-1 .23-1.5 1.33-1.48 4.15.07 8.32-.22 12.44.52 4.58.82 7.92 3.88 8.61 7.89 1.04 6.06-2.09 10.88-8.11 12.1z" fill="#393839"/><path d="M329.6 363.2c-10.4-10.58-29.89-10.3-40 .57-8.17 8.77-7.94 21.17.62 29.42 5.45 5.26 12.14 7.47 19.21 7.66a29 29 0 0 0 17.47-5.34c11.1-8.04 12.3-22.51 2.7-32.31zm-4.73 14.94a31 31 0 0 1-1.75 11.29 18.39 18.39 0 0 1-3 5.41 13.1 13.1 0 0 1-19.53.74 18.42 18.42 0 0 1-4.36-7.91 35.11 35.11 0 0 1 0-18.94 20.39 20.39 0 0 1 2.94-6.26 12.82 12.82 0 0 1 20.78-1c3.29 3.89 4.49 8.58 5 13.51.05 1.07-.08 2.12-.08 3.16z" fill="#383739"/><path d="M302 22.58a26.93 26.93 0 0 1-2-6.58c-.67-3.51-1.48-7-2.38-10.46a7.25 7.25 0 0 1-.37-3.17c1.17.44 1.32 1.46 1.64 2.28a58.68 58.68 0 0 1 2.94 11.54c.25 1.48.4 3 .59 4.48.09.66.75 1.52-.42 1.91z" fill="#f3f3f4"/><path d="M317.2 13.56c.44.58.56 1-.27 1.43a7.87 7.87 0 0 0-2.62 1.35c-2.57.87-4.22 3.06-6.41 4.61.21-3.33 3.56-7.28 6.49-7.82a5.88 5.88 0 0 1 2.81.43z" fill="#f5f5f5"/><path d="M302 22.58c.45-.58.28-1.31.47-1.95a7.91 7.91 0 0 1-.12 5.46c-.16-1.17.13-2.39-.35-3.51z" fill="#b6b8bb"/><path d="M306.35 16a3.12 3.12 0 0 1 0-2.07c.48 0 .35.35.38.58a3.28 3.28 0 0 1 0 .7c-.05.32.02.65-.38.79z" fill="#9a9c9f"/><path d="M295.92 22c.07.11.23.26.2.35s-.22.16-.37 0a.4.4 0 0 1-.11-.2c-.02-.15.08-.26.28-.15z" fill="#7d7f81"/><path d="M313.22 18.51c-.18.08-.3 0-.31-.16a.31.31 0 0 1 .09-.2c.12-.14.3-.16.36 0s-.08.23-.14.36z" fill="#77797b"/><path d="M590.86 425.4c-2-.11-4.28-.64-6.61-.09a3.3 3.3 0 0 1-3.8-1.35 4.63 4.63 0 0 1-.12-4.79 6.09 6.09 0 0 1 4.43-3.32 9.25 9.25 0 0 1 9.21 3.24c1.19 1.38 2 2.91 1.11 4.8s-2.46 1.45-4.22 1.51zM596.16 428.94a8.2 8.2 0 0 1-4 3.69 13.78 13.78 0 0 1-10.48-.1 4.48 4.48 0 0 1-2.23-1.75c-.21-.33-.44-.71-.2-1.11a.85.85 0 0 1 1-.31c.69.19 1.38.41 2.05.65 1 .38 2.08.82 3.14 1.16a8 8 0 0 0 6.9-.73 7.75 7.75 0 0 1 3.82-1.5z" fill="#a0a4ab"/><path d="M619.33 417.14c-5.62 2.93-11.42 5.34-17.84 5.82-.4 0-.81.11-.73.89a21.34 21.34 0 0 0 7.67-1.19 71.61 71.61 0 0 0 10-4 31.9 31.9 0 0 1 7-2.49 12.06 12.06 0 0 1 5-.15 32.31 32.31 0 0 1 7.9 2.68c.19-.18.39-.35.59-.52-6.39-3.91-12.86-4.56-19.59-1.04z" fill="#343132"/><path d="M638.26 418.71c1.27 1.14 3 1.68 4.09 3.35-1 .52-2 .92-2.84 1.45a3.5 3.5 0 0 0-1.87 3.59 3.78 3.78 0 0 0 3.44 2.53 6.31 6.31 0 0 0 1.44 0c3-.36 4.09-2.29 3-5.11-.25-.61-1-1.06-.67-1.9a26.83 26.83 0 0 1 4.55-.3c1.83-.08 3.67.24 5.48-.22-2.14 0-1.51-.45-3.65-.49h-5.57a3.5 3.5 0 0 1-3.54-1.16 8.5 8.5 0 0 0-3.23-2.27m6.22 8.53c-.17 1.12-1.12 1.83-2.64 2l-1 .05a6.85 6.85 0 0 1-1.38-.22 2 2 0 0 1-1-3.08 5.84 5.84 0 0 1 3.49-2.37 1.37 1.37 0 0 1 .91.09c.7.36 1.73 2.62 1.58 3.54z" fill="#343132"/><path d="M654.84 422.08l2.71-.15c-1.23-.18-.72-.33-1.09-.5-3.61.12-7.23-.15-10.84.19" fill="#343132"/><path d="M347.5 219a122.87 122.87 0 0 1-3.81-13.16 2.84 2.84 0 0 0-.47-1.32 18.56 18.56 0 0 0-2.47-7.9c-.49-.75-1.05-1.85-.26-2.37 1-.64 1.46.6 1.91 1.26a43.14 43.14 0 0 1 4.14 7.8 88.43 88.43 0 0 1 4.83 14.69c0 2.39 1.49 4.26 2.55 6.73-3.05-1.38-4.14-4.24-6.42-5.73z" fill="#3a393a"/><path d="M358.13 211.3a5.68 5.68 0 0 1 2.59 2.72 17.66 17.66 0 0 0 4.14 4.6A75.57 75.57 0 0 1 372 225a27.81 27.81 0 0 1 2.6 3.11 15.06 15.06 0 0 0 4.86 4.53 4.05 4.05 0 0 1 2.15 1.91 4.17 4.17 0 0 1-4.49-.83c-3.47-2.8-7-5.58-9.77-9.13a52.78 52.78 0 0 0-3.58-4.17c-2.32-2.36-3.87-5.26-5.57-8-.08-.26-.02-.54-.07-1.12z" fill="#3b3a3b"/><path d="M301.47 129.58l.53-.48c4 .26 4.06.18 3-3.77-.28-1.07-.54-2.14-.81-3.21-.13-.47-.44-1 .46-1.05a35.12 35.12 0 0 0 1.56 3.48 6.52 6.52 0 0 0 5.37 3.5c1.56.11 2-.37 1.86-1.92a48.36 48.36 0 0 0-1.75-6.92 5.88 5.88 0 0 1-.57-2.75c.9.29.83 1.2 1.3 1.69a6.24 6.24 0 0 1 1.38 3.44c.36 1.87 1.24 3.62 1.18 5.58-.06 1.77-.46 2.28-2.23 2.42a6.81 6.81 0 0 1-5.77-2.07c-.56.7-.26 1.72-1.08 2.08a4.4 4.4 0 0 1-2.35.29c-.67-.09-1.37-.21-2.08-.31z" fill="#444345"/><path d="M292.75 168.43c1.31-1.75 3.1-3.23 3.17-5.68a.8.8 0 0 1 .59-.68c.37-.11.59.15.76.42a4.16 4.16 0 0 1-1.6 6.09c-1.13.62-2 0-3-.2.03 0 .08.05.08.05z" fill="#464648"/><path d="M304.69 121.07l-.46 1.05a18.85 18.85 0 0 1-1.66-7c1.29 1.78 1.59 3.88 2.12 5.95z" fill="#616265"/><path d="M296.52 117.26l-.92 2.41a7.21 7.21 0 0 1-.92-2.88c-.05-.31-.33-1.19.37-.89.43.18 1.53-.65 1.41.67a3.28 3.28 0 0 0 .06.69z" fill="#828486"/><path d="M327.87 122.92l-.53.51a6.41 6.41 0 0 1-2.53-2.58 8.26 8.26 0 0 1 3.06 2.07z" fill="#757679"/><path d="M313.84 121.59a11.54 11.54 0 0 1-1.38-3.44l1-.47c-.2 1.26.59 2.28.84 3.43z" fill="#cdced0"/><path d="M294.22 138.32c-.19.35-.37.71-.56 1.07a10.75 10.75 0 0 1-1.23-4.45 6.27 6.27 0 0 1 1.79 3.38z" fill="#696a6d"/><path d="M312.47 133l-.52.52a8 8 0 0 1-2.11-3 5 5 0 0 1 2.63 2.48z" fill="#6e7072"/><path d="M371 245.31c-.64-2.13-2.22-3.64-3.57-5.29a2.2 2.2 0 0 0-1.45-.78c-2.76-.32-4.08-2.48-5.64-4.35-.32-.38-.5-.92-.09-1.29s.83.13 1.19.38a11 11 0 0 1 1.31 1 3.07 3.07 0 0 0 3.89.75c.4-.18.52 0 .53.39.71 2.76 1.65 3.58 4.44 4a5.28 5.28 0 0 1 1.59.44c1.3.65 1.44 1.43.44 2.56-.76.87-1.22 2.12-2.62 2.22z" fill="#fff"/><path d="M367.21 236.15a.54.54 0 0 0-.53-.39c-3.38-1.95-5.78-4.93-8.28-7.81a5 5 0 0 1-1.61-3.08c4.53 4.93 10.1 8.58 15.19 12.81.11.45 0 .67-.51.53-1.64-.21-2.86-1.34-4.26-2.06z" fill="#424244"/><path d="M371.47 238.21l.51-.53a1.64 1.64 0 0 1 1.17 1.14 1.74 1.74 0 0 1-1.68-.61z" fill="#a1a3a6"/><path d="M321.18 145.94a4.17 4.17 0 0 0 4.08.58 3 3 0 0 1 3.72 1.27 11.83 11.83 0 0 0 3.06 2.66 10.32 10.32 0 0 1 3.76 5.41c.7 2.2.17 3.1-2 3.69a12.74 12.74 0 0 1-3.07.4c-2.77.08-2.78.1-3.79-2.55a9.19 9.19 0 0 0-2-3.24 24.27 24.27 0 0 0-2.53-2.54c-1.6-1.2-2.37-2.62-1.82-4.61-.3-.64-.29-1.1.59-1.07z" fill="#fefefe"/><path d="M322.74 163.35c-1.13.16-1.85-.32-2.48-1.68A24 24 0 0 0 311 151.6c-.63-.4-1.8-.59-1.39-1.6.49-1.2 1.37-.12 2 .06a12 12 0 0 0 6.38 0 1.65 1.65 0 0 1 1.76.28c2.46 2.31 4.79 4.72 6 8a8.84 8.84 0 0 1 .35 1.14c.49 2.59-.5 3.83-3.36 3.87z" fill="#fdfdfd"/><path d="M321.18 145.94l-.6 1.07a4.12 4.12 0 0 1-.76-2.19c.76.08 1.06.6 1.36 1.12z" fill="#d0d1d3"/><path d="M586.89 422.57a6.22 6.22 0 0 1-2.92-.48 1.63 1.63 0 0 1-.58-2.59 4.17 4.17 0 0 1 6.37.28c.77 1.21.48 2.12-.91 2.53a11.13 11.13 0 0 1-1.96.26z" fill="#f3f3f4"/></svg>