<svg class="icons icon-adults" xmlns="http://www.w3.org/2000/svg" viewBox="0 0 24 24"><path d="M23.16 18.54c-6.57-2.53-7.67-3.61-7.84-3.94v-.87A7.84 7.84 0 0 0 17 10.67a2.42 2.42 0 0 0 .84-1.51 2.37 2.37 0 0 0-.41-1.69V5c0-3.19-2-5-5.41-5S6.59 1.9 6.59 5v2.47A2.38 2.38 0 0 0 7 10.66a8 8 0 0 0 1.67 3.07v.87c-.17.33-1.27 1.4-7.84 3.94A1.32 1.32 0 0 0 0 19.78v2.91A1.32 1.32 0 0 0 1.31 24h21.38A1.32 1.32 0 0 0 24 22.69v-2.91a1.35 1.35 0 0 0-.84-1.24zM23 22.69a.32.32 0 0 1-.32.32H1.31a.31.31 0 0 1-.31-.32v-2.91a.32.32 0 0 1 .2-.3c7-2.72 8.22-3.87 8.46-4.64a.32.32 0 0 0 0-.14v-1.17a.52.52 0 0 0-.14-.35 6.72 6.72 0 0 1-1.61-2.95.52.52 0 0 0-.17-.23 1.38 1.38 0 0 1-.57-1 1.4 1.4 0 0 1 .3-1 .49.49 0 0 0 .12-.32V5c0-2.59 1.56-4 4.41-4s4.41 1.39 4.41 4v2.6a.49.49 0 0 0 .11.31 1.38 1.38 0 0 1-.26 2 .48.48 0 0 0-.19.27 6.83 6.83 0 0 1-1.61 2.95.52.52 0 0 0-.14.35v1.16a.77.77 0 0 0 0 .15c.24.77 1.43 1.92 8.46 4.63a.34.34 0 0 1 .2.31z"/></svg>