<svg class="icons icon-calendar" id="Layer_1" xmlns="http://www.w3.org/2000/svg" viewBox="0 0 47 50.6"><style>.st0{stroke:#6B205F;fill:#6B205F;stroke-miterlimit:10;} .st1{fill:none;}</style><path d="M22.5 48.42c-.29 0-.48-.07-.52-.09L2.56 37.12c-.21-.12-.52-.66-.52-.91V13.79c0-.25.31-.78.52-.91L21.98 1.67c.04-.02.23-.09.52-.09.29 0 .48.07.52.09l19.42 11.21c.21.12.52.66.52.9V36.2c0 .25-.31.78-.52.91L23.02 48.33c-.04.02-.23.09-.52.09" fill="#FFF"/><path d="M42.71 11.59L24 .79c-.41-.24-.96-.36-1.5-.36s-1.09.12-1.5.36L2.29 11.59c-.83.48-1.5 1.65-1.5 2.61v21.6c0 .96.68 2.13 1.5 2.61L21 49.21c.41.24.96.36 1.5.36s1.09-.12 1.5-.36l18.71-10.8c.83-.48 1.5-1.65 1.5-2.61V14.2c.01-.96-.67-2.13-1.5-2.61m-1 25.08L23 47.48c-.04.02-.22.09-.5.09s-.46-.07-.5-.09L3.28 36.67c-.21-.12-.5-.63-.5-.87V14.2c0-.24.3-.75.5-.87L22 2.52c.04-.02.22-.09.5-.09s.46.07.5.09l18.71 10.8c.21.12.5.63.5.87V35.8c.01.24-.29.75-.5.87" fill="#CBCBCB"/><g transform="matrix(.5 0 0 .5 10.5 11)"><path class="st0" d="M12 42.5H7.8v-4.3c0-.6-.4-1-1-1s-1 .4-1 1v4.3H1.5c-.6 0-1 .4-1 1s.4 1 1 1h4.3v4.3c0 .6.4 1 1 1s1-.4 1-1v-4.3H12c.6 0 1-.4 1-1s-.4-1-1-1z"/><path class="st1" d="M25.8 7.1c-.6.4-1.3.6-2 .6-.8 0-1.5-.2-2-.6l-5.4 4.4h14.8l-5.4-4.4z"/><path class="st0" d="M9.1 31.9c0 .6-.4 1-1 1h-.5c-.6 0-1-.4-1-1v-.5c0-.6.4-1 1-1h.5c.6 0 1 .4 1 1v.5zm5.3 0c0 .6-.4 1-1 1h-.5c-.6 0-1-.4-1-1v-.5c0-.6.4-1 1-1h.5c.6 0 1 .4 1 1v.5zm23.7-6.4c0-.6.4-1 1-1h.5c.6 0 1 .4 1 1v.5c0 .6-.4 1-1 1h-.5c-.6 0-1-.4-1-1v-.5zm0 5.9c0-.6.4-1 1-1h.5c.6 0 1 .4 1 1v.5c0 .6-.4 1-1 1h-.5c-.6 0-1-.4-1-1v-.5zm0 5.8c0-.6.4-1 1-1h.5c.6 0 1 .4 1 1v.5c0 .6-.4 1-1 1h-.5c-.6 0-1-.4-1-1v-.5zm-5.3-11.7c0-.6.4-1 1-1h.5c.6 0 1 .4 1 1v.5c0 .6-.4 1-1 1h-.5c-.6 0-1-.4-1-1v-.5zm0 5.9c0-.6.4-1 1-1h.5c.6 0 1 .4 1 1v.5c0 .6-.4 1-1 1h-.5c-.6 0-1-.4-1-1v-.5zm0 5.8c0-.6.4-1 1-1h.5c.6 0 1 .4 1 1v.5c0 .6-.4 1-1 1h-.5c-.6 0-1-.4-1-1v-.5zm-5.2-11.7c0-.6.4-1 1-1h.5c.6 0 1 .4 1 1v.5c0 .6-.4 1-1 1h-.5c-.6 0-1-.4-1-1v-.5zm0 5.9c0-.6.4-1 1-1h.5c.6 0 1 .4 1 1v.5c0 .6-.4 1-1 1h-.5c-.6 0-1-.4-1-1v-.5zm0 5.8c0-.6.4-1 1-1h.5c.6 0 1 .4 1 1v.5c0 .6-.4 1-1 1h-.5c-.6 0-1-.4-1-1v-.5zm0 5.9c0-.6.4-1 1-1h.5c.6 0 1 .4 1 1v.5c0 .6-.4 1-1 1h-.5c-.6 0-1-.4-1-1v-.5zm-5.3-11.7c0-.6.4-1 1-1h.5c.6 0 1 .4 1 1v.5c0 .6-.4 1-1 1h-.5c-.6 0-1-.4-1-1v-.5zm0 5.8c0-.6.4-1 1-1h.5c.6 0 1 .4 1 1v.5c0 .6-.4 1-1 1h-.5c-.6 0-1-.4-1-1v-.5zm0 5.9c0-.6.4-1 1-1h.5c.6 0 1 .4 1 1v.5c0 .6-.4 1-1 1h-.5c-.6 0-1-.4-1-1v-.5zm-5.2-11.7c0-.6.4-1 1-1h.5c.6 0 1 .4 1 1v.5c0 .6-.4 1-1 1h-.5c-.6 0-1-.4-1-1v-.5zm0 5.8c0-.6.4-1 1-1h.5c.6 0 1 .4 1 1v.5c0 .6-.4 1-1 1h-.5c-.6 0-1-.4-1-1v-.5zm0 5.9c0-.6.4-1 1-1h.5c.6 0 1 .4 1 1v.5c0 .6-.4 1-1 1h-.5c-.6 0-1-.4-1-1v-.5z"/><circle class="st1" cx="23.8" cy="4.1" r="1.6"/><path class="st1" d="M3 13.6h41.4v5.3H3z"/><path class="st0" d="M45.5 11.6H34.3l-7.2-6c.2-.4.3-.9.3-1.5 0-2-1.6-3.6-3.6-3.6s-3.6 1.6-3.6 3.6c0 .5.1 1 .3 1.4l-7.2 6H2c-.6 0-1 .4-1 1v22.1h2V20.8h41.4v27.3h-29v2h30c.6 0 1-.4 1-1V12.6c.1-.6-.4-1-.9-1zM23.8 2.5c.9 0 1.6.7 1.6 1.6 0 .9-.7 1.6-1.6 1.6-.9 0-1.6-.7-1.6-1.6-.1-.9.7-1.6 1.6-1.6zm-2.1 4.6c.6.4 1.3.6 2 .6.8 0 1.5-.2 2-.6l5.4 4.4H16.4l5.3-4.4zm22.8 11.7H3v-5.3h41.4v5.3z"/><path class="st0" d="M28.6 27h.5c.6 0 1-.4 1-1v-.5c0-.6-.4-1-1-1h-.5c-.6 0-1 .4-1 1v.5c0 .6.4 1 1 1zM33.8 27h.5c.6 0 1-.4 1-1v-.5c0-.6-.4-1-1-1h-.5c-.6 0-1 .4-1 1v.5c0 .6.5 1 1 1zM39.1 27h.5c.6 0 1-.4 1-1v-.5c0-.6-.4-1-1-1h-.5c-.6 0-1 .4-1 1v.5c0 .6.4 1 1 1zM8.1 30.4h-.5c-.6 0-1 .4-1 1v.5c0 .6.4 1 1 1h.5c.6 0 1-.4 1-1v-.5c0-.6-.4-1-1-1zM13.4 30.4h-.5c-.6 0-1 .4-1 1v.5c0 .6.4 1 1 1h.5c.6 0 1-.4 1-1v-.5c0-.6-.5-1-1-1zM18.1 32.9h.5c.6 0 1-.4 1-1v-.5c0-.6-.4-1-1-1h-.5c-.6 0-1 .4-1 1v.5c0 .6.4 1 1 1zM23.3 32.9h.5c.6 0 1-.4 1-1v-.5c0-.6-.4-1-1-1h-.5c-.6 0-1 .4-1 1v.5c0 .6.5 1 1 1zM28.6 32.9h.5c.6 0 1-.4 1-1v-.5c0-.6-.4-1-1-1h-.5c-.6 0-1 .4-1 1v.5c0 .6.4 1 1 1zM33.8 32.9h.5c.6 0 1-.4 1-1v-.5c0-.6-.4-1-1-1h-.5c-.6 0-1 .4-1 1v.5c0 .6.5 1 1 1zM39.1 32.9h.5c.6 0 1-.4 1-1v-.5c0-.6-.4-1-1-1h-.5c-.6 0-1 .4-1 1v.5c0 .6.4 1 1 1zM18.1 38.8h.5c.6 0 1-.4 1-1v-.5c0-.6-.4-1-1-1h-.5c-.6 0-1 .4-1 1v.5c0 .5.4 1 1 1zM12.8 38.9h.5c.6 0 1-.4 1-1v-.5c0-.6-.4-1-1-1h-.5c-.6 0-1 .4-1 1v.5c0 .5.5 1 1 1zM23.3 38.8h.5c.6 0 1-.4 1-1v-.5c0-.6-.4-1-1-1h-.5c-.6 0-1 .4-1 1v.5c0 .5.5 1 1 1zM28.6 38.8h.5c.6 0 1-.4 1-1v-.5c0-.6-.4-1-1-1h-.5c-.6 0-1 .4-1 1v.5c0 .5.4 1 1 1zM33.8 38.8h.5c.6 0 1-.4 1-1v-.5c0-.6-.4-1-1-1h-.5c-.6 0-1 .4-1 1v.5c0 .5.5 1 1 1zM39.1 38.8h.5c.6 0 1-.4 1-1v-.5c0-.6-.4-1-1-1h-.5c-.6 0-1 .4-1 1v.5c0 .5.4 1 1 1zM18.1 44.6h.5c.6 0 1-.4 1-1v-.5c0-.6-.4-1-1-1h-.5c-.6 0-1 .4-1 1v.5c0 .6.4 1 1 1zM23.3 44.6h.5c.6 0 1-.4 1-1v-.5c0-.6-.4-1-1-1h-.5c-.6 0-1 .4-1 1v.5c0 .6.5 1 1 1zM28.6 44.6h.5c.6 0 1-.4 1-1v-.5c0-.6-.4-1-1-1h-.5c-.6 0-1 .4-1 1v.5c0 .6.4 1 1 1z"/></g></svg>