<svg xmlns="http://www.w3.org/2000/svg" xmlns:xlink="http://www.w3.org/1999/xlink" version="1.1" class="icons icon-checkin" id="icon-checkin" x="0" y="0" width="395.5" height="427" viewBox="0 0 395.5 427" enable-background="new 0 0 395.5 427" xml:space="preserve"><g><path d="M389.9 159.4L203.2 4.5c-3.1-2.6-7.7-2.6-10.9 0L5.6 159.4c-1.9 1.6-3.1 4-3.1 6.5V416c0 4.7 3.8 8.5 8.5 8.5h373.5c4.7 0 8.5-3.8 8.5-8.5V165.9C393 163.4 391.9 161 389.9 159.4M376 407.5H19.5V169.9L197.7 22 376 169.9V407.5z"/><path d="M389.9 159.4L203.2 4.5c-3.1-2.6-7.7-2.6-10.9 0L5.6 159.4c-1.9 1.6-3.1 4-3.1 6.5V416c0 4.7 3.8 8.5 8.5 8.5h373.5c4.7 0 8.5-3.8 8.5-8.5V165.9C393 163.4 391.9 161 389.9 159.4zM376 407.5H19.5V169.9L197.7 22 376 169.9V407.5z"/></g></svg>