<svg class="icons icon-children" xmlns="http://www.w3.org/2000/svg" viewBox="0 0 24 24"><path d="M3.7 9.92a.93.93 0 0 0-.7-.77V7.4a.5.5 0 0 0-1 0v1.73a.9.9 0 0 0-.79.78L1 11.1a1 1 0 0 0 1 .9h1a1 1 0 0 0 1-.9.59.59 0 0 0 0-.1zM2 11l.17-1v.1h.51L3 11z"/><path d="M23.31 4l-11.1-2.5a.41.41 0 0 0-.22 0L.89 4H.78l-.1.06a.1.1 0 0 1-.05 0l-.07.11a.39.39 0 0 0 0 .18.83.83 0 0 0 0 .15v.05a.36.36 0 0 0 .07.1h.05l.09.07.07.28 4.7 1.23-.42 7.07h-.11a.43.43 0 0 0-.24.22 1.7 1.7 0 0 0-.67 1.38 1.67 1.67 0 0 0 1.26 1.65c.55 3.17 4.09 6.05 6.64 6.05s6.19-2.81 6.66-6.06a1.65 1.65 0 0 0 1.24-1.64 1.7 1.7 0 0 0-.67-1.34.43.43 0 0 0-.24-.22 1.93 1.93 0 0 0-.42-.12L18.36 10a.5.5 0 0 0 0-.38l-.21-3.22L23.33 5a.5.5 0 0 0 0-1zm-5.73 9.34a1.78 1.78 0 0 0-.43.24 2.38 2.38 0 0 0-4.31-.4 1.42 1.42 0 0 0-1.69 0 2.38 2.38 0 0 0-4.3.42 2 2 0 0 0-.72-.34l.18-2.85a15.38 15.38 0 0 0 5.79 1 14.42 14.42 0 0 0 5.29-.87zM16.3 14.4a1.4 1.4 0 1 1-1.4-1.4 1.4 1.4 0 0 1 1.4 1.4zm-5.8 0A1.4 1.4 0 1 1 9.1 13a1.4 1.4 0 0 1 1.4 1.4zm7.7 1.2a.51.51 0 0 0-.5.47c-.18 3.05-3.58 5.53-5.7 5.53s-5.42-2.54-5.7-5.55a.51.51 0 0 0-.5-.45.66.66 0 0 1-.7-.7.72.72 0 0 1 .42-.65 1.05 1.05 0 0 1 1 .39.44.44 0 0 0 .23.15 2.39 2.39 0 0 0 4.76-.36.5.5 0 0 1 .5-.5.59.59 0 0 1 .5.5 2.39 2.39 0 0 0 4.76.36.44.44 0 0 0 .23-.15 1.05 1.05 0 0 1 1-.39.72.72 0 0 1 .42.65.65.65 0 0 1-.72.7zm-.87-6.11a13.53 13.53 0 0 1-5.23.91 14 14 0 0 1-5.72-1.05l.18-2.88L12 7.88h.26l4.88-1.28zM12.1 6.88l-5.73-1.5a.62.62 0 0 0-.24-.08L4.89 5h6.71a.5.5 0 1 0 0-1H5.5l6.6-1.49 9 2z"/><path d="M13.05 18a1.62 1.62 0 0 1-1.08.52 1.86 1.86 0 0 1-1.11-.52.5.5 0 1 0-.72.68 2.77 2.77 0 0 0 1.8.83 2.48 2.48 0 0 0 1.77-.82.49.49 0 1 0-.7-.7zM8.6 14.6a.5.5 0 0 0 .5.5h.1a.5.5 0 0 0 0-1h-.1a.5.5 0 0 0-.5.5zM14.8 14.1a.5.5 0 0 0 0 1h.1a.5.5 0 0 0 0-1z"/></svg>