<?xml version="1.0" standalone="no"?>
<!DOCTYPE svg PUBLIC "-//W3C//DTD SVG 20010904//EN"
 "http://www.w3.org/TR/2001/REC-SVG-20010904/DTD/svg10.dtd">
<svg class="clear-text-icon" version="1.0" xmlns="http://www.w3.org/2000/svg"
 width="40px" height="40px" viewBox="0 0 2000 2000"
 preserveAspectRatio="xMidYMid meet">
<g transform="translate(0.000000,2000.000000) scale(0.100000,-0.100000)"
fill="#fff" stroke="none">
<path d="M9620 19994 c-459 -25 -722 -49 -1070 -100 -278 -40 -698 -122 -965
-188 -1344 -334 -2620 -954 -3720 -1810 -1768 -1374 -3034 -3316 -3571 -5481
-137 -551 -229 -1146 -276 -1790 -16 -223 -16 -1027 0 -1250 103 -1404 424
-2606 1013 -3795 496 -1003 1113 -1863 1900 -2649 1638 -1639 3787 -2659 6069
-2880 392 -39 541 -45 1000 -45 459 0 608 6 1000 45 1019 99 2034 363 2998
781 220 95 692 331 917 458 1580 894 2901 2215 3795 3795 127 225 363 697 458
917 418 964 682 1979 781 2998 39 392 45 541 45 1000 0 459 -6 608 -45 1000
-249 2566 -1508 4955 -3499 6641 -1062 899 -2333 1581 -3663 1965 -682 197
-1379 319 -2142 374 -147 11 -897 21 -1025 14z m2458 -5861 l2077 2077 1103
-1102 1102 -1103 -2077 -2077 -2078 -2078 2078 -2078 2077 -2077 -1098 -1098
c-603 -603 -1102 -1097 -1107 -1097 -5 0 -943 933 -2082 2072 l-2073 2073
-2073 -2073 c-1139 -1139 -2077 -2072 -2082 -2072 -5 0 -504 494 -1107 1097
l-1098 1098 2077 2077 2078 2078 -2078 2078 -2077 2077 1102 1103 1103 1102
2077 -2077 2078 -2078 2078 2078z"/>
</g>
</svg>