<svg class="icons icon-company" id="icon-company" xmlns="http://www.w3.org/2000/svg" viewBox="0 0 43.45 49.09"><path class="cls-1" d="M790.06 642.1h5.32a1 1 0 001-1v-5.18a1 1 0 00-1-1h-5.32a1 1 0 00-1 1v5.18a1 1 0 001 1zm1-5.18h3.32v3.18h-3.32zM790.06 651.48h5.32a1 1 0 001-1v-5.19a1 1 0 00-1-1h-5.32a1 1 0 00-1 1v5.19a1 1 0 001 1zm1-5.19h3.32v3.19h-3.32zM790.06 660.86h5.32a1 1 0 001-1v-5.19a1 1 0 00-1-1h-5.32a1 1 0 00-1 1v5.19a1 1 0 001 1zm1-5.19h3.32v3.19h-3.32z" transform="translate(-778.71 -626.97)"/><path class="cls-1" d="M821.38 647.17l-14.64-3.29v-15.65a.45.45 0 000-.11.8.8 0 000-.31 1 1 0 00-1.14-.83l-26 4a1 1 0 00-.84 1.14V674.99a1 1 0 001 1h41.45a1 1 0 001-1v-26.84a1 1 0 00-.83-.98zm-40.67-14l24-3.74v44.66h-8.36v-9.29a1 1 0 00-1-1h-5.32a1 1 0 00-1 1v9.29h-8.35zm10.35 40.92v-8.29h3.32v8.29zm29.1 0h-5.64V669a1 1 0 00-1-1h-.15a1 1 0 00-1 1v5.1h-5.63v-28.17l13.42 3z" transform="translate(-778.71 -626.97)"/><rect class="cls-1" x="33.66" y="25.49" width="2.16" height="5.07" rx="1"/><rect class="cls-1" x="33.66" y="32.6" width="2.16" height="5.07" rx="1"/></svg>