<svg xmlns="http://www.w3.org/2000/svg" xmlns:xlink="http://www.w3.org/1999/xlink" version="1.1" class="icons icon-confirmation" id="icon-confirmation" x="0" y="0" viewBox="0 0 24.1 20.6" enable-background="new 0 0 24.1 20.6" xml:space="preserve"><g><path d="M24 0.6c-0.1-0.1-0.2-0.2-0.4-0.2L8.6 0C8.3 0 8.1 0.2 8 0.5c0 0.1-0.6 8.3-2.6 12.8 -0.1 0.2 0 0.5 0.2 0.7 0.2 0.1 0.5 0 0.7-0.2C8.2 9.6 8.8 2.9 9 1l14.1 0.4c-0.8 8.5-2.7 17.7-5.2 18.2 -1 0.2-2.3-1.3-3.6-4.1 -0.1-0.2-0.2-0.3-0.4-0.3L0.5 14.9c-0.1 0-0.3 0.1-0.4 0.2C0 15.2 0 15.4 0 15.5c0 0.2 1.1 4.8 4.8 4.9 4.4 0.1 12.8 0.2 12.9 0.2 0 0 0 0 0 0 0.1 0 0.1 0 0.2 0 0.1 0 0.1 0 0.2 0 4.1-0.7 5.7-15.2 6-19.6C24.2 0.8 24.1 0.7 24 0.6zM4.9 19.4c-2.3-0.1-3.3-2.4-3.7-3.5l12.4 0.3c0.8 1.6 1.5 2.7 2.2 3.4C13 19.6 7.9 19.5 4.9 19.4z"/><path d="M19.3 5.8C19.3 5.8 19.3 5.8 19.3 5.8c0.3 0 0.5-0.2 0.5-0.5 0-0.3-0.2-0.5-0.5-0.5l-7.7-0.3c-0.3 0-0.5 0.2-0.5 0.5 0 0.3 0.2 0.5 0.5 0.5L19.3 5.8z"/><path d="M10.6 8.5c0 0.3 0.2 0.5 0.5 0.5l7.2 0.3c0 0 0 0 0 0 0.3 0 0.5-0.2 0.5-0.5 0-0.3-0.2-0.5-0.5-0.5L11.1 8C10.8 8 10.6 8.2 10.6 8.5z"/><path d="M9.7 12c0 0.3 0.2 0.5 0.5 0.5l4.1 0.1c0 0 0 0 0 0 0.3 0 0.5-0.2 0.5-0.5 0-0.3-0.2-0.5-0.5-0.5l-4.1-0.1C9.9 11.5 9.7 11.7 9.7 12z"/></g></svg>