<?xml version="1.0" encoding="utf-8"?>
<!-- Generator: Adobe Illustrator 19.2.1, SVG Export Plug-In . SVG Version: 6.00 Build 0)  -->
<!DOCTYPE svg PUBLIC "-//W3C//DTD SVG 1.1//EN" "http://www.w3.org/Graphics/SVG/1.1/DTD/svg11.dtd">
<svg version="1.1" id="Layer_1" class="icons icon-cc hi-tech-demo-icon hi-tech-demo-icon-orange" xmlns="http://www.w3.org/2000/svg" xmlns:xlink="http://www.w3.org/1999/xlink" x="0px" y="0px"
	 viewBox="0 0 2736 2016" style="enable-background:new 0 0 2736 2016;" xml:space="preserve">
<style type="text/css">
	.st0{fill:none;}
	.st1{fill:url(#SVGID_1_);}
	.st2{fill:none;stroke:#000000;stroke-width:9;stroke-linecap:round;stroke-miterlimit:10;}
	.st3{fill:url(#SVGID_2_);}
</style>
<pattern  width="72" height="72" patternUnits="userSpaceOnUse" id="USGS_20_Scrub" viewBox="2.6 -74.5 72 72" style="overflow:visible;">
	<g>
		<rect x="2.6" y="-74.5" class="st0" width="72" height="72"/>
		<g>
			<path d="M19.5,0c-0.3,0-0.7-0.1-0.9-0.4c-0.2-0.2-0.4-0.6-0.4-0.9c0-0.3,0.1-0.7,0.4-0.9c0.5-0.5,1.4-0.5,1.8,0
				c0.2,0.2,0.4,0.6,0.4,0.9c0,0.3-0.1,0.7-0.4,0.9C20.2-0.1,19.9,0,19.5,0z"/>
			<path d="M30.3,0c-0.3,0-0.7-0.1-0.9-0.4C29.1-0.6,29-1,29-1.3c0-0.3,0.1-0.7,0.4-0.9c0.5-0.5,1.4-0.5,1.8,0
				c0.2,0.2,0.4,0.6,0.4,0.9c0,0.3-0.1,0.7-0.4,0.9C31-0.1,30.6,0,30.3,0z"/>
		</g>
		<g>
			<path d="M25.8-67.5c-0.3,0-0.7-0.1-0.9-0.4c-0.2-0.2-0.4-0.6-0.4-0.9c0-0.3,0.1-0.7,0.4-0.9c0.5-0.5,1.4-0.5,1.8,0
				c0.2,0.2,0.4,0.6,0.4,0.9c0,0.3-0.1,0.7-0.4,0.9C26.5-67.6,26.1-67.5,25.8-67.5z"/>
			<path d="M17-65.5c-0.3,0-0.7-0.1-0.9-0.4c-0.2-0.2-0.4-0.6-0.4-0.9c0-0.3,0.1-0.7,0.4-0.9c0.5-0.5,1.4-0.5,1.8,0
				c0.2,0.2,0.4,0.6,0.4,0.9c0,0.3-0.1,0.7-0.4,0.9C17.7-65.6,17.4-65.5,17-65.5z"/>
			<path d="M17.3-69.8c-0.3,0-0.7-0.1-0.9-0.4C16.1-70.4,16-70.7,16-71c0-0.3,0.1-0.7,0.4-0.9c0.5-0.5,1.4-0.5,1.8,0
				c0.2,0.2,0.4,0.6,0.4,0.9c0,0.3-0.1,0.7-0.4,0.9C18-69.9,17.6-69.8,17.3-69.8z"/>
			<path d="M20.3-65.8c-0.3,0-0.7-0.1-0.9-0.4C19.1-66.4,19-66.7,19-67c0-0.3,0.1-0.7,0.4-0.9c0.5-0.5,1.4-0.5,1.8,0
				c0.2,0.2,0.4,0.6,0.4,0.9c0,0.3-0.1,0.7-0.4,0.9C21-65.9,20.6-65.8,20.3-65.8z"/>
			<path d="M22.5-69.2c-0.3,0-0.7-0.1-0.9-0.4c-0.2-0.2-0.4-0.6-0.4-0.9c0-0.3,0.1-0.7,0.4-0.9c0.5-0.5,1.4-0.5,1.8,0
				c0.2,0.2,0.4,0.6,0.4,0.9c0,0.3-0.1,0.7-0.4,0.9C23.2-69.4,22.9-69.2,22.5-69.2z"/>
			<path d="M31.5-68.2c-0.3,0-0.7-0.1-0.9-0.4c-0.2-0.2-0.4-0.6-0.4-0.9c0-0.3,0.1-0.7,0.4-0.9c0.5-0.5,1.4-0.5,1.8,0
				c0.2,0.2,0.4,0.6,0.4,0.9c0,0.3-0.1,0.7-0.4,0.9C32.2-68.4,31.9-68.2,31.5-68.2z"/>
			<path d="M27.5-70c-0.3,0-0.7-0.1-0.9-0.4c-0.2-0.2-0.4-0.6-0.4-0.9c0-0.3,0.1-0.7,0.4-0.9c0.5-0.5,1.4-0.5,1.8,0
				c0.2,0.2,0.4,0.6,0.4,0.9c0,0.3-0.1,0.7-0.4,0.9C28.2-70.1,27.9-70,27.5-70z"/>
			<path d="M19.5-72c-0.3,0-0.7-0.1-0.9-0.4c-0.2-0.2-0.4-0.6-0.4-0.9c0-0.3,0.1-0.7,0.4-0.9c0.5-0.5,1.4-0.5,1.8,0
				c0.2,0.2,0.4,0.6,0.4,0.9c0,0.3-0.1,0.7-0.4,0.9C20.2-72.1,19.9-72,19.5-72z"/>
			<path d="M30.3-72c-0.3,0-0.7-0.1-0.9-0.4C29.1-72.6,29-73,29-73.3c0-0.3,0.1-0.7,0.4-0.9c0.5-0.5,1.4-0.5,1.8,0
				c0.2,0.2,0.4,0.6,0.4,0.9c0,0.3-0.1,0.7-0.4,0.9C31-72.1,30.6-72,30.3-72z"/>
			<path d="M34.3-71c-0.3,0-0.7-0.1-0.9-0.4C33.1-71.6,33-72,33-72.3c0-0.3,0.1-0.7,0.4-0.9c0.5-0.5,1.4-0.5,1.8,0
				c0.2,0.2,0.4,0.6,0.4,0.9c0,0.3-0.1,0.7-0.4,0.9C35-71.1,34.6-71,34.3-71z"/>
			<path d="M31.5-68.2c-0.3,0-0.7-0.1-0.9-0.4c-0.2-0.2-0.4-0.6-0.4-0.9c0-0.3,0.1-0.7,0.4-0.9c0.5-0.5,1.4-0.5,1.8,0
				c0.2,0.2,0.4,0.6,0.4,0.9c0,0.3-0.1,0.7-0.4,0.9C32.2-68.4,31.9-68.2,31.5-68.2z"/>
			<path d="M30.8-65.5c-0.3,0-0.7-0.1-0.9-0.4c-0.2-0.2-0.4-0.6-0.4-0.9c0-0.3,0.1-0.7,0.4-0.9c0.5-0.5,1.4-0.5,1.8,0
				c0.2,0.2,0.4,0.6,0.4,0.9c0,0.3-0.1,0.7-0.4,0.9C31.5-65.6,31.1-65.5,30.8-65.5z"/>
			<path d="M28.8-62.5c-0.3,0-0.7-0.1-0.9-0.4c-0.2-0.2-0.4-0.6-0.4-0.9s0.1-0.7,0.4-0.9c0.5-0.5,1.4-0.5,1.8,0
				c0.2,0.2,0.4,0.6,0.4,0.9s-0.1,0.7-0.4,0.9C29.5-62.6,29.1-62.5,28.8-62.5z"/>
			<path d="M24.8-64.2c-0.3,0-0.7-0.1-0.9-0.4c-0.2-0.2-0.4-0.6-0.4-0.9c0-0.3,0.1-0.7,0.4-0.9c0.5-0.5,1.4-0.5,1.8,0
				c0.2,0.2,0.4,0.6,0.4,0.9c0,0.3-0.1,0.7-0.4,0.9C25.5-64.4,25.1-64.2,24.8-64.2z"/>
			<path d="M24.5-60.8c-0.3,0-0.7-0.1-0.9-0.4c-0.2-0.2-0.4-0.6-0.4-0.9c0-0.3,0.1-0.7,0.4-0.9c0.5-0.5,1.4-0.5,1.8,0
				c0.2,0.2,0.4,0.6,0.4,0.9c0,0.3-0.1,0.7-0.4,0.9C25.2-60.9,24.9-60.8,24.5-60.8z"/>
			<path d="M19.5-61.8c-0.3,0-0.7-0.1-0.9-0.4c-0.2-0.2-0.4-0.6-0.4-0.9c0-0.3,0.1-0.7,0.4-0.9c0.5-0.5,1.4-0.5,1.8,0
				c0.2,0.2,0.4,0.6,0.4,0.9c0,0.3-0.1,0.7-0.4,0.9C20.2-61.9,19.9-61.8,19.5-61.8z"/>
			<path d="M22.8-58.5c-0.3,0-0.7-0.1-0.9-0.4c-0.2-0.2-0.4-0.6-0.4-0.9c0-0.3,0.1-0.7,0.4-0.9c0.5-0.5,1.4-0.5,1.8,0
				c0.2,0.2,0.4,0.6,0.4,0.9c0,0.3-0.1,0.7-0.4,0.9C23.5-58.6,23.1-58.5,22.8-58.5z"/>
			<path d="M25.3-54.8c-0.3,0-0.7-0.1-0.9-0.4C24.1-55.4,24-55.7,24-56c0-0.3,0.1-0.7,0.4-0.9c0.5-0.5,1.4-0.5,1.8,0
				c0.2,0.2,0.4,0.6,0.4,0.9c0,0.3-0.1,0.7-0.4,0.9C26-54.9,25.6-54.8,25.3-54.8z"/>
			<path d="M28-54c-0.3,0-0.7-0.1-0.9-0.4c-0.2-0.2-0.4-0.6-0.4-0.9c0-0.3,0.1-0.7,0.4-0.9c0.5-0.5,1.4-0.5,1.8,0
				c0.2,0.2,0.4,0.6,0.4,0.9c0,0.3-0.1,0.7-0.4,0.9C28.7-54.1,28.4-54,28-54z"/>
			<path d="M31-55.8c-0.3,0-0.7-0.1-0.9-0.4c-0.2-0.2-0.4-0.6-0.4-0.9c0-0.3,0.1-0.7,0.4-0.9c0.5-0.5,1.4-0.5,1.8,0
				c0.2,0.2,0.4,0.6,0.4,0.9c0,0.3-0.1,0.7-0.4,0.9C31.7-55.9,31.4-55.8,31-55.8z"/>
			<path d="M30.5-59c-0.3,0-0.7-0.1-0.9-0.4c-0.2-0.2-0.4-0.6-0.4-0.9c0-0.3,0.1-0.7,0.4-0.9c0.5-0.5,1.4-0.5,1.8,0
				c0.2,0.2,0.4,0.6,0.4,0.9c0,0.3-0.1,0.7-0.4,0.9C31.2-59.1,30.9-59,30.5-59z"/>
			<path d="M32.5-61.2c-0.3,0-0.7-0.1-0.9-0.4c-0.2-0.2-0.4-0.6-0.4-0.9c0-0.3,0.1-0.7,0.4-0.9c0.5-0.5,1.4-0.5,1.8,0
				c0.2,0.2,0.4,0.6,0.4,0.9c0,0.3-0.1,0.7-0.4,0.9C33.2-61.4,32.9-61.2,32.5-61.2z"/>
			<path d="M36.8-61.2c-0.3,0-0.7-0.1-0.9-0.4c-0.2-0.2-0.4-0.6-0.4-0.9c0-0.3,0.1-0.7,0.4-0.9c0.5-0.5,1.4-0.5,1.8,0
				c0.2,0.2,0.4,0.6,0.4,0.9c0,0.3-0.1,0.7-0.4,0.9C37.5-61.4,37.1-61.2,36.8-61.2z"/>
			<path d="M35-56.5c-0.3,0-0.7-0.1-0.9-0.4c-0.2-0.2-0.4-0.6-0.4-0.9c0-0.3,0.1-0.7,0.4-0.9c0.5-0.5,1.4-0.5,1.8,0
				c0.2,0.2,0.4,0.6,0.4,0.9c0,0.3-0.1,0.7-0.4,0.9C35.7-56.6,35.4-56.5,35-56.5z"/>
			<path d="M37.3-53c-0.3,0-0.7-0.1-0.9-0.4C36.1-53.6,36-54,36-54.3c0-0.3,0.1-0.7,0.4-0.9c0.5-0.5,1.4-0.5,1.8,0
				c0.2,0.2,0.4,0.6,0.4,0.9c0,0.3-0.1,0.7-0.4,0.9C38-53.1,37.6-53,37.3-53z"/>
			<path d="M33.8-52.8c-0.3,0-0.7-0.1-0.9-0.4c-0.2-0.2-0.4-0.6-0.4-0.9c0-0.3,0.1-0.7,0.4-0.9c0.5-0.5,1.4-0.5,1.8,0
				c0.2,0.2,0.4,0.6,0.4,0.9c0,0.3-0.1,0.7-0.4,0.9C34.5-52.9,34.2-52.8,33.8-52.8z"/>
			<path d="M30.3-52c-0.3,0-0.7-0.1-0.9-0.4C29.1-52.6,29-53,29-53.3c0-0.3,0.1-0.7,0.4-0.9c0.5-0.5,1.4-0.5,1.8,0
				c0.2,0.2,0.4,0.6,0.4,0.9c0,0.3-0.1,0.7-0.4,0.9C31-52.1,30.6-52,30.3-52z"/>
			<path d="M39.8-57.5c-0.3,0-0.7-0.1-0.9-0.4c-0.2-0.2-0.4-0.6-0.4-0.9c0-0.3,0.1-0.7,0.4-0.9c0.5-0.5,1.4-0.5,1.8,0
				c0.2,0.2,0.4,0.6,0.4,0.9c0,0.3-0.1,0.7-0.4,0.9C40.5-57.6,40.1-57.5,39.8-57.5z"/>
			<path d="M34.5-64.8c-0.3,0-0.7-0.1-0.9-0.4c-0.2-0.2-0.4-0.6-0.4-0.9c0-0.3,0.1-0.7,0.4-0.9c0.5-0.5,1.4-0.5,1.8,0
				c0.2,0.2,0.4,0.6,0.4,0.9c0,0.3-0.1,0.7-0.4,0.9C35.2-64.9,34.9-64.8,34.5-64.8z"/>
			<path d="M36.5-67.8c-0.3,0-0.7-0.1-0.9-0.4c-0.2-0.2-0.4-0.6-0.4-0.9c0-0.3,0.1-0.7,0.4-0.9c0.5-0.5,1.4-0.5,1.8,0
				c0.2,0.2,0.4,0.6,0.4,0.9c0,0.3-0.1,0.7-0.4,0.9C37.2-67.9,36.9-67.8,36.5-67.8z"/>
			<path d="M39.3-71.2c-0.3,0-0.7-0.1-0.9-0.4c-0.2-0.2-0.4-0.6-0.4-0.9c0-0.3,0.1-0.7,0.4-0.9c0.5-0.5,1.4-0.5,1.8,0
				c0.2,0.2,0.4,0.6,0.4,0.9c0,0.3-0.1,0.7-0.4,0.9C40-71.4,39.6-71.2,39.3-71.2z"/>
			<path d="M40-68c-0.3,0-0.7-0.1-0.9-0.4c-0.2-0.2-0.4-0.6-0.4-0.9c0-0.3,0.1-0.7,0.4-0.9c0.5-0.5,1.4-0.5,1.8,0
				c0.2,0.2,0.4,0.6,0.4,0.9c0,0.3-0.1,0.7-0.4,0.9C40.7-68.1,40.4-68,40-68z"/>
			<path d="M39.8-65c-0.3,0-0.7-0.1-0.9-0.4c-0.2-0.2-0.4-0.6-0.4-0.9c0-0.3,0.1-0.7,0.4-0.9c0.5-0.5,1.4-0.5,1.8,0
				c0.2,0.2,0.4,0.6,0.4,0.9c0,0.3-0.1,0.7-0.4,0.9C40.5-65.1,40.1-65,39.8-65z"/>
			<path d="M40-61.2c-0.3,0-0.7-0.1-0.9-0.4c-0.2-0.2-0.4-0.6-0.4-0.9c0-0.3,0.1-0.7,0.4-0.9c0.5-0.5,1.4-0.5,1.8,0
				c0.2,0.2,0.4,0.6,0.4,0.9c0,0.3-0.1,0.7-0.4,0.9C40.7-61.4,40.4-61.2,40-61.2z"/>
			<path d="M43.5-69.5c-0.3,0-0.7-0.1-0.9-0.4c-0.2-0.2-0.4-0.6-0.4-0.9c0-0.3,0.1-0.7,0.4-0.9c0.5-0.5,1.4-0.5,1.8,0
				c0.2,0.2,0.4,0.6,0.4,0.9c0,0.3-0.1,0.7-0.4,0.9C44.2-69.6,43.9-69.5,43.5-69.5z"/>
			<path d="M44.3-65.8c-0.3,0-0.7-0.1-0.9-0.4C43.1-66.4,43-66.7,43-67c0-0.3,0.1-0.7,0.4-0.9c0.5-0.5,1.4-0.5,1.8,0
				c0.2,0.2,0.4,0.6,0.4,0.9c0,0.3-0.1,0.7-0.4,0.9C45-65.9,44.6-65.8,44.3-65.8z"/>
			<path d="M43.8-61.8c-0.3,0-0.7-0.1-0.9-0.4c-0.2-0.2-0.4-0.6-0.4-0.9c0-0.3,0.1-0.7,0.4-0.9c0.5-0.5,1.4-0.5,1.8,0
				c0.2,0.2,0.4,0.6,0.4,0.9c0,0.3-0.1,0.7-0.4,0.9C44.5-61.9,44.1-61.8,43.8-61.8z"/>
			<path d="M44-57.2c-0.3,0-0.7-0.1-0.9-0.4c-0.2-0.2-0.4-0.6-0.4-0.9c0-0.3,0.1-0.7,0.4-0.9c0.5-0.5,1.4-0.5,1.8,0
				c0.2,0.2,0.4,0.6,0.4,0.9c0,0.3-0.1,0.7-0.4,0.9C44.7-57.4,44.4-57.2,44-57.2z"/>
			<path d="M45.5-53.8c-0.3,0-0.7-0.1-0.9-0.4c-0.2-0.2-0.4-0.6-0.4-0.9c0-0.3,0.1-0.7,0.4-0.9c0.5-0.5,1.4-0.5,1.8,0
				c0.2,0.2,0.4,0.6,0.4,0.9c0,0.3-0.1,0.7-0.4,0.9C46.2-53.9,45.9-53.8,45.5-53.8z"/>
			<path d="M40.8-54c-0.3,0-0.7-0.1-0.9-0.4c-0.2-0.2-0.4-0.6-0.4-0.9c0-0.3,0.1-0.7,0.4-0.9c0.5-0.5,1.4-0.5,1.8,0
				c0.2,0.2,0.4,0.6,0.4,0.9c0,0.3-0.1,0.7-0.4,0.9C41.5-54.1,41.1-54,40.8-54z"/>
			<path d="M42-49.5c-0.3,0-0.7-0.1-0.9-0.4c-0.2-0.2-0.4-0.6-0.4-0.9c0-0.3,0.1-0.7,0.4-0.9c0.5-0.5,1.4-0.5,1.8,0
				c0.2,0.2,0.4,0.6,0.4,0.9c0,0.3-0.1,0.7-0.4,0.9C42.7-49.6,42.4-49.5,42-49.5z"/>
			<path d="M37.8-49.8c-0.3,0-0.7-0.1-0.9-0.4c-0.2-0.2-0.4-0.6-0.4-0.9c0-0.3,0.1-0.7,0.4-0.9c0.5-0.5,1.4-0.5,1.8,0
				c0.2,0.2,0.4,0.6,0.4,0.9c0,0.3-0.1,0.7-0.4,0.9C38.5-49.9,38.1-49.8,37.8-49.8z"/>
			<path d="M49.5-52.2c-0.3,0-0.7-0.1-0.9-0.4c-0.2-0.2-0.4-0.6-0.4-0.9c0-0.3,0.1-0.7,0.4-0.9c0.5-0.5,1.4-0.5,1.8,0
				c0.2,0.2,0.4,0.6,0.4,0.9c0,0.3-0.1,0.7-0.4,0.9C50.2-52.4,49.9-52.2,49.5-52.2z"/>
			<path d="M48.5-55.8c-0.3,0-0.7-0.1-0.9-0.4c-0.2-0.2-0.4-0.6-0.4-0.9c0-0.3,0.1-0.7,0.4-0.9c0.5-0.5,1.4-0.5,1.8,0
				c0.2,0.2,0.4,0.6,0.4,0.9c0,0.3-0.1,0.7-0.4,0.9C49.2-55.9,48.9-55.8,48.5-55.8z"/>
			<path d="M47.5-59.2c-0.3,0-0.7-0.1-0.9-0.4c-0.2-0.2-0.4-0.6-0.4-0.9c0-0.3,0.1-0.7,0.4-0.9c0.5-0.5,1.4-0.5,1.8,0
				c0.2,0.2,0.4,0.6,0.4,0.9c0,0.3-0.1,0.7-0.4,0.9C48.2-59.4,47.9-59.2,47.5-59.2z"/>
			<path d="M47.8-63.2c-0.3,0-0.7-0.1-0.9-0.4c-0.2-0.2-0.4-0.6-0.4-0.9c0-0.3,0.1-0.7,0.4-0.9c0.5-0.5,1.4-0.5,1.8,0
				c0.2,0.2,0.4,0.6,0.4,0.9c0,0.3-0.1,0.7-0.4,0.9C48.5-63.4,48.1-63.2,47.8-63.2z"/>
			<path d="M47.5-67.5c-0.3,0-0.7-0.1-0.9-0.4c-0.2-0.2-0.4-0.6-0.4-0.9c0-0.3,0.1-0.7,0.4-0.9c0.5-0.5,1.4-0.5,1.8,0
				c0.2,0.2,0.4,0.6,0.4,0.9c0,0.3-0.1,0.7-0.4,0.9C48.2-67.6,47.9-67.5,47.5-67.5z"/>
			<path d="M47.3-70.8c-0.3,0-0.7-0.1-0.9-0.4C46.1-71.4,46-71.7,46-72c0-0.3,0.1-0.7,0.4-0.9c0.5-0.5,1.4-0.5,1.8,0
				c0.2,0.2,0.4,0.6,0.4,0.9c0,0.3-0.1,0.7-0.4,0.9C48-70.9,47.7-70.8,47.3-70.8z"/>
			<path d="M52.3-71.8c-0.3,0-0.7-0.1-0.9-0.4C51.1-72.4,51-72.7,51-73c0-0.3,0.1-0.7,0.4-0.9c0.5-0.5,1.4-0.5,1.8,0
				c0.2,0.2,0.4,0.6,0.4,0.9c0,0.3-0.1,0.7-0.4,0.9C53-71.9,52.6-71.8,52.3-71.8z"/>
			<path d="M51.5-67.5c-0.3,0-0.7-0.1-0.9-0.4c-0.2-0.2-0.4-0.6-0.4-0.9c0-0.3,0.1-0.7,0.4-0.9c0.5-0.5,1.4-0.5,1.8,0
				c0.2,0.2,0.4,0.6,0.4,0.9c0,0.3-0.1,0.7-0.4,0.9C52.2-67.6,51.9-67.5,51.5-67.5z"/>
			<path d="M55-67.5c-0.3,0-0.7-0.1-0.9-0.4c-0.2-0.2-0.4-0.6-0.4-0.9c0-0.3,0.1-0.7,0.4-0.9c0.5-0.5,1.4-0.5,1.8,0
				c0.2,0.2,0.4,0.6,0.4,0.9c0,0.3-0.1,0.7-0.4,0.9C55.7-67.6,55.4-67.5,55-67.5z"/>
			<path d="M54.8-64c-0.3,0-0.7-0.1-0.9-0.4c-0.2-0.2-0.4-0.6-0.4-0.9c0-0.3,0.1-0.7,0.4-0.9c0.5-0.5,1.4-0.5,1.8,0
				c0.2,0.2,0.4,0.6,0.4,0.9c0,0.3-0.1,0.7-0.4,0.9C55.5-64.1,55.1-64,54.8-64z"/>
			<path d="M51-64.2c-0.3,0-0.7-0.1-0.9-0.4c-0.2-0.2-0.4-0.6-0.4-0.9c0-0.3,0.1-0.7,0.4-0.9c0.5-0.5,1.4-0.5,1.8,0
				c0.2,0.2,0.4,0.6,0.4,0.9c0,0.3-0.1,0.7-0.4,0.9C51.7-64.4,51.4-64.2,51-64.2z"/>
			<path d="M51.3-59.8c-0.3,0-0.7-0.1-0.9-0.4C50.1-60.4,50-60.7,50-61c0-0.3,0.1-0.7,0.4-0.9c0.5-0.5,1.4-0.5,1.8,0
				c0.2,0.2,0.4,0.6,0.4,0.9c0,0.3-0.1,0.7-0.4,0.9C52-59.9,51.6-59.8,51.3-59.8z"/>
			<path d="M54.8-59.8c-0.3,0-0.7-0.1-0.9-0.4c-0.2-0.2-0.4-0.6-0.4-0.9c0-0.3,0.1-0.7,0.4-0.9c0.5-0.5,1.4-0.5,1.8,0
				c0.2,0.2,0.4,0.6,0.4,0.9c0,0.3-0.1,0.7-0.4,0.9C55.5-59.9,55.1-59.8,54.8-59.8z"/>
			<path d="M52-56.2c-0.3,0-0.7-0.1-0.9-0.4c-0.2-0.2-0.4-0.6-0.4-0.9c0-0.3,0.1-0.7,0.4-0.9c0.5-0.5,1.4-0.5,1.8,0
				c0.2,0.2,0.4,0.6,0.4,0.9c0,0.3-0.1,0.7-0.4,0.9C52.7-56.4,52.4-56.2,52-56.2z"/>
			<path d="M53.5-52c-0.3,0-0.7-0.1-0.9-0.4c-0.2-0.2-0.4-0.6-0.4-0.9c0-0.3,0.1-0.7,0.4-0.9c0.5-0.5,1.4-0.5,1.8,0
				c0.2,0.2,0.4,0.6,0.4,0.9c0,0.3-0.1,0.7-0.4,0.9C54.2-52.1,53.9-52,53.5-52z"/>
			<path d="M55.3-48.8c-0.3,0-0.7-0.1-0.9-0.4C54.1-49.4,54-49.7,54-50c0-0.3,0.1-0.7,0.4-0.9c0.5-0.5,1.4-0.5,1.8,0
				c0.2,0.2,0.4,0.6,0.4,0.9c0,0.3-0.1,0.7-0.4,0.9C56-48.9,55.6-48.8,55.3-48.8z"/>
			<path d="M57.8-51.5c-0.3,0-0.7-0.1-0.9-0.4c-0.2-0.2-0.4-0.6-0.4-0.9c0-0.3,0.1-0.7,0.4-0.9c0.5-0.5,1.4-0.5,1.8,0
				c0.2,0.2,0.4,0.6,0.4,0.9c0,0.3-0.1,0.7-0.4,0.9C58.5-51.6,58.2-51.5,57.8-51.5z"/>
			<path d="M56.3-55c-0.3,0-0.7-0.1-0.9-0.4C55.1-55.6,55-56,55-56.3c0-0.3,0.1-0.7,0.4-0.9c0.5-0.5,1.4-0.5,1.8,0
				c0.2,0.2,0.4,0.6,0.4,0.9c0,0.3-0.1,0.7-0.4,0.9C57-55.1,56.6-55,56.3-55z"/>
			<path d="M58.5-58c-0.3,0-0.7-0.1-0.9-0.4c-0.2-0.2-0.4-0.6-0.4-0.9c0-0.3,0.1-0.7,0.4-0.9c0.5-0.5,1.4-0.5,1.8,0
				c0.2,0.2,0.4,0.6,0.4,0.9c0,0.3-0.1,0.7-0.4,0.9C59.2-58.1,58.9-58,58.5-58z"/>
			<path d="M58.8-62.2c-0.3,0-0.7-0.1-0.9-0.4c-0.2-0.2-0.4-0.6-0.4-0.9c0-0.3,0.1-0.7,0.4-0.9c0.5-0.5,1.4-0.5,1.8,0
				c0.2,0.2,0.4,0.6,0.4,0.9c0,0.3-0.1,0.7-0.4,0.9C59.5-62.4,59.1-62.2,58.8-62.2z"/>
			<path d="M59-67.2c-0.3,0-0.7-0.1-0.9-0.4c-0.2-0.2-0.4-0.6-0.4-0.9c0-0.3,0.1-0.7,0.4-0.9c0.5-0.5,1.4-0.5,1.8,0
				c0.2,0.2,0.4,0.6,0.4,0.9c0,0.3-0.1,0.7-0.4,0.9C59.7-67.4,59.4-67.2,59-67.2z"/>
			<path d="M62.3-66.2c-0.3,0-0.7-0.1-0.9-0.4c-0.2-0.2-0.4-0.6-0.4-0.9c0-0.3,0.1-0.7,0.4-0.9c0.5-0.5,1.4-0.5,1.8,0
				c0.2,0.2,0.4,0.6,0.4,0.9c0,0.3-0.1,0.7-0.4,0.9C63-66.4,62.6-66.2,62.3-66.2z"/>
			<path d="M60.5-70.8c-0.3,0-0.7-0.1-0.9-0.4c-0.2-0.2-0.4-0.6-0.4-0.9c0-0.3,0.1-0.7,0.4-0.9c0.5-0.5,1.4-0.5,1.8,0
				c0.2,0.2,0.4,0.6,0.4,0.9c0,0.3-0.1,0.7-0.4,0.9C61.2-70.9,60.9-70.8,60.5-70.8z"/>
			<path d="M64.3-69.8c-0.3,0-0.7-0.1-0.9-0.4C63.1-70.4,63-70.7,63-71c0-0.3,0.1-0.7,0.4-0.9c0.5-0.5,1.4-0.5,1.8,0
				c0.2,0.2,0.4,0.6,0.4,0.9c0,0.3-0.1,0.7-0.4,0.9C65-69.9,64.6-69.8,64.3-69.8z"/>
			<path d="M67.5-71.5c-0.3,0-0.7-0.1-0.9-0.4c-0.2-0.2-0.4-0.6-0.4-0.9c0-0.3,0.1-0.7,0.4-0.9c0.5-0.5,1.4-0.5,1.8,0
				c0.2,0.2,0.4,0.6,0.4,0.9c0,0.3-0.1,0.7-0.4,0.9C68.2-71.6,67.9-71.5,67.5-71.5z"/>
			<path d="M69.5-69.5c-0.3,0-0.7-0.1-0.9-0.4c-0.2-0.2-0.4-0.6-0.4-0.9c0-0.3,0.1-0.7,0.4-0.9c0.5-0.5,1.4-0.5,1.8,0
				c0.2,0.2,0.4,0.6,0.4,0.9c0,0.3-0.1,0.7-0.4,0.9C70.2-69.6,69.9-69.5,69.5-69.5z"/>
			<path d="M66-66.5c-0.3,0-0.7-0.1-0.9-0.4c-0.2-0.2-0.4-0.6-0.4-0.9c0-0.3,0.1-0.7,0.4-0.9c0.5-0.5,1.4-0.5,1.8,0
				c0.2,0.2,0.4,0.6,0.4,0.9c0,0.3-0.1,0.7-0.4,0.9C66.7-66.6,66.4-66.5,66-66.5z"/>
			<path d="M65.3-62.8c-0.3,0-0.7-0.1-0.9-0.4C64.1-63.4,64-63.7,64-64c0-0.3,0.1-0.7,0.4-0.9c0.5-0.5,1.4-0.5,1.8,0
				c0.2,0.2,0.4,0.6,0.4,0.9c0,0.3-0.1,0.7-0.4,0.9C66-62.9,65.6-62.8,65.3-62.8z"/>
			<path d="M62.5-60.5c-0.3,0-0.7-0.1-0.9-0.4c-0.2-0.2-0.4-0.6-0.4-0.9c0-0.3,0.1-0.7,0.4-0.9c0.5-0.5,1.4-0.5,1.8,0
				c0.2,0.2,0.4,0.6,0.4,0.9c0,0.3-0.1,0.7-0.4,0.9C63.2-60.6,62.9-60.5,62.5-60.5z"/>
			<path d="M65-57.8c-0.3,0-0.7-0.1-0.9-0.4c-0.2-0.2-0.4-0.6-0.4-0.9c0-0.3,0.1-0.7,0.4-0.9c0.5-0.5,1.4-0.5,1.8,0
				c0.2,0.2,0.4,0.6,0.4,0.9c0,0.3-0.1,0.7-0.4,0.9C65.7-57.9,65.4-57.8,65-57.8z"/>
			<path d="M68.8-56.8c-0.3,0-0.7-0.1-0.9-0.4c-0.2-0.2-0.4-0.6-0.4-0.9c0-0.3,0.1-0.7,0.4-0.9c0.5-0.5,1.4-0.5,1.8,0
				c0.2,0.2,0.4,0.6,0.4,0.9c0,0.3-0.1,0.7-0.4,0.9C69.5-56.9,69.1-56.8,68.8-56.8z"/>
			<path d="M66.8-54.5c-0.3,0-0.7-0.1-0.9-0.4c-0.2-0.2-0.4-0.6-0.4-0.9c0-0.3,0.1-0.7,0.4-0.9c0.5-0.5,1.4-0.5,1.8,0
				c0.2,0.2,0.4,0.6,0.4,0.9c0,0.3-0.1,0.7-0.4,0.9C67.5-54.6,67.1-54.5,66.8-54.5z"/>
			<path d="M63.3-54c-0.3,0-0.7-0.1-0.9-0.4C62.1-54.6,62-55,62-55.3c0-0.3,0.1-0.7,0.4-0.9c0.5-0.5,1.4-0.5,1.8,0
				c0.2,0.2,0.4,0.6,0.4,0.9c0,0.3-0.1,0.7-0.4,0.9C64-54.1,63.6-54,63.3-54z"/>
			<path d="M60.5-54.5c-0.3,0-0.7-0.1-0.9-0.4c-0.2-0.2-0.4-0.6-0.4-0.9c0-0.3,0.1-0.7,0.4-0.9c0.5-0.5,1.4-0.5,1.8,0
				c0.2,0.2,0.4,0.6,0.4,0.9c0,0.3-0.1,0.7-0.4,0.9C61.2-54.6,60.9-54.5,60.5-54.5z"/>
			<path d="M62.3-50.2c-0.3,0-0.7-0.1-0.9-0.4c-0.2-0.2-0.4-0.6-0.4-0.9c0-0.3,0.1-0.7,0.4-0.9c0.5-0.5,1.4-0.5,1.8,0
				c0.2,0.2,0.4,0.6,0.4,0.9c0,0.3-0.1,0.7-0.4,0.9C63-50.4,62.7-50.2,62.3-50.2z"/>
			<path d="M66.8-51.5c-0.3,0-0.7-0.1-0.9-0.4c-0.2-0.2-0.4-0.6-0.4-0.9c0-0.3,0.1-0.7,0.4-0.9c0.5-0.5,1.4-0.5,1.8,0
				c0.2,0.2,0.4,0.6,0.4,0.9c0,0.3-0.1,0.7-0.4,0.9C67.5-51.6,67.1-51.5,66.8-51.5z"/>
			<path d="M71-50.5c-0.3,0-0.7-0.1-0.9-0.4c-0.2-0.2-0.4-0.6-0.4-0.9c0-0.3,0.1-0.7,0.4-0.9c0.5-0.5,1.4-0.5,1.8,0
				c0.2,0.2,0.4,0.6,0.4,0.9c0,0.3-0.1,0.7-0.4,0.9C71.7-50.6,71.4-50.5,71-50.5z"/>
			<path d="M71-54c-0.3,0-0.7-0.1-0.9-0.4c-0.2-0.2-0.4-0.6-0.4-0.9c0-0.3,0.1-0.7,0.4-0.9c0.5-0.5,1.4-0.5,1.8,0
				c0.2,0.2,0.4,0.6,0.4,0.9c0,0.3-0.1,0.7-0.4,0.9C71.7-54.1,71.4-54,71-54z"/>
			<path d="M68-60.8c-0.3,0-0.7-0.1-0.9-0.4c-0.2-0.2-0.4-0.6-0.4-0.9c0-0.3,0.1-0.7,0.4-0.9c0.5-0.5,1.4-0.5,1.8,0
				c0.2,0.2,0.4,0.6,0.4,0.9c0,0.3-0.1,0.7-0.4,0.9C68.7-60.9,68.4-60.8,68-60.8z"/>
			<path d="M68.8-64.5c-0.3,0-0.7-0.1-0.9-0.4c-0.2-0.2-0.4-0.6-0.4-0.9c0-0.3,0.1-0.7,0.4-0.9c0.5-0.5,1.4-0.5,1.8,0
				c0.2,0.2,0.4,0.6,0.4,0.9c0,0.3-0.1,0.7-0.4,0.9C69.5-64.6,69.1-64.5,68.8-64.5z"/>
			<path d="M72.3-66.5c-0.3,0-0.7-0.1-0.9-0.4c-0.2-0.2-0.4-0.6-0.4-0.9c0-0.3,0.1-0.7,0.4-0.9c0.5-0.5,1.4-0.5,1.8,0
				c0.2,0.2,0.4,0.6,0.4,0.9c0,0.3-0.1,0.7-0.4,0.9C73-66.6,72.6-66.5,72.3-66.5z"/>
			<path d="M73.3-71.2c-0.3,0-0.7-0.1-0.9-0.4c-0.2-0.2-0.4-0.6-0.4-0.9c0-0.3,0.1-0.7,0.4-0.9c0.5-0.5,1.4-0.5,1.8,0
				c0.2,0.2,0.4,0.6,0.4,0.9c0,0.3-0.1,0.7-0.4,0.9C74-71.4,73.6-71.2,73.3-71.2z"/>
			<path d="M72.3-60c-0.3,0-0.7-0.1-0.9-0.4C71.1-60.6,71-61,71-61.3c0-0.3,0.1-0.7,0.4-0.9c0.5-0.5,1.4-0.5,1.8,0
				c0.2,0.2,0.4,0.6,0.4,0.9c0,0.3-0.1,0.7-0.4,0.9C73-60.1,72.6-60,72.3-60z"/>
			<path d="M74-56.5c-0.3,0-0.7-0.1-0.9-0.4c-0.2-0.2-0.4-0.6-0.4-0.9c0-0.3,0.1-0.7,0.4-0.9c0.5-0.5,1.4-0.5,1.8,0
				c0.2,0.2,0.4,0.6,0.4,0.9c0,0.3-0.1,0.7-0.4,0.9C74.7-56.6,74.4-56.5,74-56.5z"/>
			<path d="M59-67.2c-0.3,0-0.7-0.1-0.9-0.4c-0.2-0.2-0.4-0.6-0.4-0.9c0-0.3,0.1-0.7,0.4-0.9c0.5-0.5,1.4-0.5,1.8,0
				c0.2,0.2,0.4,0.6,0.4,0.9c0,0.3-0.1,0.7-0.4,0.9C59.7-67.4,59.4-67.2,59-67.2z"/>
			<path d="M60.5-70.8c-0.3,0-0.7-0.1-0.9-0.4c-0.2-0.2-0.4-0.6-0.4-0.9c0-0.3,0.1-0.7,0.4-0.9c0.5-0.5,1.4-0.5,1.8,0
				c0.2,0.2,0.4,0.6,0.4,0.9c0,0.3-0.1,0.7-0.4,0.9C61.2-70.9,60.9-70.8,60.5-70.8z"/>
			<path d="M56.5-70c-0.3,0-0.7-0.1-0.9-0.4c-0.2-0.2-0.4-0.6-0.4-0.9c0-0.3,0.1-0.7,0.4-0.9c0.5-0.5,1.4-0.5,1.8,0
				c0.2,0.2,0.4,0.6,0.4,0.9c0,0.3-0.1,0.7-0.4,0.9C57.2-70.1,56.9-70,56.5-70z"/>
			<path d="M26.5-50.5c-0.3,0-0.7-0.1-0.9-0.4c-0.2-0.2-0.4-0.6-0.4-0.9c0-0.3,0.1-0.7,0.4-0.9c0.5-0.5,1.4-0.5,1.8,0
				c0.2,0.2,0.4,0.6,0.4,0.9c0,0.3-0.1,0.7-0.4,0.9C27.2-50.6,26.9-50.5,26.5-50.5z"/>
			<path d="M22.5-53.2c-0.3,0-0.7-0.1-0.9-0.4c-0.2-0.2-0.4-0.6-0.4-0.9c0-0.3,0.1-0.7,0.4-0.9c0.5-0.5,1.4-0.5,1.8,0
				c0.2,0.2,0.4,0.6,0.4,0.9c0,0.3-0.1,0.7-0.4,0.9C23.2-53.4,22.9-53.2,22.5-53.2z"/>
			<path d="M18.5-52.2c-0.3,0-0.7-0.1-0.9-0.4c-0.2-0.2-0.4-0.6-0.4-0.9c0-0.3,0.1-0.7,0.4-0.9c0.5-0.5,1.4-0.5,1.8,0
				c0.2,0.2,0.4,0.6,0.4,0.9c0,0.3-0.1,0.7-0.4,0.9C19.2-52.4,18.9-52.2,18.5-52.2z"/>
			<path d="M19.5-56.2c-0.3,0-0.7-0.1-0.9-0.4c-0.2-0.2-0.4-0.6-0.4-0.9c0-0.3,0.1-0.7,0.4-0.9c0.5-0.5,1.4-0.5,1.8,0
				c0.2,0.2,0.4,0.6,0.4,0.9c0,0.3-0.1,0.7-0.4,0.9C20.2-56.4,19.9-56.2,19.5-56.2z"/>
			<path d="M17.3-59.2c-0.3,0-0.7-0.1-0.9-0.4c-0.2-0.2-0.4-0.6-0.4-0.9c0-0.3,0.1-0.7,0.4-0.9c0.5-0.5,1.4-0.5,1.8,0
				c0.2,0.2,0.4,0.6,0.4,0.9c0,0.3-0.1,0.7-0.4,0.9C18-59.4,17.6-59.2,17.3-59.2z"/>
			<path d="M15-62c-0.3,0-0.7-0.1-0.9-0.4c-0.2-0.2-0.4-0.6-0.4-0.9c0-0.3,0.1-0.7,0.4-0.9c0.5-0.5,1.4-0.5,1.8,0
				c0.2,0.2,0.4,0.6,0.4,0.9c0,0.3-0.1,0.7-0.4,0.9C15.7-62.1,15.4-62,15-62z"/>
			<path d="M15-55.8c-0.3,0-0.7-0.1-0.9-0.4c-0.2-0.2-0.4-0.6-0.4-0.9c0-0.3,0.1-0.7,0.4-0.9c0.5-0.5,1.4-0.5,1.8,0
				c0.2,0.2,0.4,0.6,0.4,0.9c0,0.3-0.1,0.7-0.4,0.9C15.7-55.9,15.4-55.8,15-55.8z"/>
			<path d="M18.5-52.2c-0.3,0-0.7-0.1-0.9-0.4c-0.2-0.2-0.4-0.6-0.4-0.9c0-0.3,0.1-0.7,0.4-0.9c0.5-0.5,1.4-0.5,1.8,0
				c0.2,0.2,0.4,0.6,0.4,0.9c0,0.3-0.1,0.7-0.4,0.9C19.2-52.4,18.9-52.2,18.5-52.2z"/>
			<path d="M21-50c-0.3,0-0.7-0.1-0.9-0.4c-0.2-0.2-0.4-0.6-0.4-0.9c0-0.3,0.1-0.7,0.4-0.9c0.5-0.5,1.4-0.5,1.8,0
				c0.2,0.2,0.4,0.6,0.4,0.9c0,0.3-0.1,0.7-0.4,0.9C21.7-50.1,21.4-50,21-50z"/>
			<path d="M16.5-48.5c-0.3,0-0.7-0.1-0.9-0.4c-0.2-0.2-0.4-0.6-0.4-0.9c0-0.3,0.1-0.7,0.4-0.9c0.5-0.5,1.4-0.5,1.8,0
				c0.2,0.2,0.4,0.6,0.4,0.9c0,0.3-0.1,0.7-0.4,0.9C17.2-48.6,16.9-48.5,16.5-48.5z"/>
			<path d="M14-51.5c-0.3,0-0.7-0.1-0.9-0.4c-0.2-0.2-0.4-0.6-0.4-0.9c0-0.3,0.1-0.7,0.4-0.9c0.5-0.5,1.4-0.5,1.8,0
				c0.2,0.2,0.4,0.6,0.4,0.9c0,0.3-0.1,0.7-0.4,0.9C14.7-51.6,14.4-51.5,14-51.5z"/>
			<path d="M26.5-58c-0.3,0-0.7-0.1-0.9-0.4c-0.2-0.2-0.4-0.6-0.4-0.9c0-0.3,0.1-0.7,0.4-0.9c0.5-0.5,1.4-0.5,1.8,0
				c0.2,0.2,0.4,0.6,0.4,0.9c0,0.3-0.1,0.7-0.4,0.9C27.2-58.1,26.9-58,26.5-58z"/>
			<path d="M4.5-67.5c-0.3,0-0.7-0.1-0.9-0.4c-0.2-0.2-0.4-0.6-0.4-0.9c0-0.3,0.1-0.7,0.4-0.9c0.5-0.5,1.4-0.5,1.8,0
				c0.2,0.2,0.4,0.6,0.4,0.9c0,0.3-0.1,0.7-0.4,0.9C5.2-67.6,4.9-67.5,4.5-67.5z"/>
			<path d="M5.8-58c-0.3,0-0.7-0.1-0.9-0.4c-0.2-0.2-0.4-0.6-0.4-0.9c0-0.3,0.1-0.7,0.4-0.9c0.5-0.5,1.4-0.5,1.8,0
				C7-60,7.1-59.6,7.1-59.3c0,0.3-0.1,0.7-0.4,0.9C6.5-58.1,6.1-58,5.8-58z"/>
			<path d="M7.8-54.8c-0.3,0-0.7-0.1-0.9-0.4c-0.2-0.2-0.4-0.6-0.4-0.9c0-0.3,0.1-0.7,0.4-0.9c0.5-0.5,1.4-0.5,1.8,0
				C9-56.7,9.1-56.4,9.1-56c0,0.3-0.1,0.7-0.4,0.9C8.5-54.9,8.1-54.8,7.8-54.8z"/>
			<path d="M6.3-61.5c-0.3,0-0.7-0.1-0.9-0.4C5.1-62.1,5-62.5,5-62.8c0-0.3,0.1-0.7,0.4-0.9c0.5-0.5,1.4-0.5,1.8,0
				c0.2,0.2,0.4,0.6,0.4,0.9c0,0.3-0.1,0.7-0.4,0.9C7-61.6,6.6-61.5,6.3-61.5z"/>
			<path d="M11.5-68.8c-0.3,0-0.7-0.1-0.9-0.4c-0.2-0.2-0.4-0.6-0.4-0.9c0-0.3,0.1-0.7,0.4-0.9c0.5-0.5,1.4-0.5,1.8,0
				c0.2,0.2,0.4,0.6,0.4,0.9c0,0.3-0.1,0.7-0.4,0.9C12.2-68.9,11.9-68.8,11.5-68.8z"/>
			<path d="M8.3-68.2c-0.3,0-0.7-0.1-0.9-0.4C7.1-68.9,7-69.2,7-69.5c0-0.3,0.1-0.7,0.4-0.9c0.5-0.5,1.4-0.5,1.8,0
				c0.2,0.2,0.4,0.6,0.4,0.9c0,0.3-0.1,0.7-0.4,0.9C9-68.4,8.6-68.2,8.3-68.2z"/>
			<path d="M8.5-65c-0.3,0-0.7-0.1-0.9-0.4c-0.2-0.2-0.4-0.6-0.4-0.9c0-0.3,0.1-0.7,0.4-0.9c0.5-0.5,1.4-0.5,1.8,0
				c0.2,0.2,0.4,0.6,0.4,0.9c0,0.3-0.1,0.7-0.4,0.9C9.2-65.1,8.9-65,8.5-65z"/>
			<path d="M13.3-65.8c-0.3,0-0.7-0.1-0.9-0.4C12.1-66.4,12-66.7,12-67c0-0.3,0.1-0.7,0.4-0.9c0.5-0.5,1.4-0.5,1.8,0
				c0.2,0.2,0.4,0.6,0.4,0.9c0,0.3-0.1,0.7-0.4,0.9C14-65.9,13.6-65.8,13.3-65.8z"/>
			<path d="M6.3-71c-0.3,0-0.7-0.1-0.9-0.4C5.1-71.6,5-72,5-72.3c0-0.3,0.1-0.7,0.4-0.9c0.5-0.5,1.4-0.5,1.8,0
				c0.2,0.2,0.4,0.6,0.4,0.9c0,0.3-0.1,0.7-0.4,0.9C7-71.1,6.6-71,6.3-71z"/>
			<path d="M9.5-60.2c-0.3,0-0.7-0.1-0.9-0.4c-0.2-0.2-0.4-0.6-0.4-0.9c0-0.3,0.1-0.7,0.4-0.9c0.5-0.5,1.4-0.5,1.8,0
				c0.2,0.2,0.4,0.6,0.4,0.9c0,0.3-0.1,0.7-0.4,0.9C10.2-60.4,9.9-60.2,9.5-60.2z"/>
			<path d="M12.3-62.5c-0.3,0-0.7-0.1-0.9-0.4c-0.2-0.2-0.4-0.6-0.4-0.9s0.1-0.7,0.4-0.9c0.5-0.5,1.4-0.5,1.8,0
				c0.2,0.2,0.4,0.6,0.4,0.9s-0.1,0.7-0.4,0.9C13-62.6,12.6-62.5,12.3-62.5z"/>
			<path d="M12.3-58.5c-0.3,0-0.7-0.1-0.9-0.4c-0.2-0.2-0.4-0.6-0.4-0.9c0-0.3,0.1-0.7,0.4-0.9c0.5-0.5,1.4-0.5,1.8,0
				c0.2,0.2,0.4,0.6,0.4,0.9c0,0.3-0.1,0.7-0.4,0.9C13-58.6,12.6-58.5,12.3-58.5z"/>
			<path d="M15-55.8c-0.3,0-0.7-0.1-0.9-0.4c-0.2-0.2-0.4-0.6-0.4-0.9c0-0.3,0.1-0.7,0.4-0.9c0.5-0.5,1.4-0.5,1.8,0
				c0.2,0.2,0.4,0.6,0.4,0.9c0,0.3-0.1,0.7-0.4,0.9C15.7-55.9,15.4-55.8,15-55.8z"/>
			<path d="M10.8-54c-0.3,0-0.7-0.1-0.9-0.4c-0.2-0.2-0.4-0.6-0.4-0.9c0-0.3,0.1-0.7,0.4-0.9c0.5-0.5,1.4-0.5,1.8,0
				c0.2,0.2,0.4,0.6,0.4,0.9c0,0.3-0.1,0.7-0.4,0.9C11.5-54.1,11.1-54,10.8-54z"/>
			<path d="M8.3-48.5c-0.3,0-0.7-0.1-0.9-0.4C7.1-49.1,7-49.5,7-49.8c0-0.3,0.1-0.7,0.4-0.9c0.5-0.5,1.4-0.5,1.8,0
				c0.2,0.2,0.4,0.6,0.4,0.9c0,0.3-0.1,0.7-0.4,0.9C9-48.6,8.6-48.5,8.3-48.5z"/>
			<path d="M7.5-51.5c-0.3,0-0.7-0.1-0.9-0.4c-0.2-0.2-0.4-0.6-0.4-0.9c0-0.3,0.1-0.7,0.4-0.9c0.5-0.5,1.4-0.5,1.8,0
				c0.2,0.2,0.4,0.6,0.4,0.9c0,0.3-0.1,0.7-0.4,0.9C8.2-51.6,7.9-51.5,7.5-51.5z"/>
			<path d="M17.5-2.8c-0.3,0-0.7-0.1-0.9-0.4c-0.2-0.2-0.4-0.6-0.4-0.9c0-0.3,0.1-0.7,0.4-0.9c0.5-0.5,1.4-0.5,1.8,0
				c0.2,0.2,0.4,0.6,0.4,0.9c0,0.3-0.1,0.7-0.4,0.9C18.2-2.9,17.9-2.8,17.5-2.8z"/>
			<path d="M17.5-2.8c-0.3,0-0.7-0.1-0.9-0.4c-0.2-0.2-0.4-0.6-0.4-0.9c0-0.3,0.1-0.7,0.4-0.9c0.5-0.5,1.4-0.5,1.8,0
				c0.2,0.2,0.4,0.6,0.4,0.9c0,0.3-0.1,0.7-0.4,0.9C18.2-2.9,17.9-2.8,17.5-2.8z"/>
			<path d="M21-3.8c-0.3,0-0.7-0.1-0.9-0.4c-0.2-0.2-0.4-0.6-0.4-0.9c0-0.3,0.1-0.7,0.4-0.9c0.5-0.5,1.4-0.5,1.8,0
				c0.2,0.2,0.4,0.6,0.4,0.9c0,0.3-0.1,0.7-0.4,0.9C21.7-3.9,21.4-3.8,21-3.8z"/>
			<path d="M26.5-2.8c-0.3,0-0.7-0.1-0.9-0.4c-0.2-0.2-0.4-0.6-0.4-0.9c0-0.3,0.1-0.7,0.4-0.9c0.5-0.5,1.4-0.5,1.8,0
				c0.2,0.2,0.4,0.6,0.4,0.9c0,0.3-0.1,0.7-0.4,0.9C27.2-2.9,26.9-2.8,26.5-2.8z"/>
			<path d="M31.8-3.2c-0.3,0-0.7-0.1-0.9-0.4c-0.2-0.2-0.4-0.6-0.4-0.9c0-0.3,0.1-0.7,0.4-0.9c0.5-0.5,1.4-0.5,1.8,0
				c0.2,0.2,0.4,0.6,0.4,0.9c0,0.3-0.1,0.7-0.4,0.9C32.5-3.4,32.2-3.2,31.8-3.2z"/>
			<path d="M35.3-2.8c-0.3,0-0.7-0.1-0.9-0.4C34.1-3.4,34-3.7,34-4c0-0.3,0.1-0.7,0.4-0.9c0.5-0.5,1.4-0.5,1.8,0
				c0.2,0.2,0.4,0.6,0.4,0.9c0,0.3-0.1,0.7-0.4,0.9C36-2.9,35.6-2.8,35.3-2.8z"/>
			<path d="M40.3-3.2c-0.3,0-0.7-0.1-0.9-0.4C39.1-3.9,39-4.2,39-4.5c0-0.3,0.1-0.7,0.4-0.9c0.5-0.5,1.4-0.5,1.8,0
				c0.2,0.2,0.4,0.6,0.4,0.9c0,0.3-0.1,0.7-0.4,0.9C41-3.4,40.6-3.2,40.3-3.2z"/>
			<path d="M47.5-6c-0.3,0-0.7-0.1-0.9-0.4c-0.2-0.2-0.4-0.6-0.4-0.9c0-0.3,0.1-0.7,0.4-0.9c0.5-0.5,1.4-0.5,1.8,0
				c0.2,0.2,0.4,0.6,0.4,0.9c0,0.3-0.1,0.7-0.4,0.9C48.2-6.1,47.9-6,47.5-6z"/>
			<path d="M52.3-4.2c-0.3,0-0.7-0.1-0.9-0.4C51.1-4.9,51-5.2,51-5.5c0-0.3,0.1-0.7,0.4-0.9c0.5-0.5,1.4-0.5,1.8,0
				c0.2,0.2,0.4,0.6,0.4,0.9c0,0.3-0.1,0.7-0.4,0.9C53-4.4,52.6-4.2,52.3-4.2z"/>
			<path d="M62.3-2.8c-0.3,0-0.7-0.1-0.9-0.4C61.1-3.4,61-3.7,61-4c0-0.3,0.1-0.7,0.4-0.9c0.5-0.5,1.4-0.5,1.8,0
				c0.2,0.2,0.4,0.6,0.4,0.9c0,0.3-0.1,0.7-0.4,0.9C63-2.9,62.6-2.8,62.3-2.8z"/>
			<path d="M70.3-2c-0.3,0-0.7-0.1-0.9-0.4C69.1-2.6,69-3,69-3.3c0-0.3,0.1-0.7,0.4-0.9c0.5-0.5,1.4-0.5,1.8,0
				c0.2,0.2,0.4,0.6,0.4,0.9c0,0.3-0.1,0.7-0.4,0.9C71-2.1,70.7-2,70.3-2z"/>
			<path d="M57.5-1c-0.3,0-0.7-0.1-0.9-0.4c-0.2-0.2-0.4-0.6-0.4-0.9c0-0.3,0.1-0.7,0.4-0.9c0.5-0.5,1.4-0.5,1.8,0
				c0.2,0.2,0.4,0.6,0.4,0.9c0,0.3-0.1,0.7-0.4,0.9C58.2-1.1,57.9-1,57.5-1z"/>
			<path d="M56.3-4.8c-0.3,0-0.7-0.1-0.9-0.4C55.1-5.4,55-5.7,55-6c0-0.3,0.1-0.7,0.4-0.9c0.5-0.5,1.4-0.5,1.8,0
				c0.2,0.2,0.4,0.6,0.4,0.9c0,0.3-0.1,0.7-0.4,0.9C57-4.9,56.6-4.8,56.3-4.8z"/>
			<path d="M12.8-3.8c-0.3,0-0.7-0.1-0.9-0.4c-0.2-0.2-0.4-0.6-0.4-0.9c0-0.3,0.1-0.7,0.4-0.9c0.5-0.5,1.4-0.5,1.8,0
				C14-5.7,14.1-5.4,14.1-5c0,0.3-0.1,0.7-0.4,0.9C13.5-3.9,13.1-3.8,12.8-3.8z"/>
			<path d="M8.3-3.5C8-3.5,7.6-3.6,7.4-3.9C7.1-4.1,7-4.5,7-4.8c0-0.3,0.1-0.7,0.4-0.9c0.5-0.5,1.4-0.5,1.8,0
				c0.2,0.2,0.4,0.6,0.4,0.9c0,0.3-0.1,0.7-0.4,0.9C9-3.6,8.6-3.5,8.3-3.5z"/>
			<path d="M24.5-47.8c-0.3,0-0.7-0.1-0.9-0.4c-0.2-0.2-0.4-0.6-0.4-0.9c0-0.3,0.1-0.7,0.4-0.9c0.5-0.5,1.4-0.5,1.8,0
				c0.2,0.2,0.4,0.6,0.4,0.9c0,0.3-0.1,0.7-0.4,0.9C25.2-47.9,24.9-47.8,24.5-47.8z"/>
			<path d="M29-46.8c-0.3,0-0.7-0.1-0.9-0.4c-0.2-0.2-0.4-0.6-0.4-0.9c0-0.3,0.1-0.7,0.4-0.9c0.5-0.5,1.4-0.5,1.8,0
				c0.2,0.2,0.4,0.6,0.4,0.9c0,0.3-0.1,0.7-0.4,0.9C29.7-46.9,29.4-46.8,29-46.8z"/>
			<path d="M32.8-48.8c-0.3,0-0.7-0.1-0.9-0.4c-0.2-0.2-0.4-0.6-0.4-0.9c0-0.3,0.1-0.7,0.4-0.9c0.5-0.5,1.4-0.5,1.8,0
				c0.2,0.2,0.4,0.6,0.4,0.9c0,0.3-0.1,0.7-0.4,0.9C33.5-48.9,33.1-48.8,32.8-48.8z"/>
			<path d="M31.5-44.8c-0.3,0-0.7-0.1-0.9-0.4c-0.2-0.2-0.4-0.6-0.4-0.9c0-0.3,0.1-0.7,0.4-0.9c0.5-0.5,1.4-0.5,1.8,0
				c0.2,0.2,0.4,0.6,0.4,0.9c0,0.3-0.1,0.7-0.4,0.9C32.2-44.9,31.9-44.8,31.5-44.8z"/>
			<path d="M28.8-42.8c-0.3,0-0.7-0.1-0.9-0.4c-0.2-0.2-0.4-0.6-0.4-0.9c0-0.3,0.1-0.7,0.4-0.9c0.5-0.5,1.4-0.5,1.8,0
				c0.2,0.2,0.4,0.6,0.4,0.9c0,0.3-0.1,0.7-0.4,0.9C29.5-42.9,29.1-42.8,28.8-42.8z"/>
			<path d="M25.3-43.5c-0.3,0-0.7-0.1-0.9-0.4c-0.2-0.2-0.4-0.6-0.4-0.9c0-0.3,0.1-0.7,0.4-0.9c0.5-0.5,1.4-0.5,1.8,0
				c0.2,0.2,0.4,0.6,0.4,0.9c0,0.3-0.1,0.7-0.4,0.9C26-43.6,25.7-43.5,25.3-43.5z"/>
			<path d="M22-42.8c-0.3,0-0.7-0.1-0.9-0.4c-0.2-0.2-0.4-0.6-0.4-0.9c0-0.3,0.1-0.7,0.4-0.9c0.5-0.5,1.4-0.5,1.8,0
				c0.2,0.2,0.4,0.6,0.4,0.9c0,0.3-0.1,0.7-0.4,0.9C22.7-42.9,22.4-42.8,22-42.8z"/>
			<path d="M20.5-46.5c-0.3,0-0.7-0.1-0.9-0.4c-0.2-0.2-0.4-0.6-0.4-0.9c0-0.3,0.1-0.7,0.4-0.9c0.5-0.5,1.4-0.5,1.8,0
				c0.2,0.2,0.4,0.6,0.4,0.9c0,0.3-0.1,0.7-0.4,0.9C21.2-46.6,20.9-46.5,20.5-46.5z"/>
			<path d="M18.5-44c-0.3,0-0.7-0.1-0.9-0.4c-0.2-0.2-0.4-0.6-0.4-0.9c0-0.3,0.1-0.7,0.4-0.9c0.5-0.5,1.4-0.5,1.8,0
				c0.2,0.2,0.4,0.6,0.4,0.9c0,0.3-0.1,0.7-0.4,0.9C19.2-44.1,18.9-44,18.5-44z"/>
			<path d="M15.3-45.2c-0.3,0-0.7-0.1-0.9-0.4c-0.2-0.2-0.4-0.6-0.4-0.9c0-0.3,0.1-0.7,0.4-0.9c0.5-0.5,1.4-0.5,1.8,0
				c0.2,0.2,0.4,0.6,0.4,0.9c0,0.3-0.1,0.7-0.4,0.9C16-45.4,15.6-45.2,15.3-45.2z"/>
			<path d="M12-43.8c-0.3,0-0.7-0.1-0.9-0.4c-0.2-0.2-0.4-0.6-0.4-0.9c0-0.3,0.1-0.7,0.4-0.9c0.5-0.5,1.4-0.5,1.8,0
				c0.2,0.2,0.4,0.6,0.4,0.9c0,0.3-0.1,0.7-0.4,0.9C12.7-43.9,12.4-43.8,12-43.8z"/>
			<path d="M11-40.5c-0.3,0-0.7-0.1-0.9-0.4c-0.2-0.2-0.4-0.6-0.4-0.9c0-0.3,0.1-0.7,0.4-0.9c0.5-0.5,1.4-0.5,1.8,0
				c0.2,0.2,0.4,0.6,0.4,0.9c0,0.3-0.1,0.7-0.4,0.9C11.7-40.6,11.4-40.5,11-40.5z"/>
			<path d="M12.5-36.2c-0.3,0-0.7-0.1-0.9-0.4c-0.2-0.2-0.4-0.6-0.4-0.9c0-0.3,0.1-0.7,0.4-0.9c0.5-0.5,1.4-0.5,1.8,0
				c0.2,0.2,0.4,0.6,0.4,0.9c0,0.3-0.1,0.7-0.4,0.9C13.2-36.4,12.9-36.2,12.5-36.2z"/>
			<path d="M15-38.8c-0.3,0-0.7-0.1-0.9-0.4c-0.2-0.2-0.4-0.6-0.4-0.9c0-0.3,0.1-0.7,0.4-0.9c0.5-0.5,1.4-0.5,1.8,0
				c0.2,0.2,0.4,0.6,0.4,0.9c0,0.3-0.1,0.7-0.4,0.9C15.7-38.9,15.4-38.8,15-38.8z"/>
			<path d="M17.8-41.2c-0.3,0-0.7-0.1-0.9-0.4c-0.2-0.2-0.4-0.6-0.4-0.9c0-0.3,0.1-0.7,0.4-0.9c0.5-0.5,1.4-0.5,1.8,0
				c0.2,0.2,0.4,0.6,0.4,0.9c0,0.3-0.1,0.7-0.4,0.9C18.5-41.4,18.1-41.2,17.8-41.2z"/>
			<path d="M21.5-39c-0.3,0-0.7-0.1-0.9-0.4c-0.2-0.2-0.4-0.6-0.4-0.9c0-0.3,0.1-0.7,0.4-0.9c0.5-0.5,1.4-0.5,1.8,0
				c0.2,0.2,0.4,0.6,0.4,0.9c0,0.3-0.1,0.7-0.4,0.9C22.2-39.1,21.9-39,21.5-39z"/>
			<path d="M18.5-36.5c-0.3,0-0.7-0.1-0.9-0.4c-0.2-0.2-0.4-0.6-0.4-0.9c0-0.3,0.1-0.7,0.4-0.9c0.5-0.5,1.4-0.5,1.8,0
				c0.2,0.2,0.4,0.6,0.4,0.9c0,0.3-0.1,0.7-0.4,0.9C19.2-36.6,18.9-36.5,18.5-36.5z"/>
			<path d="M15.5-33.8c-0.3,0-0.7-0.1-0.9-0.4c-0.2-0.2-0.4-0.6-0.4-0.9c0-0.3,0.1-0.7,0.4-0.9c0.5-0.5,1.4-0.5,1.8,0
				c0.2,0.2,0.4,0.6,0.4,0.9c0,0.3-0.1,0.7-0.4,0.9C16.2-33.9,15.9-33.8,15.5-33.8z"/>
			<path d="M12.3-32c-0.3,0-0.7-0.1-0.9-0.4C11.1-32.6,11-33,11-33.3c0-0.3,0.1-0.7,0.4-0.9c0.5-0.5,1.4-0.5,1.8,0
				c0.2,0.2,0.4,0.6,0.4,0.9c0,0.3-0.1,0.7-0.4,0.9C13-32.1,12.6-32,12.3-32z"/>
			<path d="M12.5-36.2c-0.3,0-0.7-0.1-0.9-0.4c-0.2-0.2-0.4-0.6-0.4-0.9c0-0.3,0.1-0.7,0.4-0.9c0.5-0.5,1.4-0.5,1.8,0
				c0.2,0.2,0.4,0.6,0.4,0.9c0,0.3-0.1,0.7-0.4,0.9C13.2-36.4,12.9-36.2,12.5-36.2z"/>
			<path d="M9.3-34.8c-0.3,0-0.7-0.1-0.9-0.4C8.1-35.4,8-35.7,8-36c0-0.3,0.1-0.7,0.4-0.9c0.5-0.5,1.4-0.5,1.8,0
				c0.2,0.2,0.4,0.6,0.4,0.9c0,0.3-0.1,0.7-0.4,0.9C10-34.9,9.6-34.8,9.3-34.8z"/>
			<path d="M8.3-39.2c-0.3,0-0.7-0.1-0.9-0.4C7.1-39.9,7-40.2,7-40.5c0-0.3,0.1-0.7,0.4-0.9c0.5-0.5,1.4-0.5,1.8,0
				c0.2,0.2,0.4,0.6,0.4,0.9c0,0.3-0.1,0.7-0.4,0.9C9-39.4,8.6-39.2,8.3-39.2z"/>
			<path d="M8-44.5c-0.3,0-0.7-0.1-0.9-0.4c-0.2-0.2-0.4-0.6-0.4-0.9c0-0.3,0.1-0.7,0.4-0.9c0.5-0.5,1.4-0.5,1.8,0
				c0.2,0.2,0.4,0.6,0.4,0.9c0,0.3-0.1,0.7-0.4,0.9C8.7-44.6,8.4-44.5,8-44.5z"/>
			<path d="M5-42.5c-0.3,0-0.7-0.1-0.9-0.4c-0.2-0.2-0.4-0.6-0.4-0.9c0-0.3,0.1-0.7,0.4-0.9c0.5-0.5,1.4-0.5,1.8,0
				c0.2,0.2,0.4,0.6,0.4,0.9c0,0.3-0.1,0.7-0.4,0.9C5.7-42.6,5.4-42.5,5-42.5z"/>
			<path d="M4.3-38.5c-0.3,0-0.7-0.1-0.9-0.4C3.1-39.1,3-39.5,3-39.8c0-0.3,0.1-0.7,0.4-0.9c0.5-0.5,1.4-0.5,1.8,0
				c0.2,0.2,0.4,0.6,0.4,0.9c0,0.3-0.1,0.7-0.4,0.9C5-38.6,4.6-38.5,4.3-38.5z"/>
			<path d="M4.3-47c-0.3,0-0.7-0.1-0.9-0.4C3.1-47.6,3-48,3-48.3c0-0.3,0.1-0.7,0.4-0.9c0.5-0.5,1.4-0.5,1.8,0
				c0.2,0.2,0.4,0.6,0.4,0.9c0,0.3-0.1,0.7-0.4,0.9C5-47.1,4.6-47,4.3-47z"/>
			<path d="M5.5-35c-0.3,0-0.7-0.1-0.9-0.4c-0.2-0.2-0.4-0.6-0.4-0.9c0-0.3,0.1-0.7,0.4-0.9c0.5-0.5,1.4-0.5,1.8,0
				c0.2,0.2,0.4,0.6,0.4,0.9c0,0.3-0.1,0.7-0.4,0.9C6.2-35.1,5.9-35,5.5-35z"/>
			<path d="M6-31.2c-0.3,0-0.7-0.1-0.9-0.4c-0.2-0.2-0.4-0.6-0.4-0.9c0-0.3,0.1-0.7,0.4-0.9C5.6-34,6.5-34,7-33.5
				c0.2,0.2,0.4,0.6,0.4,0.9c0,0.3-0.1,0.7-0.4,0.9C6.7-31.4,6.4-31.2,6-31.2z"/>
			<path d="M5.3-25.2c-0.3,0-0.7-0.1-0.9-0.4C4.1-25.9,4-26.2,4-26.5c0-0.3,0.1-0.7,0.4-0.9c0.5-0.5,1.4-0.5,1.8,0
				c0.2,0.2,0.4,0.6,0.4,0.9c0,0.3-0.1,0.7-0.4,0.9C6-25.4,5.6-25.2,5.3-25.2z"/>
			<path d="M6.3-22.2c-0.3,0-0.7-0.1-0.9-0.4C5.1-22.9,5-23.2,5-23.5c0-0.3,0.1-0.7,0.4-0.9c0.5-0.5,1.4-0.5,1.8,0
				c0.2,0.2,0.4,0.6,0.4,0.9c0,0.3-0.1,0.7-0.4,0.9C7-22.4,6.6-22.2,6.3-22.2z"/>
			<path d="M9.8-24.2c-0.3,0-0.7-0.1-0.9-0.4c-0.2-0.2-0.4-0.6-0.4-0.9c0-0.3,0.1-0.7,0.4-0.9c0.5-0.5,1.4-0.5,1.8,0
				c0.2,0.2,0.4,0.6,0.4,0.9c0,0.3-0.1,0.7-0.4,0.9C10.5-24.4,10.1-24.2,9.8-24.2z"/>
			<path d="M8-28.2c-0.3,0-0.7-0.1-0.9-0.4c-0.2-0.2-0.4-0.6-0.4-0.9c0-0.3,0.1-0.7,0.4-0.9C7.6-31,8.5-31,9-30.5
				c0.2,0.2,0.4,0.6,0.4,0.9c0,0.3-0.1,0.7-0.4,0.9C8.7-28.4,8.4-28.2,8-28.2z"/>
			<path d="M12-27.8c-0.3,0-0.7-0.1-0.9-0.4c-0.2-0.2-0.4-0.6-0.4-0.9c0-0.3,0.1-0.7,0.4-0.9c0.5-0.5,1.4-0.5,1.8,0
				c0.2,0.2,0.4,0.6,0.4,0.9c0,0.3-0.1,0.7-0.4,0.9C12.7-27.9,12.4-27.8,12-27.8z"/>
			<path d="M14.5-24.8c-0.3,0-0.7-0.1-0.9-0.4c-0.2-0.2-0.4-0.6-0.4-0.9c0-0.3,0.1-0.7,0.4-0.9c0.5-0.5,1.4-0.5,1.8,0
				c0.2,0.2,0.4,0.6,0.4,0.9c0,0.3-0.1,0.7-0.4,0.9C15.2-24.9,14.9-24.8,14.5-24.8z"/>
			<path d="M17.5-23.8c-0.3,0-0.7-0.1-0.9-0.4c-0.2-0.2-0.4-0.6-0.4-0.9c0-0.3,0.1-0.7,0.4-0.9c0.5-0.5,1.4-0.5,1.8,0
				c0.2,0.2,0.4,0.6,0.4,0.9c0,0.3-0.1,0.7-0.4,0.9C18.2-23.9,17.9-23.8,17.5-23.8z"/>
			<path d="M20.3-22.2c-0.3,0-0.7-0.1-0.9-0.4c-0.2-0.2-0.4-0.6-0.4-0.9c0-0.3,0.1-0.7,0.4-0.9c0.5-0.5,1.4-0.5,1.8,0
				c0.2,0.2,0.4,0.6,0.4,0.9c0,0.3-0.1,0.7-0.4,0.9C21-22.4,20.6-22.2,20.3-22.2z"/>
			<path d="M15-29c-0.3,0-0.7-0.1-0.9-0.4c-0.2-0.2-0.4-0.6-0.4-0.9c0-0.3,0.1-0.7,0.4-0.9c0.5-0.5,1.4-0.5,1.8,0
				c0.2,0.2,0.4,0.6,0.4,0.9c0,0.3-0.1,0.7-0.4,0.9C15.7-29.1,15.4-29,15-29z"/>
			<path d="M18.5-27.8c-0.3,0-0.7-0.1-0.9-0.4c-0.2-0.2-0.4-0.6-0.4-0.9c0-0.3,0.1-0.7,0.4-0.9c0.5-0.5,1.4-0.5,1.8,0
				c0.2,0.2,0.4,0.6,0.4,0.9c0,0.3-0.1,0.7-0.4,0.9C19.2-27.9,18.9-27.8,18.5-27.8z"/>
			<path d="M21.8-26.8c-0.3,0-0.7-0.1-0.9-0.4c-0.2-0.2-0.4-0.6-0.4-0.9c0-0.3,0.1-0.7,0.4-0.9c0.5-0.5,1.4-0.5,1.8,0
				c0.2,0.2,0.4,0.6,0.4,0.9c0,0.3-0.1,0.7-0.4,0.9C22.5-26.9,22.2-26.8,21.8-26.8z"/>
			<path d="M18.8-32.2c-0.3,0-0.7-0.1-0.9-0.4c-0.2-0.2-0.4-0.6-0.4-0.9c0-0.3,0.1-0.7,0.4-0.9c0.5-0.5,1.4-0.5,1.8,0
				c0.2,0.2,0.4,0.6,0.4,0.9c0,0.3-0.1,0.7-0.4,0.9C19.5-32.4,19.1-32.2,18.8-32.2z"/>
			<path d="M22.8-31.2c-0.3,0-0.7-0.1-0.9-0.4c-0.2-0.2-0.4-0.6-0.4-0.9c0-0.3,0.1-0.7,0.4-0.9c0.5-0.5,1.4-0.5,1.8,0
				c0.2,0.2,0.4,0.6,0.4,0.9c0,0.3-0.1,0.7-0.4,0.9C23.5-31.4,23.1-31.2,22.8-31.2z"/>
			<path d="M23.5-35.5c-0.3,0-0.7-0.1-0.9-0.4c-0.2-0.2-0.4-0.6-0.4-0.9c0-0.3,0.1-0.7,0.4-0.9c0.5-0.5,1.4-0.5,1.8,0
				c0.2,0.2,0.4,0.6,0.4,0.9c0,0.3-0.1,0.7-0.4,0.9C24.2-35.6,23.9-35.5,23.5-35.5z"/>
			<path d="M26-32.5c-0.3,0-0.7-0.1-0.9-0.4c-0.2-0.2-0.4-0.6-0.4-0.9c0-0.3,0.1-0.7,0.4-0.9c0.5-0.5,1.4-0.5,1.8,0
				c0.2,0.2,0.4,0.6,0.4,0.9c0,0.3-0.1,0.7-0.4,0.9C26.7-32.6,26.4-32.5,26-32.5z"/>
			<path d="M28.8-35c-0.3,0-0.7-0.1-0.9-0.4c-0.2-0.2-0.4-0.6-0.4-0.9c0-0.3,0.1-0.7,0.4-0.9c0.5-0.5,1.4-0.5,1.8,0
				c0.2,0.2,0.4,0.6,0.4,0.9c0,0.3-0.1,0.7-0.4,0.9C29.5-35.1,29.1-35,28.8-35z"/>
			<path d="M25-28.5c-0.3,0-0.7-0.1-0.9-0.4c-0.2-0.2-0.4-0.6-0.4-0.9c0-0.3,0.1-0.7,0.4-0.9c0.5-0.5,1.4-0.5,1.8,0
				c0.2,0.2,0.4,0.6,0.4,0.9c0,0.3-0.1,0.7-0.4,0.9C25.7-28.6,25.4-28.5,25-28.5z"/>
			<path d="M28.5-26.5c-0.3,0-0.7-0.1-0.9-0.4c-0.2-0.2-0.4-0.6-0.4-0.9c0-0.3,0.1-0.7,0.4-0.9c0.5-0.5,1.4-0.5,1.8,0
				c0.2,0.2,0.4,0.6,0.4,0.9c0,0.3-0.1,0.7-0.4,0.9C29.2-26.6,28.9-26.5,28.5-26.5z"/>
			<path d="M28.5-22.5c-0.3,0-0.7-0.1-0.9-0.4c-0.2-0.2-0.4-0.6-0.4-0.9c0-0.3,0.1-0.7,0.4-0.9c0.5-0.5,1.4-0.5,1.8,0
				c0.2,0.2,0.4,0.6,0.4,0.9c0,0.3-0.1,0.7-0.4,0.9C29.2-22.6,28.9-22.5,28.5-22.5z"/>
			<path d="M24.5-24.2c-0.3,0-0.7-0.1-0.9-0.4c-0.2-0.2-0.4-0.6-0.4-0.9c0-0.3,0.1-0.7,0.4-0.9c0.5-0.5,1.4-0.5,1.8,0
				c0.2,0.2,0.4,0.6,0.4,0.9c0,0.3-0.1,0.7-0.4,0.9C25.2-24.4,24.9-24.2,24.5-24.2z"/>
			<path d="M32-25.5c-0.3,0-0.7-0.1-0.9-0.4c-0.2-0.2-0.4-0.6-0.4-0.9c0-0.3,0.1-0.7,0.4-0.9c0.5-0.5,1.4-0.5,1.8,0
				c0.2,0.2,0.4,0.6,0.4,0.9c0,0.3-0.1,0.7-0.4,0.9C32.7-25.6,32.4-25.5,32-25.5z"/>
			<path d="M34-28.8c-0.3,0-0.7-0.1-0.9-0.4c-0.2-0.2-0.4-0.6-0.4-0.9c0-0.3,0.1-0.7,0.4-0.9c0.5-0.5,1.4-0.5,1.8,0
				c0.2,0.2,0.4,0.6,0.4,0.9c0,0.3-0.1,0.7-0.4,0.9C34.7-28.9,34.4-28.8,34-28.8z"/>
			<path d="M32.8-32.8c-0.3,0-0.7-0.1-0.9-0.4c-0.2-0.2-0.4-0.6-0.4-0.9c0-0.3,0.1-0.7,0.4-0.9c0.5-0.5,1.4-0.5,1.8,0
				c0.2,0.2,0.4,0.6,0.4,0.9c0,0.3-0.1,0.7-0.4,0.9C33.5-32.9,33.1-32.8,32.8-32.8z"/>
			<path d="M32.8-36.8c-0.3,0-0.7-0.1-0.9-0.4c-0.2-0.2-0.4-0.6-0.4-0.9c0-0.3,0.1-0.7,0.4-0.9c0.5-0.5,1.4-0.5,1.8,0
				c0.2,0.2,0.4,0.6,0.4,0.9c0,0.3-0.1,0.7-0.4,0.9C33.5-36.9,33.1-36.8,32.8-36.8z"/>
			<path d="M29.5-38.5c-0.3,0-0.7-0.1-0.9-0.4c-0.2-0.2-0.4-0.6-0.4-0.9c0-0.3,0.1-0.7,0.4-0.9c0.5-0.5,1.4-0.5,1.8,0
				c0.2,0.2,0.4,0.6,0.4,0.9c0,0.3-0.1,0.7-0.4,0.9C30.2-38.6,29.9-38.5,29.5-38.5z"/>
			<path d="M26-38.5c-0.3,0-0.7-0.1-0.9-0.4c-0.2-0.2-0.4-0.6-0.4-0.9c0-0.3,0.1-0.7,0.4-0.9c0.5-0.5,1.4-0.5,1.8,0
				c0.2,0.2,0.4,0.6,0.4,0.9c0,0.3-0.1,0.7-0.4,0.9C26.7-38.6,26.4-38.5,26-38.5z"/>
			<path d="M32.5-42c-0.3,0-0.7-0.1-0.9-0.4c-0.2-0.2-0.4-0.6-0.4-0.9c0-0.3,0.1-0.7,0.4-0.9c0.5-0.5,1.4-0.5,1.8,0
				c0.2,0.2,0.4,0.6,0.4,0.9c0,0.3-0.1,0.7-0.4,0.9C33.2-42.1,32.9-42,32.5-42z"/>
			<path d="M35.5-39.2c-0.3,0-0.7-0.1-0.9-0.4c-0.2-0.2-0.4-0.6-0.4-0.9c0-0.3,0.1-0.7,0.4-0.9c0.5-0.5,1.4-0.5,1.8,0
				c0.2,0.2,0.4,0.6,0.4,0.9c0,0.3-0.1,0.7-0.4,0.9C36.2-39.4,35.9-39.2,35.5-39.2z"/>
			<path d="M38.5-38.8c-0.3,0-0.7-0.1-0.9-0.4c-0.2-0.2-0.4-0.6-0.4-0.9c0-0.3,0.1-0.7,0.4-0.9c0.5-0.5,1.4-0.5,1.8,0
				c0.2,0.2,0.4,0.6,0.4,0.9c0,0.3-0.1,0.7-0.4,0.9C39.2-38.9,38.9-38.8,38.5-38.8z"/>
			<path d="M36-34.8c-0.3,0-0.7-0.1-0.9-0.4c-0.2-0.2-0.4-0.6-0.4-0.9c0-0.3,0.1-0.7,0.4-0.9c0.5-0.5,1.4-0.5,1.8,0
				c0.2,0.2,0.4,0.6,0.4,0.9c0,0.3-0.1,0.7-0.4,0.9C36.7-34.9,36.4-34.8,36-34.8z"/>
			<path d="M37-31c-0.3,0-0.7-0.1-0.9-0.4c-0.2-0.2-0.4-0.6-0.4-0.9c0-0.3,0.1-0.7,0.4-0.9c0.5-0.5,1.4-0.5,1.8,0
				c0.2,0.2,0.4,0.6,0.4,0.9c0,0.3-0.1,0.7-0.4,0.9C37.7-31.1,37.4-31,37-31z"/>
			<path d="M34-28.8c-0.3,0-0.7-0.1-0.9-0.4c-0.2-0.2-0.4-0.6-0.4-0.9c0-0.3,0.1-0.7,0.4-0.9c0.5-0.5,1.4-0.5,1.8,0
				c0.2,0.2,0.4,0.6,0.4,0.9c0,0.3-0.1,0.7-0.4,0.9C34.7-28.9,34.4-28.8,34-28.8z"/>
			<path d="M37.3-27.2c-0.3,0-0.7-0.1-0.9-0.4c-0.2-0.2-0.4-0.6-0.4-0.9c0-0.3,0.1-0.7,0.4-0.9c0.5-0.5,1.4-0.5,1.8,0
				c0.2,0.2,0.4,0.6,0.4,0.9c0,0.3-0.1,0.7-0.4,0.9C38-27.4,37.6-27.2,37.3-27.2z"/>
			<path d="M40.3-23c-0.3,0-0.7-0.1-0.9-0.4C39.1-23.6,39-24,39-24.3c0-0.3,0.1-0.7,0.4-0.9c0.5-0.5,1.4-0.5,1.8,0
				c0.2,0.2,0.4,0.6,0.4,0.9c0,0.3-0.1,0.7-0.4,0.9C41-23.1,40.6-23,40.3-23z"/>
			<path d="M35.3-24c-0.3,0-0.7-0.1-0.9-0.4C34.1-24.6,34-25,34-25.3c0-0.3,0.1-0.7,0.4-0.9c0.5-0.5,1.4-0.5,1.8,0
				c0.2,0.2,0.4,0.6,0.4,0.9c0,0.3-0.1,0.7-0.4,0.9C36-24.1,35.6-24,35.3-24z"/>
			<path d="M41-27c-0.3,0-0.7-0.1-0.9-0.4c-0.2-0.2-0.4-0.6-0.4-0.9c0-0.3,0.1-0.7,0.4-0.9c0.5-0.5,1.4-0.5,1.8,0
				c0.2,0.2,0.4,0.6,0.4,0.9c0,0.3-0.1,0.7-0.4,0.9C41.7-27.1,41.4-27,41-27z"/>
			<path d="M40.8-31.5c-0.3,0-0.7-0.1-0.9-0.4c-0.2-0.2-0.4-0.6-0.4-0.9c0-0.3,0.1-0.7,0.4-0.9c0.5-0.5,1.4-0.5,1.8,0
				c0.2,0.2,0.4,0.6,0.4,0.9c0,0.3-0.1,0.7-0.4,0.9C41.5-31.6,41.2-31.5,40.8-31.5z"/>
			<path d="M40-35c-0.3,0-0.7-0.1-0.9-0.4c-0.2-0.2-0.4-0.6-0.4-0.9c0-0.3,0.1-0.7,0.4-0.9c0.5-0.5,1.4-0.5,1.8,0
				c0.2,0.2,0.4,0.6,0.4,0.9c0,0.3-0.1,0.7-0.4,0.9C40.7-35.1,40.4-35,40-35z"/>
			<path d="M35.5-39.2c-0.3,0-0.7-0.1-0.9-0.4c-0.2-0.2-0.4-0.6-0.4-0.9c0-0.3,0.1-0.7,0.4-0.9c0.5-0.5,1.4-0.5,1.8,0
				c0.2,0.2,0.4,0.6,0.4,0.9c0,0.3-0.1,0.7-0.4,0.9C36.2-39.4,35.9-39.2,35.5-39.2z"/>
			<path d="M38.5-38.8c-0.3,0-0.7-0.1-0.9-0.4c-0.2-0.2-0.4-0.6-0.4-0.9c0-0.3,0.1-0.7,0.4-0.9c0.5-0.5,1.4-0.5,1.8,0
				c0.2,0.2,0.4,0.6,0.4,0.9c0,0.3-0.1,0.7-0.4,0.9C39.2-38.9,38.9-38.8,38.5-38.8z"/>
			<path d="M36.3-42.5c-0.3,0-0.7-0.1-0.9-0.4c-0.2-0.2-0.4-0.6-0.4-0.9c0-0.3,0.1-0.7,0.4-0.9c0.5-0.5,1.4-0.5,1.8,0
				c0.2,0.2,0.4,0.6,0.4,0.9c0,0.3-0.1,0.7-0.4,0.9C37-42.6,36.6-42.5,36.3-42.5z"/>
			<path d="M35.8-46.5c-0.3,0-0.7-0.1-0.9-0.4c-0.2-0.2-0.4-0.6-0.4-0.9c0-0.3,0.1-0.7,0.4-0.9c0.5-0.5,1.4-0.5,1.8,0
				c0.2,0.2,0.4,0.6,0.4,0.9c0,0.3-0.1,0.7-0.4,0.9C36.5-46.6,36.2-46.5,35.8-46.5z"/>
			<path d="M39.5-46.2c-0.3,0-0.7-0.1-0.9-0.4c-0.2-0.2-0.4-0.6-0.4-0.9c0-0.3,0.1-0.7,0.4-0.9c0.5-0.5,1.4-0.5,1.8,0
				c0.2,0.2,0.4,0.6,0.4,0.9c0,0.3-0.1,0.7-0.4,0.9C40.2-46.4,39.9-46.2,39.5-46.2z"/>
			<path d="M40.3-41.8c-0.3,0-0.7-0.1-0.9-0.4C39.1-42.4,39-42.7,39-43c0-0.3,0.1-0.7,0.4-0.9c0.5-0.5,1.4-0.5,1.8,0
				c0.2,0.2,0.4,0.6,0.4,0.9c0,0.3-0.1,0.7-0.4,0.9C41-41.9,40.6-41.8,40.3-41.8z"/>
			<path d="M42.5-38.5c-0.3,0-0.7-0.1-0.9-0.4c-0.2-0.2-0.4-0.6-0.4-0.9c0-0.3,0.1-0.7,0.4-0.9c0.5-0.5,1.4-0.5,1.8,0
				c0.2,0.2,0.4,0.6,0.4,0.9c0,0.3-0.1,0.7-0.4,0.9C43.2-38.6,42.9-38.5,42.5-38.5z"/>
			<path d="M45.5-36c-0.3,0-0.7-0.1-0.9-0.4c-0.2-0.2-0.4-0.6-0.4-0.9c0-0.3,0.1-0.7,0.4-0.9c0.5-0.5,1.4-0.5,1.8,0
				c0.2,0.2,0.4,0.6,0.4,0.9c0,0.3-0.1,0.7-0.4,0.9C46.2-36.1,45.9-36,45.5-36z"/>
			<path d="M45-32.2c-0.3,0-0.7-0.1-0.9-0.4c-0.2-0.2-0.4-0.6-0.4-0.9c0-0.3,0.1-0.7,0.4-0.9c0.5-0.5,1.4-0.5,1.8,0
				c0.2,0.2,0.4,0.6,0.4,0.9c0,0.3-0.1,0.7-0.4,0.9C45.7-32.4,45.4-32.2,45-32.2z"/>
			<path d="M44.3-28.5c-0.3,0-0.7-0.1-0.9-0.4c-0.2-0.2-0.4-0.6-0.4-0.9c0-0.3,0.1-0.7,0.4-0.9c0.5-0.5,1.4-0.5,1.8,0
				c0.2,0.2,0.4,0.6,0.4,0.9c0,0.3-0.1,0.7-0.4,0.9C45-28.6,44.6-28.5,44.3-28.5z"/>
			<path d="M46.3-25c-0.3,0-0.7-0.1-0.9-0.4C45.1-25.6,45-26,45-26.3c0-0.3,0.1-0.7,0.4-0.9c0.5-0.5,1.4-0.5,1.8,0
				c0.2,0.2,0.4,0.6,0.4,0.9c0,0.3-0.1,0.7-0.4,0.9C47-25.1,46.6-25,46.3-25z"/>
			<path d="M49.3-28c-0.3,0-0.7-0.1-0.9-0.4C48.1-28.6,48-29,48-29.3c0-0.3,0.1-0.7,0.4-0.9c0.5-0.5,1.4-0.5,1.8,0
				c0.2,0.2,0.4,0.6,0.4,0.9c0,0.3-0.1,0.7-0.4,0.9C50-28.1,49.6-28,49.3-28z"/>
			<path d="M49.3-23.5c-0.3,0-0.7-0.1-0.9-0.4c-0.2-0.2-0.4-0.6-0.4-0.9c0-0.3,0.1-0.7,0.4-0.9c0.5-0.5,1.4-0.5,1.8,0
				c0.2,0.2,0.4,0.6,0.4,0.9c0,0.3-0.1,0.7-0.4,0.9C50-23.6,49.6-23.5,49.3-23.5z"/>
			<path d="M49-32.8c-0.3,0-0.7-0.1-0.9-0.4c-0.2-0.2-0.4-0.6-0.4-0.9c0-0.3,0.1-0.7,0.4-0.9c0.5-0.5,1.4-0.5,1.8,0
				c0.2,0.2,0.4,0.6,0.4,0.9c0,0.3-0.1,0.7-0.4,0.9C49.7-32.9,49.4-32.8,49-32.8z"/>
			<path d="M50.3-35.8c-0.3,0-0.7-0.1-0.9-0.4C49.1-36.4,49-36.7,49-37c0-0.3,0.1-0.7,0.4-0.9c0.5-0.5,1.4-0.5,1.8,0
				c0.2,0.2,0.4,0.6,0.4,0.9c0,0.3-0.1,0.7-0.4,0.9C51-35.9,50.7-35.8,50.3-35.8z"/>
			<path d="M47-39.8c-0.3,0-0.7-0.1-0.9-0.4c-0.2-0.2-0.4-0.6-0.4-0.9c0-0.3,0.1-0.7,0.4-0.9c0.5-0.5,1.4-0.5,1.8,0
				c0.2,0.2,0.4,0.6,0.4,0.9c0,0.3-0.1,0.7-0.4,0.9C47.7-39.9,47.4-39.8,47-39.8z"/>
			<path d="M45.3-42.2c-0.3,0-0.7-0.1-0.9-0.4c-0.2-0.2-0.4-0.6-0.4-0.9c0-0.3,0.1-0.7,0.4-0.9c0.5-0.5,1.4-0.5,1.8,0
				c0.2,0.2,0.4,0.6,0.4,0.9c0,0.3-0.1,0.7-0.4,0.9C46-42.4,45.6-42.2,45.3-42.2z"/>
			<path d="M43.3-44.5c-0.3,0-0.7-0.1-0.9-0.4c-0.2-0.2-0.4-0.6-0.4-0.9c0-0.3,0.1-0.7,0.4-0.9c0.5-0.5,1.4-0.5,1.8,0
				c0.2,0.2,0.4,0.6,0.4,0.9c0,0.3-0.1,0.7-0.4,0.9C44-44.6,43.7-44.5,43.3-44.5z"/>
			<path d="M46.5-46.5c-0.3,0-0.7-0.1-0.9-0.4c-0.2-0.2-0.4-0.6-0.4-0.9c0-0.3,0.1-0.7,0.4-0.9c0.5-0.5,1.4-0.5,1.8,0
				c0.2,0.2,0.4,0.6,0.4,0.9c0,0.3-0.1,0.7-0.4,0.9C47.2-46.6,46.9-46.5,46.5-46.5z"/>
			<path d="M45.5-50.5c-0.3,0-0.7-0.1-0.9-0.4c-0.2-0.2-0.4-0.6-0.4-0.9c0-0.3,0.1-0.7,0.4-0.9c0.5-0.5,1.4-0.5,1.8,0
				c0.2,0.2,0.4,0.6,0.4,0.9c0,0.3-0.1,0.7-0.4,0.9C46.2-50.6,45.9-50.5,45.5-50.5z"/>
			<path d="M50.3-47.8c-0.3,0-0.7-0.1-0.9-0.4C49.1-48.4,49-48.7,49-49c0-0.3,0.1-0.7,0.4-0.9c0.5-0.5,1.4-0.5,1.8,0
				c0.2,0.2,0.4,0.6,0.4,0.9c0,0.3-0.1,0.7-0.4,0.9C51-47.9,50.6-47.8,50.3-47.8z"/>
			<path d="M49-43.5c-0.3,0-0.7-0.1-0.9-0.4c-0.2-0.2-0.4-0.6-0.4-0.9c0-0.3,0.1-0.7,0.4-0.9c0.5-0.5,1.4-0.5,1.8,0
				c0.2,0.2,0.4,0.6,0.4,0.9c0,0.3-0.1,0.7-0.4,0.9C49.7-43.6,49.4-43.5,49-43.5z"/>
			<path d="M51-40.2c-0.3,0-0.7-0.1-0.9-0.4c-0.2-0.2-0.4-0.6-0.4-0.9c0-0.3,0.1-0.7,0.4-0.9c0.5-0.5,1.4-0.5,1.8,0
				c0.2,0.2,0.4,0.6,0.4,0.9c0,0.3-0.1,0.7-0.4,0.9C51.7-40.4,51.4-40.2,51-40.2z"/>
			<path d="M54.3-37.8c-0.3,0-0.7-0.1-0.9-0.4C53.1-38.4,53-38.7,53-39c0-0.3,0.1-0.7,0.4-0.9c0.5-0.5,1.4-0.5,1.8,0
				c0.2,0.2,0.4,0.6,0.4,0.9c0,0.3-0.1,0.7-0.4,0.9C55-37.9,54.6-37.8,54.3-37.8z"/>
			<path d="M54-33.8c-0.3,0-0.7-0.1-0.9-0.4c-0.2-0.2-0.4-0.6-0.4-0.9c0-0.3,0.1-0.7,0.4-0.9c0.5-0.5,1.4-0.5,1.8,0
				c0.2,0.2,0.4,0.6,0.4,0.9c0,0.3-0.1,0.7-0.4,0.9C54.7-33.9,54.4-33.8,54-33.8z"/>
			<path d="M53-29.8c-0.3,0-0.7-0.1-0.9-0.4c-0.2-0.2-0.4-0.6-0.4-0.9c0-0.3,0.1-0.7,0.4-0.9c0.5-0.5,1.4-0.5,1.8,0
				c0.2,0.2,0.4,0.6,0.4,0.9c0,0.3-0.1,0.7-0.4,0.9C53.7-29.9,53.4-29.8,53-29.8z"/>
			<path d="M56.8-30.5c-0.3,0-0.7-0.1-0.9-0.4c-0.2-0.2-0.4-0.6-0.4-0.9c0-0.3,0.1-0.7,0.4-0.9c0.5-0.5,1.4-0.5,1.8,0
				c0.2,0.2,0.4,0.6,0.4,0.9c0,0.3-0.1,0.7-0.4,0.9C57.5-30.6,57.1-30.5,56.8-30.5z"/>
			<path d="M56.5-26c-0.3,0-0.7-0.1-0.9-0.4c-0.2-0.2-0.4-0.6-0.4-0.9c0-0.3,0.1-0.7,0.4-0.9c0.5-0.5,1.4-0.5,1.8,0
				c0.2,0.2,0.4,0.6,0.4,0.9c0,0.3-0.1,0.7-0.4,0.9C57.2-26.1,56.9-26,56.5-26z"/>
			<path d="M59.3-23c-0.3,0-0.7-0.1-0.9-0.4C58.1-23.6,58-24,58-24.3c0-0.3,0.1-0.7,0.4-0.9c0.5-0.5,1.4-0.5,1.8,0
				c0.2,0.2,0.4,0.6,0.4,0.9c0,0.3-0.1,0.7-0.4,0.9C60-23.1,59.7-23,59.3-23z"/>
			<path d="M60-27.8c-0.3,0-0.7-0.1-0.9-0.4c-0.2-0.2-0.4-0.6-0.4-0.9c0-0.3,0.1-0.7,0.4-0.9c0.5-0.5,1.4-0.5,1.8,0
				c0.2,0.2,0.4,0.6,0.4,0.9c0,0.3-0.1,0.7-0.4,0.9C60.7-27.9,60.4-27.8,60-27.8z"/>
			<path d="M60-31.5c-0.3,0-0.7-0.1-0.9-0.4c-0.2-0.2-0.4-0.6-0.4-0.9c0-0.3,0.1-0.7,0.4-0.9c0.5-0.5,1.4-0.5,1.8,0
				c0.2,0.2,0.4,0.6,0.4,0.9c0,0.3-0.1,0.7-0.4,0.9C60.7-31.6,60.4-31.5,60-31.5z"/>
			<path d="M59-35.5c-0.3,0-0.7-0.1-0.9-0.4c-0.2-0.2-0.4-0.6-0.4-0.9c0-0.3,0.1-0.7,0.4-0.9c0.5-0.5,1.4-0.5,1.8,0
				c0.2,0.2,0.4,0.6,0.4,0.9c0,0.3-0.1,0.7-0.4,0.9C59.7-35.6,59.4-35.5,59-35.5z"/>
			<path d="M29.8-30.5c-0.3,0-0.7-0.1-0.9-0.4c-0.2-0.2-0.4-0.6-0.4-0.9c0-0.3,0.1-0.7,0.4-0.9c0.5-0.5,1.4-0.5,1.8,0
				c0.2,0.2,0.4,0.6,0.4,0.9c0,0.3-0.1,0.7-0.4,0.9C30.5-30.6,30.1-30.5,29.8-30.5z"/>
			<path d="M72.8-41.2c-0.3,0-0.7-0.1-0.9-0.4c-0.2-0.2-0.4-0.6-0.4-0.9c0-0.3,0.1-0.7,0.4-0.9c0.5-0.5,1.4-0.5,1.8,0
				c0.2,0.2,0.4,0.6,0.4,0.9c0,0.3-0.1,0.7-0.4,0.9C73.5-41.4,73.1-41.2,72.8-41.2z"/>
			<path d="M73.8-45.5c-0.3,0-0.7-0.1-0.9-0.4c-0.2-0.2-0.4-0.6-0.4-0.9c0-0.3,0.1-0.7,0.4-0.9c0.5-0.5,1.4-0.5,1.8,0
				c0.2,0.2,0.4,0.6,0.4,0.9c0,0.3-0.1,0.7-0.4,0.9C74.5-45.6,74.1-45.5,73.8-45.5z"/>
			<path d="M70.5-47.2c-0.3,0-0.7-0.1-0.9-0.4c-0.2-0.2-0.4-0.6-0.4-0.9c0-0.3,0.1-0.7,0.4-0.9c0.5-0.5,1.4-0.5,1.8,0
				c0.2,0.2,0.4,0.6,0.4,0.9c0,0.3-0.1,0.7-0.4,0.9C71.2-47.4,70.9-47.2,70.5-47.2z"/>
			<path d="M70.8-38c-0.3,0-0.7-0.1-0.9-0.4c-0.2-0.2-0.4-0.6-0.4-0.9c0-0.3,0.1-0.7,0.4-0.9c0.5-0.5,1.4-0.5,1.8,0
				c0.2,0.2,0.4,0.6,0.4,0.9c0,0.3-0.1,0.7-0.4,0.9C71.5-38.1,71.2-38,70.8-38z"/>
			<path d="M70.5-34.2c-0.3,0-0.7-0.1-0.9-0.4c-0.2-0.2-0.4-0.6-0.4-0.9c0-0.3,0.1-0.7,0.4-0.9c0.5-0.5,1.4-0.5,1.8,0
				c0.2,0.2,0.4,0.6,0.4,0.9c0,0.3-0.1,0.7-0.4,0.9C71.2-34.4,70.9-34.2,70.5-34.2z"/>
			<path d="M74-35.5c-0.3,0-0.7-0.1-0.9-0.4c-0.2-0.2-0.4-0.6-0.4-0.9c0-0.3,0.1-0.7,0.4-0.9c0.5-0.5,1.4-0.5,1.8,0
				c0.2,0.2,0.4,0.6,0.4,0.9c0,0.3-0.1,0.7-0.4,0.9C74.7-35.6,74.4-35.5,74-35.5z"/>
			<path d="M73.3-31.5c-0.3,0-0.7-0.1-0.9-0.4c-0.2-0.2-0.4-0.6-0.4-0.9c0-0.3,0.1-0.7,0.4-0.9c0.5-0.5,1.4-0.5,1.8,0
				c0.2,0.2,0.4,0.6,0.4,0.9c0,0.3-0.1,0.7-0.4,0.9C74-31.6,73.6-31.5,73.3-31.5z"/>
			<path d="M72.5-24c-0.3,0-0.7-0.1-0.9-0.4c-0.2-0.2-0.4-0.6-0.4-0.9c0-0.3,0.1-0.7,0.4-0.9c0.5-0.5,1.4-0.5,1.8,0
				c0.2,0.2,0.4,0.6,0.4,0.9c0,0.3-0.1,0.7-0.4,0.9C73.2-24.1,72.9-24,72.5-24z"/>
			<path d="M71.5-27.5c-0.3,0-0.7-0.1-0.9-0.4c-0.2-0.2-0.4-0.6-0.4-0.9c0-0.3,0.1-0.7,0.4-0.9c0.5-0.5,1.4-0.5,1.8,0
				c0.2,0.2,0.4,0.6,0.4,0.9c0,0.3-0.1,0.7-0.4,0.9C72.2-27.6,71.9-27.5,71.5-27.5z"/>
			<path d="M69-43.5c-0.3,0-0.7-0.1-0.9-0.4c-0.2-0.2-0.4-0.6-0.4-0.9c0-0.3,0.1-0.7,0.4-0.9c0.5-0.5,1.4-0.5,1.8,0
				c0.2,0.2,0.4,0.6,0.4,0.9c0,0.3-0.1,0.7-0.4,0.9C69.7-43.6,69.4-43.5,69-43.5z"/>
			<path d="M65.5-43.2c-0.3,0-0.7-0.1-0.9-0.4c-0.2-0.2-0.4-0.6-0.4-0.9c0-0.3,0.1-0.7,0.4-0.9c0.5-0.5,1.4-0.5,1.8,0
				c0.2,0.2,0.4,0.6,0.4,0.9c0,0.3-0.1,0.7-0.4,0.9C66.2-43.4,65.9-43.2,65.5-43.2z"/>
			<path d="M66.5-48c-0.3,0-0.7-0.1-0.9-0.4c-0.2-0.2-0.4-0.6-0.4-0.9c0-0.3,0.1-0.7,0.4-0.9c0.5-0.5,1.4-0.5,1.8,0
				c0.2,0.2,0.4,0.6,0.4,0.9c0,0.3-0.1,0.7-0.4,0.9C67.2-48.1,66.9-48,66.5-48z"/>
			<path d="M63-46.5c-0.3,0-0.7-0.1-0.9-0.4c-0.2-0.2-0.4-0.6-0.4-0.9c0-0.3,0.1-0.7,0.4-0.9c0.5-0.5,1.4-0.5,1.8,0
				c0.2,0.2,0.4,0.6,0.4,0.9c0,0.3-0.1,0.7-0.4,0.9C63.7-46.6,63.4-46.5,63-46.5z"/>
			<path d="M59.3-47.5c-0.3,0-0.7-0.1-0.9-0.4c-0.2-0.2-0.4-0.6-0.4-0.9c0-0.3,0.1-0.7,0.4-0.9c0.5-0.5,1.4-0.5,1.8,0
				c0.2,0.2,0.4,0.6,0.4,0.9c0,0.3-0.1,0.7-0.4,0.9C60-47.6,59.6-47.5,59.3-47.5z"/>
			<path d="M55.8-45.8c-0.3,0-0.7-0.1-0.9-0.4c-0.2-0.2-0.4-0.6-0.4-0.9c0-0.3,0.1-0.7,0.4-0.9c0.5-0.5,1.4-0.5,1.8,0
				c0.2,0.2,0.4,0.6,0.4,0.9c0,0.3-0.1,0.7-0.4,0.9C56.5-45.9,56.2-45.8,55.8-45.8z"/>
			<path d="M52.8-44.8c-0.3,0-0.7-0.1-0.9-0.4c-0.2-0.2-0.4-0.6-0.4-0.9c0-0.3,0.1-0.7,0.4-0.9c0.5-0.5,1.4-0.5,1.8,0
				c0.2,0.2,0.4,0.6,0.4,0.9c0,0.3-0.1,0.7-0.4,0.9C53.5-44.9,53.1-44.8,52.8-44.8z"/>
			<path d="M55-41c-0.3,0-0.7-0.1-0.9-0.4c-0.2-0.2-0.4-0.6-0.4-0.9c0-0.3,0.1-0.7,0.4-0.9c0.5-0.5,1.4-0.5,1.8,0
				c0.2,0.2,0.4,0.6,0.4,0.9c0,0.3-0.1,0.7-0.4,0.9C55.7-41.1,55.4-41,55-41z"/>
			<path d="M59.3-43.5c-0.3,0-0.7-0.1-0.9-0.4c-0.2-0.2-0.4-0.6-0.4-0.9c0-0.3,0.1-0.7,0.4-0.9c0.5-0.5,1.4-0.5,1.8,0
				c0.2,0.2,0.4,0.6,0.4,0.9c0,0.3-0.1,0.7-0.4,0.9C60-43.6,59.6-43.5,59.3-43.5z"/>
			<path d="M62.3-40.5c-0.3,0-0.7-0.1-0.9-0.4c-0.2-0.2-0.4-0.6-0.4-0.9c0-0.3,0.1-0.7,0.4-0.9c0.5-0.5,1.4-0.5,1.8,0
				c0.2,0.2,0.4,0.6,0.4,0.9c0,0.3-0.1,0.7-0.4,0.9C63-40.6,62.6-40.5,62.3-40.5z"/>
			<path d="M58.5-39c-0.3,0-0.7-0.1-0.9-0.4c-0.2-0.2-0.4-0.6-0.4-0.9c0-0.3,0.1-0.7,0.4-0.9c0.5-0.5,1.4-0.5,1.8,0
				c0.2,0.2,0.4,0.6,0.4,0.9c0,0.3-0.1,0.7-0.4,0.9C59.2-39.1,58.9-39,58.5-39z"/>
			<path d="M62.5-36.2c-0.3,0-0.7-0.1-0.9-0.4c-0.2-0.2-0.4-0.6-0.4-0.9c0-0.3,0.1-0.7,0.4-0.9c0.5-0.5,1.4-0.5,1.8,0
				c0.2,0.2,0.4,0.6,0.4,0.9c0,0.3-0.1,0.7-0.4,0.9C63.2-36.4,62.9-36.2,62.5-36.2z"/>
			<path d="M67-39.8c-0.3,0-0.7-0.1-0.9-0.4c-0.2-0.2-0.4-0.6-0.4-0.9c0-0.3,0.1-0.7,0.4-0.9c0.5-0.5,1.4-0.5,1.8,0
				c0.2,0.2,0.4,0.6,0.4,0.9c0,0.3-0.1,0.7-0.4,0.9C67.7-39.9,67.4-39.8,67-39.8z"/>
			<path d="M66.8-36.5c-0.3,0-0.7-0.1-0.9-0.4c-0.2-0.2-0.4-0.6-0.4-0.9c0-0.3,0.1-0.7,0.4-0.9c0.5-0.5,1.4-0.5,1.8,0
				c0.2,0.2,0.4,0.6,0.4,0.9c0,0.3-0.1,0.7-0.4,0.9C67.5-36.6,67.1-36.5,66.8-36.5z"/>
			<path d="M64-32.2c-0.3,0-0.7-0.1-0.9-0.4c-0.2-0.2-0.4-0.6-0.4-0.9c0-0.3,0.1-0.7,0.4-0.9c0.5-0.5,1.4-0.5,1.8,0
				c0.2,0.2,0.4,0.6,0.4,0.9c0,0.3-0.1,0.7-0.4,0.9C64.7-32.4,64.4-32.2,64-32.2z"/>
			<path d="M65.3-28.2c-0.3,0-0.7-0.1-0.9-0.4c-0.2-0.2-0.4-0.6-0.4-0.9c0-0.3,0.1-0.7,0.4-0.9c0.5-0.5,1.4-0.5,1.8,0
				c0.2,0.2,0.4,0.6,0.4,0.9c0,0.3-0.1,0.7-0.4,0.9C66-28.4,65.7-28.2,65.3-28.2z"/>
			<path d="M60-27.8c-0.3,0-0.7-0.1-0.9-0.4c-0.2-0.2-0.4-0.6-0.4-0.9c0-0.3,0.1-0.7,0.4-0.9c0.5-0.5,1.4-0.5,1.8,0
				c0.2,0.2,0.4,0.6,0.4,0.9c0,0.3-0.1,0.7-0.4,0.9C60.7-27.9,60.4-27.8,60-27.8z"/>
			<path d="M62.8-25.5c-0.3,0-0.7-0.1-0.9-0.4c-0.2-0.2-0.4-0.6-0.4-0.9c0-0.3,0.1-0.7,0.4-0.9c0.5-0.5,1.4-0.5,1.8,0
				c0.2,0.2,0.4,0.6,0.4,0.9c0,0.3-0.1,0.7-0.4,0.9C63.5-25.6,63.1-25.5,62.8-25.5z"/>
			<path d="M68.3-25.2c-0.3,0-0.7-0.1-0.9-0.4c-0.2-0.2-0.4-0.6-0.4-0.9c0-0.3,0.1-0.7,0.4-0.9c0.5-0.5,1.4-0.5,1.8,0
				c0.2,0.2,0.4,0.6,0.4,0.9c0,0.3-0.1,0.7-0.4,0.9C69-25.4,68.7-25.2,68.3-25.2z"/>
			<path d="M68-31c-0.3,0-0.7-0.1-0.9-0.4c-0.2-0.2-0.4-0.6-0.4-0.9c0-0.3,0.1-0.7,0.4-0.9c0.5-0.5,1.4-0.5,1.8,0
				c0.2,0.2,0.4,0.6,0.4,0.9c0,0.3-0.1,0.7-0.4,0.9C68.7-31.1,68.4-31,68-31z"/>
			<path d="M52.5-25.5c-0.3,0-0.7-0.1-0.9-0.4c-0.2-0.2-0.4-0.6-0.4-0.9c0-0.3,0.1-0.7,0.4-0.9c0.5-0.5,1.4-0.5,1.8,0
				c0.2,0.2,0.4,0.6,0.4,0.9c0,0.3-0.1,0.7-0.4,0.9C53.2-25.6,52.9-25.5,52.5-25.5z"/>
			<path d="M64.3-21.8c-0.3,0-0.7-0.1-0.9-0.4C63.1-22.4,63-22.7,63-23c0-0.3,0.1-0.7,0.4-0.9c0.5-0.5,1.4-0.5,1.8,0
				c0.2,0.2,0.4,0.6,0.4,0.9c0,0.3-0.1,0.7-0.4,0.9C65-21.9,64.6-21.8,64.3-21.8z"/>
			<path d="M9.3-15.8c-0.3,0-0.7-0.1-0.9-0.4C8.1-16.4,8-16.7,8-17c0-0.3,0.1-0.7,0.4-0.9c0.5-0.5,1.4-0.5,1.8,0
				c0.2,0.2,0.4,0.6,0.4,0.9c0,0.3-0.1,0.7-0.4,0.9C10-15.9,9.6-15.8,9.3-15.8z"/>
			<path d="M10.3-20.2c-0.3,0-0.7-0.1-0.9-0.4C9.1-20.9,9-21.2,9-21.5c0-0.3,0.1-0.7,0.4-0.9c0.5-0.5,1.4-0.5,1.8,0
				c0.2,0.2,0.4,0.6,0.4,0.9c0,0.3-0.1,0.7-0.4,0.9C11-20.4,10.6-20.2,10.3-20.2z"/>
			<path d="M13.5-21.5c-0.3,0-0.7-0.1-0.9-0.4c-0.2-0.2-0.4-0.6-0.4-0.9c0-0.3,0.1-0.7,0.4-0.9c0.5-0.5,1.4-0.5,1.8,0
				c0.2,0.2,0.4,0.6,0.4,0.9c0,0.3-0.1,0.7-0.4,0.9C14.2-21.6,13.9-21.5,13.5-21.5z"/>
			<path d="M12.5-17.5c-0.3,0-0.7-0.1-0.9-0.4c-0.2-0.2-0.4-0.6-0.4-0.9c0-0.3,0.1-0.7,0.4-0.9c0.5-0.5,1.4-0.5,1.8,0
				c0.2,0.2,0.4,0.6,0.4,0.9c0,0.3-0.1,0.7-0.4,0.9C13.2-17.6,12.9-17.5,12.5-17.5z"/>
			<path d="M16-15.5c-0.3,0-0.7-0.1-0.9-0.4c-0.2-0.2-0.4-0.6-0.4-0.9c0-0.3,0.1-0.7,0.4-0.9c0.5-0.5,1.4-0.5,1.8,0
				c0.2,0.2,0.4,0.6,0.4,0.9c0,0.3-0.1,0.7-0.4,0.9C16.7-15.6,16.4-15.5,16-15.5z"/>
			<path d="M16-11.5c-0.3,0-0.7-0.1-0.9-0.4c-0.2-0.2-0.4-0.6-0.4-0.9s0.1-0.7,0.4-0.9c0.5-0.5,1.4-0.5,1.8,0
				c0.2,0.2,0.4,0.6,0.4,0.9s-0.1,0.7-0.4,0.9C16.7-11.6,16.4-11.5,16-11.5z"/>
			<path d="M12-13.2c-0.3,0-0.7-0.1-0.9-0.4c-0.2-0.2-0.4-0.6-0.4-0.9s0.1-0.7,0.4-0.9c0.5-0.5,1.4-0.5,1.8,0
				c0.2,0.2,0.4,0.6,0.4,0.9s-0.1,0.7-0.4,0.9C12.7-13.4,12.4-13.2,12-13.2z"/>
			<path d="M19.5-14.5c-0.3,0-0.7-0.1-0.9-0.4c-0.2-0.2-0.4-0.6-0.4-0.9c0-0.3,0.1-0.7,0.4-0.9c0.5-0.5,1.4-0.5,1.8,0
				c0.2,0.2,0.4,0.6,0.4,0.9c0,0.3-0.1,0.7-0.4,0.9C20.2-14.6,19.9-14.5,19.5-14.5z"/>
			<path d="M19.8-11.5c-0.3,0-0.7-0.1-0.9-0.4c-0.2-0.2-0.4-0.6-0.4-0.9s0.1-0.7,0.4-0.9c0.5-0.5,1.4-0.5,1.8,0
				c0.2,0.2,0.4,0.6,0.4,0.9s-0.1,0.7-0.4,0.9C20.5-11.6,20.2-11.5,19.8-11.5z"/>
			<path d="M21.5-17.8c-0.3,0-0.7-0.1-0.9-0.4c-0.2-0.2-0.4-0.6-0.4-0.9c0-0.3,0.1-0.7,0.4-0.9c0.5-0.5,1.4-0.5,1.8,0
				c0.2,0.2,0.4,0.6,0.4,0.9c0,0.3-0.1,0.7-0.4,0.9C22.2-17.9,21.9-17.8,21.5-17.8z"/>
			<path d="M24.5-20c-0.3,0-0.7-0.1-0.9-0.4c-0.2-0.2-0.4-0.6-0.4-0.9c0-0.3,0.1-0.7,0.4-0.9c0.5-0.5,1.4-0.5,1.8,0
				c0.2,0.2,0.4,0.6,0.4,0.9c0,0.3-0.1,0.7-0.4,0.9C25.2-20.1,24.9-20,24.5-20z"/>
			<path d="M21.5-17.8c-0.3,0-0.7-0.1-0.9-0.4c-0.2-0.2-0.4-0.6-0.4-0.9c0-0.3,0.1-0.7,0.4-0.9c0.5-0.5,1.4-0.5,1.8,0
				c0.2,0.2,0.4,0.6,0.4,0.9c0,0.3-0.1,0.7-0.4,0.9C22.2-17.9,21.9-17.8,21.5-17.8z"/>
			<path d="M24.8-16.2c-0.3,0-0.7-0.1-0.9-0.4c-0.2-0.2-0.4-0.6-0.4-0.9c0-0.3,0.1-0.7,0.4-0.9c0.5-0.5,1.4-0.5,1.8,0
				c0.2,0.2,0.4,0.6,0.4,0.9c0,0.3-0.1,0.7-0.4,0.9C25.5-16.4,25.1-16.2,24.8-16.2z"/>
			<path d="M27.8-12c-0.3,0-0.7-0.1-0.9-0.4c-0.2-0.2-0.4-0.6-0.4-0.9s0.1-0.7,0.4-0.9c0.5-0.5,1.4-0.5,1.8,0
				c0.2,0.2,0.4,0.6,0.4,0.9s-0.1,0.7-0.4,0.9C28.5-12.1,28.1-12,27.8-12z"/>
			<path d="M22.8-13c-0.3,0-0.7-0.1-0.9-0.4c-0.2-0.2-0.4-0.6-0.4-0.9s0.1-0.7,0.4-0.9c0.5-0.5,1.4-0.5,1.8,0
				c0.2,0.2,0.4,0.6,0.4,0.9s-0.1,0.7-0.4,0.9C23.5-13.1,23.2-13,22.8-13z"/>
			<path d="M28.5-15c-0.3,0-0.7-0.1-0.9-0.4c-0.2-0.2-0.4-0.6-0.4-0.9c0-0.3,0.1-0.7,0.4-0.9c0.5-0.5,1.4-0.5,1.8,0
				c0.2,0.2,0.4,0.6,0.4,0.9c0,0.3-0.1,0.7-0.4,0.9C29.2-15.1,28.9-15,28.5-15z"/>
			<path d="M28.3-19.5c-0.3,0-0.7-0.1-0.9-0.4c-0.2-0.2-0.4-0.6-0.4-0.9c0-0.3,0.1-0.7,0.4-0.9c0.5-0.5,1.4-0.5,1.8,0
				c0.2,0.2,0.4,0.6,0.4,0.9c0,0.3-0.1,0.7-0.4,0.9C29-19.6,28.6-19.5,28.3-19.5z"/>
			<path d="M32.5-21.2c-0.3,0-0.7-0.1-0.9-0.4c-0.2-0.2-0.4-0.6-0.4-0.9c0-0.3,0.1-0.7,0.4-0.9c0.5-0.5,1.4-0.5,1.8,0
				c0.2,0.2,0.4,0.6,0.4,0.9c0,0.3-0.1,0.7-0.4,0.9C33.2-21.4,32.9-21.2,32.5-21.2z"/>
			<path d="M31.8-18.2c-0.3,0-0.7-0.1-0.9-0.4c-0.2-0.2-0.4-0.6-0.4-0.9c0-0.3,0.1-0.7,0.4-0.9c0.5-0.5,1.4-0.5,1.8,0
				c0.2,0.2,0.4,0.6,0.4,0.9c0,0.3-0.1,0.7-0.4,0.9C32.5-18.4,32.2-18.2,31.8-18.2z"/>
			<path d="M33-14.5c-0.3,0-0.7-0.1-0.9-0.4c-0.2-0.2-0.4-0.6-0.4-0.9c0-0.3,0.1-0.7,0.4-0.9c0.5-0.5,1.4-0.5,1.8,0
				c0.2,0.2,0.4,0.6,0.4,0.9c0,0.3-0.1,0.7-0.4,0.9C33.7-14.6,33.4-14.5,33-14.5z"/>
			<path d="M36.8-17c-0.3,0-0.7-0.1-0.9-0.4c-0.2-0.2-0.4-0.6-0.4-0.9c0-0.3,0.1-0.7,0.4-0.9c0.5-0.5,1.4-0.5,1.8,0
				c0.2,0.2,0.4,0.6,0.4,0.9c0,0.3-0.1,0.7-0.4,0.9C37.5-17.1,37.1-17,36.8-17z"/>
			<path d="M36.5-11.5c-0.3,0-0.7-0.1-0.9-0.4c-0.2-0.2-0.4-0.6-0.4-0.9s0.1-0.7,0.4-0.9c0.5-0.5,1.4-0.5,1.8,0
				c0.2,0.2,0.4,0.6,0.4,0.9s-0.1,0.7-0.4,0.9C37.2-11.6,36.9-11.5,36.5-11.5z"/>
			<path d="M37-20.5c-0.3,0-0.7-0.1-0.9-0.4c-0.2-0.2-0.4-0.6-0.4-0.9c0-0.3,0.1-0.7,0.4-0.9c0.5-0.5,1.4-0.5,1.8,0
				c0.2,0.2,0.4,0.6,0.4,0.9c0,0.3-0.1,0.7-0.4,0.9C37.7-20.6,37.4-20.5,37-20.5z"/>
			<path d="M40.5-18.8c-0.3,0-0.7-0.1-0.9-0.4c-0.2-0.2-0.4-0.6-0.4-0.9c0-0.3,0.1-0.7,0.4-0.9c0.5-0.5,1.4-0.5,1.8,0
				c0.2,0.2,0.4,0.6,0.4,0.9c0,0.3-0.1,0.7-0.4,0.9C41.2-18.9,40.9-18.8,40.5-18.8z"/>
			<path d="M17.3-19.5c-0.3,0-0.7-0.1-0.9-0.4c-0.2-0.2-0.4-0.6-0.4-0.9c0-0.3,0.1-0.7,0.4-0.9c0.5-0.5,1.4-0.5,1.8,0
				c0.2,0.2,0.4,0.6,0.4,0.9c0,0.3-0.1,0.7-0.4,0.9C18-19.6,17.6-19.5,17.3-19.5z"/>
			<path d="M39.5-14.8c-0.3,0-0.7-0.1-0.9-0.4c-0.2-0.2-0.4-0.6-0.4-0.9c0-0.3,0.1-0.7,0.4-0.9c0.5-0.5,1.4-0.5,1.8,0
				c0.2,0.2,0.4,0.6,0.4,0.9c0,0.3-0.1,0.7-0.4,0.9C40.2-14.9,39.9-14.8,39.5-14.8z"/>
			<path d="M6-9.2c-0.3,0-0.7-0.1-0.9-0.4c-0.2-0.2-0.4-0.6-0.4-0.9s0.1-0.7,0.4-0.9C5.6-12,6.5-12,7-11.5c0.2,0.2,0.4,0.6,0.4,0.9
				S7.2-9.9,7-9.6C6.7-9.4,6.4-9.2,6-9.2z"/>
			<path d="M5-5.2c-0.3,0-0.7-0.1-0.9-0.4C3.9-5.9,3.8-6.2,3.8-6.5c0-0.3,0.1-0.7,0.4-0.9C4.6-8,5.5-8,6-7.5
				c0.2,0.2,0.4,0.6,0.4,0.9c0,0.3-0.1,0.7-0.4,0.9C5.7-5.4,5.4-5.2,5-5.2z"/>
			<path d="M14-5.5c-0.3,0-0.7-0.1-0.9-0.4c-0.2-0.2-0.4-0.6-0.4-0.9c0-0.3,0.1-0.7,0.4-0.9c0.5-0.5,1.4-0.5,1.8,0
				c0.2,0.2,0.4,0.6,0.4,0.9c0,0.3-0.1,0.7-0.4,0.9C14.7-5.6,14.4-5.5,14-5.5z"/>
			<path d="M12.8-9.5c-0.3,0-0.7-0.1-0.9-0.4c-0.2-0.2-0.4-0.6-0.4-0.9s0.1-0.7,0.4-0.9c0.5-0.5,1.4-0.5,1.8,0
				c0.2,0.2,0.4,0.6,0.4,0.9s-0.1,0.7-0.4,0.9C13.5-9.6,13.1-9.5,12.8-9.5z"/>
			<path d="M17-7.8c-0.3,0-0.7-0.1-0.9-0.4c-0.2-0.2-0.4-0.6-0.4-0.9c0-0.3,0.1-0.7,0.4-0.9c0.5-0.5,1.4-0.5,1.8,0
				c0.2,0.2,0.4,0.6,0.4,0.9c0,0.3-0.1,0.7-0.4,0.9C17.7-7.9,17.4-7.8,17-7.8z"/>
			<path d="M14-5.5c-0.3,0-0.7-0.1-0.9-0.4c-0.2-0.2-0.4-0.6-0.4-0.9c0-0.3,0.1-0.7,0.4-0.9c0.5-0.5,1.4-0.5,1.8,0
				c0.2,0.2,0.4,0.6,0.4,0.9c0,0.3-0.1,0.7-0.4,0.9C14.7-5.6,14.4-5.5,14-5.5z"/>
			<path d="M20.8-8.2c-0.3,0-0.7-0.1-0.9-0.4c-0.2-0.2-0.4-0.6-0.4-0.9c0-0.3,0.1-0.7,0.4-0.9c0.5-0.5,1.4-0.5,1.8,0
				c0.2,0.2,0.4,0.6,0.4,0.9c0,0.3-0.1,0.7-0.4,0.9C21.5-8.4,21.1-8.2,20.8-8.2z"/>
			<path d="M25-9c-0.3,0-0.7-0.1-0.9-0.4c-0.2-0.2-0.4-0.6-0.4-0.9c0-0.3,0.1-0.7,0.4-0.9c0.5-0.5,1.4-0.5,1.8,0
				c0.2,0.2,0.4,0.6,0.4,0.9c0,0.3-0.1,0.7-0.4,0.9C25.7-9.1,25.4-9,25-9z"/>
			<path d="M24.3-6c-0.3,0-0.7-0.1-0.9-0.4C23.1-6.6,23-7,23-7.3c0-0.3,0.1-0.7,0.4-0.9c0.5-0.5,1.4-0.5,1.8,0
				c0.2,0.3,0.4,0.6,0.4,0.9c0,0.3-0.1,0.7-0.4,0.9C25-6.1,24.7-6,24.3-6z"/>
			<path d="M29.3-4.8c-0.3,0-0.7-0.1-0.9-0.4C28.1-5.4,28-5.7,28-6c0-0.3,0.1-0.7,0.4-0.9c0.5-0.5,1.4-0.5,1.8,0
				c0.2,0.2,0.4,0.6,0.4,0.9c0,0.3-0.1,0.7-0.4,0.9C30-4.9,29.6-4.8,29.3-4.8z"/>
			<path d="M29.5-8.2c-0.3,0-0.7-0.1-0.9-0.4c-0.2-0.2-0.4-0.6-0.4-0.9c0-0.3,0.1-0.7,0.4-0.9c0.5-0.5,1.4-0.5,1.8,0
				c0.2,0.2,0.4,0.6,0.4,0.9c0,0.3-0.1,0.7-0.4,0.9C30.2-8.4,29.9-8.2,29.5-8.2z"/>
			<path d="M33.5-5.8c-0.3,0-0.7-0.1-0.9-0.4c-0.2-0.2-0.4-0.6-0.4-0.9c0-0.3,0.1-0.7,0.4-0.9c0.5-0.5,1.4-0.5,1.8,0
				c0.2,0.2,0.4,0.6,0.4,0.9c0,0.3-0.1,0.7-0.4,0.9C34.2-5.9,33.9-5.8,33.5-5.8z"/>
			<path d="M36.8-7.2c-0.3,0-0.7-0.1-0.9-0.4c-0.2-0.2-0.4-0.6-0.4-0.9c0-0.3,0.1-0.7,0.4-0.9c0.5-0.5,1.4-0.5,1.8,0
				c0.2,0.2,0.4,0.6,0.4,0.9c0,0.3-0.1,0.7-0.4,0.9C37.5-7.4,37.1-7.2,36.8-7.2z"/>
			<path d="M9.8-7.2c-0.3,0-0.7-0.1-0.9-0.4C8.6-7.9,8.5-8.2,8.5-8.5c0-0.3,0.1-0.7,0.4-0.9c0.5-0.5,1.4-0.5,1.8,0
				c0.2,0.2,0.4,0.6,0.4,0.9c0,0.3-0.1,0.7-0.4,0.9C10.5-7.4,10.1-7.2,9.8-7.2z"/>
			<path d="M44-22.2c-0.3,0-0.7-0.1-0.9-0.4c-0.2-0.2-0.4-0.6-0.4-0.9c0-0.3,0.1-0.7,0.4-0.9c0.5-0.5,1.4-0.5,1.8,0
				c0.2,0.2,0.4,0.6,0.4,0.9c0,0.3-0.1,0.7-0.4,0.9C44.7-22.4,44.4-22.2,44-22.2z"/>
			<path d="M46.5-16c-0.3,0-0.7-0.1-0.9-0.4c-0.2-0.2-0.4-0.6-0.4-0.9c0-0.3,0.1-0.7,0.4-0.9c0.5-0.5,1.4-0.5,1.8,0
				c0.2,0.2,0.4,0.6,0.4,0.9c0,0.3-0.1,0.7-0.4,0.9C47.2-16.1,46.9-16,46.5-16z"/>
			<path d="M47-20c-0.3,0-0.7-0.1-0.9-0.4c-0.2-0.2-0.4-0.6-0.4-0.9c0-0.3,0.1-0.7,0.4-0.9c0.5-0.5,1.4-0.5,1.8,0
				c0.2,0.2,0.4,0.6,0.4,0.9c0,0.3-0.1,0.7-0.4,0.9C47.7-20.1,47.4-20,47-20z"/>
			<path d="M51.8-21c-0.3,0-0.7-0.1-0.9-0.4c-0.2-0.2-0.4-0.6-0.4-0.9c0-0.3,0.1-0.7,0.4-0.9c0.5-0.5,1.4-0.5,1.8,0
				c0.2,0.2,0.4,0.6,0.4,0.9c0,0.3-0.1,0.7-0.4,0.9C52.5-21.1,52.2-21,51.8-21z"/>
			<path d="M52.5-16.2c-0.3,0-0.7-0.1-0.9-0.4c-0.2-0.2-0.4-0.6-0.4-0.9c0-0.3,0.1-0.7,0.4-0.9c0.5-0.5,1.4-0.5,1.8,0
				c0.2,0.2,0.4,0.6,0.4,0.9c0,0.3-0.1,0.7-0.4,0.9C53.2-16.4,52.9-16.2,52.5-16.2z"/>
			<path d="M49.5-13.5c-0.3,0-0.7-0.1-0.9-0.4c-0.2-0.2-0.4-0.6-0.4-0.9s0.1-0.7,0.4-0.9c0.5-0.5,1.4-0.5,1.8,0
				c0.2,0.2,0.4,0.6,0.4,0.9s-0.1,0.7-0.4,0.9C50.2-13.6,49.9-13.5,49.5-13.5z"/>
			<path d="M46.3-11.8c-0.3,0-0.7-0.1-0.9-0.4C45.1-12.4,45-12.7,45-13s0.1-0.7,0.4-0.9c0.5-0.5,1.4-0.5,1.8,0
				c0.2,0.2,0.4,0.6,0.4,0.9s-0.1,0.7-0.4,0.9C47-11.9,46.6-11.8,46.3-11.8z"/>
			<path d="M46.5-16c-0.3,0-0.7-0.1-0.9-0.4c-0.2-0.2-0.4-0.6-0.4-0.9c0-0.3,0.1-0.7,0.4-0.9c0.5-0.5,1.4-0.5,1.8,0
				c0.2,0.2,0.4,0.6,0.4,0.9c0,0.3-0.1,0.7-0.4,0.9C47.2-16.1,46.9-16,46.5-16z"/>
			<path d="M44.3-8.5c-0.3,0-0.7-0.1-0.9-0.4C43.1-9.1,43-9.5,43-9.8c0-0.3,0.1-0.7,0.4-0.9c0.5-0.5,1.4-0.5,1.8,0
				c0.2,0.2,0.4,0.6,0.4,0.9c0,0.3-0.1,0.7-0.4,0.9C45-8.6,44.6-8.5,44.3-8.5z"/>
			<path d="M49-8.8c-0.3,0-0.7-0.1-0.9-0.4c-0.2-0.2-0.4-0.6-0.4-0.9c0-0.3,0.1-0.7,0.4-0.9c0.5-0.5,1.4-0.5,1.8,0
				c0.2,0.2,0.4,0.6,0.4,0.9c0,0.3-0.1,0.7-0.4,0.9C49.7-8.9,49.4-8.8,49-8.8z"/>
			<path d="M52.5-7.5c-0.3,0-0.7-0.1-0.9-0.4c-0.2-0.2-0.4-0.6-0.4-0.9c0-0.3,0.1-0.7,0.4-0.9c0.5-0.5,1.4-0.5,1.8,0
				c0.2,0.2,0.4,0.6,0.4,0.9c0,0.3-0.1,0.7-0.4,0.9C53.2-7.6,52.9-7.5,52.5-7.5z"/>
			<path d="M52.8-12c-0.3,0-0.7-0.1-0.9-0.4c-0.2-0.2-0.4-0.6-0.4-0.9s0.1-0.7,0.4-0.9c0.5-0.5,1.4-0.5,1.8,0
				c0.2,0.2,0.4,0.6,0.4,0.9s-0.1,0.7-0.4,0.9C53.5-12.1,53.1-12,52.8-12z"/>
			<path d="M5.8-13.5c-0.3,0-0.7-0.1-0.9-0.4c-0.2-0.2-0.4-0.6-0.4-0.9s0.1-0.7,0.4-0.9c0.5-0.5,1.4-0.5,1.8,0
				c0.2,0.2,0.4,0.6,0.4,0.9S7-14.1,6.7-13.9C6.5-13.6,6.1-13.5,5.8-13.5z"/>
			<path d="M6.3-18.2c-0.3,0-0.7-0.1-0.9-0.4C5.1-18.9,5-19.2,5-19.5c0-0.3,0.1-0.7,0.4-0.9c0.5-0.5,1.4-0.5,1.8,0
				c0.2,0.2,0.4,0.6,0.4,0.9c0,0.3-0.1,0.7-0.4,0.9C7-18.4,6.6-18.2,6.3-18.2z"/>
			<path d="M72.5-5.5c-0.3,0-0.7-0.1-0.9-0.4c-0.2-0.2-0.4-0.6-0.4-0.9c0-0.3,0.1-0.7,0.4-0.9c0.5-0.5,1.4-0.5,1.8,0
				c0.2,0.2,0.4,0.6,0.4,0.9c0,0.3-0.1,0.7-0.4,0.9C73.2-5.6,72.9-5.5,72.5-5.5z"/>
			<path d="M69.3-7c-0.3,0-0.7-0.1-0.9-0.4C68.1-7.6,68-8,68-8.3c0-0.3,0.1-0.7,0.4-0.9c0.5-0.5,1.4-0.5,1.8,0
				c0.2,0.2,0.4,0.6,0.4,0.9c0,0.3-0.1,0.7-0.4,0.9C70-7.1,69.7-7,69.3-7z"/>
			<path d="M75.3-8c-0.3,0-0.7-0.1-0.9-0.4C74.1-8.6,74-9,74-9.3c0-0.3,0.1-0.7,0.4-0.9c0.5-0.5,1.4-0.5,1.8,0
				c0.2,0.2,0.4,0.6,0.4,0.9c0,0.3-0.1,0.7-0.4,0.9C76-8.1,75.6-8,75.3-8z"/>
			<path d="M72-20.8c-0.3,0-0.7-0.1-0.9-0.4c-0.2-0.2-0.4-0.6-0.4-0.9c0-0.3,0.1-0.7,0.4-0.9c0.5-0.5,1.4-0.5,1.8,0
				c0.2,0.2,0.4,0.6,0.4,0.9c0,0.3-0.1,0.7-0.4,0.9C72.7-20.9,72.4-20.8,72-20.8z"/>
			<path d="M71.8-15.5c-0.3,0-0.7-0.1-0.9-0.4c-0.2-0.2-0.4-0.6-0.4-0.9c0-0.3,0.1-0.7,0.4-0.9c0.5-0.5,1.4-0.5,1.8,0
				c0.2,0.2,0.4,0.6,0.4,0.9c0,0.3-0.1,0.7-0.4,0.9C72.5-15.6,72.1-15.5,71.8-15.5z"/>
			<path d="M72-20.8c-0.3,0-0.7-0.1-0.9-0.4c-0.2-0.2-0.4-0.6-0.4-0.9c0-0.3,0.1-0.7,0.4-0.9c0.5-0.5,1.4-0.5,1.8,0
				c0.2,0.2,0.4,0.6,0.4,0.9c0,0.3-0.1,0.7-0.4,0.9C72.7-20.9,72.4-20.8,72-20.8z"/>
			<path d="M73.5-11.8c-0.3,0-0.7-0.1-0.9-0.4c-0.2-0.2-0.4-0.6-0.4-0.9s0.1-0.7,0.4-0.9c0.5-0.5,1.4-0.5,1.8,0
				c0.2,0.2,0.4,0.6,0.4,0.9s-0.1,0.7-0.4,0.9C74.2-11.9,73.9-11.8,73.5-11.8z"/>
			<path d="M41.8-11.2c-0.3,0-0.7-0.1-0.9-0.4c-0.2-0.2-0.4-0.6-0.4-0.9s0.1-0.7,0.4-0.9c0.5-0.5,1.4-0.5,1.8,0
				c0.2,0.2,0.4,0.6,0.4,0.9s-0.1,0.7-0.4,0.9C42.5-11.4,42.2-11.2,41.8-11.2z"/>
			<path d="M40.3-8.2c-0.3,0-0.7-0.1-0.9-0.4C39.1-8.9,39-9.2,39-9.5c0-0.3,0.1-0.7,0.4-0.9c0.5-0.5,1.4-0.5,1.8,0
				c0.2,0.2,0.4,0.6,0.4,0.9c0,0.3-0.1,0.7-0.4,0.9C41-8.4,40.7-8.2,40.3-8.2z"/>
			<path d="M55.5-14c-0.3,0-0.7-0.1-0.9-0.4c-0.2-0.2-0.4-0.6-0.4-0.9s0.1-0.7,0.4-0.9c0.5-0.5,1.4-0.5,1.8,0
				c0.2,0.2,0.4,0.6,0.4,0.9s-0.1,0.7-0.4,0.9C56.2-14.1,55.9-14,55.5-14z"/>
			<path d="M58.5-13.5c-0.3,0-0.7-0.1-0.9-0.4c-0.2-0.2-0.4-0.6-0.4-0.9s0.1-0.7,0.4-0.9c0.5-0.5,1.4-0.5,1.8,0
				c0.2,0.2,0.4,0.6,0.4,0.9s-0.1,0.7-0.4,0.9C59.2-13.6,58.9-13.5,58.5-13.5z"/>
			<path d="M56-9.5c-0.3,0-0.7-0.1-0.9-0.4c-0.2-0.2-0.4-0.6-0.4-0.9s0.1-0.7,0.4-0.9c0.5-0.5,1.4-0.5,1.8,0
				c0.2,0.2,0.4,0.6,0.4,0.9s-0.1,0.7-0.4,0.9C56.7-9.6,56.4-9.5,56-9.5z"/>
			<path d="M60-9.8c-0.3,0-0.7-0.1-0.9-0.4c-0.2-0.2-0.4-0.6-0.4-0.9s0.1-0.7,0.4-0.9c0.5-0.5,1.4-0.5,1.8,0
				c0.2,0.2,0.4,0.6,0.4,0.9s-0.1,0.7-0.4,0.9C60.7-9.9,60.4-9.8,60-9.8z"/>
			<path d="M55.5-14c-0.3,0-0.7-0.1-0.9-0.4c-0.2-0.2-0.4-0.6-0.4-0.9s0.1-0.7,0.4-0.9c0.5-0.5,1.4-0.5,1.8,0
				c0.2,0.2,0.4,0.6,0.4,0.9s-0.1,0.7-0.4,0.9C56.2-14.1,55.9-14,55.5-14z"/>
			<path d="M58.5-13.5c-0.3,0-0.7-0.1-0.9-0.4c-0.2-0.2-0.4-0.6-0.4-0.9s0.1-0.7,0.4-0.9c0.5-0.5,1.4-0.5,1.8,0
				c0.2,0.2,0.4,0.6,0.4,0.9s-0.1,0.7-0.4,0.9C59.2-13.6,58.9-13.5,58.5-13.5z"/>
			<path d="M56.3-18c-0.3,0-0.7-0.1-0.9-0.4C55.1-18.6,55-19,55-19.3c0-0.3,0.1-0.7,0.4-0.9c0.5-0.5,1.4-0.5,1.8,0
				c0.2,0.2,0.4,0.6,0.4,0.9c0,0.3-0.1,0.7-0.4,0.9C57-18.1,56.7-18,56.3-18z"/>
			<path d="M60.3-16.5c-0.3,0-0.7-0.1-0.9-0.4c-0.2-0.2-0.4-0.6-0.4-0.9c0-0.3,0.1-0.7,0.4-0.9c0.5-0.5,1.4-0.5,1.8,0
				c0.2,0.2,0.4,0.6,0.4,0.9c0,0.3-0.1,0.7-0.4,0.9C61-16.6,60.6-16.5,60.3-16.5z"/>
			<path d="M62.5-13.2c-0.3,0-0.7-0.1-0.9-0.4c-0.2-0.2-0.4-0.6-0.4-0.9s0.1-0.7,0.4-0.9c0.5-0.5,1.4-0.5,1.8,0
				c0.2,0.2,0.4,0.6,0.4,0.9s-0.1,0.7-0.4,0.9C63.2-13.4,62.9-13.2,62.5-13.2z"/>
			<path d="M64.5-11c-0.3,0-0.7-0.1-0.9-0.4c-0.2-0.2-0.4-0.6-0.4-0.9s0.1-0.7,0.4-0.9c0.5-0.5,1.4-0.5,1.8,0
				c0.2,0.2,0.4,0.6,0.4,0.9s-0.1,0.7-0.4,0.9C65.2-11.1,64.9-11,64.5-11z"/>
			<path d="M65-7c-0.3,0-0.7-0.1-0.9-0.4c-0.2-0.2-0.4-0.6-0.4-0.9c0-0.3,0.1-0.7,0.4-0.9c0.5-0.5,1.4-0.5,1.8,0
				c0.2,0.2,0.4,0.6,0.4,0.9c0,0.3-0.1,0.7-0.4,0.9C65.7-7.1,65.4-7,65-7z"/>
			<path d="M67-14.5c-0.3,0-0.7-0.1-0.9-0.4c-0.2-0.2-0.4-0.6-0.4-0.9c0-0.3,0.1-0.7,0.4-0.9c0.5-0.5,1.4-0.5,1.8,0
				c0.2,0.2,0.4,0.6,0.4,0.9c0,0.3-0.1,0.7-0.4,0.9C67.7-14.6,67.4-14.5,67-14.5z"/>
			<path d="M65.3-17c-0.3,0-0.7-0.1-0.9-0.4C64.1-17.6,64-18,64-18.3c0-0.3,0.1-0.7,0.4-0.9c0.5-0.5,1.4-0.5,1.8,0
				c0.2,0.2,0.4,0.6,0.4,0.9c0,0.3-0.1,0.7-0.4,0.9C66-17.1,65.6-17,65.3-17z"/>
			<path d="M61-20c-0.3,0-0.7-0.1-0.9-0.4c-0.2-0.2-0.4-0.6-0.4-0.9c0-0.3,0.1-0.7,0.4-0.9c0.5-0.5,1.4-0.5,1.8,0
				c0.2,0.2,0.4,0.6,0.4,0.9c0,0.3-0.1,0.7-0.4,0.9C61.7-20.1,61.4-20,61-20z"/>
			<path d="M69-18.2c-0.3,0-0.7-0.1-0.9-0.4c-0.2-0.2-0.4-0.6-0.4-0.9c0-0.3,0.1-0.7,0.4-0.9c0.5-0.5,1.4-0.5,1.8,0
				c0.2,0.2,0.4,0.6,0.4,0.9c0,0.3-0.1,0.7-0.4,0.9C69.7-18.4,69.4-18.2,69-18.2z"/>
			<path d="M69.3-11c-0.3,0-0.7-0.1-0.9-0.4C68.1-11.6,68-12,68-12.3s0.1-0.7,0.4-0.9c0.5-0.5,1.4-0.5,1.8,0
				c0.2,0.2,0.4,0.6,0.4,0.9s-0.1,0.7-0.4,0.9C70-11.1,69.7-11,69.3-11z"/>
			<path d="M56-21.5c-0.3,0-0.7-0.1-0.9-0.4c-0.2-0.2-0.4-0.6-0.4-0.9c0-0.3,0.1-0.7,0.4-0.9c0.5-0.5,1.4-0.5,1.8,0
				c0.2,0.2,0.4,0.6,0.4,0.9c0,0.3-0.1,0.7-0.4,0.9C56.7-21.6,56.4-21.5,56-21.5z"/>
			<path d="M60.8-6.2c-0.3,0-0.7-0.1-0.9-0.4c-0.2-0.2-0.4-0.6-0.4-0.9c0-0.3,0.1-0.7,0.4-0.9c0.5-0.5,1.4-0.5,1.8,0
				c0.2,0.2,0.4,0.6,0.4,0.9c0,0.3-0.1,0.7-0.4,0.9C61.5-6.4,61.2-6.2,60.8-6.2z"/>
			<path d="M66.8-4.2c-0.3,0-0.7-0.1-0.9-0.4c-0.2-0.2-0.4-0.6-0.4-0.9c0-0.3,0.1-0.7,0.4-0.9c0.5-0.5,1.4-0.5,1.8,0
				c0.2,0.2,0.4,0.6,0.4,0.9c0,0.3-0.1,0.7-0.4,0.9C67.5-4.4,67.1-4.2,66.8-4.2z"/>
			<path d="M67.8-21.8c-0.3,0-0.7-0.1-0.9-0.4c-0.2-0.2-0.4-0.6-0.4-0.9c0-0.3,0.1-0.7,0.4-0.9c0.5-0.5,1.4-0.5,1.8,0
				c0.2,0.2,0.4,0.6,0.4,0.9c0,0.3-0.1,0.7-0.4,0.9C68.5-21.9,68.1-21.8,67.8-21.8z"/>
			<path d="M12-48.2c-0.3,0-0.7-0.1-0.9-0.4c-0.2-0.2-0.4-0.6-0.4-0.9c0-0.3,0.1-0.7,0.4-0.9c0.5-0.5,1.4-0.5,1.8,0
				c0.2,0.2,0.4,0.6,0.4,0.9c0,0.3-0.1,0.7-0.4,0.9C12.7-48.4,12.4-48.2,12-48.2z"/>
			<path d="M8.3-11.8c-0.3,0-0.7-0.1-0.9-0.4C7.1-12.4,7-12.7,7-13s0.1-0.7,0.4-0.9c0.5-0.5,1.4-0.5,1.8,0c0.2,0.2,0.4,0.6,0.4,0.9
				s-0.1,0.7-0.4,0.9C9-11.9,8.6-11.8,8.3-11.8z"/>
			<path d="M32.8-10.8c-0.3,0-0.7-0.1-0.9-0.4c-0.2-0.2-0.4-0.6-0.4-0.9s0.1-0.7,0.4-0.9c0.5-0.5,1.4-0.5,1.8,0
				c0.2,0.2,0.4,0.6,0.4,0.9s-0.1,0.7-0.4,0.9C33.5-10.9,33.1-10.8,32.8-10.8z"/>
			<path d="M43-16.2c-0.3,0-0.7-0.1-0.9-0.4c-0.2-0.2-0.4-0.6-0.4-0.9c0-0.3,0.1-0.7,0.4-0.9c0.5-0.5,1.4-0.5,1.8,0
				c0.2,0.2,0.4,0.6,0.4,0.9c0,0.3-0.1,0.7-0.4,0.9C43.7-16.4,43.4-16.2,43-16.2z"/>
			<path d="M49.8-17.8c-0.3,0-0.7-0.1-0.9-0.4c-0.2-0.2-0.4-0.6-0.4-0.9c0-0.3,0.1-0.7,0.4-0.9c0.5-0.5,1.4-0.5,1.8,0
				c0.2,0.2,0.4,0.6,0.4,0.9c0,0.3-0.1,0.7-0.4,0.9C50.5-17.9,50.1-17.8,49.8-17.8z"/>
			<path d="M43.5-1.8c-0.3,0-0.7-0.1-0.9-0.4c-0.2-0.2-0.4-0.6-0.4-0.9c0-0.3,0.1-0.7,0.4-0.9c0.5-0.5,1.4-0.5,1.8,0
				c0.2,0.2,0.4,0.6,0.4,0.9c0,0.3-0.1,0.7-0.4,0.9C44.2-1.9,43.9-1.8,43.5-1.8z"/>
			<path d="M14-0.5c-0.3,0-0.7-0.1-0.9-0.4c-0.2-0.2-0.4-0.6-0.4-0.9c0-0.3,0.1-0.7,0.4-0.9c0.5-0.5,1.4-0.5,1.8,0
				c0.2,0.2,0.4,0.6,0.4,0.9c0,0.3-0.1,0.7-0.4,0.9C14.7-0.6,14.4-0.5,14-0.5z"/>
			<path d="M23.8-0.8c-0.3,0-0.7-0.1-0.9-0.4c-0.2-0.2-0.4-0.6-0.4-0.9c0-0.3,0.1-0.7,0.4-0.9c0.5-0.5,1.4-0.5,1.8,0
				C25-2.7,25.1-2.4,25.1-2c0,0.3-0.1,0.7-0.4,0.9C24.5-0.9,24.1-0.8,23.8-0.8z"/>
			<path d="M19.5,0c-0.3,0-0.7-0.1-0.9-0.4c-0.2-0.2-0.4-0.6-0.4-0.9c0-0.3,0.1-0.7,0.4-0.9c0.5-0.5,1.4-0.5,1.8,0
				c0.2,0.2,0.4,0.6,0.4,0.9c0,0.3-0.1,0.7-0.4,0.9C20.2-0.1,19.9,0,19.5,0z"/>
			<path d="M30.3,0c-0.3,0-0.7-0.1-0.9-0.4C29.1-0.6,29-1,29-1.3c0-0.3,0.1-0.7,0.4-0.9c0.5-0.5,1.4-0.5,1.8,0
				c0.2,0.2,0.4,0.6,0.4,0.9c0,0.3-0.1,0.7-0.4,0.9C31-0.1,30.7,0,30.3,0z"/>
			<path d="M57.5-1c-0.3,0-0.7-0.1-0.9-0.4c-0.2-0.2-0.4-0.6-0.4-0.9c0-0.3,0.1-0.7,0.4-0.9c0.5-0.5,1.4-0.5,1.8,0
				c0.2,0.2,0.4,0.6,0.4,0.9c0,0.3-0.1,0.7-0.4,0.9C58.2-1.1,57.9-1,57.5-1z"/>
			<path d="M10.3-0.5c-0.3,0-0.7-0.1-0.9-0.4C9.1-1.1,9-1.5,9-1.8c0-0.3,0.1-0.7,0.4-0.9c0.5-0.5,1.4-0.5,1.8,0
				c0.2,0.2,0.4,0.6,0.4,0.9c0,0.3-0.1,0.7-0.4,0.9C11-0.6,10.6-0.5,10.3-0.5z"/>
			<path d="M57.5-1c-0.3,0-0.7-0.1-0.9-0.4c-0.2-0.2-0.4-0.6-0.4-0.9c0-0.3,0.1-0.7,0.4-0.9c0.5-0.5,1.4-0.5,1.8,0
				c0.2,0.2,0.4,0.6,0.4,0.9c0,0.3-0.1,0.7-0.4,0.9C58.2-1.1,57.9-1,57.5-1z"/>
			<path d="M75-64.2c-0.3,0-0.7-0.1-0.9-0.4c-0.2-0.2-0.4-0.6-0.4-0.9c0-0.3,0.1-0.7,0.4-0.9c0.5-0.5,1.4-0.5,1.8,0
				c0.2,0.2,0.4,0.6,0.4,0.9c0,0.3-0.1,0.7-0.4,0.9C75.7-64.4,75.4-64.2,75-64.2z"/>
			<path d="M75.3-61c-0.3,0-0.7-0.1-0.9-0.4C74.1-61.6,74-62,74-62.3c0-0.3,0.1-0.7,0.4-0.9c0.5-0.5,1.4-0.5,1.8,0
				c0.2,0.2,0.4,0.6,0.4,0.9c0,0.3-0.1,0.7-0.4,0.9C76-61.1,75.6-61,75.3-61z"/>
			<path d="M75.5-53.8c-0.3,0-0.7-0.1-0.9-0.4c-0.2-0.2-0.4-0.6-0.4-0.9c0-0.3,0.1-0.7,0.4-0.9c0.5-0.5,1.4-0.5,1.8,0
				c0.2,0.2,0.4,0.6,0.4,0.9c0,0.3-0.1,0.7-0.4,0.9C76.2-53.9,75.9-53.8,75.5-53.8z"/>
			<path d="M74.8-50.5c-0.3,0-0.7-0.1-0.9-0.4c-0.2-0.2-0.4-0.6-0.4-0.9c0-0.3,0.1-0.7,0.4-0.9c0.5-0.5,1.4-0.5,1.8,0
				c0.2,0.2,0.4,0.6,0.4,0.9c0,0.3-0.1,0.7-0.4,0.9C75.5-50.6,75.1-50.5,74.8-50.5z"/>
			<path d="M75.3-2.5c-0.3,0-0.7-0.1-0.9-0.4C74.1-3.1,74-3.5,74-3.8c0-0.3,0.1-0.7,0.4-0.9c0.5-0.5,1.4-0.5,1.8,0
				c0.2,0.2,0.4,0.6,0.4,0.9c0,0.3-0.1,0.7-0.4,0.9C76-2.6,75.6-2.5,75.3-2.5z"/>
			<path d="M75.8-28c-0.3,0-0.7-0.1-0.9-0.4c-0.2-0.2-0.4-0.6-0.4-0.9c0-0.3,0.1-0.7,0.4-0.9c0.5-0.5,1.4-0.5,1.8,0
				c0.2,0.2,0.4,0.6,0.4,0.9c0,0.3-0.1,0.7-0.4,0.9C76.5-28.1,76.1-28,75.8-28z"/>
			<path d="M74.8-17.2c-0.3,0-0.7-0.1-0.9-0.4c-0.2-0.2-0.4-0.6-0.4-0.9c0-0.3,0.1-0.7,0.4-0.9c0.5-0.5,1.4-0.5,1.8,0
				c0.2,0.2,0.4,0.6,0.4,0.9c0,0.3-0.1,0.7-0.4,0.9C75.5-17.4,75.1-17.2,74.8-17.2z"/>
			<path d="M75.8-21.2c-0.3,0-0.7-0.1-0.9-0.4c-0.2-0.2-0.4-0.6-0.4-0.9c0-0.3,0.1-0.7,0.4-0.9c0.5-0.5,1.4-0.5,1.8,0
				c0.2,0.2,0.4,0.6,0.4,0.9c0,0.3-0.1,0.7-0.4,0.9C76.5-21.4,76.1-21.2,75.8-21.2z"/>
			<path d="M48.8-2.8c-0.3,0-0.7-0.1-0.9-0.4c-0.2-0.2-0.4-0.6-0.4-0.9c0-0.3,0.1-0.7,0.4-0.9c0.5-0.5,1.4-0.5,1.8,0
				C50-4.7,50.1-4.4,50.1-4c0,0.3-0.1,0.7-0.4,0.9C49.5-2.9,49.1-2.8,48.8-2.8z"/>
			<path d="M43-5.2c-0.3,0-0.7-0.1-0.9-0.4c-0.2-0.2-0.4-0.6-0.4-0.9c0-0.3,0.1-0.7,0.4-0.9C42.6-8,43.5-8,44-7.5
				c0.2,0.2,0.4,0.6,0.4,0.9c0,0.3-0.1,0.7-0.4,0.9C43.7-5.4,43.4-5.2,43-5.2z"/>
		</g>
		<g>
			<path d="M1.3-71.2c-0.3,0-0.7-0.1-0.9-0.4C0.1-71.9,0-72.2,0-72.5c0-0.3,0.1-0.7,0.4-0.9c0.5-0.5,1.4-0.5,1.8,0
				c0.2,0.2,0.4,0.6,0.4,0.9c0,0.3-0.1,0.7-0.4,0.9C2-71.4,1.6-71.2,1.3-71.2z"/>
			<path d="M2-56.5c-0.3,0-0.7-0.1-0.9-0.4c-0.2-0.2-0.4-0.6-0.4-0.9c0-0.3,0.1-0.7,0.4-0.9c0.5-0.5,1.4-0.5,1.8,0
				c0.2,0.2,0.4,0.6,0.4,0.9c0,0.3-0.1,0.7-0.4,0.9C2.7-56.6,2.4-56.5,2-56.5z"/>
			<path d="M1.8-45.5c-0.3,0-0.7-0.1-0.9-0.4c-0.2-0.2-0.4-0.6-0.4-0.9c0-0.3,0.1-0.7,0.4-0.9c0.5-0.5,1.4-0.5,1.8,0
				c0.2,0.2,0.4,0.6,0.4,0.9c0,0.3-0.1,0.7-0.4,0.9C2.5-45.6,2.1-45.5,1.8-45.5z"/>
			<path d="M2-35.5c-0.3,0-0.7-0.1-0.9-0.4c-0.2-0.2-0.4-0.6-0.4-0.9c0-0.3,0.1-0.7,0.4-0.9c0.5-0.5,1.4-0.5,1.8,0
				c0.2,0.2,0.4,0.6,0.4,0.9c0,0.3-0.1,0.7-0.4,0.9C2.7-35.6,2.4-35.5,2-35.5z"/>
			<path d="M1.3-31.5c-0.3,0-0.7-0.1-0.9-0.4C0.1-32.1,0-32.5,0-32.8c0-0.3,0.1-0.7,0.4-0.9c0.5-0.5,1.4-0.5,1.8,0
				c0.2,0.2,0.4,0.6,0.4,0.9c0,0.3-0.1,0.7-0.4,0.9C2-31.6,1.6-31.5,1.3-31.5z"/>
			<path d="M3.3-8C3-8,2.6-8.1,2.4-8.4C2.1-8.6,2-9,2-9.3c0-0.3,0.1-0.7,0.4-0.9c0.5-0.5,1.4-0.5,1.8,0C4.5-10,4.6-9.6,4.6-9.3
				c0,0.3-0.1,0.7-0.4,0.9C4-8.1,3.6-8,3.3-8z"/>
			<path d="M1.5-11.8c-0.3,0-0.7-0.1-0.9-0.4c-0.2-0.2-0.4-0.6-0.4-0.9s0.1-0.7,0.4-0.9c0.5-0.5,1.4-0.5,1.8,0
				c0.2,0.2,0.4,0.6,0.4,0.9s-0.1,0.7-0.4,0.9C2.2-11.9,1.9-11.8,1.5-11.8z"/>
			<path d="M3-64.2c-0.3,0-0.7-0.1-0.9-0.4c-0.2-0.2-0.4-0.6-0.4-0.9c0-0.3,0.1-0.7,0.4-0.9C2.6-67,3.5-67,4-66.5
				c0.2,0.2,0.4,0.6,0.4,0.9c0,0.3-0.1,0.7-0.4,0.9C3.7-64.4,3.4-64.2,3-64.2z"/>
			<path d="M3.3-61c-0.3,0-0.7-0.1-0.9-0.4C2.1-61.6,2-62,2-62.3c0-0.3,0.1-0.7,0.4-0.9c0.5-0.5,1.4-0.5,1.8,0
				c0.2,0.2,0.4,0.6,0.4,0.9c0,0.3-0.1,0.7-0.4,0.9C4-61.1,3.6-61,3.3-61z"/>
			<path d="M3.5-53.8c-0.3,0-0.7-0.1-0.9-0.4c-0.2-0.2-0.4-0.6-0.4-0.9c0-0.3,0.1-0.7,0.4-0.9c0.5-0.5,1.4-0.5,1.8,0
				c0.2,0.2,0.4,0.6,0.4,0.9c0,0.3-0.1,0.7-0.4,0.9C4.2-53.9,3.9-53.8,3.5-53.8z"/>
			<path d="M2.8-50.5c-0.3,0-0.7-0.1-0.9-0.4c-0.2-0.2-0.4-0.6-0.4-0.9c0-0.3,0.1-0.7,0.4-0.9c0.5-0.5,1.4-0.5,1.8,0
				c0.2,0.2,0.4,0.6,0.4,0.9c0,0.3-0.1,0.7-0.4,0.9C3.5-50.6,3.1-50.5,2.8-50.5z"/>
			<path d="M3.3-2.5C3-2.5,2.6-2.6,2.4-2.9C2.1-3.1,2-3.5,2-3.8c0-0.3,0.1-0.7,0.4-0.9c0.5-0.5,1.4-0.5,1.8,0
				c0.2,0.2,0.4,0.6,0.4,0.9c0,0.3-0.1,0.7-0.4,0.9C4-2.6,3.6-2.5,3.3-2.5z"/>
			<path d="M3.8-28c-0.3,0-0.7-0.1-0.9-0.4c-0.2-0.2-0.4-0.6-0.4-0.9c0-0.3,0.1-0.7,0.4-0.9c0.5-0.5,1.4-0.5,1.8,0
				C5-30,5.1-29.6,5.1-29.3c0,0.3-0.1,0.7-0.4,0.9C4.5-28.1,4.1-28,3.8-28z"/>
			<path d="M2.8-17.2c-0.3,0-0.7-0.1-0.9-0.4c-0.2-0.2-0.4-0.6-0.4-0.9c0-0.3,0.1-0.7,0.4-0.9c0.5-0.5,1.4-0.5,1.8,0
				c0.2,0.2,0.4,0.6,0.4,0.9c0,0.3-0.1,0.7-0.4,0.9C3.5-17.4,3.1-17.2,2.8-17.2z"/>
			<path d="M3.8-21.2c-0.3,0-0.7-0.1-0.9-0.4c-0.2-0.2-0.4-0.6-0.4-0.9c0-0.3,0.1-0.7,0.4-0.9c0.5-0.5,1.4-0.5,1.8,0
				c0.2,0.2,0.4,0.6,0.4,0.9c0,0.3-0.1,0.7-0.4,0.9C4.5-21.4,4.1-21.2,3.8-21.2z"/>
		</g>
		<g>
			<path d="M70.3-74c-0.3,0-0.7-0.1-0.9-0.4C69.1-74.6,69-75,69-75.3c0-0.3,0.1-0.7,0.4-0.9c0.5-0.5,1.4-0.5,1.8,0
				c0.2,0.2,0.4,0.6,0.4,0.9c0,0.3-0.1,0.7-0.4,0.9C71-74.1,70.7-74,70.3-74z"/>
			<path d="M57.5-73c-0.3,0-0.7-0.1-0.9-0.4c-0.2-0.2-0.4-0.6-0.4-0.9c0-0.3,0.1-0.7,0.4-0.9c0.5-0.5,1.4-0.5,1.8,0
				c0.2,0.2,0.4,0.6,0.4,0.9c0,0.3-0.1,0.7-0.4,0.9C58.2-73.1,57.9-73,57.5-73z"/>
			<path d="M43.5-73.8c-0.3,0-0.7-0.1-0.9-0.4c-0.2-0.2-0.4-0.6-0.4-0.9c0-0.3,0.1-0.7,0.4-0.9c0.5-0.5,1.4-0.5,1.8,0
				c0.2,0.2,0.4,0.6,0.4,0.9c0,0.3-0.1,0.7-0.4,0.9C44.2-73.9,43.9-73.8,43.5-73.8z"/>
			<path d="M14-72.5c-0.3,0-0.7-0.1-0.9-0.4c-0.2-0.2-0.4-0.6-0.4-0.9c0-0.3,0.1-0.7,0.4-0.9c0.5-0.5,1.4-0.5,1.8,0
				c0.2,0.2,0.4,0.6,0.4,0.9c0,0.3-0.1,0.7-0.4,0.9C14.7-72.6,14.4-72.5,14-72.5z"/>
			<path d="M23.8-72.8c-0.3,0-0.7-0.1-0.9-0.4c-0.2-0.2-0.4-0.6-0.4-0.9c0-0.3,0.1-0.7,0.4-0.9c0.5-0.5,1.4-0.5,1.8,0
				c0.2,0.2,0.4,0.6,0.4,0.9c0,0.3-0.1,0.7-0.4,0.9C24.5-72.9,24.1-72.8,23.8-72.8z"/>
			<path d="M19.5-72c-0.3,0-0.7-0.1-0.9-0.4c-0.2-0.2-0.4-0.6-0.4-0.9c0-0.3,0.1-0.7,0.4-0.9c0.5-0.5,1.4-0.5,1.8,0
				c0.2,0.2,0.4,0.6,0.4,0.9c0,0.3-0.1,0.7-0.4,0.9C20.2-72.1,19.9-72,19.5-72z"/>
			<path d="M30.3-72c-0.3,0-0.7-0.1-0.9-0.4C29.1-72.6,29-73,29-73.3c0-0.3,0.1-0.7,0.4-0.9c0.5-0.5,1.4-0.5,1.8,0
				c0.2,0.2,0.4,0.6,0.4,0.9c0,0.3-0.1,0.7-0.4,0.9C31-72.1,30.7-72,30.3-72z"/>
			<path d="M57.5-73c-0.3,0-0.7-0.1-0.9-0.4c-0.2-0.2-0.4-0.6-0.4-0.9c0-0.3,0.1-0.7,0.4-0.9c0.5-0.5,1.4-0.5,1.8,0
				c0.2,0.2,0.4,0.6,0.4,0.9c0,0.3-0.1,0.7-0.4,0.9C58.2-73.1,57.9-73,57.5-73z"/>
			<path d="M10.3-72.5c-0.3,0-0.7-0.1-0.9-0.4C9.1-73.1,9-73.5,9-73.8c0-0.3,0.1-0.7,0.4-0.9c0.5-0.5,1.4-0.5,1.8,0
				c0.2,0.2,0.4,0.6,0.4,0.9c0,0.3-0.1,0.7-0.4,0.9C11-72.6,10.6-72.5,10.3-72.5z"/>
			<path d="M57.5-73c-0.3,0-0.7-0.1-0.9-0.4c-0.2-0.2-0.4-0.6-0.4-0.9c0-0.3,0.1-0.7,0.4-0.9c0.5-0.5,1.4-0.5,1.8,0
				c0.2,0.2,0.4,0.6,0.4,0.9c0,0.3-0.1,0.7-0.4,0.9C58.2-73.1,57.9-73,57.5-73z"/>
			<path d="M75.3-74.5c-0.3,0-0.7-0.1-0.9-0.4c-0.2-0.2-0.4-0.6-0.4-0.9c0-0.3,0.1-0.7,0.4-0.9c0.5-0.5,1.4-0.5,1.8,0
				c0.2,0.2,0.4,0.6,0.4,0.9c0,0.3-0.1,0.7-0.4,0.9C76-74.6,75.6-74.5,75.3-74.5z"/>
		</g>
		<g>
			<path d="M3.3-74.5c-0.3,0-0.7-0.1-0.9-0.4C2.1-75.1,2-75.5,2-75.8c0-0.3,0.1-0.7,0.4-0.9c0.5-0.5,1.4-0.5,1.8,0
				c0.2,0.2,0.4,0.6,0.4,0.9c0,0.3-0.1,0.7-0.4,0.9C4-74.6,3.6-74.5,3.3-74.5z"/>
		</g>
	</g>
</pattern>
<pattern  id="SVGID_1_" xlink:href="#USGS_20_Scrub" patternTransform="matrix(1 0 0 1 -1.572 -22.5821)">
</pattern>
<path class="st1" d="M906,870.4l7.4-14.8l17.2-10.7l384.9,3c18.5,0.1,34.1,13.6,37.1,31.8l15.3,115.4l-19.7,16.4l-12.8-108.9
	c-3-19.5-19.8-33.9-39.5-33.8L906,870.4z"/>
<path class="st2" d="M2227.2,828.3h55.2c20.7,0,38.2,15.3,41,35.8l67.4,496.1c1.1,8.2,1.1,17.2-0.6,27.7
	c-2.8,16.9-40.3,52.9-52.5,66.4c-12.6,13.9-14.9,13.4-28,15.7"/>
<line class="st2" x1="1569.9" y1="684.4" x2="1569.9" y2="1495.9"/>
<path class="st2" d="M903.4,871.4c19-28,26-47,55.2-47.6h369.4c20.7,0,38.2,15.3,41,35.8l67.4,496.1c1.1,8.2,1.1,17.2-0.6,27.7
	c-2.8,16.9-40.3,52.9-52.5,66.4c-12.6,13.9-14.9,13.4-28,15.7"/>
<path class="st2" d="M868.2,917.6c24.2-40.7,30.6-47.9,55.7-47.9h369.4c20.7,0,38.2,15.3,41,35.8l15.1,105.4l18.2-17.8l-16.1-111.2
	c-2.8-20.5-20.3-35.8-41-35.8H941c-25,0-28,12.7-33.2,25.5"/>
<path class="st2" d="M1343.3,1469.8H973.9c-20.7,0-38.2-15.3-41-35.8L865.5,938c-3.4-24.8,15.9-46.9,41-46.9h369.4
	c20.7,0,38.2,15.3,41,35.8l67.4,496.1C1387.6,1447.7,1368.3,1469.8,1343.3,1469.8z"/>
<polygon class="st2" points="947.4,1113.4 1283.4,1116.4 1260.9,967.9 929.4,967.9 "/>
<line class="st2" x1="1211.4" y1="1167.4" x2="1239.9" y2="1402.9"/>
<line class="st2" x1="1119.9" y1="1167.4" x2="1148.4" y2="1402.9"/>
<line class="st2" x1="1027.9" y1="1167.8" x2="1059.9" y2="1399.9"/>
<line class="st2" x1="1298.4" y1="1224.4" x2="962.4" y2="1224.4"/>
<line class="st2" x1="1304.4" y1="1282.9" x2="971.4" y2="1281.4"/>
<line class="st2" x1="1317.9" y1="1344.4" x2="980.4" y2="1342.9"/>
<g>
	<path class="st2" d="M792.1,989.4H352.8c-15.2,0-29.3-12.3-31.4-27.6l-34.2-249.5c-2.1-15.2,8.6-27.6,23.8-27.6h439.4
		c15.2,0,29.3,12.3,31.4,27.6l34.2,249.5C818,977,807.3,989.4,792.1,989.4z"/>
	<g>
		<polygon points="813.8,940.2 321.4,939.7 312.8,884.2 805.2,884.7 		"/>
	</g>
</g>
<polygon points="1289.9,777.5 838.9,777.5 835.3,752.4 1286.3,752.4 "/>
<polygon points="1275.5,732 1285,791.7 1319.5,761.8 "/>
<g>
	<path class="st2" d="M1823,994h-40.6c-15.2,0-29.3-12.3-31.4-27.6l-34.2-249.5c-2.1-15.2,8.6-27.6,23.8-27.6H2180
		c15.2,0,29.3,12.3,31.4,27.6L2231,868"/>
	<g>
		<polyline points="1818.2,923.7 1820.3,945.1 1742.7,944.3 1740.6,892.4 1839.4,893.4 		"/>
	</g>
</g>
<polygon points="2424.6,782.1 2263.9,782.1 2260.3,757 2421,757 "/>
<polygon points="2410.2,736.6 2419.7,796.3 2454.2,766.4 "/>
<path class="st2" d="M1822.7,922.2c24.2-40.7,30.6-47.9,55.7-47.9h369.4c20.7,0,38.2,15.3,41,35.8l15.1,105.4l18.2-17.8L2306,886.4
	c-2.8-20.5-20.3-35.8-41-35.8l-35.1,0.3"/>
<path class="st2" d="M2297.9,1474.4h-369.4c-20.7,0-38.2-15.3-41-35.8L1820,942.6c-3.4-24.8,12.5-49.5,41-46.9h369.4
	c20.7,0,38.2,15.3,41,35.8l67.4,496.1C2342.2,1452.3,2322.9,1474.4,2297.9,1474.4z"/>
<polygon class="st2" points="1901.9,1118 2237.9,1121 2215.4,972.5 1883.9,972.5 "/>
<line class="st2" x1="2252.9" y1="1229" x2="1916.9" y2="1229"/>
<line class="st2" x1="2258.9" y1="1287.5" x2="1925.9" y2="1286"/>
<line class="st2" x1="2272.4" y1="1349" x2="1934.9" y2="1347.5"/>
<line class="st2" x1="2165.9" y1="1172" x2="2194.4" y2="1407.5"/>
<line class="st2" x1="2074.4" y1="1172" x2="2102.9" y2="1407.5"/>
<line class="st2" x1="1982.4" y1="1172.4" x2="2014.4" y2="1404.5"/>
<pattern  id="SVGID_2_" xlink:href="#USGS_20_Scrub" patternTransform="matrix(1 0 0 1 15.9957 -87.9805)">
</pattern>
<path class="st3" d="M2227.6,854.3l0.9,0l40.6,0.3c18.5,0.1,34.1,13.6,37.1,31.8l15.3,115.4l-19.7,16.4L2289,909.3
	c-3-19.5-19.8-33.9-39.5-33.8l-19.1,0.1"/>
</svg>
