<?xml version="1.0" encoding="utf-8"?>
<!-- Generator: Adobe Illustrator 19.2.1, SVG Export Plug-In . SVG Version: 6.00 Build 0)  -->
<!DOCTYPE svg PUBLIC "-//W3C//DTD SVG 1.1//EN" "http://www.w3.org/Graphics/SVG/1.1/DTD/svg11.dtd">
<svg class="icons icon-create-key hi-tech-demo-icon" version="1.1" id="icon-create-key" xmlns="http://www.w3.org/2000/svg" xmlns:xlink="http://www.w3.org/1999/xlink" x="0px" y="0px"
	 viewBox="0 0 2736 2016" style="enable-background:new 0 0 2736 2016;" xml:space="preserve">
<style type="text/css">
	.st0{fill:none;stroke:#000000;stroke-width:9;stroke-linecap:round;stroke-miterlimit:10;}
	.st1{fill:#FFFFFF;stroke:#000000;stroke-width:9;stroke-linecap:round;stroke-miterlimit:10;}
	.st2{fill:none;stroke:#000000;stroke-width:9;stroke-linecap:round;stroke-linejoin:round;stroke-miterlimit:10;}
</style>
<path class="st0" d="M2373,894c6-11,3.3-25.7-10.4-28.6l-347.1-74.1c-16.8-3.6-34.3,1.3-46.8,13.1"/>
<path class="st0" d="M1774.7,988.3l-101,95.5c-16.5,15.6-25.5,37.4-24.8,60.1l2.5,82.3c0.6,19.3,13.2,36.1,31.5,42.1l353.9,116
	c15.5,5.1,31.5-6.5,31.5-22.8v-92.7c0-21.4,7.9-42,22.1-57.9l96.4-107.9"/>
<path class="st1" d="M1776.7,986.3"/>
<path class="st1" d="M1968.8,804.5"/>
<path class="st2" d="M2063.7,1377l298.9-346.3c7.4-9.1,11.8-20.2,12.5-31.9l-0.2-31.8l-30.6,36.7l-2.6-28l34.9-38.4"/>
<line class="st1" x1="2351.3" y1="966.1" x2="2375.1" y2="966.3"/>
<line class="st0" x1="1904.4" y1="1022.4" x2="1809.8" y2="1119"/>
<line class="st0" x1="1988.6" y1="1046.6" x2="1892" y2="1145.1"/>
<line class="st0" x1="2077.1" y1="1071" x2="1981.1" y2="1169"/>
<line class="st0" x1="1801.3" y1="1034" x2="2113.3" y2="1120"/>
<line class="st0" x1="1769.1" y1="1066.1" x2="2081.1" y2="1152.1"/>
<path class="st0" d="M1032,806.5l-295.1,279.4c-16.5,15.6-25.5,37.4-24.8,60.1l2.5,82.3c0.6,19.3,13.2,36.1,31.5,42.1l353.9,116
	c15.5,5.1,31.5-6.5,31.5-22.8v-92.7c0-21.4,7.9-42,22.1-57.9l282-315.5c9.3-10.4,3.9-27-9.8-29.9l-347.1-74.1
	C1062,789.7,1044.5,794.6,1032,806.5z"/>
<path class="st2" d="M1127,1379l298.9-346.3c7.4-9.1,11.8-20.2,12.5-31.9l-0.2-31.8l-30.6,36.7l-2.6-28l34.9-38.4l-0.9-45.4"/>
<line class="st1" x1="1414.5" y1="968.1" x2="1438.4" y2="968.3"/>
<polygon class="st0" points="1249.6,1031.1 937,953 1022.7,871.4 1330.6,944.1 "/>
<line class="st0" x1="997" y1="995" x2="873" y2="1121"/>
<line class="st0" x1="1079.3" y1="1021.1" x2="955.3" y2="1147.1"/>
<line class="st0" x1="1168.3" y1="1045" x2="1044.3" y2="1171"/>
<line class="st0" x1="891" y1="1003" x2="1203" y2="1089"/>
<line class="st0" x1="864.6" y1="1036" x2="1176.6" y2="1122"/>
<line class="st0" x1="832.4" y1="1068.1" x2="1144.4" y2="1154.1"/>
<path d="M1101.9,940.3l-13.8-53.5c-23-83.2-87.2-148.7-169.9-173.5L777,671l12-14l141.1,42.2c82.7,24.8,146.9,90.3,169.9,173.5
	l14.5,54.9l13.8-15.7l-13,47.4h-29.8L1101.9,940.3z"/>
<path class="st0" d="M2204.2,1105.4L1755,981c-8-2.2-10.4-12.4-4.2-17.9l169.5-156.8c6.4-5.7,15.1-7.9,23.4-5.9l446.3,97
	c8.4,2,11.5,12.2,5.8,18.6l-163.9,181.3C2224.9,1105,2214.2,1108.1,2204.2,1105.4z"/>
<line class="st1" x1="1543" y1="469.1" x2="1543" y2="1451.8"/>
<path class="st0" d="M668.3,742.4L219,618c-8-2.2-10.4-12.4-4.2-17.9l169.5-156.8c6.4-5.7,15.1-7.9,23.4-5.9l446.3,97
	c8.4,2,11.5,12.2,5.8,18.6L695.9,734.3C688.9,742,678.2,745.1,668.3,742.4z"/>
</svg>
