<svg xmlns="http://www.w3.org/2000/svg" xmlns:xlink="http://www.w3.org/1999/xlink" version="1.1" class="icons icon-keyboard" id="icon-keyboard" x="0" y="0" viewBox="0 0 27.5 15.5" enable-background="new 0 0 27.5 15.5" xml:space="preserve"><path d="M26.9 0H0.6C0.3 0 0 0.3 0 0.6v14.4c0 0.3 0.3 0.6 0.6 0.6h26.3c0.3 0 0.6-0.3 0.6-0.6V0.6C27.5 0.3 27.2 0 26.9 0zM26.3 14.4H1.1V1.1h25.2V14.4z"/><path d="M7.5 8.8h0.3c0.3 0 0.6-0.3 0.6-0.6V7.9c0-0.3-0.3-0.6-0.6-0.6H7.5c-0.3 0-0.6 0.3-0.6 0.6v0.3C6.9 8.5 7.2 8.8 7.5 8.8z"/><path d="M9.1 12.2h9.2c0.3 0 0.6-0.3 0.6-0.6v-0.2c0-0.3-0.3-0.6-0.6-0.6H9.1c-0.3 0-0.6 0.3-0.6 0.6v0.2C8.6 11.9 8.8 12.2 9.1 12.2z"/><path d="M10.6 8.8h0.3c0.3 0 0.6-0.3 0.6-0.6V7.9c0-0.3-0.3-0.6-0.6-0.6h-0.3c-0.3 0-0.6 0.3-0.6 0.6v0.3C10 8.5 10.2 8.8 10.6 8.8z"/><path d="M13.6 8.8h0.3c0.3 0 0.6-0.3 0.6-0.6V7.9c0-0.3-0.3-0.6-0.6-0.6h-0.3c-0.3 0-0.6 0.3-0.6 0.6v0.3C13.1 8.5 13.3 8.8 13.6 8.8z"/><path d="M16.7 8.8H17c0.3 0 0.6-0.3 0.6-0.6V7.9c0-0.3-0.3-0.6-0.6-0.6h-0.3c-0.3 0-0.6 0.3-0.6 0.6v0.3C16.1 8.5 16.4 8.8 16.7 8.8z"/><path d="M19.7 8.8h0.3c0.3 0 0.6-0.3 0.6-0.6V7.9c0-0.3-0.3-0.6-0.6-0.6h-0.3c-0.3 0-0.6 0.3-0.6 0.6v0.3C19.2 8.5 19.4 8.8 19.7 8.8z"/><path d="M4.4 5.4h0.3c0.3 0 0.6-0.3 0.6-0.6V4.5c0-0.3-0.3-0.6-0.6-0.6H4.4c-0.3 0-0.6 0.3-0.6 0.6v0.3C3.9 5.1 4.1 5.4 4.4 5.4z"/><path d="M7.5 5.4h0.3c0.3 0 0.6-0.3 0.6-0.6V4.5c0-0.3-0.3-0.6-0.6-0.6H7.5c-0.3 0-0.6 0.3-0.6 0.6v0.3C6.9 5.1 7.2 5.4 7.5 5.4z"/><path d="M10.6 5.4h0.3c0.3 0 0.6-0.3 0.6-0.6V4.5c0-0.3-0.3-0.6-0.6-0.6h-0.3c-0.3 0-0.6 0.3-0.6 0.6v0.3C10 5.1 10.2 5.4 10.6 5.4z"/><path d="M13.6 5.4h0.3c0.3 0 0.6-0.3 0.6-0.6V4.5c0-0.3-0.3-0.6-0.6-0.6h-0.3c-0.3 0-0.6 0.3-0.6 0.6v0.3C13.1 5.1 13.3 5.4 13.6 5.4z"/><path d="M16.7 5.4H17c0.3 0 0.6-0.3 0.6-0.6V4.5c0-0.3-0.3-0.6-0.6-0.6h-0.3c-0.3 0-0.6 0.3-0.6 0.6v0.3C16.1 5.1 16.4 5.4 16.7 5.4z"/><path d="M19.7 5.4h0.3c0.3 0 0.6-0.3 0.6-0.6V4.5c0-0.3-0.3-0.6-0.6-0.6h-0.3c-0.3 0-0.6 0.3-0.6 0.6v0.3C19.2 5.1 19.4 5.4 19.7 5.4z"/><path d="M22.8 5.4h0.3c0.3 0 0.6-0.3 0.6-0.6V4.5c0-0.3-0.3-0.6-0.6-0.6h-0.3c-0.3 0-0.6 0.3-0.6 0.6v0.3C22.2 5.1 22.5 5.4 22.8 5.4z"/></svg>