<svg xmlns="http://www.w3.org/2000/svg" class="icons icon-location" id="icon-location-new" x="0" y="0" width="24px" height="24px" viewBox="0 0 24 24"><path d="M12,21a.5.5,0,0,0,.42-.23c.26-.4,6.5-9.92,6.5-13.57a6.92,6.92,0,0,0-13.84,0c0,3.65,6.24,13.17,6.5,13.57A.52.52,0,0,0,12,21ZM12,1.31a5.92,5.92,0,0,1,5.92,5.92c0,2.84-4.51,10.15-5.92,12.37-1.41-2.22-5.92-9.53-5.92-12.37A5.93,5.93,0,0,1,12,1.31Z"/><path d="M15.06,18.86a.5.5,0,0,0-.59.39.51.51,0,0,0,.4.59c2,.38,2.68,1,2.68,1.34,0,.65-2.21,1.61-5.56,1.61s-5.56-1-5.56-1.61c0-.32.74-1,2.71-1.35a.5.5,0,0,0,.4-.58.51.51,0,0,0-.59-.4c-2.24.43-3.52,1.28-3.52,2.33,0,1.72,3.3,2.61,6.56,2.61s6.56-.89,6.56-2.61C18.55,20.14,17.28,19.29,15.06,18.86Z"/><path d="M12,11.48a3.75,3.75,0,1,1,3.75-3.75A3.75,3.75,0,0,1,12,11.48Zm0-6.7a3,3,0,1,0,3,3A3,3,0,0,0,12,4.78Z"/><path d="M12,10.07a.39.39,0,0,1-.4-.39V8.13H10.06a.4.4,0,0,1-.4-.4.39.39,0,0,1,.4-.39H11.6V5.79a.4.4,0,1,1,.8,0V7.34h1.54a.39.39,0,0,1,.4.39.4.4,0,0,1-.4.4H12.4V9.68A.39.39,0,0,1,12,10.07Z"/></svg>