<svg xmlns="http://www.w3.org/2000/svg" class="icons icon-loyalty" id="icon-print" x="0" y="0" viewBox="0 0 24 24"><path d="M23.77,8.49c0-.007,0-.012,0-.019a.489.489,0,0,0-.069-.239c0-.008,0-.017-.006-.024l-4.337-7c-.007-.012-.021-.017-.029-.027a.488.488,0,0,0-.118-.113.545.545,0,0,0-.058-.04c-.01-.005-.017-.014-.027-.018a.5.5,0,0,0-.2-.039H5.061l-.012,0a.5.5,0,0,0-.18.035c-.011.005-.018.014-.028.019a.46.46,0,0,0-.058.04.475.475,0,0,0-.119.113c-.008.011-.021.016-.028.027L.3,8.208c-.005.008,0,.017-.006.024a.489.489,0,0,0-.069.239c0,.007,0,.012,0,.019a.257.257,0,0,0,.008.038.493.493,0,0,0,.085.223c.007.01.005.022.012.031L11.608,22.92c.01.013.026.018.036.029A.442.442,0,0,0,11.7,23c.008.006.016.007.024.013a.226.226,0,0,0,.022.011.494.494,0,0,0,.079.041.4.4,0,0,0,.041.021.456.456,0,0,0,.136.019h0a.491.491,0,0,0,.136-.019.4.4,0,0,0,.041-.021.494.494,0,0,0,.079-.041l.022-.011c.008,0,.017-.007.025-.013a.663.663,0,0,0,.052-.054c.011-.011.027-.017.036-.029L23.664,8.783c.007-.009,0-.021.011-.03a.492.492,0,0,0,.087-.225C23.764,8.515,23.769,8.5,23.77,8.49ZM4.973,2.563,7.228,7.971H1.622ZM15.357,8.971,12,20.781,8.64,8.971Zm-6.515-1L12,2.477l3.156,5.494Zm4.021-6h5.324l-2.239,5.37ZM8.049,7.344,5.81,1.974h5.324ZM7.6,8.971l3.236,11.378L1.762,8.971Zm8.8,0h5.839L13.161,20.35Zm.373-1,2.255-5.408,3.351,5.408Z"/></svg>