<svg xmlns="http://www.w3.org/2000/svg" xmlns:xlink="http://www.w3.org/1999/xlink" version="1.1" class="icons icon-moon" id="icon-moon" x="0" y="0" viewBox="0 0 20.4 20.7" enable-background="new 0 0 20.4 20.7" xml:space="preserve"><path d="M14 0c-0.1 0-0.1-0.1-0.2 0l-0.2 0c-0.2 0-0.3 0.1-0.4 0.2 -0.1 0.1-0.1 0.3 0 0.4 1.5 3.1 1.4 6.6-0.5 9.6 -1.8 2.9-4.9 4.6-8.3 4.6 -1.3 0-2.5-0.2-3.8-0.7 -0.2-0.1-0.4 0-0.5 0.1 -0.1 0.1-0.1 0.4 0 0.5 2.2 3.7 4.8 5.6 8.5 5.8 0.3 0 0.5 0 0.8 0 5.9 0 10.7-4.4 11-10.1C20.6 6 18.2 2.1 14 0zM19.4 10.6c-0.3 5.1-4.7 9.2-10.1 9.2 -0.2 0-0.5 0-0.7 0 -2.9-0.2-5.2-1.6-7.1-4.3 1 0.3 1.9 0.4 2.9 0.4 3.7 0 7.1-1.9 9-5.1 1.8-2.8 2.1-6.3 1-9.4C17.8 3.3 19.6 6.7 19.4 10.6z"/></svg>