<svg class="icons icon-user-id" xmlns="http://www.w3.org/2000/svg" viewBox="0 0 24 24"><defs><style>.cls-1{fill:none;stroke:#000;stroke-miterlimit:10;}</style></defs><path d="M23.52,5h-9l.3-2.51a1.33,1.33,0,0,0-.33-1.06h0a1.34,1.34,0,0,0-1-.46H10.93A1.36,1.36,0,0,0,9.59,2.49L9.88,5H.56a.5.5,0,0,0-.5.5v16a.5.5,0,0,0,.5.5h23a.5.5,0,0,0,.5-.5V5.5A.5.5,0,0,0,23.52,5ZM10.67,2.09A.32.32,0,0,1,10.93,2h2.55a.36.36,0,0,1,.27.12.37.37,0,0,1,.09.28l-.51,4.32A.37.37,0,0,1,13,7H11.44a.36.36,0,0,1-.35-.32l-.51-4.32A.35.35,0,0,1,10.67,2.09ZM23,21h-22V6H10l.1.81A1.36,1.36,0,0,0,11.44,8H13a1.36,1.36,0,0,0,1.35-1.2l.1-.81H23Z"/><path d="M12.4,16.24a11.42,11.42,0,0,1-2.83-1.33v-.12a3.58,3.58,0,0,0,.6-1.13,1.27,1.27,0,0,0,.36-.71,1.21,1.21,0,0,0-.16-.79v-.85A2.13,2.13,0,0,0,8,9.07a2.16,2.16,0,0,0-2.4,2.24v.86a1.16,1.16,0,0,0-.15.78,1.2,1.2,0,0,0,.35.71,3.41,3.41,0,0,0,.61,1.13v.1a10.62,10.62,0,0,1-2.83,1.35A.83.83,0,0,0,3,17v1.12a.82.82,0,0,0,.81.82H12.1a.82.82,0,0,0,.82-.82V17A.83.83,0,0,0,12.4,16.24ZM11.92,18H4v-.82C6.9,16,7.25,15.56,7.37,15.19a.77.77,0,0,0,0-.15V14.6a.45.45,0,0,0-.15-.35,2.44,2.44,0,0,1-.54-1A.54.54,0,0,0,6.51,13a.19.19,0,0,1-.09-.15.2.2,0,0,1,0-.18.49.49,0,0,0,.11-.31v-1c0-.83.47-1.25,1.4-1.25s1.39.4,1.39,1.25v1a.45.45,0,0,0,.12.31.29.29,0,0,1,0,.18.26.26,0,0,1-.09.15.51.51,0,0,0-.2.28,2.33,2.33,0,0,1-.54,1,.49.49,0,0,0-.15.35V15a.4.4,0,0,0,0,.15c.11.37.47.83,3.33,1.94Z"/><path d="M20.48,15h-6a.5.5,0,0,0,0,1h6a.5.5,0,0,0,0-1Z"/><path d="M14,12.49a.5.5,0,0,0,.5.5h6a.5.5,0,0,0,0-1h-6A.5.5,0,0,0,14,12.49Z"/><line class="cls-1" x1="-2.64" y1="-2.77" x2="25.85" y2="25.97"/><line class="cls-1" x1="27.16" y1="-2.77" x2="-1.32" y2="25.97"/></svg>