<svg xmlns="http://www.w3.org/2000/svg" xmlns:xlink="http://www.w3.org/1999/xlink" version="1.1" class="icons icon-oos" id="icon-oos" x="0" y="0" viewBox="0 0 48.5 48.4" enable-background="new 0 0 48.5 48.4" xml:space="preserve"><path d="M47.8 35.7L36.3 24.1l11.5-11.5c0.4-0.4 0.7-1 0.7-1.6 0-0.6-0.2-1.2-0.7-1.6l-8.8-8.8c-0.8-0.8-2.3-0.8-3.2 0L24.3 12.1 12.8 0.6c-0.8-0.8-2.3-0.8-3.2 0l-9 9c-0.9 0.9-0.9 2.3 0 3.2l11.5 11.5L0.7 35.7c-0.4 0.4-0.7 1-0.7 1.6 0 0.6 0.2 1.2 0.7 1.6l8.8 8.8c0.8 0.8 2.3 0.8 3.2 0l11.4-11.4 11.6 11.6c0.4 0.4 1 0.7 1.6 0.7 0.6 0 1.2-0.2 1.6-0.7l9-9c0.4-0.4 0.7-1 0.7-1.6C48.5 36.7 48.3 36.1 47.8 35.7zM46.4 37.5l-9 9c-0.1 0.1-0.2 0.2-0.4 0L24.8 34.1c-0.2-0.2-0.4-0.3-0.7-0.3s-0.5 0.1-0.7 0.3L11.3 46.3c-0.1 0.1-0.3 0.1-0.4 0l-8.8-8.8C2 37.4 2 37.3 2 37.3c0-0.1 0-0.1 0.1-0.2l12.1-12.1c0.4-0.4 0.4-1 0-1.4L2 11.3c-0.1-0.1-0.1-0.3 0-0.4l9-9c0.1-0.1 0.3-0.1 0.4 0l12.2 12.2c0.4 0.4 1 0.4 1.4 0L37.2 2c0.1-0.1 0.3-0.1 0.4 0l8.8 8.8c0 0 0.1 0.1 0.1 0.2 0 0.1 0 0.1-0.1 0.2L34.2 23.4c-0.2 0.2-0.3 0.4-0.3 0.7s0.1 0.5 0.3 0.7l12.3 12.3c0.1 0.1 0.1 0.1 0.1 0.2C46.5 37.3 46.5 37.4 46.4 37.5z"/></svg>