<svg xmlns="http://www.w3.org/2000/svg" xmlns:xlink="http://www.w3.org/1999/xlink" version="1.1" class="icons icon-pen" id="icon-pen" x="0" y="0" viewBox="0 0 25.1 25.3" enable-background="new 0 0 25.1 25.3" xml:space="preserve"><path stroke-width="0.4" stroke-miterlimit="10" d="M17.1 2.6c-0.1-0.1-0.3-0.2-0.5-0.1L7.1 6.1C6.9 6.2 6.8 6.4 6.8 6.6c0 0.1 0.7 6.4-6.5 14.8 -0.2 0.2-0.2 0.5 0 0.7l1.4 1.4 0 0 0 0L3.1 25c0.1 0.1 0.2 0.1 0.3 0.1 0.1 0 0.2 0 0.3-0.1 7.1-6.1 12.7-6.5 14.3-6.5 0.4 0 0.6 0 0.6 0 0.2 0 0.4-0.1 0.5-0.3l3.7-9.4c0.1-0.2 0-0.4-0.1-0.5L17.1 2.6zM18.4 17.5c-0.1 0-0.2 0-0.3 0 -2.1 0-7.5 0.6-14.5 6.5l-0.7-0.7 9.9-9.9c0.2 0.1 0.5 0.2 0.8 0.2 0.5 0 0.9-0.2 1.2-0.5 0.7-0.7 0.7-1.8 0-2.4 -0.6-0.6-1.8-0.6-2.4 0 -0.5 0.5-0.6 1.4-0.3 2l-9.9 9.9 -0.7-0.7C7.6 14.2 7.9 8.4 7.8 6.9l8.8-3.4 5.2 5.2L18.4 17.5zM13.3 12c-0.1-0.1-0.1-0.3 0-0.5 0.1-0.1 0.1-0.1 0.2-0.1 0.1 0 0.2 0 0.2 0.1 0.1 0.1 0.1 0.3 0 0.5C13.6 12.1 13.4 12.1 13.3 12z"/><path stroke-width="0.4" stroke-miterlimit="10" d="M24.8 6.3l-6-6c-0.2-0.2-0.5-0.2-0.7 0 -0.2 0.2-0.2 0.5 0 0.7l6 6c0.1 0.1 0.2 0.1 0.3 0.1 0.1 0 0.3 0 0.3-0.1C25 6.8 25 6.5 24.8 6.3z"/></svg>