<svg xmlns="http://www.w3.org/2000/svg" xmlns:xlink="http://www.w3.org/1999/xlink" version="1.1" class="icons icon-pencil" id="icon-pencil" x="0" y="0" viewBox="0 0 60 60" enable-background="new 0 0 60 60" xml:space="preserve"><path d="M53.7 14.4l-8.1-8.1c-0.5-0.5-1.1-0.8-1.8-0.8 -0.7 0-1.4 0.3-1.8 0.8L11.7 36.5c-0.2 0.2-0.4 0.5-0.6 0.9L5.7 50.9c-0.4 1-0.2 2.1 0.6 2.8 0.5 0.5 1.2 0.8 1.8 0.8 0 0 0 0 0 0 0.3 0 0.7-0.1 1-0.2l13.6-5.5c0.3-0.1 0.6-0.3 0.9-0.6l30.1-30.1 0.1-0.1c0.5-0.5 0.8-1.2 0.8-1.8C54.5 15.5 54.2 14.9 53.7 14.4zM12.7 38.9l8.4 8.4 -9.8 4L8.8 48.7 12.7 38.9zM52.3 16.6L22.8 46.1l-2.4-2.4c0.1 0 0.2-0.1 0.2-0.1l26.1-26.1c0.4-0.4 0.4-1 0-1.4s-1-0.4-1.4 0L19.3 42.2c-0.1 0.1-0.1 0.1-0.1 0.2l-5.3-5.3 29.5-29.5c0.2-0.2 0.3-0.2 0.4-0.2 0.2 0 0.3 0.1 0.4 0.2l8.1 8.1c0.1 0.1 0.2 0.3 0.2 0.4S52.4 16.5 52.3 16.6z"/></svg>