<svg xmlns="http://www.w3.org/2000/svg" xmlns:xlink="http://www.w3.org/1999/xlink" version="1.1" class="icons icon-print" id="icon-print" x="0" y="0" viewBox="0 0 49.4 47.4" enable-background="new 0 0 49.4 47.4" xml:space="preserve"><path d="M17.3 41.2h15c0.6 0 1-0.4 1-1 0-0.6-0.4-1-1-1h-15c-0.6 0-1 0.4-1 1C16.3 40.7 16.7 41.2 17.3 41.2z"/><path d="M17.3 36.4h15c0.6 0 1-0.4 1-1 0-0.6-0.4-1-1-1h-15c-0.6 0-1 0.4-1 1C16.3 36 16.7 36.4 17.3 36.4z"/><path d="M44.3 5h-7c0 0-0.1-0.1-0.1-0.1l-4.4-4.3C32.4 0.2 31.9 0 31.3 0H13.9c-1.1 0-2.1 0.9-2.1 2.1v3H5.1C2.3 5 0 7.3 0 10.2v14.5c0 2.8 2.3 5.2 5.1 5.2h39.2c2.8 0 5.1-2.3 5.1-5.2V10.2C49.4 7.3 47.1 5 44.3 5zM31.4 2l4.4 4.4v6.9H13.9l0-11.3L31.4 2zM47.4 24.7c0 1.7-1.4 3.2-3.1 3.2H5.1c-1.7 0-3.1-1.4-3.1-3.2V10.2C2 8.5 3.4 7 5.1 7h6.7v7.3c0 0.6 0.4 1 1 1h24c0.6 0 1-0.4 1-1V7h6.4c1.7 0 3.1 1.4 3.1 3.2V24.7z"/><path d="M36.8 31.9c-0.6 0-1 0.4-1 1l-0.1 12.5 -21.9-0.1V32.9c0-0.6-0.4-1-1-1 -0.6 0-1 0.4-1 1v12.5c0 1.1 0.9 2.1 2.1 2.1h21.8c1.1 0 2.1-0.9 2.1-2.1V32.9C37.8 32.3 37.4 31.9 36.8 31.9z"/></svg>