<svg xmlns="http://www.w3.org/2000/svg" class="icons icon-staff" id="icon-staff" viewBox="0 0 8.66 14.12"><path d="M11.52,19.08a0.5,0.5,0,0,1-.5-0.5V18.22a0.5,0.5,0,0,1,1,0v0.36A0.5,0.5,0,0,1,11.52,19.08Z" transform="translate(-7.54 -4.96)"/><path d="M11.52,16.12a0.5,0.5,0,0,1-.5-0.5v-2.2a1.31,1.31,0,0,1,.88-1.23c2.22-.79,3.3-1.81,3.3-3.13A3.38,3.38,0,0,0,11.6,6,3.74,3.74,0,0,0,8.46,7.55,0.5,0.5,0,0,1,7.63,7a4.74,4.74,0,0,1,4-2,4.38,4.38,0,0,1,4.6,4.1c0,1.79-1.3,3.12-4,4.07a0.31,0.31,0,0,0-.21.29v2.2A0.5,0.5,0,0,1,11.52,16.12Z" transform="translate(-7.54 -4.96)"/></svg>
