<svg xmlns="http://www.w3.org/2000/svg" xmlns:xlink="http://www.w3.org/1999/xlink" version="1.1" class="icons icon-staff" id="icon-staff" x="0" y="0" viewBox="0 0 30.8 21.6" enable-background="new 0 0 30.8 21.6" xml:space="preserve"><path d="M20.8 16.5c-5.6-2.2-6.7-3.1-6.9-3.4v-0.7c0.6-0.7 1.1-1.6 1.5-2.7 0.5-0.4 0.8-1.1 0.8-1.7 0-0.5-0.1-0.9-0.4-1.3V4.6c0-2.9-1.8-4.6-5-4.6 -3.1 0-5 1.7-5 4.6v2.1C5.6 7.1 5.5 7.5 5.5 8c0 0.7 0.3 1.3 0.8 1.7 0.3 1.1 0.8 2 1.5 2.7v0.7c-0.2 0.3-1.2 1.2-6.9 3.4C0.3 16.7 0 17.2 0 17.7v2.6c0 0.7 0.6 1.3 1.3 1.3h19c0.7 0 1.3-0.6 1.3-1.3v-2.6C21.6 17.2 21.3 16.7 20.8 16.5zM20.4 20.3c0 0.1-0.1 0.1-0.1 0.1h-19c-0.1 0-0.1-0.1-0.1-0.1v-2.6c0-0.1 0-0.1 0.1-0.1 6.3-2.4 7.4-3.5 7.6-4.2 0-0.1 0-0.1 0-0.2v-1c0-0.2-0.1-0.3-0.2-0.4 -0.6-0.6-1.1-1.5-1.4-2.6 0-0.1-0.1-0.3-0.2-0.3C6.8 8.7 6.7 8.3 6.7 8c0-0.3 0.1-0.5 0.2-0.7C7 7.2 7.1 7.1 7.1 6.9V4.6c0-2.2 1.3-3.4 3.8-3.4 2.5 0 3.8 1.1 3.8 3.4v2.3c0 0.1 0 0.3 0.1 0.4C14.8 7.4 15 7.7 15 8c0 0.4-0.2 0.7-0.4 0.9 -0.1 0.1-0.2 0.2-0.2 0.3 -0.3 1-0.8 1.9-1.4 2.6 -0.1 0.1-0.2 0.3-0.2 0.4v1c0 0.1 0 0.1 0 0.2 0.2 0.8 1.3 1.8 7.6 4.2 0 0 0.1 0.1 0.1 0.1V20.3z"/><path d="M29.9 16.8c-1.4-0.6-2.9-0.8-4.2-1.1 -0.8-0.2-2-0.4-2.2-0.5v-0.6c2.8-0.1 4-1.1 4-1.1 0.2-0.1 0.2-0.3 0.2-0.5 0-0.2-0.1-0.4-0.3-0.5 -0.6-0.3-1.2-3-1.4-5.3 0-1.6-0.7-3.2-1.8-4.3 -0.5-0.5-1.1-0.9-1.8-1.1 -1.2-0.5-2.6-0.4-3.8 0 -0.5 0.2-0.9 0.4-1.3 0.7 -0.3 0.2-0.3 0.6-0.1 0.8 0.2 0.3 0.6 0.3 0.8 0.1 0.3-0.2 0.6-0.4 1-0.5 1-0.4 1.9-0.4 3 0 0.6 0.2 1 0.4 1.3 0.8 0 0 0 0 0 0C24.4 4.6 25 5.8 25 7.2c0.1 1 0.4 4.1 1.3 5.6 -0.6 0.2-1.7 0.6-3.3 0.6 -0.3 0-0.6 0.3-0.6 0.6v1.4c0 0.1 0 0.1 0 0.2 0.3 0.8 1.4 1.1 3.1 1.4 1.2 0.2 2.6 0.5 3.9 1 0 0 0 0 0 0.1v2.4c0 0 0 0.1-0.1 0.1h-5.1c-0.3 0-0.6 0.3-0.6 0.6 0 0.3 0.3 0.6 0.6 0.6h5.1c0.7 0 1.3-0.6 1.3-1.3V18C30.8 17.4 30.4 16.9 29.9 16.8z"/></svg>