<svg xmlns="http://www.w3.org/2000/svg" class="icons icon-oos" id="icon-success" x="0" y="0" viewBox="0 0 24 24" style="enable-background:new 0 0 24 24;"><path d="M12.012.12C5.46.12.129 5.451.129 12.003S5.46 23.885 12.012 23.885s11.882-5.33 11.882-11.882S18.563.12 12.012.12zm0 22.765c-6 0-10.882-4.882-10.882-10.882S6.012 1.121 12.012 1.121s10.882 4.882 10.882 10.882-4.882 10.882-10.882 10.882z"/><path d="M17.147 7.248l-6.755 8.445-2.928-3.661c-.173-.215-.487-.25-.703-.078-.215.173-.25.487-.078.703l3.318 4.149c.095.118.239.188.391.188s.295-.069.391-.188l7.146-8.934c.172-.216.138-.53-.078-.703-.216-.171-.53-.137-.704.079z"/></svg>