<svg class="icons icon-user-id" id="icon-success" enable-background="new 0 0 24 24" version="1.1" viewBox="0 0 24 24" xml:space="preserve" xmlns="http://www.w3.org/2000/svg">
    <path d="m23.519 4.999h-8.985l0.296-2.509c0.047-0.385-0.074-0.773-0.331-1.064h-1e-3c-0.258-0.291-0.628-0.458-1.015-0.458h-2.549c-0.388 0-0.758 0.167-1.016 0.458-0.256 0.29-0.377 0.678-0.332 1.063l0.295 2.51h-9.318c-0.276 0-0.5 0.224-0.5 0.5v15.982c0 0.276 0.224 0.5 0.5 0.5h22.956c0.276 0 0.5-0.224 0.5-0.5v-15.982c0-0.277-0.224-0.5-0.5-0.5zm-12.852-2.911c0.068-0.077 0.165-0.121 0.266-0.121h2.549c0.101 0 0.198 0.044 0.266 0.121 0.068 0.078 0.101 0.181 0.089 0.284l-0.51 4.318c-0.021 0.181-0.173 0.318-0.354 0.318h-1.532c-0.181 0-0.333-0.137-0.354-0.318l-0.507-4.318c-0.013-0.103 0.02-0.207 0.087-0.284zm12.352 18.893h-21.956v-14.982h8.937l0.095 0.808c0.08 0.685 0.66 1.202 1.347 1.202h1.532c0.688 0 1.267-0.517 1.347-1.201l0.095-0.808h8.603v14.981z"/>
    <path d="m12.395 16.243c-2.198-0.85-2.723-1.241-2.83-1.33v-0.127c0.259-0.311 0.466-0.695 0.605-1.128 0.192-0.188 0.32-0.438 0.358-0.709 0.038-0.275-0.016-0.548-0.154-0.784v-0.85c0-1.406-0.896-2.246-2.397-2.246-1.479 0-2.397 0.861-2.397 2.246v0.851c-0.137 0.236-0.191 0.508-0.153 0.783 0.038 0.271 0.165 0.521 0.357 0.709 0.14 0.434 0.346 0.818 0.605 1.129v0.107c-0.147 0.138-0.711 0.53-2.83 1.35-0.313 0.12-0.523 0.428-0.523 0.765v1.122c0 0.452 0.365 0.819 0.814 0.819h8.254c0.449 0 0.814-0.367 0.814-0.819v-1.122c0-0.338-0.21-0.646-0.523-0.766zm-0.477 1.706h-7.883v-0.818c2.861-1.114 3.216-1.569 3.331-1.939 0.015-0.048 0.022-0.098 0.022-0.148v-0.448c0-0.131-0.051-0.256-0.143-0.35-0.242-0.247-0.43-0.596-0.545-1.008-0.031-0.111-0.099-0.208-0.193-0.274-0.049-0.035-0.083-0.09-0.091-0.152-6e-3 -0.044-2e-3 -0.111 0.051-0.177 0.072-0.089 0.112-0.2 0.112-0.315v-1.004c0-0.827 0.47-1.246 1.397-1.246 0.953 0 1.397 0.396 1.397 1.246v1.004c0 0.115 0.04 0.227 0.112 0.315 0.054 0.066 0.058 0.133 0.051 0.178-9e-3 0.062-0.042 0.117-0.09 0.151-0.095 0.066-0.163 0.163-0.194 0.274-0.115 0.412-0.304 0.761-0.545 1.008-0.091 0.094-0.143 0.219-0.143 0.35v0.448c0 0.051 8e-3 0.101 0.023 0.149 0.116 0.37 0.47 0.824 3.331 1.938v0.818z"/>
    <path d="m20.477 14.989h-5.962c-0.276 0-0.5 0.224-0.5 0.5s0.224 0.5 0.5 0.5h5.962c0.276 0 0.5-0.224 0.5-0.5s-0.224-0.5-0.5-0.5z"/>
    <path d="m14.015 12.489c0 0.276 0.224 0.5 0.5 0.5h5.962c0.276 0 0.5-0.224 0.5-0.5s-0.224-0.5-0.5-0.5h-5.962c-0.277 0-0.5 0.224-0.5 0.5z"/>
</svg>