<svg xmlns="http://www.w3.org/2000/svg" xmlns:xlink="http://www.w3.org/1999/xlink" version="1.1" class="icons icon-watch" id="icon-watch" x="0" y="0" viewBox="0 0 17.5 23.2" enable-background="new 0 0 17.5 23.2" xml:space="preserve"><path d="M11 11.4H8.3V6.4c0-0.3-0.2-0.5-0.5-0.5 -0.3 0-0.5 0.2-0.5 0.5v5.5c0 0.3 0.2 0.5 0.5 0.5H11c0.3 0 0.5-0.2 0.5-0.5C11.5 11.6 11.3 11.4 11 11.4z"/><path d="M12.7 18.9c-0.3 0-0.5 0.1-0.5 0.4l-0.5 3H3.9l-0.5-3c0-0.3-0.3-0.4-0.5-0.4 -0.3 0-0.4 0.3-0.4 0.5L3 22.9c0 0.2 0.2 0.4 0.5 0.4h8.6c0.2 0 0.4-0.2 0.5-0.4l0.6-3.4C13.2 19.2 13 18.9 12.7 18.9z"/><path d="M2.8 4.2c0.3 0 0.5-0.1 0.5-0.4l0.5-2.9h7.8l0.5 2.9c0 0.2 0.2 0.4 0.5 0.4 0 0 0.1 0 0.1 0 0.3 0 0.4-0.3 0.4-0.5l-0.6-3.3c0-0.2-0.2-0.4-0.5-0.4H3.5C3.3 0 3.1 0.2 3 0.4L2.4 3.7C2.4 3.9 2.6 4.2 2.8 4.2z"/><path d="M17.5 10.3C17.5 10.3 17.5 10.3 17.5 10.3l-1.2 0c0 0 0 0-0.1 0 0 0 0 0.1 0 0.1v0.4h-0.6c-0.4-4-3.7-7.1-7.8-7.1C3.5 3.7 0 7.2 0 11.6c0 4.3 3.5 7.9 7.9 7.9 4.1 0 7.5-3.1 7.8-7.1h0.6v0.4c0 0 0 0.1 0 0.1 0 0 0 0 0.1 0h1.1c0 0 0 0 0.1 0 0 0 0-0.1 0-0.1L17.5 10.3C17.5 10.4 17.5 10.4 17.5 10.3zM7.9 18.5c-3.8 0-6.9-3.1-6.9-6.9 0-3.8 3.1-6.9 6.9-6.9 3.8 0 6.9 3.1 6.9 6.9C14.8 15.4 11.7 18.5 7.9 18.5z"/></svg>