<svg xmlns="http://www.w3.org/2000/svg" id="qbic-logo" class="logo" viewBox="0 0 504.68 198.43"><path d="M258.09 146.13c17.78 0 31.23-14.66 31.23-32.68S275.87 81 258.09 81s-31 14.41-31 32.42 13.21 32.68 31 32.68m5-93.93c30 0 57.42 24 57.42 61 0 37.23-27.39 61.5-57.89 61.5-16.34 0-28.83-7.45-35.56-17.54v9.37a4.81 4.81 0 0 1-4.8 4.8H201.4a4.88 4.88 0 0 1-5.05-4.8V8a4.89 4.89 0 0 1 5.05-4.81h20.9a5 5 0 0 1 5 4.81v61.26c5.77-9.61 19.22-17.06 35.79-17.06M344.77 171.35a5.07 5.07 0 0 1-5-5V60.6a4.92 4.92 0 0 1 5-5h20.9a4.92 4.92 0 0 1 5.05 5v105.71a5.07 5.07 0 0 1-5.05 5zM335.89 21a19.34 19.34 0 1 1 19.45 19.45A19.53 19.53 0 0 1 335.89 21M451.67 174.71c-34.83 0-61.74-26.66-61.74-61.25s26.91-61.27 61.74-61.27c23.78 0 42.52 11.54 52.13 27.39 1.93 3.13.48 6.73-2.16 8.65l-11.77 9.13c-4.08 3.12-7.69 1.68-10.09-1.44C472.09 86.55 464.64 81 452.15 81c-18 0-31 14.41-31 32.43s13 32.42 31 32.42c12.49 0 19.94-5.52 27.63-14.89 2.4-3.12 6-4.56 10.09-1.44l11.77 9.13c2.64 1.92 4.09 5.52 2.16 8.65-9.61 15.85-28.35 27.38-52.13 27.38M51.71 126.37a38.2 38.2 0 0 0 .55 6.53C39.28 122.49 32 106.34 32 87.64c0-33.63 23.82-58 56.62-58s56.64 24.31 56.64 57.81c0 13.52-3.78 25.72-11 35.62-4.55-22-19.65-34.48-42.12-34.48-23.42 0-40.42 15.9-40.42 37.82m38.05-11.81c12.28 0 18.75 8.82 19.72 27a57.21 57.21 0 0 1-20.91 3.67c-8.45 0-14.36-6.49-14.36-15.79 0-8.59 6.54-14.83 15.55-14.83m83.88 51.31a29.51 29.51 0 0 1-13.05 2.91c-9.22 0-16-3.39-20.2-10.08a87.22 87.22 0 0 0 36.78-71.33c0-49-38.92-87.41-88.6-87.41S0 38.39 0 87.41s38.91 87.4 88.58 87.4a94.72 94.72 0 0 0 25.52-3.5c7.39 17 23.72 27.12 44.14 27.12 9.48 0 17-1.46 23.55-4.66a8.22 8.22 0 0 0 4.21-10.22l-5.65-15.31s-1.3-4.93-6.68-2.33" fill="#ff8abe"/></svg>