<svg xmlns="http://www.w3.org/2000/svg" id="cole-logo" class="logo" viewBox="0 0 328.44 133.27"><path fill="#ffd74f" d="M140.04 95.57l149.69 37.7V6.57L140.14 46.91l-.1 48.66z"/><path fill="#7ec0bc" d="M140.07 95.64L42.7 117.61V25.48l97.37 21.46v48.7z"/><path d="M154.83 71.44a15.32 15.32 0 1 1-15.3-15.76 15.52 15.52 0 0 1 15.3 15.76z" fill="#fff"/><path fill="#f37657" d="M42.72 25.46L.04 41.8v52.9l42.68 22.93V25.46z"/><path d="M40.8 75a1.2 1.2 0 0 0-1-.62.47.47 0 0 0-.36.18 7.81 7.81 0 0 1-5 2.58 2.34 2.34 0 0 1-2.37-.92 22.91 22.91 0 0 0 6.32-4.58c1.26-1.42 1.67-2.86 1.13-4A2.54 2.54 0 0 0 37 66.39a4.3 4.3 0 0 0-2.53 1.13 17.48 17.48 0 0 0-3.91 4.61 6.53 6.53 0 0 0-.89 3.43 14.11 14.11 0 0 1-3.29 2.22 4.09 4.09 0 0 1-1.33.37.8.8 0 0 1-.65-.15 1.35 1.35 0 0 1 0-1.08 22.53 22.53 0 0 1 3.89-6.61 1 1 0 0 0 0-1.1 2.1 2.1 0 0 0-1.83-1.1 1.15 1.15 0 0 0-.49.13c-2 1-5 4-6.35 5.42C23 68.06 26.47 63.1 30 58.24l.57-.06c.95-.06 1.81-.63 1.78-1.16 0-.18-.13-.59-1-.53h-.07l1.32-1.8v-.11c.12-.42-.32-1-.45-1.15a1.54 1.54 0 0 0-1.12-.67.67.67 0 0 0-.51.28l-.81 1.14c-.62.87-1.25 1.75-1.88 2.65-11.25 1.24-24.53 3.55-25.23 3.7a.67.67 0 0 0-.61.74 1.21 1.21 0 0 0 1.3.88h.28c.49-.11 8.71-1.35 15.9-2.37C14.82 64.73 4.88 80.62 5.05 83c.07.61.43 2.16 1.29 2.11.37 0 .69-.35 1-1C11.61 74.5 20.47 62 22.42 59.3l3.58-.5.57-.08c-4.57 6.45-9.13 13.35-12.09 19.8A1.48 1.48 0 0 0 14.7 80a1.93 1.93 0 0 0 1.45.83.55.55 0 0 0 .42-.21c1.77-2.3 3.32-4 4.81-5.73.42-.48.85-1 1.26-1.43a6.94 6.94 0 0 1 .58-.55c-.21.48-.52 1.25-1 2.59a3.75 3.75 0 0 0 .65 3.37A3.24 3.24 0 0 0 26 80.12a8.12 8.12 0 0 0 4.37-2.54 4.88 4.88 0 0 0 4.37 1.71 8.1 8.1 0 0 0 6-3.44.76.76 0 0 0 .06-.85zm-8.55-1l.27-.53a15.38 15.38 0 0 1 2.85-3.62c1.25-1.15 1.9-1.31 2.13-1.32s.21 0 .23.07 0 .68-.53 1.39A15.84 15.84 0 0 1 32.25 74zm-16.12 6.49zM56.19 71.45v-.13C56.19 57.93 66.27 47 80.73 47c8.88 0 14.2 3 18.57 7.26l-6.59 7.6c-3.64-3.29-7.33-5.31-12-5.31C72.73 56.52 67 63.11 67 71.18v.14c0 8.07 5.58 14.79 13.64 14.79 5.39 0 8.68-2.15 12.38-5.51l6.59 6.66c-4.84 5.17-10.22 8.4-19.3 8.4a23.76 23.76 0 0 1-24.12-24.21zM114.57 71.45v-.13c0-13.39 10.56-24.35 25.08-24.35s25 10.83 25 24.21v.14c0 13.38-10.56 24.34-25.09 24.34s-24.99-10.83-24.99-24.21zm39.21 0v-.13c0-8.07-5.92-14.8-14.26-14.8s-14.12 6.59-14.12 14.66v.14c0 8.07 5.92 14.79 14.25 14.79s14.13-6.59 14.13-14.66zM184.46 47.78h10.36v37.66h23.47v9.41h-33.83zM233.69 47.78h35.51V57H244v9.55h22.19v9.22H244v9.88h25.55v9.21h-35.86z"/><path d="M289.73 6.57v31.95L77.75.09 77.26 0 0 30.68l.03 3.59 77.6-30.82 212.1 38.45v91.37l38.71-38.38V41.88L289.73 6.57z"/><path d="M304.74 94.84v-2.51h3.33v-3.22h-3.33V86.6h8.9v2.51h-3.38v3.22h3.38v2.51zM309.22 83.76a4.88 4.88 0 0 1 0-9.75 4.71 4.71 0 0 1 4.63 4.89 4.66 4.66 0 0 1-4.63 4.86zm0-7.19a2.33 2.33 0 0 0-2.4 2.33 2.29 2.29 0 0 0 2.38 2.29 2.33 2.33 0 0 0 2.41-2.31 2.3 2.3 0 0 0-2.39-2.31zM306.9 69.09v2.71h-2.16v-7.94h2.16v2.72h6.74v2.51zM304.74 60.19v-7.28h2.1v4.79h1.35v-4.34h1.94v4.34h1.42v-4.86h2.09v7.35zM304.74 48.52V46h6.74v-4.37h2.16v6.89z" fill="#7ec0bc"/></svg>