<svg class="logo" width="175" height="50" version="1.1" viewBox="0 0 346.66666 102.90667" xml:space="preserve" xmlns="http://www.w3.org/2000/svg"><g transform="matrix(1.3333 0 0 -1.3333 0 102.91)"><g transform="scale(.1)"><g clip-path="url(#clipPath20)" fill="#fff"><path d="m173.23 177.45v-72.668h-86.992v72.668h-28.676v-175.47h28.676v75.137h86.992v-75.137h28.668v175.47h-28.668"/><path d="m354.43 89.719c0 50.676 40.039 89.707 89.718 89.707 49.922 0 89.711-39.031 89.711-89.707 0-50.672-39.789-89.715-89.711-89.715-49.679 0-89.718 39.043-89.718 89.715m150.27 0c0 35.09-25.953 62.527-60.551 62.527-34.601 0-60.558-27.437-60.558-62.527 0-35.098 25.957-62.531 60.558-62.531 34.598 0 60.551 27.434 60.551 62.531"/><path d="m665.37 177.45v-28.176h45.231v-147.29h28.668v147.29h45.484v28.176h-119.38"/><path d="m932.81 177.45v-175.47h104.07v28.172h-75.396v46.965h60.566v27.664h-60.566v44.492h75.396v28.176h-104.07"/><path d="m1190.9 177.45v-175.47h102.56v28.418h-73.89v147.05h-28.67"/><path d="m1609.6 89.719c0 50.676 40.04 89.707 89.72 89.707 24.7 0 45.96-8.645 62.03-25.449l-18.55-20.262c-10.86 11.621-26.43 18.531-43.48 18.531-34.6 0-60.56-27.437-60.56-62.527 0-35.098 25.96-62.531 60.56-62.531 17.05 0 32.62 6.9258 43.48 18.547l18.55-20.274c-16.07-16.809-37.33-25.457-62.03-25.457-49.68 0-89.72 39.043-89.72 89.715"/><path d="m1911.6 177.45v-175.47h102.57v28.418h-73.9v147.05h-28.67"/><path d="m2157.8 70.195v107.26h28.68v-108c0-27.195 17.04-42.266 42.01-42.266 24.96 0 41.76 15.07 41.76 42.266v108h28.67v-107.26c0-43.25-29.16-70.191-70.43-70.191-41.28 0-70.69 26.941-70.69 70.191"/><path d="m2459.4 177.45h62.04c31.87 0 51.65-21.992 51.65-47.949 0-15.82-5.94-26.691-16.31-34.094 16.31-6.9297 28.17-21.258 28.17-43.016 0-30.644-24.47-50.418-58.33-50.418h-67.22zm58.33-73.894c17.55 0 26.43 10.379 26.43 23.726 0 12.856-8.88 23.723-26.43 23.723h-29.66v-47.449zm8.89-74.883c19.78 0 29.42 10.625 29.42 24.961 0 14.336-9.64 25.449-29.42 25.449h-38.55v-50.41h38.55"/><path d="m330.45 747.46h-46.726l-87.575-203.38-87.57 203.38h-46.742l134.31-310.59 134.3 310.59"/><path d="m196.15 400.14-150.01 347.32h-46.141l196.15-454.52 196.13 454.52h-46.133l-150-347.32"/><path d="m491.17 317.28h42.512v430.19h-42.512z"/><path d="m547.66 317.28h42.512v430.19h-42.512z"/><path d="m775.1 747.46h-42.508v-430.19h225.65v42.508h-183.14v387.68"/><path d="m831.59 747.46h-41.922v-373.11h168.57v42.512h-126.65v330.6"/><path d="m1107.5 747.46h-42.51v-430.19h225.65v42.508h-183.14v387.68"/><path d="m1164 747.46h-41.91v-373.11h168.57v42.512h-126.66v330.6"/><path d="m1441.9 317.27h46.13l87.59 203.42 88.13-203.42h46.14l-134.31 310.62-133.68-310.62"/><path d="m1380.1 317.27h46.13l149.43 347.3 149.98-347.3h46.13l-196.13 454.54-195.54-454.54"/><path d="m2037.1 653.81 6.92 0.054v42.453h-6.98c-90.4 0-163.96-73.55-163.96-163.95 0-90.41 73.56-163.96 163.96-163.96 85.56 0 155.78 64.082 163.34 149.06l0.67 7.609h-170.99v-42.508h117.92c-19.82-43.851-62.36-71.648-110.94-71.648-66.97 0-121.45 54.48-121.45 121.45 0 66.402 54.51 120.88 121.51 121.44"/><path d="m2030 539.65h185.51v-7.277c0-98.453-80.09-178.53-178.53-178.53s-178.53 80.078-178.53 178.53c0 97.871 80.1 177.96 178.57 178.53l6.94 0.039v42.469h-6.98c-121.88 0-221.04-99.16-221.04-221.04 0-121.88 99.16-221.04 221.04-221.04s221.04 99.16 221.04 221.04v49.789h-228.02v-42.512"/><path d="m2430.8 539.65h169.15v42.512h-126.65v65.711h126.65v42.504h-169.15v-150.73"/><path d="m2373.7 747.46v-430.19h226.23v42.508h-183.72v345.16h183.72v42.52h-226.23"/><path d="m2430.8 374.37h169.15v42.496h-126.65v65.707h126.65v42.516h-169.15v-150.72"/></g></g></g></svg>
