<svg id="waldhotel-davos-logo" class="logo" xmlns="http://www.w3.org/2000/svg" viewBox="0 0 295 50"><rect  fill="#fff"  x="6.17" y="3.92" width="283.46" height="41.1"/><rect  fill="#939598"  x="186.88" y="3.92" width="102.76" height="41.1"/><rect  fill="none" stroke="#231f20" stroke-width="1px"   x="6.17" y="3.92" width="283.46" height="41.1"/><path  fill="#939598"  d="M15.36,34.72c-1.62-4.35-1.74-8.88-1.74-13.77V14.23h2.79v4.92A95.54,95.54,0,0,0,17,32.26a96.77,96.77,0,0,0,.57-13.11V14.23h2.79v4.92a95.29,95.29,0,0,0,.57,13.11,96.77,96.77,0,0,0,.57-13.11V14.23h2.76v6.36c0,5-.12,9.69-1.74,14.13H19.83c-.33-1-.63-2-.9-3-.27,1-.57,2-.9,3Z"/><path  fill="#939598"  d="M41.28,30.79H40.13v3.93H37.35V30.79c0-7.23.42-12.72,1.74-16.56h3.2c1.33,3.84,1.77,9.33,1.77,16.56v3.93H41.28ZM40.07,28.3h1.27a77.44,77.44,0,0,0-.63-10.68A71.22,71.22,0,0,0,40.07,28.3Z"/><path  fill="#939598"  d="M57.32,14.23h2.85v18h2.7v2.49H57.32Z"/><path  fill="#939598"  d="M78.93,14.23c2.76,0,3.54,1,3.54,4.17V30.55c0,3.15-.78,4.17-3.54,4.17H75.72V14.23Zm.72,4.29c0-1.29-.06-1.8-1-1.8h-.15V32.23h.15c1,0,1-.51,1-1.8Z"/><path  fill="#939598"  d="M95.74,14.23h2.77v7.65h1.17V14.23h2.76V34.72H99.68V24.37H98.51V34.72H95.74Z"/><path  fill="#939598"  d="M119.12,14c2.75,0,3.41,1.68,3.41,5.16V29.86c0,3.51-.69,5.13-3.41,5.13s-3.42-1.65-3.42-5.13V19.12C115.7,15.64,116.36,14,119.12,14Zm0,18.51c.56,0,.56-.54.56-1.53V18c0-.93,0-1.53-.56-1.53s-.58.57-.58,1.53v13C118.54,31.87,118.54,32.47,119.12,32.47Z"/><path  fill="#939598"  d="M136.9,16.72h-1.5V14.23h5.82v2.49h-1.47v18H136.9Z"/><path  fill="#939598"  d="M154.24,14.23h5.58v2.49H157v5.13h2.67v2.49H157v7.89h2.82v2.49h-5.58Z"/><path  fill="#939598"  d="M172.9,14.23h2.85v18h2.7v2.49H172.9Z"/><path  fill="#fff"  d="M199,14.23c2.76,0,3.55,1,3.55,4.17V30.55c0,3.15-.79,4.17-3.55,4.17h-3.2V14.23Zm.73,4.29c0-1.29-.07-1.8-1-1.8h-.15V32.23h.15c.95,0,1-.51,1-1.8Z"/><path  fill="#fff"  d="M219.64,30.79H218.5v3.93h-2.79V30.79c0-7.23.42-12.72,1.74-16.56h3.21c1.32,3.84,1.77,9.33,1.77,16.56v3.93h-2.79Zm-1.2-2.49h1.26a77.44,77.44,0,0,0-.63-10.68A71.38,71.38,0,0,0,218.44,28.3Z"/><path  fill="#fff"  d="M238.33,19.15a95.54,95.54,0,0,0,.57,13.11,96.77,96.77,0,0,0,.57-13.11V14.23h2.79v5.94c0,5.22-.09,10-1.77,14.55h-3.21c-1.62-4.35-1.74-8.88-1.74-13.77V14.23h2.79Z"/><path  fill="#fff"  d="M258.84,14c2.76,0,3.42,1.68,3.42,5.16V29.86c0,3.51-.69,5.13-3.42,5.13s-3.42-1.65-3.42-5.13V19.12C255.42,15.64,256.08,14,258.84,14Zm0,18.51c.57,0,.57-.54.57-1.53V18c0-.93,0-1.53-.57-1.53s-.57.57-.57,1.53v13C258.27,31.87,258.27,32.47,258.84,32.47Z"/><path  fill="#fff"  d="M279.34,20.71V18c0-.93,0-1.53-.59-1.53s-.58.57-.58,1.53V19a4.62,4.62,0,0,0,1.59,3.6c1.5,1.74,2.43,2.79,2.43,5.37v1.86c0,3.51-.69,5.13-3.42,5.13s-3.42-1.65-3.42-5.13V26.92h2.82v4c0,.93,0,1.53.58,1.53s.59-.54.59-1.53v-1.8a5.69,5.69,0,0,0-1.89-4.74c-1.46-1.68-2.1-2.58-2.1-5.28V18c0-2.67,1.15-4.05,3.42-4.05,2.76,0,3.42,1.68,3.42,5.16v1.59Z"/></svg>