<svg xmlns="http://www.w3.org/2000/svg" xmlns:xlink="http://www.w3.org/1999/xlink" version="1.1" class="icons icon-cc" id="icon-cc" x="0" y="0" viewBox="0 0 25.2 22.7" enable-background="new 0 0 25.2 22.7" xml:space="preserve">
  <path d="M15.7 14.5l5.1-2.9c0.2-0.1 0.3-0.4 0.2-0.6 -0.1-0.2-0.4-0.3-0.6-0.2l-5.1 2.9c-0.2 0.1-0.3 0.4-0.2 0.6C15.2 14.6 15.5 14.7 15.7 14.5z"/>
  <path d="M17 0.2L0.8 9.3C0 9.7-0.2 10.7 0.2 11.5l0.5 0.8 2.1 3.7 3.3 5.8c0.4 0.8 1.4 1.1 2.2 0.6l16.1-9.1c0.8-0.4 1.1-1.4 0.6-2.2l-3.3-5.8 -2.1-3.7 -0.5-0.8C18.7 0 17.7-0.2 17 0.2zM1.9 12.7l17.4-9.8 1.2 2.2L3.1 14.9 1.9 12.7zM24.3 11.6c0.2 0.4 0.1 0.8-0.3 1L7.9 21.8c-0.4 0.2-0.8 0.1-1-0.3l-3.3-5.8L21 5.8 24.3 11.6zM1.4 11.9L1 11.1c-0.2-0.4-0.1-0.8 0.3-1L17.4 1c0.4-0.2 0.8-0.1 1 0.3l0.5 0.8L1.4 11.9z"/>
</svg>