<svg xmlns="http://www.w3.org/2000/svg" xmlns:xlink="http://www.w3.org/1999/xlink" version="1.1" class="icons icon-key" id="icon-key" x="0" y="0" width="388.7" height="393.1" viewBox="0 0 388.7 393.1" enable-background="new 0 0 388.7 393.1" xml:space="preserve"><g><path d="M356.9 31.9c-19.6-19.6-45.6-30.4-73.4-30.4s-53.8 10.8-73.4 30.4c-38.1 38.1-40.3 98.5-6.8 139.3L4 370.6c-3.3 3.3-3.3 8.7 0 12 1.7 1.7 3.8 2.5 6 2.5s4.4-0.8 6-2.5l33.9-33.9 40.4 40.4c1.7 1.7 3.8 2.5 6 2.5 2.2 0 4.4-0.8 6-2.5 3.3-3.3 3.3-8.7 0-12l-40.4-40.4 27.5-27.5 65.1 65.1c1.7 1.7 3.8 2.5 6 2.5s4.4-0.8 6-2.5c3.3-3.3 3.3-8.7 0-12l-65.1-65.1 113.9-113.9c18.9 16.6 42.9 25.6 68.3 25.6 27.7 0 53.8-10.8 73.4-30.4C397.3 138.1 397.3 72.3 356.9 31.9M344.9 166.6C328.5 183 306.7 192 283.5 192s-45-9-61.3-25.4c-33.8-33.8-33.8-88.8 0-122.7 16.4-16.4 38.2-25.4 61.3-25.4s45 9 61.3 25.4C378.7 77.7 378.7 132.8 344.9 166.6M333.2 76c0 11.3-9.2 20.4-20.4 20.4 -11.3 0-20.4-9.2-20.4-20.4 0-11.3 9.1-20.4 20.4-20.4S333.2 64.8 333.2 76"/><path d="M356.9 31.9c-19.6-19.6-45.6-30.4-73.4-30.4s-53.8 10.8-73.4 30.4c-38.1 38.1-40.3 98.5-6.8 139.3L4 370.6c-3.3 3.3-3.3 8.7 0 12 1.7 1.7 3.8 2.5 6 2.5s4.4-0.8 6-2.5l33.9-33.9 40.4 40.4c1.7 1.7 3.8 2.5 6 2.5 2.2 0 4.4-0.8 6-2.5 3.3-3.3 3.3-8.7 0-12l-40.4-40.4 27.5-27.5 65.1 65.1c1.7 1.7 3.8 2.5 6 2.5s4.4-0.8 6-2.5c3.3-3.3 3.3-8.7 0-12l-65.1-65.1 113.9-113.9c18.9 16.6 42.9 25.6 68.3 25.6 27.7 0 53.8-10.8 73.4-30.4C397.3 138.1 397.3 72.3 356.9 31.9zM344.9 166.6C328.5 183 306.7 192 283.5 192s-45-9-61.3-25.4c-33.8-33.8-33.8-88.8 0-122.7 16.4-16.4 38.2-25.4 61.3-25.4s45 9 61.3 25.4C378.7 77.7 378.7 132.8 344.9 166.6zM333.2 76c0 11.3-9.2 20.4-20.4 20.4 -11.3 0-20.4-9.2-20.4-20.4 0-11.3 9.1-20.4 20.4-20.4S333.2 64.8 333.2 76z"/></g></svg>