<svg id="story-logo" width="281px" height="95px" class="logo" x="0" y="0" xmlns="http://www.w3.org/2000/svg" viewBox="0 0 411.56 138.96"><path d="M102.67,19.54H80.07V1.15H144.8V19.54H122.2v118H102.67Z" style="fill:#4e1c14"/><path d="M161.86,33.33C161.86,11.11,178.72,0,194.62,0s32.75,11.11,32.75,33.33v72c0,22.21-16.86,33.32-32.75,33.32s-32.76-11.11-32.76-33.32Z" style="fill:#15464c"/><path d="M258.18,1.15h31.41c23.17,0,34.47,13.6,34.47,40,0,15.71-4.41,27.2-16.85,34.09l21.06,62.25H307.59L289.4,79.3H277.71v58.22H258.18Z" style="fill:#a41d10"/><path d="M66.14,40.41V32.65h0A33.06,33.06,0,1,0,8.63,55.29L24,74.09h0L42.36,96.44s0,0,0,0l.24.29h0a13.22,13.22,0,1,1-22.74,9.72h0V98.71H0v7.06s0,.07,0,.11S0,106,0,106v.47H0a33.06,33.06,0,1,0,57.5-22.81l-31-37.84L23.76,42.5l0,0L23,41.54h0a13.21,13.21,0,1,1,23.31-8.9h0v7.76Z" style="fill:#73c2ce"/><path d="M102.67,19.54H80.07V1.15H144.8V19.54H122.2v118H102.67Z" style="fill:#461b00"/><path d="M161.86,33.33C161.86,11.11,178.72,0,194.62,0s32.75,11.11,32.75,33.33v72c0,22.21-16.86,33.32-32.75,33.32s-32.76-11.11-32.76-33.32Z" style="fill:#004c51"/><path d="M258.18,1.15h31.41c23.17,0,34.47,13.6,34.47,40,0,15.71-4.41,27.2-16.85,34.09l21.06,62.25H307.59L289.4,79.3H277.71v58.22H258.18Z" style="fill:#b20e10"/><path d="M365.21,79.87,338.39,1.15h20.69l15.71,54.21h.38L390.88,1.15h20.68L384.75,79.87v57.65H365.21Z" style="fill:#f08262"/><path d="M66.14,40.41V32.65h0A33.06,33.06,0,1,0,8.63,55.29L24,74.09h0L42.36,96.44s0,0,0,0l.24.29h0a13.22,13.22,0,1,1-22.74,9.72h0V98.71H0v7.06s0,.07,0,.11S0,106,0,106v.47H0a33.06,33.06,0,1,0,57.5-22.81l-31-37.84L23.76,42.5l0,0L23,41.54h0a13.21,13.21,0,1,1,23.31-8.9h0v7.76Z" style="fill:#81cbd4"/></svg>