<svg id="fairfield-logo" data-name="Layer 1" xmlns="http://www.w3.org/2000/svg" viewBox="0 0 391.16 130.37" class="logo"><defs><style>.cls-1{fill:#00467f;}.cls-2{fill:#ffca38;}</style></defs><circle class="cls-1" cx="65.19" cy="65.19" r="65.19"/><path class="cls-2" d="M108.85,256.22a1.18,1.18,0,0,0-.76.32,30.59,30.59,0,0,1-31.58,7.4V205.42a28.21,28.21,0,0,1,9.67-1.68c11.9,0,19.9,6.92,20.77,12a3.11,3.11,0,0,0-3,3.12,2.73,2.73,0,0,0,2.73,2.73c1.85,0,3.12-1.36,3.12-3.7,0-8-10-16.29-23.6-16.29A30.35,30.35,0,0,0,62.7,212.47h-.07v.07a35,35,0,0,0-8,22.6c0,17.75,12.58,32.58,31.8,32.58,9.56,0,16.87-3.61,23.11-9.66a1.2,1.2,0,0,0,.33-.78A1.07,1.07,0,0,0,108.85,256.22ZM60,248.51H74.16v6.09H63.59A29.49,29.49,0,0,1,60,248.51ZM57.3,235c0-1.15.06-2.28.16-3.39h16.7v6.09H57.41C57.34,236.86,57.3,236,57.3,235Zm16.86-14.15H60.26a30.87,30.87,0,0,1,3.6-6.09H74.16Zm0,2.34v6.09H57.76a34,34,0,0,1,1.55-6.09Zm0,16.85v6.09h-15a33,33,0,0,1-1.46-6.09Zm0-33.69v6.07H65.84A27.69,27.69,0,0,1,74.16,206.4Zm-8.57,50.54h8.57V263A27.3,27.3,0,0,1,65.59,256.94Z" transform="translate(-20.84 -169.59)"/><path class="cls-2" d="M86,293.83a59.05,59.05,0,1,1,59.05-59.05A59.12,59.12,0,0,1,86,293.83Zm0-116.89a57.84,57.84,0,1,0,57.84,57.84A57.91,57.91,0,0,0,86,176.94Z" transform="translate(-20.84 -169.59)"/><path class="cls-1" d="M218.47,252.76a26,26,0,0,1-13.19,3.32c-13.41,0-22.32-8.79-22.32-20.52,0-11.44,9.64-20.46,21.36-20.46,8.68,0,14,3.21,14,3.21l-2.42,6a27.19,27.19,0,0,0-10.37-2.59c-9.3,0-15,5.86-15,14,0,7.95,6.09,13.81,14.32,13.81a25.48,25.48,0,0,0,11.5-2.7Z" transform="translate(-20.84 -169.59)"/><path class="cls-1" d="M233.41,215.79h7v39.62h-7Z" transform="translate(-20.84 -169.59)"/><path class="cls-1" d="M258.26,215.79h12.68c10.54,0,15.84,5.81,15.84,14.09,0,5.47-2.25,9.81-7.21,12.12l10.15,13.41h-8.17l-8.4-11.67q-1.69.17-3.55.17h-4.34v11.5h-7Zm7,6.43v15.5h5.19c6.54,0,8.79-3.49,8.79-7.83s-2.2-7.67-8.79-7.67Z" transform="translate(-20.84 -169.59)"/><path class="cls-1" d="M333.61,252.76a26,26,0,0,1-13.19,3.32c-13.41,0-22.32-8.79-22.32-20.52,0-11.44,9.64-20.46,21.36-20.46,8.68,0,14,3.21,14,3.21l-2.42,6a27.19,27.19,0,0,0-10.37-2.59c-9.3,0-15,5.86-15,14,0,7.95,6.09,13.81,14.32,13.81a25.48,25.48,0,0,0,11.5-2.7Z" transform="translate(-20.84 -169.59)"/><path class="cls-1" d="M348.54,215.79h7V249H374.3v6.43H348.54Z" transform="translate(-20.84 -169.59)"/><path class="cls-1" d="M386.24,215.79H412v6.43H393.23v11.1h17v6.2h-17V249H412v6.43H386.24Z" transform="translate(-20.84 -169.59)"/><path class="cls-2" d="M217.52,283h9.3v2.32H220v4.17h6v2.24h-6v5.58h-2.5Z" transform="translate(-20.84 -169.59)"/><path class="cls-2" d="M237,297.26H234.4l6.72-14.43h.57l6.72,14.43h-2.71l-1.26-2.85h-6.15Zm2.14-4.87h4.36l-2.18-4.93Z" transform="translate(-20.84 -169.59)"/><path class="cls-2" d="M258.17,283h2.52v14.31h-2.52Z" transform="translate(-20.84 -169.59)"/><path class="cls-2" d="M272.23,283h4.58c3.81,0,5.72,2.1,5.72,5.09a4.47,4.47,0,0,1-2.61,4.38l3.66,4.85h-3l-3-4.21a12.77,12.77,0,0,1-1.28.06h-1.57v4.15h-2.52Zm2.52,2.32v5.6h1.87c2.36,0,3.18-1.26,3.18-2.83s-.79-2.77-3.18-2.77Z" transform="translate(-20.84 -169.59)"/><path class="cls-2" d="M293.68,283H303v2.32h-6.8v4.17h6v2.24h-6v5.58h-2.5Z" transform="translate(-20.84 -169.59)"/><path class="cls-2" d="M314.87,283h2.52v14.31h-2.52Z" transform="translate(-20.84 -169.59)"/><path class="cls-2" d="M329.44,283h9.3v2.32H332v4h6.15v2.24H332v3.42h6.78v2.32h-9.3Z" transform="translate(-20.84 -169.59)"/><path class="cls-2" d="M349.71,283h2.52v12H359v2.32h-9.3Z" transform="translate(-20.84 -169.59)"/><path class="cls-2" d="M368.72,283h5.39c4.44,0,7.65,3,7.65,7.15s-3.28,7.17-7.65,7.17h-5.39Zm2.55,2.32v9.67h2.87a4.84,4.84,0,1,0,0-9.67Z" transform="translate(-20.84 -169.59)"/><polygon class="cls-1" points="249.84 24.82 254.63 24.82 254.63 36.81 258.31 36.81 258.31 24.82 263.01 24.82 263.01 21.36 249.84 21.36 249.84 24.82"/><polygon class="cls-1" points="281.11 27.79 275.26 27.79 275.26 21.36 271.6 21.36 271.6 36.81 275.26 36.81 275.26 31.17 281.11 31.17 281.11 36.81 284.77 36.81 284.77 21.38 281.11 21.38 281.11 27.79"/><polygon class="cls-1" points="305.61 24.82 305.61 21.36 295.17 21.36 295.17 36.81 305.61 36.81 305.61 33.35 298.83 33.35 298.83 31.07 304.98 31.07 304.98 27.69 298.83 27.69 298.83 24.82 305.61 24.82"/><rect class="cls-2" x="257.7" y="98.81" width="33.21" height="1.52"/></svg>