<svg id="logo-beachside" class="logo" xmlns="http://www.w3.org/2000/svg" xmlns:xlink="http://www.w3.org/1999/xlink" viewBox="0 0 525 394"><g><path fill="#fbd840" d="M171.92.57A81.77,81.77,0,0,0,90.15,82.34c0,1.11,0,2.22.08,3.32,26.44-10.26,61-19.89,80.26-10.13,17.08,8.65,28.72,30.35,13.52,54-7.18,11.16-17.86,23.39-27.15,33.19A81.77,81.77,0,1,0,171.92.57"/><path fill="#2d3b66" d="M155.18,227.32c-6.45,5.76-21.65,19.15-26.08,13.66-2-2.55-.59-6.26-.59-6.26S149.6,219.47,155.19,213s18.11-16.23,13.22-26.4-19.28-2.31-24,1.37c-5,3.83-30.7,23.05-30.7,57.19,0,12.8,10.65,14.69,20.73,10.48,16.78-7,36.9-31.73,36.9-31.73l4.2-19.89s-11.79,15.67-20.31,23.29m.88-32.79c5.78,4.34-25.19,27.48-25.19,27.48C133.25,211.45,152.28,191.7,156.06,194.53Z"/><path fill="#2d3b66" d="M522.07,160.8c-7-2.66-26.85,26.48-36.36,16.81-2.15-2.18-1.33-8.17-1.33-8.17s21.17-14.2,26.38-20.21,16.85-15.09,12.3-24.56-19.51-2.94-23.94.5c-4.61,3.56-27.79,19.89-27.79,51.66,0,11.91,9.42,15.26,19.29,12.86,21.14-5.14,35.87-27.21,31.45-28.89M510.78,132c5.39,4-23.44,25.56-23.44,25.56C489.56,147.79,507.27,129.4,510.78,132Z"/></g><path fill="#2d3b66" d="M217,187.51c-.21-1.24.08-4.84-3.65-4.61-18,1.11-40.63,42.91-31.8,46.93,4.36,2,11.58-5.08,14-8.66s17.67-29.77,20.22-28.57,7,5.1,6.29,8.16-17.88,26.53-12.25,28.3c5.33,1.67,21.26-20.75,21.26-20.75l.78,9.78S218,237.92,207.35,241.24c-13.41,4.2-13.6-5.1-13.6-5.1s-10.84,11.48-19.38,10.7c-18.34-1.67-11.27-50.55,29.18-73,10.61-5.88,20.38-2.71,22.34.89,3.3,6,1.81,11.65-5.62,13.77-1.36.39-3.13.05-3.31-1"/><path fill="#2d3b66" d="M459.06,151c.37-1.19,2.38-12.47-8.66-11-17.84,2.36-29.83,44.34-20.24,45.88,9.38,1.5,15.1-13.24,17.55-18,2-3.82,34.06-87.57,37-87.71,2.81-.14,6,10.37,5.47,13.46s-37.84,87.6-32,88.33c7.79,1,22-18.56,22-18.56l1.47,8.6s-13.13,18.3-23.54,22.16c-13.17,4.9-13.86-6.48-13.86-6.48s-7.88,11.32-21.92,9.91c-19.1-1.93-12.09-52.94,23.22-68.37,12.94-5.66,19,8.29,19,12.38,0,12.91-8.55,19.08-5.51,9.41"/><path fill="#2d3b66" d="M264.93,183.85c0-1.42,8-8.32.76-8.36-2.74,0-11.82,7.28-19.6,19.15-4.33,6.6-11.05,23.08-1.68,25,15.83,3.22,37.68-27.2,37.68-27.2l-.48,11.32s-9.8,19.88-30.35,28.56c-6.55,2.77-16.44,4-21.58-2-15.5-18,12.45-63,35.55-66.39,14.47-2.16,19.13,6.86,13.52,17.47-3,5.67-14,8.16-13.82,2.43"/><g class="cls-2"><path fill="#2d3b66" d="M316.26,102.15s-34.17,79.63-36.16,96.71c-1,8.59-6,22.64-2.2,27.26,2.56,3.1,12-.75,12.62-2.57.78-2.13,1.56-14.08,3.8-19.18,3.29-7.53,19.76-25.69,22.08-28.26s-9.63,19.82-10.92,27.26-.09,18.95,13.63,16.46c14.72-2.67,34.84-39.56,39.21-46.24s7-10.34,7.07-11.82c.15-2-3.78-9.87-5.9-7-6.05,8.26-30,53.34-39.68,51.21-3-.66,12.64-31.15,13.71-33.81,1.52-3.75-1.16-20.37-4.9-21.41-3.43-.95-30.73,32.35-30.73,32.35s2.76-11.92,11.6-32c9.55-21.72,15.36-34,15.36-38.46,0-2.33-5-12.56-8.59-10.51"/><path fill="#2d3b66" d="M30.33,167.64c-7-1.33-13.69-7.6-12.37-11.15C29.82,124.68,134,85.32,153.14,96.24c14.79,8.45-5,41.41-51.49,74.41-18.19,12.92-70.4,40.72-86.71,45.89s-9.13,17.36-4.51,18.39c0,0,34.44-14.74,43.23-18.9s70.2-35.41,101-68c26.62-28.13,28.75-42.77,15.25-58.3S112.35,87,96.52,92.64C17.6,120.73.68,158.09,2.36,166.82,5.79,184.71,24,182,31.56,178.15c9.25-4.7,1.3-10-1.23-10.51"/><path fill="#2d3b66" d="M1.79,298.85C-1.5,303-1,319.09,9.6,318.55c5.89-.3,29.83-15.56,38.64-21.53C67.58,283.93,98.7,259,102.9,236.64c1.74-9.19-1.82-20.22-9-25.6s-24.31-8.88-24.31-8.88L43,221.92S62.48,211,71.93,213.27c23,5.56,20.48,20.11,2.79,40.48-12,13.88-34.08,27.17-47.91,34.49-7.2,3.82-25,10.61-25,10.61"/></g><path fill="#2d3b66" d="M54.83,139.26S6.15,307.13,9.8,311.89c2.45,3.19,18-5.34,18.72-7.13.86-2.1,6.33-29.55,6.33-29.55s12.35-55.93,20.42-84.14c6.52-22.81,13.31-38.85,13.47-43.3.09-2.32-10.28-10.43-13.91-8.51"/><path fill="#2d3b66" d="M380,188.58c-1.28,7.35.14,20,13.63,16.46,6.27-1.65,13.13-10,19.19-16.58,3.91-4.2,2.49-16.38-2.18-10.42-4,5.09-10.88,17-16.31,14.84-6.57-2.62,10.86-32.92,11.93-35.59,1.52-3.74-.8-14.6-4.54-15.64-3.44-1-20.43,39.49-21.72,46.93"/><path fill="#2d3b66" d="M357.45,148.94c.43,2.17,1.84,16.25,3.86,22.74,6.29,20.18-6.68,32.54-17,29.06-8.06-2.74-2.39-16.72-.67-19.56,1.33-2.2-1.36-1.25-4.24.79-4.47,3.17-11.5,27,5,30,21.82,4,39.75-12.85,29.87-37.63-9.27-23.23-3.34-30.65-4.56-33.7-1.06-2.62-13.36,2.8-12.28,8.29"/><path fill="#2d3b66" d="M409,122.1c-2.32-.86-7.31,3.88-5,8.55S410.7,139,413,136,416,124.68,409,122.1"/><path fill="#27b2c9" fill-rule="evenodd" d="M90.47,292.55c3.42-13.61,130.63-39.83,205.86-51.89,146.39-23.45,199.57-26.33,211.17-24s8.46,13.2-6,14.21-70.64.63-250.87,31.3C110.12,286,88.93,298.68,90.47,292.55"/><polyline fill="#2d3b66" points="332.13 281.39 328.63 281.39 328.63 272.92 324.14 272.92 324.14 281.39 320.64 281.39 320.64 261.77 324.14 261.77 324.14 269.5 328.63 269.5 328.63 261.77 332.13 261.77 332.13 281.39"/><path fill="#2d3b66" d="M350,271.55c0,5.66-2,10.15-6.53,10.15s-6.5-4.46-6.5-10.09,2-10.15,6.56-10.15,6.47,4.46,6.47,10.09m-3.59.06c0-4.18-.87-6.65-2.94-6.65s-2.91,2.41-2.91,6.59.86,6.64,3,6.64S346.42,275.78,346.42,271.61Z"/><polyline fill="#2d3b66" points="364.44 265.13 360.38 265.13 360.38 281.39 356.88 281.39 356.88 265.13 352.81 265.13 352.81 261.77 364.44 261.77 364.44 265.13"/><polyline fill="#2d3b66" points="379.18 281.39 368.87 281.39 368.87 261.77 378.93 261.77 378.93 265.13 372.37 265.13 372.37 269.28 376.77 269.28 376.77 272.59 372.37 272.59 372.37 278.02 379.18 278.02 379.18 281.39"/><polyline fill="#2d3b66" points="393.75 281.39 384.11 281.39 384.11 261.77 387.62 261.77 387.62 277.97 393.75 277.97 393.75 281.39"/><path fill="#2d3b66" d="M420.8,281.39H417l-1-1.4a5.7,5.7,0,0,1-4,1.71c-3.56,0-5.33-2-5.33-5.27,0-2.25,1-4,3.17-5.5l-.67-1a6.4,6.4,0,0,1-1.4-3.78c0-3,2.1-4.68,5.07-4.68a7.67,7.67,0,0,1,5,1.65L416.26,266a5.35,5.35,0,0,0-3.37-1.23,1.45,1.45,0,0,0-1.54,1.43,3.69,3.69,0,0,0,.93,2.33l3.78,5.74a23.15,23.15,0,0,0,.73-2.77l2.63,1.17a17.56,17.56,0,0,1-1.4,4.54l2.78,4.21m-6.42-3.93-2.78-4.06a3.58,3.58,0,0,0-1.54,2.92,2,2,0,0,0,2.1,2.15A3,3,0,0,0,414.38,277.46Z"/><path fill="#2d3b66" d="M443.72,276.09c0,3.25-2.24,5.61-5.89,5.61a7.32,7.32,0,0,1-5.85-3.09l2.38-2.55c1.17,1.52,2.44,2.25,3.61,2.25a2,2,0,0,0,2.19-2.13c0-1.13-.7-2-3-3.2-2.92-1.51-4.68-3-4.68-6.25a5.2,5.2,0,0,1,5.49-5.27,6.22,6.22,0,0,1,5.36,2.8L441,266.59c-1.15-1.29-1.77-1.74-3.11-1.74a1.7,1.7,0,0,0-1.85,1.71c0,1.18.67,1.91,2.8,3.06,3.39,1.82,4.88,3.16,4.88,6.47"/><path fill="#2d3b66" d="M459.8,273.54c0,5.1-1.51,8.16-5.82,8.16s-5.84-3.23-5.84-8.1V261.77h3.51V273.6c0,3.39.75,4.62,2.35,4.62s2.3-1.23,2.3-4.62V261.77h3.5v11.77"/><rect fill="#2d3b66" x="465.41" y="261.77" width="3.5" height="19.62"/><polyline fill="#2d3b66" points="485.11 265.13 481.04 265.13 481.04 281.39 477.54 281.39 477.54 265.13 473.48 265.13 473.48 261.77 485.11 261.77 485.11 265.13"/><polyline fill="#2d3b66" points="499.85 281.39 489.53 281.39 489.53 261.77 499.6 261.77 499.6 265.13 493.04 265.13 493.04 269.28 497.44 269.28 497.44 272.59 493.04 272.59 493.04 278.02 499.85 278.02 499.85 281.39"/><path fill="#2d3b66" d="M515.21,276.09c0,3.25-2.25,5.61-5.89,5.61a7.36,7.36,0,0,1-5.86-3.09l2.38-2.55c1.18,1.52,2.44,2.25,3.62,2.25a2,2,0,0,0,2.19-2.13c0-1.13-.7-2-3-3.2-2.92-1.51-4.68-3-4.68-6.25a5.2,5.2,0,0,1,5.49-5.27,6.19,6.19,0,0,1,5.35,2.8l-2.32,2.33c-1.15-1.29-1.77-1.74-3.11-1.74a1.71,1.71,0,0,0-1.86,1.71c0,1.18.68,1.91,2.81,3.06,3.39,1.82,4.88,3.16,4.88,6.47"/><path fill="#2d3b66" d="M139.71,377.68c-1.48,5.16-4.22,8-9,8-6.95,0-10.18-7.12-10.18-16.13s3.32-16.23,10.27-16.23c5.33,0,7.66,3.4,8.87,7.93L134.42,363c-.81-2.87-1.66-4-3.72-4-3,0-4.44,3.86-4.44,10.54s1.48,10.62,4.53,10.62c1.92,0,2.91-1.08,4.08-4.48l4.84,2.06"/><path fill="#2d3b66" d="M167.28,369.48c0,9-3.18,16.22-10.44,16.22s-10.4-7.12-10.4-16.13,3.18-16.23,10.49-16.23,10.35,7.13,10.35,16.14m-5.74.09c0-6.68-1.39-10.63-4.7-10.63s-4.66,3.86-4.66,10.54,1.38,10.62,4.75,10.62S161.54,376.25,161.54,369.57Z"/><path fill="#2d3b66" d="M194.27,377.68c-1.48,5.16-4.21,8-9,8-6.95,0-10.17-7.12-10.17-16.13s3.31-16.23,10.26-16.23c5.34,0,7.67,3.4,8.88,7.93L189,363c-.8-2.87-1.65-4-3.72-4-3,0-4.44,3.86-4.44,10.54s1.48,10.62,4.53,10.62c1.93,0,2.92-1.08,4.08-4.48l4.84,2.06"/><path fill="#2d3b66" d="M221.85,369.48c0,9-3.18,16.22-10.45,16.22S201,378.58,201,369.57s3.19-16.23,10.49-16.23,10.36,7.13,10.36,16.14m-5.74.09c0-6.68-1.39-10.63-4.71-10.63s-4.66,3.86-4.66,10.54,1.39,10.62,4.75,10.62S216.11,376.25,216.11,369.57Z"/><path fill="#2d3b66" d="M250,385.21h-5.78l-1.48-6.54h-7l-1.48,6.54h-5.74l8-31.38h5.47l8,31.38m-8.47-11.79-.85-3.72c-.54-2.42-1.26-6.05-1.48-7.62-.23,1.61-.85,5-1.44,7.53l-.85,3.81Z"/><path fill="#2d3b66" d="M291.44,375.48c0,6.46-3.68,9.73-10.4,9.73h-8.16V353.83h8.47c5.74,0,9.32,3.18,9.32,8.38a6.46,6.46,0,0,1-3.85,6.14,7.21,7.21,0,0,1,4.62,7.13m-6.33-13c0-2.15-1-3.45-3.72-3.45h-3v6.85h3.18C284.26,365.84,285.11,364.23,285.11,362.44Zm.77,13.18c0-3.28-1.44-4.75-4.71-4.75h-2.82v9.19h3C284.53,380.06,285.88,378.22,285.88,375.62Z"/><polyline fill="#2d3b66" points="316.59 385.21 300.09 385.21 300.09 353.83 316.19 353.83 316.19 359.21 305.69 359.21 305.69 365.85 312.73 365.85 312.73 371.13 305.69 371.13 305.69 379.83 316.59 379.83 316.59 385.21"/><path fill="#2d3b66" d="M345.51,385.21h-5.78l-1.48-6.54h-7l-1.48,6.54H324l8-31.38h5.46l8,31.38M337,373.42l-.86-3.72c-.53-2.42-1.25-6.05-1.48-7.62-.22,1.61-.85,5-1.43,7.53l-.85,3.81Z"/><path fill="#2d3b66" d="M371.29,377.68c-1.48,5.16-4.21,8-9,8-6.95,0-10.18-7.12-10.18-16.13s3.32-16.23,10.27-16.23c5.33,0,7.67,3.4,8.87,7.93L366,363c-.81-2.87-1.66-4-3.72-4-3,0-4.44,3.86-4.44,10.54s1.48,10.62,4.53,10.62c1.93,0,2.91-1.08,4.08-4.48l4.84,2.06"/><polyline fill="#2d3b66" points="398.24 385.21 392.63 385.21 392.63 371.67 385.46 371.67 385.46 385.21 379.86 385.21 379.86 353.83 385.46 353.83 385.46 366.2 392.63 366.2 392.63 353.83 398.24 353.83 398.24 385.21"/></svg>