<svg id="krowoderska-logo" class="logo" xmlns="http://www.w3.org/2000/svg" viewBox="0 0 830 77"><path fill="#ffffff" d="M13.94,28.65h2.45a6.45,6.45,0,0,0,2.46-.41,4.15,4.15,0,0,0,1.68-1.31L36.09,7.24a5.7,5.7,0,0,1,2-1.74A6.61,6.61,0,0,1,40.85,5h9l-19,23.44a19.61,19.61,0,0,1-1.71,1.83,8.12,8.12,0,0,1-1.76,1.21,7.72,7.72,0,0,1,2.32,1.32,12.33,12.33,0,0,1,2,2.19l19.58,26.4H42.06a5.76,5.76,0,0,1-2.79-.53,4.28,4.28,0,0,1-1.54-1.54L21.78,38.52A4.81,4.81,0,0,0,20,37.05a7,7,0,0,0-2.77-.44H13.94v24.8H3.45V5H13.94Z"/><path fill="#ffffff" d="M53.48,61.41v-40h5.66a3,3,0,0,1,2.06.54A3.16,3.16,0,0,1,62,23.81l.59,4.84a19.06,19.06,0,0,1,5-5.85,10.57,10.57,0,0,1,6.47-2.14A8.38,8.38,0,0,1,79,22l-1.25,7.22a1.52,1.52,0,0,1-.51,1,1.74,1.74,0,0,1-1,.29,6.67,6.67,0,0,1-1.6-.27A10.76,10.76,0,0,0,71.89,30a8.2,8.2,0,0,0-5.15,1.65,12.74,12.74,0,0,0-3.62,4.86V61.41Z"/><path fill="#ffffff" d="M98.92,20.77a21.76,21.76,0,0,1,8.13,1.45,17.51,17.51,0,0,1,6.22,4.09,18.34,18.34,0,0,1,4,6.47,24.81,24.81,0,0,1,1.4,8.55,24.91,24.91,0,0,1-1.4,8.58,18.79,18.79,0,0,1-4,6.51,17.34,17.34,0,0,1-6.22,4.13,23.57,23.57,0,0,1-16.28,0,17.33,17.33,0,0,1-6.26-4.13,18.73,18.73,0,0,1-4-6.51,24.43,24.43,0,0,1-1.42-8.58,24.34,24.34,0,0,1,1.42-8.55,18.28,18.28,0,0,1,4-6.47,17.5,17.5,0,0,1,6.26-4.09A21.9,21.9,0,0,1,98.92,20.77Zm0,33.81c3.32,0,5.79-1.11,7.39-3.35s2.4-5.51,2.4-9.83-.8-7.6-2.4-9.86-4.07-3.4-7.39-3.4S93,29.28,91.43,31.56,89,37.11,89,41.4s.81,7.56,2.42,9.81S95.54,54.58,98.92,54.58Z"/><path fill="#ffffff" d="M117.79,21.4h7.65a3.23,3.23,0,0,1,1.83.5,2.21,2.21,0,0,1,.94,1.29l5.73,21.37c.31,1.17.56,2.32.76,3.43s.38,2.24.56,3.36c.29-1.12.6-2.24.92-3.36s.67-2.26,1-3.43l6.63-21.45a2.39,2.39,0,0,1,.94-1.28,2.71,2.71,0,0,1,1.64-.51h4.25a2.88,2.88,0,0,1,1.75.51,2.39,2.39,0,0,1,.94,1.28L159.91,45c.34,1.12.65,2.21.92,3.26s.54,2.11.8,3.18q.27-1.68.6-3.36c.22-1.11.5-2.27.84-3.47L169,23.19a2.17,2.17,0,0,1,.94-1.29,3,3,0,0,1,1.71-.5h7.29l-12.67,40h-7.76c-.83,0-1.43-.57-1.8-1.72L149.5,36.57c-.23-.76-.45-1.52-.64-2.28s-.36-1.53-.49-2.29c-.16.78-.33,1.56-.51,2.32s-.39,1.55-.62,2.33l-7.3,23a2.1,2.1,0,0,1-2.1,1.72h-7.37Z"/><path fill="#ffffff" d="M197.94,20.77a21.76,21.76,0,0,1,8.13,1.45,17.51,17.51,0,0,1,6.22,4.09,18.34,18.34,0,0,1,4,6.47,24.81,24.81,0,0,1,1.4,8.55,24.91,24.91,0,0,1-1.4,8.58,18.79,18.79,0,0,1-4,6.51,17.34,17.34,0,0,1-6.22,4.13,23.57,23.57,0,0,1-16.28,0,17.33,17.33,0,0,1-6.26-4.13,18.73,18.73,0,0,1-4-6.51,24.43,24.43,0,0,1-1.43-8.58,24.34,24.34,0,0,1,1.43-8.55,18.28,18.28,0,0,1,4-6.47,17.5,17.5,0,0,1,6.26-4.09A21.9,21.9,0,0,1,197.94,20.77Zm0,33.81c3.32,0,5.79-1.11,7.39-3.35s2.4-5.51,2.4-9.83-.8-7.6-2.4-9.86-4.07-3.4-7.39-3.4-5.88,1.14-7.49,3.42S188,37.11,188,41.4s.81,7.56,2.42,9.81S194.56,54.58,197.94,54.58Z"/><path fill="#ffffff" d="M249.85,61.41a2.36,2.36,0,0,1-2.46-1.75l-.78-3.87A23.93,23.93,0,0,1,244,58.33a17.52,17.52,0,0,1-2.95,2,15.1,15.1,0,0,1-3.39,1.27,16.28,16.28,0,0,1-3.92.45,13.24,13.24,0,0,1-6-1.37,13.44,13.44,0,0,1-4.7-4,19.18,19.18,0,0,1-3-6.41,32.63,32.63,0,0,1-1.07-8.74,27.19,27.19,0,0,1,1.21-8.27,19.93,19.93,0,0,1,3.47-6.63A16.29,16.29,0,0,1,229,22.23a15.69,15.69,0,0,1,7.1-1.57,13.82,13.82,0,0,1,5.73,1.07,15,15,0,0,1,4.25,2.86V3.46h9.63v58ZM237,54.35a9.75,9.75,0,0,0,5.11-1.25,15,15,0,0,0,4-3.55V31.61a9.42,9.42,0,0,0-3.57-2.8,10.42,10.42,0,0,0-4.15-.82,9.26,9.26,0,0,0-4,.82,7.74,7.74,0,0,0-3,2.47,12.13,12.13,0,0,0-1.89,4.21,23.88,23.88,0,0,0-.67,6,26.6,26.6,0,0,0,.57,5.95,11.9,11.9,0,0,0,1.62,4,6.25,6.25,0,0,0,2.57,2.22A8.31,8.31,0,0,0,237,54.35Z"/><path fill="#ffffff" d="M279.17,20.77a19.56,19.56,0,0,1,7,1.21,15.22,15.22,0,0,1,5.48,3.53,16.16,16.16,0,0,1,3.59,5.69,21.49,21.49,0,0,1,1.29,7.71,13,13,0,0,1-.1,1.81,2.79,2.79,0,0,1-.35,1.13,1.49,1.49,0,0,1-.68.59,3.08,3.08,0,0,1-1.09.17H269.54q.43,6.16,3.31,9a10.38,10.38,0,0,0,7.65,2.89,13.31,13.31,0,0,0,4-.55,18.66,18.66,0,0,0,3-1.21c.84-.44,1.58-.84,2.22-1.21a3.78,3.78,0,0,1,1.85-.54,2.08,2.08,0,0,1,1,.23,2.43,2.43,0,0,1,.74.66l2.81,3.51a15.89,15.89,0,0,1-3.59,3.14,20.18,20.18,0,0,1-4.15,2A22.86,22.86,0,0,1,284,61.68a31.4,31.4,0,0,1-4.35.32,21.44,21.44,0,0,1-7.76-1.39,17.45,17.45,0,0,1-6.24-4.09,19.2,19.2,0,0,1-4.17-6.71A25.85,25.85,0,0,1,260,40.54a22.25,22.25,0,0,1,1.32-7.7,18.51,18.51,0,0,1,3.8-6.28,17.91,17.91,0,0,1,6.05-4.23A19.9,19.9,0,0,1,279.17,20.77Zm.2,6.91a8.91,8.91,0,0,0-6.59,2.37,11.79,11.79,0,0,0-3,6.75h18.1a12,12,0,0,0-.51-3.53,8,8,0,0,0-1.56-2.9,7.22,7.22,0,0,0-2.65-2A9,9,0,0,0,279.37,27.68Z"/><path fill="#ffffff" d="M300.82,61.41v-40h5.65a3.06,3.06,0,0,1,2.07.54,3.16,3.16,0,0,1,.78,1.87l.58,4.84a19.06,19.06,0,0,1,5-5.85,10.62,10.62,0,0,1,6.48-2.14A8.37,8.37,0,0,1,326.32,22l-1.25,7.22a1.47,1.47,0,0,1-.5,1,1.76,1.76,0,0,1-1.06.29,6.53,6.53,0,0,1-1.59-.27,10.91,10.91,0,0,0-2.7-.27,8.17,8.17,0,0,0-5.14,1.65,12.86,12.86,0,0,0-3.63,4.86V61.41Z"/><path fill="#ffffff" d="M352.92,29.2a2.57,2.57,0,0,1-.82.87,2.12,2.12,0,0,1-1.09.26,3.42,3.42,0,0,1-1.5-.39l-1.86-.88a16.45,16.45,0,0,0-2.39-.88,11.52,11.52,0,0,0-3.18-.39A7.46,7.46,0,0,0,337.59,29,3.76,3.76,0,0,0,336,32.16a3,3,0,0,0,.84,2.16A7.57,7.57,0,0,0,339,35.87a21.77,21.77,0,0,0,3.14,1.18c1.17.36,2.36.74,3.58,1.16a37.2,37.2,0,0,1,3.59,1.42,12.36,12.36,0,0,1,3.14,2,9.51,9.51,0,0,1,2.22,2.94,9.35,9.35,0,0,1,.84,4.14,13.33,13.33,0,0,1-1,5.32,11.71,11.71,0,0,1-3.08,4.21,14.41,14.41,0,0,1-5,2.77,21.73,21.73,0,0,1-6.85,1,21.43,21.43,0,0,1-4-.37,23.22,23.22,0,0,1-3.79-1,20.63,20.63,0,0,1-3.35-1.56,16.38,16.38,0,0,1-2.71-2l2.22-3.67a3.16,3.16,0,0,1,1-1,2.87,2.87,0,0,1,1.48-.35,3.07,3.07,0,0,1,1.69.51c.54.33,1.15.7,1.86,1.09a16.54,16.54,0,0,0,2.47,1.09,10.84,10.84,0,0,0,3.61.51,9.5,9.5,0,0,0,2.95-.41,6.42,6.42,0,0,0,2-1.07,3.94,3.94,0,0,0,1.17-1.55,4.51,4.51,0,0,0,.37-1.81,3.28,3.28,0,0,0-.83-2.3,7.36,7.36,0,0,0-2.23-1.56,21.17,21.17,0,0,0-3.16-1.19c-1.18-.35-2.39-.73-3.62-1.15a33.54,33.54,0,0,1-3.63-1.46,12.36,12.36,0,0,1-3.16-2.13,9.68,9.68,0,0,1-2.22-3.16,11,11,0,0,1-.84-4.52,11.51,11.51,0,0,1,1-4.68,11,11,0,0,1,2.87-3.88,14,14,0,0,1,4.72-2.65,19.44,19.44,0,0,1,6.53-1,20,20,0,0,1,7.53,1.37,16.8,16.8,0,0,1,5.65,3.59Z"/><path fill="#ffffff" d="M369.49,3.46V36.65h1.8a3.49,3.49,0,0,0,1.52-.28,4.05,4.05,0,0,0,1.17-1l9.94-12.29a5.9,5.9,0,0,1,1.41-1.23,3.8,3.8,0,0,1,1.95-.44h8.81L383.65,36.26a19.94,19.94,0,0,1-1.36,1.5A9.6,9.6,0,0,1,380.77,39a7.43,7.43,0,0,1,1.44,1.36c.41.52.83,1.08,1.25,1.68l13.33,19.42H388.1a4.22,4.22,0,0,1-1.91-.39,3.75,3.75,0,0,1-1.41-1.33L374.6,44.52a3.23,3.23,0,0,0-1.17-1.17,4.35,4.35,0,0,0-1.75-.27h-2.19V61.41h-9.63V3.46Z"/><path fill="#ffffff" d="M430.61,61.41h-4.33a4.72,4.72,0,0,1-2.15-.41A2.61,2.61,0,0,1,423,59.34l-.85-2.84a31.57,31.57,0,0,1-3,2.39,18,18,0,0,1-3,1.74,15.13,15.13,0,0,1-3.32,1,19.5,19.5,0,0,1-3.9.35,15.21,15.21,0,0,1-4.68-.68,10.17,10.17,0,0,1-3.68-2.05,9.32,9.32,0,0,1-2.4-3.41,12.14,12.14,0,0,1-.86-4.73,9.37,9.37,0,0,1,1.19-4.48,11.16,11.16,0,0,1,4-4,25.41,25.41,0,0,1,7.37-3,47.27,47.27,0,0,1,11.43-1.17V36.2q0-4.05-1.7-6a6.17,6.17,0,0,0-4.93-1.95,11.77,11.77,0,0,0-3.9.55A14.94,14.94,0,0,0,408,30q-1.16.69-2.13,1.23a4.24,4.24,0,0,1-2.14.55A2.79,2.79,0,0,1,402,31.3a4,4,0,0,1-1.13-1.25L399.13,27a23.83,23.83,0,0,1,16.66-6.31,16.06,16.06,0,0,1,6.26,1.15A13.34,13.34,0,0,1,426.71,25a13.74,13.74,0,0,1,2.9,4.9,18.65,18.65,0,0,1,1,6.24Zm-18.72-6a13.61,13.61,0,0,0,2.73-.26,10.44,10.44,0,0,0,2.36-.81A12.42,12.42,0,0,0,419.12,53a18.28,18.28,0,0,0,2.09-1.86V44.45a38.47,38.47,0,0,0-7,.53,18.32,18.32,0,0,0-4.54,1.35,5.77,5.77,0,0,0-2.44,1.93,4.27,4.27,0,0,0-.72,2.39A4.22,4.22,0,0,0,408,54.3,6.41,6.41,0,0,0,411.89,55.4Z"/><path fill="#ffffff" d="M498.23,61.41h-8.11a3.56,3.56,0,0,1-2.24-.68,3.86,3.86,0,0,1-1.27-1.7l-4.21-11.5H459L454.83,59a3.69,3.69,0,0,1-1.23,1.64,3.48,3.48,0,0,1-2.25.74H443.2L465.36,5h10.72Zm-36.5-21.29h18l-6.87-18.76c-.31-.83-.65-1.82-1-2.95s-.75-2.36-1.11-3.68c-.37,1.32-.72,2.56-1.07,3.7s-.7,2.15-1,3Z"/><path fill="#ffffff" d="M500,74.48V21.4h5.89a2.88,2.88,0,0,1,1.6.43,2,2,0,0,1,.85,1.32l.78,3.71a20.28,20.28,0,0,1,5.56-4.49A15.12,15.12,0,0,1,522,20.66,13.12,13.12,0,0,1,528,22a13.46,13.46,0,0,1,4.68,4,19,19,0,0,1,3,6.39,32,32,0,0,1,1.07,8.72,27.32,27.32,0,0,1-1.21,8.31A20.08,20.08,0,0,1,532.14,56a16,16,0,0,1-5.42,4.39A15.81,15.81,0,0,1,519.6,62a13.27,13.27,0,0,1-10-3.9V74.48Zm18.72-46.22a9.78,9.78,0,0,0-5.13,1.27,14.59,14.59,0,0,0-4,3.57V51a9.1,9.1,0,0,0,3.57,2.82,10.62,10.62,0,0,0,4.15.8,9.26,9.26,0,0,0,4-.82,7.62,7.62,0,0,0,3-2.49,12.33,12.33,0,0,0,1.89-4.23,23.83,23.83,0,0,0,.67-6,26.6,26.6,0,0,0-.57-6,11.17,11.17,0,0,0-1.62-3.95A6.36,6.36,0,0,0,522.12,29,7.93,7.93,0,0,0,518.71,28.26Z"/><path fill="#ffffff" d="M571.94,61.41h-4.33a4.68,4.68,0,0,1-2.14-.41,2.61,2.61,0,0,1-1.17-1.66l-.86-2.84a31.5,31.5,0,0,1-3,2.39,18.48,18.48,0,0,1-3,1.74,15,15,0,0,1-3.31,1,19.5,19.5,0,0,1-3.9.35,15.21,15.21,0,0,1-4.68-.68,10.21,10.21,0,0,1-3.69-2.05,9.57,9.57,0,0,1-2.4-3.41,12.14,12.14,0,0,1-.85-4.73,9.25,9.25,0,0,1,1.19-4.48,11.2,11.2,0,0,1,4-4,25.48,25.48,0,0,1,7.38-3,47.13,47.13,0,0,1,11.42-1.17V36.2q0-4.05-1.69-6a6.21,6.21,0,0,0-4.94-1.95,11.77,11.77,0,0,0-3.9.55A15.26,15.26,0,0,0,549.3,30c-.77.46-1.47.87-2.12,1.23a4.27,4.27,0,0,1-2.15.55,2.79,2.79,0,0,1-1.68-.51,4.1,4.1,0,0,1-1.13-1.25L540.47,27a23.78,23.78,0,0,1,16.65-6.31,16,16,0,0,1,6.26,1.15A13.25,13.25,0,0,1,568,25,13.91,13.91,0,0,1,571,29.9a18.9,18.9,0,0,1,1,6.24Zm-18.72-6a13.61,13.61,0,0,0,2.73-.26,10.44,10.44,0,0,0,2.36-.81A12.5,12.5,0,0,0,560.46,53a19.11,19.11,0,0,0,2.08-1.86V44.45a38.55,38.55,0,0,0-7,.53A18.45,18.45,0,0,0,551,46.33a5.77,5.77,0,0,0-2.44,1.93,4.27,4.27,0,0,0-.72,2.39,4.22,4.22,0,0,0,1.5,3.65A6.43,6.43,0,0,0,553.22,55.4Z"/><path fill="#ffffff" d="M577.91,61.41v-40h5.65a3.06,3.06,0,0,1,2.07.54,3.16,3.16,0,0,1,.78,1.87l.59,4.84a18.8,18.8,0,0,1,5-5.85,10.57,10.57,0,0,1,6.47-2.14A8.34,8.34,0,0,1,603.41,22l-1.24,7.22a1.52,1.52,0,0,1-.51,1,1.74,1.74,0,0,1-1,.29,6.6,6.6,0,0,1-1.6-.27,10.87,10.87,0,0,0-2.69-.27,8.18,8.18,0,0,0-5.15,1.65,12.86,12.86,0,0,0-3.63,4.86V61.41Z"/><path fill="#ffffff" d="M619.4,62c-3.45,0-6.12-1-8-2.94S608.6,54.42,608.6,51V28.61h-4.06a1.93,1.93,0,0,1-1.34-.51,1.91,1.91,0,0,1-.57-1.52V22.76l6.44-1.05,2-10.92a1.91,1.91,0,0,1,.72-1.21,2.26,2.26,0,0,1,1.42-.43h5v12.6h10.53v6.86H618.23V50.29a4.28,4.28,0,0,0,.94,2.93,3.18,3.18,0,0,0,2.5,1.05,4.68,4.68,0,0,0,1.5-.21,7.52,7.52,0,0,0,1.05-.45c.3-.16.57-.31.8-.45a1.35,1.35,0,0,1,.7-.21,1.1,1.1,0,0,1,.7.21,3,3,0,0,1,.59.65l2.88,4.68a14.55,14.55,0,0,1-4.83,2.65A18.26,18.26,0,0,1,619.4,62Z"/><path fill="#ffffff" d="M632.94,61.41v-40h5.89a2.36,2.36,0,0,1,2.45,1.75l.63,3a21.19,21.19,0,0,1,2.2-2.15,14.46,14.46,0,0,1,2.46-1.68,13.38,13.38,0,0,1,2.81-1.11,12.56,12.56,0,0,1,3.29-.41,9.31,9.31,0,0,1,6.22,2.05,12.31,12.31,0,0,1,3.65,5.44,12,12,0,0,1,2.34-3.41A12.66,12.66,0,0,1,668,22.53a14.32,14.32,0,0,1,3.57-1.33,17.43,17.43,0,0,1,3.8-.43,15.91,15.91,0,0,1,5.89,1,11.27,11.27,0,0,1,4.33,3,13.07,13.07,0,0,1,2.67,4.76,20.76,20.76,0,0,1,.91,6.43V61.41H679.5V35.94a8.61,8.61,0,0,0-1.67-5.75,6.16,6.16,0,0,0-4.92-1.93,7.31,7.31,0,0,0-2.75.51,6.42,6.42,0,0,0-3.72,3.86,9.19,9.19,0,0,0-.55,3.31V61.41h-9.67V35.94q0-4-1.62-5.85a6,6,0,0,0-4.78-1.83,7.72,7.72,0,0,0-3.88,1,13.19,13.19,0,0,0-3.37,2.83V61.41Z"/><path fill="#ffffff" d="M711.64,20.77a19.56,19.56,0,0,1,7,1.21,15.3,15.3,0,0,1,5.48,3.53,16.31,16.31,0,0,1,3.59,5.69A21.71,21.71,0,0,1,729,38.91a15,15,0,0,1-.09,1.81,2.94,2.94,0,0,1-.36,1.13,1.4,1.4,0,0,1-.68.59,3,3,0,0,1-1.09.17H702q.43,6.16,3.32,9A10.34,10.34,0,0,0,713,54.55a13.38,13.38,0,0,0,4-.55,18.52,18.52,0,0,0,3-1.21c.85-.44,1.59-.84,2.23-1.21A3.73,3.73,0,0,1,724,51a2,2,0,0,1,1,.23,2.22,2.22,0,0,1,.74.66l2.81,3.51A15.68,15.68,0,0,1,725,58.58a19.93,19.93,0,0,1-4.15,2,22.51,22.51,0,0,1-4.41,1.07,31.15,31.15,0,0,1-4.34.32,21.49,21.49,0,0,1-7.77-1.39,17.45,17.45,0,0,1-6.24-4.09,19.5,19.5,0,0,1-4.17-6.71,26.07,26.07,0,0,1-1.52-9.27,22,22,0,0,1,1.33-7.7,18.51,18.51,0,0,1,3.8-6.28,18,18,0,0,1,6-4.23A20,20,0,0,1,711.64,20.77Zm.19,6.91a8.93,8.93,0,0,0-6.59,2.37,11.79,11.79,0,0,0-3,6.75h18.09a12,12,0,0,0-.5-3.53,8.21,8.21,0,0,0-1.56-2.9,7.31,7.31,0,0,0-2.65-2A9.09,9.09,0,0,0,711.83,27.68Z"/><path fill="#ffffff" d="M733.28,61.41v-40h5.89a2.36,2.36,0,0,1,2.46,1.75l.66,3.16a21.69,21.69,0,0,1,2.56-2.26,17.68,17.68,0,0,1,2.84-1.76,14.79,14.79,0,0,1,3.22-1.13,16.84,16.84,0,0,1,3.74-.39,14.34,14.34,0,0,1,5.81,1.11A11.68,11.68,0,0,1,764.7,25a13.66,13.66,0,0,1,2.57,4.8,20.24,20.24,0,0,1,.88,6.14V61.41h-9.64V35.94a8.55,8.55,0,0,0-1.69-5.67,6.29,6.29,0,0,0-5.09-2,10,10,0,0,0-4.68,1.13,16.87,16.87,0,0,0-4.14,3.08V61.41Z"/><path fill="#ffffff" d="M787.26,62q-5.19,0-8-2.94T776.46,51V28.61H772.4a1.84,1.84,0,0,1-1.91-2V22.76l6.43-1.05,2-10.92a1.91,1.91,0,0,1,.72-1.21,2.27,2.27,0,0,1,1.43-.43h5v12.6h10.53v6.86H786.09V50.29a4.28,4.28,0,0,0,.93,2.93,3.2,3.2,0,0,0,2.5,1.05,4.59,4.59,0,0,0,1.5-.21,7,7,0,0,0,1.05-.45c.3-.16.57-.31.8-.45a1.38,1.38,0,0,1,.71-.21,1.12,1.12,0,0,1,.7.21,3.24,3.24,0,0,1,.58.65l2.89,4.68a14.69,14.69,0,0,1-4.84,2.65A18.2,18.2,0,0,1,787.26,62Z"/><path fill="#ffffff" d="M824.54,29.2a2.57,2.57,0,0,1-.82.87,2.09,2.09,0,0,1-1.09.26,3.42,3.42,0,0,1-1.5-.39l-1.85-.88a17.05,17.05,0,0,0-2.4-.88,11.52,11.52,0,0,0-3.18-.39A7.48,7.48,0,0,0,809.21,29a3.75,3.75,0,0,0-1.63,3.16,3,3,0,0,0,.83,2.16,7.57,7.57,0,0,0,2.23,1.55,21.77,21.77,0,0,0,3.14,1.18c1.17.36,2.36.74,3.58,1.16A37.2,37.2,0,0,1,821,39.63a12.36,12.36,0,0,1,3.14,2,8.85,8.85,0,0,1,3.06,7.08,13.33,13.33,0,0,1-1,5.32A11.71,11.71,0,0,1,823,58.27,14.41,14.41,0,0,1,818,61a21.73,21.73,0,0,1-6.85,1,21.5,21.5,0,0,1-4-.37,23.22,23.22,0,0,1-3.79-1A20.63,20.63,0,0,1,800,59.07a16.38,16.38,0,0,1-2.71-2l2.22-3.67a3.16,3.16,0,0,1,1-1,2.87,2.87,0,0,1,1.48-.35,3.13,3.13,0,0,1,1.7.51c.53.33,1.15.7,1.85,1.09A16.54,16.54,0,0,0,808,54.78a10.84,10.84,0,0,0,3.61.51,9.46,9.46,0,0,0,3-.41,6.31,6.31,0,0,0,2-1.07,3.94,3.94,0,0,0,1.17-1.55,4.51,4.51,0,0,0,.37-1.81,3.24,3.24,0,0,0-.83-2.3,7.23,7.23,0,0,0-2.23-1.56,21.17,21.17,0,0,0-3.16-1.19c-1.18-.35-2.39-.73-3.62-1.15a33.54,33.54,0,0,1-3.63-1.46,12.36,12.36,0,0,1-3.16-2.13,9.68,9.68,0,0,1-2.22-3.16,11,11,0,0,1-.84-4.52,11.51,11.51,0,0,1,1-4.68,11,11,0,0,1,2.87-3.88A14.14,14.14,0,0,1,807,21.77a19.44,19.44,0,0,1,6.53-1,20,20,0,0,1,7.53,1.37,16.8,16.8,0,0,1,5.65,3.59Z"/></svg>