<svg id="logo-dimond-center" class="logo" xmlns="http://www.w3.org/2000/svg" xmlns:xlink="http://www.w3.org/1999/xlink" viewBox="0 0 288 171"><defs><style>.cls-1,.cls-29,.cls-51{fill:#3f3420;}.cls-1,.cls-10,.cls-11,.cls-12,.cls-13,.cls-14,.cls-16,.cls-17,.cls-18,.cls-19,.cls-2,.cls-20,.cls-21,.cls-22,.cls-23,.cls-24,.cls-25,.cls-26,.cls-27,.cls-29,.cls-3,.cls-30,.cls-31,.cls-32,.cls-33,.cls-34,.cls-35,.cls-36,.cls-37,.cls-38,.cls-39,.cls-4,.cls-40,.cls-41,.cls-42,.cls-44,.cls-47,.cls-48,.cls-49,.cls-5,.cls-50,.cls-51,.cls-52,.cls-53,.cls-55,.cls-6,.cls-60,.cls-9{stroke:#231f20;}.cls-1,.cls-14,.cls-2,.cls-24,.cls-3{stroke-width:0.53px;}.cls-2{fill:#5e4620;}.cls-3,.cls-52{fill:#816133;}.cls-15,.cls-19,.cls-25,.cls-27,.cls-4,.cls-54,.cls-60{fill:#fff;}.cls-4{stroke-width:0.49px;}.cls-12,.cls-5{fill:#a97b5d;}.cls-5{stroke-width:0.29px;}.cls-10,.cls-11,.cls-13,.cls-18,.cls-28,.cls-31,.cls-33,.cls-6,.cls-9{fill:#231f20;}.cls-17,.cls-47,.cls-49,.cls-6{stroke-width:0.14px;}.cls-7{fill:url(#linear-gradient);}.cls-8{fill:#2d6558;}.cls-9{stroke-width:0.12px;}.cls-10{stroke-width:0.11px;}.cls-11,.cls-41{stroke-width:0.12px;}.cls-12,.cls-13,.cls-20,.cls-44,.cls-50,.cls-52{stroke-width:0.26px;}.cls-14{fill:url(#linear-gradient-2);}.cls-15{stroke:#fff;}.cls-15,.cls-34,.cls-48{stroke-width:0.13px;}.cls-16,.cls-20,.cls-24,.cls-42,.cls-47,.cls-53{fill:none;}.cls-16,.cls-27{stroke-width:1.58px;}.cls-17{fill:#964b36;}.cls-18{stroke-width:0.63px;}.cls-19,.cls-33,.cls-42{stroke-width:0.55px;}.cls-21,.cls-37,.cls-38{fill:#115884;}.cls-21{stroke-width:0.16px;}.cls-22{stroke-width:0.4px;fill:url(#linear-gradient-3);}.cls-23,.cls-26,.cls-30,.cls-32,.cls-39,.cls-40,.cls-41{fill:#816a44;}.cls-23{stroke-width:0.11px;}.cls-25{stroke-width:0.54px;}.cls-26{stroke-width:0.12px;}.cls-29{stroke-width:0.45px;}.cls-30,.cls-31{stroke-width:0.13px;}.cls-32{stroke-width:0.11px;}.cls-34,.cls-35,.cls-36{fill:#115784;}.cls-35{stroke-width:0.15px;}.cls-36,.cls-37{stroke-width:0.16px;}.cls-38{stroke-width:0.18px;}.cls-39{stroke-width:0.12px;}.cls-40{stroke-width:0.12px;}.cls-43{fill:#918a46;}.cls-44{fill:url(#linear-gradient-4);}.cls-45{fill:url(#linear-gradient-5);}.cls-46{fill:url(#linear-gradient-6);}.cls-48{fill:#3c688d;}.cls-49{fill:#848849;}.cls-50{fill:url(#linear-gradient-7);}.cls-51{stroke-width:0.44px;}.cls-53{stroke-width:0.24px;}.cls-55{stroke-width:0.69px;fill:url(#linear-gradient-8);}.cls-56{fill:url(#radial-gradient);}.cls-57{fill:url(#radial-gradient-2);}.cls-58{fill:url(#radial-gradient-3);}.cls-59{fill:#005488;}.cls-60{stroke-width:0.28px;}</style><linearGradient id="linear-gradient" x1="135.26" y1="29.55" x2="160.47" y2="29.55" gradientTransform="translate(-73.99 8.31) rotate(-1.98) scale(1.69)" gradientUnits="userSpaceOnUse"><stop offset="0.01" stop-color="#918a46"/><stop offset="0.4" stop-color="#928b48"/><stop offset="0.54" stop-color="#968f4f"/><stop offset="0.64" stop-color="#9d975a"/><stop offset="0.73" stop-color="#a7a26b"/><stop offset="0.8" stop-color="#b4b081"/><stop offset="0.86" stop-color="#c4c19d"/><stop offset="0.92" stop-color="#d8d5bd"/><stop offset="0.97" stop-color="#edece1"/><stop offset="1" stop-color="#fff"/></linearGradient><linearGradient id="linear-gradient-2" x1="89.91" y1="26.65" x2="115.2" y2="26.65" gradientTransform="translate(-73.99 8.31) rotate(-1.98) scale(1.69)" gradientUnits="userSpaceOnUse"><stop offset="0" stop-color="#2a3964"/><stop offset="0.39" stop-color="#2c3b65"/><stop offset="0.53" stop-color="#33416a"/><stop offset="0.62" stop-color="#3e4c73"/><stop offset="0.71" stop-color="#4f5c7f"/><stop offset="0.77" stop-color="#65708f"/><stop offset="0.83" stop-color="#8189a3"/><stop offset="0.89" stop-color="#a1a8bb"/><stop offset="0.94" stop-color="#c7cbd6"/><stop offset="0.99" stop-color="#f0f1f4"/><stop offset="1" stop-color="#fff"/></linearGradient><linearGradient id="linear-gradient-3" x1="113.1" y1="26.84" x2="138.54" y2="26.84" gradientTransform="translate(-73.99 8.31) rotate(-1.98) scale(1.69)" gradientUnits="userSpaceOnUse"><stop offset="0" stop-color="#a98f5e"/><stop offset="0.41" stop-color="#aa9060"/><stop offset="0.56" stop-color="#ae9567"/><stop offset="0.66" stop-color="#b49d72"/><stop offset="0.75" stop-color="#bda983"/><stop offset="0.82" stop-color="#c9b899"/><stop offset="0.88" stop-color="#d7cbb5"/><stop offset="0.94" stop-color="#e9e2d5"/><stop offset="0.99" stop-color="#fcfbf9"/><stop offset="1" stop-color="#fff"/></linearGradient><linearGradient id="linear-gradient-4" x1="142.02" y1="15.04" x2="150.02" y2="15.04" gradientTransform="translate(-73.99 8.31) rotate(-1.98) scale(1.69)" gradientUnits="userSpaceOnUse"><stop offset="0" stop-color="#d22957"/><stop offset="1" stop-color="#fff"/></linearGradient><linearGradient id="linear-gradient-5" x1="142.22" y1="13.46" x2="145.93" y2="13.46" xlink:href="#linear-gradient"/><linearGradient id="linear-gradient-6" x1="142.06" y1="16.47" x2="153.91" y2="16.47" xlink:href="#linear-gradient"/><linearGradient id="linear-gradient-7" x1="141.57" y1="22.59" x2="152.15" y2="22.59" xlink:href="#linear-gradient"/><linearGradient id="linear-gradient-8" x1="96.49" y1="32.76" x2="100.33" y2="32.76" gradientTransform="matrix(1.69, -0.06, 0.1, 2.88, -76.08, -47.34)" xlink:href="#linear-gradient-2"/><radialGradient id="radial-gradient" cx="57.31" cy="79.09" r="34.74" gradientUnits="userSpaceOnUse"><stop offset="0" stop-color="#fff"/><stop offset="1" stop-color="#005488"/></radialGradient><radialGradient id="radial-gradient-2" cx="228.45" cy="81.52" r="34.26" xlink:href="#radial-gradient"/><radialGradient id="radial-gradient-3" cx="132.54" cy="80.83" r="40.48" xlink:href="#radial-gradient"/></defs><title>Artboard 1</title><path class="cls-1" d="M36.12,64.81s4.14,4.1,17.1,8.4l23.91-4.06L94.61,73l5.46,8.69,4.07.31,17.32-5.67,29.47-3.56,20.83,2.54,8.56,6.23c5.35-.35,11-.77,16.69-1.31l6.58-1.72L233.66,74l.85.14c1.38-.41,2.67-.83,3.86-1.27a37.46,37.46,0,0,0,6.13-2.41l-.2-5.81s13.05-1.56,13.85-17.14c0,0-.21-1.16,2.07-1.54-.09-.72-.2-1.45-.36-2.21,0,0,.05-2-3.51-1.8,0,0-3-.84-2.69,2.55l.24,7.77s8,18.8-202.34,8.85H36.36S31.26,61.53,36.12,64.81Z"/><path class="cls-2" d="M258.15,47.54c-.8,15.58-13.85,17.14-13.85,17.14l.2,5.81c7-3.41,17.31-10.82,15.72-24.49C257.94,46.38,258.15,47.54,258.15,47.54Z"/><path class="cls-3" d="M81.52,60s-28.27-1.27-44.19.78c0,0-9.44,1.32,3.36,3.38,0,0,89.37,5.15,97.35,4.63,0,0,115.48,1.51,115.86-16.5,0,0-8.51,5.45-30,5.78C223.87,58.09,169.77,61.47,81.52,60Z"/><path class="cls-4" d="M118.11,31.25c0-1.8.83-3.23,1.71-3.2s1.56,1.51,1.5,3.3-.83,3.23-1.71,3.2S118,33,118.11,31.25Z"/><path class="cls-5" d="M195.06,36.8s.82.65.81.68c-.41,1.87-.79,3,.17,3.17s2.06-1.15,2.46-3a5.39,5.39,0,0,0,0-2.6C197.35,35.62,196.16,36.16,195.06,36.8Z"/><path class="cls-6" d="M167.25,30.57s-2-.51-5,2.72l.09.13s2.46-3,5.17-2.42Z"/><path class="cls-7" d="M162.16,51.61c-1.55,3.54,6.14-.35,6.14-.35,2.87-1.79,3.31,3.09,3.31,3.09-2.53,3.44-8.75,5.19-8.75,5.19-6.74,2.75-6.87-5.07-6.87-5.07.94-12.87,10.84-17.4,10.84-17.4l5.55,3,7.76-1.53L183,37.35s-.26.7,3.55,1.82c0,0,6.74,1.17,9.44-1.58l2.15,5.51a22.77,22.77,0,0,1-13.52,4.66s-.55,4.21,1.08,11.13c0,0-16.08,7.25-27.17,1.49"/><path class="cls-8" d="M161.44,42.7a4.17,4.17,0,0,1,2.34-1.4c2-.51,3.49.67,5.28,1.27a16.36,16.36,0,0,0,4.3.55c3.13.14,7.44.37,10.1-1.6,0,0-4.25,6.43-16.24,2.79,0,0-6.87-.88-6.84-.18Z"/><path class="cls-8" d="M158.27,48.12s2.81-3.74,7.65-.84c0,0,7,.47,9.48-.45l0,.4-7.36,1.24-2.64.37-2-.91-2.79.23-2.36.51Z"/><path class="cls-8" d="M157.31,56.38s1.54-8.57,5.46-5.33a16.24,16.24,0,0,0,5.63-.74s2.87-.23,1.92,2.51a2.85,2.85,0,0,0-1.78-2L166.62,52l-1.94.88-1.58.19-2.38-.6-2.26,2.92Z"/><path class="cls-8" d="M158.64,59.72c-.59-.09-.94-.51-.83-.84,0,0,4.52-2.67,7.65-.69,0,0,0-2.93,3.79-3.62l0-3.49s2.31.21,2.14,3.42C171.41,54.5,165.53,60.8,158.64,59.72Z"/><path class="cls-8" d="M183.78,47.09a4.48,4.48,0,0,1,4.32-.43s1.14-3.39,4.16-.84c0,0,3.58-5.29,5.76-2.71C198,43.11,190.15,49.24,183.78,47.09Z"/><path class="cls-8" d="M166.9,59.54s13.76-6.06,15.58-1.79C182.48,57.75,170,61,166.9,59.54Z"/><path class="cls-6" d="M167.05,23s-1-1.8-5.41-1.87l0,.15s3.85-.21,5.27,2.17Z"/><path class="cls-6" d="M167.17,24.42s-1-1.8-5.42-1.87l0,.15s3.85-.21,5.28,2.18Z"/><path class="cls-6" d="M167.35,25.58s-1.14-1.69-5.58-1.28l0,.16s3.8-.63,5.48,1.59Z"/><path class="cls-9" d="M162.15,25.6h0a.18.18,0,0,0-.17.14l0,.14a.18.18,0,0,0,.09.23c.07,0,.15-.06.18-.16l0-.13a.14.14,0,0,0,0-.09c.63-.09,3.86-.4,5.37,1.61l.13-.47S166.59,25.19,162.15,25.6Z"/><path class="cls-10" d="M161.71,26.89v0c-.06,0-.12.06-.16.15l0,.14c0,.1,0,.2.06.22s.15-.05.18-.15l0-.14a.2.2,0,0,0,0-.11c.59-.07,3.86-.4,5.38,1.61l.12-.47S166.14,26.48,161.71,26.89Z"/><path class="cls-11" d="M160.75,28.51v.07s0,0,0,0-.16.05-.18.15l0,.14a.16.16,0,0,0,.08.21c.07,0,.16-.05.18-.15l0-.13a.45.45,0,0,0,0-.11c.31-.11,3.66-1.27,5.65.47l0-.49S165,27.22,160.75,28.51Z"/><path class="cls-12" d="M179.34,30.4c1.87,3.15,1.45,6.87-.94,8.29s-5.86,0-7.73-3.14-1.45-6.88.93-8.29S177.46,27.24,179.34,30.4Z"/><polygon class="cls-13" points="168.19 31.27 170.05 34.13 174.96 29.8 168.19 31.27"/><path class="cls-6" d="M181.49,18a2.22,2.22,0,0,0-3-.9l-12.71,7.59a2.21,2.21,0,0,0-.64,3.05l.24.39a2.22,2.22,0,0,0,3,.9l12.71-7.58a2.21,2.21,0,0,0,.64-3.05Z"/><path class="cls-12" d="M141.56,31.93a2.12,2.12,0,0,1-2.05,2.18l-3.22.11a2.09,2.09,0,0,1-2.17-2L134.07,31a2.12,2.12,0,0,1,2-2.18l3.23-.11a2.11,2.11,0,0,1,2.18,2Z"/><path class="cls-14" d="M83.58,55.27l.27,3.85c-.09.32-.88.31-1,.53A1.1,1.1,0,0,0,83,60.81c1.32.32,2.33,1.51,3.53,1.74,17.19,3.33,23.73-2.76,23.73-2.76.35-1.3-1.77-10-1.77-10-.33-.9-.32-6.87-.32-6.87,7.4-.63,10.83-4,10.83-4,4.31-2,.5-5.54.5-5.54-1.83-2.36.12-2.88.12-2.88-1-.27-7,2.51-7,2.51a25.37,25.37,0,0,0-7.61-1.1l-14.49.8S76.53,37.28,80,51.15c0,0,4,9.25,11.58,2.56l5.77-4a7.11,7.11,0,0,1-3-4.81s-.53-2,.57-.79"/><path class="cls-15" d="M104.79,38.6l.82.61-1-.11,0,.12,1.19.13.05-.13-.94-.74Z"/><path class="cls-15" d="M105.63,36.7l.78.65-1-.16-.05.12,1.19.18.06-.13-.91-.78Z"/><path class="cls-15" d="M106.58,34.76l.88.8-.06.13-1.18-.22.06-.12,1,.19-.75-.67Z"/><line class="cls-16" x1="97.7" y1="45.86" x2="125.75" y2="23.78"/><path class="cls-4" d="M107.78,35c0-.06-.26-2.61,1.39-3.39l3.15-.11-.76.54.19.69-.68.8-.59.25.31,1.1Z"/><path class="cls-17" d="M140,13.07a2.22,2.22,0,0,0-3.08-.59L125,21.28a2.23,2.23,0,0,0-.33,3.1l.28.38a2.21,2.21,0,0,0,3.06.58l11.9-8.8a2.21,2.21,0,0,0,.33-3.1Z"/><path class="cls-12" d="M138.49,20.23a15.13,15.13,0,0,1,.84,1.54c1.93,4.11,1.49,8.16-1,9.05s-6-1.71-7.94-5.82l.31-3.37,1.79-2L135,18.12l2.82,1.43.69.68"/><path class="cls-12" d="M103.7,26.06c.17,5.11-3,9.36-7.07,9.51s-7.52-3.89-7.7-9,3-9.37,7.06-9.51S103.52,21,103.7,26.06Z"/><rect class="cls-18" x="88.71" y="19.1" width="9.34" height="5.03" transform="translate(6.98 63.1) rotate(-38.68)"/><path class="cls-19" d="M103.45,21.39c-3.52-5.77-9.69-8.44-13.79-5.94s-4.58,9.19-1.06,15,9.68,8.45,13.78,6S107,27.18,103.45,21.39Zm-2.64,11c-1.94,1.18-5.27-.75-7.45-4.33S91,20.66,93,19.48s5.28.75,7.45,4.32S102.75,31.23,100.81,32.41Z"/><line class="cls-20" x1="96.2" y1="24.58" x2="98.97" y2="27.96"/><path class="cls-21" d="M153.5,33.85c-.15-.3.13-.75.65-1s1-.22,1.2.09-.15.74-.66,1S153.63,34.15,153.5,33.85Z"/><line class="cls-20" x1="135.58" y1="22.79" x2="137.36" y2="26.1"/><path class="cls-22" d="M123.57,46.11c1.33,2.38,8.25-1.47,8.25-1.47,2.22,1,2,4.94,2,4.94l-7.35,4.87c-5.86,4-7.35-2.78-7.35-2.78-3.2-16.51,12.21-20.8,12.21-20.8s7.21,4.57,9.57.39l.86-2,4.73,4.91s3.31.88,10.43-2.93c0,0,1.79.2,3.11,4,0,0,1.72,2-.29,3,0,0-5.13,4.2-9.54,4.22l-2.71.29a44.24,44.24,0,0,0,.91,6.75,13.29,13.29,0,0,1,1.24,5.18l.11,3.53.73.46-1.09,2.81-16.08,1.94-10.89-2.13-.06-1.78.58-.42.08-3.16"/><path class="cls-23" d="M149.92,34.57l-.47-.36a5.63,5.63,0,0,1-2.29.25l.68.13,1.5.92c.16.09.4,0,.54-.29l0,0C150.07,34.93,150.07,34.65,149.92,34.57Z"/><path class="cls-23" d="M139.08,41.4c-.07-.16-.34-.2-.61-.09l-.05,0c-.27.11-.43.33-.37.49l.66,1.63c.07.16.34.21.61.09l.05,0c.27-.11.44-.33.37-.49Z"/><path class="cls-23" d="M140.75,40.48c-.06-.15-.33-.19-.6-.08h-.05c-.27.12-.43.33-.37.5l.66,1.63c.07.16.34.2.61.09l.05,0c.27-.11.43-.33.37-.49Z"/><path class="cls-23" d="M142.92,39.31c0-.17-.32-.21-.6-.1l0,0c-.26.12-.43.33-.36.49l.66,1.64c.06.16.33.2.61.09l0,0c.26-.11.43-.33.36-.49Z"/><path class="cls-23" d="M145,37.67c-.07-.15-.34-.2-.61-.09l0,0c-.27.11-.43.33-.37.49l.66,1.64c.07.15.34.2.61.08l.05,0c.27-.1.44-.32.38-.48Z"/><path class="cls-23" d="M146.65,36.21c-.07-.16-.33-.21-.61-.09l0,0c-.27.11-.45.32-.38.49l.67,1.63c.07.16.34.2.61.09l0,0c.26-.11.42-.33.35-.49Z"/><path class="cls-23" d="M147.7,34.39c-.07-.17-.36-.21-.6-.09l0,0c-.29.11-.45.32-.39.48l.66,1.64c.07.16.36.2.6.09l.06,0c.28-.11.44-.33.39-.49Z"/><path class="cls-21" d="M155.47,33.52a.78.78,0,0,0,0-.14.81.81,0,0,0-1.62.06,1,1,0,0,0,.08.29,1.26,1.26,0,0,0-.28,0,.81.81,0,0,0-.76.84.79.79,0,0,0,.82.77h.1a.72.72,0,0,0,.7.64.76.76,0,0,0,.67-.83.78.78,0,0,0-.13-.43.92.92,0,0,0,.36,0,.72.72,0,0,0,.78-.63C156.2,33.78,155.88,33.54,155.47,33.52Z"/><path class="cls-24" d="M94.08,43.94s-9.26,5.53-10.5,2.71"/><path class="cls-4" d="M119.73,30.27c.07-1.8.83-3.23,1.72-3.2s1.56,1.51,1.5,3.3-.83,3.23-1.72,3.2S119.67,32.06,119.73,30.27Z"/><path class="cls-25" d="M95.36,45.14c-.07-2,.67-3.61,1.65-3.65S98.84,43,98.91,45s-.68,3.61-1.66,3.64S95.42,47.12,95.36,45.14Z"/><path class="cls-26" d="M139.72,43.48l.69,11.35c0,.21.31,5.24,2.51,7.45l.75-.74c-1.92-1.92-2.21-6.73-2.21-6.77l-.7-11.36Z"/><line class="cls-27" x1="136.38" y1="45.29" x2="166.13" y2="27.86"/><rect class="cls-28" x="171.16" y="40.13" width="34.48" height="1.58" transform="translate(5.01 100.39) rotate(-30.22)"/><path class="cls-29" d="M110,58.46a.93.93,0,0,1,.43.67c.06,1.56-6.09,3-13.71,3.3s-13.86-.78-13.92-2.35c0-.28.2-.57.58-.84-1.65.64-2.59,1.38-2.57,2.14.07,2,7.18,3.46,15.87,3.16s15.7-2.2,15.62-4.25C112.31,59.6,111.47,59,110,58.46Z"/><path class="cls-12" d="M159.93,35.06l-.81-1.68-.22-.5a2.94,2.94,0,0,1,3.34-2.48s2,.74.62,2.14c0,0,.51,1.45-.42,2.18a5.83,5.83,0,0,0-1.86,1.83Z"/><polygon class="cls-30" points="140.76 35.27 137.53 36.59 137.38 33.58 140.34 32.98 140.76 35.27"/><polygon class="cls-31" points="140.64 34.57 137.51 36.08 137.46 34.48 140.35 33.51 140.64 34.57"/><path class="cls-32" d="M135.25,20.05c-2.79,2.55-4.45,2.55-4.46,2.55l0,1c.21,0,2.12,0,5.2-2.81a3.4,3.4,0,0,1,1.61-.77l-.08-1A3.8,3.8,0,0,0,135.25,20.05Z"/><path class="cls-13" d="M135.28,18.26s1.92,1.9,3.1,2.06l.13-.09c-2-3.19-5-5.06-7.1-4.28-2.44.88-2.88,4.89-1,9a5.65,5.65,0,0,0,1.34-2.9S135.41,19.54,135.28,18.26Z"/><path class="cls-33" d="M137.54,36.72l-.22-3c.13-1.66-4.4-4.86-4.4-4.86a6.34,6.34,0,0,0-2.49,2.39s4.71,2.74,6.48,2.55h.18"/><path class="cls-33" d="M140.34,32.82A15.87,15.87,0,0,0,142,29.56s.26-.79-1.41-1.9c0,0-.83,5.07.42,7.76"/><path class="cls-26" d="M135.78,52.05a2.92,2.92,0,0,1,1.67-1.25c.63-.2,1.31-.34,1.64-1a2.24,2.24,0,0,0,.07-1.49c-.28-.89-1.29-.87-.07-1.82.32-.26-.17-.53-.38-.53a1.87,1.87,0,0,0-1.46,1.13c-.14.68.58.73.89,1.13.52.69-.4,1.36-.87,1.72A3.54,3.54,0,0,0,135.78,52.05Z"/><path class="cls-26" d="M136.12,57.27A2.92,2.92,0,0,1,137.78,56c.63-.21,1.32-.34,1.64-1a2.21,2.21,0,0,0,.07-1.5c-.28-.89-1.3-.88-.07-1.82.33-.25-.17-.52-.37-.52a1.9,1.9,0,0,0-1.47,1.12c-.15.68.57.72.9,1.14.51.68-.41,1.35-.89,1.71A3.51,3.51,0,0,0,136.12,57.27Z"/><path class="cls-26" d="M137.24,61.21c0-.48-.2-1-.08-1.48.33-1.5,2.92-1.27,2.79-3a9.72,9.72,0,0,1,.21,1.1c-.08,1-.91,1.1-1.66,1.44A2.21,2.21,0,0,0,137.24,61.21Z"/><path class="cls-26" d="M134.31,46.83l-.64,1.22.49,7.9c0,.21.3,5.24,2.51,7.45l.74-.74c-1.91-1.92-2.19-6.72-2.2-6.77l-.7-11.35Z"/><path class="cls-34" d="M128.38,38.46a.6.6,0,0,0,.1-.32.62.62,0,0,0-.63-.58.63.63,0,0,0-.55.4.58.58,0,0,0-.51-.26.6.6,0,0,0,0,1.2l.12,0a.6.6,0,0,0-.31.54.61.61,0,1,0,1.21,0,.59.59,0,0,0,.51.28A.61.61,0,0,0,129,39,.6.6,0,0,0,128.38,38.46Z"/><path class="cls-34" d="M124.42,37.16a1.11,1.11,0,0,0,.16-.35c.07-.38-.11-.7-.4-.7a.68.68,0,0,0-.58.41.4.4,0,0,0-.38-.33c-.29,0-.59.29-.67.67s.11.68.4.69l.12,0a.87.87,0,0,0-.41.58c-.08.38.1.7.39.7a.77.77,0,0,0,.67-.65.41.41,0,0,0,.38.34.78.78,0,0,0,.67-.66C124.84,37.48,124.68,37.19,124.42,37.16Z"/><path class="cls-34" d="M133,39a.66.66,0,0,0,.09-.31.61.61,0,0,0-.63-.59.62.62,0,0,0-.54.4.6.6,0,1,0-.46,1l.12,0a.59.59,0,0,0,.31,1.12.6.6,0,0,0,.58-.61.63.63,0,0,0,.52.27.6.6,0,0,0,0-1.2Z"/><path class="cls-35" d="M137.76,38.85a.47.47,0,0,0,0-.35.72.72,0,0,0-1-.29.8.8,0,0,0-.53.63.79.79,0,0,0-.71,0,.71.71,0,0,0-.5.86.72.72,0,0,0,1,.3.48.48,0,0,0,.14-.09.65.65,0,0,0-.18.67.79.79,0,0,0,1.44-.56.87.87,0,0,0,.73,0,.72.72,0,0,0,.5-.87A.7.7,0,0,0,137.76,38.85Z"/><path class="cls-36" d="M142.34,38l.24-.09c.47-.19.93-.81.3-1.24a.72.72,0,0,0-1,.2.57.57,0,0,0-.23-.3.73.73,0,0,0-1,.25.76.76,0,0,0-.05.83A.77.77,0,0,0,140,38a.74.74,0,0,0,.13,1c.47.32,1-.1,1.21-.42A1.83,1.83,0,0,1,142.34,38Z"/><path class="cls-37" d="M145.26,34.51a.79.79,0,0,0-.82-.77.81.81,0,0,0-.77.65,1.1,1.1,0,0,0,0,.18.5.5,0,0,0,0,.13,1.24,1.24,0,0,0-.09.93s-.33.41-.07.71c0,0,.27.34.85-.19,0,0,1-.4.59-1A.77.77,0,0,0,145.26,34.51Z"/><path class="cls-37" d="M129.65,47.18a.48.48,0,0,0-.42,0,.73.73,0,0,0-.7-.43.75.75,0,0,0-.73.77.5.5,0,0,0,0,.12.77.77,0,0,0-.59.81.75.75,0,0,0,.73.78.7.7,0,0,0,.58-.39.3.3,0,0,0,.12.13c.28.14.72-.14,1-.63S129.92,47.33,129.65,47.18Z"/><path class="cls-38" d="M131.17,49.11c-.29-.15-.71.08-1,.53a.69.69,0,0,0-.6-.36.79.79,0,0,0-.67.87.94.94,0,0,0,0,.3,1.57,1.57,0,0,0-.26.19c-.49.42-.68,1-.43,1.27s.83.17,1.32-.25a1.66,1.66,0,0,0,.44-.58.36.36,0,0,0,.14.1c.33.17.83-.16,1.11-.74S131.51,49.26,131.17,49.11Z"/><path class="cls-21" d="M157.4,36.44a.57.57,0,0,0,0-.13.81.81,0,1,0-1.61,0,.94.94,0,0,0,.07.3.8.8,0,1,0-.21,1.57h.09a.75.75,0,0,0,.71.64.77.77,0,0,0,.67-.83.78.78,0,0,0-.13-.43,1.41,1.41,0,0,0,.35,0c.46,0,.79-.3.79-.63A.71.71,0,0,0,157.4,36.44Z"/><path class="cls-21" d="M156.54,40.11s-.19-.79,1.24-.54c0,0-.77-1.59.95-1.49,0,0,.46.13.21.49"/><path class="cls-30" d="M122.22,39.64a.47.47,0,0,0-.44-.52l0,0a.5.5,0,0,0-.61.31l-.49,2.31a.5.5,0,0,0,.43.52h.05a.48.48,0,0,0,.61-.3Z"/><path class="cls-39" d="M123.75,40.1c0-.21-.15-.42-.43-.48h-.06a.45.45,0,0,0-.59.26L122.22,42c0,.21.15.43.44.49h0a.48.48,0,0,0,.6-.26Z"/><path class="cls-26" d="M125.2,40.54c0-.21-.25-.37-.54-.37h0c-.3,0-.52.18-.52.38l0,2.09c0,.2.24.36.53.36h0c.29,0,.53-.18.52-.38Z"/><path class="cls-32" d="M127.2,41c0-.19-.23-.34-.52-.34h-.06c-.29,0-.53.15-.53.33v1.86c0,.18.23.33.53.33h0c.29,0,.53-.15.53-.33Z"/><path class="cls-40" d="M128.85,41.23c0-.19-.23-.34-.52-.34h-.06c-.29,0-.53.15-.53.35l0,1.94c0,.2.24.35.53.35h.06c.28,0,.52-.16.52-.35Z"/><path class="cls-32" d="M130.79,41.78c0-.19-.25-.32-.54-.31h-.05c-.3,0-.53.17-.52.35l.09,1.85c0,.18.25.31.54.3h.05c.29,0,.52-.18.52-.36Z"/><path class="cls-41" d="M132.54,41.9c0-.19-.25-.34-.54-.33H132c-.29,0-.52.16-.52.35l0,1.93c0,.18.24.33.53.32h.06c.28,0,.52-.16.51-.35Z"/><path class="cls-23" d="M134.34,42c0-.18-.23-.31-.53-.31h-.06c-.28,0-.52.14-.52.31v1.76c0,.18.24.32.52.32h.06c.3,0,.53-.14.53-.32Z"/><path class="cls-42" d="M121.05,38.87s6.16,3.31,16.51,2.85a21.05,21.05,0,0,0,9.53-7.32"/><path class="cls-5" d="M133.83,44.4c.41-1.87,1.52-3.22,2.46-3s1.41,1.89,1,3.76-1.51,3.22-2.46,3S133.44,46.26,133.83,44.4Z"/><path class="cls-5" d="M196.89,36.83c.4-1.87,1.5-3.23,2.46-3s1.4,1.9,1,3.76-1.51,3.22-2.47,3S196.49,38.69,196.89,36.83Z"/><path class="cls-28" d="M132.33,50.66s-.25-4.82-2.14-5.31l1.83-1s2.39,1,2.14,5.06Z"/><path class="cls-13" d="M155.5,31.9a1.15,1.15,0,0,1,1.43,1,34.72,34.72,0,0,0,2.26,4s.64.84.2,1.25c0,0,1.53-.29,1.08-2.2-.06-.25-1.13-3.48-2.89-4.68A2.25,2.25,0,0,0,155.5,31.9Z"/><path class="cls-29" d="M149.7,58.17a1,1,0,0,1,.42.67c.06,1.56-6.09,3-13.73,3.3s-13.85-.79-13.9-2.35c0-.28.19-.57.56-.84-1.63.64-2.58,1.38-2.56,2.14.07,2,7.18,3.46,15.88,3.16S152.07,62.05,152,60C152,59.3,151.12,58.68,149.7,58.17Z"/><path class="cls-43" d="M167.41,24a3.2,3.2,0,0,0-.55.45C167.23,24.42,167.6,24.4,167.41,24Z"/><path class="cls-12" d="M176.18,29.24s1.41-.44,2.61,3.56"/><path class="cls-44" d="M179.59,23.52a3.26,3.26,0,0,1-.4-.24l-1.29-.13a3.19,3.19,0,0,0-1.64-.79,3,3,0,0,0-2.14-.58s-.21-.24-1.25-.34c-.57,2.87-3.6,1.25-5.61,2.54-.47.31,0,0-.55.46h0l0,4.68A34.63,34.63,0,0,0,179.59,23.52Z"/><path class="cls-45" d="M167.26,24c2-1.29,5,.33,5.61-2.54a14.94,14.94,0,0,0-2.12,0,3.14,3.14,0,0,0-1.83-.45s-2.13-.43-2.21,1.14v2.3h0A2.59,2.59,0,0,1,167.26,24Z"/><path class="cls-46" d="M184.77,24.35s-.43.36-1-.27a.17.17,0,0,0-.06-.06s-.32-.37-2.12-.21a4.31,4.31,0,0,1-2-.29,34.63,34.63,0,0,1-12.92,5.6V30.8s-.24,1.06,1.46.73c0,0,13-2.4,17.72-5.57C185.85,26,187.81,25,184.77,24.35Z"/><path class="cls-28" d="M166.67,31l0-.65s16.7-4.64,15.67-6.59l1,.07.38.12.66.46.65-.06S183.68,27.2,166.67,31Z"/><path class="cls-28" d="M166.63,29.74a5.13,5.13,0,0,1,2.53-.91s11.48-3.41,11.76-5l-.8-.42-1-.11s-3.25,3.1-10.5,5a9.18,9.18,0,0,0-1.88.78Z"/><path class="cls-28" d="M166.8,24.47s2.35-1.47,3-.48c0,0,1.06,1.35,2.49-.46,0,0,1-1.87,2.52-1.73l-2.22-.37s-1.81,2.83-2.72,1.33C169.85,22.76,168.42,21.64,166.8,24.47Z"/><path class="cls-28" d="M175.35,21.93s.16,1.23-.06,1.42c0,0,.34.86-5.91,3.39,0,0-1.22.27-.46-.62,0,0,1,0,.9-.7,0,0,0-.79-1.28-.48a1.84,1.84,0,0,0-1.3,1.69s-.06,1.88,2.43.89c1-.41.89-.38,1.4-.61a19.35,19.35,0,0,0,5-2.87,2.84,2.84,0,0,1,1.83-.89,8.86,8.86,0,0,0-1.52-.92Z"/><path class="cls-47" d="M166.75,22.14l-.05,8.65s-.23,1.07,1.46.74c0,0,13-2.4,17.73-5.57.23-.15.58-.31.62-.61.08-.67-1.35-1-1.81-.94s-.7-.28-1.11-.49a4,4,0,0,0-2-.11,3.83,3.83,0,0,1-2.38-.53l-1.3-.13a3.14,3.14,0,0,0-1.63-.79,3.07,3.07,0,0,0-2.14-.58s-.47-.53-3.37-.33A3.19,3.19,0,0,0,169,21S166.83,20.57,166.75,22.14Z"/><path class="cls-48" d="M166.19,21c-.13-.35.23-.82.81-1s1.16-.12,1.3.24-.23.81-.82,1S166.32,21.37,166.19,21Z"/><path class="cls-49" d="M167.41,19.66a.68.68,0,0,1-1.33,0,.62.62,0,0,1,.65-.57A.61.61,0,0,1,167.41,19.66Z"/><path class="cls-48" d="M183.54,23.68a.62.62,0,0,1-.64.57.61.61,0,0,1-.69-.53c0-.3.27-.55.65-.57A.62.62,0,0,1,183.54,23.68Z"/><path class="cls-48" d="M176.75,22.14a.68.68,0,0,1-1.33,0,.61.61,0,0,1,.64-.57A.62.62,0,0,1,176.75,22.14Z"/><path class="cls-48" d="M180.72,23.23a.68.68,0,1,1-.68-.52A.61.61,0,0,1,180.72,23.23Z"/><path class="cls-20" d="M162,51.62c-1.55,3.53,6.12-.36,6.12-.36,2.88-1.78,3.33,3.1,3.33,3.1-2.54,3.43-8.76,5.18-8.76,5.18-6.73,2.75-6.87-5.06-6.87-5.06.94-12.87,10.84-17.41,10.84-17.41l5.55,3L180,38.57l2.89-1.22s-.26.71,3.55,1.83c0,0,6.75,1.16,9.44-1.58L198,43.11a22.84,22.84,0,0,1-13.51,4.66S184,52,185.59,58.89c0,0-16.08,7.26-27.17,1.5"/><path class="cls-50" d="M167.43,38.3s-2.44-1.3-.52-3c0,0,1.81-2.72,4-.51,0,0,5.74,6.87,8.63,1.83,0,0,1.15-2.62,2.77-2.23,0,0,1.77.17,1,3.08,0,0-.42,6.12-10.05,3.9A23.86,23.86,0,0,1,167.43,38.3Z"/><path class="cls-28" d="M181.9,42c-4.55,5.38-15.34,1.78-15.77,1.63a6.28,6.28,0,0,0-4.89-.92,4.68,4.68,0,0,0-2.94,2.57s0-.18.28-.28c-.14.37-.42,1.22-.42,1.22l.17-.21.11-.13a12.58,12.58,0,0,1,3.23-1.64,4.87,4.87,0,0,1,3.75.79l.07,0,.07,0c.51.17,12.44,4.29,17.69-2.25l.12-.15,0-.2a12.89,12.89,0,0,1,1.11-3.68l-1.3-.9A13.24,13.24,0,0,0,181.9,42Z"/><path class="cls-16" d="M187.28,39.29a12.72,12.72,0,0,0,.49,8.18"/><path class="cls-16" d="M192.89,45.92c-1.6-2-1.17-6.58-1.17-6.58"/><path class="cls-28" d="M169.85,47.77c-3.79.76-4.58.39-4.61.39l.22.3-.11-.15-.27-.28c-3.07-1.61-6.69-.24-7.77.23h0l-.33.17s0,.14.13.13c-.09.23-.36,1.18-.36,1.18l-.2.81,1.15-.73s3.72-1.83,6.57-.42c.53.45,1.93.72,5.91-.08,4.94-1.06,12.77-2.21,14.18-.67l.34-.71,1-.29C183.16,45.18,172,47.32,169.85,47.77Z"/><path class="cls-16" d="M157.14,58.67l.37-.2c-.64-2.63,4.26-6.1,4.26-6.1l.18.08"/><path class="cls-16" d="M165.64,58.4A7.4,7.4,0,0,1,164.26,53l0-.24"/><path class="cls-28" d="M171.19,53.06l.3,1.56a59.06,59.06,0,0,1,13-1.42l.08-.91-.27-.67A58.84,58.84,0,0,0,171.19,53.06Z"/><path class="cls-28" d="M163.35,59.12v.4l-3.74.85,3.72.33c13.17.24,21.57-2.59,21.91-2.71l-.52-1.5C184.63,56.52,176.22,59.35,163.35,59.12Z"/><path class="cls-51" d="M185.31,57c1.24.43,2,1,2,1.63.16,2-6.51,4.26-14.92,5s-15.35-.4-15.53-2.44a2,2,0,0,1,1-1.55l1,.41c.72,1.39,6.53,2,13.52,1.47,7.37-.61,13.24-2.37,13.11-3.93a.63.63,0,0,0-.07-.25"/><path class="cls-5" d="M171.52,49.75c.4-1.87,1.51-3.21,2.46-3s1.41,1.89,1,3.76-1.51,3.21-2.46,3S171.12,51.62,171.52,49.75Z"/><path class="cls-13" d="M205,29c-.34.38-.65.76-1,1.15l-.81,1.12a1.05,1.05,0,0,1-.2.27L201,32.76s.47.05,1.29.06a12.41,12.41,0,0,0-.6,1.15l2.06-1.18a2,2,0,0,1,.34,0l.34,0,.67-.06c.48-.05,1-.12,1.44-.2l.94-.2-2.1-3.61C205.21,28.79,205.08,28.91,205,29Z"/><path class="cls-52" d="M214.8,22.93a17.68,17.68,0,0,0-2.15.59,12.88,12.88,0,0,0-1.94.86A17.18,17.18,0,0,0,209,25.44c-.53.38-1,.77-1.54,1.19s-.9.8-1.33,1.22c-.27.26-.52.54-.77.81l2.1,3.61.61-.13c.56-.14,1.14-.3,1.7-.48s1.18-.41,1.77-.66a16.65,16.65,0,0,0,1.8-.88A14.47,14.47,0,0,0,215.05,29a14.25,14.25,0,0,0,1.63-1.46c.2-.2.38-.41.57-.62l-2.34-4Z"/><path class="cls-13" d="M219.59,22.42c-.39,0-.83,0-1.23.08l-1.22.1a22.17,22.17,0,0,0-2.23.32l2.34,4c.32-.37.64-.74.93-1.13.49-.64.95-1.29,1.41-1.94.11-.16.23-.33.33-.49a1.74,1.74,0,0,0,.27-.5v-.05C220.21,22.5,219.88,22.44,219.59,22.42Z"/><path class="cls-53" d="M213.13,27.39a1.86,1.86,0,1,1-1.93-1.79A1.86,1.86,0,0,1,213.13,27.39Z"/><path class="cls-28" d="M210.39,27.49a.89.89,0,0,1,1.77-.06.89.89,0,1,1-1.77.06Z"/><line class="cls-24" x1="211.21" y1="25.64" x2="211.33" y2="29.27"/><line class="cls-24" x1="209.46" y1="27.52" x2="213.09" y2="27.39"/><path class="cls-24" d="M107.39,32.38s-11.06,13.23.76,28.33"/><path class="cls-15" d="M107.09,58.15l1-.64.09.09-.52,1.08-.09-.08.45-.91-.85.55Z"/><path class="cls-15" d="M106,56.38l1.15-.35.07.1-.77.91-.08-.1.67-.76-1,.31Z"/><path class="cls-15" d="M105.24,54.43l1.19-.16,0,.12-.92.77L105.5,55l.79-.64-1,.15Z"/><path class="cls-15" d="M104.77,52.42l1.19,0,.05.12-1,.67,0-.12.85-.56-1,0Z"/><path class="cls-15" d="M104.25,50.38l1.2.06,0,.13-1,.59,0-.13.89-.48-1,0Z"/><path class="cls-15" d="M103.88,48.44l1,.07L104,49l0,.13,1.08-.53,0-.12-1.19-.14Z"/><path class="cls-15" d="M103.58,46.37l1,.15-.93.38V47l1.11-.47,0-.13-1.19-.18Z"/><path class="cls-15" d="M103.36,44.22l1.17.22,0,.14-1.13.43v-.12l1-.37-1-.17Z"/><path class="cls-24" d="M95.37,51c-.07.94-.8,7-8.2,11"/><path class="cls-15" d="M93.59,54.28l-.92-.77,0-.12,1.19.16,0,.12-1-.15.78.64Z"/><path class="cls-15" d="M92.61,56l-.81-.89.07-.11,1.16.32-.07.11-1-.28.69.74Z"/><path class="cls-15" d="M91.51,57.49l-.6-.82.93.41.09-.11-1.12-.46-.07.1.68,1Z"/><path class="cls-15" d="M90.05,59l-.56-1,.09-.09,1,.59-.09.09L89.65,58l.5.88Z"/><path class="cls-15" d="M88.53,60.27l-.44-1.12.11-.08,1,.71-.1.08-.82-.6.38.93Z"/><path class="cls-15" d="M87,61.28l-.3-1,.76.69.11-.07-.9-.8-.1.07.32,1.15Z"/><path class="cls-24" d="M84.94,35.46A14.49,14.49,0,0,1,93.8,44"/><path class="cls-15" d="M84.05,35.54l-.53.85,0-1-.13,0v1.2l.12,0,.66-1Z"/><path class="cls-15" d="M86.09,36.4l-.79.89-.12,0,.2-1.19.12.06-.17,1,.65-.77Z"/><path class="cls-15" d="M87.88,37.47l-.91.78-.11-.07L87.22,37l.1.08-.31,1,.76-.67Z"/><path class="cls-15" d="M89.5,38.77l-1,.65-.1-.08.5-1.09.1.09-.43.91.84-.57Z"/><path class="cls-15" d="M91,40.26l-1.09.52-.08-.09.64-1,.08.09-.55.86.91-.46Z"/><path class="cls-15" d="M92.19,41.92l-1.14.39L91,42.2l.75-.93.08.1-.65.78,1-.34Z"/><path class="cls-15" d="M93.17,43.6l-1,.22.73-.7L92.85,43l-.86.83.06.12,1.18-.25Z"/><path class="cls-28" d="M95.29,44.41s-1.21-1.71-1-.22c0,0,.65,3.16,1.45,3.65Z"/><path class="cls-4" d="M80.94,38.82s1.2-3.13,3.43-3.43c0,0,1.21-.22,3.31,1.14,0,0,1.17.53,1.44,1.21,0,0,.25.41-.86,1.09a4.5,4.5,0,0,0-2,1.61l-.15-.95a4,4,0,0,0-1.72.13l.24-.87a4.21,4.21,0,0,0-2,.6l0-1S81.16,38.37,80.94,38.82Z"/><path class="cls-54" d="M101,39.22c-.19-.9-.11-1.68.2-1.75s.71.62.9,1.52.11,1.68-.19,1.75S101.18,40.12,101,39.22Z"/><path class="cls-55" d="M96,40s0,.74.11,2"/><path class="cls-28" d="M91.69,20.06a.12.12,0,0,1,.12-.12.12.12,0,0,1,.13.12.12.12,0,0,1-.12.12A.12.12,0,0,1,91.69,20.06Z"/><path class="cls-28" d="M91.61,33.84a.12.12,0,0,1,.11-.12.12.12,0,0,1,.13.12.12.12,0,1,1-.24,0Z"/><path class="cls-28" d="M95.59,36.31a.12.12,0,0,1,.11-.13.12.12,0,0,1,.13.12.12.12,0,0,1-.11.12A.12.12,0,0,1,95.59,36.31Z"/><path class="cls-28" d="M99.26,36a.12.12,0,0,1,.12-.12.12.12,0,0,1,.13.12.13.13,0,0,1-.12.12A.13.13,0,0,1,99.26,36Z"/><path class="cls-28" d="M100.7,32.57a.12.12,0,0,1,.12-.12.12.12,0,0,1,.12.11.12.12,0,0,1-.11.13A.13.13,0,0,1,100.7,32.57Z"/><path class="cls-28" d="M100,22.37a.12.12,0,0,1,.12-.13.12.12,0,0,1,.12.12.13.13,0,0,1-.12.13A.13.13,0,0,1,100,22.37Z"/><path class="cls-28" d="M102.1,21.43a.11.11,0,0,1,.11-.12.11.11,0,0,1,.13.11.12.12,0,0,1-.12.13A.12.12,0,0,1,102.1,21.43Z"/><path class="cls-28" d="M95.7,15.71a.13.13,0,0,1,.12-.12.12.12,0,0,1,.13.11.12.12,0,0,1-.12.13A.13.13,0,0,1,95.7,15.71Z"/><path class="cls-28" d="M92.9,14.82a.12.12,0,0,1,.12-.13.11.11,0,0,1,.12.11.12.12,0,0,1-.12.13A.12.12,0,0,1,92.9,14.82Z"/><path class="cls-28" d="M105.27,29.34c0-.15,0-.28.09-.28s.1.12.11.27,0,.28-.1.28S105.28,29.49,105.27,29.34Z"/><path class="cls-54" d="M95.39,39.13c-.14-.92,0-1.69.31-1.74s.66.65.8,1.57,0,1.69-.3,1.73S95.54,40,95.39,39.13Z"/><path class="cls-56" d="M17.24,91.15A124.33,124.33,0,0,1,65,73.33a36.7,36.7,0,0,1,6-.52A32.66,32.66,0,0,1,90.77,79l5.75,4.54,8.41.18c0-.06,0-.11-.05-.18A17.79,17.79,0,0,0,95.66,71.1Q88.15,67,77.56,67a55.27,55.27,0,0,0-9.27.87c-22.37,4-41.84,11.72-58.61,23.26Z"/><path class="cls-57" d="M230.32,77.69q15.17,0,26.27,6.15c4.15,2.3,7.09,4.74,8.91,7.31h10.44a23.48,23.48,0,0,0-.6-2.59Q273,80.06,263.07,76t-24-4.08a96.35,96.35,0,0,0-12.27.87A268.27,268.27,0,0,0,181,82.89l2.74,3.53a205.5,205.5,0,0,1,38.73-8.21A61.93,61.93,0,0,1,230.32,77.69Z"/><path class="cls-58" d="M89.76,90.5c15.4-6.42,31.25-11.36,45.69-13a61.66,61.66,0,0,1,7.88-.52q15.18,0,26.28,6.15c4.19,2.32,7.15,4.79,9,7.39H189a24.88,24.88,0,0,0-.61-2.67Q186,79.32,176.08,75.25t-24-4.09a94.44,94.44,0,0,0-12.27.88c-20,2.7-42.85,9.81-63.75,18.46Z"/><path class="cls-59" d="M4.16,127.17l.23-1.38a8.06,8.06,0,0,0,1.9-.35,1.32,1.32,0,0,0,.77-.48,7,7,0,0,0,.57-2q.57-3.14,2.73-16.25a45.83,45.83,0,0,0,.75-5.85c0-.51-.15-.84-.46-1A10.33,10.33,0,0,0,7,99.48l.23-1.38q2.12.14,6.06.13l9.6-.19a17.38,17.38,0,0,1,7.39,1.27,9.36,9.36,0,0,1,4.07,3.81,12.12,12.12,0,0,1,1.46,6.15,18.48,18.48,0,0,1-2.28,9,16.59,16.59,0,0,1-14.84,8.79l-8-.06Q7.49,127,4.16,127.17Zm8.62-2.63,1.89.31a29,29,0,0,0,4.69.5,8.08,8.08,0,0,0,5.47-1.72,13.61,13.61,0,0,0,3.82-6.33A26.79,26.79,0,0,0,30,109.12a11.73,11.73,0,0,0-1.07-5.37,6.56,6.56,0,0,0-2.81-3,12.67,12.67,0,0,0-5.47-.88,18.66,18.66,0,0,0-3.81.37l-1.35,8-1.38,8.34Z"/><path class="cls-59" d="M38.18,113.16l-.5-1.12A74.11,74.11,0,0,1,44,107.72a6.56,6.56,0,0,1,2.59-.87,1.17,1.17,0,0,1,.92.43,1.75,1.75,0,0,1,.37,1.18,27.64,27.64,0,0,1-1.35,6l-.67,2.22a31.88,31.88,0,0,0-1.57,6.52c0,.46.2.7.59.7A13.68,13.68,0,0,0,48.44,122L49,123.1,44.71,126a13.5,13.5,0,0,1-2.6,1.36,3.3,3.3,0,0,1-1.13.23,1.46,1.46,0,0,1-1.21-.53,2.74,2.74,0,0,1-.42-1.7,15.83,15.83,0,0,1,.66-4l1.39-4.93a22.38,22.38,0,0,0,1.13-4.82q0-.54-.48-.54a2.53,2.53,0,0,0-1,.33A19.7,19.7,0,0,0,38.18,113.16Zm6.59-12.46a3.55,3.55,0,0,1,.83-2.49,2.68,2.68,0,0,1,2.1-.92,2.2,2.2,0,0,1,1.63.63A2.29,2.29,0,0,1,50,99.6a3.5,3.5,0,0,1-.81,2.38,2.64,2.64,0,0,1-2.09.94,2.21,2.21,0,0,1-1.66-.64A2.15,2.15,0,0,1,44.77,100.7Z"/><path class="cls-59" d="M51.61,127.54l-.42-.56.51-1.59c.3-.92.69-2.27,1.17-4q1-3.67,1.58-7a18,18,0,0,0,.33-2.46,2.11,2.11,0,0,0-.17-.93.4.4,0,0,0-.35-.18c-.52,0-1.6.69-3.23,2.06l-.62-1.06q3.54-2.7,4.49-3.35a11.93,11.93,0,0,1,2.46-1.32,3.38,3.38,0,0,1,1.15-.27,1.25,1.25,0,0,1,.92.36,1.22,1.22,0,0,1,.36.92,9.89,9.89,0,0,1-.25,1.76c-.43,2-.74,3.37-.93,4l-.85,3.68a28.88,28.88,0,0,1,5.66-7.3c2.56-2.26,4.59-3.4,6.11-3.4a1.43,1.43,0,0,1,1.09.44,1.78,1.78,0,0,1,.42,1.26,13.64,13.64,0,0,1-.4,2.59c-.74,2.69-1.33,4.82-1.76,6.41a26.65,26.65,0,0,1,4.26-6.06,17.84,17.84,0,0,1,4.45-3.5,8.19,8.19,0,0,1,3.54-1.14,1.37,1.37,0,0,1,1.13.52,2.65,2.65,0,0,1,.4,1.64,23.74,23.74,0,0,1-1,4.66l-.85,3.12c-.29,1-.62,2.55-1,4.58a18.44,18.44,0,0,0-.31,2c0,.5.16.75.47.75a1.27,1.27,0,0,0,.68-.28,19.84,19.84,0,0,0,2.52-1.76l.56,1-3.53,2.53a15.44,15.44,0,0,1-2.68,1.45,5.17,5.17,0,0,1-1.61.39,1.43,1.43,0,0,1-1.12-.49,2,2,0,0,1-.45-1.39,12,12,0,0,1,.4-2.49l2.25-9a12.82,12.82,0,0,0,.39-2.27,1.13,1.13,0,0,0-.19-.72.61.61,0,0,0-.49-.23,2.18,2.18,0,0,0-1,.31A11,11,0,0,0,73,113.51a19.26,19.26,0,0,0-2.67,3.7,25,25,0,0,0-2,5.05,24.34,24.34,0,0,0-1,4.72,27.6,27.6,0,0,0-4.43.56l-.49-.56q.48-1.2,2-6a61.06,61.06,0,0,0,1.48-6.07,24.56,24.56,0,0,0,.56-3.67,1.1,1.1,0,0,0-.21-.72.67.67,0,0,0-.55-.25,3.53,3.53,0,0,0-1.92.95,20,20,0,0,0-4,5.08A21.57,21.57,0,0,0,57.22,122a29.26,29.26,0,0,0-.95,4.75A18.11,18.11,0,0,0,51.61,127.54Z"/><path class="cls-59" d="M86,121.21a18.41,18.41,0,0,1,1.84-8,11,11,0,0,1,4.33-4.31,12,12,0,0,1,6.35-2,9.07,9.07,0,0,1,3.92.76,5,5,0,0,1,2.32,2.13,7.74,7.74,0,0,1,.74,3.64,16.54,16.54,0,0,1-1,5.68,11.81,11.81,0,0,1-2.41,4.23,17.08,17.08,0,0,1-4.9,3.24,10.9,10.9,0,0,1-4.6,1,6.83,6.83,0,0,1-5-1.58A6.41,6.41,0,0,1,86,121.21Zm4.94-.45a5.59,5.59,0,0,0,1,3.68,3.57,3.57,0,0,0,2.88,1.1,3.47,3.47,0,0,0,2.38-.93A10.45,10.45,0,0,0,99.57,120a22.81,22.81,0,0,0,1-6.74,5.24,5.24,0,0,0-1-3.5,3.36,3.36,0,0,0-2.67-1.13,3.9,3.9,0,0,0-2.65,1,8.61,8.61,0,0,0-2.07,3.93A25.08,25.08,0,0,0,91,120.76Z"/><path class="cls-59" d="M108.57,127.54l-.52-.54c.29-.74.53-1.43.72-2q1-3.37,1.39-4.74a51.73,51.73,0,0,0,1.17-5.19,26.38,26.38,0,0,0,.46-3.49c0-.41-.15-.61-.47-.61a2.38,2.38,0,0,0-.89.32,13.87,13.87,0,0,0-2.24,1.42l-.53-1.12,3.12-2.34a20,20,0,0,1,3.4-2,3.83,3.83,0,0,1,1.41-.31,1.23,1.23,0,0,1,.88.3,1.34,1.34,0,0,1,.3,1,8.42,8.42,0,0,1-.16,1.47c-.31,1.57-.64,3-1,4.34l-.86,3.11a36.13,36.13,0,0,1,2.2-3.35,28.53,28.53,0,0,1,3.66-3.78,16.33,16.33,0,0,1,3.74-2.5,5.32,5.32,0,0,1,2.15-.56,1.7,1.7,0,0,1,1.32.5,2,2,0,0,1,.45,1.42,28.44,28.44,0,0,1-1.26,5.82L126,118.37a19.37,19.37,0,0,0-.85,4.76c0,.52.16.79.48.79a2.47,2.47,0,0,0,1-.38,10.27,10.27,0,0,0,2-1.41l.52,1.22a50.09,50.09,0,0,1-5,3.28,6.39,6.39,0,0,1-2.82.91,1.32,1.32,0,0,1-1.14-.5,3.08,3.08,0,0,1-.37-1.74,17.24,17.24,0,0,1,.83-4.21l.66-2.3c.56-2,.9-3.4,1-4.06a18.16,18.16,0,0,0,.57-3.09.78.78,0,0,0-.22-.58.82.82,0,0,0-.59-.21c-.69,0-1.61.6-2.79,1.78a20.34,20.34,0,0,0-4,6,30.45,30.45,0,0,0-2.28,8.12A20.49,20.49,0,0,0,108.57,127.54Z"/><path class="cls-59" d="M151.31,122.1l.37,1.24-3.79,2.76a10.84,10.84,0,0,1-2.31,1.21,3.44,3.44,0,0,1-1.14.23,1.5,1.5,0,0,1-1.2-.56,2.21,2.21,0,0,1-.48-1.5,6.06,6.06,0,0,1,.1-1.12c.32-1.58.63-2.94.93-4.07l.92-3.32a26.47,26.47,0,0,1-6.4,8.13q-2.88,2.45-4.68,2.44a2.19,2.19,0,0,1-1.86-1,5.89,5.89,0,0,1-.74-3.35,21.46,21.46,0,0,1,.78-5.36,21.12,21.12,0,0,1,2-5.18,6.07,6.07,0,0,1,1.74-2,28.31,28.31,0,0,1,5.05-3.14,7.25,7.25,0,0,1,3-.6,10.48,10.48,0,0,1,2.67.46l.71-4.54c.24-1.5.36-2.35.36-2.56a.82.82,0,0,0-.4-.75,3.3,3.3,0,0,0-1.58-.25c-.46,0-1,0-1.64,0L144,98a28.06,28.06,0,0,0,8.78-1.88l.55.4c-.46,1.74-1,3.87-1.51,6.39l-3.57,17a18.77,18.77,0,0,0-.49,3.48c0,.47.15.7.45.7S149.58,123.39,151.31,122.1Zm-5.58-12.34a6.83,6.83,0,0,0-3.52-.91,3.6,3.6,0,0,0-2.51.7c-.68.67-1.47,2.47-2.37,5.42a26.82,26.82,0,0,0-1.36,7.77,1.6,1.6,0,0,0,.24,1,.71.71,0,0,0,.6.31,2.39,2.39,0,0,0,1.15-.45,10.9,10.9,0,0,0,2.67-2.56,26,26,0,0,0,3.07-4.81,20.23,20.23,0,0,0,1.64-4.64Z"/><path class="cls-59" d="M188.25,121.94l-.5,1.63a51.3,51.3,0,0,1-4.92,2.65,16.21,16.21,0,0,1-3.21,1,18,18,0,0,1-3.57.34c-3.75,0-6.64-1-8.65-2.93s-3-4.74-3-8.36a18.77,18.77,0,0,1,2.26-9.42,17.57,17.57,0,0,1,6.75-6.57,18.46,18.46,0,0,1,9.37-2.59,17.89,17.89,0,0,1,4.52.55,12.36,12.36,0,0,1,3.48,1.38,35.76,35.76,0,0,0-1.57,6.94h-1.5a11.8,11.8,0,0,0,.11-1.51c0-.55-.06-1.42-.17-2.61a9.49,9.49,0,0,0-3-1.57,13,13,0,0,0-3.81-.5,8.44,8.44,0,0,0-9,6.21,25.14,25.14,0,0,0-1.64,9.23c0,3,.72,5.32,2.14,6.82a8.05,8.05,0,0,0,6.14,2.24,13.45,13.45,0,0,0,4.3-.7,22.36,22.36,0,0,0,5-2.59Z"/><path class="cls-59" d="M206.33,122l.46,1.13-3.52,2.24a20.72,20.72,0,0,1-3.71,1.71,9,9,0,0,1-2.76.49,5.42,5.42,0,0,1-3.9-1.32,5.1,5.1,0,0,1-1.37-3.82,22.6,22.6,0,0,1,1.22-6.75,11.35,11.35,0,0,1,2.34-4.32,18.91,18.91,0,0,1,5-3.44,8.78,8.78,0,0,1,4.05-1,4.38,4.38,0,0,1,3,.94,3.14,3.14,0,0,1,1.08,2.48,6.08,6.08,0,0,1-1.07,3.45,9.41,9.41,0,0,1-3.81,2.9,24.86,24.86,0,0,1-6.75,1.95,10,10,0,0,0-.44,2.81,2.92,2.92,0,0,0,3.24,3.29,9.35,9.35,0,0,0,3-.68A20,20,0,0,0,206.33,122Zm-9.57-4.53a18.66,18.66,0,0,0,4.5-1.68,6.42,6.42,0,0,0,2.11-2.29,5.54,5.54,0,0,0,.85-2.65,1.91,1.91,0,0,0-.56-1.43,2,2,0,0,0-1.49-.54,3.33,3.33,0,0,0-1.95.67,5.76,5.76,0,0,0-1.73,2.33A30.61,30.61,0,0,0,196.76,117.44Z"/><path class="cls-59" d="M209.74,127.54l-.52-.54c.29-.74.53-1.43.73-2q1-3.37,1.38-4.74A49.11,49.11,0,0,0,212.5,115a27.06,27.06,0,0,0,.47-3.49c0-.41-.16-.61-.48-.61a2.44,2.44,0,0,0-.89.32,13.76,13.76,0,0,0-2.23,1.42l-.54-1.12L212,109.2a20,20,0,0,1,3.39-2,3.84,3.84,0,0,1,1.42-.31,1.25,1.25,0,0,1,.88.3,1.34,1.34,0,0,1,.3,1,8.59,8.59,0,0,1-.17,1.47c-.3,1.57-.64,3-1,4.34l-.85,3.11a39.3,39.3,0,0,1,2.19-3.35,28,28,0,0,1,3.67-3.78,16.51,16.51,0,0,1,3.73-2.5,5.32,5.32,0,0,1,2.15-.56,1.7,1.7,0,0,1,1.32.5,2,2,0,0,1,.46,1.42,28.44,28.44,0,0,1-1.26,5.82l-1.05,3.78a18.9,18.9,0,0,0-.85,4.76c0,.52.16.79.47.79a2.5,2.5,0,0,0,1-.38,10.89,10.89,0,0,0,2-1.41l.51,1.22a51.65,51.65,0,0,1-4.94,3.28,6.43,6.43,0,0,1-2.82.91,1.32,1.32,0,0,1-1.14-.5,3,3,0,0,1-.37-1.74,16.77,16.77,0,0,1,.83-4.21l.66-2.3c.56-2,.9-3.4,1-4.06a18.84,18.84,0,0,0,.56-3.09.75.75,0,0,0-.22-.58.8.8,0,0,0-.59-.21c-.68,0-1.61.6-2.79,1.78a20.34,20.34,0,0,0-4,6,30.45,30.45,0,0,0-2.28,8.12A20.6,20.6,0,0,0,209.74,127.54Z"/><path class="cls-59" d="M244.76,121.38l.5,1.16-3.11,2.28a23.75,23.75,0,0,1-3.66,2.18,5.68,5.68,0,0,1-2.1.54,2.2,2.2,0,0,1-1.7-.7,2.88,2.88,0,0,1-.64-2,8.4,8.4,0,0,1,.18-1.6q.17-.9,1.73-7.7,1-4.53,1.23-5.76h-4.61l.29-1.14a47.23,47.23,0,0,0,4.91-1.36,40,40,0,0,0,.76-5.78q2.22-.58,5.22-1.66l.43.5c-.7,2.43-1.35,4.86-1.95,7.32h2.13c1.55,0,2.75,0,3.62-.07l.17.16-.29,1a6.2,6.2,0,0,0-.27,1.26c-1.22-.11-2.42-.17-3.62-.17h-2.22c-.47,1.61-1.08,4.25-1.84,7.9A38.26,38.26,0,0,0,239,123a1.17,1.17,0,0,0,.29.84,1,1,0,0,0,.72.3,3.29,3.29,0,0,0,1.54-.5A16.42,16.42,0,0,0,244.76,121.38Z"/><path class="cls-59" d="M262.56,122l.45,1.13-3.51,2.24a20.72,20.72,0,0,1-3.71,1.71,9,9,0,0,1-2.76.49,5.42,5.42,0,0,1-3.9-1.32,5.06,5.06,0,0,1-1.37-3.82,22.6,22.6,0,0,1,1.22-6.75,11.35,11.35,0,0,1,2.34-4.32,18.91,18.91,0,0,1,5-3.44,8.78,8.78,0,0,1,4.05-1,4.38,4.38,0,0,1,3,.94,3.17,3.17,0,0,1,1.07,2.48,6.07,6.07,0,0,1-1.06,3.45,9.41,9.41,0,0,1-3.81,2.9,24.86,24.86,0,0,1-6.75,1.95,10,10,0,0,0-.44,2.81,2.91,2.91,0,0,0,3.23,3.29,9.34,9.34,0,0,0,3-.68A20,20,0,0,0,262.56,122ZM253,117.44a18.66,18.66,0,0,0,4.5-1.68,6.42,6.42,0,0,0,2.11-2.29,5.51,5.51,0,0,0,.84-2.65,1.91,1.91,0,0,0-.55-1.43,2,2,0,0,0-1.49-.54,3.38,3.38,0,0,0-2,.67,6,6,0,0,0-1.73,2.33A31.62,31.62,0,0,0,253,117.44Z"/><path class="cls-59" d="M266.52,127.54l-.46-.48c.76-2.45,1.45-5,2.09-7.66.33-1.37.63-3,.91-4.8a22.36,22.36,0,0,0,.26-2.77,1.72,1.72,0,0,0-.12-.77.38.38,0,0,0-.33-.21,2.26,2.26,0,0,0-.95.34,13.35,13.35,0,0,0-2.24,1.49l-.5-1.14q6-4.68,7.81-4.69a1.09,1.09,0,0,1,.86.41,1.67,1.67,0,0,1,.34,1.12,47.54,47.54,0,0,1-1.51,7.07l-.27,1.09h.27a38.47,38.47,0,0,1,3.15-6,11.33,11.33,0,0,1,2.79-3.18,3.84,3.84,0,0,1,2.06-.54,3.68,3.68,0,0,1,1.14.19,21.88,21.88,0,0,0-.94,5.73l-.48.29a3.21,3.21,0,0,0-2.19-.89c-1.25,0-2.38.83-3.4,2.5q-2.65,4.29-3.74,12A32.34,32.34,0,0,0,266.52,127.54Z"/><path class="cls-59" d="M50.82,150v3c0,.52,0,1.12.06,1.82,0,1,.08,1.52.1,1.63a.65.65,0,0,0,.31.31,1.73,1.73,0,0,0,.87.17h.73v.68c-.93,0-1.83-.06-2.69-.06s-2,0-3.6.06v-.68h.67q1.11,0,1.32-.39a14.78,14.78,0,0,0,.2-3.49V146.6a11.94,11.94,0,0,0-.21-3.19c-.13-.25-.53-.38-1.19-.38H46.6v-.69q1.77.06,3.3.06c1,0,2,0,3-.06V143h-.46a2.68,2.68,0,0,0-1.23.16.7.7,0,0,0-.29.53,26.1,26.1,0,0,0-.09,2.86V149c1.27,0,2.89.06,4.85.06,1.67,0,3,0,4.06-.06v-2.09a29.41,29.41,0,0,0-.13-3.08.86.86,0,0,0-.29-.64,1.73,1.73,0,0,0-1-.19h-.77v-.69c1.09,0,2.13.06,3.11.06s2.16,0,3.3-.06V143h-.81a1.93,1.93,0,0,0-1,.18.91.91,0,0,0-.28.67c0,.33-.05,1.35-.05,3.07v5.93a16.52,16.52,0,0,0,.19,3.67q.18.39,1.17.39H64v.68c-1,0-2-.06-3.05-.06s-2.32,0-3.36.06v-.68h.74a1.89,1.89,0,0,0,1-.19,1,1,0,0,0,.29-.71q.12-1.11.12-3.24V150c-1,0-2.29-.06-3.85-.06C53.65,149.94,52,150,50.82,150Z"/><path class="cls-59" d="M92.19,150a7.49,7.49,0,0,1,2.28-5.7,8.43,8.43,0,0,1,6.06-2.16,8.11,8.11,0,0,1,5.83,2,7,7,0,0,1,2.11,5.32,8.08,8.08,0,0,1-2.45,6,8.45,8.45,0,0,1-6.17,2.4,8.07,8.07,0,0,1-4-.94,6.71,6.71,0,0,1-2.66-2.77A8.51,8.51,0,0,1,92.19,150Zm2.19-.88a9.9,9.9,0,0,0,.83,4.22A6.18,6.18,0,0,0,97.43,156a5.74,5.74,0,0,0,3.19.89,5.43,5.43,0,0,0,2.9-.76,5.17,5.17,0,0,0,2-2.27,9.93,9.93,0,0,0-.08-7.57,5.5,5.5,0,0,0-2.16-2.42,6.18,6.18,0,0,0-3.25-.82,5.76,5.76,0,0,0-2.95.72,5,5,0,0,0-2,2.11A7,7,0,0,0,94.38,149.1Z"/><path class="cls-59" d="M144.16,143.31c-.08,1.07-.11,2.21-.11,3.39v6.12a18.81,18.81,0,0,0,.17,3.77c.11.23.52.35,1.21.35h.8v.68q-1.89-.06-3.21-.06c-.89,0-2,0-3.19.06v-.68h.89a1.54,1.54,0,0,0,.92-.19,1.17,1.17,0,0,0,.27-.74c.07-.84.1-1.92.1-3.24v-6.13c0-1.21,0-2.32-.07-3.33h-1.1a14.92,14.92,0,0,0-2.92.13c-.17.08-.29.4-.35,1l-.15,1.44h-.69l0-1.28c0-.51,0-1.25-.11-2.22l6.83.06,5.95-.06c-.14,1.21-.23,2.38-.25,3.5h-.69l-.1-1.41a2.09,2.09,0,0,0-.19-.87.77.77,0,0,0-.52-.16q-1.17-.09-2.67-.09Z"/><path class="cls-59" d="M181.9,150.32v4.19q0,1.44,0,2.1c1.05.08,2.17.12,3.37.12a16.22,16.22,0,0,0,2-.11,5.24,5.24,0,0,0,1.12-.28c.18-.63.36-1.42.55-2.36h.71a30.72,30.72,0,0,0-.3,3.11l0,.48c-.82.06-1.63.1-2.42.1l-1.68,0c-1.86,0-3.23-.07-4.1-.07s-1.94,0-3.33.06V157h.33a2.34,2.34,0,0,0,1.18-.19,1.29,1.29,0,0,0,.32-.85c.05-.45.08-1.45.08-3V147c0-1,0-1.75-.07-2.37a5.42,5.42,0,0,0-.15-1.1.62.62,0,0,0-.23-.27,2.8,2.8,0,0,0-.92-.17l-.82-.09v-.69h1.16l1.13,0,1.45,0,4.11-.06h1.95c.66,0,1.33,0,2,.07a11.91,11.91,0,0,0-.43,3.28h-.72a13.37,13.37,0,0,0-.12-2,9.17,9.17,0,0,0-3.13-.47c-1,0-2,0-3.09.13,0,.68,0,1.36,0,2l0,1.67v2.2c.71,0,1.34.06,1.88.06a11.55,11.55,0,0,0,2.91-.18c.22-.12.34-.49.34-1.11v-.71h.72c-.06,1.09-.08,2-.08,2.61s0,1.49.08,2.42H187v-.62c0-.69-.14-1.11-.41-1.27a9.28,9.28,0,0,0-2.85-.23C183.17,150.26,182.55,150.28,181.9,150.32Z"/><path class="cls-59" d="M222.52,156.57c.71,0,1.39.05,2.06.05,1.34,0,2.4,0,3.16-.1a11.47,11.47,0,0,0,1.64-.31l.64-2.52h.69c-.17,1.36-.31,2.63-.4,3.81a18.28,18.28,0,0,1-2.65.15l-5.11-.09c-.69,0-1.76,0-3.21.13v-.54c.56-.25.9-.52,1-.8a19.36,19.36,0,0,0,.15-3.42V147a20.53,20.53,0,0,0-.15-3.61c-.1-.25-.39-.37-.87-.37h-1.16v-.69l3.38.06c.74,0,1.75,0,3-.06V143h-1.32q-.57,0-.72.33a12.75,12.75,0,0,0-.15,2.72v6.83l0,3Z"/><path class="cls-60" d="M98.92,30.42a1.27,1.27,0,1,1-1.26-1.26A1.27,1.27,0,0,1,98.92,30.42Z"/><path class="cls-28" d="M98.1,30.42a.45.45,0,1,1-.44-.44A.45.45,0,0,1,98.1,30.42Z"/></svg>