<svg xmlns="http://www.w3.org/2000/svg" id="deblend-logo" class="logo" viewBox="0 0 490.7 114.84"><path d="M104.84,3.27,77,3.39l.09,22.79L73.43,20.9A36,36,0,0,0,59.88,9a30.76,30.76,0,0,0-7.75-2.6A29.28,29.28,0,0,0,44.2,6a31,31,0,0,0-22,12.54,42.76,42.76,0,0,0-6.85,14,58.8,58.8,0,0,0-2.19,17.85l29.68-.12,0-11.16a5.75,5.75,0,0,1,2.89-5.29,6.49,6.49,0,0,1,7.18.9A7.17,7.17,0,0,1,55.31,41c-.35,3.9-2.92,7.89-5.29,10.9C35.08,70.69,20.14,90.1,6.3,109.7l120.5-.51-.11-24.57-21.58.08Z" style="fill:#fffef2;fill-rule:evenodd"/><path d="M60.11,9c9,4,13.08,11.71,16.87,16.53l-.21-22.4,28.42-.32V25.28c-36.45,12.92-39.63-1.08-62,3.27C28,31.49,17.71,45.47,12.9,50.86,9.71,22.64,27.53,8.07,43.46,5.63c6-.93,12.15,1.42,16.65,3.39" style="fill:#d71920;fill-rule:evenodd"/><path d="M5.33,110.31l121.92-.62-.12-25.95-21.73.09-.29-21.52c-24-3.13-56.77,8.26-80.43,21.46Z" style="fill:#1e398d;fill-rule:evenodd"/><polygon points="74.09 68.57 74.47 83.98 62.77 83.9 74.09 68.57" style="fill:#fffef9;fill-rule:evenodd"/><path d="M73.93,83.55l-.07-14.23L63.27,83.59Zm32.43-.13,21.6-.1.11,27.16L3.79,111C18.17,90.5,33.41,70.72,49,51.12c2.2-2.75,4.7-6.57,5-10.19a6,6,0,0,0-2-5.29,5.24,5.24,0,0,0-5.74-.75,4.47,4.47,0,0,0-2.22,4.16l0,12.33-32.2.13h0a63.4,63.4,0,0,1,2.21-19.39,43.7,43.7,0,0,1,7.06-14.37A32.22,32.22,0,0,1,44.07,4.69a30.65,30.65,0,0,1,8.28.43,31.89,31.89,0,0,1,8.08,2.7A37.41,37.41,0,0,1,74.48,20.17L75.77,22,75.7,2.1,106.1,2Zm-31.2,1.41-14.45.06L75.08,65.52ZM104.82,3.27,77,3.39l.09,22.79L73.42,20.9A36.07,36.07,0,0,0,59.86,9a30.63,30.63,0,0,0-7.75-2.6A29.28,29.28,0,0,0,44.18,6a31,31,0,0,0-22,12.54,42.54,42.54,0,0,0-6.84,14,58.52,58.52,0,0,0-2.19,17.85l29.68-.12,0-11.16a5.74,5.74,0,0,1,2.88-5.29,6.51,6.51,0,0,1,7.19.9A7.16,7.16,0,0,1,55.29,41c-.35,3.9-2.91,7.89-5.29,10.9C35.06,70.69,20.12,90.1,6.28,109.7l120.5-.51-.1-24.57-21.58.08Z" style="fill:#959292;fill-rule:evenodd"/><path d="M0,113l2.18-3.11c12-17,25.17-34.6,42.54-56.52L10,53.47,10,51.56a65.26,65.26,0,0,1,2.29-20,45.7,45.7,0,0,1,7.39-15A34.12,34.12,0,0,1,43.9,2.73a32.91,32.91,0,0,1,8.82.46A33.73,33.73,0,0,1,61.3,6.06,38,38,0,0,1,73.79,16L73.73.15,108.06,0l.26,81.45,21.6-.1.12,31.09ZM48.55,32.38a7.5,7.5,0,0,1,4.78,1.76,7.92,7.92,0,0,1,2.65,7c-.31,3.31-2.14,7.1-5.45,11.25C32.93,74.47,19.56,92.11,7.59,109l118.5-.49L126,85.3l-21.59.1L104.14,4l-26.47.11.09,24.28-4.9-7A35,35,0,0,0,59.57,9.59,29.22,29.22,0,0,0,52,7.06a28.28,28.28,0,0,0-7.75-.41A30.21,30.21,0,0,0,22.76,18.93,41.59,41.59,0,0,0,16,32.67a60.15,60.15,0,0,0-2.17,16.86l28.31-.11V39.05a6.39,6.39,0,0,1,3.24-5.89A6.57,6.57,0,0,1,48.55,32.38Zm0,3.93a2.74,2.74,0,0,0-1.28.3A2.49,2.49,0,0,0,46.08,39l0,12.57,1.35-1.7c2.79-3.5,4.38-6.66,4.61-9.15a4,4,0,0,0-1.26-3.6A3.57,3.57,0,0,0,48.55,36.31Z" style="fill:#959292"/><path d="M60.55,85,75.21,65.21l.09,19.71Zm12-11.54L66,82.21l6.56,0Z" style="fill:#959292"/><path d="M151.63,38.86h22.92a22.64,22.64,0,0,1,11.41,3A31.91,31.91,0,0,1,195.28,50a39.41,39.41,0,0,1,6.28,11.79,44.65,44.65,0,0,1,0,28.11,39.35,39.35,0,0,1-6.24,11.85,31.78,31.78,0,0,1-9.32,8.16,22.81,22.81,0,0,1-11.49,3H151.63Zm15.49,57.8h3.55a15.88,15.88,0,0,0,7.19-1.58,15.36,15.36,0,0,0,5.34-4.32,19.56,19.56,0,0,0,3.31-6.54,28.32,28.32,0,0,0,1.15-8.3,27.86,27.86,0,0,0-1.19-8.26,20.21,20.21,0,0,0-3.35-6.58,15.5,15.5,0,0,0-5.34-4.33,15.68,15.68,0,0,0-7.11-1.57h-3.55Z" style="fill:#959292"/><path d="M221.31,90.76q0,11.51,8.69,11.5,4.67,0,7-4.72h13.83q-4.19,17.31-20.94,17.3a22.83,22.83,0,0,1-9.4-1.91,20.68,20.68,0,0,1-7.3-5.46A25.24,25.24,0,0,1,208.51,99a34.5,34.5,0,0,1-1.65-11,37.79,37.79,0,0,1,1.58-11.35,25,25,0,0,1,4.5-8.61A20,20,0,0,1,220,62.6a22,22,0,0,1,9.36-1.92,21.57,21.57,0,0,1,9.24,1.92,18.93,18.93,0,0,1,7,5.55,25.86,25.86,0,0,1,4.34,8.9,43.12,43.12,0,0,1,1.5,11.84v1.87Zm16.75-10.32a11.4,11.4,0,0,0-2.92-6,7.28,7.28,0,0,0-5.37-2.26,7.19,7.19,0,0,0-5.42,2.17,10.66,10.66,0,0,0-2.64,6.09Z" style="fill:#959292"/><path d="M279.85,38.86h23.07q8.22,0,12.48,4.92t4.27,14.15a23.16,23.16,0,0,1-1.62,9.29,15.8,15.8,0,0,1-4.94,6.24,16.64,16.64,0,0,1,5.65,2.41,13.43,13.43,0,0,1,3.79,4,16.6,16.6,0,0,1,2.09,5.31,29.34,29.34,0,0,1,.64,6.29,27.15,27.15,0,0,1-1.46,9.24,19,19,0,0,1-4.11,6.78,16.69,16.69,0,0,1-6.44,4.13,24.82,24.82,0,0,1-8.53,1.37H279.85ZM295.34,68h2.84q7.26,0,7.27-7.18t-7.27-7.17h-2.84Zm0,30.07h3.39q5.85,0,8.38-1.86t2.52-6q0-4.12-2.52-6t-8.38-1.86h-3.39Z" style="fill:#959292"/><path d="M343.52,31.39V113H329.23V31.39Z" style="fill:#959292"/><path d="M362.25,90.76q0,11.51,8.69,11.5c3.1,0,5.45-1.57,7-4.72h13.82q-4.19,17.31-20.93,17.3a22.76,22.76,0,0,1-9.4-1.91,20.72,20.72,0,0,1-7.31-5.46,25,25,0,0,1-4.7-8.45,34.22,34.22,0,0,1-1.66-11,38.11,38.11,0,0,1,1.58-11.35,25,25,0,0,1,4.5-8.61,20,20,0,0,1,7.07-5.45,22.07,22.07,0,0,1,9.37-1.92,21.57,21.57,0,0,1,9.24,1.92,18.9,18.9,0,0,1,6.95,5.55,25.68,25.68,0,0,1,4.34,8.9,43.1,43.1,0,0,1,1.51,11.84v1.87ZM379,80.44a11.33,11.33,0,0,0-2.92-6,7.24,7.24,0,0,0-5.37-2.26,7.16,7.16,0,0,0-5.41,2.17,10.6,10.6,0,0,0-2.65,6.09Z" style="fill:#959292"/><path d="M396.53,62.55h14.3v6.39c1.95-3,3.92-4.93,5.93-5.95a15.4,15.4,0,0,1,7-1.52,14.61,14.61,0,0,1,7.31,1.72,15.82,15.82,0,0,1,7.54,10.57,36.63,36.63,0,0,1,.63,7.17v32H425V87.52a34,34,0,0,0-.43-6A8.14,8.14,0,0,0,423,77.79a5.43,5.43,0,0,0-2.14-1.68,6.65,6.65,0,0,0-2.52-.49,6.41,6.41,0,0,0-5.57,2.71Q410.84,81,410.83,86V113h-14.3Z" style="fill:#959292"/><path d="M476.32,31.39H490.7V113H476.32v-5.6q-4.57,7.18-12.4,7.18a16.45,16.45,0,0,1-8.14-2.07,20.81,20.81,0,0,1-6.48-5.7,27.69,27.69,0,0,1-4.3-8.55,37.12,37.12,0,0,1-.08-20.89,27.49,27.49,0,0,1,4.15-8.5,20.45,20.45,0,0,1,6.43-5.75A16.56,16.56,0,0,1,463.76,61q7.59,0,12.56,6.58Zm-18,56.22a14.41,14.41,0,0,0,.71,4.58A12.16,12.16,0,0,0,461,95.87a8.81,8.81,0,0,0,2.92,2.46,7.83,7.83,0,0,0,3.67.88,7.69,7.69,0,0,0,3.6-.88,8.91,8.91,0,0,0,2.92-2.46,13.1,13.1,0,0,0,2-3.64,12.82,12.82,0,0,0,.76-4.42,13.28,13.28,0,0,0-.76-4.47,13,13,0,0,0-2-3.69,9,9,0,0,0-2.92-2.45,7.71,7.71,0,0,0-7.19,0A8.94,8.94,0,0,0,461,79.65a13.66,13.66,0,0,0-2,3.59A12.42,12.42,0,0,0,458.31,87.61Z" style="fill:#959292"/></svg>