<svg id="epik-logo" class="logo" xmlns="http://www.w3.org/2000/svg" viewBox="0 0 1659 1920"><path d="M0,1660Q0,830,0,0H1659q0,830,0,1660c-2.16-.08-4.32-.23-6.48-.23q-823.78,0-1647.56,0C3.31,1659.77,1.66,1659.92,0,1660ZM385.16,563.06v539.75h87.67V868.34h68.26v234.42h87.43V563.2h-88V785.84H472.73V563.06Zm683,0v539.71h200.42V1021h-112.4V873.08h80.52V785.9h-80.5V644.46h112.37V563ZM831.28,261V1405.22h18.5V261Z"/><path d="M266,1920a6.67,6.67,0,0,0-1.72-.83c-20.61-3.3-43.65-20.41-44.81-50.3-.81-20.93-.48-41.95.44-62.88,1.07-24.29,21.93-44.91,47.87-47.84,19.6-2.21,37,2.62,51,17.2,9.7,10.12,14.06,22.48,14,36.33,0,20.46.41,41-.78,61.36-1.46,25-22,41.36-41.85,45.7-1.43.31-2.81.83-4.21,1.25Zm43.56-81.2c-.52-10-.7-20.14-1.66-30.23-1.66-17.45-13.7-28.51-31-29.11-16.55-.57-29.69,9.64-32.12,26.55a240,240,0,0,0-.14,65.22c2.31,17.69,15.51,27.79,33.14,27.06,16.94-.7,28.74-12.17,30.25-29.89C308.84,1858.62,309.06,1848.8,309.56,1838.8Z"/><path d="M24.5,1759.38H48.27v67.51h65.11v-67.5h24.12v159H113.59v-69.2h-65v69.31h-24Z"/><path d="M1635.54,1918.89c-9.26,0-17.42.19-25.57-.16-1.62-.07-3.73-1.87-4.64-3.44-13.14-22.78-26.11-45.66-39.13-68.52-1.14-2-2.31-4-3.85-6.67-4.48,5.37-8.13,10.83-12.83,15.16-11.74,10.81-16.61,23.57-14.44,39.53,1,7.67.18,15.59.18,23.75h-23.81V1759.39h23.61v78.18l1.15.57c1.21-1.37,2.47-2.7,3.62-4.12q29-35.68,57.89-71.42a8.44,8.44,0,0,1,7.57-3.57c7.91.23,15.82.07,24.93.07-2.29,2.8-3.81,4.69-5.36,6.56-14.44,17.46-28.83,35-43.38,52.31-2.24,2.68-2.58,4.54-.68,7.73,17.38,29.17,34.54,58.48,51.76,87.76C1633.47,1915,1634.26,1916.54,1635.54,1918.89Z"/><path d="M682.62,1896.82v21.78H580.86V1759.4H682.59v21.32H605.28v46.69h65.55v21.35H605.32v48.07Z"/><path d="M1058.16,1780.62v46.86h65.75v21.33h-65.58v48.07h77.23v21.59H1034.1v-159.1h101.39v21.26Z"/><path d="M1214.25,1759.23c22.69,0,45,0,67.26.06a35.42,35.42,0,0,1,7.86,1.33c23.63,5.61,37.44,24.73,36.42,50.32a45.62,45.62,0,0,1-39.8,43.88c-10.81,1.48-21.91.92-32.88,1.19-4.78.12-9.57,0-14.86,0v62.53h-24Zm24.36,21.91v52.72c12.91,0,25.41.45,37.86-.11,15.22-.69,24.74-10.92,25-25.7.22-15-8.45-25.75-23.18-26.73C1265.18,1780.45,1252,1781.14,1238.61,1781.14Z"/><path d="M440,1780.8H396.12v-21.41H507.74v21.31h-43.6v137.83H440Z"/><path d="M761.18,1759.37H785.1V1896.8h76.65v21.81H761.18Z"/><path d="M1400.44,1918.58V1759.42h23.67v159.16Z"/></svg>