<svg xmlns="http://www.w3.org/2000/svg" id="why-hotel-logo" class="logo" viewBox="0 0 505.52 77.98"><path d="M51.48 62.38H47L33.54 23.7 20 62.38h-4.49L0 16.32h4.67l13.27 39.15 13.73-39.06h3.64l13.74 39.15 13.26-39.24H67zM107.39 20.71q5.08 5.41 5.09 14.2V62.1h-4.58V35.57q0-7.2-4-11.59a13.38 13.38 0 0 0-10.42-4.39q-8.31 0-13.26 5.28t-5 14.34V62.1h-4.5V0h4.58v26.13q5.6-10.83 18.77-10.84a17.45 17.45 0 0 1 13.32 5.42zM131.56 78h-5l7.56-16.25-21.3-45.41H118l18.6 40.17 18.77-40.17h5.05zM200.73 20.71q5.09 5.41 5.09 14.2V62.1h-4.58V35.57q0-7.2-4-11.59a13.38 13.38 0 0 0-10.42-4.39q-8.31 0-13.26 5.28t-5 14.34V62.1h-4.58V0h4.58v26.13q5.6-10.83 18.77-10.84a17.46 17.46 0 0 1 13.4 5.42zM252.32 22.16a22.88 22.88 0 0 1 6.91 17.05 23 23 0 0 1-6.91 17.1 24.84 24.84 0 0 1-34.19 0 23 23 0 0 1-6.92-17.1 22.88 22.88 0 0 1 6.92-17 25 25 0 0 1 34.19 0zm-3.22 31.2a19.2 19.2 0 0 0 5.65-14.15A19.24 19.24 0 0 0 249.14 25a20.07 20.07 0 0 0-27.84 0 19.27 19.27 0 0 0-5.6 14.2 19.17 19.17 0 0 0 5.65 14.15 19.84 19.84 0 0 0 27.75 0zM289.43 59.48a16.21 16.21 0 0 1-10 3.65 13.51 13.51 0 0 1-9.91-3.69q-3.73-3.69-3.73-10.23V20.34h-10v-3.93h10V0h4.58v16.41h17.09v3.93h-17.08v28.59a10 10 0 0 0 2.56 7.24 9 9 0 0 0 6.78 2.66 12.08 12.08 0 0 0 7.94-3.08z" fill="#444d53"/><path d="M333 39.68h-41.42q.09 8.77 5.7 14.1a18.2 18.2 0 0 0 12.89 5.33q13.08 0 17.75-11.68l4 .94a21.68 21.68 0 0 1-8.22 11 23.59 23.59 0 0 1-13.55 3.79A22.78 22.78 0 0 1 294 56.59q-6.92-6.54-6.91-17.19t7-17.43a23.32 23.32 0 0 1 16.63-6.68 21.06 21.06 0 0 1 15.65 6.31Q332.6 27.9 333 38zM298.26 24a18 18 0 0 0-6.49 12.15h36.62q-.84-7.85-5.7-12.29a17.07 17.07 0 0 0-12-4.44A19.15 19.15 0 0 0 298.26 24zM338.92 62.1V0h4.57v62.1z" fill="#444d53"/><path d="M374.06 15.67v10.5h-1.6l-5.79-7.11v7.11h-1.94v-10.5h1.61l5.79 7.11v-7.11zM379.86 25.93a1.26 1.26 0 1 1 .87.35 1.22 1.22 0 0 1-.87-.35zM401.46 26.17l-2.15-3.07h-2.77v3.06h-2V15.67h4.32a5.84 5.84 0 0 1 2.38.45 3.48 3.48 0 0 1 1.55 1.29 3.63 3.63 0 0 1 .54 2 3.52 3.52 0 0 1-.58 2 3.41 3.41 0 0 1-1.66 1.27l2.42 3.45zm-.71-8.31a3 3 0 0 0-1.93-.54h-2.28v4.19h2.28a3 3 0 0 0 1.93-.55 1.89 1.89 0 0 0 .66-1.55 1.89 1.89 0 0 0-.66-1.55zM416 23.74h-5.25l-1 2.43h-2l4.72-10.5h1.92l4.74 10.5h-2zm-.64-1.53l-2-4.59-2 4.59zM433 15.67v10.5h-1.61l-5.79-7.11v7.11h-1.93v-10.5h1.6l5.73 7.11v-7.11zM438.87 15.67h4.59a6.67 6.67 0 0 1 3 .65 4.83 4.83 0 0 1 2 1.85 5.63 5.63 0 0 1 0 5.51 4.87 4.87 0 0 1-2 1.84 6.67 6.67 0 0 1-3 .65h-4.59zm4.5 8.85a4.57 4.57 0 0 0 2-.44 3.29 3.29 0 0 0 1.35-1.26 3.77 3.77 0 0 0 .47-1.9 3.73 3.73 0 0 0-.47-1.89 3.16 3.16 0 0 0-1.35-1.26 4.44 4.44 0 0 0-2-.45h-2.55v7.2zM456.49 25.62a5.07 5.07 0 0 1-2-1.93 5.34 5.34 0 0 1-.74-2.77 5.28 5.28 0 0 1 .74-2.76 5.16 5.16 0 0 1 2-1.94 6.34 6.34 0 0 1 5.79 0 5.19 5.19 0 0 1 2.76 4.7 5.32 5.32 0 0 1-.73 2.78 5.14 5.14 0 0 1-2 1.92 6.34 6.34 0 0 1-5.79 0zm4.79-1.48a3.42 3.42 0 0 0 1.32-1.32 4 4 0 0 0 0-3.79 3.44 3.44 0 0 0-1.32-1.33 4 4 0 0 0-3.78 0 3.44 3.44 0 0 0-1.32 1.3 4 4 0 0 0 0 3.79 3.42 3.42 0 0 0 1.32 1.32 4 4 0 0 0 3.78 0zM470.26 15.67h1.95v8.85h5.49v1.65h-7.44zM489.05 16.12a3.45 3.45 0 0 1 1.56 1.29 4 4 0 0 1 0 4 3.45 3.45 0 0 1-1.56 1.29 5.76 5.76 0 0 1-2.37.45h-2.37v3h-1.95V15.67h4.32a5.76 5.76 0 0 1 2.37.45zm-.53 4.88a1.87 1.87 0 0 0 .66-1.54 1.89 1.89 0 0 0-.66-1.55 3 3 0 0 0-1.93-.54h-2.28v4.17h2.28a3 3 0 0 0 1.93-.54zM505.52 15.67v10.5h-1.95v-4.5h-5.43v4.5h-1.95v-10.5h1.95V20h5.43v-4.33zM365.64 44a4.93 4.93 0 0 1-1.79-.92l.67-1.51a5.41 5.41 0 0 0 1.59.83 5.59 5.59 0 0 0 1.88.32 3.28 3.28 0 0 0 1.75-.37 1.14 1.14 0 0 0 .57-1 .93.93 0 0 0-.32-.74 2.17 2.17 0 0 0-.82-.46c-.33-.11-.78-.24-1.35-.38a16 16 0 0 1-1.94-.57 3.22 3.22 0 0 1-1.27-.89 2.37 2.37 0 0 1-.54-1.64 2.81 2.81 0 0 1 .48-1.59 3.21 3.21 0 0 1 1.45-1.14 5.78 5.78 0 0 1 2.33-.42 7.53 7.53 0 0 1 1.89.24 5.25 5.25 0 0 1 1.61.69l-.65 1.55a6.08 6.08 0 0 0-1.44-.62 5.35 5.35 0 0 0-1.45-.21 3.06 3.06 0 0 0-1.72.39 1.22 1.22 0 0 0-.56 1 .94.94 0 0 0 .32.73 2.39 2.39 0 0 0 .82.45c.33.11.78.24 1.35.38a13.55 13.55 0 0 1 1.92.56 3.29 3.29 0 0 1 1.28.89 2.33 2.33 0 0 1 .53 1.62 2.74 2.74 0 0 1-.47 1.58 3.17 3.17 0 0 1-1.43 1.12 5.83 5.83 0 0 1-2.34.42 8 8 0 0 1-2.35-.31zM379.66 35.32h-3.48v-1.65h8.91v1.65h-3.48v8.85h-1.95zM396.58 44.17l-2.14-3.07h-2.78v3.06h-2V33.67H394a5.84 5.84 0 0 1 2.38.45 3.48 3.48 0 0 1 1.62 1.29 3.63 3.63 0 0 1 .54 2 3.52 3.52 0 0 1-.58 2 3.38 3.38 0 0 1-1.65 1.27l2.41 3.45zm-.7-8.31a3 3 0 0 0-1.94-.54h-2.28v4.19h2.28a3 3 0 0 0 1.94-.55 2.15 2.15 0 0 0 0-3.1zM411.7 42.54v1.63h-7.88v-10.5h7.67v1.64h-5.72V38h5.07v1.6h-5.07v2.9zM424.8 42.54v1.63h-7.87v-10.5h7.66v1.64h-5.71V38H424v1.6h-5.07v2.9zM432.46 35.32H429v-1.65h8.91v1.65h-3.48v8.85h-2zM373.55 57.66a2.67 2.67 0 0 1 .51 1.66 2.43 2.43 0 0 1-1.06 2.11 5.24 5.24 0 0 1-3.06.74h-5.22v-10.5h4.92a4.81 4.81 0 0 1 2.87.73 2.33 2.33 0 0 1 1 2 2.63 2.63 0 0 1-.36 1.38 2.46 2.46 0 0 1-1 .93 2.8 2.8 0 0 1 1.4.95zm-6.87-4.46v2.9h2.76a2.76 2.76 0 0 0 1.57-.37 1.19 1.19 0 0 0 .55-1.07 1.23 1.23 0 0 0-.55-1.09 2.76 2.76 0 0 0-1.57-.37zm5.42 5.93c0-1-.76-1.52-2.27-1.52h-3.15v3h3.15c1.51.03 2.27-.47 2.27-1.48zM386.11 59.74h-5.25l-1 2.43h-2l4.72-10.5h1.92l4.74 10.5h-2zm-.64-1.53l-2-4.59-2 4.59zM393.75 51.67h1.95v8.85h5.49v1.65h-7.44zM405.84 51.67h2v8.85h5.49v1.65h-7.44zM419.29 62a4.85 4.85 0 0 1-1.79-.92l.67-1.51a5.48 5.48 0 0 0 1.58.83 5.69 5.69 0 0 0 1.89.32 3.22 3.22 0 0 0 1.74-.37 1.13 1.13 0 0 0 .58-1 1 1 0 0 0-.32-.74 2.25 2.25 0 0 0-.82-.46c-.33-.11-.78-.24-1.35-.38a15.42 15.42 0 0 1-1.94-.57 3.26 3.26 0 0 1-1.28-.89 2.41 2.41 0 0 1-.53-1.64 2.88 2.88 0 0 1 .47-1.59 3.24 3.24 0 0 1 1.43-1.13 5.74 5.74 0 0 1 2.33-.42 7.53 7.53 0 0 1 1.89.24 5.25 5.25 0 0 1 1.61.69l-.62 1.54a6.08 6.08 0 0 0-1.44-.62 5.35 5.35 0 0 0-1.45-.21 3 3 0 0 0-1.72.39 1.2 1.2 0 0 0-.56 1 .91.91 0 0 0 .32.73 2.3 2.3 0 0 0 .82.45c.33.11.78.24 1.35.38a13.55 13.55 0 0 1 1.92.56 3.36 3.36 0 0 1 1.28.89 2.38 2.38 0 0 1 .53 1.62 2.82 2.82 0 0 1-.47 1.58A3.23 3.23 0 0 1 424 61.9a5.83 5.83 0 0 1-2.34.42 8 8 0 0 1-2.37-.32zM433.31 53.32h-3.48v-1.65h8.91v1.65h-3.48v8.85h-1.95zM445.13 61.62a5.07 5.07 0 0 1-2-1.93 5.34 5.34 0 0 1-.74-2.77 5.28 5.28 0 0 1 .74-2.76 5.16 5.16 0 0 1 2-1.94 6.34 6.34 0 0 1 5.79 0 5.19 5.19 0 0 1 2.76 4.7 5.32 5.32 0 0 1-.68 2.78 5.14 5.14 0 0 1-2 1.92 6.34 6.34 0 0 1-5.79 0zm4.79-1.48a3.42 3.42 0 0 0 1.32-1.32 4 4 0 0 0 0-3.79 3.44 3.44 0 0 0-1.32-1.33 4 4 0 0 0-3.78 0 3.44 3.44 0 0 0-1.32 1.3 4 4 0 0 0 0 3.79 3.42 3.42 0 0 0 1.32 1.32 4 4 0 0 0 3.78 0zM468.23 51.67v10.5h-1.6l-5.79-7.11v7.11h-1.94v-10.5h1.61l5.79 7.11v-7.11z" fill="#da1a32"/></svg>