<svg class="logo" id="hammetts-logo" xmlns="http://www.w3.org/2000/svg" viewBox="0 0 234.89 158"><defs><style>.cls-1{fill:#081f40;}</style></defs><title>Artboard 1</title><path class="cls-1" d="M19.05,125.75v-.31a7.35,7.35,0,0,0,2.12-.42,2.37,2.37,0,0,0,1.13-.74,1.19,1.19,0,0,0,.12-.37c0-.19.06-.41.08-.66s0-.51.06-.78,0-.53,0-.78c0-.69,0-1.4,0-2.12v-4.94H9.11v6.72c0,.6,0,1.18,0,1.75a2.08,2.08,0,0,0,.3,1.18,2.49,2.49,0,0,0,1.16.81,5.5,5.5,0,0,0,1.47.35v.31H2v-.31A8.05,8.05,0,0,0,3.64,125a3.12,3.12,0,0,0,1.2-.74,1.11,1.11,0,0,0,.22-.51,7.51,7.51,0,0,0,.14-.83c0-.31.06-.65.08-1s0-.71,0-1,0-.69,0-1.19,0-1,0-1.64,0-1.2,0-1.83v-9c0-.38,0-.73,0-1a6.62,6.62,0,0,0-.16-.88,1.31,1.31,0,0,0-.31-.6,2.67,2.67,0,0,0-1.17-.77,7.2,7.2,0,0,0-1.59-.33v-.31H12.29v.31c-.32,0-.66.11-1,.19a3.3,3.3,0,0,0-1,.39,2.48,2.48,0,0,0-.75.73,2.38,2.38,0,0,0-.34,1.19c0,.73,0,1.52,0,2.36s0,1.65,0,2.42V114h13.5v-5c0-.55,0-1.16,0-1.85,0-.39-.05-.8-.08-1.23a2.25,2.25,0,0,0-.33-1.05,2.5,2.5,0,0,0-1.4-1,7.11,7.11,0,0,0-1.57-.24v-.31H29.47v.31a5.74,5.74,0,0,0-1.6.42,2.33,2.33,0,0,0-1.16,1,1.55,1.55,0,0,0-.21.6c0,.27-.08.56-.1.88s0,.65,0,1v10.22c0,.58,0,1.19,0,1.81s0,1.31,0,2.06,0,1.16.05,1.67a2.08,2.08,0,0,0,.26,1,2.23,2.23,0,0,0,1.19.87,7.44,7.44,0,0,0,1.64.35v.31Z"/><path class="cls-1" d="M49,125.75v-.31l.5-.06a5.93,5.93,0,0,0,.82-.22,2.55,2.55,0,0,0,.75-.44.9.9,0,0,0,.32-.72,3.93,3.93,0,0,0-.18-.92c-.13-.43-.31-1-.53-1.56s-.49-1.3-.79-2-.61-1.53-1-2.34H39.83c-.35.79-.68,1.55-1,2.26l-.95,2.18a7.29,7.29,0,0,0-.72,2.37.9.9,0,0,0,.27.67,2.32,2.32,0,0,0,.7.44,4.54,4.54,0,0,0,.93.25l.94.14v.31H32.72v-.34a4.18,4.18,0,0,0,1.52-.44,3.27,3.27,0,0,0,.73-.47,6.22,6.22,0,0,0,.79-1,21.93,21.93,0,0,0,1.33-2.4c.48-1,1-2.1,1.61-3.35l1.83-3.86q.93-2,1.86-4c.61-1.35,1.19-2.6,1.74-3.77l-.34-.68a5.86,5.86,0,0,0,1.11-.6,6.41,6.41,0,0,0,.87-.72,6.48,6.48,0,0,0,.63-.72c.17-.22.3-.41.4-.56h.27c.7,1.73,1.38,3.37,2,4.92s1.25,3.05,1.83,4.48l1.69,4.17c.55,1.35,1.1,2.68,1.64,4,.25.64.49,1.18.7,1.61s.46.91.74,1.45a3.91,3.91,0,0,0,.31.44,4.16,4.16,0,0,0,.63.64,3.6,3.6,0,0,0,1,.57,3.74,3.74,0,0,0,1.37.29v.37Zm-4.47-18.93c-.14.27-.34.7-.6,1.28s-.59,1.29-1,2.13-.81,1.77-1.28,2.82-1,2.19-1.52,3.42h8.51c-.39-.93-.78-1.87-1.18-2.81s-.78-1.84-1.16-2.7-.72-1.66-1-2.38S44.71,107.28,44.51,106.82Z"/><path class="cls-1" d="M81.44,125.75v-.34a5.87,5.87,0,0,0,2.46-.57,2.86,2.86,0,0,0,1.33-1.15,3.52,3.52,0,0,0,.31-1,12.17,12.17,0,0,0,.14-1.23c0-1.37.06-2.69.06-3.94V104.79q-1.12,2.31-2.06,4.25c-.63,1.29-1.25,2.55-1.87,3.78L80,116.58l-2.06,4.24a10.09,10.09,0,0,0-.48,1c-.21.45-.41.91-.62,1.37s-.4.9-.58,1.28-.29.64-.34.77h-.21c-.72-1.54-1.45-3.07-2.16-4.59s-1.42-3-2.11-4.39l-1.91-3.95c-.59-1.23-1.13-2.33-1.6-3.28s-.88-1.76-1.18-2.41-.52-1.08-.64-1.31c0,1.37,0,2.59,0,3.64s0,2.09,0,3.12,0,2.12,0,3.27v4c0,1,0,1.82.1,2.54a4.65,4.65,0,0,0,.51,1.81,2.82,2.82,0,0,0,1.25,1.16,7.42,7.42,0,0,0,2.3.61v.31H61.25v-.31a6.48,6.48,0,0,0,1.94-.64,3.14,3.14,0,0,0,1.2-1.17,5.64,5.64,0,0,0,.65-1.86,16.47,16.47,0,0,0,.24-2.7c0-.9.08-2,.1-3.17s0-2.53,0-3.93V108c0-.42,0-.93,0-1.53a2.59,2.59,0,0,0-.41-1.42,2.91,2.91,0,0,0-.89-.86,3.89,3.89,0,0,0-1.09-.46c-.39-.09-.72-.16-1-.2v-.31h7.28l8.16,17c1-2,2-3.94,2.94-5.9S82.2,110.62,83,109s1.39-2.9,1.88-4,.77-1.66.84-1.83H93v.31a4,4,0,0,0-2.13.53,2.64,2.64,0,0,0-1,1.19,5.65,5.65,0,0,0-.27,1.66c-.05.75-.08,1.48-.11,2.21q0,1.5,0,2.91v6.22c0,1.1,0,2.26,0,3.49a8.31,8.31,0,0,0,.09,1.21,2.6,2.6,0,0,0,.29,1,2.38,2.38,0,0,0,.26.3,3.36,3.36,0,0,0,.63.5,4.43,4.43,0,0,0,1,.46,5,5,0,0,0,1.44.24v.31Z"/><path class="cls-1" d="M117.82,125.75v-.34a6,6,0,0,0,2.47-.57,2.86,2.86,0,0,0,1.33-1.15,3.53,3.53,0,0,0,.3-1,9.84,9.84,0,0,0,.14-1.23c0-1.37.07-2.69.07-3.94V104.79L120.06,109c-.62,1.29-1.25,2.55-1.86,3.78s-1.24,2.48-1.86,3.76-1.32,2.69-2.07,4.24c-.11.2-.27.53-.48,1s-.41.91-.61,1.37-.4.9-.58,1.28a6.82,6.82,0,0,0-.34.77h-.21l-2.17-4.59c-.72-1.52-1.42-3-2.1-4.39l-1.91-3.95c-.6-1.23-1.13-2.33-1.61-3.28s-.87-1.76-1.18-2.41l-.63-1.31c0,1.37,0,2.59,0,3.64l0,3.12c0,1,0,2.12,0,3.27v4c0,1,0,1.82.1,2.54a4.49,4.49,0,0,0,.52,1.81,2.85,2.85,0,0,0,1.24,1.16,7.49,7.49,0,0,0,2.31.61v.31H97.63v-.31a6.46,6.46,0,0,0,2-.64,3.21,3.21,0,0,0,1.2-1.17,5.88,5.88,0,0,0,.65-1.86,17.79,17.79,0,0,0,.23-2.7c0-.9.08-2,.11-3.17s0-2.53,0-3.93V108q0-.63,0-1.53a2.68,2.68,0,0,0-.41-1.42,2.91,2.91,0,0,0-.89-.86,4,4,0,0,0-1.09-.46c-.39-.09-.72-.16-1-.2v-.31h7.28l8.17,17c1-2,2-3.94,2.94-5.9l2.58-5.31c.76-1.58,1.38-2.9,1.87-4s.77-1.66.84-1.83h7.28v.31a4,4,0,0,0-2.14.53,2.61,2.61,0,0,0-1,1.19,5.94,5.94,0,0,0-.28,1.66c0,.75-.08,1.48-.1,2.21q0,1.5,0,2.91v6.22c0,1.1,0,2.26,0,3.49a10,10,0,0,0,.08,1.21,2.59,2.59,0,0,0,.3,1,2,2,0,0,0,.25.3,4.18,4.18,0,0,0,.63.5,4.73,4.73,0,0,0,1,.46,5,5,0,0,0,1.43.24v.31Z"/><path class="cls-1" d="M155.51,125.75H134.6v-.31a7.13,7.13,0,0,0,1.59-.41,3.33,3.33,0,0,0,1.21-.78,1.19,1.19,0,0,0,.27-.54,6.87,6.87,0,0,0,.19-.83,7.66,7.66,0,0,0,.12-1c0-.34,0-.68,0-1s0-.69,0-1.19,0-1,0-1.64,0-1.2,0-1.83v-7.9c0-.37,0-.76,0-1.16s0-.77-.07-1.12a6,6,0,0,0-.17-1,1.25,1.25,0,0,0-.33-.61,2.25,2.25,0,0,0-1.09-.64c-.39-.1-.89-.18-1.5-.27v-.31h18.86l2.32,5.15-.34.16a16.47,16.47,0,0,0-5.19-4.25,9.06,9.06,0,0,0-2.16-.44,34.33,34.33,0,0,0-3.82-.18c-.48,0-1,0-1.49,0a10.66,10.66,0,0,0-1.11.11c0,.34-.09,1-.12,2.06s-.05,2.25-.05,3.63v2c0,.54,0,1,0,1.33s0,.6,0,.79V114h.69c.34,0,.73,0,1.18,0l1.33-.07a8.57,8.57,0,0,0,1.11-.15,6.21,6.21,0,0,0,1.71-.59,3.84,3.84,0,0,0,1.11-.9,4.49,4.49,0,0,0,.68-1.24,14.46,14.46,0,0,0,.46-1.58h.41v9.84h-.41a9.93,9.93,0,0,0-.84-2.06,5.46,5.46,0,0,0-1.17-1.59,4.89,4.89,0,0,0-1.32-.72,6.19,6.19,0,0,0-1.79-.34l-.86,0-.68,0h-1.57a8.42,8.42,0,0,0-.07,1.29v3.74c0,.34,0,.66,0,1s0,.55,0,.76q0,1,.12,1.89a2.75,2.75,0,0,0,.4,1.33,2.19,2.19,0,0,0,1.46.62,15.4,15.4,0,0,0,2.53.19l1.49,0a19,19,0,0,0,1.9-.16,7.89,7.89,0,0,0,2-.48,7.38,7.38,0,0,0,1.78-1,10.83,10.83,0,0,0,1.65-1.61,20.93,20.93,0,0,0,1.66-2.3l.38.09Z"/><path class="cls-1" d="M185.37,109.13c-.18-.37-.4-.76-.65-1.17s-.51-.79-.77-1.14-.52-.68-.77-1a3.8,3.8,0,0,0-.65-.67,3.51,3.51,0,0,0-1.55-.83,10,10,0,0,0-2.14-.24h-1.12l-1,0H174.5c0,.52,0,1.23,0,2.13s0,1.83,0,2.81v12.21c0,.61,0,1.18.05,1.74a2.12,2.12,0,0,0,.33,1.17,2.54,2.54,0,0,0,1.45.93,16.22,16.22,0,0,0,1.69.38v.31h-11.1v-.31a11.37,11.37,0,0,0,1.7-.31,3.58,3.58,0,0,0,1.61-1,1.1,1.1,0,0,0,.26-.52,7.65,7.65,0,0,0,.13-.81,9.6,9.6,0,0,0,.07-1c0-.35,0-.69,0-1s0-.67,0-1.15,0-1,0-1.6,0-1.18,0-1.81V104.07h-2.26l-.94,0h-1.14a8.62,8.62,0,0,0-2.14.28,4.17,4.17,0,0,0-1.55.88,4.4,4.4,0,0,0-.63.65l-.76,1a11.93,11.93,0,0,0-.75,1.11,6.73,6.73,0,0,0-.56,1.15l-.31-.09,1-5.94c.52.11,1,.19,1.45.25a15.88,15.88,0,0,0,1.93.13l2.32,0c.68,0,1.35,0,2,0h6.49c.69,0,1.35,0,2,0l2,0h2.32a12.34,12.34,0,0,0,1.86-.17c.49-.1,1-.22,1.52-.36l1.1,6.09Z"/><path class="cls-1" d="M213.08,109.13c-.19-.37-.4-.76-.65-1.17s-.51-.79-.77-1.14-.52-.68-.77-1a4.2,4.2,0,0,0-.65-.67,3.56,3.56,0,0,0-1.55-.83,10,10,0,0,0-2.14-.24h-1.13l-.95,0h-2.26c0,.52,0,1.23,0,2.13s0,1.83,0,2.81v12.21c0,.61,0,1.18,0,1.74a2.13,2.13,0,0,0,.32,1.17,2.6,2.6,0,0,0,1.46.93,16.22,16.22,0,0,0,1.69.38v.31H194.59v-.31a11.27,11.27,0,0,0,1.71-.31,3.63,3.63,0,0,0,1.61-1,1,1,0,0,0,.25-.52,5.66,5.66,0,0,0,.14-.81c0-.3.06-.63.07-1s0-.69,0-1,0-.67,0-1.15,0-1,0-1.6,0-1.18,0-1.81V104.07H196.2l-.94,0h-1.14a8.62,8.62,0,0,0-2.14.28,4.09,4.09,0,0,0-1.55.88,3.94,3.94,0,0,0-.64.65c-.24.3-.49.61-.75,1a11.93,11.93,0,0,0-.75,1.11,6.06,6.06,0,0,0-.56,1.15l-.31-.09,1-5.94c.53.11,1,.19,1.46.25a15.72,15.72,0,0,0,1.93.13l2.32,0c.68,0,1.34,0,2,0h6.49c.69,0,1.35,0,2,0l2,0h2.32a12.34,12.34,0,0,0,1.86-.17c.49-.1,1-.22,1.52-.36l1.09,6.09Z"/><path class="cls-1" d="M233.87,122.28a6.17,6.17,0,0,1-1.85,2,7.91,7.91,0,0,1-2.82,1.25,14.91,14.91,0,0,1-3.58.41,18.1,18.1,0,0,1-2.87-.19,11.67,11.67,0,0,1-2-.45,7.22,7.22,0,0,1-1.17-.49,1.7,1.7,0,0,0-.5-.21c-.07,0-.22.12-.44.37s-.44.49-.62.72h-.31l-.1-6.22H218a9.51,9.51,0,0,0,.79,1.64,13.32,13.32,0,0,0,1,1.5,8.85,8.85,0,0,0,1.2,1.24,6.08,6.08,0,0,0,1.21.81,10.37,10.37,0,0,0,1.54.56,6.93,6.93,0,0,0,5.94-1,4.17,4.17,0,0,0,1.57-3.42,3.6,3.6,0,0,0-.3-1.53,3.67,3.67,0,0,0-.84-1.14,5,5,0,0,0-1.25-.83,14.53,14.53,0,0,0-1.54-.63l-1.43-.47-1.15-.35-1.09-.35q-.56-.17-1.35-.45a8.06,8.06,0,0,1-1.71-.86,6.72,6.72,0,0,1-1.43-1.28,6.29,6.29,0,0,1-1-1.63,4.8,4.8,0,0,1-.38-1.89,5.89,5.89,0,0,1,.68-2.9,6,6,0,0,1,1.81-2,7.87,7.87,0,0,1,2.62-1.2,12.26,12.26,0,0,1,3.13-.39,12.54,12.54,0,0,1,2.63.23,11.67,11.67,0,0,1,1.79.52,5.55,5.55,0,0,1,1.06.51,2.68,2.68,0,0,0,.39.24c.07,0,.21-.13.43-.38s.42-.5.6-.75h.37v5.78h-.37a12.9,12.9,0,0,0-1.06-2,9.76,9.76,0,0,0-1.5-1.81,7.35,7.35,0,0,0-2-1.29,5.68,5.68,0,0,0-2.43-.5,6.91,6.91,0,0,0-2,.28,4.81,4.81,0,0,0-1.64.84,4,4,0,0,0-1.09,1.39,4.37,4.37,0,0,0-.39,1.89,3.44,3.44,0,0,0,1.09,2.66,8,8,0,0,0,2.83,1.59c.45.17.88.31,1.27.44l1.18.36,1.17.35,1.25.41a8,8,0,0,1,3.59,2.27,5.9,5.9,0,0,1,.62,6.38Z"/><path class="cls-1" d="M86.19,142.5h1v4.11H92.9V142.5h1V152h-1V147.5H87.24V152h-1Z"/><path class="cls-1" d="M112.08,147.24a4.9,4.9,0,0,1-.41,2,4.8,4.8,0,0,1-1.14,1.57,5.26,5.26,0,0,1-1.71,1,6.4,6.4,0,0,1-4.29,0,5.26,5.26,0,0,1-1.71-1,4.66,4.66,0,0,1-1.14-1.57,4.9,4.9,0,0,1-.41-2,4.82,4.82,0,0,1,.41-2,4.7,4.7,0,0,1,1.14-1.58,5.24,5.24,0,0,1,1.71-1,6.24,6.24,0,0,1,4.29,0,5.24,5.24,0,0,1,1.71,1,4.75,4.75,0,0,1,1.55,3.57Zm-1.12,0a4.22,4.22,0,0,0-.29-1.58,3.84,3.84,0,0,0-.85-1.32,4.15,4.15,0,0,0-1.35-.9,5,5,0,0,0-3.59,0,4.15,4.15,0,0,0-1.35.9,3.7,3.7,0,0,0-.85,1.32,4.31,4.31,0,0,0,0,3.16,3.62,3.62,0,0,0,.85,1.3,4,4,0,0,0,1.35.9,5,5,0,0,0,3.59,0,4,4,0,0,0,1.35-.9,3.76,3.76,0,0,0,.85-1.3A4.22,4.22,0,0,0,111,147.25Z"/><path class="cls-1" d="M122.28,152h-1v-8.62h-3.47v-.86h8v.86h-3.47Z"/><path class="cls-1" d="M133.48,151.12H139V152h-6.6V142.5h6.43v.86h-5.38v3.25h5v.86h-5Z"/><path class="cls-1" d="M147.26,151.12h4.83V152h-5.88V142.5h1Z"/><path class="cls-1" d="M112.26,10.81a8.65,8.65,0,0,0-2.54,6.13v4.29a36.13,36.13,0,0,0-6.48,1.17c-2.23.67-2.34,2.22-2.56,5.45S99.46,51.9,96.45,57a26.91,26.91,0,0,1-3.67,4.76,215.75,215.75,0,0,0,25.41,1.29A231.2,231.2,0,0,0,144,61.81,27.72,27.72,0,0,1,140.33,57c-3-5.12-4-25.94-4.23-29.17s-.34-4.78-2.56-5.45a36.13,36.13,0,0,0-6.48-1.17V16.94a8.64,8.64,0,0,0-2.55-6.11h0a8.46,8.46,0,0,0-6.11-2.57,9,9,0,0,0-6.13,2.57m1.81,67.36V75.72c-10.41-.29-22.55-.94-28.47-2.55a9.67,9.67,0,0,1,1.05-4.56,12.72,12.72,0,0,1,2.36-3c7.39,1.24,18.35,1.81,29.18,1.81,11.39,0,22.71-.64,29.6-1.78a12.56,12.56,0,0,1,2.34,3,9.8,9.8,0,0,1,1.05,4.56c-4.7,1.48-16,2.36-28.29,2.55l0,2.45c0,4.66,0,4.69-4.46,4.69S114.07,82.86,114.07,78.17Zm2.17-57.34V16.94a2.09,2.09,0,0,1,2.15-1.79,2.3,2.3,0,0,1,2.14,1.79v3.89C119.11,20.8,117.67,20.8,116.24,20.83Z"/></svg>