<svg id="logo-botanic-sanctuary" class="logo" xmlns="http://www.w3.org/2000/svg" viewBox="0 0 333 110"><path fill="#999"  d="M325.9,55l-.46.21A3.16,3.16,0,0,0,324,56.42l-7,10.51v6.58a1.64,1.64,0,0,0,.31,1,1.8,1.8,0,0,0,.8.64l.46.17h-4.74l.47-.17a1.86,1.86,0,0,0,.8-.64,1.7,1.7,0,0,0,.3-1V66.87l-7-10.48a3.57,3.57,0,0,0-1.68-1.34l-.32-.11h4.74l-1,.37a.42.42,0,0,0-.28.27A.4.4,0,0,0,310,56l6.58,10L323.11,56a.42.42,0,0,0,.06-.36.45.45,0,0,0-.24-.28l-1-.46ZM301.15,75.25h-3.06l-4.86-8.87a1.41,1.41,0,0,0-1.31-.76h-4.68v7.83a1.7,1.7,0,0,0,.3,1,1.8,1.8,0,0,0,.8.64l.47.17h-4.75l.47-.17a1.86,1.86,0,0,0,.8-.64,1.7,1.7,0,0,0,.3-1V56.71a1.7,1.7,0,0,0-.3-1,1.86,1.86,0,0,0-.8-.64l-.47-.17h7.31a12.22,12.22,0,0,1,3.52.42,5.52,5.52,0,0,1,2.16,1.15,3.71,3.71,0,0,1,1.07,1.7,7.07,7.07,0,0,1,.29,2.08,7.53,7.53,0,0,1-.19,1.71,3.8,3.8,0,0,1-.67,1.49,4.39,4.39,0,0,1-1.3,1.18,6.27,6.27,0,0,1-2.12.75.63.63,0,0,1,.4.29,4.27,4.27,0,0,1,.24.38l1.13,2,1.41,2.57c.52,1,1.08,2,1.69,3.12A2.55,2.55,0,0,0,300.36,75ZM287.24,64.77h4.19v0a12.47,12.47,0,0,0,2.06-.16,4.69,4.69,0,0,0,1.77-.64,3.45,3.45,0,0,0,1.23-1.38,6.16,6.16,0,0,0,0-4.72,3.45,3.45,0,0,0-1.23-1.38,4.84,4.84,0,0,0-1.78-.64,12.6,12.6,0,0,0-2.05-.16h-4.19ZM271.4,75.31l.79-.29a1,1,0,0,0,.51-.46.79.79,0,0,0,0-.67l-2.91-6.76h-7.86L259,73.89a.78.78,0,0,0,0,.65.82.82,0,0,0,.45.48l.67.32h-3.85L257,75a2.44,2.44,0,0,0,1.31-1.45l8-18.63,8,18.74a2.49,2.49,0,0,0,1.52,1.52l.35.11Zm-5.53-17.26-3.58,8.27h7.16Zm-15.16-3.11-.5.23a1.86,1.86,0,0,0-.74.65,1.69,1.69,0,0,0-.28.92V68.5a6.6,6.6,0,0,1-.53,2.65,7,7,0,0,1-1.46,2.17,6.89,6.89,0,0,1-4.82,2h-1.19a6.61,6.61,0,0,1-2.65-.54,6.77,6.77,0,0,1-2.17-1.45,6.94,6.94,0,0,1-1.45-2.17,6.61,6.61,0,0,1-.54-2.65V56.74a1.64,1.64,0,0,0-.31-1,1.8,1.8,0,0,0-.8-.64l-.46-.17h4.74l-.47.17a1.86,1.86,0,0,0-.8.64,1.7,1.7,0,0,0-.3,1V68.5a6.48,6.48,0,0,0,.45,2.45,6.24,6.24,0,0,0,1.18,1.89,5.37,5.37,0,0,0,1.6,1.21,3.92,3.92,0,0,0,1.72.42h2.12a4.32,4.32,0,0,0,2.08-.53,5.73,5.73,0,0,0,1.69-1.36A6.82,6.82,0,0,0,248,70.67a5.86,5.86,0,0,0,.42-2.17V56.74a1.61,1.61,0,0,0-.28-.92,1.8,1.8,0,0,0-.74-.65l-.49-.23ZM225,57.5l-.44-.82a1.76,1.76,0,0,0-.62-.65,1.59,1.59,0,0,0-.89-.25h-6.2v17.7a1.64,1.64,0,0,0,.31,1,1.8,1.8,0,0,0,.8.64l.46.17h-4.74l.46-.17a1.8,1.8,0,0,0,.8-.64,1.64,1.64,0,0,0,.31-1V55.78H209a1.59,1.59,0,0,0-.89.25,1.87,1.87,0,0,0-.63.65l-.43.82.17-2.56h17.56ZM192.6,55.78a9.6,9.6,0,0,0-3.67.71,9.22,9.22,0,0,0-3,2,9,9,0,0,0-2,3,9.32,9.32,0,0,0-.73,3.72A9.43,9.43,0,0,0,184,69,8.93,8.93,0,0,0,186.07,72a9.18,9.18,0,0,0,3,1.9,9.75,9.75,0,0,0,3.56.67,9.51,9.51,0,0,0,1.6-.16,10.47,10.47,0,0,0,1.72-.48,7.8,7.8,0,0,0,1.57-.82,4,4,0,0,0,1.14-1.13l.52-.88v3l-.2-.35a.35.35,0,0,0-.35-.2.56.56,0,0,0-.26.08,10.59,10.59,0,0,1-2.74,1.3,10.1,10.1,0,0,1-3,.45,12,12,0,0,1-4.54-.8,10.32,10.32,0,0,1-3.43-2.18,9.38,9.38,0,0,1-2.19-3.25,10.7,10.7,0,0,1,0-7.92A9.34,9.34,0,0,1,184.66,58a10.51,10.51,0,0,1,3.43-2.19,12.25,12.25,0,0,1,4.54-.8,10.1,10.1,0,0,1,3,.46,10.89,10.89,0,0,1,2.74,1.29.48.48,0,0,0,.26.09.35.35,0,0,0,.35-.21l.2-.34v3l-.49-.84a3.53,3.53,0,0,0-1.12-1.16,7.7,7.7,0,0,0-1.62-.82,11.25,11.25,0,0,0-1.76-.49,8.06,8.06,0,0,0-1.59-.18Zm-22.38-.87h3.85l-.5.23a1.8,1.8,0,0,0-.74.65,1.63,1.63,0,0,0-.28.92V75.28L158,56.71V73.48a1.7,1.7,0,0,0,.27.92,1.89,1.89,0,0,0,.75.65l.49.23h-3.84l.49-.23a1.89,1.89,0,0,0,.75-.65,1.7,1.7,0,0,0,.27-.92V56.74a1.68,1.68,0,0,0-.27-.92,1.89,1.89,0,0,0-.75-.65l-.49-.23h2.88l13.22,16.82v-15a1.69,1.69,0,0,0-.28-.92,1.8,1.8,0,0,0-.74-.65l-.5-.23ZM143,75.31l.78-.29a.93.93,0,0,0,.51-.46.75.75,0,0,0,0-.67l-2.91-6.76h-7.86l-2.91,6.76a.78.78,0,0,0,0,.65A.88.88,0,0,0,131,75l.67.32h-3.84l.67-.32a2.47,2.47,0,0,0,1.31-1.45l8-18.63,8,18.74a2.47,2.47,0,0,0,1.51,1.52l.35.11Zm-5.53-17.26-3.58,8.27H141ZM115.94,64l2,1.08a9.69,9.69,0,0,1,1.76,1.19A5.59,5.59,0,0,1,121,67.79a4.56,4.56,0,0,1,.48,2.2,4,4,0,0,1-.6,2.13,5.55,5.55,0,0,1-1.6,1.68,8.21,8.21,0,0,1-2.33,1.09,9.67,9.67,0,0,1-2.75.39,10.48,10.48,0,0,1-2.37-.29,6.74,6.74,0,0,1-2.67-1.37.5.5,0,0,0-.29-.08.4.4,0,0,0-.38.2l-.2.32v-3l.64,1.08a3.55,3.55,0,0,0,1,1.09,5.92,5.92,0,0,0,1.33.73,7.32,7.32,0,0,0,1.48.39,9.49,9.49,0,0,0,1.47.12,7.77,7.77,0,0,0,2.1-.29,5.88,5.88,0,0,0,1.8-.86,4.59,4.59,0,0,0,1.27-1.4,3.79,3.79,0,0,0,.48-1.93,2.33,2.33,0,0,0-.47-1.42,5.61,5.61,0,0,0-1.21-1.16,12.53,12.53,0,0,0-1.67-1l-1.83-1-2-1.06a15.42,15.42,0,0,1-1.88-1.16,6.58,6.58,0,0,1-1.39-1.4,2.93,2.93,0,0,1-.56-1.76,4.47,4.47,0,0,1,.5-2.11,4.94,4.94,0,0,1,1.37-1.62,6.48,6.48,0,0,1,2.09-1,9.38,9.38,0,0,1,2.65-.36,8.46,8.46,0,0,1,2,.23,9.87,9.87,0,0,1,1.9.64.42.42,0,0,0,.18,0,.41.41,0,0,0,.38-.21l.26-.43v3l-.38-.62a3.18,3.18,0,0,0-.83-1,3.52,3.52,0,0,0-1-.55,5.73,5.73,0,0,0-1.19-.27c-.42,0-.84-.07-1.27-.07a7.26,7.26,0,0,0-2,.25,5.25,5.25,0,0,0-1.59.7,3.69,3.69,0,0,0-1.06,1.06,2.44,2.44,0,0,0-.39,1.34,2.89,2.89,0,0,0,.53,1.76,5.53,5.53,0,0,0,1.36,1.27,11,11,0,0,0,1.8,1c.66.29,1.28.59,1.87.9Z"/><path fill="#000"  d="M239,28.36a6.16,6.16,0,0,1,1.2.13,8.13,8.13,0,0,1,1.34.38,5.91,5.91,0,0,1,1.23.62,2.73,2.73,0,0,1,.85.88L244,31V28.73l-.15.27a.27.27,0,0,1-.27.15.45.45,0,0,1-.2-.06,8.11,8.11,0,0,0-2.08-1,7.85,7.85,0,0,0-2.27-.34,9.11,9.11,0,0,0-3.45.61A7.77,7.77,0,0,0,233,30a7.13,7.13,0,0,0-1.66,2.46,8.23,8.23,0,0,0,0,6A7.13,7.13,0,0,0,233,41a7.77,7.77,0,0,0,2.61,1.66,9.11,9.11,0,0,0,3.45.61,7.52,7.52,0,0,0,2.27-.34,8.11,8.11,0,0,0,2.08-1,.45.45,0,0,1,.2-.06.27.27,0,0,1,.27.15l.15.27V40l-.4.66a3,3,0,0,1-.86.87,5.57,5.57,0,0,1-1.19.61,7.31,7.31,0,0,1-2.52.49,7.29,7.29,0,0,1-2.71-.51,7.12,7.12,0,0,1-2.28-1.44,6.7,6.7,0,0,1-1.57-2.24,7.5,7.5,0,0,1,0-5.76,6.82,6.82,0,0,1,3.78-3.75,7.22,7.22,0,0,1,2.79-.54ZM220.13,41.85V29.13a1.23,1.23,0,0,1,.23-.75,1.4,1.4,0,0,1,.61-.49l.35-.13h-3.6l.35.13a1.46,1.46,0,0,1,.61.49,1.3,1.3,0,0,1,.23.75V41.85a1.3,1.3,0,0,1-.23.75,1.46,1.46,0,0,1-.61.49l-.35.13h3.6l-.35-.13a1.4,1.4,0,0,1-.61-.49,1.23,1.23,0,0,1-.23-.75M205.2,27.74l.38.18a1.4,1.4,0,0,1,.56.49,1.27,1.27,0,0,1,.21.7V40.52l-10-12.78h-2.19l.38.18a1.4,1.4,0,0,1,.56.49,1.27,1.27,0,0,1,.21.7V41.82a1.23,1.23,0,0,1-.21.7,1.42,1.42,0,0,1-.56.5l-.38.18H197l-.37-.18a1.38,1.38,0,0,1-.57-.5,1.23,1.23,0,0,1-.21-.7V29.09L207,43.2V29.09a1.27,1.27,0,0,1,.21-.7,1.5,1.5,0,0,1,.56-.5l.38-.17H205.2ZM185.6,43.22l-.27-.09A1.87,1.87,0,0,1,184.18,42l-6.1-14.24L172,41.89A1.88,1.88,0,0,1,171,43l-.51.24h2.92l-.51-.24a.65.65,0,0,1-.34-.37.58.58,0,0,1,0-.5L174.81,37h6L183,42.13a.6.6,0,0,1,0,.51.73.73,0,0,1-.39.36l-.6.22Zm-5.09-6.83h-5.44l2.72-6.28Zm-15.42-8.65H151.75l-.13,1.94.33-.61a1.36,1.36,0,0,1,.48-.5,1.19,1.19,0,0,1,.67-.19h4.71V41.82a1.34,1.34,0,0,1-.23.76,1.37,1.37,0,0,1-.61.48l-.35.14h3.6l-.35-.14a1.37,1.37,0,0,1-.61-.48,1.34,1.34,0,0,1-.23-.76V28.38h4.71a1.19,1.19,0,0,1,.67.19,1.36,1.36,0,0,1,.48.5l.33.61ZM135.72,42.6a7,7,0,0,1-2.87-.57,6.47,6.47,0,0,1-2.17-1.53,6.82,6.82,0,0,1-1.4-2.26,8.06,8.06,0,0,1,0-5.48,6.82,6.82,0,0,1,1.4-2.26A6.47,6.47,0,0,1,132.85,29a7.46,7.46,0,0,1,5.72,0,6.41,6.41,0,0,1,2.18,1.53,6.94,6.94,0,0,1,1.38,2.26,7.91,7.91,0,0,1,0,5.48,6.94,6.94,0,0,1-1.38,2.26A6.41,6.41,0,0,1,138.57,42a7,7,0,0,1-2.85.57m0-14.86a9.05,9.05,0,0,0-3,.5,7.57,7.57,0,0,0-2.59,1.48,7.2,7.2,0,0,0-1.8,2.42,8.64,8.64,0,0,0,0,6.67,7.34,7.34,0,0,0,1.8,2.43,7.74,7.74,0,0,0,2.59,1.48,9.34,9.34,0,0,0,6,0,7.74,7.74,0,0,0,2.57-1.48,7.34,7.34,0,0,0,1.8-2.43,8.52,8.52,0,0,0,0-6.67,7.2,7.2,0,0,0-1.8-2.42,7.58,7.58,0,0,0-2.57-1.48,9.07,9.07,0,0,0-3-.5m-18.66,7a4,4,0,0,0,1.44-1.28,3.21,3.21,0,0,0,.52-1.84,4.23,4.23,0,0,0-.42-2,2.93,2.93,0,0,0-1.13-1.18,4.8,4.8,0,0,0-1.7-.56,15.08,15.08,0,0,0-2.07-.14h-5.56l.36.13a1.46,1.46,0,0,1,.61.49,1.3,1.3,0,0,1,.23.75V41.82a1.34,1.34,0,0,1-.23.76,1.37,1.37,0,0,1-.61.48l-.36.14h6.17a7.58,7.58,0,0,0,4.46-1.15,4.12,4.12,0,0,0,.74-5.78,5.12,5.12,0,0,0-2.45-1.5m-2.83-6.43a6.3,6.3,0,0,1,1.39.15,3,3,0,0,1,1.16.53,2.57,2.57,0,0,1,.78,1,3.72,3.72,0,0,1,.29,1.6,3.16,3.16,0,0,1-.3,1.48,2.26,2.26,0,0,1-.8.9,3.33,3.33,0,0,1-1.18.44,7.74,7.74,0,0,1-1.39.12h-3.67l0-6.23Zm-3.72,6.87h4.16A5.78,5.78,0,0,1,118,36a3.16,3.16,0,0,1,1.22,2.8,3.4,3.4,0,0,1-.45,1.83,3.75,3.75,0,0,1-1.14,1.17,4.68,4.68,0,0,1-1.47.59,7.19,7.19,0,0,1-1.45.17v0h-4.16ZM315,87.05h5.59a9.48,9.48,0,0,1,2.68.32,4.19,4.19,0,0,1,1.63.88,2.83,2.83,0,0,1,.82,1.29,5.78,5.78,0,0,1,0,3.16,2.78,2.78,0,0,1-.82,1.29,4.19,4.19,0,0,1-1.63.88,9.48,9.48,0,0,1-2.68.32h-3.18v6a1.23,1.23,0,0,0,.23.75,1.4,1.4,0,0,0,.61.49l.35.13H315l.35-.13a1.46,1.46,0,0,0,.61-.49,1.3,1.3,0,0,0,.23-.75V88.42a1.3,1.3,0,0,0-.23-.75,1.46,1.46,0,0,0-.61-.49Zm2.41,7.52h3.18v0a9.9,9.9,0,0,0,1.57-.12,3.47,3.47,0,0,0,1.34-.49,2.61,2.61,0,0,0,.94-1,4,4,0,0,0,.35-1.79,4,4,0,0,0-.35-1.79,2.61,2.61,0,0,0-.94-1,3.81,3.81,0,0,0-1.35-.49,10.05,10.05,0,0,0-1.56-.12h-3.18Zm-8.83,7.92h-2.32l-3.69-6.75a1.08,1.08,0,0,0-1-.57H298v6a1.24,1.24,0,0,0,.24.75,1.29,1.29,0,0,0,.6.48l.36.14h-3.61l.36-.14a1.37,1.37,0,0,0,.61-.48,1.3,1.3,0,0,0,.23-.75V88.4a1.3,1.3,0,0,0-.23-.75,1.46,1.46,0,0,0-.61-.49l-.36-.13h5.55a9.44,9.44,0,0,1,2.68.32,4.31,4.31,0,0,1,1.64.87,2.84,2.84,0,0,1,.81,1.3,5.39,5.39,0,0,1,.23,1.58,5.55,5.55,0,0,1-.15,1.29,2.94,2.94,0,0,1-.51,1.14,3.34,3.34,0,0,1-1,.9,4.89,4.89,0,0,1-1.61.56.5.5,0,0,1,.3.22,3.43,3.43,0,0,1,.19.29l.85,1.56,1.07,2q.6,1.14,1.29,2.37a1.91,1.91,0,0,0,1,.93Zm-10.57-8h3.19v0a10,10,0,0,0,1.57-.12,3.64,3.64,0,0,0,1.34-.49,2.61,2.61,0,0,0,.94-1,4.75,4.75,0,0,0,0-3.58,2.61,2.61,0,0,0-.94-1,3.46,3.46,0,0,0-1.35-.49,10.05,10.05,0,0,0-1.56-.12H298Zm-8.54,5.35-.71,2.58h-10l.36-.13a1.32,1.32,0,0,0,.61-.49,1.3,1.3,0,0,0,.23-.75V88.38a1.3,1.3,0,0,0-.23-.75,1.39,1.39,0,0,0-.61-.49l-.36-.13h9.53l.14,1.94-.34-.62a1.3,1.3,0,0,0-.47-.49,1.2,1.2,0,0,0-.68-.19h-5.79v6.57h3.69a1.27,1.27,0,0,0,.72-.21,1.38,1.38,0,0,0,.5-.57l.13-.31v2.66l-.13-.31a1.38,1.38,0,0,0-.5-.57,1.27,1.27,0,0,0-.72-.21h-3.69v7.19h5.93a2,2,0,0,0,.94-.23,2.26,2.26,0,0,0,.72-.66Zm-20-12.83,0,0h2.87l-.51.25a1.89,1.89,0,0,0-1,1.1l-6.06,14.15-3.38-7.91-3.39,7.91L252,88.33a1.87,1.87,0,0,0-1.15-1.15l-.26-.08h3.6l-.6.22a.72.72,0,0,0-.38.35.57.57,0,0,0,0,.51l5.19,12,2.74-6.35-2.36-5.53a1.87,1.87,0,0,0-1.15-1.15l-.27-.08h3.61l-.6.22a.71.71,0,0,0-.39.35.6.6,0,0,0,0,.51l5.2,12,5.19-12a.62.62,0,0,0,0-.5.67.67,0,0,0-.35-.37l-.46-.22h0Zm-25.33,2-.33-.62a1.41,1.41,0,0,0-.47-.5,1.31,1.31,0,0,0-.68-.19H238v13.45a1.3,1.3,0,0,0,.23.75,1.46,1.46,0,0,0,.61.49l.36.13h-3.61l.36-.13a1.38,1.38,0,0,0,.6-.49,1.24,1.24,0,0,0,.24-.75V87.69H232a1.31,1.31,0,0,0-.68.19,1.33,1.33,0,0,0-.47.5l-.34.62.14-2H244Zm-22.91-2h2.92l-.37.18a1.36,1.36,0,0,0-.57.49,1.27,1.27,0,0,0-.21.7v14.11L211.93,88.4v12.74a1.22,1.22,0,0,0,.21.69,1.36,1.36,0,0,0,.56.5l.38.18h-2.92l.37-.18a1.38,1.38,0,0,0,.57-.5,1.22,1.22,0,0,0,.21-.69V88.42a1.22,1.22,0,0,0-.21-.69,1.38,1.38,0,0,0-.57-.5l-.37-.18h2.19l10,12.78V88.42a1.22,1.22,0,0,0-.21-.69,1.36,1.36,0,0,0-.56-.5l-.38-.18Zm-21.12,15.5.59-.22a.71.71,0,0,0,.39-.35.61.61,0,0,0,0-.51l-2.21-5.13h-6l-2.21,5.13a.56.56,0,0,0,0,.49.62.62,0,0,0,.34.37l.51.24h-2.92l.51-.24a1.88,1.88,0,0,0,1-1.11l6.06-14.15,6.11,14.24a1.81,1.81,0,0,0,1.14,1.15l.27.09ZM195.9,89.42l-2.72,6.28h5.44Z"/><path fill="none" stroke-width="2px" stroke="#999"  d="M7.1,93.35V74.65C8.51,49.53,25.58,44.6,25.58,44.6s17.08,4.93,18.49,30.05v18.7M31.48,84.71V50.24c2-34.92,25.69-41.77,25.69-41.77s23.74,6.85,25.7,41.77V84.71"/><path fill="none" stroke-width="2px" stroke="#666"   d="M62.37,102.57V79.89c1.09-19.42,14.29-23.23,14.29-23.23S89.86,60.47,91,79.89v22.68"/></svg>