<svg id="belle-logo" class="logo" xmlns="http://www.w3.org/2000/svg" viewBox="0 0 278.13 301.69"><path fill="#231f20" d="M81.83 3.42l170.38 36.22 6.22 69.39h3.26l-6.36-70.88-1.28-1.44L81.33 0l-1.75.8-60.3 108.23h3.71L81.83 3.42zM265.44 187.27l3.11 34.62-160.35 76.34-94.9-110.96H9.03l97.52 114.01 1.93.41 162.48-77.36.92-1.61-3.18-35.45h-3.26z"/><path fill="#231f20" d="M86.49 69.44h22.03v28.37H86.49zM111.16 71.94h25.39v25.87h-25.39zM157.32 76.44h35.99v21.37h-35.99zM139.18 46.06h15.51v51.75h-15.51zM110.63 207.36a30.39 30.39 0 0 0 .18 5 .72.72 0 0 0 .57.35c.26 0 1.1.06 2.53.06h2.53a.91.91 0 0 0 .59-.12.67.67 0 0 0 .11-.44v-.16c0-.39-.1-.63-.3-.73a6.8 6.8 0 0 0-1.6-.09 18.52 18.52 0 0 1-1.89-.06.74.74 0 0 1-.61-.32 14.36 14.36 0 0 1-.27-4 28.19 28.19 0 0 0-.15-4.08c-.08-.3-.35-.45-.83-.45a1.63 1.63 0 0 0-.82.11.53.53 0 0 0-.1.37v3.5zM103.46 204H105c.82 0 1.23-.28 1.23-.85a.59.59 0 0 0-.33-.6 3.47 3.47 0 0 0-1.18-.14h-2.68a3 3 0 0 0-1.79.33c-.19.16-.28.68-.28 1.56s0 1.75-.1 2.64-.09 1.75-.09 2.59v1.3c0 1 .15 1.56.45 1.73a5.24 5.24 0 0 0 1.95.21h.82a19.29 19.29 0 0 0 2.77-.14c.4-.07.61-.25.61-.55a.66.66 0 0 0-.36-.69 7.15 7.15 0 0 0-2-.15 5.35 5.35 0 0 1-2-.22c-.24-.14-.36-.58-.36-1.33s.1-1.21.31-1.37a3.32 3.32 0 0 1 1.68-.25 9.49 9.49 0 0 0 1.53-.06c.23-.07.34-.28.34-.63s0-.57-.15-.65a4.07 4.07 0 0 0-1.5-.13 6.38 6.38 0 0 1-1.7-.13.52.52 0 0 1-.36-.55q0-1.45.33-1.74a2.7 2.7 0 0 1 1.32-.18zM133.68 206.85a2.39 2.39 0 0 0 .83-1.86c0-1.78-1.18-2.68-3.55-2.68h-1.06a11.44 11.44 0 0 0-2 .09c-.26.08-.39.37-.39.86v9.09c0 .09.47.41 1.2.41H131q3.92 0 3.92-2.94a2.64 2.64 0 0 0-.31-1.38 2.52 2.52 0 0 0-.57-.71 4.1 4.1 0 0 0-.51-.34q-.24-.13-.24-.18s.15-.15.39-.36zm-4.3-2.4v-.16c0-.24.05-.38.14-.42a2.68 2.68 0 0 1 .78-.07h.56c1.19 0 1.78.42 1.78 1.25v.25c0 .87-.62 1.3-1.86 1.3h-.95c-.29 0-.43-.13-.43-.4v-.31zm3.68 5.34a1.3 1.3 0 0 1-.47 1.07 2.24 2.24 0 0 1-1.45.39h-1a1.18 1.18 0 0 1-.59-.08c-.08 0-.12-.17-.12-.35V208.58v-.17c0-.25.24-.37.71-.37h1.41a1.53 1.53 0 0 1 1.08.41 1.33 1.33 0 0 1 .44 1.05zM145 207.77a3 3 0 0 0 .87-1 2.94 2.94 0 0 0 .32-1.39 3.41 3.41 0 0 0-.21-1.29q-.69-1.68-3.54-1.68h-.87a19.15 19.15 0 0 0-2 .06c-.29.05-.48.15-.55.33a47.52 47.52 0 0 0-.1 4.8v4.31a1.48 1.48 0 0 0 .11.77c.07.09.25.13.54.13h.21a1.07 1.07 0 0 0 .81-.23 3.73 3.73 0 0 0 .2-1.66 9.56 9.56 0 0 1 .1-1.82c.07-.26.28-.39.62-.39a1.66 1.66 0 0 1 1.13.31 6.78 6.78 0 0 1 1 1.72 9.69 9.69 0 0 0 .91 1.66 1.37 1.37 0 0 0 1.1.39c.51 0 .76-.1.76-.3a14.52 14.52 0 0 0-.86-1.82q-.87-1.68-1-2a1.37 1.37 0 0 1-.15-.31c.06-.11.24-.36.6-.59zm-.66-2.28a1.5 1.5 0 0 1-.51 1.23 3 3 0 0 1-1.85.42h-.67c-.31 0-.47-.13-.47-.41a1.52 1.52 0 0 0 0-.28v-1.71a1.62 1.62 0 0 1 0-.21c0-.32.06-.52.16-.57a3 3 0 0 1 1-.09h.37a2.51 2.51 0 0 1 1.5.36 1.3 1.3 0 0 1 .47 1.12zM72.25 202.68c0-.15-.24-.22-.54-.22q-.81 0-1 .33a4.28 4.28 0 0 0-.2 1.75 6.46 6.46 0 0 1-.15 1.8c-.1.25-.47.38-1.12.38a6.64 6.64 0 0 1-2.41-.22 1.14 1.14 0 0 1-.39-.77s0-.45-.06-1.24a5.83 5.83 0 0 0-.15-1.42.75.75 0 0 0-.78-.49c-.57 0-.85.14-.85.41V211a13.14 13.14 0 0 0 0 1.33c.06.2.32.3.79.3s.76-.15.86-.44a7.14 7.14 0 0 0 .16-2 4.58 4.58 0 0 1 .17-1.76c.15-.22.74-.32 1.77-.32a5.46 5.46 0 0 1 1.78.14c.23.15.34.79.34 1.93a9.8 9.8 0 0 0 .1 2c.13.37.49.55 1.08.55s.65-.14.65-.43v-2.11-5.72a9.38 9.38 0 0 0-.05-1.79zM91.44 207.87v1.31c0 .13 0 .61-.05 1.45V211.55a3.28 3.28 0 0 0 .1 1c.07.14.23.2.49.2h.36c.47 0 .74-.08.8-.26a10.23 10.23 0 0 0 .09-1.91l.06-3.29a10.12 10.12 0 0 1 .22-3c.15-.27.57-.41 1.26-.41a2.77 2.77 0 0 0 1.31-.19.72.72 0 0 0 .29-.66c0-.33-.08-.52-.22-.59a3.24 3.24 0 0 0-1.08-.11h-5.22a4.35 4.35 0 0 0-1.16.1.49.49 0 0 0-.25.49v.16c0 .52.3.79.88.79h1a1.71 1.71 0 0 1 .76.1.82.82 0 0 1 .24.44 21.1 21.1 0 0 1 .09 2.81v.55zM80.69 212.93h.17a4.36 4.36 0 0 0 1.74-.35 3.82 3.82 0 0 0 1.38-.93 4.23 4.23 0 0 0 .86-1.61 7.57 7.57 0 0 0 .32-2.26v-.5a7 7 0 0 0-.3-2.1 4.44 4.44 0 0 0-.78-1.54 4 4 0 0 0-1.32-1 4.38 4.38 0 0 0-1.87-.39h-.35a4.21 4.21 0 0 0-1.88.41 3.71 3.71 0 0 0-1.34 1 4.27 4.27 0 0 0-.78 1.6 7.43 7.43 0 0 0-.29 2.14v.35a8.54 8.54 0 0 0 .24 2.08 3.89 3.89 0 0 0 4.2 3.1zm-2.57-5.49a4.86 4.86 0 0 1 .64-2.72 2 2 0 0 1 1.75-.93h.34a2 2 0 0 1 1 .25c.94.53 1.41 1.62 1.41 3.26v.57a4.56 4.56 0 0 1-.64 2.61 2 2 0 0 1-1.74.93h-.34a2.2 2.2 0 0 1-1.87-1.07 4.54 4.54 0 0 1-.57-2.55zM195.31 207.36a30.39 30.39 0 0 0 .18 5 .72.72 0 0 0 .57.35c.25 0 1.1.06 2.52.06h2.53a1 1 0 0 0 .6-.12.68.68 0 0 0 .1-.44v-.16c0-.39-.1-.63-.29-.73a6.86 6.86 0 0 0-1.6-.09 18.52 18.52 0 0 1-1.89-.06.73.73 0 0 1-.61-.32 14.36 14.36 0 0 1-.27-4 28.19 28.19 0 0 0-.15-4.08c-.08-.3-.36-.45-.83-.45a1.63 1.63 0 0 0-.82.11.53.53 0 0 0-.1.37v3.5zM176.89 211.32a4.67 4.67 0 0 1-1.83-.44 5.7 5.7 0 0 0-1.15-.43.64.64 0 0 0-.37.21.78.78 0 0 0-.22.58 1 1 0 0 0 .29.67 3.66 3.66 0 0 0 1.12.64 6.27 6.27 0 0 0 2.33.35 3.78 3.78 0 0 0 2.46-.79 2.55 2.55 0 0 0 .95-2.07v-.25a2.55 2.55 0 0 0-.19-1 2.64 2.64 0 0 0-.75-1 6.45 6.45 0 0 0-1.95-1 11.89 11.89 0 0 1-1.65-.71 1.34 1.34 0 0 1-.62-1.14 1 1 0 0 1 .42-.79 1.56 1.56 0 0 1 1-.35 4.19 4.19 0 0 1 1.61.26 10.69 10.69 0 0 0 1.13.44.47.47 0 0 0 .43-.25 1.1 1.1 0 0 0 .15-.57c0-.37-.31-.68-.94-1a5.08 5.08 0 0 0-1.92-.4H177a4.81 4.81 0 0 0-1.47.23 2.61 2.61 0 0 0-2 2.69 2.35 2.35 0 0 0 .63 1.72 5.84 5.84 0 0 0 2.06 1.19 11 11 0 0 1 1.78.89 1.31 1.31 0 0 1 .59 1.14c.03.77-.59 1.18-1.7 1.18zM208.74 211.32a4.67 4.67 0 0 1-1.83-.44 5.73 5.73 0 0 0-1.14-.43.64.64 0 0 0-.38.21.78.78 0 0 0-.22.58 1 1 0 0 0 .29.67 3.66 3.66 0 0 0 1.12.64 6.27 6.27 0 0 0 2.33.35 3.78 3.78 0 0 0 2.46-.79 2.53 2.53 0 0 0 .95-2.07v-.25a2.55 2.55 0 0 0-.19-1 2.64 2.64 0 0 0-.75-1 6.45 6.45 0 0 0-1.95-1 11.89 11.89 0 0 1-1.65-.71 1.37 1.37 0 0 1-.62-1.14 1 1 0 0 1 .42-.79 1.58 1.58 0 0 1 1-.35 4.19 4.19 0 0 1 1.61.26 9.47 9.47 0 0 0 1.14.44.46.46 0 0 0 .42-.25 1.1 1.1 0 0 0 .15-.57c0-.37-.31-.68-.94-1a5 5 0 0 0-1.92-.4h-.26a4.86 4.86 0 0 0-1.47.23 2.61 2.61 0 0 0-2 2.69 2.32 2.32 0 0 0 .64 1.72 5.69 5.69 0 0 0 2 1.19 11 11 0 0 1 1.84.83 1.32 1.32 0 0 1 .6 1.14c.08.83-.5 1.24-1.65 1.24zM166 211.32a4.67 4.67 0 0 1-1.83-.44 6 6 0 0 0-1.14-.43.64.64 0 0 0-.38.21.78.78 0 0 0-.22.58 1 1 0 0 0 .29.67 3.66 3.66 0 0 0 1.12.64 6.27 6.27 0 0 0 2.33.35 3.78 3.78 0 0 0 2.46-.79 2.55 2.55 0 0 0 1-2.07v-.25a2.55 2.55 0 0 0-.19-1 2.64 2.64 0 0 0-.75-1 6.45 6.45 0 0 0-1.95-1 11.89 11.89 0 0 1-1.65-.71 1.34 1.34 0 0 1-.62-1.14 1 1 0 0 1 .42-.79 1.56 1.56 0 0 1 1-.35 4.19 4.19 0 0 1 1.61.26 10.69 10.69 0 0 0 1.13.44.47.47 0 0 0 .43-.25 1.1 1.1 0 0 0 .15-.57c0-.37-.31-.68-.94-1a5 5 0 0 0-1.92-.4h-.26a4.81 4.81 0 0 0-1.47.23 2.61 2.61 0 0 0-2 2.69 2.35 2.35 0 0 0 .63 1.72 5.84 5.84 0 0 0 2.06 1.19 11 11 0 0 1 1.84.83 1.31 1.31 0 0 1 .59 1.14c-.01.83-.59 1.24-1.74 1.24zM150.52 207.6a18.83 18.83 0 0 0 .11 2.65 3.06 3.06 0 0 0 .49 1.21 3.4 3.4 0 0 0 3 1.4h.28a5.13 5.13 0 0 0 2-.41 2.87 2.87 0 0 0 1.84-2.22 13.66 13.66 0 0 0 .14-2.25v-1.51-1.77-2s-.3-.28-.78-.28-.76.17-.86.52a15.09 15.09 0 0 0-.1 2.44V207.7a6.34 6.34 0 0 1-.4 2.76 1.7 1.7 0 0 1-1.6.89 1.89 1.89 0 0 1-1.61-.68 3.48 3.48 0 0 1-.52-2.08v-1.28a21.69 21.69 0 0 0-.25-4.06.75.75 0 0 0-.36-.59 2.11 2.11 0 0 0-.82-.12c-.36 0-.55.14-.55.43v1.38c-.03.83-.01 1.92-.01 3.25zM188.13 204h1.58c.82 0 1.23-.28 1.23-.85a.59.59 0 0 0-.33-.6 3.47 3.47 0 0 0-1.18-.14h-2.68a3.1 3.1 0 0 0-1.8.33q-.27.24-.27 1.56c0 .87 0 1.75-.1 2.64s-.09 1.75-.09 2.59v1.3c0 1 .15 1.56.45 1.73a5.21 5.21 0 0 0 1.94.21h.78a19.29 19.29 0 0 0 2.77-.14c.4-.07.6-.25.6-.55s-.11-.59-.35-.69a7.25 7.25 0 0 0-2-.15 5.32 5.32 0 0 1-2-.22c-.24-.14-.37-.58-.37-1.33s.11-1.21.32-1.37a3.28 3.28 0 0 1 1.67-.25 9.57 9.57 0 0 0 1.54-.06c.22-.07.34-.28.34-.63s-.05-.57-.15-.65a4.07 4.07 0 0 0-1.5-.13 6.48 6.48 0 0 1-1.71-.13.53.53 0 0 1-.35-.55q0-1.45.33-1.74a2.67 2.67 0 0 1 1.33-.18zM126.2 242.87a.53.53 0 0 0 .16.38.61.61 0 0 0 .43.15l.56-.07c.14 0 .23.11.28.32a10.76 10.76 0 0 1 .07 1.52 9.63 9.63 0 0 1-.06 1.45 2.79 2.79 0 0 1-.28.68 1.69 1.69 0 0 0-.23.87 1.16 1.16 0 0 0 .16.68.93.93 0 0 0 .81.43h.24a1.43 1.43 0 0 0 .83-.17 1.05 1.05 0 0 0 .41-.9v-.11a2 2 0 0 0-.22-.9 2.28 2.28 0 0 1-.24-.57v-2.49-2.45a.48.48 0 0 0-.55-.4h-.11a4.7 4.7 0 0 0-1.75 1c-.35.24-.51.43-.51.58zM134.22 248.14h-.45c-.66 0-1 .23-1 .55a.59.59 0 0 0 .28.51 1.55 1.55 0 0 0 .87.2h.13a3.77 3.77 0 0 0 1.62-.38 3.22 3.22 0 0 0 1.26-1 5.41 5.41 0 0 0 .83-3.3v-.16a5.92 5.92 0 0 0-.18-1.52 2.25 2.25 0 0 0-1.38-1.6 3.2 3.2 0 0 0-1.22-.24 2.82 2.82 0 0 0-2.13.74 2.77 2.77 0 0 0-.71 2 2.19 2.19 0 0 0 1.49 2.27 2.46 2.46 0 0 0 .84.17h1.16c.27 0 .4.11.4.34a1 1 0 0 1-.22.54 2.27 2.27 0 0 1-1.59.88zM136 245a1.33 1.33 0 0 1-1 .33h-.2a1.18 1.18 0 0 1-.91-.38 1.35 1.35 0 0 1-.35-1v-.2a1.44 1.44 0 0 1 .27-.92 1.24 1.24 0 0 1 1-.49h.2a1.23 1.23 0 0 1 .89.39 1.28 1.28 0 0 1 .39.92.82.82 0 0 0 0 .14v.25a1.22 1.22 0 0 1-.29.96zM142.81 241.29a2.65 2.65 0 0 0-2.19 1 3.51 3.51 0 0 0-.56 1.18 6.28 6.28 0 0 0-.23 1.77v.51a6 6 0 0 0 .25 1.74 2.58 2.58 0 0 0 1.41 1.76 2.65 2.65 0 0 0 1.08.23h.28a2.7 2.7 0 0 0 1.31-.34 2.94 2.94 0 0 0 1.38-2 6.66 6.66 0 0 0 .18-1.56V245a6.22 6.22 0 0 0-.24-1.75 2.56 2.56 0 0 0-2.67-1.96zm1.48 4.07v.34a1.88 1.88 0 0 1 0 .24 3.4 3.4 0 0 1-.44 1.83 1.07 1.07 0 0 1-1 .57h-.15c-1 0-1.43-.93-1.43-2.77v-.67a3.53 3.53 0 0 1 .45-1.93 1.18 1.18 0 0 1 1-.54h.07q1.44 0 1.44 2.76zM148.8 242.54a3.82 3.82 0 0 0-.65 1.39 7.47 7.47 0 0 0-.23 1.89v.32c0 1.66.54 2.68 1.62 3.08a3.44 3.44 0 0 0 1.2.21 3.24 3.24 0 0 0 1.2-.23 2.36 2.36 0 0 0 .93-.61 2.74 2.74 0 0 0 .65-1.92 2.29 2.29 0 0 0-.7-1.82 2.65 2.65 0 0 0-1.83-.62h-.54a2 2 0 0 0-.35 0c-.29 0-.43-.1-.43-.3a1.22 1.22 0 0 1 .67-1 3 3 0 0 1 1.26-.42 6.53 6.53 0 0 0 .84-.13.5.5 0 0 0 .37-.46c0-.47-.35-.7-1-.7h-.14a3.7 3.7 0 0 0-1.63.37 3.32 3.32 0 0 0-1.24.95zm1.73 2.74h.47a1 1 0 0 1 .82.39 1.45 1.45 0 0 1 .32.92v.25a1.42 1.42 0 0 1-.39 1 1.28 1.28 0 0 1-.93.38h-.16a1.24 1.24 0 0 1-.88-.39 1.28 1.28 0 0 1-.39-.94 1 1 0 0 0 0-.15v-.44a.9.9 0 0 1 .25-.66 1.25 1.25 0 0 1 .89-.36zM0 116.59h278.13v3.25H0zM0 174.69h278.13v3.24H0zM14.74 161.64h2.79a1.92 1.92 0 0 0 1.73-1.23l9-26.3a.93.93 0 0 0-.86-1.23H24a1.72 1.72 0 0 0-1.65 1.27l-6.12 20.79-6.34-20.79a1.75 1.75 0 0 0-1.68-1.27H4.8a.94.94 0 0 0-.91 1.23l9.11 26.3a1.88 1.88 0 0 0 1.74 1.23zM41.66 161.64a1.74 1.74 0 0 0 1.64-1.27l1.81-5.67h9.49l1.85 5.71a1.88 1.88 0 0 0 1.73 1.23h3.41a.89.89 0 0 0 .86-1.23l-9.37-26.3a2 2 0 0 0-1.76-1.23h-2.84a1.92 1.92 0 0 0-1.73 1.23l-9.32 26.3a.89.89 0 0 0 .86 1.23zm8.14-22.06l3.41 10.68h-6.74zM81.65 132.88h-3.37a1.3 1.3 0 0 0-1.28 1.31v26.14a1.3 1.3 0 0 0 1.32 1.31h3a1.28 1.28 0 0 0 1.27-1.31l-.16-17 9.49 17.17a2.28 2.28 0 0 0 1.93 1.15h3.49a1.32 1.32 0 0 0 1.32-1.31v-26.15a1.32 1.32 0 0 0-1.32-1.31h-3a1.23 1.23 0 0 0-1.34 1.31l.12 17.1-9.5-17.29a2.34 2.34 0 0 0-1.97-1.12zM147.28 141.88v-1.24c0-5.13-3.37-7.76-9.54-7.76h-9.49a1.29 1.29 0 0 0-1.31 1.31v26.14a1.29 1.29 0 0 0 1.31 1.31h10.56c6.21 0 9.08-3.12 9.08-7.39v-1.44a6.3 6.3 0 0 0-3.49-5.71 6.38 6.38 0 0 0 2.88-5.22zm-14.63-4.36h5.18c2.5 0 3.69.95 3.69 3.74v.29c0 2.63-1.11 3.78-2.75 3.78h-6.12zm9.53 16.27c0 1.9-1 3.25-3.45 3.25h-6.08v-7.44h6.49c2 0 3 1.36 3 3.41zM179.5 137.56a1.28 1.28 0 0 0 1.27-1.27v-2.1a1.29 1.29 0 0 0-1.27-1.31h-15.29a1.29 1.29 0 0 0-1.31 1.31v26.14a1.29 1.29 0 0 0 1.31 1.31h15.57a1.3 1.3 0 0 0 1.32-1.31v-2.06a1.29 1.29 0 0 0-1.32-1.27h-11.17v-7h8.83a1.32 1.32 0 0 0 1.28-1.31v-2a1.29 1.29 0 0 0-1.28-1.31h-8.83v-7.77zM200.17 132.88h-3.12a1.3 1.3 0 0 0-1.32 1.31v26.14a1.3 1.3 0 0 0 1.32 1.31h15.16a1.29 1.29 0 0 0 1.31-1.31v-2.06a1.28 1.28 0 0 0-1.31-1.27h-10.77v-22.81a1.28 1.28 0 0 0-1.27-1.31zM231 132.88h-3.12a1.3 1.3 0 0 0-1.32 1.31v26.14a1.3 1.3 0 0 0 1.32 1.31H243a1.3 1.3 0 0 0 1.32-1.31v-2.06A1.29 1.29 0 0 0 243 157h-10.73v-22.81a1.29 1.29 0 0 0-1.27-1.31zM273.12 137.56a1.28 1.28 0 0 0 1.27-1.27v-2.1a1.29 1.29 0 0 0-1.27-1.31h-15.29a1.3 1.3 0 0 0-1.32 1.31v26.14a1.3 1.3 0 0 0 1.32 1.31h15.57a1.3 1.3 0 0 0 1.32-1.31v-2.06a1.29 1.29 0 0 0-1.32-1.27h-11.17v-7h8.83a1.31 1.31 0 0 0 1.27-1.31v-2a1.28 1.28 0 0 0-1.27-1.31h-8.83v-7.77z"/></svg>