<svg class="logo" id="alessandra-logo" x="0" y="0" width="200" height="95" viewBox="0 0 756 504" version="1.1" xmlns="http://www.w3.org/2000/svg" xmlns:xlink="http://www.w3.org/1999/xlink">
<defs>
<clipPath id="c0_1"><path d="M.1,504.1V.3H755.8V504.1Z" /></clipPath>
<style type="text/css"><![CDATA[
.g0_1{
fill: #231F20;
}
]]></style>
</defs>
<path d="M0,0
L0,504
L756,504
L756,0 Z " 
fill="#FFFFFF" stroke="none" />
<path d="M663.5,501.8L638.3,459.9H618.8v41.9h-2.5V418.7h23c12.3,0,26.1,3.7,26.1,20.5c0,15.5,-13.3,20.5,-24.2,20.6l25.2,42h-2.9ZM637.9,420.9H618.8v36.8h20.4c15.2,0,23.6,-6.7,23.6,-18.5c0,-14.5,-12.3,-18.3,-24.9,-18.3Z" class="g0_1" />
<path d="M87.2,501.8V418.7h2.6v80.8h41.3v2.3H87.2Z" class="g0_1" />
<path d="M145.7,501.8V418.7h48.4V421H148.2v36.6h43.2v2.3H148.2v39.6H196v2.3H145.7Z" class="g0_1" />
<g clip-path="url(#c0_1)">
<path d="M235.8,504.2c-10.3,0,-19.1,-4,-24.8,-10.2l2,-1.8c6,6.3,14.2,9.6,22.7,9.6c12.2,0,22.8,-7.3,22.8,-19.9c0,-12.8,-11.5,-17.1,-22.6,-20.6C222.2,457,212.5,452.1,212.5,438c0,-13.8,11.8,-21.7,25.7,-21.7c8.4,0,16.5,3.3,21.3,9.3l-2,1.8C253.2,421.8,246,418.7,238,418.7c-11.1,0,-22.9,6.3,-22.9,19.3c0,13,10.4,17.2,20.7,20.6c14.1,4.6,25.3,9,25.3,23.3c0,14.2,-11.7,22.3,-25.3,22.3Z" class="g0_1" />
<path d="M304.6,504.2c-10.3,0,-19.1,-4,-24.8,-10.2l2,-1.8c6,6.3,14.2,9.6,22.7,9.6c12.2,0,22.8,-7.3,22.8,-19.9c0,-12.8,-11.5,-17.1,-22.6,-20.6C291,457,281.3,452.1,281.3,438c0,-13.8,11.8,-21.7,25.7,-21.7c8.4,0,16.5,3.3,21.3,9.3l-2,1.8c-4.3,-5.6,-11.5,-8.7,-19.5,-8.7c-11.1,0,-22.9,6.3,-22.9,19.3c0,13,10.4,17.2,20.7,20.6c14.1,4.6,25.3,9,25.3,23.3c0,14.2,-11.7,22.3,-25.3,22.3Z" class="g0_1" />
</g>
<path d="M411.6,501.8L401.7,478H353.5l-10.2,23.8h-2.9l36.1,-83.1h3.3l34.6,83.1h-2.8ZM378,420.3l-23.6,55.5h46.5L378,420.3Z" class="g0_1" />
<g clip-path="url(#c0_1)">
<path d="M71.2,501.8L61.3,478H13L2.8,501.8H0L36.1,418.7h3.3L74,501.8H71.2ZM37.6,420.3L14,475.8H60.5L37.6,420.3Z" class="g0_1" />
</g>
<path d="M753,501.8L743.1,478H694.9l-10.3,23.8h-2.8l36.1,-83.1h3.3l34.6,83.1H753ZM719.4,420.3l-23.6,55.5h46.5L719.4,420.3Z" class="g0_1" />
<path d="M493.4,501.8L433.8,422h-.4v79.8h-2.6V418.7h3.7l59.8,79.7h.3V418.7h2.6v83.1h-3.8Z" class="g0_1" />
<path d="M549.4,501.8H525.8V418.7h23.6c25.9,0,45.9,12.7,45.9,41.5c0,28.8,-20,41.6,-45.9,41.6M528.5,421v78.5h20.3c24.6,0,43.8,-11.8,43.8,-39.3C592.6,432.6,573.4,421,548.8,421H528.5Z" class="g0_1" />
<path d="M349.3,184.4H336.6V237h-8.5v12.6h29.6V237h-8.4V184.4Z" class="g0_1" />
<path d="M461.3,129.7V117.1H431.7v12.6h8.5v31.1H421.3V96.5h12.5V83.8H323.9V96.5h12.7v64.3H315.7V129.7h8.4V117.1H294.5v12.6H303v74.9h-8.5v12.7h29.6V204.6h-8.4V173.5h82V160.8H349.3V96.5h59.3V237h-8.4v12.6h29.5V237h-8.4V173.5h18.9v31.1h-8.5v12.7h29.6V204.6h-8.4V129.7h8.4Z" class="g0_1" />
<path d="M495,47.4H457.5l-3.4,12.7h28.2V206.4c0,51.7,-88,96.4,-104.4,104.3C361.5,302.8,273.5,258.1,273.5,206.4V60.1h28.3L298.4,47.4H260.9v159c0,64.8,109.7,115,114.4,117.1l2.6,1.2l2.6,-1.2C385.2,321.4,495,271.2,495,206.4V47.4Z" class="g0_1" />
<path d="M437.7,60.1H318.1L302,.3h45V6.6c0,4.1,3.3,7.4,7.4,7.4c4,0,7.4,-3.3,7.4,-7.4V.3h33.1V6.6c0,4.1,3.3,7.4,7.4,7.4c4.1,0,7.4,-3.3,7.4,-7.4V.3h44.1L437.7,60.1ZM327.8,47.4H428L437.3,13h-16c-2.6,7.9,-10.2,13.7,-19,13.7c-8.9,0,-16.4,-5.8,-19.1,-13.7h-9.8c-2.6,7.9,-10.2,13.7,-19,13.7C345.5,26.7,338,20.9,335.3,13H318.6l9.2,34.4Z" class="g0_1" />
<path d="M282.3,350.1h11.2v3.7h-3.3V379h3.3v3.7H282.3V379h3.5V367.3H268.5V379H272v3.7H260.9V379h3.2V353.8h-3.2v-3.7H272v3.7h-3.5v9.9h17.3v-9.9h-3.5v-3.7Z" class="g0_1" />
<path d="M372.5,379h3.2V353.6h-8.9v5.1h-4.6v-8.6h31.4v8.6H389v-5.1h-8.9V379h3.5v3.7H372.5V379Z" class="g0_1" />
<path d="M412.9,350.1h29.6v9.2h-4.6v-5.5H420.6v10.5h12.9V368H420.6v11h17.3v-5.5h4.6v9.2H412.9V379h3.3V353.8h-3.3v-3.7Z" class="g0_1" />
<path d="M465.4,350.1h11.1v3.7h-3.4V379h15.6c.2,0,.4,0,.7,-.2c.2,-.1,.4,-.2,.6,-.4c.2,-.1,.4,-.3,.5,-.6c.1,-.2,.2,-.4,.2,-.6v-4.1H495v9.6H465.4V379h3.3V353.8h-3.3v-3.7Z" class="g0_1" />
<path d="M329,350.1c-9,0,-16.2,7.3,-16.2,16.3c0,9,7.2,16.2,16.2,16.2c9,0,16.3,-7.2,16.3,-16.2c0,-9,-7.3,-16.3,-16.3,-16.3Zm0,4.3c6.6,0,12,5.4,12,12c0,6.6,-5.4,12,-12,12c-6.6,0,-12,-5.4,-12,-12c0,-6.6,5.4,-12,12,-12Z" class="g0_1" />
</svg>