<svg xmlns="http://www.w3.org/2000/svg" version="1.1" id="cachet-print-logo" class="logo" x="0px" y="0px" viewBox="0 0 699.67 314.6"><path d="M70.81,1.92A71.91,71.91,0,0,0,53.63,0,65.89,65.89,0,0,0,32,3.42a47.77,47.77,0,0,0-17,10,45.45,45.45,0,0,0-11,16.13A56.51,56.51,0,0,0,0,51.23,56.49,56.49,0,0,0,3.94,72.88,46.32,46.32,0,0,0,14.83,89a44.23,44.23,0,0,0,16.56,9.83A65.42,65.42,0,0,0,52.22,102a58.51,58.51,0,0,0,10.14-.86c3.2-.56,6.14-1.21,8.75-1.92a39,39,0,0,0,6.75-2.45,18.48,18.48,0,0,0,4.19-2.58l.2-.17,1.37-9-1.29-1.29-.52.4c-1.3,1-2.93,2.23-4.84,3.58a47.09,47.09,0,0,1-6.39,3.74,49.55,49.55,0,0,1-7.79,3,32.34,32.34,0,0,1-9.17,1.24,43,43,0,0,1-15.18-2.63,32.27,32.27,0,0,1-12.14-8.07,38.13,38.13,0,0,1-8.09-13.84,61.49,61.49,0,0,1-2.92-20,61.56,61.56,0,0,1,2.92-20A38.12,38.12,0,0,1,26.31,17.4,32.35,32.35,0,0,1,38.45,9.33,43,43,0,0,1,53.63,6.7,30.09,30.09,0,0,1,62.72,8a37.34,37.34,0,0,1,7.47,3.25,43.51,43.51,0,0,1,5.82,4A30.82,30.82,0,0,1,79.87,19l.32.39,1.74-.58.08-.43c.3-1.62.68-3.51,1.13-5.63a17.88,17.88,0,0,1,1.75-5.15l.41-.71-.74-.33A81.36,81.36,0,0,0,70.81,1.92Z" fill="#fff"/><path d="M205.45,89.3C203.5,84.95,201.32,80,199,74.56c-2.55-5.86-5.13-11.86-7.68-17.84-2.72-6.37-5.47-12.87-8.18-19.32s-5.44-13-8-19.25S170,5.91,167.72.46L167.53,0h-3.66l-.19.45C156.55,16.8,149.2,33.5,141.82,50.09,134.54,66.43,127,82.95,119.54,99.16l-.56,1.2,1.31-.16a48.26,48.26,0,0,1,10.26,0l.63.07.17-.61c1.23-4.35,3.07-9.85,5.49-16.38s5.07-13.36,8-20.48c2.64-.08,5.37-.15,8.12-.19,5.69-.1,12-.09,17.89,0,3,0,5.92.11,8.68.19,1.22,3.09,2.49,6.24,3.77,9.36l3.13,7.64,1,2.52c1.43,3.51,2.65,6.64,3.73,9.57s2,5.59,2.67,7.79l.18.61.63-.09a25.78,25.78,0,0,1,3.63-.27h7.48a25.69,25.69,0,0,1,3.63.27l1.46.21-.7-1.29C208.92,96.86,207.34,93.55,205.45,89.3ZM176.93,54.9c-2.33.08-4.61.14-6.8.17-5.07.09-10.16.12-15.47-.07-2.25-.08-4.43-.12-6.52-.14l14.25-33.23Z" fill="#fff"/><path d="M318.91,1.92A71.85,71.85,0,0,0,301.74,0a65.92,65.92,0,0,0-21.69,3.42,47.78,47.78,0,0,0-17,10,45.47,45.47,0,0,0-11,16.13,56.43,56.43,0,0,0-3.94,21.65A56.42,56.42,0,0,0,252,72.88,46.26,46.26,0,0,0,262.94,89a44.27,44.27,0,0,0,16.56,9.83A65.44,65.44,0,0,0,300.33,102a58.44,58.44,0,0,0,10.14-.86c3.2-.56,6.14-1.21,8.74-1.92A39,39,0,0,0,326,96.82a18.6,18.6,0,0,0,4.19-2.58l.2-.17,1.37-9-1.29-1.29-.51.4c-1.3,1-2.93,2.23-4.84,3.58a47.16,47.16,0,0,1-6.38,3.74,49.83,49.83,0,0,1-7.79,3,32.41,32.41,0,0,1-9.17,1.24,43,43,0,0,1-15.18-2.63,32.3,32.3,0,0,1-12.14-8.07,38,38,0,0,1-8.09-13.84,61.44,61.44,0,0,1-2.92-20,61.51,61.51,0,0,1,2.92-20,38.05,38.05,0,0,1,8.09-13.84,32.35,32.35,0,0,1,12.14-8.07A43,43,0,0,1,301.74,6.7,30.09,30.09,0,0,1,310.83,8a37.37,37.37,0,0,1,7.46,3.25,43.63,43.63,0,0,1,5.82,4A30.65,30.65,0,0,1,328,19l.32.39,1.74-.58.08-.43c.3-1.62.68-3.51,1.12-5.63A18,18,0,0,1,333,7.59l.4-.71-.74-.33A81.22,81.22,0,0,0,318.91,1.92Z" fill="#fff"/><path d="M469.27,20.87c.24-6.1.5-12.25.78-18.26l0-.9-.89.14c-1.25.19-2.43.36-3.5.49a27,27,0,0,1-6.59,0c-1.08-.14-2.26-.3-3.5-.49l-.89-.14,0,.9c.29,6.25.54,12.4.77,18.26.24,6,.35,12.18.35,18.24v4.21l-14,.27c-9.58.18-19.89.18-29.45,0l-14-.27V39.1c0-6.11.12-12.24.36-18.24s.49-12,.77-18.26l0-.9-.89.14c-1.25.19-2.42.36-3.51.49a26.92,26.92,0,0,1-6.59,0c-1.1-.14-2.24-.3-3.5-.49l-.89-.14,0,.9c.27,6.18.54,12.32.77,18.26s.35,12.16.35,18.24V63.37c0,6.08-.12,12.24-.35,18.3s-.5,12-.77,17.77l0,.84.84-.07c2.1-.18,4.4-.27,6.84-.27s4.74.09,6.84.27l.84.07,0-.84c-.28-5.87-.54-11.84-.77-17.77s-.36-12.2-.36-18.3v-12c5-.09,9.61-.15,14-.19,5,0,10-.07,14.73-.07s9.66,0,14.73.07c4.4,0,9,.11,14,.19v12c0,6.05-.12,12.21-.35,18.3-.23,5.93-.49,11.91-.77,17.77l0,.84.84-.07c2.1-.18,4.41-.27,6.85-.27s4.74.09,6.84.27l.85.07,0-.84c-.28-5.71-.54-11.69-.78-17.77s-.36-12.2-.36-18.3V39.1C468.91,33,469,26.86,469.27,20.87Z" fill="#fff"/><path d="M581.73,91.63l.34-1.18-1.2.25a62.38,62.38,0,0,1-7.87,1c-3,.23-6.23.42-9.71.57s-7,.21-10.48.21h-9.17c-.08-1.7-.14-4.05-.18-7.17,0-3.37-.08-7.71-.08-13.25v-14c0-1.54,0-2.75.08-3.7,0-.7.05-1.39.06-2,1.61,0,3.66,0,6.1.06l9.17.14c3.31.05,6.58.17,9.7.35s6,.43,8.49.7l1,.12-.2-1a20.84,20.84,0,0,1-.41-4.09,21.46,21.46,0,0,1,.41-4.22l.19-1-1,.09c-2,.18-4.12.34-6.53.49s-4.82.28-7.54.42c-2.88.15-5.91.27-9,.35s-6.46.14-10.38.14c0-1.8,0-4.2-.07-7.17,0-3.37-.08-6.88-.08-10.71,0-3.36.08-6.48.22-9.27.13-2.42.24-5,.33-7.9,4.28,0,8,.08,11.1.21,3.31.14,6.36.31,9.08.49l7.89.56c2.36.18,5.06.37,8.26.56l1,.06-.19-.94a21.08,21.08,0,0,1-.41-4.09A21.08,21.08,0,0,1,581,2.71l.18-.92-.94,0c-4.34.19-8.56.36-12.55.5-8.1.28-16.95.28-25.13,0-4-.14-8.27-.3-12.61-.5l-.81,0,0,.81c.28,5.87.53,11.94.78,18s.35,12.25.35,18.31V63.22c0,6.06-.12,12.19-.35,18.24s-.5,12.12-.78,18l0,.81.81,0c4.23-.19,8.54-.28,12.8-.28H568.4c4.21,0,8.44.09,12.58.28l1,0-.29-1a12.63,12.63,0,0,1-.39-3.46c0-.67,0-1.39.07-2.14A9.65,9.65,0,0,1,581.73,91.63Z" fill="#fff"/><path d="M699.36,11.26a16,16,0,0,1-.67-4.18,18.94,18.94,0,0,1,.68-4.33l.23-.95-1,0c-6.38.19-12.5.36-18.19.5s-11.92.21-18.18.21-12.37-.07-18.18-.21-11.69-.3-18.19-.5l-1,0,.23.95a18.61,18.61,0,0,1,.69,4.19,16.33,16.33,0,0,1-.68,4.32l-.31,1.09,1.12-.16c1.92-.28,4.1-.51,6.65-.7s5.15-.36,7.74-.49,5.31-.23,8-.28c2.36,0,4.7-.07,7-.07.26,9.37.4,18.94.4,28.46V63.37c0,6.2-.12,12.36-.35,18.3s-.5,12.06-.78,17.77l0,.84.85-.07c2.1-.18,4.4-.27,6.84-.27s4.75.09,6.85.27l.84.07,0-.84c-.28-5.81-.54-11.79-.78-17.77s-.35-12.18-.35-18.3V39.1c0-9.44.13-19,.4-28.46,2.26,0,4.6,0,7,.07,2.71,0,5.4.14,8,.28s5.21.3,7.74.49,4.73.43,6.65.7l1.12.16Z" fill="#fff"/><path d="M392.93,180.1a9.25,9.25,0,0,0,1.76-.18,13.44,13.44,0,0,0,5.2-2.3c1.91-1.41,2.78-2.89,2.51-4.29-.37-1.94-2.56-3.14-5.71-3.14a13.85,13.85,0,0,0-2.62.26c-4.34.84-7.14,3.28-6.66,5.79C387.77,178.16,389.63,180.1,392.93,180.1Z" fill="#fff"/><path d="M602.64,197.62S586.35,208,574.93,208c-7.51,0-10.9-3.77-12.21-5.9l24.66-9c-6.88-15.94-41.54-9.35-36.3,8.4,0,0-8.05,2.82-14.41,2.82-13.87,0-8.41-18-8.41-18-5.3-2.78-8.8-.18-8.8-.18s-25.78,26.63-25,20.89c.21-1.6,5.65-11.77,5.65-11.77s.3-9.39-15.42-3.5C471,198.67,459.33,210,446,224.57l9.54-25s-1.76-4.4-12.28,2.3c-2.3,1.47-17.9,11.68-18.4,4.54-.67-9.37,13.71-14.71,20.76-14.12a11.05,11.05,0,0,0,1.74-3.74s-24.51-5.49-32.15,13.86c-10.56,4.45-26,9.56-29.12,4.3-2.57-4.29,7-17.33,7-17.33-6.93-5.94-12-1.82-12-1.82s-1.18,1.72-2.07,3.09c-4.1,3.84-25.54,19.81-34.33,17.67-6.2-1.5-5-8.36-3.77-12.93a82.43,82.43,0,0,1,7.85-18.92l24.31.3c4.91-3.58,2.53-6.44,2.53-6.44l-23.46.43c3.58-5.73,12.12-15.79,12.12-15.79-8-3.09-14.69,2.17-14.83,2.19a73.19,73.19,0,0,0-8.9,13.8l-17.07.3s-2.83,2.29-.47,4.9l15,.18c-2.37,5.29-4.83,12-6,15.48,0,0-27.55,21.81-34.35,15C294.22,203.48,306,187,306,187a14.92,14.92,0,0,0-12.68-.63c-24,23.32-25.9,18.85-25.93,18.86-1.72-3.31,8.89-17.92,8.89-17.92s-3.87-3.67-13,1.15c-8.26,7.12-18.92,9.6-22.65,4a8.48,8.48,0,0,0-3.76-7.36,5.72,5.72,0,0,0-6.93.23c-8-2.35-16.16,2.7-20.84,8.93-5.58,7.44-5.4,20,6.34,20,10.31,0,19.18-7.93,23.17-16.24a18,18,0,0,0,7.38,1.52c5.13,0,9.91-1.92,13.3-3.51-.24.53-8.14,15.28,3.66,16.34,7.43.67,21-10,26.54-14.52-1,6.73-1,15.8,8.08,15.8,10.23,0,24.1-9,33.21-15.83-.75,5.2-.16,9.19,1.76,11.91a10,10,0,0,0,7.58,4c.69.07,1.4.1,2.13.1,12.2,0,26.4-9.61,34-15.55-1.61,4.61-1.68,8.27-.2,10.9s4.64,4.29,9.21,4.54c8.27.46,20.82-3.85,29.47-7.34.48,4.66,4,8.27,10,8.27,6.68,0,15-4.24,17.78-5.79-.07.28-11.72,39.83-11.72,39.83s.78,5.62,9.15,1.12c-1.15-18.71,38.15-50.94,44.77-53.35,0,0,3.09-1.9,2,1h0c-4.9,14.68,1.21,16.23,2.94,16.23,10.74,0,28.49-17.83,28.49-17.83,1.5,8.46,7.49,12.93,17.35,12.93,4.85,0,10.78-1.07,17.64-3.18,3.58,5.29,10.05,8.18,18.39,8.18,14.71,0,33.44-13,33.44-13Zm-383.5,10.14c-1.15,0-5.35-.16-3-7,2.53-7.39,10.27-11.09,12.79-12.21a15.67,15.67,0,0,0,4.93,6.82S228.5,207.75,219.15,207.75Zm347.27-18.53a14.93,14.93,0,0,1,13.87,2.49l-19,6.34A7.1,7.1,0,0,1,566.41,189.23Z" fill="#fff"/><path d="M161.11,180.69c56.76-16.28,33.08-46.66-13.82-14.58l-.55-.46c3.4-4.66,8.86-11.83,8.86-11.83s-2.33-3.82-12.09.81l-23.95,39.11s.36,3.57,4.77,2.81l14.61-19.65c8.86-7.43,38-23.16,39.89-15.48,2,8.24-19.65,17.31-24.55,19.25l-.75,3.14s42.57,15.58,23.38,27.09c-7.43,4.46-20.4,7-35,6.27-17.68-.91-36.33-8.06-41.47-14.94a10.87,10.87,0,0,0-5.74,7.17c7.35,4.88,26.55,14,51.36,14C195.49,223.43,218.87,196.89,161.11,180.69Z" fill="#fff"/><path d="M206.2,283.84l21.63,23V292.07q0-1.78,0-3.12t-.12-2.31q-.08-1-.2-1.63t-.24-1.09v-.08H231v.08a9.74,9.74,0,0,0-.23,1.09q-.1.65-.19,1.63t-.13,2.31q0,1.33,0,3.12v22.3h-.74l-21.62-23v14.36q0,1.78,0,3.12t.13,2.3q.08,1,.19,1.62a9.74,9.74,0,0,0,.23,1.09v.08h-3.74v-.08q.13-.44.24-1.09t.2-1.62q.08-1,.13-2.3t0-3.12V292.07q0-1.78,0-3.12t-.13-2.31q-.08-1-.2-1.63t-.24-1.09v-.08Z" fill="#fff"/><path d="M252.28,283.82l4.76-.05q2.16,0,3.7-.09a16.9,16.9,0,0,0,2.08-.17l-1,2.79a15.84,15.84,0,0,0-1.62-.34q-.8-.13-1.94-.24t-2.63-.12l-1.21,0-1.35.07-1.53.08v11.46q2.16,0,3.91-.13t3-.21q1.43-.13,2.52-.29l-.65,3-3-.36q-1.3-.15-2.83-.26t-2.94-.12V312.1q2.48,0,4.56-.21t3.63-.48q1.81-.29,3.3-.69l-.61,3.4-.76,0-1.12,0-1.3,0-1.29,0-1.08,0h-9.75v-.08q.13-.44.24-1.09t.2-1.62q.08-1,.13-2.3t0-3.12V292.07q0-1.78,0-3.12t-.13-2.31q-.08-1-.2-1.63t-.24-1.09v-.08Z" fill="#fff"/><path d="M298.07,287.81l8.4,20.39,8.17-20a20.93,20.93,0,0,0,.71-2.1,5.82,5.82,0,0,0,.23-1.47,3.8,3.8,0,0,0,0-.39,1.22,1.22,0,0,0-.06-.3v-.08h4.16v.08a6.54,6.54,0,0,0-.91,1.47q-.49,1-1.14,2.5L306.39,314.6h-1.6l-8.17-19.82-7.45,19.82H287.6l-10.29-25.68q-.38-.9-.77-1.74t-.73-1.51q-.35-.67-.63-1.13a5.7,5.7,0,0,0-.41-.61v-.08h5.82v.08a2.11,2.11,0,0,0,0,.36v.29a7.86,7.86,0,0,0,.16,1.51,10.91,10.91,0,0,0,.62,1.93L289.21,308l7.54-20.07Z" fill="#fff"/><path d="M367.74,299.5v6.24q0,1.78,0,3.12t.13,2.3q.08,1,.2,1.62a11,11,0,0,0,.24,1.09v.08h-5v-.08q.13-.44.24-1.09t.19-1.62q.07-1,.13-2.3t.05-3.12v-5.82l-9.39-12.77q-.48-.65-1-1.2t-.89-1q-.42-.41-.76-.68c-.22-.18-.4-.32-.52-.4v-.08h6.36a5.33,5.33,0,0,0,.41,1.58,11.6,11.6,0,0,0,1.48,2.59l6.89,9.43,6.74-9.85.71-1.07q.36-.55.65-1a8.26,8.26,0,0,0,.47-.92,1.91,1.91,0,0,0,.18-.71h4.09v.08q-.46.4-1.24,1.19a16,16,0,0,0-1.68,2.09Z" fill="#fff"/><path d="M406,283.34a17.87,17.87,0,0,1,6.48,1.14,15.29,15.29,0,0,1,5.13,3.21,14.61,14.61,0,0,1,3.38,5,16.36,16.36,0,0,1,1.22,6.4,16.79,16.79,0,0,1-.46,3.93,16,16,0,0,1-1.35,3.65,15.44,15.44,0,0,1-2.19,3.18,14,14,0,0,1-3,2.52,14.58,14.58,0,0,1-3.68,1.66,15.23,15.23,0,0,1-4.35.6,18.17,18.17,0,0,1-6.48-1.12,15.07,15.07,0,0,1-5.13-3.18,14.51,14.51,0,0,1-3.38-4.94,16.35,16.35,0,0,1-1.22-6.41,16.85,16.85,0,0,1,.46-3.93,16.35,16.35,0,0,1,1.35-3.67,15.39,15.39,0,0,1,2.18-3.2,14.09,14.09,0,0,1,3-2.53,14.3,14.3,0,0,1,3.7-1.67A15.3,15.3,0,0,1,406,283.34Zm1.2,29.37a10.59,10.59,0,0,0,4.26-.84,9.31,9.31,0,0,0,3.33-2.44,11.35,11.35,0,0,0,2.17-3.9,16.24,16.24,0,0,0,.78-5.22,23,23,0,0,0-.75-6,14.51,14.51,0,0,0-2.22-4.79,10.43,10.43,0,0,0-3.66-3.17,10.91,10.91,0,0,0-5.11-1.14,10.7,10.7,0,0,0-4.26.83,9.3,9.3,0,0,0-3.33,2.4,11.14,11.14,0,0,0-2.17,3.86,16.17,16.17,0,0,0-.78,5.21,23.39,23.39,0,0,0,.74,6,14.47,14.47,0,0,0,2.2,4.82,10.57,10.57,0,0,0,3.67,3.2A10.8,10.8,0,0,0,407.18,312.71Z" fill="#fff"/><path d="M441.62,305.74q0,1.78.05,3.12t.13,2.3q.07,1,.19,1.62t.24,1.09v.08h-5v-.08q.13-.44.24-1.09t.2-1.62q.08-1,.13-2.3t0-3.12V292.07q0-1.78,0-3.12t-.13-2.31q-.08-1-.2-1.63t-.24-1.09v-.08l.88.08q.4,0,.89.05h1a16.44,16.44,0,0,0,2.21-.2,26,26,0,0,1,3.56-.2,12.2,12.2,0,0,1,3.73.55,8.73,8.73,0,0,1,3,1.6,7.27,7.27,0,0,1,2,2.57,8.14,8.14,0,0,1,.7,3.45,9.7,9.7,0,0,1-.39,2.8,8.7,8.7,0,0,1-1.09,2.34,8.53,8.53,0,0,1-1.69,1.86,9.77,9.77,0,0,1-2.2,1.35l7.37,10.35q.55.78,1,1.34a10.25,10.25,0,0,0,.9,1,6.5,6.5,0,0,0,.83.66,4.58,4.58,0,0,0,.82.43v.08h-6.07a3.77,3.77,0,0,0-.41-1.06,11.39,11.39,0,0,0-.81-1.31L446,301.1a20.81,20.81,0,0,1-2.12.11,13.53,13.53,0,0,1-2.23-.19Zm0-6.36a11.12,11.12,0,0,0,3.77.1,6.5,6.5,0,0,0,2.94-1.2,6.06,6.06,0,0,0,1.91-2.51,9.75,9.75,0,0,0,.68-3.85,10.62,10.62,0,0,0-.36-2.86,6.14,6.14,0,0,0-1.06-2.17,4.76,4.76,0,0,0-1.77-1.39,5.93,5.93,0,0,0-2.5-.49,14.76,14.76,0,0,0-1.58.07c-.45,0-.83.1-1.13.16a6.34,6.34,0,0,0-.9.23Z" fill="#fff"/><path d="M472.87,313.86q.13-.44.24-1.09t.2-1.62q.08-1,.13-2.3t0-3.12V292.07q0-1.78,0-3.12t-.13-2.31q-.08-1-.2-1.63t-.24-1.09v-.08h5v.08q-.13.44-.24,1.09t-.19,1.63q-.07,1-.13,2.31t-.05,3.12v4.68l12.26-10q2.06-1.68,2.06-2.9h5.9v.08A8,8,0,0,0,495,285a28.6,28.6,0,0,0-2.7,2l-10.83,9.07,13,14.32q.82.84,1.4,1.4t1,.92a8.69,8.69,0,0,0,.81.61q.37.24.77.47v.08h-6.15a3.27,3.27,0,0,0-.28-.48q-.2-.29-.46-.61l-.57-.65-.58-.63-13.17-14.45v8.61q0,1.78.05,3.12t.13,2.3q.07,1,.19,1.62t.24,1.09v.08h-5Z" fill="#fff"/><rect x="125.72" y="295.25" width="66" height="5.33" fill="#fff"/><rect x="506.05" y="295.25" width="66" height="5.33" fill="#fff"/></svg>