<svg xmlns="http://www.w3.org/2000/svg" class="icons icon-key" id="icon-key" viewBox="0 0 382 359"><path d="M352,29a100,100,0,0,0-141,0,100,100,0,0,0-25,100L2,313a8,8,0,0,0-2,9l14,32a8,8,0,0,0,7,5h0l53-2a8,8,0,0,0,7-6l11-41,47-9a8,8,0,0,0,6-7l8-59h44l6-2,41-41a101,101,0,0,0,36,7A100,100,0,0,0,352,29ZM341,160a84,84,0,0,1-60,25,85,85,0,0,1-35-7,8,8,0,0,0-9,2l-42,42H148a8,8,0,0,0-8,7l-9,61-47,9a8,8,0,0,0-6,6L69,342l-42,2-9-22L201,137a8,8,0,0,0,2-8,85,85,0,0,1,20-89A84,84,0,0,1,341,160Z" fill="#fff"/><path d="M287,53a30,30,0,1,0,42,0C318,42,298,42,287,53Zm31,31a14,14,0,0,1-20,0,14,14,0,1,1,20,0Z" fill="#fff"/></svg>