<svg xmlns="http://www.w3.org/2000/svg" id="parkjames-logo" class="logo" viewBox="0 0 244.31 300.14"><defs><style>.a{fill:#231f20;}.b{fill:none;}</style></defs><path class="a" d="M7.21 142.58h.67l21.06.9c.22 0 .55 0 .93.1a19.55 19.55 0 0 0 2.39.2 3.15 3.15 0 0 0 2.12-.57 1.45 1.45 0 0 0 .52-1.14 2.34 2.34 0 0 0-2.38-2.67l-8-.15c-1.69 0-1.84-.14-1.85-1.26v-.82c-.24-4.79.15-5.85.31-6 3.18 0 6.87-1.78 8.79-2.81a12.39 12.39 0 0 0 5.89-6.16 2.2 2.2 0 0 0-.36-2.66 1.64 1.64 0 0 0-1.72-.2 2.67 2.67 0 0 0-1.31 1.22l-.3.59a5.92 5.92 0 0 1-2.44 3c-2 1.21-4.93 3-7.34 3.25-1.3.14-2.16-.81-3.16-1.87a12.16 12.16 0 0 0-1.51-1.53 13.3 13.3 0 0 0-6.13-2.54 8.91 8.91 0 0 0-5.09.63c-6.45 3.1-6 13.31-4.79 18.27.49 2.18 2.28 2.2 3.7 2.22zm-1-12c.72-2.71 2.84-4.8 5.16-5.08a7.06 7.06 0 0 1 4.14 1 7.55 7.55 0 0 1 3.56 4 12.3 12.3 0 0 1 0 5.66l-.5 3.39-3.91-.28-2.9-.21a12.54 12.54 0 0 0-1.61 0c-1.21.07-2.59.14-3.26-.44-1.37-1.21-1.21-5.88-.65-8.01zM47.79 85.38A2 2 0 0 0 45.66 84a1.61 1.61 0 0 0-.37.07 3.08 3.08 0 0 0-2 2.31 5.67 5.67 0 0 1-.23.62 6.31 6.31 0 0 1-2.35 2.6 45.22 45.22 0 0 1-9.79 4.4c-1.26.44-2.57.91-3.8 1.39-.29.11-.62.27-1 .43-1 .49-2.46 1.15-3.21.85a1 1 0 0 1-.53-.63 40 40 0 0 0-5.93-10.84 1.73 1.73 0 0 0-.64-.55 1.46 1.46 0 0 0-1.59.34 2.67 2.67 0 0 0-.06 3.42l.56.87A51.59 51.59 0 0 1 18 94.83c1.22 2.53 2.31 5.18 3.37 7.74.39 1 .78 1.9 1.18 2.85-1.65-.41-3.32-1-4.93-1.56-.76-.26-1.51-.52-2.26-.76l-.69-.27c-2-.8-4-1.53-5.26-.93a1.7 1.7 0 0 0-.89 1.1 1.67 1.67 0 0 0 .15 1.39c.62 1 2.24 1.33 3.32 1.53l.47.1c2.39.59 5.2 1.3 8 2.06a111.45 111.45 0 0 1 15.49 5.32 4.51 4.51 0 0 0 1.85.51 2.13 2.13 0 0 0 .61-.08 1.89 1.89 0 0 0 1.33-2.27 2.15 2.15 0 0 0-1.74-1.49l-.35-.1c-1.93-.67-4-1.3-6.17-1.92a8.62 8.62 0 0 1-3-1.23c-1.56-1.21-2.65-3.56-3.33-5.21a1.15 1.15 0 0 1-.13-.53s.11-.17.39-.29c3.63-1.48 7.3-3 10.84-4.54l4.37-1.84c3.1-1.31 6.73-3.39 7.23-8a2.67 2.67 0 0 0-.06-1.03zM39.14 201.39a5.93 5.93 0 0 0-1.81.42l-8.94 3.13h-.11c-.18-.66-.35-1.32-.52-2a37.92 37.92 0 0 0-3.07-8.79 11.52 11.52 0 0 0-5.32-5.15 10 10 0 0 0-9.25 1C2 195.28 5 204.55 7.24 211.31c.2.63.83 2.57 2.49 2.81h.34a4.14 4.14 0 0 0 1.25-.24c4.89-1.51 9.81-3 15.26-4.54a94.13 94.13 0 0 1 13.06-2.83 3.74 3.74 0 0 0 1.32-.36 2 2 0 0 0 1-2.4 3.22 3.22 0 0 0-2.82-2.36zm-14.91 4.81l-.31.08-.5.09a92.73 92.73 0 0 0-10.07 2.54l-.16.05a11.81 11.81 0 0 1-2.5.6 23.52 23.52 0 0 1-1.79-5.1 14.22 14.22 0 0 1 .25-6.61 8.35 8.35 0 0 1 3.55-5.16 5.77 5.77 0 0 1 2.9-.74 6.55 6.55 0 0 1 4.06 1.39 9.55 9.55 0 0 1 3 4.73 23.62 23.62 0 0 1 .76 4c.16.64.28 1.29.39 1.94s.19 1.46.42 2.19zM6.17 173.05c1 .31 2 .6 3 .89 1.42.41 2.88.84 4.3 1.31q5.08 1.68 10.15 3.4c1.35.46 2.69 1 4 1.57a47.13 47.13 0 0 0 5.22 2 3.62 3.62 0 0 0 1 .16 1.77 1.77 0 0 0 1.42-.59c.55-.66.53-1.67-.05-2.86a4 4 0 0 0-2.71-2.11l-4.43-1.21c-.43-.12-.89-.22-1.37-.32a8.65 8.65 0 0 1-3.51-1.29c-1-.78-1.17-2.28-1.29-3.74-.09-1-.22-1.93-.36-2.87a27.15 27.15 0 0 1-.4-4.92c.05-1.24 1.17-1.76 2.86-2.42.34-.13.67-.25 1-.39 2.54-1.12 5.24-2 7.62-2.78a2.26 2.26 0 0 0 1.43-1 2.21 2.21 0 0 0 .23-1.14 4.84 4.84 0 0 0-.18-1.55 1.93 1.93 0 0 0-1.19-1.33 3.54 3.54 0 0 0-2.91.77c-1.34.87-2.8 1.72-4.58 2.68-3.4 1.82-6.9 3.57-10.4 5.21-2.52 1.17-5.08 2.3-7.63 3.37-.45.19-.94.36-1.45.55A12.16 12.16 0 0 0 1 167.16a4.52 4.52 0 0 0-.69 1 2.53 2.53 0 0 0-.23 1.74c.42 1.55 2.71 2.26 5.22 2.9.34.1.7.2.87.25zm-.84-4l.17-.05.53-.23 6.35-3.2c1.78-.89 3.61-1.82 5.5-2.63l.29 2.95c.08.76.16 1.53.23 2.29l.18 2c.08 1 .16 2 .23 3-1.11-.28-2.23-.64-3.33-1l-5.8-1.87c-.61-.19-1.24-.35-1.86-.49a19.42 19.42 0 0 1-2.49-.73zM138.62 19.42v-2.09c0-3.92.08-7.89.27-11.79v-.13c0-.71.07-1.45.06-2.19a1.78 1.78 0 0 0-.49-1.37 1.44 1.44 0 0 0-1.21-.4c-1.11.13-2.12 1.47-2.49 2a16.28 16.28 0 0 0-.85 1.55c-.25.46-.48.9-.75 1.31l-3.4 5.18c-1.34 2-2.67 4.09-4 6.13l-.85 1.31-1.55-3.82a30 30 0 0 0-1.74-3.5l-.87-1.53a53.1 53.1 0 0 1-2.92-5.54l-.18-.42a11.8 11.8 0 0 0-1-2c-.51-.77-2.11-2.22-3.49-2a1.81 1.81 0 0 0-1.51 1.32 2.53 2.53 0 0 0-.1 1v.29c-.11 1.6-.2 3.27-.29 5-.19 3.61-.4 7.35-.74 11.13-.12 1.31-.26 2.4-.39 3.43a42.63 42.63 0 0 0-.47 5.89 3 3 0 0 0 1.07 2.73 2 2 0 0 0 2.09 0 2.67 2.67 0 0 0 1.35-2 25.91 25.91 0 0 0 .31-4.1c0-.67 0-1.33.07-2 0-.8.12-1.59.18-2.39.09-1.09.18-2.18.23-3.27.14-3 .19-6 .14-8.93V8a50.93 50.93 0 0 1 3.67 7.07l.08.17c1.34 2.94 2.72 6 3.94 9a3 3 0 0 0 .56 1 1.51 1.51 0 0 0 1.53.47 1.83 1.83 0 0 0 1-1 168.9 168.9 0 0 1 9.26-15.29v1.96c0 1-.05 2-.07 3v1.41c-.06 2.56-.14 5.55-.34 8.48-.11 1.52-.25 3.33-.52 5.17a2 2 0 0 0 .34 1.7 2.13 2.13 0 0 0 1.09.54 5.91 5.91 0 0 0 1.26.17 3.05 3.05 0 0 0 .6-.06 1.44 1.44 0 0 0 1.05-.5 3.52 3.52 0 0 0 .46-2.8 68 68 0 0 1-.39-9.07zM101.65 31.71l-.15-.11-4.5-3.35c-4.48-3.41-9.15-6.93-13.83-10.25-.52-.37-1-.73-1.58-1.09A31.76 31.76 0 0 1 77.75 14a4 4 0 0 0-1.06-.78 1.82 1.82 0 0 0-1.92 0c-.87.62-.87 2-.8 2.76l1.46 15.07q.38 3.94.7 7.87l.54 6.42a1.89 1.89 0 0 0 .51 1.3 1.72 1.72 0 0 0 1.16.41h.1a1.94 1.94 0 0 0 1.52-.6c.74-.83.55-2.14.4-3.2a5 5 0 0 1-.08-.6c0-.54-.11-1.08-.16-1.62a66.45 66.45 0 0 1-.28-3.22l-.09-1.18c-.06-.8-.13-1.62-.23-2.37a1.14 1.14 0 0 1 .62-1.21c.28-.2.57-.38.86-.56s.82-.46 1.24-.68l1-.55c2.11-1.2 4.24-2.38 6.34-3.5.16-.09.39-.23.51-.2a1.34 1.34 0 0 1 .52.3l1.08.84a65.56 65.56 0 0 1 6.24 5.3 3.89 3.89 0 0 0 .84.68 2.44 2.44 0 0 0 2.17.15 2.48 2.48 0 0 0 1.34-1.32 1.35 1.35 0 0 0-.63-1.8zm-14.81-6.59c-2.31 1.46-4.69 2.89-7.08 4.26a1.29 1.29 0 0 1-.56.23c-.19 0-.42-.35-.48-.7a36.44 36.44 0 0 1-.3-3.68v-1.41c-.12-1.91-.18-3-.28-4.79v-.21zM197.79 26.52a9.58 9.58 0 0 0-8.79-3.37 7.5 7.5 0 0 0-6.11 6.14c-.61 3.55 1.09 7.29 2.42 9.8l1.16 2.18a8.67 8.67 0 0 1 .67 6.82 4.85 4.85 0 0 1-3.64 3.38c-1.93.22-3.79-1.1-5.53-2.56a10.68 10.68 0 0 1-2.06-2.17c-1.71-2.6-.68-7.06 1.35-9.17a2 2 0 0 0 .62-1c.15-.92-.74-1.46-1.45-1.89l-.36-.22a2.15 2.15 0 0 0-2-.3c-1.06.39-1.92 1.66-2.55 3.77a13.7 13.7 0 0 0 3 13.24c2.54 2.93 5.33 4.44 8.1 4.44a8.11 8.11 0 0 0 3.36-.75c4.8-2.21 6.25-8.18 4.87-12.67a20.47 20.47 0 0 0-1.72-3.77l-.31-.55c-.23-.41-.46-.82-.67-1.23-1.81-3.37-2.13-6-1-7.83a4.09 4.09 0 0 1 .84-1 4.51 4.51 0 0 1 3.54-.93 5 5 0 0 1 3.38 2.12 5.32 5.32 0 0 1 .88 2.34 4.5 4.5 0 0 1 0 1.08 3.25 3.25 0 0 0 .53 2.77 3.82 3.82 0 0 0 1.81 1.08 1.24 1.24 0 0 0 .74 0 1.38 1.38 0 0 0 .83-.92 9.11 9.11 0 0 0-1.91-8.83zM161.34 10.83c2.56 1.31 5.11 2.65 7.65 4l3.28 1.73a3.35 3.35 0 0 0 2.91.25 1.77 1.77 0 0 0 .89-1.49 2.42 2.42 0 0 0-1-2.08 6.07 6.07 0 0 0-1.74-.84 69.65 69.65 0 0 1-7.15-3c-1.17-.57-2.33-1.17-3.44-1.78-.13-.07-.29-.19-.49-.33-.9-.61-2-1.38-2.93-1-.63.26-.95 1-1.32 2-.07.18-.12.33-.17.44l-2.4 5c-2.39 5-4.87 10.07-7.08 15.22a5.39 5.39 0 0 1-.24.49c-.52 1-1.3 2.58-.31 3.63a3.17 3.17 0 0 0 1.1.68l6.88 2.89c.5.21 1 .4 1.61.61a11.32 11.32 0 0 1 4.14 2.12l.07.07a1.94 1.94 0 0 0 .85.59 1.44 1.44 0 0 0 .4.06 2.26 2.26 0 0 0 1.51-.83c.81-.85 1-1.65.69-2.35a2 2 0 0 0-1-.88 68 68 0 0 0-6.79-3.03l-5-1.94-.2-.09v-.07c1-3 2.22-5.91 3.5-8.78a22.28 22.28 0 0 1 5.2 2.46 3.44 3.44 0 0 0 1.84.68 1.84 1.84 0 0 0 1.91-1.43 2 2 0 0 0-.94-1.94 8.52 8.52 0 0 0-1.92-.89 11.23 11.23 0 0 1-3.89-2c-.62-.51-.77-.69-.75-.65a1.56 1.56 0 0 1 .15-.52 40.36 40.36 0 0 1 4.18-7zM63.17 38.15l-.66-.75c-1.19-1.34-2.41-2.67-3.62-4s-2.61-2.85-3.89-4.3a4.81 4.81 0 0 0-2.45-1.75 2.19 2.19 0 0 0-2.16.69 1.75 1.75 0 0 0-.11 1.89 6.65 6.65 0 0 0 1.81 2c.27.23.54.46.77.68.89.91 1.78 1.83 2.62 2.74 1.76 1.91 3.46 3.92 5.06 6l.81 1c2.55 3.2 5.18 6.52 4.85 10.46a6.09 6.09 0 0 1-4.28 5.53 7.63 7.63 0 0 1-4.72-.52 10.05 10.05 0 0 1-1.54-.89 7 7 0 0 0-2.91-1.35A1.92 1.92 0 0 0 50.57 57c-.18.91.37 1.84 1.55 2.63a13.63 13.63 0 0 0 9.14 2.28A11.53 11.53 0 0 0 69 57.5a9.39 9.39 0 0 0 2-5.38 12.1 12.1 0 0 0-1.93-6.43 51.27 51.27 0 0 0-5.9-7.54zM206.67 96.37a72.34 72.34 0 0 1 12.52-5.85l8.42-3.29c.5-.19 1-.35 1.51-.51a17.84 17.84 0 0 0 2.14-.77 4.62 4.62 0 0 0 1.74-1.16c.8-1 .14-2.05-.3-2.75a1.65 1.65 0 0 0-1.2-.89 1.77 1.77 0 0 0-.94.25c-1.78.86-3.62 1.68-5.47 2.43q-1.38.56-2.79 1.08h-.11c-.85.34-1.3.5-1.55.57-.18-.42-.35-.85-.51-1.28s-.43-1.12-.68-1.64l-.7-1.43c-.38-.76-.75-1.52-1.12-2.29a58.18 58.18 0 0 1-3.1-7.47c.07-.21.62-.66 2.83-1.6l.58-.25a23.36 23.36 0 0 1 5.54-2 2.39 2.39 0 0 0 1.46-.72 1.73 1.73 0 0 0 .31-.78 2.09 2.09 0 0 0-.07-.78 3.56 3.56 0 0 0-.71-1.17 4.46 4.46 0 0 1-.33-.43c-.54-.83-1.55-.32-2.21 0l-.17.09c-.44.22-.7.34-1 .46l-.4.18-2.77 1.28a489.74 489.74 0 0 1-16.8 7.29l-3.54 1.44a7.73 7.73 0 0 1-.77.25 4.23 4.23 0 0 0-1.86.87c-1.1 1.06-.15 2.6.42 3.52l.18.29a1.56 1.56 0 0 0 1.14.88 1.47 1.47 0 0 0 1-.33 57.28 57.28 0 0 1 6.89-3.81c.83-.39 1.66-.82 2.5-1.26a38.52 38.52 0 0 1 3.73-1.79c.16-.07.33-.12.5-.18.33.43 1.09 2 2.78 6.68.11.3.2.52.24.63.47 1.24.93 2.5 1.36 3.74.13.38.29.77.47 1.19s.46 1.11.65 1.72a18.87 18.87 0 0 1-3.75 1.88l-6 2.72a26.59 26.59 0 0 1-3.19 1.14 2.1 2.1 0 0 0-.81.42 1.82 1.82 0 0 0-.32 1.88 2.66 2.66 0 0 0 1.48 2 1.94 1.94 0 0 0 .76.15 3.69 3.69 0 0 0 2.02-.6zM222.44 98a19.56 19.56 0 0 0-3.88.91 17.15 17.15 0 0 0-7 4.48 14 14 0 0 0-2.22 3.2c-1.76 3.58-1.74 8 .06 12.39 1.15 2.83 3.34 6.58 7.19 8.42a14.74 14.74 0 0 0 6.29 1.25 23.66 23.66 0 0 0 6.55-1c6-1.8 10.11-6.46 10.37-11.86a16.48 16.48 0 0 0-.28-3.73c-.47-2.82-1-6-2.73-8.65a12.68 12.68 0 0 0-6.86-5 17.46 17.46 0 0 0-7.49-.41zm11.88 8.88a17.11 17.11 0 0 1 1.52 5.94 11 11 0 0 1-.83 6.12 7.81 7.81 0 0 1-1.16 1.71c-4.11 4.64-12.67 5.56-17.62 1.9a11 11 0 0 1-4.26-7.31 10.4 10.4 0 0 1 2-7.89 14.75 14.75 0 0 1 4-3.56 15.15 15.15 0 0 1 7.95-2.26h.78a8.94 8.94 0 0 1 7.62 5.3zM239.08 132.77a3 3 0 0 1 0 .31 7 7 0 0 0 0 2v.17a58.94 58.94 0 0 1 .21 7c-4.89.47-9.63.55-14.65.64l-7 .13c-.33 0-.65 0-1-.05a9.23 9.23 0 0 0-1.58 0c-1.94.2-2 1.42-2.05 2.66a1.3 1.3 0 0 0 1.11 1.46 9.59 9.59 0 0 0 3.29 0c.52-.07 1-.13 1.46-.15H223.59c2.92-.05 5.86-.24 8.7-.41 1.4-.09 2.81-.18 4.22-.25l.57-.06a9.58 9.58 0 0 1 2.34-.09l.12 2.53c.1 2.18.21 4.43.1 6.63-.09 1.9.91 2.25 1.51 2.3h.52a1.38 1.38 0 0 0 .5-.06c1.4-.5 1.23-2.27 1.11-3.57 0-.35-.07-.69-.07-1 0-1.58-.07-3.18-.18-4.75l-.05-.66c0-.42-.06-.84-.08-1.26a71.49 71.49 0 0 1 .28-12.95 3.11 3.11 0 0 0 0-.32 2.28 2.28 0 0 0-.12-1.09c-.2-.47-.78-1.24-2.45-1a1.7 1.7 0 0 0-1.53 1.84zM242.78 165.81a15 15 0 0 0-2.68-.22c-.51 0-1 0-1.49-.06-2.3-.21-4.62-.55-6.87-.88-1.5-.22-3-.44-4.49-.62l-2-.26a85.56 85.56 0 0 0-10-.87c-2.31 0-2.38 2.39-2.41 3.41 0 .87 0 1.73-.05 2.6 0 1.4 0 2.85-.12 4.26s-.22 2.62-.37 4c-.06.56-.13 1.18-.2 1.91l-.06.5a16 16 0 0 0-.2 2.75c.12 1.11 1.18 1.28 1.74 1.37h.11a1.79 1.79 0 0 0 1.45-.39c1.24-1 1.4-3.71 1.46-6.15v-.41c.08-2.25.28-4.42.48-6.71l.13-1.45a1.85 1.85 0 0 1 .54-1.35c.56-.44 1.72-.26 2.83-.08a13.82 13.82 0 0 0 1.54.2l5.57.38a1.51 1.51 0 0 1 .63.12.8.8 0 0 1 0 .35c-.14 2.31-.32 3.65-.57 5.51-.08.56-.16 1.16-.25 1.86v.33a17.22 17.22 0 0 0-.25 3.3 1.24 1.24 0 0 0 .47.9 3 3 0 0 0 2.13.41 1.52 1.52 0 0 0 1.57-1.42c.08-1.17.09-2.35.09-3.49a39.51 39.51 0 0 1 .21-4.61 7.21 7.21 0 0 0 0-1c0-.53-.08-1.41.16-1.59l-.36-.62.38.61a1.58 1.58 0 0 1 .62 0c2.46.28 4.92.55 7.39.79.24.44.23 2 0 4.51 0 .42-.07.75-.08.93a36.46 36.46 0 0 1-1 8.46 2.15 2.15 0 0 0 .17 1.9 1.91 1.91 0 0 0 .81.57 3.69 3.69 0 0 0 1.47.36h.08a2.14 2.14 0 0 0 1.54-.67c.93-1 .84-2.85.77-4.2v-.84c0-1.77.1-4.11.23-6.47.12-2 .24-3.46.39-4.85.05-.89.29-2.71-1.51-3.08zM238.5 201.63c-.51-.07-1-.17-1.53-.27a85 85 0 0 1-9.51-2.47c-1.63-.5-3.33-1-5.47-1.6-1.19-.32-2.67-.78-4.11-1.22-.9-.28-1.78-.55-2.54-.77l-.43-.14c-2.31-.72-4.63-1.32-5.46-.06a18.77 18.77 0 0 0-1.93 5.66c-.2.88-.39 1.72-.63 2.51l-.5 1.63a72.14 72.14 0 0 0-1.89 7 1.66 1.66 0 0 0 .2 1.35 1.53 1.53 0 0 0 .73.51 5.17 5.17 0 0 0 1.73.33 1.69 1.69 0 0 0 1.76-1c.53-1.38.89-2.56 1.28-3.8.19-.64.4-1.3.64-2 .06-.21.19-.58.34-1 .38-1.12.85-2.51 1-3 .08-.32.16-.69.24-1.08.15-.74.46-2.28.8-2.34a63.86 63.86 0 0 1 6.56 2 50.12 50.12 0 0 0 5.42 1.66c1.72.42 2.72.72 3.68 1 .73.22 1.45.44 2.45.71l1.15.28c.73.17 1.56.37 2.13.56.82.27 1.92.52 2.68.68l.45.1a5 5 0 0 0 1.46.2c1 0 1.16-.71 1.33-1.55l.11-.54a7.67 7.67 0 0 0 .18-1.8c-.09-.59-.57-1.3-2.32-1.54z"/><path d="M148.75 235.29a3.69 3.69 0 0 0 1.25.71c1.51.51 3.75.48 4.86-.85a2.43 2.43 0 0 0 .06-3 4.93 4.93 0 0 0-1.43-1.18.59.59 0 0 1-.23-.21c-.1-.24.25-.38.4-.48a4.19 4.19 0 0 0 .81-.59c.9-1-.05-2.49-1.07-2.94-1.43-.63-3.93-.37-4.49 1.35a1.93 1.93 0 0 0 .67 2c.34.35.75.66 1.07.94a.05.05 0 0 1 0 .05l-.05.06a6.93 6.93 0 0 0-2.08 1.36 2.08 2.08 0 0 0-.51 1.62 2 2 0 0 0 .74 1.16zm1.8-6.37a.78.78 0 0 1 .17-1 1.64 1.64 0 0 1 2-.1 1.38 1.38 0 0 1 .31 1.42 1.85 1.85 0 0 1-.55.72.43.43 0 0 1-.3.13 1 1 0 0 1-.45-.2c-.13-.09-.42-.25-.6-.39a2.14 2.14 0 0 1-.58-.58zm-.45 4.94a3.45 3.45 0 0 1 .35-1.28 2.91 2.91 0 0 1 .66-.86c.35-.31.88.34 1.12.56a11.23 11.23 0 0 1 1.06 1.12 1.28 1.28 0 0 1 .34.7c0 .53-.54 1-1 1.14a2.27 2.27 0 0 1-1.6.12 1.35 1.35 0 0 1-.68-.4 1.57 1.57 0 0 1-.25-1.1zM92.86 235.8a1 1 0 0 0 .25 0 30.83 30.83 0 0 1 3.33 0c.69 0 1.38.05 2.06.1a11.7 11.7 0 0 0 2.29.08.32.32 0 0 0 .14 0 .37.37 0 0 0 .12-.22 5.27 5.27 0 0 1 .38-1 2.79 2.79 0 0 0 .37-1.07.29.29 0 0 0-.26-.2c-.3 0-.49.38-.66.57a5.45 5.45 0 0 1-.46.5l-.33.25a2.25 2.25 0 0 1-.75.43 2.16 2.16 0 0 1-.84 0l-.74-.07-1.27-.12c-.24 0-.54-.07-.62-.29a4 4 0 0 1 0-1 21.12 21.12 0 0 1 .13-2.26.64.64 0 0 1 0-.2.32.32 0 0 1 .3-.13c.66 0 1.31.08 2 .12.29 0 .57.14.61.47a2.19 2.19 0 0 0 0 .36c.12.31.61.24.85.15s.14-.48.15-.65 0-.53.08-.8.22-1-.16-1.28c-.23-.14-.65-.17-.73.16s-.08.77-.54.84a4.1 4.1 0 0 1-.86 0c-.37 0-.74-.06-1.11-.1-.18 0-.36 0-.53-.06s-.23-.55-.25-.79v-1.18c0-.4-.2-1.42.19-1.41.93 0 1.87 0 2.8.09a2.85 2.85 0 0 1 .82.17 1.53 1.53 0 0 1 .73.81c.12.23.24.47.55.42a.38.38 0 0 0 .31-.25.65.65 0 0 0 0-.31l-.15-.83c0-.22 0-.54-.21-.7a1.08 1.08 0 0 0-.75-.14c-1.8.06-3.59 0-5.39-.11h-.49c-.3 0-.6-.08-.91-.08-.1 0-.32 0-.4.09s0 .38 0 .49a.25.25 0 0 0 .15.15.79.79 0 0 0 .22.06h.84s.1 0 .12.05a.17.17 0 0 1 0 .07v1.45c0 .5.06 1.25.06 1.94v3.71a1.25 1.25 0 0 1-.24.78 1.44 1.44 0 0 1-1.14.41c-.35-.01-.31.45-.06.53zM134.14 235.78a3.63 3.63 0 0 0 2.15.39 5.85 5.85 0 0 0 2.42-.85 4.31 4.31 0 0 0 .81-.67 4 4 0 0 0 .59-.83 3.33 3.33 0 0 0 .31-2 3.74 3.74 0 0 0-3-3 4.16 4.16 0 0 0-1.22-.07 3.75 3.75 0 0 0-3.42 5.39 3.61 3.61 0 0 0 1.36 1.64zm.31-4.78a2.32 2.32 0 0 1 2.42-1.16c1.76.1 2.18 2.51 1.53 3.81a2.41 2.41 0 0 1-1.79 1.38h-.08a2.21 2.21 0 0 1-2.13-1.62 3.46 3.46 0 0 1-.16-1.36 2.89 2.89 0 0 1 .21-1.05zM130.53 234.42a.26.26 0 0 0-.3-.24c-.24 0-.37.35-.57.48a1.28 1.28 0 0 1-.66.15h-2.1c-.07 0-.15 0-.16-.08a.14.14 0 0 1 .05-.1 10.69 10.69 0 0 1 1.67-1.25 4.28 4.28 0 0 0 1.39-1.48 2.44 2.44 0 0 0-.1-2.44 1.73 1.73 0 0 0-.4-.41 2.61 2.61 0 0 0-1.81-.47 5.15 5.15 0 0 0-2.37 1c-.28.19-.86.56-.73 1s.57 0 .73-.13a4.65 4.65 0 0 1 .93-.44 2.43 2.43 0 0 1 1-.17 1.08 1.08 0 0 1 1 1.33 3.87 3.87 0 0 1-1.53 2.22 12.52 12.52 0 0 0-2.13 2.05c-.07.1-.15.23-.09.35s.19.12.31.13l1.83.14c1 .06 1.9.13 2.85.13a.6.6 0 0 0 .6-.34l.3-.61a1.34 1.34 0 0 0 .29-.82zM107.59 231.89c-.68-.34-1.46-.34-2.12-.71a.77.77 0 0 1-.43-.52.72.72 0 0 1 .48-.6 2.46 2.46 0 0 1 1.42-.15 1.27 1.27 0 0 1 .64.3c.23.24.13.47.24.74a.45.45 0 0 0 .29.23c.37.12.43-.18.49-.47a1.31 1.31 0 0 0 0-.83 1.13 1.13 0 0 0-.69-.57 3.57 3.57 0 0 0-2.67 0 2.48 2.48 0 0 0-1.41 1.62 1.51 1.51 0 0 0 0 .79 1.68 1.68 0 0 0 1 .92c.68.3 1.4.48 2.07.79a1.11 1.11 0 0 1 .6.55.9.9 0 0 1 0 .54 1 1 0 0 1-.73.73 3.41 3.41 0 0 1-1.75-.21.88.88 0 0 1-.59-.58c-.05-.2 0-.43-.07-.62s-.65-.35-.76 0a.37.37 0 0 0 0 .12c0 .37-.16 1.26.23 1.52a.61.61 0 0 0 .26.08 14.56 14.56 0 0 0 2.54.38 2.58 2.58 0 0 0 1.33-.33 1.94 1.94 0 0 0 .9-1.24 2.33 2.33 0 0 0-1.27-2.48zM114.41 235.14a1 1 0 0 1-.55.1.9.9 0 0 1-.62-.55 3.68 3.68 0 0 1-.2-.93c-.05-.35-.08-.71-.11-1.07a18.92 18.92 0 0 1 0-2.13.22.22 0 0 1 0-.16.3.3 0 0 1 .24-.1l1.48-.16a.45.45 0 0 0 .19 0c.14-.09.15-.29.14-.45a.35.35 0 0 0 0-.11.19.19 0 0 0-.14-.07 9.39 9.39 0 0 0-1.59 0 .28.28 0 0 1-.25-.09.25.25 0 0 1 0-.17v-.28-.63a.39.39 0 0 0-.05-.28c-.32-.39-.81.4-.94.61-.29.49-.48 1.07-.9 1.05s-.79-.1-.8 0a2.61 2.61 0 0 0 0 .37c0 .09.43 0 .54 0a.85.85 0 0 1 .32 0c.1 0 .12.12.15.22a6.18 6.18 0 0 1 0 1.29c0 .45 0 .89-.07 1.33s-.06.9-.07 1.35a2.06 2.06 0 0 0 .12 1.07 1.17 1.17 0 0 0 .67.5 3 3 0 0 0 3.24-.91.19.19 0 0 0 0-.08.12.12 0 0 0-.07-.1c-.21-.05-.5.24-.73.38zM142.65 236c.25 0 .52-.07.61-.07a9.72 9.72 0 0 1 1.62 0 3.53 3.53 0 0 0 1.41 0c.18-.06.4-.24.27-.45s-.48-.18-.68-.2a.67.67 0 0 1-.51-.2c-.12-.19-.06-.52-.07-.73v-2.4-1.12a2 2 0 0 1 .09-1 .61.61 0 0 1 .29-.26 1.76 1.76 0 0 1 .41-.1.6.6 0 0 0 .36-.19.26.26 0 0 0-.1-.43 1.79 1.79 0 0 0-.46 0H142.32c-.09.3.1.45.4.47a1 1 0 0 1 .59.15.61.61 0 0 1 .16.32 6.68 6.68 0 0 1 .14 1.55v2.62a8 8 0 0 1 0 1c0 .34-.58.36-.85.35a1.61 1.61 0 0 0-.31 0 .32.32 0 0 0-.24.18c-.21.51.12.56.44.51zM117.55 234.27a.74.74 0 0 0-.8 1 .59.59 0 0 0 .59.39 1 1 0 0 0 .64-.21.78.78 0 0 0 0-1 .68.68 0 0 0-.43-.18zM55.9 263a.41.41 0 0 0 .14-.12.32.32 0 0 1 .45-.13 4.22 4.22 0 0 1 .67.34 1.14 1.14 0 0 0 .49.19.34.34 0 0 0 .37-.17c.08-.15.19-.3.06-.47a1.85 1.85 0 0 0-.66-.58 2.27 2.27 0 0 1-.53-.39c-.31-.31-.59-.66-.9-1a.41.41 0 0 0-.45-.1c-1 .36-2 .7-3.06 1.08l-1.23.45c-.7.24-1.41.46-2.13.65-.27.07-1.88.61-2 .39s.28-1 .33-1.14c.09-.32.17-.64.28-.95.26-.78.52-1.56.8-2.34A13.84 13.84 0 0 1 50 255a.72.72 0 0 0 .1-.24 1 1 0 0 0-.47-1 1.27 1.27 0 0 1-.6-.52.67.67 0 0 0-.16-.18l-.73-.71a.42.42 0 0 0-.56 0 .37.37 0 0 0-.05.52 3 3 0 0 0 .33.39c.1.11.19.25.1.38a41.18 41.18 0 0 1-5.88 5.14c-.58.45-1.13.63-1.7.06a.57.57 0 0 0-.55-.1.68.68 0 0 0-.18.71 2.79 2.79 0 0 0 .28.42 5.42 5.42 0 0 1 .63.72c.17.25.38.48.54.73a2.7 2.7 0 0 0 .45.56.6.6 0 0 0 .79.07c.69-.37 0-.91 0-1.42a1.18 1.18 0 0 1 .25-.5 14.32 14.32 0 0 1 2.26-2.21c.86-.72 1.72-1.46 2.6-2.16l.11-.05a.28.28 0 0 1 0 .08c-1.2 2.79-1.76 5.85-3 8.65a.34.34 0 0 0 0 .4c.12.12.24.3.47.25 3-.65 5.82-1.88 8.73-2.75a.43.43 0 0 1 .17 0l-.17.2c-1.55 1.64-3.14 3.32-4.71 4.92a.28.28 0 0 1-.42.07 1.54 1.54 0 0 1-.63-.44.39.39 0 0 0-.65 0l-.14.19c-.16.19-.15.3 0 .41a2.58 2.58 0 0 1 .63.45c.22.23.46.45.68.69a8.09 8.09 0 0 0 .7.74 1.79 1.79 0 0 1 .61.67.65.65 0 0 0 .53.36c.22.06.28-.13.39-.23a.33.33 0 0 0 0-.49l-.11-.11a.7.7 0 0 1-.06-.81c.08 0 .52-.62.6-.71l.73-.89 1.5-1.77c.42-.49.85-1 1.28-1.45A4.75 4.75 0 0 1 55.9 263zM81.17 280.82a.69.69 0 0 1 .19.1.49.49 0 0 0 .57-.12c.56-.68-.85-1.11-1.28-1.28a7.4 7.4 0 0 1-1.42-.75c-.31-.21-.66-.4-.91 0a.26.26 0 0 0 0 .32 1.92 1.92 0 0 0 .6.46c.17.08.2.16.12.32-.9 1.76-2 3.44-2.88 5.19a.42.42 0 0 1-.19.21c0-.11-.06-.19-.08-.28-.72-3-1.3-6-1.82-9-.12-.66-1.06-.94-1.59-1.22-.3-.14-.79-.51-1.14-.46a.33.33 0 0 0-.22.11.42.42 0 0 0 .11.62l.31.22c.47.38.11.83-.13 1.25l-.93 1.65-1.86 3.3a11.29 11.29 0 0 1-1 1.38.56.56 0 0 1-.82.16.67.67 0 0 0-.87.15.3.3 0 0 0 .12.5 3.06 3.06 0 0 1 .49.22 6.3 6.3 0 0 1 .8.45 6.58 6.58 0 0 1 .61.42 6 6 0 0 0 .71.53c.16.11.38.07.51.23s.12 0 .17 0 .21-.16.32-.24.14-.18.09-.36a1.14 1.14 0 0 0-.46-.61c-.27-.18-.3-.34-.19-.65.76-2 2-3.81 3-5.73a1.25 1.25 0 0 1 .16-.24 1.63 1.63 0 0 1 .26.91c0 .4.16.81.25 1.21 0 .21.43 2.39.5 2.39l.34 1.61.57 2.69a7.19 7.19 0 0 0 .51 2.23c.24.38.91.62 1.14.09.59-1.34 1.38-2.64 2.09-3.92a40 40 0 0 1 2.51-3.88.56.56 0 0 1 .74-.18zM171.49 287.39a5.74 5.74 0 0 1-2-.29 45.2 45.2 0 0 1-5.53-1.92c.35-.95.74-1.88 1.18-2.8.22-.44.44-.88.68-1.32a8.22 8.22 0 0 0 .57-1.12.77.77 0 0 1 .22-.26c.18-.13.39-.23.57-.37a.62.62 0 0 0 .24-.32.44.44 0 0 0-.07-.48.5.5 0 0 0-.52-.16c-.69.33-1.39.64-2.09.95-.45.19-1.25.31-1.37.86a.4.4 0 0 0 .37.51.62.62 0 0 0 .27-.11.56.56 0 0 1 .44 0c.37.3-1 2.57-1.21 2.95a9.06 9.06 0 0 1-1.16 2.2 1.31 1.31 0 0 0-.05-.21c-.24-.65-.54-1.29-.75-1.95 0-.08-.08-.16-.12-.24a3 3 0 0 1-.39-1c.32-.17.5-.34.95-.59.15-.08.28-.17.29-.34a.43.43 0 0 0-.23-.48c-.24-.12-.94.18-1.2.3-.66.31-.82.36-1.41.59a14.05 14.05 0 0 0-2 .94.37.37 0 0 0 0 .68.72.72 0 0 0 .52.07c.25-.05.5-.05.75-.09.69 0 1.09 1.43 1.34 1.93q.65 1.32 1.26 2.64c.33.72.66 1.45 1 2.18.23.51.59 1.17 0 1.56a5.71 5.71 0 0 0-.47.39.33.33 0 0 0 .16.57.61.61 0 0 0 .27 0c.77-.32 1.5-.74 2.28-1.06.36-.15 1.67-.4 1.66-.87a.48.48 0 0 0-.64-.42c-.14.05-.48.21-.62.14s-.27-.51-.34-.64l-.85-1.58a4.89 4.89 0 0 1-.65-1.34h.13l2.37.72 1.27.37a4.59 4.59 0 0 0 .78.29 7.13 7.13 0 0 1 1 .36v.05c-.1.21-.32.24-.51.3a.33.33 0 0 0-.23.48c.19.48.61.23.9.06.47-.27 1-.46 1.5-.7.79-.38 1.6-.6 2.41-.92a.22.22 0 0 0 .14-.24c0-.58-.76-.3-1.11-.27zM100.34 286.14a7.53 7.53 0 0 0-3.34.07 5.89 5.89 0 0 0-3.19 2.21 5.61 5.61 0 0 0-1.09 3.93 5.45 5.45 0 0 0 2.07 3.3 7.88 7.88 0 0 0 3.81 1.72 6.62 6.62 0 0 0 4.57-.83 6.29 6.29 0 0 0 2.62-3.91v-.31c.52-3.32-2.43-5.61-5.45-6.18zm1.71 9.15a4.16 4.16 0 0 1-2.06 1.13 3.91 3.91 0 0 1-3.73-1.66 6 6 0 0 1-.67-5.17 4.18 4.18 0 0 1 .6-1.17c1.22-1.68 3.47-1.63 5.16-.71a4.63 4.63 0 0 1 2.19 3.88 5 5 0 0 1-1.49 3.7zM157.79 293.34a3.59 3.59 0 0 1-2.29-.52l-1.5-1.05c-.28-.19-1.2-.6-1.23-1 0-.2.42-.51.56-.7a3.07 3.07 0 0 0 .57-1.75 2.85 2.85 0 0 0-1.27-2.33 3.65 3.65 0 0 0-2.1-.48 10.59 10.59 0 0 0-2.14.39l-4.05 1c-.25.06-.67.13-.67.46a.33.33 0 0 0 .27.33.24.24 0 0 1 .09.06c.21.18 1.15-.19 1.15-.19s.52-.22.74.16.5 1.29.68 1.71c.51 1.18.87 2.4 1.26 3.59.29.9.82 2.48.12 3.15a2.36 2.36 0 0 1-.62.4c-.25.11-.36.21-.34.46s.27.45.45.42c1.33-.22 2.57-.77 3.89-1a1.64 1.64 0 0 0 .69-.25c.19-.16.37 0 .15-.65-.15-.46-.41-.25-.81-.1a1 1 0 0 1-.84.06.91.91 0 0 1-.3-.46c-.32-.86-.63-1.71-.89-2.59l-.13-.39.74-.28c.76-.24 1.76.62 2.38 1 .83.5 1.64 1 2.43 1.58a2.18 2.18 0 0 0 1.05.5 2.4 2.4 0 0 0 1.32-.44 10 10 0 0 0 1.2-.48.23.23 0 0 0 0-.36.75.75 0 0 0-.56-.25zm-6.48-3.34a2.3 2.3 0 0 1-.61.4 16.41 16.41 0 0 1-1.67.71.31.31 0 0 1-.19 0 .3.3 0 0 1-.14-.17 18 18 0 0 1-1-2.8c-.09-.35-.31-1 0-1.23a2.69 2.69 0 0 1 2.34-.3 2.56 2.56 0 0 1 1.62 1.68 1.69 1.69 0 0 1-.35 1.71zM66 272.69a1.11 1.11 0 0 0 .22.83.38.38 0 0 0 .62 0c.1-.15.2-.3.29-.45.21-.34.42-.67.62-1 .5-.86-.84-1.44-1.43-1.86-.78-.56-1.58-1.09-2.37-1.64s-1.3-.93-1.91-1.44c-.45-.37-1-1.25-1.59-.6-.22.24-.08.35.12.52h.08a4.78 4.78 0 0 1 .59.41c.17.14.17.22 0 .39-1 1.38-2 2.78-3 4.18-.33.47-.66.94-1 1.38-.22.27-.6.9-.95 1a1.49 1.49 0 0 1-1.08 0 .86.86 0 0 0-.67.07c-.33.15-.34.38-.05.58 1 .69 2 1.5 3 2.23l1.59 1.17.76.57c.14.1.54.52.7.52.41.3 1.14 1.16 1.67.71a3.79 3.79 0 0 0 .42-.38 3 3 0 0 1 1.21-.82.37.37 0 0 0 .22-.52.53.53 0 0 0-.52-.21 1.39 1.39 0 0 0-.49.19.81.81 0 0 1-.33.11 2.14 2.14 0 0 0-.57.12.9.9 0 0 1-.4 0 4.6 4.6 0 0 1-2.3-1.24 5.45 5.45 0 0 1-1.44-1.3c-.29-.57.64-1.44.94-1.87s.74-.91 1.09-1.39a1.35 1.35 0 0 1 .21-.2s1.28.94 1.38 1a2.42 2.42 0 0 1 1 1.33.6.6 0 0 1-.08.35c-.21.33-.22.45 0 .75a.48.48 0 0 0 .82-.05 3 3 0 0 1 .18-.3 7.18 7.18 0 0 0 1-1.37 1.73 1.73 0 0 1 .17-.21 4 4 0 0 0 .2-.35.2.2 0 0 0 0-.15c-.11-.26-.5-.51-.75-.39a1.45 1.45 0 0 0-.32.18.81.81 0 0 1-1.06 0c-.37-.26-2.12-1.13-1.58-1.7a5.75 5.75 0 0 0 .5-.78c.42-.63.92-1.2 1.34-1.84l.19.1c.31.2.6.42.93.6a4.42 4.42 0 0 1 1.34 1.08 1.4 1.4 0 0 1 .36.69c0 .16 0 .34.09.5a1 1 0 0 1 .04.5zM128.2 290.21a4.73 4.73 0 0 0-2.72-.75c-1.42-.1-2.85-.18-4.27-.32h-.86c-.2 0-.33.28-.16.5a.49.49 0 0 0 .36.17 1.83 1.83 0 0 1 .68.23.75.75 0 0 1 .42.72c0 1.47-.2 2.94-.24 4.41v2a5.83 5.83 0 0 1-.09 1.77h-.93a.48.48 0 0 0-.29.12.47.47 0 0 0-.09.51.49.49 0 0 0 .41.34c1.42.11 2.87 0 4.3.05.33 0 .81.09.68-.64-.07-.37-.67-.18-1-.31a1.54 1.54 0 0 1-.75-1.05 9.4 9.4 0 0 1 0-2.37c0-.35 1.93-.29 2.27-.32a7.19 7.19 0 0 0 1.66-.33 2.72 2.72 0 0 0 1.35-1 2.84 2.84 0 0 0 0-2.9 3 3 0 0 0-.73-.83zm-1.14 3.2c-.09.15-.15.31-.25.45a1.33 1.33 0 0 1-.53.4 3.61 3.61 0 0 1-1.41.31 2 2 0 0 1-.43 0 1.84 1.84 0 0 0-.74 0 40.36 40.36 0 0 0 0-4.4 4 4 0 0 1 .61 0 6.14 6.14 0 0 1 1.64.29.65.65 0 0 1 .33.21.44.44 0 0 0 .15.12 1.82 1.82 0 0 1 .87 1.42 2.06 2.06 0 0 1-.24 1.2zM143.16 298c-1.22-.08-1.94-1.2-2.61-2.08s-1.39-2-2-3c-.13 0-.62-1-.7-1.11l-.69-1.11c-.45-.73-.88-1.47-1.31-2.21a.39.39 0 0 0-.15-.16.36.36 0 0 0-.35.07 2.17 2.17 0 0 0-.68.87 26.75 26.75 0 0 0-1 3.31c-.48 1.54-1 3.07-1.45 4.61-.14.43-.48 2.09-1 2.17-.14 0-.27.08-.41.11a1.51 1.51 0 0 0-.38.09.28.28 0 0 0-.18.39c.17.41.68.15 1 .09a14.43 14.43 0 0 1 1.45-.2c.34 0 1.46.13 1.53-.33a.29.29 0 0 0-.24-.36 4.62 4.62 0 0 0-.63-.11c-.91-.08.1-2.42.33-2.91s.55-.33 1-.38l2.83-.38h.21a.53.53 0 0 1 .26.25c.36.53.69 1.08 1 1.64.13.24.35.5.28.75a.66.66 0 0 1-.48.42.62.62 0 0 0-.51.3.29.29 0 0 0 .1.43.42.42 0 0 0 .5.06h.13c1.39-.21 2.8-.19 4.2-.39a.63.63 0 0 0 .49-.29c-.12-.44-.17-.54-.54-.54zm-9.16-3.1c.27-1.24.6-2.44 1-3.68.24.37.44.67.64 1a7.85 7.85 0 0 1 .44.73 8.69 8.69 0 0 0 .86 1.2 2.59 2.59 0 0 1 .21.38 13.15 13.15 0 0 1-3.15.37zM90.64 291.88l-.43-.14a.4.4 0 0 0-.46.15 2.25 2.25 0 0 1-.86.71 2.4 2.4 0 0 1-2-.2c-.66-.24-1.32-.51-2-.75a.49.49 0 0 1-.32-.52 16 16 0 0 1 1.24-3.6c.48-1.28 1-2.56 1.49-3.82a.58.58 0 0 1 .48-.38H88l.78.18a1.37 1.37 0 0 0 .47.08.52.52 0 0 0 .36-.5c.06-.44-1-.62-1.34-.73l-1.75-.65a9 9 0 0 1-1.41-.56c-.34-.19-.52-.35-.84 0s-.17.38.06.53l.93.6a.28.28 0 0 1 .14.29 7.29 7.29 0 0 1-.59 1.76c-.25.66-.47 1.32-.69 2a28.5 28.5 0 0 1-1.52 3.91c-.28.56-.67.4-1.19.34a1.74 1.74 0 0 0-.29-.07.5.5 0 0 0-.49.39c0 .56 1.7.85 2.14 1 .88.3 1.76.61 2.62.94s1.53.58 2.28.88c.4.16 1.72 1 2 .42.08-.17.14-.34.23-.49a8.61 8.61 0 0 1 .86-1.3.25.25 0 0 0-.12-.47zM178.8 276.16a1.49 1.49 0 0 0-1.06 0 1.85 1.85 0 0 0-1.27 1.79 1.72 1.72 0 0 0 .55 1 1.34 1.34 0 0 0 1.56.29 2.44 2.44 0 0 0 1.13-1 1.7 1.7 0 0 0-.91-2.08zM196.86 265.88c-.4.46.06 1.13 0 1.64a3.64 3.64 0 0 1-.39 1.34 4.18 4.18 0 0 1-2 1.93 5.82 5.82 0 0 1-6.54-1.83 3.46 3.46 0 0 1-.84-2.46 3.7 3.7 0 0 1 .94-2 11.38 11.38 0 0 1 2.14-1.84 2.21 2.21 0 0 1 1.83-.44 4.43 4.43 0 0 1 .71.39 1.09 1.09 0 0 0 .78.15.59.59 0 0 0 .4-.63.51.51 0 0 0-.2-.34c-.84-.65-1.61-1.6-2.72-.93a16.41 16.41 0 0 0-3.16 2.47c-.19.19-.37.38-.55.59a5.36 5.36 0 0 0-.77 6.2 5.8 5.8 0 0 0 5.15 3.19c2.5 0 4.34-1.86 6.11-3.39a2 2 0 0 0 .72-1 2.16 2.16 0 0 0-.21-1.38c-.16-.32-.72-2.45-1.4-1.66zM209.65 256.3a1 1 0 0 0-.54.13 2.86 2.86 0 0 1-1.46.29 8.7 8.7 0 0 1-1.93-.56c-.7-.22-1.4-.42-2.1-.63l-3.86-1.12a10.07 10.07 0 0 0-1.84-.51.53.53 0 0 0-.55.79c.09.21.18.42.26.63s.15.34.22.51.22.51.32.76l.22.52c1 2.37 1.89 4.78 2.8 7.18a1.4 1.4 0 0 1 .09.94c-.1.31-.87 1-.49 1.3s.67 0 .87-.27c.34-.45.69-.88 1.06-1.29l.63-.67c.17-.16.46-.35.49-.59s-.17-.31-.3-.39a.48.48 0 0 0-.31-.08.7.7 0 0 0-.23.11c-.11.07-.2.17-.32.25-.6.39-.83-.52-1-.91s-.3-.82-.43-1.24.05-.63.33-.95l1.95-2.2a.93.93 0 0 1 .47-.3l2.11.65a.93.93 0 0 1 .39.18c.22.18.12.48 0 .69s-.42.62 0 .79.93-.44 1.18-.78a15.7 15.7 0 0 1 1.92-2.16c.25-.31.83-.99.05-1.07zm-6.77 1.19v.05c-.67.73-1.33 1.46-2 2.18 0 0-.08.08-.13.06a.11.11 0 0 1-.07-.08L200 258l-.33-.86c-.06-.13-.1-.28-.17-.4a2 2 0 0 1-.12-.27l.63.16 1.63.39c.13 0 1.29.23 1.28.39a.08.08 0 0 1-.04.08z"/><path class="b" d="M137.41 89.86a8.32 8.32 0 0 1-.52 5.74.89.89 0 0 0-.1.63.54.54 0 0 0 .47.32 1.69 1.69 0 0 0 1.29-.55 12.33 12.33 0 0 0 3.22-5.47c.75-2.27 1.44-4.71.86-7.1a10.7 10.7 0 0 0-1.75-3.55 7.69 7.69 0 0 0-1.73-1.91c-.27-.19-1-.92-1.35-.83s-.33.48-.31.78c0 .78.07 1.55.06 2.33a44 44 0 0 1-.76 5.36 6.91 6.91 0 0 0 .13 3c.18.39.35.81.49 1.25zM113.15 84.16a.88.88 0 0 0 .41.59 1 1 0 0 0 .63 0c2-.31 3.91-1 5.93-1.28a1 1 0 0 0 .38-.09c.42-.21.41-.72.49-1.12a12.25 12.25 0 0 1 .35-1.57c.21-.74.48-1.46.73-2.19a.52.52 0 0 0 0-.17c0-.08-.1-.13-.18-.18a31.18 31.18 0 0 0-3-1.55 14 14 0 0 0-3.91-1h-.61a.79.79 0 0 0-.57.16.71.71 0 0 0-.16.26 12.57 12.57 0 0 0-.8 6.42 14 14 0 0 0 .31 1.72zM122 94.46a1.26 1.26 0 0 0-.07-.54l-.87-3.24a3.28 3.28 0 0 0-.5-1.22 3.59 3.59 0 0 0-2.46-1.08c-1.62-.25-4.12-1.43-5.09.24a8 8 0 0 0-.66 3.93 8.52 8.52 0 0 0 .08.87 13 13 0 0 0 1.11 3.64.83.83 0 0 0 .22.33.8.8 0 0 0 .55.07 18.64 18.64 0 0 0 6.87-2.12c.41-.2.82-.46.82-.88zM127.84 99.81c-1.71-.56-3.45-2.75-5.21-2.09-.87.32-7 2.41-6.58 3.6a1.24 1.24 0 0 0 .53.58 11.42 11.42 0 0 0 7.6 2.07h.16a10 10 0 0 0 4-1.38c2.13-1.33 1.71-2.05-.5-2.78zM132 87.89l-4.56.86a1.33 1.33 0 0 0-.75.31 1.25 1.25 0 0 0-.27.54c-.53 1.6-1 3.2-1.58 4.8a.44.44 0 0 0 .16.6 13.46 13.46 0 0 0 7.8 2.64h.2a.89.89 0 0 0 .53-.12.85.85 0 0 0 .24-.42c.6-1.77 1.63-9.84-1.77-9.21zM124.94 78.76a.62.62 0 0 0 .06.44c.36 1 .73 2 1.1 3a2.23 2.23 0 0 0 .52.94 2.35 2.35 0 0 0 1 .49q2.68.73 5.38 1.39a.8.8 0 0 0 .68 0 .71.71 0 0 0 .2-.37 16.79 16.79 0 0 0 .61-4.78c0-2.1-.55-4.07-2.09-4.41-2.25-.48-5.55 1.74-7.24 3a.64.64 0 0 0-.22.3zM116.83 73.7a8.17 8.17 0 0 1 6 1.76l.15.14a.87.87 0 0 0 .57.36.85.85 0 0 0 .38-.12l4-2.06c1.08-.56 2.94-.88 2.18-2.12-.88-1.44-3.94-1.8-5.43-1.87a14.06 14.06 0 0 0-6.34 1.32c-.93.42-1.94 1.06-2.07 2.08a.51.51 0 0 0 .09.4.58.58 0 0 0 .47.11zM110.48 84.23c-.4-1.09-.58-6.72-1-6.81-.74-.16-3.16 2.41-3.58 3a11.1 11.1 0 0 0 2.58 15.36 1.79 1.79 0 0 0 .92.41c.26 0 .48-.15.61-.58a2.57 2.57 0 0 0 0-1.17 14.45 14.45 0 0 1 .5-6.37 6.06 6.06 0 0 0 .48-2.35 6.13 6.13 0 0 0-.51-1.49z"/><path class="b" d="M132 87.89l-4.56.86a1.33 1.33 0 0 0-.75.31 1.25 1.25 0 0 0-.27.54c-.53 1.6-1 3.2-1.58 4.8a.44.44 0 0 0 .16.6 13.46 13.46 0 0 0 7.8 2.64h.2a.89.89 0 0 0 .53-.12.85.85 0 0 0 .24-.42c.6-1.77 1.63-9.84-1.77-9.21zM113.15 84.16a.88.88 0 0 0 .41.59 1 1 0 0 0 .63 0c2-.31 3.91-1 5.93-1.28a1 1 0 0 0 .38-.09c.42-.21.41-.72.49-1.12a12.25 12.25 0 0 1 .35-1.57c.21-.74.48-1.46.73-2.19a.52.52 0 0 0 0-.17.29.29 0 0 0-.18-.18 31.18 31.18 0 0 0-3-1.55 14 14 0 0 0-3.91-1h-.61a.79.79 0 0 0-.57.16.71.71 0 0 0-.16.26 12.57 12.57 0 0 0-.8 6.42 14 14 0 0 0 .31 1.72zM116.83 73.7a8.17 8.17 0 0 1 6 1.76l.15.14a.87.87 0 0 0 .57.36.85.85 0 0 0 .38-.12l4-2.06c1.08-.56 2.94-.88 2.18-2.12-.88-1.44-3.94-1.8-5.43-1.87a14.06 14.06 0 0 0-6.34 1.32c-.93.42-1.94 1.06-2.07 2.08a.51.51 0 0 0 .09.4.58.58 0 0 0 .47.11zM131.07 134c.05.17.75 1.59.73 1.62a9.11 9.11 0 0 0 1.13-2.08 1.78 1.78 0 0 0 .14-.55 2 2 0 0 0-.14-.64c-.2-.61-.42-1.23-.64-1.84a8.46 8.46 0 0 0-.72-1.85 5.69 5.69 0 0 0-.83 3.53 7.54 7.54 0 0 0 .33 1.81zM124.94 78.76a.62.62 0 0 0 .06.44c.36 1 .73 2 1.1 3a2.23 2.23 0 0 0 .52.94 2.35 2.35 0 0 0 1 .49q2.68.73 5.38 1.39a.8.8 0 0 0 .68 0 .71.71 0 0 0 .2-.37 16.79 16.79 0 0 0 .61-4.78c0-2.1-.55-4.07-2.09-4.41-2.25-.48-5.55 1.74-7.24 3a.64.64 0 0 0-.22.3zM137.41 89.86a8.32 8.32 0 0 1-.52 5.74.89.89 0 0 0-.1.63.54.54 0 0 0 .47.32 1.69 1.69 0 0 0 1.29-.55 12.33 12.33 0 0 0 3.22-5.47c.75-2.27 1.44-4.71.86-7.1a10.7 10.7 0 0 0-1.75-3.55 7.69 7.69 0 0 0-1.73-1.91c-.27-.19-1-.92-1.35-.83s-.33.48-.31.78c.05.78.07 1.55.06 2.33a44 44 0 0 1-.76 5.36 6.91 6.91 0 0 0 .13 3c.18.39.35.81.49 1.25zM134.48 130.38a.2.2 0 0 0 .08.1c.07 0 .14 0 .18-.1l.88-1.2a3.61 3.61 0 0 0 .59-1c.32-.93-.45-2.16-.88-3 0 .08-1.75 1-1.9 1.18-.5.45-.24.78 0 1.35.34.92.7 1.79 1.05 2.67zM133.36 137a1.32 1.32 0 0 0 0 .28.94.94 0 0 0 .31.71 1.64 1.64 0 0 0 .62.26 10.6 10.6 0 0 0 2.49.4 3.51 3.51 0 0 0 2.34-.78 4.82 4.82 0 0 0 1.28-2.78c0 .25-3.69.3-4.08.35-1.17.12-2.69.21-2.96 1.56zM141.28 130.78a31.51 31.51 0 0 0-3.36.44c-1 .17-1.72.19-2.19 1.13-.27.55-.54 1.1-.82 1.65.09-.17 1.1-.18 1.29-.2.44 0 .89 0 1.33-.08l3.1-.3a.59.59 0 0 0 .3-.09.93.93 0 0 0 .12-.27c.18-.63.37-1.26.55-1.89a.38.38 0 0 0 0-.21c.01-.18-.17-.19-.32-.18zM137.58 125.88c0 .15.12.33.28.36a.36.36 0 0 0 .3-.13c.61-.66 1.23-1.3 1.83-2l.47-.52c.25-.28-.25-.14-.36-.12-.37.06-.74.08-1.11.16a9.45 9.45 0 0 0-1.36.37c-.48.17-.44.56-.32 1zM137.66 129.44a28 28 0 0 0 3.42-.56 1.33 1.33 0 0 0 .86-.46 3.58 3.58 0 0 0 .24-1.31c.07-.57.12-1.15.18-1.72 0-.25.15-1.15-.17-1.25s-.87.51-1 .7a31.14 31.14 0 0 0-3.56 4.61zM136.17 156a1.16 1.16 0 0 0-.61-.36 1.35 1.35 0 0 0-.44.07 10.11 10.11 0 0 0-1.06.35.48.48 0 0 0-.26.18c-.1.18.16.38.38.66l1.59 2.08a2.56 2.56 0 0 0 1.14 1 2.12 2.12 0 0 0 1.66-.33c.2-.11.41-.29.36-.51a.46.46 0 0 0-.13-.21 33.29 33.29 0 0 0-2.63-2.93zM109.45 77.42c-.74-.16-3.16 2.41-3.58 3a11.1 11.1 0 0 0 2.58 15.36 1.79 1.79 0 0 0 .92.41c.26 0 .48-.15.61-.58a2.57 2.57 0 0 0 0-1.17 14.45 14.45 0 0 1 .5-6.37 6.06 6.06 0 0 0 .48-2.35 6.13 6.13 0 0 0-.46-1.51c-.42-1.07-.6-6.7-1.05-6.79zM133.87 159.33l-.64-.78-1.35-1.64a.47.47 0 0 0-.25-.19.49.49 0 0 0-.31.05 6.93 6.93 0 0 0-1.54.7c-.7.56 1.36 1.69 1.77 1.92a7.82 7.82 0 0 0 1.63.69 7 7 0 0 0 .9.22c.24 0 .4.11.45 0a.3.3 0 0 0 0-.21c-.07-.22-.53-.56-.66-.76zM138.15 154.64c-.26 0-.66 0-.68.3s.2.4.29.51c.24.31.54.58.81.87a18.9 18.9 0 0 0 1.57 1.53 23.79 23.79 0 0 0 2.5-3.23.68.68 0 0 0 .15-.57 43 43 0 0 0-4.64.59zM132.14 153.66a2.51 2.51 0 0 0 .72-1.15 12 12 0 0 0 .55-1.76c.08-.32.5-1.59.32-1.87s-1.29.37-1.55.54a6.45 6.45 0 0 0-1.41 1.25 10.76 10.76 0 0 0-1.72 3 2.29 2.29 0 0 0-.26 1.08l2.23-.57a3 3 0 0 0 1.12-.52zM122 94.46a1.26 1.26 0 0 0-.07-.54l-.87-3.24a3.28 3.28 0 0 0-.5-1.22 3.59 3.59 0 0 0-2.46-1.08c-1.62-.25-4.12-1.43-5.09.24a8 8 0 0 0-.66 3.93 8.52 8.52 0 0 0 .08.87 13 13 0 0 0 1.11 3.64.83.83 0 0 0 .22.33.8.8 0 0 0 .55.07 18.64 18.64 0 0 0 6.87-2.12c.41-.2.82-.46.82-.88zM127.84 99.81c-1.71-.56-3.45-2.75-5.21-2.09-.87.32-7 2.41-6.58 3.6a1.24 1.24 0 0 0 .53.58 11.42 11.42 0 0 0 7.6 2.07h.16a10 10 0 0 0 4-1.38c2.13-1.33 1.71-2.05-.5-2.78zM137.27 152.67a1.11 1.11 0 0 0 .24-.5l.81-2.78a.25.25 0 0 0 0-.17.17.17 0 0 0-.11-.09 5.35 5.35 0 0 0-1.73-.62.55.55 0 0 0-.39.05c-.14.09-.16.29-.22.57-.11.44-.21.88-.31 1.33q-.3 1.33-.57 2.67l1.63-.22a1.08 1.08 0 0 0 .65-.24zM139.64 152.63a.25.25 0 0 0 .15 0l2.6-.27a.38.38 0 0 0 .23-.08c.09-.08-1.13-1.29-1.25-1.4a4.51 4.51 0 0 0-.79-.59c-.45-.21-.42-.11-.54.38s-.29 1.15-.44 1.72a.22.22 0 0 0 0 .21z"/><path d="M144.26 150.53a15 15 0 0 0-2.81-2.53 10.29 10.29 0 0 0-6.46-1.93 7.19 7.19 0 0 0-3.49 1.2 12.08 12.08 0 0 0-4.29 4.76 1.74 1.74 0 0 1 .13-1.2c.92-2.55 3-7 4-9.55a6 6 0 0 1 .71-1.47.38.38 0 0 1 .25-.2.49.49 0 0 1 .24.08 11.47 11.47 0 0 0 2.46 1.15 6.23 6.23 0 0 0 4.13-.16 6.8 6.8 0 0 0 3.14-2.93 14.46 14.46 0 0 0 1.47-4.1 32.42 32.42 0 0 0 .51-11.11c-.36-2.77-6.89-.14-8.21.38a12.21 12.21 0 0 0-4.65 3 10.21 10.21 0 0 0-2.52 6.11 8.34 8.34 0 0 0 .42 3.29c.3.89 1.25 1.81 1.12 2.78a4.46 4.46 0 0 1-.47 1.29 51.65 51.65 0 0 0-2.84 7.09 5.51 5.51 0 0 1-.64 1.51v-15.75c0-3.94 0-7.87-.05-11.8a4.82 4.82 0 0 1 .74-3.16c.37-.44.86-.77 1.26-1.19 1.07-1.1.84-3.11-.61-3.52a4.65 4.65 0 0 0 1.69-7.08l1.15-.84a32.45 32.45 0 0 0 4.11-3 19.43 19.43 0 0 1 1.65-1.65c.6-.38 1.44-.29 2.1-.54a9.49 9.49 0 0 0 2.55-1.41 11.35 11.35 0 0 0 3.55-4.67 17 17 0 0 0 .3-10.8 14.23 14.23 0 0 0-1.64-4 13.32 13.32 0 0 0-5.28-4.5c-.94-.48-2.49-.72-3.29-1.3-.56-.41-.77-1.24-1.22-1.85-2.14-2.87-6.5-4.38-10-4.42a13.3 13.3 0 0 0-6.74 1.78 13.1 13.1 0 0 0-2.71 2c-.71.71-.83 1.64-1.66 2.24s-2.3 1.1-3.35 1.7a16.93 16.93 0 0 0-5.61 4.75 12.64 12.64 0 0 0-2.14 8.62 13 13 0 0 0 1 3.74 14.33 14.33 0 0 0 4.43 5.65c2.16 1.67 4.69 2.23 6.73 4.17l.43.41a17.81 17.81 0 0 0 4.25 3.78 4 4 0 0 0 1.87 7.09 2.24 2.24 0 0 0-.6 3.63 5.86 5.86 0 0 1 1.62 1.11 5.15 5.15 0 0 1 .48 2.39c.11 17 .13 21.08.24 38.12 0-2.38.09 8.25.09 5.87q.15 19.85.28 39.7v.78c-.06 1.2.7.85 3.46.89 1.23 0 1-.07 1-.45v-4.72a.1.1 0 0 1 .1-.1h2a.15.15 0 0 0 .15-.15v-.93-1.69c0-.17 1.55 0 1.7 0h.05V196c0-.2-.08-.52.06-.7s.43-.15.61-.16h2.26a29.92 29.92 0 0 0 3.14-.07c1.24-.14 1.23-.32 1.24-1.47 0-.7.09-3.3-.3-3.54s-1.2 0-1.64 0h-1.7c-.95 0-1.1.08-1.06.77v1.45a.19.19 0 0 0 .2.14h.73c.35 0 .6-.07.53-.48v-.38c0-.19 0-.35 1.48-.37.36 0 .38.11.39.21.11 1.44.33 2.13-.87 2.14-.91 0-1.53.05-2.68.1-.54 0-2.54.41-2.41-.29 0-2.06-.07-4.09 0-6.15 0-2.38-.14-1.87 1.72-1.93 1.17 0 1.76 0 2.89-.06.33 0 1.17-.18 1.19.23s.27 1.27-.24 1.31-1 .08-1.49.15c-.28 0-.22-.13-.23-.25s0-.14 0-.21-.12-.09-.19-.11a3.85 3.85 0 0 0-.83 0c-.17 0-.38.06-.45.22a.49.49 0 0 0 0 .27c0 .38.07.76.11 1.15a.86.86 0 0 0 .05.23c.12.23.42.26.68.26 1.08 0 1.69-.11 3.38-.13 1.06-.25.67-2.17.61-3.5 0-1.13.15-1.59-1.15-1.5-1 .07-2 0-3.23.07-.42 0-2.77.31-2.77 0a3 3 0 0 0 0-.8c0-.13-1 0-1.68 0a.1.1 0 0 1-.11-.1v-1.19c-.06-.75 0-1.64-.05-1.8s-1.26-.15-2-.08a.16.16 0 0 1-.17-.16c0-7.33-.17-14.66-.2-22a24.58 24.58 0 0 1 1.91 1.91 17.15 17.15 0 0 0 2.46 1.87 8.81 8.81 0 0 0 5.92 1.39 10.24 10.24 0 0 0 2.47-.82 11.1 11.1 0 0 0 1.89-1 10.49 10.49 0 0 0 2.27-2.29 18.44 18.44 0 0 0 2.49-4.49c.65-1.33-.65-2.32-1.51-3.31zm-5.16-12.67a3.51 3.51 0 0 1-2.34.78 10.6 10.6 0 0 1-2.49-.4 1.64 1.64 0 0 1-.62-.26.94.94 0 0 1-.31-.71 1.32 1.32 0 0 1 0-.28c.27-1.34 1.79-1.43 2.94-1.56.39-.05 4-.1 4.08-.35a4.82 4.82 0 0 1-1.26 2.78zm2.55-6.73c-.18.63-.37 1.26-.55 1.89a.93.93 0 0 1-.12.27.59.59 0 0 1-.3.09l-3.1.3c-.44 0-.89 0-1.33.08-.19 0-1.2 0-1.29.2.28-.55.55-1.1.82-1.65.47-.94 1.22-1 2.19-1.13a31.51 31.51 0 0 1 3.36-.44c.15 0 .33 0 .39.14a.38.38 0 0 1-.07.25zm.54-7c.32.1.19 1 .17 1.25-.06.57-.11 1.15-.18 1.72a3.58 3.58 0 0 1-.24 1.31 1.33 1.33 0 0 1-.86.46 28 28 0 0 1-3.42.56h-.07a31.14 31.14 0 0 1 3.56-4.61c.17-.17.74-.77 1.04-.68zm-4.56-.1a9.45 9.45 0 0 1 1.36-.37c.37-.08.74-.1 1.11-.16.11 0 .61-.16.36.12l-.47.52c-.6.66-1.22 1.3-1.83 2a.36.36 0 0 1-.3.13c-.16 0-.24-.21-.28-.36l-.27-.86c-.12-.45-.16-.84.32-1.05zm-4.2 2.36c.15-.13 1.94-1.1 1.9-1.18.43.8 1.2 2 .88 3a3.61 3.61 0 0 1-.59 1l-.88 1.2c0 .06-.11.13-.18.1a.2.2 0 0 1-.08-.1c-.35-.88-.71-1.75-1.06-2.63-.23-.6-.49-.93.01-1.38zm-1.84 2.19a8.46 8.46 0 0 1 .72 1.85c.22.61.44 1.23.64 1.84a2 2 0 0 1 .14.64 1.78 1.78 0 0 1-.14.55 9.11 9.11 0 0 1-1.13 2.08s-.68-1.45-.73-1.62a7.54 7.54 0 0 1-.31-1.83 5.69 5.69 0 0 1 .81-3.5zm5.25-43a44 44 0 0 0 .76-5.36c0-.78 0-1.55-.06-2.33 0-.3 0-.7.31-.78s1.08.64 1.35.83a7.69 7.69 0 0 1 1.73 1.91 10.7 10.7 0 0 1 1.75 3.55c.58 2.39-.11 4.83-.86 7.1a12.33 12.33 0 0 1-3.22 5.5 1.69 1.69 0 0 1-1.29.55.54.54 0 0 1-.47-.32.89.89 0 0 1 .1-.63 8.32 8.32 0 0 0 .52-5.74c-.14-.44-.31-.86-.44-1.3a6.91 6.91 0 0 1-.18-2.99zm-3.05 11.55a.85.85 0 0 1-.24.42.89.89 0 0 1-.53.12h-.18A13.46 13.46 0 0 1 125 95a.44.44 0 0 1-.18-.62c.53-1.6 1-3.2 1.58-4.8a1.25 1.25 0 0 1 .27-.54 1.33 1.33 0 0 1 .75-.31l4.56-.86c3.42-.61 2.39 7.46 1.81 9.25zm-1.36-21.67c1.54.34 2 2.31 2.09 4.41a16.79 16.79 0 0 1-.61 4.78.71.71 0 0 1-.2.37.8.8 0 0 1-.68 0q-2.7-.66-5.38-1.39a2.35 2.35 0 0 1-1-.49 2.23 2.23 0 0 1-.52-.94c-.37-1-.74-2-1.1-3a.62.62 0 0 1-.06-.44.64.64 0 0 1 .25-.29c1.66-1.28 4.96-3.47 7.21-3.02zm-16.16-2.26c.13-1 1.14-1.66 2.07-2.08a14.06 14.06 0 0 1 6.34-1.32c1.49.07 4.55.43 5.43 1.87l-2.18 2.12-4 2.06a.85.85 0 0 1-.38.12.87.87 0 0 1-.57-.36l-.15-.14a8.17 8.17 0 0 0-6-1.76.58.58 0 0 1-.47-.11.51.51 0 0 1-.09-.41zm-2.66 2.86a.71.71 0 0 1 .16-.26.79.79 0 0 1 .57-.16h.61a14 14 0 0 1 3.91 1 31.18 31.18 0 0 1 3 1.55.29.29 0 0 1 .18.18.52.52 0 0 1 0 .17c-.25.73-.52 1.45-.73 2.19a12.25 12.25 0 0 0-.35 1.57c-.08.4-.07.91-.49 1.12a1 1 0 0 1-.38.09c-2 .26-3.93 1-5.93 1.28a1 1 0 0 1-.63 0 .88.88 0 0 1-.41-.59 14 14 0 0 1-.34-1.69 12.57 12.57 0 0 1 .83-6.46zm-3.15 12a14.45 14.45 0 0 0-.5 6.37 2.57 2.57 0 0 1 0 1.17c-.13.43-.35.58-.61.58a1.79 1.79 0 0 1-.92-.41 11.1 11.1 0 0 1-2.58-15.36c.42-.61 2.84-3.18 3.58-3 .45.09.63 5.72 1 6.81a6.13 6.13 0 0 1 .46 1.51 6.06 6.06 0 0 1-.43 2.36zm3.89 9.37a.8.8 0 0 1-.55-.07.83.83 0 0 1-.22-.33 13 13 0 0 1-1.11-3.64 8.52 8.52 0 0 1-.08-.87 8 8 0 0 1 .66-3.93c1-1.67 3.47-.49 5.09-.24a3.59 3.59 0 0 1 2.46 1.08 3.28 3.28 0 0 1 .5 1.22l.87 3.24a1.26 1.26 0 0 1 .07.54c-.05.42-.45.68-.82.88a18.64 18.64 0 0 1-6.87 2.15zm10 6.49h-.16a11.42 11.42 0 0 1-7.6-2.07 1.24 1.24 0 0 1-.53-.58c-.42-1.19 5.71-3.28 6.58-3.6 1.76-.66 3.5 1.53 5.21 2.09 2.21.73 2.63 1.45.49 2.76a10 10 0 0 1-4 1.48zm15.26 48.46c.15-.57.29-1.15.44-1.72s.09-.59.54-.38a4.51 4.51 0 0 1 .79.59c.12.11 1.34 1.32 1.25 1.4a.38.38 0 0 1-.23.08l-2.6.27a.25.25 0 0 1-.15 0 .22.22 0 0 1-.05-.21zm-4-1.95c.1-.45.2-.89.31-1.33.06-.28.08-.48.22-.57a.55.55 0 0 1 .39-.05 5.35 5.35 0 0 1 1.73.62.17.17 0 0 1 .11.09.25.25 0 0 1 0 .17l-.81 2.78a1.11 1.11 0 0 1-.24.5 1.08 1.08 0 0 1-.65.24l-1.63.22q.22-1.3.52-2.64zm-6.51 3.16a10.76 10.76 0 0 1 1.72-3 6.45 6.45 0 0 1 1.41-1.25c.26-.17 1.35-.84 1.55-.54s-.24 1.55-.32 1.87a12 12 0 0 1-.55 1.76 2.51 2.51 0 0 1-.72 1.15 3 3 0 0 1-1.12.47l-2.23.57a2.29 2.29 0 0 1 .21-1zm5.48 6.71c-.05.08-.21 0-.45 0a7 7 0 0 1-.9-.22 7.82 7.82 0 0 1-1.63-.69c-.41-.23-2.47-1.36-1.77-1.92a6.93 6.93 0 0 1 1.54-.7.49.49 0 0 1 .31-.05.47.47 0 0 1 .25.19l1.35 1.64.64.78c.17.2.59.54.65.79a.3.3 0 0 1-.04.21zm4-.72a2.12 2.12 0 0 1-1.66.33 2.56 2.56 0 0 1-1.14-1l-1.59-2.08c-.22-.28-.48-.48-.38-.66a.48.48 0 0 1 .26-.18 10.11 10.11 0 0 1 1.06-.35 1.35 1.35 0 0 1 .44-.07 1.16 1.16 0 0 1 .61.36 33.29 33.29 0 0 1 2.63 2.93.46.46 0 0 1 .13.21c.06.25-.17.43-.37.54zm4.07-5a23.79 23.79 0 0 1-2.5 3.23 18.9 18.9 0 0 1-1.57-1.53c-.27-.29-.57-.56-.81-.87-.09-.11-.31-.35-.29-.51s.42-.26.68-.3a43 43 0 0 1 4.64-.59.68.68 0 0 1-.16.61z"/></svg>