<svg version="1.1" xmlns="http://www.w3.org/2000/svg" xmlns:xlink="http://www.w3.org/1999/xlink" x="0px" y="0px" viewBox="0 0 185 185" style="enable-background:new 0 0 185 185;" xml:space="preserve">
    <rect width="185" height="185" />
    <g>
        <path fill='#FFFFFF' d="M162.3,91.4c-5.7,5.9-11.4,11.7-17.4,17.3c-0.2,0.2-0.5,0.3-0.8,0.3c-1.8,0.2-3.2-1.6-2.8-3.3
		c0.1-0.3,0.2-0.6,0.4-0.8c3.8-4.1,7.9-8,11.9-11.9c-0.1-0.4-0.2-0.4-0.3-0.7c-3.5,0-7,0-10.4,0c-14.2,0-28.5,0-42.7,0
		c-0.4,0-0.9,0-1.3,0c-1.8-0.1-3.7-0.2-3.8-2.5c-0.1-2.5,2-2.7,3.8-2.7c12.8,0,25.5,0,38.3,0c5.4,0,10.8,0,17.1,0
		c-3.2-3.2-5.7-5.8-8.3-8.4c-1.6-1.6-3.4-3-4.6-4.8c-0.6-0.8-0.5-2.6,0.1-3.6c0.3-0.5,2.6-0.6,3.2,0c6,5.7,11.9,11.6,17.6,17.5
		C162.9,88.5,162.9,90.8,162.3,91.4 M125.5,132.8c0,3.6-0.7,4.3-4.3,4.3c-11.3,0-22.5,0-33.8,0c-1.2,0-2.3,0-3.9,0
		c0,5.8,0,11.4,0,17c0,5-1.3,5.8-5.7,3.4c-12.1-6.8-24.3-13.6-36.3-20.5c-1-0.6-2-2.3-2-3.5c-0.1-31.6-0.1-63.2-0.1-94.7
		c0-2.8,1.2-3.7,3.9-3.7c26.2,0,52.3,0,78.5,0c2.7,0,3.8,1.1,3.8,3.8c-0.1,11.8,0,23.6,0,35.4c0,1.8-0.2,3.6-2.6,3.6
		c-2.4,0-2.6-1.7-2.6-3.6c0-10.1,0-20.2,0-30.3c0-1.1,0-2.3,0-3.6H52.4c3.3,1.9,5.8,3.4,8.3,4.8c6,3.4,11.9,7.1,18.1,10.1
		c3.7,1.8,4.8,4.2,4.7,8.2c-0.2,21.5-0.1,43-0.1,64.4v3.9h36.7c0.1-1.1,0.2-2.2,0.2-3.3c0-7.5,0-15.1,0-22.6c0-1.9-0.3-4.2,2.5-4.3
		c2.7-0.1,2.7,2.2,2.7,4.2C125.5,114.7,125.5,123.7,125.5,132.8" />
    </g>
</svg>
