<svg version="1.1" xmlns="http://www.w3.org/2000/svg" xmlns:xlink="http://www.w3.org/1999/xlink" x="0px" y="0px" viewBox="0 0 185 185" style="enable-background:new 0 0 185 185;" xml:space="preserve">
    <g>
        <rect width="185" height="185" />
    </g>
    <g>
        <g>
            <path fill='#FFFFFF' d="M152.2,42.1c-0.5-0.5-1.1-0.8-1.8-0.8L74.2,39c-1.4-0.1-2.5,1-2.5,2.3c0,0.4-8.2,51-18.6,73.4l-19.4-0.4
			c-0.7,0-1.5,0.3-2,0.9c-0.5,0.6-0.7,1.4-0.5,2.1c0.2,1,5.4,24.4,24.4,24.8c22,0.5,64.6,0.9,65.1,0.9c0,0,0,0,0,0
			c0.3,0,0.7-0.1,0.9-0.2c0.3,0,0.6-0.1,0.9-0.1c20.7-3.8,28.5-76.5,30.5-98.8C152.9,43.2,152.7,42.6,152.2,42.1z M55.6,137.1
			c-11.4-0.3-16.8-12.1-18.7-17.8l62.5,1.4c3.9,7.8,7.6,13.5,11.3,17.2C96.6,137.8,71,137.5,55.6,137.1z M121.5,137.8
			c-5,0.9-11.6-6.4-18.4-20.6c-0.4-0.8-1.2-1.4-2.2-1.4l-42.5-1c9.1-21.1,17.3-61.8,18-70.8l71.3,2.1
			C143.8,89.2,134,135.5,121.5,137.8z" />
            <path fill='#FFFFFF' d="M128.6,68C128.6,68,128.6,68,128.6,68c1.4,0,2.5-1.1,2.6-2.4c0-1.4-1-2.5-2.4-2.6l-38.9-1.4
			c-1.4,0-2.5,1-2.6,2.4c0,1.4,1,2.5,2.4,2.6L128.6,68z" />
            <path fill='#FFFFFF' d="M84.4,81.7c0,1.4,1,2.5,2.4,2.6l36.4,1.3c0,0,0.1,0,0.1,0c1.3,0,2.4-1.1,2.5-2.4c0-1.4-1-2.5-2.4-2.6L87,79.3
			C85.6,79.3,84.5,80.3,84.4,81.7z" />
            <path fill='#FFFFFF' d="M79.8,99.4c0,1.4,1,2.5,2.4,2.6l20.8,0.7c0,0,0.1,0,0.1,0c1.3,0,2.4-1.1,2.5-2.4c0-1.4-1-2.5-2.4-2.6L82.4,97
			C81,96.9,79.9,98,79.8,99.4z" />
        </g>
    </g>
</svg>
