<svg version="1.1" xmlns="http://www.w3.org/2000/svg" xmlns:xlink="http://www.w3.org/1999/xlink" x="0px" y="0px" viewBox="0 0 185 185" style="enable-background:new 0 0 185 185;" xml:space="preserve">
    <g>
        <rect width="185" height="185" />
    </g>
    <g>
        <g>
            <path fill="#FFFFFF" d="M107.5,108.9L135,93.5c1.1-0.6,1.5-2.1,0.9-3.2c-0.6-1.1-2.1-1.5-3.2-0.9l-27.5,15.5
			c-1.1,0.6-1.5,2.1-0.9,3.2C104.9,109.2,106.4,109.6,107.5,108.9z" />
            <path fill="#FFFFFF" d="M114.5,31.6l-87,49c-4.2,2.4-5.7,7.8-3.4,12l2.5,4.5L38,117.3l17.6,31.3c2.4,4.2,7.8,5.7,12,3.4l87-49
			c4.2-2.4,5.7-7.8,3.4-12l-17.6-31.3L129,39.5l-2.5-4.5C124.1,30.7,118.7,29.2,114.5,31.6z M39.8,110.9l-6.7-11.9l94.1-53l6.7,11.9
			" />
        </g>
    </g>
</svg>
