<svg version="1.1" id="Layer_1" xmlns="http://www.w3.org/2000/svg" xmlns:xlink="http://www.w3.org/1999/xlink" x="0px" y="0px" viewBox="0 0 185 185" style="enable-background:new 0 0 185 185;" xml:space="preserve">
    <rect width="185" height="185" />
    <g>
        <path fill="#FFFFFF" d="M146.6,84.6c-8.1,11.1-21.4,15.7-34.6,11.8c-2-0.6-3.2-0.2-4.5,1.2c-3.2,3.4-6.4,6.8-9.8,10
		c-1.1,1-2.8,1.7-4.2,1.8c-4.1,0.2-8.3,0.1-12.7,0.1c-0.9,6.1-1.8,11.9-2.5,17.8c-0.3,2.2-1.3,3.2-3.4,3.6
		c-3.7,0.7-7.4,1.5-11.1,2.1c-2,0.3-3,1.2-3.4,3.2c-0.7,3.3-1.7,6.5-2.5,9.8c-0.4,1.9-1.4,2.7-3.4,2.8c-5,0.1-10,0.3-15,0.6
		c-2,0.1-3.2-0.7-3.9-2.6c-0.9-2.6-1.9-5.2-3.2-7.6c-1.2-2.4-0.7-4.1,1.1-5.9c16.4-16.7,32.7-33.5,49.3-50.1
		c4.9-4.8,7.6-9.1,6.7-16.8c-1.6-14,8.2-27.1,21.3-31.5c13.1-4.4,27.3,0.1,35.6,11.3C154.8,57.4,154.8,73.3,146.6,84.6" />
        <path d="M129.3,66.5c-5.1,0-9.3-4.4-9.3-9.7c0-5.2,4.1-9.3,9.3-9.3c5.4,0,9.4,4,9.4,9.5
		C138.7,62.3,134.5,66.6,129.3,66.5" />

    </g>
</svg>
