<svg version="1.1" xmlns="http://www.w3.org/2000/svg" xmlns:xlink="http://www.w3.org/1999/xlink" x="0px" y="0px" viewBox="0 0 185 185" style="enable-background:new 0 0 185 185;" xml:space="preserve">
    <style type="text/css">
    .st6 {
        fill: #010101;
    }
    
    .st7 {
        fill: #FFFFFF;
    }
    </style>
    <g>
        <rect class="st6" width="185" height="185" />
    </g>
    <g>
        <path fill="#FFFFFF" d="M154.3,55.2H28.7c-1.5,0-2.7,1.2-2.7,2.7v68.6c0,1.5,1.2,2.7,2.7,2.7h125.6c1.5,0,2.7-1.2,2.7-2.7V57.9
		C157,56.4,155.8,55.2,154.3,55.2z" />
        <path class="st6" d="M61.8,97.1h1.5c1.5,0,2.7-1.2,2.7-2.7v-1.5c0-1.5-1.2-2.7-2.7-2.7h-1.5c-1.5,0-2.7,1.2-2.7,2.7v1.5
		C59.1,95.9,60.3,97.1,61.8,97.1z" />
        <path class="st6" d="M69.6,113.3h44c1.5,0,2.7-1.2,2.7-2.7v-1c0-1.5-1.2-2.7-2.7-2.7h-44c-1.5,0-2.7,1.2-2.7,2.7v1
		C66.9,112.1,68.1,113.3,69.6,113.3z" />
        <path class="st6" d="M76.4,97.1h1.5c1.5,0,2.7-1.2,2.7-2.7v-1.5c0-1.5-1.2-2.7-2.7-2.7h-1.5c-1.5,0-2.7,1.2-2.7,2.7v1.5
		C73.7,95.9,74.9,97.1,76.4,97.1z" />
        <path class="st6" d="M91,97.1h1.5c1.5,0,2.7-1.2,2.7-2.7v-1.5c0-1.5-1.2-2.7-2.7-2.7H91c-1.5,0-2.7,1.2-2.7,2.7v1.5
		C88.2,95.9,89.5,97.1,91,97.1z" />
        <path class="st6" d="M105.5,97.1h1.5c1.5,0,2.7-1.2,2.7-2.7v-1.5c0-1.5-1.2-2.7-2.7-2.7h-1.5c-1.5,0-2.7,1.2-2.7,2.7v1.5
		C102.8,95.9,104,97.1,105.5,97.1z" />
        <path class="st6" d="M120.1,97.1h1.5c1.5,0,2.7-1.2,2.7-2.7v-1.5c0-1.5-1.2-2.7-2.7-2.7h-1.5c-1.5,0-2.7,1.2-2.7,2.7v1.5
		C117.4,95.9,118.6,97.1,120.1,97.1z" />
        <path class="st6" d="M47.2,80.7h1.5c1.5,0,2.7-1.2,2.7-2.7v-1.5c0-1.5-1.2-2.7-2.7-2.7h-1.5c-1.5,0-2.7,1.2-2.7,2.7V78
		C44.5,79.5,45.7,80.7,47.2,80.7z" />
        <path class="st6" d="M61.8,80.7h1.5c1.5,0,2.7-1.2,2.7-2.7v-1.5c0-1.5-1.2-2.7-2.7-2.7h-1.5c-1.5,0-2.7,1.2-2.7,2.7V78
		C59.1,79.5,60.3,80.7,61.8,80.7z" />
        <path class="st6" d="M76.4,80.7h1.5c1.5,0,2.7-1.2,2.7-2.7v-1.5c0-1.5-1.2-2.7-2.7-2.7h-1.5c-1.5,0-2.7,1.2-2.7,2.7V78
		C73.7,79.5,74.9,80.7,76.4,80.7z" />
        <path class="st6" d="M91,80.7h1.5c1.5,0,2.7-1.2,2.7-2.7v-1.5c0-1.5-1.2-2.7-2.7-2.7H91c-1.5,0-2.7,1.2-2.7,2.7V78
		C88.2,79.5,89.5,80.7,91,80.7z" />
        <path class="st6" d="M105.5,80.7h1.5c1.5,0,2.7-1.2,2.7-2.7v-1.5c0-1.5-1.2-2.7-2.7-2.7h-1.5c-1.5,0-2.7,1.2-2.7,2.7V78
		C102.8,79.5,104,80.7,105.5,80.7z" />
        <path class="st6" d="M120.1,80.7h1.5c1.5,0,2.7-1.2,2.7-2.7v-1.5c0-1.5-1.2-2.7-2.7-2.7h-1.5c-1.5,0-2.7,1.2-2.7,2.7V78
		C117.4,79.5,118.6,80.7,120.1,80.7z" />
        <path class="st6" d="M134.7,80.7h1.5c1.5,0,2.7-1.2,2.7-2.7v-1.5c0-1.5-1.2-2.7-2.7-2.7h-1.5c-1.5,0-2.7,1.2-2.7,2.7V78
		C132,79.5,133.2,80.7,134.7,80.7z" />
    </g>
</svg>
