<svg version="1.1" xmlns="http://www.w3.org/2000/svg" xmlns:xlink="http://www.w3.org/1999/xlink" x="0px" y="0px"
	 viewBox="0 0 185 185" style="enable-background:new 0 0 185 185;" xml:space="preserve">
<style type="text/css">
	.st6{fill:#010101;}
	.st8{fill:#FFFFFF;}
</style>
<g>
	<rect class="st6" width="185" height="185"/>
</g>
<g>
	<path class="st8" d="M111,39.9c-0.3-0.2-0.7-0.3-1.1-0.2l-1.1,0c-0.8,0-1.5,0.5-1.9,1.1c-0.4,0.7-0.4,1.5-0.1,2.2
		c7.7,15.7,6.9,33.1-2.3,47.8c-9,14.5-24.4,23.2-41.2,23.2c-6.3,0-12.7-1.2-19-3.6c-0.9-0.3-2-0.1-2.6,0.7c-0.6,0.7-0.7,1.8-0.2,2.7
		c10.7,18.6,24.2,27.9,42.3,29.1c1.3,0.1,2.6,0.1,3.9,0.1c29.4,0,53.6-22,55.1-50.2C144.1,69.8,132.2,50,111,39.9z"/>
</g>
</svg>
