<svg version="1.1" xmlns="http://www.w3.org/2000/svg" xmlns:xlink="http://www.w3.org/1999/xlink" x="0px" y="0px" viewBox="0 0 185 185" style="enable-background:new 0 0 185 185;" xml:space="preserve">
    <style type="text/css">
    .st6 {
        fill: #010101;
    }
    
    .st11 {
        fill: #FCFCFC;
    }
    </style>
    <g>
        <rect class="st6" width="185" height="185" />
    </g>
    <g>
        <g>
            <path class="st11" d="M110.7,51.7c-0.6-0.6-1.4-0.7-2.1-0.4l-38.4,15c-0.9,0.3-1.4,1.2-1.3,2.1c0,0.3,2.9,25.9-26.6,60.5
			c-0.7,0.8-0.6,2,0.1,2.7l5.8,5.8l0,0c0,0,0,0,0,0l5.8,5.8c0.4,0.4,0.9,0.6,1.4,0.6c0.5,0,0.9-0.2,1.3-0.5
			c29-24.8,51.9-26.7,58.2-26.7c1.5,0,2.3,0.1,2.3,0.1c0.9,0.1,1.8-0.4,2.1-1.3l15-38.4c0.3-0.7,0.1-1.6-0.4-2.1L110.7,51.7z
			 M116,112.5c-0.4,0-0.8,0-1.2,0c-8.4,0-30.8,2.6-59.3,26.5l-3-3L93,95.3c1,0.5,2.1,0.9,3.3,0.9c1.9,0,3.6-0.7,4.9-2
			c2.7-2.7,2.7-7.2,0-9.9c-2.6-2.6-7.2-2.6-9.9,0c-2.2,2.2-2.6,5.6-1.2,8.2l-40.6,40.6l-3-3C72.3,99.2,73.3,75.7,73,69.5l35.8-14
			l21.2,21.2L116,112.5z M94.2,91.3c-1.2-1.2-1.2-3.1,0-4.2c0.6-0.6,1.3-0.9,2.1-0.9c0.8,0,1.6,0.3,2.1,0.9c1.2,1.2,1.2,3.1,0,4.2
			C97.3,92.5,95.3,92.4,94.2,91.3z" />
            <path class="st11" d="M140.4,69.4L116,44.9c-0.8-0.8-2-0.8-2.8,0c-0.8,0.8-0.8,2,0,2.8l24.5,24.5c0.4,0.4,0.9,0.6,1.4,0.6
			c0.5,0,1-0.2,1.4-0.6C141.2,71.4,141.2,70.2,140.4,69.4z" />
        </g>
    </g>
</svg>
