<?xml version="1.0" encoding="utf-8"?>
<!-- Generator: Adobe Illustrator 21.1.0, SVG Export Plug-In . SVG Version: 6.00 Build 0)  -->
<!DOCTYPE svg PUBLIC "-//W3C//DTD SVG 1.1//EN" "http://www.w3.org/Graphics/SVG/1.1/DTD/svg11.dtd">
<svg version="1.1" xmlns="http://www.w3.org/2000/svg" xmlns:xlink="http://www.w3.org/1999/xlink" x="0px" y="0px"
	 viewBox="0 0 185 185" style="enable-background:new 0 0 185 185;" xml:space="preserve">
<style type="text/css">
	.st0{display:none;}
	.st1{display:inline;fill:#010101;}
	.st2{display:inline;}
	.st3{clip-path:url(#SVGID_2_);fill:#FFFFFF;}
	.st4{clip-path:url(#SVGID_4_);}
	.st5{display:inline;fill:#231F20;}
	.st6{fill:#010101;}
	.st7{display:inline;fill:#FFFFFF;}
	.st8{fill:#FFFFFF;}
	.st9{font-family:'HelveticaNeue';}
	.st10{font-size:137.9748px;}
	.st11{fill:#FCFCFC;}
</style>
<g id="Layer_1" class="st0">
	<rect class="st1" width="185" height="185"/>
	<g class="st2">
		<defs>
			<rect id="SVGID_1_" width="185" height="185"/>
		</defs>
		<clipPath id="SVGID_2_">
			<use xlink:href="#SVGID_1_"  style="overflow:visible;"/>
		</clipPath>
		<path class="st3" d="M146.6,84.6c-8.1,11.1-21.4,15.7-34.6,11.8c-2-0.6-3.2-0.2-4.5,1.2c-3.2,3.4-6.4,6.8-9.8,10
			c-1.1,1-2.8,1.7-4.2,1.8c-4.1,0.2-8.3,0.1-12.7,0.1c-0.9,6.1-1.8,11.9-2.5,17.8c-0.3,2.2-1.3,3.2-3.4,3.6
			c-3.7,0.7-7.4,1.5-11.1,2.1c-2,0.3-3,1.2-3.4,3.2c-0.7,3.3-1.7,6.5-2.5,9.8c-0.4,1.9-1.4,2.7-3.4,2.8c-5,0.1-10,0.3-15,0.6
			c-2,0.1-3.2-0.7-3.9-2.6c-0.9-2.6-1.9-5.2-3.2-7.6c-1.2-2.4-0.7-4.1,1.1-5.9c16.4-16.7,32.7-33.5,49.3-50.1
			c4.9-4.8,7.6-9.1,6.7-16.8c-1.6-14,8.2-27.1,21.3-31.5s27.3,0.1,35.6,11.3C154.8,57.4,154.8,73.3,146.6,84.6"/>
	</g>
	<g class="st2">
		<defs>
			<rect id="SVGID_3_" width="185" height="185"/>
		</defs>
		<clipPath id="SVGID_4_">
			<use xlink:href="#SVGID_3_"  style="overflow:visible;"/>
		</clipPath>
		<path class="st4" d="M129.3,66.5c-5.1,0-9.3-4.4-9.3-9.7c0-5.2,4.1-9.3,9.3-9.3c5.4,0,9.4,4,9.4,9.5
			C138.7,62.3,134.5,66.6,129.3,66.5"/>
	</g>
	<path class="st5" d="M105.3,84.5H79c-0.3,0-0.6,0.3-0.6,0.6v14.4c0,0.3,0.3,0.6,0.6,0.6h26.3c0.3,0,0.6-0.3,0.6-0.6V85.1
		C105.9,84.8,105.6,84.5,105.3,84.5z M104.7,98.9H79.5V85.7h25.2V98.9z"/>
	<path class="st5" d="M85.9,93.3h0.3c0.3,0,0.6-0.3,0.6-0.6v-0.3c0-0.3-0.3-0.6-0.6-0.6h-0.3c-0.3,0-0.6,0.3-0.6,0.6v0.3
		C85.3,93.1,85.6,93.3,85.9,93.3z"/>
	<path class="st5" d="M87.5,96.7h9.2c0.3,0,0.6-0.3,0.6-0.6v-0.2c0-0.3-0.3-0.6-0.6-0.6h-9.2c-0.3,0-0.6,0.3-0.6,0.6v0.2
		C87,96.5,87.2,96.7,87.5,96.7z"/>
	<path class="st5" d="M88.9,93.3h0.3c0.3,0,0.6-0.3,0.6-0.6v-0.3c0-0.3-0.3-0.6-0.6-0.6h-0.3c-0.3,0-0.6,0.3-0.6,0.6v0.3
		C88.4,93.1,88.6,93.3,88.9,93.3z"/>
	<path class="st5" d="M92,93.3h0.3c0.3,0,0.6-0.3,0.6-0.6v-0.3c0-0.3-0.3-0.6-0.6-0.6H92c-0.3,0-0.6,0.3-0.6,0.6v0.3
		C91.4,93.1,91.7,93.3,92,93.3z"/>
	<path class="st5" d="M95.1,93.3h0.3c0.3,0,0.6-0.3,0.6-0.6v-0.3c0-0.3-0.3-0.6-0.6-0.6h-0.3c-0.3,0-0.6,0.3-0.6,0.6v0.3
		C94.5,93.1,94.7,93.3,95.1,93.3z"/>
	<path class="st5" d="M98.1,93.3h0.3c0.3,0,0.6-0.3,0.6-0.6v-0.3c0-0.3-0.3-0.6-0.6-0.6h-0.3c-0.3,0-0.6,0.3-0.6,0.6v0.3
		C97.6,93.1,97.8,93.3,98.1,93.3z"/>
	<path class="st5" d="M82.8,89.9h0.3c0.3,0,0.6-0.3,0.6-0.6V89c0-0.3-0.3-0.6-0.6-0.6h-0.3c-0.3,0-0.6,0.3-0.6,0.6v0.3
		C82.3,89.6,82.5,89.9,82.8,89.9z"/>
	<path class="st5" d="M85.9,89.9h0.3c0.3,0,0.6-0.3,0.6-0.6V89c0-0.3-0.3-0.6-0.6-0.6h-0.3c-0.3,0-0.6,0.3-0.6,0.6v0.3
		C85.3,89.6,85.6,89.9,85.9,89.9z"/>
	<path class="st5" d="M88.9,89.9h0.3c0.3,0,0.6-0.3,0.6-0.6V89c0-0.3-0.3-0.6-0.6-0.6h-0.3c-0.3,0-0.6,0.3-0.6,0.6v0.3
		C88.4,89.6,88.6,89.9,88.9,89.9z"/>
	<path class="st5" d="M92,89.9h0.3c0.3,0,0.6-0.3,0.6-0.6V89c0-0.3-0.3-0.6-0.6-0.6H92c-0.3,0-0.6,0.3-0.6,0.6v0.3
		C91.4,89.6,91.7,89.9,92,89.9z"/>
	<path class="st5" d="M95.1,89.9h0.3c0.3,0,0.6-0.3,0.6-0.6V89c0-0.3-0.3-0.6-0.6-0.6h-0.3c-0.3,0-0.6,0.3-0.6,0.6v0.3
		C94.5,89.6,94.7,89.9,95.1,89.9z"/>
	<path class="st5" d="M98.1,89.9h0.3c0.3,0,0.6-0.3,0.6-0.6V89c0-0.3-0.3-0.6-0.6-0.6h-0.3c-0.3,0-0.6,0.3-0.6,0.6v0.3
		C97.6,89.6,97.8,89.9,98.1,89.9z"/>
	<path class="st5" d="M101.2,89.9h0.3c0.3,0,0.6-0.3,0.6-0.6V89c0-0.3-0.3-0.6-0.6-0.6h-0.3c-0.3,0-0.6,0.3-0.6,0.6v0.3
		C100.6,89.6,100.9,89.9,101.2,89.9z"/>
</g>
<g id="Layer_2">
	<rect class="st6" width="185" height="185"/>
</g>
<g id="Layer_3" class="st0">
	<path class="st7" d="M154.3,55.2H28.7c-1.5,0-2.7,1.2-2.7,2.7v68.6c0,1.5,1.2,2.7,2.7,2.7h125.6c1.5,0,2.7-1.2,2.7-2.7V57.9
		C157,56.4,155.8,55.2,154.3,55.2z"/>
	<path class="st1" d="M61.8,97.1h1.5c1.5,0,2.7-1.2,2.7-2.7v-1.5c0-1.5-1.2-2.7-2.7-2.7h-1.5c-1.5,0-2.7,1.2-2.7,2.7v1.5
		C59.1,95.9,60.3,97.1,61.8,97.1z"/>
	<path class="st1" d="M69.6,113.3h44c1.5,0,2.7-1.2,2.7-2.7v-1c0-1.5-1.2-2.7-2.7-2.7h-44c-1.5,0-2.7,1.2-2.7,2.7v1
		C66.9,112.1,68.1,113.3,69.6,113.3z"/>
	<path class="st1" d="M76.4,97.1h1.5c1.5,0,2.7-1.2,2.7-2.7v-1.5c0-1.5-1.2-2.7-2.7-2.7h-1.5c-1.5,0-2.7,1.2-2.7,2.7v1.5
		C73.7,95.9,74.9,97.1,76.4,97.1z"/>
	<path class="st1" d="M91,97.1h1.5c1.5,0,2.7-1.2,2.7-2.7v-1.5c0-1.5-1.2-2.7-2.7-2.7H91c-1.5,0-2.7,1.2-2.7,2.7v1.5
		C88.2,95.9,89.5,97.1,91,97.1z"/>
	<path class="st1" d="M105.5,97.1h1.5c1.5,0,2.7-1.2,2.7-2.7v-1.5c0-1.5-1.2-2.7-2.7-2.7h-1.5c-1.5,0-2.7,1.2-2.7,2.7v1.5
		C102.8,95.9,104,97.1,105.5,97.1z"/>
	<path class="st1" d="M120.1,97.1h1.5c1.5,0,2.7-1.2,2.7-2.7v-1.5c0-1.5-1.2-2.7-2.7-2.7h-1.5c-1.5,0-2.7,1.2-2.7,2.7v1.5
		C117.4,95.9,118.6,97.1,120.1,97.1z"/>
	<path class="st1" d="M47.2,80.7h1.5c1.5,0,2.7-1.2,2.7-2.7v-1.5c0-1.5-1.2-2.7-2.7-2.7h-1.5c-1.5,0-2.7,1.2-2.7,2.7V78
		C44.5,79.5,45.7,80.7,47.2,80.7z"/>
	<path class="st1" d="M61.8,80.7h1.5c1.5,0,2.7-1.2,2.7-2.7v-1.5c0-1.5-1.2-2.7-2.7-2.7h-1.5c-1.5,0-2.7,1.2-2.7,2.7V78
		C59.1,79.5,60.3,80.7,61.8,80.7z"/>
	<path class="st1" d="M76.4,80.7h1.5c1.5,0,2.7-1.2,2.7-2.7v-1.5c0-1.5-1.2-2.7-2.7-2.7h-1.5c-1.5,0-2.7,1.2-2.7,2.7V78
		C73.7,79.5,74.9,80.7,76.4,80.7z"/>
	<path class="st1" d="M91,80.7h1.5c1.5,0,2.7-1.2,2.7-2.7v-1.5c0-1.5-1.2-2.7-2.7-2.7H91c-1.5,0-2.7,1.2-2.7,2.7V78
		C88.2,79.5,89.5,80.7,91,80.7z"/>
	<path class="st1" d="M105.5,80.7h1.5c1.5,0,2.7-1.2,2.7-2.7v-1.5c0-1.5-1.2-2.7-2.7-2.7h-1.5c-1.5,0-2.7,1.2-2.7,2.7V78
		C102.8,79.5,104,80.7,105.5,80.7z"/>
	<path class="st1" d="M120.1,80.7h1.5c1.5,0,2.7-1.2,2.7-2.7v-1.5c0-1.5-1.2-2.7-2.7-2.7h-1.5c-1.5,0-2.7,1.2-2.7,2.7V78
		C117.4,79.5,118.6,80.7,120.1,80.7z"/>
	<path class="st1" d="M134.7,80.7h1.5c1.5,0,2.7-1.2,2.7-2.7v-1.5c0-1.5-1.2-2.7-2.7-2.7h-1.5c-1.5,0-2.7,1.2-2.7,2.7V78
		C132,79.5,133.2,80.7,134.7,80.7z"/>
</g>
<g id="Layer_4" class="st0">
	<g class="st2">
		<path class="st8" d="M107.5,108.9L135,93.5c1.1-0.6,1.5-2.1,0.9-3.2c-0.6-1.1-2.1-1.5-3.2-0.9l-27.5,15.5
			c-1.1,0.6-1.5,2.1-0.9,3.2C104.9,109.2,106.4,109.6,107.5,108.9z"/>
		<path class="st8" d="M114.5,31.6l-87,49c-4.2,2.4-5.7,7.8-3.4,12l2.5,4.5L38,117.3l17.6,31.3c2.4,4.2,7.8,5.7,12,3.4l87-49
			c4.2-2.4,5.7-7.8,3.4-12l-17.6-31.3L129,39.5l-2.5-4.5C124.1,30.7,118.7,29.2,114.5,31.6z M39.8,110.9l-6.7-11.9l94.1-53l6.7,11.9
			"/>
	</g>
</g>
<g id="Layer_5" class="st0">
	<path class="st7" d="M111,39.9c-0.3-0.2-0.7-0.3-1.1-0.2l-1.1,0c-0.8,0-1.5,0.5-1.9,1.1c-0.4,0.7-0.4,1.5-0.1,2.2
		c7.7,15.7,6.9,33.1-2.3,47.8c-9,14.5-24.4,23.2-41.2,23.2c-6.3,0-12.7-1.2-19-3.6c-0.9-0.3-2-0.1-2.6,0.7c-0.6,0.7-0.7,1.8-0.2,2.7
		c10.7,18.6,24.2,27.9,42.3,29.1c1.3,0.1,2.6,0.1,3.9,0.1c29.4,0,53.6-22,55.1-50.2C144.1,69.8,132.2,50,111,39.9z"/>
</g>
<g id="Layer_6" class="st0">
	<g class="st2">
		<path class="st8" d="M152.2,42.1c-0.5-0.5-1.1-0.8-1.8-0.8L74.2,39c-1.4-0.1-2.5,1-2.5,2.3c0,0.4-8.2,51-18.6,73.4l-19.4-0.4
			c-0.7,0-1.5,0.3-2,0.9c-0.5,0.6-0.7,1.4-0.5,2.1c0.2,1,5.4,24.4,24.4,24.8c22,0.5,64.6,0.9,65.1,0.9c0,0,0,0,0,0
			c0.3,0,0.7-0.1,0.9-0.2c0.3,0,0.6-0.1,0.9-0.1c20.7-3.8,28.5-76.5,30.5-98.8C152.9,43.2,152.7,42.6,152.2,42.1z M55.6,137.1
			c-11.4-0.3-16.8-12.1-18.7-17.8l62.5,1.4c3.9,7.8,7.6,13.5,11.3,17.2C96.6,137.8,71,137.5,55.6,137.1z M121.5,137.8
			c-5,0.9-11.6-6.4-18.4-20.6c-0.4-0.8-1.2-1.4-2.2-1.4l-42.5-1c9.1-21.1,17.3-61.8,18-70.8l71.3,2.1
			C143.8,89.2,134,135.5,121.5,137.8z"/>
		<path class="st8" d="M128.6,68C128.6,68,128.6,68,128.6,68c1.4,0,2.5-1.1,2.6-2.4c0-1.4-1-2.5-2.4-2.6l-38.9-1.4
			c-1.4,0-2.5,1-2.6,2.4c0,1.4,1,2.5,2.4,2.6L128.6,68z"/>
		<path class="st8" d="M84.4,81.7c0,1.4,1,2.5,2.4,2.6l36.4,1.3c0,0,0.1,0,0.1,0c1.3,0,2.4-1.1,2.5-2.4c0-1.4-1-2.5-2.4-2.6L87,79.3
			C85.6,79.3,84.5,80.3,84.4,81.7z"/>
		<path class="st8" d="M79.8,99.4c0,1.4,1,2.5,2.4,2.6l20.8,0.7c0,0,0.1,0,0.1,0c1.3,0,2.4-1.1,2.5-2.4c0-1.4-1-2.5-2.4-2.6L82.4,97
			C81,96.9,79.9,98,79.8,99.4z"/>
	</g>
</g>
<g id="Layer_7" class="st0">
	<g class="st2">
		<path class="st8" d="M114.9,114.9c-23.5-9.1-27.7-12.9-28.5-14.1V98c2.7-3,4.7-6.8,6.1-11.2c2-1.8,3.2-4.4,3.2-7.1
			c0-1.9-0.5-3.7-1.6-5.2v-8.8c0-12.2-7.5-19.2-20.6-19.2c-12.9,0-20.6,7.2-20.6,19.2v8.8c-1,1.6-1.6,3.3-1.6,5.2
			c0,2.8,1.2,5.4,3.2,7.1C55.9,91.2,58,95,60.6,98v2.8c-0.8,1.2-5.1,5.1-28.5,14.1c-2.1,0.8-3.5,2.9-3.5,5.2v10.7
			c0,3.1,2.5,5.6,5.5,5.6h78.8c3,0,5.5-2.5,5.5-5.6v-10.7C118.4,117.8,117,115.7,114.9,114.9z M113.4,130.8c0,0.3-0.2,0.5-0.5,0.5
			H34.1c-0.3,0-0.5-0.2-0.5-0.5v-10.7c0-0.2,0.1-0.4,0.3-0.5c26.1-10.1,30.6-14.4,31.6-17.5c0.1-0.2,0.1-0.5,0.1-0.7V97
			c0-0.7-0.3-1.3-0.7-1.8c-2.6-2.6-4.6-6.3-5.8-10.6c-0.2-0.6-0.5-1-1-1.4c-1.2-0.8-1.8-2.2-1.8-3.6c0-1.3,0.6-2.2,1-2.8
			c0.4-0.4,0.6-1,0.6-1.6v-9.6c0-9.3,5.4-14.2,15.6-14.2c10.4,0,15.6,4.8,15.6,14.2v9.6c0,0.6,0.2,1.1,0.6,1.6c0.5,0.6,1,1.5,1,2.8
			c0,1.5-0.7,2.8-1.9,3.6c-0.5,0.3-0.8,0.8-1,1.4c-1.2,4.3-3.2,8-5.8,10.6c-0.5,0.5-0.7,1.1-0.7,1.8v4.3c0,0.3,0,0.5,0.1,0.7
			c1,3.1,5.5,7.4,31.6,17.5c0.2,0.1,0.3,0.3,0.3,0.5V130.8z"/>
		<path class="st8" d="M152.9,116.1c-6-2.3-12.2-3.5-17.2-4.5c-3.4-0.7-8.1-1.6-9.1-2.3v-2.6c11.6-0.5,16.6-4.5,16.8-4.6
			c0.6-0.5,1-1.3,0.9-2.1c-0.1-0.8-0.5-1.6-1.3-2c-2.5-1.4-4.9-12.5-5.7-21.8c0-6.8-2.8-13.3-7.7-17.8c-2-2.2-4.6-3.8-7.6-4.7
			c-5.1-1.9-10.8-1.8-15.6,0.1c-2.1,0.7-3.9,1.7-5.5,2.9c-1.1,0.9-1.2,2.4-0.4,3.5c0.9,1.1,2.5,1.2,3.5,0.4c1.1-0.9,2.4-1.6,4-2.1
			c4-1.6,8-1.7,12.3-0.1c2.3,0.7,4.1,1.8,5.5,3.3c0.1,0.1,0.1,0.1,0.2,0.2c3.9,3.6,6.1,8.8,6.2,14.5c0.3,4.3,1.7,16.9,5.5,23.1
			c-2.5,1-6.9,2.3-13.7,2.3c-1.4,0-2.5,1.1-2.5,2.5v5.7c0,0.3,0,0.5,0.1,0.7c1.1,3.5,5.9,4.4,13.1,5.8c4.8,0.9,10.8,2.1,16.4,4.2
			c0.1,0,0.2,0.2,0.2,0.3v10c0,0.2-0.1,0.3-0.3,0.3h-21.3c-1.4,0-2.5,1.1-2.5,2.5c0,1.4,1.1,2.5,2.5,2.5H151c2.9,0,5.3-2.4,5.3-5.3
			v-10C156.3,118.8,155,116.8,152.9,116.1z"/>
	</g>
</g>
<g id="Layer_8" class="st0">
	<text transform="matrix(1 0 0 1 34.6771 143.2454)" class="st7 st9 st10">@</text>
</g>
<g id="Layer_9">
	<g>
		<path class="st11" d="M110.7,51.7c-0.6-0.6-1.4-0.7-2.1-0.4l-38.4,15c-0.9,0.3-1.4,1.2-1.3,2.1c0,0.3,2.9,25.9-26.6,60.5
			c-0.7,0.8-0.6,2,0.1,2.7l5.8,5.8l0,0c0,0,0,0,0,0l5.8,5.8c0.4,0.4,0.9,0.6,1.4,0.6c0.5,0,0.9-0.2,1.3-0.5
			c29-24.8,51.9-26.7,58.2-26.7c1.5,0,2.3,0.1,2.3,0.1c0.9,0.1,1.8-0.4,2.1-1.3l15-38.4c0.3-0.7,0.1-1.6-0.4-2.1L110.7,51.7z
			 M116,112.5c-0.4,0-0.8,0-1.2,0c-8.4,0-30.8,2.6-59.3,26.5l-3-3L93,95.3c1,0.5,2.1,0.9,3.3,0.9c1.9,0,3.6-0.7,4.9-2
			c2.7-2.7,2.7-7.2,0-9.9c-2.6-2.6-7.2-2.6-9.9,0c-2.2,2.2-2.6,5.6-1.2,8.2l-40.6,40.6l-3-3C72.3,99.2,73.3,75.7,73,69.5l35.8-14
			l21.2,21.2L116,112.5z M94.2,91.3c-1.2-1.2-1.2-3.1,0-4.2c0.6-0.6,1.3-0.9,2.1-0.9c0.8,0,1.6,0.3,2.1,0.9c1.2,1.2,1.2,3.1,0,4.2
			C97.3,92.5,95.3,92.4,94.2,91.3z"/>
		<path class="st11" d="M140.4,69.4L116,44.9c-0.8-0.8-2-0.8-2.8,0c-0.8,0.8-0.8,2,0,2.8l24.5,24.5c0.4,0.4,0.9,0.6,1.4,0.6
			c0.5,0,1-0.2,1.4-0.6C141.2,71.4,141.2,70.2,140.4,69.4z"/>
	</g>
</g>
<g id="Layer_10" class="st0">
	<g class="st2">
		<path class="st8" d="M106.8,92.9H91.5V64.5c0-1.4-1.2-2.6-2.6-2.6c-1.4,0-2.6,1.2-2.6,2.6v31c0,1.4,1.2,2.6,2.6,2.6h17.9
			c1.4,0,2.6-1.2,2.6-2.6C109.4,94.1,108.3,92.9,106.8,92.9z"/>
		<path class="st8" d="M116.6,134.7c-1.4-0.2-2.8,0.7-3,2.1l-3,17H67.1l-3-17c-0.3-1.4-1.6-2.4-3-2.1c-1.4,0.3-2.4,1.6-2.1,3
			l3.4,19.1c0.2,1.3,1.3,2.2,2.6,2.2h47.9c1.3,0,2.4-0.9,2.6-2.2l3.4-19.1C119,136.3,118.1,134.9,116.6,134.7z"/>
		<path class="st8" d="M61.1,52.6c1.4,0.3,2.8-0.7,3.1-2.1l3-16.2h43.5l3,16.2c0.2,1.3,1.3,2.1,2.6,2.1c0.2,0,0.3,0,0.5,0
			c1.4-0.3,2.4-1.6,2.1-3.1l-3.4-18.4c-0.2-1.2-1.3-2.1-2.6-2.1H64.9c-1.3,0-2.4,0.9-2.6,2.1L59,49.5C58.7,51,59.7,52.3,61.1,52.6z"
			/>
		<path class="st8" d="M143.3,86.9c-0.1-0.1-0.2-0.2-0.3-0.2h-6.3c-0.1,0-0.3,0.1-0.3,0.2c-0.1,0.1-0.1,0.3-0.1,0.5v2.3H133
			c-2-22.3-20.8-39.9-43.7-39.9c-24.2,0-43.9,19.7-43.9,43.9c0,24.2,19.7,43.9,43.9,43.9c22.9,0,41.7-17.6,43.7-39.9h3.2v2.3
			c0,0.2,0.1,0.4,0.1,0.5c0.1,0.1,0.2,0.2,0.3,0.2h6.3c0.1,0,0.2-0.1,0.3-0.2c0.1-0.1,0.1-0.3,0.1-0.5V87.4
			C143.5,87.2,143.4,87,143.3,86.9z M89.2,132.3c-21.3,0-38.7-17.4-38.7-38.7C50.6,72.3,67.9,55,89.2,55c21.3,0,38.7,17.3,38.7,38.7
			C127.9,115,110.6,132.3,89.2,132.3z"/>
	</g>
</g>
</svg>
