<svg version="1.1" xmlns="http://www.w3.org/2000/svg" xmlns:xlink="http://www.w3.org/1999/xlink" x="0px" y="0px" viewBox="0 0 185 185" style="enable-background:new 0 0 185 185;" xml:space="preserve">
    <style type="text/css">
    .st6 {
        fill: #010101;
    }
    
    .st8 {
        fill: #FFFFFF;
    }
    </style>
    <g id="Layer_2">
        <rect class="st6" width="185" height="185" />
    </g>
     <g id="g10">
            <g transform="scale(0.05), rotate(180), translate(-4000,-4000)" id="g12">
                <path id="path14" style="fill:#000000;fill-opacity:1;fill-rule:nonzero;stroke:none" d="M 0.00390625,0 H 4201.2139 V 4201.23 H 0.00390625 Z" />
                <path id="path16" style="fill:#ffffff;fill-opacity:1;fill-rule:nonzero;stroke:none" d="m 2100.62,3296.58 c -295.17,0 -535.31,-240.13 -535.31,-535.3 0,-295.16 240.14,-535.29 535.31,-535.29 295.15,0 535.29,240.13 535.29,535.29 0,295.17 -240.14,535.3 -535.29,535.3 z m 0,-1174.63 c -352.54,0 -639.34,286.8 -639.34,639.33 0,352.53 286.8,639.34 639.34,639.34 352.53,0 639.32,-286.81 639.32,-639.34 0,-352.53 -286.79,-639.33 -639.32,-639.33" />
                <path id="path18" style="fill:#ffffff;fill-opacity:1;fill-rule:nonzero;stroke:none" d="m 1144.63,896.23 h 1911.96 v 506.93 c 0,246.01 -228.81,474.83 -474.83,474.83 h -90.97 l -390.15,-588.39 -390.53,588.39 h -90.64 c -246.01,0 -474.84,-228.82 -474.84,-474.83 z M 3152.2,800.621 H 1049.03 v 602.539 c 0,314.54 255.89,570.44 570.44,570.44 h 158.55 l 322.57,-493.15 322.23,493.15 h 158.94 c 314.54,0 570.44,-255.9 570.44,-570.44 V 800.621" />
            </g>
        </g>
</svg>



