<svg version="1.1" xmlns="http://www.w3.org/2000/svg" xmlns:xlink="http://www.w3.org/1999/xlink" x="0px" y="0px" viewBox="0 0 185 185" style="enable-background:new 0 0 185 185;" xml:space="preserve">
    <style type="text/css">
    .st6 {
        fill: #010101;
    }
    
    .st8 {
        fill: #FFFFFF;
    }
    </style>
    <g id="Layer_2">
        <rect class="st6" width="185" height="185" />
    </g>
    <g id="Layer_7">
        <g>
            <path class="st8" d="M114.9,114.9c-23.5-9.1-27.7-12.9-28.5-14.1V98c2.7-3,4.7-6.8,6.1-11.2c2-1.8,3.2-4.4,3.2-7.1
			c0-1.9-0.5-3.7-1.6-5.2v-8.8c0-12.2-7.5-19.2-20.6-19.2c-12.9,0-20.6,7.2-20.6,19.2v8.8c-1,1.6-1.6,3.3-1.6,5.2
			c0,2.8,1.2,5.4,3.2,7.1C55.9,91.2,58,95,60.6,98v2.8c-0.8,1.2-5.1,5.1-28.5,14.1c-2.1,0.8-3.5,2.9-3.5,5.2v10.7
			c0,3.1,2.5,5.6,5.5,5.6h78.8c3,0,5.5-2.5,5.5-5.6v-10.7C118.4,117.8,117,115.7,114.9,114.9z M113.4,130.8c0,0.3-0.2,0.5-0.5,0.5
			H34.1c-0.3,0-0.5-0.2-0.5-0.5v-10.7c0-0.2,0.1-0.4,0.3-0.5c26.1-10.1,30.6-14.4,31.6-17.5c0.1-0.2,0.1-0.5,0.1-0.7V97
			c0-0.7-0.3-1.3-0.7-1.8c-2.6-2.6-4.6-6.3-5.8-10.6c-0.2-0.6-0.5-1-1-1.4c-1.2-0.8-1.8-2.2-1.8-3.6c0-1.3,0.6-2.2,1-2.8
			c0.4-0.4,0.6-1,0.6-1.6v-9.6c0-9.3,5.4-14.2,15.6-14.2c10.4,0,15.6,4.8,15.6,14.2v9.6c0,0.6,0.2,1.1,0.6,1.6c0.5,0.6,1,1.5,1,2.8
			c0,1.5-0.7,2.8-1.9,3.6c-0.5,0.3-0.8,0.8-1,1.4c-1.2,4.3-3.2,8-5.8,10.6c-0.5,0.5-0.7,1.1-0.7,1.8v4.3c0,0.3,0,0.5,0.1,0.7
			c1,3.1,5.5,7.4,31.6,17.5c0.2,0.1,0.3,0.3,0.3,0.5V130.8z" />
            <path class="st8" d="M152.9,116.1c-6-2.3-12.2-3.5-17.2-4.5c-3.4-0.7-8.1-1.6-9.1-2.3v-2.6c11.6-0.5,16.6-4.5,16.8-4.6
			c0.6-0.5,1-1.3,0.9-2.1c-0.1-0.8-0.5-1.6-1.3-2c-2.5-1.4-4.9-12.5-5.7-21.8c0-6.8-2.8-13.3-7.7-17.8c-2-2.2-4.6-3.8-7.6-4.7
			c-5.1-1.9-10.8-1.8-15.6,0.1c-2.1,0.7-3.9,1.7-5.5,2.9c-1.1,0.9-1.2,2.4-0.4,3.5c0.9,1.1,2.5,1.2,3.5,0.4c1.1-0.9,2.4-1.6,4-2.1
			c4-1.6,8-1.7,12.3-0.1c2.3,0.7,4.1,1.8,5.5,3.3c0.1,0.1,0.1,0.1,0.2,0.2c3.9,3.6,6.1,8.8,6.2,14.5c0.3,4.3,1.7,16.9,5.5,23.1
			c-2.5,1-6.9,2.3-13.7,2.3c-1.4,0-2.5,1.1-2.5,2.5v5.7c0,0.3,0,0.5,0.1,0.7c1.1,3.5,5.9,4.4,13.1,5.8c4.8,0.9,10.8,2.1,16.4,4.2
			c0.1,0,0.2,0.2,0.2,0.3v10c0,0.2-0.1,0.3-0.3,0.3h-21.3c-1.4,0-2.5,1.1-2.5,2.5c0,1.4,1.1,2.5,2.5,2.5H151c2.9,0,5.3-2.4,5.3-5.3
			v-10C156.3,118.8,155,116.8,152.9,116.1z" />
        </g>
    </g>
</svg>
