<?xml version="1.0" encoding="utf-8"?>
<!-- Generator: Adobe Illustrator 18.1.0, SVG Export Plug-In . SVG Version: 6.00 Build 0)  -->
<!DOCTYPE svg PUBLIC "-//W3C//DTD SVG 1.1//EN" "http://www.w3.org/Graphics/SVG/1.1/DTD/svg11.dtd">
<svg version="1.1" id="Layer_1" xmlns="http://www.w3.org/2000/svg" xmlns:xlink="http://www.w3.org/1999/xlink" x="0px" y="0px"
	 viewBox="0 0 1100.6 5509" enable-background="new 0 0 1100.6 5509" xml:space="preserve">
<g>
	<path d="M318,2733.5c-4.6-4.6-10.8-7.2-17.4-7.2c-6.6,0-12.8,2.6-17.4,7.2c-9.6,9.6-9.6,25.2,0,34.8c4.6,4.7,10.8,7.2,17.4,7.2
		c0,0,0,0,0,0c6.6,0,12.8-2.6,17.4-7.2C327.6,2758.7,327.6,2743.1,318,2733.5z M316.6,2766.9c-4.3,4.3-9.9,6.6-16,6.6h0
		c-6,0-11.7-2.4-16-6.6c-8.8-8.8-8.8-23.2,0-32c4.3-4.3,10-6.6,16-6.6c6,0,11.7,2.4,16,6.6C325.4,2743.7,325.4,2758.1,316.6,2766.9z
		"/>
	<path d="M311.5,2740.6c-0.4-0.4-1-0.4-1.4,0l-8.9,8.9l-8.9-8.9c-0.4-0.4-1-0.4-1.4,0c-0.4,0.4-0.4,1,0,1.4l8.9,8.9l-8.9,8.9
		c-0.4,0.4-0.4,1,0,1.4c0.2,0.2,0.5,0.3,0.7,0.3c0.3,0,0.5-0.1,0.7-0.3l8.9-8.9l8.9,8.9c0.2,0.2,0.5,0.3,0.7,0.3
		c0.3,0,0.5-0.1,0.7-0.3c0.4-0.4,0.4-1,0-1.4l-8.9-8.9l8.9-8.9C311.9,2741.6,311.9,2741,311.5,2740.6z"/>
</g>
</svg>
