<?xml version="1.0" encoding="utf-8"?>
<!-- Generator: Adobe Illustrator 18.1.0, SVG Export Plug-In . SVG Version: 6.00 Build 0)  -->
<!DOCTYPE svg PUBLIC "-//W3C//DTD SVG 1.1//EN" "http://www.w3.org/Graphics/SVG/1.1/DTD/svg11.dtd">
<svg version="1.1" id="Layer_1" xmlns="http://www.w3.org/2000/svg" xmlns:xlink="http://www.w3.org/1999/xlink" x="0px" y="0px"
	 viewBox="0 0 1100.6 5509" enable-background="new 0 0 1100.6 5509" xml:space="preserve">
<g>
	<path d="M200.8,2726.8c-13.4,0-24.4,10.9-24.4,24.4c0,13.4,10.9,24.3,24.4,24.3c13.4,0,24.4-10.9,24.4-24.3
		C225.2,2737.7,214.2,2726.8,200.8,2726.8z M200.8,2773.5c-12.3,0-22.4-10-22.4-22.3c0-12.3,10-22.4,22.4-22.4
		c12.3,0,22.4,10,22.4,22.4C223.2,2763.5,213.1,2773.5,200.8,2773.5z"/>
	<path d="M214.4,2750.6h-27.2c-0.6,0-1,0.4-1,1s0.4,1,1,1h27.2c0.6,0,1-0.4,1-1S215,2750.6,214.4,2750.6z"/>
</g>
</svg>
