<svg id="delavan" class="logo" xmlns="http://www.w3.org/2000/svg" xmlns:xlink="http://www.w3.org/1999/xlink" viewBox="0 0 196 81"><defs><style>.cls-1{fill:none;}.cls-2{fill:#6e6f71;}.cls-3{fill:#4c200b;}.cls-4{clip-path:url(#clip-path);}</style><clipPath id="clip-path"><rect class="cls-1" x="0.06" y="0.55" width="195.14" height="80.45"/></clipPath></defs><title>Artboard 1</title><polyline class="cls-2" points="30.88 79.68 29.13 79.68 29.13 74.36 23.09 74.36 23.09 79.68 21.28 79.68 21.28 69.31 23.09 69.31 23.09 72.55 29.13 72.55 29.13 69.31 30.88 69.31 30.88 79.68"/><path class="cls-2" d="M49,74.25a5.24,5.24,0,0,1-1.89,4.23,6.6,6.6,0,0,1-8.22,0A5.28,5.28,0,0,1,37,74.25a4.69,4.69,0,0,1,1.86-3.76,6.54,6.54,0,0,1,8.15,0A4.64,4.64,0,0,1,49,74.25m-1.86,0a2.89,2.89,0,0,0-1.26-2.31,4.74,4.74,0,0,0-5.77,0,2.89,2.89,0,0,0-1.24,2.31,3.66,3.66,0,0,0,1.11,2.85,4.29,4.29,0,0,0,3,1,4.1,4.1,0,0,0,3-1.08A3.77,3.77,0,0,0,47.1,74.25Z"/><polyline class="cls-2" points="64.83 71.01 60.42 71.01 60.42 79.68 58.64 79.68 58.64 71.01 54.23 71.01 54.23 69.31 64.83 69.31 64.83 71.01"/><polyline class="cls-2" points="79.96 79.68 70.94 79.68 70.94 69.31 79.67 69.31 79.67 71.06 72.76 71.06 72.76 73.35 76.83 73.35 76.83 75.1 72.76 75.1 72.76 77.88 79.96 77.88 79.96 79.68"/><polyline class="cls-2" points="95.54 79.68 86.67 79.68 86.67 69.31 88.49 69.31 88.49 77.93 95.54 77.93 95.54 79.68"/><path class="cls-2" d="M124.81,80.73h-3.13l-1.22-1.14a12.52,12.52,0,0,1-1.57.7,10.59,10.59,0,0,1-3.61.71,7.46,7.46,0,0,1-4-1.11,3.61,3.61,0,0,1-1.93-3.12,3.4,3.4,0,0,1,1.09-2.48,5.08,5.08,0,0,1,2.47-1.35A4,4,0,0,1,112,71.7a2.63,2.63,0,0,1-.23-1.34,2.68,2.68,0,0,1,1.47-1.89,5.34,5.34,0,0,1,2.85-.8,11.08,11.08,0,0,1,3.92.71l-.73,1.94-2.64-.59a6.62,6.62,0,0,0-1.75.26c-.65.18-1,.34-.94.48a1.55,1.55,0,0,0,.15.52,2,2,0,0,0,.26.41l6,5.31a8.71,8.71,0,0,0,.65-.76c.25-.33.45-.61.61-.86l2,1.08c-.23.36-.49.72-.76,1.08a10.55,10.55,0,0,1-.84,1l2.77,2.48m-6.09-2.58-3.92-3.46a7.25,7.25,0,0,0-2.06.55,1.74,1.74,0,0,0-1.19,1.53c-.09.65.32,1.19,1.21,1.62a6.08,6.08,0,0,0,2.64.55,6.49,6.49,0,0,0,1.74-.21A9.08,9.08,0,0,0,118.72,78.15Z"/><path class="cls-2" d="M150.05,76.29a3.17,3.17,0,0,1-1.11,2.38,5.16,5.16,0,0,1-3.67,1.24,9.78,9.78,0,0,1-3.25-.58,11.25,11.25,0,0,1-2.23-1.08l-.8-.59,1.19-1.36a9.45,9.45,0,0,0,2.36,1.35,6.73,6.73,0,0,0,2.6.54,4.86,4.86,0,0,0,2-.36c.71-.29,1.06-.69,1.06-1.19a1.39,1.39,0,0,0-.18-.71.76.76,0,0,0-.58-.36l-5.13-.77a3.31,3.31,0,0,1-1.88-1,2.49,2.49,0,0,1,1-4.17,8.19,8.19,0,0,1,3.44-.64,6.8,6.8,0,0,1,2.48.49,9.42,9.42,0,0,1,2.19,1.25l-1.32,1.28a10.34,10.34,0,0,0-2-.93,6.94,6.94,0,0,0-2.27-.42,4.15,4.15,0,0,0-1.67.36c-.55.24-.83.5-.83.81a1,1,0,0,0,.49.82,2.38,2.38,0,0,0,1.11.39l3.5.41a5.39,5.39,0,0,1,2.36.78,2.31,2.31,0,0,1,1.15,2"/><path class="cls-2" d="M166.05,72.45a3.13,3.13,0,0,1-.86,2.19,2.13,2.13,0,0,1-1.52.84h-5.53v4.2h-1.82V69.31h7.12a2.34,2.34,0,0,1,1.82.94,3.28,3.28,0,0,1,.79,2.2m-1.78,0a1.51,1.51,0,0,0-.37-.92,1,1,0,0,0-.78-.46h-5V73.7l5.19,0a.84.84,0,0,0,.63-.4A1.26,1.26,0,0,0,164.27,72.49Z"/><path class="cls-2" d="M181.32,79.7l-1.91,0-1.47-2.92h-5.11l-1.5,2.92h-1.91l5-10.37h1.74l5.14,10.39m-4.38-4.63-1.61-3.32-1.65,3.31Z"/><path class="cls-3" d="M56.61,60.05H51a1.15,1.15,0,0,1-1.27-1.27V1.88A1.17,1.17,0,0,1,51,.55h5.6c5,0,6,1.67,6,6.64V53.41c0,5-1,6.64-6,6.64M60.07,7.19c0-2.94-.46-4-3.46-4H52.34v54.3h4.27c3,0,3.46-1.09,3.46-4Z"/><path class="cls-3" d="M84.18,53.12h-8.6a1.14,1.14,0,0,1-1.27-1.27V12.9c0-.86.41-1.33,1.27-1.33h8.6a1.26,1.26,0,0,1,1.28,1.33,1.21,1.21,0,0,1-1.28,1.27H76.86v20h7.32a1.26,1.26,0,0,1,1.28,1.33,1.21,1.21,0,0,1-1.28,1.27H76.86V50.52h7.32a1.26,1.26,0,0,1,1.28,1.33,1.21,1.21,0,0,1-1.28,1.27"/><path class="cls-3" d="M105.3,53.12H96.64a1.16,1.16,0,0,1-1.27-1.27V12.9a1.3,1.3,0,0,1,1.27-1.33A1.28,1.28,0,0,1,98,12.9V50.52h7.33a1.23,1.23,0,0,1,1.27,1.33,1.18,1.18,0,0,1-1.27,1.27"/><path class="cls-3" d="M125.25,53.12a1.25,1.25,0,0,1-1.33-1.27V36.73h-6.11V51.85a1.18,1.18,0,0,1-1.27,1.27,1.2,1.2,0,0,1-1.27-1.27V36.73h-1.79a1.24,1.24,0,0,1-1.27-1.27,1.29,1.29,0,0,1,1.27-1.33h1.79V17.81c0-4.5,1.38-6.64,5.6-6.64s5.65,2.14,5.65,6.64v34a1.2,1.2,0,0,1-1.27,1.27m-1.33-35.31c0-2.6-.63-4-3-4s-3.06,1.45-3.06,4V34.13h6.11Z"/><path class="cls-3" d="M145.05,52a1.35,1.35,0,0,1-1.32,1.27A1.39,1.39,0,0,1,142.46,52l-5.54-39a1.28,1.28,0,1,1,2.54-.29l4.27,29.9L148,12.72a1.31,1.31,0,0,1,2.6.29l-5.55,39"/><path class="cls-3" d="M170.79,53.12a1.25,1.25,0,0,1-1.32-1.27V36.73h-6.12V51.85a1.18,1.18,0,0,1-1.27,1.27,1.2,1.2,0,0,1-1.27-1.27V36.73H159a1.25,1.25,0,0,1-1.27-1.27A1.3,1.3,0,0,1,159,34.13h1.79V17.81c0-4.5,1.38-6.64,5.6-6.64s5.65,2.14,5.65,6.64v34a1.2,1.2,0,0,1-1.27,1.27m-1.32-35.31c0-2.6-.64-4-3.06-4s-3.06,1.45-3.06,4V34.13h6.12Z"/><g class="cls-4"><path class="cls-3" d="M193.94,53.12a1.21,1.21,0,0,1-1.28-1.27v-34c0-2.6-.63-4-3.06-4a3.57,3.57,0,0,0-3.06,2.08v36a1.22,1.22,0,0,1-1.32,1.27A1.24,1.24,0,0,1,184,51.85V12.9a1.3,1.3,0,0,1,1.27-1.33,1.34,1.34,0,0,1,1.15.64,5.43,5.43,0,0,1,3.23-1c4.22,0,5.6,2.14,5.6,6.64v34a1.18,1.18,0,0,1-1.26,1.27"/><path class="cls-3" d="M7.2,19.43H4.93V45a.82.82,0,0,1-.86.86.85.85,0,0,1-.9-.86V19.43H.9a.86.86,0,0,1-.9-.86.9.9,0,0,1,.9-.91H7.2a.87.87,0,0,1,.9.91.83.83,0,0,1-.9.86"/></g><path class="cls-3" d="M19.78,45.82a.86.86,0,0,1-.9-.86V34.71H14.74V45a.8.8,0,0,1-.86.86A.82.82,0,0,1,13,45V34.71H11.84a.84.84,0,0,1-.85-.86.86.86,0,0,1,.85-.89H13V18.57a.86.86,0,0,1,.86-.91.84.84,0,0,1,.86.91V33h4.14V18.57a.9.9,0,0,1,.9-.91.85.85,0,0,1,.86.91V45a.82.82,0,0,1-.86.86"/><path class="cls-3" d="M32.58,45.82H26.76A.76.76,0,0,1,25.9,45V18.57c0-.59.27-.91.86-.91h5.82a.86.86,0,0,1,.87.91.82.82,0,0,1-.87.86h-5V33h5a.85.85,0,0,1,.87.89.82.82,0,0,1-.87.86h-5v9.35h5a.86.86,0,0,1,.87.9.82.82,0,0,1-.87.86"/></svg>