<svg id="queen-logo" class="logo" xmlns="http://www.w3.org/2000/svg" viewBox="0 0 269.9 293.6"><path d="M124.9 286.6l-1.4.7-.2-.8 1.7-.9h.9v7.7h-1v-6.7zM129.4 292.6h.8c.6-.1 1.2-.3 1.6-.8.5-.5.9-1.1 1-2.1-.4.5-1 .8-1.8.8-1.4 0-2.3-1-2.3-2.4 0-1.5 1.1-2.7 2.6-2.7 1.6 0 2.6 1.3 2.6 3.3 0 1.7-.6 2.9-1.3 3.6-.6.6-1.4.9-2.2 1-.4.1-.7.1-1 .1v-.8zm.4-4.5c0 1 .6 1.6 1.5 1.6.7 0 1.2-.3 1.5-.8.1-.1.1-.2.1-.4 0-1.3-.5-2.3-1.6-2.3-.9.1-1.5.8-1.5 1.9zM141.2 286.5h-3l-.3 2h.6c.6 0 1.2.1 1.7.4.6.3 1.1 1 1.1 2 0 1.5-1.2 2.6-2.9 2.6-.8 0-1.6-.2-1.9-.5l.3-.8c.3.2 1 .4 1.7.4 1 0 1.8-.6 1.8-1.7 0-1-.7-1.7-2.2-1.7-.4 0-.8 0-1.1.1l.5-3.7h3.7v.9zM144.1 291.4c0-1 .6-1.7 1.5-2.1-.9-.4-1.2-1.1-1.2-1.7 0-1.2 1-2.1 2.4-2.1 1.5 0 2.2.9 2.2 1.9 0 .7-.3 1.4-1.3 1.8 1 .4 1.6 1.1 1.6 2 0 1.3-1.2 2.2-2.6 2.2-1.7.1-2.6-.9-2.6-2zm4.1-.1c0-.9-.7-1.4-1.7-1.7-.9.3-1.4.9-1.4 1.6 0 .8.6 1.5 1.5 1.5 1 0 1.6-.6 1.6-1.4zm-2.9-3.8c0 .8.6 1.2 1.5 1.4.7-.2 1.2-.7 1.2-1.4 0-.6-.4-1.3-1.3-1.3s-1.4.6-1.4 1.3z"/><g><path d="M25.3 258.7l12.3-27.3H34l-15 33.3c-.3.7-.1 1.5.5 2s1.5.4 2.1-.1l37.7-35.2h-4.8l-29.2 27.3zM33.2 153.1H37l-25.5-40.8 58.7 11.3c.4.1.9 0 1.2-.3.4-.3.6-.7.7-1.1L88.4 9.6l30.1 112.1c.2.8 1 1.3 1.8 1.2l136.3-18.6-81.9 48.8h6.3l84.1-50.1c.7-.4 1-1.2.7-1.9-.3-.7-1-1.2-1.8-1.1l-142.8 19.5L89.5 1.2C89.3.5 88.6 0 87.8 0c-.8 0-1.4.6-1.5 1.4L69.1 120.1 8.4 108.4c-.6-.1-1.3.1-1.6.7-.4.5-.4 1.2 0 1.8l26.4 42.2zM218.5 231.4h-3.8l34.5 56.3-40.8-21.7h-6.9l51.4 27.4c.2.1.5.2.8.2.4 0 .9-.2 1.2-.5.5-.5.6-1.3.2-2l-36.6-59.7zM20.9 198.2v-9.9c0-5.1-4.2-8.2-9.6-8.2-5.4 0-9.6 3.2-9.6 8.2v9.9c0 5.1 4.2 8.3 9.6 8.3.7 0 1.5-.1 2.1-.2l1.6 2.6c.3.6 1 1 1.7 1h2.1c.5 0 .8-.5.5-1l-2.4-3.8c2.5-1.5 4-3.9 4-6.9zm-5-.4c0 1.3-.5 2.4-1.3 3l-.7-1.1c-.4-.6-1-1-1.7-1h-2.1c-.5 0-.8.5-.6 1l1.7 2.6c-2.6-.2-4.4-1.6-4.4-4.6v-9.1c0-3 2-4.6 4.5-4.6s4.5 1.6 4.5 4.6v9.2zM36.7 180.5h-2.8c-.7 0-1.2.5-1.2 1.2v16.5c0 5 3.7 8.2 9.2 8.2 5.5 0 9.2-3.2 9.2-8.2v-16.5c0-.7-.5-1.2-1.1-1.2h-2.8c-.7 0-1.2.5-1.2 1.2v16c0 3-1.6 4.6-4.2 4.6s-4.2-1.6-4.2-4.6v-16c.2-.7-.3-1.2-.9-1.2zM77.8 184.7c.6 0 1.1-.5 1.1-1.1v-1.9c0-.7-.5-1.2-1.1-1.2H64.3c-.7 0-1.2.5-1.2 1.2v23.1c0 .7.5 1.2 1.2 1.2h13.8c.7 0 1.2-.5 1.2-1.2V203c0-.6-.5-1.1-1.2-1.1h-9.9v-6.2H76c.6 0 1.1-.5 1.1-1.2v-1.8c0-.7-.5-1.2-1.1-1.2h-7.8v-6.9h9.6zM105 184.7c.6 0 1.1-.5 1.1-1.1v-1.9c0-.7-.5-1.2-1.1-1.2H91.5c-.7 0-1.2.5-1.2 1.2v23.1c0 .7.5 1.2 1.2 1.2h13.8c.7 0 1.2-.5 1.2-1.2V203c0-.6-.5-1.1-1.2-1.1h-9.9v-6.2h7.8c.6 0 1.1-.5 1.1-1.2v-1.8c0-.7-.5-1.2-1.1-1.2h-7.8v-6.9h9.6zM121.7 180.5h-3c-.7 0-1.2.5-1.2 1.2v23.1c0 .7.5 1.2 1.2 1.2h2.7c.6 0 1.1-.5 1.1-1.2l-.1-15 8.4 15.2c.4.6 1 1 1.7 1h3.1c.6 0 1.2-.5 1.2-1.2v-23.1c0-.7-.5-1.2-1.2-1.2h-2.7c-.7 0-1.2.5-1.1 1.2l.1 15.1-8.4-15.2c-.4-.7-1.1-1.1-1.8-1.1zM160.9 205.9c.7 0 1.3-.5 1.5-1.1l1.6-5h8.4l1.6 5c.2.6.8 1.1 1.5 1.1h3c.6 0 1-.5.8-1.1l-8.3-23.2c-.3-.6-.9-1.1-1.6-1.1h-2.5c-.7 0-1.3.5-1.5 1.1l-8.2 23.2c-.2.5.2 1.1.8 1.1h2.9zm7.2-19.5l3 9.4h-6l3-9.4zM193.7 180.5h-3c-.7 0-1.2.5-1.2 1.2v23.1c0 .7.5 1.2 1.2 1.2h2.7c.6 0 1.1-.5 1.1-1.2l-.1-15 8.4 15.2c.4.6 1 1 1.7 1h3.1c.6 0 1.2-.5 1.2-1.2v-23.1c0-.7-.5-1.2-1.2-1.2h-2.7c-.7 0-1.2.5-1.1 1.2l.1 15.1-8.4-15.2c-.4-.7-1.1-1.1-1.8-1.1zM224.9 180.5h-3c-.7 0-1.2.5-1.2 1.2v23.1c0 .7.5 1.2 1.2 1.2h2.7c.6 0 1.1-.5 1.1-1.2l-.1-15L234 205c.4.6 1 1 1.7 1h3.1c.6 0 1.2-.5 1.2-1.2v-23.1c0-.7-.5-1.2-1.2-1.2H236c-.7 0-1.2.5-1.1 1.2l.1 15.1-8.4-15.2c-.4-.7-1.1-1.1-1.7-1.1zM266.6 184.7c.6 0 1.1-.5 1.1-1.1v-1.9c0-.7-.5-1.2-1.1-1.2h-13.5c-.7 0-1.2.5-1.2 1.2v23.1c0 .7.5 1.2 1.2 1.2h13.8c.7 0 1.2-.5 1.2-1.2V203c0-.6-.5-1.1-1.2-1.1H257v-6.2h7.8c.6 0 1.1-.5 1.1-1.2v-1.8c0-.7-.5-1.2-1.1-1.2H257v-6.9h9.6zM131.5 253.9c0-.6-.1-1-.3-1.4-.2-.3-.4-.6-.6-.7-.2-.1-.3-.2-.5-.3-.2-.1-.2-.2-.2-.2s.1-.2.3-.4c.6-.5.8-1.1.8-1.9 0-1.8-1.2-2.7-3.6-2.7h-1.1c-1.2 0-1.9 0-2 .1-.3.1-.4.4-.4.9v6c0 1.9 0 3 .1 3.1.1.3.5.4 1.2.4h2.3c2.6.1 4-.9 4-2.9zm-5.6-5.4v-.2c0-.2 0-.4.1-.4s.4-.1.8-.1h.6c1.2 0 1.8.4 1.8 1.2v.2c0 .9-.6 1.3-1.9 1.3h-1c-.3 0-.4-.1-.4-.4v-1.6zm3.7 5.4c0 .5-.2.8-.5 1.1-.3.3-.8.4-1.4.4h-1c-.3 0-.5 0-.6-.1-.1-.1-.1-.2-.1-.4v-2.2-.2c0-.2.2-.4.7-.4h1.4c.4 0 .8.1 1.1.4.3.3.4.6.4 1.1v.3zM111.7 255.4c-1 0-1.6 0-1.9-.1-.3 0-.5-.1-.6-.3-.2-.3-.3-1.6-.3-4 0-2.3-.1-3.7-.2-4.1-.1-.3-.4-.4-.8-.4-.5 0-.8 0-.8.1-.1.1-.1.2-.1.4v4.5c0 3.2.1 4.8.2 5 .1.2.3.3.6.4.3 0 1.1.1 2.5.1h2.5c.3 0 .5 0 .6-.1.1-.1.1-.2.1-.4v-.2c0-.4-.1-.6-.3-.7 0-.2-.5-.2-1.5-.2zM102.5 255.5c-.2-.1-.9-.2-2-.2s-1.7-.1-2-.2c-.2-.1-.4-.6-.4-1.3s.1-1.2.3-1.4c.2-.2.8-.2 1.7-.2.9 0 1.4 0 1.5-.1.2-.1.3-.3.3-.6s-.1-.6-.1-.7c-.1-.1-.6-.1-1.5-.1s-1.5 0-1.7-.1c-.2-.1-.4-.3-.4-.6 0-1 .1-1.5.3-1.7.1-.1.6-.2 1.3-.2h1.5c.8 0 1.2-.3 1.2-.9 0-.3-.1-.5-.3-.6-.2-.1-.6-.1-1.2-.1h-2.7c-1 0-1.6.1-1.8.3-.2.2-.3.7-.3 1.6 0 .9 0 1.8-.1 2.6-.1.9-.1 1.8-.1 2.6v1.3c0 1 .2 1.6.5 1.7.2.1.9.2 1.9.2h.8c1.3 0 2.2 0 2.8-.1.4-.1.6-.3.6-.6.3-.3.1-.5-.1-.6zM80.6 247.7c-.3-.4-.8-.7-1.3-1-.6-.3-1.2-.4-1.9-.4H77c-.7 0-1.3.1-1.9.4-.6.3-1 .6-1.3 1-.3.4-.6.9-.8 1.6-.2.7-.3 1.4-.3 2.1v.3c0 .8.1 1.4.2 2.1.5 2.1 1.9 3.1 4.2 3.1h.2c.6 0 1.2-.1 1.7-.3.6-.2 1-.5 1.4-.9.4-.4.6-.9.9-1.6.2-.7.3-1.4.3-2.3v-.5c0-.8-.1-1.5-.3-2.1-.1-.6-.4-1.1-.7-1.5zm-.8 4.3c0 1.1-.2 2-.6 2.6-.4.6-1 .9-1.7.9h-.3c-.8 0-1.4-.4-1.9-1.1-.4-.6-.6-1.4-.6-2.6v-.3c0-1.2.2-2.1.6-2.7.4-.6 1-.9 1.8-.9h.3c.4 0 .7.1 1 .2.9.5 1.4 1.6 1.4 3.3v.6zM91.5 246.5h-5.3c-.6 0-1 0-1.2.1-.2.1-.2.2-.2.5v.2c0 .5.3.8.9.8h1c.4 0 .7 0 .8.1.1.1.2.2.2.4.1.2.1 1.2.1 2.8v2c0 .1 0 .6-.1 1.4v1c0 .5 0 .9.1 1 .1.1.2.2.5.2h.4c.5 0 .7-.1.8-.3.1-.2.1-.8.1-1.9l.1-3.3c0-1.7.1-2.7.2-3 .1-.3.6-.4 1.3-.4.7 0 1.1-.1 1.3-.2.2-.1.3-.3.3-.7 0-.3-.1-.5-.2-.6-.1-.1-.5-.1-1.1-.1z"/><path d="M205.2 255.4c-.6 0-1.2-.1-1.8-.4-.7-.3-1-.4-1.1-.4-.1 0-.2.1-.4.2-.1.1-.2.3-.2.6 0 .2.1.5.3.7.2.2.6.4 1.1.6.6.2 1.3.3 2.3.3 1 0 1.8-.3 2.5-.8.6-.5 1-1.2 1-2.1v-.2c0-.3-.1-.7-.2-1-.1-.3-.4-.6-.8-1-.4-.3-1-.7-1.9-1-.9-.4-1.5-.6-1.7-.7-.4-.3-.6-.7-.6-1.1 0-.3.1-.6.4-.8.3-.2.6-.3 1-.3.7 0 1.2.1 1.6.3.7.3 1.1.4 1.1.4.2 0 .3-.1.4-.3s.1-.4.1-.6c0-.4-.3-.7-.9-1-.6-.3-1.3-.4-1.9-.4h-.3c-.5 0-1 .1-1.5.2-1.3.4-2 1.3-2 2.7 0 .7.2 1.3.6 1.7.4.4 1.1.8 2.1 1.2s1.6.6 1.8.8c.4.3.6.7.6 1.1.2.9-.4 1.3-1.6 1.3zM165.1 251.9c-.4-.3-1-.7-1.9-1-.9-.4-1.5-.6-1.7-.7-.4-.3-.6-.7-.6-1.1 0-.3.1-.6.4-.8.3-.2.6-.3 1-.3.7 0 1.2.1 1.6.3.7.3 1.1.4 1.1.4.2 0 .3-.1.4-.3.1-.2.1-.4.1-.6 0-.4-.3-.7-.9-1-.6-.3-1.3-.4-1.9-.4h-.3c-.5 0-1 .1-1.5.2-1.3.4-2 1.3-2 2.7 0 .7.2 1.3.6 1.7.4.4 1.1.8 2.1 1.2 1 .4 1.6.6 1.8.8.4.3.6.7.6 1.1 0 .8-.6 1.2-1.7 1.2-.6 0-1.2-.1-1.8-.4-.7-.3-1-.4-1.1-.4-.1 0-.2.1-.4.2-.1.1-.2.3-.2.6 0 .2.1.5.3.7.2.2.6.4 1.1.6.6.2 1.3.3 2.3.3 1 0 1.8-.3 2.5-.8.6-.5 1-1.2 1-2.1v-.2c0-.3-.1-.7-.2-1 0-.2-.3-.5-.7-.9zM196.4 255.4c-1 0-1.6 0-1.9-.1-.3 0-.5-.1-.6-.3-.2-.3-.3-1.6-.3-4 0-2.3-.1-3.7-.2-4.1-.1-.3-.4-.4-.8-.4-.5 0-.8 0-.8.1-.1.1-.1.2-.1.4v4.5c0 3.2.1 4.8.2 5 .1.2.3.3.6.4.3 0 1.1.1 2.5.1h2.5c.3 0 .5 0 .6-.1.1-.1.1-.2.1-.4v-.2c0-.4-.1-.6-.3-.7 0-.2-.5-.2-1.5-.2zM176 251.9c-.4-.3-1-.7-1.9-1-.9-.4-1.5-.6-1.7-.7-.4-.3-.6-.7-.6-1.1 0-.3.1-.6.4-.8.3-.2.6-.3 1-.3.7 0 1.2.1 1.6.3.7.3 1.1.4 1.1.4.2 0 .3-.1.4-.3.1-.2.2-.4.2-.6 0-.4-.3-.7-.9-1-.6-.3-1.3-.4-1.9-.4h-.3c-.5 0-1 .1-1.5.2-1.3.4-2 1.3-2 2.7 0 .7.2 1.3.6 1.7.4.4 1.1.8 2.1 1.2.9.4 1.6.6 1.8.8.4.3.6.7.6 1.1 0 .8-.6 1.2-1.7 1.2-.6 0-1.2-.1-1.8-.4-.7-.3-1-.4-1.1-.4-.1 0-.2.1-.4.2-.1.1-.2.3-.2.6 0 .2.1.5.3.7.2.2.6.4 1.1.6.6.2 1.3.3 2.3.3 1 0 1.8-.3 2.5-.8.6-.5 1-1.2 1-2.1v-.2c0-.3-.1-.7-.2-1-.1-.2-.4-.5-.8-.9zM68.8 251.3v-2.7c0-1.1 0-1.7-.1-1.8-.1-.1-.2-.2-.5-.2-.5 0-.9.1-1 .3-.1.2-.2.8-.2 1.7 0 .9 0 1.5-.1 1.8-.1.3-.5.4-1.1.4-1.4 0-2.2-.1-2.4-.2-.2-.1-.3-.4-.4-.8 0 0 0-.5-.1-1.2 0-.8-.1-1.3-.2-1.4-.1-.3-.4-.5-.8-.5-.6 0-.8.1-.8.4v9.3c.1.2.3.3.8.3s.8-.1.9-.4c.1-.3.2-.9.2-2 0-1 .1-1.6.2-1.8.2-.2.7-.3 1.8-.3 1 0 1.6 0 1.8.1.2.2.3.8.3 1.9 0 1.1 0 1.8.1 2 .1.4.5.5 1.1.5.4 0 .7-.1.7-.4v-2.1V251.5l-.2-.2zM187.2 255.5c-.2-.1-.9-.2-2-.2s-1.7-.1-2-.2c-.2-.1-.4-.6-.4-1.3s.1-1.2.3-1.4c.2-.2.8-.2 1.7-.2.9 0 1.4 0 1.5-.1.2-.1.3-.3.3-.6s0-.6-.1-.7c-.1-.1-.6-.1-1.5-.1s-1.5 0-1.7-.1c-.2-.1-.4-.3-.4-.6 0-1 .1-1.5.3-1.7.1-.1.6-.2 1.3-.2h1.5c.8 0 1.2-.3 1.2-.9 0-.3-.1-.5-.3-.6-.2-.1-.6-.1-1.2-.1H183c-1 0-1.6.1-1.8.3-.2.2-.3.7-.3 1.6 0 .9 0 1.8-.1 2.6-.1.9-.1 1.8-.1 2.6v1.3c0 1 .2 1.6.5 1.7.2.1.9.2 1.9.2h.8c1.3 0 2.2 0 2.8-.1.4-.1.6-.3.6-.6.2-.3.1-.5-.1-.6zM154.8 250.1v-1.3-2c0-.2-.3-.3-.8-.3s-.8.2-.9.5c-.1.2-.1 1.1-.1 2.4v2.3c0 1.4-.1 2.3-.4 2.8-.3.6-.9.9-1.6.9-.7 0-1.3-.2-1.6-.7-.3-.5-.5-1.1-.5-2.1v-1.3c0-1.9-.1-3.3-.2-4.1-.1-.3-.2-.5-.4-.6-.2-.1-.5-.1-.8-.1-.4 0-.5.1-.5.4v1.4c0 .9.1 2 .1 3.3 0 1.3 0 2.2.1 2.7.1.4.2.8.5 1.2.6.9 1.6 1.4 3 1.4h.3c.7 0 1.3-.1 2-.4 1-.4 1.6-1.2 1.8-2.2.1-.5.1-1.2.1-2.2v-1.6c-.1-.1-.1-.3-.1-.4zM141.1 252.8c-.1-.2-.2-.3-.2-.3 0-.1.2-.3.6-.6.4-.3.7-.6.9-1 .2-.4.3-.9.3-1.4 0-.5-.1-1-.2-1.3-.5-1.1-1.6-1.7-3.5-1.7h-.9c-1 0-1.6 0-1.9.1-.3 0-.5.2-.6.3-.1.2-.1 1.8-.1 4.8v4.3c0 .4 0 .7.1.8.1.1.3.1.5.1h.2c.4 0 .7-.1.8-.2.1-.2.2-.7.2-1.7 0-.9 0-1.6.1-1.8.1-.3.3-.4.6-.4.5 0 .9.1 1.1.3.2.2.6.8 1 1.7.4.9.8 1.5.9 1.7.2.3.6.4 1.1.4.5 0 .8-.1.8-.3 0-.1-.3-.7-.9-1.8-.5-1.2-.8-1.8-.9-2zm-.3-3.2c0 .5-.2 1-.5 1.2-.3.3-1 .4-1.8.4h-.7c-.3 0-.5-.1-.5-.4v-2-.2c0-.3.1-.5.2-.6.1-.1.4-.1 1-.1h.4c.7 0 1.2.1 1.5.4.3.2.5.6.5 1.1v.2zM125.8 290.7v-2.5-2.5c-.1-.3-.2-.4-.6-.4h-.1c-.3 0-.8.3-1.7 1-.3.2-.5.4-.5.6 0 .2.1.3.2.4.1.1.2.2.4.2l.6-.1c.1 0 .2.1.3.3 0 .2.1.7.1 1.5s0 1.3-.1 1.5c0 .2-.1.4-.3.7-.2.3-.2.6-.2.9 0 .3.1.5.2.7.2.3.5.4.8.4h.2c.4 0 .7-.1.8-.2.3-.2.4-.5.4-.9v-.1c0-.3-.1-.6-.2-.9-.2-.3-.3-.5-.3-.6zM132.9 285.6c-.4-.2-.8-.2-1.2-.2-1 0-1.7.2-2.1.7-.5.5-.7 1.2-.7 2 0 1.1.5 1.9 1.5 2.3.3.1.6.2.8.2h1.1c.3 0 .4.1.4.3 0 .1-.1.3-.2.5-.4.5-.9.8-1.6.9h-.4c-.7 0-1 .2-1 .6 0 .2.1.4.3.5.2.1.5.2.9.2h.1c.5 0 1.1-.1 1.6-.4.5-.2 1-.6 1.3-1 .6-.7.8-1.8.8-3.3v-.2c0-.6-.1-1.1-.2-1.5-.2-.8-.7-1.3-1.4-1.6zm.1 2.6c0 .4-.1.7-.3.9-.2.2-.5.3-1 .3h-.2c-.4 0-.7-.1-.9-.4-.2-.3-.4-.6-.4-1v-.2c0-.4.1-.7.3-.9.3-.3.6-.5 1-.5h.2c.3 0 .6.1.9.4.3.3.4.6.4.9v.5zM140.3 288.4c-.3-.1-.6-.2-.9-.2H138.5c-.2 0-.3-.1-.3-.4 0-.6.1-1 .3-1.2.1-.1.6-.2 1.4-.2.8 0 1.3-.1 1.5-.1.2-.1.2-.3.2-.7 0-.2 0-.3-.1-.3 0 0-.2-.1-.5-.1H137.6c-.2 0-.4.1-.5.3-.2.3-.3 1.2-.3 2.7 0 .4.1.7.2.9.1.2.4.3.7.3l1.1-.1c.5 0 .9.1 1.2.4.3.2.4.6.4 1s-.1.8-.3 1c-.3.3-.6.5-1.1.5-.3 0-.6 0-.8-.1-.2-.1-.5-.2-.7-.2-.2-.1-.4-.1-.5-.1-.1 0-.2.1-.3.2-.1.1-.2.3-.2.4 0 .2.1.3.2.5.1.1.4.3.7.4.4.2.8.2 1.4.2.5 0 1-.1 1.4-.2 1-.4 1.6-1.2 1.6-2.4 0-.8-.3-1.5-.8-1.9-.1-.3-.4-.5-.7-.6zM149.2 289.6c-.1-.1-.2-.2-.4-.3l-.2-.2.3-.4c.1-.1.2-.3.4-.6.1-.2.2-.5.2-.8 0-.3 0-.6-.1-.8-.1-.2-.2-.5-.5-.7-.5-.4-1.1-.6-1.9-.6h-.1c-.7 0-1.3.2-1.8.6-.2.2-.4.4-.5.7-.1.3-.2.5-.2.8 0 .7.2 1.2.7 1.7.1.1.1.2.1.2s-.1.2-.4.4c-.5.5-.7 1-.7 1.7v.1c0 .6.2 1.2.8 1.6.5.4 1.1.6 1.9.6h.3c.8 0 1.5-.2 2-.6.5-.4.8-1 .8-1.7 0-.4-.1-.7-.2-1-.2-.4-.4-.6-.5-.7zm-3.4-2.3c0-.3.1-.5.3-.7.2-.2.5-.2.8-.2h.1c.3 0 .6.1.8.3.2.2.3.4.3.7v.2c0 .3-.1.5-.3.8-.2.2-.5.3-.8.3-.3 0-.6-.1-.8-.3-.2-.2-.3-.5-.3-.8v-.3zm2.6 4c0 .3-.1.6-.4.8-.2.2-.6.3-1 .3h-.1c-.4 0-.7-.1-.9-.3-.3-.2-.4-.5-.4-.8V291c0-.3.1-.6.4-.9.2-.3.5-.4.9-.4s.7.1 1.1.4c.2.2.4.5.4.9v.3zM0 164.5h269.9v3.2H0zM0 218.1h269.9v3.2H0z"/></g></svg>