<svg xmlns="http://www.w3.org/2000/svg" id="asbury-inn-logo" class="logo" viewBox="0 0 989.15 256.75"><path d="M26.51 174.35V84.66h15v-10.6H0v10.6h15v89.69zm41.74-56.59v-43.7H56.79v100.29h11.46V128.5h18.63v45.85h11.46V74.06H86.88v43.7zm47.48-43.7v100.29h31.81v-10.6H127.2v-35.39h19.34V117.9H127.2V84.66h20.06v-10.6zM256.6 1.44h-26l-42.2 253.15h20.92l7.21-47.6h53.77l7.57 47.6h20.92L256.6 1.44zm-13.34 35.7l23.8 149.65h-47.24l23.44-149.65zm165.8 92.68l-37.14-27.41c-9.74-7.57-14.42-14.06-14.42-27.76v-32.1c0-15.14 7.57-22.35 23.43-22.35h5.41c15.87 0 23.44 7.21 23.44 22.35v45.08h21.27V43.28c0-28.49-14.78-43.28-44-43.28h-6.85c-29.93 0-44.36 14.79-44.36 43.64V75c0 19.83 5.42 32.45 22.72 45.07l37.15 27.77c9.73 7.57 14.42 13.7 14.42 27.76v38.6c0 15.15-7.93 22.36-23.44 22.36h-6.49c-15.5 0-23.44-7.21-23.44-22.36v-52.65h-21.27v51.93c0 28.49 14.79 43.27 44 43.27h7.93c29.57 0 44.36-14.78 44.36-43.63V174.9c0-20.92-5.77-32.46-22.72-45.08zm136.48-4.33c14.79-5 23.44-16.59 23.44-39.31v-40c0-29.21-14.43-44-44.35-44H474.5v252.41h50.85c29.57 0 44.35-14.79 44.35-44v-45.07c0-22.72-9-34.62-24.16-40zm2.17-80.41v45.07q0 26-27.05 26h-24.88V22h28.49c15.86 0 23.44 7.57 23.44 23.08zm-51.93 90.51h25.6c17.67 0 27 8.65 27 26.33v49.76c0 15.5-7.93 23.07-23.44 23.07h-29.16v-99.16zM711 2.17h-21.62v211c0 15.87-7.93 23.44-23.8 23.44H658c-15.86 0-23.8-7.57-23.8-23.44v-211h-21.62V212.4c0 29.21 14.78 44.35 44.35 44.35h9.38c29.93 0 44.71-15.14 44.71-44.35V2.17zm114.67 132c14.78-5.41 23.8-16.23 23.8-39.67V46.16c0-29.21-14.79-44-44.35-44H755v252.43h21.64V144.24h24.52c18.39 0 27.05 8.3 27.05 26.33v84h21.63v-84.72c0-20.92-8.29-31.37-24.16-35.7zm2.16-89.07v53.35c0 17.67-8.65 26-26.32 26h-24.86v-102h27.76c15.87 0 23.44 7.21 23.44 22.72zM989.15 2.17h-21.28L936.86 136 906.57 2.17h-22.36L926 168v86.55h21.63v-87.23L989.15 2.17z"/></svg>