<svg id="lenaustrasse-logo" class="logo" data-name="Layer 1" xmlns="http://www.w3.org/2000/svg" viewBox="0 0 436.38 266.93"><path class="cls-3" fill="#ffffff"  d="M195.39,1.85c1.05-2.46,5.48-2.53,6.3.16,2.89,7.09,6,14.09,8.94,21.16A88.12,88.12,0,0,1,245.85,3.48a91.51,91.51,0,0,1,55.53,1.86,8.51,8.51,0,0,1,2.2,1c1.2,1.45,1.13,3.52.94,5.3-.33,1.43-2,1.41-3.08.86C288,6.66,272.81,5.32,258.34,7.4a81.63,81.63,0,0,0-39.72,17.69,74.46,74.46,0,0,0-24,35.75,68.93,68.93,0,0,0,3.06,47c7.18,16.32,20.5,29.6,36.4,37.51Q216.4,103.8,198.78,62.19a62.66,62.66,0,0,1,3.66-9.27c6.28,14.4,12.21,28.93,18.37,43.37,7.08,16.75,14.14,33.51,21,50.35a16.88,16.88,0,0,0,1.09,2.46,74.68,74.68,0,0,0,15.86,4Q234.64,96.39,210.59,39.63a55.82,55.82,0,0,1,4.62-5.56c6.35,15.14,13,30.17,19.35,45.29,10.52,24.8,21.24,49.51,31.46,74.43a78.33,78.33,0,0,0,35-5.52c1-.52,2.63-.75,3.23.53a6.91,6.91,0,0,1,.36,3.66c-.37,2.06-.76,2-2.54,2.59a93.52,93.52,0,0,1-51.9,3,89.34,89.34,0,0,1-36.28-17.95,80.69,80.69,0,0,1-25.35-37.5,75.78,75.78,0,0,1,3.58-54c.19-.51.58-1.09.26-1.63-1.4-3.35-2.84-6.68-4.24-10q-24,58.37-48,116.75c-.79,1.76-1.36,3.62-2.29,5.32-1.27,2-4.28,1.49-5.59-.17a3,3,0,0,1-.06-3.12c6.5-16.37,13.28-32.62,20-48.92,6.6-16,13.12-32,19.78-48,7.92-19,15.63-38,23.52-57Zm3.21,9.48h0C196.38,16.64,194.19,22,192,27.27c-.16.45-.54,1-.19,1.46,1.74,3.65,3.33,7.36,4.94,11.07a99.93,99.93,0,0,1,9-11.71c-2.34-5.6-4.73-11.18-7.1-16.76Z"/><path class="cls-3" fill="#ffffff"  d="M21,235.28q-.2-.41-.54-1.17c-.24-.51-.51-1.1-.8-1.76l-1-2.19c-.35-.79-.71-1.61-1.07-2.46h-10l-3.35,7.58H0l12.61-27.64.84,1.85,1.44,3.23q.84,1.88,1.88,4.15l2.1,4.61Q20,223.81,21,226.06c.69,1.51,1.32,2.89,1.89,4.16s1.07,2.33,1.47,3.22.68,1.5.84,1.84ZM9.06,224.35h7.06c-.36-.8-.71-1.57-1-2.31l-.9-2q-.4-.93-.72-1.62c-.21-.46-.37-.83-.47-1.09a3.7,3.7,0,0,1-.18-.51c-.09-.29-.16-.56-.21-.8a5.38,5.38,0,0,1-.24.8,4.79,4.79,0,0,1-.19.51l-3.12,7.06Z"/><path class="cls-3" fill="#ffffff"  d="M42,222.09h3.87a6,6,0,0,0,2.61-.51,4.83,4.83,0,0,0,1.66-1.23,4.42,4.42,0,0,0,.86-1.57,5.2,5.2,0,0,0,.25-1.49,5.06,5.06,0,0,0-.25-1.51,4.09,4.09,0,0,0-.88-1.53,4.79,4.79,0,0,0-1.66-1.19,6.21,6.21,0,0,0-2.55-.47H42v9.5Zm-4.29,13.19V208.87H45.4a14.59,14.59,0,0,1,4.08.55,9.2,9.2,0,0,1,3.2,1.62,7.49,7.49,0,0,1,2.09,2.62,8.22,8.22,0,0,1,.74,3.55,9.9,9.9,0,0,1-.51,3.12,7.46,7.46,0,0,1-1.64,2.77,8.36,8.36,0,0,1-3,2,11.59,11.59,0,0,1-4.45.77H42v9.43Z"/><path class="cls-3" fill="#ffffff"  d="M84.43,235.28q-.2-.41-.54-1.17c-.24-.51-.5-1.1-.8-1.76l-1-2.19c-.35-.79-.71-1.61-1.07-2.46h-10l-3.36,7.58H63.47l12.61-27.64c.16.34.44,1,.84,1.85l1.44,3.23q.84,1.88,1.88,4.15c.69,1.52,1.39,3,2.11,4.61l2.1,4.58,1.9,4.16,1.46,3.22c.4.89.68,1.5.84,1.84Zm-11.9-10.93h7.06c-.36-.8-.71-1.57-1-2.31l-.9-2q-.41-.93-.72-1.62c-.21-.46-.37-.83-.47-1.09a4.48,4.48,0,0,1-.17-.51,6.55,6.55,0,0,1-.22-.8,6.73,6.73,0,0,1-.23.8c-.11.29-.17.46-.2.51l-3.12,7.06Z"/><path class="cls-3" fill="#ffffff"  d="M101.14,235.28V208.87h7.73a14.59,14.59,0,0,1,4.08.55,9.11,9.11,0,0,1,3.2,1.62,7.49,7.49,0,0,1,2.09,2.62,8.22,8.22,0,0,1,.74,3.55,10.59,10.59,0,0,1-.23,2.17,8.39,8.39,0,0,1-.76,2.08,8.85,8.85,0,0,1-1.35,1.85,7,7,0,0,1-2,1.44c1,1.53,2.17,3.23,3.39,5.08s2.46,3.68,3.71,5.45h-5.11q-.78-1.12-1.62-2.37l-1.68-2.46c-.56-.81-1.11-1.61-1.64-2.4s-1-1.52-1.5-2.2h-4.76v9.43Zm4.3-13.19h3.86a6.19,6.19,0,0,0,2.62-.49,4.62,4.62,0,0,0,1.65-1.22,4.3,4.3,0,0,0,.86-1.56,5.33,5.33,0,0,0,.26-1.53,5.1,5.1,0,0,0-.26-1.51,4.09,4.09,0,0,0-.88-1.53,4.74,4.74,0,0,0-1.65-1.19,6.26,6.26,0,0,0-2.56-.47h-3.9v9.5Z"/><polygon class="cls-3" fill="#ffffff"  points="150.48 208.87 150.48 212.66 143.34 212.66 143.34 235.28 139.08 235.28 139.08 212.66 132.1 212.66 132.1 208.87 150.48 208.87 150.48 208.87"/><path class="cls-3" fill="#ffffff"  d="M164.5,207.71c.23.34.72,1,1.46,1.95l2.58,3.33,3.1,4,3.08,4,2.52,3.26c.72.92,1.19,1.53,1.43,1.82.07-.12.32-.45.74-1s.93-1.2,1.54-2L183,220.4l2.4-3.09c.82-1.06,1.63-2.11,2.42-3.16s1.53-2,2.2-2.85,1.26-1.62,1.74-2.26.83-1.09,1-1.33v27.57h-4.53V220.49a3.5,3.5,0,0,1,.06-.62,2.65,2.65,0,0,0,0-.47q-.34.43-1.11,1.47c-.51.7-1.09,1.49-1.75,2.37s-1.36,1.82-2.09,2.81l-2.07,2.78c-.65.88-1.22,1.65-1.72,2.31s-.83,1.14-1,1.41c-.19-.22-.54-.68-1.08-1.37l-1.87-2.42c-.72-.92-1.47-1.91-2.27-2.95l-2.2-2.91-1.76-2.32c-.49-.64-.78-1-.86-1.18a2.94,2.94,0,0,0,.06.47,3.5,3.5,0,0,1,.06.62v14.79H164.5V207.71Z"/><polygon class="cls-3" fill="#ffffff"  points="208.76 235.28 208.76 208.87 227.34 208.87 227.34 212.48 213.06 212.48 213.06 220.2 225.78 220.2 225.78 223.88 213.06 223.88 213.06 231.6 227.89 231.6 227.89 235.28 208.76 235.28 208.76 235.28"/><path class="cls-3" fill="#ffffff"  d="M266.65,208.87v27.61a25,25,0,0,0-2.11-2.11L261,231q-2-1.91-4.31-4c-1.52-1.39-3-2.7-4.31-4s-2.54-2.37-3.56-3.35-1.69-1.69-2-2.1l-.74-1,.12,1.17v17.41h-4.29V207.64a19.42,19.42,0,0,0,1.42,1.45l2.34,2.21c.9.83,1.89,1.74,3,2.71l3.28,3,3.28,2.93c1.08,1,2.07,1.85,3,2.68s1.68,1.55,2.33,2.18,1.1,1.11,1.36,1.42l.74,1L262.4,226V208.87Z"/><polygon class="cls-3" fill="#ffffff"  points="299.05 208.87 299.05 212.66 291.91 212.66 291.91 235.28 287.65 235.28 287.65 212.66 280.67 212.66 280.67 208.87 299.05 208.87 299.05 208.87"/><path class="cls-3" fill="#ffffff"  d="M350.93,233.38a7.89,7.89,0,0,1-1.31.71,13.77,13.77,0,0,1-2,.72,20.83,20.83,0,0,1-2.52.54,18.29,18.29,0,0,1-2.94.22,15.79,15.79,0,0,1-6-1.07,13.76,13.76,0,0,1-4.47-2.9,12.54,12.54,0,0,1-2.81-4.22,13.49,13.49,0,0,1-1-5.1,13,13,0,0,1,1.15-5.5,13.36,13.36,0,0,1,3.14-4.34,14.52,14.52,0,0,1,4.67-2.84,15.77,15.77,0,0,1,5.68-1,18.12,18.12,0,0,1,2.3.15,19.21,19.21,0,0,1,2.2.4,11.7,11.7,0,0,1,1.84.6,5.19,5.19,0,0,1,1.23.71c-.21.29-.37.53-.49.73l-.37.6-.43.71-.62,1.06a5.23,5.23,0,0,0-1.19-.55,10.68,10.68,0,0,0-1.43-.36,14.64,14.64,0,0,0-1.5-.22c-.51,0-1-.08-1.39-.08a11,11,0,0,0-4.19.79,10.5,10.5,0,0,0-3.34,2.11,9.9,9.9,0,0,0-2.21,3.08,8.69,8.69,0,0,0-.8,3.64,8.81,8.81,0,0,0,.76,3.57,10,10,0,0,0,5.35,5.21,10.64,10.64,0,0,0,4.16.8,12.72,12.72,0,0,0,2.34-.22,19.79,19.79,0,0,0,2.05-.51,13.36,13.36,0,0,0,1.52-.58,2.36,2.36,0,0,0,.72-.44l1.8,3.6Z"/><polygon class="cls-3" fill="#ffffff"  points="363.81 208.87 368.07 208.87 368.07 235.28 363.81 235.28 363.81 208.87 363.81 208.87"/><polygon class="cls-3" fill="#ffffff"  points="400.47 208.87 400.47 212.66 393.32 212.66 393.32 235.28 389.07 235.28 389.07 212.66 382.08 212.66 382.08 208.87 400.47 208.87 400.47 208.87"/><path class="cls-3" fill="#ffffff"  d="M426,226.57v8.71h-4.3v-8.71c-.18-.26-.54-.85-1.07-1.74s-1.16-2-1.87-3.19l-2.31-3.92c-.82-1.38-1.58-2.68-2.3-3.91l-1.87-3.19c-.54-.9-.9-1.48-1.08-1.75H416c.24.37.65,1.07,1.25,2.1s1.26,2.2,2,3.49,1.47,2.61,2.23,3.94,1.39,2.46,1.91,3.4l.43,1.2a4.06,4.06,0,0,0,.27-.6l.24-.6c.54-.94,1.18-2.08,1.91-3.4l2.17-3.94c.71-1.29,1.36-2.46,2-3.49s1-1.73,1.23-2.1h4.8L426,226.57Z"/><polygon class="cls-3" fill="#ffffff"  points="108.58 266.3 108.58 252.46 110.85 252.46 110.85 264.31 118.26 264.31 118.26 266.3 108.58 266.3 108.58 266.3"/><polygon class="cls-3" fill="#ffffff"  points="126.5 266.3 126.5 252.46 136.3 252.46 136.3 254.35 128.76 254.35 128.76 258.4 135.48 258.4 135.48 260.32 128.76 260.32 128.76 264.37 136.59 264.37 136.59 266.3 126.5 266.3 126.5 266.3"/><path class="cls-3" fill="#ffffff"  d="M158.46,252.46v14.47a13.85,13.85,0,0,0-1.11-1.11l-1.89-1.75c-.72-.67-1.48-1.36-2.28-2.08l-2.28-2.08c-.71-.65-1.33-1.24-1.87-1.75s-.89-.88-1.07-1.1l-.39-.5.06.62v9.12h-2.27V251.81c.16.18.41.43.76.76l1.23,1.16,1.57,1.42,1.73,1.55,1.73,1.54c.57.5,1.09,1,1.56,1.4s.88.81,1.23,1.14.58.58.72.75l.39.53-.06-.65v-9Z"/><path class="cls-3" fill="#ffffff"  d="M177.54,266.3c-.07-.14-.17-.34-.29-.61s-.27-.58-.43-.93-.33-.73-.51-1.14l-.57-1.29h-5.27l-1.77,4h-2.22l6.65-14.49.44,1c.21.48.47,1,.76,1.69l1,2.18c.36.8.74,1.6,1.11,2.42l1.12,2.4,1,2.18c.31.66.56,1.22.78,1.69l.44,1Zm-6.29-5.73H175l-.54-1.21c-.18-.39-.33-.74-.48-1.07l-.38-.85c-.11-.24-.19-.43-.25-.57s0-.11-.09-.27-.08-.29-.11-.42a2.83,2.83,0,0,1-.13.42c-.05.16-.09.24-.1.27l-1.65,3.7Z"/><path class="cls-3" fill="#ffffff"  d="M192.88,266.45a6.73,6.73,0,0,1-2.23-.36,5.69,5.69,0,0,1-1.8-1,4.74,4.74,0,0,1-1.21-1.59,4.63,4.63,0,0,1-.45-2.07v-9h2.27v8.9a3,3,0,0,0,.26,1.23,3.15,3.15,0,0,0,.72,1,3.33,3.33,0,0,0,1.08.67,3.7,3.7,0,0,0,1.36.24,3.76,3.76,0,0,0,1.35-.24,3.27,3.27,0,0,0,1.09-.67,3.34,3.34,0,0,0,.73-1,2.84,2.84,0,0,0,.27-1.23v-8.9h2.26v9a4.63,4.63,0,0,1-.44,2.07,4.74,4.74,0,0,1-1.21,1.59,5.57,5.57,0,0,1-1.82,1,6.73,6.73,0,0,1-2.23.36Z"/><path class="cls-3" fill="#ffffff"  d="M216.79,253.22l-.8,1.7a16.26,16.26,0,0,0-1.68-.46,8.3,8.3,0,0,0-1.6-.17,3.82,3.82,0,0,0-2.07.5,1.47,1.47,0,0,0-.77,1.26,1.22,1.22,0,0,0,.56,1,6.33,6.33,0,0,0,1.38.71c.55.21,1.14.42,1.79.63a8.81,8.81,0,0,1,1.79.81,4.59,4.59,0,0,1,1.38,1.25,3.18,3.18,0,0,1,.56,1.93,3.71,3.71,0,0,1-.36,1.66,3.52,3.52,0,0,1-1.08,1.27,5.18,5.18,0,0,1-1.77.82,9.57,9.57,0,0,1-2.48.28,11.65,11.65,0,0,1-1.64-.11,10.18,10.18,0,0,1-1.31-.3,7,7,0,0,1-1-.39l-.76-.38,1-1.81a8.69,8.69,0,0,0,1.84.7,7.11,7.11,0,0,0,1.83.27,6.19,6.19,0,0,0,1-.1,4.66,4.66,0,0,0,1.16-.33,3,3,0,0,0,1-.64,1.36,1.36,0,0,0,.4-1,1.42,1.42,0,0,0-.32-1,2.75,2.75,0,0,0-.84-.68,7.45,7.45,0,0,0-1.2-.54l-1.37-.49-1.37-.55a5.18,5.18,0,0,1-1.19-.7,3.29,3.29,0,0,1-.84-.95,2.47,2.47,0,0,1-.32-1.31,3.3,3.3,0,0,1,.31-1.39,3.37,3.37,0,0,1,.92-1.22,4.57,4.57,0,0,1,1.54-.86,6.27,6.27,0,0,1,2.13-.33,8.69,8.69,0,0,1,1.45.12,12.75,12.75,0,0,1,1.29.26c.38.09.71.18,1,.27l.52.19Z"/><polygon class="cls-3" fill="#ffffff"  points="234.73 252.46 234.73 254.45 230.96 254.45 230.96 266.3 228.72 266.3 228.72 254.45 225.03 254.45 225.03 252.46 234.73 252.46 234.73 252.46"/><path class="cls-3" fill="#ffffff"  d="M243.54,266.3V252.46h4.08a7.73,7.73,0,0,1,2.16.29,4.75,4.75,0,0,1,1.68.85,3.89,3.89,0,0,1,1.11,1.37,4.24,4.24,0,0,1,.39,1.86,4.92,4.92,0,0,1-.13,1.14,4.23,4.23,0,0,1-1.11,2.06,3.7,3.7,0,0,1-1.05.75c.55.81,1.15,1.69,1.79,2.67s1.3,1.92,2,2.85h-2.7l-.85-1.24-.89-1.29-.86-1.26-.8-1.15h-2.51v4.94Zm2.27-6.91h2a3.3,3.3,0,0,0,1.38-.26,2.35,2.35,0,0,0,.87-.64,2.24,2.24,0,0,0,.46-.82,2.72,2.72,0,0,0,.13-.8,2.6,2.6,0,0,0-.13-.79,2.11,2.11,0,0,0-.47-.8,2.49,2.49,0,0,0-.87-.62,3.19,3.19,0,0,0-1.35-.25h-2.06v5Z"/><path class="cls-3" fill="#ffffff"  d="M271.88,266.3l-.28-.61c-.13-.27-.27-.58-.43-.93s-.33-.73-.51-1.14-.38-.84-.57-1.29h-5.27l-1.77,4h-2.23l6.66-14.49.44,1c.21.48.47,1,.76,1.69l1,2.18c.36.8.74,1.6,1.11,2.42s.75,1.61,1.11,2.4.7,1.52,1,2.18.56,1.22.78,1.69l.44,1Zm-6.28-5.73h3.73l-.55-1.21c-.17-.39-.32-.74-.47-1.07l-.38-.85c-.11-.24-.19-.43-.25-.57l-.09-.27a2.62,2.62,0,0,1-.11-.42,2.83,2.83,0,0,1-.13.42c-.05.16-.09.24-.1.27l-1.65,3.7Z"/><path class="cls-3" fill="#ffffff"  d="M290.67,253.22l-.81,1.7a15.44,15.44,0,0,0-1.67-.46,8.3,8.3,0,0,0-1.6-.17,3.77,3.77,0,0,0-2.07.5,1.47,1.47,0,0,0-.77,1.26,1.21,1.21,0,0,0,.55,1,6.33,6.33,0,0,0,1.38.71q.82.31,1.8.63a8.81,8.81,0,0,1,1.79.81,4.59,4.59,0,0,1,1.38,1.25,3.17,3.17,0,0,1,.55,1.93,3.71,3.71,0,0,1-.36,1.66,3.49,3.49,0,0,1-1.07,1.27,5.18,5.18,0,0,1-1.77.82,9.62,9.62,0,0,1-2.48.28,11.55,11.55,0,0,1-1.64-.11,10,10,0,0,1-1.32-.3,8,8,0,0,1-1-.39l-.75-.38,1-1.81a8.81,8.81,0,0,0,1.83.7,7.24,7.24,0,0,0,1.84.27,6.19,6.19,0,0,0,1-.1,4.66,4.66,0,0,0,1.16-.33,3,3,0,0,0,1-.64,1.36,1.36,0,0,0,.4-1,1.47,1.47,0,0,0-.32-1,2.75,2.75,0,0,0-.84-.68,7.45,7.45,0,0,0-1.2-.54l-1.37-.49-1.37-.55a5.18,5.18,0,0,1-1.19-.7,3.48,3.48,0,0,1-.85-.95,2.57,2.57,0,0,1-.32-1.31,3.46,3.46,0,0,1,.31-1.39,3.52,3.52,0,0,1,.93-1.22,4.52,4.52,0,0,1,1.53-.86,6.29,6.29,0,0,1,2.14-.33,8.78,8.78,0,0,1,1.45.12,12,12,0,0,1,1.28.26c.39.09.71.18,1,.27l.53.19Z"/><path class="cls-3" fill="#ffffff"  d="M308.46,253.22l-.8,1.7a15,15,0,0,0-1.68-.46,8.3,8.3,0,0,0-1.6-.17,3.82,3.82,0,0,0-2.07.5,1.47,1.47,0,0,0-.77,1.26,1.22,1.22,0,0,0,.56,1,6.33,6.33,0,0,0,1.38.71c.55.21,1.15.42,1.79.63a8.57,8.57,0,0,1,1.79.81,4.59,4.59,0,0,1,1.38,1.25,3.18,3.18,0,0,1,.56,1.93,3.71,3.71,0,0,1-.36,1.66,3.59,3.59,0,0,1-1.07,1.27,5.37,5.37,0,0,1-1.77.82,9.71,9.71,0,0,1-2.49.28,11.4,11.4,0,0,1-1.63-.11,10,10,0,0,1-1.32-.3,7.46,7.46,0,0,1-1-.39c-.3-.14-.55-.27-.75-.38l1-1.81a8.6,8.6,0,0,0,1.83.7,7.11,7.11,0,0,0,1.83.27,6,6,0,0,0,1-.1,4.55,4.55,0,0,0,1.16-.33,2.94,2.94,0,0,0,1-.64,1.36,1.36,0,0,0,.4-1,1.42,1.42,0,0,0-.32-1,2.75,2.75,0,0,0-.84-.68,7.74,7.74,0,0,0-1.19-.54l-1.37-.49c-.47-.18-.93-.36-1.37-.55a5,5,0,0,1-1.2-.7,3.29,3.29,0,0,1-.84-.95,2.47,2.47,0,0,1-.32-1.31,3.3,3.3,0,0,1,.31-1.39,3.37,3.37,0,0,1,.92-1.22,4.67,4.67,0,0,1,1.54-.86,6.27,6.27,0,0,1,2.13-.33,8.69,8.69,0,0,1,1.45.12,12.21,12.21,0,0,1,1.29.26c.38.09.71.18,1,.27l.52.19Z"/><polygon class="cls-3" fill="#ffffff"  points="317.71 266.3 317.71 252.46 327.51 252.46 327.51 254.35 319.98 254.35 319.98 258.4 326.69 258.4 326.69 260.32 319.98 260.32 319.98 264.37 327.8 264.37 327.8 266.3 317.71 266.3 317.71 266.3"/></svg>