<svg id="sohotel-logo" class="logo"  xmlns="http://www.w3.org/2000/svg" viewBox="0 0 59.93 91.71"><path d="M6.51,34.08c0,.57.1,1.05.77,1.05s1.34-.38,2.1-.38a3.4,3.4,0,0,1,3.16,3.16c0,.09-.1.38-.1.48-.48-.77-1.34-1.72-2.3-1.72s-2.39,1.63-2.39,2.68c0,5.27,4.69,7.75,9.67,7.75a16.1,16.1,0,0,0,9.38-3.25c-7.56-3.16-14-7.56-14-16.18,0-5.07,2.78-8.71,6.7-11C20.1,8.9,24.12,1.72,34.75,1.72c4.4,0,9,4.6,14.65,4.69,1.63,0,4.88-.86,4.88-3.26a1.58,1.58,0,0,0-1.73-1.63,3.43,3.43,0,0,0-1.05.19C52.08.48,52.75,0,53.8,0c1.63,0,2.87,1,2.87,3.25,0,3.26-4.21,4.12-7.18,4.12a24.67,24.67,0,0,1-8.91-1.91,3.92,3.92,0,0,1,.1,1.05c0,1.91-1.05,3.45-4,3.73a4.43,4.43,0,0,0,.86-2.68c0-2.39-3.25-3.83-6.22-3.83-3.92,0-9.57,3.93-10.62,12.26A28.11,28.11,0,0,1,32.83,13.3c5.84,0,11.1,2.11,16.28,4.69,1.62-.19,1.15-4,2.68-4,.48,0,.86.1,1,.86.28,3.73,2.78,14,2.78,14.07,0,.28-.2.77-.38.77-.67,0-.86-.1-.86-.19-3-8.23-12.64-13.4-21.16-13.4a21.76,21.76,0,0,0-12.64,4c.57,6.13,5.27,11,8.9,13.79,0,0,0,.29-.1.29-2.39,0-8.52-7-9.67-13.21a8.83,8.83,0,0,0-2.87,6.61c0,6,6.22,8.81,14.26,12a19.2,19.2,0,0,0,3-6.13c-2.2-1.72-3.73-3.45-3.73-5a2.75,2.75,0,0,1,2.68-3c2.3,0,3.06,2.2,3.06,3.45A14.73,14.73,0,0,1,35.42,33a38.29,38.29,0,0,0,7.47,4.21,8.42,8.42,0,0,1,5.46-2.49c.77,0,2.68.86,2.68,2.39s-1.34,2.49-3.26,2.49a13.91,13.91,0,0,1-4.5-1.15A23.54,23.54,0,0,0,40,42.6c10.15,3.35,19.91,7,19.91,19.34,0,6.7-3.73,11.11-9,13.5-1,7.85-5.84,16.18-16.66,16.18-7.75,0-13-7.56-21.16-7.56-2.49,0-6.7.57-6.7,3.83,0,1,.29,2.2,1.53,2.2a11.09,11.09,0,0,0,1.72-.48,1.05,1.05,0,0,1,.48-.09c.38,0,.48.19.48.38a1.91,1.91,0,0,1-.1.48C9.76,91.52,8,91.71,7,91.71a3.92,3.92,0,0,1-4.12-3.83c0-2,1.92-4,3.83-4.59A10.69,10.69,0,0,0,4,81.37a4.44,4.44,0,0,1,3.35-1.15c4.5,0,11.49,3.25,14.26,4.59A18.92,18.92,0,0,1,20,76.3a7.63,7.63,0,0,1,.77-3.07,8.22,8.22,0,0,0-3.35-1.15c-1.15,0-1.34,3.06-2.11,4.4-.09.09-.28.29-.47.29a2.78,2.78,0,0,1-.87-.2c-1-.48-1.82-6.61-3.83-18.38.29-.48.48-.76.67-.76s.19.1.29.29A33.67,33.67,0,0,0,23.45,70a11.37,11.37,0,0,1,7.46-3c4.88,0,8.52,2.87,9.58,6.7a20.4,20.4,0,0,0,9.38-3.26c-1.73-9.38-10.34-16-10.34-16.66,0,0-.29-.29-.29-.48s.19-.29.67-.29c.77,0,9.1,8.71,10.82,16.75a10.53,10.53,0,0,0,3.83-8.14c0-7.56-5.26-9.67-10.62-11.87-2-.77-4.12-1.53-6.51-2.3A20.33,20.33,0,0,0,35.51,55c0,2.29,0,6.6,3.25,6.6A4.91,4.91,0,0,0,40.68,61a.94.94,0,0,1,.86,1c0,1.25-.86,1.53-1.82,1.53-4,0-5.36-4.6-5.36-8.52a21.67,21.67,0,0,1,1.91-7.85c-2.68-.86-5.46-1.72-8-2.68a17.28,17.28,0,0,1-10.63,3.93A12.88,12.88,0,0,1,5,38.68c-.19-.48-1.05-5-1.25-5.55-.57-2.59-1.62-2.78-3.54-4A.7.7,0,0,1,0,28.72c2.29,0,6.51,1.82,6.51,4.4ZM22.69,54.76a3.07,3.07,0,0,1-2.3-1.05c0-.1,0-.57.19-.57,4.6,0,6.32-3.73,9.29-3.73.86,0,.86.48.86,1.24,0,1.15-.1,2.3-.1,3.54a13.12,13.12,0,0,0,.86,4.88,1.9,1.9,0,0,1,.38.77c0,.19-.38.29-.86.29-2.58,0-2.68-7.08-2.68-7.56A10.47,10.47,0,0,1,22.69,54.76ZM38.48,77.83a47.26,47.26,0,0,1-11.29-1.72,26.47,26.47,0,0,1-5.36-2.39,8.29,8.29,0,0,0-.38,2.68c0,6,3.35,14.17,12.92,14.17,8.33,0,14.74-6.7,15.7-14.74a32.73,32.73,0,0,1-9.38,1.92A7.8,7.8,0,0,1,33,83.86c-2.49,0-4.59-1.34-4.59-3.26,0-.57.1-2,1.15-2A4,4,0,0,0,33,81.66c1.25,0,5.17-.19,6.13-3.83Zm.48-4a8,8,0,0,0-7.85-5.74,11.25,11.25,0,0,0-6.9,2.3,28.57,28.57,0,0,0,13.5,3.45Zm-4.31-44.9c0-1.15-.77-2.11-1.53-2.11s-1.34.48-1.34,1.63,1,2.39,2.49,3.73A17.67,17.67,0,0,0,34.65,28.91Zm4.12,13.4A22.22,22.22,0,0,1,42.12,38a49.43,49.43,0,0,1-7-3.83,23,23,0,0,1-2.87,5.74C34.37,40.78,36.57,41.55,38.77,42.31Zm1-36c0-1.05-.48-2.49-1.44-2.49a2.71,2.71,0,0,0-1.05.67,3.69,3.69,0,0,1,1.24,2.87,7.59,7.59,0,0,1-.19,1.34C39.05,8.71,39.73,7.27,39.73,6.32Zm8,32.26c1.25,0,2.3-.58,2.3-1.44a1.36,1.36,0,0,0-1.44-1.24,7.32,7.32,0,0,0-4.5,1.82A10.85,10.85,0,0,0,47.77,38.58Z" fill="#fbcb36"/></svg>