<svg id="lochardil-logo" class="logo" xmlns="http://www.w3.org/2000/svg" viewBox="0 0 410.58 421.98"><path d="M406.58,176.44l4,.15-16.45-4.7V110.24h.14V102.6H392.9V91.84h-1.22v-.15h-.1V83.94h-1.37v-8h-1.36V68h-1.22V60.11h-1.35v-7h-1.51V46H383.7V39.31h-1.36V31.6h-.91V24.43h-7.16l-1.35.39-.46,11.78h-44V33.76h2.12V28.68h-1.75l-1-3.15V22.3h-5.16V18.75l-.24-.13a4.45,4.45,0,0,0-.71-.3h0V16.86h.45v-.93h-4.59v.93H318v1.48a8.36,8.36,0,0,0-.81.25l-.3.12V22.3H303.12v2.94l-.93,3.44h-1.61v5.69h2.12V36.6H220.34V24.86l1.52-.91V14.71H220.4V8.29h-3.82V5.45l-.23-.14a9.34,9.34,0,0,0-8.22,0l-.28.12V8.15H205v6.76h-2.33V25l2.07.66-.08,11.49H178.82V33.84h-2.65V30.28l-.19-.14a5.46,5.46,0,0,0-6.81,0l-.16.14v3.54H166.2v3.34H134.92V28.07h-6.07v-8.7h-5.67v-7.9h-7.41V20H110.3v8.3h-5.66V37.6H45.29L44,26.52l-2.7-.66H34v6.27H32.37V39.6H30.58v7.9H28.73v7.28h-2v6.89H24.88v7.49H23.06v8.5H21.44V85H19.82V93H18v7.7H16V112.4h0v60.5L0,178.26l6.1.31.19,49.17H5.76l.35,29.93,111.17-.61H284.12V257l122.61,1.49.09-30h0ZM168.8,250l8.89-.14h64l-.11-.22,11.15.36.18,4.27h-84Zm12.78-1.24V245.6h12l17.81-.1h18.3l9.68.1.05,3.23ZM7,178.6l398.65-2,.05,12-183.77.46H192.58v.1L7,189.6Zm329.37-25.72h.45l-1.23-6.07-.95,5.56h-2.71v-.77h.91v-.46h-.91v-.91h-.46v.91h-.88v.46h.91v.74h-2.33v-.74h.9v-.46h-.9v-.91h-.47v.91h-.9v.46h.9v.74h-2.33v-.74h.91v-.46h-.91v-.91h-.46v.91H325v.46h.91v.74h-2.32v-.74h.9v-.46h-.9v-.91h-.47v.91h-.91v.46h.91v.74h-2.33v-.74h.91v-.46h-.91v-.91h-.47v.91h-.9v.46h.9v.74H318v-.74h.91v-.46H318v-.91h-.46v.91h-.94v.46h.91v.75h-2.33v-.75h.9v-.46h-.9v-.91h-.47v.91h-.9v.46h.9v.75h-2.33v-.75h.91v-.46h-.91v-.91h-.46v.91H311v.46h.91v.75h-2.32v-.75h.9v-.46h-.9v-.91h-.47v.91h-.91v.46h.91v.75h-2.33v-.75h.91v-.46h-.91v-.91h-.47v.91h-.9v.46h.9v.75H304v-.75h.91v-.46H304v-.91h-.46v.91h-.94v.46h.91v.75h-2.33v-.75h.9v-.46h-.9v-.91h-.47v.91h-.9v.46h.9v.76h-2.33v-.76h.91v-.46h-.91v-.91h-.46v.91H297v.46h.91v.76h-2.32v-.76h.9v-.46h-.9v-.91h-.47v.91h-.91v.46h.91v.76h-2.33v-.76h.91v-.46h-.91v-.91h-.47v.91h-.9v.46h.9v.76H290v-.76h.91v-.46H290v-.91h-.46v.91h-.94v.46h.91v.76h-2.31v-.76h.9v-.46h-.9v-.91h-.47v.91h-.9v.46h.9v.76h-2.33v-.76h.91v-.46h-.91v-.91h-.46v.91H283v.46h.91v.77h-2.34v-.77h.9v-.46h-.9v-.91h-.47v.91h-.91v.46h.91v.77h-2.33v-.77h.91v-.46h-.91v-.91h-.47v.91h-.9v.46h.9v.77H276v-.77h.91v-.46H276v-.91h-.4v.91h-1v.46h1v.77h-2.33v-.77h.9v-.46h-.9v-.91h-.47v.91h-.9v.46h.9v.77h-2.33v-.77h.91v-.46h-.91v-.91H270v.91h-.91v.46H270v.77h-2.41v-.77h.9v-.46h-.9v-.91h-.47v.91h-.91v.46h.91v.78h-2.33v-.78h.91v-.46h-.91v-.91h-.47v.91h-.9v.46h.9v.78H262v-.78h.91v-.46H262v-.91h-.4v.91h-.91v.46h.91v.78h-2.33v-.78h.9v-.46h-.9v-.91h-.47v.91h-.9v.46h.9v.78h-2.33v-.78h.91v-.46h-.91v-.91H256v.91h-.91v.46H256v.78h-2.33v-.78h.9v-.46h-.9v-.91h-.47v.91h-.91v.46h.91v.79h-2.33v-.79h.91v-.46h-.91v-.91h-.47v.91h-.9v.46h.9v.79h-2.33v-.79H249v-.46h-.91v-.91h-.48v.91h-.91v.46h.91v.79h-2.33v-.79h.9v-.46h-.9v-.91h-.47v.91h-.9v.46h.9v.79h-2.33v-.79h.91v-.46h-.91v-.91H242v.91h-.91v.46H242v.79h-2.33v-.79h.9v-.46h-.9v-.91h-.47v.91h-.91v.46h.91v.79h-2.33v-.79h.91v-.46h-.91v-.91h-.47v.91h-.9v.46h.9v.8h-2.33v-.8H235v-.46h-.91v-.91h-.48v.91h-.91v.46h.91v.8h-2.33v-.8h.9v-.46h-.9v-.91h-.47v.91h-.9v.46h.9v.8h-2.33v-.8h.91v-.46h-.91v-.91H228v.91h-.91v.46H228v.8h-2.33v-.8h.9v-.46h-.9v-.91h-.47v.91h-.91v.46h.91v.8h-2.33v-.8h.9v-.46h-.9v-.91h-.47v.91h-.9v.46h.9v.8h-2.33v-.8H221v-.46h-.91v-.91h-.48v.91h-.91v.46h.91v.81h-2.3v-.81h.9v-.46h-.9v-.91h-.47v.91h-.9v.46h.9v.81h-2.33v-.81h.91v-.46h-.91v-.91H214v.91h-.91v.46H214v.81h-2.33v-.81h.9v-.46h-.9v-.91h-.47v.91h-.91v.46h.91v.81h-2.33v-.81h.9v-.46h-.9v-.91h-.47v.91h-.9v.46h.9v.81h-2.33v-.81H207v-.46h-.91v-.91h-.46v.91h-.91v.46h.91v.81H203.3v-.81h.9v-.46h-.9v-.91h-.47v.91h-.9v.46h.9v.82H200.5v-.82h.91v-.46h-.91v-.91H200v.91h-.91v.46H200v.82h-2.33v-.82h.9v-.46h-.9v-.91h-.47v.91h-.91v.46h.91v.82h-2.33v-.82h.9v-.46h-.9v-.91h-.47v.91h-.86v.46h.9v.82h-2.33v-.82h.91v-.46h-.91v-.91h-.46v.91h-.91v.46h.91v.82h-2.33v-.82h.9v-.46h-.9v-.91h-.47v.91H188v.46h.9v.83h-2.33v-.83h.91v-.46h-.91v-.91h-.47v.91h-.9v.46h.9v.83h-2.33v-.83h.91v-.46h-.91v-.91h-.46v.91h-.91v.46h.91v.83H181v-.83h.9v-.46H181v-.91h-.47v.91h-.92v.46h.9v.83h-2.33v-.83h.91v-.46h-.91v-.91h-.46v.91h-.91v.46h.91v.83h-2.33v-.83h.9v-.46h-.9v-.91h-.47v.91H174v.46h.9v.83h-2.31v-.83h.91v-.46h-.91v-.91h-.47v.91h-.9v.46h.9v.84h-2.33v-.84h.91v-.46h-.91v-.91h-.46v.91h-.91v.46h.91v.84H167v-.84h.9v-.46H167v-.91h-.47v.91h-.94v.46h.9v.84h-2.33v-.84h.91v-.46h-.91v-.91h-.46v.91h-.91v.46h.91v.84h-2.33v-.84h.9v-.46h-.9v-.91h-.47v.91H160v.46h.9v.84h-2.31v-.84h.91v-.46h-.91v-.91h-.47v.91h-.9v.46h.9v.84h-2.33v-.84h.91v-.46h-.91v-.91h-.46v.91h-.91v.46h.91v.85H153v-.85h.9v-.46H153v-.91h-.47v.91h-.94v.46h.9v.85h-2.33v-.85h.91v-.46h-.91v-.91h-.46v.91h-.91v.46h.91v.85h-2.31v-.85h.9v-.46h-.9v-.91h-.47v.91H146v.46h.91v.85h-2.33v-.85h.91v-.46h-.91v-.91h-.47v.91h-.9v.46h.9v.85h-2.33v-.85h.91v-.46h-.91v-.91h-.46v.91h-.91v.46h.91v.85H139v-.85h.9v-.46H139v-.91h-.47v.91h-.94v.46h.9v.86h-2.33v-.86h.91v-.46h-.91v-.91h-.46v.91h-.91v.46h.91v.86h-2.33v-.86h.9v-.46h-.9v-.91h-.47v.91H132v.46h.91v.86h-2.31v-.86h.91v-.46h-.91v-.91h-.47v.91h-.9v.46h.9v.86h-2.33v-.86h.91v-.46h-.91v-.91h-.46v.91h-.91v.46h.91v.86H125v-.86h.9v-.46H125v-.91h-.41v.91h-.9v.46h.9v.86h-2.33v-.86h.91v-.46h-.91v-.91h-.46v.91h-.91v.46h.91v.87h-2.33v-.87h.9v-.46h-.9v-.91H119v.91h-.91v.46H119v.87h-2.41v-.87h1v-.46h-1v-.91h-.47v.91h-.9v.46h.9v.87h-2.33v-.87h.91v-.46h-.91v-.91h-.46v.91h-.91v.46h.91v.87H111v-.87h.9v-.46H111v-.91h-.41v.91h-.9v.46h.9v.87h-2.33v-.87h.91v-.46h-.91v-.91h-.46v.91h-.91v.46h.91v.88h-2.33v-.88h.9v-.46h-.9v-.91H105v.91h-.91v.46H105v.88h-2.33v-.88h.92v-.46h-.91v-.91h-.47v.91h-.9v.46h.9v.88H99.87v-.88h.91v-.46h-.91v-.91h-.46v.91H98.5v.46h.91v.88H97.08v-.88H98v-.46h-.9v-.91h-.5v.91h-.9v.46h.9v.88H94.25v-.88h.91v-.46h-.91v-.91h-.46v.91h-.91v.46h.91v.88H91.46v-.88h.9v-.46h-.9v-.91H91v.91h-.91v.46H91v.89H88.66v-.89h.92v-.46h-.91v-.91H88.2v.91h-.9v.46h.9v.89H85.86v-.89h.91v-.46h-.91v-.91H85.4v.91h-.91v.46h.91v.89H83.07v-.89H84v-.46h-.9v-.91h-.49v.91h-.9v.46h.9v.89H80.27v-.89h.91v-.46h-.91v-.91h-.46v.91H78.9v.46h.91v.89H76.25l-1.23-6-1,6H72.63v1.43l-46.9,15.7v-7.2h7.85v-9h-7.9v-6.21h8.2V139.6h-8.3v-6.2h8.2v-8.07H26.1V119h7.66v-2h38.1v-4.65h9.57v-9.94H73.84V95.58h5.74V92.31h5.61V83.05h6.08V74.4h7.59V64.84H104V55.6h4.56V47.1h8.36V38.42h5.89v8.35h6.53V56h6.08v9.11h6.37V74.6h5.62V82h6.83V92h6.38v4.1h5.94v.09h2.08v6h-6.81v7.61h6.67v6.81h-6.67v9.59h6.67V133h-6.38v8.82h6.1v5.8l30.16-.16v-5.64h7.38v-9.58h-7.1v-6.81h6.53v-9.44h-6.1V114h23.47v4.59h-4.86v7.61h4.71v5.39h-4.85v8.52h5.76l-.15,7.44H254l.15-7H258v-8.67h-4v-5.45h3.79v-8.22H253V114.6h56.6v1.8h-6.67V126h6.67v6.66H303.2v8.82h6.1v4.87l30.16-.16V141.5h7.38v-9.58h-7.09v-6.81h6.52v-9.44h-6.1V115h35v6.32h7v7h-7.3v6.09h2.7v4.2h4.25v1.8h-4.55v10.35H384v7h-6.68v8.93l-41-12.75ZM66.7,93.93v-.06l6.07-.11L119.37,25l46,70.21h-3.79v-4.1H155.2v-10h-6.82V73.6h-5.62V64.21h-6.37V55.1h-6.07V45.84h-6.53V37.49H116v8.65h-8.35V54.6h-4.55v9.3H98v9.57H90.37v8.65H84.29v9.26H78.68v3.34H72.91v8.68H80.5v8.07H68.73V96Zm152.43-1.12V89.94h2.63V86.29h2.82l13.11-23.44,14.52,23,2,3h2.62v3.73H254.6v17h-3.82V99.16H225.93v10.09h-4.78V92.81Zm90.45-.21h-3V89.77h4.27l13.5-25.87,15.5,25.83h4.45v3.12h-2.24v7.49H339V95.05L310.66,95v7h-1Zm2,10.32L311.51,96,338,95.94v5.31h6.67v7.57h-5.53v7.78h6.1v7.57h-6.53v8.67h7.1v7.76h-7.38v4.71l-28.3.15V140.6h-6.1v-7h6.38v-8.52h-6.67v-7.72h6.67v-8.21h-6.57l-.08-6.22h7.79Zm-7.71,7.4h5.64v3.38h-58.7v-3.1l53.09-.2ZM257,132.83v6.81h-3.75l-.15,7h-29l.15-7.44H218.5v-6.6h4.86v-7.31h-4.71v-5.75h4.93V114H226v30.75h24.88V114.6h1.24v4.56H257v6.35h-3.79v7.31Zm-28.85-30.56v38.84l-1.32,1.75v-42Zm20,38.82v-38.8l1.67-1.58V143Zm-19.1-4.18h18.2v3.89H229.11Zm18.17-.93H229.11V102.6h18.17Zm-18.4,5.75h18.73l1.79,2.07h-22Zm18.73-40.13H228.85l-1.4-1.54h21.72ZM226,110.15V113H199.1v-2.87Zm-21.09,22.91v7.72h-7.38v5.64l-28.3.15v-5.79h-6.1v-7h6.38v-8.52h-6.68V117.6h6.66v-8.68h-6.66v-5.75h6.8v-7H197v5.31h3.56v7.57h-2.42v7.77h6.1v7.57h-6.53v8.67ZM198,100.6V96.2h1.52v-.72h1.09v5.12Zm180.27,58.08h6.68v-8.83h-6.68v-8.48h4.51v-3.68h-4.17v-4.25h-2.73v-4.23h7.29v-8.83h-7V115h17.15v56.62l-15-4.66ZM97.46,191.18v37.16l-34-.22V191.27Zm2.79,0,33.64-.09V228.6l-33.64-.22Zm36.44-.1,34-.08v37.82l-34-.22ZM192.58,229l-19.08-.12V191h19.1Zm1.6-38,17.16-.05v52.9H194.19Zm18.78-.05h17.16v38.22l-.39,14.74H213Zm18.74,0,34-.08V228.6h-34Zm71.29-.18v37.89h2.79V190.73l33.7-.09v38l-71,.07v-38Zm75.82-.19v38h-18.6v-38ZM359.28,228.6h-17v-38h17Zm20.47,0v-38h15.56v37.9ZM60.63,191.28V228.1l-33.93-.22V191.36Zm335.62,37.21V190.43h9.44l.15,38.07h-9.59Zm-3-114.48H340.13v-3.63H393v-.17h.31Zm-8.13-10h1.26l-.27,5.16h-.2Zm8.27,0v5.29l-6.35-.12.27-5.17Zm-1.37-.93h-6.34V92.6h5v.15H392Zm-1.36-18.19V91.7h-5.9V84.42h4.53v.46ZM377.91,47.22v7H379v7h.91V69h1.36v8h1.22V84.4h1.36v8.2h.91v8.87l-9.37-61.4h1.33V47.2ZM389.3,77.08v6.41h-5.9V77Zm-1.37-8.15v7.19l-4.53-.06h-1.22V68.93ZM386.72,61v7h-5.9V61.19h5V61Zm-1.37-.78h-5.44v-6h5v-.15h.44Zm-1.52-13.34v6.36h-5V47.22h4.39v-.3Zm-1.06-6.68v6h-5.14V40h3.77v.15Zm-1.37-1.08h-5.14V31.89h4.23v.61h.91Zm-6.2-13.8h5.29V31H375.2Zm-1.38.22.45-.1v6.41h1.06v8l-.5-3.27h-1.44Zm-54.89-8.72h1.9v1.26a6.72,6.72,0,0,0-1.9,0Zm-1.12,2.5a6,6,0,0,1,3.93,0v3h-3.93ZM304,25.42V23.24h22.85V25.6l.94,3.08H303.15Zm-2.51,8V29.6h28.11v3.22h-1.19V31.31H302.71v2.13Zm2.12-1.2h23.87V36.6H303.64ZM374,37.49l11,71.94H345.8l-.14-8.66v-.45H343V93.76h2.21v-5h-4.86L324.31,62l-14,26.84h-4.64V93.6l3.06,0-.05,8.42h-5.8V108h-47v.23h47v1.2l-47.3.14v-16h2.22V88h-3l-1.73-2.61L237.67,61,224.06,85.36h-3.23V89H218.2v4.74h2v15.51H201.84V100.6h-.32V95.49h1.56V95h.5V90.6H202V72.2h-8v8.71h-6V72.6H176.5v8.3H171V72.6H159V63.9h-5.87V55h-5.67V46.29h-6.68v-7h63.84l-.1,12.8h15.81V37.51ZM215.67,6V8.13h-6.86V6A8.49,8.49,0,0,1,215.67,6Zm-7.33,3.07h7.33v.15h3.79v5.87H205.92v-6Zm-4.76,15.28V16h17.34v7.39l-1.52.91V51.15H205.47l.2-26.14Zm-33.65,6.39a4.4,4.4,0,0,1,5.29,0v3.09h-5.29Zm-2.81,4h10.76v2.4H167.13Zm37.51,3.34V39H140.79v-.93Zm-104.54.4h5.49V29.21h5.67v-8.3h5.46v-8.5h5.55V20.3h5.67V29H134v9.11h5.87v9.1h6.71v8.71h5.67v8.91h5.87v8.7h11.94v8.3h7.41v-8.3h9.59v8.3h7.82V73.13H201V91.6h1.55v2l-36,.2-47.2-71.2-47,70-5.65.22V91.76h2.43V82h6.07V74.35h6.25V64.84H88V55.73h5.46V46.82h6.68Zm-.93.53h-58v.23h58v6.61H92.49v8.9H87V63.9H80.58v9.52H74.27v7.69H68.2v9.72H65.77v3.49l2,2v15.13H27.89L41.18,38.52h58ZM26.29,101.5V93.81h1.82v-8.1h1.62V78.42h1.62v-8.5h1.82V62.43H35V55.6h2V48.26h1.44L27,111.47H24.26v-10ZM38.84,46.15V40.37h1Zm4.35-18.89L44.35,37.6h-3l.85-4.71h.12l-.47-6Zm-2.53,8.89V32.88h.6Zm.63-9.37V32H39.73V32H34.92V26.78Zm-8,6.27h1.62V33h4.81v6.49H37.91v.16H33.3Zm0,7.49H37.9v6.8H36.09v.19H31.48v-7Zm-2.71,7.9h5.51V54.6h-2v.12h-4.4v-6.3Zm-2.2,7.29h1.28v-.06h4.4V61.5H32.24v.1H27.63V55.73Zm-.75,6.87h4.61V69H30.42v.16H25.81V62.6Zm-1.82,7.5h4.61v7.41H28.8v.09H24V70.1ZM24,78.6H28.8v6.23H27.18V85H22.37V78.6Zm-1.62,7.29v0h4.81v7H20.75v-7ZM20.75,94v-.12h4.61v6.74h-2v.1H19V94Zm-3.84,7.7h2v-.08h4.4v9.87h-6.4Zm51.35,10.73h2.67v3.72H17.86v-3.72Zm-50.39,4.65h15v1h-7.7v8.22h7.66v6.21h-8.2v8.11H33v5.75h-8.2v8.07h7.89v7.11H24.78V170L18,172.24ZM5,177.6l67.7-22.69,263.11-.19,67.29,20.95-396.51,2ZM7,191.42H23.91v36.49L7.18,227.8Zm.28,38.24,64.23.1,121,.78V244H179.84l.11,4.19-12.67.2v5.85h-54.7v1.5L7.58,256Zm397.8,27.25-121-1v-1.66H254.58l-.17-5.73-13.52-.22v-4.36l-9.16-.1v-13.6l173.55-.17ZM195.58,228.1h14.33V192.36H195.58Zm1.58-34.16h11.17v32.58H197.17Zm17.54-1.47v35.74H229V192.47Zm12.76,34.13H216.29V194.05h11.17ZM106.65,144.36H133.2V99.84H106.65Zm3.17-7.55h20.32v4.52H109.82Zm20.32-.84H109.82V103.09h20.32Zm-20.56,6.29h20.88l1.18,1.17H108.29Zm21.53-.66V102.81l1.2-1.31v41.28Zm-.67-39.44H109.58l-1.34-1.39h23.44Zm-21.51.66V141.6l-1.35,1.22V101.46Zm62,41.13h25.4V99.84h-25.4Zm2.58-2H193.9l.92,1H172.43Zm20.16-.94h-19.9v-4.54h20v4.46Zm.09-5.47h-20V102.82h20Zm.93,5.89v-39l.71-.88v40.63ZM194,101.84H173.44l-1-1.11h22.42Zm-21.16.65v38.8l-1,1V101.48Zm164.32-3.25H312.78v44.81h24.31Zm-2.9,2.36H315.58l-1.28-1.42h21.28ZM334,135.32H315.83V102.6H334Zm-18.16.93H334v4.52H315.83Zm-.93-34v38.81l-1.19,1.31V101Zm.67,39.45h18.69l1.3,1.42H314.29Zm19.36-.65v-38.8l1.23-1.34V142.4Zm-97-76.68L221.38,92.66H255Zm0,1.8,15.46,25.52H223.06Zm86.59-.41L309.94,93.11h30.78Zm.06,1.92,14.49,24.46h-27.6ZM135.93,125.26h7v-9.43H136.4v-5.9h5.92v-9.44h-7.14V96.11h2.66v-.93h-2.11a6.67,6.67,0,0,0-1.93-4.93,7.1,7.1,0,0,0-4.54-1.75V84.75h-3.52c0-1.18-.13-4.16-1.85-6a4.66,4.66,0,0,0-1.51-1l-.12-5-.59.19a1.4,1.4,0,0,0-.4.11V70.65a2.94,2.94,0,0,0,.84-.88l.19-.31L122,69.2A3.08,3.08,0,0,0,117.7,69s-.11.1-.16.16l-.33.33.33.33a4.76,4.76,0,0,0,.77.64V73L118,73l-.64-.26v5.14h.3a4.67,4.67,0,0,0-1.4,1.06c-1.59,1.84-1.63,4.69-1.57,5.86H111v4.11a6.53,6.53,0,0,0-4.76,2,6.71,6.71,0,0,0-1.58,4.37h-3v.93h2.27v6H96.58v7.61h7.14v6.88H96.58v9.58h7.14v6.66H96.88v8.83h6.53v5.79l32.21-.16v-5.63h7.89v-9.59h-7.59ZM121.07,69.6a1.63,1.63,0,0,1-1,.54,2,2,0,0,1-1.49-.54A2.09,2.09,0,0,1,121.07,69.6ZM119.23,71a2.78,2.78,0,0,0,.7.12h.39V73.2a6.61,6.61,0,0,1-1.09,0Zm-.91,3a6.9,6.9,0,0,0,3,0l.08,3.43a6.23,6.23,0,0,0-1.36-.15,5.75,5.75,0,0,0-1.75.31ZM106.89,91.44a5.84,5.84,0,0,1,4.54-1.66h.46V85.69h3.86l-.06-.53s-.43-3.65,1.31-5.65a4,4,0,0,1,3.09-1.31,3.91,3.91,0,0,1,3.11,1.19c1.86,2,1.58,5.75,1.58,5.79v.51h3.58v3.77h.5a6.45,6.45,0,0,1,4.33,1.5,5.8,5.8,0,0,1,1.63,4.25H105.58A5.81,5.81,0,0,1,106.89,91.44ZM142.58,133v7.72h-7.89v5.65l-30.35.14v-5.79H97.82v-7h6.83V125.2H97.51v-7.72h7.14V108.8H97.51v-5.75h7.29v-7h29.43v5.31h7.14v7.57h-5.92v7.77H142v7.57h-7v8.67Zm68.61,89.36a.61.61,0,1,1-.62-.6h0a.61.61,0,0,1,.62.6h0Zm3.35,0a.61.61,0,1,1-.62-.6h0a.61.61,0,0,1,.65.57v0ZM241.78,78.52a3.26,3.26,0,0,1-3.91,0l-.29-.22-.29.24c-1.63,1.29-3.72,0-3.8,0l-.72-.44v7.69A5.52,5.52,0,0,0,237.66,89c3.48,0,4.77-3.46,4.78-3.49V78Zm-.2,6.67A4.36,4.36,0,0,1,237.7,88a4.56,4.56,0,0,1-4-2.52V79.65a4.16,4.16,0,0,0,3.88-.18,4.18,4.18,0,0,0,4,.23Zm87.2-6a3.26,3.26,0,0,1-3.91,0l-.29-.23-.29.23c-1.63,1.29-3.72,0-3.81,0l-.71-.44v7.7a5.52,5.52,0,0,0,4.93,3.15c3.48,0,4.77-3.47,4.78-3.5V78.68Zm-.2,6.67a4.36,4.36,0,0,1-3.88,2.81,4.56,4.56,0,0,1-4-2.52V80.33a4.19,4.19,0,0,0,3.88-.17,4.21,4.21,0,0,0,4,.23Zm-312.29,264V291.14q0-3.67-1.8-4.86c-1.19-.79-3.43-1.18-6.7-1.18v-2.36H32.05v2.36q-4.9,0-6.7,1.18t-1.77,4.86V353.6l29.74.94,2.83-11.05h3.78v14.83H6.66V356c3.59,0,6.09-.4,7.5-1.18s2.13-2.46,2.13-4.91Zm89.17,1.32a25,25,0,0,0,6.42-17q0-14.16-9.49-20.11a26.1,26.1,0,0,0-14.25-3.77,22.12,22.12,0,0,0-17.33,7.83,25,25,0,0,0-6.42,17q0,14.16,9.49,20.11A25.94,25.94,0,0,0,88.14,359a22.09,22.09,0,0,0,17.32-7.82Zm-5.38-2.46q-3.87,7.45-11.47,7.46-7,0-11.28-6.8a25.42,25.42,0,0,1-3.92-12.22c-.07-1.07-.1-2.11-.1-3.12a29.06,29.06,0,0,1,2.88-13.44q3.87-7.46,11.47-7.46,7,0,11.29,6.8a25.52,25.52,0,0,1,3.91,12.22c.07,1.07.1,2.11.1,3.12a29.1,29.1,0,0,1-2.88,13.45Zm30.82-31.3Q126,323,126,334.61v2.5q.38,9.67,5.76,15.06a12.62,12.62,0,0,0,9.77,4,18,18,0,0,0,12.46-5l1.89,1.88q-5.89,6-15.11,5.95a27,27,0,0,1-14.68-3.82q-9.1-5.81-9.11-19.12A27.36,27.36,0,0,1,122.58,319q6.55-8.69,18.26-8.68a20.75,20.75,0,0,1,9,2A15.66,15.66,0,0,1,156,317a4.12,4.12,0,0,1,.85,2.55,4,4,0,0,1-1.26,3,4.26,4.26,0,0,1-6,0,4,4,0,0,1-1.25-3A5.56,5.56,0,0,0,146,315a9.39,9.39,0,0,0-5.9-1.84,11.67,11.67,0,0,0-9.16,4.32Zm75.68,37.45q1.08,1.32,5,1.32v2.08l-6.23.38c-3,0-5.12-.75-6.28-2.25s-1.75-4.73-1.75-9.7V330.18q0-7.6-2.1-12t-8.8-4.42a11.08,11.08,0,0,0-8.88,4,23.52,23.52,0,0,0-4.81,9.91v22.19c0,2.54.39,4.19,1.18,4.93s2.75,1.11,5.9,1.11v2.36h-20.3V355.9q4.25,0,5.43-1.11c.79-.74,1.18-2.39,1.18-4.93V291.14q0-3.83-1.18-4.93t-5.43-1.11v-2.36l13.22-.95v39.33a20.76,20.76,0,0,1,6.4-7.7,17,17,0,0,1,10.5-3.11,14,14,0,0,1,11,4.62q4.15,4.63,4.16,14.31V346.7a25.5,25.5,0,0,0,.37,5.38A7.21,7.21,0,0,0,206.58,354.87Zm35.31-4c0,3.3.88,5.43,2.64,6.37a9.58,9.58,0,0,0,4.2,1h6.52v-2.08a6.58,6.58,0,0,1-4.68-1.51c-1.07-1-1.61-3.57-1.6-7.69V328.15q0-7-2.5-11.38-3.45-6.22-13.27-6.46-9.82,0-14.4,7.41a5.84,5.84,0,0,0-.85,2.78,4.53,4.53,0,0,0,1,3,3.37,3.37,0,0,0,2.76,1.23,4.2,4.2,0,0,0,4.25-4.15v-.1a9.1,9.1,0,0,1,1.46-5.24c1-1.41,2.61-2.12,4.91-2.12,3.09,0,5.45.95,7.06,2.85s2.43,4.95,2.43,9.14v4.39Q240,331.39,228,334.79t-12,12.93Q216.32,359,228,359a14.47,14.47,0,0,0,8.36-2.33,18.39,18.39,0,0,0,5.5-5.81Zm-11.24,3.63a6.88,6.88,0,0,1-5-1.7q-1.74-1.69-2-6,0-6.85,8.35-9.3t9.92-3.64v14a33.2,33.2,0,0,1-5.83,5.15,9.85,9.85,0,0,1-5.44,1.48Zm36.4-4.62V320.41c0-2.55-.4-4.19-1.18-4.93s-2.6-1.11-5.43-1.11V312l13.22-1v13.83q1.74-7.41,6.16-11a15.2,15.2,0,0,1,9.79-3.58c3.52,0,5.45,1.21,5.76,3.63V315a7.46,7.46,0,0,1-1,4.1,3.9,3.9,0,0,1-3.54,1.61,5.33,5.33,0,0,1-4.23-2.41c-1.24-1.6-2.55-2.41-3.94-2.41-1.67,0-3.51,1.69-5.52,5.05a24.92,24.92,0,0,0-3.49,11v17.94c0,2.54.39,4.19,1.17,4.93s2.76,1.11,5.91,1.11v2.36h-20.3V355.9q4.24,0,5.43-1.11c.79-.73,1.19-2.38,1.19-4.92ZM342.39,347V281.8l-13.69.95v2.36c3.15,0,5.11.37,5.9,1.11s1.18,2.38,1.18,4.93V317.3a18.37,18.37,0,0,0-15-7,23.3,23.3,0,0,0-14.83,5q-8.37,6.57-8.37,19.93c0,.76,0,1.51.05,2.27q.66,12.13,8.31,17.65a21.77,21.77,0,0,0,13,3.87q11.81,0,16.9-9.06,0,6,1.37,7.15c.91.77,2.58,1.15,5,1.16h6.05v-2.08c-2.21,0-3.73-.46-4.56-1.37s-1.31-3.52-1.31-7.83Zm-6.61-5.34a20.39,20.39,0,0,1-4.53,10.15,11.44,11.44,0,0,1-9.16,4.25,14.21,14.21,0,0,1-10.38-4.58q-4.54-4.58-5.24-14c-.13-1.61-.19-3.12-.19-4.53q0-10.77,4.36-15.2a13.44,13.44,0,0,1,9.84-4.44,13,13,0,0,1,9.66,3.8,16.78,16.78,0,0,1,4.7,7.81,29.24,29.24,0,0,1,.94,6.23Zm27.8-45.7a5.89,5.89,0,1,1,4.13-1.73A5.6,5.6,0,0,1,363.58,296Zm6,58.77c1.19.78,3.59,1.18,7.17,1.18v2.36H352.21v-2.36c3.58,0,6-.4,7.17-1.18s1.8-2.41,1.8-4.86V320.41q0-3.82-1.8-4.93c-1.19-.74-3.59-1.11-7.17-1.11V312l15.57-1v38.81c0,2.49.6,4.12,1.8,4.91Zm29.27,0c1.35.78,4,1.18,7.88,1.18v2.36H382.18v-2.36c3.28,0,5.43-.4,6.47-1.18s1.56-2.41,1.56-4.86V291.14q0-3.83-1.56-4.93c-1-.74-3.19-1.11-6.47-1.11v-2.36l14.64-.95v68.08c0,2.45.67,4.07,2,4.86ZM29.64,385.18v33.28a.55.55,0,0,1-.54.53h-.78a.53.53,0,0,1-.53-.53v-17H8.5v17A.55.55,0,0,1,8,419H7.18a.53.53,0,0,1-.53-.53V385.18a.53.53,0,0,1,.53-.53H8a.55.55,0,0,1,.54.53V399.6H27.79V385.18a.53.53,0,0,1,.53-.53h.78A.55.55,0,0,1,29.64,385.18Zm31.67-1c-9.06,0-15.63,7.4-15.63,17.59s6.57,17.65,15.63,17.65S77,412,77,401.77,70.4,384.2,61.31,384.2Zm0,33.39c-8,0-13.78-6.65-13.78-15.8S53.32,386,61.31,386s13.84,6.62,13.84,15.74S69.33,417.6,61.31,417.6Zm55.5-32.41v23.15c0,6.65-4.75,11.11-11.83,11.11S93.15,415,93.15,408.31V385.18a.53.53,0,0,1,.53-.53h.79a.53.53,0,0,1,.53.53v23.15c0,5.62,3.92,9.26,10,9.26s10-3.64,10-9.26V385.18a.55.55,0,0,1,.54-.53h.78a.53.53,0,0,1,.49.53Zm36.07,25.06c0,6-5.59,9.14-11.11,9.14-3.46,0-7.57-1.52-9.34-3.47a.57.57,0,0,1,0-.66l.45-.67a.53.53,0,0,1,.83-.08c1.67,1.73,5.16,3,8.11,3,4.6,0,9.26-2.51,9.26-7.29,0-3.73-3.08-5.71-7.11-7.93l-1.39-.66c-4.75-2.51-9.66-5.11-9.66-10.29,0-4.1,4-7.08,9.43-7.08a15.64,15.64,0,0,1,9.48,2.79.55.55,0,0,1,.14.73l-.45.67a.56.56,0,0,1-.36.23.52.52,0,0,1-.4-.1,13.57,13.57,0,0,0-8.41-2.47c-4.46,0-7.58,2.15-7.58,5.23,0,4,3.87,6.07,8.35,8.46l1.5.8c4.37,2.36,8.26,4.86,8.26,9.67Zm35.9-25.06v.78a.54.54,0,0,1-.54.54H170.38V399.6h15a.55.55,0,0,1,.53.54v.78a.55.55,0,0,1-.53.54h-15v15.65h17.86a.55.55,0,0,1,.54.53v.79a.55.55,0,0,1-.54.53H169.06a.53.53,0,0,1-.53-.53V385.18a.53.53,0,0,1,.53-.53h19.18a.55.55,0,0,1,.54.53Zm67,0v33.28a.55.55,0,0,1-.54.53h-.78a.53.53,0,0,1-.53-.53v-17h-19.3v17a.55.55,0,0,1-.54.53h-.78a.53.53,0,0,1-.53-.53V385.18a.53.53,0,0,1,.53-.53h.78a.55.55,0,0,1,.54.53V399.6h19.29V385.18a.53.53,0,0,1,.53-.53h.78a.55.55,0,0,1,.54.53Zm31.67-1c-9.06,0-15.63,7.4-15.63,17.59s6.57,17.65,15.63,17.65,15.69-7.42,15.69-17.65-6.56-17.55-15.7-17.55Zm0,33.39c-8,0-13.78-6.65-13.78-15.8S279.46,386,287.45,386s13.84,6.62,13.84,15.74-5.83,15.85-13.85,15.85Zm50.3-32.41v.78a.55.55,0,0,1-.53.54h-10.5v32a.53.53,0,0,1-.53.53h-.78a.55.55,0,0,1-.54-.53v-32H314.39a.53.53,0,0,1-.53-.53h0v-.78a.53.53,0,0,1,.53-.53h22.82a.53.53,0,0,1,.53.53v0Zm33.94,0v.78a.55.55,0,0,1-.53.54H353.28V399.6h15a.54.54,0,0,1,.54.54h0v.78a.54.54,0,0,1-.54.54h-15v15.65h17.87a.53.53,0,0,1,.53.53v.79a.53.53,0,0,1-.53.53H352a.55.55,0,0,1-.54-.53V385.18a.55.55,0,0,1,.54-.53h19.18a.53.53,0,0,1,.53.53Zm34.62,32.49v.79a.55.55,0,0,1-.54.53h-17.5a.55.55,0,0,1-.54-.53V385.18a.55.55,0,0,1,.54-.53h.78a.53.53,0,0,1,.53.53v32h16.19a.54.54,0,0,1,.53.49Z"/></svg>