<svg id="logo-westminster" class="logo" xmlns="http://www.w3.org/2000/svg" viewBox="0 0 336 108"><path fill="#b23428" xmlns="http://www.w3.org/2000/svg" d="M146.11,22.27c6.24,3.56,13,.15,13,6.18a3.78,3.78,0,0,1-3.78,3.81,5.16,5.16,0,0,1-4.23-2.62c-3.09-4.6-3.24-4.84-5.94-6.26l-.54.39C145.26,31.15,148,31.86,148,35a3.94,3.94,0,0,1-4,4.12c-2.69,0-3.62-2.7-3.62-4.36,0-4.36,2.93-3.57,2.93-11l-.54-.39c-6.55,4.36-5.55,9.12-10,9.12a3.87,3.87,0,0,1-3.62-3.81c0-1,0-2.93,3-4.12,3.31-1.35,5.54.87,9.94-2.62l.07-.56c-7.16-3.72-13.09-.08-13.09-6.26a3.59,3.59,0,0,1,3.39-3.81c5.85,0,3.85,5.79,10.47,8.88l.54-.23c.08-6.83-3.31-7.22-3.31-11.51A3.86,3.86,0,0,1,144,4.58c3.23,0,3.77,3.09,3.77,4.28,0,4.05-3.39,4.28-2.92,11.11l.61.23c6.4-4.76,5.47-9.12,9.71-9.12,2.62,0,3.93,2.62,3.93,4.05a4.79,4.79,0,0,1-3.16,4c-2.93,1.11-5.24-.79-9.86,2.54Z"/><path d="M24.05,99.64a7.88,7.88,0,0,1-4.64-1.52,7.83,7.83,0,0,1-4.63,1.52C11.07,99.64,8,97.05,8,94V46.74h4.36V94a2.39,2.39,0,0,0,2.41,2,2.42,2.42,0,0,0,2.5-2V46.74h4.36V94a2.49,2.49,0,0,0,4.91,0V46.74h4.36V94C30.91,97.05,27.76,99.64,24.05,99.64Z"/><path d="M48.81,99.11V46.74H59v3.57H53.16V69.92H59v3.5H53.16V95.54H59v3.57Z"/><path d="M82.09,99.64c-3.71,0-6.86-2.59-6.86-5.62V83.45h4.36V94a2.42,2.42,0,0,0,2.5,2,2.39,2.39,0,0,0,2.41-2V79.27L75.23,66.58V51.84c0-3.05,3.15-5.63,6.86-5.63s6.77,2.58,6.77,5.63V62.4H84.5V51.84a2.39,2.39,0,0,0-2.41-2.06,2.42,2.42,0,0,0-2.5,2.06V65.59l9.27,12.69V94C88.86,97.05,85.8,99.64,82.09,99.64Z"/><path d="M112.87,50.31v48.8h-4.26V50.31h-4.36V46.74h13v3.57Z"/><path fill="#b23428" xmlns="http://www.w3.org/2000/svg" d="M151.82,99.11V51.84a2.43,2.43,0,0,0-2.51-2.06,2.4,2.4,0,0,0-2.41,2.06V99.11h-4.36V51.84a2.49,2.49,0,0,0-4.91,0V99.11h-4.36V51.84c0-3.05,3.06-5.63,6.77-5.63a8,8,0,0,1,4.64,1.52,7.92,7.92,0,0,1,4.63-1.52c3.71,0,6.86,2.58,6.86,5.63V99.11Z"/><path d="M174.35,99.11V46.74h4.35V99.11Z"/><path d="M206.52,99.11V55.33c0-2.36-2-4.1-4.91-4.94V99.11h-4.36V46.51h2.13c5.66,0,11.5,4,11.5,8.82V99.11Z"/><path d="M235,99.64c-3.71,0-6.86-2.59-6.86-5.62V83.45h4.36V94a2.42,2.42,0,0,0,2.5,2,2.39,2.39,0,0,0,2.41-2V79.27l-9.27-12.69V51.84c0-3.05,3.15-5.63,6.86-5.63s6.77,2.58,6.77,5.63V62.4h-4.36V51.84A2.39,2.39,0,0,0,235,49.78a2.42,2.42,0,0,0-2.5,2.06V65.59l9.27,12.69V94C241.75,97.05,238.69,99.64,235,99.64Z"/><path d="M265.77,50.31v48.8H261.5V50.31h-4.36V46.74h13v3.57Z"/><path d="M286.16,99.11V46.74h10.2v3.57h-5.84V69.92h5.84v3.5h-5.84V95.54h5.84v3.57Z"/><path d="M323.44,70.38a2.43,2.43,0,0,1-2.51,2.05h-2.41V50.31h2.41a2.43,2.43,0,0,1,2.51,2Zm4.35,28.73V78a5,5,0,0,0-1.85-3.8,5.21,5.21,0,0,0,1.85-3.8V52.29c0-3-3.15-5.55-6.86-5.55h-6.77V99.11h4.36V76h2.41a2.31,2.31,0,0,1,2.51,2V99.11Z"/><path fill="#b23428" xmlns="http://www.w3.org/2000/svg" d="M180.89,33.21V22.47h-2.13V33.21h-1.89v-22h1.89V21h2.13V11.26h1.89v22Z"/><path xmlns="http://www.w3.org/2000/svg" fill="#b23428" d="M195.61,31.07a1,1,0,0,1-1.09.86,1,1,0,0,1-1-.86V13.4a1,1,0,0,1,1-.86,1,1,0,0,1,1.09.86Zm1.89,0V13.4c0-1.28-1.37-2.36-3-2.36a2.71,2.71,0,0,0-2.93,2.36V31.07a2.71,2.71,0,0,0,2.93,2.36C196.13,33.43,197.5,32.35,197.5,31.07Z"/><path xmlns="http://www.w3.org/2000/svg" fill="#b23428" d="M209.24,12.76V33.21h-1.85V12.76H205.5v-1.5h5.62v1.5Z"/><path xmlns="http://www.w3.org/2000/svg" fill="#b23428" d="M219.12,33.21v-22h4.43v1.5H221V21h2.54v1.46H221v9.27h2.54v1.5Z"/><path xmlns="http://www.w3.org/2000/svg" fill="#b23428" d="M231.91,33.21v-22h1.89V31.71h3.06v1.5Z"/></svg>