<svg xmlns="http://www.w3.org/2000/svg" xmlns:xlink="http://www.w3.org/1999/xlink" version="1.1" class="icons icon-checkout" id="icon-checkout" x="0" y="0" width="323.7" height="400.9" viewBox="0 0 323.7 400.9" enable-background="new 0 0 323.7 400.9" xml:space="preserve"><g><path d="M40.1 152.8h103.2c4.8 0 8.7 3.9 8.7 8.7 0 4.8-3.9 8.7-8.7 8.7H40.1c-4.8 0-8.7-3.9-8.7-8.7C31.4 156.7 35.3 152.8 40.1 152.8M9 152.5c-5 0-9 4-9 9s4 9 9 9c5 0 9-4 9-9S14 152.5 9 152.5M24.5 148.2c2.2 0 4.5-0.9 6.2-2.6l41-41c3.4-3.4 3.4-8.9 0-12.3 -3.4-3.4-8.9-3.4-12.3 0l-41 41c-3.4 3.4-3.4 8.9 0 12.3C20 147.4 22.2 148.2 24.5 148.2M30.6 177.5c-3.4-3.4-8.9-3.4-12.3 0 -3.4 3.4-3.4 8.9 0 12.3l41 41c1.7 1.7 3.9 2.6 6.2 2.6s4.5-0.9 6.2-2.6c3.4-3.4 3.4-8.9 0-12.3L30.6 177.5zM206.5 244.1c5 0 9-4 9-9 0-5-4-9-9-9 -5 0-9 4-9 9S201.6 244.1 206.5 244.1M323.7 8.5v307.6c0 3.2-1.8 6.2-4.7 7.6L166.9 400c-1.2 0.6-2.5 0.9-3.8 0.9 -1.6 0-3.1-0.4-4.5-1.3 -2.5-1.5-4-4.3-4-7.2v-69.2H112c-4.7 0-8.5-3.8-8.5-8.5V195.8c0-4.7 3.8-8.5 8.5-8.5 4.7 0 8.5 3.8 8.5 8.5v110.3h34.1V86.2c0-3.2 1.8-6.2 4.7-7.6l123-61.6H120.5v110.3c0 4.7-3.8 8.5-8.5 8.5 -4.7 0-8.5-3.8-8.5-8.5V8.5c0-4.7 3.8-8.5 8.5-8.5h203.2C319.9 0 323.7 3.8 323.7 8.5M306.7 23.8L171.6 91.5v287.1l135.1-67.7V23.8z"/></g></svg>