<svg xmlns="http://www.w3.org/2000/svg" xmlns:xlink="http://www.w3.org/1999/xlink" version="1.1" class="icons icon-close" id="icon-close" x="0" y="0" width="49.2" height="49.2" viewBox="0 0 49.2 49.2" enable-background="new 0 0 49.206 49.232" xml:space="preserve"><g><path d="M42 7.2C37.4 2.6 31.2 0 24.6 0c-6.6 0-12.8 2.6-17.4 7.2C-2.4 16.8-2.4 32.4 7.2 42c4.6 4.7 10.8 7.2 17.4 7.2h0c6.6 0 12.8-2.6 17.4-7.2C51.6 32.4 51.6 16.8 42 7.2M40.6 40.6c-4.3 4.3-9.9 6.6-16 6.6h0c-6 0-11.7-2.4-16-6.6C-0.2 31.8-0.2 17.4 8.6 8.6 12.9 4.4 18.6 2 24.6 2S36.3 4.4 40.6 8.6C49.4 17.4 49.4 31.8 40.6 40.6"/><path d="M35.5 14.3c-0.4-0.4-1-0.4-1.4 0l-8.9 8.9 -8.9-8.9c-0.4-0.4-1-0.4-1.4 0 -0.4 0.4-0.4 1 0 1.4l8.9 8.9 -8.9 8.9c-0.4 0.4-0.4 1 0 1.4 0.2 0.2 0.5 0.3 0.7 0.3 0.3 0 0.5-0.1 0.7-0.3l8.9-8.9 8.9 8.9c0.2 0.2 0.5 0.3 0.7 0.3 0.3 0 0.5-0.1 0.7-0.3 0.4-0.4 0.4-1 0-1.4l-8.9-8.9 8.9-8.9C35.9 15.3 35.9 14.7 35.5 14.3"/></g></svg>