<svg xmlns="http://www.w3.org/2000/svg" xmlns:xlink="http://www.w3.org/1999/xlink" version="1.1" class="icons icon-no-print" id="icon-no-print" x="0" y="0" viewBox="0 0 52.1 50.9" enable-background="new 0 0 52.1 50.9" xml:space="preserve"><path stroke="none" d="M18.3 44.6h15c0.6 0 1-0.4 1-1 0-0.6-0.4-1-1-1h-15c-0.6 0-1 0.4-1 1C17.3 44.2 17.7 44.6 18.3 44.6z"/><path stroke="none" d="M18.3 39.9h15c0.6 0 1-0.4 1-1 0-0.6-0.4-1-1-1h-15c-0.6 0-1 0.4-1 1C17.3 39.4 17.7 39.9 18.3 39.9z"/><path stroke="none" d="M45.3 8.5h-7c0 0-0.1-0.1-0.1-0.1l-4.4-4.3c-0.4-0.4-0.9-0.6-1.4-0.6H14.9c-1.1 0-2.1 0.9-2.1 2.1v3H6.1C3.3 8.5 1 10.8 1 13.7v14.5c0 2.8 2.3 5.2 5.1 5.2h39.2c2.8 0 5.1-2.3 5.1-5.2V13.7C50.4 10.8 48.1 8.5 45.3 8.5zM32.4 5.5l4.4 4.4v6.9H14.9l0-11.3L32.4 5.5zM48.4 28.2c0 1.7-1.4 3.2-3.1 3.2H6.1c-1.7 0-3.1-1.4-3.1-3.2V13.7c0-1.7 1.4-3.2 3.1-3.2h6.7v7.3c0 0.6 0.4 1 1 1h24c0.6 0 1-0.4 1-1v-7.3h6.4c1.7 0 3.1 1.4 3.1 3.2V28.2z"/><path stroke="none" d="M37.8 35.4c-0.6 0-1 0.4-1 1l-0.1 12.5 -21.9-0.1V36.4c0-0.6-0.4-1-1-1 -0.6 0-1 0.4-1 1v12.5c0 1.1 0.9 2.1 2.1 2.1h21.8c1.1 0 2.1-0.9 2.1-2.1V36.4C38.8 35.8 38.4 35.4 37.8 35.4z"/><line fill="none" stroke-width="2" stroke-linecap="round" x1="1.9" y1="49.6" x2="51.1" y2="1"/><line fill="none" stroke-width="2" stroke-linecap="round" x1="1" y1="1" x2="50.2" y2="49.6"/></svg>