<svg id="why-tysons-logo" class="logo"   xmlns="http://www.w3.org/2000/svg" xmlns:xlink="http://www.w3.org/1999/xlink" viewBox="0 0 595 102.13"><defs><style>.cls-1{fill:none;}.cls-2{clip-path:url(#clip-path);}.cls-3{clip-path:url(#clip-path-2);}.cls-4{fill:#000;}.cls-5{fill:#666;}</style><clipPath id="clip-path"><rect class="cls-1" y="9.89" width="594.72" height="92.17"/></clipPath><clipPath id="clip-path-2"><rect class="cls-1" y="9.87" width="595" height="92.27"/></clipPath></defs><title>Artboard 1</title><g class="cls-2"><g class="cls-3"><polyline class="cls-4" points="60.89 83.68 55.59 83.68 39.67 37.92 23.65 83.68 18.35 83.68 0 29.2 5.53 29.2 21.22 75.5 37.46 29.3 41.77 29.3 58.02 75.61 73.71 29.2 79.24 29.2 60.89 83.68"/><path class="cls-4" d="M127,34.39q6,6.4,6,16.8V83.35h-5.41V52q0-8.51-4.7-13.7a15.8,15.8,0,0,0-12.32-5.2q-9.84,0-15.69,6.25t-5.86,17V83.35H83.65V9.89h5.42V40.8Q95.7,28,111.28,28,121,28,127,34.39"/><polyline class="cls-4" points="155.62 102.13 149.66 102.13 158.61 82.9 133.41 29.2 139.6 29.2 161.59 76.72 183.8 29.2 189.77 29.2 155.62 102.13"/><path class="cls-4" d="M237.44,34.39q6,6.4,6,16.8V83.35h-5.41V52q0-8.51-4.7-13.7A15.8,15.8,0,0,0,221,33.06q-9.84,0-15.69,6.25t-5.86,17V83.35h-5.42V9.89h5.42V40.8Q206.11,28,221.69,28q9.72,0,15.75,6.41"/><path class="cls-4" d="M298.47,36.1q8.17,8,8.18,20.17t-8.18,20.22a29.38,29.38,0,0,1-40.45,0q-8.17-8.05-8.18-20.22T258,36.1a29.54,29.54,0,0,1,40.45,0M294.66,73a22.71,22.71,0,0,0,6.68-16.74q0-10.17-6.63-16.8a23.76,23.76,0,0,0-32.93,0q-6.63,6.63-6.63,16.8A22.68,22.68,0,0,0,261.84,73a23.47,23.47,0,0,0,32.82,0Z"/><path class="cls-4" d="M342.37,80.25a19.13,19.13,0,0,1-11.82,4.31q-7.31,0-11.72-4.36t-4.42-12.1V34H302.59V29.31h11.82V9.89h5.42V29.31h20.22V34H319.83V67.77a11.84,11.84,0,0,0,3,8.56,10.64,10.64,0,0,0,8,3.15,14.24,14.24,0,0,0,9.39-3.65l2.1,4.42"/><path class="cls-4" d="M393.87,56.82h-49q.12,10.4,6.75,16.69a21.49,21.49,0,0,0,15.25,6.3q15.46,0,21-13.81l4.75,1.1a25.73,25.73,0,0,1-9.72,13,28,28,0,0,1-16,4.47,27,27,0,0,1-19.12-7.73q-8.19-7.74-8.18-20.34t8.29-20.61A27.51,27.51,0,0,1,367.57,28a24.92,24.92,0,0,1,18.51,7.46q7.35,7.45,7.79,19.39v2M352.82,38.26a21.25,21.25,0,0,0-7.69,14.36h43.33q-1-9.28-6.75-14.53a20.18,20.18,0,0,0-14.14-5.25A22.61,22.61,0,0,0,352.82,38.26Z"/><rect class="cls-4" x="400.9" y="9.89" width="5.42" height="73.46"/></g></g><g class="cls-3"><polyline class="cls-5" points="433.96 12.66 429.85 12.66 429.85 10.7 440.39 10.7 440.39 12.66 436.27 12.66 436.27 23.13 433.96 23.13 433.96 12.66"/><polyline class="cls-5" points="452.13 18.74 452.13 23.13 449.82 23.13 449.82 18.78 444.94 10.7 447.41 10.7 451.04 16.75 454.72 10.7 456.99 10.7 452.13 18.74"/><path class="cls-5" d="M463.12,22.89A5.77,5.77,0,0,1,461,21.81l.8-1.79a6.23,6.23,0,0,0,1.87,1,6.67,6.67,0,0,0,2.23.39,3.83,3.83,0,0,0,2.07-.45,1.34,1.34,0,0,0,.68-1.17,1.16,1.16,0,0,0-.38-.88,2.75,2.75,0,0,0-1-.54c-.39-.13-.92-.28-1.6-.44a18.36,18.36,0,0,1-2.29-.68,3.69,3.69,0,0,1-1.51-1.05,2.85,2.85,0,0,1-.63-1.94,3.29,3.29,0,0,1,.56-1.88A3.76,3.76,0,0,1,463.51,11a6.85,6.85,0,0,1,2.76-.49,8.93,8.93,0,0,1,2.24.28,6.2,6.2,0,0,1,1.9.82l-.73,1.79a7.27,7.27,0,0,0-1.7-.73,6.7,6.7,0,0,0-1.73-.25,3.67,3.67,0,0,0-2,.46,1.44,1.44,0,0,0-.66,1.23,1.1,1.1,0,0,0,.38.87,2.81,2.81,0,0,0,1,.53c.39.13.92.28,1.59.44a17.48,17.48,0,0,1,2.27.67,3.77,3.77,0,0,1,1.52,1.06,2.77,2.77,0,0,1,.63,1.91,3.26,3.26,0,0,1-.56,1.86,3.86,3.86,0,0,1-1.69,1.34,6.93,6.93,0,0,1-2.77.49,9.22,9.22,0,0,1-2.78-.41"/><path class="cls-5" d="M479.36,22.48a6.15,6.15,0,0,1-2.4-2.29,6.6,6.6,0,0,1,0-6.55,6.08,6.08,0,0,1,2.4-2.29,7.54,7.54,0,0,1,6.84,0,6.13,6.13,0,0,1,2.4,2.28,6.28,6.28,0,0,1,.87,3.28,6.29,6.29,0,0,1-.87,3.29,6.13,6.13,0,0,1-2.4,2.28,7.54,7.54,0,0,1-6.84,0M485,20.72a4,4,0,0,0,1.56-1.56,4.71,4.71,0,0,0,0-4.49A4,4,0,0,0,485,13.11a4.76,4.76,0,0,0-4.48,0A4,4,0,0,0,479,14.67a4.78,4.78,0,0,0,0,4.49,4,4,0,0,0,1.56,1.56,4.76,4.76,0,0,0,4.48,0Z"/><polyline class="cls-5" points="506.68 10.7 506.68 23.13 504.78 23.13 497.93 14.71 497.93 23.13 495.64 23.13 495.64 10.7 497.54 10.7 504.39 19.11 504.39 10.7 506.68 10.7"/><path class="cls-5" d="M514.88,22.89a5.77,5.77,0,0,1-2.12-1.08l.8-1.79a6.23,6.23,0,0,0,1.87,1,6.67,6.67,0,0,0,2.23.39,3.77,3.77,0,0,0,2.06-.45,1.33,1.33,0,0,0,.69-1.17,1.16,1.16,0,0,0-.38-.88,2.75,2.75,0,0,0-1-.54c-.39-.13-.92-.28-1.6-.44a19.13,19.13,0,0,1-2.3-.68,3.72,3.72,0,0,1-1.5-1.05,2.85,2.85,0,0,1-.63-1.94,3.29,3.29,0,0,1,.56-1.88A3.76,3.76,0,0,1,515.27,11a6.85,6.85,0,0,1,2.76-.49,8.93,8.93,0,0,1,2.24.28,6,6,0,0,1,1.89.82l-.72,1.79a7.53,7.53,0,0,0-1.71-.73,6.56,6.56,0,0,0-1.72-.25,3.65,3.65,0,0,0-2,.46,1.44,1.44,0,0,0-.66,1.23,1.1,1.1,0,0,0,.38.87,2.76,2.76,0,0,0,1,.53c.39.13.93.28,1.6.44a18,18,0,0,1,2.27.67,3.84,3.84,0,0,1,1.52,1.06,2.77,2.77,0,0,1,.63,1.91,3.26,3.26,0,0,1-.56,1.86,3.86,3.86,0,0,1-1.69,1.34,6.93,6.93,0,0,1-2.77.49,9.22,9.22,0,0,1-2.78-.41"/><path class="cls-5" d="M433.8,42.82a6,6,0,0,1-2.38-2.28,6.65,6.65,0,0,1,0-6.56,6.14,6.14,0,0,1,2.38-2.28,7.42,7.42,0,0,1,6.19-.29A5.56,5.56,0,0,1,442.13,33l-1.5,1.4a4.33,4.33,0,0,0-3.31-1.46,4.65,4.65,0,0,0-2.29.56A4,4,0,0,0,433.45,35a4.73,4.73,0,0,0,0,4.5A4,4,0,0,0,435,41.07a4.65,4.65,0,0,0,2.29.56,4.31,4.31,0,0,0,3.31-1.48l1.5,1.42A5.73,5.73,0,0,1,440,43.12a7.27,7.27,0,0,1-2.8.53,7,7,0,0,1-3.39-.83"/><path class="cls-5" d="M450.11,42.82a6.08,6.08,0,0,1-2.4-2.29,6.65,6.65,0,0,1,0-6.54,6.08,6.08,0,0,1,2.4-2.29,7.48,7.48,0,0,1,6.85,0A6.1,6.1,0,0,1,459.35,34a6.62,6.62,0,0,1,0,6.56A6.1,6.1,0,0,1,457,42.82a7.48,7.48,0,0,1-6.85,0m5.66-1.75a4.13,4.13,0,0,0,1.56-1.57,4.69,4.69,0,0,0,0-4.48,4.13,4.13,0,0,0-1.56-1.57,4.74,4.74,0,0,0-4.47,0A4.06,4.06,0,0,0,449.74,35a4.69,4.69,0,0,0,0,4.48,4.06,4.06,0,0,0,1.56,1.57,4.74,4.74,0,0,0,4.47,0Z"/><path class="cls-5" d="M474.52,43.47,472,39.83a2.91,2.91,0,0,1-.47,0H468.7v3.62h-2.31V31.05h5.12a7,7,0,0,1,2.81.53,4.09,4.09,0,0,1,1.83,1.53,4.23,4.23,0,0,1,.64,2.36,4.16,4.16,0,0,1-.68,2.41,4.05,4.05,0,0,1-2,1.51L477,43.47h-2.49m-.83-9.83A3.53,3.53,0,0,0,471.4,33h-2.7v5h2.7a3.47,3.47,0,0,0,2.29-.65,2.54,2.54,0,0,0,0-3.66Z"/><polyline class="cls-5" points="494.12 31.05 494.12 43.47 492.23 43.47 485.38 35.06 485.38 43.47 483.09 43.47 483.09 31.05 484.99 31.05 491.83 39.46 491.83 31.05 494.12 31.05"/><polyline class="cls-5" points="510.44 41.54 510.44 43.47 501.12 43.47 501.12 31.05 510.19 31.05 510.19 32.98 503.43 32.98 503.43 36.21 509.43 36.21 509.43 38.11 503.43 38.11 503.43 41.54 510.44 41.54"/><path class="cls-5" d="M524.75,43.47l-2.54-3.64a3,3,0,0,1-.48,0h-2.8v3.62h-2.31V31.05h5.11a7,7,0,0,1,2.82.53,4.14,4.14,0,0,1,1.83,1.53,4.64,4.64,0,0,1,0,4.77,4.05,4.05,0,0,1-2,1.51l2.85,4.08h-2.48m-.83-9.83a3.53,3.53,0,0,0-2.29-.64h-2.7v5h2.7a3.47,3.47,0,0,0,2.29-.65,2.54,2.54,0,0,0,0-3.66Z"/><path class="cls-5" d="M439.92,57.46h2.19v4.95a7.14,7.14,0,0,1-2.24,1.18,8.63,8.63,0,0,1-2.62.4,7.1,7.1,0,0,1-3.43-.82,6.1,6.1,0,0,1-2.39-2.28,6.64,6.64,0,0,1,0-6.57,6.13,6.13,0,0,1,2.4-2.28,7.15,7.15,0,0,1,3.45-.82,7.6,7.6,0,0,1,2.84.51,5.7,5.7,0,0,1,2.15,1.51l-1.46,1.42a4.64,4.64,0,0,0-3.42-1.42,4.82,4.82,0,0,0-2.34.55,4,4,0,0,0-1.59,1.55,4.36,4.36,0,0,0-.58,2.27,4.31,4.31,0,0,0,.58,2.23,4.11,4.11,0,0,0,1.59,1.56,4.69,4.69,0,0,0,2.32.57,4.93,4.93,0,0,0,2.55-.64V57.46"/><path class="cls-5" d="M456.94,63.82l-2.54-3.64-.48,0h-2.8v3.62h-2.31V51.4h5.11a6.82,6.82,0,0,1,2.82.53,4.06,4.06,0,0,1,1.83,1.52,4.26,4.26,0,0,1,.64,2.36,4.2,4.2,0,0,1-.68,2.42,4.11,4.11,0,0,1-2,1.51l2.86,4.08h-2.49M456.11,54a3.53,3.53,0,0,0-2.29-.64h-2.7V58.3h2.7a3.53,3.53,0,0,0,2.29-.65,2.25,2.25,0,0,0,.78-1.84A2.21,2.21,0,0,0,456.11,54Z"/><polyline class="cls-5" points="474.83 61.88 474.83 63.82 465.51 63.82 465.51 51.4 474.58 51.4 474.58 53.33 467.82 53.33 467.82 56.56 473.82 56.56 473.82 58.46 467.82 58.46 467.82 61.88 474.83 61.88"/><polyline class="cls-5" points="490.33 61.88 490.33 63.82 481.01 63.82 481.01 51.4 490.08 51.4 490.08 53.33 483.32 53.33 483.32 56.56 489.32 56.56 489.32 58.46 483.32 58.46 483.32 61.88 490.33 61.88"/><polyline class="cls-5" points="507.55 51.4 507.55 63.82 505.65 63.82 498.8 55.41 498.8 63.82 496.51 63.82 496.51 51.4 498.41 51.4 505.26 59.81 505.26 51.4 507.55 51.4"/><path class="cls-5" d="M515.75,63.59a5.94,5.94,0,0,1-2.12-1.09l.8-1.79a6.48,6.48,0,0,0,1.87,1,7,7,0,0,0,2.23.38,3.83,3.83,0,0,0,2.07-.45,1.34,1.34,0,0,0,.68-1.17,1.12,1.12,0,0,0-.38-.87,2.54,2.54,0,0,0-1-.55c-.39-.13-.92-.27-1.6-.44a18.57,18.57,0,0,1-2.29-.67,3.81,3.81,0,0,1-1.51-1.06,2.85,2.85,0,0,1-.63-1.94,3.37,3.37,0,0,1,.56-1.88,3.74,3.74,0,0,1,1.68-1.33,6.71,6.71,0,0,1,2.76-.5,8.87,8.87,0,0,1,2.24.28,6.34,6.34,0,0,1,1.9.82l-.73,1.79a7.27,7.27,0,0,0-1.7-.73,6.66,6.66,0,0,0-1.72-.24,3.62,3.62,0,0,0-2,.46,1.41,1.41,0,0,0-.66,1.22,1.08,1.08,0,0,0,.38.87,2.81,2.81,0,0,0,1,.53q.59.2,1.59.45a16.17,16.17,0,0,1,2.27.66,3.77,3.77,0,0,1,1.52,1.06,2.77,2.77,0,0,1,.63,1.91,3.24,3.24,0,0,1-.56,1.87,3.79,3.79,0,0,1-1.69,1.33,6.93,6.93,0,0,1-2.77.49,9.59,9.59,0,0,1-2.78-.4"/><path class="cls-5" d="M540.08,58.48a3.16,3.16,0,0,1,.6,2,2.9,2.9,0,0,1-1.24,2.49,6.3,6.3,0,0,1-3.62.88h-6.18V51.4h5.82a5.66,5.66,0,0,1,3.39.86A2.76,2.76,0,0,1,540,54.63a3.17,3.17,0,0,1-.42,1.63,3,3,0,0,1-1.18,1.1,3.32,3.32,0,0,1,1.64,1.12M532,53.21v3.42h3.26a3.32,3.32,0,0,0,1.86-.43,1.59,1.59,0,0,0,0-2.56,3.32,3.32,0,0,0-1.86-.43Zm6.41,7c0-1.19-.9-1.79-2.68-1.79H532V62h3.73C537.46,62,538.36,61.41,538.36,60.21Z"/><path class="cls-5" d="M549.26,63.17a6.12,6.12,0,0,1-2.39-2.29,6.6,6.6,0,0,1,0-6.55A6.19,6.19,0,0,1,549.26,52a7.56,7.56,0,0,1,6.85,0,6.13,6.13,0,0,1,2.4,2.28,6.64,6.64,0,0,1,0,6.57,6.13,6.13,0,0,1-2.4,2.28,7.56,7.56,0,0,1-6.85,0m5.66-1.76a4,4,0,0,0,1.57-1.56,4.78,4.78,0,0,0,0-4.49,4,4,0,0,0-1.57-1.56,4.48,4.48,0,0,0-2.23-.56,4.54,4.54,0,0,0-2.24.56,4,4,0,0,0-1.56,1.56,4.71,4.71,0,0,0,0,4.49,4,4,0,0,0,1.56,1.56,4.54,4.54,0,0,0,2.24.56A4.48,4.48,0,0,0,554.92,61.41Z"/><path class="cls-5" d="M573.68,63.82l-2.54-3.64-.48,0h-2.8v3.62h-2.31V51.4h5.11a6.81,6.81,0,0,1,2.81.53,4.09,4.09,0,0,1,1.84,1.52,4.34,4.34,0,0,1,.64,2.36,4.2,4.2,0,0,1-.69,2.42,4.07,4.07,0,0,1-2,1.51l2.86,4.08h-2.48M572.84,54a3.51,3.51,0,0,0-2.29-.64h-2.69V58.3h2.69a3.51,3.51,0,0,0,2.29-.65,2.25,2.25,0,0,0,.78-1.84A2.21,2.21,0,0,0,572.84,54Z"/><path class="cls-5" d="M584.61,63.17a6.08,6.08,0,0,1-2.4-2.29,6.67,6.67,0,0,1,0-6.55,6.15,6.15,0,0,1,2.4-2.29,7.56,7.56,0,0,1,6.85,0,6,6,0,0,1,2.39,2.28,6.64,6.64,0,0,1,0,6.57,6,6,0,0,1-2.39,2.28,7.56,7.56,0,0,1-6.85,0m5.66-1.76a4,4,0,0,0,1.56-1.56,4.71,4.71,0,0,0,0-4.49,4,4,0,0,0-1.56-1.56,4.74,4.74,0,0,0-4.47,0,4,4,0,0,0-1.56,1.56,4.71,4.71,0,0,0,0,4.49,4,4,0,0,0,1.56,1.56,4.74,4.74,0,0,0,4.47,0Z"/><path class="cls-5" d="M431.44,71.74h5.43a7.88,7.88,0,0,1,3.54.77,5.8,5.8,0,0,1,2.39,2.18,6.68,6.68,0,0,1,0,6.52,5.8,5.8,0,0,1-2.39,2.18,7.88,7.88,0,0,1-3.54.77h-5.43V71.74m5.33,10.47a5.37,5.37,0,0,0,2.4-.52,3.78,3.78,0,0,0,1.6-1.49,4.47,4.47,0,0,0,.56-2.25,4.41,4.41,0,0,0-.56-2.24,3.72,3.72,0,0,0-1.6-1.49,5.24,5.24,0,0,0-2.4-.53h-3v8.52Z"/><path class="cls-5" d="M458,84.16l-2.54-3.64a3,3,0,0,1-.48,0h-2.8v3.62h-2.31V71.74h5.11a7,7,0,0,1,2.82.53,4.14,4.14,0,0,1,1.83,1.53,4.64,4.64,0,0,1,0,4.77,4.05,4.05,0,0,1-2,1.51l2.85,4.08H458m-.84-9.83a3.56,3.56,0,0,0-2.28-.64h-2.7v5h2.7a3.44,3.44,0,0,0,2.28-.65,2.51,2.51,0,0,0,0-3.66Z"/><rect class="cls-5" x="466.52" y="71.74" width="2.31" height="12.42"/><polyline class="cls-5" points="487.32 71.74 481.9 84.16 479.63 84.16 474.2 71.74 476.7 71.74 480.84 81.32 485.01 71.74 487.32 71.74"/><polyline class="cls-5" points="502 82.23 502 84.16 492.69 84.16 492.69 71.74 501.75 71.74 501.75 73.67 495 73.67 495 76.91 500.99 76.91 500.99 78.8 495 78.8 495 82.23 502 82.23"/></g></svg>