<svg id="logo-victory-house" class="logo" xmlns="http://www.w3.org/2000/svg" xmlns:xlink="http://www.w3.org/1999/xlink" viewBox="0 0 232 58"><defs><style>.cls-1,.cls-4{fill:none;}.cls-2{fill:#1e394a;}.cls-3{clip-path:url(#clip-path);}.cls-4{stroke:#1e394a;stroke-miterlimit:10;stroke-width:0.39px;}</style></defs><title>Artboard 1</title><path class="cls-2" d="M76.38,19.16v.41a2.1,2.1,0,0,0-1.14.21,1.73,1.73,0,0,0-.55.95L70.86,31.26h-.27l-3.88-10.8a1.26,1.26,0,0,0-.45-.64,2.24,2.24,0,0,0-1.2-.25v-.41h4.16v.41a4.38,4.38,0,0,0-1.36.13c-.2.1-.25.31-.13.64L71,29.42l3.16-8.74c.15-.44.14-.73,0-.87a2.47,2.47,0,0,0-1.39-.24v-.41h3.61"/><path class="cls-2" d="M83.88,19.16v.4a2.25,2.25,0,0,0-1.18.22,1,1,0,0,0-.34.87v9a.82.82,0,0,0,.34.74,2.3,2.3,0,0,0,1.18.22V31h-4v-.42A2.3,2.3,0,0,0,81,30.35a.82.82,0,0,0,.35-.74v-9a1,1,0,0,0-.35-.87,2.3,2.3,0,0,0-1.17-.22v-.4h4"/><path class="cls-2" d="M95.91,30.22a4.42,4.42,0,0,1-3,1,4.66,4.66,0,0,1-3.67-1.62A6.73,6.73,0,0,1,87.74,25a7,7,0,0,1,1.31-4.31,4.34,4.34,0,0,1,3.59-1.82,5.57,5.57,0,0,1,1.21.12,6.88,6.88,0,0,1,1,.29l.16.06L96.14,19l1.14,3-.28.13a8.35,8.35,0,0,0-1.63-1.81,4.3,4.3,0,0,0-2.68-1,3.22,3.22,0,0,0-2.79,1.62,7.41,7.41,0,0,0-1,4.09,5.93,5.93,0,0,0,1.23,3.86,3.92,3.92,0,0,0,3.21,1.56,3.85,3.85,0,0,0,2.23-.66,5.92,5.92,0,0,0,1.75-2.11l.28.14a6.1,6.1,0,0,1-1.65,2.42"/><path class="cls-2" d="M104.51,30.6a4,4,0,0,0,1.3-.14.76.76,0,0,0,.56-.75V20.5a.79.79,0,0,0-.3-.72,2,2,0,0,0-1.08-.21,3.65,3.65,0,0,0-2.37.77A6.37,6.37,0,0,0,101.31,22l-.24-.11,1-2.71h9.73l1,2.82-.27.1-.18-.28a6.33,6.33,0,0,0-1.17-1.57,3.08,3.08,0,0,0-2-.66,2.83,2.83,0,0,0-1.27.21.74.74,0,0,0-.4.72v9.21a.74.74,0,0,0,.47.75,4.32,4.32,0,0,0,1.39.14V31h-4.73V30.6"/><path class="cls-2" d="M125.26,20.81a6.85,6.85,0,0,1,1.3,4.26,6.81,6.81,0,0,1-1.3,4.24,4.65,4.65,0,0,1-3.94,1.94,4.5,4.5,0,0,1-3.83-1.94,7,7,0,0,1-1.27-4.24,7,7,0,0,1,1.27-4.26,4.52,4.52,0,0,1,3.83-1.93,4.66,4.66,0,0,1,3.94,1.93m-6.94.3a7.51,7.51,0,0,0-1,4,7.41,7.41,0,0,0,1,3.94,3.39,3.39,0,0,0,3,1.8,3.52,3.52,0,0,0,3.11-1.8,7.25,7.25,0,0,0,1-3.94,7.37,7.37,0,0,0-1-4,3.53,3.53,0,0,0-3.11-1.81A3.4,3.4,0,0,0,118.32,21.11Z"/><path class="cls-2" d="M130.29,30.57a2,2,0,0,0,1.25-.29,1,1,0,0,0,.33-.88V20.55a.85.85,0,0,0-.33-.77,2.59,2.59,0,0,0-1.25-.21v-.41h5.34a4.53,4.53,0,0,1,2.88.82,2.5,2.5,0,0,1,1,2.08,2.8,2.8,0,0,1-.79,2,3.58,3.58,0,0,1-2.42,1L139,29.8a1.26,1.26,0,0,0,.64.61,2.57,2.57,0,0,0,1,.16V31h-2.22l-3.24-5.88H132.9V29.4a1,1,0,0,0,.35.88,1.94,1.94,0,0,0,1.22.29V31h-4.18v-.42m5.64-5.88a2.24,2.24,0,0,0,1.89-.82,2.78,2.78,0,0,0,.55-1.8,2.29,2.29,0,0,0-.76-1.84,3,3,0,0,0-2.05-.66H134.1a1.55,1.55,0,0,0-.89.21.92.92,0,0,0-.31.78v4.13Z"/><path class="cls-2" d="M146.49,30.57a2.89,2.89,0,0,0,1.38-.22.77.77,0,0,0,.33-.73V26.25l-3.22-6a1.83,1.83,0,0,0-.56-.56,2.59,2.59,0,0,0-.88-.13v-.41h3.84v.41a3.17,3.17,0,0,0-1.23.15c-.17.09-.18.28,0,.56L149,25.54l2.8-4.94c.17-.38.17-.65,0-.79a2.74,2.74,0,0,0-1.44-.24v-.41h3.51v.41a1.71,1.71,0,0,0-1,.26,2.91,2.91,0,0,0-.64.92l-3,5.23v3.66a.74.74,0,0,0,.32.71,2.84,2.84,0,0,0,1.38.22V31h-4.44v-.42"/><path class="cls-2" d="M165,30.57a1.72,1.72,0,0,0,1.06-.24,1,1,0,0,0,.31-.82v-9a.86.86,0,0,0-.28-.72,1.87,1.87,0,0,0-1.09-.24v-.4h3.77v.4a1.82,1.82,0,0,0-1.06.24.84.84,0,0,0-.3.72v4.15h6.41V20.52a.8.8,0,0,0-.35-.72,1.75,1.75,0,0,0-1-.24v-.4h3.75v.4a1.8,1.8,0,0,0-1.06.24.83.83,0,0,0-.32.72v9a1,1,0,0,0,.32.82,1.76,1.76,0,0,0,1.06.24V31h-3.75v-.42a1.71,1.71,0,0,0,1-.24,1,1,0,0,0,.35-.82V25.07h-6.41v4.44a1,1,0,0,0,.29.82,1.77,1.77,0,0,0,1.07.24V31H165v-.42"/><path class="cls-2" d="M189.12,20.81a6.92,6.92,0,0,1,1.3,4.26,6.88,6.88,0,0,1-1.3,4.24,4.66,4.66,0,0,1-4,1.94,4.5,4.5,0,0,1-3.83-1.94,7,7,0,0,1-1.27-4.24,7.1,7.1,0,0,1,1.27-4.26,4.52,4.52,0,0,1,3.83-1.93,4.68,4.68,0,0,1,4,1.93m-6.94.3a7.42,7.42,0,0,0-1,4,7.32,7.32,0,0,0,1,3.94,3.36,3.36,0,0,0,3,1.8,3.51,3.51,0,0,0,3.11-1.8,7.17,7.17,0,0,0,1-3.94,7.29,7.29,0,0,0-1-4,3.52,3.52,0,0,0-3.11-1.81A3.37,3.37,0,0,0,182.18,21.11Z"/><path class="cls-2" d="M198.33,19.16v.41a2.51,2.51,0,0,0-1.24.23.84.84,0,0,0-.33.75v6.76a3.19,3.19,0,0,0,1,2.44,3.67,3.67,0,0,0,2.63,1A3.58,3.58,0,0,0,202.7,30a3.28,3.28,0,0,0,1.16-2.75v-6.7a.82.82,0,0,0-.34-.75,2.42,2.42,0,0,0-1.23-.23v-.41h3.6v.41a2.48,2.48,0,0,0-1.25.23.82.82,0,0,0-.33.75v6.79a3.61,3.61,0,0,1-1.24,2.94,4.74,4.74,0,0,1-3.19,1,4.23,4.23,0,0,1-2.9-1,4,4,0,0,1-1.25-3.13V20.55a.84.84,0,0,0-.32-.75,2.49,2.49,0,0,0-1.27-.23v-.41h4.19"/><path class="cls-2" d="M211.3,29.88a4.57,4.57,0,0,0,2.82.95,3.29,3.29,0,0,0,2.09-.58,2.37,2.37,0,0,0,.85-2,2.1,2.1,0,0,0-.82-1.78,9.25,9.25,0,0,0-2.71-1.09,8.74,8.74,0,0,1-2.6-1.17,3,3,0,0,1-.45-4.35,3.72,3.72,0,0,1,2.78-1,5.21,5.21,0,0,1,1,.1c.18.05.42.11.72.21l.47.13a.8.8,0,0,0,.35,0l.8-.32,1.07,3-.25.16a6.68,6.68,0,0,0-1.75-2,4.13,4.13,0,0,0-2.45-.8,2.87,2.87,0,0,0-1.78.51,2.1,2.1,0,0,0-.77,1.79,2.2,2.2,0,0,0,1,1.89,8.13,8.13,0,0,0,2.32,1,8.93,8.93,0,0,1,2.84,1.15,2.7,2.7,0,0,1,1.19,2.3,3,3,0,0,1-1.12,2.51,4.19,4.19,0,0,1-2.68.79,4.8,4.8,0,0,1-1.08-.13l-.86-.24-.39-.11-.25,0a1.66,1.66,0,0,0-.61.14,2.73,2.73,0,0,0-.6.34l-1.15-3.11.34-.16a7.24,7.24,0,0,0,1.71,1.95"/><g class="cls-3"><path class="cls-2" d="M221.71,30.54a1.74,1.74,0,0,0,1.09-.27,1,1,0,0,0,.36-.85v-8.8a.93.93,0,0,0-.36-.82,1.91,1.91,0,0,0-1.09-.24v-.4h8.5l1.16,2.8-.25.16-.41-.54a6.12,6.12,0,0,0-1.27-1.36,4,4,0,0,0-2.34-.66h-1.62a1.54,1.54,0,0,0-1,.24,1,1,0,0,0-.32.82v4h2.48a1.73,1.73,0,0,0,1.32-.45,2.27,2.27,0,0,0,.46-1.6h.39v4.6h-.39a2.31,2.31,0,0,0-.46-1.59,1.7,1.7,0,0,0-1.32-.5H224.2v4.38a1,1,0,0,0,.32.85,1.5,1.5,0,0,0,1,.27H227a4.58,4.58,0,0,0,2.42-.61,7.19,7.19,0,0,0,2-2l.29.16L230.61,31h-8.9v-.42"/><path class="cls-2" d="M2.74,29.22a.11.11,0,0,0,0-.09.1.1,0,0,0,0-.08,4.77,4.77,0,0,1-.93-.69.09.09,0,0,0-.12,0A5.66,5.66,0,0,1,.07,29a.1.1,0,0,0-.07.09.1.1,0,0,0,.07.1,5.66,5.66,0,0,1,1.62.69.1.1,0,0,0,.12,0,4.39,4.39,0,0,1,.93-.69m5.45-1.4a2.39,2.39,0,0,1-.8,1,2.21,2.21,0,0,1-.73.34,2.46,2.46,0,0,1,.73.35,2.36,2.36,0,0,1,.8,1c0-.43,0-.87,0-1.31s0-.87,0-1.31m-2,1.08a2.33,2.33,0,0,0,1-.38A2,2,0,0,0,8,27.38a2.31,2.31,0,0,0-.13-1.46,1.71,1.71,0,0,0-.93-.9,1.77,1.77,0,0,0-1.32,0,1.31,1.31,0,0,0-.7.71,1.33,1.33,0,0,0,0,1,1,1,0,0,0,.55.54.9.9,0,0,0,1.19-.43l0-.09a.58.58,0,0,1-.19,0,.49.49,0,0,1,0-1,.48.48,0,0,1,.24.07.67.67,0,0,1,.29.46A1.13,1.13,0,0,1,7,27a1.22,1.22,0,0,1-1.62.6,1.3,1.3,0,0,1-.72-.72,1.62,1.62,0,0,1,.87-2.13,2,2,0,0,1,1.56,0,2,2,0,0,1,1.11,1.07,2.32,2.32,0,0,1,.17.55l0-.15c0-.12,0-.25,0-.38a6,6,0,0,0-.26-2,.34.34,0,0,1,.11-.37,5.27,5.27,0,0,0,1.37-2c.09-.23.28-.68.28-.68l0-.11a.17.17,0,0,1,.22-.08.16.16,0,0,1,.08.22,20.42,20.42,0,0,0-1.32,4.05,20.84,20.84,0,0,0,0,8.52,20.3,20.3,0,0,0,1.32,4.06.17.17,0,1,1-.3.14l0-.11-.28-.68a5.27,5.27,0,0,0-1.37-2,.35.35,0,0,1-.11-.37,6,6,0,0,0,.26-2c0-.13,0-.26,0-.39l0-.15a2.26,2.26,0,0,1-.17.56,2,2,0,0,1-1.11,1.07,2.06,2.06,0,0,1-1.56,0,1.57,1.57,0,0,1-.88-.89,1.6,1.6,0,0,1,0-1.25,1.34,1.34,0,0,1,.72-.72A1.24,1.24,0,0,1,7,31.29a1.13,1.13,0,0,1,.07.63.67.67,0,0,1-.29.46.48.48,0,0,1-.24.06A.48.48,0,0,1,6,32a.49.49,0,0,1,.49-.49.41.41,0,0,1,.19,0l0-.09A.9.9,0,0,0,5.47,31a1,1,0,0,0-.55.54,1.33,1.33,0,0,0,0,1,1.31,1.31,0,0,0,.7.71,1.73,1.73,0,0,0,1.32,0,1.66,1.66,0,0,0,.93-.89A2.32,2.32,0,0,0,8,30.89a1.92,1.92,0,0,0-.79-1.14,2.21,2.21,0,0,0-1-.38,13.42,13.42,0,0,0-1.92-.07,1.89,1.89,0,0,0-.47.06,1,1,0,0,0-.32.17c-.14.14-.07-.35,0-.4-.08,0-.15-.53,0-.4a1,1,0,0,0,.32.18,1.84,1.84,0,0,0,.47.06,13.42,13.42,0,0,0,1.92-.07"/><path class="cls-2" d="M28.8,3a.08.08,0,0,0,.08.06A.1.1,0,0,0,29,3a3.74,3.74,0,0,1,.69-.92.09.09,0,0,0,0-.12A6,6,0,0,1,29,.31a.1.1,0,0,0-.1-.07.09.09,0,0,0-.09.07,5.66,5.66,0,0,1-.69,1.62.09.09,0,0,0,0,.12A4.33,4.33,0,0,1,28.8,3m1.39,5.45a2.34,2.34,0,0,1-1-.79,2.51,2.51,0,0,1-.35-.74,2.26,2.26,0,0,1-.34.74,2.43,2.43,0,0,1-1,.79c.44,0,.87,0,1.31,0s.88,0,1.31,0m-1.08-2a2.37,2.37,0,0,0,.38,1,2.07,2.07,0,0,0,1.14.79A2.34,2.34,0,0,0,32.1,8.1,1.67,1.67,0,0,0,33,7.16a1.7,1.7,0,0,0,0-1.31,1.35,1.35,0,0,0-.71-.7,1.29,1.29,0,0,0-1,0,.94.94,0,0,0-.54.55.89.89,0,0,0,.42,1.18l.1,0a.43.43,0,0,1,0-.19.49.49,0,0,1,.49-.49.48.48,0,0,1,.48.49.48.48,0,0,1-.06.24.63.63,0,0,1-.47.28A1.09,1.09,0,0,1,31,7.2a1.23,1.23,0,0,1-.61-1.62,1.35,1.35,0,0,1,.72-.73,1.69,1.69,0,0,1,1.25,0,1.67,1.67,0,0,1,.89.88,2.06,2.06,0,0,1,0,1.56A2,2,0,0,1,32.22,8.4a2.69,2.69,0,0,1-.55.17l.15,0,.39,0a6,6,0,0,0,2-.25.38.38,0,0,1,.38.1,5.21,5.21,0,0,0,2,1.38c.22.08.67.28.67.28l.11,0a.17.17,0,0,1,.09.22.18.18,0,0,1-.22.08,20.08,20.08,0,0,0-4.06-1.32,20.39,20.39,0,0,0-8.52,0,20.08,20.08,0,0,0-4.06,1.32.16.16,0,0,1-.21-.08.16.16,0,0,1,.08-.22l.11,0s.45-.2.68-.28a5.29,5.29,0,0,0,2-1.38.36.36,0,0,1,.37-.1,6,6,0,0,0,2,.25c.13,0,.26,0,.38,0l.15,0a2.9,2.9,0,0,1-.55-.17,2,2,0,0,1-1.07-1.12,2.06,2.06,0,0,1,0-1.56,1.63,1.63,0,0,1,2.14-.87,1.35,1.35,0,0,1,.72.73,1.22,1.22,0,0,1-.61,1.62,1.09,1.09,0,0,1-.62.06A.61.61,0,0,1,25.64,7a.4.4,0,0,1-.07-.24.49.49,0,0,1,1,0,.65.65,0,0,1,0,.19l.09,0A.9.9,0,0,0,27,5.71a1,1,0,0,0-.54-.55,1.29,1.29,0,0,0-1,0,1.31,1.31,0,0,0-.71.7,1.75,1.75,0,0,0,0,1.31,1.66,1.66,0,0,0,.9.94,2.31,2.31,0,0,0,1.46.13,2.07,2.07,0,0,0,1.14-.79,2.37,2.37,0,0,0,.38-1,13.48,13.48,0,0,0,.07-1.92A1.49,1.49,0,0,0,28.65,4a.75.75,0,0,0-.17-.32c-.13-.15.36-.08.4,0,.05-.09.54-.16.4,0a.88.88,0,0,0-.17.32,1.48,1.48,0,0,0-.06.47,15.16,15.16,0,0,0,.06,1.92"/></g><path class="cls-2" d="M15.52,42.48a2.88,2.88,0,0,0-.41,0,2.68,2.68,0,0,0-.55.11,1.33,1.33,0,0,0-.49.28,1.3,1.3,0,0,0-.35.43.79.79,0,0,0-.08.53.6.6,0,0,0,.51.51.79.79,0,0,0,.53-.08,1.3,1.3,0,0,0,.43-.35,1.33,1.33,0,0,0,.28-.49,2.68,2.68,0,0,0,.11-.55,2.88,2.88,0,0,0,0-.41m26.73,0a1.89,1.89,0,0,0,0,.41,2.68,2.68,0,0,0,.11.55,1.49,1.49,0,0,0,.28.49,1.41,1.41,0,0,0,.43.35.83.83,0,0,0,.54.08.59.59,0,0,0,.33-.17.7.7,0,0,0,.18-.34.81.81,0,0,0-.09-.53,1.41,1.41,0,0,0-.34-.43,1.46,1.46,0,0,0-.5-.28,2,2,0,0,0-.55-.11,2.82,2.82,0,0,0-.4,0m0-26.73a1.81,1.81,0,0,0,.4,0,2.44,2.44,0,0,0,.55-.11,1.65,1.65,0,0,0,.5-.28,1.54,1.54,0,0,0,.34-.43.84.84,0,0,0,.09-.54.67.67,0,0,0-.51-.51.84.84,0,0,0-.54.09,1.54,1.54,0,0,0-.43.34,1.65,1.65,0,0,0-.28.5,2.44,2.44,0,0,0-.11.55,1.81,1.81,0,0,0,0,.4m-24.74-.62a3.57,3.57,0,0,1-1.69.93,3.5,3.5,0,0,1-.93,1.68c-.07.1-.15.19-.25.32A18.06,18.06,0,0,0,11.82,35a18.13,18.13,0,0,0,2.82,5.21l.25.31a3.57,3.57,0,0,1,.93,1.69,3.57,3.57,0,0,1,1.69.93l.31.25a17.95,17.95,0,0,0,11.06,3.79,17.95,17.95,0,0,0,11.06-3.79l.32-.25a3.5,3.5,0,0,1,1.68-.93,3.57,3.57,0,0,1,.93-1.69l.25-.31a18.06,18.06,0,0,0,2.82-16.91,17.87,17.87,0,0,0-2.82-5.21l-.25-.32a3.5,3.5,0,0,1-.93-1.68,3.58,3.58,0,0,1-1.68-.93l-.32-.25A18.06,18.06,0,0,0,23,12.06a18.13,18.13,0,0,0-5.21,2.82l-.31.25m-3.66.47a1.68,1.68,0,0,1-.42-.54,1.18,1.18,0,0,1-.12-.74,1,1,0,0,1,.27-.51,1,1,0,0,1,.51-.26,1.18,1.18,0,0,1,.74.11,1.68,1.68,0,0,1,.53.43,1.74,1.74,0,0,1,.34.61,2.63,2.63,0,0,1,.13.62,2.68,2.68,0,0,1,0,.4,3.49,3.49,0,0,0,1.45-.85l.32-.25a18.35,18.35,0,0,1,22.52,0l.32.25a3.52,3.52,0,0,0,1.46.85,2.67,2.67,0,0,1,0-.4,2.63,2.63,0,0,1,.13-.62,1.74,1.74,0,0,1,.34-.61,1.71,1.71,0,0,1,.54-.43,1.17,1.17,0,0,1,.74-.11.93.93,0,0,1,.77.77,1.17,1.17,0,0,1-.11.74,1.71,1.71,0,0,1-.43.54,1.74,1.74,0,0,1-.61.34,2.66,2.66,0,0,1-.61.13,2.84,2.84,0,0,1-.41,0,3.52,3.52,0,0,0,.85,1.46c.09.11.18.22.25.32a18.35,18.35,0,0,1,0,22.52c-.07.1-.16.21-.25.32a3.49,3.49,0,0,0-.85,1.45,2.88,2.88,0,0,1,.41,0,2.66,2.66,0,0,1,.61.13,1.74,1.74,0,0,1,.61.34,1.68,1.68,0,0,1,.43.53,1.18,1.18,0,0,1,.11.74,1,1,0,0,1-.26.51,1,1,0,0,1-.51.27,1.18,1.18,0,0,1-.74-.12,1.68,1.68,0,0,1-.54-.42,1.84,1.84,0,0,1-.34-.61,2.63,2.63,0,0,1-.13-.62,2.71,2.71,0,0,1,0-.4,3.52,3.52,0,0,0-1.46.85l-.32.25a18.35,18.35,0,0,1-22.52,0l-.32-.25a3.49,3.49,0,0,0-1.45-.85,2.75,2.75,0,0,1,0,.4,2.63,2.63,0,0,1-.13.62,1.84,1.84,0,0,1-.34.61,1.64,1.64,0,0,1-.53.42,1.19,1.19,0,0,1-.74.12,1,1,0,0,1-.78-.78,1.19,1.19,0,0,1,.12-.74,1.64,1.64,0,0,1,.42-.53,1.84,1.84,0,0,1,.61-.34,2.63,2.63,0,0,1,.62-.13,2.75,2.75,0,0,1,.4,0,3.49,3.49,0,0,0-.85-1.45l-.25-.32a18.36,18.36,0,0,1-2.87-17.21,18.18,18.18,0,0,1,2.87-5.31l.25-.32a3.52,3.52,0,0,0,.85-1.46,2.71,2.71,0,0,1-.4,0,2.63,2.63,0,0,1-.62-.13,1.84,1.84,0,0,1-.61-.34m-.13-.68a1.41,1.41,0,0,0,.35.43,1.49,1.49,0,0,0,.49.28,3.57,3.57,0,0,0,.55.11,1.89,1.89,0,0,0,.41,0,2.82,2.82,0,0,0,0-.4,2.44,2.44,0,0,0-.11-.55,1.46,1.46,0,0,0-.28-.5,1.41,1.41,0,0,0-.43-.34.8.8,0,0,0-.53-.09.7.7,0,0,0-.34.18.59.59,0,0,0-.17.33.83.83,0,0,0,.08.54"/><g class="cls-3"><path class="cls-2" d="M55,29a.1.1,0,0,0-.06.09.08.08,0,0,0,.06.08,4.33,4.33,0,0,1,.92.69.09.09,0,0,0,.12,0,5.66,5.66,0,0,1,1.62-.69.09.09,0,0,0,.07-.09.1.1,0,0,0-.07-.1,5.66,5.66,0,0,1-1.62-.69.11.11,0,0,0-.12,0A4,4,0,0,1,55,29m-5.45,1.4a2.43,2.43,0,0,1,.79-1,2.26,2.26,0,0,1,.74-.34,2.51,2.51,0,0,1-.74-.35,2.34,2.34,0,0,1-.79-1c0,.43,0,.87,0,1.31s0,.87,0,1.31m2-1.08a2.37,2.37,0,0,0-1,.38,2.07,2.07,0,0,0-.79,1.14,2.31,2.31,0,0,0,.13,1.46,1.66,1.66,0,0,0,.94.9,1.75,1.75,0,0,0,1.31,0,1.31,1.31,0,0,0,.7-.71,1.26,1.26,0,0,0,0-1,1,1,0,0,0-.55-.55.89.89,0,0,0-1.18.43.36.36,0,0,0,0,.09.65.65,0,0,1,.19,0,.49.49,0,0,1,0,1,.4.4,0,0,1-.24-.07.61.61,0,0,1-.28-.46,1.09,1.09,0,0,1,.06-.62,1.22,1.22,0,0,1,1.62-.61,1.35,1.35,0,0,1,.73.72,1.63,1.63,0,0,1-.87,2.14,2.06,2.06,0,0,1-1.56,0,2,2,0,0,1-1.12-1.07,2.9,2.9,0,0,1-.17-.55l0,.15c0,.13,0,.25,0,.38a6,6,0,0,0,.25,2,.36.36,0,0,1-.1.37,5.29,5.29,0,0,0-1.38,2c-.08.23-.28.68-.28.68l0,.11a.16.16,0,0,1-.22.08.16.16,0,0,1-.08-.21,20.08,20.08,0,0,0,1.32-4.06,20.39,20.39,0,0,0,0-8.52,19.88,19.88,0,0,0-1.32-4.06.18.18,0,0,1,.08-.22.16.16,0,0,1,.22.09l0,.11s.2.45.28.67a5.21,5.21,0,0,0,1.38,2,.38.38,0,0,1,.1.38,6,6,0,0,0-.25,2c0,.13,0,.26,0,.39l0,.15a2.69,2.69,0,0,1,.17-.55,2,2,0,0,1,1.12-1.08,2.06,2.06,0,0,1,1.56,0,1.67,1.67,0,0,1,.88.89,1.69,1.69,0,0,1,0,1.25,1.35,1.35,0,0,1-.73.72A1.23,1.23,0,0,1,50.8,27a1.11,1.11,0,0,1-.06-.63.63.63,0,0,1,.28-.46.48.48,0,0,1,.24-.06.49.49,0,1,1,0,1,.43.43,0,0,1-.19,0,.3.3,0,0,0,0,.1.89.89,0,0,0,1.18.42.94.94,0,0,0,.55-.54,1.29,1.29,0,0,0,0-1,1.31,1.31,0,0,0-.7-.71,1.7,1.7,0,0,0-1.31,0,1.67,1.67,0,0,0-.94.89,2.35,2.35,0,0,0-.13,1.47,2.07,2.07,0,0,0,.79,1.14,2.37,2.37,0,0,0,1,.38A15.16,15.16,0,0,0,53.5,29a1.48,1.48,0,0,0,.47-.06.88.88,0,0,0,.32-.17c.15-.14.08.35,0,.4.09,0,.16.53,0,.4a.75.75,0,0,0-.32-.17,1.49,1.49,0,0,0-.47-.07,13.48,13.48,0,0,0-1.92.07"/><path class="cls-2" d="M28.8,55.26a.11.11,0,0,1,.09,0,.12.12,0,0,1,.09,0,4.44,4.44,0,0,0,.68.93.09.09,0,0,1,0,.12A5.66,5.66,0,0,0,29,57.93a.1.1,0,0,1-.09.07.09.09,0,0,1-.09-.07,6.3,6.3,0,0,0-.69-1.62.09.09,0,0,1,0-.12,4.07,4.07,0,0,0,.69-.93m1.4-5.45a2.46,2.46,0,0,0-1,.8,2.21,2.21,0,0,0-.34.73,2.46,2.46,0,0,0-.35-.73,2.36,2.36,0,0,0-1-.8c.43,0,.87,0,1.31,0s.87,0,1.31,0m-1.08,2a2.33,2.33,0,0,1,.38-1A2,2,0,0,1,30.64,50a2.31,2.31,0,0,1,1.46.13,1.64,1.64,0,0,1,.9.93,1.77,1.77,0,0,1,0,1.32,1.29,1.29,0,0,1-1.7.69,1,1,0,0,1-.55-.55.91.91,0,0,1,.43-1.19l.09,0a.58.58,0,0,0,0,.19.48.48,0,0,0,.48.49.49.49,0,0,0,.49-.49.48.48,0,0,0-.07-.24.65.65,0,0,0-.46-.29,1.09,1.09,0,0,0-.62.07,1.21,1.21,0,0,0-.61,1.61,1.32,1.32,0,0,0,.72.73,1.6,1.6,0,0,0,1.25,0,1.63,1.63,0,0,0,.89-.88,2.1,2.1,0,0,0,0-1.56,2,2,0,0,0-1.08-1.11,2.32,2.32,0,0,0-.55-.17l.15,0,.38,0a6,6,0,0,1,2,.26.34.34,0,0,0,.37-.11,5.27,5.27,0,0,1,2-1.37l.68-.28.11,0a.17.17,0,0,0,.08-.22.15.15,0,0,0-.21-.08,20.46,20.46,0,0,1-16.64,0,.17.17,0,0,0-.22.08.17.17,0,0,0,.09.22l.11,0,.67.28a5.19,5.19,0,0,1,2,1.37.37.37,0,0,0,.38.11,6,6,0,0,1,2-.26l.39,0,.15,0a2.19,2.19,0,0,0-.55.17A2,2,0,0,0,24.47,51a2.1,2.1,0,0,0,0,1.56,1.63,1.63,0,0,0,2.14.87,1.32,1.32,0,0,0,.72-.73A1.22,1.22,0,0,0,26.73,51a1.09,1.09,0,0,0-.62-.07.67.67,0,0,0-.47.29.48.48,0,0,0-.06.24.49.49,0,1,0,1,0,.41.41,0,0,0,0-.19l.1,0A.9.9,0,0,1,27,52.53a1,1,0,0,1-.54.55,1.33,1.33,0,0,1-1,0,1.31,1.31,0,0,1-.71-.7,1.73,1.73,0,0,1,0-1.32,1.66,1.66,0,0,1,.89-.93A2.35,2.35,0,0,1,27.14,50a2,2,0,0,1,1.14.79,2.33,2.33,0,0,1,.38,1,15.1,15.1,0,0,1,.06,1.92,1.52,1.52,0,0,1-.06.47,1,1,0,0,1-.17.32c-.14.14.35.07.4,0,0,.08.53.15.4,0a1,1,0,0,1-.17-.32,1.49,1.49,0,0,1-.07-.47,13.42,13.42,0,0,1,.07-1.92"/></g><path class="cls-2" d="M27.77,23.94v.44a2.29,2.29,0,0,0-1.19.21,1.91,1.91,0,0,0-.57,1l-4,11h-.28l-4-11.26a1.27,1.27,0,0,0-.46-.66A2.43,2.43,0,0,0,16,24.38v-.44h4.35v.44a4.36,4.36,0,0,0-1.42.13c-.22.1-.26.32-.14.67l3.43,9.45,3.29-9.1c.15-.46.15-.76,0-.9A2.54,2.54,0,0,0,24,24.38v-.44h3.76"/><path class="cls-2" d="M28.85,35.83a1.76,1.76,0,0,0,1.1-.25,1,1,0,0,0,.32-.85V25.36a.92.92,0,0,0-.28-.75,2,2,0,0,0-1.14-.25v-.42h3.93v.42a1.88,1.88,0,0,0-1.11.25.87.87,0,0,0-.32.75v4.33H38V25.36a.83.83,0,0,0-.37-.75,1.79,1.79,0,0,0-1.05-.25v-.42h3.91v.42a1.88,1.88,0,0,0-1.11.25.85.85,0,0,0-.33.75v9.37a1,1,0,0,0,.33.85,1.81,1.81,0,0,0,1.11.25v.44H36.62v-.44a1.73,1.73,0,0,0,1.05-.25,1,1,0,0,0,.37-.85V30.11H31.35v4.62a1,1,0,0,0,.31.85,1.83,1.83,0,0,0,1.12.25v.44H28.85v-.44"/><g class="cls-3"><path class="cls-4" d="M65,42.66H84.12m128.62,0h19.08"/></g><polyline class="cls-2" points="92.42 44.98 92.42 40.3 92.94 40.3 92.94 44.5 94.28 44.5 94.28 44.98 92.42 44.98"/><polyline class="cls-2" points="101.36 42.37 101.36 42.84 100.21 42.84 100.21 44.5 101.62 44.5 101.62 44.98 99.69 44.98 99.69 40.3 101.62 40.3 101.62 40.77 100.21 40.77 100.21 42.37 101.36 42.37"/><rect class="cls-2" x="107.12" y="40.3" width="0.52" height="4.68"/><path class="cls-2" d="M115.25,41.43v.42h-.49V41.4c0-.42-.17-.67-.55-.67s-.55.25-.55.67v2.48c0,.42.18.67.55.67s.55-.25.55-.67v-.61h.49v.58c0,.71-.33,1.17-1,1.17s-1-.46-1-1.17V41.43c0-.71.33-1.18,1-1.18s1,.47,1,1.18"/><polyline class="cls-2" points="122.41 42.37 122.41 42.84 121.27 42.84 121.27 44.5 122.67 44.5 122.67 44.98 120.75 44.98 120.75 40.3 122.67 40.3 122.67 40.77 121.27 40.77 121.27 42.37 122.41 42.37"/><path class="cls-2" d="M130.2,41.42v.13h-.5V41.4c0-.42-.16-.67-.53-.67s-.54.25-.54.66c0,1,1.58,1.15,1.58,2.46,0,.71-.34,1.17-1.06,1.17s-1.05-.46-1.05-1.17v-.26h.49v.29c0,.42.17.67.55.67s.54-.25.54-.67c0-1-1.56-1.14-1.56-2.46,0-.72.33-1.17,1-1.17s1,.46,1,1.17"/><polyline class="cls-2" points="136.35 44.98 136.35 40.77 135.49 40.77 135.49 40.3 137.74 40.3 137.74 40.77 136.88 40.77 136.88 44.98 136.35 44.98"/><polyline class="cls-2" points="144.78 42.37 144.78 42.84 143.64 42.84 143.64 44.5 145.04 44.5 145.04 44.98 143.12 44.98 143.12 40.3 145.04 40.3 145.04 40.77 143.64 40.77 143.64 42.37 144.78 42.37"/><path class="cls-2" d="M151.59,40.3c.73,0,1,.37,1,1.07v.38c0,.51-.18.84-.58,1,.42.13.58.48.58,1v.73a1.14,1.14,0,0,0,.1.56h-.53a1.26,1.26,0,0,1-.09-.57v-.74c0-.52-.24-.69-.68-.69h-.37v2h-.52V40.3h1.05m-.14,2.21c.42,0,.66-.14.66-.65v-.44c0-.43-.15-.65-.54-.65h-.51v1.74Z"/><path class="cls-2" d="M166.27,41.42v.13h-.5V41.4c0-.42-.16-.67-.53-.67s-.54.25-.54.66c0,1,1.57,1.15,1.57,2.46,0,.71-.34,1.17-1.05,1.17s-1.05-.46-1.05-1.17v-.26h.49v.29c0,.42.17.67.54.67s.55-.25.55-.67c0-1-1.56-1.14-1.56-2.46,0-.72.33-1.17,1-1.17s1,.46,1,1.17"/><path class="cls-2" d="M173.85,41.43v2.42a1.36,1.36,0,0,1-.18.73c.06.11.14.14.29.14H174v.47h-.09a.63.63,0,0,1-.6-.31,1.06,1.06,0,0,1-.56.14c-.72,0-1.07-.46-1.07-1.17V41.43c0-.72.35-1.18,1.07-1.18s1.07.46,1.07,1.18m-1.63,0v2.48c0,.42.18.67.56.67s.55-.25.55-.67V41.4c0-.42-.17-.67-.55-.67S172.22,41,172.22,41.4Z"/><path class="cls-2" d="M179.94,43.88c0,.42.17.67.55.67s.54-.25.54-.67V40.3h.49v3.55c0,.71-.33,1.18-1.05,1.18s-1-.47-1-1.18V40.3h.51v3.58"/><path class="cls-2" d="M187.57,44l-.18.95h-.48l.9-4.68h.75l.9,4.68h-.52l-.18-.95h-1.19m.07-.44h1l-.53-2.7Z"/><path class="cls-2" d="M195.92,40.3c.74,0,1,.37,1,1.07v.38c0,.51-.18.84-.58,1,.43.13.59.48.59,1v.73a1.27,1.27,0,0,0,.09.56h-.52a1.26,1.26,0,0,1-.09-.57v-.74c0-.52-.25-.69-.68-.69h-.37v2h-.52V40.3h1m-.13,2.21c.41,0,.66-.14.66-.65v-.44c0-.43-.16-.65-.54-.65h-.51v1.74Z"/><polyline class="cls-2" points="204.19 42.37 204.19 42.84 203.05 42.84 203.05 44.5 204.45 44.5 204.45 44.98 202.53 44.98 202.53 40.3 204.45 40.3 204.45 40.77 203.05 40.77 203.05 42.37 204.19 42.37"/></svg>