<svg xmlns="http://www.w3.org/2000/svg" id="mooons-logo" class="logo" viewBox="0 0 731.25 258.01"><path d="M100.38 88a2 2 0 0 1 2.15-1.79h1.91a2.18 2.18 0 0 1 2 1.2l26.22 56.27h.36l26.22-56.27a2.05 2.05 0 0 1 2-1.2h1.9a2 2 0 0 1 2.21 1.79l14.07 80.11a2.07 2.07 0 0 1-2.15 2.74h-10.84a2.59 2.59 0 0 1-2.27-1.79l-7-45.18h-.36l-20.86 46.85a2 2 0 0 1-2 1.31h-2.14a2.16 2.16 0 0 1-2-1.31l-21.2-46.83h-.34l-6.92 45.18a2.31 2.31 0 0 1-2.15 1.79H88.46a2.18 2.18 0 0 1-2.26-2.74zM236.11 156.49a27.42 27.42 0 1 0-27.29-27.3 27.48 27.48 0 0 0 27.29 27.3m0-70.33a42.92 42.92 0 1 1-42.79 43 42.84 42.84 0 0 1 42.79-43M338 156.49a27.42 27.42 0 1 0-27.29-27.3 27.48 27.48 0 0 0 27.29 27.3m0-70.33a42.92 42.92 0 1 1-42.79 43 42.84 42.84 0 0 1 42.79-43M503.09 88.38a2.24 2.24 0 0 1 2.26-2.15h3l49.6 52.7h.05V89.69a2.27 2.27 0 0 1 2.27-2.26h11a2.34 2.34 0 0 1 2.26 2.26v80.22a2.24 2.24 0 0 1-2.26 2.15h-2.87l-49.83-54.72h-.11v51.26a2.27 2.27 0 0 1-2.26 2.27h-10.85a2.34 2.34 0 0 1-2.26-2.27zM594.32 159.19l4.29-7.39a2.75 2.75 0 0 1 4-.83c.6.35 10.26 7.38 18 7.38 6.19 0 10.84-4 10.84-9.18 0-6.07-5.13-10.24-15.14-14.31-11.2-4.52-22.41-11.67-22.41-25.74 0-10.6 7.87-22.89 26.82-22.89a42 42 0 0 1 23.84 8 3 3 0 0 1 .72 3.94L640.8 105c-.95 1.43-2.73 2.38-4.17 1.43-1-.6-10-6.56-16.56-6.56-6.8 0-10.49 4.54-10.49 8.35 0 5.6 4.41 9.41 14.07 13.35 11.55 4.65 24.91 11.57 24.91 26.94 0 12.28-10.61 23.6-27.42 23.6-15 0-23.84-7-26.23-9.29-1.08-1.08-1.67-1.67-.59-3.58M439.64 156.49a27.42 27.42 0 1 0-27.29-27.3 27.48 27.48 0 0 0 27.29 27.3m0-70.33a42.92 42.92 0 1 1-42.79 43 42.84 42.84 0 0 1 42.79-43" fill="#aa955c"/></svg>