<svg xmlns="http://www.w3.org/2000/svg" id="twa-logo" class="logo" viewBox="0 0 522.35 434.99"><path d="M324.8,344.1a223.3,223.3,0,0,1-42.35-4c34.46-16.13,63-41.44,81.93-72.46l0-.1a1.93,1.93,0,0,0,.26-.92,1.94,1.94,0,0,0-3.53-1.13s0,0-.05,0c-3.21,4.5-6.68,8.85-10.36,13H313.91c0-.09.08-.19.13-.28,1.09-2.26,1.8-4.24,2.48-5.87l2.06-5.13a1.92,1.92,0,0,0-3.54-1.48l-2.21,5.06c-.72,1.6-1.51,3.61-2.63,5.73-.32.63-.64,1.29-1,2H263.36L263,266.39a1.8,1.8,0,0,0-3.6,0l-.32,12.14h-46l-1-2c-1.11-2.12-1.9-4.13-2.62-5.73l-2.21-5.06a1.92,1.92,0,0,0-3.54,1.48l2.06,5.13c.68,1.63,1.39,3.61,2.48,5.87l.13.28H171.62a164.64,164.64,0,0,1-10.36-13s0,0-.06,0a1.91,1.91,0,0,0-1.56-.83,2,2,0,0,0-2,2,1.93,1.93,0,0,0,.26.92l0,.1c18.89,31,47.46,56.33,81.93,72.46a223.3,223.3,0,0,1-42.35,4C91.69,344.1,5.87,270.49,5.87,179.68S91.69,15.27,197.55,15.27a222.49,222.49,0,0,1,42.35,4c-34.47,16.13-63,41.44-81.93,72.46l0,.09a1.92,1.92,0,0,0,1.7,2.89,1.89,1.89,0,0,0,1.56-.84l.06,0a164.64,164.64,0,0,1,10.36-13h36.79l-.1.21c-1.09,2.25-1.8,4.24-2.48,5.87L203.77,92a1.92,1.92,0,0,0,3.54,1.49l2.21-5.06c.72-1.6,1.51-3.61,2.62-5.73.31-.61.63-1.25,1-1.9h46l.31,12.06a1.8,1.8,0,0,0,3.6,0l.31-12.06h45.91c.32.65.63,1.29.94,1.9,1.12,2.12,1.91,4.13,2.63,5.73L315,93.53A1.92,1.92,0,0,0,318.58,92l-2.06-5.12c-.68-1.63-1.39-3.62-2.48-5.87a2,2,0,0,1-.1-.21h36.79c3.68,4.2,7.15,8.55,10.36,13l.05,0a1.92,1.92,0,0,0,1.57.84,1.92,1.92,0,0,0,1.7-2.89l0-.09c-18.89-31-47.47-56.33-81.93-72.46a222.49,222.49,0,0,1,42.35-4c105.86,0,191.68,73.61,191.68,164.41S430.66,344.1,324.8,344.1M227,310.5l2.25,2.93c1.18,1.64,2.6,3.1,3.92,4.66s2.66,3.13,4.16,4.55l4.37,4.35,1.95,1.68a200.07,200.07,0,0,1-35-18.17Zm-15.18-24.69c1.45,2.68,2.87,5.68,4.66,8.69s3.6,6.23,5.82,9.36c.73,1.06,1.46,2.16,2.21,3.25H203.69a181.26,181.26,0,0,1-29-25.19H210c.57,1.25,1.18,2.56,1.86,3.89m46.52,21.3h-27.3l-1.27-1.56c-1.18-1.49-2.23-3.06-3.32-4.55-2.24-3-4.06-6.05-5.91-8.91s-3.29-5.74-4.79-8.31c-.34-.63-.66-1.25-1-1.86H259Zm48.17-23.33c-1.49,2.57-2.95,5.44-4.78,8.31s-3.67,6-5.91,8.91c-1.1,1.49-2.14,3.06-3.33,4.55l-1.26,1.56H264.1l-.66-25.19h44.09c-.31.61-.63,1.23-1,1.86m12.11,23.33H297.8c.75-1.09,1.47-2.19,2.21-3.25,2.22-3.13,4-6.36,5.82-9.36s3.2-6,4.66-8.69c.68-1.34,1.29-2.64,1.86-3.89h35.31a181.7,181.7,0,0,1-29,25.19M280.6,327l4.38-4.35c1.5-1.42,2.8-3,4.16-4.55s2.74-3,3.92-4.66l2.24-2.93h18.35a199.62,199.62,0,0,1-35,18.17L280.6,327m-22.85,4.58c-.22-.13-.44-.25-.65-.39l-2.29-1.59c-1.52-1.1-3.16-2.06-4.61-3.33l-4.5-3.66-4.27-4c-1.47-1.3-2.75-2.79-4.09-4.22-1.17-1.29-2.39-2.53-3.48-3.87h24.43Zm14.39-5.31c-1.44,1.27-3.08,2.23-4.6,3.33l-2.3,1.59c-.16.11-.34.21-.51.31l-.55-21h24.3c-1.08,1.34-2.31,2.58-3.47,3.87-1.34,1.43-2.62,2.92-4.09,4.22l-4.28,4-4.5,3.66M295.36,48.87l-2.3-3c-1.18-1.64-2.6-3.11-3.92-4.67s-2.66-3.13-4.16-4.54L280.6,32.3l-1.79-1.55a199.73,199.73,0,0,1,34.84,18.12Zm15.13,24.61c-1.46-2.68-2.87-5.67-4.66-8.68s-3.6-6.24-5.82-9.37c-.72-1-1.43-2.11-2.16-3.17h20.81a181.64,181.64,0,0,1,29,25.18H312.38c-.58-1.27-1.2-2.6-1.89-4m-46.4-21.22h27.24l1.2,1.49c1.19,1.48,2.23,3,3.33,4.54,2.24,3,4.06,6.05,5.91,8.91s3.29,5.75,4.78,8.32q.54,1,1,1.92H263.44Zm-48.3,23.26c1.5-2.57,3-5.45,4.79-8.32s3.67-6,5.91-8.91c1.09-1.49,2.14-3.06,3.32-4.54L231,52.26h27.36L259,77.44H214.78c.32-.63.66-1.27,1-1.92m-12.1-23.26H224.5c-.73,1.06-1.44,2.13-2.16,3.17-2.22,3.13-4,6.37-5.82,9.37s-3.21,6-4.66,8.68c-.69,1.36-1.31,2.69-1.89,4H174.69a181.2,181.2,0,0,1,29-25.18m38.05-20-4.37,4.36c-1.5,1.41-2.8,3-4.16,4.54s-2.74,3-3.92,4.67l-2.3,3h-18.3a200.45,200.45,0,0,1,34.84-18.12l-1.79,1.55m23-4.5c.17.11.35.2.51.32l2.3,1.58c1.52,1.1,3.16,2.07,4.6,3.34l4.5,3.65,4.28,4c1.47,1.3,2.75,2.78,4.09,4.21s2.43,2.58,3.54,3.95H264.18ZM250.2,33c1.45-1.27,3.09-2.24,4.61-3.34l2.29-1.58c.21-.15.43-.27.65-.4l.55,21.15H233.8c1.11-1.37,2.35-2.63,3.54-3.95,1.34-1.43,2.62-2.91,4.09-4.21l4.27-4L250.2,33M327.73,0a208.72,208.72,0,0,0-66.56,10.81A208.62,208.62,0,0,0,194.61,0C87.13,0,0,80.45,0,179.68S87.13,359.37,194.61,359.37a208.62,208.62,0,0,0,66.56-10.81,208.72,208.72,0,0,0,66.56,10.81c107.49,0,194.62-80.45,194.62-179.69S435.22,0,327.73,0" style="fill:#ab8c47"/><polygon points="162.61 151.61 173.96 111.16 52.35 111.16 40.99 151.61 80.86 151.61 53.73 248.2 103.19 248.2 130.31 151.61 162.61 151.61" style="fill:#d2232a"/><polygon points="324.38 111.16 297.96 163.87 296.11 111.16 253.2 111.16 222.65 169.89 221.61 111.16 176.98 111.16 179.4 248.2 225.79 248.2 257.76 187.12 259.92 248.2 300.93 248.2 372.63 111.16 324.38 111.16" style="fill:#d2232a"/><path d="M396.83,191.76l22.6-43.16v43.16Zm69.55-80.6h-75L319.63,248.21h47.64l12-23h40.14v23h46.95Z" style="fill:#d2232a"/><path d="M379.67,434.39H406.8v-6.34h-20v-39h-7.14Zm-66.11,0h29.79v-6.34H320.69V414.59H340v-6.2H320.69v-13h21.73v-6.33H313.56Zm-55.12,0h7.13v-39H279v-6.33H245v6.33h13.46Zm-58.52-5.87c-9.39,0-16-7.2-16-16.8s6.6-16.79,16-16.79,16,7.2,16,16.79-6.6,16.8-16,16.8m0,6.47c13,0,23.4-9.87,23.4-23.27s-10.4-23.26-23.4-23.26-23.39,9.87-23.39,23.26S186.93,435,199.92,435m-59.51-25.86H118.68V389.07h-7.13v45.32h7.13V415.46h21.73v18.93h7.13V389.07h-7.13Z" style="fill:#231f20"/></svg>