<svg xmlns="http://www.w3.org/2000/svg" id="snt-logo" class="logo" x="0" y="0" viewBox="0 0 399.65 124.49"><path d="M16.49,86.13q11.72,0,11.71-8a8.07,8.07,0,0,0-1-4.2,10.11,10.11,0,0,0-2.81-3,19.74,19.74,0,0,0-4.05-2.2c-1.51-.61-3.12-1.23-4.81-1.85A46.29,46.29,0,0,1,9.94,64.6a19.73,19.73,0,0,1-4.55-3,12.73,12.73,0,0,1-3-4.13,13.45,13.45,0,0,1-1.12-5.78q0-7,4.78-10.94c3.18-2.62,7.58-3.93,13.17-3.93a35,35,0,0,1,8.83,1,20.36,20.36,0,0,1,5.81,2.28l-2.38,6.08a21.46,21.46,0,0,0-4.82-2,25.94,25.94,0,0,0-7.44-1,16.38,16.38,0,0,0-4,.46,10.34,10.34,0,0,0-3.24,1.39A6.84,6.84,0,0,0,9.75,47.5a6.65,6.65,0,0,0-.81,3.35,7.08,7.08,0,0,0,.85,3.62,8.4,8.4,0,0,0,2.38,2.58,20.88,20.88,0,0,0,3.59,2c1.36.62,2.86,1.23,4.5,1.85q3.47,1.39,6.36,2.77a20.79,20.79,0,0,1,5,3.32,13.25,13.25,0,0,1,3.27,4.58A16.1,16.1,0,0,1,36.06,78q0,7-5.13,10.79T16.49,92.61a37.3,37.3,0,0,1-5.82-.43,42,42,0,0,1-4.74-1A26.42,26.42,0,0,1,2.35,90c-1-.44-1.79-.81-2.35-1.12l2.23-6.16a33.65,33.65,0,0,0,5.4,2.23A27.72,27.72,0,0,0,16.49,86.13Z" style="fill:#6c6d70"/><path d="M50.54,51.39H65.72v6H50.54V75.89a22.76,22.76,0,0,0,.46,5,7.53,7.53,0,0,0,1.39,3.08,5.08,5.08,0,0,0,2.31,1.58,10.26,10.26,0,0,0,3.24.46,15.16,15.16,0,0,0,5.2-.73l2.74-1,1.38,5.93a26.87,26.87,0,0,1-3.77,1.35,21.5,21.5,0,0,1-6.17.81,18.75,18.75,0,0,1-6.74-1,9.87,9.87,0,0,1-4.27-3.12A12.57,12.57,0,0,1,44,83,34.13,34.13,0,0,1,43.38,76V40.21L50.54,39Z" style="fill:#6c6d70"/><path d="M87,50.39a20.94,20.94,0,0,1,7.29,1.11,11.4,11.4,0,0,1,7.35,8,23.26,23.26,0,0,1,.77,6.21v25l-2.58.42c-1.1.18-2.35.35-3.73.5s-2.89.3-4.51.43-3.22.19-4.82.19a26.5,26.5,0,0,1-6.24-.69,14.16,14.16,0,0,1-4.93-2.2,10,10,0,0,1-3.23-4,13.87,13.87,0,0,1-1.16-5.93,11.39,11.39,0,0,1,1.35-5.7A10.83,10.83,0,0,1,76.2,70a17,17,0,0,1,5.39-2.15,29.56,29.56,0,0,1,6.47-.7,21.73,21.73,0,0,1,2.24.12c.77.08,1.5.18,2.19.31l1.81.34c.52.11.88.18,1.08.24v-2A16.46,16.46,0,0,0,95,62.6a8.05,8.05,0,0,0-1.39-3.09,7.14,7.14,0,0,0-2.73-2.15,10.74,10.74,0,0,0-4.51-.81,34.18,34.18,0,0,0-6.2.5,21.13,21.13,0,0,0-4,1l-.85-5.93A22.56,22.56,0,0,1,80,51,40.53,40.53,0,0,1,87,50.39Zm.62,35.9c1.7,0,3.2,0,4.51-.12a18.46,18.46,0,0,0,3.27-.42V73.81a9,9,0,0,0-2.5-.66,29.17,29.17,0,0,0-7.63,0,10.62,10.62,0,0,0-3.31,1,7.14,7.14,0,0,0-2.51,2,5.3,5.3,0,0,0-1,3.35c0,2.57.82,4.35,2.47,5.36A12.84,12.84,0,0,0,87.6,86.29Z" style="fill:#6c6d70"/><path d="M107.63,98.92a13.33,13.33,0,0,0,2.2.74,10.67,10.67,0,0,0,2.66.34,10.47,10.47,0,0,0,6.62-1.88A16.41,16.41,0,0,0,123.43,92q-4.86-9.24-9.06-19.61a170.88,170.88,0,0,1-7-21h7.71q.84,3.47,2,7.47t2.66,8.24q1.45,4.25,3.16,8.48c1.12,2.82,2.31,5.55,3.54,8.17q2.92-8.1,5.08-16t4.09-16.33h7.39q-2.76,11.32-6.16,21.76t-7.32,19.53a41.09,41.09,0,0,1-3.2,6,18,18,0,0,1-3.66,4.12,13.35,13.35,0,0,1-4.5,2.39,19.39,19.39,0,0,1-5.67.77,13.85,13.85,0,0,1-1.77-.12c-.61-.08-1.22-.18-1.81-.31s-1.13-.27-1.62-.42a7.71,7.71,0,0,1-1-.39Z" style="fill:#6c6d70"/><path d="M186.91,91.45c-1.13-1.9-2.42-4-3.89-6.39s-3-4.82-4.74-7.36S174.83,72.57,173,70s-3.64-5.14-5.43-7.58-3.55-4.74-5.24-6.9-3.27-4.06-4.7-5.7V91.45h-7.32V38.06h5.93q3.62,3.86,7.74,9t8.17,10.56q4.05,5.43,7.63,10.67t6,9.32V38.06h7.32V91.45Z" style="fill:#ee9721"/><path d="M241.31,38.06v6.47h-16.8V91.45H217V44.53h-16.8V38.06Z" style="fill:#6c6d70"/><path d="M279.06,71.42a25.24,25.24,0,0,1-1.39,8.63,19.61,19.61,0,0,1-3.89,6.62,17.11,17.11,0,0,1-6,4.28,19.75,19.75,0,0,1-15.1,0,17.11,17.11,0,0,1-6-4.28,19.61,19.61,0,0,1-3.89-6.62,27.36,27.36,0,0,1,0-17.22,19.55,19.55,0,0,1,3.89-6.67,17.08,17.08,0,0,1,6-4.27,19.75,19.75,0,0,1,15.1,0,17.08,17.08,0,0,1,6,4.27,19.55,19.55,0,0,1,3.89,6.67A25.29,25.29,0,0,1,279.06,71.42Zm-7.47,0q0-6.78-3-10.75a10.62,10.62,0,0,0-16.56,0q-3,4-3,10.75t3,10.75a10.64,10.64,0,0,0,16.56,0Q271.58,78.19,271.59,71.42Z" style="fill:#6c6d70"/><path d="M320.28,90.3c-1.64.41-3.81.84-6.51,1.31a56.28,56.28,0,0,1-9.36.69A19.8,19.8,0,0,1,296.63,91a12.63,12.63,0,0,1-5.09-3.81,15.56,15.56,0,0,1-2.77-5.82,30.12,30.12,0,0,1-.85-7.44V51.39h7.17v21q0,7.32,2.31,10.48T305.18,86c.77,0,1.57,0,2.39-.08s1.59-.11,2.31-.19l2-.23a6.17,6.17,0,0,0,1.27-.27V51.39h7.16Z" style="fill:#6c6d70"/><path d="M349.25,92.38a21.76,21.76,0,0,1-8.51-1.55,17,17,0,0,1-6.17-4.31,17.9,17.9,0,0,1-3.73-6.59,27,27,0,0,1-1.24-8.43A25.48,25.48,0,0,1,331,63a19.85,19.85,0,0,1,3.82-6.66,17.15,17.15,0,0,1,6-4.4,19.63,19.63,0,0,1,8-1.57,31.64,31.64,0,0,1,5.39.46,24.65,24.65,0,0,1,5.16,1.46l-1.61,6.09A17.64,17.64,0,0,0,354,57.16a21.68,21.68,0,0,0-4.51-.46c-4,0-7.07,1.26-9.21,3.78s-3.19,6.19-3.19,11a22.56,22.56,0,0,0,.73,5.93,12.25,12.25,0,0,0,2.31,4.62,10.27,10.27,0,0,0,4.05,3,15.48,15.48,0,0,0,6,1,22.77,22.77,0,0,0,5.16-.54A19.11,19.11,0,0,0,359,84.36l1,6a7.32,7.32,0,0,1-1.77.73,23.1,23.1,0,0,1-2.62.62c-1,.18-2,.33-3.12.46A27.48,27.48,0,0,1,349.25,92.38Z" style="fill:#6c6d70"/><path d="M366.89,91.45V32.9l7.17-1.24v20.5a24.32,24.32,0,0,1,4.27-1.2,24.83,24.83,0,0,1,4.51-.42,20.3,20.3,0,0,1,7.94,1.35,12.36,12.36,0,0,1,5,3.77,14.56,14.56,0,0,1,2.66,5.82,33.36,33.36,0,0,1,.77,7.47v22.5h-7.16v-21a34.45,34.45,0,0,0-.5-6.31,10.78,10.78,0,0,0-1.66-4.24,6.57,6.57,0,0,0-3.08-2.35,13.54,13.54,0,0,0-4.78-.73,19.79,19.79,0,0,0-2.39.15c-.82.1-1.6.22-2.35.35s-1.41.27-2,.42a11.58,11.58,0,0,0-1.27.39V91.45Z" style="fill:#6c6d70"/><circle cx="323.32" cy="11.74" r="11.74" style="fill:#ee9721"/><circle cx="294.28" cy="11.74" r="9.47" style="fill:#efac5d"/><circle cx="269.39" cy="11.74" r="7.55" style="fill:#f4c79a"/><circle cx="250.94" cy="11.74" r="3.74" style="fill:#f8dec5"/><circle cx="352.34" cy="11.74" r="9.47" style="fill:#efac5d"/><circle cx="377.92" cy="11.74" r="7.55" style="fill:#f4c79a"/><circle cx="395.92" cy="11.74" r="3.74" style="fill:#f8dec5"/><path d="M183.84,124.35l-1.09-3.16h-6.21l-1.08,3.16h-2.55l5.78-15.74h1.92l5.77,15.74Zm-4.14-12.18-2.45,7h4.84Z" style="fill:#b2b2b2"/><path d="M198.1,124.49a7.16,7.16,0,0,1-5.57-2.08l1.59-1.57a5.2,5.2,0,0,0,4,1.5c2,0,3.25-.88,3.25-2.41a2.1,2.1,0,0,0-.62-1.63,2.71,2.71,0,0,0-1.73-.67l-1.85-.26a5.43,5.43,0,0,1-3-1.26,3.94,3.94,0,0,1-1.15-3c0-2.74,2-4.62,5.26-4.62a6.56,6.56,0,0,1,4.89,1.79l-1.52,1.5a4.64,4.64,0,0,0-3.43-1.21c-1.86,0-2.88,1.06-2.88,2.45a1.87,1.87,0,0,0,.6,1.46,3.56,3.56,0,0,0,1.77.73l1.79.27a5.17,5.17,0,0,1,2.94,1.17,4.12,4.12,0,0,1,1.28,3.23C203.76,122.76,201.4,124.49,198.1,124.49Z" style="fill:#b2b2b2"/><path d="M215.75,124.35v-6.87h-6.39v6.87H207V108.61h2.39v6.72h6.39v-6.72h2.39v15.74Z" style="fill:#b2b2b2"/><path d="M222.26,124.35V108.61h2.39v15.74Z" style="fill:#b2b2b2"/><path d="M230.82,124.49A4.94,4.94,0,0,1,227,123l1.59-1.57a2.79,2.79,0,0,0,2.24,1c1.76,0,2.85-1.08,2.85-3.14V108.61h2.39v10.77A4.91,4.91,0,0,1,230.82,124.49Z" style="fill:#b2b2b2"/><path d="M240,124.35V108.61h2.39v15.74Z" style="fill:#b2b2b2"/><path d="M261.18,122.7a6,6,0,0,1-8.47.11c-1.55-1.55-1.52-3.3-1.52-6.33s0-4.77,1.52-6.32a5.67,5.67,0,0,1,4.14-1.68,5.53,5.53,0,0,1,5.72,4.88h-2.41a3.33,3.33,0,0,0-5.64-1.76c-.77.84-1,1.72-1,4.88s.18,4.07,1,4.91a3.16,3.16,0,0,0,2.33,1,3.35,3.35,0,0,0,2.56-1.1,3.55,3.55,0,0,0,.8-2.48v-.88h-3.36v-2h5.75v2.41A5.92,5.92,0,0,1,261.18,122.7Z" style="fill:#b2b2b2"/><path d="M274.8,124.35l-3.31-6.63h-3v6.63h-2.38V108.61h6.1c3,0,4.88,1.92,4.88,4.6a4.13,4.13,0,0,1-3.14,4.18l3.63,7ZM272,110.76H268.5v4.93H272a2.47,2.47,0,1,0,0-4.93Z" style="fill:#b2b2b2"/><path d="M289.84,122.81a6,6,0,0,1-8.29,0c-1.54-1.55-1.52-3.3-1.52-6.33s0-4.77,1.52-6.32a6,6,0,0,1,8.29,0c1.55,1.55,1.51,3.29,1.51,6.32S291.39,121.26,289.84,122.81ZM288,111.6a3.19,3.19,0,0,0-2.34-1,3.23,3.23,0,0,0-2.35,1c-.77.84-.92,1.72-.92,4.88s.15,4,.92,4.89a3.22,3.22,0,0,0,2.35,1,3.18,3.18,0,0,0,2.34-1c.77-.84.93-1.73.93-4.89S288.8,112.44,288,111.6Z" style="fill:#b2b2b2"/><path d="M300.28,124.49a5.33,5.33,0,0,1-5.63-5.44V108.61H297v10.33a3.27,3.27,0,1,0,6.53,0V108.61h2.38v10.44A5.35,5.35,0,0,1,300.28,124.49Z" style="fill:#b2b2b2"/><path d="M315.79,118.16h-3.58v6.19h-2.39V108.61h6a4.78,4.78,0,1,1,0,9.55Zm-.13-7.4h-3.45V116h3.45a2.62,2.62,0,1,0,0-5.24Z" style="fill:#b2b2b2"/><path d="M335.41,124.35H329V108.61h6.12c2.92,0,4.76,1.66,4.76,4.31a3.58,3.58,0,0,1-2.13,3.34,3.75,3.75,0,0,1,2.37,3.65C340.16,122.81,338.19,124.35,335.41,124.35ZM335,110.76h-3.53v4.51H335c1.53,0,2.57-.8,2.57-2.26S336.49,110.76,335,110.76Zm.22,6.65h-3.75v4.8h3.75a2.41,2.41,0,1,0,0-4.8Z" style="fill:#b2b2b2"/><path d="M352.39,124.35l-3.32-6.63h-3v6.63H343.7V108.61h6.1c3,0,4.89,1.92,4.89,4.6a4.13,4.13,0,0,1-3.14,4.18l3.63,7Zm-2.76-13.59h-3.54v4.93h3.54a2.47,2.47,0,1,0,0-4.93Z" style="fill:#b2b2b2"/><path d="M367.23,124.35l-1.08-3.16h-6.22l-1.08,3.16h-2.54l5.77-15.74H364l5.77,15.74Zm-4.13-12.18-2.46,7h4.84Z" style="fill:#b2b2b2"/><path d="M381.67,124.35l-7.27-11.07v11.07H372V108.61h2.19l7.27,11.06V108.61h2.39v15.74Z" style="fill:#b2b2b2"/><path d="M397.58,122.87a5.62,5.62,0,0,1-4.07,1.48H388V108.61h5.53a5.66,5.66,0,0,1,4.07,1.48c1.7,1.7,1.59,4,1.59,6.28S399.28,121.17,397.58,122.87Zm-1.64-11.05a3.4,3.4,0,0,0-2.68-1.06h-2.89v11.45h2.89a3.4,3.4,0,0,0,2.68-1.06c.82-.91.84-2.61.84-4.78S396.76,112.72,395.94,111.82Z" style="fill:#b2b2b2"/></svg>