<svg version="1.1" viewBox="0 0 610 161" xmlns="http://www.w3.org/2000/svg" width="610" height="161" id="snt-logo" class="logo">
<path fill="#ffffff" d="m25.2 131.6c11.9 0 17.9-4.1 17.9-12.2 0-2.6-0.5-4.7-1.6-6.5-1.1-1.7-2.5-3.3-4.3-4.6-1.8-1.2-3.9-2.4-6.2-3.3s-4.8-1.9-7.3-2.8c-3-1.1-5.8-2.2-8.5-3.5s-5-2.8-7-4.6c-1.9-1.8-3.5-3.9-4.6-6.3s-1.7-5.4-1.7-8.8c0-7.2 2.4-12.7 7.3-16.7 4.8-4 11.6-6 20.1-6 5 0 9.4 0.5 13.5 1.5 4 1.1 7 2.3 8.9 3.5l-3.7 9.3c-1.6-1-4.1-2-7.3-3-3.3-1-7.1-1.5-11.4-1.5-2.2 0-4.2 0.3-6.1 0.8-1.9 0.4-3.5 1.1-5 2.1-1.4 0.9-2.5 2.1-3.3 3.6-0.8 1.4-1.2 3.1-1.2 5.1 0 2.2 0.4 4 1.2 5.5 0.9 1.5 2.1 2.8 3.7 4 1.6 1.1 3.4 2.1 5.5 3.1 2 0.9 4.3 1.9 6.9 2.8 3.5 1.4 6.7 2.8 9.7 4.2 2.9 1.5 5.5 3.1 7.6 5.1 2.2 2 3.8 4.3 5 7s1.8 6 1.8 9.8c0 7.2-2.6 12.7-7.8 16.5-5.3 3.9-12.6 5.8-22.1 5.8-3.2 0-6.2-0.2-8.9-0.7-2.7-0.4-5.1-0.9-7.2-1.5-2.2-0.6-4-1.2-5.5-1.9-1.5-0.6-2.7-1.2-3.6-1.7l3.4-9.4c1.8 1 4.6 2.2 8.3 3.4 3.6 1.3 8.2 1.9 13.5 1.9z"/>
<path fill="#ffffff" d="m77.2 78.5h23.2v9.2h-23.2v28.2c0 3.1 0.3 5.6 0.7 7.6 0.5 2 1.2 3.6 2.1 4.7 1 1.2 2.2 2 3.6 2.5 1.4 0.4 3 0.7 4.9 0.7 3.3 0 6-0.4 8-1.2 2-0.7 3.4-1.2 4.1-1.5l2.2 9c-1.1 0.6-3.1 1.3-5.8 2.1-2.8 0.8-5.9 1.2-9.4 1.2-4.2 0-7.6-0.5-10.3-1.6-2.7-1-4.9-2.6-6.6-4.7-1.6-2.2-2.8-4.8-3.4-7.9-0.7-3.1-1-6.7-1-10.7v-54.7l10.9-1.8z"/>
<path fill="#ffffff" d="m133.8 131.8c2.6 0 4.9 0 6.9-0.1 2-0.2 3.7-0.4 5-0.7v-18.2c-0.8-0.4-2-0.8-3.8-1-1.8-0.3-3.9-0.5-6.4-0.5-1.7 0-3.4 0.2-5.3 0.4-1.8 0.2-3.5 0.7-5 1.5-1.5 0.7-2.8 1.7-3.8 3-1.1 1.3-1.6 3-1.6 5.2 0 3.9 1.3 6.6 3.8 8.1 2.5 1.6 5.9 2.3 10.2 2.3m-0.9-54.8c4.4 0 8.1 0.5 11.1 1.7 3 1.1 5.5 2.7 7.3 4.8 1.9 2.1 3.2 4.6 4 7.4 0.7 2.9 1.1 6 1.1 9.5v38.3c-0.9 0.1-2.2 0.3-3.9 0.6s-3.6 0.5-5.7 0.8c-2.1 0.2-4.4 0.4-6.9 0.6s-4.9 0.3-7.4 0.3c-3.4 0-6.6-0.3-9.5-1-2.9-0.8-5.4-1.9-7.5-3.4s-3.8-3.6-5-6.1c-1.1-2.5-1.7-5.5-1.7-9 0-3.4 0.6-6.3 2-8.7 1.4-2.5 3.3-4.4 5.6-5.9 2.4-1.5 5.1-2.6 8.3-3.3 3.1-0.7 6.4-1.1 9.8-1.1 1.1 0 2.3 0.1 3.5 0.2 1.1 0.1 2.3 0.3 3.3 0.5 1.1 0.2 2 0.3 2.8 0.5s1.3 0.3 1.6 0.4v-3.1c0-1.8-0.2-3.6-0.6-5.4-0.4-1.7-1.1-3.3-2.1-4.7-1-1.3-2.4-2.4-4.2-3.3-1.7-0.8-4-1.2-6.8-1.2-3.7 0-6.8 0.2-9.5 0.8-2.7 0.5-4.8 1-6.1 1.5l-1.3-9c1.4-0.6 3.8-1.3 7.1-1.8 3.3-0.6 6.8-0.9 10.7-0.9z"/>
<path fill="#ffffff" d="m164.4 151.1c0.9 0.4 2 0.8 3.4 1.2 1.4 0.3 2.7 0.5 4.1 0.5 4.3 0 7.6-1 10.1-2.9 2.4-1.9 4.6-5 6.6-9.4-5-9.4-9.6-19.4-13.9-29.9-4.2-10.6-7.8-21.3-10.6-32.1h11.8c0.8 3.5 1.9 7.3 3.1 11.4s2.5 8.3 4 12.6 3.1 8.7 4.9 13c1.7 4.3 3.5 8.4 5.4 12.4 3-8.2 5.5-16.4 7.7-24.4 2.2-8.1 4.3-16.4 6.3-25h11.3c-2.8 11.5-6 22.6-9.4 33.3-3.5 10.6-7.2 20.5-11.2 29.8-1.6 3.5-3.2 6.6-4.9 9.1-1.7 2.6-3.5 4.7-5.6 6.3-2 1.7-4.3 2.9-6.9 3.7-2.5 0.8-5.4 1.1-8.6 1.1-0.9 0-1.8 0-2.7-0.1-1-0.1-1.9-0.3-2.8-0.5s-1.7-0.4-2.5-0.6c-0.7-0.3-1.2-0.5-1.6-0.6z"/>
<path fill="#ffffff" d="m285.6 139.7c-1.8-2.9-3.7-6.1-6-9.8-2.2-3.6-4.6-7.3-7.2-11.2s-5.3-7.8-8.1-11.8-5.5-7.9-8.3-11.6c-2.7-3.7-5.4-7.3-8-10.6-2.6-3.2-5-6.2-7.2-8.7v63.7h-11.2v-81.6h9.1c3.7 4 7.6 8.5 11.8 13.8 4.2 5.2 8.4 10.6 12.5 16.1s8 10.9 11.7 16.3c3.6 5.3 6.7 10.1 9.2 14.2v-60.4h11.2v81.6z"/>
<path fill="#ffffff" d="M368.7,58.1V68H343v71.7H331.6V68H305.9V58.1Z"/>
<path fill="#ffffff" d="m414.9 109.1c0-6.9-1.5-12.4-4.6-16.4s-7.3-6.1-12.7-6.1c-5.3 0-9.5 2.1-12.6 6.1s-4.7 9.5-4.7 16.4 1.6 12.4 4.7 16.4c3.1 4.1 7.3 6.1 12.6 6.1 5.4 0 9.6-2 12.7-6.1 3.1-4 4.6-9.5 4.6-16.4m11.4 0c0 4.9-0.7 9.3-2.1 13.2s-3.4 7.3-5.9 10.1c-2.6 2.8-5.6 5-9.1 6.6-3.6 1.5-7.4 2.2-11.6 2.2-4.1 0-8-0.7-11.5-2.2-3.5-1.6-6.6-3.8-9.1-6.6-2.6-2.8-4.6-6.2-6-10.1s-2.1-8.3-2.1-13.2c0-4.8 0.7-9.1 2.1-13.1s3.4-7.4 6-10.2c2.5-2.8 5.6-5 9.1-6.5 3.5-1.6 7.4-2.3 11.5-2.3 4.2 0 8 0.7 11.6 2.3 3.5 1.5 6.5 3.7 9.1 6.5 2.5 2.8 4.5 6.2 5.9 10.2s2.1 8.3 2.1 13.1z"/>
<path fill="#ffffff" d="m489.3 138c-2.5 0.6-5.8 1.2-9.9 2-4.1 0.7-8.9 1-14.3 1-4.7 0-8.7-0.7-11.9-2-3.2-1.4-5.8-3.4-7.8-5.9-1.9-2.5-3.4-5.4-4.2-8.9-0.9-3.4-1.3-7.2-1.3-11.3v-34.4h10.9v32c0 7.5 1.2 12.8 3.6 16 2.3 3.3 6.3 4.9 11.8 4.9 1.2 0 2.4-0.1 3.7-0.2 1.3 0 2.4-0.1 3.5-0.3 1.1-0.1 2.1-0.2 3-0.3s1.6-0.3 2-0.4v-51.7h10.9z"/>
<path fill="#ffffff" d="m533.6 141.1c-5 0-9.3-0.8-13-2.3-3.8-1.6-6.9-3.8-9.4-6.6-2.6-2.8-4.5-6.2-5.8-10.1-1.2-3.9-1.8-8.2-1.8-12.9s0.6-9 2-12.9 3.3-7.3 5.8-10.2c2.6-2.9 5.6-5.1 9.3-6.7 3.6-1.6 7.7-2.4 12.2-2.4 2.7 0 5.5 0.2 8.2 0.7 2.8 0.5 5.4 1.2 7.9 2.2l-2.5 9.3c-1.6-0.8-3.5-1.4-5.7-1.9-2.1-0.4-4.4-0.7-6.9-0.7-6.1 0-10.8 2-14 5.8-3.3 3.8-4.9 9.5-4.9 16.8 0 3.3 0.4 6.3 1.1 9.1 0.7 2.7 1.9 5.1 3.5 7.1 1.6 1.9 3.7 3.4 6.2 4.5 2.5 1 5.6 1.6 9.2 1.6 2.9 0 5.5-0.3 7.9-0.8 2.3-0.6 4.2-1.2 5.5-1.8l1.5 9.2c-0.6 0.4-1.5 0.7-2.7 1.1-1.1 0.3-2.5 0.7-4 0.9-1.5 0.3-3 0.5-4.7 0.7s-3.4 0.3-4.9 0.3z"/>
<path fill="#ffffff" d="m560.5 139.7v-89.4l11-1.9v31.3c2-0.8 4.2-1.4 6.5-1.8 2.3-0.5 4.6-0.7 6.9-0.7 4.9 0 8.9 0.7 12.1 2.1 3.2 1.3 5.8 3.3 7.7 5.7 2 2.5 3.3 5.5 4.1 8.9 0.8 3.5 1.2 7.3 1.2 11.4v34.4h-11v-32c0-3.8-0.2-7-0.7-9.7-0.6-2.6-1.4-4.8-2.6-6.4-1.1-1.7-2.7-2.9-4.7-3.6-1.9-0.8-4.4-1.1-7.3-1.1-1.2 0-2.4 0-3.6 0.2-1.3 0.2-2.5 0.3-3.6 0.5-1.2 0.2-2.2 0.4-3.1 0.7-0.9 0.2-1.5 0.4-1.9 0.6v50.8z"/>
<path fill="#ffffff" d="m511.9 17.9c0 9.9-8 18-17.9 18s-18-8.1-18-18 8.1-17.9 18-17.9 17.9 8 17.9 17.9z"/>
<path fill="#ffffff" d="m464.1 17.9c0 8-6.5 14.5-14.5 14.5s-14.5-6.5-14.5-14.5 6.5-14.4 14.5-14.4 14.5 6.4 14.5 14.4z"/>
<path fill="#ffffff" d="m423.1 17.9c0 6.4-5.2 11.6-11.5 11.6-6.4 0-11.6-5.2-11.6-11.6 0-6.3 5.2-11.5 11.6-11.5 6.3 0 11.5 5.2 11.5 11.5z"/>
<path fill="#ffffff" d="m389.1 17.9c0 3.2-2.6 5.7-5.7 5.7-3.2 0-5.7-2.5-5.7-5.7 0-3.1 2.5-5.7 5.7-5.7 3.1 0 5.7 2.6 5.7 5.7z"/>
<path fill="#ffffff" d="m552.8 17.9c0 8-6.5 14.5-14.5 14.5s-14.5-6.5-14.5-14.5 6.5-14.4 14.5-14.4 14.5 6.4 14.5 14.4z"/>
<path fill="#ffffff" d="m588.9 17.9c0 6.4-5.2 11.6-11.5 11.6-6.4 0-11.6-5.2-11.6-11.6 0-6.3 5.2-11.5 11.6-11.5 6.3 0 11.5 5.2 11.5 11.5z"/>
<path fill="#ffffff" d="m610.6 17.9c0 3.2-2.6 5.7-5.7 5.7-3.2 0-5.7-2.5-5.7-5.7 0-3.1 2.5-5.7 5.7-5.7 3.1 0 5.7 2.6 5.7 5.7z"/>
</svg>