<svg id="first-logo" class="logo" xmlns="http://www.w3.org/2000/svg" viewBox="0 0 435 86"><path   d="M26.88,44.68V69.09c.18,2.57,1.56,3.58,4.4,3.86v1.28H14.21V73c2.57-.28,3.86-1.29,4-3.86V17c-.18-2.57-1.47-3.58-4-3.85V11.82h37l1.93,10.46-1.2.46c-2-3.67-3.85-6-10.37-6.33H26.88V40.09H40c4.77-.28,5.33-.83,7.34-3.3h.83v11l-.92.37c-1.65-2.67-3.49-3.49-7.34-3.49Z"/><path   d="M64.78,17c-.18-2.57-1.47-3.58-4-3.85V11.82H77.45v1.29c-2.57.27-3.86,1.28-4,3.85V69.09c.18,2.57,1.47,3.58,4,3.86v1.28H60.74V73c2.57-.28,3.86-1.29,4-3.86Z"/><path   d="M169.05,12.74l1.74,9.54-1.19.46a13.33,13.33,0,0,0-12.49-7.43c-5.5,0-10.46,2.48-10.46,8.72,0,14,26.62,15.6,26.62,33.22,0,10.83-8.91,18.36-23.22,18.36a39.17,39.17,0,0,1-15.88-2.94c-8.9-3.67-15.42-9.54-26.62-24.6h-7.34v21c.18,2.57,1.56,3.58,4.41,3.86v1.28H87.55V73c2.56-.28,3.85-1.29,4-3.86V17c-.18-2.57-1.47-3.58-4-3.85V11.82H111c10.37,0,19.46,4.59,19.46,16.8,0,6.79-5.6,14.59-13.4,17.34,12.39,18.08,20,26,33,26,12,0,15.14-7.35,15.14-12.49,0-12.94-26.25-16-26.25-33,0-9.63,8-15.69,18.45-15.69A32.89,32.89,0,0,1,169.05,12.74ZM105.44,43.58c10,0,16.34-5,16.34-13.22,0-10.1-5.32-14.13-14.41-14.13a38.13,38.13,0,0,0-7.16.55v26.8Z"/><path   d="M193.28,74.23V73c2.84-.28,4.22-1.29,4.4-3.86V16.41H189c-6.51.28-8.35,2.66-10.37,6.33l-1.19-.46,1.93-10.46h45.34l1.92,10.46-1.19.46c-2-3.67-3.85-6-10.37-6.33h-8.72V69.09c.18,2.57,1.56,3.58,4.41,3.86v1.28Z"/><path   d="M264,74.27h-3.69V62.39H246.51V74.27h-3.68V48.08h3.68V59.21h13.76V48.08H264Z"/><path   d="M277.21,61.16c0-7.91,4.73-13.55,12.28-13.55s12.28,5.64,12.28,13.55S297,74.74,289.49,74.74,277.21,69.07,277.21,61.16Zm20.8,0c0-6.76-3.75-10.44-8.52-10.44S281,54.4,281,61.16s3.75,10.47,8.52,10.47S298,67.91,298,61.16Z"/><path   d="M312.17,51.26V48.08H332.9v3.18h-8.52v23h-3.69v-23Z"/><path   d="M363.7,48.08v3.18H349.62v8h13.25v3.18H349.62v8.7H363.7v3.18H345.94V48.08Z"/><path   d="M395.52,71.09v3.18H378V48.08h3.69v23Z"/><path   d="M425.06,54.76h-3.57c-.91-3-3.87-4-6.5-4-2,0-5.57.9-5.57,3.83,0,2.31,1.85,3.46,4.27,4l3,.68c4,.87,8.81,2.39,8.81,7.66s-4.76,7.84-10,7.84c-6.17,0-10.07-3.36-10.76-8.6h3.61c.69,3.61,3.22,5.49,7.23,5.49s6.1-1.84,6.1-4.41c0-2.74-2.35-3.9-5.63-4.62l-3.25-.68c-3.58-.8-7.19-2.78-7.19-7.16,0-5,5.23-7.15,9.46-7.15C419.83,47.61,424.05,49.71,425.06,54.76Z"/></svg>