<svg xmlns="http://www.w3.org/2000/svg" id="bunk-logo" class="logo" x="0" y="0" viewBox="0 0 1495.37 860"><path d="M1410.31,44.78a46.46,46.46,0,0,1,5.61-22.47A41.83,41.83,0,0,1,1431.42,6a41.47,41.47,0,0,1,42.84,0,41.92,41.92,0,0,1,15.51,16.32,46.45,46.45,0,0,1,5.6,22.47A46.82,46.82,0,0,1,1489.92,67a42.73,42.73,0,0,1-15.37,16.51,41.17,41.17,0,0,1-43.42,0A42.73,42.73,0,0,1,1415.76,67,46.7,46.7,0,0,1,1410.31,44.78Zm5.1,0a41.36,41.36,0,0,0,5,20,37.75,37.75,0,0,0,13.73,14.54,35.67,35.67,0,0,0,37.45,0,37.3,37.3,0,0,0,13.7-14.56,41.78,41.78,0,0,0,4.94-19.94,41.35,41.35,0,0,0-4.85-19.66,37.65,37.65,0,0,0-13.57-14.51,36,36,0,0,0-37.74-.08,37.49,37.49,0,0,0-13.68,14.44A40.77,40.77,0,0,0,1415.41,44.74Zm27.73,3.74V69.21h-5.87V19h15.45q8.8,0,13.54,3.68c3.15,2.46,4.74,6.17,4.74,11.16,0,5.3-2.82,9.24-8.46,11.78a10.26,10.26,0,0,1,6,4.84,16.93,16.93,0,0,1,1.68,7.82,63.34,63.34,0,0,0,.24,6.6,13,13,0,0,0,.79,3.41v1h-6.13c-.56-1.45-.82-5.09-.82-10.94,0-3.56-.76-6.08-2.25-7.57s-4-2.22-7.64-2.22Zm0-5.38H1454a12.36,12.36,0,0,0,8-2.53,8,8,0,0,0,3.14-6.64c0-3.4-.86-5.82-2.59-7.28s-4.73-2.23-9-2.31h-10.42Z" fill="#000"/><path d="M487.14,857.94H474.39V786.2H388.87v71.74H376.23V708.29h12.64v67.22h85.52V708.29h12.75Z" fill="#000"/><path d="M635.77,791.23q0,20.67-7.15,36.29t-20.4,24.05Q595,860,577.59,860q-26.21,0-42.35-18.76T519.1,790.62V775.2q0-20.46,7.25-36.23t20.51-24.26q13.26-8.48,30.52-8.48t30.48,8.33a54.6,54.6,0,0,1,20.4,23.53q7.2,15.23,7.51,35.26ZM623.12,775q0-27-12.23-42.34t-33.51-15.32q-20.86,0-33.25,15.37t-12.38,42.91v15.62q0,26.63,12.33,42.2T577.59,849q21.48,0,33.51-15.37t12-42.81Z" fill="#000"/><path d="M766.41,719H715.12v139H702.48V719H651.29V708.29H766.41Z" fill="#000"/><path d="M873.2,786.2h-70v61h80.49v10.69H790.56V708.29h92.61V719h-80v56.53h70Z" fill="#000"/><path d="M923.05,847.25H997v10.69H910.31V708.29h12.74Z" fill="#000"/><path d="M1105.91,821.15q0-12.43-8.74-19.69t-32-13.77q-23.24-6.53-33.92-14.24-15.21-10.89-15.21-28.57,0-17.18,14.13-27.91t36.13-10.74A59.91,59.91,0,0,1,1093,712a43.61,43.61,0,0,1,18.25,16,42.18,42.18,0,0,1,6.47,22.92H1105q0-15.36-10.49-24.69t-28.16-9.33q-17.17,0-27.34,7.67t-10.18,20a22.66,22.66,0,0,0,9.15,18.64q9.15,7.2,29.29,12.71t30.53,11.42q10.38,5.91,15.62,14.13a35.35,35.35,0,0,1,5.25,19.43q0,17.68-14.14,28.37T1067.26,860a73,73,0,0,1-29-5.66q-13.21-5.64-20.05-15.82a40.85,40.85,0,0,1-6.83-23.34H1024q0,15.84,11.82,25t31.45,9.15q17.48,0,28.06-7.71T1105.91,821.15Z" fill="#000"/><path d="M263.14,302.61q41.64-14,65.59-46.53t23.94-76.54q0-73.23-47.11-110.81T167.38,31.14H0V597.9H189.57q86.42,0,134.88-42.22t48.46-117.29q0-49.41-30.17-87.14t-79.6-48.64M47.88,71.62h119.5q68.91,0,103,25.93t34.05,80.53q0,51.87-32.89,79t-92.83,28.27H47.88ZM289,526.13q-36,31.29-97.5,31.28H47.88V325.8H195.41q60.72,0,95.17,30.51t34.44,83q0,55.56-36,86.85" fill="#000"/><polygon points="1300.65 354.22 1479.32 176.72 1420.54 176.72 1259.39 335.15 1215.41 382.64 1215.41 0 1168.69 0 1168.69 597.89 1215.41 597.89 1215.41 437.13 1268.73 385.75 1439.22 597.89 1494.89 597.89 1300.65 354.22" fill="#000"/><path d="M927.88,168.94q-91.46,0-133.55,60s0,0,0,.06V176.72H747.63V481.5q-26.83,83.71-128.06,83.71-97.3,0-97.32-120.31V176.72H475.93v274q.78,76.71,35.83,115.81t102.38,39.12q91.35,0,133.49-60v52.17h46.7V293.12q26.91-83.71,128.07-83.71,97.32,0,97.32,120.3V597.89h46.33v-274q-.79-76.69-35.8-115.8T927.88,168.94" fill="#000"/></svg>