<svg xmlns="http://www.w3.org/2000/svg" id="clarion-logo" class="logo" viewBox="0 0 388.78 254.3"><path d="M1.92,157.05V157a11.53,11.53,0,0,1,11.75-11.78,11.88,11.88,0,0,1,8.92,3.54l-2.57,3a9.06,9.06,0,0,0-6.38-2.84c-4.33,0-7.52,3.59-7.52,8V157c0,4.46,3.16,8.07,7.52,8.07,2.8,0,4.59-1.11,6.54-2.93l2.57,2.6a11.74,11.74,0,0,1-9.24,4A11.46,11.46,0,0,1,1.92,157.05Z" style="fill:#1e191d"/><path d="M27,145.6h4v19.13h12v3.65H27Z" style="fill:#1e191d"/><path d="M55.16,145.44h3.72l10,22.94H64.67l-2.31-5.5H51.58l-2.34,5.5h-4.1Zm5.73,13.89L57,150.22l-3.9,9.11Z" style="fill:#1e191d"/><path d="M72.8,145.6H83a9.13,9.13,0,0,1,6.57,2.28,6.85,6.85,0,0,1,1.89,4.91v.06c0,3.75-2.25,6-5.4,6.91l6.15,8.62H87.42l-5.6-7.94h-5v7.94h-4Zm9.87,11.29c2.86,0,4.68-1.5,4.68-3.81V153c0-2.44-1.76-3.78-4.72-3.78H76.81v7.65Z" style="fill:#1e191d"/><path d="M96.56,145.6h4v22.78h-4Z" style="fill:#1e191d"/><path d="M105.64,157.05V157a11.92,11.92,0,0,1,23.83-.07V157a11.92,11.92,0,0,1-23.83.06Zm19.63,0V157a7.81,7.81,0,0,0-7.75-8.11,7.7,7.7,0,0,0-7.68,8V157a7.77,7.77,0,0,0,7.75,8.07A7.67,7.67,0,0,0,125.27,157.05Z" style="fill:#1e191d"/><path d="M134.31,145.6H138l12.21,15.75V145.6h3.94v22.78h-3.36l-12.56-16.21v16.21h-3.94Z" style="fill:#1e191d"/><path d="M168.78,157.05V157a11.53,11.53,0,0,1,11.75-11.78,11.9,11.9,0,0,1,8.92,3.54l-2.58,3a9,9,0,0,0-6.37-2.84c-4.33,0-7.52,3.59-7.52,8V157c0,4.46,3.15,8.07,7.52,8.07,2.79,0,4.58-1.11,6.54-2.93l2.57,2.6a11.75,11.75,0,0,1-9.25,4A11.46,11.46,0,0,1,168.78,157.05Z" style="fill:#1e191d"/><path d="M192.15,157.05V157a11.91,11.91,0,0,1,23.82-.07V157A11.68,11.68,0,0,1,204,168.77,11.56,11.56,0,0,1,192.15,157.05Zm19.62,0V157a7.81,7.81,0,0,0-7.75-8.11,7.7,7.7,0,0,0-7.68,8V157a7.78,7.78,0,0,0,7.75,8.07A7.67,7.67,0,0,0,211.77,157.05Z" style="fill:#1e191d"/><path d="M220.82,145.6h4v19.13h12v3.65h-16Z" style="fill:#1e191d"/><path d="M241,145.6h4v19.13h12v3.65H241Z" style="fill:#1e191d"/><path d="M261.11,145.6H278v3.58H265.11v5.92h11.43v3.58H265.11v6.12h13.05v3.58H261.11Z" style="fill:#1e191d"/><path d="M281.9,157.05V157a11.53,11.53,0,0,1,11.75-11.78,11.88,11.88,0,0,1,8.92,3.54l-2.57,3a9,9,0,0,0-6.38-2.84c-4.33,0-7.52,3.59-7.52,8V157c0,4.46,3.16,8.07,7.52,8.07,2.8,0,4.59-1.11,6.54-2.93l2.57,2.6a11.73,11.73,0,0,1-9.24,4A11.46,11.46,0,0,1,281.9,157.05Z" style="fill:#1e191d"/><path d="M312.53,149.31H305.3V145.6h18.49v3.71h-7.22v19.07h-4Z" style="fill:#1e191d"/><path d="M328.25,145.6h4v22.78h-4Z" style="fill:#1e191d"/><path d="M337.33,157.05V157a11.91,11.91,0,0,1,23.82-.07V157a11.91,11.91,0,0,1-23.82.06Zm19.62,0V157a7.81,7.81,0,0,0-7.74-8.11,7.7,7.7,0,0,0-7.68,8V157a7.77,7.77,0,0,0,7.74,8.07A7.67,7.67,0,0,0,357,157.05Z" style="fill:#1e191d"/><path d="M366,145.6h3.71l12.21,15.75V145.6h3.93v22.78H382.5l-12.56-16.21v16.21H366Z" style="fill:#1e191d"/><path d="M124.65,184.65h10.22a8.26,8.26,0,0,1,6,2,5.11,5.11,0,0,1,1.53,3.78v.06a5.44,5.44,0,0,1-3.26,5.08c2.67.91,4.53,2.44,4.53,5.53v.07c0,4.06-3.36,6.25-8.43,6.25H124.65Zm13.7,6.45c0-1.79-1.43-2.9-4-2.9h-5.76v6.05h5.47c2.57,0,4.29-1,4.29-3.09Zm-3.41,6.54h-6.35v6.25h6.64c2.73,0,4.39-1.08,4.39-3.13v-.06C139.62,198.78,138.09,197.64,134.94,197.64Z" style="fill:#1e191d"/><path d="M148.15,184.65H158.3a9.2,9.2,0,0,1,6.58,2.28,6.92,6.92,0,0,1,1.89,4.92v.06c0,3.74-2.25,6-5.41,6.9l6.15,8.63h-4.75l-5.6-7.95h-5v7.95h-4ZM158,196c2.86,0,4.69-1.5,4.69-3.81v-.07c0-2.44-1.76-3.77-4.72-3.77h-5.83V196Z" style="fill:#1e191d"/><path d="M171.91,184.65h4v22.79h-4Z" style="fill:#1e191d"/><path d="M180.46,204.12l2.41-2.87a10.55,10.55,0,0,0,7.2,3c2.47,0,4-1.17,4-2.86v-.07c0-1.62-.91-2.5-5.14-3.48-4.85-1.17-7.58-2.6-7.58-6.8v-.07c0-3.9,3.25-6.6,7.77-6.6a12.66,12.66,0,0,1,8.27,2.86l-2.15,3a10.35,10.35,0,0,0-6.18-2.35c-2.34,0-3.71,1.21-3.71,2.71v.06c0,1.76,1,2.54,5.43,3.58,4.82,1.17,7.3,2.9,7.3,6.67V201c0,4.26-3.36,6.8-8.14,6.8A14.06,14.06,0,0,1,180.46,204.12Z" style="fill:#1e191d"/><path d="M207.93,188.36H200.7v-3.71h18.49v3.71H212v19.08h-4Z" style="fill:#1e191d"/><path d="M221.17,196.11V196A11.92,11.92,0,0,1,245,196V196a11.92,11.92,0,0,1-23.83.07Zm19.63,0V196a7.81,7.81,0,0,0-7.75-8.1c-4.52,0-7.68,3.61-7.68,8V196a7.78,7.78,0,0,0,7.75,8.08A7.68,7.68,0,0,0,240.8,196.11Z" style="fill:#1e191d"/><path d="M249.84,184.65h4v19.14h12v3.65h-16Z" style="fill:#1e191d"/><path d="M249.66,117.92a1.71,1.71,0,1,1,1.71,1.76A1.69,1.69,0,0,1,249.66,117.92Zm1.71,2.1a2.09,2.09,0,1,0-2.13-2.1A2.09,2.09,0,0,0,251.37,120Zm-.44-1.93h.42l.63,1h.41l-.68-1.06a.64.64,0,0,0,.62-.67c0-.48-.28-.69-.85-.69h-.92v2.42h.37Zm0-.31V117h.5c.25,0,.52.06.52.36s-.27.39-.58.39Z" style="fill:#8e172f"/><path d="M106.73,234.57h-3.91v-1.31h.52v-7.34h-.52v-1.36h3.77c.91,0,3.18.31,3.18,2.49a2.24,2.24,0,0,1-1.64,2.3,2.65,2.65,0,0,1,2.1,2.7C110.23,234.35,107.8,234.57,106.73,234.57Zm-.39-8.67h-1.16v2.81h1.25a1.35,1.35,0,0,0,1.5-1.45C107.93,226.12,106.93,225.9,106.34,225.9Zm.09,4.24h-1.25v3.16h1.18c.84,0,1.93-.22,1.93-1.59S107,230.14,106.43,230.14Z" style="fill:#120c13"/><path d="M119.84,230.17v4.4H118v-4.29l-3.09-5.72h1.92l2.07,3.9,2.07-3.9h1.93Z" style="fill:#120c13"/><path d="M142.2,234.57l-3.47-7.11v7.11h-1.68v-10h2l3.11,6.42v-6.42h1.7v10Z" style="fill:#120c13"/><path d="M153.47,234.73a3.57,3.57,0,0,1-2.45-.93c-.89-.86-1.32-2.27-1.32-4.22s.41-3.36,1.32-4.21a3.44,3.44,0,0,1,2.45-.93,3.56,3.56,0,0,1,2.4.89c.92.87,1.35,2.34,1.35,4.41C157.22,232.94,155.94,234.73,153.47,234.73Zm0-8.9c-1.34,0-1.84,1.11-1.84,3.75s.57,3.74,1.84,3.74,1.82-.93,1.82-3.63S154.81,225.83,153.47,225.83Z" style="fill:#120c13"/><path d="M168.14,234.64l-1.73-4.47a2.49,2.49,0,0,1-.36,0h-1.18v4.38H163v-10h3.29c1.23,0,3.46.11,3.46,2.7a2.57,2.57,0,0,1-1.66,2.54l1.93,4.62Zm-2.07-8.76h-1.2v3h1.34c.88,0,1.68-.25,1.68-1.5S166.84,225.88,166.07,225.88Z" style="fill:#120c13"/><path d="M175.64,233.26h.52v-7.34h-.52v-1.36h3.45c1.38,0,4,.36,4,5.13,0,2.13-.69,4.88-4.32,4.88h-3.17ZM179,225.9H178v7.31h.82a2.27,2.27,0,0,0,2.29-2.25,14.09,14.09,0,0,0,.09-2.2C181.11,226.2,179.58,225.9,179,225.9Z" style="fill:#120c13"/><path d="M188.8,234.57v-.81h.64v-8.39h-.64v-.81h3.12v.81h-.66v8.39h.66v.81Z" style="fill:#120c13"/><path d="M201.3,234.71a3.37,3.37,0,0,1-2.34-1,5.79,5.79,0,0,1-1.25-4.15c0-2,.48-3.39,1.34-4.21a3.45,3.45,0,0,1,2.45-1,3.15,3.15,0,0,1,3.21,2.58l-1.71.32c-.21-.88-.71-1.49-1.55-1.49-1.33,0-1.81,1.18-1.81,3.7s.46,3.79,1.93,3.79c.89,0,1.5-.7,1.84-1.66l1.43.45A3.42,3.42,0,0,1,201.3,234.71Z" style="fill:#120c13"/><path d="M222.4,234.71a3.39,3.39,0,0,1-2.34-1,5.79,5.79,0,0,1-1.25-4.15,5.65,5.65,0,0,1,1.34-4.21,3.45,3.45,0,0,1,2.45-1,3.16,3.16,0,0,1,3.22,2.58l-1.72.32c-.21-.88-.71-1.49-1.55-1.49-1.32,0-1.81,1.18-1.81,3.7s.47,3.79,1.93,3.79c.89,0,1.5-.7,1.84-1.66l1.43.45A3.42,3.42,0,0,1,222.4,234.71Z" style="fill:#120c13"/><path d="M236.67,234.57v-4.4h-3.06v4.4h-1.82v-10h1.82v4.09h3.06v-4.09h1.86v10Z" style="fill:#120c13"/><path d="M248.14,234.73a3.57,3.57,0,0,1-2.45-.93c-.89-.86-1.32-2.27-1.32-4.22s.41-3.36,1.32-4.21a3.44,3.44,0,0,1,2.45-.93,3.52,3.52,0,0,1,2.39.89c.93.87,1.36,2.34,1.36,4.41C251.89,232.94,250.61,234.73,248.14,234.73Zm0-8.9c-1.34,0-1.84,1.11-1.84,3.75s.57,3.74,1.84,3.74,1.82-.93,1.82-3.63S249.48,225.83,248.14,225.83Z" style="fill:#120c13"/><path d="M257.7,234.57v-.81h.64v-8.39h-.64v-.81h3.13v.81h-.66v8.39h.66v.81Z" style="fill:#120c13"/><path d="M270.21,234.71a3.35,3.35,0,0,1-2.34-1,5.74,5.74,0,0,1-1.25-4.15c0-2,.48-3.39,1.34-4.21a3.41,3.41,0,0,1,2.44-1,3.16,3.16,0,0,1,3.22,2.58l-1.72.32c-.21-.88-.71-1.49-1.55-1.49-1.32,0-1.81,1.18-1.81,3.7s.47,3.79,1.94,3.79c.89,0,1.5-.7,1.83-1.66l1.43.45A3.41,3.41,0,0,1,270.21,234.71Z" style="fill:#120c13"/><path d="M279.59,234.57v-10H286V226h-4.54v2.65h3.14v1.41h-3.14v3H286v1.49Z" style="fill:#120c13"/><path d="M181.26,118.83a1.71,1.71,0,1,1,1.71,1.76A1.7,1.7,0,0,1,181.26,118.83Zm1.71,2.11a2.1,2.1,0,1,0-2.13-2.11A2.1,2.1,0,0,0,183,120.94Zm-.45-1.94H183l.64,1H184l-.69-1.07a.62.62,0,0,0,.62-.66c0-.48-.28-.69-.85-.69h-.92v2.42h.36Zm0-.31v-.75h.5c.26,0,.53,0,.53.35s-.28.4-.59.4Z" style="fill:#8e172f"/><path d="M148.4,0H241a6.63,6.63,0,0,1,6.57,6.63V114.25a6.63,6.63,0,0,1-6.57,6.66H148.4a6.63,6.63,0,0,1-6.57-6.66V6.63A6.63,6.63,0,0,1,148.4,0Z" style="fill:#8e172f"/><polygon points="240.44 1.98 240.44 1.98 149.05 1.98 149.05 2.87 240.44 2.87 240.44 2.87 240.44 1.98" style="fill:#fec558"/><polygon points="245.97 7.54 245.97 7.54 245.91 6.98 245.83 6.45 245.72 5.89 245.52 5.35 245.27 4.88 245.01 4.43 244.71 4.02 244.33 3.61 243.94 3.25 243.49 2.93 243.04 2.67 242.56 2.45 242.08 2.25 241.52 2.1 241.01 2.04 240.44 1.98 240.44 2.87 240.95 2.87 241.4 2.93 241.85 3.08 242.28 3.23 242.7 3.43 243.1 3.64 243.44 3.9 243.78 4.2 244.08 4.56 244.33 4.91 244.59 5.29 244.79 5.71 244.92 6.12 245.05 6.56 245.13 7.04 245.13 7.54 245.13 7.54 245.97 7.54" style="fill:#fec558"/><polygon points="245.97 113.4 245.97 113.4 245.97 7.54 245.13 7.54 245.13 113.4 245.13 113.4 245.97 113.4" style="fill:#fec558"/><polygon points="240.44 118.99 240.44 118.99 241.01 118.92 241.52 118.84 242.08 118.72 242.56 118.51 243.04 118.31 243.52 118.01 243.94 117.68 244.33 117.36 244.71 116.95 245.01 116.5 245.27 116.06 245.52 115.59 245.72 115.05 245.83 114.49 245.91 113.96 245.97 113.4 245.13 113.4 245.13 113.9 245.05 114.37 244.92 114.82 244.79 115.23 244.59 115.65 244.33 116.02 244.08 116.42 243.78 116.71 243.44 117.03 243.06 117.3 242.7 117.54 242.28 117.74 241.85 117.89 241.4 118.01 240.95 118.1 240.44 118.1 240.44 118.1 240.44 118.99" style="fill:#fec558"/><polygon points="149.05 118.99 149.05 118.99 240.44 118.99 240.44 118.1 149.05 118.1 149.05 118.1 149.05 118.99" style="fill:#fec558"/><polygon points="143.55 113.4 143.55 113.4 143.61 113.96 143.69 114.49 143.8 115.05 144 115.59 144.26 116.06 144.51 116.5 144.82 116.95 145.19 117.33 145.55 117.68 145.98 118.01 146.46 118.31 146.94 118.51 147.42 118.72 147.98 118.84 148.49 118.92 149.05 118.99 149.05 118.1 148.54 118.1 148.09 118.01 147.64 117.89 147.22 117.74 146.79 117.54 146.43 117.3 146.06 117.03 145.75 116.73 145.44 116.42 145.19 116.02 144.93 115.65 144.74 115.23 144.59 114.82 144.48 114.37 144.4 113.9 144.4 113.4 144.4 113.4 143.55 113.4" style="fill:#fec558"/><polygon points="143.55 7.54 143.55 7.54 143.55 113.4 144.4 113.4 144.4 7.54 144.4 7.54 143.55 7.54" style="fill:#fec558"/><polygon points="149.05 1.98 149.05 1.98 148.49 2.04 147.98 2.1 147.42 2.25 146.94 2.45 146.46 2.67 146 2.93 145.55 3.25 145.19 3.61 144.82 4.02 144.51 4.43 144.26 4.88 144 5.35 143.8 5.89 143.69 6.45 143.61 6.98 143.55 7.54 144.4 7.54 144.4 7.04 144.48 6.56 144.59 6.12 144.74 5.71 144.93 5.29 145.19 4.91 145.44 4.56 145.75 4.2 146.06 3.9 146.4 3.64 146.79 3.43 147.22 3.23 147.64 3.08 148.09 2.93 148.54 2.87 149.05 2.87 149.05 2.87 149.05 1.98" style="fill:#fec558"/><path d="M166.89,74.88l1-6.36-7.27,0c-2.22.2-5-.29-7.32,2.46A13.75,13.75,0,0,0,151,81.64c.64,3.08,2.8,4.08,6.38,4.08h7.85l.91-5.77-1,0c-1.42,4.34-4.48,6.8-8,4.34s-.49-14.41,3.56-15.14c3.09-.56,5.42,1.35,5.16,5.76Z" style="fill:#fff"/><path d="M168.21,67.65l.19-.4h6.18l-2.45,15.83c-.1,1.36-.21,1.27,1.67,1.53l-.1.69-4.67.47c-1.36-.11-1.34-1-1.21-2.09L170.27,69C170.31,67.83,169.38,67.92,168.21,67.65Z" style="fill:#fff"/><path d="M201.37,74l-.05-.39h6.23l-2.29,9.78c-.18,1.33.31,1.3,1.2,1.3l-.09.49-4.51.58c-1.36-.13-1.13-1-.93-2l2.35-8.8C203.23,74.1,202.35,74.19,201.37,74Z" style="fill:#fff"/><path d="M186.7,83.54l.31-2,.84-5.34c.81-4.11-9.18-2.81-10.33-2.24-3.58,2.11-.42,5.64,1.89,3.36a3.34,3.34,0,0,0,.75-2c.18-1,3.07-1.16,3.51.19a2.52,2.52,0,0,1-.86,2.4c-4,1.59-5,.39-7.31,1.9a3.27,3.27,0,0,0-1.12,1.71,3.73,3.73,0,0,0,.09,3c1.38,2.37,5.65,2.68,8.28,0,0,.68,0,1.6,1.5,1.64l3.76-.76.1-.6C187.21,84.72,186.7,84.44,186.7,83.54Zm-4-1a2.69,2.69,0,0,1-1,1.47,3.19,3.19,0,0,1-2.62.62c-.81-.28-1-1.79-.48-3a2.93,2.93,0,0,1,1-1.29,24.84,24.84,0,0,1,3.78-1.82l-.48,3.11Z" style="fill:#fff"/><path d="M189.41,85.68h3.92l1.59-9.89c1.12-1.23,2.18-.78,2.58.77.31.81,1.67,1,2.51.56,1.14-.6,1.43-2.69.23-3.36a4.43,4.43,0,0,0-5.11.85l.17-1.06h-5.56l-.15.37c1,.22,1.82.09,1.58,1Z" style="fill:#fff"/><path d="M220.65,74.36c-2-1.24-8.27-1.8-10.39.41a9,9,0,0,0-2.13,4.73c-.32,2.44.38,4.89,2.66,5.8a11.49,11.49,0,0,0,7.41-.17c1.76-.83,2.89-3.25,3.31-5.63S221.64,75.08,220.65,74.36Zm-5.18,9.58c-1.05.83-1.9,1-2.65-.1-.38-.47-.47-2.23,0-4.34a15.59,15.59,0,0,1,1.39-4.11c.74-1.18,2.67-1.34,3.09-.24a8.93,8.93,0,0,1,0,4.35C216.84,81.55,216.13,83.52,215.47,83.94Z" style="fill:#fff"/><path d="M236.16,84.72c-.64-.09-1.49,0-1.53-1.06l1.13-7.41c.71-3.11-5.81-2.91-7.56-1.21l.32-1.47h-6.21l0,.28c.64.2,2,.09,1.84,1l-1.69,10.8h4.12l1.33-8.91c.31-1.83,4.18-2.34,3.9.39l-1.19,7.17a1.19,1.19,0,0,0,1.2,1.37l4.25-.4Z" style="fill:#fff"/><path d="M205.77,71.88a2.25,2.25,0,1,0-2.31-2.25A2.28,2.28,0,0,0,205.77,71.88Z" style="fill:#fff"/><path d="M217.58,88.92l.19-.39h6.08l-2.41,15.52c-.11,1.33-.22,1.25,1.63,1.51l-.12.67-4.55.46c-1.34-.1-1.34-1-1.2-2.06l2.4-14.41C219.64,89.09,218.73,89.18,217.58,88.92Z" style="fill:#fff"/><path d="M194.74,95c-2.06-1.31-8.5-1.87-10.69.4a9.09,9.09,0,0,0-2.11,4.86c-.29,2.51.47,5,2.84,6a11.61,11.61,0,0,0,7.61-.19c1.78-.85,2.94-3.34,3.31-5.79C196.08,98,195.79,95.76,194.74,95Zm-5.19,9.82c-1.05.87-1.92,1-2.72-.09-.42-.49-.51-2.29-.11-4.47a17.08,17.08,0,0,1,1.39-4.22c.74-1.24,2.72-1.35,3.17-.27a9.35,9.35,0,0,1,0,4.49C190.94,102.39,190.23,104.43,189.55,104.85Z" style="fill:#fff"/><path d="M203.48,90.52h-1.29a3.14,3.14,0,0,1-3.13,2.22l-.33,1.75h-2.34l-.13.62h2.4l-1.93,9.1c-.18,1.38-.32,2.54,1.24,2.38l4.89-.56,0-.58c-2.4,0-2.11-.69-1.93-2.65l1.77-7.69H205l.2-.62h-2.36Z" style="fill:#fff"/><path d="M213.8,93.89c-5.25-.11-6.36,0-8.25,2.45a10.15,10.15,0,0,0-.78,1.42c-1.51,3.43-1.33,8.12,2.29,8.56,2.89.16,6.32.31,8.6-3l.38-.83-.69-.35c-1.25,2.64-5.13,3.93-6.49,2.51a4.5,4.5,0,0,1-.58-3.4l2.9-.45c1.95-.44,4.17-.7,5-2.79a1,1,0,0,0,.05-.23C216.68,95.9,215.73,94,213.8,93.89Zm-1.69,5.36c-.54.87-2.43,1.11-3.78,1.22l.49-2.47a1.68,1.68,0,0,1,.07-.24C209.35,96,210,95,212,95.07c.94.27,1,1.56.71,2.69A4.55,4.55,0,0,1,212.11,99.25Z" style="fill:#fff"/><polygon points="181.63 90.25 178.94 106.21 180.6 106.21 180.45 106.79 172.85 106.75 172.91 106.21 174.23 106.21 175.59 98.2 170.05 98.2 168.51 106.21 169.58 106.21 169.51 106.79 162.67 106.79 162.76 106.21 164.04 106.21 166.91 90.25 165.49 90.25 165.65 89.71 173.01 89.71 172.85 90.25 171.63 90.25 170.2 97.61 175.8 97.61 177.03 90.25 175.67 90.25 175.74 89.71 183.32 89.71 183.14 90.25 181.63 90.25" style="fill:#fff"/><path d="M197.74,15c7.67.92,15.35,6.76,18,14.19a12.64,12.64,0,0,1,.89,3.52L203.1,36.49c-4.5,1.35-9.16,2.74-14.32,2.35-.71-.11-1.57-.36-1.81-1.1.32-2.1,2.77-3,4.19-4.23a56.53,56.53,0,0,1,13.58-5.37,22.67,22.67,0,0,0,.29-4c-.68-.21-1.18.39-1.82.25L184.62,29a23.14,23.14,0,0,0-3.05.81c-2.71.5-5.26,1.36-8,1.85,1.45-7.46,8.35-14.43,15.81-16.14a27.17,27.17,0,0,1,8.32-.6Z" style="fill:#fec558"/><path d="M189.38,29.88c-4.72,2.6-10.16,6.36-11.15,12A5.27,5.27,0,0,0,180,46.37c5,4,12.68,2.06,18.33,1,6-1.36,12-2.81,18.06-4a19.34,19.34,0,0,1-2.77,6.22c-5.2,7.68-14,11-23,9.21a22.75,22.75,0,0,1-16.67-15,21.36,21.36,0,0,1-.78-9.86C178.54,32.44,184,31.2,189.38,29.88Z" style="fill:#fec558"/></svg>