<svg id="rydges-logo" class="logo" xmlns="http://www.w3.org/2000/svg" viewBox="0 0 404.76 84.17"><path d="M62.27,73.86l-.55,1.21a5.76,5.76,0,0,0-3.1-.95c-1.44,0-2.39.55-2.39,1.49,0,2.89,6.33,1.38,6.31,5.46,0,1.88-1.65,3.08-4.06,3.08a6.36,6.36,0,0,1-4.3-1.72l.58-1.15a5.59,5.59,0,0,0,3.74,1.59c1.62,0,2.63-.66,2.63-1.73,0-3-6.31-1.39-6.31-5.41,0-1.77,1.56-2.91,3.88-2.91A6.69,6.69,0,0,1,62.27,73.86Z" fill="#000"/><path d="M71.33,84.1H70.06V80.3l-4.35-7.43H67l3.64,5.86,3.6-5.86h1.31l-4.26,7.38Z" fill="#000"/><path d="M84.05,72.87A5.62,5.62,0,1,1,84,84.1H79.5V72.87Zm-3.26,10h3.27a4.4,4.4,0,1,0,0-8.79H80.79Z" fill="#000"/><path d="M102.47,84.1l-6.74-9v9H94.44V72.87h1.34l6.74,9v-9h1.27V84.1Z" fill="#000"/><path d="M110.57,74.1v3.7h5.67V79h-5.67v3.86h6.55V84.1h-7.83V72.87h7.62V74.1Z" fill="#000"/><path d="M126.14,84.1h-1.26V80.3l-4.35-7.43h1.33l3.64,5.86,3.6-5.86h1.31l-4.27,7.38Z" fill="#000"/><path d="M142.39,81.26l-1.25,2.84h-1.37l5-11.23h1.33l5,11.23h-1.4l-1.25-2.84Zm3.05-6.93L142.93,80h5Z" fill="#000"/><path d="M155.08,84.1V72.87h1.28V84.1Z" fill="#000"/><path d="M166.85,80.52c-.24,0-.5,0-.76,0h-3V84.1h-1.29V72.87h4.27c2.81,0,4.43,1.38,4.43,3.77A3.51,3.51,0,0,1,168,80.28l2.64,3.82h-1.46Zm-.76-1.2c2,0,3.2-.9,3.2-2.65s-1.16-2.57-3.2-2.57h-3v5.22Z" fill="#000"/><path d="M179.69,72.87c2.78,0,4.38,1.38,4.38,3.77s-1.6,3.92-4.38,3.92h-2.94V84.1h-1.28V72.87Zm-2.94,6.45h2.89c2,0,3.2-.9,3.2-2.65s-1.17-2.57-3.2-2.57h-2.89Z" fill="#000"/><path d="M199.35,78.49a5.89,5.89,0,1,1-5.88-5.65A5.75,5.75,0,0,1,199.35,78.49Zm-10.47,0a4.58,4.58,0,1,0,4.59-4.43A4.53,4.53,0,0,0,188.88,78.49Z" fill="#000"/><path d="M209,80.52c-.24,0-.5,0-.76,0h-3V84.1h-1.29V72.87h4.27c2.81,0,4.43,1.38,4.43,3.77a3.52,3.52,0,0,1-2.52,3.64l2.63,3.82h-1.46Zm-.76-1.2c2,0,3.2-.9,3.2-2.65s-1.16-2.57-3.2-2.57h-3v5.22Z" fill="#000"/><path d="M221,74.1v10h-1.29v-10H216V72.87h8.62V74.1Z" fill="#000"/><path d="M278.8,41c-3.39,10-9.22,14.38-20.21,15-1.66.09-3.33.13-5,.12C242.45,56,242.28,55.82,243,44.34c2,.15,3,1.84,4.49,2.74,3.53,2.15,7.25,3.46,11.39,2.54,3.75-.82,7.17-2.5,7.73-6.75.52-3.93-2.51-6-5.48-7.56-5-2.68-10.25-4.81-14.88-8.11-7.57-5.39-8.09-14-1.25-20.36,6.48-6,21-8,28.29-3.56,3.17,1.92,1,5.33,1.49,8.52-4.75-2.39-9.17-4.26-14.17-3.85-4.22.34-8.22,1.48-9.41,6s2.19,6.7,5.45,8.53c3.47,1.95,7.09,3.66,10.71,5.31,5.52,2.51,9.82,6.09,11.4,12.23Z" fill="#000"/><path d="M181.8,0c0,.28,0,.56,0,.84-3,2.32-6,2.31-9.07,0a6,6,0,0,0,0-.85Z" fill="#f3d5c8"/><path d="M172.77.85h9.07c1,.1,2,.18,3,.3,8.66,1.08,8.74,1.19,7.49,10.31-5.75-2.22-11.41-4.6-17.72-4.54-12.09.1-20.91,8.32-21.59,20.3a21.3,21.3,0,0,0,19.09,22.85c4.94.58,11.77,2.11,14.06-1.86,2.65-4.6,1.59-11.3-1.19-16.77-.36-.7-.66-1.42-1.16-2.49,4.22,0,8.75-1.3,11.65.33,3.7,2.08-.36,6.58.29,10.13.71,3.88-.49,8,.73,11.9.76,2.39-.66,2.91-2.31,3.41-10.26,3.08-20.66,3.65-31,.79C151,52.14,143.69,42.12,144,30.06c.3-13.41,9.22-25.12,21.44-28C167.81,1.48,170.31,1.24,172.77.85Z" fill="#000"/><path d="M232.07,25.35c-3.08,7.67-3.37,7.84-10.3,6.4-8-1.65-8-1.65-8,6.57v2c0,11,0,11.14,11.19,9.65,4.4-.58,8.72-1.81,13.13-2.76-2.88,8.69-2.88,8.69-11.77,8.69H203.06a203.12,203.12,0,0,0,0-54.63h31.33c.56,1.85-1.07,2.95-1.62,4.43-1.09,2.94-2.55,3.76-6,2.59-12.62-4.3-13-3.86-13,9.28,0,7.78,0,7.78,7.81,7.78Z" fill="#000"/><path d="M61.83,23.45C66,16.25,71.37,10.83,73.67,3.6,74.18,2,75,2,76.16,2H86c-5.82,8.63-11.17,16.77-16.78,24.73a12.91,12.91,0,0,0-2.59,8.8c.46,6.61-.87,13.31,1.19,20.1H56.07c.3-2.2.64-4.39.89-6.6,1.28-11.28-.35-21.63-8.28-30.57C44.4,13.65,41.91,7.39,36.19,2c4.62,0,8.33.06,12,0C49.83,2,50,3,50.35,4.15,52.55,11.29,58,16.41,61.83,23.45Z" fill="#000"/><path d="M129,9.3C118,1.34,105.1,1.24,92.19,1.69c-2.75.1-1.57,1.8-1.33,3.09,3.12,16.85,2.32,33.67,0,51,6,0,12.14.21,18.27-.06a39.51,39.51,0,0,0,16.67-4.65C143,42.06,144.75,20.57,129,9.3Zm-1.12,22.26c-1.38,10-12.42,18.86-22.91,18.71-2.36,0-2.32-1.23-2.33-2.74,0-6.32,0-12.65,0-19h0c0-6.33,0-12.65,0-19,0-1.5-.1-3,2.31-2.69C117.28,8.45,130,16.26,127.92,31.56Z" fill="#000"/><path d="M24.89,31.56c2.09-1.34,4.16-2.46,6-3.89,8.3-6.55,7.84-16.11-1-21.94a26.67,26.67,0,0,0-10.7-3.86c-6.31-1-12.65-.23-19-.64A235.85,235.85,0,0,1,0,55.91H12.75c-2.6-8.18-1.71-16.1-1.81-24.24,2.32.69,3.13,2.45,4.31,3.73A210.66,210.66,0,0,0,32.64,52.6c3.79,3.27,7.72,3.82,13,2.92C38.11,47.58,30.53,40.37,24.89,31.56ZM12.52,29.42c-2.06,0-1.58-1.21-1.59-2.22-.06-3.14,0-6.29,0-9.44q0-3.23,0-6.45c0-5.83,0-5.83,5.64-4.32,7.12,1.91,11,6.43,10.25,12C26.13,23.85,18.29,29.42,12.52,29.42Z" fill="#000"/><text transform="translate(304.11 39.2)" font-size="14.92" fill="#231f20" font-family="Montserrat-Light, Montserrat" letter-spacing="0.07em">A<tspan x="11.6" y="0" letter-spacing="0.15em">T </tspan><tspan x="28.31" y="0" letter-spacing="0.14em">T</tspan><tspan x="38.8" y="0" letter-spacing="0.13em">H</tspan><tspan x="52.84" y="0" letter-spacing="0.15em">E </tspan><tspan letter-spacing="0.14em"><tspan x="0" y="17.91">T</tspan><tspan x="10.49" y="17.91" letter-spacing="0.11em">E</tspan><tspan x="22.12" y="17.91" letter-spacing="0.14em">R</tspan><tspan x="34.9" y="17.91" letter-spacing="0.13em">M</tspan><tspan x="51.05" y="17.91" letter-spacing="0.12em">I</tspan><tspan x="57.31" y="17.91">NA</tspan><tspan x="84.16" y="17.91" letter-spacing="0.17em">L</tspan><tspan x="95.43" y="17.91" letter-spacing="0.15em">.</tspan></tspan></text><line x1="292.01" y1="1" x2="292.01" y2="56.65" fill="none" stroke="#231f20" stroke-miterlimit="10"/></svg>