<svg xmlns="http://www.w3.org/2000/svg" xmlns:xlink="http://www.w3.org/1999/xlink" version="1.1" class="icons icon-print" id="icon-print" x="0" y="0" viewBox="0 0 45 50" xml:space="preserve" enable-background="new 0 0 45 50"><g><g><path d="M22.5 48.42c-0.29 0-0.48-0.07-0.52-0.09L2.56 37.12c-0.21-0.12-0.52-0.66-0.52-0.91V13.79c0-0.25 0.31-0.78 0.52-0.91L21.98 1.67c0.04-0.02 0.23-0.09 0.52-0.09 0.29 0 0.48 0.07 0.52 0.09l19.42 11.21c0.21 0.12 0.52 0.66 0.52 0.9v22.42c0 0.25-0.31 0.78-0.52 0.91L23.02 48.33C22.98 48.35 22.79 48.42 22.5 48.42" fill="#FFF"></path><path d="M42.71 11.59L24 0.79c-0.41-0.24-0.96-0.36-1.5-0.36S21.41 0.55 21 0.79L2.29 11.59c-0.83 0.48-1.5 1.65-1.5 2.61v21.6c0 0.96 0.68 2.13 1.5 2.61L21 49.21c0.41 0.24 0.96 0.36 1.5 0.36s1.09-0.12 1.5-0.36l18.71-10.8c0.83-0.48 1.5-1.65 1.5-2.61V14.2C44.22 13.24 43.54 12.07 42.71 11.59M41.71 36.67L23 47.48c-0.04 0.02-0.22 0.09-0.5 0.09 -0.28 0-0.46-0.07-0.5-0.09L3.28 36.67c-0.21-0.12-0.5-0.63-0.5-0.87v-3.74h0v-2.02h0V14.2c0-0.24 0.3-0.75 0.5-0.87L22 2.52c0.04-0.02 0.22-0.09 0.5-0.09 0.28 0 0.46 0.07 0.5 0.09l18.71 10.8c0.21 0.12 0.5 0.63 0.5 0.87V30h0v2.02h0v3.78C42.22 36.04 41.92 36.55 41.71 36.67" fill="#CBCBCB"></path></g><g><path d="M18.57 34.28h7.97c0.32 0 0.53-0.21 0.53-0.53s-0.21-0.53-0.53-0.53h-7.97c-0.32 0-0.53 0.21-0.53 0.53C18.03 34.01 18.25 34.28 18.57 34.28z" style="fill:#6E1D55;stroke-miterlimit:10;stroke-width:0.5;stroke:#6F1E55"></path><path d="M18.57 31.73h7.97c0.32 0 0.53-0.21 0.53-0.53 0-0.32-0.21-0.53-0.53-0.53h-7.97c-0.32 0-0.53 0.21-0.53 0.53C18.03 31.51 18.25 31.73 18.57 31.73z" style="fill:#6E1D55;stroke-miterlimit:10;stroke-width:0.5;stroke:#6F1E55"></path><path d="M32.92 15.03H29.2l-0.05-0.05 -2.34-2.29c-0.21-0.21-0.48-0.32-0.8-0.32h-9.25c-0.59 0-1.12 0.48-1.12 1.12v1.59h-3.56c-1.49-0.05-2.71 1.17-2.71 2.71v7.71c0 1.49 1.22 2.76 2.71 2.76h20.84c1.49 0 2.71-1.22 2.71-2.76V17.8C35.63 16.25 34.41 15.03 32.92 15.03zM26.06 13.44l2.34 2.34v3.67H16.76v-6.01H26.06zM34.57 25.5c0 0.91-0.74 1.7-1.65 1.7H12.08c-0.9 0-1.65-0.74-1.65-1.7V17.8c0-0.9 0.74-1.7 1.65-1.7h3.56v3.88c0 0.32 0.21 0.53 0.53 0.53h12.76c0.32 0 0.53-0.21 0.53-0.53v-3.88h3.4c0.9 0 1.65 0.74 1.65 1.7v7.71H34.57z" style="fill:#6E1D55;stroke-miterlimit:10;stroke-width:0.5;stroke:#6F1E55"></path><path d="M28.93 29.33c-0.32 0-0.53 0.21-0.53 0.53l-0.05 6.64L16.7 36.46v-6.59c0-0.32-0.21-0.53-0.53-0.53s-0.53 0.21-0.53 0.53v6.64c0 0.59 0.48 1.12 1.12 1.12h11.59c0.59 0 1.12-0.48 1.12-1.12v-6.64C29.46 29.55 29.25 29.33 28.93 29.33z" style="fill:#6E1D55;stroke-miterlimit:10;stroke-width:0.5;stroke:#6F1E55"></path></g></g></svg>