<svg xmlns="http://www.w3.org/2000/svg" id="why-seattle-logo" class="logo" viewBox="0 0 477.03 77.98"><path d="M51.48,62.38H47L33.54,23.7,20,62.38H15.51L0,16.32H4.67L17.94,55.47,31.67,16.41h3.64L49.05,55.56,62.31,16.32H67Z" fill="#444d53"/><path d="M107.39,20.71q5.08,5.41,5.09,14.2V62.1H107.9V35.57q0-7.2-4-11.59a13.38,13.38,0,0,0-10.42-4.39q-8.31,0-13.26,5.28t-5,14.34V62.1H70.72V0H75.3V26.13Q80.9,15.3,94.07,15.29A17.45,17.45,0,0,1,107.39,20.71Z" fill="#444d53"/><path d="M131.56,78h-5l7.56-16.25-21.3-45.41H118l18.6,40.17,18.77-40.17h5.05Z" fill="#444d53"/><path d="M200.73,20.71q5.09,5.41,5.09,14.2V62.1h-4.58V35.57q0-7.2-4-11.59a13.38,13.38,0,0,0-10.42-4.39q-8.31,0-13.26,5.28t-5,14.34V62.1h-4.58V0h4.58V26.13q5.6-10.83,18.77-10.84A17.46,17.46,0,0,1,200.73,20.71Z" fill="#444d53"/><path d="M252.32,22.16a22.88,22.88,0,0,1,6.91,17.05,23,23,0,0,1-6.91,17.1,24.84,24.84,0,0,1-34.19,0,23,23,0,0,1-6.92-17.1,22.88,22.88,0,0,1,6.92-17,25,25,0,0,1,34.19,0Zm-3.22,31.2a19.2,19.2,0,0,0,5.65-14.15A19.24,19.24,0,0,0,249.14,25a20.07,20.07,0,0,0-27.84,0,19.27,19.27,0,0,0-5.6,14.2,19.17,19.17,0,0,0,5.65,14.15,19.84,19.84,0,0,0,27.75,0Z" fill="#444d53"/><path d="M289.43,59.48a16.21,16.21,0,0,1-10,3.65,13.51,13.51,0,0,1-9.91-3.69q-3.73-3.69-3.73-10.23V20.34h-10V16.41h10V0h4.58V16.41h17.09v3.93H270.38V48.93a10,10,0,0,0,2.56,7.24,9,9,0,0,0,6.78,2.66,12.08,12.08,0,0,0,7.94-3.08Z" fill="#444d53"/><path d="M333,39.68H291.58q.09,8.77,5.7,14.1a18.2,18.2,0,0,0,12.89,5.33q13.08,0,17.75-11.68l4,.94a21.68,21.68,0,0,1-8.22,11,23.59,23.59,0,0,1-13.55,3.79A22.78,22.78,0,0,1,294,56.59q-6.92-6.54-6.91-17.19t7-17.43a23.32,23.32,0,0,1,16.63-6.68,21.06,21.06,0,0,1,15.65,6.31Q332.6,27.9,333,38ZM298.26,24a18,18,0,0,0-6.49,12.15h36.62q-.84-7.85-5.7-12.29a17.07,17.07,0,0,0-12-4.44A19.15,19.15,0,0,0,298.26,24Z" fill="#444d53"/><path d="M338.92,62.1V0h4.57V62.1Z" fill="#444d53"/><text transform="translate(363.32 26.17)" font-size="15" fill="#ee1e3a" --font-family="Montserrat-SemiBold, Montserrat" font-weight="500" letter-spacing="0.21em">S<tspan x="12.65" y="0" letter-spacing="0.24em">E</tspan><tspan x="26.23" y="0" letter-spacing="0.14em">A</tspan><tspan x="39.6" y="0" letter-spacing="0.26em">T</tspan><tspan x="52.46" y="0" letter-spacing="0.21em">T</tspan><tspan x="64.63" y="0" letter-spacing="0.21em">L</tspan><tspan x="76.73" y="0" letter-spacing="0.22em">E</tspan><tspan letter-spacing="0.21em"><tspan x="0" y="18">B</tspan><tspan x="14.61" y="18" letter-spacing="0.2em">E</tspan><tspan x="27.71" y="18" letter-spacing="0.21em">L</tspan><tspan x="39.81" y="18" letter-spacing="0.14em">L</tspan><tspan x="50.83" y="18" letter-spacing="0.19em">T</tspan><tspan x="62.77" y="18" letter-spacing="0.19em">O</tspan><tspan x="78.18" y="18" letter-spacing="0.2em">W</tspan><tspan x="98.31" y="18" letter-spacing="0.22em">N</tspan></tspan><tspan letter-spacing="0.16em"><tspan x="0" y="36">W</tspan><tspan x="19.56" y="36" letter-spacing="0.21em">A</tspan><tspan x="34" y="36" letter-spacing="0.21em">L</tspan><tspan x="46.1" y="36" letter-spacing="0.22em">L </tspan><tspan x="65.7" y="36" letter-spacing="0.22em">S</tspan><tspan x="78.5" y="36" letter-spacing="0.15em">T</tspan><tspan x="89.76" y="36" letter-spacing="0.22em">.</tspan></tspan></text></svg>