<svg id="logo-under-canvas" class="logo" xmlns="http://www.w3.org/2000/svg" xmlns:xlink="http://www.w3.org/1999/xlink" viewBox="0 0 595.28 145"><polyline fill="#6299ae"  points="24.81 92.02 24.81 136.93 31.86 136.93 31.86 93.5 66.05 52.9 100.24 93.5 100.24 136.93 107.29 136.93 107.29 92.02 66.05 43.03 24.81 92.02"/><polyline fill="#6299ae"  points="62.63 38.96 45.97 19.16 52.8 19.16 66.05 34.9 79.3 19.16 86.14 19.16 69.47 38.96 132.1 113.37 132.1 4.83 0 4.83 0 113.37 62.63 38.96"/><path fill="#6299ae"  d="M66.05,136.93V87.23s-2.53,26.59-22.84,49.7H66.05"/><polyline fill="#6299ae"  points="112.92 98.71 112.92 136.93 132.1 136.93 132.1 121.5 112.92 98.71"/><polyline fill="#6299ae"  points="19.18 98.71 0 121.5 0 136.93 19.18 136.93 19.18 98.71"/><path fill="#786f64"  d="M171.13,118.24V97.12h5.37V118.3c0,10.14,4.57,14.58,11.76,14.58S200,128.44,200,118.3V97.12h5.1v21.12c0,13.27-6.87,19.22-17,19.22s-17-6-17-19.22"/><g class=""><polyline fill="#786f64"  points="213.65 97.12 216.66 97.12 240 126.34 240 97.12 244.77 97.12 244.77 136.34 241.76 136.34 218.42 107.13 218.42 136.34 213.65 136.34 213.65 97.12"/><path fill="#786f64"  d="M253.43,97.12h12.16c15.23,0,21.83,8.83,21.83,19.61s-6.6,19.61-21.83,19.61H253.43V97.12m12.22,34.65c12.75,0,16.34-7.19,16.34-15s-3.59-15-16.34-15h-7v30.07Z"/><polyline fill="#786f64"  points="293.97 97.12 317.7 97.12 317.7 101.5 299.2 101.5 299.2 113.46 314.43 113.46 314.43 117.84 299.2 117.84 299.2 131.97 317.7 131.97 317.7 136.34 293.97 136.34 293.97 97.12"/><path fill="#786f64"  d="M339.87,129.48l-5.17-9.35H329v16.21h-5.23V97.12h12.94c9,0,12.81,5.17,12.81,11.51,0,5.88-3.33,10.33-9.48,11.18l4.71,8c2.36,4,4.45,5.17,7.39,5.17a8.74,8.74,0,0,0,2.22-.27v3.66a13.77,13.77,0,0,1-3.59.46c-4.45,0-8.11-2.22-10.92-7.32m-3.14-13.73c5.88,0,7.65-3.53,7.65-7.12s-1.77-7.13-7.65-7.13H329v14.25Z"/><path fill="#786f64"  d="M390.08,137.19c-11.31,0-21.05-7.78-21.05-20.46s9.74-20.45,21.05-20.45c5.17,0,10.39,1.5,13.66,4v7.26a19,19,0,0,0-12.81-4.84c-7.78,0-13.53,5.23-13.53,14s5.75,14.06,13.53,14.06A19,19,0,0,0,403.74,126v7.26c-3.27,2.48-8.49,4-13.66,4"/><path fill="#786f64"  d="M438.54,136.34l-4-9.67H418.67l-4,9.67H407l16.67-39.22h6.21l16.67,39.22h-8m-11.89-29.48-5.82,14.25H432.4Z"/><polyline fill="#786f64"  points="478.56 136.34 458.03 110.46 458.03 136.34 450.9 136.34 450.9 97.12 456.46 97.12 476.99 123.01 476.99 97.12 484.11 97.12 484.11 136.34 478.56 136.34"/><polyline fill="#786f64"  points="511.18 136.34 505.17 136.34 488.5 97.12 496.67 97.12 508.37 125.3 519.94 97.12 527.85 97.12 511.18 136.34"/><path fill="#786f64"  d="M555.75,136.34l-4-9.67H535.87l-4,9.67h-7.72l16.67-39.22h6.21l16.67,39.22h-8m-11.9-29.48L538,121.11H549.6Z"/><path fill="#786f64"  d="M580.2,137.13a21,21,0,0,1-13.92-4.9l1.83-6.28a17.68,17.68,0,0,0,12.09,5.3c3.92,0,6.93-2,6.93-5.43,0-3.27-1.83-5-8.24-6.54-8.23-2-11.5-6.4-11.5-12,0-6.4,5.1-11,13.53-11a19.92,19.92,0,0,1,11.77,3.85l-1.7,5.56a19.78,19.78,0,0,0-10.13-3.4c-3.86,0-6.15,1.7-6.15,4.51,0,2.29,1.37,4.06,6.73,5.36,9.16,2.29,13.08,6.15,13.08,13,0,8.43-6.93,12.09-14.32,12.09"/></g></svg>