<svg xmlns="http://www.w3.org/2000/svg" id="origin-logo" class="logo" viewBox="0 0 336.083 79.421"><path d="M75.825,40.017A37.948,37.948,0,0,1,53.286,74.362l.094-11.947a27.475,27.475,0,0,0-10.034-49.65l-.174,21.982-10.426-.083L33,2.1l1.058-.11a38.421,38.421,0,0,1,8.313.065A37.857,37.857,0,0,1,75.825,40.017Z" fill="#ab431d"/><path d="M43.093,44.662l-.258,32.657-1.058.111a38.337,38.337,0,0,1-8.313-.066A37.908,37.908,0,0,1,22.553,5.059l-.1,11.947a27.467,27.467,0,0,0,10.034,49.65l.175-22.076Z" fill="#ab431d"/><path d="M145.984,77.712l-11.718-.025.162-76.042,17.2.037c12.686.027,18.264,6.362,18.23,21.9-.019,9-1.966,14.783-7.456,18.628L170.928,77.7l-12.148-.026-7.137-32.169-5.591-.012Zm.091-43.284,4.625.01c5.7.012,7.209-3.1,7.227-11.489.017-8.064-1.912-10.542-7.61-10.554l-4.194-.009Z" fill="#fff"/><path d="M179.95,1.705l11.934.025-.162,75.992L179.788,77.7Z" fill="#fff"/><path d="M200.827,19.1C200.852,7.273,207.642-.025,219.255,0c10.965.024,16.866,6.6,16.839,19.5l-.015,6.989-11.292-.024L224.8,18.4c.011-5.269-2.025-7.853-6-7.862s-6.028,2.567-6.039,7.836l-.091,42.361c-.011,5.269,2.025,7.962,6,7.97s6.025-2.675,6.036-7.944l.026-11.826-7.1-.015.021-9.677,18.387.04.042,38.441L230.5,77.71l-2.37-5.439c-2.591,4.725-6.144,6.868-11.3,6.857-10.43-.022-16.113-7.345-16.083-21.107Z" fill="#fff"/><path d="M245.257,1.734l11.934.026-.162,75.927-11.935-.026Z" fill="#fff"/><path d="M266.216,1.714l10.538.023,14.735,45.311c.215.647,1.068,3.341,2.241,8.082A71.685,71.685,0,0,1,292.462,44.9l.1-43.205,10.968.023-.166,75.941-10.968-.023-14.21-42.028a85.841,85.841,0,0,1-2.455-8.3,87.915,87.915,0,0,1,1.267,10.556l-.086,39.821-10.859-.024Z" fill="#fff"/><path d="M107.816.289c10.644.023,17.617,7.242,17.591,19.5l-.083,38.923c-.029,13.439-6.712,20.736-18.108,20.711C95.6,79.4,89.275,72.179,89.305,58.31l.083-38.922C89.413,7.562,96.2.265,107.816.289Zm5.549,18.4c.012-5.268-2.025-7.853-6-7.861s-6.028,2.567-6.039,7.835l-.091,42.362c-.011,5.268,2.025,7.961,6,7.97s6.025-2.676,6.037-7.945Z" fill="#fff"/><path d="M325.2,74.192h10.536v3.455H312.385V74.192h9.557V70.358h-9.557V66.9h23.348v3.455H325.2Z" fill="#fff"/><path d="M328.137,49.84c3.465,0,4.726.277,6.091,1.382a5.294,5.294,0,0,1,0,8.05c-1.365,1.105-2.66,1.381-6.091,1.381h-8.156c-3.43,0-4.726-.276-6.091-1.381a5.18,5.18,0,0,1-1.854-4.042,5.107,5.107,0,0,1,1.854-4.008c1.365-1.105,2.626-1.382,6.091-1.382Zm-.385,7.141a14.738,14.738,0,0,0,3.746-.242,1.768,1.768,0,0,0,1.33-1.727,1.8,1.8,0,0,0-1.54-1.762,21.216,21.216,0,0,0-3.536-.173h-7.385a14.419,14.419,0,0,0-3.746.241,1.759,1.759,0,0,0-1.33,1.694,1.81,1.81,0,0,0,1.54,1.8,21.842,21.842,0,0,0,3.536.173Z" fill="#fff"/><path d="M335.733,36.58v3.456H315.641V43.7h-3.256V32.849h3.256V36.58Z" fill="#fff"/><path d="M315.641,17.31v5.943h6.37V18.968h3.256v4.285h7.211V17.31h3.255v9.4H312.385v-9.4Z" fill="#fff"/><path d="M335.733,1.721v9.447H312.385V7.617h20.093v-5.9Z" fill="#fff"/></svg>