<svg xmlns="http://www.w3.org/2000/svg" id="match-logo" class="logo" viewBox="0 0 695.323 202.902"><path d="M508.666,0H190.373a25.106,25.106,0,0,0-25.106,25.106h0a25.106,25.106,0,0,0,25.106,25.106H508.666a25.106,25.106,0,0,0,25.1-25.106h0A25.105,25.105,0,0,0,508.666,0ZM192.78,29.358h-4.91l-2.456-4.252,2.456-4.253h4.91l2.455,4.253Zm320.812,0h-4.91l-2.455-4.252,2.455-4.253h4.91l2.455,4.253Z" fill="#1d1d1b"/><path d="M257.219,10.992V38.6H250.5V27.081H237.845V38.6h-6.677V10.992h6.677v10.7H250.5v-10.7Z" fill="#fff"/><path d="M306.382,12.377a13.247,13.247,0,0,1,5.019,5.037,14.461,14.461,0,0,1,1.835,7.284,14.44,14.44,0,0,1-1.855,7.3,13.327,13.327,0,0,1-5.038,5.057,14.592,14.592,0,0,1-14.1,0A13.317,13.317,0,0,1,287.21,32a14.431,14.431,0,0,1-1.856-7.3,14.333,14.333,0,0,1,1.856-7.284,13.377,13.377,0,0,1,5.037-5.037,14.661,14.661,0,0,1,14.135,0Zm-12.3,6.522a8.3,8.3,0,0,0-1.932,5.8,8.313,8.313,0,0,0,1.932,5.779,7.374,7.374,0,0,0,10.407,0,8.266,8.266,0,0,0,1.952-5.779,8.315,8.315,0,0,0-1.933-5.78,7.423,7.423,0,0,0-10.426-.019Z" fill="#fff"/><path d="M366.31,10.992V16.3h-7.5V38.6H352.1V16.3h-7.42v-5.31Z" fill="#fff"/><path d="M407.585,16.3v7.972h9.333v5.037h-9.333v3.938h14.889V38.6H400.908V10.992h21.566V16.3Z" fill="#fff"/><path d="M464.584,33.484h13.287V38.6H457.907V10.992h6.677Z" fill="#fff"/><polygon points="98.933 77.6 81.653 77.6 81.653 148.736 98.933 148.736 98.933 119.437 124.136 119.437 124.136 148.736 141.415 148.736 141.415 77.6 124.136 77.6 124.136 106.264 98.933 106.264 98.933 77.6" fill="#1d1d1b"/><polygon points="492.567 148.736 509.848 148.736 509.848 90.773 531.088 90.773 531.088 77.6 471.324 77.6 471.324 90.773 492.567 90.773 492.567 148.736" fill="#1d1d1b"/><path d="M0,77.6V90.773H21.241v57.963h17.28v-6.67a1.8,1.8,0,0,0-.725,1.2c-.278-.086-.422-.213-.254-.4.221-.25.124-.446-.055-.674l.549-.423.485.25v-5.676l-.22.683c-.048-.456-.693-.459-.473-.942.327.327.357.337.693.119V90.773H59.762V77.6Zm37.956,25.6-.021.514-.493-.325A2.261,2.261,0,0,1,37.956,103.2Zm-.48,2.9.1.022-.067.307-.1-.023Zm-.658-3.59a1.318,1.318,0,0,1,.171-.1l-.185.287C36.812,102.565,36.8,102.519,36.818,102.506Zm-.529,2.543.389-.146c.043.278.079.5.114.732l-.1.037Zm-.057,1.062-.051-.427C36.3,105.789,36.459,105.887,36.232,106.111Zm.31-1.517v0h0l-.335-.065a3.749,3.749,0,0,1-.09-.6c0-.068.129-.135.2-.2.053.062.141.118.153.187.039.226.051.457.073.684h0c.074-.151.147-.3.258-.533l.113.4Zm.119-1.186.223.2-.059.072-.242-.178Zm-.514-.892.194.337.022.005.009.015c.18,0,.183.014.144.228l-.144-.228h-.021l-.01-.019C36.188,102.815,35.99,102.819,36.147,102.516Zm-.478,1.261c.263.212.233.372.064.585a.487.487,0,0,0-.042.443c.121.221.272-.014.414-.038.025,0,.057.031.106.058-.112.22-.171.511-.349.644-.237.177-.274.427-.416.633-.042.062-.174.063-.284.1a2.213,2.213,0,0,0,.1-.82c-.1-.34-.078-.574.285-.763l-.392-.18Zm-.767.035c.039.008.077.017.116.024-.025.089-.048.178-.077.264a.326.326,0,0,1-.087-.011Zm-.457.2c.077.081.206.153.22.243a3.888,3.888,0,0,1,.074,1.011c-.024.216.09.5-.224.724A4.007,4.007,0,0,1,34.445,104.009Zm-.316,1.953.451.324a.405.405,0,0,1-.327.5c-.077-.275-.147-.525-.216-.775Zm-.542-2.643a.168.168,0,0,1,.114.088c.009.016-.048.068-.086.117l-.132-.113C33.518,103.379,33.553,103.318,33.587,103.319Zm.008.467.144.044a.457.457,0,0,1-.33.614Zm.259,3.894c0,.313.09.63-.2.882C33.2,108.011,33.228,107.863,33.854,107.68Zm-.712.69c.027.052.052.106.076.159l-.1.033c-.006-.059-.012-.118-.014-.177C33.1,108.38,33.142,108.368,33.142,108.37Zm.2.73.392.284.118-.131-.007-.014.011,0a2.574,2.574,0,0,1,.156-.939c.2-.326-.244-.645.066-.92l.4.493c.119-.388.215-.7.313-1.02,0-.012.021-.02.011-.011l.364.111c.026-.228.047-.4.067-.579l.126-.033c.219.263.438.526.655.785l.635-.659c.023.256.041.451.058.645l.1.032.185-.287,1.086-.135-.28.634-.663-.278c-.4.381.135.461.21.665-.3.322-.3.322-.19.556.164-.066.175-.367.444-.3-.08.177-.156.339-.227.5s-.138.329-.214.512l-.384-.081c-.079.263-.224.419-.519.34-.193-.41.116-.686.3-.974.254-.4.245-.516-.237-.75-.057.308-.123.6-.162.9-.029.22-.1.373-.353.408a2.229,2.229,0,0,1-.433-.614,2.2,2.2,0,0,1,.117-.78c-.229.167-.363.265-.487.354l.129.454a.746.746,0,0,0-.2.128.762.762,0,0,0-.2.337c-.015.19.139.186.3.2a2.274,2.274,0,0,1,.557.214,3.866,3.866,0,0,0-.492.528,2.955,2.955,0,0,0-.219.6l-.117-.022c-.06-.372.261-.819-.211-1.124l-.684.1v.012l0,0c.124.277.248.553.383.852-.125.056-.272.158-.3.13a2.931,2.931,0,0,1-.334-.415l-.583.236Zm4.676,1.6-.109,1.089-.311.05c-.459-.349-.065-.712-.067-1.08l-.3.113-.2-.384-.367.032c.035-.222.063-.4.088-.553l.227.212c.43-.311-.166-.66.105-.956.248-.082.4.154.624.2l.006,0-.066-.427.1-.055.3.243.007.536-.054.265-.049.848Zm-1.59,20.741-.181.5.007.014,0,.026c.352.24.351.254.038.507-.014-.179-.026-.342-.038-.507l-.019-.013.01-.027C36.138,131.756,36.143,131.744,36.424,131.439ZM35.7,110.557c.006-.158.425-.488.7-.528-.106.319-.1.625-.458.715C35.776,110.786,35.7,110.7,35.7,110.557Zm.087.5-.167.225-.074-.038a.569.569,0,0,1,.055-.169C35.618,111.048,35.685,111.061,35.787,111.053Zm.364.056a.813.813,0,0,1,.137.1l-.134.1c-.031-.043-.075-.077-.076-.113S36.141,111.1,36.151,111.109Zm.445,21.538.109.083c-.023.146-.056.282-.382.315Zm.141,3.627.087.39-.126.029c-.036-.132-.072-.265-.107-.4Zm-.629,4.542c.36-.106.619,0,.563.226-.066.263.1.336.229.454-.207.23-.207.23-.6.172Zm.187,4.213-.089.072c-.06-.07-.121-.139-.181-.208l.088-.093Zm-.267-6.585a.538.538,0,0,1,.193-.272c.036-.027.213.048.213.076a.681.681,0,0,1-.087.281,1.643,1.643,0,0,1-.194.233C36.086,138.6,36.01,138.511,36.028,138.444Zm.694-26.912.321.345C36.636,111.763,36.636,111.763,36.722,111.532Zm.723,1.207-.2-.414.115-.064q.1.212.2.423ZM37.5,115.2l-.1.165-.089-.062.134-.147Zm-.169,15.685c-.046.037-.089.1-.139.1s-.1-.047-.205-.1c.107-.067.163-.131.207-.123S37.285,130.844,37.33,130.888Zm-.351,6.481.09.244-.1.017-.037-.248Zm.146,1.043c.03,0,.06.061.091.094l-.135.108-.089-.116C37.046,138.46,37.086,138.412,37.125,138.412Zm.006-3.9v-.03h.256v.03Zm.2,5.071c.252.2.21.346-.033.471Zm.121-8.625.18-.514a.411.411,0,0,1-.034.557Zm-2.527,2.95c.072-.24.117-.391.2-.657l.3.453Zm.363,6.974c-.048.185.07.4-.252.638.047-.289.078-.477.108-.664ZM34.9,112.032a.6.6,0,0,1,.078-.106c.018.023.053.05.049.069a.448.448,0,0,1-.059.118C34.931,112.074,34.891,112.043,34.9,112.032Zm-.1,27.481-.1.028-.035-.258.056-.012Zm-.438-.554.046.087-.1.1c-.02-.034-.064-.083-.055-.1C34.272,139.006,34.321,138.986,34.359,138.959Zm-.155-2.038-.055-.227.114-.017v.234Zm-.468-1.559v.418c-.075-.015-.183-.006-.2-.045a.467.467,0,0,1,.322-.692c.422-.1.446-.128.373-.527-.023-.123-.059-.244-.078-.322l-.434-.309a.472.472,0,0,1,.648-.282h0l0,0a2.694,2.694,0,0,1-.33-.235c-.026-.024.018-.123.034-.215l.486.1-.19.35.01.007-.012,0,.1,1.574Zm-.17,3.356c-.128-.174-.041-.492-.322-.555v.006h-.021l-.141.4-.066-.013v-.386h.207l0-.015c.008,0,.01.007.017.009a.343.343,0,0,1,.256-.413c.034-.011.05-.077.077-.121l-.367-.145.093-.329.613.244c.115.3.02.465-.281.513C33.658,138.188,33.865,138.456,33.566,138.718Zm-1.753-.463.132-.31C32.075,138.175,32.075,138.175,31.813,138.255Zm.128.6-.039.315-.093,0-.029-.3Zm-.061-2.152.3-.227c.176.195.54.2.507.5-.157.257-.285.466-.427.7C32.128,137.345,32.008,137.036,31.88,136.705Zm.578,1.427c.432.616.432.616-.067.941Zm.171-1.764.8.239-.009.148-.436.278Zm.384-2.517c-.148-.058-.3-.072-.329-.139a.638.638,0,0,1-.04-.408c.128-.446.286-.883.428-1.319h0l-.65.424c-.065-.187-.125-.361-.2-.56l.845.136,0,0v0l.263.2,0,0c.007,0,.009.007.016.01a2.743,2.743,0,0,1,.269-.92c.08.2.153.368.214.541a3.424,3.424,0,0,1,.092.348c.046.189.089.379.147.632l-.354.393-.108-.037c0-.132,0-.264,0-.4-.006-.225.014-.464-.26-.562v.008l-.017-.013A2.1,2.1,0,0,0,33.013,133.851Zm-.493.962-.132.384-.163-.065c.056-.124.113-.247.169-.371Zm.582-24.439c.058-.042.1-.095.133-.089s.068.063.1.1c-.036.033-.07.089-.108.092S33.158,110.421,33.1,110.374Zm.624,26.378c.008-.073.026-.144.041-.216l.084.015-.033.23A.476.476,0,0,1,33.726,136.752Zm.4-15.953c0-.023.046-.072.056-.068a.585.585,0,0,1,.112.071l-.112.138A.536.536,0,0,1,34.123,120.8Zm.372,20.577a.309.309,0,0,1,.084.034c-.016.056-.04.111-.061.166l-.1-.036C34.443,141.485,34.466,141.428,34.495,141.376ZM33,103.313l-.171.328C32.75,103.385,32.75,103.385,33,103.313Zm-.612,4.556a2.061,2.061,0,0,1,.239-.2c.1.357.1.357-.263.347C32.37,107.966,32.358,107.9,32.387,107.869Zm-.174.963c.28.2.214.342.044.47-.019.014-.058,0-.1,0C32.174,109.164,32.19,109.027,32.213,108.832Zm-.078,26.639c.209.191.371.157.539-.068.158-.209.348-.394.576-.648-.021.356-.038.645-.064,1.06l-.218-.25c-.205.231-.352.515-.581.623a3.16,3.16,0,0,1-.938.126c.15-.344.288-.657.436-1A1.85,1.85,0,0,1,32.135,135.471Zm-.723,2.624c-.008.352-.279.564-.416.844l.006,0,.01.017a.416.416,0,0,1,.345.233,6.115,6.115,0,0,0-.3.632c-.09.261-.144.534-.2.766a2.3,2.3,0,0,0-.608.055,1.829,1.829,0,0,0-.416.354c-.035-.273-.075-.5-.085-.732a.258.258,0,0,1,.126-.208.3.3,0,0,1,.231.08.677.677,0,0,1,.119.21c.538-.344-.164-.751.1-1.083.213-.017.415-.021.613-.053s.163-.138.084-.254c-.01,0-.012-.008-.023-.008l.007-.011-.893-.415.046-.749c.133.149.182.425.517.278-.349-.23-.271-.52-.166-.806.056-.152.156-.289.2-.443.023-.077-.032-.177-.068-.343-.29.826-.29.826-1,.834-.1-.315.136-.423.345-.521l-.24-.812c.177-.021.316.173.475-.035.209-.271-.154-.359-.13-.585.241.083.5.086.539.429.033.278.262.233.439.189.435.456-.328.739-.112,1.182l.526.044-.44.666C31.351,137.742,31.418,137.857,31.412,138.1ZM29.417,139.3c-.083-.378-.25-.694.012-1.029C29.779,139,29.781,139.052,29.417,139.3Zm.145,1.137-.2.185c-.021-.025-.063-.063-.057-.072.044-.073.1-.14.148-.209Zm-.243-6.324.1-.03.085.275-.1.03Zm.473-1.826c-.333-.415-.327-.548,0-.708Zm-.23,1.451.213-.344C29.925,133.825,29.925,133.825,29.562,133.738Zm.813-1.409c0-.013.058-.03.148-.074.28.641-.012,1.319.168,2.074a4.768,4.768,0,0,0,.613-1.16,1.462,1.462,0,0,1,0,.938,1.534,1.534,0,0,0-.038.884c.093.255-.047.461-.29.677v-.75l-.6.138c-.087-.455-.345-.874-.051-1.323a.29.29,0,0,0,.008-.212C30.218,133.118,30.4,132.727,30.375,132.329Zm.314-.71c.249.077.465.132.669.217.048.02.055.14.1.265l-.253-.089-.31.391C30.681,132.149,30.421,131.956,30.689,131.619Zm-.037-.683a.451.451,0,0,1,.065-.114l.121.1a.612.612,0,0,1-.13.083C30.7,131.005,30.647,130.953,30.652,130.936Zm.608.247c-.089.165-.135.257-.19.342-.008.012-.062,0-.111-.009C30.932,131.357,30.892,131.2,31.26,131.183Zm-.176-22.234.465-.037-.465.441Zm-.693,20.105c.024-.169,0-.373.3-.437v.889l.086.008.109-.322a1.879,1.879,0,0,1,.159,1.109l-.254-.492a1.176,1.176,0,0,0-.958.892l.526.137c-.051.122-.087.211-.126.3l-.63-.381c-.1.233-.2.487-.31.741-.066-.406-.151-.816.327-1.031.093-.042.131-.208.2-.317.072-.125.114-.3.223-.366C30.33,129.614,30.35,129.336,30.391,129.054Zm-1.488.159-.066-.442C29.055,128.965,29.055,128.965,28.9,129.213Zm.019,7.592c-.013.071-.032.142-.05.212l-.095-.025.059-.212A.648.648,0,0,1,28.922,136.805Zm.787-8.852-.147.32-.067-.009a.819.819,0,0,1,.03-.2.793.793,0,0,1,.12-.156Zm.067-1.058c.029.207.048.347.067.486C29.684,127.259,29.574,127.122,29.776,126.9Zm-.489.694-.174-.167a1.334,1.334,0,0,1,.209-.2c.021-.014.1.062.186.118Zm.1-4.226c-.007.014-.027.023-.052.043v-.46C29.468,123.174,29.469,123.174,29.382,123.363Zm-.4-1.2.2-.447C29.424,122.09,29.424,122.09,28.987,122.158Zm.149,12.877c.022.024.069.06.064.069a1.991,1.991,0,0,1-.122.182l-.1-.085Zm-.054-4.9.1-.479.1.031C29.276,129.841,29.369,130.027,29.082,130.137Zm1.02-3.487-.113-.011.05-.468.063.008Zm-.113-15.676c.026,0,.051.033.076.052l-.1.071-.052-.075C29.939,111.005,29.965,110.973,29.989,110.974Zm-.415,10.355.125-.537.155.039C29.956,121.038,29.92,121.192,29.574,121.329Zm-.229-2.053v-.534l.234.288.23-.1C29.774,119.337,29.774,119.337,29.345,119.276Zm.175-6.3c.025.212.046.385.066.557C29.386,113.392,29.262,113.217,29.52,112.977Zm.136,3.52c.087.3.087.3-.095.615l-.029-.611Zm-.11-4.336c-.256-.541-.256-.544.15-.7C29.694,111.7,29.855,111.941,29.546,112.161ZM29.487,111c-.292.395-.292.395-.549.027Zm-.5,7.267c.2.49.2.488-.2.649a1.877,1.877,0,0,0-.256.164C28.463,118.614,28.913,118.6,28.988,118.262Zm-.313,10.414-.125.005v-.7l.067,0Zm-.632,7.835c.022.217.033.327.044.434.007,0,.008,0,.017,0h0c.348-.181.126-.578.292-.837a.627.627,0,0,1,.069.805c-.1.1-.226.2-.361.032-.007,0-.007.01-.015.014l0-.019C27.792,136.915,27.909,136.771,28.043,136.511Zm.354,3.142-.151.46-.137-.05c.056-.151.111-.3.167-.454Zm-.876-25.727.165.027v.9c-.2.1-.349.031-.337-.139A5.261,5.261,0,0,1,27.521,113.926Zm.34,25.18c-.15.092-.236.188-.313.181a.284.284,0,0,1-.2-.184c-.008-.064.117-.208.17-.2C27.615,138.913,27.705,139.007,27.861,139.106Zm-.827-23.7-.068-.5.2.411Zm.251,18.6c.031.034.1.081.089.1a.619.619,0,0,1-.111.143l-.086-.114Zm-.09,9.123c.131-.218.353-.144.523-.236C27.578,143.16,27.578,143.16,27.2,143.136Zm.574.486c-.059-.087-.119-.136-.12-.187s.059-.1.092-.146c.055.046.132.082.155.14C27.909,143.461,27.833,143.529,27.769,143.622Zm.456,3.746.019-.3h.1l.019.3Zm.058-6.253-.759.227c-.088-.218.085-.375.166-.569a2.375,2.375,0,0,0,.09-.585l.076-.016c.058.162.115.325.189.535l.533-.315.007-.031c-.014-.152-.1-.308-.014-.455l.118.014-.1.441c0,.008,0,.016,0,.024l-.012.007v0a.671.671,0,0,1,.345.717l-.406-.439C28.423,140.849,28.342,141,28.283,141.115Zm1.026,6c-.055.553-.541.881-.619,1.514C28.51,147.622,28.6,147.413,29.309,147.113Zm-.187-3.512a.681.681,0,0,1,.16-.127c.019-.009.069.055.105.086l-.157.164Zm.158,4.952-.119-.018c.054-.212-.2-.464.291-.6C29.394,148.144,29.337,148.348,29.28,148.553Zm.745-3.114c-.3-.207-.3-.207,0-.613Zm-.189-1.7a.665.665,0,0,1-.094-.372c0-.173.061-.344.081-.518,0-.039-.051-.086-.091-.148l-.322.15c-.2-.227-.224-.427,0-.62l.4.055a.393.393,0,0,0-.321-.5c-.41-.078-.413-.06-.444-.476.486-.34.787.091,1.126.234,0,.267.012.5,0,.722-.02.294.13.45.466.5l-.425.364a.938.938,0,0,1,.079.331.494.494,0,0,1-.174.293A.29.29,0,0,1,29.836,143.735Zm1.382,1.9c-.063-.109-.135-.233-.21-.365-.321.276-.039.61-.147.912L30.175,146c-.083-.456-.083-.456.329-.434l.466-.836.33.168Zm.2-1.467c-.079.06-.1.2-.141.31-.3-.174-.3-.174-.631.231-.017-.137-.03-.236-.041-.336l-.009,0-.007.018,0-.022c-.158-.059-.244-.149-.05-.339l.05.339.01,0,.207-.583c.126-.09.315.337.466-.022a1.763,1.763,0,0,1,.478.122c.032.012.029.123.046.207C31.645,144.118,31.5,144.1,31.417,144.168Zm.4,1.107c.355-.043.355-.043.351.226Zm-.15-1.676c-.114-.293-.2-.527-.279-.719-.254-.034-.245.452-.529.115.142-.25.4-.491.153-1-.108.234-.182.4-.253.549-.371-.326-.207-.56-.083-.722l-.231-.692c.358.1.707.032.809-.151.123-.222.235-.432-.035-.674-.174-.156-.126-.4.088-.589l.318.369a2.622,2.622,0,0,0,.365-.489.37.37,0,0,1,.475-.24l-.148.308c.137.132.426.082.325.372-.08.232-.273.22-.449.2a1.97,1.97,0,0,1-.388-.131c-.35.441-.367.57-.124,1a.439.439,0,0,1-.007.547c-.031.037-.092.049-.134.07l-.422-.2.287.972.258-.064v.381a.367.367,0,0,0,.3-.5c-.039-.179-.082-.356.157-.42,0-.007,0-.014,0-.021l.013,0c-.023-.179-.046-.358-.077-.6l.407.159c-.049.219-.094.4-.33.436l0,.018c-.007,0-.009.005-.016.007a1.309,1.309,0,0,0,.016.412C32.335,142.864,31.872,143.153,31.67,143.6Zm.838.01-.25-.314c.092-.061.18-.16.276-.169.066-.006.206.122.2.179C32.725,143.392,32.62,143.468,32.508,143.609Zm.18-3.341.446.356-.392.308C32.588,140.7,32.45,140.535,32.688,140.268Zm.225.965.077.02-.069.3-.1-.025Zm.7,2a1.816,1.816,0,0,1-.2.3l-.4-.058a4.775,4.775,0,0,1,.342-.448.227.227,0,0,1,.223-.027A.248.248,0,0,1,33.61,143.237Zm.335,1.043c-.252-.45-.252-.45-.081-.585C33.868,143.888,34.1,144.043,33.945,144.28Zm-.246-1.839-.293.324-.154-.217-.336.405v-.443c.571-.134.571-.134.585-.544.278.139.385-.042.486-.251.117-.241.059-.414-.217-.555l-.448.567-.088-.055.323-.508c-.094-.346-.169-.623-.245-.9.192.116.3.324.519.111.128.271.357.54.361.813a1.928,1.928,0,0,0,.25.953l-.376.642Zm.764.238.116.843C34.246,142.972,34.242,142.909,34.463,142.679Zm1,5.334c-.319-.415.134-.457.178-.728C35.876,147.673,35.477,147.737,35.464,148.013Zm.132-1.966-.134-.279-.136-.011c-.057.134-.113.268-.2.472a2.077,2.077,0,0,0-.247-.433,1.565,1.565,0,0,0-.338-.188c.343-.493.711-.02,1.061-.13.042.171.082.336.123.5Zm.248-5.6c-.1.116-.208.222-.365.387-.017-.16-.071-.31-.032-.341.377-.3.154-.654.121-.988a1.017,1.017,0,0,0-.1-.254,3.874,3.874,0,0,1,.454,1.027C35.938,140.319,35.884,140.4,35.844,140.444Zm-.049-4.535c-.177-.249-.177-.249.135-.306Zm-.038-3.312-.07-.056.138-.229.118.1Zm.5,1.721.107.035v.806l-.352-.242Zm-.178,11.5c.045.225.4.377.1.754C36.139,146.273,35.919,146.089,36.083,145.815Zm.153,2.573c-.028-.067-.05-.136-.073-.2l.083-.03.078.207Zm.133-.882a.637.637,0,0,1-.3-.705C36.17,147.017,36.481,147.141,36.369,147.506Zm.4-2.461-.221.771C36.343,145.312,36.347,145.3,36.767,145.045Zm-.077-1.014.28-.393c.095.192.167.337.283.569a2.322,2.322,0,0,0-.3-.154A1.366,1.366,0,0,0,36.69,144.031Zm1.341,2.369-.053.29.09.9c-.124-.091-.249-.181-.339-.245l.249-.656h-.354c.04-.182.075-.34.121-.546C37.874,146.265,37.942,146.378,38.031,146.4Zm-.355-1.292.168.169-.18.155c-.051-.084-.113-.14-.109-.19S37.633,145.152,37.676,145.108Zm-.11,1.072-.619.667c0-.186,0-.3,0-.42h-.009l-.008.017v-.017c-.123,0-.262,0-.208-.185a5.413,5.413,0,0,1,.219-.552l.046.022-.057.715h.007l.264-.5Zm.24-7.668c.057-.09.11-.236.187-.252l-.083,2.62-.018.006c0,.438-.413.674-.53,1.074-.069.237-.41.394-.612.571-.012-.377.111-.578.59-.922.046-.574.051-.584.552-.723,0-.007,0-.012,0-.019l.014.013a.786.786,0,0,0-.078-.3c-.05-.063-.173-.07-.258-.1a1.249,1.249,0,0,0-.048-1.5C37.633,138.8,37.717,138.653,37.806,138.512Zm-.072-22.845.15-2.926.165,0A8.712,8.712,0,0,1,37.734,115.667Z" fill="#1d1d1b"/><path d="M38.024,109.751l.04-.036-.037-.028Z" fill="#1d1d1b"/><path d="M212.961,148.2l.041.045.033-.041Z" fill="#1d1d1b"/><path d="M226.384,90.773V77.6H167.951v71.136h8.058a2.037,2.037,0,0,0-1.349-.8c.1-.318.243-.482.46-.291.286.252.51.141.77-.063l.484.627-.271.527h6.385l-.695-.224c.522-.055.525-.791,1.078-.54-.364.363-.382.41-.154.764h43.667V135.56H207.062l-.469.233-.1-.155.567-.078H185.23V119.753h20.975V106.58H185.23V90.773Zm-42.5,47.082.19.184c-.027.026-.069.079-.079.073a2.025,2.025,0,0,1-.208-.138C183.814,137.934,183.846,137.894,183.879,137.855Zm-2.014-1.012.021,0c.035-.337.2-.2.5-.05l-.5.05c0,.008,0,.01,0,.019h0c.207.4.66.145.956.334a.716.716,0,0,1-.92.079c-.12-.115-.225-.259-.036-.413C181.877,136.852,181.869,136.852,181.865,136.843Zm.211.853a.708.708,0,0,1-.03.1c-.081-.014-.161-.036-.242-.057l.029-.109Zm-2.656-1.7c.073-.009.238.134.231.194-.013.115-.121.219-.234.4-.1-.171-.215-.27-.207-.358A.324.324,0,0,1,179.42,135.992Zm.951,2.382c-.827.4-.893.4-1.176-.013C179.627,138.267,179.989,138.075,180.371,138.374Zm-1.136,1.013c.019.243.024.475.06.7s.162.186.3.092c0-.008,0-.014,0-.023l.013.008c.16-.344.319-.688.474-1.02l.856.053c-.171.151-.486.207-.318.59.263-.4.594-.309.921-.189.174.063.33.177.506.229.088.026.2-.036.393-.078-.944-.332-.944-.332-.954-1.139.36-.119.484.155.6.394l.927-.274c.024.2-.2.361.04.543.31.239.411-.176.669-.149-.095.276-.1.57-.49.616-.318.038-.267.3-.216.5-.521.5-.844-.374-1.351-.127l-.05.6-.761-.5c.126.357,0,.434-.278.428-.4-.01-.645-.319-.964-.476l0,.008-.014.007a.463.463,0,0,1-.271.4,6.823,6.823,0,0,0-.723-.349c-.3-.1-.609-.164-.875-.233a2.639,2.639,0,0,0-.063-.7,2.089,2.089,0,0,0-.4-.476c.312-.039.573-.085.836-.1a.294.294,0,0,1,.238.143.348.348,0,0,1-.092.265.778.778,0,0,1-.239.136C178.39,139.888,178.856,139.086,179.235,139.387Zm3.185,2.131c-.223.2-.225.617-.578.579l-.8-.488,1.117-.434C182.245,141.287,182.33,141.4,182.42,141.518Zm-2.966.241,1.075.076C179.826,142.33,179.826,142.33,179.454,141.759Zm.131,2.249-.1.053-.109-.115c.039-.023.095-.073.113-.062C179.531,143.909,179.554,143.964,179.585,144.008Zm-.244-2.808,0-.106.349-.033.008.184Zm1.048-.1.355.151C180.481,141.4,180.481,141.4,180.389,141.1Zm-2.308,4.7c-.05.016-.139-.047-.193-.093-.132-.112-.254-.237-.442-.416.183-.02.354-.081.389-.036.337.43.747.175,1.13.137a1.143,1.143,0,0,0,.289-.112A4.439,4.439,0,0,1,178.081,145.8Zm.786,1.608c-.222.288-.4.24-.538-.038Zm-3.631-4.486.248-.176-.464-.384h.507c.153.653.153.653.622.669-.159.318.048.439.286.555.276.134.474.067.635-.248l-.648-.512.063-.1.58.37,1.027-.28c-.133.219-.37.337-.127.593a2.666,2.666,0,0,1-.929.412,2.2,2.2,0,0,0-1.088.286l-.734-.43.392-.419Zm-.263-2.908c.286.163.561.461,1.136.176l-.626-.289c.372-.424.64-.237.825-.095l.79-.265c-.114.41-.037.809.173.925.253.141.494.268.77-.04.178-.2.454-.144.673.1l-.421.365a3.012,3.012,0,0,0,.558.416.425.425,0,0,1,.275.544l-.352-.17c-.151.157-.094.486-.426.371-.265-.091-.251-.311-.227-.513a2.2,2.2,0,0,1,.15-.443c-.5-.4-.652-.42-1.139-.142a.5.5,0,0,1-.624-.008c-.042-.035-.056-.105-.08-.153.078-.164.151-.319.229-.482l-1.111.327.074.3h-.435a.417.417,0,0,0,.576.341c.205-.045.407-.093.48.18h.024l.005.015.68-.088-.182.465c-.25-.056-.457-.108-.5-.377l-.021,0c0-.008-.006-.01-.008-.018a1.464,1.464,0,0,0-.47.018c-.649.226-.978-.3-1.488-.534l.821-.318C175.143,140.326,174.588,140.337,174.973,140.011Zm4.242,4.343.014.064-.278.091-.031-.115Zm-1.126-2.256-.406.51-.353-.448C177.592,141.984,177.784,141.826,178.089,142.1Zm-1.1.257-.024.089-.344-.08.029-.112Zm.425,2.551-.03.165c-.21-.055-.457.08-.729-.288Zm-.818-.717.041-.113a2.016,2.016,0,0,1,.188.088.4.4,0,0,1-.039.095A1.884,1.884,0,0,1,176.594,144.189Zm-.1,2.033.972-.216c.122.412.005.708-.257.643-.3-.074-.384.119-.519.263C176.423,146.675,176.423,146.675,176.49,146.222Zm1.194-7.92c.029-.023.073-.071.083-.065.083.05.16.111.239.169l-.11.12Zm.639-1.436.519.191-.05.138-.526-.173Zm-.811-.479a2.743,2.743,0,0,0,.669.1l.018.087-.611.216c.132.226.244.415.36.609l.037.009c.173-.017.351-.115.518-.017l-.016.135-.5-.118c-.01,0-.02,0-.029,0l-.008-.013h-.006a.767.767,0,0,1-.819.394l.5-.464-.5-.267c-.095-.319-.176-.586-.259-.866C177.111,136.1,177.291,136.295,177.512,136.387Zm-2.7-.565c.249.149.165.4.27.6C174.784,136.259,174.784,136.259,174.812,135.822Zm-.342.519c.055,0,.111.067.167.1-.052.062-.094.15-.16.176-.037.015-.115-.072-.22-.145C174.355,136.41,174.412,136.342,174.47,136.341Zm-.19,1.683a.818.818,0,0,1,.146.182c.009.023-.063.079-.1.12l-.187-.179Zm-.152.815a.766.766,0,0,1,.425-.107c.2,0,.393.07.591.093.045.005.1-.058.169-.1-.06-.129-.116-.249-.171-.369.259-.222.488-.255.708,0l-.063.463a.449.449,0,0,0,.574-.367c.089-.469.069-.473.545-.507.387.555-.105.9-.269,1.286-.305,0-.565.015-.824,0-.336-.024-.514.148-.569.533l-.417-.486a1.07,1.07,0,0,1-.378.09.555.555,0,0,1-.334-.2C174.063,139.084,174.072,138.876,174.128,138.839Zm-1.248.216h-.7C172.417,138.717,172.417,138.717,172.88,139.055Zm-.745,6.374-.572.141-.078-.149c.107-.05.213-.1.319-.153l.013-.155-.54-.228a2.413,2.413,0,0,0,.5-.281,1.819,1.819,0,0,0,.215-.387C172.55,144.609,172.01,145.03,172.135,145.429Zm-.026-3.921.258-.4C172.417,141.512,172.417,141.512,172.109,141.508Zm-.358,4.47c-.258.051-.431.462-.862.118C171.227,146.042,171.438,145.79,171.751,145.978Zm-1.128-.012c-.246.112-.388.467-.8.338A.726.726,0,0,1,170.623,145.966Zm-.3-8.946,0,.111-.339.022-.007-.154Zm-.056,1.217c-.633-.063-1.007-.618-1.731-.707C169.686,137.325,169.924,137.43,170.268,138.237Zm-1.626-.169c.243.062.53-.232.681.332l-.7-.2Zm.2,8.186-.031-.1c.075-.032.154-.058.233-.084l.034.1Zm1.228-.78c-.442.267-.516-.189-.831-.2C169.713,144.906,169.761,145.423,170.07,145.474Zm1.012,2.73-.332-.061-1.029.1c.1-.142.207-.285.28-.387l.749.283v-.4l.625.138C171.236,148.025,171.107,148.1,171.082,148.2Zm.788-1.193-.818-.065v.008l.571.3-.289.418c-.248-.23-.468-.435-.763-.707h.481v-.011l-.019-.01.019,0c0-.141,0-.3.212-.238a6.513,6.513,0,0,1,.631.25Zm.5.979-.177-.205c.1-.059.16-.13.218-.125s.1.089.153.138Zm-.615-1.484c.575-.231.588-.227.88.254Zm.9-.286-.082-.1.238-.206.106.1Zm.149-5.708-.842-.094.417-.24c-.315-.365-.7-.044-1.041-.167.072-.276.139-.53.206-.784.523-.095.523-.095.5.376l.956.532Zm.217-.748.383-.047,0-.01-.021-.008.026,0c.067-.181.169-.278.387-.057l-.387.057,0,.012.666.236c.1.144-.385.36.025.533a2.046,2.046,0,0,1-.139.546c-.014.037-.14.033-.237.053-.029-.168-.013-.332-.086-.429s-.231-.11-.354-.161C173.477,140.143,173.477,140.143,173.015,139.764Zm1.158,3.678c-.221,0-.4.276-.669.093C174.018,143.247,174.018,143.247,174.173,143.442Zm-.586,3.872a2.664,2.664,0,0,0,.177-.342,1.534,1.534,0,0,0,.025-.3l.449.319Zm1.043-5.707c.069.1.183.206.193.316.007.075-.14.235-.2.228-.1-.01-.187-.131-.347-.258Zm-.214.86a5.514,5.514,0,0,1,.511.39.261.261,0,0,1,.031.255.283.283,0,0,1-.262.04,2.1,2.1,0,0,1-.347-.231Zm-.045,1.793c.628-.382.7-.385.963-.133Zm3.018,3.805-.006-.019c-.5,0-.771-.472-1.228-.607-.27-.079-.45-.469-.652-.7.431-.014.661.126,1.054.673.656.053.666.059.826.632.008,0,.013,0,.021,0l-.015.015a.878.878,0,0,0,.346-.089c.073-.057.081-.2.115-.295a1.428,1.428,0,0,0,1.716-.054c.2.122.368.218.53.32.1.065.269.125.288.214Zm2.59-.946.132-.1c.044.062.1.107.1.151s-.069.07-.108.1Zm.418-.74a.783.783,0,0,1-.321-.1,1.872,1.872,0,0,1-.266-.222c.18-.076.286-.164.363-.143a.628.628,0,0,1,.312.221C180.515,146.176,180.43,146.379,180.4,146.379Zm.726.726-.02-.113.284-.042.015.051Zm.245-3.6c-.34.133-.532.024-.586-.32-.316.026-.622.263-.922-.079.2-.147.562-.047.635-.368h-.007v-.024l-.456-.162.014-.075h.442v.237l.017,0c0,.01-.008.012-.01.02a.393.393,0,0,1,.471.292c.013.039.089.058.139.088l.165-.418.377.1Zm.418-1.069.76-.4c-.122.407-.2.658-.274.91l-.169-.01C182.011,142.785,181.918,142.64,181.786,142.432Zm.567.9-.017.095-.263-.038a.556.556,0,0,1,.034-.1A2.318,2.318,0,0,1,182.353,143.332Zm-.428.567-.011-.068.259-.063.019.131Zm.282,2.925-.033-.144.455-.122.024.167Zm.544-5.069a3.589,3.589,0,0,1-.143-1.073l1.137.5a2.126,2.126,0,0,1-.174.285c-.219.24-.179.425.077.617.239.18.451.4.741.658l-1.212-.073.287-.249C183.2,142.184,182.875,142.017,182.751,141.755Zm1.133,0,.074-.186.424.192-.059.145Zm-.814,3.893c.284-.2.284-.2.35.154Zm1.626,1.819h-.034v-.293h.034Zm.153-1.164h-.922c.1-.15.186-.271.277-.4l.684.28Zm.737-1.081-.234-.567.751.224Zm.523-.991-.4-.217-.008.011,0-.014-1.8.118c-.074-.292-.142-.562-.21-.834h-.478c.017-.086.007-.209.051-.233a.533.533,0,0,1,.79.368c.111.482.147.51.6.426.141-.026.28-.067.369-.089.135-.189.245-.345.352-.5a.539.539,0,0,1,.323.74h0l0,0a3.1,3.1,0,0,1,.268-.378c.027-.029.141.021.246.04Zm.593,2.457c-.166-.027-.322-.064-.359-.437l.455.312Zm.888-.52-.031,0c-.274.4-.29.4-.579.044.2-.016.391-.031.579-.044l.016-.021.031.011c.21-.121.224-.114.572.207l-.572-.207Zm-.736-.564.065-.08.262.158-.117.135Zm.9-2.194a4.062,4.062,0,0,1-.4.1c-.216.052-.433.1-.723.168l-.449-.405.043-.123c.15,0,.3,0,.451,0,.257-.006.53.017.642-.3l-.009,0,.015-.02a2.4,2.4,0,0,0-1.907-.367c.067-.169.083-.34.16-.376a.718.718,0,0,1,.465-.045c.51.146,1.01.326,1.508.488h0v0l-.484-.743.64-.222-.156.965,0,0h0l-.226.3,0,0c0,.008-.008.011-.011.019a3.131,3.131,0,0,1,1.051.307C188.145,143.257,187.953,143.341,187.755,143.411Zm-.679-3.362c.291-.244.512-.541.9-.235-.089.285-.152.532-.249.765-.023.055-.16.063-.3.113.051-.144.077-.217.1-.289Zm1.6,7.662.05-.168.588.207A.474.474,0,0,1,188.673,147.711Zm.1-7.727a.8.8,0,0,1-.095-.148c0-.013.055-.069.075-.065a.508.508,0,0,1,.13.076Zm.176,7.263c-.01.058-.091.1-.141.157-.042-.053-.112-.1-.119-.16s.054-.114.119-.234C188.885,147.132,188.958,147.2,188.949,147.247Zm21.448-2.48a.545.545,0,0,1-.135-.067c.044-.038.08-.083.092-.078a.608.608,0,0,1,.121.089C210.449,144.731,210.419,144.771,210.4,144.767Zm6.715,2.917-.351-.076.026-.117.351.079Zm.008-1.536.488-.058C217.489,146.229,217.376,146.408,217.12,146.148Zm.544.64-.042-.119.712-.455.167.444Zm3.691.225-.329-.211c.146.009.2,0,.214.016A1.637,1.637,0,0,1,221.355,147.013Zm-.533-.729.021-.011c.044-.175.039-.4.386-.221-.129.073-.258.146-.386.221l-.006.025-.016.01c-.006.206-.017.209-.262.165l.262-.165Zm-.5-3.83-.375-.2C220.235,142.17,220.235,142.17,220.318,142.454Zm-.008.672a.192.192,0,0,1-.1.13c-.019.01-.078-.055-.135-.1l.129-.151C220.243,143.047,220.311,143.087,220.31,143.126Zm-.205,3.423.1.09-.225.254-.083-.067Zm.132.983a2.663,2.663,0,0,1,.216.587l-.588-.025C220,147.888,220.105,147.73,220.237,147.532Zm-.6-1.114c-.258.045-.522.058-.782.084h0l.609.3-.458.129c-.059-.164-.1-.294-.151-.424h0l.073-.382a4.381,4.381,0,0,1,.691-.1c.078,0,.155.148.232.228C219.778,146.3,219.714,146.4,219.635,146.418Zm-.516-.841a.564.564,0,0,0-.506-.047c-.253.139.015.311.043.473,0,.029-.035.066-.067.121-.251-.127-.584-.195-.735-.4-.2-.271-.488-.314-.724-.476-.071-.048-.072-.2-.113-.325a2.545,2.545,0,0,0,.938.119.622.622,0,0,1,.872.325l.206-.448.755.584C219.545,145.806,219.362,145.772,219.119,145.577Zm.3-.9a.4.4,0,0,1,.013-.1l.316.055-.027.132C219.618,144.732,219.517,144.706,219.418,144.673Zm.359-1.538-.05.165a.522.522,0,0,1-.7-.378Zm-.255.971c-.092.088-.175.236-.278.251a4.428,4.428,0,0,1-1.155.086c-.247-.029-.576.1-.827-.257A4.581,4.581,0,0,1,219.522,144.106Zm-2.287-.466.056.105-.37.516a.463.463,0,0,1-.571-.374Zm-2.294-1.913c.059.008.136,0,.171.027a2.482,2.482,0,0,1,.225.273C214.93,142.146,214.93,142.146,214.941,141.727Zm-.419.843a.128.128,0,0,1,.018.048c-.06.031-.122.059-.183.087l-.038-.119C214.387,142.58,214.454,142.572,214.522,142.57Zm.805.861c-.357-.005-.72.1-1.008-.229C214.949,142.679,215.118,142.715,215.327,143.431Zm-1.45-3.165c.013.165.024.3.042.531-.193-.2-.326-.344-.5-.531Zm.134,1.29c-.233.32-.391.244-.537.05-.017-.022,0-.066,0-.113Zm-1.631,2.895c.424-.068.935.3,1.284-.241-.035-.237-.075-.51-.116-.781h-.013l0,0-.973.438c-.065-.143-.181-.311-.149-.346a3.392,3.392,0,0,1,.474-.383l-.27-.665,1.093.373-.325.448.15.135.016-.008,0,.013a2.93,2.93,0,0,1,1.073.178c.373.224.737-.278,1.051.076l-.562.451,1.164.358c.014,0,.023.023.013.012l-.126.416.661.077.038.143c-.3.25-.6.5-.9.749.22.212.456.438.754.726l-.737.066-.036.109.327.211c.05.407.095.767.154,1.241l-.724-.318c.116-.278.22-.525.318-.759-.436-.458-.527.154-.76.241-.369-.34-.369-.34-.636-.218.075.188.42.2.339.508-.2-.092-.388-.178-.575-.26s-.377-.158-.586-.245c.033-.152.061-.285.094-.439-.3-.089-.479-.255-.389-.592.468-.221.784.132,1.113.339.459.29.59.28.857-.271-.353-.065-.689-.141-1.03-.185-.252-.033-.426-.118-.466-.4a1.182,1.182,0,0,1,1.593-.36c-.19-.262-.3-.415-.405-.556l-.518.146a.894.894,0,0,0-.146-.224.873.873,0,0,0-.385-.227c-.218-.019-.214.158-.23.344a2.6,2.6,0,0,1-.245.636,4.285,4.285,0,0,0-.6-.563,3.375,3.375,0,0,0-.686-.25Zm-.131-1.88c.048.067.108.115.1.153s-.073.078-.113.116c-.038-.041-.1-.08-.1-.123S212.2,142.635,212.249,142.571Zm-.209,2.97c.18.006.557.485.6.8-.365-.121-.714-.12-.816-.523C211.778,145.627,211.872,145.535,212.04,145.541Zm-.618-6.553.086-.06c.02.029.056.059.055.087s-.037.057-.059.086Zm.052,6.651-.258-.19.043-.085a.617.617,0,0,1,.193.063C211.479,145.447,211.464,145.523,211.474,145.639Zm.035-7.826c.011.246.02.418.03.628C211.088,138.107,211.088,138.107,211.509,137.813Zm-.2,8.159c.035,0,.106.072.1.084a.888.888,0,0,1-.115.157l-.116-.154C211.227,146.024,211.267,145.973,211.308,145.972Zm.5,1.656-.129-.343.439-.224-.037-.419.632.1c-.073.079-.16.173-.242.26.355.492.754-.19,1.093.12.092.284-.177.46-.231.712l.006.008.487-.076.064.119-.279.349-.612.007-.3-.06-.97-.057.149.061-1.245-.125-.057-.355C210.976,147.18,211.391,147.63,211.811,147.628Zm-1.279-.552c.13-.467.13-.467.394-.368C210.783,146.841,210.657,146.958,210.532,147.076Zm.47-8.4c-.269,0-.543.182-.8-.17C210.825,138.215,210.829,138.216,211,138.679Zm-.982,8.626.073.131-.484.234-.063-.136Zm-.746-8.827-.636.076C208.8,138.326,209,138.183,209.274,138.478ZM207.285,136a6.036,6.036,0,0,1,.906.2l-.032.189h-1.033C207.013,136.153,207.091,135.984,207.285,136Zm-.672,11.387.168.152-.05.06-.188-.111Zm2.93.652,0,.188a9.969,9.969,0,0,1-3.341-.359Zm-4.3-9.544.006.141c-.345.1-.345.1-.7-.107Zm-2.012-.622c-.56.234-.557.232-.741-.229a2.037,2.037,0,0,0-.187-.292C202.833,137.27,202.854,137.785,203.235,137.87Zm-1.158.409h.609l-.329.268.114.262C202.007,138.769,202.007,138.769,202.077,138.279Zm-1.663,5.523a.63.63,0,0,1-.082.128l-.157-.128a.6.6,0,0,1,.161-.064C200.363,143.737,200.419,143.791,200.414,143.8Zm-.07-5.119-.044.177c-.236.117-.413.075-.569-.32Zm-1.05-.581c-.433.267-.433.267-.511-.233Zm-1.412.16c-.259.157-.259.158-.475.059-.017-.008-.027-.031-.049-.059Zm-4.219.752.534.058-.008.072h-.538Zm-.293-.243-.555.077C192.955,138.666,193.111,138.54,193.37,138.771Zm-.6-.758a1.5,1.5,0,0,1,.232.239c.016.024-.071.115-.134.213l-.289-.253Zm-.607.682-.365-.169.01-.076a.9.9,0,0,1,.228.035.876.876,0,0,1,.178.136Zm-.037-1.325,0,.077-.791.066,0-.143Zm-.9.328c-.222.249-.222.249-.506.075Zm-1.013.391-.036.118c-.174-.008-.386.1-.512-.23Zm-.93.5c.048.107.238.15.363.223.143.083.344.131.417.254.2.339.517.361.839.408.194.029.427,0,.5.34h-1.017l-.009.1.368.125a2.144,2.144,0,0,1-1.266.181l.562-.29a1.346,1.346,0,0,0-1.02-1.095l-.156.6-.348-.144.436-.721-.847-.354C188.57,138.139,189.038,138.042,189.284,138.588Zm-1.193,1.535c.181-.031.363-.076.38.344-.189-.1-.294-.154-.391-.218C188.065,140.24,188.085,140.178,188.091,140.123Zm-.073-1.334h-.808C187.683,138.408,187.836,138.415,188.018,138.789Zm-.857.666c.015,0,.035.066.085.169-.733.321-1.508-.013-2.371.192a5.436,5.436,0,0,0,1.326.7,1.674,1.674,0,0,1-1.072,0,1.758,1.758,0,0,0-1.01-.044c-.291.106-.526-.054-.773-.331h.857l-.158-.685c.519-.1,1-.395,1.512-.058a.339.339,0,0,0,.242.009C186.259,139.276,186.706,139.483,187.161,139.455Zm-2.353-1.11.315-.1.034.111-.315.1Zm.743.181.394.243C185.452,138.941,185.452,138.941,185.551,138.526Zm-.314-2.6c-.039.036-.093.11-.114.1a.709.709,0,0,1-.162-.126l.13-.1C185.149,135.851,185.193,135.887,185.237,135.924Z" fill="#1d1d1b"/><path d="M289.353,133.428l-.057.052.052.041Z" fill="#1d1d1b"/><path d="M351.51,77.6h-.688l-21.391,28.125L308.04,77.6H288.558V95.492l.4-1.233c.069.656.994.66.678,1.355-.5-.5-.5-.5-1.076-.122v53.244h18.794V98.528l22.075,25.3,0,0,0,0,22.075-25.3v50.208H370.3V77.6ZM304.9,85.486c-.188.312-.507.207-.75.339C304.355,85.451,304.355,85.451,304.9,85.486Zm-.824-.7c.085.124.17.2.172.268s-.085.14-.132.21c-.078-.065-.189-.118-.222-.2C303.879,85.019,303.988,84.921,304.08,84.788Zm-.655-5.379-.028.436h-.139l-.027-.427Zm-.083,8.979,1.089-.326c.126.313-.122.539-.238.817a3.428,3.428,0,0,0-.128.84l-.11.023-.272-.767c-.283.166-.522.306-.765.452l-.011.047c.021.217.144.44.021.65l-.17-.02.149-.63c0-.013,0-.025-.006-.038l.017-.009,0-.008a.963.963,0,0,1-.5-1.029l.583.63Zm.249,1.511q-.119.326-.239.652l-.174-.063c.072-.221.145-.441.217-.661Zm-2.3,17.39c.071-.153.141-.306.212-.46l.1.013a1.125,1.125,0,0,1-.045.287,1.057,1.057,0,0,1-.171.224Zm-.1,1.519-.1-.7C301.329,108.286,301.487,108.482,301.2,108.808Zm.7-1,.25.24a1.871,1.871,0,0,1-.3.291c-.031.02-.145-.089-.267-.169C301.713,108.026,301.806,107.918,301.9,107.812Zm.3-3.659-.14.688-.149-.044C301.916,104.578,301.782,104.312,302.2,104.153Zm-.17-7.133a2.818,2.818,0,0,1,.174-.261l.15.121-.232.239C302.085,97.085,302.018,97.032,302.025,97.02Zm-.261,16.861c.009-.021.038-.033.073-.062v.66C301.64,114.153,301.639,114.152,301.764,113.881Zm.567,1.73c-.1.227-.186.408-.293.641C301.7,115.709,301.7,115.709,302.331,115.611Zm.12-10.132.1.636C302.233,105.835,302.233,105.835,302.451,105.479Zm-.027-10.9c.018-.1.046-.2.071-.305l.137.036-.084.305C302.505,94.6,302.423,94.582,302.424,94.578Zm-.556-14.8c.08-.8.777-1.266.889-2.175C303.015,79.044,302.882,79.343,301.868,79.775Zm.268,5.042a.986.986,0,0,1-.229.184c-.028.012-.1-.08-.15-.124l.225-.235Zm-.226-7.11.171.025c-.078.305.291.667-.418.856Zm-1.069,4.471c.425.3.425.3,0,.88Zm.271,2.448a.964.964,0,0,1,.135.535c-.007.248-.089.493-.117.743-.007.056.073.123.131.212l.463-.216c.279.326.32.614.006.891l-.581-.079a.564.564,0,0,0,.461.721c.589.112.593.086.637.684-.7.487-1.129-.131-1.617-.337,0-.383-.017-.711,0-1.036.029-.422-.187-.646-.67-.715l.611-.524a1.327,1.327,0,0,1-.113-.475.7.7,0,0,1,.249-.42A.415.415,0,0,1,301.112,84.626Zm.584,7.846c-.5-1.039-.505-1.122.018-1.478C301.832,91.538,302.072,91.991,301.7,92.472Zm.157,5.971-.139.043c-.04-.131-.081-.263-.121-.4l.141-.043Zm-1.1-1.765c-.346-.119-.716-.123-.774-.616-.047-.4-.376-.335-.63-.272-.625-.654.471-1.06.16-1.7l-.754-.063.631-.956c-.449.158-.545-.007-.537-.35.012-.5.4-.81.6-1.211l-.009,0-.01-.016a.584.584,0,0,1-.5-.342,8.8,8.8,0,0,0,.439-.908c.128-.374.205-.766.292-1.1a3.3,3.3,0,0,0,.873-.079,2.614,2.614,0,0,0,.6-.508c.049.392.108.721.121,1.051a.372.372,0,0,1-.18.3.431.431,0,0,1-.332-.115.986.986,0,0,1-.171-.3c-.773.493.235,1.078-.143,1.554-.306.025-.6.031-.881.076s-.234.2-.117.373c.012,0,.018,0,.029,0l-.01.016,1.283.6c-.022.353-.044.709-.067,1.076-.19-.215-.261-.611-.741-.4.5.33.388.747.237,1.158-.08.218-.223.414-.288.635-.033.111.046.254.1.494.417-1.186.417-1.186,1.432-1.2.15.452-.2.608-.5.748.123.413.229.775.345,1.166-.255.03-.454-.248-.683.05C300.265,96.227,300.786,96.353,300.752,96.678Zm-.353,2.615c.164.579-.1,1.14-.061,1.712,0,.019-.083.043-.213.107-.4-.922.017-1.895-.241-2.979A6.826,6.826,0,0,0,299,99.8a2.1,2.1,0,0,1,0-1.346,2.208,2.208,0,0,0,.056-1.27c-.134-.365.067-.661.415-.972v1.077l.862-.2c.125.653.5,1.254.073,1.9A.421.421,0,0,0,300.4,99.293Zm-.512,2.732c-.359-.112-.669-.19-.961-.312-.07-.029-.08-.2-.143-.381l.364.129.445-.563C299.9,101.264,300.271,101.541,299.887,102.025Zm.053.981a.68.68,0,0,1-.094.164l-.173-.139a.921.921,0,0,1,.186-.119C299.875,102.907,299.946,102.981,299.94,103.006Zm-.874-.355c.129-.237.194-.369.274-.491.011-.018.089.006.159.013C299.537,102.4,299.6,102.63,299.066,102.651Zm2.439-3.67-.306.5C300.984,98.857,300.984,98.857,301.505,98.981Zm-.33,2.085c.478.595.47.787,0,1.016Zm.33-11.7.282-.266c.029.036.09.09.082.1-.064.105-.141.2-.213.3ZM299.127,81.9l.3.525c.46-.4.055-.877.21-1.31l.985.26c.12.656.12.656-.472.624l-.668,1.2-.475-.242C299.051,82.578,299.09,82.23,299.127,81.9ZM298.841,84c.114-.086.138-.29.2-.445.431.25.431.25.907-.331.024.2.042.339.059.482l.013.006.009-.026,0,.032c.227.085.35.214.072.487l-.072-.487-.014-.006c-.1.27-.192.54-.3.837-.181.13-.453-.484-.67.031a2.524,2.524,0,0,1-.686-.174c-.047-.017-.042-.176-.067-.3C298.513,84.075,298.72,84.1,298.841,84Zm-.579-1.59c-.509.064-.509.064-.5-.324Zm.216,2.408.4,1.032c.366.049.352-.649.761-.165-.2.359-.579.706-.22,1.429.155-.337.261-.568.363-.788.532.467.3.8.119,1.037.125.374.22.657.332.993-.514-.143-1.016-.047-1.162.217-.177.319-.337.621.05.967.25.225.181.571-.126.846l-.458-.529a3.9,3.9,0,0,0-.523.7.532.532,0,0,1-.683.346l.213-.442c-.2-.189-.611-.118-.466-.535.115-.333.391-.316.645-.285a2.719,2.719,0,0,1,.556.188c.5-.633.528-.819.179-1.431a.628.628,0,0,1,.01-.785c.044-.053.132-.07.192-.1l.607.288c-.147-.5-.278-.94-.412-1.4l-.372.093v-.548a.525.525,0,0,0-.427.725c.056.257.116.511-.227.6,0,.01,0,.02,0,.03s-.011,0-.018.006c.033.256.066.515.11.854l-.584-.227c.07-.315.135-.576.474-.627l0-.026c.01,0,.013-.007.022-.01a1.838,1.838,0,0,0-.022-.591C297.523,85.876,298.187,85.461,298.478,84.821Zm-1.928,14c.212.084.427.1.471.2a.916.916,0,0,1,.058.585c-.184.64-.411,1.268-.614,1.894h0l.933-.608.281.8-1.214-.2,0,0,0,0-.378-.284,0,.006c-.011,0-.014-.01-.024-.013a3.93,3.93,0,0,1-.385,1.321c-.115-.287-.22-.529-.308-.777a4.964,4.964,0,0,1-.132-.5c-.066-.271-.127-.544-.211-.908l.508-.564.155.054c0,.189,0,.378,0,.567.008.323-.021.666.372.807l0-.012.024.019A3.021,3.021,0,0,0,296.55,98.819Zm.707-1.381.189-.551.234.093c-.081.177-.161.355-.242.532Zm-.835,35.1c-.084.06-.145.136-.192.128s-.1-.092-.146-.142c.051-.048.1-.129.155-.133S296.342,132.466,296.422,132.534Zm-2.087-32.85.272-.5-.014-.011.017,0c-.049-.76-.1-1.521-.148-2.26l1.048-.265v-.6c.109.022.263.009.294.065a.671.671,0,0,1-.462.993c-.606.139-.641.184-.536.757.032.177.084.351.111.463l.624.443a.678.678,0,0,1-.931.405h0l0,.006a3.836,3.836,0,0,1,.475.337c.037.034-.026.177-.05.308Zm.62,17.878c0,.034-.066.1-.08.1a.843.843,0,0,1-.161-.1l.161-.2A.757.757,0,0,1,294.955,117.562Zm-.655-29.6c.024-.081.057-.159.088-.238l.142.051a2.415,2.415,0,0,1-.11.236A.522.522,0,0,1,294.3,87.964Zm.317,3.52-.067-.125.144-.137c.028.049.092.119.078.141C294.741,91.416,294.671,91.445,294.617,91.484Zm.221,2.927.08.326-.165.024v-.336Zm.917-2.581c.184.25.059.707.462.8l0-.009h.03l.2-.573.094.017v.556h-.3l-.007.021c-.012,0-.014-.01-.025-.012a.493.493,0,0,1-.367.592c-.049.016-.072.111-.11.175l.526.207-.133.473-.88-.35c-.166-.427-.03-.669.4-.737C295.623,92.592,295.325,92.207,295.755,91.83Zm-.23,2.824c-.012.1-.037.206-.059.309l-.12-.021.048-.331A.664.664,0,0,1,295.525,94.654Zm.432.208.013-.214c.183-.115.366-.232.627-.4l.5.956Zm1.061-.541.613-1c.189.485.361.929.545,1.4l-.431.327C297.492,94.767,296.969,94.764,297.018,94.321Zm.424-3c-.03.428-.06.851-.1,1.351C296.725,91.787,296.725,91.787,297.442,91.32Zm.641,1.62c-.186-.33-.186-.33.189-.445C298.208,92.647,298.153,92.776,298.083,92.94Zm0-1.31.057-.452.133,0c.014.146.027.292.041.439Zm-.814-6.823.359.45c-.132.087-.258.23-.4.243-.1.008-.3-.176-.288-.256C296.963,85.118,297.114,85.008,297.274,84.807Zm-.258,4.8-.64-.51.562-.444C297.16,88.98,297.358,89.22,297.016,89.6Zm-.323-1.385-.111-.03c.033-.144.066-.288.1-.432l.141.036C296.78,87.935,296.736,88.077,296.693,88.219Zm-1-2.879a2.569,2.569,0,0,1,.29-.436l.571.084a6.93,6.93,0,0,1-.49.642.328.328,0,0,1-.321.04A.356.356,0,0,1,295.692,85.34Zm-.482-1.5c.362.646.362.646.117.841C295.321,84.405,294.981,84.182,295.21,83.842Zm.354,2.642.42-.465c.088.123.147.2.222.312l.483-.583v.636c-.821.193-.821.193-.841.782-.4-.2-.553.06-.7.359-.168.348-.084.6.312.8l.643-.814.127.079c-.176.277-.352.554-.465.73.136.5.244.893.352,1.29-.275-.166-.424-.465-.745-.159a3.345,3.345,0,0,1-.518-1.168,2.757,2.757,0,0,0-.359-1.367c.181-.311.348-.595.54-.923Zm-1.1-.341c-.054-.392-.11-.8-.166-1.212C294.779,85.721,294.784,85.812,294.466,86.143Zm-1.437-7.661c.458.6-.192.656-.255,1.045C292.438,78.971,293.011,78.879,293.029,78.482Zm-.189,2.823.192.4.2.016.286-.678a3.042,3.042,0,0,0,.353.622,2.291,2.291,0,0,0,.487.27c-.494.708-1.022.029-1.524.186-.06-.245-.119-.482-.177-.719Zm1.342,9.714-.081.017-.114-.348.144-.04Zm-.38,7.713-.282.943c-.206-.309-.305-.46-.431-.65Zm-.522-10.016c.07-.264-.1-.575.362-.916-.067.416-.111.685-.155.954Zm.467,41.32c.048.056.1.1.1.116a.8.8,0,0,1-.111.153c-.025-.034-.075-.071-.07-.1A.651.651,0,0,1,293.747,130.036Zm-1.263-40.685c.142-.166.3-.318.524-.555.025.23.1.445.045.489-.54.424-.22.939-.173,1.42a1.457,1.457,0,0,0,.141.364,5.583,5.583,0,0,1-.653-1.475C292.348,89.531,292.426,89.419,292.484,89.351Zm-.584,12.193,0-.038c-.506-.345-.505-.365-.055-.728.02.257.038.491.055.728l.027.019-.014.039c.151.265.143.282-.261.72l.261-.72Zm-1.2,32.646c-.357.116-.579-.222-.9-.29l-.009.007.1.613-.15.079-.438-.35-.01-.769.076-.38.071-1.219-.076.187.156-1.564.447-.071c.66.5.094,1.022.1,1.55l.431-.162.281.552.527-.047c-.051.319-.09.57-.126.8l-.326-.3C290.236,133.262,291.092,133.764,290.7,134.19Zm1.4-45.373c-.518.153-.89.006-.808-.324.093-.378-.149-.482-.33-.652.3-.331.3-.331.867-.247Zm-.269-6.05.128-.1.259.3-.126.133Zm.384,9.456a.78.78,0,0,1-.278.392c-.051.038-.305-.069-.305-.11a.954.954,0,0,1,.124-.4,2.346,2.346,0,0,1,.279-.335C292.136,91.994,292.246,92.127,292.22,92.223Zm-.809,3.087-.209.03c-.042-.187-.083-.374-.125-.561l.181-.041Zm-.189,35.56-.461-.494C291.347,130.539,291.347,130.539,291.222,130.87Zm-1.037-1.733.288.595-.164.092c-.1-.2-.2-.405-.3-.608Zm-.078-3.538.139-.237.128.089-.192.21Zm.242-22.524c.066-.053.129-.14.2-.15s.142.068.294.15c-.154.1-.235.188-.3.178S290.414,103.138,290.349,103.075Zm.5-9.308-.13-.35.142-.024.054.356Zm-.209-1.5c-.044,0-.088-.087-.131-.136l.193-.154.128.165C290.757,92.2,290.7,92.27,290.645,92.27Zm-.009,5.595v.043h-.369v-.043Zm-.289-7.283c-.362-.279-.3-.5.048-.677Zm-.173,12.386c-.07.2-.14.4-.26.739a.592.592,0,0,1,.049-.8Zm1.073-2.54c.034-.208.081-.4.549-.451l-.393.572Zm.791,30.76c.045.061.108.111.11.163s-.091.134-.105.127a1.136,1.136,0,0,1-.2-.144Zm.3.815c.24-.061.355.057.348.268-.008.226-.61.7-1,.758C291.838,132.57,291.836,132.131,292.342,132Zm.224-.444.239-.323.107.053a.772.772,0,0,1-.08.243C292.808,131.566,292.712,131.547,292.566,131.559Zm-.012-35.695c.254.357.254.357-.194.44Zm.055,4.756.1.081-.2.329-.17-.147Zm-.724-2.471-.155-.05V96.941l.506.348C292.105,97.608,292,97.879,291.885,98.149Zm.256-16.51c-.065-.324-.581-.542-.15-1.083C292.06,80.981,292.376,81.245,292.141,81.639Zm-.22-3.695c.04.095.072.194.105.293l-.12.042c-.038-.1-.075-.2-.112-.3A1.128,1.128,0,0,1,291.921,77.944Zm-.191,1.266a.913.913,0,0,1,.426,1.012C292.015,79.913,291.569,79.734,291.73,79.21Zm-.573,3.534c.106-.366.192-.666.319-1.106C291.767,82.361,291.762,82.377,291.157,82.744Zm.111,1.457-.4.563-.406-.817a3.52,3.52,0,0,0,.43.223A2.048,2.048,0,0,0,291.268,84.2Zm-.369-4.045c0,.267,0,.436,0,.6h.014l.012-.024,0,.024c.177,0,.377,0,.3.267a8.2,8.2,0,0,1-.314.792l-.066-.032.081-1.027h-.01l-.379.717-.524-.364Zm-.873,2.306c-.006.069-.111.129-.173.192l-.241-.243c.071-.062.143-.123.257-.223C289.944,82.309,290.032,82.39,290.026,82.462Zm-.25-3.022-.357.941h.509c-.058.262-.109.49-.174.785-.186-.175-.283-.336-.411-.367l.076-.418-.13-1.293C289.467,79.219,289.648,79.348,289.776,79.44Zm-1.186,7.626a2.619,2.619,0,0,0,1.09-1.771c.4.124.606.3.366.578-.318.36-.178.641.079.968l-.789.607Zm1.076,5.06c-.082.13-.158.338-.269.362l.12-3.763.025-.007c0-.63.593-.969.762-1.544.1-.34.589-.565.878-.82.017.542-.159.831-.846,1.325-.066.826-.07.837-.794,1.039,0,.01-.006.016,0,.026l-.02-.019a1.124,1.124,0,0,0,.112.435c.072.091.249.1.371.143a1.8,1.8,0,0,0,.068,2.157C289.914,91.715,289.794,91.923,289.666,92.126Zm.1,32.806q-.107,2.1-.215,4.2l-.236,0A12.51,12.51,0,0,1,289.769,124.932Zm-.319,17.911.031-.739c.259.172.457.3.707.467A3.2,3.2,0,0,1,289.45,142.843Zm.69-4.166-.143-.032.095-.441.147.033Zm.945,5.155a2,2,0,0,1-.245.145l.265-.413C291.093,143.747,291.108,143.814,291.085,143.832Zm.759-3.651-.558.21c-.062-.4-.113-.726-.164-1.053l.15-.053C291.453,139.569,291.634,139.851,291.844,140.181Zm.082-1.525c.033.268.053.44.074.612C291.825,139.118,291.6,138.977,291.926,138.656Zm-.445,2.178v0h0l.481.092a5.518,5.518,0,0,1,.129.868c0,.1-.185.194-.286.292-.076-.09-.2-.17-.219-.269-.057-.325-.074-.656-.106-.982h0l-.371.765c-.073-.261-.116-.411-.162-.575Zm-.171,1.7-.32-.283.085-.1.348.257Zm.738,1.282c-.092-.163-.184-.325-.278-.485l-.031-.007-.014-.021c-.258-.008-.263-.021-.206-.329l.206.329h.03l.015.027C291.99,143.389,292.274,143.383,292.048,143.819Zm.687-1.812c-.378-.3-.335-.534-.091-.84a.707.707,0,0,0,.06-.636c-.175-.318-.391.02-.6.054-.036.006-.083-.044-.152-.083.16-.316.245-.734.5-.925.341-.253.395-.613.6-.909.061-.089.249-.091.408-.142a3.179,3.179,0,0,0-.148,1.179.782.782,0,0,1-.409,1.095l.562.258C293.211,141.392,292.973,141.7,292.735,142.007Zm1.1-.051-.166-.034c.035-.127.068-.255.111-.38a.66.66,0,0,1,.124.017Zm.657-.283c-.11-.115-.3-.219-.316-.348a5.578,5.578,0,0,1-.107-1.452c.035-.311-.128-.725.323-1.04A5.769,5.769,0,0,1,294.493,141.673Zm.453-2.8-.648-.465a.582.582,0,0,1,.471-.717l.31,1.112Zm.779,3.795a.247.247,0,0,1-.164-.126c-.013-.023.069-.1.123-.169l.19.162C295.824,142.579,295.774,142.665,295.725,142.665Zm-.011-.67-.208-.064a.655.655,0,0,1,.475-.881Zm-.373-5.593c.007-.449-.13-.9.287-1.267C296.287,135.927,296.24,136.139,295.341,136.4Zm1.022-.99c-.039-.075-.073-.152-.109-.229l.149-.048c.008.085.017.17.02.255C296.424,135.4,296.364,135.415,296.363,135.412Zm-.28-1.049-.564-.408-.168.188.009.02-.017,0a3.646,3.646,0,0,1-.223,1.349c-.282.468.35.926-.1,1.321l-.567-.707c-.17.556-.309,1.01-.45,1.463,0,.018-.03.029-.016.016l-.522-.158c-.038.327-.067.579-.1.83l-.181.048-.94-1.128-.913.947-.083-.926-.137-.046-.266.411-1.559.194c.162-.369.277-.629.4-.91l.953.4c.575-.548-.194-.662-.3-.955.427-.463.427-.463.273-.8-.235.094-.25.527-.637.425.115-.254.223-.487.326-.722s.2-.473.308-.736l.551.117c.113-.378.322-.6.744-.488.278.588-.165.986-.426,1.4-.364.577-.351.741.341,1.077.082-.444.177-.867.233-1.295.041-.316.148-.534.507-.585a1.483,1.483,0,0,1,.453,2l.7-.508c-.072-.253-.126-.445-.184-.651a1.128,1.128,0,0,0,.281-.184,1.1,1.1,0,0,0,.287-.484c.022-.274-.2-.268-.433-.289a3.262,3.262,0,0,1-.8-.307,5.45,5.45,0,0,0,.707-.759,4.211,4.211,0,0,0,.314-.862l.168.033c.086.534-.375,1.175.3,1.613.3-.043.641-.093.981-.145l0-.016.006-.007c-.179-.4-.358-.793-.551-1.223.179-.081.391-.226.435-.187a4.225,4.225,0,0,1,.48.6l.836-.34Zm.486,8.311.246-.471C296.926,142.57,296.926,142.57,296.569,142.674Zm.88-6.543a2.987,2.987,0,0,1-.344.283c-.149-.511-.149-.511.377-.5C297.473,135.991,297.489,136.087,297.449,136.131Zm.249-1.383c-.4-.292-.307-.491-.063-.676.027-.02.083,0,.142,0C297.753,134.271,297.73,134.467,297.7,134.748Zm.112-38.255c-.3-.275-.533-.225-.775.1-.226.3-.5.567-.827.932.031-.513.056-.926.092-1.523l.313.359c.3-.332.506-.739.835-.9a4.567,4.567,0,0,1,1.347-.18l-.626,1.43A2.732,2.732,0,0,1,297.81,96.493Zm1.509,38.087-.667.053c.257-.244.432-.411.667-.633Zm1-28.871c-.035.242,0,.535-.426.627v-1.277l-.123-.012c-.052.154-.105.308-.157.463a2.707,2.707,0,0,1-.228-1.592c.141.273.253.491.365.706a1.69,1.69,0,0,0,1.376-1.281l-.756-.2c.073-.176.125-.3.181-.436l.9.547c.141-.335.293-.7.445-1.064.1.583.217,1.171-.469,1.48-.135.061-.19.3-.281.456-.1.179-.164.433-.32.525C300.4,104.9,300.374,105.3,300.315,105.709Zm.414,3.452.163.015-.072.672-.091-.011Zm.162,22.511c-.037,0-.072-.047-.108-.074l.142-.1.075.107C300.964,131.628,300.927,131.673,300.891,131.672Zm.6-14.87c-.079.336-.13.554-.18.771l-.222-.057C300.939,117.22,300.991,117,301.488,116.8Zm.328,2.948v.766l-.336-.413c-.106.045-.2.086-.33.143C301.2,119.663,301.2,119.663,301.816,119.75Zm-.25,9.046c-.037-.3-.066-.553-.1-.8C301.757,128.2,301.936,128.452,301.566,128.8Zm-.195-5.055c-.127-.433-.127-.433.135-.884.018.383.03.63.042.878Zm.156,6.226c.369.777.368.782-.214,1C301.316,130.629,301.085,130.284,301.527,129.967Zm.085,1.674c.42-.566.42-.566.789-.038Zm.717-10.435c-.293-.7-.291-.7.289-.932a2.732,2.732,0,0,0,.367-.235C303.084,120.7,302.437,120.727,302.329,121.206Zm.449-14.955.18-.007v1l-.1,0ZM303.686,95c-.031-.311-.047-.47-.063-.623-.011,0-.012-.005-.024-.006l0,0c-.5.259-.178.831-.416,1.2a.9.9,0,0,1-.1-1.156c.143-.15.323-.279.515-.048.01-.005.015-.012.026-.017l0,.026C304.046,94.42,303.879,94.627,303.686,95Zm.711-3.985a.405.405,0,0,1,.293.263c.011.092-.168.3-.245.29-.144-.017-.274-.152-.5-.294C304.162,91.141,304.287,91,304.4,91.014Zm.039,36.419-.238-.04v-1.3c.29-.143.5-.045.485.2A7.487,7.487,0,0,1,304.436,127.433Zm.339-28.846c-.045-.049-.138-.117-.128-.142a.871.871,0,0,1,.159-.2l.123.163Zm.165,26.838.195-.123.1.713C305.135,125.818,305.037,125.621,304.94,125.425Z" fill="#1d1d1b"/><path d="M437.144,133.764c-.018.019-.033.037-.051.057l.054.034Z" fill="#1d1d1b"/><path d="M448.934,98.306l-.035.052c-.049-.043-.146-.1-.138-.127a.834.834,0,0,1,.135-.214l0,0-.812-6.644c-.048.086-.123.172-.17.171-.142,0-.282-.123-.513-.24.2-.15.306-.3.414-.3a.384.384,0,0,1,.241.143l-.648-5.3a1.053,1.053,0,0,0-.318.119c.1-.235.149-.32.289-.359L446.4,77.6h-45.33l-8.705,71.136h17.25l1.991-17.389h24.257l1.991,17.389h17.25Zm-.817,16.873-.225.653C447.514,115.334,447.514,115.334,448.117,115.179Zm-.269-9.187.093.972-.093.012c-.058-.32-.117-.641-.175-.961ZM447.5,94.964c-.06-.3-.091-.454-.12-.6-.011,0-.012,0-.024,0l0,0c-.464.3-.094.827-.291,1.213a.882.882,0,0,1-.206-1.118c.126-.159.288-.3.5-.095.01-.006.014-.013.024-.019l0,.026C447.8,94.365,447.653,94.583,447.5,94.964Zm-.1,18.583c.008-.022.035-.036.066-.067.021.21.039.395.062.643C447.306,113.823,447.305,113.823,447.4,113.547Zm-.119-8.253c.051.2.1.407.152.61C447.1,105.662,447.1,105.662,447.282,105.294Zm-.7-14.679.15-.665.2.051-.172.659Zm0,16.087a1.159,1.159,0,0,1-.016.284,1.04,1.04,0,0,1-.147.234l-.1-.053c.055-.156.109-.313.163-.468Zm.325-2.677-.072.684-.149-.029C446.675,104.466,446.519,104.219,446.907,104.025Zm.017-19.05c.094.113.184.174.193.245s-.07.144-.11.217c-.082-.056-.195-.1-.235-.175C446.75,85.219,446.847,85.113,446.924,84.975Zm-.381,3.578,1.03-.42c.153.293-.067.536-.154.818a3.31,3.31,0,0,0-.047.831l-.105.033c-.1-.22-.2-.439-.337-.723-.26.189-.479.348-.7.513l-.006.047c.041.21.182.416.082.632l-.168,0,.086-.628a.237.237,0,0,1-.009-.036l.015-.011V89.6a.944.944,0,0,1-.579-.957l.627.559Zm-.189,6.142a.953.953,0,0,1-.124-.024c.008-.1.026-.2.041-.3l.137.022Zm.019,2.228-.2.254c-.035-.03-.105-.075-.1-.088a2.944,2.944,0,0,1,.145-.271Zm-.655,5.179-.1-.989C446.145,101.648,446.154,101.836,445.718,102.1Zm-.221-2.541c-.268-.583-.268-.583.251-.511Zm.409-1.014-.156-.373.133-.055.154.374Zm-.126-18.753.014.428-.136.012-.066-.414Zm-.457,12.894c-.588-.966-.6-1.046-.122-1.442C445.367,91.765,445.644,92.184,445.323,92.688Zm-.125,3.273c-.246.053-.466-.2-.661.113-.256.408.264.482.261.8-.348-.084-.709-.053-.812-.527-.084-.385-.4-.292-.64-.206-.67-.579.36-1.078,0-1.67l-.742.01c.188-.353.341-.643.526-.991-.423.2-.532.044-.556-.29-.036-.494.314-.827.468-1.237l-.009,0-.011-.016a.569.569,0,0,1-.52-.286,8.435,8.435,0,0,0,.343-.926c.09-.377.128-.766.181-1.1a3.2,3.2,0,0,0,.844-.159,2.565,2.565,0,0,0,.535-.551c.085.377.173.692.217,1.012a.365.365,0,0,1-.148.309.423.423,0,0,1-.334-.081.96.96,0,0,1-.195-.277c-.707.553.33,1.028.007,1.528-.3.053-.579.085-.852.157-.258.067-.209.22-.078.373.01,0,.017,0,.028,0l-.008.017,1.306.46c.012.346.024.7.036,1.055-.2-.192-.312-.571-.76-.32.52.274.449.691.34,1.106-.057.22-.178.425-.221.646-.021.111.068.244.142.472.3-1.2.3-1.2,1.283-1.3.188.427-.133.611-.413.776Zm-.5,3.5c.215.548.014,1.12.1,1.674,0,.019-.077.05-.2.124-.479-.86-.162-1.848-.515-2.881a6.7,6.7,0,0,0-.7,1.706,2.049,2.049,0,0,1-.125-1.312,2.161,2.161,0,0,0-.066-1.243c-.164-.343,0-.651.314-.986.039.408.069.716.1,1.05l.821-.275c.183.625.6,1.177.25,1.845A.414.414,0,0,0,444.7,99.458Zm-.983,3.4c.1-.244.155-.378.221-.5.01-.019.088,0,.156,0C444.152,102.568,444.23,102.785,443.716,102.856Zm.233,29.372c-.076.066-.129.146-.175.143s-.1-.08-.156-.125c.046-.051.086-.134.139-.144S443.864,132.169,443.949,132.228Zm-.457-30.273c-.071-.022-.1-.19-.175-.358l.366.091.381-.59c.333.327.722.563.394,1.071C444.1,102.094,443.788,102.046,443.492,101.955Zm1.021,1.08c.016-.006.093.06.089.084a.624.624,0,0,1-.077.169l-.181-.119A1.007,1.007,0,0,1,444.513,103.035Zm-3.406,27.011c.052.049.111.087.106.1a.789.789,0,0,1-.094.16c-.028-.031-.081-.063-.078-.09A.646.646,0,0,1,441.107,130.046Zm-.23-12.253.137-.208a.714.714,0,0,1,.1.19c0,.032-.055.107-.069.1A.814.814,0,0,1,440.877,117.793Zm.2-15.815,0,0v0l-.395-.241,0,.006c-.01,0-.014-.008-.024-.01a3.859,3.859,0,0,1-.251,1.323c-.139-.269-.264-.494-.373-.728a4.891,4.891,0,0,1-.176-.474c-.089-.259-.175-.519-.291-.866l.442-.6.156.038c.018.184.032.369.054.552.038.314.043.651.439.752v-.012l.026.016a2.956,2.956,0,0,0,.226-2.379c.214.062.426.061.478.152a.894.894,0,0,1,.111.564c-.119.642-.281,1.275-.42,1.9h0l.853-.68.348.757Zm-2.046-2.093.017,0c-.12-.737-.24-1.473-.357-2.189l1-.357c-.022-.223-.038-.389-.057-.585.108.011.257-.016.293.035a.658.658,0,0,1-.357,1.012c-.578.192-.608.239-.452.787.049.171.115.335.152.441l.65.373a.664.664,0,0,1-.869.483h0l0,.006a3.809,3.809,0,0,1,.494.283c.039.03-.008.175-.019.306l-.694-.075c.092-.215.155-.365.219-.514Zm-.3,31.211-.5-.439C438.815,130.762,438.815,130.762,438.725,131.1Zm-.472-38.821.128-.147c.032.045.1.107.089.13-.025.055-.091.09-.14.133Zm.487,2.969.081-.022.109.31-.159.039Zm.732-2.623c.2.226.124.683.526.734v-.008l.03,0,.144-.578.093.008.052.541-.289.029,0,.021c-.012,0-.015-.009-.025-.01a.483.483,0,0,1-.3.611c-.046.021-.06.116-.091.181l.532.153-.085.473-.89-.258c-.2-.4-.092-.649.323-.756C439.415,93.375,439.088,93.028,439.472,92.621Zm2.312-3.6a.615.615,0,0,1-.064-.765c.038-.056.122-.081.178-.116l.618.223-.533-1.321-.353.125c-.017-.179-.032-.338-.051-.533a.514.514,0,0,0-.349.746c.079.246.162.487-.164.609l0,.03c-.007,0-.01.005-.017.007l.187.822-.59-.167c.039-.313.077-.573.4-.655l-.006-.024c.01,0,.012-.01.021-.013a1.812,1.812,0,0,0-.077-.574c-.354-.767.255-1.234.478-1.885.2.395.356.709.487.968.361.014.281-.666.726-.232-.166.369-.5.742-.08,1.412l.279-.8c.563.405.365.755.214,1,.157.353.276.619.417.937-.515-.091-1,.05-1.112.32-.143.328-.27.637.14.939.265.2.23.539-.043.836-.142-.135-.274-.26-.5-.473a3.687,3.687,0,0,0-.444.733.522.522,0,0,1-.634.4l.166-.451c-.209-.166-.606-.057-.5-.478.08-.335.351-.344.6-.338a2.693,2.693,0,0,1,.56.131C442.175,89.773,442.182,89.59,441.784,89.025Zm-.847,5.905.5-1.036.664,1.316-.39.359C441.441,95.319,440.931,95.366,440.937,94.93Zm.163.854-1.146-.228-.007-.208.573-.448Zm-.031-3.819.033,1.326C440.414,92.488,440.414,92.488,441.069,91.965Zm.919,1.067-.143.452C441.633,93.179,441.633,93.179,441.988,93.032Zm-.261-.826.013-.445.13-.01.082.423Zm-1.235-1.873-.672-.438c.194-.185.337-.322.506-.485C440.573,89.711,440.789,89.927,440.492,90.333Zm-.978,5.061c0,.1-.017.2-.029.308l-.119-.01.015-.327A.641.641,0,0,1,439.514,95.394Zm.036,35.935c.049.055.116.1.122.148a.209.209,0,0,1-.09.134,1.139,1.139,0,0,1-.206-.122Zm.373.765c.228-.082.351.023.364.229s-.529.739-.908.833C439.485,132.7,439.442,132.267,439.923,132.094Zm.176-.453.2-.338.109.042a.758.758,0,0,1-.055.244C440.336,131.624,440.241,131.615,440.1,131.641Zm1.364-33.7c.044-.185.089-.37.133-.555l.237.069-.186.542Zm.451-.972c-.319-.24-.541-.17-.747.166-.192.315-.433.6-.718.986-.018-.5-.033-.907-.054-1.492l.339.321c.257-.352.423-.769.73-.951a4.409,4.409,0,0,1,1.3-.3c-.165.5-.314.958-.476,1.452A2.64,2.64,0,0,1,441.914,96.973Zm2.93-7.3.25-.285c.031.032.1.08.089.093-.052.108-.118.21-.179.313ZM444.3,80.3c0-.782.638-1.306.662-2.2C445.346,79.477,445.245,79.781,444.3,80.3Zm.735,4.889a1.011,1.011,0,0,1-.206.2c-.026.014-.1-.069-.158-.107l.2-.25Zm-.889-6.908.169.008c-.047.3.346.622-.327.874Zm-.539,5.316c-.032-.329-.055-.571-.083-.858C443.964,82.986,443.964,82.986,443.6,83.594Zm.02,1.524c.084-.072.34-.086.392-.022a.936.936,0,0,1,.181.508c.017.243-.04.49-.044.736,0,.056.083.113.148.194l.431-.254c.3.292.37.568.09.868l-.574-.023c-.018.437.208.632.517.66.584.053.587.028.685.606-.634.541-1.113-.021-1.607-.176-.036-.374-.084-.691-.093-1.01-.011-.414-.243-.612-.72-.634l.546-.567a1.308,1.308,0,0,1-.155-.453A.693.693,0,0,1,443.624,85.118Zm-1.8-2.495.343.483c.411-.43-.028-.86.082-1.3l.984.16c.179.629.179.629-.4.654l-.539,1.233-.485-.192Zm-.081,2.08c.1-.095.107-.3.155-.453.443.2.443.2.853-.408.042.189.073.326.1.464l.013,0,.006-.026.008.032c.23.061.361.174.116.468l-.116-.468-.014-.006-.211.845c-.164.143-.487-.43-.65.093a2.473,2.473,0,0,1-.685-.106c-.047-.012-.058-.167-.093-.283C441.431,84.8,441.634,84.8,441.744,84.7Zm-.714-1.5c-.49.109-.49.109-.522-.269Zm-.737,2.425.391.405c-.12.1-.229.249-.363.274-.091.017-.305-.143-.3-.223C440.018,85.966,440.155,85.844,440.293,85.633Zm-.3,2.931.141.022-.086.427L439.936,89C439.955,88.851,439.973,88.708,439.992,88.564Zm-.95-2.714.565.028a6.965,6.965,0,0,1-.418.672.322.322,0,0,1-.309.068.348.348,0,0,1-.079-.316A2.451,2.451,0,0,1,439.042,85.85Zm.107,1.085.246.283.415-.613.06.62c-.782.266-.782.266-.746.842-.408-.158-.533.11-.646.415-.132.355-.026.589.379.749l.55-.855.131.066-.384.755c.179.471.322.847.464,1.224-.284-.137-.457-.413-.741-.085-.216-.362-.572-.708-.614-1.089a2.706,2.706,0,0,0-.48-1.3l.44-.949.561.43Zm-1.371,4.687.084.357-.076.023-.144-.328Zm-.087-2.632c.015-.081.04-.161.063-.241l.143.037a2.2,2.2,0,0,1-.085.24A.468.468,0,0,1,437.691,88.99Zm.526,10.541c-.068.346-.11.563-.186.946l-.481-.593Zm-.027-14.644c.414.6.414.6.193.808C438.351,85.425,438,85.24,438.19,84.887Zm-.509,2.312-.275-1.165C437.947,86.758,437.96,86.847,437.681,87.2Zm-.13,42.3.337.553-.152.105-.344-.565Zm-1.492-46.5.215-.688a2.955,2.955,0,0,0,.4.573,2.266,2.266,0,0,0,.5.218c-.414.736-.993.124-1.468.324-.081-.233-.16-.459-.239-.684l.173-.113.225.372Zm-.1,7.753c-.026-.06.04-.176.09-.248.123-.174.261-.338.458-.59.047.222.142.424.091.472-.487.464-.127.936-.035,1.4a1.415,1.415,0,0,0,.171.341A5.454,5.454,0,0,1,435.961,90.76Zm.623,6.54c.052-.157.095-.289.148-.447C437.013,97.177,437.013,97.177,436.584,97.3ZM435.56,79.868c.5.538-.125.658-.15,1.042C435.03,80.4,435.58,80.256,435.56,79.868Zm.071,10.159c-.49.2-.866.089-.818-.239.056-.378-.19-.456-.383-.6.26-.35.26-.35.823-.322C435.375,89.239,435.5,89.636,435.631,90.027Zm-.691,4.918-.062.024c-.053-.109-.106-.219-.16-.329l.136-.037Zm-1.424-6.657-.711.666-.763-.3a2.563,2.563,0,0,0,.9-1.829c.4.084.619.241.411.53C433.072,87.732,433.235,87.993,433.516,88.288Zm-.442,7.34c.129.632,1.031.549.788,1.256-.533-.441-.533-.441-1.06-.017Zm.726-6.544c.013.812.011.823-.676,1.088,0,.009,0,.016,0,.026l-.021-.017a1.1,1.1,0,0,0,.15.413c.079.083.252.075.375.105a1.758,1.758,0,0,0,.268,2.1c-.125.263-.223.477-.329.687-.068.134-.121.344-.227.378l-.237-3.679.023-.009c-.06-.613.487-1,.6-1.577.066-.34.522-.606.779-.881C434.568,88.241,434.423,88.539,433.8,89.084Zm.284,2.829c-.379-.239-.341-.456-.017-.664Zm-.513-6.477a3.332,3.332,0,0,0,.441.176,1.941,1.941,0,0,0,.37,0l-.338.587Zm1.515-.983-.285-.3.115-.113.281.267Zm-.094-1.425c-.094-.309-.617-.473-.248-1.041C434.851,82.394,435.184,82.623,434.992,83.028Zm-.119-1.382c-.166-.288-.618-.421-.51-.947A.9.9,0,0,1,434.873,81.646Zm-.443-2.2c.048.089.088.183.13.275l-.114.053c-.045-.093-.091-.186-.136-.278A1.067,1.067,0,0,1,434.43,79.448Zm-.086,3.642c.351.677.348.693-.207,1.108C434.206,83.831,434.261,83.531,434.344,83.09Zm-.7-1.39c.025.26.041.425.058.589l.013,0,.01-.023v.023c.173-.017.367-.038.317.231a8.139,8.139,0,0,1-.232.8l-.068-.024c0-.336-.011-.673-.017-1.009h-.01l-.3.735-.545-.3Zm-.634,2.329c0,.068-.1.136-.151.2l-.257-.215.229-.241C432.913,83.888,433.007,83.958,433.008,84.029Zm-.528-2.922c-.107.392-.177.648-.259.951l.5-.047c-.032.261-.059.487-.1.781-.2-.153-.307-.3-.435-.319l.035-.415-.248-1.248C432.159,80.921,432.346,81.03,432.48,81.107Zm-19.453,37.067,3.231-27.4h14.955l3.229,27.4ZM434.392,93.41l.174-.169.141.15c-.071.06-.119.134-.174.139S434.44,93.453,434.392,93.41Zm.3,5.608.358-.035,0,.043-.359.034Zm.2,5.727a.581.581,0,0,1-.028-.785l.212.041C435.03,104.2,434.981,104.4,434.9,104.745Zm.466-8.867.2.542-.2.049-.174-.534Zm.108,8.365c-.074-.006-.14-.1-.209-.155.059-.058.112-.148.181-.164s.145.052.3.118C435.6,104.151,435.532,104.248,435.47,104.243Zm.36-10.5c-.046.042-.3-.038-.308-.078a.958.958,0,0,1,.083-.405,2.32,2.32,0,0,1,.241-.353c.114.213.234.332.218.428A.758.758,0,0,1,435.83,93.744Zm.726,4.528c-.1.324-.18.6-.262.871l-.155-.034c-.034-.35-.067-.7-.109-1.129Zm-.669,3.152c.013-.205.041-.4.493-.491l-.329.594Zm.742,1.026-.007-.037c-.525-.288-.526-.307-.122-.7.044.248.084.476.122.7l.029.017-.01.039c.172.243.166.261-.187.726.062-.242.125-.484.187-.726Zm.076,27.129a12.264,12.264,0,0,1,.046-4.134q.092,2.058.185,4.115Zm.063-39.76c.042-.265-.152-.551.266-.927-.027.412-.044.678-.062.944Zm.464,11.664.106.069-.162.34-.18-.127Zm.156,24.411-.167.223-.079-.053c.038-.082.076-.163.113-.244Zm-.295,7.927.039-.378-.046-1.194-.056.188.005-1.539.428-.111c.69.426.188.988.241,1.5l.4-.2c.125.2.23.361.327.512l.508-.095c-.019.315-.034.563-.048.786l-.346-.266c-.561.493.321.9-.018,1.353-.337.147-.585-.162-.9-.2l-.009.007q.076.294.151.588l-.139.092-.459-.3Zm1.031,9.11-.04-.723.733.389A3.221,3.221,0,0,1,438.124,142.931Zm.138-4.142.051-.439.146.018-.055.438Zm1.547,4.952a1.751,1.751,0,0,1-.225.164c.056-.107.111-.214.22-.426C439.81,143.658,439.83,143.721,439.809,143.741Zm.1-1.283-.338-.246.072-.109.364.217Zm.008-1.677h0c-.083.222-.165.444-.29.781-.1-.247-.151-.39-.211-.546l.5-.235v0h0l.477.044a5.39,5.39,0,0,1,.208.834c.009.095-.162.207-.252.311-.082-.079-.212-.146-.239-.241C440.025,141.418,439.977,141.1,439.915,140.781Zm.292-.669-.525.256-.258-1.01.14-.065Zm-.064-1.5.13.591C440.088,139.078,439.856,138.961,440.143,138.617Zm.6,5.021q-.158-.225-.316-.447l-.032,0-.015-.019c-.252.017-.258,0-.232-.3l.232.3h.03l.017.024C440.65,143.224,440.926,143.192,440.747,143.638Zm.5-1.83c-.4-.261-.377-.489-.168-.811a.689.689,0,0,0,0-.625c-.2-.294-.379.056-.574.108-.035.01-.085-.034-.156-.067.126-.322.17-.738.4-.947.308-.279.327-.635.5-.943.051-.093.235-.112.385-.177a3.113,3.113,0,0,0-.034,1.163.764.764,0,0,1-.3,1.105l.573.2Zm.812-4.406-.524-.106-.016.819-.171.064-1.022-1.011c-.234.294-.485.609-.8,1.008-.067-.355-.117-.624-.168-.894l-.138-.032-.22.426-1.5.335c.124-.374.211-.639.305-.924l.966.3c.51-.588-.251-.627-.384-.9.373-.491.373-.491.191-.8-.22.114-.195.537-.581.474.088-.258.172-.5.249-.734s.149-.48.232-.746l.548.062c.074-.379.257-.617.679-.545.326.547-.069.976-.283,1.4-.3.6-.273.756.433,1.018.038-.44.091-.861.105-1.284.011-.311.094-.535.439-.617a1.451,1.451,0,0,1,.63,1.907c.3-.263.473-.418.633-.561l-.24-.617a1.1,1.1,0,0,0,.257-.206,1.068,1.068,0,0,0,.233-.5c0-.269-.219-.243-.448-.241a3.2,3.2,0,0,1-.808-.224,5.379,5.379,0,0,0,.617-.806,4.132,4.132,0,0,0,.226-.87l.166.016c.135.512-.255,1.181.448,1.544.286-.07.615-.151.942-.234V133.9l0-.007-.651-1.14c.167-.095.359-.257.406-.223a4.218,4.218,0,0,1,.524.536l.783-.409c-.115.485-.215.9-.328,1.382l-.587-.345-.147.2.011.019-.016,0a3.586,3.586,0,0,1-.091,1.336c-.23.483.428.869.032,1.3l-.619-.635c-.114.557-.206,1.013-.3,1.468C442.068,137.4,442.046,137.416,442.058,137.4Zm2.117-2.637c.016.082.033.164.044.246,0,.007-.055.03-.057.028-.045-.07-.086-.141-.128-.213Zm-1.861,6.889-.164-.018c.022-.127.042-.254.072-.38a.608.608,0,0,1,.122,0Zm.614-.337c-.118-.1-.309-.186-.341-.31a5.424,5.424,0,0,1-.24-1.405c0-.306-.193-.694.217-1.043A5.649,5.649,0,0,1,442.928,141.317Zm.178-2.775-.675-.392a.57.57,0,0,1,.391-.743c.145.374.276.714.407,1.055Zm.314-3.7c.716.71.691.921-.161,1.262C443.223,135.661,443.048,135.23,443.42,134.838Zm.9,5.732-.171.945-.208-.042A.641.641,0,0,1,444.319,140.57Zm-.1,1.6a.239.239,0,0,1-.172-.107c-.014-.021.059-.1.1-.176l.2.14C444.311,142.075,444.27,142.164,444.222,142.167Zm1.078-6.742c0,.074.023.166-.012.212a2.891,2.891,0,0,1-.308.309C444.786,135.461,444.786,135.461,445.3,135.425Zm-.255,6.672.2-.482C445.384,141.962,445.384,141.962,445.045,142.1Zm.355-7.83c-.419-.248-.345-.45-.124-.653.024-.023.08-.011.138-.016Zm.7-24.562-.089,0-.064-.659h.161Zm-.218-5.605c-.085.185-.12.438-.263.542a1.2,1.2,0,0,0-.4,1.076c-.012.24.053.522-.356.651l-.12-1.244h-.121c-.037.155-.073.31-.11.466a2.643,2.643,0,0,1-.371-1.53l.421.653a1.653,1.653,0,0,0,1.221-1.377l-.755-.121.135-.443.934.449c.105-.34.22-.709.334-1.079.146.56.321,1.121-.319,1.487C445.989,103.7,445.958,103.939,445.884,104.1Zm.488,4.556-.159-.671C446.452,108.135,446.625,108.311,446.372,108.656Zm-.052,25.408c.227-.261.382-.441.59-.679.022.225.035.367.054.565ZM446.688,108l.275-.383.267.21a1.834,1.834,0,0,1-.265.313C446.937,108.164,446.815,108.069,446.688,108Zm.4,9.152c-.172-.275-.141-.5.324-.735l-.1.769Zm.318,2.653c-.006-.572-.006-.572.6-.545l.072.746-.366-.371Zm.593,2.512.124.851-.173.024C447.782,122.783,447.782,122.783,447.994,122.319Zm.23,8.649c-.036,0-.075-.04-.113-.062l.129-.114.083.1C448.29,130.918,448.258,130.966,448.224,130.968Zm.611-11.271a2.581,2.581,0,0,0,.335-.263c.159.635-.469.721-.529,1.2C448.29,119.974,448.291,119.977,448.835,119.7Zm-.224,8.4c-.064-.293-.117-.532-.169-.771C448.741,127.5,448.939,127.731,448.611,128.1Zm-.043,2.139c-.029-.328-.286-.644.115-.993C449.116,129.969,449.115,129.974,448.568,130.24Zm.356.63c.355-.591.355-.591.764-.111Zm2.356-4.366-.235-.017-.122-1.264c.268-.166.485-.091.491.148A7.446,7.446,0,0,1,451.28,126.5Zm.481-2.143.162.685-.34-.547Z" fill="#1d1d1b"/><path d="M610.35,77.6h-1.922l.484.235-.4.112-.124-.347h-.359l.042.112-.733.114-.037-.1.191-.122h-1.061l.077.075-.644.057-.032.1.286.185c.044.356.083.671.135,1.086l-.634-.279.278-.664c-.381-.4-.46.135-.664.211-.323-.3-.323-.3-.557-.19.066.163.367.174.3.443-.177-.08-.339-.155-.5-.226s-.329-.139-.512-.215c.028-.133.053-.249.082-.384a.531.531,0,0,1-.306-.2h-8.059l.484.235-.4.112c-.047-.134-.085-.24-.123-.347h-.36l.043.112-.733.114-.037-.1.191-.122h-1.061l.077.075-.644.057-.032.1.286.185c.044.356.083.671.135,1.086l-.634-.279.278-.664c-.381-.4-.461.135-.665.211-.322-.3-.322-.3-.556-.19.066.163.367.174.3.443-.177-.08-.339-.155-.5-.226s-.329-.139-.512-.215c.028-.133.053-.249.082-.384a.531.531,0,0,1-.306-.2h-10.7l.045.031-.084.108A.314.314,0,0,1,580,77.6h-7.849a.183.183,0,0,1-.222.105c-.264-.065-.336.1-.454.23-.158-.142-.2-.194-.2-.335H567.8c.038.052.08.118.131.2l-.4-.115-.04.052a.315.315,0,0,1-.235-.131l-.026-.008H559.4a.183.183,0,0,1-.222.105c-.264-.065-.336.1-.454.23-.158-.142-.2-.194-.2-.335h-3.481c.039.054.079.114.132.2l-.7-.2h-3.886v71.136H610.35V128.4H593.071v7.164h-25.2V90.773h25.2V97.94H610.35V77.883l-.069-.045c.032,0,.046,0,.069,0Zm-58.809.444c-.126,0-.252.014-.379.022v-.109l.259-.013c.009-.134.017-.244.022-.322.311,0,.575-.008.839,0,.36.014.51.19.515.567a1.539,1.539,0,0,0,.05.264l-.779-.056C552.084,78.013,551.8,78.049,551.541,78.044Zm2.279,1.021-.291-.053-.9.091c.091-.124.181-.25.245-.339l.656.248v-.354l.547.121C553.954,78.909,553.842,78.976,553.82,79.065Zm.689-1.044-.716-.057v.008l.5.263c-.088.128-.156.226-.253.365l-.667-.619h.42l-.015-.018h.016c0-.091,0-.191.074-.215a.2.2,0,0,1,.112.007,5.757,5.757,0,0,1,.552.219Zm.433.857-.155-.179c.084-.052.14-.114.191-.11s.089.078.134.121Zm10.761-.713h.03v.257h-.03Zm-1.779-.54.021.146-.39.087-.029-.126Zm-2.2.4c.038.054.087.094.086.133s-.06.061-.094.091l-.108-.134Zm-1.089.34c-.194.252-.346.211-.471-.033Zm-4.62-.079a2.522,2.522,0,0,0,.155-.3,1.381,1.381,0,0,0,.021-.262l.393.279Zm2.171,1.3a1.82,1.82,0,0,0-1.233-.759c.087-.277.213-.421.4-.254.251.221.446.124.674-.055l.423.549Zm1.156-.645-.005-.017a.91.91,0,0,1-.545-.214,1.817,1.817,0,0,0-.53-.317c-.237-.069-.394-.41-.571-.611.378-.012.579.111.922.589.575.046.584.052.724.553.006,0,.011,0,.018,0l-.013.014a.786.786,0,0,0,.3-.078c.064-.05.07-.173.1-.258a1.252,1.252,0,0,0,1.5-.047c.177.106.322.19.463.279.091.058.236.11.253.187Zm3.267-.841-.017-.1.249-.038.012.046Zm1.445,1.509-.858-.277c.456-.048.459-.693.943-.473C563.788,79.21,563.788,79.21,564.051,79.612Zm.244-1.568c-.126,0-.252.014-.378.022v-.109l.258-.013.023-.322c.31,0,.574-.008.838,0,.36.014.51.19.515.567a1.539,1.539,0,0,0,.05.264l-.779-.056C564.838,78.013,564.551,78.049,564.295,78.044Zm2.279,1.021-.291-.053-.9.091c.092-.124.181-.25.245-.339l.656.248v-.354l.547.121C566.708,78.909,566.6,78.976,566.574,79.065Zm.689-1.044-.716-.057v.008l.5.263-.253.365-.668-.619h.421l-.016-.018h.016c0-.091,0-.191.074-.215a.2.2,0,0,1,.112.007,5.757,5.757,0,0,1,.552.219Zm.433.857-.155-.179c.084-.052.141-.114.191-.11s.089.078.134.121Zm8.982-1.253.021.146-.39.087-.029-.126Zm-2.2.4c.038.054.087.094.086.133s-.06.061-.094.091c-.036-.045-.072-.089-.107-.134Zm-1.089.34c-.194.252-.346.211-.471-.033Zm-4.465-.379a1.381,1.381,0,0,0,.021-.262l.393.279-.569.283A2.373,2.373,0,0,0,568.921,77.987Zm.534.24c-.009.052-.079.093-.123.138-.037-.046-.1-.09-.1-.14s.047-.1.1-.2C569.4,78.127,569.463,78.183,569.455,78.227Zm1.482,1.362a1.82,1.82,0,0,0-1.233-.759,1.211,1.211,0,0,1,.065-.162.412.412,0,0,1-.555-.034l.043-.147.513.18c.082-.161.19-.221.337-.091.251.221.447.124.674-.055l.423.549Zm1.156-.645,0-.017a.91.91,0,0,1-.545-.214,1.817,1.817,0,0,0-.53-.317c-.237-.069-.394-.41-.571-.611.378-.012.579.111.922.589.575.046.584.052.724.553.007,0,.012,0,.018,0l-.013.014a.786.786,0,0,0,.3-.078c.064-.05.07-.173.1-.258a1.252,1.252,0,0,0,1.5-.047c.177.106.322.19.464.279.09.058.235.11.252.187Zm3.267-.841-.017-.1.249-.038.012.046Zm1.446,1.509-.859-.277c.456-.048.459-.693.943-.473C576.542,79.21,576.542,79.21,576.806,79.612Zm1.682-1.19h-.03v-.256h.03Zm6.425-.074.147.133-.043.052-.165-.1Zm-2.827-.328c.067.107.131.163.123.207s-.079.093-.123.138c-.037-.046-.1-.09-.1-.14S582.029,78.126,582.086,78.02Zm-.118.614.043-.147.515.181A.414.414,0,0,1,581.968,78.634Zm5.507.449a8.715,8.715,0,0,1-2.923-.315l2.926.15Zm.06-.485-.055-.119.415-.2.064.115Zm1.152-.841-.344.321C588.457,77.67,588.457,77.67,588.687,77.757Zm2.353,1.334-.536.007-1.06-.081.077.031-1.089-.108-.05-.311c.349-.46.712-.066,1.08-.068l-.113-.3.384-.2L589.7,77.7l.553.088-.211.227c.31.431.659-.166.956.1.081.249-.155.4-.2.624l0,0c.143-.02.286-.042.428-.064l.056.1Zm3.061-.481-.307-.066.023-.1.306.069Zm3.612-.758a1.45,1.45,0,0,1,.1.171l-.287-.185C597.654,77.846,597.7,77.836,597.713,77.852Zm.1.629-.043.052-.165-.1.061-.089Zm-1.093-.864.09.079-.2.222-.072-.058Zm-.211,1.352c.119-.18.21-.319.325-.492a2.244,2.244,0,0,1,.189.514Zm3.719.114a8.715,8.715,0,0,1-2.923-.315l2.926.15Zm.06-.485-.055-.119.415-.2.064.115Zm1.152-.841-.344.321C601.211,77.67,601.211,77.67,601.441,77.757Zm2.353,1.334-.536.007-1.06-.081.077.031-1.089-.108-.05-.311c.349-.46.712-.066,1.08-.068l-.113-.3.384-.2-.032-.367.553.088-.211.227c.31.431.659-.166.956.1.081.249-.155.4-.2.624l0,0c.143-.02.286-.042.428-.064l.056.1Zm3.061-.481-.307-.066.023-.1.307.069Zm2.62-.993.09.079-.2.222-.072-.058Zm-.211,1.352.325-.492a2.3,2.3,0,0,1,.19.514Z" fill="#1d1d1b"/><polygon points="688.534 91.867 688.533 91.866 688.534 91.867 688.534 91.867" fill="#1d1d1b"/><path d="M678.044,77.6v28.664h-25.2V77.6H635.559v71.136H652.84v-29.3h25.2v29.3h4.509a.821.821,0,0,1,.177-.723,2.221,2.221,0,0,0,.358-1.819,3.641,3.641,0,0,1,.012-.721c.594.472.23,1.066.473,1.53l.355-.593-.006,0c.073-.134.134-.371.219-.379.416-.043.551-.383.71-.668l.745.3,0-.013c.009,0,.011.006.02.007.02-.29.041-.581.071-1.013l-.511.446c-.3-.537.519-.611.268-1.086l.186-.023c.108.16.216.32.324.478l.362-.26c.361.623.69,1.189,1.1,1.891.2-.783.351-1.378.521-2.048l-.988.394c-.113-.336-.635-.489-.325-.968l.828-.244c-.563-.367-1.217-.4-1.386-1.01l.976-.587.518,1.135,1.392.252a4.577,4.577,0,0,1-.272.582c-.061.092-.256.12-.283.208-.084.284-.264.684-.144.856a2.074,2.074,0,0,1,.14,1.948c-.132.38.028.767-.22,1.154-.143.223-.018.618.052.977h4.712l-.009-.168-.46-.032c0-.445-.011-.824,0-1.2.019-.516.272-.731.812-.738a2.2,2.2,0,0,0,.379-.072l-.081,1.116c-.552-.022-.5.389-.509.756,0,.114.011.227.02.34h2.228V130.465l-.4,1.23c-.069-.654-.993-.658-.677-1.351.5.5.5.5,1.074.121V77.6Zm16.388,5.6-.031.737-.7-.466A3.249,3.249,0,0,1,694.432,83.2Zm-.688,4.158.143.032c-.032.146-.064.293-.095.44l-.147-.033Zm-.943-5.145a1.925,1.925,0,0,1,.245-.145l-.265.412C692.792,82.3,692.778,82.235,692.8,82.217Zm-.225,1.293.319.282-.084.1-.348-.255Zm-.17,1.7.369-.764.162.575-.53.189,0,0v0l0-.005-.48-.092a5.479,5.479,0,0,1-.129-.866c0-.1.185-.194.286-.291.076.089.2.169.219.268.056.323.073.653.105.981Zm-.363.652.557-.209c.062.4.113.724.163,1.05l-.149.053C692.434,86.472,692.253,86.19,692.043,85.861Zm-.082,1.522c-.032-.267-.053-.439-.074-.611C692.062,86.921,692.286,87.062,691.961,87.383Zm-.121-5.153c.091.162.183.324.277.484l.031.007.013.021c.191.006.246.014.236.142,0,.045-.015.106-.029.186l-.206-.327h-.032l-.017-.03C691.9,82.66,691.615,82.663,691.84,82.23Zm-.686,1.808c.377.3.334.533.091.839a.7.7,0,0,0-.06.635c.174.317.39-.02.593-.054.037-.006.083.043.152.083-.16.315-.244.732-.5.922-.34.253-.394.612-.6.908-.061.089-.25.091-.408.142a3.19,3.19,0,0,0,.148-1.177.78.78,0,0,1,.408-1.093l-.561-.258Zm-1.1.051.165.034c-.035.127-.068.255-.11.379a.56.56,0,0,1-.124-.016Zm-.656.282c.11.116.3.219.316.348a5.559,5.559,0,0,1,.106,1.45c-.035.309.128.723-.322,1.037A5.748,5.748,0,0,1,689.4,84.371Zm-.452,2.8.646.465a.579.579,0,0,1-.469.715l-.31-1.11Zm-.777-3.787a.244.244,0,0,1,.163.125c.013.023-.069.1-.123.169l-.19-.161C688.07,83.467,688.121,83.381,688.17,83.382Zm.011.669.207.063a.654.654,0,0,1-.474.879Zm.372,5.582c-.007.448.129.9-.287,1.264C687.609,90.107,687.655,89.9,688.553,89.633Zm-1.021.988c.039.075.074.152.109.228l-.149.048c-.007-.085-.017-.169-.02-.254C687.472,90.636,687.531,90.618,687.532,90.621Zm.28,1.047.563.407.168-.187-.01-.022h0l.018,0a3.661,3.661,0,0,1,.223-1.344c.282-.467-.349-.924.1-1.318.181.225.35.437.566.7.17-.554.308-1.008.449-1.46,0-.018.03-.029.016-.016l.521.158c.038-.326.067-.578.1-.829l.18-.048.939,1.126.911-.945.083.924.137.046c.106-.164.212-.329.265-.41l1.556-.194c-.162.368-.276.629-.4.909l-.951-.4c-.575.546.194.66.3.952-.426.463-.426.463-.272.8.234-.094.25-.526.636-.425-.115.255-.224.487-.326.721s-.2.473-.307.735l-.55-.117c-.113.377-.321.6-.743.487-.277-.587.165-.983.425-1.4.363-.576.351-.739-.34-1.075-.082.443-.177.865-.233,1.293-.041.315-.147.533-.506.584a3.229,3.229,0,0,1-.62-.88,3.173,3.173,0,0,1,.168-1.118l-.7.507c.071.253.125.445.183.65a1.147,1.147,0,0,0-.281.184,1.1,1.1,0,0,0-.285.483c-.023.273.2.267.431.288a3.283,3.283,0,0,1,.8.307,5.437,5.437,0,0,0-.706.757,4.336,4.336,0,0,0-.314.86l-.167-.032c-.086-.533.375-1.174-.3-1.611-.3.044-.64.094-.98.146v.016l-.006.006.55,1.221c-.179.081-.39.226-.434.186a4.138,4.138,0,0,1-.48-.595l-.834.339C687.509,92.557,687.651,92.142,687.812,91.668Zm6.7,2.29-.156,1.562-.446.071c-.658-.5-.093-1.021-.1-1.548l-.43.162c-.108-.211-.2-.388-.281-.551l-.526.047c.051-.319.09-.569.126-.793l.325.3c.617-.444-.237-.945.151-1.37.356-.116.578.221.894.289l0,0c-.028-.206-.059-.41-.091-.614l.149-.08.438.35.009.767-.116,1.52ZM692,123.951c.056-.068.134-.152.238-.265l-.261.719.011.02,0,.037c.5.344.5.364.054.727-.02-.257-.038-.493-.057-.728l-.025-.018.014-.037C691.864,124.209,691.838,124.147,692,123.951Zm-.8-30.195c.008-.226.609-.7,1-.756-.153.457-.151.895-.656,1.024C691.306,94.084,691.191,93.966,691.2,93.756Zm.123.71-.238.323-.107-.053a.807.807,0,0,1,.079-.243C691.081,94.46,691.177,94.478,691.322,94.466Zm.523.081a1.174,1.174,0,0,1,.2.145l-.193.145c-.044-.061-.108-.111-.109-.163A.21.21,0,0,1,691.845,94.547Zm.638,30.871.156.12c-.034.208-.081.4-.548.451Zm.2,5.2c.042.186.083.373.125.559l-.181.042-.153-.571Zm-.9,6.51c.516-.152.888,0,.806.324-.093.377.149.481.33.65-.3.33-.3.33-.866.247C691.965,137.952,691.873,137.538,691.783,137.127Zm.268,6.038-.128.1-.259-.3.126-.133Zm-.383-9.437a.782.782,0,0,1,.277-.391c.051-.039.3.069.3.109a.988.988,0,0,1-.124.4,2.355,2.355,0,0,1-.279.334C691.752,133.957,691.642,133.823,691.668,133.728Zm1-38.574.461.494C692.539,95.484,692.539,95.484,692.663,95.154Zm1.036,1.73-.287-.595.164-.091.294.607Zm.078,3.531-.139.236-.127-.088.191-.21Zm-.242,22.482c-.066.053-.128.14-.2.149s-.142-.068-.294-.15c.154-.1.234-.188.3-.177S693.47,122.834,693.535,122.9Zm-.5,9.289.13.35-.142.024-.053-.355Zm.209,1.5c.044,0,.087.087.131.136l-.193.153-.128-.165C693.128,133.75,693.184,133.681,693.24,133.681Zm.009-5.584v-.043h.368v.043Zm.288,7.269c.362.279.3.5-.048.675ZM693.71,123l.259-.737a.591.591,0,0,1-.048.8Zm-3.621,4.228.282-.941.429.648Zm.52,10c-.069.264.1.573-.361.914.068-.415.111-.683.155-.952Zm-.563-41.358a.85.85,0,0,1,.112-.152c.025.034.075.071.07.1a.68.68,0,0,1-.084.169C690.1,95.931,690.039,95.886,690.046,95.87Zm-.142,39.39-.144.039-.05-.37.08-.017Zm-.628-.795.066.125-.143.137c-.029-.049-.092-.118-.079-.141C689.152,134.533,689.221,134.5,689.276,134.465Zm-.221-2.921c-.027-.108-.054-.217-.08-.325l.164-.024v.335Zm-.672-2.235v.6c-.108-.022-.262-.009-.293-.065a.67.67,0,0,1,.462-.991c.605-.138.64-.184.535-.755-.032-.177-.084-.351-.111-.463l-.623-.442a.676.676,0,0,1,.929-.4h0l0-.006a3.894,3.894,0,0,1-.474-.336c-.037-.034.026-.177.05-.308l.7.143-.151.278-.121.222.017.012h0l-.023,0c.05.759.1,1.518.148,2.256Zm-.244,4.81c-.141-.191-.094-.509-.249-.687a.379.379,0,0,0-.212-.108v.008h-.03q-.1.286-.2.573l-.094-.018v-.555h.3l.008-.021h0c.011,0,.014.009.024.012a.491.491,0,0,1,.366-.591c.05-.016.073-.111.111-.175l-.525-.207c.052-.184.091-.326.133-.472l.878.35c.166.425.029.667-.4.735C688.271,133.36,688.569,133.744,688.139,134.119Zm-2.512-.662c.064-.152.119-.281.189-.445C686,133.342,686,133.342,685.627,133.457Zm.184.863-.057.451-.133,0-.041-.438Zm-.088-3.085.43-.326c.253.28.774.283.726.724l-.612,1Zm.828,2.045c.62.882.62.882-.1,1.349C686.486,134.2,686.516,133.78,686.551,133.28Zm.246-2.529,1.141.343-.013.213-.626.4Zm.549-3.607c-.212-.084-.426-.1-.47-.2a.912.912,0,0,1-.058-.584c.184-.639.41-1.266.613-1.891h0l-.932.607-.279-.8,1.209.2.01-.006,0,0,.007-.008-.005.014.373.281,0-.006c.011,0,.014.01.024.013a3.907,3.907,0,0,1,.385-1.318c.114.286.219.527.307.775a5,5,0,0,1,.132.5c.065.272.126.544.21.907l-.507.563-.155-.054c0-.188,0-.377,0-.566a.96.96,0,0,0-.155-.68.577.577,0,0,0-.217-.124l0,.011-.023-.018a3.141,3.141,0,0,0-.542,1.708A3.219,3.219,0,0,0,687.346,127.144Zm-.705,1.379q-.1.274-.19.55l-.233-.093.241-.532Zm.833-35.03c.083-.059.145-.135.191-.127s.1.091.146.142c-.051.047-.1.128-.154.132S687.554,93.562,687.474,93.493Zm.895,37.809c.012-.1.037-.207.059-.31l.119.022-.047.33A.618.618,0,0,1,688.369,131.3Zm.569-22.866c0-.033.065-.1.08-.1a.836.836,0,0,1,.16.1l-.16.2A.744.744,0,0,1,688.938,108.436Zm.534,29.494a.457.457,0,0,1,.119.048,2.265,2.265,0,0,1-.088.238l-.141-.051A2.4,2.4,0,0,1,689.472,137.93Zm-2.145-54.557c-.1.191-.172.331-.245.47C686.97,83.476,686.97,83.476,687.327,83.373Zm-.878,6.53a2.886,2.886,0,0,1,.343-.282c.148.51.148.51-.377.5C686.425,90.043,686.409,89.947,686.449,89.9Zm-.249,1.38c.4.292.307.491.063.675-.027.02-.083,0-.142,0Zm-.112,38.182c.3.275.532.225.773-.1.226-.3.5-.566.826-.93-.031.512-.055.924-.091,1.52-.211-.241-.287-.329-.313-.359-.295.332-.5.738-.833.893a4.518,4.518,0,0,1-1.345.181c.216-.493.412-.942.625-1.427A2.681,2.681,0,0,1,686.088,129.465Zm-1.035,3.762c-.013.5-.4.809-.6,1.209l.009,0,.01.017a.584.584,0,0,1,.5.341,8.7,8.7,0,0,0-.439.906c-.127.374-.2.764-.291,1.1a3.246,3.246,0,0,0-.871.079,2.607,2.607,0,0,0-.6.507c-.049-.391-.107-.719-.12-1.049a.372.372,0,0,1,.18-.3.437.437,0,0,1,.331.115,1.007,1.007,0,0,1,.171.3c.771-.492-.235-1.076.142-1.552.306-.024.6-.03.88-.075.268-.043.233-.2.117-.37-.012,0-.019-.006-.032,0h0l0,0,.012-.02-1.278-.593c.022-.353.044-.708.066-1.074.19.215.261.61.741.4-.5-.33-.388-.745-.237-1.156.08-.217.222-.413.287-.634.033-.11-.045-.253-.1-.493-.417,1.184-.417,1.184-1.43,1.2-.149-.451.2-.607.5-.747-.122-.412-.229-.773-.344-1.163.254-.03.453.247.682-.05.3-.389-.221-.515-.187-.839.345.119.715.123.773.615.047.4.374.334.628.271.624.653-.47,1.058-.16,1.695l.754.062-.631.954C684.964,132.721,685.061,132.885,685.053,133.227Zm-2.861,1.728c-.118-.543-.357-1,.018-1.476C682.712,134.516,682.714,134.6,682.192,134.955Zm.208,1.629-.281.265c-.029-.036-.09-.091-.082-.1.064-.1.14-.2.213-.3Zm-.347-9.065.139-.042.121.394-.141.043Zm.677-2.618c-.478-.594-.469-.785,0-1.013Zm-.33,2.081c.109-.175.207-.334.305-.494C682.921,127.107,682.921,127.107,682.4,126.982Zm1.105-.311c-.164-.577.1-1.138.06-1.709,0-.019.083-.043.212-.106.4.92-.016,1.891.241,2.973a6.8,6.8,0,0,0,.879-1.662,2.09,2.09,0,0,1,0,1.344,2.206,2.206,0,0,0-.055,1.267c.133.364-.067.66-.415.97v-1.075l-.86.2c-.124-.652-.5-1.252-.073-1.9A.421.421,0,0,0,683.505,126.671Zm.51-2.727c.358.111.668.19.959.312.07.029.08.2.143.38l-.363-.128-.444.561C684,124.7,683.632,124.427,684.015,123.944Zm-.053-.979a.674.674,0,0,1,.094-.163l.173.138a.948.948,0,0,1-.185.119C684.027,123.065,683.956,122.99,683.962,122.965Zm.873.354c-.129.237-.194.368-.273.491-.012.018-.09-.006-.159-.014C684.365,123.569,684.307,123.34,684.835,123.319Zm-.252-31.867.665-.053-.665.631Zm-1,28.816c.035-.242,0-.534.426-.626v1.274l.122.012.157-.462a2.7,2.7,0,0,1,.227,1.589c-.141-.272-.253-.49-.363-.705a1.688,1.688,0,0,0-1.374,1.279l.755.2-.181.436-.9-.547-.444,1.063c-.094-.582-.216-1.169.468-1.477.135-.061.189-.3.28-.455.1-.18.164-.433.32-.524C683.5,121.071,683.529,120.673,683.588,120.268Zm-2.132.229c-.032-.212-.064-.423-.1-.635C681.673,120.141,681.673,120.141,681.456,120.5Zm.027,10.881c-.018.1-.045.2-.071.3l-.137-.036.084-.3A1.061,1.061,0,0,1,681.483,131.378Zm1.129-12.688-.212.459-.1-.013a1.162,1.162,0,0,1,.044-.286,1.063,1.063,0,0,1,.172-.224Zm.1-1.516c.04.3.068.5.1.7C682.576,117.7,682.418,117.5,682.708,117.174Zm-.7.995-.25-.24a1.871,1.871,0,0,1,.3-.291c.031-.02.145.089.267.169Zm.136-6.058c-.01.021-.038.033-.073.062v-.659C682.266,111.84,682.267,111.84,682.142,112.111Zm-.566-1.726.292-.641C682.2,110.287,682.2,110.287,681.576,110.385Zm.213,18.456c.033.034.1.086.092.1a2.63,2.63,0,0,1-.174.261l-.149-.122Zm-.077-7.021.14-.687.148.045C681.99,121.4,682.124,121.662,681.712,121.82Zm1.463-5-.163-.015.072-.671.091.011Zm-.162-22.468c.037,0,.072.047.108.074l-.142.1-.074-.108C682.941,94.4,682.978,94.353,683.013,94.354Zm-.6,14.842c.079-.337.13-.553.18-.77l.222.056C682.965,108.778,682.913,109,682.417,109.2Zm-.327-2.943v-.764l.336.412.329-.143C682.705,106.34,682.705,106.34,682.09,106.253Zm.25-9.028c.036.3.066.551.095.8C682.149,97.819,681.97,97.568,682.34,97.225Zm.195,5.044c.126.433.126.433-.135.883l-.043-.876Zm-.157-6.214c-.368-.775-.367-.78.214-1C682.589,95.4,682.82,95.74,682.378,96.055Zm-.085-1.67c-.419.565-.419.565-.787.038Zm-.715,10.415c.292.7.291.7-.288.93a2.67,2.67,0,0,0-.367.235C680.825,105.305,681.47,105.278,681.578,104.8Zm-.449,14.926-.179.007v-1c.032,0,.064,0,.1,0Q681.088,119.231,681.129,119.726Zm-.906,11.231c.032.311.048.469.063.622.011,0,.012,0,.024,0h0l.005,0c.5-.259.177-.83.414-1.2a.9.9,0,0,1,.1,1.154.559.559,0,0,1-.24.168.266.266,0,0,1-.274-.12c-.009,0-.015.012-.025.017l0-.026c-.206-.022-.279-.079-.268-.179A1.789,1.789,0,0,1,680.223,130.957Zm.508,4.5q-.11.328-.217.659l-.2-.071.239-.651Zm-1.256-36.876.237.04v1.3c-.289.143-.5.045-.484-.2A7.489,7.489,0,0,1,679.475,98.584Zm.488,36.092c-.215.132-.339.27-.449.259a.407.407,0,0,1-.293-.263c-.011-.092.168-.3.245-.29C679.609,134.4,679.739,134.534,679.963,134.676Zm-1.185-33.964-.1-.712.292.589Zm.358,26.664c.046.048.138.116.128.142a.889.889,0,0,1-.158.2c-.04-.051-.079-.1-.124-.163Zm-.128,13.076c.188-.312.5-.207.749-.338C679.556,140.487,679.556,140.487,679.008,140.452Zm.822.7c-.084-.125-.17-.195-.171-.268s.084-.14.131-.209c.079.065.189.117.222.2C680.031,140.918,679.922,141.016,679.83,141.149Zm.654,5.369.028-.436h.139l.026.426Zm.083-8.963-1.087.326c-.126-.313.121-.538.237-.816a3.366,3.366,0,0,0,.129-.838l.109-.023c.083.233.165.466.271.766.283-.166.521-.306.764-.451l.009-.039c-.017-.222-.143-.446-.019-.657l.17.019-.149.63c0,.012,0,.025.006.037l0,0h0l0,0h0l-.012.011a.962.962,0,0,1,.494,1.027l-.582-.628Zm1.471,8.6c-.08.793-.775,1.263-.888,2.171C680.893,146.882,681.026,146.583,682.038,146.152Zm-.268-5.033a1.051,1.051,0,0,1,.229-.183c.028-.012.1.08.15.124l-.224.235Zm.226,7.1-.171-.025c.078-.3-.29-.665.418-.854Q682.118,147.777,682,148.216Zm1.067-4.463c-.424-.3-.424-.3,0-.878Zm-.27-2.443a.958.958,0,0,1-.135-.533c.007-.248.089-.493.117-.742.007-.057-.073-.123-.131-.212l-.462.215c-.279-.325-.32-.612-.006-.888l.58.078a.563.563,0,0,0-.46-.719c-.588-.112-.593-.086-.637-.683.7-.486,1.128.131,1.614.336,0,.383.018.71,0,1.034-.029.422.186.645.669.714l-.61.523a1.339,1.339,0,0,1,.113.474.705.705,0,0,1-.249.42C683.1,141.391,682.839,141.38,682.793,141.31Zm1.981,2.724-.3-.524c-.458.4-.055.876-.21,1.308l-.983-.26c-.029-.164-.052-.286-.059-.378-.023-.275.087-.269.53-.245l.668-1.2.473.242C684.849,143.355,684.811,143.7,684.774,144.034Zm.285-2.1c-.113.086-.137.29-.2.444-.43-.249-.43-.249-.9.33l-.06-.479-.022.019,0-.032a.359.359,0,0,1-.224-.162c-.03-.079.007-.182.152-.325l.072.486.014.007c.1-.27.191-.539.3-.836.181-.129.452.483.669-.031a2.508,2.508,0,0,1,.684.174c.047.017.042.176.067.3C685.386,141.86,685.18,141.84,685.059,141.932Zm1.081,1.91-.5-.324C686.145,143.456,686.145,143.456,686.14,143.842Zm-.719-2.727-.4-1.03c-.366-.049-.352.648-.76.165.2-.358.578-.7.22-1.425-.155.335-.261.566-.363.785-.531-.466-.3-.8-.119-1.034-.124-.373-.219-.656-.331-.991.513.143,1.014.046,1.16-.217.176-.318.336-.62-.05-.966-.25-.224-.181-.57.125-.844l.457.528a3.764,3.764,0,0,0,.522-.7.532.532,0,0,1,.682-.345c-.077.16-.147.307-.212.441.2.189.61.118.465.535-.115.332-.39.314-.644.284a2.711,2.711,0,0,1-.555-.188c-.5.632-.527.817-.179,1.429a.627.627,0,0,1-.009.783c-.045.053-.132.07-.192.1l-.605-.287c.146.5.276.937.411,1.393l.37-.093v.547a.525.525,0,0,0,.427-.724c-.015-.066-.03-.132-.038-.195a.319.319,0,0,1,.264-.407c0-.01,0-.02,0-.03s.011,0,.018-.006c-.014-.113-.029-.227-.045-.348-.019-.152-.04-.315-.065-.5l.583.227c-.07.314-.134.574-.472.625l0,.026h0c-.01,0-.013.008-.023.01a1.833,1.833,0,0,0,.022.59C686.375,140.063,685.712,140.476,685.421,141.115Zm1.2.015-.358-.449c.131-.088.258-.231.4-.243.094-.008.3.175.286.256C686.934,140.818,686.783,140.929,686.623,141.13Zm.335-3.836c-.221-.329-.418-.57-.077-.952l.639.509Zm.246.43.11.03c-.033.143-.066.287-.1.431l-.14-.036Zm1,2.873a2.631,2.631,0,0,1-.289.436l-.57-.084a6.775,6.775,0,0,1,.489-.641.329.329,0,0,1,.32-.04A.351.351,0,0,1,688.2,140.6Zm.481,1.5c-.361-.645-.361-.645-.116-.839C688.572,141.531,688.912,141.753,688.683,142.092Zm.173-2.144-.526-.492-.419.464-.222-.311-.481.582v-.635c.819-.193.819-.193.838-.781.4.2.552-.06.7-.359.168-.346.084-.594-.311-.8l-.642.813-.127-.079.464-.729c-.135-.5-.243-.892-.351-1.287.275.166.423.464.743.159a3.329,3.329,0,0,1,.517,1.165,2.774,2.774,0,0,0,.359,1.365C689.214,139.337,689.048,139.621,688.856,139.948Zm.57-.151c.053.391.109.8.165,1.209C689.113,140.217,689.109,140.126,689.426,139.8Zm1.434,7.646c-.457-.6.192-.656.255-1.043C691.45,146.955,690.878,147.047,690.86,147.443Zm.189-2.818-.192-.4-.195-.016-.286.677a3.035,3.035,0,0,0-.352-.622,2.351,2.351,0,0,0-.486-.269c.493-.706,1.02-.029,1.521-.186l.176.719Zm.355-8.031c-.141.166-.3.318-.522.554-.026-.23-.1-.444-.046-.488.539-.423.22-.937.173-1.417a1.436,1.436,0,0,0-.141-.363,5.588,5.588,0,0,1,.652,1.471C691.54,136.415,691.462,136.527,691.4,136.594Zm-.069-6.5c-.255-.357-.255-.357.193-.439C691.46,129.809,691.4,129.938,691.335,130.094Zm-.055-4.747-.1-.081.2-.329.17.148Zm.722,2.466.154.05v1.155l-.5-.346Zm-.255,16.479c.064.323.58.54.149,1.081C691.827,144.949,691.512,144.684,691.747,144.292Zm.219,3.688c-.04-.1-.071-.195-.105-.292l.121-.043.111.3A1.128,1.128,0,0,1,691.966,147.98Zm.191-1.264a.913.913,0,0,1-.426-1.01C691.872,146.015,692.317,146.193,692.157,146.716Zm.253-2.423c-.29-.722-.285-.738.318-1.1Zm.208-2.558.4-.563c.136.275.24.483.406.816a3.466,3.466,0,0,0-.43-.222A2.035,2.035,0,0,0,692.618,141.735Zm.368,4.036c0-.266,0-.434,0-.6l-.026.023,0-.024c-.13,0-.273,0-.308-.106a.276.276,0,0,1,.01-.16,8.329,8.329,0,0,1,.313-.791l.066.031-.081,1.026h.011l.377-.716.524.363Zm.871-2.3c.006-.068.112-.128.173-.192l.241.243-.257.222C693.94,143.623,693.851,143.542,693.857,143.47Zm.25,3.017c.147-.387.243-.64.356-.94h-.507c.058-.262.108-.488.173-.784.186.175.282.336.41.367l-.076.417.13,1.291C694.415,146.707,694.235,146.578,694.107,146.487Zm1.183-7.611a2.6,2.6,0,0,0-1.087,1.767c-.4-.124-.605-.305-.365-.577.317-.36.178-.64-.079-.966l.787-.607Zm-1.073-5.052c.082-.129.157-.337.268-.361l-.119,3.756-.025.007a1.312,1.312,0,0,1-.306.782,2.574,2.574,0,0,0-.455.76c-.1.339-.588.563-.876.817-.018-.541.159-.829.844-1.322.066-.824.07-.835.793-1.037,0-.009,0-.016,0-.026l.02.019a1.155,1.155,0,0,0-.112-.434c-.072-.091-.249-.1-.37-.143a1.794,1.794,0,0,0-.068-2.153C693.969,134.234,694.089,134.027,694.217,133.824Zm-.1-32.743q.106-2.1.215-4.194l.236,0A12.512,12.512,0,0,1,694.114,101.081Z" fill="#1d1d1b"/><path d="M186.617,181.746a10.582,10.582,0,0,1,3.727,6.25h-5.891a5.421,5.421,0,0,0-2-2.507,5.605,5.605,0,0,0-3.206-.911,4.884,4.884,0,0,0-3.938,1.79,8.367,8.367,0,0,0,0,9.552,4.9,4.9,0,0,0,3.938,1.775,5.591,5.591,0,0,0,3.206-.912,5.429,5.429,0,0,0,2-2.474h5.891a10.638,10.638,0,0,1-3.727,6.234,11.2,11.2,0,0,1-7.274,2.326,11.468,11.468,0,0,1-5.891-1.48,10.042,10.042,0,0,1-3.922-4.15,14.085,14.085,0,0,1,0-12.173,10.054,10.054,0,0,1,3.922-4.15,11.488,11.488,0,0,1,5.891-1.48A11.258,11.258,0,0,1,186.617,181.746Z" fill="#1d1d1b"/><path d="M216.609,179.663v23.012h-5.6v-7.66h-8.723v7.66h-5.565V179.663h5.565v10.862h8.723V179.663Z" fill="#1d1d1b"/><path d="M263.2,181.746a10.582,10.582,0,0,1,3.727,6.25h-5.891a5.421,5.421,0,0,0-2-2.507,5.605,5.605,0,0,0-3.206-.911,4.884,4.884,0,0,0-3.938,1.79,8.367,8.367,0,0,0,0,9.552,4.9,4.9,0,0,0,3.938,1.775,5.591,5.591,0,0,0,3.206-.912,5.429,5.429,0,0,0,2-2.474h5.891a10.638,10.638,0,0,1-3.727,6.234,11.2,11.2,0,0,1-7.274,2.326,11.468,11.468,0,0,1-5.891-1.48,10.042,10.042,0,0,1-3.922-4.15,14.085,14.085,0,0,1,0-12.173,10.054,10.054,0,0,1,3.922-4.15,11.488,11.488,0,0,1,5.891-1.48A11.258,11.258,0,0,1,263.2,181.746Z" fill="#1d1d1b"/><path d="M284.144,190.925l9.276,11.75h-6.738l-7.811-10.318v10.318h-5.565V179.663h5.565v10.123l7.877-10.123h6.672Z" fill="#1d1d1b"/><path d="M311.979,179.663v23.012h-5.566V179.663Z" fill="#1d1d1b"/><path d="M339.513,202.675h-5.565l-9.309-14.126v14.126h-5.565V179.663h5.565l9.309,14.256V179.663h5.565Z" fill="#1d1d1b"/><path d="M371.732,199.55A6.546,6.546,0,0,1,369,201.991a9.624,9.624,0,0,1-4.377.911,10.313,10.313,0,0,1-6.379-1.887,6.837,6.837,0,0,1-2.734-5.273h5.923a3.129,3.129,0,0,0,.928,2.051,2.853,2.853,0,0,0,2.034.748,2.358,2.358,0,0,0,1.693-.587,2.051,2.051,0,0,0,.619-1.562,2.019,2.019,0,0,0-.571-1.464,4.477,4.477,0,0,0-1.416-.96q-.844-.374-2.342-.9a28.614,28.614,0,0,1-3.565-1.447,6.575,6.575,0,0,1-2.376-2.084,6.781,6.781,0,0,1,.05-7.144,6.617,6.617,0,0,1,2.88-2.295,10.531,10.531,0,0,1,4.215-.8,9.449,9.449,0,0,1,6.1,1.824,6.954,6.954,0,0,1,2.555,5.012h-6.021a3.094,3.094,0,0,0-.83-1.807,2.44,2.44,0,0,0-1.806-.667,2.33,2.33,0,0,0-1.579.52,1.912,1.912,0,0,0-.6,1.53,1.942,1.942,0,0,0,.537,1.383,4.1,4.1,0,0,0,1.35.929q.814.356,2.344.91a25.843,25.843,0,0,1,3.613,1.482,6.91,6.91,0,0,1,2.408,2.132,6.083,6.083,0,0,1,1.009,3.645A6.347,6.347,0,0,1,371.732,199.55Z" fill="#1d1d1b"/><path d="M395.539,179.663v4.427H389.29v18.585h-5.6V184.09h-6.185v-4.427Z" fill="#1d1d1b"/><path d="M413.387,198.476h-8.625l-1.432,4.2h-5.858l8.429-22.849h6.412l8.43,22.849h-5.924Zm-1.431-4.231-2.865-8.463-2.9,8.463Z" fill="#1d1d1b"/><path d="M444.026,179.663l-7.974,15.363v7.649h-5.6v-7.649l-7.974-15.363h6.379l4.427,9.374,4.426-9.374Z" fill="#1d1d1b"/><path d="M476.523,180.819a11.029,11.029,0,0,1,4.182,4.2,12.779,12.779,0,0,1-.016,12.156,11.112,11.112,0,0,1-4.2,4.216,12.161,12.161,0,0,1-11.749,0,11.105,11.105,0,0,1-4.2-4.216,12.721,12.721,0,0,1,0-12.156,11.142,11.142,0,0,1,4.2-4.2,12.218,12.218,0,0,1,11.782,0Zm-10.253,5.435a8.033,8.033,0,0,0,0,9.651,6.15,6.15,0,0,0,8.675,0,7.975,7.975,0,0,0,.015-9.635,6.188,6.188,0,0,0-8.69-.016Z" fill="#1d1d1b"/><path d="M494.017,179.663v13.28a5.233,5.233,0,0,0,1.025,3.482,4.286,4.286,0,0,0,5.957,0,5.233,5.233,0,0,0,1.025-3.482v-13.28h5.565v13.28a10.936,10.936,0,0,1-1.269,5.484,8.245,8.245,0,0,1-3.466,3.352,10.745,10.745,0,0,1-4.964,1.123,10.393,10.393,0,0,1-4.882-1.106,7.867,7.867,0,0,1-3.32-3.353,11.51,11.51,0,0,1-1.2-5.5v-13.28Z" fill="#1d1d1b"/><path d="M531.088,179.663v4.427h-6.249v18.585h-5.6V184.09h-6.184v-4.427Z" fill="#1d1d1b"/><path d="M228.477,184.089v6.645h7.78v4.2h-7.78v3.282h12.411v4.46H222.911V179.663h17.977v4.426Z" fill="#1d1d1b"/></svg>