<?xml version="1.0" encoding="utf-8"?>
<!-- Generator: Adobe Illustrator 21.1.0, SVG Export Plug-In . SVG Version: 6.00 Build 0)  -->
<!DOCTYPE svg PUBLIC "-//W3C//DTD SVG 1.1//EN" "http://www.w3.org/Graphics/SVG/1.1/DTD/svg11.dtd">
<svg version="1.1" id="Layer_1" xmlns="http://www.w3.org/2000/svg" xmlns:xlink="http://www.w3.org/1999/xlink" x="0px" y="0px"
	 viewBox="0 0 185 185" style="enable-background:new 0 0 185 185;" xml:space="preserve">
<style type="text/css">
	.st0{clip-path:url(#SVGID_2_);fill:#FFFFFF;}
</style>
<rect width="185" height="185"/>
<g>
	<defs>
		<rect id="SVGID_1_" width="185" height="185"/>
	</defs>
	<clipPath id="SVGID_2_">
		<use xlink:href="#SVGID_1_"  style="overflow:visible;"/>
	</clipPath>
	<path class="st0" d="M47.1,91.8L47.1,91.8L47.1,91.8z M135.6,147.5H47.8c-1.8,0-3.2-1.4-3.2-3.2V91.8l-10.2,0c-1.3,0-2.5-0.8-3-2
		c-0.5-1.2-0.2-2.6,0.7-3.5l57.9-57.9c0.6-0.6,1.4-0.9,2.3-0.9h0c0.9,0,1.7,0.3,2.3,0.9L153,87c0.9,0.9,1.2,2.3,0.7,3.5
		c-0.5,1.2-1.7,2-3,2h-11.9v51.8C138.8,146,137.4,147.5,135.6,147.5"/>
</g>
</svg>
