<svg version="1.1" xmlns="http://www.w3.org/2000/svg" xmlns:xlink="http://www.w3.org/1999/xlink" x="0px" y="0px"
	 viewBox="0 0 420.1 420.1" style="enable-background:new 0 0 420.1 420.1;" xml:space="preserve">
<style type="text/css">
	.st0{fill:#FFFFFF;}
</style>
<g id="Layer_1">
	<rect x="0" width="420.1" height="420.1"/>
	<path class="st0" d="M323.6,112.4h-227c-13.9,0-25.3,11.4-25.3,25.3v142.6c0,13.9,11.4,25.3,25.3,25.3h227
		c13.9,0,25.3-11.4,25.3-25.3V137.8C348.9,123.8,337.5,112.4,323.6,112.4z M96.6,123.4h227c7.9,0,14.3,6.4,14.3,14.3v16.7H82.2
		v-16.7C82.2,129.8,88.7,123.4,96.6,123.4z M323.6,294.7h-227c-7.9,0-14.3-6.4-14.3-14.3v-93.7h255.7v93.7
		C337.9,288.3,331.5,294.7,323.6,294.7z"/>
</g>
<g id="Layer_2">
</g>
<g id="Layer_3">
</g>
<g id="Layer_4">
</g>
<g id="Layer_5">
</g>
<g id="Layer_6">
</g>
<g id="Layer_7">
</g>
<g id="Layer_8">
</g>
</svg>
