<svg style='height: 93%; position: absolute; right: 0%; z-index: 1;' version="1.1" xmlns="http://www.w3.org/2000/svg" xmlns:xlink="http://www.w3.org/1999/xlink" x="0px" y="0px" viewBox="0 0 420.1 420.1" style="enable-background:new 0 0 420.1 420.1;" xml:space="preserve">
    <style type="text/css">
    .st0 {
        fill: #FFFFFF;
    }
    </style>
    <g id="Layer_1">
        <rect y="0" width="420.1" height="420.1" />
        <path class="st0" d="M255.7,106.9V80.1h-9.6v26.9H174V80.1h-9.6v26.9H83.5v233.1h253.1V106.9H255.7z M93.1,184.9h71.4v42.1H93.1
		V184.9z M174,278.8v-42.1h72.1v42.1H174z M246.1,288.4v42.1H174v-42.1H246.1z M174,227.1v-42.1h72.1v42.1H174z M93.1,236.7h71.4
		v42.1H93.1V236.7z M93.1,288.4h71.4v42.1H93.1V288.4z M327.1,330.5h-71.4v-42.1h71.4V330.5z M327.1,278.8h-71.4v-42.1h71.4V278.8z
		 M327.1,227.1h-71.4v-42.1h71.4V227.1z M327.1,175.4h-234v-58.9h71.4v23.6h9.6v-23.6h72.1v23.6h9.6v-23.6h71.4V175.4z" />
    </g>
    <g id="Layer_2">
    </g>
    <g id="Layer_3">
    </g>
    <g id="Layer_4">
    </g>
    <g id="Layer_5">
    </g>
    <g id="Layer_6">
    </g>
    <g id="Layer_7">
    </g>
    <g id="Layer_8">
    </g>
</svg>
