<svg version="1.1" xmlns="http://www.w3.org/2000/svg" xmlns:xlink="http://www.w3.org/1999/xlink" x="0px" y="0px"
	 viewBox="0 0 420.1 420.1" style="enable-background:new 0 0 420.1 420.1;" xml:space="preserve">
<style type="text/css">
	.st0{fill:#FFFFFF;}
</style>
<g id="Layer_1">
	<rect width="420.1" height="420.1"/>
	<path class="st0" d="M343.9,146.4c-7.4-15.9-17.7-30-30.7-42c-13-12-28.5-21.7-46-28.7c-17.5-7-36.7-10.6-56.9-10.6
		c-20.3,0-39.5,3.9-57.1,11.6c-17.6,7.7-33.1,18.3-46.1,31.4c-13,13.1-23.4,28.6-30.9,46.1c-7.5,17.5-11.3,36.4-11.3,56.2
		c0,19.8,3.7,38.7,11.1,56.1c7.4,17.4,17.8,32.9,31,46c13.2,13.1,29,23.6,46.9,31.2c17.9,7.6,37.8,11.4,58.9,11.4
		c17.2,0,33.1-2.2,47.3-6.6c14.2-4.4,27.9-10.5,40.6-18.2l0.2-0.1l-5.2-8.7l-0.2,0.1c-12.7,7.5-25.7,13.1-38.5,16.9
		c-12.8,3.7-27.7,5.6-44.2,5.6c-19.8,0-38.2-3.5-54.9-10.4C141.5,326.7,127,317,115,305c-12-12.1-21.4-26.4-28.1-42.5
		c-6.7-16.1-10.1-33.6-10.1-52.1c0-18.4,3.4-36,10.1-52.1c6.7-16.1,16.1-30.5,27.9-42.7c11.8-12.2,26.1-21.9,42.3-28.9
		c16.2-7,34.1-10.6,53.2-10.6c18.9,0,36.6,3.4,52.7,10.3c16.1,6.8,30.3,15.9,42.2,27.1c11.8,11.2,21.2,24.1,27.9,38.5
		c6.7,14.4,10.1,29.3,10.1,44.5c0,11.8-1.4,22.2-4.1,30.9c-2.7,8.7-6.4,15.8-10.9,21.3c-4.5,5.5-9.6,9.6-15.3,12.2
		c-5.7,2.6-11.4,4-17.1,4c-9.4,0-16.8-2.5-21.9-7.4c-5.1-4.9-7.7-12.1-7.7-21.5c0-4.1,1-12.1,3-23.7l12.3-69.7l0-0.2l-16.4-2
		l-4.6,24.4c-1.9-3.3-4.3-6.7-7-10c-2.9-3.5-6.3-6.8-10.3-9.6c-4-2.9-8.7-5.2-14-6.8c-5.3-1.7-11.3-2.5-18-2.5
		c-9.3,0-18.6,2.1-27.8,6.3c-9.1,4.2-17.5,10-24.9,17.2c-7.4,7.3-13.4,16-17.9,26c-4.5,10-6.8,21.1-6.8,33c0,8.8,1.6,16.9,4.7,24.1
		c3.1,7.2,7.3,13.4,12.6,18.6c5.3,5.2,11.6,9.3,18.8,12.1c7.2,2.9,14.8,4.3,22.8,4.3c6.6,0,12.7-0.8,18.1-2.5
		c5.4-1.7,10.5-3.9,15.1-6.6c4.6-2.8,8.9-6.1,12.8-9.8c3.8-3.7,7.3-7.5,10.5-11.6c2.9,9.3,8.2,16.8,15.9,22.2
		c7.7,5.5,17.6,8.3,29.3,8.3c7.1,0,14.3-1.6,21.5-4.7c7.2-3.1,13.7-8,19.5-14.5c5.7-6.5,10.5-14.9,14.1-25.1
		c3.6-10.1,5.5-22.4,5.5-36.5C355.1,179.1,351.3,162.2,343.9,146.4z M254.9,197.5c0,8.1-1.7,16-4.9,23.6
		c-3.3,7.6-7.7,14.4-13.2,20.3c-5.5,5.9-11.9,10.7-19,14.4c-7.1,3.6-14.6,5.4-22.3,5.4c-12.9,0-23.6-3.9-31.6-11.7
		c-8.1-7.8-12.2-18.8-12.2-32.8c0-9.2,1.7-17.9,5.1-25.7c3.4-7.9,7.9-14.8,13.5-20.6c5.6-5.8,12-10.4,19.1-13.7
		c7.1-3.3,14.5-4.9,21.9-4.9c6.1,0,11.9,1.2,17.3,3.5c5.3,2.3,10,5.6,13.8,9.7c3.8,4.2,6.9,9,9.1,14.5
		C253.8,184.8,254.9,190.9,254.9,197.5z"/>
</g>
<g id="Layer_2">
</g>
<g id="Layer_3">
</g>
<g id="Layer_4">
</g>
<g id="Layer_5">
</g>
<g id="Layer_6">
</g>
<g id="Layer_7">
</g>
<g id="Layer_8">
</g>
</svg>
