<svg
    style="width: 100%;
    height: 40%;
    margin: -8% -5% -4% -4%;"
   xmlns:dc="http://purl.org/dc/elements/1.1/"
   xmlns:cc="http://creativecommons.org/ns#"
   xmlns:rdf="http://www.w3.org/1999/02/22-rdf-syntax-ns#"
   xmlns:svg="http://www.w3.org/2000/svg"
   xmlns="http://www.w3.org/2000/svg"
   viewBox="0 0 3922.3867 2736.6799"
   height="2736.6799"
   width="3922.3867"
   xml:space="preserve"
   id="svg2"
   version="1.1"><metadata
     id="metadata8"><rdf:RDF><cc:Work
         rdf:about=""><dc:format>image/svg+xml</dc:format><dc:type
           rdf:resource="http://purl.org/dc/dcmitype/StillImage" /></cc:Work></rdf:RDF></metadata><defs
     id="defs6" /><g
     transform="matrix(1.3333333,0,0,-1.3333333,0,2736.68)"
     id="g10"><g
       transform="scale(0.1)"
       id="g12"><path
         id="path14"
         style="fill:#100f0d;fill-opacity:1;fill-rule:nonzero;stroke:none"
         d="m 10100.9,12155.3 c -167.48,0 -303.7,-136.3 -303.7,-303.7 V 5229.5 c 0,-167.5 136.22,-303.7 303.7,-303.7 h 4491.8 c 167.5,0 303.7,136.2 303.7,303.7 v 6622.1 c 0,167.4 -136.2,303.7 -303.7,303.7 z m 0,-7407.2 c -265.45,0 -481.38,215.9 -481.38,481.4 v 6622.1 c 0,265.4 215.93,481.3 481.38,481.3 h 4491.8 c 265.4,0 481.4,-215.9 481.4,-481.3 V 5229.5 c 0,-265.5 -216,-481.4 -481.4,-481.4 h -4491.8" /><path
         id="path16"
         style="fill:#100f0d;fill-opacity:1;fill-rule:nonzero;stroke:none"
         d="m 10597.2,9456.5 h 3499.2 V 11286 h -3499.2 z m -177.7,-177.6 v 2184.8 h 3854.6 V 9278.9 h -3854.6" /><path
         id="path18"
         style="fill:#ffffff;fill-opacity:1;fill-rule:nonzero;stroke:none"
         d="M 8593.76,14655.4 H 3701.9 c -167.45,0 -303.68,-136.2 -303.68,-303.6 v -3122.2 c 0,-167.4 136.23,-303.6 303.68,-303.6 h 4891.86 c 167.45,0 303.67,136.2 303.67,303.6 v 3122.2 c 0,167.4 -136.22,303.6 -303.67,303.6" /><path
         id="path20"
         style="fill:#100f0d;fill-opacity:1;fill-rule:nonzero;stroke:none"
         d="m 8897.43,11229.6 c 0,-167.4 -136.22,-303.6 -303.67,-303.6 H 3701.9 c -167.45,0 -303.68,136.2 -303.68,303.6 v 3122.2 c 0,167.4 136.23,303.6 303.68,303.6 h 4891.86 c 167.45,0 303.67,-136.2 303.67,-303.6 z m -303.67,3603.5 H 3701.9 c -265.42,0 -481.35,-215.9 -481.35,-481.3 v -3122.2 c 0,-265.4 215.93,-481.3 481.35,-481.3 h 4891.86 c 265.41,0 481.35,215.9 481.35,481.3 v 3122.2 c 0,265.4 -215.94,481.3 -481.35,481.3" /><g
         transform="scale(1.56828)"
         id="g22"><path
           id="path24"
           style="fill:#ffffff;fill-opacity:1;fill-rule:nonzero;stroke:none"
           d="m 12963.7,3249.05 v 4364.11 c 0,84.13 68.1,152.31 152.2,152.31 h 3031.8 c 84.1,0 152.3,-68.18 152.3,-152.31 V 3249.05 c 0,-84.11 -68.2,-152.34 -152.3,-152.34 h -3031.8 c -84.1,0 -152.2,68.23 -152.2,152.34" /></g><g
         transform="scale(1.57499)"
         id="g26"><path
           id="path28"
           style="fill:#100f0d;fill-opacity:1;fill-rule:nonzero;stroke:none"
           d="m 13142.4,7717.69 c -106.4,0 -192.8,-86.5 -192.8,-192.82 V 3320.34 c 0,-106.35 86.4,-192.82 192.8,-192.82 h 2851.9 c 106.4,0 192.9,86.47 192.9,192.82 v 4204.53 c 0,106.32 -86.5,192.82 -192.9,192.82 z m 0,-4703 c -168.5,0 -305.7,137.08 -305.7,305.65 v 4204.53 c 0,168.52 137.2,305.62 305.7,305.62 h 2851.9 c 168.6,0 305.7,-137.1 305.7,-305.62 V 3320.34 c 0,-168.57 -137.1,-305.65 -305.7,-305.65 h -2851.9" /></g><g
         transform="scale(1.52591)"
         id="g30"><path
           id="path32"
           style="fill:#100f0d;fill-opacity:1;fill-rule:nonzero;stroke:none"
           d="m 13890.4,6197.29 h 2293.1 V 7396.27 H 13890.4 Z M 13773.9,6080.9 V 7512.71 H 16300 V 6080.9 h -2526.1" /></g><g
         transform="scale(1.07216)"
         id="g34"><path
           id="path36"
           style="fill:#100f0d;fill-opacity:1;fill-rule:nonzero;stroke:none"
           d="M 16133.4,4363.25 V 13834.8 H 16300 V 4363.25 h -166.6" /></g><path
         id="path38"
         style="fill:#100f0d;fill-opacity:1;fill-rule:nonzero;stroke:none"
         d="m 11208.7,5472.4 v 3228.7 h 167.7 V 5472.4 h -167.7" /><path
         id="path40"
         style="fill:#100f0d;fill-opacity:1;fill-rule:nonzero;stroke:none"
         d="m 12207.6,5472.4 v 3228.7 h 167.7 V 5472.4 h -167.7" /><path
         id="path42"
         style="fill:#100f0d;fill-opacity:1;fill-rule:nonzero;stroke:none"
         d="m 13206.5,5472.4 v 3228.7 h 167.7 V 5472.4 h -167.7" /><path
         id="path44"
         style="fill:#100f0d;fill-opacity:1;fill-rule:nonzero;stroke:none"
         d="m 10732.5,6004 v 167.7 h 3228.6 V 6004 h -3228.6" /><path
         id="path46"
         style="fill:#100f0d;fill-opacity:1;fill-rule:nonzero;stroke:none"
         d="m 10732.5,7002.9 v 167.7 h 3228.6 v -167.7 h -3228.6" /><path
         id="path48"
         style="fill:#100f0d;fill-opacity:1;fill-rule:nonzero;stroke:none"
         d="m 10732.5,8001.8 v 167.7 h 3228.6 v -167.7 h -3228.6" /><g
         transform="scale(1.34824)"
         id="g50"><path
           id="path52"
           style="fill:#100f0d;fill-opacity:1;fill-rule:nonzero;stroke:none"
           d="M 16175.6,4058.92 V 6453.68 H 16300 V 4058.92 h -124.4" /></g><g
         transform="scale(1.40952)"
         id="g54"><path
           id="path56"
           style="fill:#100f0d;fill-opacity:1;fill-rule:nonzero;stroke:none"
           d="m 16181,3882.45 v 2290.64 h 119 V 3882.45 h -119" /></g><g
         transform="scale(1.4708)"
         id="g58"><path
           id="path60"
           style="fill:#100f0d;fill-opacity:1;fill-rule:nonzero;stroke:none"
           d="m 16186,3720.69 v 2195.19 h 114 V 3720.69 h -114" /></g><g
         transform="scale(1.50681)"
         id="g62"><path
           id="path64"
           style="fill:#100f0d;fill-opacity:1;fill-rule:nonzero;stroke:none"
           d="m 14157.3,3984.58 v 111.29 H 16300 v -111.29 h -2142.7" /></g><g
         transform="scale(1.50681)"
         id="g66"><path
           id="path68"
           style="fill:#100f0d;fill-opacity:1;fill-rule:nonzero;stroke:none"
           d="m 14157.3,4647.5 v 111.3 H 16300 v -111.3 h -2142.7" /></g><g
         transform="scale(1.50681)"
         id="g70"><path
           id="path72"
           style="fill:#100f0d;fill-opacity:1;fill-rule:nonzero;stroke:none"
           d="m 14157.3,5310.43 v 111.29 H 16300 v -111.29 h -2142.7" /></g><g
         transform="scale(1.53547)"
         id="g74"><path
           id="path76"
           style="fill:#ffffff;fill-opacity:1;fill-rule:nonzero;stroke:none"
           d="m 16102.2,8405.1 h -3185.9 c -109,0 -197.8,-88.72 -197.8,-197.77 V 6174.02 c 0,-109.09 88.8,-197.79 197.8,-197.79 h 3185.9 c 109.1,0 197.8,88.7 197.8,197.79 v 2033.31 c 0,109.05 -88.7,197.77 -197.8,197.77" /></g><g
         transform="scale(1.54637)"
         id="g78"><path
           id="path80"
           style="fill:#100f0d;fill-opacity:1;fill-rule:nonzero;stroke:none"
           d="m 16185.1,6130.49 c 0,-108.31 -88.1,-196.39 -196.4,-196.39 h -3163.4 c -108.3,0 -196.4,88.08 -196.4,196.39 v 2018.98 c 0,108.28 88.1,196.38 196.4,196.38 h 3163.4 c 108.3,0 196.4,-88.1 196.4,-196.38 z m -196.4,2330.26 h -3163.4 c -171.7,0 -311.3,-139.64 -311.3,-311.28 V 6130.49 c 0,-171.69 139.6,-311.31 311.3,-311.31 h 3163.4 c 171.6,0 311.3,139.62 311.3,311.31 v 2018.98 c 0,171.64 -139.7,311.28 -311.3,311.28" /></g><path
         id="path82"
         style="fill:#100f0d;fill-opacity:1;fill-rule:nonzero;stroke:none"
         d="m 12290.6,10096.4 1,-1 619,609.4 -126.7,127.4 -404.3,-414.7 -180.1,0.5 -402.5,416.9 -127.4,-126.6 620,-613 1,1.1" /><path
         id="path84"
         style="fill:#100f0d;fill-opacity:1;fill-rule:nonzero;stroke:none"
         d="m 12196.4,10336.5 v 2563.6 H 9351.11 v 190 h 3035.29 v -2753.6 h -190" /></g></g></svg>