<svg
    style="width: 150%;
    height: 45%;
    margin: -30% -5% -10% -30%;"
   xmlns:dc="http://purl.org/dc/elements/1.1/"
   xmlns:cc="http://creativecommons.org/ns#"
   xmlns:rdf="http://www.w3.org/1999/02/22-rdf-syntax-ns#"
   xmlns:svg="http://www.w3.org/2000/svg"
   xmlns="http://www.w3.org/2000/svg"
   viewBox="0 0 3922.3867 2736.6799"
   height="2736.6799"
   width="3922.3867"
   xml:space="preserve"
   id="svg2"
   version="1.1"><metadata
     id="metadata8"><rdf:RDF><cc:Work
         rdf:about=""><dc:format>image/svg+xml</dc:format><dc:type
           rdf:resource="http://purl.org/dc/dcmitype/StillImage" /></cc:Work></rdf:RDF></metadata><defs
     id="defs6" /><g
     transform="matrix(1.3333333,0,0,-1.3333333,0,2736.68)"
     id="g10"><g
       transform="scale(0.1)"
       id="g12"><path
         id="path14"
         style="fill:#100f0d;fill-opacity:1;fill-rule:nonzero;stroke:none"
         d="m 8452.96,12155.3 c -167.45,0 -303.67,-136.3 -303.67,-303.7 V 5229.5 c 0,-167.5 136.22,-303.7 303.67,-303.7 h 4491.84 c 167.5,0 303.7,136.2 303.7,303.7 v 6622.1 c 0,167.4 -136.2,303.7 -303.7,303.7 z m 0,-7407.2 c -265.42,0 -481.35,215.9 -481.35,481.4 v 6622.1 c 0,265.4 215.93,481.3 481.35,481.3 h 4491.84 c 265.4,0 481.4,-215.9 481.4,-481.3 V 5229.5 c 0,-265.5 -216,-481.4 -481.4,-481.4 H 8452.96" /><path
         id="path16"
         style="fill:#100f0d;fill-opacity:1;fill-rule:nonzero;stroke:none"
         d="M 8949.29,9456.5 H 12448.5 V 11286 H 8949.29 Z m -177.68,-177.6 v 2184.8 H 12626.2 V 9278.9 H 8771.61" /><path
         id="path18"
         style="fill:#100f0d;fill-opacity:1;fill-rule:nonzero;stroke:none"
         d="m 2453.99,14055.4 c -167.45,0 -303.68,-136.2 -303.68,-303.6 v -1873.9 h 5099.21 v 1873.9 c 0,167.4 -136.22,303.6 -303.67,303.6 z m -303.68,-3125.8 c 0,-167.4 136.23,-303.6 303.68,-303.6 h 4491.86 c 167.45,0 303.67,136.2 303.67,303.6 v 350.3 H 2150.31 Z m 303.68,-481.3 c -265.42,0 -481.35,215.9 -481.35,481.3 v 2822.2 c 0,265.4 215.93,481.3 481.35,481.3 h 4491.86 c 265.41,0 481.35,-215.9 481.35,-481.3 v -2822.2 c 0,-265.4 -215.94,-481.3 -481.35,-481.3 H 2453.99" /><path
         id="path20"
         style="fill:#100f0d;fill-opacity:1;fill-rule:nonzero;stroke:none"
         d="m 11254.2,12722.7 415.8,403.6 H 9294.6 v 180.1 H 11670 l -415.8,403.3 127,127 611.2,-617.3 -0.9,-1 0.9,-1 -611.2,-621.7 -127,127" /><g
         transform="scale(1.42928)"
         id="g22"><path
           id="path24"
           style="fill:#100f0d;fill-opacity:1;fill-rule:nonzero;stroke:none"
           d="m 12820.4,9833.96 c -117.1,0 -212.4,-95.32 -212.4,-212.47 V 8310.4 h 3567.7 v 1311.09 c 0,117.15 -95.4,212.47 -212.5,212.47 z M 12608,7646.98 c 0,-117.16 95.3,-212.47 212.4,-212.47 h 3142.8 c 117.1,0 212.5,95.31 212.5,212.47 v 245.08 H 12608 Z m 212.4,-336.77 c -185.7,0 -336.7,151.06 -336.7,336.77 v 1974.51 c 0,185.71 151,336.78 336.7,336.78 h 3142.8 c 185.7,0 336.8,-151.07 336.8,-336.78 V 7646.98 c 0,-185.71 -151.1,-336.77 -336.8,-336.77 h -3142.8" /></g><g
         transform="scale(1.55071)"
         id="g26"><path
           id="path28"
           style="fill:#ffffff;fill-opacity:1;fill-rule:nonzero;stroke:none"
           d="m 12925.9,3285.86 v 4413.56 c 0,85.08 69,154.04 154,154.04 H 16146 c 85.1,0 154,-68.96 154,-154.04 V 3285.86 c 0,-85.06 -68.9,-154.06 -154,-154.06 h -3066.1 c -85,0 -154,69 -154,154.06" /></g><g
         transform="scale(1.55742)"
         id="g30"><path
           id="path32"
           style="fill:#100f0d;fill-opacity:1;fill-rule:nonzero;stroke:none"
           d="m 13106.8,7804.76 c -107.5,0 -195,-87.48 -195,-194.99 V 3357.8 c 0,-107.55 87.5,-195 195,-195 H 15991 c 107.4,0 195,87.45 195,195 v 4251.97 c 0,107.51 -87.6,194.99 -195,194.99 z m 0,-4756.06 c -170.4,0 -309.1,138.63 -309.1,309.1 v 4251.97 c 0,170.42 138.7,309.06 309.1,309.06 H 15991 c 170.4,0 309,-138.64 309,-309.06 V 3357.8 c 0,-170.47 -138.6,-309.1 -309,-309.1 h -2884.2" /></g><g
         transform="scale(1.50834)"
         id="g34"><path
           id="path36"
           style="fill:#100f0d;fill-opacity:1;fill-rule:nonzero;stroke:none"
           d="m 13862.3,6269.48 h 2320 v 1212.95 h -2320 z m -117.8,-117.74 V 7600.22 H 16300 V 6151.74 h -2555.5" /></g><g
         transform="scale(1.64141)"
         id="g38"><path
           id="path40"
           style="fill:#100f0d;fill-opacity:1;fill-rule:nonzero;stroke:none"
           d="m 15850.2,7751.07 253.3,245.92 h -1447.1 v 109.71 h 1447.2 l -253.4,245.66 77.4,77.41 372.3,-376.1 -0.6,-0.6 0.7,-0.64 -372.4,-378.73 -77.4,77.37" /></g><path
         id="path42"
         style="fill:#100f0d;fill-opacity:1;fill-rule:nonzero;stroke:none"
         d="m 15619.7,4748.1 v 9485 h 178.5 v -9485 h -178.5" /><path
         id="path44"
         style="fill:#100f0d;fill-opacity:1;fill-rule:nonzero;stroke:none"
         d="m 9560.78,5472.4 v 3228.7 h 167.67 V 5472.4 h -167.67" /><path
         id="path46"
         style="fill:#100f0d;fill-opacity:1;fill-rule:nonzero;stroke:none"
         d="m 10559.7,5472.4 v 3228.7 h 167.7 V 5472.4 h -167.7" /><path
         id="path48"
         style="fill:#100f0d;fill-opacity:1;fill-rule:nonzero;stroke:none"
         d="m 11558.6,5472.4 v 3228.7 h 167.7 V 5472.4 h -167.7" /><path
         id="path50"
         style="fill:#100f0d;fill-opacity:1;fill-rule:nonzero;stroke:none"
         d="m 9084.57,6004 v 167.7 H 12313.2 V 6004 H 9084.57" /><path
         id="path52"
         style="fill:#100f0d;fill-opacity:1;fill-rule:nonzero;stroke:none"
         d="m 9084.57,7002.9 v 167.7 H 12313.2 V 7002.9 H 9084.57" /><path
         id="path54"
         style="fill:#100f0d;fill-opacity:1;fill-rule:nonzero;stroke:none"
         d="m 9084.57,8001.8 v 167.7 H 12313.2 V 8001.8 H 9084.57" /><g
         transform="scale(1.33067)"
         id="g56"><path
           id="path58"
           style="fill:#100f0d;fill-opacity:1;fill-rule:nonzero;stroke:none"
           d="m 16174,4112.52 v 2426.37 h 126 V 4112.52 h -126" /></g><g
         transform="scale(1.39195)"
         id="g60"><path
           id="path62"
           style="fill:#100f0d;fill-opacity:1;fill-rule:nonzero;stroke:none"
           d="M 16179.6,3931.46 V 6251.01 H 16300 V 3931.46 h -120.4" /></g><g
         transform="scale(1.45323)"
         id="g64"><path
           id="path66"
           style="fill:#100f0d;fill-opacity:1;fill-rule:nonzero;stroke:none"
           d="M 16184.7,3765.67 V 5987.41 H 16300 V 3765.67 h -115.3" /></g><g
         transform="scale(1.48925)"
         id="g68"><path
           id="path70"
           style="fill:#100f0d;fill-opacity:1;fill-rule:nonzero;stroke:none"
           d="m 14132,4031.57 v 112.61 h 2168 v -112.61 h -2168" /></g><g
         transform="scale(1.48925)"
         id="g72"><path
           id="path74"
           style="fill:#100f0d;fill-opacity:1;fill-rule:nonzero;stroke:none"
           d="m 14132,4702.32 v 112.6 h 2168 v -112.6 h -2168" /></g><g
         transform="scale(1.48925)"
         id="g76"><path
           id="path78"
           style="fill:#100f0d;fill-opacity:1;fill-rule:nonzero;stroke:none"
           d="m 14132,5373.06 v 112.6 h 2168 v -112.6 h -2168" /></g></g></g>
</svg>