<svg version="1.1" xmlns="http://www.w3.org/2000/svg" xmlns:xlink="http://www.w3.org/1999/xlink" x="0px" y="0px"
	 viewBox="0 0 420.1 420.1" style="enable-background:new 0 0 420.1 420.1;" xml:space="preserve">
<style type="text/css">
	.st0{fill:#FFFFFF;}
</style>
<g id="Layer_1">
	<rect x="0" y="0" width="420.1" height="420.1"/>
	<path class="st0" d="M275.4,81.3c17.3,0,34.6,6.6,47.8,19.8c26.4,26.4,26.4,69.3,0,95.7c-13.2,13.2-30.5,19.8-47.8,19.8
		c-9,0-18.1-1.8-26.5-5.4L230.1,230l-44.9,9.2l-9.5,45.3l-45.1,9.4l-9.2,45l-35.7-0.1l-7.3-28.4l134.8-134.8
		c-10.5-24.6-5.7-54.2,14.4-74.3C240.7,87.9,258.1,81.3,275.4,81.3 M275.4,70.1c-21.1,0-40.9,8.2-55.8,23.1
		c-11.3,11.3-18.9,25.7-21.8,41.4c-2.4,12.8-1.6,25.8,2.3,38L70.4,302.3l-4.5,4.5l1.6,6.2l7.3,28.4l2.2,8.4l8.7,0l35.7,0.1l9.2,0
		l1.9-9l7.8-37.7l37.8-7.8l7.2-1.5l1.5-7.2l8-38l37.7-7.7l3.3-0.7l2.4-2.4l13.6-13.6c7.6,2.4,15.6,3.6,23.6,3.6
		c21.1,0,40.9-8.2,55.8-23.1c14.9-14.9,23.1-34.7,23.1-55.8c0-21.1-8.2-40.9-23.1-55.8C316.3,78.3,296.4,70.1,275.4,70.1L275.4,70.1
		z"/>
</g>
<g id="Layer_2">
</g>
<g id="Layer_3">
</g>
<g id="Layer_4">
</g>
<g id="Layer_5">
</g>
<g id="Layer_6">
</g>
<g id="Layer_7">
</g>
<g id="Layer_8">
</g>
</svg>
