<svg version="1.1" xmlns="http://www.w3.org/2000/svg" xmlns:xlink="http://www.w3.org/1999/xlink" x="0px" y="0px"
	 viewBox="0 0 420.1 420.1" style="enable-background:new 0 0 420.1 420.1;" xml:space="preserve">
<style type="text/css">
	.st0{fill:#FFFFFF;}
</style>
<g id="Layer_1">
	<rect x="-0.2" width="420.1" height="420.1"/>
	<path class="st0" d="M150.7,258.4h118.1v-18.3H150.7V258.4z M114.9,170.7c0,5-4,9-9,9s-9-4-9-9c0-5,4-9,9-9
		S114.9,165.8,114.9,170.7z M149.6,170.7c0,5-4,9-9,9c-5,0-9-4-9-9c0-5,4-9,9-9C145.6,161.7,149.6,165.8,149.6,170.7z M184.4,170.7
		c0,5-4,9-9,9c-5,0-9-4-9-9c0-5,4-9,9-9C180.4,161.7,184.4,165.8,184.4,170.7z M219.2,170.7c0,5-4,9-9,9c-5,0-9-4-9-9c0-5,4-9,9-9
		C215.2,161.7,219.2,165.8,219.2,170.7z M254,170.7c0,5-4,9-9,9c-5,0-9-4-9-9c0-5,4-9,9-9C250,161.7,254,165.8,254,170.7z
		 M288.8,170.7c0,5-4,9-9,9c-5,0-9-4-9-9c0-5,4-9,9-9C284.8,161.7,288.8,165.8,288.8,170.7z M323.6,170.7c0,5-4,9-9,9c-5,0-9-4-9-9
		c0-5,4-9,9-9C319.5,161.7,323.6,165.8,323.6,170.7z M149.6,207.3c0,5-4,9-9,9c-5,0-9-4-9-9c0-5,4-9,9-9
		C145.6,198.3,149.6,202.3,149.6,207.3z M114.9,207.3c0,5-4,9-9,9s-9-4-9-9c0-5,4-9,9-9S114.9,202.3,114.9,207.3z M184.4,207.3
		c0,5-4,9-9,9c-5,0-9-4-9-9c0-5,4-9,9-9C180.4,198.3,184.4,202.3,184.4,207.3z M219.2,207.3c0,5-4,9-9,9c-5,0-9-4-9-9c0-5,4-9,9-9
		C215.2,198.3,219.2,202.3,219.2,207.3z M254,207.3c0,5-4,9-9,9c-5,0-9-4-9-9c0-5,4-9,9-9C250,198.3,254,202.3,254,207.3z
		 M288.8,207.3c0,5-4,9-9,9c-5,0-9-4-9-9c0-5,4-9,9-9C284.8,198.3,288.8,202.3,288.8,207.3z M323.6,207.3c0,5-4,9-9,9c-5,0-9-4-9-9
		c0-5,4-9,9-9C319.5,198.3,323.6,202.3,323.6,207.3z M365.1,298.6h-310V121.5h310V298.6z M66,287.7h288.1V132.4H66V287.7z"/>
</g>
<g id="Layer_2">
</g>
<g id="Layer_3">
</g>
<g id="Layer_4">
</g>
<g id="Layer_5">
</g>
<g id="Layer_6">
</g>
<g id="Layer_7">
</g>
<g id="Layer_8">
</g>
</svg>
