<svg version="1.1" xmlns="http://www.w3.org/2000/svg" xmlns:xlink="http://www.w3.org/1999/xlink" x="0px" y="0px"
	 viewBox="0 0 420.1 420.1" style="enable-background:new 0 0 420.1 420.1;" xml:space="preserve">
<style type="text/css">
	.st0{fill:#FFFFFF;}
</style>
<g id="Layer_1">
	<rect width="420.1" height="420.1"/>
	<g>
		<path class="st0" d="M351.6,176.4c-9.3-49.4-38.5-84.6-82.7-107.6c-4.6-2.4-9.7-6.2-14.7-1.4c-4.7,4.6-0.5,9.3,1.4,13.6
			c8,18.1,12.7,37.1,11.9,56.6c-1.9,47.1-22.2,85.2-61,112.3c-27.5,19.2-58.3,28.2-91.9,23.9c-13.5-1.7-26.7-5.8-40.1-8.3
			c-2.6-0.5-6.6,0-8,1.7c-1.3,1.5-0.8,5.8,0.5,8c28.9,49.6,70.1,79.7,137,79.9c16-0.5,38.8-4.4,60.3-14.2
			C328.1,311.8,365.2,248.8,351.6,176.4z M315.9,285.3c-26.8,34.8-62.6,53.9-106.5,57.3c-16.1,1.3-32.1,0.5-47.7-3.5
			c-30.9-8.1-54.5-26.6-72.9-52.2c-0.6-0.9-0.8-2.1-2-5.1c59.6,12.1,111-0.2,151.8-44.6c40.3-43.9,49.5-95.4,31.4-153.4
			c11.5,4.9,19.7,11.6,27.5,18.7C349.3,149.3,357.7,231.1,315.9,285.3z"/>
	</g>
</g>
<g id="Layer_2">
</g>
<g id="Layer_3">
</g>
<g id="Layer_4">
</g>
<g id="Layer_5">
</g>
<g id="Layer_6">
</g>
<g id="Layer_7">
</g>
<g id="Layer_8">
</g>
</svg>
