<svg version="1.1" xmlns="http://www.w3.org/2000/svg" xmlns:xlink="http://www.w3.org/1999/xlink" x="0px" y="0px"
	 viewBox="0 0 420.1 420.1" style="enable-background:new 0 0 420.1 420.1;" xml:space="preserve">
<style type="text/css">
	.st0{fill:#FFFFFF;}
</style>
<g id="Layer_1">
	<rect width="420.1" height="420.1"/>
	<g>
		<path class="st0" d="M210.1,207.9c-35.3,0-63.9-28.7-63.9-63.9s28.7-63.9,63.9-63.9S274,108.7,274,144S245.3,207.9,210.1,207.9z
			 M210.1,90.5c-29.5,0-53.5,24-53.5,53.5c0,29.5,24,53.5,53.5,53.5s53.5-24,53.5-53.5C263.6,114.5,239.6,90.5,210.1,90.5z"/>
	</g>
	<g>
		<path class="st0" d="M315.2,340.1H104.9v-60.3c0-31.5,25.6-57,57-57h15.9l32.3,49.3l32.2-49.3h15.9c31.5,0,57,25.6,57,57V340.1z
			 M114.5,330.5h191.2v-50.7c0-24.6-22.9-47.5-47.5-47.5h-9.1l-39,58.8L171,232.3h-9.1c-24.6,0-47.5,22.9-47.5,47.5V330.5z"/>
	</g>
</g>
<g id="Layer_2">
</g>
<g id="Layer_3">
</g>
<g id="Layer_4">
</g>
<g id="Layer_5">
</g>
<g id="Layer_6">
</g>
<g id="Layer_7">
</g>
<g id="Layer_8">
</g>
</svg>
