<svg version="1.1" xmlns="http://www.w3.org/2000/svg" xmlns:xlink="http://www.w3.org/1999/xlink" x="0px" y="0px"
	 viewBox="0 0 420.1 420.1" style="enable-background:new 0 0 420.1 420.1;" xml:space="preserve">
<style type="text/css">
	.st0{fill:#FFFFFF;}
</style>
<g id="Layer_1">
	<rect x="0" width="420.1" height="420.1"/>
	<g>
		<g>
			<circle class="st0" cx="204.7" cy="336.7" r="13.3"/>
		</g>
		<path class="st0" d="M197.6,214.1c12.7-0.5,24.1-2.4,34.4-5.7c10.3-3.3,19.2-7.8,26.7-13.7c7.5-5.8,13.3-12.7,17.4-20.6
			c4.1-7.9,6.1-16.9,6.1-26.9v-0.8c0-9-1.7-17.3-5.1-25.1c-3.4-7.8-8.3-14.6-14.4-20.4c-6.2-5.8-13.7-10.4-22.6-13.7
			c-8.8-3.3-18.5-4.9-29.1-4.9c-16.1,0-30.6,4-43.5,12.1c-12.9,8.1-24,18.8-33.2,32.3l-9.9-7.5c10-14.5,22.1-26.3,36.2-35.4
			c14.1-9.1,31.1-13.7,50.9-13.7c12.7,0,24.2,2,34.6,6.1c10.4,4.1,19.3,9.5,26.7,16.2c7.4,6.7,13.1,14.7,17,23.9
			c4,9.2,5.9,19,5.9,29.3v0.8c0,12.1-2.4,22.8-7.1,32.1c-4.7,9.2-11,17.2-18.8,23.7c-7.8,6.6-16.8,11.8-27.1,15.6
			c-10.3,3.8-21,6.3-32.1,7.3v63.1h-13.1V214.1z"/>
	</g>
</g>
<g id="Layer_2">
</g>
<g id="Layer_3">
</g>
<g id="Layer_4">
</g>
<g id="Layer_5">
</g>
<g id="Layer_6">
</g>
<g id="Layer_7">
</g>
<g id="Layer_8">
</g>
</svg>
