<svg version="1.1" xmlns="http://www.w3.org/2000/svg" xmlns:xlink="http://www.w3.org/1999/xlink" x="0px" y="0px"
	 viewBox="0 0 420.1 420.1" style="enable-background:new 0 0 420.1 420.1;" xml:space="preserve">
<style type="text/css">
	.st0{fill:#FFFFFF;}
</style>
<g id="Layer_1">
	<rect width="420.1" height="420.1"/>
	<path class="st0" d="M355.1,210.1c0-80-65-145-145-145s-145,65-145,145s65,145,145,145S355.1,290,355.1,210.1z M343.3,210.1
		c0,73.5-59.8,133.2-133.2,133.2S76.8,283.5,76.8,210.1S136.6,76.8,210.1,76.8S343.3,136.6,343.3,210.1z"/>
	<polygon class="st0" points="197.4,210.3 197.4,99.2 210.4,99.2 210.4,210.3 271.4,210.3 271.4,223.3 210.4,223.3 197.4,223.3 
		197.4,223.3 197.4,210.3 	"/>
</g>
<g id="Layer_2">
</g>
<g id="Layer_3">
</g>
<g id="Layer_4">
</g>
<g id="Layer_5">
</g>
<g id="Layer_6">
</g>
<g id="Layer_7">
</g>
<g id="Layer_8">
</g>
</svg>
