<svg id="logo-hotel-171" class="logo" xmlns="http://www.w3.org/2000/svg" xmlns:xlink="http://www.w3.org/1999/xlink" viewBox="0 0 201 132"><path fill="#fff" d="M79.35,25.14Q73.94,31.53,68.12,37.6c-1.29,1.35.76,3.4,2.06,2,2.45-2.57,4.84-5.2,7.2-7.86q-6.12,23.52-9.93,47.55c-.28,1.83,2.51,2.61,2.8.77A499.52,499.52,0,0,1,81.78,26.55c.36-1.33-1.46-2.56-2.43-1.41"/><g><path fill="#fff" d="M36.81,25.9q-5.43,6.41-11.23,12.46c-1.29,1.35.76,3.4,2.06,2,2.45-2.56,4.84-5.19,7.2-7.85Q28.72,56.08,24.91,80.1c-.29,1.83,2.51,2.62,2.8.77A499.52,499.52,0,0,1,39.24,27.31c.36-1.32-1.46-2.55-2.43-1.41"/><path fill="#fff" d="M57.55.93c-3.61.24-6.9.74-12.16,4C31.09-1.43-5.64,32.06.74,65c4.8,18.47,21.57,33,40.56,37.87-.34,1.66-.68,3.33-1,5Q38.1,119,36.07,130.12c-.27,1.49,1.93,2.74,2.65,1.12L40,128.4a1.51,1.51,0,0,0-.33-1.72q2.15-11.61,4.49-23.17a53,53,0,0,0,19.48.46C116.77,91.69,115.34,2.59,57.55.93M44.63,101q3.56-17.57,7.49-35a79.58,79.58,0,0,0,15-.79,1.45,1.45,0,0,0,1-1.78,1.49,1.49,0,0,0-1.79-1,74.59,74.59,0,0,1-13.61.76c.75-3.33,1.52-6.64,2.3-10q2.59-11,5.35-22a1.47,1.47,0,0,0-1.79-1.79,24.65,24.65,0,0,1-13.48-.82c-1.76-.61-2.52,2.19-.77,2.8a27.41,27.41,0,0,0,12.7,1.22Q53.31,47.74,49.83,63c-1.68-.13-3.35-.3-5-.55a1.5,1.5,0,0,0-1.78,1,1.45,1.45,0,0,0,1,1.78c1.72.25,3.43.43,5.15.57Q45.31,83,41.8,100.34A60.34,60.34,0,0,1,24,91.81l0,0C-9.79,69.53-1,27.82,33.85,8.24c2.94-1.07,5.24-2.28,9.31-2h.08c-3,.18-6.58,8,.87,4.5C49.61,7.54,55,5,62.32,6.28,125.72,21.54,97.14,112.15,44.63,101Z"/></g><path fill="#fff" d="M5.21,35.33a1.24,1.24,0,0,1,.08-.19,1.08,1.08,0,0,0-.08.19"/><path fill="#fff" d="M130.13,23.52a1.62,1.62,0,0,1,.31,0c.58,0,.88.24.88.71a.71.71,0,0,1-.78.72,3.51,3.51,0,0,1-.41,0c-.24,0-.41-.07-.52-.07-.59,0-1,.48-1,1.3v6.73c0,1.48.2,1.94,1,2.52A4.08,4.08,0,0,0,132,36a4.17,4.17,0,0,0,2.26-.67c.81-.56,1-1,1-2.52V26.12c0-.82-.35-1.3-1-1.3-.11,0-.29,0-.53.07a2.87,2.87,0,0,1-.39,0,.71.71,0,0,1-.8-.72c0-.47.3-.71.89-.71a1.72,1.72,0,0,1,.31,0l.6.09a9.59,9.59,0,0,0,1.68.1,9.76,9.76,0,0,0,1.69-.1l.59-.09a1.77,1.77,0,0,1,.32,0c.58,0,.87.24.87.71a.7.7,0,0,1-.78.72,3.51,3.51,0,0,1-.41,0c-.22,0-.4-.07-.51-.07-.6,0-1,.48-1,1.3v6.74c0,2.21-.42,3.16-1.74,3.86a7.07,7.07,0,0,1-6.3,0c-1.3-.7-1.73-1.65-1.73-3.86V26.12c0-.82-.37-1.3-1-1.3-.11,0-.3,0-.54.07a2.87,2.87,0,0,1-.39,0,.72.72,0,0,1-.8-.72c0-.47.3-.71.89-.71a1.89,1.89,0,0,1,.32,0l.59.09a9.7,9.7,0,0,0,1.69.1,9.82,9.82,0,0,0,1.69-.1l.59-.09"/><path fill="#fff" d="M145.54,28.18a5.28,5.28,0,0,1,1-1,3.11,3.11,0,0,1,1.8-.5c2,0,3.22,1.11,3.22,2.89,0,1.19-.65,2-1.59,2-.71,0-1.21-.41-1.21-.94a.88.88,0,0,1,.19-.56.45.45,0,0,1,.33-.26h.61s.08-.18.08-.41c0-.87-.69-1.44-1.78-1.44-1.5,0-2.45,1.2-2.45,3.13v3.93c0,.54.21.91.54.91.07,0,.33-.06.78-.13a.93.93,0,0,1,.24,0,.71.71,0,0,1,.76.74A.76.76,0,0,1,148,37a1.68,1.68,0,0,1-1,.24.75.75,0,0,1-.28,0l-.68,0c-.32,0-.67-.06-1-.06a16.43,16.43,0,0,0-1.76.11,2.34,2.34,0,0,1-.5.06c-.52,0-.86-.26-.86-.7a.72.72,0,0,1,.76-.71.86.86,0,0,1,.24,0c.41.07.62.13.63.13h.06c.37,0,.59-.35.59-.91v-6c0-.62-.22-1-.57-1a2.72,2.72,0,0,0-.54.08,1.54,1.54,0,0,1-.37,0c-.5,0-.8-.24-.8-.68s.32-.67.91-.67a1.72,1.72,0,0,1,.33,0,3.58,3.58,0,0,0,.77.05l.81-.13.17,0a.49.49,0,0,1,.37.13.7.7,0,0,1,.13.19.65.65,0,0,1,.09.15s0,.18,0,.44v.51"/><path fill="#fff" d="M155.37,25.6c0-.61-.21-1-.5-1a2.25,2.25,0,0,0-.54.08,2.33,2.33,0,0,1-.37,0c-.52,0-.8-.24-.8-.69s.3-.67.91-.67a1.83,1.83,0,0,1,.33,0c.52,0,.78.06,1,.06a2.07,2.07,0,0,0,.5,0l.48-.09a.34.34,0,0,1,.13,0c.37,0,.5.18.5.63a.9.9,0,0,1,0,.22c0,.21,0,.41,0,.63l0,3.38a2.93,2.93,0,0,1,1.44-1.25,4.3,4.3,0,0,1,1.63-.27c2.67,0,4.38,2.05,4.38,5.32s-1.87,5.52-4.63,5.52a4.09,4.09,0,0,1-1.54-.26,3.29,3.29,0,0,1-1.52-1.3,4.41,4.41,0,0,1,.14.8.76.76,0,0,1-.83.76c-.48,0-.67-.24-.67-.83v-.32a9.21,9.21,0,0,0,.06-1.22V25.6m1.5,6.26c0,1.89.18,2.8.74,3.45a2.59,2.59,0,0,0,2,.82c1.95,0,3.06-1.47,3.06-4s-1.08-4.1-2.89-4.1a3,3,0,0,0-2.28,1C157,29.62,156.87,30.31,156.87,31.86Z"/><path fill="#fff" d="M171.85,31.31l.73-.13c1.35-.24,1.83-.63,1.83-1.58s-.8-1.72-2.07-1.72a3,3,0,0,0-1.41.31c-.5.23-.73.43-.73.65,0,.06,0,.09.08.15l.15.11a.84.84,0,0,1,.24.61c0,.63-.41.93-1.19.93s-1.08-.46-1.08-1.24c0-1.61,1.64-2.75,3.94-2.75,2.5,0,3.67,1.14,3.67,3.58v4.6c0,.91.24,1.28.79,1.28s.69-.45.69-1.58v-.35c0-.26,0-.39,0-.43a.56.56,0,0,1,.63-.59.64.64,0,0,1,.61.39,3.6,3.6,0,0,1,.11,1.21,2.7,2.7,0,0,1-.74,2.28,2.93,2.93,0,0,1-1.35.31,3.76,3.76,0,0,1-1.08-.17c-.55-.18-.79-.53-.92-1.37A3.82,3.82,0,0,1,173.39,37a6.28,6.28,0,0,1-2.19.41c-2.15,0-3.41-1.13-3.41-3.08,0-1.63,1-2.58,3.15-2.89l.91-.13m2.62.46a3.71,3.71,0,0,1-.91.5,5.56,5.56,0,0,1-.63.15l-.86.15-.88.15c-.78.13-.89.18-1.25.5a1.44,1.44,0,0,0-.53,1.18c0,1,.76,1.6,1.92,1.6a3.31,3.31,0,0,0,2.51-.93,3.52,3.52,0,0,0,.63-2Z"/><path fill="#fff" d="M184.91,28.23a2.9,2.9,0,0,1,1.41-1.2,4.19,4.19,0,0,1,1.72-.34,4.92,4.92,0,0,1,2.52.69c1.06.65,1.39,1.46,1.39,3.45v2.89c0,.68,0,1.13,0,1.35a3.82,3.82,0,0,0,0,.43.51.51,0,0,0,.48.48c.06,0,.13,0,.65-.13a1.06,1.06,0,0,1,.24,0,.73.73,0,0,1,.8.74.69.69,0,0,1-.11.41,1.56,1.56,0,0,1-1,.24.66.66,0,0,1-.28,0l-.7,0c-.32,0-.61-.06-.91-.06a15.7,15.7,0,0,0-1.7.11,2.34,2.34,0,0,1-.5.06c-.52,0-.86-.26-.86-.7a.72.72,0,0,1,.76-.71.86.86,0,0,1,.24,0c.39.07.61.13.63.13h.06c.44,0,.57-.33.57-1.43,0-.26,0-.52,0-.76V30.66c0-1.17-.16-1.67-.79-2.17A2.54,2.54,0,0,0,188,28a2.83,2.83,0,0,0-1.82.58c-.89.66-1.08,1.15-1.08,2.65v2.76c0,1.67.1,2,.56,2,.06,0,.15,0,.69-.13a.79.79,0,0,1,.24,0,.71.71,0,0,1,.76.74.85.85,0,0,1-.08.41,1.69,1.69,0,0,1-1,.24.61.61,0,0,1-.28,0l-.7,0c-.34,0-.63-.06-.93-.06a16.35,16.35,0,0,0-1.71.11,2,2,0,0,1-.5.06c-.51,0-.83-.26-.83-.7a.71.71,0,0,1,.76-.71,1.06,1.06,0,0,1,.24,0l.61.13H183c.35,0,.57-.37.57-.91v-6c0-.64-.22-1-.59-1a2.68,2.68,0,0,0-.56.08,2.31,2.31,0,0,1-.37,0c-.5,0-.79-.24-.79-.68s.31-.67.9-.67a1.83,1.83,0,0,1,.34,0,3.52,3.52,0,0,0,.76.05l.78-.16.2,0c.5,0,.67.22.67.87v.63"/><path fill="#fff" d="M125.57,59.51a1.89,1.89,0,0,1-.32,0c-.59,0-.89-.22-.89-.68a.73.73,0,0,1,.8-.75,2.87,2.87,0,0,1,.39,0,3.75,3.75,0,0,0,.54.06c.59,0,1-.47,1-1.28V48.37c0-.82-.37-1.3-1-1.3a4.68,4.68,0,0,0-.54.08l-.39,0a.72.72,0,0,1-.8-.72c0-.46.3-.7.89-.7h.32l.59.1a10.09,10.09,0,0,0,1.6.09c.35,0,1,0,1.85-.09a18.09,18.09,0,0,1,2-.11c2.47,0,4.1.77,5.21,2.48a8.15,8.15,0,0,1,1.23,4.47,7.93,7.93,0,0,1-.91,3.87c-1.13,2.1-2.75,2.93-5.77,2.93-.57,0-1.19,0-1.83-.09-.84-.06-1.43-.09-1.76-.09a10.21,10.21,0,0,0-1.62.09l-.59.09m3.08-10.58v7.69c0,.91,0,1,.2,1.19a1.34,1.34,0,0,0,.43.14,7.34,7.34,0,0,0,1.91.23,6,6,0,0,0,3.22-.78,4.34,4.34,0,0,0,1.26-1.67,6.77,6.77,0,0,0,.61-3,7.18,7.18,0,0,0-.9-3.69c-.88-1.38-2-1.88-4.4-1.88a8.22,8.22,0,0,0-1.94.17c-.3.07-.47.22-.45.54Z"/><path fill="#fff" d="M149.15,56.1a.7.7,0,0,1,.73-.56.79.79,0,0,1,.76.75,3.91,3.91,0,0,1-.52,1.39,4.53,4.53,0,0,1-4,2.07c-2.74,0-4.65-2.17-4.65-5.3,0-3.3,2-5.58,4.89-5.58a4.44,4.44,0,0,1,3,1.09,4.67,4.67,0,0,1,1.43,3.88c0,.52-.19.72-.73.72h-6.67c-.22,0-.26,0-.26.28a4.33,4.33,0,0,0,.63,2.17,3.72,3.72,0,0,0,1.32,1.15,2.92,2.92,0,0,0,1.26.24A2.76,2.76,0,0,0,149,56.66l.18-.56m-5.76-2.8.18,0h5.55a.26.26,0,0,0,0-.18,3.45,3.45,0,0,0-1-2.28,2.65,2.65,0,0,0-1.81-.61,2.59,2.59,0,0,0-2,.75,3.35,3.35,0,0,0-1,2A1,1,0,0,0,143.39,53.3Z"/><path fill="#fff" d="M160.74,48.89a.89.89,0,0,1,.5-.19c.45,0,.69.28.69.84a2.33,2.33,0,0,1,0,.37c0,.52-.11.8-.11.85v.13a3.78,3.78,0,0,0,.1.82c0,.22,0,.42,0,.59,0,.52-.28.83-.72.83s-.67-.29-.67-.81v-.45c0-1-.94-1.72-2.39-1.72-1.24,0-2.06.59-2.06,1.52a1.51,1.51,0,0,0,.39,1,3,3,0,0,0,2.17.75l.67,0a4.34,4.34,0,0,1,2.21.74,2.47,2.47,0,0,1,1.14,2.28c0,1.87-1.7,3.28-3.94,3.28a6.34,6.34,0,0,1-1.66-.24,3.1,3.1,0,0,1-1.35-.81v.26c0,.72-.18.94-.74.94s-.74-.33-.74-.87a2.06,2.06,0,0,1,0-.35,9.18,9.18,0,0,0,.18-1.41l-.18-1a2.33,2.33,0,0,1,0-.37q0-.87.78-.87c.3,0,.57.18.57.42l0,1c0,1.08,1.35,1.87,3,1.87s2.47-.66,2.47-1.78a1.39,1.39,0,0,0-.3-.89c-.27-.37-.53-.46-1.31-.61l-.93-.17-.93-.09a3.07,3.07,0,0,1-3-3c0-1.77,1.41-3,3.43-3a5,5,0,0,1,1.52.21,3.31,3.31,0,0,1,1.06.63c.06-.49.09-.69.2-.8"/><path fill="#fff" d="M169.74,59.38c-.32,0-.61-.05-.91-.05a13.77,13.77,0,0,0-1.71.11,2.92,2.92,0,0,1-.5.05c-.51,0-.85-.26-.85-.7a.72.72,0,0,1,.76-.71.9.9,0,0,1,.24,0l.63.13h.06c.37,0,.59-.35.59-.91v-6c0-.61-.22-1-.57-1a2.63,2.63,0,0,0-.54.08,1.17,1.17,0,0,1-.37,0c-.5,0-.8-.24-.8-.69s.3-.67.89-.67a2.06,2.06,0,0,1,.35,0,7.56,7.56,0,0,0,.93.07,2.58,2.58,0,0,0,.5,0L169,49l.15,0c.35,0,.48.18.48.67v.81l0,6.82c0,.54.2.91.52.91.06,0,.17,0,.67-.13a.9.9,0,0,1,.24,0,.73.73,0,0,1,.78.75.56.56,0,0,1-.11.4,1.59,1.59,0,0,1-1,.24.92.92,0,0,1-.28,0l-.7-.06m-1.15-13.94a1.1,1.1,0,0,1,1.11,1.09,1.13,1.13,0,1,1-1.11-1.09Z"/><path fill="#fff" d="M174.82,55.8c0-1.07.48-1.66,1.65-2.09a2.44,2.44,0,0,1-.54-1.63c0-1.95,1.52-3.19,3.88-3.19a5.38,5.38,0,0,1,1.11.15,2,2,0,0,1,2.3-2,1.92,1.92,0,0,1,2.17,1.81,1.08,1.08,0,0,1-1,1.13.82.82,0,0,1-.86-.74c0-.29.12-.48.49-.74a1,1,0,0,0-.84-.35c-.74,0-1.11.41-1.11,1.22,0,.06,0,.09,0,.15.28.19.5.35.68.5a2.88,2.88,0,0,1,.84,2.15c0,2.08-1.45,3.38-3.76,3.38a4.31,4.31,0,0,1-2.06-.45,2.14,2.14,0,0,0-.69-.24.92.92,0,0,0-.81.95c0,.63.55,1,1.55,1l2.17.06a9,9,0,0,1,3.38.63,3,3,0,0,1,1.37,2.39c0,2-2,3.15-5.14,3.15a9.68,9.68,0,0,1-2.57-.29,4.45,4.45,0,0,1-1.32-.67,2.28,2.28,0,0,1-1.1-2,2.23,2.23,0,0,1,.64-1.65,2.67,2.67,0,0,1,1.24-.71c-1.28-.51-1.69-.94-1.69-1.89m4.49,2.36c-1.86,0-3,.59-3.14,1.59v.17c0,.85.54,1.41,1.62,1.67a7.81,7.81,0,0,0,1.91.24c2.15,0,3.52-.72,3.52-1.84a1.74,1.74,0,0,0-1.43-1.61,5.2,5.2,0,0,0-1.78-.22Zm-1.8-5.9a2.09,2.09,0,0,0,2.34,2,2,2,0,0,0,2.18-2,2.07,2.07,0,0,0-2.22-2.11,2,2,0,0,0-2.3,2Z"/><path fill="#fff" d="M191.1,50.48a3,3,0,0,1,1.41-1.2,4.38,4.38,0,0,1,1.73-.34,5,5,0,0,1,2.52.69c1.05.65,1.39,1.47,1.39,3.45V56c0,.69,0,1.13,0,1.35a3.82,3.82,0,0,0,0,.43c.06.3.24.48.48.48.06,0,.13,0,.65-.13a1.1,1.1,0,0,1,.24,0,.73.73,0,0,1,.8.75.62.62,0,0,1-.11.4,1.55,1.55,0,0,1-1,.24.8.8,0,0,1-.28,0l-.71-.06c-.31,0-.61-.05-.91-.05a13.51,13.51,0,0,0-1.7.11,3,3,0,0,1-.5.05c-.52,0-.85-.26-.85-.7a.72.72,0,0,1,.76-.71.93.93,0,0,1,.24,0l.63.13H196c.45,0,.58-.33.58-1.42,0-.26,0-.52,0-.77V53.1l0-.19c0-1.17-.17-1.67-.8-2.17a2.51,2.51,0,0,0-1.63-.53,2.82,2.82,0,0,0-1.82.57c-.89.67-1.07,1.15-1.07,2.65v2.76c0,1.67.09,2,.55,2,.06,0,.15,0,.69-.13a.82.82,0,0,1,.24,0,.71.71,0,0,1,.76.75,1,1,0,0,1-.07.4,1.73,1.73,0,0,1-1,.24.72.72,0,0,1-.27,0l-.71-.06c-.33,0-.63-.05-.93-.05a13.74,13.74,0,0,0-1.7.11,2.73,2.73,0,0,1-.5.05c-.52,0-.84-.26-.84-.7a.71.71,0,0,1,.76-.71,1,1,0,0,1,.24,0l.62.13h.05c.35,0,.58-.37.58-.91v-6c0-.63-.23-1-.6-1a2.61,2.61,0,0,0-.55.08,2.33,2.33,0,0,1-.37,0c-.5,0-.8-.24-.8-.69s.31-.67.91-.67a1.72,1.72,0,0,1,.33,0,3.83,3.83,0,0,0,.76.06l.78-.17.2,0c.5,0,.67.22.67.87v.63"/><path fill="#fff" d="M128.65,75.57v3.6c0,.82.37,1.28.94,1.28a3.48,3.48,0,0,0,.54-.06,3.51,3.51,0,0,1,.41,0,.72.72,0,0,1,.78.73c0,.48-.3.7-.88.7a1.62,1.62,0,0,1-.31,0l-.59-.09a10.89,10.89,0,0,0-1.69-.09,10.77,10.77,0,0,0-1.69.09l-.59.09a1.89,1.89,0,0,1-.32,0c-.59,0-.89-.22-.89-.68a.73.73,0,0,1,.8-.75,2.87,2.87,0,0,1,.39,0,3.75,3.75,0,0,0,.54.06c.59,0,1-.46,1-1.28V70.62c0-.81-.37-1.3-1-1.3a4.68,4.68,0,0,0-.54.08,2.87,2.87,0,0,1-.39,0,.72.72,0,0,1-.8-.73c0-.46.3-.7.89-.7a1.89,1.89,0,0,1,.32,0l.59.09a10.77,10.77,0,0,0,1.69.09,10.89,10.89,0,0,0,1.69-.09l.59-.09a1.62,1.62,0,0,1,.31,0c.58,0,.88.24.88.7a.71.71,0,0,1-.78.73,3.51,3.51,0,0,1-.41,0,4.5,4.5,0,0,0-.52-.08c-.59,0-1,.49-1,1.3V73.7s0,.11,0,.13h6.53l.05-.13V70.62c0-.81-.35-1.3-.94-1.3a5.56,5.56,0,0,0-.56.08,2.6,2.6,0,0,1-.37,0,.72.72,0,0,1-.8-.73c0-.46.3-.7.88-.7a1.51,1.51,0,0,1,.31,0l.61.09a10.52,10.52,0,0,0,1.67.09,10.64,10.64,0,0,0,1.69-.09l.61-.09a1.51,1.51,0,0,1,.31,0c.58,0,.88.24.88.7a.72.72,0,0,1-.8.73,2.6,2.6,0,0,1-.37,0c-.26,0-.45-.08-.54-.08-.61,0-1,.49-1,1.3v8.55c0,.82.35,1.28.94,1.28a4.26,4.26,0,0,0,.56-.06,2.6,2.6,0,0,1,.37,0,.73.73,0,0,1,.8.73c0,.48-.3.7-.88.7a1.51,1.51,0,0,1-.31,0l-.61-.09a10.64,10.64,0,0,0-1.69-.09,10.52,10.52,0,0,0-1.67.09l-.61.09a1.51,1.51,0,0,1-.31,0c-.58,0-.88-.22-.88-.68a.73.73,0,0,1,.8-.75,2.6,2.6,0,0,1,.37,0,4.43,4.43,0,0,0,.54.06c.61,0,1-.46,1-1.28V75.31a.19.19,0,0,0-.05-.15H128.7l0,.15v.26"/><path fill="#fff" d="M147.19,71.1c2.95,0,4.69,2,4.69,5.45S150.14,82,147.19,82s-4.69-2-4.69-5.44,1.74-5.45,4.69-5.45m-3,5.45c0,2.64,1.07,4.1,3,4.1s3.06-1.46,3.06-4.1-1.1-4.13-3.06-4.13S144.15,73.88,144.15,76.55Z"/><path fill="#fff" d="M158.19,72.77v5.64c0,1,.05,1.33.31,1.65a1.79,1.79,0,0,0,1.26.54c1,0,1.54-.75,1.54-2.19v-.13c0-.26,0-.5,0-.74,0-.5.26-.82.73-.82s.76.35.76,1.22a6.43,6.43,0,0,1-.47,2.6,2.78,2.78,0,0,1-2.65,1.39,3.75,3.75,0,0,1-1.74-.39c-1-.5-1.26-1.2-1.26-3.13V72.77a.19.19,0,0,0-.1-.15h-1.29a.63.63,0,0,1-.67-.61.65.65,0,0,1,.69-.59h1.18c.09,0,.19,0,.19-.11V68.92a.77.77,0,0,1,.85-.69.7.7,0,0,1,.69.69v2.37a.14.14,0,0,0,.05.09s.08,0,.15,0h2.43a.6.6,0,0,1,.61.57.6.6,0,0,1-.61.63h-2.63v.15"/><path fill="#fff" d="M173.32,78.35a.69.69,0,0,1,.72-.55.78.78,0,0,1,.76.74,3.66,3.66,0,0,1-.52,1.39,4.54,4.54,0,0,1-4,2.08c-2.74,0-4.65-2.17-4.65-5.31,0-3.3,2-5.58,4.89-5.58a4.4,4.4,0,0,1,2.95,1.1,4.66,4.66,0,0,1,1.43,3.87c0,.52-.19.72-.72.72h-6.68c-.22,0-.26,0-.26.28a4.3,4.3,0,0,0,.63,2.17,3.72,3.72,0,0,0,1.32,1.15,2.81,2.81,0,0,0,1.26.24,2.75,2.75,0,0,0,2.65-1.74l.19-.56m-5.77-2.8.19,0h5.54a.22.22,0,0,0,.06-.18,3.5,3.5,0,0,0-1-2.28,2.7,2.7,0,0,0-1.82-.61,2.55,2.55,0,0,0-2,.76,3.26,3.26,0,0,0-1,2A1,1,0,0,0,167.55,75.55Z"/><path fill="#fff" d="M181.76,81.63c-.32,0-.62,0-.91,0a15.87,15.87,0,0,0-1.71.11,2.2,2.2,0,0,1-.5.06c-.52,0-.85-.26-.85-.71a.71.71,0,0,1,.76-.7h.24c.41.08.61.14.63.14h.06c.37,0,.59-.36.59-.91V70.1c0-.63-.22-1-.58-1a3.28,3.28,0,0,0-.53.07,2.33,2.33,0,0,1-.37,0c-.5,0-.8-.24-.8-.68s.3-.67.89-.67a2.06,2.06,0,0,1,.35,0c.48,0,.74,0,.93,0a2.74,2.74,0,0,0,.5,0l.59-.1a.34.34,0,0,1,.13,0c.37,0,.5.19.5.63a1,1,0,0,1,0,.23c0,.22,0,.4,0,.63l0,10.29c0,.53.2.91.52.91.05,0,.16,0,.66-.14H183a.71.71,0,0,1,.77.74.56.56,0,0,1-.11.41,1.55,1.55,0,0,1-1,.24.68.68,0,0,1-.28,0l-.7-.06"/></svg>