<svg xmlns="http://www.w3.org/2000/svg" id="heritagehills-logo" class="logo" viewBox="0 0 469.24 445.86"><path d="M323.2.05c3.6.54 2.26 3.19 2.7 5.38 5.5 1.12 8 2.3 13.48 3.37-4.43 9.73 7.64 1.52 0 8.09-.41.34.42 2.4 0 2.7 7.79 2.74 7.7 9 14.15 12.13a17 17 0 0 0-3.37.67 12.16 12.16 0 0 1 0 2.7c8.73 2 2.1 3.06 10.79 2 1.84 5.6 3.31 5.45 9.44 6.73-.38.2.61 1.84-.68 2.7-3.22 2.09-2.48.59 1.34 2 0 0 .87 2.08 1.35 3.36-2.35.62-2.62.34-4 1.35-1.9 1.33.36 1.73-.68 2.7 10.93 1.2 16.45 2.82 20.24 10.78a18.7 18.7 0 0 1 12.12 4c1.89 1.53.19 4.72 2.7 6.74 1.05.84 2.24.4 4 .67-1.27.89-1.57 5.19-2.69 6.07 9.14 4.3 5.52 15.31 16.18 18.88 0 13.27 4.63 15 14.15 18.2-.29 3.47-.62 11.13-2.71 12.8-5.15 4-3-2.38-6 4.72 4.81 1.25-3.48 5 7.4 7.41l2 .68c6.48 1 15.18 2.4 12.81 11.46-1.42 5.32-6.27 2.19-5.38 10.1a78.71 78.71 0 0 0-8.78 2c-.08 2 0 4.09 0 6.08a14.56 14.56 0 0 0-6.07 2.69s.06 2.53.67 1.35v2c-8.13 3.88-8.44-4.29-12.12-4.72-6-.69-6.06 1.78-5.39 5.4a26.86 26.86 0 0 0-7.42 2c.19.08.61 2.4 1.35 2.69 7.5 3 19.89 5.81 22.24 13.48a29.64 29.64 0 0 1 4.71-.67s1.4 1.79 0 2.7c-6.9 4.4 3.34 5.39 8.78 6.74 4.4 1.08 10.07 3.37 10.78 7.42.17 1-1.73 2.41-.67 3.36 2.12 1.94 7 1.1 8.08 4 .53 1.5-.12 4.82 0 6.75 6.13 1.87 8.74 6.28 6.75 12.8 6 2.44 3.86 7.61.67 13.48 7.11 6.09.12 11.85-6.05 13.49 4 8.23 5.42 15.08 1.33 24.26-7.36 16.45-20.81 1.08-31 0-5.19-.56-4.9 3-2.7 4.72a12 12 0 0 0 4.72 2.69c8.93 1.82 2.54 2.21 6.06 10.12 3.95 8.87-1.54 11.88-2.69 20.22a13.11 13.11 0 0 0 .68 4.72c-.21 1-.08 2.95-.68 4.05-1.24 2.29-5.68 4.51-10.09 2.69-.75-.32-3.15-4-4.05-4.71a56.12 56.12 0 0 0-18.21-8.77c-7.55-2.13-10-4.85-9.45-12.81-5.23-2.88-8.86-.26-11.45-5.39-14.65.59-16.33 11.08-29.65 12.13l.67 2.7c5.71.63 11.8 1.66 7.42 8.09-2.34 3.38-31.35 4.82-38.42 2.7-3.3-1-4.21-5.94-8.08-6.74-9.93-2.08-16.41 5.4-23.61 1.34-3-1.69-1-3-2.69-6.07-.89-1.68-3.62-1.36-4.72-2.69-4.65-5.59-6-7.1-12.8-10.78.29 5.17-5.32 18.43-8.76 20.21 1 9 .5 24.72 2 34.37 1.43 9.22-3.37 22.4 0 31 .07.21 2.44 1 2.7 2 1 4-1 9.12.67 13.48.29.71 2.48 1.29 2.7 2 2.25 7.43 2.54 4.75 10.78 8.08C313 438.42 320 436 355.62 437.51c4.9.18 8.71-1.38 14.16-.68 10.65 1.32 19.6 5 29.64 6.07 4.58.46 8.86-2.11 13.49 0 .91.4 0 2 0 2-7.14 1.63-14-.25-19.55 0-28.16 1.24-36.68-1.05-69.49-1.35-14-.15-26.32 4.13-40.44 1.35-1.31-.27-3.41-2.58-4.71-2.7-11-1-24.06.86-35.73 1.35-3.49.12-6.76-2-11.46-1.35-9 1.14-26.58 4.62-41.79 2.7-18.24-2.32-33.11-.63-55.94-1.35-32.51-1-9-1.44-46.13-1.44.2-.38-7.71.3-13.8-.57S77 433.65 88 434.13c3.67.16 8.45 3.42 14.15 2.7 1.1-.15 7.06-2.62 8.09-2.7 8.47-.89 14.54.95 21.57.68 3.31-.15 7.75-2.78 11.46-2.7 4.08.07 13.08 2.65 15.51 2.7 12.26.11 65.4-1.16 74.14-12.8 4.81-6.47 1.49-12.64 3.37-19.56-.25.87-.76-1.65-.67-2 1.14-5.23-.64-7.63 0-14.16.08-1-.53-1.35.67-1.35-.05-.16-.59-2.9-.67-2a11.34 11.34 0 0 0 0-2c1.43-7 3.51-40.55.67-45.83-2.64-4.89-18.36-.57-22.93-3.37-3.28-2-1.79-3.34-8.07-4.05-.72 2.38-.86 3.6-1.35 5.4-7 0-12.3 2.88-17.53 2.7-9.36-.37-21.21-6.16-33.7-3.37-3 .65-11.4 3.4-14.16 5.38-1.6 1.13-4.1 5.46-6.07 6.07-6.92 2.07-15-1.72-18.86-3.36 3.76-4.85 2.9-6.16-4.73-6.75 4-1.77 3.37-3.91 2.7-7.42-6-.9-7.13 2.82-11.46 2.7-1.89-.06-7.56-3.16-10.11-3.37-4.87-.42-10.89 2.13-14.83 2-9.26-.29 1.41-9.45-13.48-7.42-4.21.57-7.62 4.56-8.09 4.73-2.77.91-4.25-1.29-6.74-.68-1.6.36-7.1 4.43-9.44 4.72-4.74.54-12.36-3.6-16.17-3.37-3.09.17-3.52 3-7.42.67-.8-.48-5-3.89-5.39-4.72-2-4.39-.65-7.75-2-10.78-.55-1.18-3.58-2.17-4-3.37-.7-1.73.92-1.84.67-3.37-1.46-8.32-5.62-.45-.67-13.48 3.92-.44 7.52.6 11.45-.67 6.8-2.21-2-8.26 9.44-8.09-3.14-6.47-10.63-9.21-14.83-16.18 3.5-2.86 2.48-4.17 4.72-8.76 1-2.08 3.3-2.26 5.4-3.37-4.06-11.44-10.64-11.9-4.73-24.27 2-4.25 15.38-9.52 14.84-14.15-.45-3.58-4.16-3.63-6.07-4-1 1.77-3.69 4.93-6.07 5.39-20.51 3.8-5.61-22.6-8.86-28.4-.5-.88-1.47-.38-2.7-.67.8-1.77 2.61-4.23 2-6.74l-.67-1.35c1.9-1.2 5.79-1.79 7.41-3.37s1.07-3.86 2.7-5.4c10.92 6.25 10.85 4.05 25.61 4.05 1.5-5.73 1.22-5.16 7.42-6.07-4.87-2.59-4.76-3.66-2-8.09 7.48.83 11.23 1.27 12.81 6.08 5.25-2.85 10.3-2.68 16.18-5.4-12.43-5 .57-5.92-4-16.86-.17.64-.59-3.15 0-5.38-3.31-2.28-2.95-1.32-3.37-6.74-2.93 2.44 0-3.37 0-3.37 2.12-7.06 10.32-6.36 18.19-7.41-1-.85-1.39-1.73-2.69-2.7 3.6-7.27 7-1.16 15.5-3.38 1.69-.44.68-2.69.68-2.69-1.82-.4-4.27-1.29-4.72-1.35 3.12-1.05 4.52-1.18 8.77-1.34 1.61-8.45 3.55-8 11.45-11.47a49 49 0 0 1-2.69-4.71c5.2-.81 6.2-4.58 13.47-5.4A31.76 31.76 0 0 0 125 83c1.88-1.17 2.71-13 3.38-17.53.12-.89-.42-4.05-.67-4.05 6-3.68 10.19-9.14 17.52-11.45-1.05-6.71-5.73-11.8-2-17.54.41-.64 3.2-1 4-1.34 4.45-2.06 8.28-6.7 12.14-8.09 8.11-3 17.63 1.45 27.64.67 2.71 5.78 5.36 5.84 13.47 6.75a18.14 18.14 0 0 0-2.7-14.83 66 66 0 0 0 10.79-3.38c.36-.16.66-2.69.68-2.69 4.26-1.47 8.84 1.35 12.81-1.35.56-.4.23-2.4.67-2.7 3.94 2.24 13.84 6.33 18.2 5.4 1.54-.34 6.84-3.52 9.43-3.37 5.14.25 8.33 8.88 12.13 10.79 3 1.45 5.11.73 7.42 2-1-.76-2.08-1.76-3.37-2.71.08-.67.67-4 .67-4 4.34 1.72 5.18 2.45 8.76 4.72-8-4.37 8.58-4.62 10.79-5.4.47-.16 3.14-3.45 4-4 .82.5 3.29 2.73 2 2a8.92 8.92 0 0 1 2.7 0c.65-1.39 0-2.26 1.34-2.7s3.17.22 4.72 0l2.69-.67c1.46-.78 1-4.12 2-4.72C308.58 1.26 321-.3 323.2.05" fill="#00673e"/><path d="M286.87 236.07l10.6-35.88c19.31-2.9 34.07-9.54 48.49-19.15l-15.34-4.39a118.67 118.67 0 0 1-30.52 14.69l8.78-29.76c1.28-4.44 1.91-6.83 8.59-7 1.75 0 5.09 0 5.09-3 0-1.91-1.75-1.91-2.38-1.91-2.71 0-4.93 1.28-16.23 1.28-9.53 0-15.25-1.28-19.71-1.28-2.23 0-3.33 1.11-3.33 2.38 0 2.07 2.22 2.39 4.75 2.55s5.73.95 5.73 3.82a19.75 19.75 0 0 1-1.12 5.56l-9.22 31.17-.17.57a163.57 163.57 0 0 1-24.19 1.75q-5.22 0-10.55.09l.62-2.26 15.81-53.56 6.16-20.83c17.69-3.15 31.62-9.52 45.2-18.58l-15.33-4.39a119.75 119.75 0 0 1-27.07 13.51L279.94 83c1.27-4.45 1.9-6.83 8.58-7 1.75 0 5.08 0 5.08-3 0-1.92-1.73-1.92-2.37-1.92-2.71 0-4.94 1.27-16.22 1.27-9.54 0-15.26-1.27-19.71-1.27-2.24 0-3.35 1.11-3.35 2.38 0 2.07 2.22 2.39 4.77 2.55s5.72.95 5.72 3.82a20.43 20.43 0 0 1-1.11 5.56l-9.18 31a159.3 159.3 0 0 1-27.5 2.31c-3.47 0-7 0-10.54.1l.62-2.26 9.7-32.92c2.06-7 4.61-7.32 11.92-7.79 1.91-.16 3.82-.64 3.82-2.85 0-1.6-.8-1.92-2.23-1.92-4.13 0-6.36 1.27-18.13 1.27-5.71 0-15.42-1.27-19.23-1.27-1.91 0-3.82.79-3.82 2.71 0 1.42.8 2.06 5.09 2.06 2.06 0 5.41 0 5.41 3.5a21.26 21.26 0 0 1-1 5.72l-10.25 34.7c-22.82 2.13-44.47 8.52-56.81 27.5-45.14 69.42 47.92 72.81 63.72 9l9.95-33.21c9.07-.39 18.68 0 29.27 0 2.8 0 5.4-.14 8-.25l-5.91 20.25L228 198.51c-22.81 2.13-44.43 8.53-56.76 27.5-45.15 69.43 47.91 72.8 63.72 9l9.94-33.22c9.07-.38 18.68 0 29.28 0 1.69 0 3.23-.1 4.86-.15l-7.68 25.86c-9.38 27.4.94 51.93 15.38 63.75l2.15-4c-6.49-7.91-8.44-30.85-2.06-51.21zM184.2 160c-11.95 43.47-55.29 54.16-35.91 6.1 2.53-6.26 7.9-15.56 13.38-21 11.09-11.1 21.68-16.69 32.68-19.47L184.2 160zm32 78.7c-12 43.47-55.29 54.16-35.91 6.12 2.52-6.28 7.89-15.58 13.37-21.06 11.08-11.08 21.66-16.66 32.63-19.45L216.2 238.7z" fill="#fff"/></svg>