<svg xmlns="http://www.w3.org/2000/svg" class="logo" id="carrollton-logo" x="0" y="0" viewBox="0 0 254.424 56.978"><polygon points="92.342 44.283 93.723 44.283 95.105 44.283 95.105 44.491 95.105 44.698 94.538 44.698 93.966 44.698 93.966 49.456 93.966 54.217 94.538 54.217 95.105 54.217 95.105 54.422 95.105 54.631 93.723 54.631 92.342 54.631 92.342 54.422 92.342 54.217 92.947 54.217 93.553 54.217 93.553 51.925 93.553 49.633 90.25 49.633 86.945 49.633 86.945 51.925 86.945 54.217 87.559 54.217 88.171 54.217 88.171 54.422 88.171 54.631 86.784 54.631 85.393 54.631 85.393 54.422 85.393 54.217 85.96 54.217 86.532 54.217 86.532 49.456 86.532 44.698 85.96 44.698 85.393 44.698 85.393 44.491 85.393 44.283 86.784 44.283 88.171 44.283 88.171 44.491 88.171 44.698 87.559 44.698 86.945 44.698 86.945 46.959 86.945 49.222 90.25 49.222 93.553 49.222 93.553 46.959 93.553 44.698 92.947 44.698 92.342 44.698 92.342 44.491 92.342 44.283" fill="#231f20"/><path d="M97.633,51.849a2.862,2.862,0,0,1,.056-.573,2.757,2.757,0,0,1,.165-.549,2.949,2.949,0,0,1,.265-.5,3.017,3.017,0,0,1,.347-.426,2.993,2.993,0,0,1,.917-.62,2.513,2.513,0,0,1,.546-.173,3.023,3.023,0,0,1,.585-.055,3.055,3.055,0,0,1,.588.055,2.554,2.554,0,0,1,.551.173,3.075,3.075,0,0,1,.5.269,2.817,2.817,0,0,1,.427.351,3.124,3.124,0,0,1,.352.426,3.2,3.2,0,0,1,.268.5,2.588,2.588,0,0,1,.171.549,2.792,2.792,0,0,1,.059.573,2.912,2.912,0,0,1-.059.589,2.572,2.572,0,0,1-.171.545,3.068,3.068,0,0,1-.268.489,3.013,3.013,0,0,1-.352.42,2.9,2.9,0,0,1-.427.344,3.331,3.331,0,0,1-.5.27,3.01,3.01,0,0,1-.551.172,3.136,3.136,0,0,1-.588.055,3.1,3.1,0,0,1-.585-.055,2.96,2.96,0,0,1-.546-.172,3.354,3.354,0,0,1-.49-.27,3.184,3.184,0,0,1-.427-.344,2.911,2.911,0,0,1-.347-.42,2.835,2.835,0,0,1-.265-.489,2.74,2.74,0,0,1-.165-.545,2.987,2.987,0,0,1-.056-.589m.416,0a2.426,2.426,0,0,0,.046.5,2.214,2.214,0,0,0,.143.467,2.51,2.51,0,0,0,.228.422,2.373,2.373,0,0,0,.3.361,2.185,2.185,0,0,0,.36.3,2.61,2.61,0,0,0,.424.228,2.537,2.537,0,0,0,.468.145,2.7,2.7,0,0,0,.5.048,2.465,2.465,0,0,0,.964-.193,2.5,2.5,0,0,0,.429-.228,2.346,2.346,0,0,0,.364-.3,2.31,2.31,0,0,0,.3-.361,2.6,2.6,0,0,0,.232-.422,2.126,2.126,0,0,0,.152-.467,2.586,2.586,0,0,0,0-1,2.1,2.1,0,0,0-.152-.466,2.617,2.617,0,0,0-.532-.792,2.439,2.439,0,0,0-.364-.3,2.549,2.549,0,0,0-.9-.372,2.488,2.488,0,0,0-.492-.05,2.616,2.616,0,0,0-.5.05,2.324,2.324,0,0,0-.468.144,2.464,2.464,0,0,0-.424.228,2.267,2.267,0,0,0-.36.3,2.643,2.643,0,0,0-.3.368,2.491,2.491,0,0,0-.228.424,2.188,2.188,0,0,0-.143.466,2.433,2.433,0,0,0-.046.5" fill="#231f20"/><polygon points="107.238 45.48 107.448 45.48 107.653 45.48 107.653 47.285 107.653 49.089 108.548 49.089 109.442 49.089 109.442 49.295 109.442 49.499 108.548 49.499 107.653 49.499 107.653 51.858 107.653 54.217 108.274 54.217 108.895 54.217 108.895 54.422 108.895 54.629 108.068 54.629 107.238 54.629 107.238 52.066 107.238 49.499 106.589 49.499 105.939 49.499 105.939 49.295 105.939 49.089 106.589 49.089 107.238 49.089 107.238 47.285 107.238 45.48" fill="#231f20"/><path d="M117.365,50.92c-.4.162-.8.324-1.2.484s-.8.319-1.2.477-.8.316-1.2.476-.8.321-1.2.485a2.416,2.416,0,0,0,.88,1.072,2.35,2.35,0,0,0,.644.306,2.68,2.68,0,0,0,.738.1,2.573,2.573,0,0,0,.485-.045,2.275,2.275,0,0,0,.446-.135,2.618,2.618,0,0,0,.408-.21,2.645,2.645,0,0,0,.36-.276c.023.025.041.049.06.074s.039.047.058.073.04.05.063.075l.071.073a2.659,2.659,0,0,1-.414.329,2.692,2.692,0,0,1-.465.249,2.862,2.862,0,0,1-.517.155,3.031,3.031,0,0,1-.555.05,3.149,3.149,0,0,1-.587-.055,2.893,2.893,0,0,1-.544-.172,3.354,3.354,0,0,1-.49-.27,2.822,2.822,0,0,1-.418-.344,2.911,2.911,0,0,1-.347-.42,3.321,3.321,0,0,1-.267-.489,2.831,2.831,0,0,1-.173-.545,3.146,3.146,0,0,1-.056-.589,3.017,3.017,0,0,1,.056-.573,2.847,2.847,0,0,1,.173-.549,3.338,3.338,0,0,1,.267-.495,2.866,2.866,0,0,1,.347-.421,2.96,2.96,0,0,1,.418-.345,3.249,3.249,0,0,1,.49-.267,2.631,2.631,0,0,1,.544-.173,3.067,3.067,0,0,1,.587-.057,2.542,2.542,0,0,1,.832.136,2.379,2.379,0,0,1,.726.412,2.885,2.885,0,0,1,.58.624,3.122,3.122,0,0,1,.39.779m-2.528-1.537a2.52,2.52,0,0,0-.582.065,2.464,2.464,0,0,0-.527.2,2.625,2.625,0,0,0-.459.3,2.309,2.309,0,0,0-.376.383,2.547,2.547,0,0,0-.467.977,2.354,2.354,0,0,0-.06.555,2.514,2.514,0,0,0,.075.566l1.1-.443,1.093-.438c.362-.146.725-.291,1.092-.437s.735-.293,1.1-.443a2.515,2.515,0,0,0-.344-.517,2.418,2.418,0,0,0-.462-.41,2.016,2.016,0,0,0-.56-.268,2.173,2.173,0,0,0-.631-.09" fill="#231f20"/><polygon points="119.907 54.217 120.45 54.217 120.987 54.217 120.987 49.087 120.987 43.958 120.456 43.958 119.922 43.958 119.922 43.751 119.922 43.544 120.662 43.544 121.4 43.544 121.4 48.881 121.4 54.217 122.014 54.217 122.628 54.217 122.628 54.422 122.628 54.629 121.268 54.629 119.907 54.629 119.907 54.422 119.907 54.217" fill="#231f20"/><path d="M137.466,49.089h1.952v.41h-1.539V50.65c0,.1,0,.207,0,.315s0,.213,0,.326,0,.219,0,.33-.007.217-.014.325a3.01,3.01,0,0,1-.036.323c-.017.108-.041.214-.067.323a3.012,3.012,0,0,1-.1.318c-.043.1-.091.2-.144.3l.458.739.457.74-.163.11-.161.111-.407-.659L137.3,53.6a2.89,2.89,0,0,1-.451.467,2.991,2.991,0,0,1-.547.36,2.682,2.682,0,0,1-.63.233,3.148,3.148,0,0,1-1.277.024,2.9,2.9,0,0,1-.548-.166,2.98,2.98,0,0,1-.491-.266,2.713,2.713,0,0,1-.424-.349,2.667,2.667,0,0,1-.35-.423,3.061,3.061,0,0,1-.264-.485,2.65,2.65,0,0,1-.163-.54,2.968,2.968,0,0,1,.124-1.6,3.6,3.6,0,0,1,.222-.454,2.876,2.876,0,0,1,1.037-1.031,3.1,3.1,0,0,1,.457-.21,2.894,2.894,0,0,1,.5-.128l-.524-.865-.526-.866a3.4,3.4,0,0,1-.227-.451,2.848,2.848,0,0,1-.149-.464,2.573,2.573,0,0,1-.067-.469,2.225,2.225,0,0,1,.03-.461,2.106,2.106,0,0,1,.121-.445,2.161,2.161,0,0,1,.539-.787,2.653,2.653,0,0,1,.432-.322,2.513,2.513,0,0,1,.419-.2,2.066,2.066,0,0,1,.432-.1,2.972,2.972,0,0,1,.431-.018,2.587,2.587,0,0,1,.419.042,3.24,3.24,0,0,1,.4.1,3.061,3.061,0,0,1,.375.139c.123.055.237.109.344.166s.205.116.3.174l-.081.178-.082.177c-.1-.054-.207-.11-.316-.163s-.216-.1-.327-.152a3.065,3.065,0,0,0-.332-.128,2.883,2.883,0,0,0-.339-.083,2.284,2.284,0,0,0-.688-.02,1.581,1.581,0,0,0-.345.085,1.676,1.676,0,0,0-.341.166,2.344,2.344,0,0,0-.382.285,1.827,1.827,0,0,0-.476.683,1.792,1.792,0,0,0-.1.379,1.978,1.978,0,0,0-.019.392,1.844,1.844,0,0,0,.06.4,2.264,2.264,0,0,0,.127.392,3.311,3.311,0,0,0,.2.387l1.693,2.748,1.691,2.746a1.988,1.988,0,0,0,.214-.509,2.2,2.2,0,0,0,.069-.554V49.089Zm-4.951,2.784a2.636,2.636,0,0,0,.047.5,2.273,2.273,0,0,0,.145.462,3.051,3.051,0,0,0,.226.419,2.508,2.508,0,0,0,.662.653,2.512,2.512,0,0,0,.42.225,2.429,2.429,0,0,0,.469.143,2.625,2.625,0,0,0,.5.048,2.762,2.762,0,0,0,.636-.075,2.469,2.469,0,0,0,.575-.224,2.5,2.5,0,0,0,.491-.353,2.269,2.269,0,0,0,.381-.458L135.9,51.327l-1.169-1.885a2.464,2.464,0,0,0-.456.085,2.406,2.406,0,0,0-.423.165,2.317,2.317,0,0,0-.377.234,2.25,2.25,0,0,0-.324.292,2.432,2.432,0,0,0-.264.348,2.778,2.778,0,0,0-.2.4,2.427,2.427,0,0,0-.126.439,2.477,2.477,0,0,0-.042.468" fill="#231f20"/><polygon points="148.787 54.217 149.36 54.217 149.929 54.217 149.929 49.456 149.929 44.698 149.36 44.698 148.787 44.698 148.787 44.491 148.787 44.283 152.388 44.283 155.986 44.283 155.986 45.421 155.986 46.559 155.78 46.559 155.575 46.559 155.575 45.629 155.575 44.698 152.956 44.698 150.342 44.698 150.342 46.959 150.342 49.222 152.876 49.222 155.411 49.222 155.411 49.426 155.411 49.633 152.876 49.633 150.342 49.633 150.342 51.925 150.342 54.217 153.06 54.217 155.78 54.217 155.78 53.286 155.78 52.354 155.986 52.354 156.195 52.354 156.195 53.492 156.195 54.629 152.491 54.629 148.787 54.629 148.787 54.422 148.787 54.217" fill="#231f20"/><path d="M158.706,49.089h2.528v.41h-1.021c.2.39.4.778.6,1.168s.4.78.6,1.171.4.78.594,1.171.387.784.575,1.179c.172-.369.352-.746.539-1.128s.383-.774.582-1.172.4-.794.61-1.194.411-.8.62-1.2h-.86v-.41h2.307v.41h-1.036c-.23.465-.462.922-.691,1.378s-.461.91-.69,1.359-.459.9-.689,1.357-.461.916-.692,1.377q-.354-.691-.7-1.377t-.7-1.357l-.691-1.359c-.227-.456-.457-.913-.69-1.378h-1.095v-.41Z" fill="#231f20"/><path d="M174.3,50.92c-.4.162-.8.324-1.2.484s-.8.319-1.2.477-.8.316-1.2.476-.8.321-1.2.485a2.452,2.452,0,0,0,.36.6,2.407,2.407,0,0,0,.521.472,2.338,2.338,0,0,0,.642.306,2.694,2.694,0,0,0,.74.1,2.534,2.534,0,0,0,.482-.045,2.224,2.224,0,0,0,.447-.135,2.575,2.575,0,0,0,.408-.21,2.654,2.654,0,0,0,.361-.276c.018.025.041.049.057.074s.041.047.062.073l.062.075c.025.023.048.048.071.073a2.568,2.568,0,0,1-.414.329,2.7,2.7,0,0,1-.466.249,2.876,2.876,0,0,1-.516.155,3.036,3.036,0,0,1-.554.05,3.139,3.139,0,0,1-.589-.055,2.884,2.884,0,0,1-.543-.172,3.2,3.2,0,0,1-.489-.27,2.837,2.837,0,0,1-.765-.764,3.063,3.063,0,0,1-.267-.489,2.769,2.769,0,0,1-.175-.545,2.988,2.988,0,0,1-.054-.589,2.862,2.862,0,0,1,.054-.573,2.785,2.785,0,0,1,.175-.549,3.082,3.082,0,0,1,.267-.495,2.745,2.745,0,0,1,.347-.421,2.9,2.9,0,0,1,.418-.345,3.1,3.1,0,0,1,.489-.267,2.622,2.622,0,0,1,.543-.173,3.056,3.056,0,0,1,.589-.057,2.527,2.527,0,0,1,.831.136,2.41,2.41,0,0,1,.725.412,3,3,0,0,1,.582.624,3.267,3.267,0,0,1,.391.779m-2.529-1.537a2.525,2.525,0,0,0-.584.065,2.484,2.484,0,0,0-.527.2,2.663,2.663,0,0,0-.459.3,2.259,2.259,0,0,0-.374.383,2.431,2.431,0,0,0-.285.455,2.845,2.845,0,0,0-.183.522,2.255,2.255,0,0,0-.062.555,2.407,2.407,0,0,0,.076.566l1.1-.443,1.092-.438c.362-.146.725-.291,1.092-.437s.733-.293,1.1-.443a2.586,2.586,0,0,0-.341-.517,2.551,2.551,0,0,0-.463-.41,2,2,0,0,0-.564-.268,2.141,2.141,0,0,0-.627-.09" fill="#231f20"/><path d="M180.967,54.217h1.168V50.676a1.415,1.415,0,0,0-.109-.477,1.309,1.309,0,0,0-.267-.4,1.163,1.163,0,0,0-.413-.283,1.658,1.658,0,0,0-.549-.114,2.791,2.791,0,0,0-.463.038,2.417,2.417,0,0,0-.444.116,2.483,2.483,0,0,0-.765.432,2.163,2.163,0,0,0-.3.308,1.854,1.854,0,0,0-.225.361,1.909,1.909,0,0,0-.144.406,1.969,1.969,0,0,0-.05.439v2.719h1.157v.412h-2.722v-.412H178V49.5h-1.078v-.41h1.39l.011.324.018.325c0,.073,0,.144,0,.212s.007.127.011.187.009.122.011.188.005.137.005.211a2.534,2.534,0,0,1,.385-.637,2.565,2.565,0,0,1,.56-.495,2.54,2.54,0,0,1,.7-.315,2.907,2.907,0,0,1,.794-.107,2.125,2.125,0,0,1,.714.116,1.52,1.52,0,0,1,.542.342,1.611,1.611,0,0,1,.351.527,1.883,1.883,0,0,1,.135.668v3.582H183.7v.412h-2.734v-.412Z" fill="#231f20"/><polygon points="187.515 45.48 187.722 45.48 187.93 45.48 187.93 47.285 187.93 49.089 188.82 49.089 189.715 49.089 189.715 49.295 189.715 49.499 188.82 49.499 187.93 49.499 187.93 51.858 187.93 54.217 188.55 54.217 189.171 54.217 189.171 54.422 189.171 54.629 188.343 54.629 187.515 54.629 187.515 52.066 187.515 49.499 186.863 49.499 186.213 49.499 186.213 49.295 186.213 49.089 186.863 49.089 187.515 49.089 187.515 47.285 187.515 45.48" fill="#231f20"/><path d="M205.71,46.559V45.164a4.716,4.716,0,0,0-1.1-.439,4.975,4.975,0,0,0-2.174-.049,4.665,4.665,0,0,0-.917.294,5.21,5.21,0,0,0-.824.457,4.727,4.727,0,0,0-.717.6,4.917,4.917,0,0,0-1.039,1.555,4.513,4.513,0,0,0-.285.924,4.689,4.689,0,0,0-.1.985,4.6,4.6,0,0,0,.1.973,4.521,4.521,0,0,0,.285.914,5.719,5.719,0,0,0,.45.825,4.887,4.887,0,0,0,1.294,1.3,5.082,5.082,0,0,0,.822.45,4.58,4.58,0,0,0,.909.289,5.03,5.03,0,0,0,.975.094,5.214,5.214,0,0,0,.667-.043,4.847,4.847,0,0,0,.632-.13,5.38,5.38,0,0,0,.608-.21,5.605,5.605,0,0,0,.578-.282l.117.169.117.17a5.458,5.458,0,0,1-.612.306,6.074,6.074,0,0,1-.651.235,4.853,4.853,0,0,1-.693.15,5.3,5.3,0,0,1-.732.049,5.378,5.378,0,0,1-1.064-.1,5.06,5.06,0,0,1-.993-.311,5.508,5.508,0,0,1-.9-.489,5.36,5.36,0,0,1-.778-.64,5.425,5.425,0,0,1-.642-.779,5.543,5.543,0,0,1-.486-.9,4.921,4.921,0,0,1-.312-.994,5.418,5.418,0,0,1,0-2.123,4.906,4.906,0,0,1,.312-1,5.42,5.42,0,0,1,.486-.907,5.359,5.359,0,0,1,1.42-1.423,5.606,5.606,0,0,1,.9-.494,5.078,5.078,0,0,1,.993-.317,5.378,5.378,0,0,1,1.064-.1,5.466,5.466,0,0,1,.732.048,5.285,5.285,0,0,1,.693.142,5.756,5.756,0,0,1,.656.234,5.433,5.433,0,0,1,.623.315v1.654h-.414Z" fill="#231f20"/><path d="M214.046,50.92q-.6.243-1.2.484c-.4.161-.8.319-1.2.477s-.8.316-1.2.476-.8.321-1.2.485a2.389,2.389,0,0,0,.359.6,2.468,2.468,0,0,0,.519.472,2.348,2.348,0,0,0,.646.306,2.66,2.66,0,0,0,.736.1,2.579,2.579,0,0,0,.487-.045,2.207,2.207,0,0,0,.443-.135,2.442,2.442,0,0,0,.407-.21,2.639,2.639,0,0,0,.366-.276c.017.025.037.049.057.074s.041.047.059.073.04.05.062.075.044.048.07.073a2.561,2.561,0,0,1-.413.329,2.665,2.665,0,0,1-.466.249,2.926,2.926,0,0,1-.516.155,3.034,3.034,0,0,1-.556.05,3.086,3.086,0,0,1-.584-.055,2.88,2.88,0,0,1-.545-.172,3.276,3.276,0,0,1-.492-.27,2.875,2.875,0,0,1-.418-.344,2.76,2.76,0,0,1-.343-.42,3.08,3.08,0,0,1-.271-.489,2.785,2.785,0,0,1-.229-1.134,2.791,2.791,0,0,1,.057-.573,2.915,2.915,0,0,1,.172-.549,3.1,3.1,0,0,1,.271-.495,2.72,2.72,0,0,1,.343-.421,3.018,3.018,0,0,1,.418-.345,3.176,3.176,0,0,1,.492-.267,2.621,2.621,0,0,1,.545-.173,3,3,0,0,1,.584-.057,2.574,2.574,0,0,1,.835.136,2.4,2.4,0,0,1,.725.412,2.876,2.876,0,0,1,.578.624,3.157,3.157,0,0,1,.39.779m-2.528-1.537a2.5,2.5,0,0,0-.58.065,2.461,2.461,0,0,0-.529.2,2.742,2.742,0,0,0-.459.3,2.439,2.439,0,0,0-.377.383,2.638,2.638,0,0,0-.281.455,2.706,2.706,0,0,0-.184.522,2.3,2.3,0,0,0-.059.555,2.216,2.216,0,0,0,.077.566l1.1-.443c.366-.147.733-.293,1.091-.438l1.1-.437,1.1-.443a2.433,2.433,0,0,0-.343-.517,2.382,2.382,0,0,0-.461-.41,2.015,2.015,0,0,0-.562-.268,2.178,2.178,0,0,0-.631-.09" fill="#231f20"/><path d="M220.713,54.217h1.166V50.676a1.464,1.464,0,0,0-.107-.477,1.337,1.337,0,0,0-.27-.4,1.125,1.125,0,0,0-.412-.283,1.642,1.642,0,0,0-.549-.114,2.827,2.827,0,0,0-.463.038,2.459,2.459,0,0,0-.444.116,2.473,2.473,0,0,0-.763.432,2.234,2.234,0,0,0-.3.308,2.133,2.133,0,0,0-.226.361,1.748,1.748,0,0,0-.141.406,1.969,1.969,0,0,0-.05.439v2.719h1.156v.412h-2.72v-.412h1.151V49.5h-1.08v-.41h1.39l.013.324.017.325c0,.073,0,.144,0,.212s.007.127.012.187.008.122.011.188,0,.137,0,.211a2.473,2.473,0,0,1,.384-.637,2.52,2.52,0,0,1,.56-.495,2.56,2.56,0,0,1,.7-.315,2.907,2.907,0,0,1,.794-.107,2.119,2.119,0,0,1,.715.116,1.474,1.474,0,0,1,.541.342,1.551,1.551,0,0,1,.351.527,1.883,1.883,0,0,1,.137.668v3.582h1.153v.412h-2.733v-.412Z" fill="#231f20"/><polygon points="227.263 45.48 227.467 45.48 227.675 45.48 227.675 47.285 227.675 49.089 228.569 49.089 229.464 49.089 229.464 49.295 229.464 49.499 228.569 49.499 227.675 49.499 227.675 51.858 227.675 54.217 228.297 54.217 228.916 54.217 228.916 54.422 228.916 54.629 228.09 54.629 227.263 54.629 227.263 52.066 227.263 49.499 226.609 49.499 225.96 49.499 225.96 49.295 225.96 49.089 226.609 49.089 227.263 49.089 227.263 47.285 227.263 45.48" fill="#231f20"/><path d="M231.974,54.217h1.156V49.5h-1.081v-.41h1.39l.014.324.018.325c0,.073,0,.144,0,.212s.006.127.01.187.007.122.01.188,0,.137,0,.211a2.51,2.51,0,0,1,.982-1.132,2.951,2.951,0,0,1,.681-.307,2.9,2.9,0,0,1,.732-.115l-.007.209-.007.207a2.942,2.942,0,0,0-.463.051,3.184,3.184,0,0,0-.439.125,2.647,2.647,0,0,0-.4.19,2.516,2.516,0,0,0-.347.252,2.061,2.061,0,0,0-.5.66,1.539,1.539,0,0,0-.139.4,1.759,1.759,0,0,0-.048.425v2.719H234.7v.412h-2.724v-.412Z" fill="#231f20"/><path d="M243.817,50.92l-1.2.484c-.4.161-.8.319-1.2.477l-1.2.476c-.4.16-.8.321-1.2.485a2.409,2.409,0,0,0,.881,1.072,2.29,2.29,0,0,0,.643.306,2.669,2.669,0,0,0,.738.1,2.522,2.522,0,0,0,.483-.045,2.243,2.243,0,0,0,.449-.135,2.461,2.461,0,0,0,.405-.21,2.274,2.274,0,0,0,.36-.276c.024.025.041.049.065.074s.034.047.054.073l.065.075c.023.023.044.048.068.073a2.76,2.76,0,0,1-.408.329,2.666,2.666,0,0,1-.47.249,2.869,2.869,0,0,1-.513.155,3.072,3.072,0,0,1-.558.05,3.112,3.112,0,0,1-.585-.055,2.956,2.956,0,0,1-.548-.172,3.292,3.292,0,0,1-.489-.27,2.7,2.7,0,0,1-.415-.344,2.854,2.854,0,0,1-.348-.42,3.068,3.068,0,0,1-.268-.489,3.143,3.143,0,0,1-.174-.545,3.064,3.064,0,0,1-.058-.589,2.938,2.938,0,0,1,.058-.573,3.158,3.158,0,0,1,.174-.549,3.086,3.086,0,0,1,.268-.495,2.916,2.916,0,0,1,.763-.766,3.191,3.191,0,0,1,.489-.267,2.686,2.686,0,0,1,.548-.173,3.03,3.03,0,0,1,.585-.057,2.586,2.586,0,0,1,.837.136,2.5,2.5,0,0,1,.725.412,3.06,3.06,0,0,1,.578.624,3.34,3.34,0,0,1,.39.779m-2.53-1.537a2.461,2.461,0,0,0-.578.065,2.346,2.346,0,0,0-.531.2,2.7,2.7,0,0,0-.459.3,2.4,2.4,0,0,0-.377.383,2.47,2.47,0,0,0-.282.455,2.513,2.513,0,0,0-.181.522,2.359,2.359,0,0,0-.065.555,2.466,2.466,0,0,0,.079.566c.371-.148.738-.3,1.1-.443l1.092-.438,1.1-.437,1.1-.443a2.6,2.6,0,0,0-.344-.517,2.337,2.337,0,0,0-.463-.41,2,2,0,0,0-.557-.268,2.2,2.2,0,0,0-.633-.09" fill="#231f20"/><path d="M86.127,17.834V16.112a6.8,6.8,0,0,0-1.411-.488,6.9,6.9,0,0,0-1.493-.163,6.818,6.818,0,0,0-1.4.141,6.341,6.341,0,0,0-1.308.416,7.378,7.378,0,0,0-1.183.658,7,7,0,0,0-1.025.868,7.353,7.353,0,0,0-.848,1.047,7.876,7.876,0,0,0-.651,1.21,6.862,6.862,0,0,0-.416,1.328,7,7,0,0,0-.139,1.4,7.088,7.088,0,0,0,.137,1.42,6.674,6.674,0,0,0,.408,1.326,7.513,7.513,0,0,0,.647,1.2,6.952,6.952,0,0,0,1.878,1.893,7.33,7.33,0,0,0,1.191.658,6.447,6.447,0,0,0,1.313.415,6.818,6.818,0,0,0,1.4.139,7.012,7.012,0,0,0,.948-.061,6.721,6.721,0,0,0,.9-.186,7.361,7.361,0,0,0,.861-.307,6.937,6.937,0,0,0,.823-.42l.4.595.4.593a9.349,9.349,0,0,1-2.027.866,7.879,7.879,0,0,1-1.112.241,8.393,8.393,0,0,1-1.178.079,8.746,8.746,0,0,1-1.7-.165,8.1,8.1,0,0,1-1.6-.5,8.909,8.909,0,0,1-1.444-.786,8.509,8.509,0,0,1-2.277-2.278,8.679,8.679,0,0,1-.787-1.443,7.992,7.992,0,0,1-.5-1.6,8.829,8.829,0,0,1,0-3.408,8.015,8.015,0,0,1,.5-1.6,8.755,8.755,0,0,1,.787-1.455,8.22,8.22,0,0,1,1.029-1.251,8.582,8.582,0,0,1,1.248-1.033,9.017,9.017,0,0,1,1.444-.793,8.071,8.071,0,0,1,1.6-.509,8.519,8.519,0,0,1,1.7-.169,8.873,8.873,0,0,1,1.178.078,7.725,7.725,0,0,1,1.112.233,9.024,9.024,0,0,1,1.051.371,8.92,8.92,0,0,1,1,.5v2.657h-1.47Z" fill="#231f20"/><path d="M91.658,29.39h1.884q.841-2.017,1.683-4.013T96.912,21.4q.841-1.974,1.689-3.971t1.7-4.012q.849,2.019,1.695,4.012l1.672,3.971q.837,1.979,1.677,3.973t1.694,4.013h1.908v1.4h-4.908v-1.4h1.53q-.3-.688-.588-1.37c-.191-.456-.38-.907-.565-1.358s-.374-.9-.566-1.358-.388-.912-.584-1.371H97.34c-.2.459-.4.916-.59,1.371s-.384.907-.575,1.358-.379.9-.574,1.358l-.589,1.37H96.59v1.4H91.658v-1.4Zm8.859-11.958-.117-.368-.119-.367a.311.311,0,0,0-.024.064.8.8,0,0,0-.022.1c-.01.039-.021.078-.032.118s-.024.079-.041.118l-.048.166-.046.167c-.041.1-.09.227-.153.376s-.133.32-.216.513-.17.4-.26.614-.186.441-.286.679-.2.479-.3.727l-.313.756c-.106.258-.213.5-.313.745s-.2.469-.295.689h4.745L101.6,19.982Z" fill="#231f20"/><path d="M112.987,29.39h1.257V15.653h-1.257V14.18h4.981a5.641,5.641,0,0,1,.82.064,7.466,7.466,0,0,1,.888.186,6.141,6.141,0,0,1,.9.319,6.039,6.039,0,0,1,.847.465,4.472,4.472,0,0,1,.748.607,4.823,4.823,0,0,1,.618.756,3.211,3.211,0,0,1,.408.92,4.128,4.128,0,0,1,.137,1.1,5.4,5.4,0,0,1-.226,1.608,4.048,4.048,0,0,1-.677,1.31,3.827,3.827,0,0,1-1.1.969,5.153,5.153,0,0,1-1.506.574l1.482,3.169,1.485,3.167h2.156v1.4h-3.084l-1.8-3.819-1.8-3.822c-.089.009-.175.016-.262.021s-.177,0-.262,0h-2.017V29.39h2.541v1.4h-5.267v-1.4Zm2.726-7.688h2.255a7,7,0,0,0,1.046-.073,4.074,4.074,0,0,0,.852-.219,4.139,4.139,0,0,0,.68-.331,2.732,2.732,0,0,0,.519-.417,2.934,2.934,0,0,0,.376-.478,2.532,2.532,0,0,0,.24-.525,3.472,3.472,0,0,0,.134-.541,3.225,3.225,0,0,0,.044-.525,2.426,2.426,0,0,0-.072-.57,2.366,2.366,0,0,0-.224-.55,2.878,2.878,0,0,0-.35-.5,3.346,3.346,0,0,0-.456-.432,3.728,3.728,0,0,0-.561-.358,4.91,4.91,0,0,0-.66-.285,4.557,4.557,0,0,0-.743-.183,5.223,5.223,0,0,0-.8-.06h-2.279V21.7Z" fill="#231f20"/><path d="M128.977,29.39h1.258V15.653h-1.258V14.18h4.985a5.67,5.67,0,0,1,.819.064,7.522,7.522,0,0,1,.889.186,6.3,6.3,0,0,1,.9.319,6.085,6.085,0,0,1,.846.465,4.487,4.487,0,0,1,.75.607,4.644,4.644,0,0,1,.615.756,3.271,3.271,0,0,1,.41.92,4.212,4.212,0,0,1,.136,1.1A5.4,5.4,0,0,1,139.1,20.2a4.026,4.026,0,0,1-.676,1.31,3.863,3.863,0,0,1-1.1.969,5.138,5.138,0,0,1-1.507.574l1.483,3.169,1.483,3.167h2.157v1.4h-3.082l-1.8-3.819-1.8-3.822q-.131.014-.261.021c-.088,0-.176,0-.261,0h-2.019V29.39h2.541v1.4h-5.269v-1.4Zm2.728-7.688h2.257a6.977,6.977,0,0,0,1.043-.073,4.084,4.084,0,0,0,.853-.219,4.179,4.179,0,0,0,.68-.331,2.708,2.708,0,0,0,.52-.417,2.8,2.8,0,0,0,.372-.478,2.4,2.4,0,0,0,.243-.525,3.707,3.707,0,0,0,.133-.541,2.928,2.928,0,0,0,.047-.525,2.074,2.074,0,0,0-.078-.57,2.3,2.3,0,0,0-.217-.55,2.906,2.906,0,0,0-.355-.5,3.1,3.1,0,0,0-.452-.432,3.749,3.749,0,0,0-.563-.358,4.883,4.883,0,0,0-.662-.285,4.411,4.411,0,0,0-.739-.183,5.255,5.255,0,0,0-.8-.06h-2.28V21.7Z" fill="#231f20"/><path d="M144.971,22.508a8.616,8.616,0,0,1,.165-1.7,8.075,8.075,0,0,1,.5-1.6,8.842,8.842,0,0,1,.79-1.455,8.444,8.444,0,0,1,1.026-1.251,8.809,8.809,0,0,1,1.249-1.033,8.994,8.994,0,0,1,1.446-.793,8.092,8.092,0,0,1,1.595-.509,8.675,8.675,0,0,1,3.408,0,8.193,8.193,0,0,1,1.606.509,9.1,9.1,0,0,1,1.452.793,8.669,8.669,0,0,1,1.252,1.033,8.47,8.47,0,0,1,1.03,1.251,8.943,8.943,0,0,1,.8,1.455,7.851,7.851,0,0,1,.507,1.6,8.625,8.625,0,0,1,0,3.408,7.828,7.828,0,0,1-.507,1.6,8.866,8.866,0,0,1-.8,1.443,8.49,8.49,0,0,1-1.03,1.247A8.339,8.339,0,0,1,158.2,29.53a8.989,8.989,0,0,1-1.452.786,8.228,8.228,0,0,1-1.606.5,8.881,8.881,0,0,1-3.408,0,8.126,8.126,0,0,1-1.595-.5,8.887,8.887,0,0,1-1.446-.786,8.425,8.425,0,0,1-2.275-2.278,8.765,8.765,0,0,1-.79-1.443,8.051,8.051,0,0,1-.5-1.6,8.579,8.579,0,0,1-.165-1.7m1.469.023a7.394,7.394,0,0,0,.136,1.42,6.883,6.883,0,0,0,.41,1.326,7.219,7.219,0,0,0,.65,1.2,6.749,6.749,0,0,0,.843,1.038,7.056,7.056,0,0,0,1.033.855,7.505,7.505,0,0,0,1.2.658,6.649,6.649,0,0,0,1.322.415,7.2,7.2,0,0,0,2.815,0,6.66,6.66,0,0,0,1.321-.415,7.559,7.559,0,0,0,1.2-.658,7.237,7.237,0,0,0,1.042-.855,7.024,7.024,0,0,0,.857-1.038,7.334,7.334,0,0,0,.659-1.2,6.52,6.52,0,0,0,.422-1.326,7.089,7.089,0,0,0,.135-1.42,7,7,0,0,0-.135-1.4,6.68,6.68,0,0,0-.422-1.328,7.5,7.5,0,0,0-.659-1.21,7.144,7.144,0,0,0-1.9-1.915,7.428,7.428,0,0,0-1.188-.658,6.521,6.521,0,0,0-1.315-.416,7.076,7.076,0,0,0-2.811,0,6.523,6.523,0,0,0-1.322.416,7.326,7.326,0,0,0-1.2.658,7.067,7.067,0,0,0-1.034.868,7.159,7.159,0,0,0-.849,1.047A7.559,7.559,0,0,0,147,19.8a6.739,6.739,0,0,0-.42,1.328,7,7,0,0,0-.14,1.4" fill="#231f20"/><polygon points="165.991 29.39 166.726 29.39 167.465 29.39 167.465 22.521 167.465 15.653 166.726 15.653 165.991 15.653 165.991 14.916 165.991 14.18 168.447 14.18 170.903 14.18 170.903 14.916 170.903 15.653 169.92 15.653 168.934 15.653 168.934 22.521 168.934 29.39 172.685 29.39 176.433 29.39 176.433 28.264 176.433 27.136 177.133 27.136 177.832 27.136 177.832 28.963 177.832 30.789 171.912 30.789 165.991 30.789 165.991 30.09 165.991 29.39" fill="#231f20"/><polygon points="181.866 29.39 182.6 29.39 183.336 29.39 183.336 22.521 183.336 15.653 182.6 15.653 181.866 15.653 181.866 14.916 181.866 14.18 184.32 14.18 186.776 14.18 186.776 14.916 186.776 15.653 185.792 15.653 184.809 15.653 184.809 22.521 184.809 29.39 188.559 29.39 192.306 29.39 192.306 28.264 192.306 27.136 193.006 27.136 193.705 27.136 193.705 28.963 193.705 30.789 187.785 30.789 181.866 30.789 181.866 30.09 181.866 29.39" fill="#231f20"/><polygon points="201.585 29.39 202.581 29.39 203.578 29.39 203.578 22.521 203.578 15.653 201.358 15.653 199.139 15.653 199.139 16.744 199.139 17.834 198.439 17.834 197.741 17.834 197.741 16.007 197.741 14.18 204.301 14.18 210.862 14.18 210.862 16.007 210.862 17.834 210.126 17.834 209.391 17.834 209.391 16.744 209.391 15.653 207.219 15.653 205.047 15.653 205.047 22.521 205.047 29.39 205.948 29.39 206.851 29.39 206.851 30.09 206.851 30.789 204.216 30.789 201.585 30.789 201.585 30.09 201.585 29.39" fill="#231f20"/><path d="M214.893,22.508a8.691,8.691,0,0,1,.167-1.7,7.831,7.831,0,0,1,.5-1.6,8.6,8.6,0,0,1,.784-1.455,8.333,8.333,0,0,1,1.028-1.251,8.615,8.615,0,0,1,1.252-1.033,8.85,8.85,0,0,1,1.44-.793,8.153,8.153,0,0,1,1.6-.509,8.675,8.675,0,0,1,3.408,0,8.193,8.193,0,0,1,1.606.509,9.012,9.012,0,0,1,1.452.793,8.545,8.545,0,0,1,2.286,2.284,9.16,9.16,0,0,1,.792,1.455,8.052,8.052,0,0,1,.511,1.6,8.988,8.988,0,0,1,0,3.408,8.03,8.03,0,0,1-.511,1.6,9.081,9.081,0,0,1-.792,1.443,8.645,8.645,0,0,1-1.034,1.247,8.241,8.241,0,0,1-1.252,1.031,8.906,8.906,0,0,1-1.452.786,8.228,8.228,0,0,1-1.606.5,8.881,8.881,0,0,1-3.408,0,8.187,8.187,0,0,1-1.6-.5,8.745,8.745,0,0,1-1.44-.786,8.425,8.425,0,0,1-2.28-2.278,8.523,8.523,0,0,1-.784-1.443,7.808,7.808,0,0,1-.5-1.6,8.654,8.654,0,0,1-.167-1.7m1.471.023a7.315,7.315,0,0,0,.136,1.42,6.68,6.68,0,0,0,.41,1.326,7.429,7.429,0,0,0,.646,1.2,7.073,7.073,0,0,0,3.082,2.551,6.539,6.539,0,0,0,1.321.415,7.17,7.17,0,0,0,2.81,0,6.546,6.546,0,0,0,1.324-.415,7.346,7.346,0,0,0,1.2-.658,7.093,7.093,0,0,0,1.9-1.893,7.648,7.648,0,0,0,.659-1.2,6.564,6.564,0,0,0,.415-1.326,6.874,6.874,0,0,0,.144-1.42,6.995,6.995,0,0,0-.559-2.73,7.827,7.827,0,0,0-.659-1.21,7.3,7.3,0,0,0-1.9-1.915,7.5,7.5,0,0,0-1.191-.658,6.354,6.354,0,0,0-1.316-.416,7.056,7.056,0,0,0-2.807,0,6.513,6.513,0,0,0-1.323.416,7.515,7.515,0,0,0-1.2.658,6.933,6.933,0,0,0-1.03.868,7.159,7.159,0,0,0-.849,1.047,7.494,7.494,0,0,0-.657,1.21,6.739,6.739,0,0,0-.42,1.328,7,7,0,0,0-.139,1.4" fill="#231f20"/><polygon points="235.92 29.39 236.913 29.39 237.909 29.39 237.909 22.521 237.909 15.653 236.913 15.653 235.92 15.653 235.92 14.916 235.92 14.18 237.246 14.18 238.576 14.18 244.562 20.92 250.556 27.656 250.78 27.966 251.009 28.274 250.971 27.897 250.936 27.519 250.936 21.586 250.936 15.653 250.056 15.653 249.179 15.653 249.179 14.916 249.179 14.18 251.801 14.18 254.424 14.18 254.424 14.916 254.424 15.653 253.417 15.653 252.406 15.653 252.406 23.599 252.406 31.549 246.083 24.537 239.76 17.525 239.546 17.229 239.331 16.933 239.355 17.301 239.382 17.669 239.382 23.529 239.382 29.39 240.283 29.39 241.185 29.39 241.185 30.09 241.185 30.789 238.553 30.789 235.92 30.789 235.92 30.09 235.92 29.39" fill="#231f20"/><path d="M60.415,12.05c0-2.592-2.627-3.908-7.806-3.908a23.692,23.692,0,0,0-4.644.455C39.2,2.894,30.4,0,21.814,0,15.643,0,10.415,1.371,6.27,4.073S0,10.208,0,14.249C0,20.99,5.6,25.461,16.628,27.534c-2.993,4.552-4.51,9.054-4.51,13.38A15.5,15.5,0,0,0,16.807,52.35a15.888,15.888,0,0,0,11.567,4.628A26.946,26.946,0,0,0,46.3,50.021c5.369-4.62,8.09-9.813,8.09-15.434,0-5.487-2.536-8.269-7.534-8.269-3.851,0-7.7,1.837-11.435,5.456s-5.633,7.334-5.633,11.033c0,2.131.9,3.212,2.672,3.212,1.928,0,2.905-1,2.905-2.981,0-1.493-.7-2.249-2.076-2.249a3.134,3.134,0,0,0-2,.964.45.45,0,0,1-.215.116c-.026,0-.106,0-.106-.259,0-2.882,1.846-6.039,5.488-9.382s7.1-5.04,10.259-5.04a6.493,6.493,0,0,1,4.727,1.737,6.307,6.307,0,0,1,1.773,4.7c0,3.76-1.743,7.8-5.18,12C42.35,52.582,35.787,56.11,28.529,56.11c-3.834,0-6.9-1.053-9.119-3.13a11.163,11.163,0,0,1-3.336-8.515c0-5.255,2.056-10.792,6.108-16.462.5.048,1.091.072,1.755.072A58.153,58.153,0,0,0,41.049,25.04,52.06,52.06,0,0,0,56.206,17.9a13.787,13.787,0,0,1,2.606,7.654c0,.345,0,1.4.59,1.4.32,0,.7-.188.7-1.089,0-2.61-1.049-5.5-3.121-8.581,2.277-1.79,3.431-3.553,3.431-5.235m-4.662,5.1c-3.768,2.754-8.936,5.131-15.355,7.068a62.7,62.7,0,0,1-17.566,2.946,46.567,46.567,0,0,1,11.093-10.71A45.544,45.544,0,0,1,47.918,9.717a29.128,29.128,0,0,1,7.835,7.435m3.793-5.1c0,1.3-1.016,2.83-3.018,4.561a30.745,30.745,0,0,0-7.31-7.121A23.144,23.144,0,0,1,53.5,9.011c4.012,0,6.05,1.022,6.05,3.039M17.088,26.77C6.813,24.984,1.6,21.017,1.6,14.982,1.6,11.6,3.641,8.6,7.659,6.059A26.214,26.214,0,0,1,21.89,2.219,49.118,49.118,0,0,1,46.518,8.833c-13.11,3-23.009,9.03-29.43,17.937" fill="#4c0049"/></svg>