<svg version="1.1" id="conscious-logo" class="logo" xmlns="http://www.w3.org/2000/svg" x="0px" y="0px" viewBox="0 0 127.6 127.6"><rect width="127.6" height="127.6"/><circle fill="#FFFFFF" cx="64.7" cy="47.9" r="24.9"/><g><path fill="#FFFFFF" d="M45.4,86.5l3.3,5.3h1.4V81.3h-1.3v4.4c0,1.6,0,2.9,0.2,4.3l0,0c-0.5-1.1-1.1-2.2-1.8-3.4l-3.3-5.3h-1.5 v10.4h1.3v-4.4c0-1.7,0-3-0.1-4.3l0,0C44,84.1,44.7,85.3,45.4,86.5"/><path fill="#FFFFFF" d="M24.9,82.3c0.9,0,1.6,0.2,2.1,0.4l0.3-1.1c-0.4-0.2-1.2-0.5-2.5-0.5c-3.2,0-5.4,2.2-5.4,5.5 c0,3.4,2.2,5.3,5.1,5.3c1.3,0,2.3-0.2,2.7-0.5L27,90.3c-0.5,0.3-1.4,0.4-2.2,0.4c-2.5,0-4-1.6-4-4.2C20.8,83.9,22.4,82.3,24.9,82.3"/><path fill="#FFFFFF" d="M34.3,81.2c-2.8,0-4.8,2.2-4.8,5.5c0,3.1,1.9,5.3,4.7,5.3h0c2.6,0,4.8-1.9,4.8-5.5 C39,83.3,37.1,81.2,34.3,81.2 M34.2,90.8L34.2,90.8c-2.1,0-3.3-2-3.3-4.2c0-2.2,1.1-4.3,3.3-4.3c2.2,0,3.3,2.2,3.3,4.2 C37.5,88.8,36.3,90.8,34.2,90.8"/><path fill="#FFFFFF" d="M56.2,90.8c-0.9,0-1.8-0.3-2.4-0.7l-0.4,1.1c0.6,0.4,1.6,0.7,2.6,0.7c2.4,0,3.6-1.4,3.6-3 c0-1.5-0.9-2.4-2.6-3.1c-1.4-0.6-2.1-1-2.1-2c0-0.7,0.5-1.6,2-1.6c0.9,0,1.6,0.3,2,0.5l0.4-1.1c-0.4-0.3-1.2-0.5-2.3-0.5 c-2,0-3.4,1.2-3.4,2.8c0,1.4,1,2.3,2.7,3c1.4,0.5,2,1.1,2,2C58.3,90.1,57.5,90.8,56.2,90.8"/><path fill="#FFFFFF" d="M97.2,87.5c0,2.3-1,3.3-2.5,3.3c-1.4,0-2.4-1-2.4-3.3v-6.2h-1.4v6.1c0,3.2,1.6,4.4,3.7,4.4 c2.2,0,3.9-1.3,3.9-4.5v-6.1h-1.4V87.5z"/><path fill="#FFFFFF" d="M67.9,82.3c0.9,0,1.6,0.2,2.1,0.4l0.3-1.1c-0.4-0.2-1.2-0.5-2.5-0.5c-3.2,0-5.4,2.2-5.4,5.5 c0,3.4,2.2,5.3,5.1,5.3c1.3,0,2.3-0.2,2.7-0.5l-0.3-1.1c-0.5,0.3-1.4,0.4-2.2,0.4c-2.5,0-4-1.6-4-4.2 C63.9,83.9,65.5,82.3,67.9,82.3"/><path fill="#FFFFFF" d="M105.5,85.8c-1.4-0.6-2.1-1-2.1-2c0-0.7,0.5-1.6,2-1.6c0.9,0,1.6,0.3,2,0.5l0.4-1.1 c-0.4-0.3-1.2-0.5-2.3-0.5c-2,0-3.4,1.2-3.4,2.8c0,1.4,1,2.3,2.7,3c1.4,0.5,2,1.1,2,2c0,1.1-0.8,1.8-2.2,1.8 c-0.9,0-1.8-0.3-2.4-0.7l-0.4,1.1c0.6,0.4,1.6,0.7,2.6,0.7c2.4,0,3.6-1.4,3.6-3C108.2,87.4,107.3,86.5,105.5,85.8"/><path fill="#FFFFFF" d="M83,81.2c-2.8,0-4.8,2.2-4.8,5.5c0,3.1,1.9,5.3,4.7,5.3h0c2.6,0,4.8-1.9,4.8-5.5 C87.6,83.3,85.8,81.2,83,81.2 M82.9,90.8L82.9,90.8c-2.1,0-3.3-2-3.3-4.2c0-2.2,1.1-4.3,3.3-4.3c2.2,0,3.3,2.2,3.3,4.2 C86.2,88.8,85,90.8,82.9,90.8"/><polygon fill="#7B8134" points="50.9,102 47.3,102 47.3,98.9 46.3,98.9 46.3,106.4 47.3,106.4 47.3,102.9 50.9,102.9 50.9,106.4 51.9,106.4 51.9,98.9 50.9,98.9"/><path fill="#7B8134" d="M57,98.7c-2,0-3.5,1.6-3.5,4c0,2.3,1.4,3.8,3.4,3.8h0c1.9,0,3.5-1.4,3.5-4C60.4,100.3,59,98.7,57,98.7 M56.9,105.7L56.9,105.7c-1.5,0-2.4-1.5-2.4-3.1c0-1.6,0.8-3.1,2.4-3.1c1.6,0,2.4,1.6,2.4,3.1C59.3,104.3,58.4,105.7,56.9,105.7"/><polygon fill="#7B8134" points="60.7,99.7 63,99.7 63,106.4 64,106.4 64,99.7 66.3,99.7 66.3,98.9 60.7,98.9"/><path fill="#7B8134" d="M64.6,22.8c-13.8,0-25,11.2-25,25s11.2,25,25,25c8.5,0,16-4.2,20.5-10.7c-5.2,1.3-11.2,1.5-17,0.6 C61.2,61.6,42,53.7,48.3,44c6.5-10,23.5-14.5,32.2-5c1,1.1,2.4,2.7,2.9,4.2c1.4,4-3.4,4.8-3.4,4.8c-1-4.2-3.4-5.4-3.4-5.4 c-6.5-3.8-20.4-1.2-21.8,5.2c-1.4,6.5,7.9,13.3,18.4,13.9c9,0.5,13.5-3.2,14.6-4.3c1.2-3,1.9-6.2,1.9-9.6 C89.6,34,78.4,22.8,64.6,22.8"/><polygon fill="#7B8134" points="74.2,98.9 73.2,98.9 73.2,106.4 77.4,106.4 77.4,105.6 74.2,105.6"/><polygon fill="#7B8134" points="68.4,102.9 71.3,102.9 71.3,102.1 68.4,102.1 68.4,99.7 71.5,99.7 71.5,98.9 67.4,98.9 67.4,106.4 71.7,106.4 71.7,105.6 68.4,105.6"/><path fill="#7B8134" d="M81.1,102.1c-1-0.4-1.5-0.8-1.5-1.5c0-0.5,0.4-1.1,1.4-1.1c0.7,0,1.2,0.2,1.4,0.4l0.3-0.8 c-0.3-0.2-0.9-0.4-1.7-0.4c-1.5,0-2.4,0.9-2.4,2.1c0,1.1,0.8,1.7,2,2.2c1,0.4,1.4,0.8,1.4,1.5c0,0.8-0.6,1.3-1.6,1.3 c-0.7,0-1.3-0.2-1.7-0.5l-0.3,0.8c0.4,0.3,1.2,0.5,1.9,0.5c1.8,0,2.6-1,2.6-2.2C83,103.2,82.3,102.6,81.1,102.1"/><rect x="73.5" y="81.3" fill="#FFFFFF" width="1.4" height="10.4"/></g></svg>