<svg id="merrill-logo" class="logo" xmlns="http://www.w3.org/2000/svg" viewBox="0 0 412.957 209.872"><path d="M314.281,145.616l-.648-1.44.648,1.44h0m-3.555-.452c-.836-.043-1.143-.874-1.143-3.238,0,2.364.307,3.2,1.143,3.238" fill="#fff"/><path d="M309.1,146.966c-2.754,0-4.941-1.62-6.318-4.59-.81-1.8-.972-3.06-1.053-7.38-.162-5.94-1.053-7.02-6.156-7.02h-2.106v17.01h5.346v1.8H280.747v-1.8h5.427v-34.2h-5.427v-1.8h14.985c6.723,0,8.748.36,11.178,2.16a8.241,8.241,0,0,1,3.645,7.02c0,5.58-3.726,8.64-10.692,8.91h0c6.642.18,9.72,3.6,9.72,10.98v3.87h0c0,2.364.307,3.2,1.143,3.238.024,0,.048,0,.072,0a6.915,6.915,0,0,0,2.835-.99h0l.648,1.44a10.846,10.846,0,0,1-5.184,1.35m-15.633-20.88h1.458c6.237,0,8.019-1.62,8.019-7.47h0c0-2.88-.729-5.13-1.944-6.39-1.134-1.17-2.349-1.44-5.913-1.44h-1.62v15.3" fill="#fff"/><path d="M274.994,145.616l-.648-1.44.648,1.44h0m-3.554-.452c-.837-.043-1.144-.874-1.144-3.238,0,2.364.307,3.2,1.144,3.238" fill="#fff"/><path d="M269.81,146.966c-2.754,0-4.941-1.62-6.318-4.59-.81-1.8-.972-3.06-1.053-7.38-.162-5.94-1.053-7.02-6.156-7.02h-2.106v17.01h5.346v1.8H241.46v-1.8h5.427v-34.2H241.46v-1.8h14.985c6.723,0,8.748.36,11.178,2.16a8.241,8.241,0,0,1,3.645,7.02c0,5.58-3.726,8.64-10.692,8.91h0c6.642.18,9.72,3.6,9.72,10.98v3.87h0c0,2.364.307,3.2,1.144,3.238.023,0,.047,0,.071,0a6.915,6.915,0,0,0,2.835-.99h0l.648,1.44a10.846,10.846,0,0,1-5.184,1.35m-15.633-20.88h1.458c6.237,0,8.019-1.62,8.019-7.47h0c0-2.88-.729-5.13-1.944-6.39-1.134-1.17-2.349-1.44-5.913-1.44h-1.62v15.3" fill="#fff"/><path d="M394.876,144.986c4.941,0,6.156-.54,7.533-3.15-1.377,2.61-2.592,3.15-7.533,3.15" fill="#fff"/><path d="M404.92,146.786h-27.3v-1.8h5.427v-34.2h-5.427v-1.8h18.063v1.8H390.34v34.2h4.536c4.941,0,6.156-.54,7.533-3.15h0a33.878,33.878,0,0,0,2.43-7.83h1.053l-.972,12.78" fill="#fff"/><path d="M361.543,144.986c4.774-.015,5.975-.575,7.333-3.15-1.358,2.575-2.559,3.135-7.333,3.15" fill="#fff"/><path d="M371.387,146.786h-27.3v-1.8h5.427v-34.2H344.09v-1.8h18.063v1.8h-5.346v34.2h4.736c4.774-.015,5.975-.575,7.333-3.15h0a33.878,33.878,0,0,0,2.43-7.83h1.053l-.972,12.78" fill="#fff"/><polyline points="338.097 146.786 320.034 146.786 320.034 144.986 325.461 144.986 325.461 110.786 320.034 110.786 320.034 108.986 338.097 108.986 338.097 110.786 332.751 110.786 332.751 144.986 338.097 144.986 338.097 146.786" fill="#fff"/><path d="M234.5,146.786H205.659v-1.8h5.427v-34.2h-5.427v-1.8h28.188l.405,11.52h-1.134c-.81-4.05-1.377-5.76-2.511-7.38-1.458-1.98-2.673-2.34-8.019-2.34h-4.212v15.93h1.053c5.265,0,5.67-.54,5.751-7.29h1.053v16.92H225.18c-.324-4.95-.405-5.13-.891-6.21-.648-1.26-1.62-1.62-4.86-1.62h-1.053v16.47h6.642c4.293,0,4.941-.27,6.318-2.43,1.215-1.89,2.025-3.87,3.24-8.64h1.053l-1.134,12.87" fill="#fff"/><polyline points="199.666 146.786 177.553 146.786 177.553 144.986 184.276 144.986 184.276 90.086 168.886 146.786 166.861 146.786 150.904 89.456 150.904 144.986 157.708 144.986 157.708 146.786 142.318 146.786 142.318 144.986 149.041 144.986 149.041 88.556 142.318 88.556 142.318 86.756 159.247 86.756 171.235 131.036 183.304 86.756 199.666 86.756 199.666 88.556 192.943 88.556 192.943 144.986 199.666 144.986 199.666 146.786" fill="#fff"/><path d="M105.3,144.986h0c3.773,0,4.73-.208,5.842-1.725-1.112,1.517-2.069,1.725-5.842,1.725m.162-8.64c-.321-4.892-.4-5.125-.875-6.172.471,1.047.554,1.28.875,6.172" fill="#fff"/><path d="M114.778,146.786H85.943v-1.8h5.426v-34.2H85.943v-1.8h28.188l.4,11.52H113.4c-.811-4.05-1.378-5.76-2.512-7.38-1.458-1.98-2.672-2.34-8.018-2.34H98.66v15.93h1.052c5.265,0,5.67-.54,5.752-7.29h1.052v16.92h-1.052c-.321-4.892-.4-5.125-.875-6.172l-.016-.038c-.649-1.26-1.621-1.62-4.861-1.62H98.66v16.47H105.3c3.773,0,4.73-.208,5.842-1.725.153-.209.309-.443.475-.7,1.216-1.89,2.025-3.87,3.241-8.64h1.052l-1.134,12.87" fill="#fff"/><polyline points="80.029 146.786 62.777 146.786 62.777 144.986 67.312 144.986 67.312 128.426 55.081 128.426 55.081 144.986 59.536 144.986 59.536 146.786 42.364 146.786 42.364 144.986 47.792 144.986 47.792 110.786 42.364 110.786 42.364 108.986 59.536 108.986 59.536 110.786 55.081 110.786 55.081 126.626 67.312 126.626 67.312 110.786 62.777 110.786 62.777 108.986 80.029 108.986 80.029 110.786 74.602 110.786 74.602 144.986 80.029 144.986 80.029 146.786" fill="#fff"/><path d="M30.946,146.786H12.8v-1.8h5.427v-34.2H16.852c-3.645,0-4.455.27-5.751,1.98-1.7,2.16-2.511,4.23-3.483,9.18H6.565l.4-12.96H36.778l.405,12.96H36.13c-.81-4.5-1.7-7.02-3.483-9.18-1.3-1.71-2.106-1.98-5.751-1.98H25.519v34.2h5.427v1.8" fill="#fff"/><path d="M308.433,175.53a4.7,4.7,0,0,1-2.482-1.938l-5.831-7.4v6.679h0c0,.9.015,1.551.884,2.059v.051H298v-.051c.9-.527.9-1.207.9-2.159v-6.783h0v-.022h0c0-.94-.007-1.614-.884-2.12V163.8h2.482v.017h0a1.053,1.053,0,0,0,.255.425l.238.34,6.222,7.854v-6.553h0c0-.9-.018-1.542-.884-2.032V163.8h2.992v.051c-.884.51-.884,1.19-.884,2.142v9.537" fill="#fff"/><path d="M245.7,175.53a4.7,4.7,0,0,1-2.482-1.938l-5.831-7.4v6.679h0c0,.9.015,1.551.884,2.059v.051h-3.009v-.051c.9-.527.9-1.207.9-2.159v-6.783h0v-.022h0c0-.94-.007-1.614-.884-2.12V163.8h2.482v.017h0a1.053,1.053,0,0,0,.255.425l.238.34,6.222,7.854v-6.553h0c0-.9-.018-1.542-.884-2.032V163.8h2.992v.051c-.884.51-.884,1.19-.884,2.142v9.537" fill="#fff"/><path d="M193.09,175.53a4.7,4.7,0,0,1-2.482-1.938l-5.831-7.4v6.679h0c0,.9.015,1.551.884,2.059v.051h-3.009v-.051c.9-.527.9-1.207.9-2.159v-6.783h0v-.022h0c0-.94-.007-1.614-.884-2.12V163.8h2.482v.017h0a1.053,1.053,0,0,0,.255.425l.238.34,6.222,7.854v-6.553h0c0-.9-.018-1.542-.884-2.032V163.8h2.992v.051c-.884.51-.884,1.19-.884,2.142v9.537" fill="#fff"/><path d="M85.252,168.91a6.4,6.4,0,0,1,6.576-6.076l.173,0h.035a6.7,6.7,0,0,1,3.05.711,6.7,6.7,0,0,0-3.05-.711H92l-.174,0a6.4,6.4,0,0,0-6.575,6.076m13.193-.01c0-.031,0-.063,0-.095,0,.032,0,.064,0,.095M95.1,163.556h0" fill="#fff"/><path d="M91.821,175.274a6.3,6.3,0,0,1-6.57-6.246c0-.039,0-.079,0-.118a6.4,6.4,0,0,1,6.575-6.076l.174,0h.035a6.7,6.7,0,0,1,3.05.711l.014.008h0a6.074,6.074,0,0,1,3.34,5.249c0,.032,0,.064,0,.095v.038a6.422,6.422,0,0,1-6.624,6.336M87.3,168.866h0c0,2.52,1.782,5.112,4.608,5.112a4.372,4.372,0,0,0,4.482-4.68h0c0-2.628-1.674-5.166-4.518-5.166a4.437,4.437,0,0,0-4.572,4.734h0" fill="#fff"/><path d="M282.59,173.845a7.606,7.606,0,0,0,3.472-1.069,7.606,7.606,0,0,1-3.472,1.069" fill="#fff"/><path d="M282.679,175.258c-4.012,0-6.494-2.244-6.494-5.882a5.627,5.627,0,0,1,5.967-5.848,13.568,13.568,0,0,1,3.094.425v1.955a5.905,5.905,0,0,0-3.145-.969,3.9,3.9,0,0,0-3.978,4.182h0a4.453,4.453,0,0,0,4.318,4.726l.149,0a7.606,7.606,0,0,0,3.472-1.069h.051l-.867,1.972a6.027,6.027,0,0,1-2.567.51" fill="#fff"/><path d="M254.965,173.845a7.6,7.6,0,0,0,3.472-1.069,7.6,7.6,0,0,1-3.472,1.069" fill="#fff"/><path d="M255.054,175.258c-4.012,0-6.494-2.244-6.494-5.882a5.627,5.627,0,0,1,5.967-5.848,13.568,13.568,0,0,1,3.094.425v1.955a5.905,5.905,0,0,0-3.145-.969,3.9,3.9,0,0,0-3.978,4.182h0a4.453,4.453,0,0,0,4.318,4.726l.149,0a7.6,7.6,0,0,0,3.472-1.069h.051l-.867,1.972a6.027,6.027,0,0,1-2.567.51" fill="#fff"/><path d="M174.152,175.258a5.951,5.951,0,0,1-6.2-5.9,6.032,6.032,0,0,1,6.211-5.85l.164,0h.033a5.866,5.866,0,0,1,6.053,5.763,6.065,6.065,0,0,1-6.256,5.984m-4.267-6.052h0c0,2.38,1.683,4.828,4.352,4.828a4.129,4.129,0,0,0,4.233-4.42h0c0-2.482-1.581-4.879-4.267-4.879a4.191,4.191,0,0,0-4.318,4.471h0" fill="#fff"/><path d="M162.827,173.845a7.6,7.6,0,0,0,3.471-1.069,7.6,7.6,0,0,1-3.471,1.069" fill="#fff"/><path d="M162.915,175.258c-4.012,0-6.494-2.244-6.494-5.882a5.627,5.627,0,0,1,5.967-5.848,13.568,13.568,0,0,1,3.094.425v1.955a5.905,5.905,0,0,0-3.145-.969,3.9,3.9,0,0,0-3.978,4.182h0a4.453,4.453,0,0,0,4.318,4.726l.15,0a7.6,7.6,0,0,0,3.471-1.069h.051l-.867,1.972a6.027,6.027,0,0,1-2.567.51" fill="#fff"/><path d="M145.75,174.7a10.683,10.683,0,0,1-1.994-1.481,10.683,10.683,0,0,0,1.994,1.481m-5.076-.616a3.326,3.326,0,0,0,2.4-1.46,3.326,3.326,0,0,1-2.4,1.46m-.658-6.7c-.446-.4-1.15-1.051-1.188-1.712.038.661.742,1.315,1.188,1.712" fill="#fff"/><path d="M140.22,175.207c-1.921,0-3.842-1.139-3.842-3.247,0-1.683,1.105-2.686,2.346-3.672h0a3.757,3.757,0,0,1-1.36-2.4,2.536,2.536,0,0,1,2.652-2.363,2.323,2.323,0,0,1,2.448,2.346,3.358,3.358,0,0,1-1.479,2.516h0c2.533,2.431,5.032,5.066,8.245,6.545v.051h-1.853a3.444,3.444,0,0,1-1.6-.272l-.029-.015a10.683,10.683,0,0,1-1.994-1.481h0a3.749,3.749,0,0,1-3.536,1.989m-2.023-3.349h0a2.21,2.21,0,0,0,2.38,2.227c.033,0,.065,0,.1,0a3.326,3.326,0,0,0,2.4-1.46h0l-3.349-3.281a3.22,3.22,0,0,0-1.53,2.516h0m1.819-4.471h0a2.316,2.316,0,0,0,1.105-1.7h0a1.076,1.076,0,0,0-1.173-1.037.991.991,0,0,0-1.122.969h0c0,.019,0,.037,0,.056.038.661.742,1.315,1.188,1.712" fill="#fff"/><path d="M330.822,174.986h0v-.051c.68-.24.753-1.067.753-1.782,0-.135,0-.266,0-.388.01.769.06,1.884-.749,2.17v.051m3-5.832c1.333-.221,2.829-.859,2.829-2.413h0a1.934,1.934,0,0,0-2.079-1.889h0a1.934,1.934,0,0,1,2.079,1.889c0,1.554-1.5,2.192-2.829,2.413m-2.253-3.118c0-.124,0-.257,0-.393,0-.719-.073-1.538-.753-1.792V163.8h0v.051c.809.3.759,1.4.749,2.185" fill="#fff"/><path d="M340.886,174.986h-1.564a2.233,2.233,0,0,1-1.972-.85l-2.074-2.567-1.564-2.4.112-.018c1.333-.221,2.829-.859,2.829-2.413a1.934,1.934,0,0,0-2.079-1.889h0c-.038,0-.076,0-.114,0a8.926,8.926,0,0,0-1.156.136v7.616c0,.15,0,.316,0,.49,0,.733.068,1.592.769,1.839v.051h-3.247v-.051c.809-.286.759-1.4.749-2.17,0-.055,0-.108,0-.159V166.2c0-.052,0-.106,0-.161.01-.782.06-1.883-.749-2.185V163.8h4.046c2.278,0,3.519,1.19,3.519,2.737a3.318,3.318,0,0,1-2.7,2.992h0l2.448,3.077a11.925,11.925,0,0,0,2.754,2.38" fill="#fff"/><path d="M325.794,173.779h0a4.235,4.235,0,0,0,2.659-.929,4.235,4.235,0,0,1-2.659.929m-.514-5.474a1.782,1.782,0,0,0,.738-.1,1.78,1.78,0,0,1-.738.1m1.444-2.86a2.708,2.708,0,0,0-1.733-.421h0a2.708,2.708,0,0,1,1.733.421m-.214-1.64h0a1.018,1.018,0,0,0,.487-.09,1.018,1.018,0,0,1-.487.09" fill="#fff"/><path d="M327.847,174.986h-7.089v-.051c.7-.247.769-1.117.769-1.846h0c0-.172,0-.336,0-.483V166.2c0-.149,0-.316,0-.49h0c0-.733-.068-1.595-.769-1.856V163.8h5.44c.105,0,.21,0,.312,0h0a1.018,1.018,0,0,0,.487-.09h.051V165.7H327a1.885,1.885,0,0,0-.273-.259,2.708,2.708,0,0,0-1.733-.421h0a9.584,9.584,0,0,0-1.734.119v3.162h2.023a1.78,1.78,0,0,0,.738-.1l.01,0h.051v1.8h-.051c-.254-.461-.9-.476-1.409-.476h-1.362v4.029l2.159.2c.126.012.252.017.378.017h0a4.235,4.235,0,0,0,2.659-.929c.037-.029.073-.06.108-.091h.051l-.765,2.227" fill="#fff"/><path d="M316.508,174.986h-3.366v-.051c.684-.26.752-1.114.752-1.836h0c0-.176,0-.343,0-.493v-7.582h-1.5a2.952,2.952,0,0,0-2.023.68h-.051l.6-2.023h.051a2.711,2.711,0,0,0,.646.119h6.766a2.162,2.162,0,0,0,.686-.081,1.009,1.009,0,0,0,.1-.038h.051l-.544,2.023h-.051c-.221-.595-.9-.68-1.462-.68h-1.53v7.853h0c0,.915.015,1.55.884,2.058v.051" fill="#fff"/><path d="M288.033,174.935c.7-.247.769-1.117.769-1.846,0-.144,0-.282,0-.41,0,.77.074,1.96-.766,2.256m5.142-5.1a1.864,1.864,0,0,0-1.28-.307h0a1.864,1.864,0,0,1,1.28.307m-4.376-3.713c0-.13,0-.27,0-.416,0-.733-.068-1.595-.769-1.856.84.313.771,1.487.766,2.272" fill="#fff"/><path d="M295.122,174.986h-7.089v-.051h0c.84-.3.771-1.486.766-2.256,0-.024,0-.049,0-.073V166.2c0-.024,0-.049,0-.074,0-.785.074-1.959-.766-2.272h0V163.8h5.44c.106,0,.211,0,.313,0a1.018,1.018,0,0,0,.487-.09h.05V165.7h-.05a2.386,2.386,0,0,0-2.007-.68,9.59,9.59,0,0,0-1.734.119v3.162h2.024a1.743,1.743,0,0,0,.748-.1h.05v1.8h-.05a.733.733,0,0,0-.129-.169,1.864,1.864,0,0,0-1.28-.307h-1.363v4.029l2.159.2c.126.012.252.017.379.017a4.22,4.22,0,0,0,2.766-1.02h.052l-.766,2.227" fill="#fff"/><path d="M264.931,168.305h0a1.942,1.942,0,0,0,.7-.08,1.942,1.942,0,0,1-.7.08m1.717-2.6h0a2.278,2.278,0,0,0-1.879-.679,2.278,2.278,0,0,1,1.879.679m-.487-1.9h0a1.018,1.018,0,0,0,.487-.09h0a1.018,1.018,0,0,1-.487.09" fill="#fff"/><path d="M267.5,174.986h-7.089v-.051c.7-.247.768-1.117.769-1.846h0c0-.172,0-.336,0-.483V166.2c0-.149,0-.316,0-.49h0c0-.733-.068-1.595-.769-1.856V163.8h5.44c.105,0,.21,0,.312,0h0a1.018,1.018,0,0,0,.487-.09h.051V165.7h-.051a2.278,2.278,0,0,0-1.879-.679h-.127a9.584,9.584,0,0,0-1.734.119v3.162h2.023a1.942,1.942,0,0,0,.7-.08l.049-.022h.051v1.8h-.051c-.255-.461-.9-.476-1.409-.476h-1.362v4.029l2.159.2c.125.012.252.017.378.017a4.223,4.223,0,0,0,2.767-1.02h.051l-.765,2.227" fill="#fff"/><path d="M229.826,168.305a1.739,1.739,0,0,0,.748-.1,1.737,1.737,0,0,1-.748.1m1.717-2.6a2.384,2.384,0,0,0-2.006-.68h0a2.382,2.382,0,0,1,2,.68" fill="#fff"/><path d="M232.393,174.986H225.3v-.051c.7-.247.769-1.117.769-1.846h0c0-.172,0-.336,0-.483V166.2c0-.149,0-.316,0-.49h0c0-.733-.068-1.595-.769-1.856V163.8h5.44c.106,0,.211,0,.313,0a1.011,1.011,0,0,0,.486-.09h.051V165.7h-.051a2.382,2.382,0,0,0-2-.68h0a9.566,9.566,0,0,0-1.733.119v3.162h2.022a1.737,1.737,0,0,0,.748-.1h.052v1.8h-.052c-.254-.461-.9-.476-1.408-.476H227.8v4.029l2.158.2c.126.012.252.017.379.017a4.22,4.22,0,0,0,2.766-1.02h.051l-.765,2.227" fill="#fff"/><path d="M223.3,174.986a2.237,2.237,0,0,1-1.936-.806,2.237,2.237,0,0,0,1.936.806m-8.5-.051c.68-.24.753-1.067.753-1.782,0-.156,0-.307,0-.446.008.771.081,1.935-.748,2.228m3.149-.04c-.61-.29-.671-1.1-.671-1.8,0,.7.061,1.509.671,1.8m-2.4-8.8c0-.141,0-.293,0-.451,0-.719-.073-1.538-.753-1.792.829.309.756,1.459.748,2.243" fill="#fff"/><path d="M224.863,174.986H223.3a2.237,2.237,0,0,1-1.936-.806c-.012-.015-.024-.029-.035-.044l-2.075-2.567-1.563-2.4c1.36-.2,2.941-.833,2.941-2.431h0a1.934,1.934,0,0,0-2.079-1.889c-.038,0-.076,0-.114,0a8.885,8.885,0,0,0-1.156.136v7.616c0,.15,0,.316,0,.49h0c0,.7.061,1.509.671,1.8a1.038,1.038,0,0,0,.1.04v.051H214.8v-.051h0c.829-.293.756-1.457.748-2.228,0-.034,0-.068,0-.1V166.2c0-.033,0-.068,0-.1.008-.784.081-1.934-.748-2.243h0V163.8h4.046c2.277,0,3.519,1.19,3.519,2.737a3.319,3.319,0,0,1-2.7,2.992h0l2.448,3.077a11.925,11.925,0,0,0,2.754,2.38" fill="#fff"/><path d="M209.257,168.305h0a1.944,1.944,0,0,0,.7-.08,1.944,1.944,0,0,1-.7.08" fill="#fff"/><path d="M211.824,174.986h-7.089v-.051c.7-.247.768-1.117.768-1.846h0c0-.172,0-.336,0-.483V166.2c0-.149,0-.316,0-.49h0c0-.733-.067-1.595-.768-1.856V163.8h5.44c.1,0,.21,0,.312,0a1.018,1.018,0,0,0,.487-.09h.051V165.7h-.051a2.384,2.384,0,0,0-2.006-.68,9.584,9.584,0,0,0-1.734.119v3.162h2.023a1.944,1.944,0,0,0,.7-.08l.049-.022h.051v1.8h-.051c-.255-.461-.9-.476-1.409-.476h-1.362v4.029l2.159.2c.125.012.252.017.378.017a4.225,4.225,0,0,0,2.767-1.02h.051l-.765,2.227" fill="#fff"/><path d="M200.74,168.305h0a1.762,1.762,0,0,0,.711-.093,1.762,1.762,0,0,1-.711.093" fill="#fff"/><path d="M199.414,174.986H196.2v-.051c.7-.247.768-1.117.768-1.846h0c0-.172,0-.336,0-.483V166.2c0-.149,0-.316,0-.49h0c0-.733-.067-1.595-.768-1.856V163.8h5.44c.105,0,.21,0,.312,0a1.018,1.018,0,0,0,.487-.09h.051v1.972h-.051a2.427,2.427,0,0,0-2.006-.663,9.584,9.584,0,0,0-1.734.119v3.162h2.04a1.762,1.762,0,0,0,.711-.093l.02-.009h.051v1.8h-.051c-.24-.45-.824-.476-1.32-.476H198.7v3.077c0,.185-.008.4-.008.62h0c0,.692.078,1.464.722,1.709v.051" fill="#fff"/><path d="M119.99,174.986h0v-.054c.743-.262.814-1.183.814-1.954,0-.063,0-.126,0-.187.008.8-.009,1.858-.812,2.141v.054m.812-9.636c0-.062,0-.125,0-.188,0-.777-.071-1.689-.814-1.966v-.054h0v.054c.8.3.82,1.343.812,2.154" fill="#fff"/><path d="M127.388,174.986h-7.4v-.054c.8-.283.82-1.339.812-2.141,0-.114,0-.224,0-.325V165.68c0-.1,0-.214,0-.33.008-.811-.009-1.855-.812-2.154v-.054h3.437v.054c-.72.269-.8,1.147-.8,1.905,0,.207,0,.405,0,.579v7.848l2.448.162c.092.006.183.008.273.008a4.444,4.444,0,0,0,2.913-1.106h.054l-.936,2.394" fill="#fff"/><path d="M109.744,174.92c.713-.277.782-1.182.782-1.942,0-.183,0-.357,0-.512V165.68c0-.158,0-.335,0-.518,0-.766-.069-1.663-.782-1.953.884.36.779,1.653.779,2.471v6.786c0,.8.105,2.111-.779,2.454m5.3-1.212h0a4.487,4.487,0,0,0,2.835-1,4.487,4.487,0,0,1-2.835,1m-.4-.018-2.286-.216h0l2.286.216m-.144-5.778h0a2.005,2.005,0,0,0,.75-.089,2.005,2.005,0,0,1-.75.089m1.818-2.754a2.433,2.433,0,0,0-2.018-.719,2.433,2.433,0,0,1,2.018.719" fill="#fff"/><path d="M117.219,174.986h-7.506v-.054l.031-.012c.884-.343.779-1.653.779-2.454V165.68c0-.818.105-2.111-.779-2.471l-.031-.013v-.054h5.76c.111,0,.222,0,.33,0a1.083,1.083,0,0,0,.516-.095h.054v2.106h-.054a2.433,2.433,0,0,0-2.018-.719H114.2a10.147,10.147,0,0,0-1.836.126v3.348H114.5a2.005,2.005,0,0,0,.75-.089l.042-.019h.054v1.908h-.054c-.27-.488-.949-.5-1.492-.5h-1.442v4.266h0l2.286.216c.133.012.266.018.4.018h0a4.487,4.487,0,0,0,2.835-1c.032-.026.063-.053.095-.081h.054l-.81,2.358" fill="#fff"/><path d="M107.9,165.158h0a1.35,1.35,0,0,0-1.357-.716,1.35,1.35,0,0,1,1.357.716" fill="#fff"/><path d="M105.663,174.986H102.1v-.054c.724-.275.8-1.18.8-1.945h0c0-.185,0-.363,0-.521v-8.028h-1.584a3.125,3.125,0,0,0-2.142.72h-.054l.63-2.142H99.8a2.871,2.871,0,0,0,.684.126h7.164a2.006,2.006,0,0,0,.828-.126h.054l-.576,2.142H107.9a1.35,1.35,0,0,0-1.357-.716c-.065,0-.129,0-.191,0h-1.62v8.315h0c0,.968.015,1.641.936,2.179v.054" fill="#fff"/><path d="M71.571,174.932c.724-.275.8-1.18.8-1.945,0-.185,0-.363,0-.521v-6.8c0-.174.006-.371.006-.577,0-.723-.071-1.551-.715-1.854.827.389.709,1.646.709,2.431v6.8c0,.81.108,2.124-.792,2.466" fill="#fff"/><path d="M83.343,174.986H79.905v-.054c.721-.268.8-1.136.8-1.889h0c0-.206-.006-.4-.006-.577v-3.258H74.2v3.258c0,.158,0,.336,0,.521h0c0,.765.072,1.67.8,1.945v.054h-3.42v-.054h0c.9-.342.792-1.656.792-2.466v-6.8c0-.785.118-2.042-.709-2.431-.027-.013-.054-.024-.083-.035v-.054h3.42v.054c-.728.277-.8,1.189-.8,1.966h0c0,.183,0,.36,0,.518v2.232h6.5V165.68c0-.178.006-.378.006-.586h0c0-.762-.077-1.629-.8-1.9v-.054h3.438v.054c-.742.277-.814,1.189-.814,1.956h0c0,.182,0,.355,0,.51v6.8c0,.155,0,.329,0,.51h0c0,.767.072,1.68.814,1.956v.054" fill="#fff"/><polyline points="412.457 157.166 0 157.166 0 156.416 412.457 156.416 412.457 157.166" fill="#fff"/><polyline points="412.457 157.166 0 157.166 0 156.416 412.457 156.416 412.457 157.166" fill="#fff"/><polyline points="412.957 181.341 0.5 181.341 0.5 180.591 412.957 180.591 412.957 181.341" fill="#fff"/><polyline points="412.957 181.341 0.5 181.341 0.5 180.591 412.957 180.591 412.957 181.341" fill="#fff"/><path d="M183.734,71.618a79.261,79.261,0,0,1-10.749-1.008A79.485,79.485,0,0,0,162.222,69.6a26.924,26.924,0,0,0-6.179.652,31.292,31.292,0,0,1,14.434-3.015c2.89,0,5.8.226,8.725.452s5.867.453,8.819.453a38.643,38.643,0,0,0,9.722-1.107c-4.207,3.546-8.989,4.58-14.009,4.58" fill="#fff"/><path d="M187.352,77.306A39.817,39.817,0,0,1,169.27,73.2a47.323,47.323,0,0,0,9.3.878c7.585,0,15.1-1.555,22.559-3.111s14.864-3.111,22.228-3.111a40.267,40.267,0,0,1,16.675,3.355,46.745,46.745,0,0,0-7.853-.641c-7.681,0-15.169,1.684-22.595,3.368s-14.792,3.368-22.231,3.368" fill="#fff"/><path d="M242.405,77.059a79.26,79.26,0,0,1-10.75-1.008,79.47,79.47,0,0,0-10.763-1.007,26.936,26.936,0,0,0-6.179.652,31.3,31.3,0,0,1,14.435-3.015c2.89,0,5.8.226,8.724.452s5.867.453,8.82.453a38.654,38.654,0,0,0,9.722-1.107c-4.208,3.546-8.99,4.58-14.009,4.58" fill="#fff"/><path d="M187.073,5.248l.168-.088a.424.424,0,0,1,.227-.246A33.1,33.1,0,0,1,190.83,3.13a33.1,33.1,0,0,0-3.362,1.784.424.424,0,0,0-.227.246l-.168.088m13.011-1.993c-.218-.086-.423-.213-.635-.307.212.094.417.221.635.307" fill="#fff"/><path d="M202.826,8.669a.187.187,0,0,1-.163-.079,10.27,10.27,0,0,0-2.978-2.933,8.879,8.879,0,0,0-2.477-1.091,2.957,2.957,0,0,0-.812-.088l-.182,0h-.185a4.072,4.072,0,0,1-.5-.026,2.845,2.845,0,0,0-.356-.021,12.2,12.2,0,0,0-1.524.184,9.456,9.456,0,0,0-2.209.64,7.039,7.039,0,0,0-1.814,1.065c-.318.246-.655.4-.946.666-.263.239-.418.575-.751.72l-.255,0c-.542-.356-.852-.894-1.355-1.263a.558.558,0,0,1-.07-.259c0-.4.567-.641.828-.936h0l.168-.088a.424.424,0,0,1,.227-.246A33.1,33.1,0,0,1,190.83,3.13c.218-.086.441-.164.669-.232a18.774,18.774,0,0,1,4.837-.625.758.758,0,0,0,.346.069c.053,0,.105,0,.158,0s.106-.005.159-.005a.991.991,0,0,1,.209.019,14.139,14.139,0,0,1,2.143.557c.032.012.065.026.1.04.212.094.417.221.635.307l.024.01a4.352,4.352,0,0,1,1.117.582,20.16,20.16,0,0,1,1.626,1.327,11.707,11.707,0,0,1,1.6,1.959c.062.089.108.209.17.313.184.305.35.574.524.883l-.065.124c-.726.174-1.427,0-2.152.2a.363.363,0,0,1-.1.014" fill="#fff"/><path d="M207.2.107h0a2.261,2.261,0,0,0-.463-.084,2.27,2.27,0,0,1,.464.084m-1.43,0h0A1.985,1.985,0,0,1,206.41,0h0a1.985,1.985,0,0,0-.64.107" fill="#fff"/><path d="M207.2.107H205.77A1.985,1.985,0,0,1,206.41,0a1.9,1.9,0,0,1,.212.012l.114.011a2.261,2.261,0,0,1,.463.084" fill="#fff"/><path d="M204.343,1.669A2.289,2.289,0,0,1,205.77.107h0a2.291,2.291,0,0,0-1.427,1.562m4.036-.522A2.7,2.7,0,0,0,207.5.255a1.12,1.12,0,0,0-.3-.148h0a1.13,1.13,0,0,1,.3.148,2.7,2.7,0,0,1,.879.892" fill="#fff"/><path d="M206.172,8.851h-.018a.268.268,0,0,1-.256-.256c-.044-.806-.224-1.592-.225-2.4V6.174h0l-.106-.207a6.6,6.6,0,0,0-.24-.794,8.192,8.192,0,0,1-1.069-2.88,2.252,2.252,0,0,1,.085-.624h0A2.291,2.291,0,0,1,205.77.107H207.2a1.12,1.12,0,0,1,.3.148,2.7,2.7,0,0,1,.879.892l.033.064a2.79,2.79,0,0,1,.211.73,2.473,2.473,0,0,1,.042.467,2.862,2.862,0,0,1-.04.468,3.947,3.947,0,0,1-.418,1.13c-.143.283-.343.538-.5.828l-.02.188a2.527,2.527,0,0,0-.405.947,7.926,7.926,0,0,1-.31.95,11.977,11.977,0,0,0-.206,1.476h0l.05.066v.015c0,.319-.4.375-.648.375" fill="#fff"/><path d="M221.069,5.4q-.216-.089-.437-.166.22.078.437.166m-.456-.173-.015,0,.015,0m-.03-.01-.019-.007.019.007m-.019-.007L220.53,5.2l.034.011m-.036-.012-.1-.033.1.033m-.108-.036-.06-.019.06.019m-.076-.025-.018,0,.018,0m4.513-.049-.143-.192a15.668,15.668,0,0,0-2.295-1.257A15.756,15.756,0,0,1,224.714,4.9l.143.193m-4.8-.038h0" fill="#fff"/><path d="M209.142,8.62c-.148,0-.3-.009-.446-.018s-.3-.018-.444-.018h-.013l-.184-.123a4.115,4.115,0,0,1,.868-2.01A9.116,9.116,0,0,1,210.2,4.909a7.408,7.408,0,0,1,2.419-1.534,12.1,12.1,0,0,1,3.555-.886c.023,0,.045,0,.068,0,.226,0,.452.092.671.1a14.626,14.626,0,0,1,5.5,1.058h0A15.668,15.668,0,0,1,224.714,4.9l.143.192.122.015c.534.356.844.828,1.334,1.223l.187.244c-.085.48-.513.737-.8,1.132a.9.9,0,0,1-.251.211h-.126a12.077,12.077,0,0,1-1.162-.85,12.035,12.035,0,0,0-1.271-.878,14.733,14.733,0,0,0-1.823-.786h0q-.216-.089-.437-.166l-.019-.007-.015,0-.015,0-.019-.007h0L220.53,5.2h0l-.1-.033-.008,0-.06-.019-.016-.006-.018,0c-.091-.029-.182-.056-.273-.082h0a12.715,12.715,0,0,0-3.472-.44q-.372,0-.742.015a8.545,8.545,0,0,0-4.378,1.808l-.247.152c-.215.326-.524.511-.7.856l-.181.146c-.1.218-.288.387-.287.639h0c0,.01,0,.021,0,.031V8.27a.286.286,0,0,1-.2.242,2,2,0,0,1-.705.108" fill="#fff"/><path d="M227.981,48.63a.247.247,0,0,1-.151-.048.248.248,0,0,0,.152.048h0m-1.051-1.087a.6.6,0,0,1,.13-.351.6.6,0,0,0-.13.351m1.223-1.754.117-.076c.215-.472.464-.914.662-1.39-.2.476-.446.918-.662,1.39l-.117.076m1.72-4.458c.045-.486.133-.957.133-1.442a3.334,3.334,0,0,0-.035-.5h0a7.842,7.842,0,0,1-.1,1.937m-3.8-9.707c-.207-.132-.46-.172-.594-.379a.82.82,0,0,1-.055-.392.82.82,0,0,0,.055.392c.134.207.387.247.594.379" fill="#fff"/><path d="M227.982,48.63a.248.248,0,0,1-.152-.048h0c-.352-.272-.9-.612-.9-1.033v-.006a.6.6,0,0,1,.13-.351l.033-.043a13.927,13.927,0,0,0,1.06-1.36h0l.117-.076c.216-.472.464-.914.662-1.39l.009-.023a18.886,18.886,0,0,0,.725-1.953,5.2,5.2,0,0,0,.118-.594c.018-.108.074-.241.082-.342,0-.027,0-.053.007-.08a7.842,7.842,0,0,0,.1-1.937l.048-.132h0a10.569,10.569,0,0,0-.789-3.435l-.018-.193a8.286,8.286,0,0,0-1.387-2.239l-.088-.181c-.56-.518-1-1.075-1.611-1.55-.019-.014-.038-.028-.057-.04-.207-.132-.46-.172-.594-.379a.82.82,0,0,1-.055-.392h0c-.007-.138-.012-.278-.012-.419a3.186,3.186,0,0,1,.114-.924c.827.018,1.475.7,2.22,1.008a8.194,8.194,0,0,0,.866.749l.151.249a5.09,5.09,0,0,1,.534.612l.123.077a5.7,5.7,0,0,0,.353.524,3.048,3.048,0,0,1,.306.424c.07.115.085.265.165.385A5.289,5.289,0,0,1,231,35.3a7.219,7.219,0,0,0,.509,1.673c.043.764.156,1.523.183,2.287q.006.169.006.339a20.418,20.418,0,0,1-.216,2.549.941.941,0,0,1-.1.345l-.018.193a2.675,2.675,0,0,0-.143.673,2.489,2.489,0,0,1-.178.408l-.01.2c-.02.139-.176.2-.2.337l-.008.2c-.047.182-.216.3-.246.475h0l.117.132c-.5.338-.592.979-.948,1.475l-.114.073a.871.871,0,0,1-.236.454,15.248,15.248,0,0,1-1.066,1.35.543.543,0,0,1-.355.166" fill="#fff"/><path d="M225.214,46.32c-.02-.259-.035-.514-.035-.771,0,.257.015.512.035.771m.076-1.889a.315.315,0,0,0-.071-.219.315.315,0,0,1,.071.219h0m-6.369-2.223a2.961,2.961,0,0,0-.28-.443c-.747-1-1.575-1.819-2.3-2.763.723.944,1.551,1.764,2.3,2.763a3.039,3.039,0,0,1,.279.443m.16-2.024c-.822-.662-1.388-1.46-2.21-2.124.822.664,1.388,1.462,2.21,2.124M215.8,38.355a.563.563,0,0,1-.237-.456.556.556,0,0,1,.447-.543.555.555,0,0,0-.21,1m1.057-.31c-.115-.092-.19-.224-.293-.308.1.084.178.216.293.308m-.306-.319c-.159-.139-.279-.381-.465-.381a.207.207,0,0,0-.035,0l.035,0c.186,0,.306.242.465.381" fill="#fff"/><path d="M222.227,47.466a1.566,1.566,0,0,1-.39-.678,12.44,12.44,0,0,0-1.266-2.3c-.06-.093-.107-.21-.169-.314-.247-.413-.582-.72-.806-1.144l-.181-.211-.086-.187a.878.878,0,0,1-.375-.357l-.033-.069a3.039,3.039,0,0,0-.279-.443c-.748-1-1.576-1.819-2.3-2.763-.1-.135-.2-.273-.3-.413a.223.223,0,0,1-.047.007c-.125,0-.114-.178-.2-.241h0a.555.555,0,0,1,.21-1l.041-.008h0a.207.207,0,0,1,.035,0c.186,0,.306.242.465.381l.013.011h0c.1.084.178.216.293.308h0l.019.015c.822.664,1.388,1.462,2.21,2.124h0c.29.233.536.489.807.742l.184.087a20.8,20.8,0,0,0,3.23,2.217,14.6,14.6,0,0,0,1.877.956.131.131,0,0,1,.04.026.315.315,0,0,1,.071.219.323.323,0,0,1-.006.068,4.939,4.939,0,0,0-.1,1.05h0c0,.257.015.512.035.771h0c.021.273.181.544.18.809a.532.532,0,0,1-.033.192h-.238a2.925,2.925,0,0,0-1.086-.2,6.011,6.011,0,0,0-1.81.34" fill="#fff"/><path d="M214.3,49.344h0v0m.486-3.16a1.391,1.391,0,0,0,1.048-1.006,1.391,1.391,0,0,1-1.048,1.006m1.237-3.221c-.045-.246-.084-.471-.138-.71.054.239.094.464.138.71m-.5-1.826a5.1,5.1,0,0,0-.276-.54c-.225-.4-.331-.82-.514-1.228a13.237,13.237,0,0,0,.515,1.228,5.28,5.28,0,0,1,.275.54" fill="#fff"/><path d="M217.437,49.566a.178.178,0,0,1-.105-.036,1.75,1.75,0,0,0-1.056-.323,5.139,5.139,0,0,0-.875.1,5.151,5.151,0,0,1-.876.1l-.1,0-.125-.065v-.192A4.523,4.523,0,0,0,214.815,47h0a6.288,6.288,0,0,0-.053-.808l.025,0a1.391,1.391,0,0,0,1.048-1.006h0a4.686,4.686,0,0,0,.288-1.408h0a2.286,2.286,0,0,0-.047-.468c-.02-.1.043-.234-.171-.275l.119-.064h0c-.044-.246-.084-.471-.138-.71l-.006-.027a6.863,6.863,0,0,0-.322-1.01l-.033-.079a5.28,5.28,0,0,0-.275-.54,13.237,13.237,0,0,1-.515-1.228c-.035-.079-.074-.159-.118-.237-.06-.109-.179-.171-.251-.279v-.122c.143-.13.3-.353.461-.353a.19.19,0,0,1,.113.041c1.694,1.281,2.182,3.378,3.042,5.217l.018.193a1.068,1.068,0,0,1,.1.346c.029.158.075.306.111.462a5.064,5.064,0,0,1,.26,1.1c0,.015,0,.031,0,.047a6.077,6.077,0,0,1-.325,2.5.321.321,0,0,0-.023.133h0c0,.059.008.121.008.18a.275.275,0,0,1-.028.136,3.474,3.474,0,0,1-.311.418l-.084.193a.35.35,0,0,1-.27.224" fill="#fff"/><path d="M215.221,54.266c-.084-.011-.169-.023-.253-.036a8.369,8.369,0,0,1-3.317-1.275,8.369,8.369,0,0,0,3.317,1.275l.253.036M211.55,52.89a8.025,8.025,0,0,1-.981-.771,8.025,8.025,0,0,0,.981.771m-3.56-4.767c.016-.095.184-.085.251-.089.529-.03,1.038-.145,1.555-.211-.517.066-1.026.181-1.555.211-.067,0-.235-.006-.251.089" fill="#fff"/><path d="M216.764,54.367a11.957,11.957,0,0,1-1.543-.1l-.253-.036a8.369,8.369,0,0,1-3.317-1.275l-.1-.065h0a8.025,8.025,0,0,1-.981-.771l-.031-.027a23.749,23.749,0,0,1-1.627-1.8c-.188-.772-.923-1.336-.923-2.142v-.01l0-.015c.016-.095.184-.085.251-.089.529-.03,1.038-.145,1.555-.211l.192-.021c.184.27.265.6.538.807a7.217,7.217,0,0,0,2.819,2.7l.077.118a9.034,9.034,0,0,0,3.55.933c.092,0,.185,0,.277-.007a8.691,8.691,0,0,0,3.621-.872,20.92,20.92,0,0,0,4.193-2.856l.3-.127c.234.286.538.436.758.725.12.159.232.308.344.465a2.443,2.443,0,0,1-.685.726c-.692.618-1.339,1.172-2.091,1.737a11.893,11.893,0,0,1-2.415,1.276c-.108.048-.269.074-.38.121a10.5,10.5,0,0,1-4.129.822" fill="#fff"/><path d="M207.912,46.668q-.173,0-.345-.009.172.009.345.009h0" fill="#fff"/><path d="M207.912,46.668q-.173,0-.345-.009h0c-.016-.164-.023-.329-.023-.494a4.686,4.686,0,0,1,2.993-4.582,3.07,3.07,0,0,1,.9-.132,2.413,2.413,0,0,1,2.449,1.575c.017.061.02.139.1.139l.033,0c0,.268.023.537.023.8a2.575,2.575,0,0,1-.06.6c-.224.955-.867,2.1-1.953,2.1a1.526,1.526,0,0,1-.163-.009,1.956,1.956,0,0,1-1.815-1.144c-.543.079-.389.7-.538,1.076-.536.015-1.07.077-1.6.077" fill="#fff"/><path d="M206.066,46.727a.248.248,0,0,1-.045,0l-.124-.067a2.146,2.146,0,0,1-.092-.67c0-.257.025-.516.026-.777,0-.093,0-.187-.012-.281a7.614,7.614,0,0,0,.078,1.728l.124.067a.248.248,0,0,0,.045,0h0m.431-.012a.386.386,0,0,1-.084-.008.386.386,0,0,0,.084.008h0m1.079-4.015a.254.254,0,0,0-.08-.14.254.254,0,0,1,.08.14m-2.077-.291c.405-.176.474-.656.811-.9a.3.3,0,0,1,.176-.056h0a.3.3,0,0,0-.176.056c-.337.244-.406.724-.811.9" fill="#fff"/><path d="M206.066,46.727a.248.248,0,0,1-.045,0l-.124-.067a7.614,7.614,0,0,1-.078-1.728c0-.049-.011-.1-.019-.148a7.376,7.376,0,0,0-.205-1.006,6.278,6.278,0,0,1-.366-1.218l.121-.127.13-.011.019-.008c.405-.176.474-.656.811-.9a.3.3,0,0,1,.176-.056.341.341,0,0,1,.322.235,1.638,1.638,0,0,0,.368.588c.053.058.135.088.2.208l.122.076h0a.254.254,0,0,1,.08.14.264.264,0,0,1,.006.055.247.247,0,0,1-.034.126,6.568,6.568,0,0,0-.654,2.029h0a1.556,1.556,0,0,1,.054.428c0,.327-.074.66-.074.99a1.781,1.781,0,0,0,.02.263.809.809,0,0,1-.4.124.386.386,0,0,1-.084-.008.232.232,0,0,1-.045-.013.244.244,0,0,0-.083-.015.327.327,0,0,0-.11.024.321.321,0,0,1-.109.024" fill="#fff"/><path d="M206.183,56.83a1.936,1.936,0,0,1-.362-.034l-.1-.019.1.019a1.936,1.936,0,0,0,.362.034h0m-1.2-.315a1.492,1.492,0,0,1-.439-.378,1.492,1.492,0,0,0,.439.378m-.439-.378c-.1-.132-.211-.254-.3-.384.091.13.2.252.3.384m-.338-2.886c.11-.14.283-.217.322-.4-.039.181-.212.258-.322.4m.96-1.6a3.792,3.792,0,0,0,.483-1.172,17.038,17.038,0,0,0,.47-2.448,17.038,17.038,0,0,1-.47,2.448,3.792,3.792,0,0,1-.483,1.172m1.332-3.79c.035,0,.07-.005.105-.005h0c-.035,0-.07,0-.105.005" fill="#fff"/><path d="M206.183,56.83a1.936,1.936,0,0,1-.362-.034l-.1-.019a2.5,2.5,0,0,1-.74-.262,1.492,1.492,0,0,1-.439-.378h0c-.1-.132-.211-.254-.3-.384a1.3,1.3,0,0,1-.158-.29c-.137-.371-.083-.764-.217-1.138.141-.359.085-.749.339-1.074h0c.11-.14.283-.217.322-.4l0-.009c.064-.344.4-.512.427-.871l.107-.071a.62.62,0,0,1,.1-.25h0a3.792,3.792,0,0,0,.483-1.172,17.038,17.038,0,0,0,.47-2.448c.011-.054.022-.109.034-.163a.626.626,0,0,0,.114.009c.055,0,.112-.005.168-.01l.063-.006c.035,0,.07-.005.105-.005a.5.5,0,0,1,.29.079c.064,1.1.471,2.148.471,3.243v.053h0a7.379,7.379,0,0,1,.326.878l.023.258a5.072,5.072,0,0,1,.73,2.024c0,.032,0,.063,0,.094a5.8,5.8,0,0,1-.223,1.047l-.111.074a2.2,2.2,0,0,1-1.931,1.223" fill="#fff"/><path d="M199.087,51.48a10.148,10.148,0,0,0,1.679-.9,10.148,10.148,0,0,1-1.679.9m5.05-.988v-.019a.324.324,0,0,0-.264-.308.324.324,0,0,1,.264.327" fill="#fff"/><path d="M196.012,53.829a12.75,12.75,0,0,1-3.163-.417,9.238,9.238,0,0,1-2.9-1.037,7.89,7.89,0,0,1-3.613-2.236v-.3c.364-.309.622-.684.99-.964.567,0,.959.549,1.352.934l.122.015a17.606,17.606,0,0,0,3.237,1.666l.195.016a11.167,11.167,0,0,0,3.3.577c.128.012.255.017.382.017a15.081,15.081,0,0,0,1.967-.226,8.522,8.522,0,0,0,1.208-.4h0a10.148,10.148,0,0,0,1.679-.9l.071-.035a1.947,1.947,0,0,0,.621-.653l.242-.153.089-.18c.146-.066.149-.252.327-.3l.011-.112c.329-.321.41-.777.732-1.084.091.008.183.011.275.011.134,0,.269-.007.4-.013s.27-.013.4-.013a2.354,2.354,0,0,1,.665.082,2.254,2.254,0,0,1-.262.877,3.671,3.671,0,0,0-.388.943.215.215,0,0,0,0,.043h0c0,.158.2.246.2.413a.258.258,0,0,1-.014.078h0a.324.324,0,0,0-.264-.327h-.007l-.028,0c-.112,0-.081.119-.123.184a5.745,5.745,0,0,1-.863,1.147l-.25.151a3.146,3.146,0,0,1-.767.642c-.109.075-.265.083-.38.167a4.372,4.372,0,0,1-2.227.864,10.011,10.011,0,0,1-3.216.512" fill="#fff"/><path d="M203.061,46.793c.012-.325.1-.664.1-.99,0,.326-.089.665-.1.99m-4.3-2.685h0a4.337,4.337,0,0,1,.141-1.078,2.2,2.2,0,0,1,.63-1.019,2.2,2.2,0,0,0-.63,1.019,4.337,4.337,0,0,0-.141,1.078m1.055-2.348a2.272,2.272,0,0,1,.96-.333,2.439,2.439,0,0,1,.428-.038h0a2.439,2.439,0,0,0-.428.038,2.272,2.272,0,0,0-.96.333" fill="#fff"/><path d="M204.131,46.917c-.356,0-.716-.1-1.07-.124h0c.012-.325.1-.664.1-.99h0a1.074,1.074,0,0,0-.2-.668.076.076,0,0,0-.061-.036c-.089,0-.194.184-.232.286a1.871,1.871,0,0,1-1.743,1.159,1.827,1.827,0,0,1-.286-.022,2.743,2.743,0,0,1-1.749-1.41,3.974,3.974,0,0,1-.129-1,4.337,4.337,0,0,1,.141-1.078,2.2,2.2,0,0,1,.63-1.019c.06-.059.122-.116.185-.172a1.038,1.038,0,0,1,.1-.079,2.272,2.272,0,0,1,.96-.333,2.439,2.439,0,0,1,.428-.038,3.99,3.99,0,0,1,2.528,1.235,1.051,1.051,0,0,0,.538.739c.067.288.249.524.33.809.109.38.081.761.193,1.146a.525.525,0,0,1,.023.153.518.518,0,0,1-.066.251h0l.049.058c-.186.357-.02.769-.26,1.08a1.365,1.365,0,0,1-.409.057" fill="#fff"/><path d="M196.743,49.443l.038,0-.038,0m-2.263-4.338c.014-.181.17-.347.233-.534-.063.187-.219.353-.233.534m.372-1.132c.188-.539.355-1.076.555-1.614l.181-.211-.181.211c-.2.538-.367,1.075-.555,1.614" fill="#fff"/><path d="M195.26,49.819c-.107-.205-.282-.36-.371-.553a4.381,4.381,0,0,1-.37-1.061,7.442,7.442,0,0,1-.116-1.389c0-.568.046-1.13.076-1.7v-.008c.014-.181.17-.347.233-.534h0l.018-.263c.042-.112.082-.223.121-.335.188-.539.356-1.076.555-1.614l.181-.211c.742-1.338,1.214-2.8,2.517-3.732a.275.275,0,0,1,.164-.054.448.448,0,0,1,.353.227c-.129.561-.606.965-.672,1.546a1.22,1.22,0,0,0-.324.544,5.88,5.88,0,0,0-.237,1,2.638,2.638,0,0,0-.084.344c-.045.58-.2,1.144-.2,1.713,0,.033,0,.066,0,.1a2.948,2.948,0,0,0,1.507,2.575v.18a5.084,5.084,0,0,0-.227.8,2.817,2.817,0,0,0-.106.7h0a1.726,1.726,0,0,0,.029.318,4.228,4.228,0,0,1,.155.766.651.651,0,0,1-.045.247c-.32,0-.638-.018-.957-.018a5.042,5.042,0,0,0-.682.04l-.038,0h0c-.51.075-.987.252-1.483.376" fill="#fff"/><path d="M188.185,43.714a8.269,8.269,0,0,0,1.962-1.026c.13-.074.272-.1.4-.164-.126.068-.268.09-.4.164a8.269,8.269,0,0,1-1.962,1.026m4.178-2.308c.13-.095.209-.228.341-.315-.132.087-.211.22-.341.315m.348-.319a4.447,4.447,0,0,0,.774-.553,4.447,4.447,0,0,1-.774.553m2.866-2.452a3.873,3.873,0,0,0,.524-.541c.179-.243.4-.652.685-.652h0c-.286,0-.506.409-.685.652a3.873,3.873,0,0,1-.524.541" fill="#fff"/><path d="M186.853,48.071l.012-.189c.122-.111.192-.249.321-.353l.088-.253a2.68,2.68,0,0,0,.479-1.672h0c0-.549-.086-1.108-.086-1.65,0-.017,0-.035,0-.053l.06-.12a2.21,2.21,0,0,0,.457-.067,8.269,8.269,0,0,0,1.962-1.026c.13-.074.272-.1.4-.164a.561.561,0,0,0,.068-.044c.576-.43,1.173-.65,1.75-1.074h0c.13-.095.209-.228.341-.315l.007,0h0a4.447,4.447,0,0,0,.774-.553l.01-.011c.679-.684,1.369-1.242,2.082-1.888h0a3.873,3.873,0,0,0,.524-.541c.179-.243.4-.652.685-.652a.331.331,0,0,1,.141.034c.212.1.482.269.483.493a.4.4,0,0,1-.137.279,4.568,4.568,0,0,0-.655.686c-.569.89-1.245,1.579-1.894,2.414l-.086.187c-.409.537-.783,1.022-1.236,1.516-.062.068-.1.21-.172.3a6.805,6.805,0,0,0-.911,1.362c-.064.148-.228.146-.281.264a6.45,6.45,0,0,1-.406.672.079.079,0,0,0-.012.046h0v.015c0,.034-.006.074-.105.163a.852.852,0,0,0-.112.3c-.107.362-.218.712-.323,1.08l-.122.121a4.906,4.906,0,0,0-.648-.042,6.94,6.94,0,0,0-2.649.6,2.859,2.859,0,0,1-.808.133" fill="#fff"/><path d="M181.246,40.047a8.121,8.121,0,0,1-.049-.956c0-.419.02-.835.02-1.252,0-.176,0-.352-.013-.528h0c.05.912-.068,1.807.042,2.736m1.575-7.1.188-.209a4.142,4.142,0,0,1,1.176-1.475,4.153,4.153,0,0,0-1.176,1.475l-.188.209m1.423-1.735.186-.086a8.724,8.724,0,0,1,2.807-1.72,8.724,8.724,0,0,0-2.807,1.72l-.186.086" fill="#fff"/><path d="M184.75,48.141a.341.341,0,0,1-.294-.153c-.259-.393-.459-.776-.748-1.14a3.846,3.846,0,0,1-.332-.47,11.838,11.838,0,0,0-.692-1.334,30.141,30.141,0,0,1-1.426-4.907c-.005-.03-.008-.06-.012-.09-.11-.929.008-1.824-.042-2.736.156-.435.1-.9.225-1.339.234-.807.622-1.518.919-2.293.246-.184.283-.494.473-.737h0l.188-.209a4.153,4.153,0,0,1,1.176-1.475l.059-.051h0l.186-.086a8.724,8.724,0,0,1,2.807-1.72l.025-.008.115.117c0,.053,0,.106,0,.159,0,.385-.023.766-.023,1.149h0a6.045,6.045,0,0,0,.036.709c-.382.244-.875.3-1.185.629-.335.357-.727.6-1.053.968a8.4,8.4,0,0,0-2.135,5.542h0a7.787,7.787,0,0,0,.265,2.009l.013.2c.056.162.117.319.186.477l.014.2.108.205a12.476,12.476,0,0,0,.382,1.27,3.264,3.264,0,0,0,.236.614l.018.193c.536,1.016.874,2.2,1.806,2.9a.712.712,0,0,1,.025.183c0,.351-.3.584-.623.771a2.589,2.589,0,0,0-.346.32.554.554,0,0,1-.352.141" fill="#fff"/><path d="M187.455,40.877c-.792-.27-1.773,0-2.421-.6a4.083,4.083,0,0,0,.666-2.142,2.418,2.418,0,0,0-.306-1.17.214.214,0,0,1-.027-.108,1.663,1.663,0,0,1,.009-.216c.765.027,1.521-.063,2.286-.108l.252.189a3.194,3.194,0,0,0,1.305.972,4.5,4.5,0,0,0,1.332.27,8.7,8.7,0,0,0,5.175-1.728c.261.081.621.2.621.5a.4.4,0,0,1-.009.1,15.921,15.921,0,0,1-3.1,2.43c-.09.063-.189.036-.261.081a11.708,11.708,0,0,1-1.62.792,10.313,10.313,0,0,1-3.78.738h-.126m36.45-.4-.063.045a11.312,11.312,0,0,1-6-2.727c-.09-.081-.207-.153-.306-.234a4.357,4.357,0,0,1-.567-.513c-.072-.1-.252-.09-.306-.216-.072-.162-.234-.243-.234-.4a.278.278,0,0,1,.018-.072c.108-.288.315-.477.585-.3a13.461,13.461,0,0,0,3.123,1.548,3.856,3.856,0,0,0,4.383-1.5l.243-.009a4.683,4.683,0,0,0,1.485.333,1.8,1.8,0,0,0,.477-.072.81.81,0,0,1,.72.018v.171a1.474,1.474,0,0,0-.36.693,6.59,6.59,0,0,0-.036.729c-.009.3.009.585.009.882a6.59,6.59,0,0,1-.036.729c-.018.225-.252.324-.441.477a1.409,1.409,0,0,1-.486.162,3.936,3.936,0,0,1-1.512.333,3.156,3.156,0,0,1-.693-.081m-22.383-1.368a1.255,1.255,0,0,1-.5-1.1c.009-.1.009-.2.027-.3s.1-.18.117-.27a4.973,4.973,0,0,1,.81-1.485c.054-.108.108-.225.162-.315.252-.4.576-.675.792-1.089l.117-.081a10.635,10.635,0,0,1,.675-.936c.081-.126.09-.243.207-.342l.081-.18c.243-.243.36-.576.657-.756.135.117.324.063.477.126.252.1.531.189.648.423.3.558.243,1.224.639,1.728l.18-.063a3.357,3.357,0,0,0,.189-.6,1.517,1.517,0,0,1,.288-.738c.1-.09.045-.234.135-.333.252-.261.657-.477.918-.243.423.387.747.846,1.152,1.269l.09.18a14.9,14.9,0,0,1,1.791,2.169,3.054,3.054,0,0,1,.531.936,3.219,3.219,0,0,1,.09.72,1.3,1.3,0,0,1-.342.945,5.9,5.9,0,0,1-3.96,1.467q-.675.054-1.35.054a8.316,8.316,0,0,1-4.626-1.188m11.736-1.791a33.585,33.585,0,0,0-2.7-3.87,6.925,6.925,0,0,1-1.008-1.395.361.361,0,0,1-.027-.135c0-.324.414-.612.738-.666.243.261.468.5.729.747l.153.252c.342.342.756.567,1.08.936a6.4,6.4,0,0,0,.711.576,5.153,5.153,0,0,0,2.7,1.53.389.389,0,0,1,.252.369,1.214,1.214,0,0,1-.207.549,7.842,7.842,0,0,1-1.854,1.764.338.338,0,0,1-.09.009c-.306,0-.342-.423-.477-.666m-14.112.4a.6.6,0,0,0-.252-.009c-.387-.315-.765-.621-1.134-.963a10.718,10.718,0,0,1-.819-1.062.3.3,0,0,1-.081-.216.58.58,0,0,1,.027-.18l.243-.09a22.608,22.608,0,0,1,2.025-1.134l.207-.189a14.556,14.556,0,0,0,2.367-1.737,4.611,4.611,0,0,1,1.134-.819c.126.135.306.243.378.414a.235.235,0,0,1,.027.1c-.009.162-.234.27-.351.423a35.6,35.6,0,0,0-2.754,3.762l-.117.081-.018.189a9.988,9.988,0,0,0-.477,1.278.233.233,0,0,1-.243.171,1.113,1.113,0,0,1-.162-.018M189.426,36a1.6,1.6,0,0,1-.819-1.179c-.009-.09-.018-.171-.018-.252a2.653,2.653,0,0,1,.09-.747c.216-.846,1-1.17,1.737-1.422a.325.325,0,0,0,.045-.171c-.009-.189-.207-.324-.387-.405a4.456,4.456,0,0,0-1.2-.4c-.279-.036-.153-.351-.279-.576.135-.432-.036-.918.207-1.341a3.072,3.072,0,0,1,1.071.09c.108.027.234.063.342.09a2.288,2.288,0,0,1,1.485.621l.189.081a2.823,2.823,0,0,1,1.368,2.5,3.41,3.41,0,0,1-.09.855,3.174,3.174,0,0,1-2.673,2.565A1.983,1.983,0,0,1,189.426,36m32.535-.261a2.641,2.641,0,0,1-1.4-.6,2,2,0,0,1-.81-1.26,7.433,7.433,0,0,1-.072-.882,1.937,1.937,0,0,1,.18-.864l.018-.2a6.874,6.874,0,0,1,.693-1.26,1.759,1.759,0,0,1,.792-.657,5.062,5.062,0,0,1,3.15-.441.943.943,0,0,1,.045.351,5.671,5.671,0,0,1-.207,1.062c-.036.144-.144.3-.306.243a1.233,1.233,0,0,0-.819.162,1.836,1.836,0,0,0-.522.351l.063.18a4.23,4.23,0,0,1,.936.351,2.334,2.334,0,0,1,.774.882,1.454,1.454,0,0,1,.135.621,1.386,1.386,0,0,1-.126.63,2.333,2.333,0,0,1-2.151,1.359,2.67,2.67,0,0,1-.378-.027m-25.488-1.791c-1-.252-1.314-1.251-1.584-2.1a2.735,2.735,0,0,1-.135-.666c-.081-.657-.18-1.287-.27-1.944a4.888,4.888,0,0,1-.054-.882c.009-.648.1-1.287.171-1.944.009-.09.108-.18.108-.27a5.882,5.882,0,0,1,.765-2.619c.045-.09.162-.144.189-.27l.009-.126a.851.851,0,0,1,.792-.441c.108.009.225,0,.342,0a2.155,2.155,0,0,1,.531.045,6.97,6.97,0,0,1,1.35.666c.414.189.567.63,1.008.81.09.045.144.18.225.234A16.78,16.78,0,0,1,201.9,26.1c.081.081.207.18.216.315s.009.27.009.4c0,.225-.009.45-.009.675-.378.351-.882.369-1.341.6l-.117.18a3.085,3.085,0,0,0,1.116.513.735.735,0,0,1,.414.783,3.88,3.88,0,0,1-.072.675c-.225.18-.468.315-.684.522-.09.081-.207.153-.306.234a3.911,3.911,0,0,0-.369.306l-.18.09c-.405.486-1.026.621-1.458,1.026A8.636,8.636,0,0,1,197,33.857a.883.883,0,0,1-.387.108.7.7,0,0,1-.135-.018m19.638-.351a5.043,5.043,0,0,1-1.809-.81c-1.3-.792-2.457-1.611-3.645-2.466.054-.522.2-1.035.27-1.548a4.721,4.721,0,0,0,1.008-.4c-.036-.432-.54-.369-.8-.6a1.3,1.3,0,0,1-.36-1,2.236,2.236,0,0,1,.018-.351c.63-.639,1.44-1.017,2.106-1.665l.18-.09a13.021,13.021,0,0,1,1.485-1.071,5,5,0,0,1,1.62-.783,1.358,1.358,0,0,1,1.521.792l.09.189a1.847,1.847,0,0,1,.495.954,13.97,13.97,0,0,1,.405,3.087,9.077,9.077,0,0,1-.495,3.033l-.018.189a1.286,1.286,0,0,0-.1.351,3.024,3.024,0,0,1-1.116,2.124.785.785,0,0,1-.45.117,3.1,3.1,0,0,1-.405-.045m-10.3-1.89a1.711,1.711,0,0,1-.864-.252,3.285,3.285,0,0,1-1.053-1.089,6.605,6.605,0,0,1-.477-1.062,2.6,2.6,0,0,1-.243-1.035,1.278,1.278,0,0,1,.027-.369,4.017,4.017,0,0,1,.81-1.944,5.424,5.424,0,0,1,.945-.8,2.221,2.221,0,0,1,1.2-.405,3.147,3.147,0,0,1,2.565.783l.117.018a1.887,1.887,0,0,1,.459.468l.09.189a2.257,2.257,0,0,1,.567,1.35c.009.117.009.234.009.342a3.641,3.641,0,0,1-1.2,3.006,3.709,3.709,0,0,1-1.332.765,2.807,2.807,0,0,1-.72.081c-.3,0-.594-.027-.9-.045M181.092,30.5a1.76,1.76,0,0,1-1.305-.378l-.18-.09a2.168,2.168,0,0,1-.72-1.071,2.712,2.712,0,0,1-.108-.7,1.754,1.754,0,0,1,.072-.567,2.947,2.947,0,0,1,.756-1.062c.225-.27.585-.261.855-.486a2.558,2.558,0,0,0,.585-.036,2.234,2.234,0,0,1,.693-.009,10.473,10.473,0,0,1,1.485.45,4.533,4.533,0,0,0,3.834.963l.234.117c.018.216.081.459.081.684a.567.567,0,0,1-.18.459,6.7,6.7,0,0,0-3.222.621,6.938,6.938,0,0,0-.981.621,2.489,2.489,0,0,1-1.584.486h-.315m49.689-.279c-1.683-.6-3.195-1.809-5.058-1.656v-.018c.009-.072-.063-.117-.063-.189a.2.2,0,0,1,.063-.126.681.681,0,0,1-.09-.351c0-.063.009-.135.009-.2a.832.832,0,0,0-.036-.261l.117-.18a9.079,9.079,0,0,0,2.421-.108,1.605,1.605,0,0,0,.459-.144,10.029,10.029,0,0,0,1.557-.774,2.3,2.3,0,0,1,3.2.558,2.209,2.209,0,0,1,.405,1.26v.117a2.924,2.924,0,0,1-.189.819,1.5,1.5,0,0,1-.216.315,2.467,2.467,0,0,1-1.926,1.053,1.841,1.841,0,0,1-.657-.117M220.35,29.168l-.018-.261c-.162-.351-.666-.6-.666-.972a.379.379,0,0,1,.036-.162c.126-.3.513-.414.657-.747l.18-.117c.531.063.891.549,1.422.567.765.018,1.521.1,2.286.1l.234.126a5.459,5.459,0,0,1,.063.567.555.555,0,0,1-.162.432,1.514,1.514,0,0,0-.6-.009,1.932,1.932,0,0,1-.6-.009c-.117-.027-.243-.072-.351-.09-.747-.108-1.71-.054-2.079.72-.036,0-.081.009-.126.009a.248.248,0,0,1-.27-.153m-28.791-.126a13,13,0,0,0-2.889-.342.513.513,0,0,0,.009-.117c0-.153-.027-.315-.027-.477a.661.661,0,0,1,.081-.342,11.4,11.4,0,0,0,2.358-.261l.2-.018a5.112,5.112,0,0,1,1.35-.468,4.923,4.923,0,0,1,.855,1.089v.243a6.756,6.756,0,0,0-.9.648c-.063.072-.126.252-.234.3a.373.373,0,0,1-.144.027c-.225,0-.432-.2-.657-.279m30.735-2.088a3.957,3.957,0,0,1-1.71-1.431,1.533,1.533,0,0,1-.261-.513,1.5,1.5,0,0,0-.45-.747,3.168,3.168,0,0,1-.045-.576,3.46,3.46,0,0,1,.423-1.656,1.436,1.436,0,0,0,.108-.315l.108-.081c.153-.36.6-.531.819-.864a2.3,2.3,0,0,1,2.412.009,2.342,2.342,0,0,1,1.008,2.007,2.452,2.452,0,0,1-.189.873,1.974,1.974,0,0,1-1.35.7c-.1,0-.315.036-.306.2V24.6c.081.351.459.477.783.6.234.09.549.009.738.207a2.5,2.5,0,0,0-.063.63v.324a2.865,2.865,0,0,1-.072.729,1.44,1.44,0,0,1-.5.081c-.486,0-.963-.189-1.449-.216m-33.615.135a1.21,1.21,0,0,1-.072-.432c0-.324.081-.657.09-.981,0-.126.018-.351.18-.378a3.222,3.222,0,0,0,1.188-.45l-.054-.225a1.907,1.907,0,0,1-1.107-.648,1.233,1.233,0,0,1-.261-.792,2.912,2.912,0,0,1,.252-1.062,1.311,1.311,0,0,1,.522-.666,2.28,2.28,0,0,1,2.349-.351c1.134.126,1.629,1.368,1.62,2.43,0,.108-.009.216-.018.324a3.113,3.113,0,0,1-.738,1.611,3.731,3.731,0,0,1-1.881,1.251,13.819,13.819,0,0,1-1.944.423l-.126-.054m-3.51-.945c-.144-.324-.513-.414-.72-.675-.189-.234-.324-.5-.513-.711l-.234-.234a12.132,12.132,0,0,1-2.016-3.96l-.018-.261a10.029,10.029,0,0,1-.333-2.673c0-.612.036-1.224.09-1.836.018-.207.1-.4.135-.6a3.246,3.246,0,0,0,.09-.342,8.4,8.4,0,0,1,.351-1.62l.018-.261a8.945,8.945,0,0,0,.333-1.215c.27-.18.3-.549.486-.792a5.671,5.671,0,0,0,.45-.747l.18-.144a2.182,2.182,0,0,1,.558-.8c.153-.144.153-.324.315-.5l.108-.216c.225-.171.3-.414.522-.567l.189-.054c.5.405,1.161.72,1.323,1.341v.009c0,.072-.144.189-.189.306l-.18.144c-.405.7-.855,1.314-1.2,2.025a5.348,5.348,0,0,0-.468.936c-.126.45-.342.837-.468,1.278a13.693,13.693,0,0,0-.522,3.789,12.436,12.436,0,0,0,.162,1.989,12.83,12.83,0,0,0,1.269,2.5l.081.189.2.207a8.042,8.042,0,0,0,2.016,2.223.322.322,0,0,1,.108.252c0,.027-.009.054-.009.072-.126.612-.036,1.161-.108,1.755l-.189.126a3.961,3.961,0,0,1-1.818-.936m40.491.612c0-.369-.162-.792-.171-1.17a.718.718,0,0,1,.261-.621c.306-.252.693-.36,1.035-.594a5.139,5.139,0,0,0,1.35-1.53,9.668,9.668,0,0,0,1.764-5.616,10.471,10.471,0,0,0-.207-1.971,2.943,2.943,0,0,1-.342-.873l-.108-.207a4.713,4.713,0,0,0-.324-.927,12.533,12.533,0,0,0-1.332-2.754c-.153-.243-.324-.459-.5-.7a.512.512,0,0,1-.108-.315c.009-.342.441-.612.756-.819l.072-.117c.288-.162.6-.333.864-.009l.009.135c.027.153.2.144.27.261.333.513.576.99.918,1.494.072.117.09.261.162.387a11.556,11.556,0,0,1,1.008,2.358c.045.144.144.261.189.4l.018.2a4.343,4.343,0,0,1,.153.531,11.262,11.262,0,0,1,.432,3.087,10.426,10.426,0,0,1-.585,3.447l-.018.27c-.045.144-.144.261-.189.405l-.018.2a11.491,11.491,0,0,1-1.287,2.133c-.054.081-.171.135-.243.225a8.733,8.733,0,0,1-.567.783,8.586,8.586,0,0,1-1.6,1.413,3.342,3.342,0,0,1-1.665.558v-.063m-22.986-1.494c-1.35-1.125-2.574-2.16-3.933-3.267a2.5,2.5,0,0,0-1.4-.621l-.243-.009a.71.71,0,0,1-.045-.27.98.98,0,0,1,.234-.585,6.28,6.28,0,0,1,1.674-1.269c.108-.072.306-.162.369-.072.3.459.531.909.792,1.386a2.03,2.03,0,0,0,.333.468c.585.63,1.044,1.3,1.647,1.908l.081.171c.207.063.243.261.387.378l.09.171a3.892,3.892,0,0,1,.855.819v.189a7.624,7.624,0,0,1-.6.6h-.243m7.065-.468a.245.245,0,0,1-.036-.144.176.176,0,0,1,.09-.171c.144-.072.144-.279.333-.279.054-.243.279-.351.423-.513.216-.243.405-.486.621-.72a16.884,16.884,0,0,0,1.485-2.016,4.885,4.885,0,0,0,.909-2.061l.189-.126.207.18a5.325,5.325,0,0,1,1.917,1.773,1.129,1.129,0,0,1,.261.63.317.317,0,0,1-.306.333,8.611,8.611,0,0,0-3.285,1.575l-.144.189a7.963,7.963,0,0,0-.792.567,16.655,16.655,0,0,1-1.368,1.044.225.225,0,0,1-.126.036.458.458,0,0,1-.378-.3m-2.025-.882a2.575,2.575,0,0,1-.954-1.8l-.126.072a2.694,2.694,0,0,1-1.368,1.71c-1.116.387-1.539-.9-2.2-1.593-.153-.162-.171-.4-.288-.585a17.615,17.615,0,0,1-1.134-1.755,1.154,1.154,0,0,1-.432-.927,2.1,2.1,0,0,1,.063-.477,2.652,2.652,0,0,1,1.926-1.8,19.255,19.255,0,0,1,2.214-.414,8.365,8.365,0,0,1,1.4-.117,17.812,17.812,0,0,1,2.286.2,2.125,2.125,0,0,1,.612.162l.261.018c.738.306,1.656.522,1.926,1.35a1.715,1.715,0,0,1,.072.486,1.894,1.894,0,0,1-.072.5,2.549,2.549,0,0,1-.189.468,5.178,5.178,0,0,1-.747,1.26c-.576.63-.963,1.332-1.575,1.926l-.081.189c-.261.369-.594.612-.819,1a.46.46,0,0,1-.414.234.764.764,0,0,1-.369-.108m-11.763-3.645a10.207,10.207,0,0,0-4.122-1.638,3.114,3.114,0,0,0-1.6.153A2.923,2.923,0,0,0,188.4,20.1a6.416,6.416,0,0,1-1.008-.189,3.5,3.5,0,0,0-1.4.081c-.279.072-.531.225-.819.3-.081.018-.225.063-.252-.063a.224.224,0,0,1-.009-.072c-.009-.351.4-.531.468-.864a2.434,2.434,0,0,0,.468-1.746.91.91,0,0,1-.135-.549V16.73a4.284,4.284,0,0,1,1.953-.72,7.469,7.469,0,0,1,2.961.108c2.349.621,4.671,1.719,5.985,3.771a.645.645,0,0,1-.5.423.367.367,0,0,1-.162-.045m20.754-.387a.24.24,0,0,1,.027-.108,5.247,5.247,0,0,1,1.881-1.53,14.725,14.725,0,0,1,3.42-1.773,9.04,9.04,0,0,1,4.563-.45,5.3,5.3,0,0,1,1.017.369l.189.018a.269.269,0,0,1,.153.261,1.649,1.649,0,0,1-.135.468l-.018.2a2.414,2.414,0,0,0-.324.891.713.713,0,0,0,.054.261l-.045.126a6.478,6.478,0,0,1,.252,1.08,1.126,1.126,0,0,1-.729.027,1.282,1.282,0,0,0-.612-.009,5.268,5.268,0,0,0-1.017.306c-.09.036-.117-.027-.144-.09s-.054-.117-.117-.1c-.351-.846-1.377-.963-2.151-1.215a9.669,9.669,0,0,0-5.922,1.62c-.153-.072-.333-.207-.342-.351M196.554,18.8a9.552,9.552,0,0,0-2.439-2.268,4.358,4.358,0,0,0-.684-.666c-.342-.3-.756-.459-1.089-.783-.009-.009-.027-.018-.036-.036h-.018a.019.019,0,0,0-.018-.018,3.46,3.46,0,0,1-.36-.189,14.446,14.446,0,0,0-2.637-1.467c-.459-.45-1.161-.477-1.611-.945.018-.45.144-.864.153-1.305,0-.1-.009-.2-.018-.306a3.278,3.278,0,0,0-.315-1.161.32.32,0,0,1-.045-.171c0-.063.018-.117.09-.126.3-.027.6-.027.909-.027a6,6,0,0,0,1.44-.1c.243-.054.5-.216.729-.135.261.1.27.459.432.693.1.126.216.243.3.369.531.855,1.179,1.539,1.638,2.4.144-.009.207.126.252.207.144.243.216.5.36.729l.189.207a15.366,15.366,0,0,0,1.332,1.764l.09.162c.117.018.081.171.162.171a.054.054,0,0,0,.036-.009,7.535,7.535,0,0,0,.927,1.152c.126.135.18.342.306.432a3.781,3.781,0,0,1,.5.513.931.931,0,0,1,.234.315l.117.081a.415.415,0,0,1,.09.279.494.494,0,0,1-.36.441.565.565,0,0,1-.171.027.693.693,0,0,1-.477-.234m19.431-.054a.277.277,0,0,1-.009-.09c-.009-.189.153-.369.315-.531.351-.36.621-.783,1.026-1.134l.081-.171a5.882,5.882,0,0,0,.738-.891.659.659,0,0,1,.252-.216l.09-.18c.207-.225.36-.468.567-.7.288-.315.477-.666.756-.99l.09-.189a26.971,26.971,0,0,0,1.584-2.844,12.389,12.389,0,0,0,.693-1.539.241.241,0,0,1,.324-.126c.864.3,1.809.738,2.7.2l.126.063-.009.261a5.428,5.428,0,0,0-.324,1.458,1.608,1.608,0,0,0,.072.5,2.418,2.418,0,0,1,.171.666.384.384,0,0,1-.243.4l-.2.018c-.558.3-1.116.531-1.674.81-.378.189-.711.423-1.089.576a2.767,2.767,0,0,0-.531.225c-.567.414-1.116.729-1.683,1.071,0,.009.009.018.009.027.009.144-.18.135-.243.216a12.522,12.522,0,0,1-1.008.936c-.5.486-1.026.936-1.548,1.413-.288.261-.45.63-.783.819a.3.3,0,0,1-.135.036.121.121,0,0,1-.117-.09m-1.224-.8c.225-.8.738-1.458.927-2.295a9.618,9.618,0,0,0,.306-2.169,5.584,5.584,0,0,0-.153-1.323,2.617,2.617,0,0,0-1.35-1.755l-.117-.189c.045-.594.315-1.116.324-1.728a1.856,1.856,0,0,0-.045-.432,3.375,3.375,0,0,1-.117-.54.21.21,0,0,1,.225-.234,7.051,7.051,0,0,1,1.278.225,3.641,3.641,0,0,0,1.548-.252c.5.387.423,1.17.6,1.746a17.609,17.609,0,0,1-.342,4.1c-.153.594-.3,1.152-.477,1.746a12.052,12.052,0,0,1-.612,1.4c-.288.684-.783,1.26-1.053,1.962-.072,0-.153.009-.225.009a.789.789,0,0,1-.72-.279m-16.875.261c-.207-.018-.3-.225-.369-.351-.342-.585-.675-1.134-.963-1.737-.522-1.08-.972-2.142-1.467-3.231a4.4,4.4,0,0,1-.333-1.269,10.433,10.433,0,0,1-.1-1.17v-.171a5.478,5.478,0,0,1,.2-1.62l.009-.189a13.076,13.076,0,0,1,.6-1.35,4.175,4.175,0,0,0,2.691.018l.117.108a4.914,4.914,0,0,1-.126,1.152,11.989,11.989,0,0,1,.27,1.881,2.315,2.315,0,0,0-1.062,1.485,1.315,1.315,0,0,0-.027.324v.27a1.5,1.5,0,0,1-.018.279,3.8,3.8,0,0,0-.054.63,7.207,7.207,0,0,0,.315,1.845c.1.378.252.72.369,1.089a.513.513,0,0,1,.009.117v.09a.513.513,0,0,0,.009.117,10.851,10.851,0,0,0,.594,1.215.594.594,0,0,1-.585.468h-.081m12.78-2.925a3.619,3.619,0,0,1-2.34-2.457c-.162-.441-.252-.891-.387-1.35a2.531,2.531,0,0,1-.117-.738,1.931,1.931,0,0,1,.081-.594,1.22,1.22,0,0,1,1.008-.171,4.258,4.258,0,0,0,.468.036.624.624,0,0,1,.135.45v.288a1.953,1.953,0,0,0,.342,1.215c.054.063.126.1.27,0v-.081a1.745,1.745,0,0,1,1.548-1.584,1.777,1.777,0,0,1,1.125.081,2.751,2.751,0,0,1,1.2.99,2.245,2.245,0,0,1,.279,1c.009.1.009.2.009.3a2.456,2.456,0,0,1-.279,1.233,3.245,3.245,0,0,1-2.07,1.539,1.232,1.232,0,0,1-.306.036,4.053,4.053,0,0,1-.963-.189m-10.089-.108a3.586,3.586,0,0,1-1.125-1.08,1.983,1.983,0,0,1-.324-1.107,1.813,1.813,0,0,1,.369-1.1,2.984,2.984,0,0,1,1.35-1.2,1.619,1.619,0,0,1,1.26.144c.234.126.5.4.819.45.126-.252.216-.486.324-.747a1.879,1.879,0,0,0,.1-.387.269.269,0,0,1,.315-.2,2.253,2.253,0,0,0,.981-.018,2.365,2.365,0,0,1,.837-.054l.117.063a4.728,4.728,0,0,1,.027.5,3.255,3.255,0,0,1-.333,1.449l-.018.261a5.946,5.946,0,0,1-.612,1.278,6.57,6.57,0,0,1-1.494,1.458c-.432.4-1.062.351-1.584.558-.324-.135-.693-.063-1.008-.279m5.922-.063a2.413,2.413,0,0,1-.405-.4c-.153-.171-.414-.153-.549-.333.117-.414.423-.738.5-1.152a5.236,5.236,0,0,0,.09-.981,11.318,11.318,0,0,0-.153-1.638v-.036c0-.18.216-.324.378-.414.27-.135.531.171.558.387a14.623,14.623,0,0,1,.171,1.764v.252a10.8,10.8,0,0,0,.585,1.224v.369c-.333.342-.684.63-1.062.954H206.5" fill="#fff" fill-rule="evenodd"/><path d="M152.848,200.039a2.466,2.466,0,0,0,.21-.869v-.013h2.423v.042c-.336.1-.434.5-.434.826l.925,6.878a1.662,1.662,0,0,0,.714,1.428v.042h-2.7v-.042c.49-.154.574-.574.574-1.05l-.8-6.751-3.138,8.025a3.389,3.389,0,0,1-1.233-1.694l-2.661-6.318-.8,6.024c-.112.854-.21,1.471.448,1.764v.042h-2.283v-.042a2.9,2.9,0,0,0,.785-1.96l.8-5.87c.056-.392.21-.953-.434-1.3v-.042h2.451v.013a1.656,1.656,0,0,0,.2.631l2.633,6.177Z" fill="#fff"/><path d="M164.663,207.449a3.486,3.486,0,0,1-2.746,1.149,3.443,3.443,0,0,1-2.535-.981,3.672,3.672,0,0,1-.714-2.759v-3.74c0-.631.1-1.654-.616-1.919v-.042h2.661v.042c-.7.265-.616,1.288-.616,1.919v3.74c0,1.862.784,2.731,2.227,2.731a2.477,2.477,0,0,0,2.045-.98,1.851,1.851,0,0,0,.294-1.276v-4.215c0-.631.084-1.654-.616-1.919v-.042h2.661l.014.042c-.714.265-.63,1.288-.63,1.932v5.282c0,.629-.084,1.652.63,1.918v.042h-2.059Z" fill="#fff"/><path d="M174.28,200.824a3.184,3.184,0,0,0-2.2-.883c-.8,0-1.807.308-1.807,1.274,0,1.919,4.819,1.892,4.819,4.483,0,1.5-1.569,2.9-3.754,2.9a7.261,7.261,0,0,1-2.508-.421l-.406-1.751a4.845,4.845,0,0,0,3.068,1.163c.8,0,2-.476,2-1.457,0-2.185-4.819-1.793-4.819-4.762,0-1.765,1.807-2.438,3.516-2.438a7.044,7.044,0,0,1,2.087.309Z" fill="#fff"/><path d="M184.361,200.893a4.866,4.866,0,0,0-2.591-.8,3.216,3.216,0,0,0-3.278,3.445,3.67,3.67,0,0,0,3.558,3.9,6.171,6.171,0,0,0,2.984-.883h.042l-.715,1.625a4.951,4.951,0,0,1-2.115.421c-3.306,0-5.351-1.85-5.351-4.847a4.636,4.636,0,0,1,4.917-4.819,11.128,11.128,0,0,1,2.549.351Z" fill="#fff"/><path d="M189.161,204.914l-.729,1.975c-.294.784-.392,1.191.28,1.442v.042h-2.577v-.042a3.156,3.156,0,0,0,1.359-1.989l2.339-5.841c.2-.5.462-1.092-.21-1.3v-.042h2.213l2.913,7.185a3.285,3.285,0,0,0,1.373,1.989v.042h-2.871v-.042c.686-.308.574-.461.2-1.442l-.757-1.975Zm1.751-4.567-1.387,3.53h2.759Z" fill="#fff"/><path d="M201.047,206.552c0,.8-.014,1.345.728,1.779v.042H199v-.042c.7-.266.616-1.289.616-1.918v-6.248h-1.233a2.431,2.431,0,0,0-1.666.56h-.042l.49-1.667h.042a2.285,2.285,0,0,0,.532.1h5.575a1.56,1.56,0,0,0,.644-.1H204l-.448,1.667h-.042c-.182-.49-.742-.56-1.2-.56h-1.261Z" fill="#fff"/><path d="M205.819,201.131c0-.644.1-1.667-.616-1.932v-.042h2.661v.042c-.7.265-.616,1.3-.616,1.932v5.282c0,.629-.084,1.652.616,1.918v.042H205.2v-.042c.7-.251.616-1.289.616-1.918Z" fill="#fff"/><path d="M211.588,206.552c0,.785-.014,1.345.728,1.779v.042h-2.479v-.042c.743-.434.743-.994.743-1.779v-5.589c0-.784,0-1.344-.729-1.764v-.042H211.9v.013a.882.882,0,0,0,.21.351l.2.28,5.127,6.471v-5.309c0-.784.013-1.344-.729-1.764v-.042h2.465v.042c-.729.42-.729.98-.729,1.764v7.859a3.876,3.876,0,0,1-2.045-1.6l-4.8-6.094Z" fill="#fff"/><path d="M223.151,207.2l1.78.168a3.491,3.491,0,0,0,2.59-.826h.042l-.629,1.834h-5.842v-.042c.715-.251.631-1.289.631-1.918v-5.282c0-.644.084-1.667-.631-1.932v-.042h4.482a1.432,1.432,0,0,0,.659-.071h.042v1.639h-.042a1.965,1.965,0,0,0-1.653-.56,7.91,7.91,0,0,0-1.429.1v2.606h1.667a1.43,1.43,0,0,0,.616-.084h.042v1.484h-.042c-.224-.406-.812-.392-1.247-.392h-1.036Z" fill="#fff"/><path d="M229.814,209.831c.239-.2,1.023-1.023,1.023-1.3,0-.1-.112-.126-.182-.141a.777.777,0,0,1-.658-.742.812.812,0,0,1,.84-.826.875.875,0,0,1,.868.952,2.719,2.719,0,0,1-.826,1.766c-.154.153-.308.335-.532.335Z" fill="#fff"/><path d="M239.909,201.131c0-.644.1-1.667-.616-1.932v-.042h2.661v.042c-.7.265-.616,1.3-.616,1.932v5.282c0,.629-.084,1.652.616,1.918v.042h-2.661v-.042c.7-.251.616-1.289.616-1.918Z" fill="#fff"/><path d="M254.054,203.666A5,5,0,0,1,248.9,208.6a4.9,4.9,0,0,1-5.112-4.861,4.981,4.981,0,0,1,5.253-4.819A4.836,4.836,0,0,1,254.054,203.666Zm-8.671-.055a3.8,3.8,0,0,0,3.586,3.978,3.4,3.4,0,0,0,3.488-3.642c0-2.045-1.3-4.02-3.517-4.02A3.452,3.452,0,0,0,245.383,203.611Z" fill="#fff"/><path d="M260.113,208.793c-1.274-.923-1.4-.826-1.863-2.268l-1.652-5.169a3.847,3.847,0,0,0-1.164-2.157v-.042h2.045a2.446,2.446,0,0,0,.168,1.008l2.088,6.513,1.639-5.322c.266-.855.546-1.766-.225-2.157v-.042h1.976a2.843,2.843,0,0,0,.21,1.415l1.947,6.064,1.582-5.126c.253-.8.715-1.933-.378-2.311v-.042h2.157l-2.955,9.636c-1.289-.881-1.386-.812-1.849-2.254L262.3,201.72Z" fill="#fff"/><path d="M272.739,204.914l-.728,1.975c-.294.784-.393,1.191.28,1.442v.042h-2.577v-.042a3.147,3.147,0,0,0,1.358-1.989l2.339-5.841c.2-.5.463-1.092-.21-1.3v-.042h2.214l2.913,7.185a3.276,3.276,0,0,0,1.373,1.989v.042h-2.872v-.042c.687-.308.574-.461.2-1.442l-.756-1.975Zm1.751-4.567-1.387,3.53h2.76Z" fill="#fff"/></svg>