<svg class="logo" xmlns="http://www.w3.org/2000/svg" xmlns:xlink="http://www.w3.org/1999/xlink"   viewBox="110 370 375 92" version="1.1">
<g id="surface1">
<path style=" stroke:none;fill-rule:nonzero;fill:rgb(62.089539%,54.602051%,31.184387%);fill-opacity:1;" d="M 421.390625 398.464844 C 421.390625 409.671875 412.515625 418.851562 401.71875 418.851562 C 390.882812 418.851562 382.042969 409.90625 382.042969 398.464844 C 382.042969 387.261719 390.421875 378.003906 401.71875 378.003906 C 412.933594 378.003906 421.390625 387.261719 421.390625 398.464844 M 484.394531 371.652344 L 475.65625 371.652344 L 461.671875 397.605469 L 445.429688 371.652344 L 435.886719 371.652344 L 457.367188 405.675781 L 446.617188 425.277344 L 455.410156 425.277344 Z M 429.761719 398.464844 C 429.761719 383.03125 417.605469 370.417969 401.71875 370.417969 C 385.976562 370.417969 373.671875 383.03125 373.671875 398.464844 C 373.671875 413.910156 386.191406 426.441406 401.71875 426.441406 C 417.164062 426.441406 429.761719 413.910156 429.761719 398.464844 M 363.246094 425.277344 L 349.421875 400.648438 C 355.308594 399.171875 361.011719 394.859375 361.011719 386.644531 C 361.011719 377.703125 354.367188 371.652344 343.570312 371.652344 L 319.183594 371.652344 L 319.183594 425.277344 L 326.960938 425.277344 L 326.960938 401.839844 L 341.113281 401.839844 L 353.800781 425.183594 Z M 301.90625 379.183594 L 301.90625 371.652344 L 264.914062 371.652344 L 264.914062 425.277344 L 302.515625 425.277344 L 302.515625 417.519531 L 272.796875 417.519531 L 272.796875 401.839844 L 297.195312 401.839844 L 297.195312 394.140625 L 272.796875 394.140625 L 272.796875 379.183594 Z M 247.589844 407.804688 C 242.941406 415.3125 236.375 418.851562 228.859375 418.851562 C 217.417969 418.851562 208.855469 410.15625 208.855469 398.464844 C 208.855469 387.191406 217.148438 378.003906 229.085938 378.003906 C 236.507812 378.003906 243.503906 382.316406 247.433594 388.117188 L 247.515625 377.230469 C 242.632812 372.761719 236.589844 370.484375 228.933594 370.484375 C 212.539062 370.484375 200.800781 382.875 200.800781 398.324219 C 200.800781 413.976562 212.042969 426.441406 228.859375 426.441406 C 237.003906 426.441406 242.632812 423.953125 247.515625 419.40625 Z M 177.285156 425.277344 L 185.4375 425.277344 L 185.4375 371.652344 L 177.285156 371.652344 Z M 164.324219 371.652344 L 155.648438 371.652344 L 138.011719 411.007812 L 118.730469 371.652344 L 109.484375 371.652344 L 137.742188 428.714844 Z M 352.550781 386.785156 C 352.550781 391.167969 349.5 394.070312 343.949219 394.070312 L 326.960938 394.070312 L 326.960938 379.183594 L 343.785156 379.183594 C 349.566406 379.183594 352.550781 382.238281 352.550781 386.785156 "/>
<path style=" stroke:none;fill-rule:nonzero;fill:rgb(62.089539%,54.602051%,31.184387%);fill-opacity:1;" d="M 247.792969 461.34375 C 241.96875 461.34375 238.832031 457.472656 238.832031 452 C 238.832031 446.8125 242.300781 442.757812 247.792969 442.757812 C 250.25 442.757812 252.148438 443.441406 253.589844 444.402344 L 253.589844 446.480469 L 253.386719 446.480469 C 252.171875 445.0625 250.324219 443.972656 248.070312 443.972656 C 243.589844 443.972656 241.363281 447.394531 241.363281 452 C 241.363281 456.835938 243.492188 460.078125 248.070312 460.078125 C 250.324219 460.078125 252.171875 459.039062 253.386719 457.621094 L 253.589844 457.621094 L 253.589844 459.699219 C 252.148438 460.660156 250.25 461.34375 247.792969 461.34375 "/>
<path style=" stroke:none;fill-rule:nonzero;fill:rgb(62.089539%,54.602051%,31.184387%);fill-opacity:1;" d="M 269.355469 460.988281 L 269.355469 452.429688 L 259.835938 452.429688 L 259.835938 460.988281 L 257.507812 460.988281 L 257.507812 443.113281 L 259.835938 443.113281 L 259.835938 451.164062 L 269.355469 451.164062 L 269.355469 443.113281 L 271.6875 443.113281 L 271.6875 460.988281 L 269.355469 460.988281 "/>
<path style=" stroke:none;fill-rule:nonzero;fill:rgb(62.089539%,54.602051%,31.184387%);fill-opacity:1;" d="M 276.492188 443.113281 L 278.820312 443.113281 L 278.820312 460.988281 L 276.492188 460.988281 Z M 276.492188 443.113281 "/>
<path style=" stroke:none;fill-rule:nonzero;fill:rgb(62.089539%,54.602051%,31.184387%);fill-opacity:1;" d="M 291.578125 461.34375 C 285.753906 461.34375 282.617188 457.472656 282.617188 452 C 282.617188 446.8125 286.085938 442.757812 291.578125 442.757812 C 294.035156 442.757812 295.933594 443.441406 297.375 444.402344 L 297.375 446.480469 L 297.171875 446.480469 C 295.957031 445.0625 294.109375 443.972656 291.855469 443.972656 C 287.375 443.972656 285.148438 447.394531 285.148438 452 C 285.148438 456.835938 287.273438 460.078125 291.855469 460.078125 C 294.109375 460.078125 295.957031 459.039062 297.171875 457.621094 L 297.375 457.621094 L 297.375 459.699219 C 295.933594 460.660156 294.035156 461.34375 291.578125 461.34375 "/>
<path style=" stroke:none;fill-rule:nonzero;fill:rgb(62.089539%,54.602051%,31.184387%);fill-opacity:1;" d="M 307.039062 445.570312 L 303.292969 454.585938 L 310.710938 454.585938 Z M 313.34375 460.988281 L 311.242188 455.847656 L 302.761719 455.847656 L 300.632812 460.988281 L 299.089844 460.988281 L 306.609375 443.011719 L 308.378906 443.011719 L 315.902344 460.988281 L 313.34375 460.988281 "/>
<path style=" stroke:none;fill-rule:nonzero;fill:rgb(62.089539%,54.602051%,31.184387%);fill-opacity:1;" d="M 326.527344 461.34375 C 320.375 461.34375 317.238281 457.671875 317.238281 452 C 317.238281 446.582031 320.882812 442.757812 326.351562 442.757812 C 329.234375 442.757812 331.136719 443.441406 332.578125 444.402344 L 332.578125 446.480469 L 332.375 446.480469 C 331.160156 445.0625 329.3125 443.972656 326.628906 443.972656 C 322.097656 443.972656 319.769531 447.113281 319.769531 452 C 319.769531 457.191406 322.097656 460.078125 326.804688 460.078125 C 328.300781 460.078125 329.617188 459.796875 330.707031 459.34375 L 330.707031 452.960938 L 333.035156 452.960938 L 333.035156 459.773438 C 331.390625 460.6875 329.035156 461.34375 326.527344 461.34375 "/>
<path style=" stroke:none;fill-rule:nonzero;fill:rgb(62.089539%,54.602051%,31.184387%);fill-opacity:1;" d="M 345.5625 443.871094 C 341.078125 443.871094 338.851562 447.441406 338.851562 452.054688 C 338.851562 456.660156 341.078125 460.230469 345.5625 460.230469 C 350.042969 460.230469 352.269531 456.660156 352.269531 452.054688 C 352.269531 447.441406 350.042969 443.871094 345.5625 443.871094 Z M 345.5625 461.34375 C 339.765625 461.34375 336.320312 457.242188 336.320312 452.054688 C 336.320312 446.863281 339.765625 442.757812 345.5625 442.757812 C 351.359375 442.757812 354.800781 446.863281 354.800781 452.054688 C 354.800781 457.242188 351.359375 461.34375 345.5625 461.34375 "/>
</g>
</svg>
