<svg xmlns="http://www.w3.org/2000/svg" id="universityinn-logo" class="logo" viewBox="0 0 351.14 233.5"><polygon points="180.43 26.41 243.6 51.88 243.59 45.11 180.43 15.22 96.3 51.42 96.31 58.12 180.43 26.41" style="fill:#c69f5c"/><polygon points="180.56 9.13 238.3 36.34 238.3 30.48 180.54 0 180.54 0.02 100.31 38.29 100.31 43.58 180.56 9.13 180.56 9.13" style="fill:#c69f5c"/><polygon points="167.9 56.41 167.9 41.22 156.3 45.12 156.3 59.72 167.9 56.41" style="fill:#c69f5c"/><polygon points="152.28 60.86 152.28 46.47 140.57 50.4 140.57 64.21 152.28 60.86" style="fill:#c69f5c"/><polygon points="171.92 39.87 171.92 55.26 181.19 52.62 181.19 37.79 179.72 37.25 171.92 39.87" style="fill:#c69f5c"/><polygon points="114.81 71.55 114.81 59.05 111.09 60.3 111.09 72.62 114.81 71.55" style="fill:#c69f5c"/><polygon points="137.53 65.07 137.53 51.42 126.59 55.1 126.59 68.2 137.53 65.07" style="fill:#c69f5c"/><polygon points="124.18 68.88 124.18 55.91 116.32 58.55 116.32 71.13 124.18 68.88" style="fill:#c69f5c"/><path d="M226.65,121.26V54.53L225,53.91V67.45l-7.69-2.54V51.31l-2.07-.76V64.23L205.29,61V46.66l-2.75-1v14.4l-10.43-3.44V41.81l-3.7-1.36V55.39L181,53v4.63L171.92,60v56.9h-4V61.12l-11.6,3.13v53c-1.36,0-2.7.12-4,.19V65.33l-11.71,3.16v49.8l-3,.29V69.31l-10.94,3v47.63l-2.41.35V72.91L116.32,75V121.5l-1.5.27V75.44l-3.73,1v46C87.45,127.12,74.62,133,74.62,133s72.78-19.38,205.9,0A433.14,433.14,0,0,0,226.65,121.26ZM225,71.72V121c-2.59-.38-5.15-.72-7.69-1V69.42Zm-9.76-2.92v50.9c-3.36-.41-6.66-.77-9.92-1.08V65.84ZM202.54,65v53.35q-5.31-.47-10.43-.77V61.9ZM188.41,117.4q-3.66-.2-7.22-.3V58.64l7.22,2.15Z" style="fill:#c69f5c"/><path d="M76.56,212.54a4.79,4.79,0,1,1-4.78-4.78A4.78,4.78,0,0,1,76.56,212.54Z" style="fill:#c69f5c"/><path d="M284.15,212.54a4.79,4.79,0,1,1-4.78-4.78A4.78,4.78,0,0,1,284.15,212.54Z" style="fill:#c69f5c"/><path d="M5.33,144.46c0-2.27-.46-3.31-1.82-3.31h-3c-.39,0-.46-.13-.46-.59V139c0-.39.07-.52.58-.52s3.84.2,10.66.2c5.71,0,8.83-.2,9.55-.2.52,0,.58.13.58.52v1.69c0,.33-.06.46-.52.46H18.64c-2.21,0-3.31,1.23-3.44,2.53-.06.71-.13,5.13-.13,8.44v4.29c0,3.45.26,11.7.33,13.77.06,3,.64,5.92,2.07,7.73a10.32,10.32,0,0,0,8.12,3.64,13.06,13.06,0,0,0,7.67-2.86c2.6-2.33,4.09-5.91,4.09-10.58v-10A123.39,123.39,0,0,0,36.44,144c-.26-1.69-1.3-2.86-2.4-2.86H32c-.39,0-.46-.2-.46-.52v-1.69c0-.33.07-.46.46-.46.65,0,3.64.2,8,.2,3.51,0,5.59-.2,6.18-.2s.65.26.65.59v1.43c0,.39-.07.65-.39.65h-2a2.54,2.54,0,0,0-2.79,2.47c-.13.91-.13,9.87-.13,10.78s-.13,12.28-.33,14.81c-.39,5.33-2.14,9.42-5.52,12.41a17.94,17.94,0,0,1-11.5,4A28.16,28.16,0,0,1,14.23,184a14.91,14.91,0,0,1-7.54-8.57c-1.1-2.8-1.36-7.15-1.36-15.66Z" style="fill:#860101"/><path d="M81.42,168.89c0-4.83-.06-7.49-.17-10.2,0-2.11-.32-7.43-.48-8.24a2.91,2.91,0,0,0-2.88-2.12H76.16c-.27,0-.33-.16-.33-.48v-1.36c0-.27.06-.38.49-.38.59,0,2.33.16,6.34.16,3.26,0,4.56-.16,5.16-.16s.54.11.54.43v1.31c0,.27-.06.48-.27.48H86.57c-.92,0-1.47.93-1.63,2.88-.38,3.63-1.24,15.89-1.24,23v9.27c0,.81-.06,1.79-.82,1.79a2.84,2.84,0,0,1-2.11-.87c-.93-.86-3.58-3.74-6.84-7.59-3.9-4.61-8.24-9.82-9.27-11s-8.41-10.41-9.66-12.2h-.43V164.6c0,4.51.49,11.18.54,13.24.11,3.14,1.09,4.77,3.37,4.77h1.35c.38,0,.44.16.44.49v1.3c0,.32-.06.43-.44.43-.54,0-3.79-.16-6.34-.16-1.69,0-5.43.16-6,.16-.22,0-.27-.11-.27-.49v-1.4c0-.17,0-.33.33-.33h1.89c1.2,0,2.06-1.74,2.33-5.37.06-1,.49-9.71.49-17.73v-4.89c0-3.2-1.95-6.23-4.66-6.29l-1.36-.05c-.27,0-.32-.22-.32-.38v-1.47c0-.21,0-.32.32-.32s.71,0,1.74,0,2.82.11,5.64.11c1.84,0,3.47-.11,4.12-.11a1.87,1.87,0,0,1,1.57.71c.28.32,11,13.4,12.59,15.4.76.92,8.67,10.85,9.27,11.55h.22Z" style="fill:#860101"/><path d="M95.87,162c0-1.31-.16-11.07-.21-11.77-.11-1.3-.65-1.85-1.79-1.85H91.26c-.27,0-.43-.11-.43-.32v-1.58c0-.21.16-.32.38-.32.65,0,3.42.16,8.73.16,5.53,0,7.27-.16,8-.16.27,0,.38.16.38.49V148c0,.27-.16.38-.44.38h-1.57c-1.35,0-2.17.44-2.17,1.41,0,.55-.16,12.53-.16,13.18v4.18c0,.54.16,13.07.16,13.56,0,1.68.82,2,1.85,2h2.22c.27,0,.43.11.43.38v1.52c0,.21-.16.32-.48.32-.65,0-2.82-.16-8-.16-5.69,0-8,.16-8.62.16-.27,0-.43-.11-.43-.43v-1.46c0-.22.16-.33.43-.33h1.57c1.09,0,2.23-.16,2.44-1.47.11-.81.27-12.52.27-15.4Z" style="fill:#860101"/><path d="M136.66,146.49c0-.27.05-.38.33-.38.48,0,3,.16,6.61.16,5.05,0,6.4-.16,6.89-.16.32,0,.38.11.38.49V148c0,.22-.06.38-.38.38h-1.25c-.92,0-2.6.38-4,2.82-2.17,3.69-4.5,10.09-6.56,14.65-1.36,2.93-7.49,17.46-8.41,19-.38.65-.65.92-1.25.92s-.92-.65-1.25-1.35c-2-4.28-6.94-17.41-8.46-21.15s-4.23-11.61-4.88-13.13c-.54-1.24-1.19-1.79-2.33-1.79h-1.41c-.22,0-.27-.27-.27-.54v-1.3c0-.27,0-.38.38-.38.54,0,2.33.16,8.84.16,5.64,0,8.08-.16,8.57-.16s.54.16.54.49v1.25c0,.27-.05.48-.43.48H126c-1.31,0-2.34.6-2.34,1.3a8.09,8.09,0,0,0,.17,1.85c.43,2,2.49,8.41,3.63,11.55.7,2,3.42,10,4.12,12.09h.22c1.57-3.63,4.23-10.41,4.93-12.36,1-2.66,2.71-7.21,3.58-9.65a7.51,7.51,0,0,0,.54-3,2,2,0,0,0-2.22-1.79h-1.68c-.22,0-.27-.16-.27-.48Z" style="fill:#860101"/><path d="M162.93,163.9a34.5,34.5,0,0,0,5.54-.33,4.4,4.4,0,0,0,2.49-1.68,6.82,6.82,0,0,0,1.25-3.36c0-.38.16-.49.43-.49l1.47.16c.27.06.48.11.43.44a55.61,55.61,0,0,0-.16,5.64c0,2.44.21,5,.32,6.18.06.33-.16.38-.43.43l-1.3.28c-.22.05-.33-.06-.44-.44a16.37,16.37,0,0,0-1.08-2.76,4.38,4.38,0,0,0-3-1.9,36.92,36.92,0,0,0-5.54-.33V169c0,2.93.28,8.19.28,9.16,0,2.82.59,3.8,1.3,4.12s1.84.49,4.55.49c.92,0,3.2-.05,4.34-.16a8.27,8.27,0,0,0,4.12-1.79,61.35,61.35,0,0,0,5.53-5.8c.22-.22.38-.27.55-.17l.92.55a.34.34,0,0,1,.22.43L182.29,184a1.14,1.14,0,0,1-1.19.81c-.27,0-1.46-.05-4.93-.11s-9.28-.05-18.66-.05c-2,0-3.52.05-4.61.05s-1.84.11-2.33.11-.49-.16-.49-.59V183.1c0-.33.16-.49.54-.49h1.63c2.5,0,2.71-.38,2.71-2.28V162.16c0-4.5-.11-11.17-.16-11.71-.22-1.74-.76-2.12-2.22-2.12h-2.12c-.22,0-.27-.16-.27-.54v-1.3a.34.34,0,0,1,.38-.38c1.19,0,3.09.16,8,.16l19-.05c.87,0,1.9-.11,2.17-.11a.4.4,0,0,1,.44.27c.21.76,2,8.19,2.22,8.73.11.27.11.38-.17.54l-.86.44a.48.48,0,0,1-.65-.22,60.29,60.29,0,0,0-6.4-6.07,9,9,0,0,0-4.12-1.47l-7.16-.21Z" style="fill:#860101"/><path d="M190.76,160c0-4,0-7.48,0-9-.06-1.78-.76-2.71-1.52-2.71H187c-.27,0-.33-.16-.33-.38v-1.46c0-.27.06-.38.33-.38.49,0,2.17.16,8.08.16,3,0,7.81-.16,10-.16a13.68,13.68,0,0,1,9.6,3.58,8.37,8.37,0,0,1,3.1,5.91c0,6.89-5.16,10-9.93,10.41v.38a7.28,7.28,0,0,1,3.58,2.88c.7.87,3.69,5.69,4.12,6.34.33.49,3.26,4.61,4.34,5.86.65.71,2.71,1.14,4,1.14.38,0,.43.22.43.43v1.3c0,.33-.05.49-.43.49s-1.85-.16-6-.16c-1.57,0-3.58.11-5.15.16-1.63-1.24-5-7.54-5.91-9.38-1.85-3.69-4.07-7.7-6.68-7.7H198.3v2.77c0,3.19.16,9.27.27,10,.11,1.14.54,2.12,1.36,2.12h2.22c.38,0,.43.16.43.43v1.3c0,.38-.05.49-.86.49-.06,0-1.41-.16-7.11-.16s-7,.16-7.59.16c-.43,0-.43-.16-.43-.54V183c0-.27,0-.43.27-.43h1.62c1.2,0,2.17-.38,2.17-1.74.11-5.37.11-10.46.11-15.62Zm7.6,5.86c1,.06,1.68.06,2.16.06,7.16,0,8.85-6.84,8.85-9.39a9,9,0,0,0-2.07-6.07,9.51,9.51,0,0,0-6-2.39,3.15,3.15,0,0,0-2.06.49,2.28,2.28,0,0,0-.59,1.46Z" style="fill:#860101"/><path d="M228,172.68c.21,0,.38.06.38.44a14.38,14.38,0,0,0,2.17,6.13,8,8,0,0,0,6.83,3.69c2.6,0,6.78-1.74,6.78-6,0-4.51-.87-5.81-7.92-8.47a28.81,28.81,0,0,1-7.86-4.71c-1.9-1.69-2.72-4.56-2.72-7.71,0-3.3.82-5.53,4.07-8a11.55,11.55,0,0,1,7.81-2.6,19.5,19.5,0,0,1,7.21,1.08,1,1,0,0,0,1.25-.27l.71-.7a1.09,1.09,0,0,1,.81-.33c.38,0,.49.6.54.92l.87,9.28c0,.21-.11.27-.27.32l-1.19.38c-.27.11-.55,0-.71-.38a16.56,16.56,0,0,0-3.36-5.64,6.65,6.65,0,0,0-5.42-2.27,5.66,5.66,0,0,0-5.75,4.93c0,2,.05,3.63,1.41,5s4.5,2.77,7.16,3.52a17.43,17.43,0,0,1,6.94,4.13c2.11,1.9,3,4.28,3,8.08,0,6.62-4.72,12-11.88,12-4.88,0-7.43-.81-9.7-2.33a2.69,2.69,0,0,0-1.25-.6c-.33,0-.54.39-.87.93s-.6.65-1,.65c-.59,0-.81-.27-.75-.87l.86-10.31c.06-.37.22-.37.44-.37Z" style="fill:#860101"/><path d="M258.45,162c0-1.31-.16-11.07-.22-11.77-.11-1.3-.65-1.85-1.79-1.85h-2.6c-.27,0-.44-.11-.44-.32v-1.58c0-.21.17-.32.38-.32.65,0,3.42.16,8.74.16,5.53,0,7.26-.16,8-.16.27,0,.38.16.38.49V148c0,.27-.16.38-.43.38h-1.58c-1.35,0-2.16.44-2.16,1.41,0,.55-.17,12.53-.17,13.18v4.18c0,.54.17,13.07.17,13.56,0,1.68.81,2,1.84,2h2.22c.27,0,.44.11.44.38v1.52c0,.21-.17.32-.49.32-.65,0-2.82-.16-8-.16-5.7,0-8,.16-8.63.16-.27,0-.43-.11-.43-.43v-1.46c0-.22.16-.33.43-.33h1.58c1.08,0,2.22-.16,2.44-1.47.11-.81.27-12.52.27-15.4Z" style="fill:#860101"/><path d="M287.9,148.77H286a24.09,24.09,0,0,0-7.26.86c-1.2.87-3.58,4.18-4.94,6.13-.16.27-.32.44-.54.38l-1.19-.43a.38.38,0,0,1-.22-.49c.6-2.28,2.39-9.44,2.6-10.52.17-.71.44-.92.82-.92s.54.21,1,.81c.59.76,1.62,1.25,3.57,1.36,2.88.16,5.16.32,10.8.32h3.14c5.91,0,8.25-.21,10.52-.32a8,8,0,0,0,4-1.36c.55-.54.87-.81,1.25-.81s.54.21.65.86c.17,1.2,1.2,7.92,1.63,10.8a.41.41,0,0,1-.22.49l-1.14.43c-.21,0-.32-.11-.54-.49a37.38,37.38,0,0,0-4.66-6.07c-1.36-.82-6.19-1-7.43-1H296v14.91c0,.76,0,15.95,0,16.76.11,1.36.54,2.17,1.85,2.17h2.44c.48,0,.54.16.54.54v1.25c0,.27-.06.43-.54.43s-2.28-.16-8.3-.16c-5.75,0-8,.16-8.79.16-.43,0-.49-.21-.49-.65v-1c0-.38.06-.54.38-.54H286a1.71,1.71,0,0,0,1.84-1.63c.11-1.14.11-17.79.11-18.82Z" style="fill:#860101"/><path d="M335.25,174.58c0,2.12.16,5.64.22,6.13.16,1.74,1,1.9,1.84,1.9h1.57c.38,0,.38.16.38.38v1.35c0,.33,0,.49-.38.49-.65,0-2.76-.16-7.86-.16-5.64,0-7.32.16-7.92.16-.22,0-.32-.16-.32-.54V183c0-.22.05-.38.38-.38h1.89c1.41,0,1.85-.54,1.9-1.25s.17-5,.17-10.09v-2.33c-.87-1.68-9.55-17.52-10.91-19.36a4,4,0,0,0-2.82-1.25h-.81c-.33,0-.38-.16-.38-.38v-1.52c0-.21.05-.32.38-.32.49,0,3,.16,7.86.16,5.59,0,7.54-.16,8.09-.16.32,0,.37.11.37.38v1.36c0,.27,0,.48-.37.48h-1.25a1.29,1.29,0,0,0-1.3,1.41c0,1,6.45,13.4,7.91,16.55,1.63-3,8.14-14.43,8.14-16.11a2,2,0,0,0-2.06-1.85H338.5c-.32,0-.38-.16-.38-.48v-1.42c0-.21.06-.32.38-.32.55,0,2.77.16,6.78.16,3.75,0,4.94-.16,5.43-.16s.43.11.43.43v1.31c0,.32-.05.48-.43.48h-1a4.6,4.6,0,0,0-3.09,1.3c-.71.87-9.17,14.76-11.39,18.93Z" style="fill:#860101"/><path d="M119.85,215.38c0,.54.11,12.94.11,13.53,0,1.73.86,1.94,2.16,1.94h2.26a.38.38,0,0,1,.43.38v1.35c0,.32-.21.43-.54.43-.64,0-2.8-.16-7.87-.16-5.39,0-7.77.16-8.31.16-.32,0-.43-.11-.43-.38v-1.45c0-.22.11-.33.43-.33h2.16c1.08,0,2.27-.1,2.48-1.56.11-.75.22-12.4.22-15.32V210.2c0-1.3-.11-11-.16-11.7-.17-1.3-.71-1.84-2.21-1.84h-2.81c-.32,0-.43-.11-.43-.37v-1.41c0-.27.11-.38.32-.38.65,0,3.45.17,8.74.17s6.9-.17,7.66-.17c.32,0,.43.22.43.49v1.24a.4.4,0,0,1-.43.43h-2c-1.19,0-2.05.43-2.05,1.46,0,.54-.11,12.4-.11,13Z" style="fill:#860101"/><path d="M151.48,208.47c0,9.17.43,16.72.53,18.39.11,2.7.76,4,2.7,4h1.4c.43,0,.43.22.43.49v1.24c0,.32,0,.43-.43.43s-3.77-.16-5.82-.16c-1.4,0-5.07.16-5.61.16-.22,0-.32-.11-.32-.48v-1.35a.34.34,0,0,1,.32-.33h1.83c1.41,0,2.16-1.18,2.43-4.47.06-1,.38-8.52.38-17.15v-6.85c0-3.24-1.84-5.72-4.21-5.72h-1.72c-.22,0-.33-.16-.33-.37v-1.46a.29.29,0,0,1,.33-.33c.27,0,.7.06,1.67.11s2.42.06,4.8.06c.91,0,1.72-.06,2.37-.11s1.19-.06,1.51-.06a1.62,1.62,0,0,1,1.3.49c.53.54,11.1,13.81,12.18,15.32.76.86,9.17,11.32,10,12.4h.22V217.1c0-4.74,0-7.44-.11-10.14-.11-2.05-.32-7.33-.59-8.25a2.91,2.91,0,0,0-2.86-2.05h-1.73c-.32,0-.32-.21-.32-.48v-1.24c0-.33,0-.44.43-.44.65,0,2.37.17,6,.17,3.24,0,4.53-.17,5.18-.17.43,0,.54.22.54.38v1.24c0,.33-.11.54-.32.54h-1.51c-1.08,0-1.62.87-1.78,2.86-.27,3.67-.81,12.73-.81,18.23V232c0,.75,0,1.51-.65,1.51a2.64,2.64,0,0,1-1.83-.87c-.44-.54-3.35-3.88-6.69-7.87-3.78-4.64-8-9.71-8.63-10.57s-9.38-11.54-10-12.3h-.32Z" style="fill:#860101"/><path d="M211.23,208.47c0,9.17.43,16.72.54,18.39.1,2.7.75,4,2.69,4h1.41c.43,0,.43.22.43.49v1.24c0,.32,0,.43-.43.43s-3.78-.16-5.83-.16c-1.4,0-5.07.16-5.61.16-.21,0-.32-.11-.32-.48v-1.35a.35.35,0,0,1,.32-.33h1.84c1.4,0,2.15-1.18,2.42-4.47.06-1,.38-8.52.38-17.15v-6.85c0-3.24-1.83-5.72-4.21-5.72h-1.72c-.22,0-.33-.16-.33-.37v-1.46a.29.29,0,0,1,.33-.33c.27,0,.7.06,1.67.11s2.43.06,4.8.06c.92,0,1.73-.06,2.37-.11s1.19-.06,1.51-.06a1.62,1.62,0,0,1,1.3.49c.54.54,11.11,13.81,12.19,15.32.75.86,9.16,11.32,10,12.4h.21V217.1c0-4.74,0-7.44-.11-10.14-.1-2.05-.32-7.33-.59-8.25a2.9,2.9,0,0,0-2.86-2.05h-1.72c-.33,0-.33-.21-.33-.48v-1.24c0-.33,0-.44.43-.44.65,0,2.38.17,6,.17,3.24,0,4.54-.17,5.18-.17.43,0,.54.22.54.38v1.24c0,.33-.11.54-.32.54H242c-1.08,0-1.62.87-1.78,2.86-.27,3.67-.81,12.73-.81,18.23V232c0,.75,0,1.51-.65,1.51a2.66,2.66,0,0,1-1.83-.87c-.43-.54-3.34-3.88-6.69-7.87-3.77-4.64-8-9.71-8.63-10.57s-9.38-11.54-10-12.3h-.32Z" style="fill:#860101"/></svg>