<svg class="logo" id="kinney-logo" x="0" y="0" width="909" version="1.1" xmlns="http://www.w3.org/2000/svg" xmlns:xlink="http://www.w3.org/1999/xlink" height="100" viewBox="10 590 900 100"><path d="M0,0 L0,1286 L909,1286 L909,0 Z " fill="#FFFFFF" stroke="none"/><path d="M210.4,683.4H178.5v11.7h-2.3V669.3h2.3v11.8h31.9v2.3Z" fill="#000"/><path d="M210.4,656.1H176.2v-2.3h15V633.2h-15v-2.3h34.2v2.3h-17v20.6h17v2.3Z" fill="#000"/><path d="M210.4,614.2H176.2V591.9h2.3v20h13.1V593.7h2.2v18.2h14.4v-20h2.2v22.3Z" fill="#000"/><path d="M223.1,590h19.4v46.3L297.7,590h27.6l-47.5,39.4l52.3,60H304.6L263.7,640.9l-21.2,17.6v30.9H223.1V590Z" fill="#9EA1A1"/><path d="M349.7,590h19.5v99.4H349.7Z" fill="#9EA1A1"/><path d="M397.7,590h20.5l66.5,71.8V590h18.6v99.4H485.6L416.3,615v74.4H397.7V590Z" fill="#9EA1A1"/><path d="M528.8,590h20.5l66.5,71.8V590h18.6v99.4H616.6L547.4,615v74.4H528.8V590Z" fill="#9EA1A1"/><path d="M659.8,590H749v16.7H679.2v23.1h60.1v16.7H679.2v26.2h71.4v16.7H659.8V590Z" fill="#9EA1A1"/><path d="M811.2,649.6L762.6,590h23.8l34.5,42.1L855.2,590h24l-48.6,59.6v39.8H811.2V649.6Z" fill="#9EA1A1"/><path d="M0,694.5H159.8L79.9,642.3L0,694.5Z" fill="#666"/><path d="M159.8,590H0l79.9,52.3L159.8,590Z" fill="#999"/><path d="M0,590V694.5L79.9,642.3L0,590Z" fill="#3B4542"/><path d="M895.5,602.3c.5,0,1,0,1.6,0c.6,0,1.2,0,1.7,-.1c.5,-.2,.9,-.4,1.3,-.7c.3,-.3,.5,-.8,.5,-1.4c0,-.5,-.1,-.8,-.4,-1.1c-.2,-.2,-.5,-.5,-.8,-.6c-.4,-.2,-.8,-.3,-1.2,-.3c-.5,0,-.9,-.1,-1.3,-.1h-4.1v4.3h2.7Zm6.5,7.9h-2l-4,-6.3h-3.2v6.3h-1.5V596.5h6c1.8,0,3,.3,3.8,1c.7,.6,1,1.5,1,2.6c0,.7,-.1,1.3,-.3,1.7c-.2,.5,-.5,.9,-.9,1.2c-.4,.3,-.9,.5,-1.4,.6c-.5,.2,-1.1,.2,-1.7,.3l4.2,6.3Zm-6.2,3.9c1.6,0,3,-.3,4.3,-.9c1.4,-.6,2.5,-1.3,3.5,-2.3c1,-1,1.8,-2.2,2.3,-3.5c.6,-1.4,.9,-2.8,.9,-4.3c0,-1.6,-.3,-3,-.9,-4.3c-.5,-1.4,-1.3,-2.5,-2.3,-3.5c-1,-1,-2.1,-1.8,-3.5,-2.3c-1.3,-.6,-2.7,-.9,-4.3,-.9c-1.5,0,-2.9,.3,-4.3,.9c-1.3,.5,-2.5,1.3,-3.5,2.3c-1,1,-1.7,2.1,-2.3,3.5c-.6,1.3,-.9,2.7,-.9,4.3c0,1.5,.3,2.9,.9,4.3c.6,1.3,1.3,2.5,2.3,3.5c1,1,2.2,1.7,3.5,2.3c1.4,.6,2.8,.9,4.3,.9Zm0,1.5c-1.7,0,-3.3,-.3,-4.9,-1c-1.5,-.6,-2.8,-1.5,-4,-2.6c-1.1,-1.2,-2,-2.5,-2.6,-4c-.7,-1.6,-1,-3.2,-1,-4.9c0,-1.8,.3,-3.4,1,-4.9c.6,-1.5,1.5,-2.8,2.6,-4c1.2,-1.1,2.5,-2,4,-2.7c1.6,-.6,3.2,-.9,4.9,-.9c1.8,0,3.4,.3,4.9,.9c1.5,.7,2.8,1.6,4,2.7c1.1,1.2,2,2.5,2.7,4c.6,1.5,.9,3.1,.9,4.9c0,1.7,-.3,3.3,-.9,4.9c-.7,1.5,-1.6,2.8,-2.7,4c-1.2,1.1,-2.5,2,-4,2.6c-1.5,.7,-3.1,1,-4.9,1Z" fill="#3B4542"/></svg>