<svg xmlns="http://www.w3.org/2000/svg" id="liaison-logo" class="logo" viewBox="0 0 925.75 57.602"><path d="M0,.8H10.4V48H39.681v8.8H0Z" fill="#ffffff"/><path d="M47.92.8h10.4v56H47.92Z" fill="#ffffff"/><path d="M109.76,43.841h-28L76.239,56.8H65.519l25.2-56h10.24l25.281,56H115.36Zm-3.44-8.16L95.759,11.2l-10.48,24.48Z" fill="#ffffff"/><path d="M133.358.8h10.4v56h-10.4Z" fill="#ffffff"/><path d="M154.157,50.882l3.6-8.081a31.03,31.03,0,0,0,18.481,6.16c8.72,0,12.4-3.12,12.4-7.279,0-12.081-33.281-4.161-33.281-24.961,0-9.041,7.2-16.721,22.56-16.721,6.721,0,13.761,1.76,18.641,4.96l-3.28,8.081a31.12,31.12,0,0,0-15.441-4.4c-8.64,0-12.16,3.359-12.16,7.6,0,11.92,33.2,4.16,33.2,24.72,0,8.96-7.28,16.641-22.64,16.641C167.518,57.6,158.8,54.882,154.157,50.882Z" fill="#ffffff"/><path d="M205.2,28.8C205.2,12.241,218,0,235.357,0s30.161,12.161,30.161,28.8-12.8,28.8-30.161,28.8S205.2,45.361,205.2,28.8Zm49.841,0c0-11.44-8.4-19.68-19.681-19.68s-19.68,8.24-19.68,19.68,8.4,19.68,19.68,19.68S255.038,40.241,255.038,28.8Z" fill="#ffffff"/><path d="M326.318.8v56h-8.561l-30.88-37.921V56.8h-10.32V.8h8.56L316,38.721V.8Z" fill="#ffffff"/><path d="M359.435,28.8c0-16.72,12.8-28.8,30-28.8,9.12,0,16.96,3.28,22.16,9.36l-6.72,6.321a19.663,19.663,0,0,0-14.96-6.56c-11.6,0-20,8.16-20,19.68s8.4,19.68,20,19.68a19.47,19.47,0,0,0,14.96-6.64l6.72,6.4c-5.2,6.08-13.04,9.361-22.24,9.361C372.235,57.6,359.435,45.521,359.435,28.8Z" fill="#ffffff"/><path d="M456.715,43.841h-28L423.2,56.8H412.474l25.2-56h10.24l25.281,56h-10.88Zm-3.44-8.16L442.715,11.2l-10.48,24.48Z" fill="#ffffff"/><path d="M527.2,20.721c0,12.32-9.12,19.921-23.84,19.921H490.714V56.8h-10.4V.8h23.041C518.075.8,527.2,8.32,527.2,20.721Zm-10.481,0c0-7.04-4.719-11.12-13.839-11.12H490.714v22.24h12.161C512,31.841,516.714,27.761,516.714,20.721Z" fill="#ffffff"/><path d="M537.594.8H548v56h-10.4Z" fill="#ffffff"/><path d="M574.473,9.6h-18.56V.8h47.521V9.6h-18.56V56.8h-10.4Z" fill="#ffffff"/><path d="M606.472,28.8c0-16.56,12.8-28.8,30.161-28.8s30.161,12.161,30.161,28.8-12.8,28.8-30.161,28.8S606.472,45.361,606.472,28.8Zm49.842,0c0-11.44-8.4-19.68-19.681-19.68s-19.68,8.24-19.68,19.68,8.4,19.68,19.68,19.68S656.314,40.241,656.314,28.8Z" fill="#ffffff"/><path d="M677.833.8h10.4V48h29.28v8.8h-39.68Z" fill="#ffffff"/><path d="M797.592.8v56h-10.4v-24H758.231v24h-10.4V.8h10.4V23.921h28.961V.8Z" fill="#ffffff"/><path d="M812.63.8h10.4v56h-10.4Z" fill="#ffffff"/><path d="M838.15.8h10.4V48h29.281v8.8H838.15Z" fill="#ffffff"/><path d="M886.07.8h10.4V48h29.28v8.8H886.07Z" fill="#ffffff"/></svg>