<svg xmlns="http://www.w3.org/2000/svg" xmlns:xlink="http://www.w3.org/1999/xlink" version="1.1" class="icons icon-email" id="icon-email" x="0" y="0" viewBox="-295.1 386.7 20.7 20.7" enable-background="new -295.1 386.7 20.7 20.7" xml:space="preserve"><path d="M-284.5 407.4c2.4 0 4.4-0.6 6.1-1.7 0.1-0.1 0.2-0.2 0.2-0.3 0-0.2-0.2-0.4-0.4-0.4 -0.1 0-0.2 0-0.2 0 -1.7 1-3.4 1.5-5.7 1.5 -5.7 0-9.7-4.2-9.7-9.5 0-5.3 4.1-9.6 9.5-9.6 5.4 0 9.5 4.2 9.5 8.6 0 3.4-1.6 4.9-3.3 4.9 -1.3 0-2-0.7-2-1.9 0-0.3 0-0.8 0.2-1.4l0.9-4.8c0.1-0.5-0.3-1-0.8-1 -0.4 0-0.7 0.3-0.8 0.8l-0.2 1c-0.6-1-1.6-2-3.5-2 -2.7 0-5.5 2.5-5.5 5.9 0 2.6 1.9 4.3 4.2 4.3 1.8 0 3-0.9 3.9-2 0.5 1.2 1.6 2 3.3 2 2.2 0 4.4-1.8 4.4-5.8 0-5-4.5-9.4-10.3-9.4s-10.4 4.7-10.4 10.4C-295.1 402.7-290.6 407.4-284.5 407.4zM-285.7 400.4c-1.7 0-2.9-1.1-2.9-3 0-2.4 1.9-4.3 3.9-4.3 1.7 0 2.9 1.3 2.9 3C-281.8 398.4-283.7 400.4-285.7 400.4z"/></svg>