<svg xmlns="http://www.w3.org/2000/svg" class="logo" id="gallivant-logo" viewBox="0 0 622.41 78.1"><path d="M12.92,2.65a16.37,16.37,0,0,0-4.16.47A8.52,8.52,0,0,0,5.48,4.76,10.42,10.42,0,0,0,2.9,8,27.11,27.11,0,0,0,.82,13.29H0V1.76H39.5V13.29h-.82A27.11,27.11,0,0,0,36.6,8,10.42,10.42,0,0,0,34,4.76a8.52,8.52,0,0,0-3.28-1.64,16.34,16.34,0,0,0-4.15-.47H24.32V45.74h5.79v.88H9.39v-.88h5.79V2.65Z" style="fill:#231f20"/><path d="M71.19,1.76v.89h-5.8V23.31H83.6V2.65H77.8V1.76H98.53v.89H92.74V45.74h5.79v.88H77.8v-.88h5.8V24.19H65.39V45.74h5.8v.88H50.46v-.88h5.8V2.65h-5.8V1.76Z" style="fill:#231f20"/><path d="M147,1.76V12.54h-.82a22.19,22.19,0,0,0-1.07-2.74A13.45,13.45,0,0,0,143,6.55a12.29,12.29,0,0,0-3.5-2.74,10.87,10.87,0,0,0-5.23-1.16h-10V22.11h3.53a10.35,10.35,0,0,0,3.93-.66,7,7,0,0,0,2.68-1.89,10.48,10.48,0,0,0,1.77-3,23.64,23.64,0,0,0,1.13-3.87h.82V32.32h-.82c-.3-1.22-.64-2.39-1-3.53a10.57,10.57,0,0,0-1.61-3,7.35,7.35,0,0,0-2.48-2.05,8.14,8.14,0,0,0-3.69-.75H124.3V45.74h10.33a13.47,13.47,0,0,0,5.23-1A12.86,12.86,0,0,0,144,42a15.49,15.49,0,0,0,3-4.13,22.12,22.12,0,0,0,1.82-5.07h.82v13.8H109.37v-.88h5.79V2.65h-5.79V1.76Z" style="fill:#231f20"/><path d="M222.89,14.62A21.74,21.74,0,0,0,218,5a11.35,11.35,0,0,0-8.76-3.37,13,13,0,0,0-7,1.67,11.37,11.37,0,0,0-4.07,4.34,17.89,17.89,0,0,0-1.85,6.12,53.53,53.53,0,0,0-.44,7v5.48a52.29,52.29,0,0,0,.75,9.64,17.11,17.11,0,0,0,2.36,6.3,9.05,9.05,0,0,0,4.16,3.43,16.14,16.14,0,0,0,6.08,1,8.8,8.8,0,0,0,4.6-1,6.92,6.92,0,0,0,2.61-2.83,12.1,12.1,0,0,0,1.17-4.26,52.1,52.1,0,0,0,.25-5.35v-2.4h-6.49v-.88h19.47v.88h-4.1V45.17H225.6a1.46,1.46,0,0,0-.72-1.1,2.67,2.67,0,0,0-1.36-.35,7,7,0,0,0-2.86.6l-2.93,1.29a30.16,30.16,0,0,1-3.63,1.29,17.7,17.7,0,0,1-4.94.6,22.92,22.92,0,0,1-8.89-1.79,24.37,24.37,0,0,1-7.52-4.92,23.92,23.92,0,0,1-5.2-7.34,21.5,21.5,0,0,1-2-9.13,21.34,21.34,0,0,1,2.17-9.7,25.21,25.21,0,0,1,5.57-7.44,24.85,24.85,0,0,1,7.6-4.75A22,22,0,0,1,209.16.76a17.45,17.45,0,0,1,3.65.37c1.18.26,2.27.52,3.28.79s1.91.54,2.71.79a7,7,0,0,0,2,.38,2.12,2.12,0,0,0,1.26-.29,2.46,2.46,0,0,0,.7-1h1.07V14.62Z" style="fill:#231f20"/><path d="M250,28l-7.31,17.77h5.61v.88H236.37v-.88h5.3L260.44,0h1.7L282,45.74h5.41v.88H266.24v-.88h5.85l-6.83-15.8-13.33-1.47h0l12.22-1.24L257,10.77,250,28" style="fill:#231f20"/><path d="M315.69,1.76v.89h-5.8V45.74h10.4a13.2,13.2,0,0,0,4.19-.7,11.62,11.62,0,0,0,4-2.29,16.35,16.35,0,0,0,3.34-4.16,22.18,22.18,0,0,0,2.3-6.21h.81V46.62H295v-.88h5.8V2.65H295V1.76Z" style="fill:#231f20"/><path d="M367.47,1.76v.89h-5.79V45.74h10.39a13.15,13.15,0,0,0,4.19-.7,11.52,11.52,0,0,0,4-2.29,16.35,16.35,0,0,0,3.34-4.16,21.87,21.87,0,0,0,2.3-6.21h.82V46.62H346.75v-.88h5.79V2.65h-5.79V1.76Z" style="fill:#231f20"/><path d="M418.82,1.76v.89H413V45.74h5.8v.88H398.09v-.88h5.8V2.65h-5.8V1.76Z" style="fill:#231f20"/><path d="M448.55,1.76v.89H442.5l13,34.14L468.83,2.65h-5.67V1.76h12v.89h-5.42L452,48.32h-1.82L432.8,2.65h-5.29V1.76Z" style="fill:#231f20"/><path d="M544.48,1.76l21,30h.13V2.65h-5.8V1.76h12.6v.89H566.6v44h-1.71L536.54,6.24h-.12v39.5h5.79v.88h-12.6v-.88h5.8V2.65h-5.8V1.76Z" style="fill:#231f20"/><path d="M595.83,2.65a16.42,16.42,0,0,0-4.16.47,8.52,8.52,0,0,0-3.28,1.64A10.72,10.72,0,0,0,585.81,8a27.11,27.11,0,0,0-2.08,5.29h-.82V1.76h39.5V13.29h-.82A27.11,27.11,0,0,0,619.51,8a10.42,10.42,0,0,0-2.58-3.24,8.48,8.48,0,0,0-3.27-1.64,16.48,16.48,0,0,0-4.16-.47h-2.27V45.74H613v.88H592.3v-.88h5.79V2.65Z" style="fill:#231f20"/><path d="M485.2,28l-7.31,17.77h5.61v.88H471.59v-.88h5.29L495.66,0h1.7L517.2,45.74h5.42v.88H501.45v-.88h5.86l-6.84-15.8-13.33-1.47h0l12.23-1.24-7.12-16.46L485.2,28" style="fill:#231f20"/><path d="M160.56,65.57h-4.32v-1.7h10.67v1.7h-4.33V77.42h-2Z" style="fill:#231f20"/><path d="M186.12,63.87V77.42h-2V63.87Z" style="fill:#231f20"/><path d="M215.55,71.77c0-2.47,0-5,.09-6.48h-.08c-.59,2.3-2.62,7.87-4.13,12.13h-1.78c-1.13-3.52-3.24-9.77-3.85-12.16h-.06c.11,1.57.15,4.54.15,6.86v5.3H204V63.87h3c1.45,4.08,3.2,9.32,3.65,11.1h0c.32-1.4,2.41-7.12,3.91-11.1h2.91V77.42h-2Z" style="fill:#231f20"/><path d="M244,71.18h-6.69v4.53h7.35l-.25,1.71h-9.06V63.87h9v1.7h-7v3.91H244Z" style="fill:#231f20"/><path d="M263.59,73.61C264,75.18,265,76,266.92,76s2.82-.92,2.82-2.15-.67-2-3.31-2.65c-3.28-.79-4.35-1.93-4.35-3.82,0-2.08,1.53-3.71,4.59-3.71,3.3,0,4.64,1.87,4.83,3.69h-2c-.23-1.13-.92-2.11-2.86-2.11-1.56,0-2.45.7-2.45,1.93s.73,1.68,3.07,2.25c3.88.93,4.59,2.43,4.59,4.2,0,2.24-1.66,4-5,4s-5-1.83-5.24-4Z" style="fill:#231f20"/><path d="M313,73.61c.35,1.57,1.44,2.4,3.33,2.4s2.81-.92,2.81-2.15-.66-2-3.3-2.65c-3.29-.79-4.36-1.93-4.36-3.82,0-2.08,1.54-3.71,4.6-3.71,3.29,0,4.64,1.87,4.82,3.69h-2c-.22-1.13-.92-2.11-2.85-2.11-1.56,0-2.45.7-2.45,1.93s.73,1.68,3.07,2.25c3.87.93,4.59,2.43,4.59,4.2,0,2.24-1.67,4-5,4s-4.94-1.83-5.23-4Z" style="fill:#231f20"/><path d="M352.54,70.55c0,4-2.27,7.55-6.88,7.55-4.32,0-6.71-3.31-6.71-7.47s2.38-7,6.8-7C349.87,63.58,352.54,66.21,352.54,70.55Zm-11.9,0c0,3.08,1.84,5.76,5.12,5.76s4.9-2.65,4.9-5.65S349.09,65,345.75,65C342.58,65,340.64,67.47,340.64,70.52ZM351,74.86l2.41,2-1.2,1.25-2.44-2Z" style="fill:#231f20"/><path d="M372.24,63.87V72c0,3.08,1.68,3.93,3.36,3.93,2,0,3.32-.93,3.32-3.93V63.87h2v8c0,4.44-2.48,5.69-5.38,5.69s-5.35-1.34-5.35-5.57V63.87Z" style="fill:#231f20"/><path d="M401.28,73.53l-1.38,3.89h-2l4.78-13.55h2.49l5,13.55H408l-1.43-3.89Zm4.83-1.7c-1.23-3.43-1.92-5.31-2.22-6.38h0c-.33,1.19-1.11,3.45-2.09,6.38Z" style="fill:#231f20"/><path d="M428.88,71.55v5.87h-1.7V63.87H433c3,0,4.79,1.54,4.77,3.65a4.08,4.08,0,0,1-3.23,4c.67.93,3.5,5.35,3.79,5.88h-2.15c-.26-.59-3-4.68-3.89-5.88Zm0-1.66h3.47c2.12,0,3.46-.52,3.46-2.18s-1.39-2.17-3.27-2.17h-3.66Z" style="fill:#231f20"/><path d="M464.13,71.18h-6.68v4.53h7.35l-.26,1.71h-9.06V63.87h9v1.7h-7v3.91h6.68Z" style="fill:#231f20"/></svg>