<svg xmlns="http://www.w3.org/2000/svg" id="pod-philly-logo" class="logo" viewBox="0 0 314.94 131.89"><path d="M71.52,86.38A29.14,29.14,0,1,0,42.39,57.24,29.14,29.14,0,0,0,71.52,86.38Z" fill="#6fb1c8"/><path d="M230.2,46.2a3.12,3.12,0,0,0-1.09-.94,3.31,3.31,0,0,0-1.55-.34,3.06,3.06,0,0,0-2.66,1.34,3.82,3.82,0,0,0-.6,1.36,6.62,6.62,0,0,0-.18,1.54,6.49,6.49,0,0,0,.19,1.6,3.94,3.94,0,0,0,.62,1.36,3.16,3.16,0,0,0,1.1,1,3.45,3.45,0,0,0,1.64.36,3.16,3.16,0,0,0,1.6-.37,3,3,0,0,0,1-1,4.42,4.42,0,0,0,.57-1.39,7.86,7.86,0,0,0,.17-1.61,5.67,5.67,0,0,0-.21-1.54A3.85,3.85,0,0,0,230.2,46.2Z" fill="#6fb1c8"/><path d="M277.73,2.92c0,20.4,0,50.06,0,54a36.48,36.48,0,1,1-36.48-36.47c12,0,23.15,5.32,29.2,14.62,0,0,0-19,0-34A67.25,67.25,0,0,0,258.06,0H56.93C-11,0-18,87.63,35.07,106.53c0-20,0-45.61,0-49.29A36.48,36.48,0,1,1,71.52,93.72c-11.95,0-23.14-5.33-29.2-14.62,0,0,0,15.47,0,29.48a68.67,68.67,0,0,0,14.61,1.52H257.67C327.79,110.1,332.37,20.36,277.73,2.92ZM156.4,93.72a36.48,36.48,0,1,1,36.48-36.48A36.48,36.48,0,0,1,156.4,93.72Z" fill="#6fb1c8"/><path d="M156.4,28.1a29.14,29.14,0,1,0,29.14,29.14A29.14,29.14,0,0,0,156.4,28.1Z" fill="#6fb1c8"/><polygon points="267.71 121.8 265.21 121.8 265.21 131.89 275.61 131.89 275.61 129.99 267.71 129.99 267.71 121.8" fill="#6fb1c8"/><path d="M264.16,52.76h0l3.07-9a28.9,28.9,0,1,0,1.06,2.33l-3.91,10.18a12.52,12.52,0,0,1-.64,1.39,3.59,3.59,0,0,1-.7.92,2.38,2.38,0,0,1-.85.53,3.21,3.21,0,0,1-1.07.16,4.87,4.87,0,0,1-.66,0,2.65,2.65,0,0,1-.63-.16V57.42a3.08,3.08,0,0,0,.56.18,2.35,2.35,0,0,0,.53.08,1.55,1.55,0,0,0,1-.28,1.63,1.63,0,0,0,.57-.77l.77-1.89-4.47-11.2h2.09Zm-31.47-1.29a5.47,5.47,0,0,1-1,1.86,4.52,4.52,0,0,1-1.61,1.25,5.18,5.18,0,0,1-2.26.46,5.37,5.37,0,0,1-.92-.09,4.85,4.85,0,0,1-1-.28,4,4,0,0,1-.94-.53,3,3,0,0,1-.75-.84h0v5.79h-1.85V43.54h1.85v1.53h0a2.72,2.72,0,0,1,1.43-1.36,5.27,5.27,0,0,1,2.16-.43,5,5,0,0,1,2.27.48,4.59,4.59,0,0,1,1.62,1.3,5.67,5.67,0,0,1,1,1.88,7.64,7.64,0,0,1,.33,2.27A8,8,0,0,1,232.69,51.47ZM243.8,54.8H242V47.18a2.2,2.2,0,0,0-.61-1.65,2.27,2.27,0,0,0-1.68-.61,3.71,3.71,0,0,0-1.47.26,2.75,2.75,0,0,0-1,.74,3.14,3.14,0,0,0-.62,1.12,4.51,4.51,0,0,0-.21,1.4V54.8h-1.85V39.25h1.85v6h0a2.29,2.29,0,0,1,.61-.88,3.31,3.31,0,0,1,.88-.59,4.53,4.53,0,0,1,1-.34,5.41,5.41,0,0,1,1-.11,5,5,0,0,1,1.85.31,2.91,2.91,0,0,1,1.19.85,3.15,3.15,0,0,1,.65,1.29,7.18,7.18,0,0,1,.18,1.67Zm4.1,0H246V43.54h1.86Zm0-13.28H246V39.25h1.86Zm4.83,13.28h-1.85V39.25h1.85Zm4.83,0h-1.85V39.25h1.85Z" fill="#6fb1c8"/><polygon points="45 125.64 37.32 125.64 37.32 121.8 34.82 121.8 34.82 131.89 37.32 131.89 37.32 127.64 45 127.64 45 131.89 47.46 131.89 47.46 121.8 45 121.8 45 125.64" fill="#6fb1c8"/><polygon points="211.34 127.53 216.19 127.53 216.19 125.78 211.34 125.78 211.34 123.59 219.67 123.59 219.67 121.8 208.84 121.8 208.84 131.89 219.78 131.89 219.78 129.99 211.34 129.99 211.34 127.53" fill="#6fb1c8"/><polygon points="151.4 123.62 156.28 123.62 156.28 131.89 158.74 131.89 158.74 123.62 163.61 123.62 163.61 121.8 151.4 121.8 151.4 123.62" fill="#6fb1c8"/><path d="M103.69,121.79h-7.8a3.31,3.31,0,0,0-2.07.48,2.5,2.5,0,0,0-.55,1.91v5.33a2.48,2.48,0,0,0,.55,1.89,3.18,3.18,0,0,0,2.07.49h7.8a3.18,3.18,0,0,0,2.06-.49,2.48,2.48,0,0,0,.56-1.89v-5.33a2.59,2.59,0,0,0-.54-1.91A3.35,3.35,0,0,0,103.69,121.79Zm.17,8.16H95.73v-6.29h8.13Z" fill="#6fb1c8"/></svg>